<?xml version="1.0" encoding="utf-8"?>
<!-- Generator: Adobe Illustrator 23.1.0, SVG Export Plug-In . SVG Version: 6.00 Build 0)  -->
<svg version="1.1" xmlns="http://www.w3.org/2000/svg" xmlns:xlink="http://www.w3.org/1999/xlink" x="0px" y="0px"
	 viewBox="0 0 360 360" style="enable-background:new 0 0 360 360;" xml:space="preserve">
<style type="text/css">
	.st0{fill:#FFFFFF;}
	.st1{fill:#0E6E39;}
	.st2{fill:#0C6E39;}
	.st3{fill:#4F497B;}
	.st4{fill:#216885;}
	.st5{fill:#F0492D;}
	.st6{fill:#EF3F25;}
	.st7{fill:#236886;}
	.st8{fill:#256887;}
	.st9{fill:#D2BF2D;}
	.st10{display:none;}
	.st11{display:inline;fill:none;stroke:#000000;stroke-width:0.25;stroke-miterlimit:10;}
	.st12{display:inline;fill:none;stroke:#FFFFFF;stroke-width:0.25;stroke-miterlimit:10;}
	.st13{display:inline;fill:none;stroke:#FFFFFF;stroke-width:0.25;stroke-linecap:round;stroke-miterlimit:10;}
	.st14{display:inline;fill:none;stroke:#000000;stroke-width:0.25;stroke-linecap:round;stroke-miterlimit:10;}
	.st15{fill:#4F4A7C;}
	.st16{fill:none;stroke:#FFFFFF;stroke-miterlimit:10;}
	.st17{stroke:#FFFFFF;stroke-miterlimit:10;}
	.st18{fill:none;stroke:#FFFFFF;stroke-width:3;stroke-miterlimit:10;}
	.st19{fill:none;stroke:#FFFFFF;stroke-linecap:round;stroke-miterlimit:10;}
	.st20{fill:none;stroke:#236886;stroke-width:5;stroke-miterlimit:10;}
	.st21{fill:none;stroke:#236886;stroke-width:5;stroke-linecap:round;stroke-miterlimit:10;}
	.st22{fill:none;stroke:#FFFFFF;stroke-width:5;stroke-miterlimit:10;}
	.st23{fill:none;stroke:#FFFFFF;stroke-width:5;stroke-linecap:round;stroke-miterlimit:10;}
	.st24{fill:none;stroke:#4F497B;stroke-width:3;stroke-miterlimit:10;}
	.st25{fill:none;stroke:#4F497B;stroke-miterlimit:10;}
	.st26{fill:#FFFFFF;stroke:#4F497B;stroke-miterlimit:10;}
	.st27{fill:#FFFFFF;stroke:#4F497B;stroke-width:2;stroke-miterlimit:10;}
	.st28{fill:none;stroke:#4F497B;stroke-width:2;stroke-linecap:round;stroke-miterlimit:10;}
	.st29{stroke:#FFFFFF;stroke-width:2;stroke-miterlimit:10;}
	.st30{fill:none;stroke:#FFFFFF;stroke-width:2;stroke-linecap:round;stroke-miterlimit:10;}
	.st31{fill:none;stroke:#0C6E39;stroke-width:3;stroke-miterlimit:10;}
	.st32{fill:none;stroke:#EF3F25;stroke-miterlimit:10;}
	.st33{fill:none;stroke:#EF3F25;stroke-width:3;stroke-miterlimit:10;}
	.st34{fill:none;stroke:#4F4A7C;stroke-width:3;stroke-miterlimit:10;}
	.st35{fill:none;stroke:#4F4A7C;stroke-width:5;stroke-linecap:round;stroke-miterlimit:10;}
	.st36{fill:none;stroke:#EF3F25;stroke-width:3;stroke-linecap:round;stroke-miterlimit:10;}
	.st37{fill:none;stroke:#EF3F25;stroke-width:5;stroke-linecap:round;stroke-miterlimit:10;}
	.st38{fill:none;stroke:#FFFFFF;stroke-width:3;stroke-linecap:round;stroke-miterlimit:10;}
	.st39{fill:none;stroke:#4F497B;stroke-width:5;stroke-linecap:round;stroke-miterlimit:10;}
	.st40{fill:#FFFFFF;stroke:#0E6E39;stroke-width:3;stroke-linejoin:round;stroke-miterlimit:10;}
	.st41{fill:none;stroke:#0E6E39;stroke-width:3;stroke-linejoin:round;stroke-miterlimit:10;}
	.st42{stroke:#FFFFFF;stroke-width:3;stroke-linejoin:round;stroke-miterlimit:10;}
	.st43{fill:none;stroke:#FFFFFF;stroke-width:3;stroke-linejoin:round;stroke-miterlimit:10;}
	.st44{fill:none;stroke:#0C6E39;stroke-width:5;stroke-linecap:round;stroke-miterlimit:10;}
	.st45{fill:none;stroke:#0C6E39;stroke-width:3;stroke-linecap:round;stroke-miterlimit:10;}
	.st46{fill:none;stroke:#0C6E39;stroke-linecap:round;stroke-linejoin:round;stroke-miterlimit:10;}
	.st47{fill:#0C6E39;stroke:#0C6E39;stroke-width:0;stroke-miterlimit:10;}
	.st48{fill:none;stroke:#0C6E39;stroke-width:3;stroke-linecap:round;stroke-linejoin:round;stroke-miterlimit:10;}
	.st49{fill:none;stroke:#0C6E39;stroke-linecap:round;stroke-miterlimit:10;}
	.st50{fill:none;stroke:#FFFFFF;stroke-linecap:round;stroke-linejoin:round;stroke-miterlimit:10;}
	.st51{fill:none;stroke:#FFFFFF;stroke-width:3;stroke-linecap:round;stroke-linejoin:round;stroke-miterlimit:10;}
	.st52{fill:none;stroke:#4F4A7C;stroke-miterlimit:10;}
	.st53{fill:#FFFFFF;stroke:#4F4A7C;stroke-width:2;stroke-miterlimit:10;}
	.st54{fill:#FFFFFF;stroke:#4F497B;stroke-width:5;stroke-miterlimit:10;}
	.st55{stroke:#FFFFFF;stroke-width:5;stroke-miterlimit:10;}
	.st56{fill:none;stroke:#EF3F25;stroke-width:2;stroke-linecap:round;stroke-miterlimit:10;}
	.st57{fill:none;stroke:#FFFFFF;stroke-width:1.5;stroke-miterlimit:10;}
	.st58{fill:none;stroke:#FFFFFF;stroke-width:1.5;stroke-linecap:round;stroke-miterlimit:10;}
	.st59{fill:none;stroke:#0E6E39;stroke-width:3;stroke-miterlimit:10;}
	.st60{fill:none;stroke:#0E6E39;stroke-width:1.5;stroke-miterlimit:10;}
	.st61{fill:none;stroke:#0E6E39;stroke-width:1.5;stroke-linecap:round;stroke-miterlimit:10;}
	.st62{fill:none;stroke:#EF3F25;stroke-width:0.7099;stroke-miterlimit:10;}
	.st63{fill:none;stroke:#FFFFFF;stroke-width:0.7099;stroke-miterlimit:10;}
	.st64{fill:#EF4025;}
	.st65{fill:#505050;stroke:#4F4A7C;stroke-width:2.9281;stroke-miterlimit:10;}
	.st66{fill:#FFFFFF;stroke:#FFFFFF;stroke-width:2.9281;stroke-miterlimit:10;}
	.st67{fill:none;stroke:#FFFFFF;stroke-width:3.2577;stroke-miterlimit:10;}
	.st68{fill:none;stroke:#FFFFFF;stroke-width:3.2577;stroke-linecap:round;stroke-linejoin:round;stroke-miterlimit:10;}
	.st69{fill:none;stroke:#256887;stroke-width:3.2577;stroke-miterlimit:10;}
	.st70{fill:none;stroke:#256887;stroke-width:3.2577;stroke-linecap:round;stroke-linejoin:round;stroke-miterlimit:10;}
	.st71{fill:#FFFFFF;stroke:#FFFFFF;stroke-width:2;stroke-miterlimit:10;}
	.st72{fill:#D2BF2D;stroke:#D2BF2D;stroke-width:2;stroke-miterlimit:10;}
	.st73{fill:#086E38;}
	.st74{fill:#256887;stroke:#256887;stroke-width:4;stroke-miterlimit:10;}
	.st75{fill:#FFFFFF;stroke:#FFFFFF;stroke-width:4;stroke-miterlimit:10;}
	.st76{fill:#4F4B7D;}
	.st77{fill:#256887;stroke:#256887;stroke-width:2.8997;stroke-miterlimit:10;}
	.st78{fill:#FFFFFF;stroke:#FFFFFF;stroke-width:2.8997;stroke-miterlimit:10;}
	.st79{fill:none;stroke:#FFFFFF;stroke-width:2.2399;stroke-miterlimit:10;}
	.st80{fill:none;stroke:#FFFFFF;stroke-width:2;stroke-miterlimit:10;}
	.st81{fill:none;stroke:#FFFFFF;stroke-width:1.4254;stroke-miterlimit:10;}
	.st82{fill:none;stroke:#EF4025;stroke-width:2.2399;stroke-miterlimit:10;}
	.st83{fill:none;stroke:#EF4025;stroke-width:2;stroke-miterlimit:10;}
	.st84{fill:none;stroke:#EF4025;stroke-width:1.4254;stroke-miterlimit:10;}
	.st85{fill:none;stroke:#4F497B;stroke-linecap:round;stroke-miterlimit:10;}
</style>
<g id="White">
	<rect x="0" class="st0" width="360.29" height="360.29"/>
</g>
<g id="BACKGROUND">
	<rect y="336" class="st7" width="360" height="23.94"/>
	<g>
		<path class="st0" d="M297.29,349.47v2.95h-1.79v-8.4h3.19c0.5,0,0.96,0.05,1.37,0.16c0.41,0.1,0.76,0.26,1.04,0.48
			c0.29,0.22,0.51,0.49,0.67,0.83c0.16,0.34,0.24,0.74,0.24,1.21c0,0.48-0.08,0.89-0.25,1.24c-0.16,0.35-0.39,0.64-0.68,0.86
			c-0.29,0.23-0.64,0.4-1.05,0.5c-0.41,0.11-0.86,0.16-1.34,0.16H297.29z M300.18,346.7c0-0.46-0.14-0.77-0.41-0.94
			s-0.69-0.25-1.25-0.25h-1.22v2.47h1.22c0.56,0,0.98-0.1,1.25-0.3C300.05,347.48,300.18,347.16,300.18,346.7z"/>
		<path class="st0" d="M311.3,352.42h-1.86l-0.67-1.94h-3.01l-0.67,1.94h-1.76l3.02-8.4h1.93L311.3,352.42z M307.24,345.99
			c-0.02,0.06-0.04,0.16-0.08,0.28c-0.04,0.13-0.08,0.26-0.13,0.42c-0.05,0.16-0.1,0.32-0.16,0.5c-0.06,0.18-0.12,0.35-0.17,0.52
			c-0.14,0.42-0.28,0.86-0.44,1.33h2.03c-0.16-0.47-0.31-0.92-0.44-1.33c-0.09-0.24-0.16-0.44-0.21-0.59
			c-0.05-0.16-0.1-0.31-0.14-0.45c-0.04-0.14-0.09-0.28-0.13-0.4c-0.04-0.12-0.07-0.22-0.08-0.28H307.24z"/>
		<path class="st0" d="M312.18,344.02h6.66v1.5h-2.42v6.9h-1.81v-6.9h-2.42V344.02z"/>
		<path class="st0" d="M321.38,344.02h1.8v8.4h-1.8V344.02z"/>
		<path class="st0" d="M326.35,352.42v-8.4h5.72v1.49h-3.95v1.85h3.67v1.49h-3.67v2.09h4.01v1.49H326.35z"/>
		<path class="st0" d="M334.91,344.02h1.87c0.49,0.79,0.95,1.54,1.39,2.26c0.26,0.42,0.48,0.77,0.65,1.05
			c0.17,0.28,0.34,0.55,0.5,0.82c0.17,0.27,0.33,0.53,0.48,0.77c0.15,0.24,0.28,0.45,0.38,0.62h0.04v-5.52h1.7v8.4h-1.87
			c-0.48-0.78-0.94-1.52-1.37-2.22c-0.26-0.42-0.47-0.76-0.64-1.04c-0.17-0.28-0.34-0.55-0.51-0.83s-0.33-0.54-0.49-0.79
			s-0.29-0.47-0.4-0.64h-0.04v5.52h-1.7V344.02z"/>
		<path class="st0" d="M344.46,344.02h6.66v1.5h-2.42v6.9h-1.81v-6.9h-2.42V344.02z"/>
	</g>
</g>
<g id="REF" class="st10">
	<rect x="10" y="90.27" class="st11" width="360" height="108"/>
	<line class="st14" x1="190" y1="0.13" x2="190" y2="360"/>
</g>
<g id="LINE_ONE">
	<g>
		<path class="st7" d="M137.16,243.18v4.92h-2.98v-14h5.32c0.84,0,1.6,0.09,2.28,0.26c0.68,0.17,1.26,0.44,1.74,0.8
			c0.48,0.36,0.85,0.82,1.12,1.38c0.27,0.56,0.4,1.23,0.4,2.02c0,0.8-0.14,1.49-0.41,2.07s-0.65,1.06-1.14,1.44
			c-0.49,0.38-1.07,0.66-1.75,0.84c-0.68,0.18-1.43,0.27-2.24,0.27H137.16z M141.98,238.56c0-0.76-0.23-1.28-0.69-1.56
			c-0.46-0.28-1.16-0.42-2.09-0.42h-2.04v4.12h2.04c0.93,0,1.63-0.17,2.09-0.5C141.75,239.86,141.98,239.32,141.98,238.56z"/>
		<path class="st7" d="M160.5,248.1h-3.1l-1.12-3.24h-5.02l-1.12,3.24h-2.94l5.04-14h3.22L160.5,248.1z M153.74,237.38
			c-0.03,0.11-0.07,0.26-0.14,0.47s-0.14,0.44-0.22,0.7s-0.17,0.54-0.27,0.84s-0.2,0.59-0.29,0.87c-0.23,0.69-0.47,1.43-0.74,2.22
			h3.38c-0.27-0.79-0.51-1.53-0.74-2.22c-0.15-0.4-0.26-0.73-0.35-0.99c-0.09-0.26-0.17-0.51-0.24-0.75
			c-0.07-0.24-0.14-0.46-0.21-0.67c-0.07-0.21-0.11-0.36-0.14-0.47H153.74z"/>
		<path class="st7" d="M161.98,234.1h11.1v2.5h-4.04v11.5h-3.02v-11.5h-4.04V234.1z"/>
		<path class="st7" d="M177.3,234.1h3v14h-3V234.1z"/>
		<path class="st7" d="M185.58,248.1v-14h9.54v2.48h-6.58v3.08h6.12v2.48h-6.12v3.48h6.68v2.48H185.58z"/>
		<path class="st7" d="M199.86,234.1h3.12c0.81,1.32,1.59,2.57,2.32,3.76c0.44,0.71,0.8,1.29,1.08,1.75
			c0.28,0.46,0.56,0.92,0.84,1.37c0.28,0.45,0.55,0.88,0.8,1.29c0.25,0.41,0.47,0.75,0.64,1.03h0.06v-9.2h2.84v14h-3.12
			c-0.8-1.29-1.56-2.53-2.28-3.7c-0.43-0.69-0.78-1.27-1.07-1.73s-0.57-0.92-0.85-1.38c-0.28-0.46-0.55-0.9-0.81-1.32
			s-0.48-0.78-0.67-1.07h-0.06v9.2h-2.84V234.1z"/>
		<path class="st7" d="M215.78,234.1h11.1v2.5h-4.04v11.5h-3.02v-11.5h-4.04V234.1z"/>
	</g>
</g>
<g id="LINE_TWO">
	<g>
		<path class="st7" d="M133.38,251.88h5.22c1.07,0,2.03,0.16,2.88,0.47c0.85,0.31,1.57,0.77,2.16,1.36
			c0.59,0.59,1.04,1.32,1.35,2.19c0.31,0.87,0.47,1.86,0.47,2.98s-0.16,2.11-0.47,2.98c-0.31,0.87-0.76,1.6-1.35,2.19
			c-0.59,0.59-1.31,1.05-2.16,1.36c-0.85,0.31-1.81,0.47-2.88,0.47h-5.22V251.88z M142.36,258.88c0-0.68-0.08-1.3-0.23-1.85
			c-0.15-0.55-0.39-1.03-0.7-1.43c-0.31-0.4-0.71-0.71-1.19-0.92c-0.48-0.21-1.05-0.32-1.72-0.32h-2.12v9.04h2.12
			c0.67,0,1.24-0.11,1.72-0.32s0.88-0.52,1.19-0.92c0.31-0.4,0.55-0.88,0.7-1.43C142.28,260.18,142.36,259.56,142.36,258.88z"/>
		<path class="st7" d="M150.16,251.88h3v14h-3V251.88z"/>
		<path class="st7" d="M164.16,258.12h6.44v7.76h-2.72v-1.44c-0.31,0.48-0.76,0.89-1.36,1.22c-0.6,0.33-1.38,0.5-2.34,0.5
			c-1.04,0-1.96-0.19-2.75-0.57c-0.79-0.38-1.45-0.9-1.98-1.55c-0.53-0.65-0.92-1.42-1.19-2.3s-0.4-1.82-0.4-2.82
			c0-1.08,0.16-2.07,0.47-2.96c0.31-0.89,0.77-1.66,1.37-2.31c0.6-0.65,1.33-1.15,2.19-1.51c0.86-0.36,1.84-0.54,2.93-0.54
			c1.41,0,2.62,0.31,3.62,0.93c1,0.62,1.75,1.54,2.26,2.75l-2.78,1.14c-0.27-0.75-0.67-1.32-1.22-1.73c-0.55-0.41-1.21-0.61-2-0.61
			c-1.13,0-2.04,0.42-2.72,1.25c-0.68,0.83-1.02,2.06-1.02,3.69c0,3.12,1.23,4.68,3.7,4.68c0.36,0,0.72-0.05,1.08-0.15
			s0.69-0.25,0.99-0.46c0.3-0.21,0.54-0.47,0.73-0.79c0.19-0.32,0.28-0.71,0.28-1.16v-0.64h-3.58V258.12z"/>
		<path class="st7" d="M175.82,251.88h3.12c0.81,1.32,1.59,2.57,2.32,3.76c0.44,0.71,0.8,1.29,1.08,1.75
			c0.28,0.46,0.56,0.92,0.84,1.37c0.28,0.45,0.55,0.88,0.8,1.29c0.25,0.41,0.47,0.75,0.64,1.03h0.06v-9.2h2.84v14h-3.12
			c-0.8-1.29-1.56-2.53-2.28-3.7c-0.43-0.69-0.78-1.27-1.07-1.73c-0.29-0.46-0.57-0.92-0.85-1.38c-0.28-0.46-0.55-0.9-0.81-1.32
			c-0.26-0.42-0.48-0.78-0.67-1.07h-0.06v9.2h-2.84V251.88z"/>
		<path class="st7" d="M192.8,251.88h3v14h-3V251.88z"/>
		<path class="st7" d="M200.02,251.88h11.1v2.5h-4.04v11.5h-3.02v-11.5h-4.04V251.88z"/>
		<path class="st7" d="M219.58,260.02l-5.3-8.14h3.44l3.42,5.36l3.4-5.36h3.34l-5.3,8.14v5.86h-3V260.02z"/>
	</g>
</g>
<g id="ICON">
	<g>
		<path class="st8" d="M180.75,174.48c-0.52,0-0.97,0-1.52,0c-0.14,1.3-0.29,2.59-0.4,3.89c-0.48,5.21-0.94,10.42-1.41,15.63
			c-0.24,2.64-2.41,4.47-5,4.25c-2.59-0.22-4.41-2.39-4.17-5.05c0.73-7.93,1.58-15.84,2.18-23.78c0.28-3.64,0.05-7.32,0.13-10.98
			c0.03-1.69-0.22-3.3-0.72-4.91c-3.3-10.52-6.56-21.06-9.85-31.58c-0.89-2.85,0.42-5.21,3.11-5.54c1.87-0.23,3.52,0.89,4.14,2.85
			c1.41,4.43,2.81,8.86,4.22,13.3c0.73,2.29,1.47,4.58,2.15,6.88c0.2,0.67,0.51,0.86,1.17,0.71c0.58-0.13,1.18-0.17,2.02-0.28
			c-2.75-1.65-4.19-3.89-4.13-6.94c0.04-1.98,0.83-3.68,2.26-5.05c2.97-2.83,7.67-2.68,10.46,0.34c1.66,1.8,2.23,3.96,1.81,6.34
			c-0.41,2.34-1.81,4.02-4.04,5.32c1.13,0.13,2,0.23,2.95,0.34c0.66-2.09,1.31-4.13,1.96-6.17c1.56-4.92,3.11-9.84,4.66-14.76
			c0.47-1.49,1.41-2.5,2.98-2.82c1.48-0.3,2.75,0.13,3.72,1.28c0.99,1.18,1.12,2.51,0.65,3.98c-1.43,4.42-2.83,8.86-4.21,13.3
			c-2.09,6.74-4.14,13.48-6.2,20.23c-0.16,0.51-0.23,1.07-0.23,1.61c-0.02,3.66-0.12,7.33,0.02,10.98c0.12,3.14,0.51,6.27,0.79,9.4
			c0.49,5.37,1.02,10.74,1.47,16.11c0.22,2.6-1.58,4.67-4.11,4.9c-2.57,0.24-4.74-1.51-4.99-4.12c-0.59-6.07-1.13-12.14-1.7-18.22
			C180.88,175.44,180.81,174.98,180.75,174.48z M170.55,193.56c-0.05,1.27,0.83,2.29,2.14,2.37c1.25,0.08,2.29-0.81,2.41-2.12
			c0.28-2.94,0.53-5.88,0.8-8.82c0.35-3.8,0.7-7.61,1.07-11.41c0.12-1.23,0.42-1.46,1.67-1.47c0.9-0.01,1.8-0.01,2.7,0
			c1.25,0.01,1.6,0.33,1.72,1.55c0.6,6.62,1.2,13.24,1.81,19.86c0.14,1.58,1.08,2.5,2.43,2.42c1.43-0.09,2.24-1.09,2.09-2.76
			c-0.4-4.61-0.84-9.21-1.26-13.81c-0.34-3.8-0.8-7.61-0.97-11.42c-0.17-3.82-0.05-7.64-0.03-11.47c0-0.54,0.08-1.09,0.24-1.61
			c2.94-9.57,5.9-19.14,8.85-28.71c0.57-1.84,1.18-3.67,1.73-5.51c0.24-0.82-0.19-1.59-0.94-1.86c-0.76-0.28-1.56,0.06-1.92,0.83
			c-0.11,0.23-0.18,0.48-0.25,0.73c-2.22,7.01-4.43,14.01-6.65,21.02c-0.4,1.27-0.75,1.47-2.05,1.24c-4.09-0.7-8.18-0.72-12.27,0
			c-1.31,0.23-1.65,0.04-2.06-1.23c-1.79-5.66-3.58-11.32-5.37-16.98c-0.46-1.47-0.91-2.94-1.39-4.41
			c-0.33-1.01-1.12-1.49-1.96-1.24c-0.9,0.27-1.27,1.03-1.01,2.08c0.05,0.19,0.11,0.37,0.16,0.55c0.99,3.12,1.99,6.24,2.96,9.36
			c2.48,8.03,4.95,16.07,7.41,24.1c0.11,0.36,0.21,0.75,0.21,1.13c0.18,8.07-0.1,16.11-1.04,24.14
			C171.29,184.56,170.97,189.01,170.55,193.56z M184.99,133.2c0.01-2.77-2.16-4.97-4.91-5c-2.8-0.03-5.07,2.17-5.09,4.94
			c-0.02,2.77,2.22,5.06,4.98,5.07C182.74,138.23,184.98,135.99,184.99,133.2z"/>
		<path class="st8" d="M181.11,98.64c0,2.24-0.01,4.49,0.01,6.73c0.01,0.79-0.16,1.43-1.09,1.49c-0.75,0.05-1.16-0.46-1.17-1.43
			c-0.01-4.59,0-9.17,0-13.76c0-0.76,0.25-1.34,1.11-1.4c0.73-0.05,1.14,0.48,1.14,1.44C181.11,94.02,181.11,96.33,181.11,98.64z"/>
		<path class="st8" d="M157.42,115.29c-0.42-0.32-0.79-0.51-1.04-0.81c-2.96-3.5-5.91-7.02-8.86-10.54
			c-0.62-0.74-0.64-1.43-0.05-1.85c0.69-0.49,1.25-0.24,1.75,0.35c2.94,3.52,5.91,7.02,8.83,10.57c0.29,0.35,0.39,0.98,0.32,1.45
			C158.33,114.76,157.81,114.98,157.42,115.29z"/>
		<path class="st8" d="M213.09,102.87c-0.24,0.43-0.36,0.77-0.58,1.02c-2.94,3.52-5.89,7.03-8.83,10.55
			c-0.51,0.61-1.11,0.99-1.81,0.39c-0.68-0.59-0.42-1.25,0.09-1.85c2.93-3.48,5.86-6.97,8.78-10.46c0.39-0.47,0.84-0.89,1.47-0.57
			C212.56,102.12,212.78,102.53,213.09,102.87z"/>
		<path class="st8" d="M209.9,124.88c-0.31-0.27-0.79-0.48-0.91-0.82c-0.11-0.35,0.08-0.84,0.24-1.22c0.09-0.19,0.41-0.29,0.63-0.41
			c3.9-2.16,7.81-4.31,11.71-6.46c0.14-0.08,0.28-0.16,0.42-0.23c0.65-0.29,1.21-0.2,1.56,0.46c0.35,0.67,0.08,1.19-0.52,1.53
			c-2.01,1.13-4.04,2.24-6.06,3.35c-2.02,1.11-4.04,2.23-6.07,3.33C210.62,124.56,210.33,124.68,209.9,124.88z"/>
		<path class="st8" d="M192.4,108.97c-1.24,0.04-1.71-0.68-1.36-1.68c0.7-2,1.44-3.98,2.16-5.96c0.85-2.32,1.69-4.64,2.54-6.95
			c0.36-0.97,0.93-1.34,1.62-1.02c0.84,0.39,0.76,1.06,0.49,1.79c-1.55,4.24-3.08,8.49-4.66,12.73
			C193.02,108.34,192.59,108.72,192.4,108.97z"/>
		<path class="st8" d="M151.12,123.37c-0.03,1.23-0.91,1.65-1.84,1.15c-1.95-1.05-3.88-2.13-5.81-3.2
			c-2.08-1.15-4.16-2.29-6.23-3.44c-0.88-0.49-1.18-1.14-0.76-1.76c0.52-0.76,1.16-0.59,1.85-0.21c3.98,2.2,7.98,4.39,11.95,6.61
			C150.67,122.74,150.94,123.18,151.12,123.37z"/>
		<path class="st8" d="M163.36,93.25c0.17,0.17,0.62,0.44,0.77,0.82c1.65,4.45,3.26,8.91,4.88,13.37c0.25,0.69,0.04,1.24-0.64,1.48
			c-0.67,0.23-1.21-0.04-1.46-0.73c-1.63-4.46-3.25-8.91-4.85-13.38C161.74,93.96,162.27,93.24,163.36,93.25z"/>
		<path class="st0" d="M170.55,193.56c0.42-4.55,0.74-9,1.26-13.44c0.94-8.02,1.21-16.07,1.04-24.14c-0.01-0.38-0.1-0.76-0.21-1.13
			c-2.47-8.04-4.93-16.07-7.41-24.1c-0.97-3.13-1.97-6.24-2.96-9.36c-0.06-0.18-0.12-0.37-0.16-0.55c-0.26-1.05,0.11-1.81,1.01-2.08
			c0.84-0.25,1.63,0.23,1.96,1.24c0.47,1.47,0.92,2.94,1.39,4.41c1.79,5.66,3.58,11.32,5.37,16.98c0.4,1.27,0.75,1.46,2.06,1.23
			c4.09-0.72,8.18-0.7,12.27,0c1.3,0.22,1.65,0.03,2.05-1.24c2.22-7.01,4.43-14.01,6.65-21.02c0.08-0.24,0.14-0.5,0.25-0.73
			c0.37-0.77,1.16-1.11,1.92-0.83c0.75,0.27,1.18,1.05,0.94,1.86c-0.55,1.84-1.16,3.67-1.73,5.51c-2.96,9.57-5.91,19.13-8.85,28.71
			c-0.16,0.51-0.23,1.07-0.24,1.61c-0.02,3.82-0.14,7.65,0.03,11.47c0.17,3.81,0.63,7.61,0.97,11.42c0.42,4.6,0.86,9.21,1.26,13.81
			c0.14,1.66-0.66,2.66-2.09,2.76c-1.35,0.09-2.29-0.84-2.43-2.42c-0.61-6.62-1.21-13.24-1.81-19.86c-0.11-1.22-0.46-1.54-1.72-1.55
			c-0.9-0.01-1.8-0.01-2.7,0c-1.25,0.01-1.55,0.24-1.67,1.47c-0.37,3.8-0.72,7.61-1.07,11.41c-0.27,2.94-0.52,5.88-0.8,8.82
			c-0.13,1.31-1.17,2.2-2.41,2.12C171.37,195.85,170.5,194.83,170.55,193.56z"/>
		<path class="st0" d="M184.99,133.2c-0.01,2.79-2.25,5.03-5.03,5.01c-2.76-0.02-5-2.3-4.98-5.07c0.02-2.77,2.29-4.96,5.09-4.94
			C182.83,128.22,185,130.43,184.99,133.2z"/>
	</g>
</g>
</svg>
