<?xml version="1.0" encoding="utf-8"?>
<!-- Generator: Adobe Illustrator 23.1.0, SVG Export Plug-In . SVG Version: 6.00 Build 0)  -->
<svg version="1.1" xmlns="http://www.w3.org/2000/svg" xmlns:xlink="http://www.w3.org/1999/xlink" x="0px" y="0px"
	 viewBox="0 0 360 360" style="enable-background:new 0 0 360 360;" xml:space="preserve">
<style type="text/css">
	.st0{fill:#FFFFFF;}
	.st1{fill:#0E6E39;}
	.st2{fill:#0C6E39;}
	.st3{fill:#4F497B;}
	.st4{fill:#216885;}
	.st5{fill:#F0492D;}
	.st6{fill:#EF3F25;}
	.st7{fill:#236886;}
	.st8{fill:#256887;}
	.st9{fill:#D2BF2D;}
	.st10{display:none;}
	.st11{display:inline;fill:none;stroke:#000000;stroke-width:0.25;stroke-miterlimit:10;}
	.st12{display:inline;fill:none;stroke:#FFFFFF;stroke-width:0.25;stroke-miterlimit:10;}
	.st13{display:inline;fill:none;stroke:#FFFFFF;stroke-width:0.25;stroke-linecap:round;stroke-miterlimit:10;}
	.st14{display:inline;fill:none;stroke:#000000;stroke-width:0.25;stroke-linecap:round;stroke-miterlimit:10;}
	.st15{fill:#4F4A7C;}
	.st16{fill:none;stroke:#FFFFFF;stroke-miterlimit:10;}
	.st17{stroke:#FFFFFF;stroke-miterlimit:10;}
	.st18{fill:none;stroke:#FFFFFF;stroke-width:3;stroke-miterlimit:10;}
	.st19{fill:none;stroke:#FFFFFF;stroke-linecap:round;stroke-miterlimit:10;}
	.st20{fill:none;stroke:#236886;stroke-width:5;stroke-miterlimit:10;}
	.st21{fill:none;stroke:#236886;stroke-width:5;stroke-linecap:round;stroke-miterlimit:10;}
	.st22{fill:none;stroke:#FFFFFF;stroke-width:5;stroke-miterlimit:10;}
	.st23{fill:none;stroke:#FFFFFF;stroke-width:5;stroke-linecap:round;stroke-miterlimit:10;}
	.st24{fill:none;stroke:#4F497B;stroke-width:3;stroke-miterlimit:10;}
	.st25{fill:none;stroke:#4F497B;stroke-miterlimit:10;}
	.st26{fill:#FFFFFF;stroke:#4F497B;stroke-miterlimit:10;}
	.st27{fill:#FFFFFF;stroke:#4F497B;stroke-width:2;stroke-miterlimit:10;}
	.st28{fill:none;stroke:#4F497B;stroke-width:2;stroke-linecap:round;stroke-miterlimit:10;}
	.st29{stroke:#FFFFFF;stroke-width:2;stroke-miterlimit:10;}
	.st30{fill:none;stroke:#FFFFFF;stroke-width:2;stroke-linecap:round;stroke-miterlimit:10;}
	.st31{fill:none;stroke:#0C6E39;stroke-width:3;stroke-miterlimit:10;}
	.st32{fill:none;stroke:#EF3F25;stroke-miterlimit:10;}
	.st33{fill:none;stroke:#EF3F25;stroke-width:3;stroke-miterlimit:10;}
	.st34{fill:none;stroke:#4F4A7C;stroke-width:3;stroke-miterlimit:10;}
	.st35{fill:none;stroke:#4F4A7C;stroke-width:5;stroke-linecap:round;stroke-miterlimit:10;}
	.st36{fill:none;stroke:#EF3F25;stroke-width:3;stroke-linecap:round;stroke-miterlimit:10;}
	.st37{fill:none;stroke:#EF3F25;stroke-width:5;stroke-linecap:round;stroke-miterlimit:10;}
	.st38{fill:none;stroke:#FFFFFF;stroke-width:3;stroke-linecap:round;stroke-miterlimit:10;}
	.st39{fill:none;stroke:#4F497B;stroke-width:5;stroke-linecap:round;stroke-miterlimit:10;}
	.st40{fill:#FFFFFF;stroke:#0E6E39;stroke-width:3;stroke-linejoin:round;stroke-miterlimit:10;}
	.st41{fill:none;stroke:#0E6E39;stroke-width:3;stroke-linejoin:round;stroke-miterlimit:10;}
	.st42{stroke:#FFFFFF;stroke-width:3;stroke-linejoin:round;stroke-miterlimit:10;}
	.st43{fill:none;stroke:#FFFFFF;stroke-width:3;stroke-linejoin:round;stroke-miterlimit:10;}
	.st44{fill:none;stroke:#0C6E39;stroke-width:5;stroke-linecap:round;stroke-miterlimit:10;}
	.st45{fill:none;stroke:#0C6E39;stroke-width:3;stroke-linecap:round;stroke-miterlimit:10;}
	.st46{fill:none;stroke:#0C6E39;stroke-linecap:round;stroke-linejoin:round;stroke-miterlimit:10;}
	.st47{fill:#0C6E39;stroke:#0C6E39;stroke-width:0;stroke-miterlimit:10;}
	.st48{fill:none;stroke:#0C6E39;stroke-width:3;stroke-linecap:round;stroke-linejoin:round;stroke-miterlimit:10;}
	.st49{fill:none;stroke:#0C6E39;stroke-linecap:round;stroke-miterlimit:10;}
	.st50{fill:none;stroke:#FFFFFF;stroke-linecap:round;stroke-linejoin:round;stroke-miterlimit:10;}
	.st51{fill:none;stroke:#FFFFFF;stroke-width:3;stroke-linecap:round;stroke-linejoin:round;stroke-miterlimit:10;}
	.st52{fill:none;stroke:#4F4A7C;stroke-miterlimit:10;}
	.st53{fill:#FFFFFF;stroke:#4F4A7C;stroke-width:2;stroke-miterlimit:10;}
	.st54{fill:#FFFFFF;stroke:#4F497B;stroke-width:5;stroke-miterlimit:10;}
	.st55{stroke:#FFFFFF;stroke-width:5;stroke-miterlimit:10;}
	.st56{fill:none;stroke:#EF3F25;stroke-width:2;stroke-linecap:round;stroke-miterlimit:10;}
	.st57{fill:none;stroke:#FFFFFF;stroke-width:1.5;stroke-miterlimit:10;}
	.st58{fill:none;stroke:#FFFFFF;stroke-width:1.5;stroke-linecap:round;stroke-miterlimit:10;}
	.st59{fill:none;stroke:#0E6E39;stroke-width:3;stroke-miterlimit:10;}
	.st60{fill:none;stroke:#0E6E39;stroke-width:1.5;stroke-miterlimit:10;}
	.st61{fill:none;stroke:#0E6E39;stroke-width:1.5;stroke-linecap:round;stroke-miterlimit:10;}
	.st62{fill:none;stroke:#EF3F25;stroke-width:0.7099;stroke-miterlimit:10;}
	.st63{fill:none;stroke:#FFFFFF;stroke-width:0.7099;stroke-miterlimit:10;}
	.st64{fill:#EF4025;}
	.st65{fill:#505050;stroke:#4F4A7C;stroke-width:2.9281;stroke-miterlimit:10;}
	.st66{fill:#FFFFFF;stroke:#FFFFFF;stroke-width:2.9281;stroke-miterlimit:10;}
	.st67{fill:none;stroke:#FFFFFF;stroke-width:3.2577;stroke-miterlimit:10;}
	.st68{fill:none;stroke:#FFFFFF;stroke-width:3.2577;stroke-linecap:round;stroke-linejoin:round;stroke-miterlimit:10;}
	.st69{fill:none;stroke:#256887;stroke-width:3.2577;stroke-miterlimit:10;}
	.st70{fill:none;stroke:#256887;stroke-width:3.2577;stroke-linecap:round;stroke-linejoin:round;stroke-miterlimit:10;}
	.st71{fill:#FFFFFF;stroke:#FFFFFF;stroke-width:2;stroke-miterlimit:10;}
	.st72{fill:#D2BF2D;stroke:#D2BF2D;stroke-width:2;stroke-miterlimit:10;}
	.st73{fill:#086E38;}
	.st74{fill:#256887;stroke:#256887;stroke-width:4;stroke-miterlimit:10;}
	.st75{fill:#FFFFFF;stroke:#FFFFFF;stroke-width:4;stroke-miterlimit:10;}
	.st76{fill:#4F4B7D;}
	.st77{fill:#256887;stroke:#256887;stroke-width:2.8997;stroke-miterlimit:10;}
	.st78{fill:#FFFFFF;stroke:#FFFFFF;stroke-width:2.8997;stroke-miterlimit:10;}
	.st79{fill:none;stroke:#FFFFFF;stroke-width:2.2399;stroke-miterlimit:10;}
	.st80{fill:none;stroke:#FFFFFF;stroke-width:2;stroke-miterlimit:10;}
	.st81{fill:none;stroke:#FFFFFF;stroke-width:1.4254;stroke-miterlimit:10;}
	.st82{fill:none;stroke:#EF4025;stroke-width:2.2399;stroke-miterlimit:10;}
	.st83{fill:none;stroke:#EF4025;stroke-width:2;stroke-miterlimit:10;}
	.st84{fill:none;stroke:#EF4025;stroke-width:1.4254;stroke-miterlimit:10;}
	.st85{fill:none;stroke:#4F497B;stroke-linecap:round;stroke-miterlimit:10;}
</style>
<g id="White">
</g>
<g id="BACKGROUND">
	<rect x="0" y="0" width="360" height="360"/>
</g>
<g id="REF" class="st10">
	<rect x="-360" y="90.27" class="st11" width="360" height="108"/>
	<rect x="0" y="90.27" class="st12" width="360" height="108"/>
	<line class="st13" x1="180" y1="0" x2="180" y2="359.87"/>
</g>
<g id="LINE_ONE">
	<g>
		<path class="st0" d="M109.61,234.16h3v14h-3V234.16z"/>
		<path class="st0" d="M117.89,234.16h3.12c0.81,1.32,1.59,2.57,2.32,3.76c0.44,0.71,0.8,1.29,1.08,1.75s0.56,0.92,0.84,1.37
			s0.55,0.88,0.8,1.29c0.25,0.41,0.47,0.75,0.64,1.03h0.06v-9.2h2.84v14h-3.12c-0.8-1.29-1.56-2.53-2.28-3.7
			c-0.43-0.69-0.78-1.27-1.07-1.73c-0.29-0.46-0.57-0.92-0.85-1.38c-0.28-0.46-0.55-0.9-0.81-1.32s-0.48-0.78-0.67-1.07h-0.06v9.2
			h-2.84V234.16z"/>
		<path class="st0" d="M134.87,234.16h3.12c0.81,1.32,1.59,2.57,2.32,3.76c0.44,0.71,0.8,1.29,1.08,1.75s0.56,0.92,0.84,1.37
			s0.55,0.88,0.8,1.29c0.25,0.41,0.47,0.75,0.64,1.03h0.06v-9.2h2.84v14h-3.12c-0.8-1.29-1.56-2.53-2.28-3.7
			c-0.43-0.69-0.78-1.27-1.07-1.73c-0.29-0.46-0.57-0.92-0.85-1.38c-0.28-0.46-0.55-0.9-0.81-1.32s-0.48-0.78-0.67-1.07h-0.06v9.2
			h-2.84V234.16z"/>
		<path class="st0" d="M151.27,241.16c0-1.13,0.16-2.15,0.49-3.05c0.33-0.9,0.79-1.66,1.38-2.29c0.59-0.63,1.31-1.11,2.15-1.44
			c0.84-0.33,1.77-0.5,2.8-0.5c1.03,0,1.96,0.17,2.8,0.5c0.84,0.33,1.56,0.81,2.15,1.44c0.59,0.63,1.05,1.39,1.38,2.29
			c0.33,0.9,0.49,1.92,0.49,3.05c0,1.13-0.16,2.15-0.49,3.05c-0.33,0.9-0.79,1.66-1.38,2.29c-0.59,0.63-1.31,1.11-2.15,1.44
			s-1.77,0.5-2.8,0.5c-1.03,0-1.96-0.17-2.8-0.5c-0.84-0.33-1.56-0.81-2.15-1.44c-0.59-0.63-1.05-1.39-1.38-2.29
			C151.43,243.31,151.27,242.29,151.27,241.16z M154.37,241.16c0,0.71,0.08,1.36,0.23,1.95c0.15,0.59,0.38,1.1,0.69,1.52
			s0.69,0.75,1.16,0.98s1.01,0.35,1.64,0.35c0.63,0,1.17-0.12,1.64-0.35s0.85-0.56,1.16-0.98s0.54-0.93,0.69-1.52
			c0.15-0.59,0.23-1.24,0.23-1.95s-0.08-1.36-0.23-1.95c-0.15-0.59-0.38-1.1-0.69-1.52s-0.69-0.75-1.16-0.98s-1.01-0.35-1.64-0.35
			c-0.63,0-1.17,0.12-1.64,0.35s-0.85,0.56-1.16,0.98s-0.54,0.93-0.69,1.52C154.45,239.8,154.37,240.45,154.37,241.16z"/>
		<path class="st0" d="M171.17,234.16c0.49,1.4,0.96,2.75,1.4,4.06c0.27,0.76,0.49,1.4,0.66,1.92c0.17,0.52,0.35,1.04,0.52,1.57
			c0.17,0.53,0.34,1.04,0.5,1.53s0.3,0.93,0.42,1.32h0.04c0.12-0.39,0.26-0.83,0.42-1.33s0.33-1.03,0.51-1.59
			c0.18-0.56,0.37-1.13,0.57-1.72c0.2-0.59,0.39-1.15,0.58-1.7c0.44-1.31,0.91-2.66,1.4-4.06h3.08l-5.16,14h-3.06l-5.1-14H171.17z"
			/>
		<path class="st0" d="M195.85,248.16h-3.1l-1.12-3.24h-5.02l-1.12,3.24h-2.94l5.04-14h3.22L195.85,248.16z M189.09,237.44
			c-0.03,0.11-0.07,0.26-0.14,0.47c-0.07,0.21-0.14,0.44-0.22,0.7c-0.08,0.26-0.17,0.54-0.27,0.84s-0.2,0.59-0.29,0.87
			c-0.23,0.69-0.47,1.43-0.74,2.22h3.38c-0.27-0.79-0.51-1.53-0.74-2.22c-0.15-0.4-0.26-0.73-0.35-0.99s-0.17-0.51-0.24-0.75
			c-0.07-0.24-0.14-0.46-0.21-0.67c-0.07-0.21-0.11-0.36-0.14-0.47H189.09z"/>
		<path class="st0" d="M197.33,234.16h11.1v2.5h-4.04v11.5h-3.02v-11.5h-4.04V234.16z"/>
		<path class="st0" d="M212.65,234.16h3v14h-3V234.16z"/>
		<path class="st0" d="M220.35,241.16c0-1.13,0.16-2.15,0.49-3.05c0.33-0.9,0.79-1.66,1.38-2.29c0.59-0.63,1.31-1.11,2.15-1.44
			c0.84-0.33,1.77-0.5,2.8-0.5c1.03,0,1.96,0.17,2.8,0.5c0.84,0.33,1.56,0.81,2.15,1.44c0.59,0.63,1.05,1.39,1.38,2.29
			c0.33,0.9,0.49,1.92,0.49,3.05c0,1.13-0.16,2.15-0.49,3.05c-0.33,0.9-0.79,1.66-1.38,2.29c-0.59,0.63-1.31,1.11-2.15,1.44
			c-0.84,0.33-1.77,0.5-2.8,0.5c-1.03,0-1.96-0.17-2.8-0.5s-1.56-0.81-2.15-1.44c-0.59-0.63-1.05-1.39-1.38-2.29
			C220.51,243.31,220.35,242.29,220.35,241.16z M223.45,241.16c0,0.71,0.08,1.36,0.23,1.95c0.15,0.59,0.38,1.1,0.69,1.52
			s0.69,0.75,1.16,0.98s1.01,0.35,1.64,0.35s1.17-0.12,1.64-0.35c0.47-0.23,0.85-0.56,1.16-0.98c0.31-0.42,0.54-0.93,0.69-1.52
			c0.15-0.59,0.23-1.24,0.23-1.95s-0.08-1.36-0.23-1.95c-0.15-0.59-0.38-1.1-0.69-1.52c-0.31-0.42-0.69-0.75-1.16-0.98
			c-0.47-0.23-1.01-0.35-1.64-0.35s-1.17,0.12-1.64,0.35s-0.85,0.56-1.16,0.98s-0.54,0.93-0.69,1.52
			C223.52,239.8,223.45,240.45,223.45,241.16z"/>
		<path class="st0" d="M238.69,234.16h3.12c0.81,1.32,1.59,2.57,2.32,3.76c0.44,0.71,0.8,1.29,1.08,1.75s0.56,0.92,0.84,1.37
			s0.55,0.88,0.8,1.29c0.25,0.41,0.47,0.75,0.64,1.03h0.06v-9.2h2.84v14h-3.12c-0.8-1.29-1.56-2.53-2.28-3.7
			c-0.43-0.69-0.78-1.27-1.07-1.73s-0.57-0.92-0.85-1.38c-0.28-0.46-0.55-0.9-0.81-1.32s-0.48-0.78-0.67-1.07h-0.06v9.2h-2.84
			V234.16z"/>
	</g>
</g>
<g id="LINE_TWO">
</g>
<g id="ICON">
	<g>
		<path class="st16" d="M182.73,178.04c-1.83,0-3.52,0-5.36,0c0-11.15,0-22.27,0-33.52c1.69,0,3.47,0,5.36,0
			C182.73,155.63,182.73,166.75,182.73,178.04z"/>
		<path class="st16" d="M182.73,144.41c0.33-1.59,0.61-2.97,0.92-4.35c0.44-2.01,2.05-2.36,3.69-2.38c1.39-0.01,2.33,0.87,2.94,2.14
			c0.88,1.84-0.47,4.23-2.78,4.55C186.07,144.57,184.58,144.41,182.73,144.41z"/>
		<path class="st16" d="M177.37,144.53c-1.98,0-3.41,0.11-4.82-0.03c-1.65-0.16-2.88-1.55-3.03-3.14c-0.13-1.44,0.8-3.11,1.98-3.52
			c1.71-0.6,3.53-0.13,4.29,1.48C176.51,140.86,176.81,142.6,177.37,144.53z"/>
		<path class="st18" d="M180.02,179.34c-3.34,0-6.68,0.01-10.02,0c-1.6,0-2.12-0.49-2.22-2.02c-0.43-6.63-2.79-12.67-5.93-18.51
			c-2.15-3.99-4.44-7.95-6.05-12.15c-5.72-14.91,2.7-29.92,18.51-33.43c14.7-3.26,29.32,6.31,31.49,20.71
			c0.87,5.78-0.53,11.25-3.15,16.43c-2.1,4.15-4.38,8.22-6.47,12.38c-2.34,4.65-3.64,9.59-3.99,14.76
			c-0.09,1.29-0.65,1.81-2.03,1.81C186.79,179.35,183.41,179.34,180.02,179.34z"/>
		<path class="st0" d="M179.86,186.47c-3.17,0-6.34,0.01-9.5,0c-1.43,0-2.23-0.62-2.19-1.68c0.04-1.02,0.81-1.64,2.15-1.64
			c6.46-0.01,12.92-0.01,19.39,0c1.32,0,2.11,0.64,2.13,1.66c0.02,1.01-0.77,1.66-2.09,1.66
			C186.45,186.48,183.15,186.47,179.86,186.47z"/>
		<path class="st0" d="M180.03,189.24c2.96,0,5.92-0.01,8.87,0c1.37,0,2.08,0.59,2.06,1.66c-0.02,1.05-0.76,1.64-2.12,1.65
			c-5.87,0.01-11.75,0.01-17.62,0c-1.37,0-2.1-0.59-2.13-1.63c-0.03-1.1,0.7-1.67,2.18-1.67
			C174.2,189.24,177.11,189.24,180.03,189.24z"/>
		<path class="st0" d="M178.32,97.85c0-1.78-0.02-3.56,0.01-5.33c0.02-1.38,0.62-2.08,1.7-2.07c1.06,0.01,1.65,0.71,1.66,2.11
			c0.02,3.56,0.02,7.11,0,10.67c-0.01,1.39-0.62,2.08-1.7,2.07c-1.06-0.01-1.63-0.71-1.65-2.11
			C178.3,101.41,178.32,99.63,178.32,97.85z"/>
		<path class="st0" d="M162.21,110.03c-0.26-0.21-0.87-0.5-1.16-0.99c-1.92-3.23-3.79-6.49-5.64-9.76c-0.57-1.01-0.33-1.92,0.56-2.4
			c0.97-0.53,1.75-0.17,2.26,0.7c1.94,3.32,3.87,6.64,5.74,9.99C164.61,108.7,163.78,110.02,162.21,110.03z"/>
		<path class="st0" d="M195.59,108.54c0.29-0.63,0.44-1.02,0.64-1.38c1.76-3.08,3.54-6.15,5.32-9.22c0.72-1.24,1.52-1.58,2.44-1.08
			c1,0.54,1.16,1.44,0.43,2.71c-1.8,3.15-3.61,6.3-5.43,9.44c-0.44,0.76-1.11,1.3-1.98,0.89
			C196.44,109.62,196.05,108.99,195.59,108.54z"/>
		<path class="st0" d="M151.38,120.78c0.04,1.71-1.29,2.45-2.59,1.73c-2.13-1.19-4.23-2.44-6.35-3.67
			c-1.13-0.65-2.27-1.29-3.39-1.96c-0.87-0.53-1.22-1.28-0.76-2.25c0.43-0.89,1.42-1.18,2.37-0.64c3.3,1.88,6.58,3.77,9.84,5.72
			C150.95,119.97,151.2,120.55,151.38,120.78z"/>
		<path class="st0" d="M210,123c-0.42-0.41-1.17-0.81-1.24-1.29c-0.08-0.62,0.21-1.56,0.67-1.93c1.08-0.85,2.36-1.45,3.57-2.15
			c2.04-1.18,4.08-2.37,6.14-3.54c1.1-0.62,1.98-0.45,2.52,0.44c0.53,0.88,0.24,1.78-0.85,2.42c-3.17,1.85-6.34,3.68-9.52,5.51
			C210.97,122.64,210.6,122.75,210,123z"/>
		<path class="st0" d="M221.89,161.61c-0.01,1.59-1.28,2.4-2.44,1.76c-3.38-1.89-6.73-3.85-10.06-5.81
			c-0.86-0.51-1.03-1.35-0.58-2.2c0.46-0.88,1.32-1.14,2.16-0.67c3.41,1.92,6.8,3.89,10.16,5.9
			C221.54,160.82,221.75,161.41,221.89,161.61z"/>
		<path class="st0" d="M139.56,163.73c-0.42-0.35-1.08-0.66-1.26-1.14c-0.18-0.49,0.04-1.19,0.25-1.73c0.11-0.29,0.57-0.47,0.9-0.66
			c3.02-1.76,6.04-3.51,9.07-5.26c1.16-0.67,2.14-0.53,2.65,0.35c0.52,0.89,0.18,1.85-0.94,2.51c-3.09,1.8-6.19,3.59-9.3,5.37
			C140.58,163.37,140.17,163.48,139.56,163.73z"/>
		<path class="st0" d="M139.35,137.02c1.82,0,3.64,0.01,5.46-0.01c1.09-0.01,1.81,0.42,1.92,1.56c0.09,1-0.69,1.74-1.89,1.75
			c-3.68,0.02-7.36,0.02-11.04,0c-1.21-0.01-2.02-0.73-1.92-1.72c0.11-1.1,0.77-1.61,1.89-1.6
			C135.63,137.04,137.49,137.02,139.35,137.02z"/>
		<path class="st0" d="M220.75,137.02c1.82,0,3.64,0.02,5.46-0.01c1.11-0.01,1.8,0.47,1.91,1.58c0.1,0.99-0.7,1.72-1.91,1.73
			c-3.68,0.02-7.36,0.02-11.04,0c-1.21-0.01-1.98-0.72-1.9-1.73c0.09-1.14,0.8-1.59,1.9-1.58
			C217.02,137.03,218.89,137.02,220.75,137.02z"/>
		<path class="st0" d="M179.94,198.08c-1.56,0-3.13,0.02-4.69-0.01c-1.19-0.02-1.85-0.63-1.85-1.63c0-0.96,0.7-1.66,1.84-1.67
			c3.17-0.03,6.34-0.03,9.51,0c1.14,0.01,1.85,0.7,1.85,1.66c0,1-0.65,1.62-1.84,1.64C183.15,198.1,181.55,198.08,179.94,198.08z"/>
	</g>
</g>
</svg>
