<?xml version="1.0" encoding="utf-8"?>
<!-- Generator: Adobe Illustrator 23.1.0, SVG Export Plug-In . SVG Version: 6.00 Build 0)  -->
<svg version="1.1" xmlns="http://www.w3.org/2000/svg" xmlns:xlink="http://www.w3.org/1999/xlink" x="0px" y="0px"
	 viewBox="0 0 360 360" style="enable-background:new 0 0 360 360;" xml:space="preserve">
<style type="text/css">
	.st0{fill:#FFFFFF;}
	.st1{fill:#0E6E39;}
	.st2{fill:#0C6E39;}
	.st3{fill:#4F497B;}
	.st4{fill:#216885;}
	.st5{fill:#F0492D;}
	.st6{fill:#EF3F25;}
	.st7{fill:#236886;}
	.st8{fill:#256887;}
	.st9{fill:#D2BF2D;}
	.st10{display:none;}
	.st11{display:inline;fill:none;stroke:#000000;stroke-width:0.25;stroke-miterlimit:10;}
	.st12{display:inline;fill:none;stroke:#FFFFFF;stroke-width:0.25;stroke-miterlimit:10;}
	.st13{display:inline;fill:none;stroke:#FFFFFF;stroke-width:0.25;stroke-linecap:round;stroke-miterlimit:10;}
	.st14{display:inline;fill:none;stroke:#000000;stroke-width:0.25;stroke-linecap:round;stroke-miterlimit:10;}
	.st15{fill:#4F4A7C;}
	.st16{fill:none;stroke:#FFFFFF;stroke-miterlimit:10;}
	.st17{stroke:#FFFFFF;stroke-miterlimit:10;}
	.st18{fill:none;stroke:#FFFFFF;stroke-width:3;stroke-miterlimit:10;}
	.st19{fill:none;stroke:#FFFFFF;stroke-linecap:round;stroke-miterlimit:10;}
	.st20{fill:none;stroke:#236886;stroke-width:5;stroke-miterlimit:10;}
	.st21{fill:none;stroke:#236886;stroke-width:5;stroke-linecap:round;stroke-miterlimit:10;}
	.st22{fill:none;stroke:#FFFFFF;stroke-width:5;stroke-miterlimit:10;}
	.st23{fill:none;stroke:#FFFFFF;stroke-width:5;stroke-linecap:round;stroke-miterlimit:10;}
	.st24{fill:none;stroke:#4F497B;stroke-width:3;stroke-miterlimit:10;}
	.st25{fill:none;stroke:#4F497B;stroke-miterlimit:10;}
	.st26{fill:#FFFFFF;stroke:#4F497B;stroke-miterlimit:10;}
	.st27{fill:#FFFFFF;stroke:#4F497B;stroke-width:2;stroke-miterlimit:10;}
	.st28{fill:none;stroke:#4F497B;stroke-width:2;stroke-linecap:round;stroke-miterlimit:10;}
	.st29{stroke:#FFFFFF;stroke-width:2;stroke-miterlimit:10;}
	.st30{fill:none;stroke:#FFFFFF;stroke-width:2;stroke-linecap:round;stroke-miterlimit:10;}
	.st31{fill:none;stroke:#0C6E39;stroke-width:3;stroke-miterlimit:10;}
	.st32{fill:none;stroke:#EF3F25;stroke-miterlimit:10;}
	.st33{fill:none;stroke:#EF3F25;stroke-width:3;stroke-miterlimit:10;}
	.st34{fill:none;stroke:#4F4A7C;stroke-width:3;stroke-miterlimit:10;}
	.st35{fill:none;stroke:#4F4A7C;stroke-width:5;stroke-linecap:round;stroke-miterlimit:10;}
	.st36{fill:none;stroke:#EF3F25;stroke-width:3;stroke-linecap:round;stroke-miterlimit:10;}
	.st37{fill:none;stroke:#EF3F25;stroke-width:5;stroke-linecap:round;stroke-miterlimit:10;}
	.st38{fill:none;stroke:#FFFFFF;stroke-width:3;stroke-linecap:round;stroke-miterlimit:10;}
	.st39{fill:none;stroke:#4F497B;stroke-width:5;stroke-linecap:round;stroke-miterlimit:10;}
	.st40{fill:#FFFFFF;stroke:#0E6E39;stroke-width:3;stroke-linejoin:round;stroke-miterlimit:10;}
	.st41{fill:none;stroke:#0E6E39;stroke-width:3;stroke-linejoin:round;stroke-miterlimit:10;}
	.st42{stroke:#FFFFFF;stroke-width:3;stroke-linejoin:round;stroke-miterlimit:10;}
	.st43{fill:none;stroke:#FFFFFF;stroke-width:3;stroke-linejoin:round;stroke-miterlimit:10;}
	.st44{fill:none;stroke:#0C6E39;stroke-width:5;stroke-linecap:round;stroke-miterlimit:10;}
	.st45{fill:none;stroke:#0C6E39;stroke-width:3;stroke-linecap:round;stroke-miterlimit:10;}
	.st46{fill:none;stroke:#0C6E39;stroke-linecap:round;stroke-linejoin:round;stroke-miterlimit:10;}
	.st47{fill:#0C6E39;stroke:#0C6E39;stroke-width:0;stroke-miterlimit:10;}
	.st48{fill:none;stroke:#0C6E39;stroke-width:3;stroke-linecap:round;stroke-linejoin:round;stroke-miterlimit:10;}
	.st49{fill:none;stroke:#0C6E39;stroke-linecap:round;stroke-miterlimit:10;}
	.st50{fill:none;stroke:#FFFFFF;stroke-linecap:round;stroke-linejoin:round;stroke-miterlimit:10;}
	.st51{fill:none;stroke:#FFFFFF;stroke-width:3;stroke-linecap:round;stroke-linejoin:round;stroke-miterlimit:10;}
	.st52{fill:none;stroke:#4F4A7C;stroke-miterlimit:10;}
	.st53{fill:#FFFFFF;stroke:#4F4A7C;stroke-width:2;stroke-miterlimit:10;}
	.st54{fill:#FFFFFF;stroke:#4F497B;stroke-width:5;stroke-miterlimit:10;}
	.st55{stroke:#FFFFFF;stroke-width:5;stroke-miterlimit:10;}
	.st56{fill:none;stroke:#EF3F25;stroke-width:2;stroke-linecap:round;stroke-miterlimit:10;}
	.st57{fill:none;stroke:#FFFFFF;stroke-width:1.5;stroke-miterlimit:10;}
	.st58{fill:none;stroke:#FFFFFF;stroke-width:1.5;stroke-linecap:round;stroke-miterlimit:10;}
	.st59{fill:none;stroke:#0E6E39;stroke-width:3;stroke-miterlimit:10;}
	.st60{fill:none;stroke:#0E6E39;stroke-width:1.5;stroke-miterlimit:10;}
	.st61{fill:none;stroke:#0E6E39;stroke-width:1.5;stroke-linecap:round;stroke-miterlimit:10;}
	.st62{fill:none;stroke:#EF3F25;stroke-width:0.7099;stroke-miterlimit:10;}
	.st63{fill:none;stroke:#FFFFFF;stroke-width:0.7099;stroke-miterlimit:10;}
	.st64{fill:#EF4025;}
	.st65{fill:#505050;stroke:#4F4A7C;stroke-width:2.9281;stroke-miterlimit:10;}
	.st66{fill:#FFFFFF;stroke:#FFFFFF;stroke-width:2.9281;stroke-miterlimit:10;}
	.st67{fill:none;stroke:#FFFFFF;stroke-width:3.2577;stroke-miterlimit:10;}
	.st68{fill:none;stroke:#FFFFFF;stroke-width:3.2577;stroke-linecap:round;stroke-linejoin:round;stroke-miterlimit:10;}
	.st69{fill:none;stroke:#256887;stroke-width:3.2577;stroke-miterlimit:10;}
	.st70{fill:none;stroke:#256887;stroke-width:3.2577;stroke-linecap:round;stroke-linejoin:round;stroke-miterlimit:10;}
	.st71{fill:#FFFFFF;stroke:#FFFFFF;stroke-width:2;stroke-miterlimit:10;}
	.st72{fill:#D2BF2D;stroke:#D2BF2D;stroke-width:2;stroke-miterlimit:10;}
	.st73{fill:#086E38;}
	.st74{fill:#256887;stroke:#256887;stroke-width:4;stroke-miterlimit:10;}
	.st75{fill:#FFFFFF;stroke:#FFFFFF;stroke-width:4;stroke-miterlimit:10;}
	.st76{fill:#4F4B7D;}
	.st77{fill:#256887;stroke:#256887;stroke-width:2.8997;stroke-miterlimit:10;}
	.st78{fill:#FFFFFF;stroke:#FFFFFF;stroke-width:2.8997;stroke-miterlimit:10;}
	.st79{fill:none;stroke:#FFFFFF;stroke-width:2.2399;stroke-miterlimit:10;}
	.st80{fill:none;stroke:#FFFFFF;stroke-width:2;stroke-miterlimit:10;}
	.st81{fill:none;stroke:#FFFFFF;stroke-width:1.4254;stroke-miterlimit:10;}
	.st82{fill:none;stroke:#EF4025;stroke-width:2.2399;stroke-miterlimit:10;}
	.st83{fill:none;stroke:#EF4025;stroke-width:2;stroke-miterlimit:10;}
	.st84{fill:none;stroke:#EF4025;stroke-width:1.4254;stroke-miterlimit:10;}
	.st85{fill:none;stroke:#4F497B;stroke-linecap:round;stroke-miterlimit:10;}
</style>
<g id="White">
	<rect x="0" class="st0" width="360.29" height="360.29"/>
</g>
<g id="BACKGROUND">
	<rect y="336.03" class="st9" width="360" height="23.94"/>
	<g>
		<path class="st0" d="M264.75,348.26c0-0.69,0.1-1.3,0.29-1.84c0.19-0.54,0.47-1,0.82-1.37c0.36-0.38,0.79-0.66,1.3-0.86
			c0.51-0.2,1.08-0.29,1.71-0.29c0.9,0,1.65,0.2,2.26,0.59c0.61,0.39,1.04,0.99,1.3,1.79l-1.75,0.61c-0.14-0.47-0.36-0.84-0.65-1.1
			s-0.68-0.39-1.19-0.39c-0.37,0-0.69,0.07-0.97,0.22c-0.28,0.14-0.51,0.34-0.7,0.59c-0.18,0.25-0.32,0.55-0.41,0.91
			c-0.09,0.35-0.14,0.74-0.14,1.15s0.05,0.8,0.14,1.15c0.09,0.35,0.23,0.65,0.41,0.91c0.18,0.26,0.42,0.46,0.7,0.6
			c0.28,0.14,0.61,0.22,0.98,0.22c0.46,0,0.84-0.12,1.13-0.35c0.29-0.23,0.51-0.58,0.67-1.06l1.73,0.61
			c-0.28,0.71-0.71,1.27-1.3,1.68c-0.58,0.41-1.34,0.61-2.26,0.61c-0.62,0-1.17-0.1-1.67-0.29s-0.93-0.48-1.28-0.85
			c-0.36-0.37-0.63-0.83-0.82-1.37C264.85,349.56,264.75,348.94,264.75,348.26z"/>
		<path class="st0" d="M274.71,348.26c0-0.68,0.1-1.29,0.29-1.83c0.2-0.54,0.47-1,0.83-1.37c0.36-0.38,0.79-0.66,1.29-0.86
			c0.5-0.2,1.06-0.3,1.68-0.3c0.62,0,1.18,0.1,1.68,0.3c0.5,0.2,0.93,0.49,1.29,0.86c0.36,0.38,0.63,0.83,0.83,1.37
			c0.2,0.54,0.29,1.15,0.29,1.83c0,0.68-0.1,1.29-0.29,1.83c-0.2,0.54-0.47,1-0.83,1.37c-0.36,0.38-0.79,0.66-1.29,0.86
			s-1.06,0.3-1.68,0.3c-0.62,0-1.18-0.1-1.68-0.3s-0.93-0.49-1.29-0.86c-0.36-0.38-0.63-0.83-0.83-1.37
			C274.81,349.55,274.71,348.94,274.71,348.26z M276.57,348.26c0,0.42,0.05,0.81,0.14,1.17c0.09,0.36,0.23,0.66,0.41,0.91
			c0.18,0.25,0.42,0.45,0.7,0.59c0.28,0.14,0.61,0.21,0.98,0.21c0.38,0,0.7-0.07,0.98-0.21c0.28-0.14,0.51-0.34,0.7-0.59
			c0.18-0.25,0.32-0.56,0.41-0.91c0.09-0.36,0.14-0.75,0.14-1.17c0-0.42-0.05-0.81-0.14-1.17c-0.09-0.36-0.23-0.66-0.41-0.91
			c-0.18-0.25-0.42-0.45-0.7-0.59c-0.28-0.14-0.61-0.21-0.98-0.21c-0.38,0-0.7,0.07-0.98,0.21c-0.28,0.14-0.51,0.34-0.7,0.59
			c-0.18,0.25-0.32,0.56-0.41,0.91C276.62,347.44,276.57,347.83,276.57,348.26z"/>
		<path class="st0" d="M289.41,352.46c-0.12-0.33-0.27-0.76-0.45-1.29c-0.18-0.53-0.37-1.09-0.56-1.66
			c-0.19-0.58-0.38-1.14-0.56-1.69c-0.18-0.55-0.33-1.02-0.44-1.39h-0.04v6.04h-1.66v-8.4h2.52c0.34,1.02,0.66,1.96,0.94,2.82
			c0.17,0.51,0.31,0.93,0.41,1.24c0.11,0.32,0.21,0.62,0.3,0.91s0.18,0.55,0.25,0.78c0.08,0.23,0.13,0.4,0.16,0.5
			c0.03-0.1,0.08-0.27,0.16-0.5c0.07-0.23,0.16-0.51,0.26-0.82c0.1-0.32,0.21-0.66,0.32-1.02c0.12-0.36,0.23-0.73,0.35-1.09
			c0.27-0.86,0.57-1.8,0.9-2.82h2.51v8.4h-1.66v-6.04h-0.04c-0.08,0.25-0.18,0.55-0.29,0.89c-0.11,0.35-0.23,0.72-0.37,1.11
			c-0.13,0.39-0.27,0.79-0.4,1.19c-0.14,0.4-0.26,0.79-0.38,1.15c-0.12,0.36-0.23,0.69-0.33,0.99c-0.1,0.3-0.18,0.53-0.25,0.7
			H289.41z"/>
		<path class="st0" d="M301.66,352.46c-0.12-0.33-0.27-0.76-0.45-1.29c-0.18-0.53-0.37-1.09-0.56-1.66
			c-0.19-0.58-0.38-1.14-0.56-1.69c-0.18-0.55-0.33-1.02-0.44-1.39h-0.04v6.04h-1.66v-8.4h2.52c0.34,1.02,0.66,1.96,0.94,2.82
			c0.17,0.51,0.31,0.93,0.41,1.24c0.11,0.32,0.21,0.62,0.3,0.91s0.18,0.55,0.25,0.78c0.08,0.23,0.13,0.4,0.16,0.5
			c0.03-0.1,0.08-0.27,0.16-0.5c0.07-0.23,0.16-0.51,0.26-0.82c0.1-0.32,0.21-0.66,0.32-1.02c0.12-0.36,0.23-0.73,0.35-1.09
			c0.27-0.86,0.57-1.8,0.9-2.82h2.51v8.4h-1.66v-6.04h-0.04c-0.08,0.25-0.18,0.55-0.29,0.89c-0.11,0.35-0.23,0.72-0.37,1.11
			c-0.13,0.39-0.27,0.79-0.4,1.19c-0.14,0.4-0.26,0.79-0.38,1.15c-0.12,0.36-0.23,0.69-0.33,0.99c-0.1,0.3-0.18,0.53-0.25,0.7
			H301.66z"/>
		<path class="st0" d="M313.53,352.62c-1.17,0-2.02-0.29-2.56-0.86s-0.8-1.38-0.8-2.4v-5.3h1.8v5.32c0,0.51,0.13,0.93,0.38,1.27
			c0.26,0.33,0.65,0.5,1.18,0.5c0.53,0,0.92-0.17,1.18-0.5c0.26-0.33,0.38-0.75,0.38-1.27v-5.32h1.8v5.3c0,1.02-0.27,1.82-0.8,2.4
			C315.55,352.34,314.7,352.62,313.53,352.62z"/>
		<path class="st0" d="M320.01,344.06h1.87c0.49,0.79,0.95,1.54,1.39,2.26c0.26,0.42,0.48,0.77,0.65,1.05
			c0.17,0.28,0.34,0.55,0.5,0.82c0.17,0.27,0.33,0.53,0.48,0.77c0.15,0.24,0.28,0.45,0.38,0.62h0.04v-5.52h1.7v8.4h-1.87
			c-0.48-0.78-0.94-1.52-1.37-2.22c-0.26-0.42-0.47-0.76-0.64-1.04c-0.17-0.28-0.34-0.55-0.51-0.83s-0.33-0.54-0.49-0.79
			s-0.29-0.47-0.4-0.64h-0.04v5.52h-1.7V344.06z"/>
		<path class="st0" d="M330.2,344.06h1.8v8.4h-1.8V344.06z"/>
		<path class="st0" d="M334.53,344.06h6.66v1.5h-2.42v6.9h-1.81v-6.9h-2.42V344.06z"/>
		<path class="st0" d="M346.26,348.94l-3.18-4.88h2.06l2.05,3.22l2.04-3.22h2l-3.18,4.88v3.52h-1.8V348.94z"/>
	</g>
</g>
<g id="REF" class="st10">
	<rect x="19" y="90.3" class="st11" width="360" height="108"/>
	<line class="st14" x1="199" y1="0.16" x2="199" y2="360.03"/>
</g>
<g id="LINE_ONE">
	<g>
		<path class="st9" d="M108.26,241.13c0-1.15,0.16-2.17,0.48-3.07c0.32-0.9,0.78-1.66,1.37-2.29c0.59-0.63,1.31-1.1,2.16-1.43
			c0.85-0.33,1.8-0.49,2.85-0.49c1.49,0,2.75,0.33,3.76,0.98s1.73,1.65,2.16,2.98l-2.92,1.02c-0.24-0.79-0.6-1.4-1.08-1.83
			s-1.14-0.65-1.98-0.65c-0.61,0-1.15,0.12-1.62,0.36c-0.47,0.24-0.85,0.57-1.16,0.99s-0.54,0.92-0.69,1.51s-0.23,1.23-0.23,1.92
			s0.08,1.33,0.23,1.91s0.38,1.08,0.69,1.51s0.69,0.76,1.16,1c0.47,0.24,1.01,0.36,1.64,0.36c0.77,0,1.4-0.19,1.89-0.58
			s0.86-0.97,1.11-1.76l2.88,1.02c-0.47,1.19-1.19,2.12-2.16,2.8c-0.97,0.68-2.23,1.02-3.76,1.02c-1.03,0-1.96-0.16-2.79-0.49
			c-0.83-0.33-1.55-0.8-2.14-1.42s-1.05-1.38-1.37-2.29C108.42,243.3,108.26,242.27,108.26,241.13z"/>
		<path class="st9" d="M124.86,241.13c0-1.13,0.16-2.15,0.49-3.05c0.33-0.9,0.79-1.66,1.38-2.29s1.31-1.11,2.15-1.44
			c0.84-0.33,1.77-0.5,2.8-0.5c1.03,0,1.96,0.17,2.8,0.5c0.84,0.33,1.56,0.81,2.15,1.44s1.05,1.39,1.38,2.29
			c0.33,0.9,0.49,1.92,0.49,3.05c0,1.13-0.16,2.15-0.49,3.05c-0.33,0.9-0.79,1.66-1.38,2.29c-0.59,0.63-1.31,1.11-2.15,1.44
			s-1.77,0.5-2.8,0.5c-1.03,0-1.96-0.17-2.8-0.5c-0.84-0.33-1.56-0.81-2.15-1.44c-0.59-0.63-1.05-1.39-1.38-2.29
			C125.02,243.28,124.86,242.26,124.86,241.13z M127.96,241.13c0,0.71,0.08,1.36,0.23,1.95c0.15,0.59,0.38,1.1,0.69,1.52
			s0.69,0.75,1.16,0.98c0.47,0.23,1.01,0.35,1.64,0.35c0.63,0,1.17-0.12,1.64-0.35s0.85-0.56,1.16-0.98s0.54-0.93,0.69-1.52
			c0.15-0.59,0.23-1.24,0.23-1.95s-0.08-1.36-0.23-1.95c-0.15-0.59-0.38-1.1-0.69-1.52s-0.69-0.75-1.16-0.98s-1.01-0.35-1.64-0.35
			c-0.63,0-1.17,0.12-1.64,0.35c-0.47,0.23-0.85,0.56-1.16,0.98s-0.54,0.93-0.69,1.52C128.04,239.77,127.96,240.42,127.96,241.13z"
			/>
		<path class="st9" d="M149.36,248.13c-0.2-0.55-0.45-1.26-0.75-2.15c-0.3-0.89-0.61-1.81-0.93-2.77c-0.32-0.96-0.63-1.9-0.93-2.82
			c-0.3-0.92-0.54-1.69-0.73-2.32h-0.06v10.06h-2.76v-14h4.2c0.57,1.71,1.09,3.27,1.56,4.7c0.28,0.85,0.51,1.54,0.69,2.07
			c0.18,0.53,0.35,1.03,0.5,1.51c0.15,0.48,0.29,0.91,0.42,1.3c0.13,0.39,0.22,0.67,0.27,0.84c0.05-0.17,0.14-0.45,0.26-0.84
			c0.12-0.39,0.26-0.84,0.43-1.37c0.17-0.53,0.35-1.09,0.54-1.7c0.19-0.61,0.39-1.21,0.59-1.81c0.45-1.43,0.95-2.99,1.5-4.7h4.18v14
			h-2.76v-10.06h-0.06c-0.13,0.41-0.29,0.91-0.48,1.49c-0.19,0.58-0.39,1.2-0.61,1.85c-0.22,0.65-0.44,1.32-0.67,1.99
			c-0.23,0.67-0.44,1.31-0.64,1.92c-0.2,0.61-0.38,1.16-0.55,1.65c-0.17,0.49-0.3,0.88-0.41,1.16H149.36z"/>
		<path class="st9" d="M169.78,248.13c-0.2-0.55-0.45-1.26-0.75-2.15c-0.3-0.89-0.61-1.81-0.93-2.77c-0.32-0.96-0.63-1.9-0.93-2.82
			c-0.3-0.92-0.54-1.69-0.73-2.32h-0.06v10.06h-2.76v-14h4.2c0.57,1.71,1.09,3.27,1.56,4.7c0.28,0.85,0.51,1.54,0.69,2.07
			c0.18,0.53,0.35,1.03,0.5,1.51c0.15,0.48,0.29,0.91,0.42,1.3c0.13,0.39,0.22,0.67,0.27,0.84c0.05-0.17,0.14-0.45,0.26-0.84
			c0.12-0.39,0.26-0.84,0.43-1.37c0.17-0.53,0.35-1.09,0.54-1.7c0.19-0.61,0.39-1.21,0.59-1.81c0.45-1.43,0.95-2.99,1.5-4.7h4.18v14
			H176v-10.06h-0.06c-0.13,0.41-0.29,0.91-0.48,1.49c-0.19,0.58-0.39,1.2-0.61,1.85c-0.22,0.65-0.44,1.32-0.67,1.99
			c-0.23,0.67-0.44,1.31-0.64,1.92c-0.2,0.61-0.38,1.16-0.55,1.65c-0.17,0.49-0.3,0.88-0.41,1.16H169.78z"/>
		<path class="st9" d="M189.56,248.41c-1.95,0-3.37-0.48-4.26-1.44c-0.89-0.96-1.34-2.29-1.34-4v-8.84h3v8.86
			c0,0.85,0.21,1.56,0.64,2.11c0.43,0.55,1.08,0.83,1.96,0.83s1.53-0.28,1.96-0.83c0.43-0.55,0.64-1.26,0.64-2.11v-8.86h3v8.84
			c0,1.71-0.45,3.04-1.34,4S191.51,248.41,189.56,248.41z"/>
		<path class="st9" d="M200.36,234.13h3.12c0.81,1.32,1.59,2.57,2.32,3.76c0.44,0.71,0.8,1.29,1.08,1.75s0.56,0.92,0.84,1.37
			s0.55,0.88,0.8,1.29c0.25,0.41,0.47,0.75,0.64,1.03h0.06v-9.2h2.84v14h-3.12c-0.8-1.29-1.56-2.53-2.28-3.7
			c-0.43-0.69-0.78-1.27-1.07-1.73s-0.57-0.92-0.85-1.38c-0.28-0.46-0.55-0.9-0.81-1.32s-0.48-0.78-0.67-1.07h-0.06v9.2h-2.84
			V234.13z"/>
		<path class="st9" d="M217.34,234.13h3v14h-3V234.13z"/>
		<path class="st9" d="M224.56,234.13h11.1v2.5h-4.04v11.5h-3.02v-11.5h-4.04V234.13z"/>
		<path class="st9" d="M244.12,242.27l-5.3-8.14h3.44l3.42,5.36l3.4-5.36h3.34l-5.3,8.14v5.86h-3V242.27z"/>
	</g>
	<g>
		<path class="st9" d="M101.72,265.91v-14h9.54v2.48h-6.58v3.08h6.12v2.48h-6.12v3.48h6.68v2.48H101.72z"/>
		<path class="st9" d="M116,251.91h3.12c0.81,1.32,1.59,2.57,2.32,3.76c0.44,0.71,0.8,1.29,1.08,1.75c0.28,0.46,0.56,0.92,0.84,1.37
			c0.28,0.45,0.55,0.88,0.8,1.29c0.25,0.41,0.47,0.75,0.64,1.03h0.06v-9.2h2.84v14h-3.12c-0.8-1.29-1.56-2.53-2.28-3.7
			c-0.43-0.69-0.78-1.27-1.07-1.73c-0.29-0.46-0.57-0.92-0.85-1.38c-0.28-0.46-0.55-0.9-0.81-1.32c-0.26-0.42-0.48-0.78-0.67-1.07
			h-0.06v9.2H116V251.91z"/>
		<path class="st9" d="M138.7,258.15h6.44v7.76h-2.72v-1.44c-0.31,0.48-0.76,0.89-1.36,1.22c-0.6,0.33-1.38,0.5-2.34,0.5
			c-1.04,0-1.96-0.19-2.75-0.57c-0.79-0.38-1.45-0.9-1.98-1.55c-0.53-0.65-0.92-1.42-1.19-2.3c-0.27-0.88-0.4-1.82-0.4-2.82
			c0-1.08,0.16-2.07,0.47-2.96c0.31-0.89,0.77-1.66,1.37-2.31c0.6-0.65,1.33-1.15,2.19-1.51c0.86-0.36,1.84-0.54,2.93-0.54
			c1.41,0,2.62,0.31,3.62,0.93s1.75,1.54,2.26,2.75l-2.78,1.14c-0.27-0.75-0.67-1.32-1.22-1.73c-0.55-0.41-1.21-0.61-2-0.61
			c-1.13,0-2.04,0.42-2.72,1.25c-0.68,0.83-1.02,2.06-1.02,3.69c0,3.12,1.23,4.68,3.7,4.68c0.36,0,0.72-0.05,1.08-0.15
			c0.36-0.1,0.69-0.25,0.99-0.46s0.54-0.47,0.73-0.79c0.19-0.32,0.28-0.71,0.28-1.16v-0.64h-3.58V258.15z"/>
		<path class="st9" d="M162.52,265.91h-3.1l-1.12-3.24h-5.02l-1.12,3.24h-2.94l5.04-14h3.22L162.52,265.91z M155.76,255.19
			c-0.03,0.11-0.07,0.26-0.14,0.47c-0.07,0.21-0.14,0.44-0.22,0.7s-0.17,0.54-0.27,0.84c-0.1,0.3-0.2,0.59-0.29,0.87
			c-0.23,0.69-0.47,1.43-0.74,2.22h3.38c-0.27-0.79-0.51-1.53-0.74-2.22c-0.15-0.4-0.26-0.73-0.35-0.99
			c-0.09-0.26-0.17-0.51-0.24-0.75s-0.14-0.46-0.21-0.67c-0.07-0.21-0.11-0.36-0.14-0.47H155.76z"/>
		<path class="st9" d="M171.68,258.15h6.44v7.76h-2.72v-1.44c-0.31,0.48-0.76,0.89-1.36,1.22c-0.6,0.33-1.38,0.5-2.34,0.5
			c-1.04,0-1.96-0.19-2.75-0.57c-0.79-0.38-1.45-0.9-1.98-1.55c-0.53-0.65-0.92-1.42-1.19-2.3c-0.27-0.88-0.4-1.82-0.4-2.82
			c0-1.08,0.16-2.07,0.47-2.96c0.31-0.89,0.77-1.66,1.37-2.31c0.6-0.65,1.33-1.15,2.19-1.51c0.86-0.36,1.84-0.54,2.93-0.54
			c1.41,0,2.62,0.31,3.62,0.93s1.75,1.54,2.26,2.75l-2.78,1.14c-0.27-0.75-0.67-1.32-1.22-1.73c-0.55-0.41-1.21-0.61-2-0.61
			c-1.13,0-2.04,0.42-2.72,1.25c-0.68,0.83-1.02,2.06-1.02,3.69c0,3.12,1.23,4.68,3.7,4.68c0.36,0,0.72-0.05,1.08-0.15
			c0.36-0.1,0.69-0.25,0.99-0.46s0.54-0.47,0.73-0.79c0.19-0.32,0.28-0.71,0.28-1.16v-0.64h-3.58V258.15z"/>
		<path class="st9" d="M183.34,265.91v-14h9.54v2.48h-6.58v3.08h6.12v2.48h-6.12v3.48h6.68v2.48H183.34z"/>
		<path class="st9" d="M203.78,265.91c-0.2-0.55-0.45-1.26-0.75-2.15c-0.3-0.88-0.61-1.81-0.93-2.77c-0.32-0.96-0.63-1.9-0.93-2.82
			s-0.54-1.69-0.73-2.32h-0.06v10.06h-2.76v-14h4.2c0.57,1.71,1.09,3.27,1.56,4.7c0.28,0.85,0.51,1.54,0.69,2.07
			c0.18,0.53,0.35,1.03,0.5,1.51c0.15,0.48,0.29,0.91,0.42,1.3c0.13,0.39,0.22,0.67,0.27,0.84c0.05-0.17,0.14-0.45,0.26-0.84
			s0.26-0.84,0.43-1.37c0.17-0.53,0.35-1.09,0.54-1.7c0.19-0.61,0.39-1.21,0.59-1.81c0.45-1.43,0.95-2.99,1.5-4.7h4.18v14H210
			v-10.06h-0.06c-0.13,0.41-0.29,0.91-0.48,1.49c-0.19,0.58-0.39,1.2-0.61,1.85c-0.22,0.65-0.44,1.32-0.67,1.99
			c-0.23,0.67-0.44,1.31-0.64,1.92c-0.2,0.61-0.38,1.16-0.55,1.65c-0.17,0.49-0.3,0.88-0.41,1.16H203.78z"/>
		<path class="st9" d="M218.04,265.91v-14h9.54v2.48H221v3.08h6.12v2.48H221v3.48h6.68v2.48H218.04z"/>
		<path class="st9" d="M232.32,251.91h3.12c0.81,1.32,1.59,2.57,2.32,3.76c0.44,0.71,0.8,1.29,1.08,1.75
			c0.28,0.46,0.56,0.92,0.84,1.37s0.55,0.88,0.8,1.29c0.25,0.41,0.47,0.75,0.64,1.03h0.06v-9.2h2.84v14h-3.12
			c-0.8-1.29-1.56-2.53-2.28-3.7c-0.43-0.69-0.78-1.27-1.07-1.73c-0.29-0.46-0.57-0.92-0.85-1.38c-0.28-0.46-0.55-0.9-0.81-1.32
			s-0.48-0.78-0.67-1.07h-0.06v9.2h-2.84V251.91z"/>
		<path class="st9" d="M248.24,251.91h11.1v2.5h-4.04v11.5h-3.02v-11.5h-4.04V251.91z"/>
	</g>
</g>
<g id="LINE_TWO">
</g>
<g id="ICON">
	<g>
		<path class="st9" d="M180.09,104.7c1.19-1.24,2.38-2.45,3.55-3.68c5.1-5.33,11.24-8.77,18.51-10.11
			c8.38-1.54,16.33-0.21,23.61,4.19c9.04,5.47,14.45,13.55,16.13,24c1.04,6.52,0.14,12.86-2.52,18.91
			c-1.91,4.35-4.75,8.04-8.15,11.34c-3.57,3.47-7.05,7.02-10.57,10.53c-1.69,1.69-3.39,3.36-5.05,5.08
			c-0.31,0.32-0.57,0.77-0.66,1.2c-0.88,4.28-3.59,6.68-8,7.02c-0.08,0.01-0.16,0.04-0.23,0.06c-0.17,4.93-3.71,8.19-8.35,8.39
			c-1.11,5.73-3.1,7.73-8.34,8.33c-0.09,0.6-0.16,1.22-0.29,1.83c-1.05,4.89-6.1,7.67-10.84,6.04c-2.41-0.83-4.17-2.49-5.9-4.22
			c-3.57-3.58-7.14-7.16-10.72-10.74c-4.56-4.56-9.13-9.12-13.69-13.68c-5.55-5.54-11.11-11.07-16.63-16.64
			c-2.67-2.7-5.51-5.25-7.76-8.36c-3.15-4.35-5.17-9.16-6.04-14.46c-0.91-5.54-0.51-11,1.29-16.31c2.31-6.85,6.41-12.43,12.27-16.67
			c6.71-4.85,14.26-6.93,22.47-6.32c7.47,0.56,14.11,3.31,19.72,8.32C175.99,100.59,177.92,102.6,180.09,104.7z M166.64,162.74
			c0.74,0.74,1.43,1.41,2.12,2.09c4.3,4.3,8.6,8.6,12.9,12.9c1.85,1.85,3.69,3.71,5.58,5.51c1.39,1.32,3.32,1.53,4.51,0.61
			c1.26-0.96,1.5-2.92,0.34-4.36c-1.13-1.41-2.44-2.69-3.72-3.98c-3.88-3.91-7.79-7.81-11.69-11.7c-1.85-1.84-3.72-3.67-5.6-5.52
			c1.36-1.35,2.62-2.6,3.92-3.88c0.12,0.1,0.26,0.2,0.38,0.32c2.2,2.21,4.4,4.43,6.61,6.64c4.04,4.03,8.06,8.08,12.13,12.08
			c0.9,0.88,1.93,1.67,3.02,2.3c1.06,0.6,2.22,0.44,3.15-0.43c0.9-0.85,1.01-1.9,0.69-3.06c-0.4-1.42-1.46-2.34-2.44-3.32
			c-4.34-4.34-8.68-8.69-13.02-13.03c-2.01-2.01-4.03-4.01-5.98-5.95c1.31-1.33,2.58-2.62,3.96-4.02c3.07,3.11,6.13,6.22,9.2,9.32
			c3.49,3.53,6.99,7.06,10.5,10.57c0.87,0.87,1.84,1.59,3.12,1.8c1.71,0.28,3.18-0.92,3.21-2.65c0.03-1.33-0.61-2.37-1.47-3.25
			c-3.73-3.78-7.5-7.53-11.26-11.29c-4.66-4.66-9.33-9.32-13.99-13.99c-1.32-1.32-2.61-2.67-3.92-4.02
			c-0.21,0.16-0.31,0.22-0.38,0.3c-3.84,3.84-7.68,7.67-11.51,11.52c-1.93,1.94-4.23,3.06-6.98,3.08c-3.65,0.02-7.17-2.39-8.6-5.83
			c-1.57-3.77-0.81-7.18,1.89-10.08c2.94-3.15,6.08-6.13,9.13-9.18c3.65-3.66,7.3-7.32,10.96-10.97c0.9-0.89,1.84-1.75,2.66-2.53
			c-1.84-1.9-3.44-3.76-5.24-5.39c-7.35-6.64-15.94-8.87-25.6-6.81c-6.3,1.35-11.5,4.64-15.58,9.61
			c-3.95,4.82-6.11,10.36-6.39,16.62c-0.32,6.91,1.46,13.22,5.78,18.6c2.53,3.15,5.53,5.94,8.38,8.83
			c4.63,4.69,9.33,9.31,13.99,13.97c4.62,4.62,9.22,9.26,13.84,13.88c4.03,4.04,8.05,8.1,12.13,12.1c0.92,0.9,1.97,1.72,3.09,2.35
			c1.02,0.57,2.17,0.42,3.09-0.42c0.91-0.83,1.13-1.91,0.71-3.04c-0.26-0.7-0.62-1.42-1.11-1.98c-1.12-1.25-2.34-2.4-3.53-3.58
			c-4.38-4.38-8.76-8.77-13.14-13.15c-1.24-1.24-2.49-2.46-3.7-3.66C164.1,165.33,165.35,164.06,166.64,162.74z M183.98,129.87
			c9.81,9.82,19.62,19.64,29.52,29.55c1.58-1.61,3.2-3.29,4.84-4.94c3.22-3.24,6.45-6.48,9.69-9.7c1.86-1.85,3.52-3.86,4.84-6.13
			c3-5.15,4.27-10.69,3.82-16.64c-0.45-6.03-2.6-11.38-6.47-15.98c-4.91-5.84-11.21-9.22-18.82-10.04
			c-6.84-0.73-13.12,0.88-18.87,4.65c-2.83,1.86-5.08,4.37-7.45,6.73c-4.68,4.65-9.32,9.33-13.98,13.99
			c-4.54,4.54-9.1,9.05-13.62,13.6c-1.14,1.15-1.76,2.56-1.1,4.19c0.63,1.56,1.76,2.56,3.52,2.68c1.36,0.09,2.38-0.6,3.29-1.51
			c3.9-3.9,7.8-7.79,11.69-11.69c2.28-2.29,4.56-4.6,6.76-6.83c11.54,8.13,23.21,9.6,35.29,1.41c1.06,1.45,2.11,2.89,3.2,4.38
			C208.47,135.82,196.44,135.83,183.98,129.87z"/>
		<path class="st0" d="M166.64,162.74c-1.29,1.32-2.54,2.59-3.86,3.95c1.21,1.19,2.46,2.42,3.7,3.66
			c4.38,4.38,8.76,8.77,13.14,13.15c1.19,1.19,2.41,2.34,3.53,3.58c0.49,0.55,0.85,1.27,1.11,1.98c0.41,1.13,0.2,2.21-0.71,3.04
			c-0.92,0.84-2.07,1-3.09,0.42c-1.12-0.63-2.17-1.45-3.09-2.35c-4.07-4-8.09-8.06-12.13-12.1c-4.62-4.62-9.22-9.26-13.84-13.88
			c-4.66-4.66-9.35-9.29-13.99-13.97c-2.85-2.89-5.85-5.67-8.38-8.83c-4.32-5.38-6.1-11.69-5.78-18.6
			c0.29-6.26,2.44-11.81,6.39-16.62c4.08-4.97,9.28-8.26,15.58-9.61c9.65-2.06,18.25,0.18,25.6,6.81c1.81,1.63,3.41,3.49,5.24,5.39
			c-0.83,0.78-1.77,1.64-2.66,2.53c-3.66,3.65-7.31,7.31-10.96,10.97c-3.05,3.05-6.19,6.03-9.13,9.18c-2.7,2.9-3.46,6.31-1.89,10.08
			c1.43,3.43,4.95,5.85,8.6,5.83c2.75-0.02,5.05-1.14,6.98-3.08c3.83-3.85,7.67-7.68,11.51-11.52c0.08-0.08,0.17-0.14,0.38-0.3
			c1.31,1.34,2.6,2.69,3.92,4.02c4.66,4.67,9.33,9.33,13.99,13.99c3.76,3.76,7.53,7.51,11.26,11.29c0.87,0.88,1.5,1.92,1.47,3.25
			c-0.04,1.73-1.5,2.93-3.21,2.65c-1.28-0.21-2.25-0.93-3.12-1.8c-3.51-3.51-7.01-7.04-10.5-10.57c-3.07-3.1-6.13-6.21-9.2-9.32
			c-1.38,1.4-2.65,2.69-3.96,4.02c1.96,1.95,3.97,3.95,5.98,5.95c4.34,4.34,8.68,8.68,13.02,13.03c0.98,0.98,2.05,1.9,2.44,3.32
			c0.32,1.15,0.22,2.21-0.69,3.06c-0.93,0.87-2.09,1.04-3.15,0.43c-1.09-0.62-2.12-1.41-3.02-2.3c-4.08-3.99-8.1-8.04-12.13-12.08
			c-2.21-2.21-4.41-4.43-6.61-6.64c-0.12-0.12-0.26-0.22-0.38-0.32c-1.29,1.28-2.56,2.53-3.92,3.88c1.88,1.85,3.75,3.67,5.6,5.52
			c3.9,3.89,7.81,7.79,11.69,11.7c1.28,1.29,2.58,2.57,3.72,3.98c1.16,1.44,0.92,3.4-0.34,4.36c-1.19,0.91-3.13,0.7-4.51-0.61
			c-1.9-1.8-3.73-3.66-5.58-5.51c-4.3-4.3-8.6-8.6-12.9-12.9C168.07,164.15,167.39,163.48,166.64,162.74z"/>
		<path class="st0" d="M183.98,129.87c12.46,5.96,24.49,5.94,36.15-2.29c-1.09-1.5-2.14-2.93-3.2-4.38
			c-12.08,8.19-23.75,6.72-35.29-1.41c-2.2,2.23-4.47,4.53-6.76,6.83c-3.89,3.9-7.79,7.8-11.69,11.69c-0.91,0.91-1.93,1.6-3.29,1.51
			c-1.76-0.11-2.89-1.12-3.52-2.68c-0.66-1.63-0.04-3.04,1.1-4.19c4.52-4.55,9.08-9.07,13.62-13.6c4.66-4.66,9.3-9.35,13.98-13.99
			c2.37-2.36,4.62-4.87,7.45-6.73c5.74-3.76,12.03-5.38,18.87-4.65c7.62,0.81,13.91,4.2,18.82,10.04c3.87,4.6,6.02,9.96,6.47,15.98
			c0.44,5.95-0.83,11.49-3.82,16.64c-1.32,2.27-2.98,4.28-4.84,6.13c-3.24,3.23-6.46,6.46-9.69,9.7c-1.64,1.65-3.26,3.32-4.84,4.94
			C203.6,149.52,193.79,139.7,183.98,129.87z"/>
	</g>
</g>
</svg>
