<?xml version="1.0" encoding="utf-8"?>
<!-- Generator: Adobe Illustrator 23.1.0, SVG Export Plug-In . SVG Version: 6.00 Build 0)  -->
<svg version="1.1" xmlns="http://www.w3.org/2000/svg" xmlns:xlink="http://www.w3.org/1999/xlink" x="0px" y="0px"
	 viewBox="0 0 360 360" style="enable-background:new 0 0 360 360;" xml:space="preserve">
<style type="text/css">
	.st0{fill:#FFFFFF;}
	.st1{fill:#0E6E39;}
	.st2{fill:#0C6E39;}
	.st3{fill:#4F497B;}
	.st4{fill:#216885;}
	.st5{fill:#F0492D;}
	.st6{fill:#EF3F25;}
	.st7{fill:#236886;}
	.st8{fill:#256887;}
	.st9{fill:#D2BF2D;}
	.st10{display:none;}
	.st11{display:inline;fill:none;stroke:#000000;stroke-width:0.25;stroke-miterlimit:10;}
	.st12{display:inline;fill:none;stroke:#FFFFFF;stroke-width:0.25;stroke-miterlimit:10;}
	.st13{display:inline;fill:none;stroke:#FFFFFF;stroke-width:0.25;stroke-linecap:round;stroke-miterlimit:10;}
	.st14{display:inline;fill:none;stroke:#000000;stroke-width:0.25;stroke-linecap:round;stroke-miterlimit:10;}
	.st15{fill:#4F4A7C;}
	.st16{fill:none;stroke:#FFFFFF;stroke-miterlimit:10;}
	.st17{stroke:#FFFFFF;stroke-miterlimit:10;}
	.st18{fill:none;stroke:#FFFFFF;stroke-width:3;stroke-miterlimit:10;}
	.st19{fill:none;stroke:#FFFFFF;stroke-linecap:round;stroke-miterlimit:10;}
	.st20{fill:none;stroke:#236886;stroke-width:5;stroke-miterlimit:10;}
	.st21{fill:none;stroke:#236886;stroke-width:5;stroke-linecap:round;stroke-miterlimit:10;}
	.st22{fill:none;stroke:#FFFFFF;stroke-width:5;stroke-miterlimit:10;}
	.st23{fill:none;stroke:#FFFFFF;stroke-width:5;stroke-linecap:round;stroke-miterlimit:10;}
	.st24{fill:none;stroke:#4F497B;stroke-width:3;stroke-miterlimit:10;}
	.st25{fill:none;stroke:#4F497B;stroke-miterlimit:10;}
	.st26{fill:#FFFFFF;stroke:#4F497B;stroke-miterlimit:10;}
	.st27{fill:#FFFFFF;stroke:#4F497B;stroke-width:2;stroke-miterlimit:10;}
	.st28{fill:none;stroke:#4F497B;stroke-width:2;stroke-linecap:round;stroke-miterlimit:10;}
	.st29{stroke:#FFFFFF;stroke-width:2;stroke-miterlimit:10;}
	.st30{fill:none;stroke:#FFFFFF;stroke-width:2;stroke-linecap:round;stroke-miterlimit:10;}
	.st31{fill:none;stroke:#0C6E39;stroke-width:3;stroke-miterlimit:10;}
	.st32{fill:none;stroke:#EF3F25;stroke-miterlimit:10;}
	.st33{fill:none;stroke:#EF3F25;stroke-width:3;stroke-miterlimit:10;}
	.st34{fill:none;stroke:#4F4A7C;stroke-width:3;stroke-miterlimit:10;}
	.st35{fill:none;stroke:#4F4A7C;stroke-width:5;stroke-linecap:round;stroke-miterlimit:10;}
	.st36{fill:none;stroke:#EF3F25;stroke-width:3;stroke-linecap:round;stroke-miterlimit:10;}
	.st37{fill:none;stroke:#EF3F25;stroke-width:5;stroke-linecap:round;stroke-miterlimit:10;}
	.st38{fill:none;stroke:#FFFFFF;stroke-width:3;stroke-linecap:round;stroke-miterlimit:10;}
	.st39{fill:none;stroke:#4F497B;stroke-width:5;stroke-linecap:round;stroke-miterlimit:10;}
	.st40{fill:#FFFFFF;stroke:#0E6E39;stroke-width:3;stroke-linejoin:round;stroke-miterlimit:10;}
	.st41{fill:none;stroke:#0E6E39;stroke-width:3;stroke-linejoin:round;stroke-miterlimit:10;}
	.st42{stroke:#FFFFFF;stroke-width:3;stroke-linejoin:round;stroke-miterlimit:10;}
	.st43{fill:none;stroke:#FFFFFF;stroke-width:3;stroke-linejoin:round;stroke-miterlimit:10;}
	.st44{fill:none;stroke:#0C6E39;stroke-width:5;stroke-linecap:round;stroke-miterlimit:10;}
	.st45{fill:none;stroke:#0C6E39;stroke-width:3;stroke-linecap:round;stroke-miterlimit:10;}
	.st46{fill:none;stroke:#0C6E39;stroke-linecap:round;stroke-linejoin:round;stroke-miterlimit:10;}
	.st47{fill:#0C6E39;stroke:#0C6E39;stroke-width:0;stroke-miterlimit:10;}
	.st48{fill:none;stroke:#0C6E39;stroke-width:3;stroke-linecap:round;stroke-linejoin:round;stroke-miterlimit:10;}
	.st49{fill:none;stroke:#0C6E39;stroke-linecap:round;stroke-miterlimit:10;}
	.st50{fill:none;stroke:#FFFFFF;stroke-linecap:round;stroke-linejoin:round;stroke-miterlimit:10;}
	.st51{fill:none;stroke:#FFFFFF;stroke-width:3;stroke-linecap:round;stroke-linejoin:round;stroke-miterlimit:10;}
	.st52{fill:none;stroke:#4F4A7C;stroke-miterlimit:10;}
	.st53{fill:#FFFFFF;stroke:#4F4A7C;stroke-width:2;stroke-miterlimit:10;}
	.st54{fill:#FFFFFF;stroke:#4F497B;stroke-width:5;stroke-miterlimit:10;}
	.st55{stroke:#FFFFFF;stroke-width:5;stroke-miterlimit:10;}
	.st56{fill:none;stroke:#EF3F25;stroke-width:2;stroke-linecap:round;stroke-miterlimit:10;}
	.st57{fill:none;stroke:#FFFFFF;stroke-width:1.5;stroke-miterlimit:10;}
	.st58{fill:none;stroke:#FFFFFF;stroke-width:1.5;stroke-linecap:round;stroke-miterlimit:10;}
	.st59{fill:none;stroke:#0E6E39;stroke-width:3;stroke-miterlimit:10;}
	.st60{fill:none;stroke:#0E6E39;stroke-width:1.5;stroke-miterlimit:10;}
	.st61{fill:none;stroke:#0E6E39;stroke-width:1.5;stroke-linecap:round;stroke-miterlimit:10;}
	.st62{fill:none;stroke:#EF3F25;stroke-width:0.7099;stroke-miterlimit:10;}
	.st63{fill:none;stroke:#FFFFFF;stroke-width:0.7099;stroke-miterlimit:10;}
	.st64{fill:#EF4025;}
	.st65{fill:#505050;stroke:#4F4A7C;stroke-width:2.9281;stroke-miterlimit:10;}
	.st66{fill:#FFFFFF;stroke:#FFFFFF;stroke-width:2.9281;stroke-miterlimit:10;}
	.st67{fill:none;stroke:#FFFFFF;stroke-width:3.2577;stroke-miterlimit:10;}
	.st68{fill:none;stroke:#FFFFFF;stroke-width:3.2577;stroke-linecap:round;stroke-linejoin:round;stroke-miterlimit:10;}
	.st69{fill:none;stroke:#256887;stroke-width:3.2577;stroke-miterlimit:10;}
	.st70{fill:none;stroke:#256887;stroke-width:3.2577;stroke-linecap:round;stroke-linejoin:round;stroke-miterlimit:10;}
	.st71{fill:#FFFFFF;stroke:#FFFFFF;stroke-width:2;stroke-miterlimit:10;}
	.st72{fill:#D2BF2D;stroke:#D2BF2D;stroke-width:2;stroke-miterlimit:10;}
	.st73{fill:#086E38;}
	.st74{fill:#256887;stroke:#256887;stroke-width:4;stroke-miterlimit:10;}
	.st75{fill:#FFFFFF;stroke:#FFFFFF;stroke-width:4;stroke-miterlimit:10;}
	.st76{fill:#4F4B7D;}
	.st77{fill:#256887;stroke:#256887;stroke-width:2.8997;stroke-miterlimit:10;}
	.st78{fill:#FFFFFF;stroke:#FFFFFF;stroke-width:2.8997;stroke-miterlimit:10;}
	.st79{fill:none;stroke:#FFFFFF;stroke-width:2.2399;stroke-miterlimit:10;}
	.st80{fill:none;stroke:#FFFFFF;stroke-width:2;stroke-miterlimit:10;}
	.st81{fill:none;stroke:#FFFFFF;stroke-width:1.4254;stroke-miterlimit:10;}
	.st82{fill:none;stroke:#EF4025;stroke-width:2.2399;stroke-miterlimit:10;}
	.st83{fill:none;stroke:#EF4025;stroke-width:2;stroke-miterlimit:10;}
	.st84{fill:none;stroke:#EF4025;stroke-width:1.4254;stroke-miterlimit:10;}
	.st85{fill:none;stroke:#4F497B;stroke-linecap:round;stroke-miterlimit:10;}
</style>
<g id="White">
</g>
<g id="BACKGROUND">
	<rect x="0" width="360" height="360"/>
</g>
<g id="REF" class="st10">
	<rect x="-360" y="90.27" class="st11" width="360" height="108"/>
	<rect x="0" y="90.27" class="st12" width="360" height="108"/>
	<line class="st13" x1="180" y1="0.21" x2="180" y2="360.08"/>
</g>
<g id="LINE_ONE">
	<g>
		<path class="st0" d="M149.33,237.84c0,0.6,0.26,1.03,0.78,1.29c0.52,0.26,1.35,0.48,2.48,0.67c1.67,0.28,2.89,0.74,3.67,1.38
			c0.78,0.64,1.17,1.59,1.17,2.86c0,0.68-0.14,1.29-0.42,1.83s-0.67,1-1.17,1.38s-1.1,0.67-1.79,0.88
			c-0.69,0.21-1.45,0.31-2.26,0.31c-0.88,0-1.67-0.12-2.38-0.35c-0.71-0.23-1.31-0.54-1.8-0.93c-0.49-0.39-0.88-0.84-1.16-1.36
			c-0.28-0.52-0.43-1.06-0.46-1.62l3-0.48c0.07,0.68,0.33,1.24,0.79,1.67c0.46,0.43,1.13,0.65,2.01,0.65c0.36,0,0.7-0.03,1.01-0.1
			c0.31-0.07,0.59-0.18,0.82-0.33c0.23-0.15,0.42-0.34,0.55-0.57s0.2-0.5,0.2-0.82c0-0.52-0.22-0.92-0.65-1.2s-1.2-0.51-2.29-0.68
			c-0.73-0.12-1.41-0.27-2.04-0.46s-1.17-0.44-1.63-0.77c-0.46-0.33-0.82-0.73-1.08-1.22c-0.26-0.49-0.39-1.08-0.39-1.79
			c0-0.71,0.13-1.32,0.4-1.84c0.27-0.52,0.64-0.96,1.12-1.31c0.48-0.35,1.05-0.62,1.7-0.79c0.65-0.17,1.37-0.26,2.14-0.26
			c0.72,0,1.39,0.08,2.02,0.25c0.63,0.17,1.18,0.41,1.67,0.74c0.49,0.33,0.89,0.73,1.21,1.21c0.32,0.48,0.54,1.03,0.66,1.64
			l-3.04,0.66c-0.11-0.64-0.38-1.15-0.82-1.52c-0.44-0.37-1.03-0.56-1.78-0.56c-0.76,0-1.32,0.14-1.69,0.42
			C149.51,237,149.33,237.37,149.33,237.84z"/>
		<path class="st0" d="M160.53,234.16h11.1v2.5h-4.04v11.5h-3.02v-11.5h-4.04V234.16z"/>
		<path class="st0" d="M186.41,248.16h-3.1l-1.12-3.24h-5.02l-1.12,3.24h-2.94l5.04-14h3.22L186.41,248.16z M179.65,237.44
			c-0.03,0.11-0.07,0.26-0.14,0.47c-0.07,0.21-0.14,0.44-0.22,0.7s-0.17,0.54-0.27,0.84s-0.2,0.59-0.29,0.87
			c-0.23,0.69-0.47,1.43-0.74,2.22h3.38c-0.27-0.79-0.51-1.53-0.74-2.22c-0.15-0.4-0.26-0.73-0.35-0.99
			c-0.09-0.26-0.17-0.51-0.24-0.75c-0.07-0.24-0.14-0.46-0.21-0.67s-0.11-0.36-0.14-0.47H179.65z"/>
		<path class="st0" d="M190.55,248.16v-14h9.58v2.48h-6.62v3.08h6.1v2.48h-6.1v5.96H190.55z"/>
		<path class="st0" d="M204.61,248.16v-14h9.58v2.48h-6.62v3.08h6.1v2.48h-6.1v5.96H204.61z"/>
	</g>
</g>
<g id="LINE_TWO">
	<g>
		<path class="st0" d="M109.39,265.95v-14h9.54v2.48h-6.58v3.08h6.12v2.48h-6.12v3.48h6.68v2.48H109.39z"/>
		<path class="st0" d="M131.11,258.61l5.18,7.34h-3.6l-3.38-4.86l-3.44,4.86h-3.36l5.14-7.2l-4.74-6.8h3.62l2.94,4.32l3.04-4.32
			h3.38L131.11,258.61z"/>
		<path class="st0" d="M143.39,261.03v4.92h-2.98v-14h5.32c0.84,0,1.6,0.09,2.28,0.26c0.68,0.17,1.26,0.44,1.74,0.8
			c0.48,0.36,0.85,0.82,1.12,1.38c0.27,0.56,0.4,1.23,0.4,2.02c0,0.8-0.14,1.49-0.41,2.07c-0.27,0.58-0.65,1.06-1.14,1.44
			s-1.07,0.66-1.75,0.84c-0.68,0.18-1.43,0.27-2.24,0.27H143.39z M148.21,256.41c0-0.76-0.23-1.28-0.69-1.56
			c-0.46-0.28-1.16-0.42-2.09-0.42h-2.04v4.12h2.04c0.93,0,1.63-0.17,2.09-0.5C147.98,257.71,148.21,257.17,148.21,256.41z"/>
		<path class="st0" d="M155.67,265.95v-14h9.54v2.48h-6.58v3.08h6.12v2.48h-6.12v3.48h6.68v2.48H155.67z"/>
		<path class="st0" d="M180.43,256.21c0,1.04-0.24,1.89-0.71,2.54s-1.12,1.14-1.95,1.46l3.22,5.74h-3.3l-2.9-5.3h-1.86v5.3h-2.98
			v-14h5.12c0.81,0,1.55,0.08,2.21,0.25s1.22,0.42,1.69,0.77c0.47,0.35,0.83,0.79,1.08,1.32S180.43,255.46,180.43,256.21z
			 M177.35,256.23c0-0.68-0.22-1.15-0.65-1.41c-0.43-0.26-1.09-0.39-1.97-0.39h-1.8v3.78h1.8c0.88,0,1.54-0.15,1.97-0.45
			C177.13,257.46,177.35,256.95,177.35,256.23z"/>
		<path class="st0" d="M185.47,251.95h3v14h-3V251.95z"/>
		<path class="st0" d="M193.75,265.95v-14h9.54v2.48h-6.58v3.08h6.12v2.48h-6.12v3.48h6.68v2.48H193.75z"/>
		<path class="st0" d="M208.03,251.95h3.12c0.81,1.32,1.59,2.57,2.32,3.76c0.44,0.71,0.8,1.29,1.08,1.75s0.56,0.92,0.84,1.37
			s0.55,0.88,0.8,1.29c0.25,0.41,0.47,0.75,0.64,1.03h0.06v-9.2h2.84v14h-3.12c-0.8-1.29-1.56-2.53-2.28-3.7
			c-0.43-0.69-0.78-1.27-1.07-1.73s-0.57-0.92-0.85-1.38c-0.28-0.46-0.55-0.9-0.81-1.32s-0.48-0.78-0.67-1.07h-0.06v9.2h-2.84
			V251.95z"/>
		<path class="st0" d="M224.43,258.95c0-1.15,0.16-2.17,0.48-3.07c0.32-0.9,0.78-1.66,1.37-2.29c0.59-0.63,1.31-1.1,2.16-1.43
			c0.85-0.33,1.8-0.49,2.85-0.49c1.49,0,2.75,0.33,3.76,0.98c1.01,0.65,1.73,1.65,2.16,2.98l-2.92,1.02
			c-0.24-0.79-0.6-1.4-1.08-1.83c-0.48-0.43-1.14-0.65-1.98-0.65c-0.61,0-1.15,0.12-1.62,0.36s-0.85,0.57-1.16,0.99
			s-0.54,0.92-0.69,1.51c-0.15,0.59-0.23,1.23-0.23,1.92s0.08,1.33,0.23,1.91c0.15,0.58,0.38,1.08,0.69,1.51s0.69,0.76,1.16,1
			s1.01,0.36,1.64,0.36c0.77,0,1.4-0.19,1.89-0.58c0.49-0.39,0.86-0.97,1.11-1.76l2.88,1.02c-0.47,1.19-1.19,2.12-2.16,2.8
			c-0.97,0.68-2.23,1.02-3.76,1.02c-1.03,0-1.96-0.16-2.79-0.49c-0.83-0.33-1.55-0.8-2.14-1.42c-0.59-0.62-1.05-1.38-1.37-2.29
			C224.59,261.12,224.43,260.09,224.43,258.95z"/>
		<path class="st0" d="M241.61,265.95v-14h9.54v2.48h-6.58v3.08h6.12v2.48h-6.12v3.48h6.68v2.48H241.61z"/>
	</g>
</g>
<g id="ICON">
	<g>
		<g>
			<path class="st16" d="M204.98,155.28c0,5.5-4.5,10.01-10.01,10.01h-31.31c-5.5,0-10.01-4.5-10.01-10.01v-18.99
				c0-5.5,4.5-10.01,10.01-10.01h31.31c5.5,0,10.01,4.5,10.01,10.01V155.28z"/>
		</g>
		<circle class="st18" cx="179.24" cy="145.55" r="39.02"/>
		<polygon class="st17" points="173.28,160.2 171.97,160.96 171.1,161.89 170.94,162.29 170.94,165.29 160.3,165.29 160.3,169.39 
			160.74,170.13 161.23,170.62 161.64,171.13 161.83,171.38 161.83,173.72 170.67,173.72 170.67,172.79 171.32,172.11 
			172.38,171.32 173.74,170.18 174.18,169.42 174.39,168.71 174.39,160.2 174.39,159.93 173.9,159.93 		"/>
		<rect x="160.55" y="173.72" class="st29" width="11.91" height="25.98"/>
		<polygon class="st17" points="185.41,160.2 186.72,160.96 187.59,161.89 187.75,162.29 187.75,165.29 198.38,165.29 
			198.38,169.39 197.95,170.13 197.46,170.62 197.05,171.13 196.86,171.38 196.86,173.72 188.02,173.72 188.02,172.79 
			187.37,172.11 186.31,171.32 184.95,170.18 184.51,169.42 184.29,168.71 184.29,160.2 184.29,159.93 184.78,159.93 		"/>
		
			<rect x="186.23" y="173.72" transform="matrix(-1 -4.443080e-11 4.443080e-11 -1 384.3655 373.4128)" class="st29" width="11.91" height="25.98"/>
		<g>
			<path class="st0" d="M169.11,138.95v5.24h-0.89l-0.24-0.96c-0.18,0.43-0.42,0.73-0.7,0.88c-0.28,0.16-0.55,0.24-0.81,0.24
				c-0.31,0-0.62-0.07-0.93-0.19c-0.31-0.13-0.59-0.4-0.84-0.81c-0.25-0.41-0.46-1-0.62-1.76c-0.16-0.77-0.23-1.79-0.23-3.06
				c0-1.2,0.08-2.17,0.23-2.93c0.15-0.75,0.36-1.35,0.62-1.77c0.26-0.43,0.56-0.72,0.91-0.88c0.34-0.16,0.71-0.24,1.1-0.24
				c0.36,0,0.68,0.06,0.99,0.19c0.3,0.13,0.56,0.35,0.79,0.67c0.22,0.32,0.39,0.75,0.51,1.28c0.12,0.53,0.18,1.2,0.18,2h-1.42
				c0-1.01-0.08-1.75-0.24-2.22s-0.42-0.7-0.8-0.7c-0.22,0-0.41,0.06-0.59,0.19s-0.33,0.37-0.45,0.71
				c-0.12,0.35-0.22,0.82-0.28,1.41c-0.06,0.59-0.1,1.35-0.1,2.28c0,0.95,0.03,1.72,0.1,2.32s0.16,1.07,0.28,1.4
				c0.11,0.33,0.25,0.56,0.4,0.69s0.33,0.19,0.51,0.19c0.17,0,0.34-0.05,0.49-0.15c0.16-0.1,0.29-0.26,0.4-0.49
				c0.11-0.23,0.2-0.54,0.27-0.92c0.06-0.38,0.1-0.85,0.1-1.42h-1.15v-1.2H169.11z"/>
			<path class="st0" d="M173.69,139.13h-1.15v5.07h-1.31v-11.33h2.41c0.36,0,0.68,0.05,0.98,0.14s0.55,0.25,0.76,0.49
				c0.21,0.23,0.37,0.55,0.49,0.95s0.17,0.91,0.17,1.52c0,0.7-0.09,1.3-0.27,1.79s-0.46,0.86-0.85,1.09l1.38,5.36h-1.39
				L173.69,139.13z M172.55,138h1.15c0.39,0,0.65-0.16,0.79-0.49c0.13-0.32,0.2-0.84,0.2-1.55c0-0.38-0.02-0.69-0.06-0.95
				c-0.04-0.25-0.1-0.46-0.2-0.61c-0.1-0.15-0.22-0.26-0.38-0.32c-0.16-0.06-0.35-0.09-0.59-0.09h-0.91V138z"/>
			<path class="st0" d="M178.06,132.87h3.77v1.2h-2.46v3.9h2.22v1.2h-2.22V143h2.46v1.2h-3.77V132.87z"/>
			<path class="st0" d="M187.09,141.33h-2.18l-0.44,2.86h-1.34l2.07-11.33h1.65l2.05,11.33h-1.36L187.09,141.33z M185.1,140.13h1.81
				l-0.91-5.89L185.1,140.13z"/>
			<path class="st0" d="M194.38,132.87v1.2h-2.02v10.13h-1.31v-10.13h-2.02v-1.2H194.38z"/>
		</g>
		<g>
			<path class="st0" d="M170.39,146.15h1.18l-1.13,11.33h-1.49l-1.49-9.31l-1.33,9.31h-1.55l-1.41-11.33h1.31l0.92,9.32l1.41-9.32
				h1.28l1.57,9.32L170.39,146.15z"/>
			<path class="st0" d="M175.65,145.99c0.37,0,0.71,0.06,1.04,0.19c0.33,0.13,0.61,0.4,0.86,0.82c0.24,0.42,0.44,1.01,0.58,1.77
				c0.15,0.77,0.22,1.78,0.22,3.04c0,1.26-0.07,2.28-0.22,3.04c-0.15,0.77-0.34,1.36-0.58,1.77s-0.53,0.69-0.86,0.82
				c-0.33,0.13-0.68,0.19-1.04,0.19c-0.37,0-0.71-0.07-1.04-0.19c-0.33-0.13-0.62-0.4-0.86-0.82c-0.24-0.42-0.44-1.01-0.58-1.77
				c-0.15-0.77-0.22-1.78-0.22-3.04c0-1.26,0.07-2.28,0.22-3.04c0.15-0.77,0.34-1.36,0.58-1.77c0.24-0.42,0.53-0.69,0.86-0.82
				C174.94,146.05,175.29,145.99,175.65,145.99z M175.65,147.22c-0.22,0-0.4,0.05-0.56,0.15c-0.16,0.1-0.29,0.31-0.4,0.63
				c-0.11,0.32-0.19,0.79-0.24,1.39c-0.05,0.6-0.08,1.41-0.08,2.43c0,1.01,0.03,1.82,0.08,2.43c0.05,0.6,0.13,1.07,0.24,1.39
				c0.11,0.32,0.24,0.53,0.4,0.63c0.16,0.1,0.34,0.15,0.56,0.15s0.4-0.04,0.57-0.13c0.16-0.09,0.3-0.28,0.4-0.59
				s0.19-0.77,0.24-1.38c0.05-0.61,0.08-1.44,0.08-2.5c0-1.05-0.03-1.88-0.08-2.49c-0.05-0.62-0.13-1.08-0.24-1.38
				c-0.1-0.31-0.23-0.5-0.4-0.59C176.07,147.26,175.88,147.22,175.65,147.22z"/>
			<path class="st0" d="M182.77,152.42h-1.15v5.07h-1.31v-11.33h2.41c0.36,0,0.68,0.05,0.98,0.14s0.55,0.25,0.76,0.49
				c0.21,0.23,0.37,0.55,0.49,0.95s0.17,0.91,0.17,1.52c0,0.7-0.09,1.3-0.27,1.79s-0.46,0.86-0.85,1.09l1.38,5.36h-1.39
				L182.77,152.42z M181.62,151.28h1.15c0.39,0,0.65-0.16,0.79-0.49c0.13-0.32,0.2-0.84,0.2-1.55c0-0.38-0.02-0.69-0.06-0.95
				c-0.04-0.25-0.1-0.46-0.2-0.61c-0.1-0.15-0.22-0.26-0.38-0.32c-0.16-0.06-0.35-0.09-0.59-0.09h-0.91V151.28z"/>
			<path class="st0" d="M187.14,146.15h1.31v5h0.58l1.52-5h1.39l-1.86,5.57l2.1,5.76h-1.42l-1.78-5.13h-0.53v5.13h-1.31V146.15z"/>
			<path class="st0" d="M193.5,146.15h1.39l-0.24,8.4h-0.91L193.5,146.15z M193.58,155.89h1.23v1.59h-1.23V155.89z"/>
		</g>
		<line class="st30" x1="184.97" y1="101.19" x2="186.32" y2="88.84"/>
		<line class="st30" x1="197.19" y1="104.33" x2="201.69" y2="92.76"/>
		<line class="st30" x1="207.49" y1="110.35" x2="214.95" y2="100.43"/>
		<line class="st30" x1="215.27" y1="118.67" x2="224.91" y2="110.85"/>
		<line class="st30" x1="221.17" y1="129.32" x2="232.61" y2="124.49"/>
		<line class="st30" x1="223.71" y1="140.47" x2="236.09" y2="139.49"/>
		<line class="st30" x1="223.24" y1="152.17" x2="235.52" y2="153.99"/>
		<line class="st30" x1="220.5" y1="163.57" x2="231.83" y2="168.66"/>
		<line class="st30" x1="214.3" y1="173.27" x2="224.12" y2="180.87"/>
		<line class="st30" x1="206.41" y1="181.83" x2="214.09" y2="191.59"/>
		<line class="st30" x1="175.03" y1="101.21" x2="173.68" y2="88.87"/>
		<line class="st30" x1="162.81" y1="104.36" x2="158.31" y2="92.78"/>
		<line class="st30" x1="152.51" y1="110.38" x2="145.05" y2="100.46"/>
		<line class="st30" x1="144.73" y1="118.69" x2="135.09" y2="110.87"/>
		<line class="st30" x1="138.83" y1="129.35" x2="127.39" y2="124.52"/>
		<line class="st30" x1="136.29" y1="140.5" x2="123.91" y2="139.51"/>
		<line class="st30" x1="136.76" y1="152.2" x2="124.48" y2="154.02"/>
		<line class="st30" x1="139.5" y1="163.6" x2="128.17" y2="168.69"/>
		<line class="st30" x1="145.7" y1="173.29" x2="135.88" y2="180.89"/>
		<line class="st30" x1="153.59" y1="181.85" x2="145.91" y2="191.61"/>
	</g>
</g>
</svg>
