<?xml version="1.0" encoding="utf-8"?>
<!-- Generator: Adobe Illustrator 23.1.0, SVG Export Plug-In . SVG Version: 6.00 Build 0)  -->
<svg version="1.1" xmlns="http://www.w3.org/2000/svg" xmlns:xlink="http://www.w3.org/1999/xlink" x="0px" y="0px"
	 viewBox="0 0 360 360" style="enable-background:new 0 0 360 360;" xml:space="preserve">
<style type="text/css">
	.st0{fill:#FFFFFF;}
	.st1{fill:#0E6E39;}
	.st2{fill:#0C6E39;}
	.st3{fill:#4F497B;}
	.st4{fill:#216885;}
	.st5{fill:#F0492D;}
	.st6{fill:#EF3F25;}
	.st7{fill:#236886;}
	.st8{fill:#256887;}
	.st9{fill:#D2BF2D;}
	.st10{display:none;}
	.st11{display:inline;fill:none;stroke:#000000;stroke-width:0.25;stroke-miterlimit:10;}
	.st12{display:inline;fill:none;stroke:#FFFFFF;stroke-width:0.25;stroke-miterlimit:10;}
	.st13{display:inline;fill:none;stroke:#FFFFFF;stroke-width:0.25;stroke-linecap:round;stroke-miterlimit:10;}
	.st14{display:inline;fill:none;stroke:#000000;stroke-width:0.25;stroke-linecap:round;stroke-miterlimit:10;}
	.st15{fill:#4F4A7C;}
	.st16{fill:none;stroke:#FFFFFF;stroke-miterlimit:10;}
	.st17{stroke:#FFFFFF;stroke-miterlimit:10;}
	.st18{fill:none;stroke:#FFFFFF;stroke-width:3;stroke-miterlimit:10;}
	.st19{fill:none;stroke:#FFFFFF;stroke-linecap:round;stroke-miterlimit:10;}
	.st20{fill:none;stroke:#236886;stroke-width:5;stroke-miterlimit:10;}
	.st21{fill:none;stroke:#236886;stroke-width:5;stroke-linecap:round;stroke-miterlimit:10;}
	.st22{fill:none;stroke:#FFFFFF;stroke-width:5;stroke-miterlimit:10;}
	.st23{fill:none;stroke:#FFFFFF;stroke-width:5;stroke-linecap:round;stroke-miterlimit:10;}
	.st24{fill:none;stroke:#4F497B;stroke-width:3;stroke-miterlimit:10;}
	.st25{fill:none;stroke:#4F497B;stroke-miterlimit:10;}
	.st26{fill:#FFFFFF;stroke:#4F497B;stroke-miterlimit:10;}
	.st27{fill:#FFFFFF;stroke:#4F497B;stroke-width:2;stroke-miterlimit:10;}
	.st28{fill:none;stroke:#4F497B;stroke-width:2;stroke-linecap:round;stroke-miterlimit:10;}
	.st29{stroke:#FFFFFF;stroke-width:2;stroke-miterlimit:10;}
	.st30{fill:none;stroke:#FFFFFF;stroke-width:2;stroke-linecap:round;stroke-miterlimit:10;}
	.st31{fill:none;stroke:#0C6E39;stroke-width:3;stroke-miterlimit:10;}
	.st32{fill:none;stroke:#EF3F25;stroke-miterlimit:10;}
	.st33{fill:none;stroke:#EF3F25;stroke-width:3;stroke-miterlimit:10;}
	.st34{fill:none;stroke:#4F4A7C;stroke-width:3;stroke-miterlimit:10;}
	.st35{fill:none;stroke:#4F4A7C;stroke-width:5;stroke-linecap:round;stroke-miterlimit:10;}
	.st36{fill:none;stroke:#EF3F25;stroke-width:3;stroke-linecap:round;stroke-miterlimit:10;}
	.st37{fill:none;stroke:#EF3F25;stroke-width:5;stroke-linecap:round;stroke-miterlimit:10;}
	.st38{fill:none;stroke:#FFFFFF;stroke-width:3;stroke-linecap:round;stroke-miterlimit:10;}
	.st39{fill:none;stroke:#4F497B;stroke-width:5;stroke-linecap:round;stroke-miterlimit:10;}
	.st40{fill:#FFFFFF;stroke:#0E6E39;stroke-width:3;stroke-linejoin:round;stroke-miterlimit:10;}
	.st41{fill:none;stroke:#0E6E39;stroke-width:3;stroke-linejoin:round;stroke-miterlimit:10;}
	.st42{stroke:#FFFFFF;stroke-width:3;stroke-linejoin:round;stroke-miterlimit:10;}
	.st43{fill:none;stroke:#FFFFFF;stroke-width:3;stroke-linejoin:round;stroke-miterlimit:10;}
	.st44{fill:none;stroke:#0C6E39;stroke-width:5;stroke-linecap:round;stroke-miterlimit:10;}
	.st45{fill:none;stroke:#0C6E39;stroke-width:3;stroke-linecap:round;stroke-miterlimit:10;}
	.st46{fill:none;stroke:#0C6E39;stroke-linecap:round;stroke-linejoin:round;stroke-miterlimit:10;}
	.st47{fill:#0C6E39;stroke:#0C6E39;stroke-width:0;stroke-miterlimit:10;}
	.st48{fill:none;stroke:#0C6E39;stroke-width:3;stroke-linecap:round;stroke-linejoin:round;stroke-miterlimit:10;}
	.st49{fill:none;stroke:#0C6E39;stroke-linecap:round;stroke-miterlimit:10;}
	.st50{fill:none;stroke:#FFFFFF;stroke-linecap:round;stroke-linejoin:round;stroke-miterlimit:10;}
	.st51{fill:none;stroke:#FFFFFF;stroke-width:3;stroke-linecap:round;stroke-linejoin:round;stroke-miterlimit:10;}
	.st52{fill:none;stroke:#4F4A7C;stroke-miterlimit:10;}
	.st53{fill:#FFFFFF;stroke:#4F4A7C;stroke-width:2;stroke-miterlimit:10;}
	.st54{fill:#FFFFFF;stroke:#4F497B;stroke-width:5;stroke-miterlimit:10;}
	.st55{stroke:#FFFFFF;stroke-width:5;stroke-miterlimit:10;}
	.st56{fill:none;stroke:#EF3F25;stroke-width:2;stroke-linecap:round;stroke-miterlimit:10;}
	.st57{fill:none;stroke:#FFFFFF;stroke-width:1.5;stroke-miterlimit:10;}
	.st58{fill:none;stroke:#FFFFFF;stroke-width:1.5;stroke-linecap:round;stroke-miterlimit:10;}
	.st59{fill:none;stroke:#0E6E39;stroke-width:3;stroke-miterlimit:10;}
	.st60{fill:none;stroke:#0E6E39;stroke-width:1.5;stroke-miterlimit:10;}
	.st61{fill:none;stroke:#0E6E39;stroke-width:1.5;stroke-linecap:round;stroke-miterlimit:10;}
	.st62{fill:none;stroke:#EF3F25;stroke-width:0.7099;stroke-miterlimit:10;}
	.st63{fill:none;stroke:#FFFFFF;stroke-width:0.7099;stroke-miterlimit:10;}
	.st64{fill:#EF4025;}
	.st65{fill:#505050;stroke:#4F4A7C;stroke-width:2.9281;stroke-miterlimit:10;}
	.st66{fill:#FFFFFF;stroke:#FFFFFF;stroke-width:2.9281;stroke-miterlimit:10;}
	.st67{fill:none;stroke:#FFFFFF;stroke-width:3.2577;stroke-miterlimit:10;}
	.st68{fill:none;stroke:#FFFFFF;stroke-width:3.2577;stroke-linecap:round;stroke-linejoin:round;stroke-miterlimit:10;}
	.st69{fill:none;stroke:#256887;stroke-width:3.2577;stroke-miterlimit:10;}
	.st70{fill:none;stroke:#256887;stroke-width:3.2577;stroke-linecap:round;stroke-linejoin:round;stroke-miterlimit:10;}
	.st71{fill:#FFFFFF;stroke:#FFFFFF;stroke-width:2;stroke-miterlimit:10;}
	.st72{fill:#D2BF2D;stroke:#D2BF2D;stroke-width:2;stroke-miterlimit:10;}
	.st73{fill:#086E38;}
	.st74{fill:#256887;stroke:#256887;stroke-width:4;stroke-miterlimit:10;}
	.st75{fill:#FFFFFF;stroke:#FFFFFF;stroke-width:4;stroke-miterlimit:10;}
	.st76{fill:#4F4B7D;}
	.st77{fill:#256887;stroke:#256887;stroke-width:2.8997;stroke-miterlimit:10;}
	.st78{fill:#FFFFFF;stroke:#FFFFFF;stroke-width:2.8997;stroke-miterlimit:10;}
	.st79{fill:none;stroke:#FFFFFF;stroke-width:2.2399;stroke-miterlimit:10;}
	.st80{fill:none;stroke:#FFFFFF;stroke-width:2;stroke-miterlimit:10;}
	.st81{fill:none;stroke:#FFFFFF;stroke-width:1.4254;stroke-miterlimit:10;}
	.st82{fill:none;stroke:#EF4025;stroke-width:2.2399;stroke-miterlimit:10;}
	.st83{fill:none;stroke:#EF4025;stroke-width:2;stroke-miterlimit:10;}
	.st84{fill:none;stroke:#EF4025;stroke-width:1.4254;stroke-miterlimit:10;}
	.st85{fill:none;stroke:#4F497B;stroke-linecap:round;stroke-miterlimit:10;}
</style>
<g id="White">
	<rect x="0" class="st0" width="360.29" height="360.29"/>
</g>
<g id="BACKGROUND">
	<rect x="0" y="336.1" class="st9" width="360" height="23.94"/>
	<g>
		<path class="st0" d="M264.75,348.33c0-0.69,0.1-1.3,0.29-1.84s0.46-1,0.82-1.37c0.36-0.38,0.79-0.66,1.29-0.86
			c0.51-0.2,1.08-0.29,1.71-0.29c0.9,0,1.65,0.2,2.26,0.59c0.61,0.39,1.04,0.99,1.29,1.79l-1.75,0.61c-0.14-0.47-0.36-0.84-0.65-1.1
			c-0.29-0.26-0.69-0.39-1.19-0.39c-0.37,0-0.69,0.07-0.97,0.22c-0.28,0.14-0.51,0.34-0.7,0.59c-0.18,0.25-0.32,0.55-0.41,0.91
			c-0.09,0.35-0.14,0.74-0.14,1.15s0.04,0.8,0.14,1.15c0.09,0.35,0.23,0.65,0.41,0.91c0.19,0.26,0.42,0.46,0.7,0.6
			c0.28,0.14,0.61,0.22,0.98,0.22c0.46,0,0.84-0.12,1.13-0.35c0.29-0.23,0.51-0.58,0.67-1.06l1.73,0.61
			c-0.28,0.71-0.71,1.27-1.3,1.68c-0.58,0.41-1.34,0.61-2.26,0.61c-0.62,0-1.17-0.1-1.67-0.29s-0.93-0.48-1.28-0.85
			c-0.36-0.37-0.63-0.83-0.82-1.37S264.75,349.02,264.75,348.33z"/>
		<path class="st0" d="M274.71,348.33c0-0.68,0.1-1.29,0.29-1.83c0.2-0.54,0.47-1,0.83-1.37c0.36-0.38,0.79-0.66,1.29-0.86
			c0.5-0.2,1.06-0.3,1.68-0.3s1.18,0.1,1.68,0.3c0.5,0.2,0.93,0.49,1.29,0.86c0.36,0.38,0.63,0.83,0.83,1.37
			c0.2,0.54,0.29,1.15,0.29,1.83c0,0.68-0.1,1.29-0.29,1.83c-0.2,0.54-0.47,1-0.83,1.37c-0.36,0.38-0.79,0.66-1.29,0.86
			s-1.06,0.3-1.68,0.3s-1.18-0.1-1.68-0.3s-0.93-0.49-1.29-0.86c-0.36-0.38-0.63-0.83-0.83-1.37
			C274.81,349.62,274.71,349.01,274.71,348.33z M276.57,348.33c0,0.42,0.05,0.81,0.14,1.17c0.09,0.36,0.23,0.66,0.41,0.91
			s0.42,0.45,0.7,0.59c0.28,0.14,0.61,0.21,0.98,0.21s0.7-0.07,0.98-0.21c0.28-0.14,0.51-0.34,0.7-0.59s0.32-0.56,0.41-0.91
			c0.09-0.36,0.14-0.75,0.14-1.17c0-0.42-0.05-0.81-0.14-1.17c-0.09-0.36-0.23-0.66-0.41-0.91s-0.42-0.45-0.7-0.59
			c-0.28-0.14-0.61-0.21-0.98-0.21s-0.7,0.07-0.98,0.21c-0.28,0.14-0.51,0.34-0.7,0.59s-0.32,0.56-0.41,0.91
			C276.62,347.51,276.57,347.9,276.57,348.33z"/>
		<path class="st0" d="M289.41,352.53c-0.12-0.33-0.27-0.76-0.45-1.29c-0.18-0.53-0.37-1.09-0.56-1.66s-0.38-1.14-0.56-1.69
			c-0.18-0.55-0.33-1.02-0.44-1.39h-0.04v6.04h-1.65v-8.4h2.52c0.34,1.02,0.66,1.96,0.94,2.82c0.17,0.51,0.31,0.93,0.41,1.24
			s0.21,0.62,0.3,0.91s0.18,0.55,0.25,0.78c0.08,0.23,0.13,0.4,0.16,0.5c0.03-0.1,0.08-0.27,0.15-0.5c0.07-0.23,0.16-0.51,0.26-0.82
			c0.1-0.32,0.21-0.66,0.32-1.02c0.12-0.36,0.23-0.73,0.36-1.09c0.27-0.86,0.57-1.8,0.9-2.82h2.51v8.4h-1.66v-6.04h-0.04
			c-0.08,0.25-0.18,0.55-0.29,0.89c-0.11,0.35-0.23,0.72-0.37,1.11c-0.13,0.39-0.27,0.79-0.4,1.19c-0.14,0.4-0.27,0.79-0.38,1.15
			c-0.12,0.36-0.23,0.69-0.33,0.99s-0.18,0.53-0.25,0.7H289.41z"/>
		<path class="st0" d="M301.66,352.53c-0.12-0.33-0.27-0.76-0.45-1.29c-0.18-0.53-0.37-1.09-0.56-1.66s-0.38-1.14-0.56-1.69
			c-0.18-0.55-0.33-1.02-0.44-1.39h-0.04v6.04h-1.65v-8.4h2.52c0.34,1.02,0.66,1.96,0.94,2.82c0.17,0.51,0.31,0.93,0.41,1.24
			s0.21,0.62,0.3,0.91s0.18,0.55,0.25,0.78c0.08,0.23,0.13,0.4,0.16,0.5c0.03-0.1,0.08-0.27,0.15-0.5c0.07-0.23,0.16-0.51,0.26-0.82
			c0.1-0.32,0.21-0.66,0.32-1.02c0.12-0.36,0.23-0.73,0.36-1.09c0.27-0.86,0.57-1.8,0.9-2.82h2.51v8.4h-1.66v-6.04h-0.04
			c-0.08,0.25-0.18,0.55-0.29,0.89c-0.11,0.35-0.23,0.72-0.37,1.11c-0.13,0.39-0.27,0.79-0.4,1.19c-0.14,0.4-0.27,0.79-0.38,1.15
			c-0.12,0.36-0.23,0.69-0.33,0.99s-0.18,0.53-0.25,0.7H301.66z"/>
		<path class="st0" d="M313.53,352.7c-1.17,0-2.02-0.29-2.56-0.86c-0.54-0.58-0.8-1.38-0.8-2.4v-5.3h1.8v5.32
			c0,0.51,0.13,0.93,0.38,1.27c0.26,0.33,0.65,0.5,1.18,0.5s0.92-0.17,1.18-0.5c0.26-0.33,0.38-0.75,0.38-1.27v-5.32h1.8v5.3
			c0,1.02-0.27,1.82-0.8,2.4C315.55,352.41,314.7,352.7,313.53,352.7z"/>
		<path class="st0" d="M320.01,344.13h1.87c0.49,0.79,0.95,1.54,1.39,2.26c0.26,0.42,0.48,0.77,0.65,1.05
			c0.17,0.28,0.34,0.55,0.5,0.82c0.17,0.27,0.33,0.53,0.48,0.77c0.15,0.24,0.28,0.45,0.38,0.62h0.04v-5.52h1.71v8.4h-1.87
			c-0.48-0.78-0.94-1.52-1.37-2.22c-0.26-0.42-0.47-0.76-0.64-1.04c-0.17-0.28-0.34-0.55-0.51-0.83s-0.33-0.54-0.49-0.79
			s-0.29-0.47-0.4-0.64h-0.04v5.52h-1.7V344.13z"/>
		<path class="st0" d="M330.2,344.13h1.8v8.4h-1.8V344.13z"/>
		<path class="st0" d="M334.53,344.13h6.66v1.5h-2.42v6.9h-1.81v-6.9h-2.42V344.13z"/>
		<path class="st0" d="M346.26,349.01l-3.18-4.88h2.06l2.05,3.22l2.04-3.22h2l-3.18,4.88v3.52h-1.8V349.01z"/>
	</g>
</g>
<g id="REF" class="st10">
	<rect x="11" y="90.33" class="st11" width="360" height="108"/>
	<line class="st14" x1="191" y1="0.19" x2="191" y2="360.06"/>
</g>
<g id="LINE_ONE">
	<g>
		<path class="st9" d="M142.98,243.24v4.92H140v-14h5.32c0.84,0,1.6,0.09,2.28,0.26c0.68,0.17,1.26,0.44,1.74,0.8
			c0.48,0.36,0.85,0.82,1.12,1.38c0.27,0.56,0.4,1.23,0.4,2.02c0,0.8-0.14,1.49-0.41,2.07c-0.27,0.58-0.65,1.06-1.14,1.44
			s-1.07,0.66-1.75,0.84c-0.68,0.18-1.43,0.27-2.24,0.27H142.98z M147.8,238.62c0-0.76-0.23-1.28-0.69-1.56
			c-0.46-0.28-1.16-0.42-2.09-0.42h-2.04v4.12h2.04c0.93,0,1.63-0.17,2.09-0.5C147.57,239.92,147.8,239.38,147.8,238.62z"/>
		<path class="st9" d="M160.78,248.44c-1.95,0-3.37-0.48-4.26-1.44s-1.34-2.29-1.34-4v-8.84h3v8.86c0,0.85,0.21,1.56,0.64,2.11
			c0.43,0.55,1.08,0.83,1.96,0.83s1.53-0.28,1.96-0.83c0.43-0.55,0.64-1.26,0.64-2.11v-8.86h3V243c0,1.71-0.45,3.04-1.34,4
			C164.15,247.96,162.73,248.44,160.78,248.44z"/>
		<path class="st9" d="M171.58,234.16h6.08c0.65,0,1.24,0.09,1.75,0.28s0.95,0.44,1.3,0.77c0.35,0.33,0.62,0.71,0.81,1.16
			c0.19,0.45,0.28,0.93,0.28,1.45c0,0.43-0.06,0.81-0.18,1.14c-0.12,0.33-0.28,0.62-0.47,0.87c-0.19,0.25-0.41,0.45-0.66,0.62
			s-0.5,0.3-0.77,0.39c0.31,0.04,0.62,0.13,0.93,0.26c0.31,0.13,0.6,0.32,0.87,0.57c0.27,0.25,0.48,0.56,0.65,0.93
			c0.17,0.37,0.25,0.83,0.25,1.38c0,0.6-0.11,1.16-0.34,1.67s-0.54,0.95-0.94,1.32c-0.4,0.37-0.87,0.66-1.42,0.87
			c-0.55,0.21-1.15,0.32-1.8,0.32h-6.34V234.16z M174.5,236.6v3.24h2.1c0.72,0,1.25-0.12,1.6-0.36c0.35-0.24,0.52-0.67,0.52-1.3
			c0-0.57-0.15-0.98-0.45-1.22s-0.8-0.36-1.51-0.36H174.5z M174.5,245.72h2.4c0.95,0,1.59-0.15,1.93-0.45
			c0.34-0.3,0.51-0.74,0.51-1.31c0-0.68-0.21-1.14-0.62-1.37c-0.41-0.23-1.03-0.35-1.86-0.35h-2.36V245.72z"/>
		<path class="st9" d="M187.08,234.16h3v11.5h6.12v2.5h-9.12V234.16z"/>
		<path class="st9" d="M200.4,234.16h3v14h-3V234.16z"/>
		<path class="st9" d="M208.1,241.16c0-1.15,0.16-2.17,0.48-3.07c0.32-0.9,0.78-1.66,1.37-2.29c0.59-0.63,1.31-1.1,2.16-1.43
			c0.85-0.33,1.8-0.49,2.85-0.49c1.49,0,2.75,0.33,3.76,0.98c1.01,0.65,1.73,1.65,2.16,2.98l-2.92,1.02
			c-0.24-0.79-0.6-1.4-1.08-1.83c-0.48-0.43-1.14-0.65-1.98-0.65c-0.61,0-1.15,0.12-1.62,0.36s-0.85,0.57-1.16,0.99
			s-0.54,0.92-0.69,1.51c-0.15,0.59-0.23,1.23-0.23,1.92s0.08,1.33,0.23,1.91c0.15,0.58,0.38,1.08,0.69,1.51s0.69,0.76,1.16,1
			s1.01,0.36,1.64,0.36c0.77,0,1.4-0.19,1.89-0.58c0.49-0.39,0.86-0.97,1.11-1.76l2.88,1.02c-0.47,1.19-1.19,2.12-2.16,2.8
			c-0.97,0.68-2.23,1.02-3.76,1.02c-1.03,0-1.96-0.16-2.79-0.49c-0.83-0.33-1.55-0.8-2.14-1.42c-0.59-0.62-1.05-1.38-1.37-2.29
			C208.26,243.33,208.1,242.3,208.1,241.16z"/>
	</g>
</g>
<g id="LINE_TWO">
	<g>
		<path class="st9" d="M130.58,255.62c0,0.6,0.26,1.03,0.78,1.29c0.52,0.26,1.35,0.48,2.48,0.67c1.67,0.28,2.89,0.74,3.67,1.38
			c0.78,0.64,1.17,1.59,1.17,2.86c0,0.68-0.14,1.29-0.42,1.83s-0.67,1-1.17,1.38s-1.1,0.67-1.79,0.88
			c-0.69,0.21-1.45,0.31-2.26,0.31c-0.88,0-1.67-0.12-2.38-0.35c-0.71-0.23-1.31-0.54-1.8-0.93s-0.88-0.84-1.16-1.36
			c-0.28-0.52-0.43-1.06-0.46-1.62l3-0.48c0.07,0.68,0.33,1.24,0.79,1.67c0.46,0.43,1.13,0.65,2.01,0.65c0.36,0,0.7-0.03,1.01-0.1
			c0.31-0.07,0.59-0.18,0.82-0.33c0.23-0.15,0.42-0.34,0.55-0.57c0.13-0.23,0.2-0.5,0.2-0.82c0-0.52-0.22-0.92-0.65-1.2
			c-0.43-0.28-1.2-0.51-2.29-0.68c-0.73-0.12-1.41-0.27-2.04-0.46s-1.17-0.44-1.63-0.77c-0.46-0.33-0.82-0.73-1.08-1.22
			c-0.26-0.49-0.39-1.08-0.39-1.79c0-0.71,0.13-1.32,0.4-1.84c0.27-0.52,0.64-0.96,1.12-1.31c0.48-0.35,1.05-0.62,1.7-0.79
			c0.65-0.17,1.37-0.26,2.14-0.26c0.72,0,1.39,0.08,2.02,0.25c0.63,0.17,1.18,0.41,1.67,0.74c0.49,0.33,0.89,0.73,1.21,1.21
			c0.32,0.48,0.54,1.03,0.66,1.64l-3.04,0.66c-0.11-0.64-0.38-1.15-0.82-1.52c-0.44-0.37-1.03-0.56-1.78-0.56
			c-0.76,0-1.32,0.14-1.69,0.42C130.76,254.78,130.58,255.16,130.58,255.62z"/>
		<path class="st9" d="M148.86,266.22c-1.95,0-3.37-0.48-4.26-1.44c-0.89-0.96-1.34-2.29-1.34-4v-8.84h3v8.86
			c0,0.85,0.21,1.56,0.64,2.11c0.43,0.55,1.08,0.83,1.96,0.83s1.53-0.28,1.96-0.83c0.43-0.55,0.64-1.26,0.64-2.11v-8.86h3v8.84
			c0,1.71-0.45,3.04-1.34,4S150.81,266.22,148.86,266.22z"/>
		<path class="st9" d="M162.64,261.02v4.92h-2.98v-14h5.32c0.84,0,1.6,0.09,2.28,0.26c0.68,0.17,1.26,0.44,1.74,0.8
			c0.48,0.36,0.85,0.82,1.12,1.38c0.27,0.56,0.4,1.23,0.4,2.02c0,0.8-0.14,1.49-0.41,2.07c-0.27,0.58-0.65,1.06-1.14,1.44
			s-1.07,0.66-1.75,0.84c-0.68,0.18-1.43,0.27-2.24,0.27H162.64z M167.46,256.4c0-0.76-0.23-1.28-0.69-1.56
			c-0.46-0.28-1.16-0.42-2.09-0.42h-2.04v4.12h2.04c0.93,0,1.63-0.17,2.09-0.5C167.23,257.71,167.46,257.16,167.46,256.4z"/>
		<path class="st9" d="M177.9,261.02v4.92h-2.98v-14h5.32c0.84,0,1.6,0.09,2.28,0.26c0.68,0.17,1.26,0.44,1.74,0.8
			c0.48,0.36,0.85,0.82,1.12,1.38c0.27,0.56,0.4,1.23,0.4,2.02c0,0.8-0.14,1.49-0.41,2.07s-0.65,1.06-1.14,1.44
			c-0.49,0.38-1.07,0.66-1.75,0.84c-0.68,0.18-1.43,0.27-2.24,0.27H177.9z M182.72,256.4c0-0.76-0.23-1.28-0.69-1.56
			c-0.46-0.28-1.16-0.42-2.09-0.42h-2.04v4.12h2.04c0.93,0,1.63-0.17,2.09-0.5C182.49,257.71,182.72,257.16,182.72,256.4z"/>
		<path class="st9" d="M189.6,258.94c0-1.13,0.16-2.15,0.49-3.05c0.33-0.9,0.79-1.66,1.38-2.29c0.59-0.63,1.31-1.11,2.15-1.44
			c0.84-0.33,1.77-0.5,2.8-0.5c1.03,0,1.96,0.17,2.8,0.5c0.84,0.33,1.56,0.81,2.15,1.44c0.59,0.63,1.05,1.39,1.38,2.29
			c0.33,0.9,0.49,1.92,0.49,3.05c0,1.13-0.16,2.15-0.49,3.05c-0.33,0.9-0.79,1.66-1.38,2.29c-0.59,0.63-1.31,1.11-2.15,1.44
			c-0.84,0.33-1.77,0.5-2.8,0.5c-1.03,0-1.96-0.17-2.8-0.5s-1.56-0.81-2.15-1.44c-0.59-0.63-1.05-1.39-1.38-2.29
			C189.76,261.09,189.6,260.08,189.6,258.94z M192.7,258.94c0,0.71,0.08,1.36,0.23,1.95c0.15,0.59,0.38,1.1,0.69,1.52
			s0.69,0.75,1.16,0.98s1.01,0.35,1.64,0.35s1.17-0.12,1.64-0.35c0.47-0.23,0.85-0.56,1.16-0.98c0.31-0.42,0.54-0.93,0.69-1.52
			c0.15-0.59,0.23-1.24,0.23-1.95s-0.08-1.36-0.23-1.95c-0.15-0.59-0.38-1.1-0.69-1.52c-0.31-0.42-0.69-0.75-1.16-0.98
			c-0.47-0.23-1.01-0.35-1.64-0.35s-1.17,0.12-1.64,0.35s-0.85,0.56-1.16,0.98s-0.54,0.93-0.69,1.52
			C192.78,257.59,192.7,258.24,192.7,258.94z"/>
		<path class="st9" d="M218.42,256.2c0,1.04-0.24,1.89-0.71,2.54s-1.12,1.14-1.95,1.46l3.22,5.74h-3.3l-2.9-5.3h-1.86v5.3h-2.98v-14
			h5.12c0.81,0,1.55,0.08,2.21,0.25c0.66,0.17,1.22,0.42,1.69,0.77c0.47,0.35,0.83,0.79,1.08,1.32
			C218.29,254.82,218.42,255.46,218.42,256.2z M215.34,256.22c0-0.68-0.22-1.15-0.65-1.41c-0.43-0.26-1.09-0.39-1.97-0.39h-1.8v3.78
			h1.8c0.88,0,1.54-0.15,1.97-0.45C215.12,257.45,215.34,256.94,215.34,256.22z"/>
		<path class="st9" d="M222.1,251.94h11.1v2.5h-4.04v11.5h-3.02v-11.5h-4.04V251.94z"/>
	</g>
</g>
<g id="ICON">
	<path class="st9" d="M155.13,189.38c0,0.98,0.01,1.75,0,2.53c-0.02,1.8-1.08,2.84-2.88,2.84c-10.43,0.01-20.86,0.01-31.28,0.01
		c-1.96,0-3-1.05-3-3.03c0-17.46,0-34.92,0.01-52.37c0-1.93,1.04-2.98,2.97-2.98c10.4,0,20.81-0.01,31.21-0.01
		c1.93,0,2.98,1.04,2.99,2.96c0,0.75,0,1.5,0,2.31c2.12,0.06,4.07-0.36,5.8-1.44c0.97-0.6,1.79-1.43,2.66-2.18
		c1.44-1.25,2.86-2.52,4.3-3.78c4.47-3.92,8.38-8.31,11.05-13.67c0.9-1.81,1.61-3.72,2.3-5.62c0.29-0.8,0.38-1.71,0.39-2.57
		c0.04-3.92-0.01-7.83,0.05-11.75c0.01-0.69,0.25-1.46,0.62-2.04c3.7-5.61,11.48-6.31,16.44-1.53c2.41,2.32,3.78,5.2,4.6,8.38
		c1.11,4.27,1.11,8.6,0.61,12.93c-0.26,2.24-0.73,4.46-1.1,6.7c-0.03,0.18-0.05,0.36-0.08,0.65c0.66,0,1.27,0,1.87,0
		c8.3,0.01,16.61-0.02,24.91,0.05c1.61,0.01,3.26,0.22,4.82,0.62c4.13,1.08,6.54,3.84,7.31,8.02c0.44,2.41,0.5,4.85-0.14,7.23
		c-0.29,1.09-0.92,2.1-1.46,3.1c-0.17,0.32-0.3,0.51-0.09,0.86c2.58,4.3,2.18,10.89-1.69,15.09c-0.17,0.18-0.21,0.6-0.14,0.87
		c1.06,4.32,0.61,8.43-1.73,12.26c-0.9,1.47-2.13,2.63-3.54,3.61c-0.22,0.16-0.44,0.5-0.44,0.76c0.1,8.22-5.31,14.82-13.51,16.18
		c-2.26,0.38-4.6,0.34-6.91,0.35c-13.35,0.03-26.71,0.01-40.06,0.02c-3.05,0-5.68-0.98-7.89-3.09c-1.1-1.05-2.42-1.79-3.92-1.99
		C158.56,189.47,156.91,189.48,155.13,189.38z M227.14,178.84c-0.43,0-0.75,0-1.08,0c-4.11,0-8.21,0.01-12.32,0
		c-2.15-0.01-3.46-1.9-2.61-3.76c0.51-1.11,1.44-1.56,2.63-1.56c4.72,0,9.44-0.03,14.16,0.02c1.11,0.01,1.99-0.34,2.75-1.05
		c0.53-0.49,1.02-1.06,1.4-1.67c1.37-2.27,1.56-4.75,1.11-7.31c-0.09-0.51-0.35-0.61-0.83-0.61c-4.55,0.02-9.11,0.01-13.66,0.01
		c-1.75,0-3.49,0.03-5.24-0.01c-1.83-0.04-3.02-1.85-2.39-3.56c0.41-1.11,1.37-1.73,2.73-1.73c6.44,0,12.88,0,19.32,0.02
		c0.61,0,1.02-0.19,1.39-0.65c0.85-1.02,1.41-2.17,1.64-3.48c0.37-2.05,0.19-4-1.11-5.72c-0.4-0.54-0.89-0.82-1.62-0.81
		c-2.24,0.05-4.48,0.02-6.72,0.02c-4.34,0-8.68,0.01-13.02,0c-2.07-0.01-3.38-1.96-2.53-3.77c0.53-1.12,1.48-1.57,2.7-1.57
		c6.91,0.01,13.83,0.01,20.74,0.01c1.4,0,1.77-0.21,1.9-1.61c0.14-1.47,0.17-2.98-0.01-4.43c-0.31-2.5-1.61-3.77-4.08-4.19
		c-1.18-0.2-2.39-0.35-3.58-0.36c-4.46-0.04-8.92-0.02-13.38-0.03c-5.33,0-10.66,0-16-0.01c-1.37,0-2.47-0.75-2.68-1.96
		c-0.11-0.62-0.02-1.32,0.14-1.94c0.91-3.57,1.69-7.16,1.97-10.84c0.25-3.43,0.21-6.84-0.78-10.17c-0.66-2.21-1.66-4.22-3.55-5.66
		c-2.28-1.74-5.05-1.66-7,0.13c-0.39,0.36-0.58,0.74-0.57,1.29c0.02,3.54,0.02,7.08,0.01,10.62c0,0.7-0.02,1.42-0.15,2.11
		c-0.53,2.83-1.64,5.46-2.91,8.02c-3.11,6.27-7.62,11.43-12.89,15.97c-1.14,0.99-2.39,1.87-3.4,2.98c-2.91,3.19-6.5,4.92-10.76,5.34
		c-0.55,0.05-1.11,0.08-1.68,0.11c0,12.38,0,24.7,0,37.11c1.16,0,2.27-0.02,3.37,0c3.43,0.08,6.5,1.2,9.02,3.53
		c1.38,1.28,2.92,1.79,4.75,1.79c10.38-0.01,20.76,0,31.14,0c4.11,0,8.21,0.04,12.31-0.03c3.43-0.06,6.5-1.09,8.82-3.8
		C226.23,183.72,227.1,181.51,227.14,178.84z M149.78,141.71c-8.83,0-17.62,0-26.45,0c0,15.93,0,31.82,0,47.69
		c8.85,0,17.64,0,26.45,0C149.78,173.48,149.78,157.61,149.78,141.71z"/>
</g>
</svg>
