<?xml version="1.0" encoding="utf-8"?>
<!-- Generator: Adobe Illustrator 23.1.0, SVG Export Plug-In . SVG Version: 6.00 Build 0)  -->
<svg version="1.1" xmlns="http://www.w3.org/2000/svg" xmlns:xlink="http://www.w3.org/1999/xlink" x="0px" y="0px"
	 viewBox="0 0 360 360" style="enable-background:new 0 0 360 360;" xml:space="preserve">
<style type="text/css">
	.st0{fill:#FFFFFF;}
	.st1{fill:#0E6E39;}
	.st2{fill:#0C6E39;}
	.st3{fill:#4F497B;}
	.st4{fill:#216885;}
	.st5{fill:#F0492D;}
	.st6{fill:#EF3F25;}
	.st7{fill:#236886;}
	.st8{fill:#256887;}
	.st9{fill:#D2BF2D;}
	.st10{display:none;}
	.st11{display:inline;fill:none;stroke:#000000;stroke-width:0.25;stroke-miterlimit:10;}
	.st12{display:inline;fill:none;stroke:#FFFFFF;stroke-width:0.25;stroke-miterlimit:10;}
	.st13{display:inline;fill:none;stroke:#FFFFFF;stroke-width:0.25;stroke-linecap:round;stroke-miterlimit:10;}
	.st14{display:inline;fill:none;stroke:#000000;stroke-width:0.25;stroke-linecap:round;stroke-miterlimit:10;}
	.st15{fill:#4F4A7C;}
	.st16{fill:none;stroke:#FFFFFF;stroke-miterlimit:10;}
	.st17{stroke:#FFFFFF;stroke-miterlimit:10;}
	.st18{fill:none;stroke:#FFFFFF;stroke-width:3;stroke-miterlimit:10;}
	.st19{fill:none;stroke:#FFFFFF;stroke-linecap:round;stroke-miterlimit:10;}
	.st20{fill:none;stroke:#236886;stroke-width:5;stroke-miterlimit:10;}
	.st21{fill:none;stroke:#236886;stroke-width:5;stroke-linecap:round;stroke-miterlimit:10;}
	.st22{fill:none;stroke:#FFFFFF;stroke-width:5;stroke-miterlimit:10;}
	.st23{fill:none;stroke:#FFFFFF;stroke-width:5;stroke-linecap:round;stroke-miterlimit:10;}
	.st24{fill:none;stroke:#4F497B;stroke-width:3;stroke-miterlimit:10;}
	.st25{fill:none;stroke:#4F497B;stroke-miterlimit:10;}
	.st26{fill:#FFFFFF;stroke:#4F497B;stroke-miterlimit:10;}
	.st27{fill:#FFFFFF;stroke:#4F497B;stroke-width:2;stroke-miterlimit:10;}
	.st28{fill:none;stroke:#4F497B;stroke-width:2;stroke-linecap:round;stroke-miterlimit:10;}
	.st29{stroke:#FFFFFF;stroke-width:2;stroke-miterlimit:10;}
	.st30{fill:none;stroke:#FFFFFF;stroke-width:2;stroke-linecap:round;stroke-miterlimit:10;}
	.st31{fill:none;stroke:#0C6E39;stroke-width:3;stroke-miterlimit:10;}
	.st32{fill:none;stroke:#EF3F25;stroke-miterlimit:10;}
	.st33{fill:none;stroke:#EF3F25;stroke-width:3;stroke-miterlimit:10;}
	.st34{fill:none;stroke:#4F4A7C;stroke-width:3;stroke-miterlimit:10;}
	.st35{fill:none;stroke:#4F4A7C;stroke-width:5;stroke-linecap:round;stroke-miterlimit:10;}
	.st36{fill:none;stroke:#EF3F25;stroke-width:3;stroke-linecap:round;stroke-miterlimit:10;}
	.st37{fill:none;stroke:#EF3F25;stroke-width:5;stroke-linecap:round;stroke-miterlimit:10;}
	.st38{fill:none;stroke:#FFFFFF;stroke-width:3;stroke-linecap:round;stroke-miterlimit:10;}
	.st39{fill:none;stroke:#4F497B;stroke-width:5;stroke-linecap:round;stroke-miterlimit:10;}
	.st40{fill:#FFFFFF;stroke:#0E6E39;stroke-width:3;stroke-linejoin:round;stroke-miterlimit:10;}
	.st41{fill:none;stroke:#0E6E39;stroke-width:3;stroke-linejoin:round;stroke-miterlimit:10;}
	.st42{stroke:#FFFFFF;stroke-width:3;stroke-linejoin:round;stroke-miterlimit:10;}
	.st43{fill:none;stroke:#FFFFFF;stroke-width:3;stroke-linejoin:round;stroke-miterlimit:10;}
	.st44{fill:none;stroke:#0C6E39;stroke-width:5;stroke-linecap:round;stroke-miterlimit:10;}
	.st45{fill:none;stroke:#0C6E39;stroke-width:3;stroke-linecap:round;stroke-miterlimit:10;}
	.st46{fill:none;stroke:#0C6E39;stroke-linecap:round;stroke-linejoin:round;stroke-miterlimit:10;}
	.st47{fill:#0C6E39;stroke:#0C6E39;stroke-width:0;stroke-miterlimit:10;}
	.st48{fill:none;stroke:#0C6E39;stroke-width:3;stroke-linecap:round;stroke-linejoin:round;stroke-miterlimit:10;}
	.st49{fill:none;stroke:#0C6E39;stroke-linecap:round;stroke-miterlimit:10;}
	.st50{fill:none;stroke:#FFFFFF;stroke-linecap:round;stroke-linejoin:round;stroke-miterlimit:10;}
	.st51{fill:none;stroke:#FFFFFF;stroke-width:3;stroke-linecap:round;stroke-linejoin:round;stroke-miterlimit:10;}
	.st52{fill:none;stroke:#4F4A7C;stroke-miterlimit:10;}
	.st53{fill:#FFFFFF;stroke:#4F4A7C;stroke-width:2;stroke-miterlimit:10;}
	.st54{fill:#FFFFFF;stroke:#4F497B;stroke-width:5;stroke-miterlimit:10;}
	.st55{stroke:#FFFFFF;stroke-width:5;stroke-miterlimit:10;}
	.st56{fill:none;stroke:#EF3F25;stroke-width:2;stroke-linecap:round;stroke-miterlimit:10;}
	.st57{fill:none;stroke:#FFFFFF;stroke-width:1.5;stroke-miterlimit:10;}
	.st58{fill:none;stroke:#FFFFFF;stroke-width:1.5;stroke-linecap:round;stroke-miterlimit:10;}
	.st59{fill:none;stroke:#0E6E39;stroke-width:3;stroke-miterlimit:10;}
	.st60{fill:none;stroke:#0E6E39;stroke-width:1.5;stroke-miterlimit:10;}
	.st61{fill:none;stroke:#0E6E39;stroke-width:1.5;stroke-linecap:round;stroke-miterlimit:10;}
	.st62{fill:none;stroke:#EF3F25;stroke-width:0.7099;stroke-miterlimit:10;}
	.st63{fill:none;stroke:#FFFFFF;stroke-width:0.7099;stroke-miterlimit:10;}
	.st64{fill:#EF4025;}
	.st65{fill:#505050;stroke:#4F4A7C;stroke-width:2.9281;stroke-miterlimit:10;}
	.st66{fill:#FFFFFF;stroke:#FFFFFF;stroke-width:2.9281;stroke-miterlimit:10;}
	.st67{fill:none;stroke:#FFFFFF;stroke-width:3.2577;stroke-miterlimit:10;}
	.st68{fill:none;stroke:#FFFFFF;stroke-width:3.2577;stroke-linecap:round;stroke-linejoin:round;stroke-miterlimit:10;}
	.st69{fill:none;stroke:#256887;stroke-width:3.2577;stroke-miterlimit:10;}
	.st70{fill:none;stroke:#256887;stroke-width:3.2577;stroke-linecap:round;stroke-linejoin:round;stroke-miterlimit:10;}
	.st71{fill:#FFFFFF;stroke:#FFFFFF;stroke-width:2;stroke-miterlimit:10;}
	.st72{fill:#D2BF2D;stroke:#D2BF2D;stroke-width:2;stroke-miterlimit:10;}
	.st73{fill:#086E38;}
	.st74{fill:#256887;stroke:#256887;stroke-width:4;stroke-miterlimit:10;}
	.st75{fill:#FFFFFF;stroke:#FFFFFF;stroke-width:4;stroke-miterlimit:10;}
	.st76{fill:#4F4B7D;}
	.st77{fill:#256887;stroke:#256887;stroke-width:2.8997;stroke-miterlimit:10;}
	.st78{fill:#FFFFFF;stroke:#FFFFFF;stroke-width:2.8997;stroke-miterlimit:10;}
	.st79{fill:none;stroke:#FFFFFF;stroke-width:2.2399;stroke-miterlimit:10;}
	.st80{fill:none;stroke:#FFFFFF;stroke-width:2;stroke-miterlimit:10;}
	.st81{fill:none;stroke:#FFFFFF;stroke-width:1.4254;stroke-miterlimit:10;}
	.st82{fill:none;stroke:#EF4025;stroke-width:2.2399;stroke-miterlimit:10;}
	.st83{fill:none;stroke:#EF4025;stroke-width:2;stroke-miterlimit:10;}
	.st84{fill:none;stroke:#EF4025;stroke-width:1.4254;stroke-miterlimit:10;}
	.st85{fill:none;stroke:#4F497B;stroke-linecap:round;stroke-miterlimit:10;}
</style>
<g id="White">
	<rect x="0" class="st0" width="360.29" height="360.29"/>
</g>
<g id="BACKGROUND">
	<rect y="336.06" class="st2" width="360" height="23.94"/>
	<g>
		<path class="st0" d="M250.45,352.49v-8.4h5.72v1.49h-3.95v1.85h3.67v1.49h-3.67V351h4.01v1.49H250.45z"/>
		<path class="st0" d="M259.01,344.09h1.87c0.49,0.79,0.95,1.54,1.39,2.26c0.26,0.42,0.48,0.77,0.65,1.05
			c0.17,0.28,0.34,0.55,0.5,0.82c0.17,0.27,0.33,0.53,0.48,0.77c0.15,0.24,0.28,0.45,0.38,0.62h0.04v-5.52h1.7v8.4h-1.87
			c-0.48-0.78-0.94-1.52-1.37-2.22c-0.26-0.42-0.47-0.76-0.64-1.04c-0.17-0.28-0.34-0.55-0.51-0.83s-0.33-0.54-0.49-0.79
			s-0.29-0.47-0.4-0.64h-0.04v5.52h-1.7V344.09z"/>
		<path class="st0" d="M270.44,344.09c0.3,0.84,0.58,1.65,0.84,2.44c0.16,0.46,0.29,0.84,0.4,1.15c0.1,0.31,0.21,0.63,0.31,0.94
			c0.1,0.32,0.2,0.62,0.3,0.92c0.1,0.3,0.18,0.56,0.25,0.79h0.02c0.07-0.23,0.16-0.5,0.25-0.8c0.1-0.3,0.2-0.62,0.31-0.95
			c0.11-0.34,0.22-0.68,0.34-1.03c0.12-0.35,0.24-0.69,0.35-1.02c0.26-0.78,0.54-1.6,0.84-2.44h1.85l-3.1,8.4h-1.84l-3.06-8.4
			H270.44z"/>
		<path class="st0" d="M278.97,344.09h1.8v8.4h-1.8V344.09z"/>
		<path class="st0" d="M290.23,346.64c0,0.62-0.14,1.13-0.43,1.52c-0.28,0.39-0.67,0.68-1.17,0.88l1.93,3.44h-1.98l-1.74-3.18h-1.12
			v3.18h-1.79v-8.4h3.07c0.49,0,0.93,0.05,1.33,0.15c0.4,0.1,0.73,0.25,1.01,0.46c0.28,0.21,0.5,0.47,0.65,0.79
			C290.15,345.81,290.23,346.2,290.23,346.64z M288.38,346.66c0-0.41-0.13-0.69-0.39-0.85c-0.26-0.16-0.65-0.23-1.18-0.23h-1.08
			v2.27h1.08c0.53,0,0.92-0.09,1.18-0.27S288.38,347.09,288.38,346.66z"/>
		<path class="st0" d="M292.9,348.29c0-0.68,0.1-1.29,0.29-1.83c0.2-0.54,0.47-1,0.83-1.37c0.36-0.38,0.79-0.66,1.29-0.86
			c0.5-0.2,1.06-0.3,1.68-0.3c0.62,0,1.18,0.1,1.68,0.3c0.5,0.2,0.93,0.49,1.29,0.86c0.36,0.38,0.63,0.83,0.83,1.37
			c0.2,0.54,0.29,1.15,0.29,1.83c0,0.68-0.1,1.29-0.29,1.83c-0.2,0.54-0.47,1-0.83,1.37c-0.36,0.38-0.79,0.66-1.29,0.86
			s-1.06,0.3-1.68,0.3c-0.62,0-1.18-0.1-1.68-0.3s-0.93-0.49-1.29-0.86c-0.36-0.38-0.63-0.83-0.83-1.37
			C293,349.58,292.9,348.97,292.9,348.29z M294.76,348.29c0,0.42,0.05,0.81,0.14,1.17c0.09,0.36,0.23,0.66,0.41,0.91
			c0.18,0.25,0.42,0.45,0.7,0.59c0.28,0.14,0.61,0.21,0.98,0.21c0.38,0,0.7-0.07,0.98-0.21c0.28-0.14,0.51-0.34,0.7-0.59
			c0.18-0.25,0.32-0.56,0.41-0.91c0.09-0.36,0.14-0.75,0.14-1.17c0-0.42-0.05-0.81-0.14-1.17c-0.09-0.36-0.23-0.66-0.41-0.91
			c-0.18-0.25-0.42-0.45-0.7-0.59c-0.28-0.14-0.61-0.21-0.98-0.21c-0.38,0-0.7,0.07-0.98,0.21c-0.28,0.14-0.51,0.34-0.7,0.59
			c-0.18,0.25-0.32,0.56-0.41,0.91C294.81,347.47,294.76,347.86,294.76,348.29z"/>
		<path class="st0" d="M303.91,344.09h1.87c0.49,0.79,0.95,1.54,1.39,2.26c0.26,0.42,0.48,0.77,0.65,1.05
			c0.17,0.28,0.34,0.55,0.5,0.82c0.17,0.27,0.33,0.53,0.48,0.77c0.15,0.24,0.28,0.45,0.38,0.62h0.04v-5.52h1.7v8.4h-1.87
			c-0.48-0.78-0.94-1.52-1.37-2.22c-0.26-0.42-0.47-0.76-0.64-1.04c-0.17-0.28-0.34-0.55-0.51-0.83s-0.33-0.54-0.49-0.79
			s-0.29-0.47-0.4-0.64h-0.04v5.52h-1.7V344.09z"/>
		<path class="st0" d="M317.79,352.49c-0.12-0.33-0.27-0.76-0.45-1.29c-0.18-0.53-0.37-1.09-0.56-1.66
			c-0.19-0.58-0.38-1.14-0.56-1.69c-0.18-0.55-0.33-1.02-0.44-1.39h-0.04v6.04h-1.66v-8.4h2.52c0.34,1.02,0.66,1.96,0.94,2.82
			c0.17,0.51,0.31,0.93,0.41,1.24c0.11,0.32,0.21,0.62,0.3,0.91s0.18,0.55,0.25,0.78c0.08,0.23,0.13,0.4,0.16,0.5
			c0.03-0.1,0.08-0.27,0.16-0.5c0.07-0.23,0.16-0.51,0.26-0.82c0.1-0.32,0.21-0.66,0.32-1.02c0.12-0.36,0.23-0.73,0.35-1.09
			c0.27-0.86,0.57-1.8,0.9-2.82h2.51v8.4h-1.66v-6.04h-0.04c-0.08,0.25-0.18,0.55-0.29,0.89c-0.11,0.35-0.23,0.72-0.37,1.11
			c-0.13,0.39-0.27,0.79-0.4,1.19c-0.14,0.4-0.26,0.79-0.38,1.15c-0.12,0.36-0.23,0.69-0.33,0.99c-0.1,0.3-0.18,0.53-0.25,0.7
			H317.79z"/>
		<path class="st0" d="M326.35,352.49v-8.4h5.72v1.49h-3.95v1.85h3.67v1.49h-3.67V351h4.01v1.49H326.35z"/>
		<path class="st0" d="M334.91,344.09h1.87c0.49,0.79,0.95,1.54,1.39,2.26c0.26,0.42,0.48,0.77,0.65,1.05
			c0.17,0.28,0.34,0.55,0.5,0.82c0.17,0.27,0.33,0.53,0.48,0.77c0.15,0.24,0.28,0.45,0.38,0.62h0.04v-5.52h1.7v8.4h-1.87
			c-0.48-0.78-0.94-1.52-1.37-2.22c-0.26-0.42-0.47-0.76-0.64-1.04c-0.17-0.28-0.34-0.55-0.51-0.83s-0.33-0.54-0.49-0.79
			s-0.29-0.47-0.4-0.64h-0.04v5.52h-1.7V344.09z"/>
		<path class="st0" d="M344.47,344.09h6.66v1.5h-2.42v6.9h-1.81v-6.9h-2.42V344.09z"/>
	</g>
</g>
<g id="REF" class="st10">
	<rect x="11" y="90.33" class="st11" width="360" height="108"/>
	<line class="st14" x1="191" y1="0.19" x2="191" y2="360.06"/>
</g>
<g id="LINE_ONE">
	<g>
		<path class="st2" d="M126.24,234.16h11.1v2.5h-4.04v11.5h-3.02v-11.5h-4.04V234.16z"/>
		<path class="st2" d="M141.56,234.16h3v5.54h5.3v-5.54h3v14h-3v-5.94h-5.3v5.94h-3V234.16z"/>
		<path class="st2" d="M158.14,248.16v-14h9.54v2.48h-6.58v3.08h6.12v2.48h-6.12v3.48h6.68v2.48H158.14z"/>
		<path class="st2" d="M182.9,238.42c0,1.04-0.24,1.89-0.71,2.54c-0.47,0.65-1.12,1.14-1.95,1.46l3.22,5.74h-3.3l-2.9-5.3h-1.86v5.3
			h-2.98v-14h5.12c0.81,0,1.55,0.08,2.21,0.25s1.22,0.42,1.69,0.77c0.47,0.35,0.83,0.79,1.08,1.32
			C182.77,237.03,182.9,237.67,182.9,238.42z M179.82,238.44c0-0.68-0.22-1.15-0.65-1.41c-0.43-0.26-1.09-0.39-1.97-0.39h-1.8v3.78
			h1.8c0.88,0,1.54-0.15,1.97-0.45C179.61,239.67,179.82,239.16,179.82,238.44z"/>
		<path class="st2" d="M194.1,248.16c-0.2-0.55-0.45-1.26-0.75-2.15c-0.3-0.89-0.61-1.81-0.93-2.77s-0.63-1.9-0.93-2.82
			c-0.3-0.92-0.54-1.69-0.73-2.32h-0.06v10.06h-2.76v-14h4.2c0.57,1.71,1.09,3.27,1.56,4.7c0.28,0.85,0.51,1.54,0.69,2.07
			c0.18,0.53,0.35,1.03,0.5,1.51c0.15,0.48,0.29,0.91,0.42,1.3s0.22,0.67,0.27,0.84c0.05-0.17,0.14-0.45,0.26-0.84
			c0.12-0.39,0.26-0.84,0.43-1.37c0.17-0.53,0.35-1.09,0.54-1.7c0.19-0.61,0.39-1.21,0.59-1.81c0.45-1.43,0.95-2.99,1.5-4.7h4.18v14
			h-2.76V238.1h-0.06c-0.13,0.41-0.29,0.91-0.48,1.49c-0.19,0.58-0.39,1.2-0.61,1.85c-0.22,0.65-0.44,1.32-0.67,1.99
			c-0.23,0.67-0.44,1.31-0.64,1.92c-0.2,0.61-0.38,1.16-0.55,1.65s-0.3,0.88-0.41,1.16H194.1z"/>
		<path class="st2" d="M220.52,248.16h-3.1l-1.12-3.24h-5.02l-1.12,3.24h-2.94l5.04-14h3.22L220.52,248.16z M213.76,237.44
			c-0.03,0.11-0.07,0.26-0.14,0.47c-0.07,0.21-0.14,0.44-0.22,0.7s-0.17,0.54-0.27,0.84s-0.2,0.59-0.29,0.87
			c-0.23,0.69-0.47,1.43-0.74,2.22h3.38c-0.27-0.79-0.51-1.53-0.74-2.22c-0.15-0.4-0.26-0.73-0.35-0.99
			c-0.09-0.26-0.17-0.51-0.24-0.75c-0.07-0.24-0.14-0.46-0.21-0.67c-0.07-0.21-0.11-0.36-0.14-0.47H213.76z"/>
		<path class="st2" d="M224.66,234.16h3v11.5h6.12v2.5h-9.12V234.16z"/>
	</g>
</g>
<g id="LINE_TWO">
	<g>
		<path class="st2" d="M124.02,258.95c0-1.15,0.16-2.17,0.48-3.07c0.32-0.9,0.78-1.66,1.37-2.29c0.59-0.63,1.31-1.1,2.16-1.43
			c0.85-0.33,1.8-0.49,2.85-0.49c1.49,0,2.75,0.33,3.76,0.98c1.01,0.65,1.73,1.65,2.16,2.98l-2.92,1.02
			c-0.24-0.79-0.6-1.4-1.08-1.83c-0.48-0.43-1.14-0.65-1.98-0.65c-0.61,0-1.15,0.12-1.62,0.36s-0.85,0.57-1.16,0.99
			c-0.31,0.42-0.54,0.92-0.69,1.51c-0.15,0.59-0.23,1.23-0.23,1.92s0.08,1.33,0.23,1.91c0.15,0.58,0.38,1.08,0.69,1.51
			c0.31,0.43,0.69,0.76,1.16,1s1.01,0.36,1.64,0.36c0.77,0,1.4-0.19,1.89-0.58c0.49-0.39,0.86-0.97,1.11-1.76l2.88,1.02
			c-0.47,1.19-1.19,2.12-2.16,2.8c-0.97,0.68-2.23,1.02-3.76,1.02c-1.03,0-1.96-0.16-2.79-0.49c-0.83-0.33-1.55-0.8-2.14-1.42
			s-1.05-1.38-1.37-2.29C124.18,261.12,124.02,260.09,124.02,258.95z"/>
		<path class="st2" d="M140.62,258.95c0-1.13,0.16-2.15,0.49-3.05c0.33-0.9,0.79-1.66,1.38-2.29c0.59-0.63,1.31-1.11,2.15-1.44
			c0.84-0.33,1.77-0.5,2.8-0.5c1.03,0,1.96,0.17,2.8,0.5c0.84,0.33,1.56,0.81,2.15,1.44s1.05,1.39,1.38,2.29
			c0.33,0.9,0.49,1.92,0.49,3.05c0,1.13-0.16,2.15-0.49,3.05c-0.33,0.9-0.79,1.66-1.38,2.29c-0.59,0.63-1.31,1.11-2.15,1.44
			s-1.77,0.5-2.8,0.5c-1.03,0-1.96-0.17-2.8-0.5s-1.56-0.81-2.15-1.44c-0.59-0.63-1.05-1.39-1.38-2.29
			C140.78,261.1,140.62,260.08,140.62,258.95z M143.72,258.95c0,0.71,0.08,1.36,0.23,1.95c0.15,0.59,0.38,1.1,0.69,1.52
			s0.69,0.75,1.16,0.98s1.01,0.35,1.64,0.35c0.63,0,1.17-0.12,1.64-0.35s0.85-0.56,1.16-0.98s0.54-0.93,0.69-1.52
			c0.15-0.59,0.23-1.24,0.23-1.95s-0.08-1.36-0.23-1.95c-0.15-0.59-0.38-1.1-0.69-1.52s-0.69-0.75-1.16-0.98s-1.01-0.35-1.64-0.35
			c-0.63,0-1.17,0.12-1.64,0.35s-0.85,0.56-1.16,0.98s-0.54,0.93-0.69,1.52C143.8,257.59,143.72,258.24,143.72,258.95z"/>
		<path class="st2" d="M165.12,265.95c-0.2-0.55-0.45-1.26-0.75-2.15c-0.3-0.89-0.61-1.81-0.93-2.77c-0.32-0.96-0.63-1.9-0.93-2.82
			s-0.54-1.69-0.73-2.32h-0.06v10.06h-2.76v-14h4.2c0.57,1.71,1.09,3.27,1.56,4.7c0.28,0.85,0.51,1.54,0.69,2.07
			c0.18,0.53,0.35,1.03,0.5,1.51c0.15,0.48,0.29,0.91,0.42,1.3s0.22,0.67,0.27,0.84c0.05-0.17,0.14-0.45,0.26-0.84
			s0.26-0.84,0.43-1.37c0.17-0.53,0.35-1.09,0.54-1.7c0.19-0.61,0.39-1.21,0.59-1.81c0.45-1.43,0.95-2.99,1.5-4.7h4.18v14h-2.76
			v-10.06h-0.06c-0.13,0.41-0.29,0.91-0.48,1.49c-0.19,0.58-0.39,1.2-0.61,1.85s-0.44,1.32-0.67,1.99
			c-0.23,0.67-0.44,1.31-0.64,1.92c-0.2,0.61-0.38,1.16-0.55,1.65c-0.17,0.49-0.3,0.88-0.41,1.16H165.12z"/>
		<path class="st2" d="M179.38,265.95v-14h9.58v2.48h-6.62v3.08h6.1v2.48h-6.1v5.96H179.38z"/>
		<path class="st2" d="M192.86,258.95c0-1.13,0.16-2.15,0.49-3.05c0.33-0.9,0.79-1.66,1.38-2.29c0.59-0.63,1.31-1.11,2.15-1.44
			c0.84-0.33,1.77-0.5,2.8-0.5s1.96,0.17,2.8,0.5c0.84,0.33,1.55,0.81,2.15,1.44s1.05,1.39,1.38,2.29c0.33,0.9,0.49,1.92,0.49,3.05
			c0,1.13-0.16,2.15-0.49,3.05c-0.33,0.9-0.79,1.66-1.38,2.29c-0.59,0.63-1.31,1.11-2.15,1.44c-0.84,0.33-1.77,0.5-2.8,0.5
			s-1.96-0.17-2.8-0.5s-1.56-0.81-2.15-1.44c-0.59-0.63-1.05-1.39-1.38-2.29C193.02,261.1,192.86,260.08,192.86,258.95z
			 M195.96,258.95c0,0.71,0.08,1.36,0.23,1.95c0.15,0.59,0.38,1.1,0.69,1.52s0.69,0.75,1.16,0.98s1.01,0.35,1.64,0.35
			s1.17-0.12,1.64-0.35c0.46-0.23,0.85-0.56,1.16-0.98c0.3-0.42,0.54-0.93,0.69-1.52c0.15-0.59,0.23-1.24,0.23-1.95
			s-0.08-1.36-0.23-1.95c-0.15-0.59-0.38-1.1-0.69-1.52c-0.31-0.42-0.7-0.75-1.16-0.98c-0.47-0.23-1.01-0.35-1.64-0.35
			s-1.17,0.12-1.64,0.35s-0.85,0.56-1.16,0.98s-0.54,0.93-0.69,1.52C196.04,257.59,195.96,258.24,195.96,258.95z"/>
		<path class="st2" d="M221.68,256.21c0,1.04-0.24,1.89-0.71,2.54c-0.47,0.65-1.12,1.14-1.95,1.46l3.22,5.74h-3.3l-2.9-5.3h-1.86
			v5.3h-2.98v-14h5.12c0.81,0,1.55,0.08,2.21,0.25s1.22,0.42,1.69,0.77c0.47,0.35,0.83,0.79,1.08,1.32S221.68,255.46,221.68,256.21z
			 M218.6,256.23c0-0.68-0.22-1.15-0.65-1.41s-1.09-0.39-1.97-0.39h-1.8v3.78h1.8c0.88,0,1.54-0.15,1.97-0.45
			C218.38,257.46,218.6,256.95,218.6,256.23z"/>
		<path class="st2" d="M225.36,251.95h11.1v2.5h-4.04v11.5h-3.02v-11.5h-4.04V251.95z"/>
	</g>
</g>
<g id="ICON">
	<g>
		<path class="st44" d="M189.94,165.18v-64.89c0-5.5-4.46-9.96-9.96-9.96l0,0c-5.5,0-9.96,4.46-9.96,9.96v64.89
			c-4.89,3.24-8.12,8.78-8.12,15.08c0,9.98,8.09,18.08,18.08,18.08s18.08-8.09,18.08-18.08
			C198.06,173.95,194.83,168.41,189.94,165.18z"/>
		<path class="st2" d="M182.18,172.27v-44.97h-4.39v44.97c-3.51,0.96-6.1,4.17-6.1,7.99c0,4.58,3.71,8.29,8.29,8.29
			s8.29-3.71,8.29-8.29C188.28,176.44,185.69,173.23,182.18,172.27z"/>
		<line class="st45" x1="196.29" y1="102.76" x2="210.59" y2="102.76"/>
		<line class="st45" x1="196.29" y1="159.24" x2="210.59" y2="159.24"/>
		<line class="st45" x1="196.29" y1="140.41" x2="210.59" y2="140.41"/>
		<line class="st45" x1="196.29" y1="149.82" x2="207.94" y2="149.82"/>
		<line class="st45" x1="196.29" y1="131" x2="207.94" y2="131"/>
		<line class="st45" x1="196.29" y1="121.59" x2="210.59" y2="121.59"/>
		<line class="st45" x1="196.29" y1="112.18" x2="207.94" y2="112.18"/>
	</g>
</g>
</svg>
