<?xml version="1.0" encoding="utf-8"?>
<!-- Generator: Adobe Illustrator 23.1.0, SVG Export Plug-In . SVG Version: 6.00 Build 0)  -->
<svg version="1.1" xmlns="http://www.w3.org/2000/svg" xmlns:xlink="http://www.w3.org/1999/xlink" x="0px" y="0px"
	 viewBox="0 0 360.06 360" style="enable-background:new 0 0 360.06 360;" xml:space="preserve">
<style type="text/css">
	.st0{fill:#FFFFFF;}
	.st1{fill:#0E6E39;}
	.st2{fill:#0C6E39;}
	.st3{fill:#4F497B;}
	.st4{fill:#216885;}
	.st5{fill:#F0492D;}
	.st6{fill:#EF3F25;}
	.st7{fill:#236886;}
	.st8{fill:#256887;}
	.st9{fill:#D2BF2D;}
	.st10{display:none;}
	.st11{display:inline;fill:none;stroke:#000000;stroke-width:0.25;stroke-miterlimit:10;}
	.st12{display:inline;fill:none;stroke:#FFFFFF;stroke-width:0.25;stroke-miterlimit:10;}
	.st13{display:inline;fill:none;stroke:#FFFFFF;stroke-width:0.25;stroke-linecap:round;stroke-miterlimit:10;}
	.st14{display:inline;fill:none;stroke:#000000;stroke-width:0.25;stroke-linecap:round;stroke-miterlimit:10;}
	.st15{fill:#4F4A7C;}
	.st16{fill:none;stroke:#FFFFFF;stroke-miterlimit:10;}
	.st17{stroke:#FFFFFF;stroke-miterlimit:10;}
	.st18{fill:none;stroke:#FFFFFF;stroke-width:3;stroke-miterlimit:10;}
	.st19{fill:none;stroke:#FFFFFF;stroke-linecap:round;stroke-miterlimit:10;}
	.st20{fill:none;stroke:#236886;stroke-width:5;stroke-miterlimit:10;}
	.st21{fill:none;stroke:#236886;stroke-width:5;stroke-linecap:round;stroke-miterlimit:10;}
	.st22{fill:none;stroke:#FFFFFF;stroke-width:5;stroke-miterlimit:10;}
	.st23{fill:none;stroke:#FFFFFF;stroke-width:5;stroke-linecap:round;stroke-miterlimit:10;}
	.st24{fill:none;stroke:#4F497B;stroke-width:3;stroke-miterlimit:10;}
	.st25{fill:none;stroke:#4F497B;stroke-miterlimit:10;}
	.st26{fill:#FFFFFF;stroke:#4F497B;stroke-miterlimit:10;}
	.st27{fill:#FFFFFF;stroke:#4F497B;stroke-width:2;stroke-miterlimit:10;}
	.st28{fill:none;stroke:#4F497B;stroke-width:2;stroke-linecap:round;stroke-miterlimit:10;}
	.st29{stroke:#FFFFFF;stroke-width:2;stroke-miterlimit:10;}
	.st30{fill:none;stroke:#FFFFFF;stroke-width:2;stroke-linecap:round;stroke-miterlimit:10;}
	.st31{fill:none;stroke:#0C6E39;stroke-width:3;stroke-miterlimit:10;}
	.st32{fill:none;stroke:#EF3F25;stroke-miterlimit:10;}
	.st33{fill:none;stroke:#EF3F25;stroke-width:3;stroke-miterlimit:10;}
	.st34{fill:none;stroke:#4F4A7C;stroke-width:3;stroke-miterlimit:10;}
	.st35{fill:none;stroke:#4F4A7C;stroke-width:5;stroke-linecap:round;stroke-miterlimit:10;}
	.st36{fill:none;stroke:#EF3F25;stroke-width:3;stroke-linecap:round;stroke-miterlimit:10;}
	.st37{fill:none;stroke:#EF3F25;stroke-width:5;stroke-linecap:round;stroke-miterlimit:10;}
	.st38{fill:none;stroke:#FFFFFF;stroke-width:3;stroke-linecap:round;stroke-miterlimit:10;}
	.st39{fill:none;stroke:#4F497B;stroke-width:5;stroke-linecap:round;stroke-miterlimit:10;}
	.st40{fill:#FFFFFF;stroke:#0E6E39;stroke-width:3;stroke-linejoin:round;stroke-miterlimit:10;}
	.st41{fill:none;stroke:#0E6E39;stroke-width:3;stroke-linejoin:round;stroke-miterlimit:10;}
	.st42{stroke:#FFFFFF;stroke-width:3;stroke-linejoin:round;stroke-miterlimit:10;}
	.st43{fill:none;stroke:#FFFFFF;stroke-width:3;stroke-linejoin:round;stroke-miterlimit:10;}
	.st44{fill:none;stroke:#0C6E39;stroke-width:5;stroke-linecap:round;stroke-miterlimit:10;}
	.st45{fill:none;stroke:#0C6E39;stroke-width:3;stroke-linecap:round;stroke-miterlimit:10;}
	.st46{fill:none;stroke:#0C6E39;stroke-linecap:round;stroke-linejoin:round;stroke-miterlimit:10;}
	.st47{fill:#0C6E39;stroke:#0C6E39;stroke-width:0;stroke-miterlimit:10;}
	.st48{fill:none;stroke:#0C6E39;stroke-width:3;stroke-linecap:round;stroke-linejoin:round;stroke-miterlimit:10;}
	.st49{fill:none;stroke:#0C6E39;stroke-linecap:round;stroke-miterlimit:10;}
	.st50{fill:none;stroke:#FFFFFF;stroke-linecap:round;stroke-linejoin:round;stroke-miterlimit:10;}
	.st51{fill:none;stroke:#FFFFFF;stroke-width:3;stroke-linecap:round;stroke-linejoin:round;stroke-miterlimit:10;}
	.st52{fill:none;stroke:#4F4A7C;stroke-miterlimit:10;}
	.st53{fill:#FFFFFF;stroke:#4F4A7C;stroke-width:2;stroke-miterlimit:10;}
	.st54{fill:#FFFFFF;stroke:#4F497B;stroke-width:5;stroke-miterlimit:10;}
	.st55{stroke:#FFFFFF;stroke-width:5;stroke-miterlimit:10;}
	.st56{fill:none;stroke:#EF3F25;stroke-width:2;stroke-linecap:round;stroke-miterlimit:10;}
	.st57{fill:none;stroke:#FFFFFF;stroke-width:1.5;stroke-miterlimit:10;}
	.st58{fill:none;stroke:#FFFFFF;stroke-width:1.5;stroke-linecap:round;stroke-miterlimit:10;}
	.st59{fill:none;stroke:#0E6E39;stroke-width:3;stroke-miterlimit:10;}
	.st60{fill:none;stroke:#0E6E39;stroke-width:1.5;stroke-miterlimit:10;}
	.st61{fill:none;stroke:#0E6E39;stroke-width:1.5;stroke-linecap:round;stroke-miterlimit:10;}
	.st62{fill:none;stroke:#EF3F25;stroke-width:0.7099;stroke-miterlimit:10;}
	.st63{fill:none;stroke:#FFFFFF;stroke-width:0.7099;stroke-miterlimit:10;}
	.st64{fill:#EF4025;}
	.st65{fill:#505050;stroke:#4F4A7C;stroke-width:2.9281;stroke-miterlimit:10;}
	.st66{fill:#FFFFFF;stroke:#FFFFFF;stroke-width:2.9281;stroke-miterlimit:10;}
	.st67{fill:none;stroke:#FFFFFF;stroke-width:3.2577;stroke-miterlimit:10;}
	.st68{fill:none;stroke:#FFFFFF;stroke-width:3.2577;stroke-linecap:round;stroke-linejoin:round;stroke-miterlimit:10;}
	.st69{fill:none;stroke:#256887;stroke-width:3.2577;stroke-miterlimit:10;}
	.st70{fill:none;stroke:#256887;stroke-width:3.2577;stroke-linecap:round;stroke-linejoin:round;stroke-miterlimit:10;}
	.st71{fill:#FFFFFF;stroke:#FFFFFF;stroke-width:2;stroke-miterlimit:10;}
	.st72{fill:#D2BF2D;stroke:#D2BF2D;stroke-width:2;stroke-miterlimit:10;}
	.st73{fill:#086E38;}
	.st74{fill:#256887;stroke:#256887;stroke-width:4;stroke-miterlimit:10;}
	.st75{fill:#FFFFFF;stroke:#FFFFFF;stroke-width:4;stroke-miterlimit:10;}
	.st76{fill:#4F4B7D;}
	.st77{fill:#256887;stroke:#256887;stroke-width:2.8997;stroke-miterlimit:10;}
	.st78{fill:#FFFFFF;stroke:#FFFFFF;stroke-width:2.8997;stroke-miterlimit:10;}
	.st79{fill:none;stroke:#FFFFFF;stroke-width:2.2399;stroke-miterlimit:10;}
	.st80{fill:none;stroke:#FFFFFF;stroke-width:2;stroke-miterlimit:10;}
	.st81{fill:none;stroke:#FFFFFF;stroke-width:1.4254;stroke-miterlimit:10;}
	.st82{fill:none;stroke:#EF4025;stroke-width:2.2399;stroke-miterlimit:10;}
	.st83{fill:none;stroke:#EF4025;stroke-width:2;stroke-miterlimit:10;}
	.st84{fill:none;stroke:#EF4025;stroke-width:1.4254;stroke-miterlimit:10;}
	.st85{fill:none;stroke:#4F497B;stroke-linecap:round;stroke-miterlimit:10;}
</style>
<g id="White">
	<rect x="0" class="st0" width="360.29" height="360.29"/>
</g>
<g id="BACKGROUND">
	<rect x="-0.24" y="336.06" class="st7" width="360" height="23.94"/>
	<g>
		<path class="st0" d="M297.06,349.53v2.95h-1.79v-8.4h3.19c0.5,0,0.96,0.05,1.37,0.16c0.41,0.1,0.76,0.26,1.04,0.48
			c0.29,0.22,0.51,0.49,0.67,0.83c0.16,0.34,0.24,0.74,0.24,1.21c0,0.48-0.08,0.89-0.25,1.24c-0.16,0.35-0.39,0.64-0.68,0.86
			c-0.29,0.23-0.64,0.4-1.05,0.5c-0.41,0.11-0.86,0.16-1.34,0.16H297.06z M299.95,346.76c0-0.46-0.14-0.77-0.41-0.94
			s-0.69-0.25-1.25-0.25h-1.22v2.47h1.22c0.56,0,0.98-0.1,1.25-0.3C299.81,347.55,299.95,347.22,299.95,346.76z"/>
		<path class="st0" d="M311.06,352.49h-1.86l-0.67-1.94h-3.01l-0.67,1.94h-1.76l3.02-8.4h1.93L311.06,352.49z M307.01,346.05
			c-0.02,0.06-0.04,0.16-0.08,0.28c-0.04,0.13-0.08,0.26-0.13,0.42c-0.05,0.16-0.1,0.32-0.16,0.5c-0.06,0.18-0.12,0.35-0.17,0.52
			c-0.14,0.42-0.28,0.86-0.44,1.33h2.03c-0.16-0.47-0.31-0.92-0.44-1.33c-0.09-0.24-0.16-0.44-0.21-0.59
			c-0.05-0.16-0.1-0.31-0.14-0.45c-0.04-0.14-0.09-0.28-0.13-0.4c-0.04-0.12-0.07-0.22-0.08-0.28H307.01z"/>
		<path class="st0" d="M311.95,344.09h6.66v1.5h-2.42v6.9h-1.81v-6.9h-2.42V344.09z"/>
		<path class="st0" d="M321.14,344.09h1.8v8.4h-1.8V344.09z"/>
		<path class="st0" d="M326.11,352.49v-8.4h5.72v1.49h-3.95v1.85h3.67v1.49h-3.67V351h4.01v1.49H326.11z"/>
		<path class="st0" d="M334.68,344.09h1.87c0.49,0.79,0.95,1.54,1.39,2.26c0.26,0.42,0.48,0.77,0.65,1.05
			c0.17,0.28,0.34,0.55,0.5,0.82c0.17,0.27,0.33,0.53,0.48,0.77c0.15,0.24,0.28,0.45,0.38,0.62h0.04v-5.52h1.7v8.4h-1.87
			c-0.48-0.78-0.94-1.52-1.37-2.22c-0.26-0.42-0.47-0.76-0.64-1.04c-0.17-0.28-0.34-0.55-0.51-0.83s-0.33-0.54-0.49-0.79
			s-0.29-0.47-0.4-0.64h-0.04v5.52h-1.7V344.09z"/>
		<path class="st0" d="M344.23,344.09h6.66v1.5h-2.42v6.9h-1.81v-6.9h-2.42V344.09z"/>
	</g>
</g>
<g id="REF" class="st10">
	<rect x="10.76" y="90.33" class="st11" width="360" height="108"/>
	<line class="st14" x1="190.76" y1="0.19" x2="190.76" y2="360.06"/>
</g>
<g id="LINE_ONE">
	<g>
		<path class="st7" d="M136.93,243.24v4.92h-2.98v-14h5.32c0.84,0,1.6,0.09,2.28,0.26c0.68,0.17,1.26,0.44,1.74,0.8
			c0.48,0.36,0.85,0.82,1.12,1.38c0.27,0.56,0.4,1.23,0.4,2.02c0,0.8-0.14,1.49-0.41,2.07c-0.27,0.58-0.65,1.06-1.14,1.44
			s-1.07,0.66-1.75,0.84c-0.68,0.18-1.43,0.27-2.24,0.27H136.93z M141.75,238.62c0-0.76-0.23-1.28-0.69-1.56
			c-0.46-0.28-1.16-0.42-2.09-0.42h-2.04v4.12h2.04c0.93,0,1.63-0.17,2.09-0.5C141.52,239.93,141.75,239.38,141.75,238.62z"/>
		<path class="st7" d="M160.27,248.16h-3.1l-1.12-3.24h-5.02l-1.12,3.24h-2.94l5.04-14h3.22L160.27,248.16z M153.51,237.44
			c-0.03,0.11-0.07,0.26-0.14,0.47c-0.07,0.21-0.14,0.44-0.22,0.7s-0.17,0.54-0.27,0.84s-0.2,0.59-0.29,0.87
			c-0.23,0.69-0.47,1.43-0.74,2.22h3.38c-0.27-0.79-0.51-1.53-0.74-2.22c-0.15-0.4-0.26-0.73-0.35-0.99
			c-0.09-0.26-0.17-0.51-0.24-0.75c-0.07-0.24-0.14-0.46-0.21-0.67s-0.11-0.36-0.14-0.47H153.51z"/>
		<path class="st7" d="M161.75,234.16h11.1v2.5h-4.04v11.5h-3.02v-11.5h-4.04V234.16z"/>
		<path class="st7" d="M177.07,234.16h3v14h-3V234.16z"/>
		<path class="st7" d="M185.35,248.16v-14h9.54v2.48h-6.58v3.08h6.12v2.48h-6.12v3.48h6.68v2.48H185.35z"/>
		<path class="st7" d="M199.63,234.16h3.12c0.81,1.32,1.59,2.57,2.32,3.76c0.44,0.71,0.8,1.29,1.08,1.75
			c0.28,0.46,0.56,0.92,0.84,1.37c0.28,0.45,0.55,0.88,0.8,1.29c0.25,0.41,0.47,0.75,0.64,1.03h0.06v-9.2h2.84v14h-3.12
			c-0.8-1.29-1.56-2.53-2.28-3.7c-0.43-0.69-0.78-1.27-1.07-1.73s-0.57-0.92-0.85-1.38s-0.55-0.9-0.81-1.32s-0.48-0.78-0.67-1.07
			h-0.06v9.2h-2.84V234.16z"/>
		<path class="st7" d="M215.55,234.16h11.1v2.5h-4.04v11.5h-3.02v-11.5h-4.04V234.16z"/>
	</g>
</g>
<g id="LINE_TWO">
	<g>
		<path class="st7" d="M136.78,258.94c0-1.15,0.16-2.17,0.48-3.07c0.32-0.9,0.78-1.66,1.37-2.29s1.31-1.1,2.16-1.43
			s1.8-0.49,2.85-0.49c1.49,0,2.75,0.33,3.76,0.98c1.01,0.65,1.73,1.65,2.16,2.98l-2.92,1.02c-0.24-0.79-0.6-1.4-1.08-1.83
			c-0.48-0.43-1.14-0.65-1.98-0.65c-0.61,0-1.15,0.12-1.62,0.36c-0.47,0.24-0.85,0.57-1.16,0.99s-0.54,0.92-0.69,1.51
			c-0.15,0.59-0.23,1.23-0.23,1.92s0.08,1.33,0.23,1.91c0.15,0.58,0.38,1.08,0.69,1.51c0.31,0.43,0.69,0.76,1.16,1
			c0.47,0.24,1.01,0.36,1.64,0.36c0.77,0,1.4-0.19,1.89-0.58c0.49-0.39,0.86-0.97,1.11-1.76l2.88,1.02
			c-0.47,1.19-1.19,2.12-2.16,2.8c-0.97,0.68-2.23,1.02-3.76,1.02c-1.03,0-1.96-0.16-2.79-0.49c-0.83-0.33-1.55-0.8-2.14-1.42
			c-0.59-0.62-1.05-1.38-1.37-2.29C136.94,261.12,136.78,260.09,136.78,258.94z"/>
		<path class="st7" d="M153.95,251.94h3v5.54h5.3v-5.54h3v14h-3v-5.94h-5.3v5.94h-3V251.94z"/>
		<path class="st7" d="M169.95,258.94c0-1.13,0.16-2.15,0.49-3.05c0.33-0.9,0.79-1.66,1.38-2.29c0.59-0.63,1.31-1.11,2.15-1.44
			c0.84-0.33,1.77-0.5,2.8-0.5c1.03,0,1.96,0.17,2.8,0.5s1.56,0.81,2.15,1.44s1.05,1.39,1.38,2.29c0.33,0.9,0.49,1.92,0.49,3.05
			c0,1.13-0.16,2.15-0.49,3.05c-0.33,0.9-0.79,1.66-1.38,2.29c-0.59,0.63-1.31,1.11-2.15,1.44c-0.84,0.33-1.77,0.5-2.8,0.5
			c-1.03,0-1.96-0.17-2.8-0.5c-0.84-0.33-1.56-0.81-2.15-1.44c-0.59-0.63-1.05-1.39-1.38-2.29
			C170.12,261.1,169.95,260.08,169.95,258.94z M173.06,258.94c0,0.71,0.08,1.36,0.23,1.95c0.15,0.59,0.38,1.1,0.69,1.52
			s0.69,0.75,1.16,0.98c0.47,0.23,1.01,0.35,1.64,0.35s1.17-0.12,1.64-0.35c0.47-0.23,0.85-0.56,1.16-0.98s0.54-0.93,0.69-1.52
			c0.15-0.59,0.23-1.24,0.23-1.95s-0.08-1.36-0.23-1.95s-0.38-1.1-0.69-1.52s-0.69-0.75-1.16-0.98c-0.47-0.23-1.01-0.35-1.64-0.35
			s-1.17,0.12-1.64,0.35c-0.47,0.23-0.85,0.56-1.16,0.98s-0.54,0.93-0.69,1.52C173.13,257.59,173.06,258.24,173.06,258.94z"/>
		<path class="st7" d="M188.3,251.94h3v14h-3V251.94z"/>
		<path class="st7" d="M196,258.94c0-1.15,0.16-2.17,0.48-3.07c0.32-0.9,0.78-1.66,1.37-2.29c0.59-0.63,1.31-1.1,2.16-1.43
			c0.85-0.33,1.8-0.49,2.85-0.49c1.49,0,2.75,0.33,3.76,0.98c1.01,0.65,1.73,1.65,2.16,2.98l-2.92,1.02
			c-0.24-0.79-0.6-1.4-1.08-1.83s-1.14-0.65-1.98-0.65c-0.61,0-1.15,0.12-1.62,0.36s-0.85,0.57-1.16,0.99s-0.54,0.92-0.69,1.51
			c-0.15,0.59-0.23,1.23-0.23,1.92s0.08,1.33,0.23,1.91c0.15,0.58,0.38,1.08,0.69,1.51c0.31,0.43,0.69,0.76,1.16,1
			s1.01,0.36,1.64,0.36c0.77,0,1.4-0.19,1.89-0.58s0.86-0.97,1.11-1.76l2.88,1.02c-0.47,1.19-1.19,2.12-2.16,2.8
			c-0.97,0.68-2.23,1.02-3.76,1.02c-1.03,0-1.96-0.16-2.79-0.49c-0.83-0.33-1.55-0.8-2.14-1.42c-0.59-0.62-1.05-1.38-1.37-2.29
			C196.15,261.12,196,260.09,196,258.94z"/>
		<path class="st7" d="M213.18,265.94v-14h9.54v2.48h-6.58v3.08h6.12v2.48h-6.12v3.48h6.68v2.48H213.18z"/>
	</g>
</g>
<g id="ICON">
	<g>
		<g>
			<path class="st8" d="M177.38,179.36c0-0.33,0-0.54,0-0.76c0-26.91,0-53.81,0.01-80.72c0-0.61-0.13-0.84-0.78-0.8
				c-0.93,0.06-1.87,0.02-2.8,0.01c-0.93-0.01-1.16-0.25-1.16-1.17c0-1.37,0-2.74,0.01-4.1c0.01-0.8,0.26-1.05,1.05-1.05
				c4.73,0,9.47,0,14.2,0c0.78,0,1.06,0.28,1.07,1.05c0.01,1.41,0.01,2.82,0,4.23c0,0.73-0.29,1.03-1.03,1.03
				c-1.19,0.01-2.39,0-3.65,0c0,21.4,0,42.75,0,63.79c-0.63,0.6-1.18,0.94-1.47,1.44c-0.18,0.3,0.03,0.83,0.07,1.26
				c0.01,0.06,0.07,0.12,0.11,0.15c1.2,0.96,1.3,2.25,1.27,3.68c-0.07,3.71-0.02,7.43-0.02,11.14c0,0.21,0,0.43,0,0.77
				C181.98,178.67,179.72,178.61,177.38,179.36z M181.02,165.72c0.8,0.31,1.51,0.33,2.03-0.38c0.12-0.16,0.13-0.39,0.19-0.59
				c-0.05-0.01-0.11-0.02-0.16-0.04c-0.28,0.25-0.56,0.51-0.84,0.76c-0.06-0.04-0.11-0.07-0.17-0.11c0.04-0.69,0.08-1.39,0.13-2.23
				c-0.43,0.13-0.86,0.13-1,0.32c-0.35,0.51-0.57,1.12-0.85,1.68c-0.39-0.44-0.88-0.98-1.36-1.52c-0.18,0.17-0.18,0.17,0.37,1.39
				c-1.2,0.79-1.44,1.2-1.14,2c0.23,0.6,0.93,1.04,1.47,0.94C180.6,167.78,180.99,167.15,181.02,165.72z"/>
			<path class="st69" d="M174.64,196.79c0-0.65,0-1.25,0-1.86c0.02-3.06-0.07-6.13,0.09-9.18c0.18-3.2,3.02-5.62,6.27-5.57
				c3.18,0.05,5.96,2.58,6.06,5.74c0.11,3.6,0.03,7.21,0.03,10.86C182.96,196.79,178.85,196.79,174.64,196.79z"/>
			<polygon class="st8" points="184.31,159.65 184.31,170.81 178.12,170.44 177.7,161.49 			"/>
		</g>
		<polygon class="st70" points="181,122.24 138.6,122.24 131.45,114.99 138.6,107.74 181,107.74 181,122.24 		"/>
		<polygon class="st70" points="182.57,158.35 140.16,158.35 133.01,151.1 140.16,143.84 182.57,143.84 182.57,158.35 		"/>
		<polygon class="st70" points="179.05,139.22 221.46,139.22 228.61,131.97 221.46,124.72 179.05,124.72 179.05,139.22 		"/>
	</g>
</g>
</svg>
