<?xml version="1.0" encoding="utf-8"?>
<!-- Generator: Adobe Illustrator 23.1.0, SVG Export Plug-In . SVG Version: 6.00 Build 0)  -->
<svg version="1.1" xmlns="http://www.w3.org/2000/svg" xmlns:xlink="http://www.w3.org/1999/xlink" x="0px" y="0px"
	 viewBox="0 0 360 360" style="enable-background:new 0 0 360 360;" xml:space="preserve">
<style type="text/css">
	.st0{fill:#FFFFFF;}
	.st1{fill:#0E6E39;}
	.st2{fill:#0C6E39;}
	.st3{fill:#4F497B;}
	.st4{fill:#216885;}
	.st5{fill:#F0492D;}
	.st6{fill:#EF3F25;}
	.st7{fill:#236886;}
	.st8{fill:#256887;}
	.st9{fill:#D2BF2D;}
	.st10{display:none;}
	.st11{display:inline;fill:none;stroke:#000000;stroke-width:0.25;stroke-miterlimit:10;}
	.st12{display:inline;fill:none;stroke:#FFFFFF;stroke-width:0.25;stroke-miterlimit:10;}
	.st13{display:inline;fill:none;stroke:#FFFFFF;stroke-width:0.25;stroke-linecap:round;stroke-miterlimit:10;}
	.st14{display:inline;fill:none;stroke:#000000;stroke-width:0.25;stroke-linecap:round;stroke-miterlimit:10;}
	.st15{fill:#4F4A7C;}
	.st16{fill:none;stroke:#FFFFFF;stroke-miterlimit:10;}
	.st17{stroke:#FFFFFF;stroke-miterlimit:10;}
	.st18{fill:none;stroke:#FFFFFF;stroke-width:3;stroke-miterlimit:10;}
	.st19{fill:none;stroke:#FFFFFF;stroke-linecap:round;stroke-miterlimit:10;}
	.st20{fill:none;stroke:#236886;stroke-width:5;stroke-miterlimit:10;}
	.st21{fill:none;stroke:#236886;stroke-width:5;stroke-linecap:round;stroke-miterlimit:10;}
	.st22{fill:none;stroke:#FFFFFF;stroke-width:5;stroke-miterlimit:10;}
	.st23{fill:none;stroke:#FFFFFF;stroke-width:5;stroke-linecap:round;stroke-miterlimit:10;}
	.st24{fill:none;stroke:#4F497B;stroke-width:3;stroke-miterlimit:10;}
	.st25{fill:none;stroke:#4F497B;stroke-miterlimit:10;}
	.st26{fill:#FFFFFF;stroke:#4F497B;stroke-miterlimit:10;}
	.st27{fill:#FFFFFF;stroke:#4F497B;stroke-width:2;stroke-miterlimit:10;}
	.st28{fill:none;stroke:#4F497B;stroke-width:2;stroke-linecap:round;stroke-miterlimit:10;}
	.st29{stroke:#FFFFFF;stroke-width:2;stroke-miterlimit:10;}
	.st30{fill:none;stroke:#FFFFFF;stroke-width:2;stroke-linecap:round;stroke-miterlimit:10;}
	.st31{fill:none;stroke:#0C6E39;stroke-width:3;stroke-miterlimit:10;}
	.st32{fill:none;stroke:#EF3F25;stroke-miterlimit:10;}
	.st33{fill:none;stroke:#EF3F25;stroke-width:3;stroke-miterlimit:10;}
	.st34{fill:none;stroke:#4F4A7C;stroke-width:3;stroke-miterlimit:10;}
	.st35{fill:none;stroke:#4F4A7C;stroke-width:5;stroke-linecap:round;stroke-miterlimit:10;}
	.st36{fill:none;stroke:#EF3F25;stroke-width:3;stroke-linecap:round;stroke-miterlimit:10;}
	.st37{fill:none;stroke:#EF3F25;stroke-width:5;stroke-linecap:round;stroke-miterlimit:10;}
	.st38{fill:none;stroke:#FFFFFF;stroke-width:3;stroke-linecap:round;stroke-miterlimit:10;}
	.st39{fill:none;stroke:#4F497B;stroke-width:5;stroke-linecap:round;stroke-miterlimit:10;}
	.st40{fill:#FFFFFF;stroke:#0E6E39;stroke-width:3;stroke-linejoin:round;stroke-miterlimit:10;}
	.st41{fill:none;stroke:#0E6E39;stroke-width:3;stroke-linejoin:round;stroke-miterlimit:10;}
	.st42{stroke:#FFFFFF;stroke-width:3;stroke-linejoin:round;stroke-miterlimit:10;}
	.st43{fill:none;stroke:#FFFFFF;stroke-width:3;stroke-linejoin:round;stroke-miterlimit:10;}
	.st44{fill:none;stroke:#0C6E39;stroke-width:5;stroke-linecap:round;stroke-miterlimit:10;}
	.st45{fill:none;stroke:#0C6E39;stroke-width:3;stroke-linecap:round;stroke-miterlimit:10;}
	.st46{fill:none;stroke:#0C6E39;stroke-linecap:round;stroke-linejoin:round;stroke-miterlimit:10;}
	.st47{fill:#0C6E39;stroke:#0C6E39;stroke-width:0;stroke-miterlimit:10;}
	.st48{fill:none;stroke:#0C6E39;stroke-width:3;stroke-linecap:round;stroke-linejoin:round;stroke-miterlimit:10;}
	.st49{fill:none;stroke:#0C6E39;stroke-linecap:round;stroke-miterlimit:10;}
	.st50{fill:none;stroke:#FFFFFF;stroke-linecap:round;stroke-linejoin:round;stroke-miterlimit:10;}
	.st51{fill:none;stroke:#FFFFFF;stroke-width:3;stroke-linecap:round;stroke-linejoin:round;stroke-miterlimit:10;}
	.st52{fill:none;stroke:#4F4A7C;stroke-miterlimit:10;}
	.st53{fill:#FFFFFF;stroke:#4F4A7C;stroke-width:2;stroke-miterlimit:10;}
	.st54{fill:#FFFFFF;stroke:#4F497B;stroke-width:5;stroke-miterlimit:10;}
	.st55{stroke:#FFFFFF;stroke-width:5;stroke-miterlimit:10;}
	.st56{fill:none;stroke:#EF3F25;stroke-width:2;stroke-linecap:round;stroke-miterlimit:10;}
	.st57{fill:none;stroke:#FFFFFF;stroke-width:1.5;stroke-miterlimit:10;}
	.st58{fill:none;stroke:#FFFFFF;stroke-width:1.5;stroke-linecap:round;stroke-miterlimit:10;}
	.st59{fill:none;stroke:#0E6E39;stroke-width:3;stroke-miterlimit:10;}
	.st60{fill:none;stroke:#0E6E39;stroke-width:1.5;stroke-miterlimit:10;}
	.st61{fill:none;stroke:#0E6E39;stroke-width:1.5;stroke-linecap:round;stroke-miterlimit:10;}
	.st62{fill:none;stroke:#EF3F25;stroke-width:0.7099;stroke-miterlimit:10;}
	.st63{fill:none;stroke:#FFFFFF;stroke-width:0.7099;stroke-miterlimit:10;}
	.st64{fill:#EF4025;}
	.st65{fill:#505050;stroke:#4F4A7C;stroke-width:2.9281;stroke-miterlimit:10;}
	.st66{fill:#FFFFFF;stroke:#FFFFFF;stroke-width:2.9281;stroke-miterlimit:10;}
	.st67{fill:none;stroke:#FFFFFF;stroke-width:3.2577;stroke-miterlimit:10;}
	.st68{fill:none;stroke:#FFFFFF;stroke-width:3.2577;stroke-linecap:round;stroke-linejoin:round;stroke-miterlimit:10;}
	.st69{fill:none;stroke:#256887;stroke-width:3.2577;stroke-miterlimit:10;}
	.st70{fill:none;stroke:#256887;stroke-width:3.2577;stroke-linecap:round;stroke-linejoin:round;stroke-miterlimit:10;}
	.st71{fill:#FFFFFF;stroke:#FFFFFF;stroke-width:2;stroke-miterlimit:10;}
	.st72{fill:#D2BF2D;stroke:#D2BF2D;stroke-width:2;stroke-miterlimit:10;}
	.st73{fill:#086E38;}
	.st74{fill:#256887;stroke:#256887;stroke-width:4;stroke-miterlimit:10;}
	.st75{fill:#FFFFFF;stroke:#FFFFFF;stroke-width:4;stroke-miterlimit:10;}
	.st76{fill:#4F4B7D;}
	.st77{fill:#256887;stroke:#256887;stroke-width:2.8997;stroke-miterlimit:10;}
	.st78{fill:#FFFFFF;stroke:#FFFFFF;stroke-width:2.8997;stroke-miterlimit:10;}
	.st79{fill:none;stroke:#FFFFFF;stroke-width:2.2399;stroke-miterlimit:10;}
	.st80{fill:none;stroke:#FFFFFF;stroke-width:2;stroke-miterlimit:10;}
	.st81{fill:none;stroke:#FFFFFF;stroke-width:1.4254;stroke-miterlimit:10;}
	.st82{fill:none;stroke:#EF4025;stroke-width:2.2399;stroke-miterlimit:10;}
	.st83{fill:none;stroke:#EF4025;stroke-width:2;stroke-miterlimit:10;}
	.st84{fill:none;stroke:#EF4025;stroke-width:1.4254;stroke-miterlimit:10;}
	.st85{fill:none;stroke:#4F497B;stroke-linecap:round;stroke-miterlimit:10;}
</style>
<g id="White">
</g>
<g id="BACKGROUND">
	<rect width="360" height="360"/>
</g>
<g id="REF" class="st10">
	<rect x="-360" y="90.33" class="st11" width="360" height="108"/>
	<rect y="90.33" class="st12" width="360" height="108"/>
	<line class="st13" x1="180" y1="0.19" x2="180" y2="360.06"/>
</g>
<g id="LINE_ONE">
	<g>
		<path class="st0" d="M127.4,234.16l-3.5,14h-3.48c-0.29-1.29-0.57-2.53-0.84-3.7c-0.16-0.69-0.29-1.27-0.4-1.74
			c-0.11-0.47-0.21-0.93-0.31-1.4c-0.1-0.47-0.2-0.91-0.3-1.34c-0.1-0.43-0.18-0.79-0.25-1.1h-0.06c-0.07,0.31-0.15,0.68-0.24,1.11
			c-0.09,0.43-0.2,0.9-0.32,1.39c-0.12,0.49-0.24,1-0.36,1.53c-0.12,0.53-0.24,1.04-0.36,1.55c-0.28,1.17-0.58,2.41-0.9,3.7h-3.48
			l-3.52-14h3.04c0.35,1.49,0.67,2.91,0.98,4.26c0.17,0.8,0.32,1.46,0.44,1.98c0.12,0.52,0.23,1.04,0.34,1.56
			c0.11,0.52,0.21,1.01,0.31,1.48c0.1,0.47,0.18,0.86,0.23,1.18h0.06c0.07-0.32,0.15-0.72,0.25-1.19c0.1-0.47,0.21-0.98,0.34-1.53
			s0.26-1.12,0.4-1.72c0.14-0.6,0.28-1.19,0.41-1.76c0.32-1.35,0.66-2.77,1.02-4.26h2.82c0.36,1.49,0.7,2.91,1.02,4.26
			c0.19,0.8,0.34,1.46,0.47,1.98c0.13,0.52,0.25,1.04,0.37,1.56c0.12,0.52,0.23,1.01,0.33,1.48c0.1,0.47,0.18,0.86,0.25,1.18h0.06
			c0.07-0.32,0.15-0.72,0.25-1.19c0.1-0.47,0.21-0.98,0.33-1.53s0.25-1.12,0.38-1.72c0.13-0.6,0.27-1.19,0.4-1.76
			c0.32-1.35,0.65-2.77,1-4.26H127.4z"/>
		<path class="st0" d="M130.74,241.16c0-1.13,0.16-2.15,0.49-3.05c0.33-0.9,0.79-1.66,1.38-2.29c0.59-0.63,1.31-1.11,2.15-1.44
			c0.84-0.33,1.77-0.5,2.8-0.5s1.96,0.17,2.8,0.5c0.84,0.33,1.56,0.81,2.15,1.44c0.59,0.63,1.05,1.39,1.38,2.29
			c0.33,0.9,0.49,1.92,0.49,3.05c0,1.13-0.16,2.15-0.49,3.05c-0.33,0.9-0.79,1.66-1.38,2.29c-0.59,0.63-1.31,1.11-2.15,1.44
			s-1.77,0.5-2.8,0.5s-1.96-0.17-2.8-0.5s-1.56-0.81-2.15-1.44c-0.59-0.63-1.05-1.39-1.38-2.29
			C130.9,243.31,130.74,242.29,130.74,241.16z M133.84,241.16c0,0.71,0.08,1.36,0.23,1.95c0.15,0.59,0.38,1.1,0.69,1.52
			s0.69,0.75,1.16,0.98c0.47,0.23,1.01,0.35,1.64,0.35s1.17-0.12,1.64-0.35s0.85-0.56,1.16-0.98s0.54-0.93,0.69-1.52
			c0.15-0.59,0.23-1.24,0.23-1.95s-0.08-1.36-0.23-1.95c-0.15-0.59-0.38-1.1-0.69-1.52s-0.69-0.75-1.16-0.98s-1.01-0.35-1.64-0.35
			s-1.17,0.12-1.64,0.35c-0.47,0.23-0.85,0.56-1.16,0.98s-0.54,0.93-0.69,1.52C133.91,239.8,133.84,240.45,133.84,241.16z"/>
		<path class="st0" d="M159.56,238.42c0,1.04-0.24,1.89-0.71,2.54c-0.47,0.65-1.12,1.14-1.95,1.46l3.22,5.74h-3.3l-2.9-5.3h-1.86
			v5.3h-2.98v-14h5.12c0.81,0,1.55,0.08,2.21,0.25s1.22,0.42,1.69,0.77c0.47,0.35,0.83,0.79,1.08,1.32
			C159.43,237.03,159.56,237.67,159.56,238.42z M156.48,238.44c0-0.68-0.22-1.15-0.65-1.41s-1.09-0.39-1.97-0.39h-1.8v3.78h1.8
			c0.88,0,1.54-0.15,1.97-0.45C156.26,239.67,156.48,239.16,156.48,238.44z"/>
		<path class="st0" d="M168.78,241.98l-1.18,1.34v4.84h-3v-14h3v5.44l4.74-5.44h3.46l-4.96,5.66l5.5,8.34h-3.58L168.78,241.98z"/>
		<path class="st0" d="M183.38,243.24v4.92h-2.98v-14h5.32c0.84,0,1.6,0.09,2.28,0.26c0.68,0.17,1.26,0.44,1.74,0.8
			c0.48,0.36,0.85,0.82,1.12,1.38c0.27,0.56,0.4,1.23,0.4,2.02c0,0.8-0.14,1.49-0.41,2.07s-0.65,1.06-1.14,1.44
			s-1.07,0.66-1.75,0.84c-0.68,0.18-1.43,0.27-2.24,0.27H183.38z M188.2,238.62c0-0.76-0.23-1.28-0.69-1.56
			c-0.46-0.28-1.16-0.42-2.09-0.42h-2.04v4.12h2.04c0.93,0,1.63-0.17,2.09-0.5C187.97,239.93,188.2,239.38,188.2,238.62z"/>
		<path class="st0" d="M195.66,234.16h3v11.5h6.12v2.5h-9.12V234.16z"/>
		<path class="st0" d="M221.13,248.16h-3.1l-1.12-3.24h-5.02l-1.12,3.24h-2.94l5.04-14h3.22L221.13,248.16z M214.38,237.44
			c-0.03,0.11-0.07,0.26-0.14,0.47c-0.07,0.21-0.14,0.44-0.22,0.7c-0.08,0.26-0.17,0.54-0.27,0.84s-0.2,0.59-0.29,0.87
			c-0.23,0.69-0.47,1.43-0.74,2.22h3.38c-0.27-0.79-0.51-1.53-0.74-2.22c-0.15-0.4-0.26-0.73-0.35-0.99s-0.17-0.51-0.24-0.75
			c-0.07-0.24-0.14-0.46-0.21-0.67c-0.07-0.21-0.11-0.36-0.14-0.47H214.38z"/>
		<path class="st0" d="M224,241.16c0-1.15,0.16-2.17,0.48-3.07c0.32-0.9,0.78-1.66,1.37-2.29c0.59-0.63,1.31-1.1,2.16-1.43
			c0.85-0.33,1.8-0.49,2.85-0.49c1.49,0,2.75,0.33,3.76,0.98c1.01,0.65,1.73,1.65,2.16,2.98l-2.92,1.02
			c-0.24-0.79-0.6-1.4-1.08-1.83c-0.48-0.43-1.14-0.65-1.98-0.65c-0.61,0-1.15,0.12-1.62,0.36s-0.85,0.57-1.16,0.99
			s-0.54,0.92-0.69,1.51c-0.15,0.59-0.23,1.23-0.23,1.92s0.08,1.33,0.23,1.91c0.15,0.58,0.38,1.08,0.69,1.51s0.69,0.76,1.16,1
			s1.01,0.36,1.64,0.36c0.77,0,1.4-0.19,1.89-0.58c0.49-0.39,0.86-0.97,1.11-1.76l2.88,1.02c-0.47,1.19-1.19,2.12-2.16,2.8
			c-0.97,0.68-2.23,1.02-3.76,1.02c-1.03,0-1.96-0.16-2.79-0.49c-0.83-0.33-1.55-0.8-2.14-1.42c-0.59-0.62-1.05-1.38-1.37-2.29
			C224.15,243.33,224,242.31,224,241.16z"/>
		<path class="st0" d="M241.18,248.16v-14h9.54v2.48h-6.58v3.08h6.12v2.48h-6.12v3.48h6.68v2.48H241.18z"/>
	</g>
</g>
<g id="LINE_TWO">
	<g>
		<path class="st0" d="M125.1,255.63c0,0.6,0.26,1.03,0.78,1.29c0.52,0.26,1.35,0.48,2.48,0.67c1.67,0.28,2.89,0.74,3.67,1.38
			c0.78,0.64,1.17,1.59,1.17,2.86c0,0.68-0.14,1.29-0.42,1.83s-0.67,1-1.17,1.38s-1.1,0.67-1.79,0.88
			c-0.69,0.21-1.45,0.31-2.26,0.31c-0.88,0-1.67-0.12-2.38-0.35c-0.71-0.23-1.31-0.54-1.8-0.93c-0.49-0.39-0.88-0.84-1.16-1.36
			c-0.28-0.52-0.43-1.06-0.46-1.62l3-0.48c0.07,0.68,0.33,1.24,0.79,1.67c0.46,0.43,1.13,0.65,2.01,0.65c0.36,0,0.7-0.03,1.01-0.1
			c0.31-0.07,0.59-0.18,0.82-0.33c0.23-0.15,0.42-0.34,0.55-0.57s0.2-0.5,0.2-0.82c0-0.52-0.22-0.92-0.65-1.2s-1.2-0.51-2.29-0.68
			c-0.73-0.12-1.41-0.27-2.04-0.46s-1.17-0.44-1.63-0.77c-0.46-0.33-0.82-0.73-1.08-1.22c-0.26-0.49-0.39-1.08-0.39-1.79
			c0-0.71,0.13-1.32,0.4-1.84c0.27-0.52,0.64-0.96,1.12-1.31c0.48-0.35,1.05-0.62,1.7-0.79c0.65-0.17,1.37-0.26,2.14-0.26
			c0.72,0,1.39,0.08,2.02,0.25c0.63,0.17,1.18,0.41,1.67,0.74c0.49,0.33,0.89,0.73,1.21,1.21c0.32,0.48,0.54,1.03,0.66,1.64
			l-3.04,0.66c-0.11-0.64-0.38-1.15-0.82-1.52c-0.44-0.37-1.03-0.56-1.78-0.56c-0.76,0-1.32,0.14-1.69,0.42
			C125.28,254.79,125.1,255.16,125.1,255.63z"/>
		<path class="st0" d="M136.3,251.95h11.1v2.5h-4.04v11.5h-3.02v-11.5h-4.04V251.95z"/>
		<path class="st0" d="M162.09,256.21c0,1.04-0.24,1.89-0.71,2.54c-0.47,0.65-1.12,1.14-1.95,1.46l3.22,5.74h-3.3l-2.9-5.3h-1.86
			v5.3h-2.98v-14h5.12c0.81,0,1.55,0.08,2.21,0.25s1.22,0.42,1.69,0.77c0.47,0.35,0.83,0.79,1.08,1.32
			C161.97,254.82,162.09,255.46,162.09,256.21z M159.01,256.23c0-0.68-0.22-1.15-0.65-1.41c-0.43-0.26-1.09-0.39-1.97-0.39h-1.8
			v3.78h1.8c0.88,0,1.54-0.15,1.97-0.45C158.8,257.46,159.01,256.95,159.01,256.23z"/>
		<path class="st0" d="M179.3,265.95h-3.1l-1.12-3.24h-5.02l-1.12,3.24H166l5.04-14h3.22L179.3,265.95z M172.54,255.23
			c-0.03,0.11-0.07,0.26-0.14,0.47s-0.14,0.44-0.22,0.7s-0.17,0.54-0.27,0.84s-0.2,0.59-0.29,0.87c-0.23,0.69-0.47,1.43-0.74,2.22
			h3.38c-0.27-0.79-0.51-1.53-0.74-2.22c-0.15-0.4-0.26-0.73-0.35-0.99c-0.09-0.26-0.17-0.51-0.24-0.75
			c-0.07-0.24-0.14-0.46-0.21-0.67c-0.07-0.21-0.11-0.36-0.14-0.47H172.54z"/>
		<path class="st0" d="M180.78,251.95h11.1v2.5h-4.04v11.5h-3.02v-11.5h-4.04V251.95z"/>
		<path class="st0" d="M196.1,265.95v-14h9.54v2.48h-6.58v3.08h6.12v2.48h-6.12v3.48h6.68v2.48H196.1z"/>
		<path class="st0" d="M216.1,258.19h6.44v7.76h-2.72v-1.44c-0.31,0.48-0.76,0.89-1.36,1.22c-0.6,0.33-1.38,0.5-2.34,0.5
			c-1.04,0-1.96-0.19-2.75-0.57s-1.45-0.9-1.98-1.55c-0.53-0.65-0.92-1.42-1.19-2.3s-0.4-1.82-0.4-2.82c0-1.08,0.16-2.07,0.47-2.96
			c0.31-0.89,0.77-1.66,1.37-2.31c0.6-0.65,1.33-1.15,2.19-1.51c0.86-0.36,1.84-0.54,2.93-0.54c1.41,0,2.62,0.31,3.62,0.93
			c1,0.62,1.75,1.54,2.26,2.75l-2.78,1.14c-0.27-0.75-0.67-1.32-1.22-1.73c-0.55-0.41-1.21-0.61-2-0.61c-1.13,0-2.04,0.42-2.72,1.25
			c-0.68,0.83-1.02,2.06-1.02,3.69c0,3.12,1.23,4.68,3.7,4.68c0.36,0,0.72-0.05,1.08-0.15c0.36-0.1,0.69-0.25,0.99-0.46
			c0.3-0.21,0.54-0.47,0.73-0.79s0.28-0.71,0.28-1.16v-0.64h-3.58V258.19z"/>
		<path class="st0" d="M231,260.09l-5.3-8.14h3.44l3.42,5.36l3.4-5.36h3.34l-5.3,8.14v5.86h-3V260.09z"/>
	</g>
</g>
<g id="ICON">
	<g>
		<line class="st16" x1="114.48" y1="167.51" x2="30.33" y2="167.51"/>
		<g>
			<path class="st17" d="M121.99,182.87c1.44,0,2.88,0.03,4.32-0.01c0.8-0.02,1.14,0.22,1.06,1.09c-0.37,4.03-0.72,8.06-1.03,12.1
				c-0.06,0.78-0.42,0.98-1.12,0.97c-2.25-0.02-4.5-0.02-6.76,0c-0.71,0.01-1.03-0.21-1.1-0.99c-0.31-3.99-0.66-7.98-1.04-11.97
				c-0.08-0.86,0.14-1.25,1.07-1.21C118.92,182.9,120.46,182.87,121.99,182.87z"/>
			<path class="st17" d="M123.94,155.2c2.29,4.26,1.18,16.01-1.87,19.56c-0.6-1.56-1.6-2.97-1.6-4.39c0-4.63,0.49-9.24,2.5-13.52
				C123.21,156.34,123.54,155.87,123.94,155.2z"/>
			<path class="st17" d="M112.91,162.14c2.3,0.59,3.61,1.93,4.72,3.49c2.13,3,3.52,6.38,4.09,9.92c0.36,2.19-0.16,4.51-0.28,6.76
				c-0.11,0.07-0.19,0.17-0.28,0.18c-2.75,0.27-2.78,0.27-3.15-2.33c-0.84-5.78-2.35-11.39-4.71-16.77
				C113.16,163.09,113.1,162.75,112.91,162.14z"/>
			<path class="st17" d="M128.96,167.94c-0.26,0.66-0.36,1.01-0.52,1.32c-2,3.82-3.36,7.88-4.05,12.15
				c-0.16,0.99-0.55,1.2-1.42,1.21c-0.99,0.01-1.08-0.59-1.1-1.34c-0.12-3.61,0.22-7.12,2.35-10.19
				C125.3,169.5,126.76,168.48,128.96,167.94z"/>
		</g>
		<path class="st17" d="M313.44,151.64c-0.19,0.75-0.26,1.45-0.54,2.06c-0.98,2.2-2.01,4.37-3.05,6.54
			c-0.58,1.22-1.32,1.27-2.11,0.16c-2.22-3.15-4.43-6.31-6.64-9.47c-0.85-1.22-0.52-1.9,0.97-2.03c2.33-0.2,4.66-0.41,6.99-0.61
			c0.75-0.06,1.51-0.2,2.06,0.58c0.12,0.17,0.49,0.18,0.75,0.22c3.32,0.45,5.58,3.01,5.58,6.35c0.01,11.57,0.02,23.15-0.02,34.72
			c0,1.07,0.29,1.4,1.33,1.3c0.96-0.09,1.93-0.01,2.89-0.02c0.67-0.01,1.16,0.32,1.03,0.95c-0.07,0.36-0.64,0.88-1,0.88
			c-3.44,0.07-6.89,0.04-10.33,0.04c-0.66,0-1.09-0.32-1.08-0.97c0.01-0.67,0.48-0.92,1.13-0.91c1.07,0.02,2.14-0.02,3.2,0.01
			c0.69,0.02,0.99-0.18,0.99-0.93c-0.02-11.71,0-23.42-0.03-35.13C315.57,153.75,314.82,152.44,313.44,151.64z"/>
		<path class="st17" d="M287.55,161.33c2.94,0,5.89-0.01,8.83,0c2.42,0.01,3.46,0.97,3.47,3.15c0.01,2.26,0.03,4.51-0.02,6.77
			c-0.01,0.42-0.22,0.97-0.55,1.22c-1.5,1.15-2.14,2.58-2.1,4.35c0.02,1.07,0.3,2.47-0.31,3.11c-0.52,0.54-2.14,0.23-3.27,0.23
			c-4.79,0.01-9.58-0.02-14.37,0.02c-0.96,0.01-1.37-0.22-1.29-1.15c0.07-0.92,0.01-1.85,0.01-2.78c0-1.51-0.73-2.68-1.92-3.69
			c-0.39-0.33-0.71-0.91-0.72-1.39c-0.07-2.25-0.04-4.51-0.03-6.77c0.01-2.01,1.11-3.05,3.32-3.07
			C281.57,161.31,284.56,161.33,287.55,161.33z"/>
		<path class="st17" d="M287.42,180.25c5.06,0,10.11,0.03,15.17-0.03c1.12-0.01,1.46,0.38,1.39,1.59c-0.09,1.56-0.01,3.13-0.03,4.7
			c-0.02,2-0.97,3.09-2.73,3.09c-9.2,0.01-18.4,0.01-27.6,0c-1.66,0-2.61-1.03-2.67-2.89c-0.05-1.73,0.04-3.47-0.03-5.2
			c-0.04-1.06,0.37-1.28,1.21-1.27C277.23,180.27,282.33,180.25,287.42,180.25z"/>
		<path class="st17" d="M299.78,180.22c-4.04,0-4.04,0-4.01-4c0.02-2.81,1.23-3.98,4.1-3.98c2.87,0,4.07,1.17,4.09,3.99
			c0.02,3.98,0.02,3.98-4.02,3.98C299.88,180.22,299.83,180.22,299.78,180.22z"/>
		<path class="st17" d="M275.17,180.22c-4.04,0-4.04,0-4.01-4c0.02-2.81,1.23-3.98,4.1-3.98c2.87,0,4.07,1.17,4.09,3.99
			c0.02,3.98,0.02,3.98-4.02,3.98C275.27,180.22,275.22,180.22,275.17,180.22z"/>
		<path class="st17" d="M280.47,189.84c-0.58,2.38-1.13,4.7-1.72,7.02c-0.32,1.26-1.8,0.97-3.5,0.81c0.62-2.48,1.14-4.86,1.83-7.22
			C277.42,189.3,278.88,189.59,280.47,189.84z"/>
		<path class="st17" d="M294.64,189.84c0.58,2.38,1.13,4.7,1.72,7.02c0.32,1.26,1.8,0.97,3.5,0.81c-0.62-2.48-1.14-4.86-1.83-7.22
			C297.69,189.3,296.23,189.59,294.64,189.84z"/>
		<g>
			<path class="st18" d="M257.41,196.78c0,0.4-0.32,0.72-0.72,0.72H142.87c-0.4,0-0.72-0.32-0.72-0.72v-84.5
				c0-0.4,0.32-0.72,0.72-0.72h113.82c0.4,0,0.72,0.32,0.72,0.72V196.78z"/>
		</g>
		<g>
			<path class="st16" d="M142.15,196.78c0,0.4,0.32,0.72,0.72,0.72h18.08c0.4,0,0.72-0.32,0.72-0.72v-13.35
				c0-0.4-0.32-0.72-0.72-0.72h-18.08c-0.4,0-0.72,0.32-0.72,0.72V196.78z"/>
		</g>
		<g>
			<path class="st16" d="M142.15,181.99c0,0.4,0.32,0.72,0.72,0.72h8.32c0.4,0,0.72-0.32,0.72-0.72v-33.02
				c0-0.4-0.32-0.72-0.72-0.72h-8.32c-0.4,0-0.72,0.32-0.72,0.72V181.99z"/>
		</g>
		<g>
			<path class="st16" d="M181.92,196.78c0,0.4,0.32,0.72,0.72,0.72h34.29c0.4,0,0.72-0.32,0.72-0.72v-13.35
				c0-0.4-0.32-0.72-0.72-0.72h-34.29c-0.4,0-0.72,0.32-0.72,0.72V196.78z"/>
		</g>
		<g>
			<path class="st16" d="M194.9,181.99c0,0.4,0.32,0.72,0.72,0.72h8.32c0.4,0,0.72-0.32,0.72-0.72v-33.02c0-0.4-0.32-0.72-0.72-0.72
				h-8.32c-0.4,0-0.72,0.32-0.72,0.72V181.99z"/>
		</g>
		<g>
			<path class="st16" d="M257.41,196.78c0,0.4-0.32,0.72-0.72,0.72h-18.08c-0.4,0-0.72-0.32-0.72-0.72v-13.35
				c0-0.4,0.32-0.72,0.72-0.72h18.08c0.4,0,0.72,0.32,0.72,0.72V196.78z"/>
		</g>
		<g>
			<path class="st16" d="M257.41,181.99c0,0.4-0.32,0.72-0.72,0.72h-8.32c-0.4,0-0.72-0.32-0.72-0.72v-33.02
				c0-0.4,0.32-0.72,0.72-0.72h8.32c0.4,0,0.72,0.32,0.72,0.72V181.99z"/>
		</g>
		<line class="st16" x1="171.37" y1="197.5" x2="171.37" y2="167.69"/>
		<line class="st16" x1="162.54" y1="167.69" x2="180.21" y2="167.69"/>
		<line class="st16" x1="227.76" y1="197.61" x2="227.76" y2="167.8"/>
		<line class="st16" x1="218.93" y1="167.8" x2="236.6" y2="167.8"/>
		<path class="st16" d="M227.76,125.43c5.17,0,9.35,4.18,9.35,9.34h-18.7C218.41,129.61,222.6,125.43,227.76,125.43z"/>
		<line class="st16" x1="227.76" y1="125.43" x2="227.76" y2="111.55"/>
		<path class="st16" d="M171.37,125.43c5.17,0,9.35,4.18,9.35,9.34h-18.7C162.02,129.61,166.2,125.43,171.37,125.43z"/>
		<line class="st16" x1="171.37" y1="125.43" x2="171.37" y2="111.55"/>
		<path class="st16" d="M94.46,126.62c5.17,0,9.35,4.18,9.35,9.34h-18.7C85.11,130.8,89.29,126.62,94.46,126.62z"/>
		<line class="st16" x1="94.46" y1="126.62" x2="94.46" y2="112.75"/>
		<path class="st16" d="M50.35,126.62c5.17,0,9.35,4.18,9.35,9.34H41C41,130.8,45.18,126.62,50.35,126.62z"/>
		<line class="st16" x1="50.35" y1="126.62" x2="50.35" y2="112.75"/>
		<g>
			<path class="st17" d="M87.82,182.83c0-0.66,0-1.1,0-1.55c0-6.62,0-13.25,0-19.87c0-1.98,0.41-2.4,2.34-2.41
				c3.15-0.01,6.31-0.01,9.46,0c1.79,0.01,2.31,0.54,2.31,2.35c0,6.71-0.02,13.43,0.03,20.14c0.01,1.09-0.33,1.38-1.38,1.36
				C96.39,182.8,92.21,182.83,87.82,182.83z"/>
			<path class="st17" d="M87.73,182.01c-0.25-1.36-0.14-3.04-0.9-3.96c-0.47-0.56-2.61-0.38-3.34,0.27c-0.6,0.53-0.69,2.85-0.15,3.3
				c0.92,0.78,2.5,0.72,3.8,1.01C87.34,182.43,87.53,182.22,87.73,182.01z"/>
			<path class="st17" d="M101.96,181.84c0.25-1.36,0.14-3.04,0.9-3.96c0.47-0.56,2.61-0.38,3.34,0.27c0.6,0.53,0.69,2.85,0.15,3.3
				c-0.92,0.78-2.5,0.72-3.8,1.01C102.35,182.26,102.16,182.05,101.96,181.84z"/>
			<line class="st19" x1="94.89" y1="182.85" x2="94.89" y2="197.02"/>
			<line class="st19" x1="94.89" y1="193.96" x2="87.82" y2="197.02"/>
			<line class="st19" x1="94.89" y1="193.96" x2="102.29" y2="197.02"/>
		</g>
		<g>
			<path class="st17" d="M43.88,182.83c0-0.66,0-1.1,0-1.55c0-6.62,0-13.25,0-19.87c0-1.98,0.41-2.4,2.34-2.41
				c3.15-0.01,6.31-0.01,9.46,0c1.79,0.01,2.31,0.54,2.31,2.35c0,6.71-0.02,13.43,0.03,20.14c0.01,1.09-0.33,1.38-1.38,1.36
				C52.46,182.8,48.27,182.83,43.88,182.83z"/>
			<path class="st17" d="M43.79,182.01c-0.25-1.36-0.14-3.04-0.9-3.96c-0.47-0.56-2.61-0.38-3.34,0.27c-0.6,0.53-0.69,2.85-0.15,3.3
				c0.92,0.78,2.5,0.72,3.8,1.01C43.4,182.43,43.6,182.22,43.79,182.01z"/>
			<path class="st17" d="M58.02,181.84c0.25-1.36,0.14-3.04,0.9-3.96c0.47-0.56,2.61-0.38,3.34,0.27c0.6,0.53,0.69,2.85,0.15,3.3
				c-0.92,0.78-2.5,0.72-3.8,1.01C58.41,182.26,58.22,182.05,58.02,181.84z"/>
			<line class="st19" x1="50.95" y1="182.85" x2="50.95" y2="197.02"/>
			<line class="st19" x1="50.95" y1="193.96" x2="43.88" y2="197.02"/>
			<line class="st19" x1="50.95" y1="193.96" x2="58.35" y2="197.02"/>
		</g>
		<g>
			<path class="st18" d="M329.67,187.81c0,5.5-4.5,10.01-10.01,10.01H40.34c-5.5,0-10.01-4.5-10.01-10.01v-66.25
				c0-5.5,4.5-10.01,10.01-10.01h279.32c5.5,0,10.01,4.5,10.01,10.01V187.81z"/>
		</g>
		<g>
			<path class="st16" d="M78.05,195.45c0,0.4-0.32,0.72-0.72,0.72h-9.38c-0.4,0-0.72-0.32-0.72-0.72v-19.17
				c0-0.4,0.32-0.72,0.72-0.72h9.38c0.4,0,0.72,0.32,0.72,0.72V195.45z"/>
		</g>
		<g>
			<line class="st16" x1="67.24" y1="179.67" x2="78.05" y2="179.67"/>
		</g>
		<g>
			<line class="st16" x1="67.47" y1="187.47" x2="78.29" y2="187.47"/>
		</g>
	</g>
</g>
</svg>
