<?xml version="1.0" encoding="utf-8"?>
<!-- Generator: Adobe Illustrator 23.1.0, SVG Export Plug-In . SVG Version: 6.00 Build 0)  -->
<svg version="1.1" xmlns="http://www.w3.org/2000/svg" xmlns:xlink="http://www.w3.org/1999/xlink" x="0px" y="0px"
	 viewBox="0 0 360 360" style="enable-background:new 0 0 360 360;" xml:space="preserve">
<style type="text/css">
	.st0{fill:#FFFFFF;}
	.st1{fill:#0E6E39;}
	.st2{fill:#0C6E39;}
	.st3{fill:#4F497B;}
	.st4{fill:#216885;}
	.st5{fill:#F0492D;}
	.st6{fill:#EF3F25;}
	.st7{fill:#236886;}
	.st8{fill:#256887;}
	.st9{fill:#D2BF2D;}
	.st10{display:none;}
	.st11{display:inline;fill:none;stroke:#000000;stroke-width:0.25;stroke-miterlimit:10;}
	.st12{display:inline;fill:none;stroke:#FFFFFF;stroke-width:0.25;stroke-miterlimit:10;}
	.st13{display:inline;fill:none;stroke:#FFFFFF;stroke-width:0.25;stroke-linecap:round;stroke-miterlimit:10;}
	.st14{display:inline;fill:none;stroke:#000000;stroke-width:0.25;stroke-linecap:round;stroke-miterlimit:10;}
	.st15{fill:#4F4A7C;}
	.st16{fill:none;stroke:#FFFFFF;stroke-miterlimit:10;}
	.st17{stroke:#FFFFFF;stroke-miterlimit:10;}
	.st18{fill:none;stroke:#FFFFFF;stroke-width:3;stroke-miterlimit:10;}
	.st19{fill:none;stroke:#FFFFFF;stroke-linecap:round;stroke-miterlimit:10;}
	.st20{fill:none;stroke:#236886;stroke-width:5;stroke-miterlimit:10;}
	.st21{fill:none;stroke:#236886;stroke-width:5;stroke-linecap:round;stroke-miterlimit:10;}
	.st22{fill:none;stroke:#FFFFFF;stroke-width:5;stroke-miterlimit:10;}
	.st23{fill:none;stroke:#FFFFFF;stroke-width:5;stroke-linecap:round;stroke-miterlimit:10;}
	.st24{fill:none;stroke:#4F497B;stroke-width:3;stroke-miterlimit:10;}
	.st25{fill:none;stroke:#4F497B;stroke-miterlimit:10;}
	.st26{fill:#FFFFFF;stroke:#4F497B;stroke-miterlimit:10;}
	.st27{fill:#FFFFFF;stroke:#4F497B;stroke-width:2;stroke-miterlimit:10;}
	.st28{fill:none;stroke:#4F497B;stroke-width:2;stroke-linecap:round;stroke-miterlimit:10;}
	.st29{stroke:#FFFFFF;stroke-width:2;stroke-miterlimit:10;}
	.st30{fill:none;stroke:#FFFFFF;stroke-width:2;stroke-linecap:round;stroke-miterlimit:10;}
	.st31{fill:none;stroke:#0C6E39;stroke-width:3;stroke-miterlimit:10;}
	.st32{fill:none;stroke:#EF3F25;stroke-miterlimit:10;}
	.st33{fill:none;stroke:#EF3F25;stroke-width:3;stroke-miterlimit:10;}
	.st34{fill:none;stroke:#4F4A7C;stroke-width:3;stroke-miterlimit:10;}
	.st35{fill:none;stroke:#4F4A7C;stroke-width:5;stroke-linecap:round;stroke-miterlimit:10;}
	.st36{fill:none;stroke:#EF3F25;stroke-width:3;stroke-linecap:round;stroke-miterlimit:10;}
	.st37{fill:none;stroke:#EF3F25;stroke-width:5;stroke-linecap:round;stroke-miterlimit:10;}
	.st38{fill:none;stroke:#FFFFFF;stroke-width:3;stroke-linecap:round;stroke-miterlimit:10;}
	.st39{fill:none;stroke:#4F497B;stroke-width:5;stroke-linecap:round;stroke-miterlimit:10;}
	.st40{fill:#FFFFFF;stroke:#0E6E39;stroke-width:3;stroke-linejoin:round;stroke-miterlimit:10;}
	.st41{fill:none;stroke:#0E6E39;stroke-width:3;stroke-linejoin:round;stroke-miterlimit:10;}
	.st42{stroke:#FFFFFF;stroke-width:3;stroke-linejoin:round;stroke-miterlimit:10;}
	.st43{fill:none;stroke:#FFFFFF;stroke-width:3;stroke-linejoin:round;stroke-miterlimit:10;}
	.st44{fill:none;stroke:#0C6E39;stroke-width:5;stroke-linecap:round;stroke-miterlimit:10;}
	.st45{fill:none;stroke:#0C6E39;stroke-width:3;stroke-linecap:round;stroke-miterlimit:10;}
	.st46{fill:none;stroke:#0C6E39;stroke-linecap:round;stroke-linejoin:round;stroke-miterlimit:10;}
	.st47{fill:#0C6E39;stroke:#0C6E39;stroke-width:0;stroke-miterlimit:10;}
	.st48{fill:none;stroke:#0C6E39;stroke-width:3;stroke-linecap:round;stroke-linejoin:round;stroke-miterlimit:10;}
	.st49{fill:none;stroke:#0C6E39;stroke-linecap:round;stroke-miterlimit:10;}
	.st50{fill:none;stroke:#FFFFFF;stroke-linecap:round;stroke-linejoin:round;stroke-miterlimit:10;}
	.st51{fill:none;stroke:#FFFFFF;stroke-width:3;stroke-linecap:round;stroke-linejoin:round;stroke-miterlimit:10;}
	.st52{fill:none;stroke:#4F4A7C;stroke-miterlimit:10;}
	.st53{fill:#FFFFFF;stroke:#4F4A7C;stroke-width:2;stroke-miterlimit:10;}
	.st54{fill:#FFFFFF;stroke:#4F497B;stroke-width:5;stroke-miterlimit:10;}
	.st55{stroke:#FFFFFF;stroke-width:5;stroke-miterlimit:10;}
	.st56{fill:none;stroke:#EF3F25;stroke-width:2;stroke-linecap:round;stroke-miterlimit:10;}
	.st57{fill:none;stroke:#FFFFFF;stroke-width:1.5;stroke-miterlimit:10;}
	.st58{fill:none;stroke:#FFFFFF;stroke-width:1.5;stroke-linecap:round;stroke-miterlimit:10;}
	.st59{fill:none;stroke:#0E6E39;stroke-width:3;stroke-miterlimit:10;}
	.st60{fill:none;stroke:#0E6E39;stroke-width:1.5;stroke-miterlimit:10;}
	.st61{fill:none;stroke:#0E6E39;stroke-width:1.5;stroke-linecap:round;stroke-miterlimit:10;}
	.st62{fill:none;stroke:#EF3F25;stroke-width:0.7099;stroke-miterlimit:10;}
	.st63{fill:none;stroke:#FFFFFF;stroke-width:0.7099;stroke-miterlimit:10;}
	.st64{fill:#EF4025;}
	.st65{fill:#505050;stroke:#4F4A7C;stroke-width:2.9281;stroke-miterlimit:10;}
	.st66{fill:#FFFFFF;stroke:#FFFFFF;stroke-width:2.9281;stroke-miterlimit:10;}
	.st67{fill:none;stroke:#FFFFFF;stroke-width:3.2577;stroke-miterlimit:10;}
	.st68{fill:none;stroke:#FFFFFF;stroke-width:3.2577;stroke-linecap:round;stroke-linejoin:round;stroke-miterlimit:10;}
	.st69{fill:none;stroke:#256887;stroke-width:3.2577;stroke-miterlimit:10;}
	.st70{fill:none;stroke:#256887;stroke-width:3.2577;stroke-linecap:round;stroke-linejoin:round;stroke-miterlimit:10;}
	.st71{fill:#FFFFFF;stroke:#FFFFFF;stroke-width:2;stroke-miterlimit:10;}
	.st72{fill:#D2BF2D;stroke:#D2BF2D;stroke-width:2;stroke-miterlimit:10;}
	.st73{fill:#086E38;}
	.st74{fill:#256887;stroke:#256887;stroke-width:4;stroke-miterlimit:10;}
	.st75{fill:#FFFFFF;stroke:#FFFFFF;stroke-width:4;stroke-miterlimit:10;}
	.st76{fill:#4F4B7D;}
	.st77{fill:#256887;stroke:#256887;stroke-width:2.8997;stroke-miterlimit:10;}
	.st78{fill:#FFFFFF;stroke:#FFFFFF;stroke-width:2.8997;stroke-miterlimit:10;}
	.st79{fill:none;stroke:#FFFFFF;stroke-width:2.2399;stroke-miterlimit:10;}
	.st80{fill:none;stroke:#FFFFFF;stroke-width:2;stroke-miterlimit:10;}
	.st81{fill:none;stroke:#FFFFFF;stroke-width:1.4254;stroke-miterlimit:10;}
	.st82{fill:none;stroke:#EF4025;stroke-width:2.2399;stroke-miterlimit:10;}
	.st83{fill:none;stroke:#EF4025;stroke-width:2;stroke-miterlimit:10;}
	.st84{fill:none;stroke:#EF4025;stroke-width:1.4254;stroke-miterlimit:10;}
	.st85{fill:none;stroke:#4F497B;stroke-linecap:round;stroke-miterlimit:10;}
</style>
<g id="White">
</g>
<g id="BACKGROUND">
	<rect width="360" height="360"/>
</g>
<g id="REF" class="st10">
	<rect x="-360" y="90.33" class="st11" width="360" height="108"/>
	<rect x="0" y="90.33" class="st12" width="360" height="108"/>
	<line class="st13" x1="180" y1="0.19" x2="180" y2="360.06"/>
</g>
<g id="LINE_ONE">
	<g>
		<path class="st0" d="M64.66,234.16h3v14h-3V234.16z"/>
		<path class="st0" d="M72.94,234.16h3.12c0.81,1.32,1.59,2.57,2.32,3.76c0.44,0.71,0.8,1.29,1.08,1.75
			c0.28,0.46,0.56,0.92,0.84,1.37c0.28,0.45,0.55,0.88,0.8,1.29c0.25,0.41,0.47,0.75,0.64,1.03h0.06v-9.2h2.84v14h-3.12
			c-0.8-1.29-1.56-2.53-2.28-3.7c-0.43-0.69-0.78-1.27-1.07-1.73c-0.29-0.46-0.57-0.92-0.85-1.38c-0.28-0.46-0.55-0.9-0.81-1.32
			c-0.26-0.42-0.48-0.78-0.67-1.07h-0.06v9.2h-2.84V234.16z"/>
		<path class="st0" d="M88.86,234.16h11.1v2.5h-4.04v11.5H92.9v-11.5h-4.04V234.16z"/>
		<path class="st0" d="M104.18,248.16v-14h9.54v2.48h-6.58v3.08h6.12v2.48h-6.12v3.48h6.68v2.48H104.18z"/>
		<path class="st0" d="M128.94,238.42c0,1.04-0.24,1.89-0.71,2.54c-0.47,0.65-1.12,1.14-1.95,1.46l3.22,5.74h-3.3l-2.9-5.3h-1.86
			v5.3h-2.98v-14h5.12c0.81,0,1.55,0.08,2.21,0.25s1.22,0.42,1.69,0.77c0.47,0.35,0.83,0.79,1.08,1.32
			C128.81,237.03,128.94,237.67,128.94,238.42z M125.86,238.44c0-0.68-0.22-1.15-0.65-1.41c-0.43-0.26-1.09-0.39-1.97-0.39h-1.8
			v3.78h1.8c0.88,0,1.54-0.15,1.97-0.45C125.64,239.67,125.86,239.16,125.86,238.44z"/>
		<path class="st0" d="M133.98,234.16h5.22c1.07,0,2.03,0.16,2.88,0.47c0.85,0.31,1.57,0.77,2.16,1.36
			c0.59,0.59,1.04,1.32,1.35,2.19c0.31,0.87,0.47,1.86,0.47,2.98s-0.16,2.11-0.47,2.98c-0.31,0.87-0.76,1.6-1.35,2.19
			c-0.59,0.59-1.31,1.05-2.16,1.36c-0.85,0.31-1.81,0.47-2.88,0.47h-5.22V234.16z M142.96,241.16c0-0.68-0.08-1.3-0.23-1.85
			c-0.15-0.55-0.39-1.03-0.7-1.43c-0.31-0.4-0.71-0.71-1.19-0.92c-0.48-0.21-1.05-0.32-1.72-0.32H137v9.04h2.12
			c0.67,0,1.24-0.11,1.72-0.32c0.48-0.21,0.88-0.52,1.19-0.92c0.31-0.4,0.55-0.88,0.7-1.43
			C142.88,242.46,142.96,241.84,142.96,241.16z"/>
		<path class="st0" d="M150.76,234.16h3v14h-3V234.16z"/>
		<path class="st0" d="M161.76,237.84c0,0.6,0.26,1.03,0.78,1.29c0.52,0.26,1.35,0.48,2.48,0.67c1.67,0.28,2.89,0.74,3.67,1.38
			c0.78,0.64,1.17,1.59,1.17,2.86c0,0.68-0.14,1.29-0.42,1.83c-0.28,0.54-0.67,1-1.17,1.38s-1.1,0.67-1.79,0.88
			c-0.69,0.21-1.45,0.31-2.26,0.31c-0.88,0-1.67-0.12-2.38-0.35c-0.71-0.23-1.31-0.54-1.8-0.93s-0.88-0.84-1.16-1.36
			c-0.28-0.52-0.43-1.06-0.46-1.62l3-0.48c0.07,0.68,0.33,1.24,0.79,1.67c0.46,0.43,1.13,0.65,2.01,0.65c0.36,0,0.7-0.03,1.01-0.1
			c0.31-0.07,0.59-0.18,0.82-0.33c0.23-0.15,0.42-0.34,0.55-0.57c0.13-0.23,0.2-0.5,0.2-0.82c0-0.52-0.22-0.92-0.65-1.2
			c-0.43-0.28-1.2-0.51-2.29-0.68c-0.73-0.12-1.41-0.27-2.04-0.46c-0.63-0.19-1.17-0.44-1.63-0.77c-0.46-0.33-0.82-0.73-1.08-1.22
			c-0.26-0.49-0.39-1.08-0.39-1.79c0-0.71,0.13-1.32,0.4-1.84c0.27-0.52,0.64-0.96,1.12-1.31c0.48-0.35,1.05-0.62,1.7-0.79
			c0.65-0.17,1.37-0.26,2.14-0.26c0.72,0,1.39,0.08,2.02,0.25c0.63,0.17,1.18,0.41,1.67,0.74c0.49,0.33,0.89,0.73,1.21,1.21
			c0.32,0.48,0.54,1.03,0.66,1.64l-3.04,0.66c-0.11-0.64-0.38-1.15-0.82-1.52s-1.03-0.56-1.78-0.56c-0.76,0-1.32,0.14-1.69,0.42
			C161.94,237,161.76,237.37,161.76,237.84z"/>
		<path class="st0" d="M173.94,241.16c0-1.15,0.16-2.17,0.48-3.07c0.32-0.9,0.78-1.66,1.37-2.29c0.59-0.63,1.31-1.1,2.16-1.43
			c0.85-0.33,1.8-0.49,2.85-0.49c1.49,0,2.75,0.33,3.76,0.98c1.01,0.65,1.73,1.65,2.16,2.98l-2.92,1.02
			c-0.24-0.79-0.6-1.4-1.08-1.83c-0.48-0.43-1.14-0.65-1.98-0.65c-0.61,0-1.15,0.12-1.62,0.36s-0.85,0.57-1.16,0.99
			s-0.54,0.92-0.69,1.51c-0.15,0.59-0.23,1.23-0.23,1.92s0.08,1.33,0.23,1.91c0.15,0.58,0.38,1.08,0.69,1.51s0.69,0.76,1.16,1
			s1.01,0.36,1.64,0.36c0.77,0,1.4-0.19,1.89-0.58c0.49-0.39,0.86-0.97,1.11-1.76l2.88,1.02c-0.47,1.19-1.19,2.12-2.16,2.8
			c-0.97,0.68-2.23,1.02-3.76,1.02c-1.03,0-1.96-0.16-2.79-0.49c-0.83-0.33-1.55-0.8-2.14-1.42s-1.05-1.38-1.37-2.29
			C174.1,243.33,173.94,242.31,173.94,241.16z"/>
		<path class="st0" d="M191.12,234.16h3v14h-3V234.16z"/>
		<path class="st0" d="M202.38,243.24v4.92h-2.98v-14h5.32c0.84,0,1.6,0.09,2.28,0.26c0.68,0.17,1.26,0.44,1.74,0.8
			c0.48,0.36,0.85,0.82,1.12,1.38c0.27,0.56,0.4,1.23,0.4,2.02c0,0.8-0.14,1.49-0.41,2.07s-0.65,1.06-1.14,1.44
			c-0.49,0.38-1.07,0.66-1.75,0.84c-0.68,0.18-1.43,0.27-2.24,0.27H202.38z M207.2,238.62c0-0.76-0.23-1.28-0.69-1.56
			c-0.46-0.28-1.16-0.42-2.09-0.42h-2.04v4.12h2.04c0.93,0,1.63-0.17,2.09-0.5C206.97,239.93,207.2,239.38,207.2,238.62z"/>
		<path class="st0" d="M214.66,234.16h3v11.5h6.12v2.5h-9.12V234.16z"/>
		<path class="st0" d="M227.98,234.16h3v14h-3V234.16z"/>
		<path class="st0" d="M236.26,234.16h3.12c0.81,1.32,1.59,2.57,2.32,3.76c0.44,0.71,0.8,1.29,1.08,1.75s0.56,0.92,0.84,1.37
			s0.55,0.88,0.8,1.29c0.25,0.41,0.47,0.75,0.64,1.03h0.06v-9.2h2.84v14h-3.12c-0.8-1.29-1.56-2.53-2.28-3.7
			c-0.43-0.69-0.78-1.27-1.07-1.73s-0.57-0.92-0.85-1.38c-0.28-0.46-0.55-0.9-0.81-1.32s-0.48-0.78-0.67-1.07h-0.06v9.2h-2.84
			V234.16z"/>
		<path class="st0" d="M265.4,248.16h-3.1l-1.12-3.24h-5.02l-1.12,3.24h-2.94l5.04-14h3.22L265.4,248.16z M258.64,237.44
			c-0.03,0.11-0.07,0.26-0.14,0.47c-0.07,0.21-0.14,0.44-0.22,0.7c-0.08,0.26-0.17,0.54-0.27,0.84s-0.2,0.59-0.29,0.87
			c-0.23,0.69-0.47,1.43-0.74,2.22h3.38c-0.27-0.79-0.51-1.53-0.74-2.22c-0.15-0.4-0.26-0.73-0.35-0.99s-0.17-0.51-0.24-0.75
			c-0.07-0.24-0.14-0.46-0.21-0.67c-0.07-0.21-0.11-0.36-0.14-0.47H258.64z"/>
		<path class="st0" d="M280.02,238.42c0,1.04-0.24,1.89-0.71,2.54s-1.12,1.14-1.95,1.46l3.22,5.74h-3.3l-2.9-5.3h-1.86v5.3h-2.98
			v-14h5.12c0.81,0,1.55,0.08,2.21,0.25c0.66,0.17,1.22,0.42,1.69,0.77c0.47,0.35,0.83,0.79,1.08,1.32
			C279.89,237.03,280.02,237.67,280.02,238.42z M276.94,238.44c0-0.68-0.22-1.15-0.65-1.41c-0.43-0.26-1.09-0.39-1.97-0.39h-1.8
			v3.78h1.8c0.88,0,1.54-0.15,1.97-0.45C276.72,239.67,276.94,239.16,276.94,238.44z"/>
		<path class="st0" d="M288.3,242.3l-5.3-8.14h3.44l3.42,5.36l3.4-5.36h3.34l-5.3,8.14v5.86h-3V242.3z"/>
	</g>
</g>
<g id="LINE_TWO">
	<g>
		<path class="st0" d="M150.71,258.94c0-1.15,0.16-2.17,0.48-3.07c0.32-0.9,0.78-1.66,1.37-2.29c0.59-0.63,1.31-1.1,2.16-1.43
			c0.85-0.33,1.8-0.49,2.85-0.49c1.49,0,2.75,0.33,3.76,0.98c1.01,0.65,1.73,1.65,2.16,2.98l-2.92,1.02
			c-0.24-0.79-0.6-1.4-1.08-1.83c-0.48-0.43-1.14-0.65-1.98-0.65c-0.61,0-1.15,0.12-1.62,0.36c-0.47,0.24-0.85,0.57-1.16,0.99
			s-0.54,0.92-0.69,1.51c-0.15,0.59-0.23,1.23-0.23,1.92s0.08,1.33,0.23,1.91c0.15,0.58,0.38,1.08,0.69,1.51s0.69,0.76,1.16,1
			c0.47,0.24,1.01,0.36,1.64,0.36c0.77,0,1.4-0.19,1.89-0.58c0.49-0.39,0.86-0.97,1.11-1.76l2.88,1.02
			c-0.47,1.19-1.19,2.12-2.16,2.8c-0.97,0.68-2.23,1.02-3.76,1.02c-1.03,0-1.96-0.16-2.79-0.49c-0.83-0.33-1.55-0.8-2.14-1.42
			s-1.05-1.38-1.37-2.29C150.87,261.12,150.71,260.09,150.71,258.94z"/>
		<path class="st0" d="M180.05,265.94h-3.1l-1.12-3.24h-5.02l-1.12,3.24h-2.94l5.04-14h3.22L180.05,265.94z M173.29,255.23
			c-0.03,0.11-0.07,0.26-0.14,0.47c-0.07,0.21-0.14,0.44-0.22,0.7s-0.17,0.54-0.27,0.84s-0.2,0.59-0.29,0.87
			c-0.23,0.69-0.47,1.43-0.74,2.22h3.38c-0.27-0.79-0.51-1.53-0.74-2.22c-0.15-0.4-0.26-0.73-0.35-0.99
			c-0.09-0.26-0.17-0.51-0.24-0.75c-0.07-0.24-0.14-0.46-0.21-0.67s-0.11-0.36-0.14-0.47H173.29z"/>
		<path class="st0" d="M194.67,256.2c0,1.04-0.24,1.89-0.71,2.54s-1.12,1.14-1.95,1.46l3.22,5.74h-3.3l-2.9-5.3h-1.86v5.3h-2.98v-14
			h5.12c0.81,0,1.55,0.08,2.21,0.25c0.66,0.17,1.22,0.42,1.69,0.77c0.47,0.35,0.83,0.79,1.08,1.32
			C194.54,254.82,194.67,255.46,194.67,256.2z M191.59,256.23c0-0.68-0.22-1.15-0.65-1.41c-0.43-0.26-1.09-0.39-1.97-0.39h-1.8v3.78
			h1.8c0.88,0,1.54-0.15,1.97-0.45C191.37,257.45,191.59,256.94,191.59,256.23z"/>
		<path class="st0" d="M199.71,265.94v-14h9.54v2.48h-6.58v3.08h6.12v2.48h-6.12v3.48h6.68v2.48H199.71z"/>
	</g>
</g>
<g id="ICON">
	<g>
		<path class="st0" d="M154.44,198.71c-0.93-0.42-1.93-0.74-2.78-1.29c-2.91-1.88-3.75-6.15-1.94-9.12
			c2.39-3.93,7.78-4.6,11.04-1.21c0.99,1.03,1.58,2.3,1.76,3.72c0.29,2.26-0.32,4.28-1.92,5.92c-0.97,0.99-2.16,1.68-3.58,1.87
			c-0.06,0.01-0.11,0.08-0.16,0.12C156.05,198.71,155.25,198.71,154.44,198.71z"/>
		<path class="st0" d="M240.2,142.34c-0.07,0.29-0.15,0.57-0.22,0.86c-0.6,2.65-2.27,4.4-4.79,5.16c-2.49,0.75-5.47,0.09-7.39-2.4
			c-0.97-1.25-1.5-2.66-1.49-4.19c0.03-3.79,2.88-6.89,6.87-6.98c3.47-0.07,6.61,2.7,6.89,6.03c0.01,0.08,0.09,0.16,0.13,0.23
			C240.2,141.49,240.2,141.91,240.2,142.34z"/>
		<path class="st63" d="M180.75,124.03c0.28-1.78,0.55-3.45,0.81-5.13c0.26-1.6,0.52-3.2,0.78-4.81c0.22-1.38,0.43-2.75,0.64-4.13
			c0.21-1.33,0.4-2.66,0.65-3.98c0.52-2.71-0.02-5.16-1.96-7.16c-1.39-1.43-3.14-2.31-5.18-2.19c-2.05,0.12-4.1,0.34-6.12,0.68
			c-2.14,0.36-4.24,0.98-6.38,1.39c-2.46,0.47-4.17-1.06-4.13-3.15c0.03-1.73,1.04-2.79,2.8-3.19c1.65-0.37,3.31-0.73,4.98-1.04
			c0.94-0.18,1.89-0.32,2.84-0.37c1.81-0.09,3.64-0.23,5.45-0.12c2.18,0.14,4.36,0.47,6.52,0.82c3.73,0.6,7.26,1.87,10.65,3.51
			c0.73,0.35,1.46,0.73,2.15,1.16c0.2,0.12,0.34,0.47,0.35,0.72c0.05,2.35,0.89,4.36,2.55,6c1.66,1.64,3.64,2.69,6,2.47
			c1.54-0.14,2.51,0.61,3.49,1.51c1.36,1.23,2.75,2.44,4.02,3.77c2.24,2.35,4.35,4.83,6.04,7.61c1.63,2.67,0.43,6.14-2.1,7.3
			c-1.98,0.91-4.03,1.65-6.07,2.43c-3.09,1.2-6.2,2.34-9.28,3.57c-2.13,0.85-4.21-0.26-4.4-2.52c-0.09-1.09,0.38-2.38,1.78-2.93
			c3.76-1.45,7.53-2.91,11.29-4.37c1.34-0.52,1.88-1.17,1.7-2.43c-0.08-0.57-0.49-1.13-0.85-1.62c-0.47-0.64-1.03-1.21-1.63-1.91
			c-4.97,4.27-9.97,8.55-15.02,12.9C189.53,125.91,185.42,124.26,180.75,124.03z"/>
		<path class="st63" d="M190.52,182.99c-0.2-1.1-0.39-2.22-0.6-3.33c-0.37-2.03-0.75-4.05-1.13-6.08c-0.33-1.77-0.68-3.55-1.02-5.32
			c-0.27-1.43-0.55-2.86-0.82-4.29c-0.1-0.51,0.29-0.59,0.63-0.78c1.43-0.77,2.9-1.49,4.26-2.37c2.09-1.35,3.73-3.18,5.1-5.26
			c0.2-0.3,0.32-0.39,0.63-0.13c2.91,2.36,5.83,4.71,8.75,7.06c1.99,1.61,3.96,3.25,5.98,4.82c1.07,0.83,2.3,1.31,3.7,1.46
			c1.86,0.19,3.49-0.28,4.98-1.31c1.15-0.79,2.07-1.84,2.6-3.15c1.08-2.7,2.13-5.42,3.15-8.15c0.39-1.04,0.67-2.11,0.96-3.18
			c0.41-1.53,2.05-2.31,3.46-2.1c1.39,0.21,2.87,1.44,2.62,3.09c-0.24,1.64-0.66,3.27-1.2,4.83c-1.51,4.42-3.67,8.5-6.6,12.15
			c-1.31,1.62-2.64,3.24-4.14,4.68c-2.4,2.31-5.01,4.38-7.95,5.99c-0.16,0.09-0.48,0.06-0.65-0.04c-1.27-0.74-2.66-1.14-4.11-1.17
			c-1.63-0.03-3.17,0.39-4.6,1.22c-1.61,0.94-2.78,2.25-3.54,3.95c-0.19,0.42-0.47,0.66-0.92,0.84c-3.29,1.28-6.68,2.22-10.14,2.88
			c-1.74,0.33-3.53,0.34-5.28,0.63c-1.39,0.23-2.66,0.04-3.81-0.7c-2.05-1.33-2.92-3.56-2.36-6.09c0.31-1.42,0.45-2.89,0.68-4.33
			c0.2-1.26,0.42-2.52,0.62-3.78c0.23-1.42,0.42-2.85,0.66-4.26c0.21-1.21,0.39-2.43,0.72-3.6c0.36-1.27,1.89-1.94,2.93-1.81
			c1.46,0.18,2.61,1.16,2.69,2.42c0.08,1.15-0.15,2.33-0.31,3.49c-0.23,1.65-0.52,3.3-0.79,4.95c-0.22,1.35-0.39,2.71-0.67,4.05
			c-0.3,1.47-0.04,2.48,1.17,3.06c0.54,0.26,1.28,0.18,1.91,0.12C188.86,183.37,189.63,183.16,190.52,182.99z"/>
		<path class="st63" d="M141.29,134.19c6.24,2.19,12.44,4.37,18.66,6.56c-0.68,4.6-0.13,8.96,2.09,13.12
			c-1.09,0.43-2.11,0.83-3.14,1.23c-3.88,1.49-7.76,2.96-11.64,4.45c-1.36,0.53-2.76,0.99-4.03,1.7c-2.13,1.18-3.36,3.04-3.72,5.51
			c-0.38,2.58,0.78,4.57,2.2,6.52c1.95,2.68,4.12,5.16,6.48,7.49c1.57,1.56,1.67,2.91,0.58,4.55c-0.96,1.45-3.28,1.73-4.54,0.54
			c-2.96-2.8-5.47-5.94-7.55-9.45c-1.69-2.85-3.05-5.85-3.96-9.02c-0.66-2.31-1.14-4.68-1.54-7.05c-0.28-1.67-0.31-3.39-0.45-5.09
			c-0.03-0.34,0.09-0.51,0.4-0.7c3.19-1.97,4.59-4.88,4.26-8.58c-0.12-1.32-0.49-2.63-1.38-3.66c-0.75-0.88-0.44-1.78-0.26-2.66
			c0.46-2.15,0.9-4.31,1.54-6.41c0.65-2.15,1.5-4.23,2.31-6.33c0.31-0.8,0.74-1.55,1.14-2.3c1.43-2.7,5.28-3.44,7.81-1.42
			c1.7,1.36,3.39,2.73,5.09,4.09c1.67,1.35,3.35,2.68,5.01,4.04c0.96,0.78,1.94,1.55,2.83,2.4c0.76,0.73,0.93,1.68,0.67,2.71
			c-0.3,1.16-1.01,1.9-2.17,2.23c-1.44,0.41-2.42-0.41-3.42-1.22c-1.63-1.32-3.28-2.63-4.92-3.95c-1.27-1.02-2.57-2.02-3.8-3.1
			c-1.13-0.98-3-0.68-3.59,0.97C141.92,132.28,141.61,133.23,141.29,134.19z"/>
		<path class="st0" d="M169.45,105.71c0.27,1.47,0.53,2.84,0.78,4.2c0.37,2.01,0.73,4.01,1.11,6.02c0.39,2.07,0.78,4.14,1.18,6.21
			c0.16,0.84,0.34,1.68,0.51,2.52c0.09,0.44-0.09,0.68-0.51,0.83c-2.28,0.83-4.31,2.11-6.08,3.72c-1.24,1.13-2.26,2.52-3.3,3.85
			c-0.34,0.44-0.49,0.46-0.89,0.13c-1.93-1.58-3.88-3.13-5.81-4.7c-1.85-1.5-3.66-3.04-5.52-4.51c-1.51-1.19-2.88-2.55-4.65-3.43
			c-2.94-1.46-7.04-0.28-8.79,2.14c-1.26,1.74-2.03,3.69-2.75,5.66c-0.86,2.36-1.51,4.8-2.32,7.18c-0.44,1.29-1.37,2.19-2.64,2.24
			c-1.86,0.08-3.11-0.65-3.49-2.16c-0.19-0.74-0.11-1.61,0.09-2.36c1.27-4.68,3.2-9.07,5.9-13.12c1.95-2.92,4.25-5.54,6.81-7.91
			c2.08-1.93,4.39-3.59,6.82-5.06c0.24-0.14,0.71-0.12,0.96,0.02c1.44,0.84,2.98,1.15,4.62,1.08c2.89-0.14,5.14-1.47,6.81-3.81
			c0.27-0.37,0.53-0.78,0.66-1.21c0.2-0.64,0.71-0.86,1.22-1.02c2.97-0.89,5.93-1.88,8.95-2.57c2.54-0.58,5.14-1,7.77-0.89
			c2.33,0.1,4.38,2.04,4.69,4.4c0.19,1.49-0.16,2.9-0.4,4.33c-0.28,1.65-0.48,3.31-0.75,4.96c-0.46,2.91-0.92,5.82-1.43,8.72
			c-0.19,1.1-1.33,2.35-3.37,2.14c-0.95-0.1-2.38-1-2.41-2.51c-0.02-1.12,0.14-2.24,0.29-3.35c0.24-1.72,0.55-3.44,0.82-5.16
			c0.24-1.54,0.46-3.08,0.73-4.61c0.22-1.26-0.72-2.58-2-2.51C171.86,105.22,170.68,105.51,169.45,105.71z"/>
		<path class="st0" d="M151.82,172.81c1.55-1.34,3.03-2.63,4.53-3.9c1.81-1.55,3.65-3.07,5.46-4.62c1.19-1.02,2.36-2.07,3.54-3.11
			c0.41-0.36,0.79-0.74,1.23-1.06c0.13-0.09,0.46-0.09,0.58,0.01c2.54,2.14,5.5,3.41,8.69,4.18c0.81,0.19,1.66,0.22,2.49,0.33
			c0.3,0.04,0.59,0.1,0.89,0.16c-0.46,2.97-0.9,5.9-1.37,8.82c-0.45,2.8-0.97,5.58-1.39,8.38c-0.26,1.7-0.52,3.41,0.12,5.1
			c0.87,2.29,2.41,3.85,4.75,4.68c1.62,0.57,3.21,0.39,4.83,0.15c1.63-0.24,3.27-0.44,4.89-0.74c1.5-0.28,3-0.59,4.47-1.02
			c1.28-0.37,2.45-0.33,3.48,0.53c0.86,0.71,1.3,1.71,1.11,2.81c-0.22,1.27-0.88,2.33-2.25,2.66c-2.12,0.5-4.23,1.11-6.38,1.37
			c-2.33,0.29-4.7,0.36-7.05,0.29c-2.13-0.06-4.27-0.38-6.39-0.67c-4.11-0.56-7.93-2.04-11.64-3.83c-0.67-0.32-1.31-0.7-2.01-1.07
			c0.07-1.58-0.22-3.14-1.03-4.54c-1.42-2.45-3.48-4.08-6.35-4.46c-0.84-0.11-1.71,0-2.56-0.04c-0.21-0.01-0.45-0.13-0.62-0.27
			c-2.76-2.22-5.33-4.64-7.61-7.34c-1.51-1.79-2.91-3.7-4.12-5.7c-1.03-1.71-0.71-3.92,0.73-5.64c0.79-0.95,1.86-1.46,2.98-1.89
			c4.49-1.73,8.98-3.46,13.47-5.18c0.89-0.34,1.77-0.68,2.77-0.35c1.05,0.35,2.02,1.49,2.05,2.53c0.05,1.61-0.57,2.67-1.82,3.15
			c-3.72,1.42-7.44,2.85-11.16,4.28c-1.93,0.74-2.34,2.23-1.05,3.92C150.61,171.42,151.22,172.09,151.82,172.81z"/>
		<path class="st0" d="M198,134.84c1.05-0.4,2.06-0.79,3.07-1.18c4.09-1.57,8.18-3.14,12.27-4.73c1.57-0.61,3.23-1.07,4.55-2.2
			c1.51-1.29,2.4-2.9,2.59-4.91c0.16-1.77-0.19-3.41-1.16-4.88c-0.8-1.22-1.66-2.43-2.61-3.53c-1.74-2.03-3.59-3.97-5.36-5.97
			c-1.14-1.29-1.05-3.08,0.2-4.4c1.1-1.17,3.3-1.15,4.34-0.11c3.02,3.03,5.72,6.3,7.81,10.07c1.83,3.31,3.3,6.76,4.17,10.43
			c0.49,2.09,0.79,4.24,1.1,6.37c0.18,1.2,0.23,2.42,0.28,3.64c0.01,0.25-0.2,0.62-0.42,0.75c-2.37,1.42-3.78,3.54-4.2,6.2
			c-0.35,2.27,0.09,4.49,1.52,6.38c0.35,0.47,0.34,0.9,0.27,1.36c-0.83,5.27-2.4,10.31-4.66,15.15c-0.98,2.1-2.55,3.3-4.81,3.47
			c-1.38,0.11-2.63-0.45-3.71-1.32c-2.16-1.74-4.33-3.48-6.49-5.23c-1.62-1.31-3.22-2.64-4.84-3.97c-0.31-0.25-0.58-0.55-0.92-0.75
			c-1.36-0.82-1.6-2.88-0.75-4.15c0.93-1.38,2.83-1.75,4.21-0.75c1.25,0.9,2.42,1.91,3.62,2.88c2.03,1.65,4.05,3.31,6.1,4.95
			c1.37,1.1,2.95,0.56,3.62-1.15c0.28-0.71,0.46-1.46,0.75-2.16c0.18-0.44,0.06-0.54-0.35-0.69c-3.46-1.2-6.91-2.44-10.37-3.66
			c-2.44-0.86-4.89-1.72-7.34-2.56c-0.41-0.14-0.49-0.39-0.41-0.74c0.42-2.05,0.33-4.08,0.03-6.14
			C199.74,139.02,199,136.93,198,134.84z"/>
		<path class="st63" d="M119.8,147.02c0.07-3.87,3.08-6.94,6.92-6.93c3.97,0.01,6.92,3.05,6.95,6.91c0.03,3.85-3.03,7.05-7.09,6.95
			C122.74,153.86,119.91,150.94,119.8,147.02z"/>
		<path class="st63" d="M208.98,182.24c3.99,0.07,6.87,3,6.88,6.87c0.01,3.81-2.56,6.89-6.92,6.98c-3.7,0.07-6.95-2.78-6.91-7.11
			C202.05,185.38,205.05,182.17,208.98,182.24z"/>
		<path class="st0" d="M157.99,99.5c-0.13,4.36-3.25,7.05-6.98,7c-4.16-0.06-6.86-3.1-6.88-6.96c-0.02-3.78,2.84-6.86,6.93-6.88
			C154.98,92.64,157.9,95.7,157.99,99.5z"/>
		<path class="st63" d="M197.47,96.89c-0.2-3.65,2.97-6.94,6.82-6.91c3.84,0.02,7.08,2.94,6.93,7.21c-0.13,3.74-3.06,6.6-6.89,6.66
			C200.52,103.91,197.25,100.57,197.47,96.89z"/>
	</g>
</g>
</svg>
