<?xml version="1.0" encoding="utf-8"?>
<!-- Generator: Adobe Illustrator 23.1.0, SVG Export Plug-In . SVG Version: 6.00 Build 0)  -->
<svg version="1.1" xmlns="http://www.w3.org/2000/svg" xmlns:xlink="http://www.w3.org/1999/xlink" x="0px" y="0px"
	 viewBox="0 0 360 360" style="enable-background:new 0 0 360 360;" xml:space="preserve">
<style type="text/css">
	.st0{fill:#FFFFFF;}
	.st1{fill:#0E6E39;}
	.st2{fill:#0C6E39;}
	.st3{fill:#4F497B;}
	.st4{fill:#216885;}
	.st5{fill:#F0492D;}
	.st6{fill:#EF3F25;}
	.st7{fill:#236886;}
	.st8{fill:#256887;}
	.st9{fill:#D2BF2D;}
	.st10{display:none;}
	.st11{display:inline;fill:none;stroke:#000000;stroke-width:0.25;stroke-miterlimit:10;}
	.st12{display:inline;fill:none;stroke:#FFFFFF;stroke-width:0.25;stroke-miterlimit:10;}
	.st13{display:inline;fill:none;stroke:#FFFFFF;stroke-width:0.25;stroke-linecap:round;stroke-miterlimit:10;}
	.st14{display:inline;fill:none;stroke:#000000;stroke-width:0.25;stroke-linecap:round;stroke-miterlimit:10;}
	.st15{fill:#4F4A7C;}
	.st16{fill:none;stroke:#FFFFFF;stroke-miterlimit:10;}
	.st17{stroke:#FFFFFF;stroke-miterlimit:10;}
	.st18{fill:none;stroke:#FFFFFF;stroke-width:3;stroke-miterlimit:10;}
	.st19{fill:none;stroke:#FFFFFF;stroke-linecap:round;stroke-miterlimit:10;}
	.st20{fill:none;stroke:#236886;stroke-width:5;stroke-miterlimit:10;}
	.st21{fill:none;stroke:#236886;stroke-width:5;stroke-linecap:round;stroke-miterlimit:10;}
	.st22{fill:none;stroke:#FFFFFF;stroke-width:5;stroke-miterlimit:10;}
	.st23{fill:none;stroke:#FFFFFF;stroke-width:5;stroke-linecap:round;stroke-miterlimit:10;}
	.st24{fill:none;stroke:#4F497B;stroke-width:3;stroke-miterlimit:10;}
	.st25{fill:none;stroke:#4F497B;stroke-miterlimit:10;}
	.st26{fill:#FFFFFF;stroke:#4F497B;stroke-miterlimit:10;}
	.st27{fill:#FFFFFF;stroke:#4F497B;stroke-width:2;stroke-miterlimit:10;}
	.st28{fill:none;stroke:#4F497B;stroke-width:2;stroke-linecap:round;stroke-miterlimit:10;}
	.st29{stroke:#FFFFFF;stroke-width:2;stroke-miterlimit:10;}
	.st30{fill:none;stroke:#FFFFFF;stroke-width:2;stroke-linecap:round;stroke-miterlimit:10;}
	.st31{fill:none;stroke:#0C6E39;stroke-width:3;stroke-miterlimit:10;}
	.st32{fill:none;stroke:#EF3F25;stroke-miterlimit:10;}
	.st33{fill:none;stroke:#EF3F25;stroke-width:3;stroke-miterlimit:10;}
	.st34{fill:none;stroke:#4F4A7C;stroke-width:3;stroke-miterlimit:10;}
	.st35{fill:none;stroke:#4F4A7C;stroke-width:5;stroke-linecap:round;stroke-miterlimit:10;}
	.st36{fill:none;stroke:#EF3F25;stroke-width:3;stroke-linecap:round;stroke-miterlimit:10;}
	.st37{fill:none;stroke:#EF3F25;stroke-width:5;stroke-linecap:round;stroke-miterlimit:10;}
	.st38{fill:none;stroke:#FFFFFF;stroke-width:3;stroke-linecap:round;stroke-miterlimit:10;}
	.st39{fill:none;stroke:#4F497B;stroke-width:5;stroke-linecap:round;stroke-miterlimit:10;}
	.st40{fill:#FFFFFF;stroke:#0E6E39;stroke-width:3;stroke-linejoin:round;stroke-miterlimit:10;}
	.st41{fill:none;stroke:#0E6E39;stroke-width:3;stroke-linejoin:round;stroke-miterlimit:10;}
	.st42{stroke:#FFFFFF;stroke-width:3;stroke-linejoin:round;stroke-miterlimit:10;}
	.st43{fill:none;stroke:#FFFFFF;stroke-width:3;stroke-linejoin:round;stroke-miterlimit:10;}
	.st44{fill:none;stroke:#0C6E39;stroke-width:5;stroke-linecap:round;stroke-miterlimit:10;}
	.st45{fill:none;stroke:#0C6E39;stroke-width:3;stroke-linecap:round;stroke-miterlimit:10;}
	.st46{fill:none;stroke:#0C6E39;stroke-linecap:round;stroke-linejoin:round;stroke-miterlimit:10;}
	.st47{fill:#0C6E39;stroke:#0C6E39;stroke-width:0;stroke-miterlimit:10;}
	.st48{fill:none;stroke:#0C6E39;stroke-width:3;stroke-linecap:round;stroke-linejoin:round;stroke-miterlimit:10;}
	.st49{fill:none;stroke:#0C6E39;stroke-linecap:round;stroke-miterlimit:10;}
	.st50{fill:none;stroke:#FFFFFF;stroke-linecap:round;stroke-linejoin:round;stroke-miterlimit:10;}
	.st51{fill:none;stroke:#FFFFFF;stroke-width:3;stroke-linecap:round;stroke-linejoin:round;stroke-miterlimit:10;}
	.st52{fill:none;stroke:#4F4A7C;stroke-miterlimit:10;}
	.st53{fill:#FFFFFF;stroke:#4F4A7C;stroke-width:2;stroke-miterlimit:10;}
	.st54{fill:#FFFFFF;stroke:#4F497B;stroke-width:5;stroke-miterlimit:10;}
	.st55{stroke:#FFFFFF;stroke-width:5;stroke-miterlimit:10;}
	.st56{fill:none;stroke:#EF3F25;stroke-width:2;stroke-linecap:round;stroke-miterlimit:10;}
	.st57{fill:none;stroke:#FFFFFF;stroke-width:1.5;stroke-miterlimit:10;}
	.st58{fill:none;stroke:#FFFFFF;stroke-width:1.5;stroke-linecap:round;stroke-miterlimit:10;}
	.st59{fill:none;stroke:#0E6E39;stroke-width:3;stroke-miterlimit:10;}
	.st60{fill:none;stroke:#0E6E39;stroke-width:1.5;stroke-miterlimit:10;}
	.st61{fill:none;stroke:#0E6E39;stroke-width:1.5;stroke-linecap:round;stroke-miterlimit:10;}
	.st62{fill:none;stroke:#EF3F25;stroke-width:0.7099;stroke-miterlimit:10;}
	.st63{fill:none;stroke:#FFFFFF;stroke-width:0.7099;stroke-miterlimit:10;}
	.st64{fill:#EF4025;}
	.st65{fill:#505050;stroke:#4F4A7C;stroke-width:2.9281;stroke-miterlimit:10;}
	.st66{fill:#FFFFFF;stroke:#FFFFFF;stroke-width:2.9281;stroke-miterlimit:10;}
	.st67{fill:none;stroke:#FFFFFF;stroke-width:3.2577;stroke-miterlimit:10;}
	.st68{fill:none;stroke:#FFFFFF;stroke-width:3.2577;stroke-linecap:round;stroke-linejoin:round;stroke-miterlimit:10;}
	.st69{fill:none;stroke:#256887;stroke-width:3.2577;stroke-miterlimit:10;}
	.st70{fill:none;stroke:#256887;stroke-width:3.2577;stroke-linecap:round;stroke-linejoin:round;stroke-miterlimit:10;}
	.st71{fill:#FFFFFF;stroke:#FFFFFF;stroke-width:2;stroke-miterlimit:10;}
	.st72{fill:#D2BF2D;stroke:#D2BF2D;stroke-width:2;stroke-miterlimit:10;}
	.st73{fill:#086E38;}
	.st74{fill:#256887;stroke:#256887;stroke-width:4;stroke-miterlimit:10;}
	.st75{fill:#FFFFFF;stroke:#FFFFFF;stroke-width:4;stroke-miterlimit:10;}
	.st76{fill:#4F4B7D;}
	.st77{fill:#256887;stroke:#256887;stroke-width:2.8997;stroke-miterlimit:10;}
	.st78{fill:#FFFFFF;stroke:#FFFFFF;stroke-width:2.8997;stroke-miterlimit:10;}
	.st79{fill:none;stroke:#FFFFFF;stroke-width:2.2399;stroke-miterlimit:10;}
	.st80{fill:none;stroke:#FFFFFF;stroke-width:2;stroke-miterlimit:10;}
	.st81{fill:none;stroke:#FFFFFF;stroke-width:1.4254;stroke-miterlimit:10;}
	.st82{fill:none;stroke:#EF4025;stroke-width:2.2399;stroke-miterlimit:10;}
	.st83{fill:none;stroke:#EF4025;stroke-width:2;stroke-miterlimit:10;}
	.st84{fill:none;stroke:#EF4025;stroke-width:1.4254;stroke-miterlimit:10;}
	.st85{fill:none;stroke:#4F497B;stroke-linecap:round;stroke-miterlimit:10;}
</style>
<g id="White">
	<rect x="0" class="st0" width="360.29" height="360.29"/>
</g>
<g id="BACKGROUND">
	<rect y="336.06" class="st6" width="360" height="23.94"/>
	<g>
		<path class="st0" d="M208.83,344.09h1.8v3.32h3.18v-3.32h1.8v8.4h-1.8v-3.56h-3.18v3.56h-1.8V344.09z"/>
		<path class="st0" d="M218.78,352.49v-8.4h5.72v1.49h-3.95v1.85h3.67v1.49h-3.67V351h4.01v1.49H218.78z"/>
		<path class="st0" d="M234.64,352.49h-1.86l-0.67-1.94h-3.01l-0.67,1.94h-1.76l3.02-8.4h1.93L234.64,352.49z M230.59,346.06
			c-0.02,0.06-0.04,0.16-0.08,0.28c-0.04,0.13-0.08,0.26-0.13,0.42c-0.05,0.16-0.1,0.32-0.16,0.5c-0.06,0.18-0.12,0.35-0.17,0.52
			c-0.13,0.42-0.28,0.86-0.44,1.33h2.03c-0.16-0.47-0.31-0.92-0.44-1.33c-0.09-0.24-0.16-0.44-0.21-0.59
			c-0.05-0.16-0.1-0.31-0.14-0.45c-0.04-0.14-0.09-0.28-0.13-0.4c-0.04-0.12-0.07-0.22-0.08-0.28H230.59z"/>
		<path class="st0" d="M237.13,344.09h1.8v6.9h3.67v1.5h-5.47V344.09z"/>
		<path class="st0" d="M243.34,344.09H250v1.5h-2.42v6.9h-1.81v-6.9h-2.42V344.09z"/>
		<path class="st0" d="M252.54,344.09h1.8v3.32h3.18v-3.32h1.8v8.4h-1.8v-3.56h-3.18v3.56h-1.8V344.09z"/>
		<path class="st0" d="M262.13,348.29c0-0.69,0.1-1.3,0.29-1.84s0.46-1,0.82-1.37c0.36-0.38,0.79-0.66,1.29-0.86
			c0.51-0.2,1.08-0.29,1.71-0.29c0.9,0,1.65,0.2,2.26,0.59c0.61,0.39,1.04,0.99,1.29,1.79l-1.75,0.61c-0.14-0.47-0.36-0.84-0.65-1.1
			c-0.29-0.26-0.69-0.39-1.19-0.39c-0.37,0-0.69,0.07-0.97,0.22c-0.28,0.14-0.51,0.34-0.7,0.59c-0.18,0.25-0.32,0.55-0.41,0.91
			c-0.09,0.35-0.14,0.74-0.14,1.15s0.04,0.8,0.14,1.15c0.09,0.35,0.23,0.65,0.41,0.91c0.19,0.26,0.42,0.46,0.7,0.6
			c0.28,0.14,0.61,0.22,0.98,0.22c0.46,0,0.84-0.12,1.13-0.35c0.29-0.23,0.51-0.58,0.67-1.06l1.73,0.61
			c-0.28,0.71-0.71,1.27-1.3,1.68c-0.58,0.41-1.34,0.61-2.26,0.61c-0.62,0-1.17-0.1-1.67-0.29s-0.93-0.48-1.28-0.85
			c-0.36-0.37-0.63-0.83-0.82-1.37S262.13,348.98,262.13,348.29z"/>
		<path class="st0" d="M279.74,352.49h-1.86l-0.67-1.94h-3.01l-0.67,1.94h-1.76l3.02-8.4h1.93L279.74,352.49z M275.68,346.06
			c-0.02,0.06-0.04,0.16-0.08,0.28c-0.04,0.13-0.08,0.26-0.13,0.42c-0.05,0.16-0.1,0.32-0.16,0.5c-0.06,0.18-0.12,0.35-0.17,0.52
			c-0.13,0.42-0.28,0.86-0.44,1.33h2.03c-0.16-0.47-0.31-0.92-0.44-1.33c-0.09-0.24-0.16-0.44-0.21-0.59
			c-0.05-0.16-0.1-0.31-0.14-0.45c-0.04-0.14-0.09-0.28-0.13-0.4c-0.04-0.12-0.07-0.22-0.08-0.28H275.68z"/>
		<path class="st0" d="M288.51,346.64c0,0.62-0.14,1.13-0.43,1.52c-0.28,0.39-0.67,0.68-1.17,0.88l1.93,3.44h-1.98l-1.74-3.18h-1.12
			v3.18h-1.79v-8.4h3.07c0.49,0,0.93,0.05,1.33,0.15c0.4,0.1,0.73,0.25,1.01,0.46s0.5,0.47,0.65,0.79
			C288.43,345.81,288.51,346.2,288.51,346.64z M286.66,346.66c0-0.41-0.13-0.69-0.39-0.85c-0.26-0.16-0.65-0.23-1.18-0.23h-1.08
			v2.27h1.08c0.53,0,0.92-0.09,1.18-0.27S286.66,347.09,286.66,346.66z"/>
		<path class="st0" d="M291.53,352.49v-8.4h5.72v1.49h-3.95v1.85h3.67v1.49h-3.67V351h4.01v1.49H291.53z"/>
		<path class="st0" d="M307.82,352.49c-0.12-0.33-0.27-0.76-0.45-1.29s-0.37-1.09-0.56-1.66c-0.19-0.58-0.38-1.14-0.56-1.69
			c-0.18-0.55-0.33-1.02-0.44-1.39h-0.04v6.04h-1.66v-8.4h2.52c0.34,1.02,0.66,1.96,0.94,2.82c0.17,0.51,0.3,0.93,0.41,1.24
			c0.11,0.32,0.21,0.62,0.3,0.91s0.18,0.55,0.25,0.78c0.08,0.23,0.13,0.4,0.16,0.5c0.03-0.1,0.08-0.27,0.16-0.5
			c0.07-0.23,0.16-0.51,0.26-0.82c0.1-0.32,0.21-0.66,0.32-1.02s0.23-0.73,0.35-1.09c0.27-0.86,0.57-1.8,0.9-2.82h2.51v8.4h-1.66
			v-6.04h-0.04c-0.08,0.25-0.18,0.55-0.29,0.89c-0.11,0.35-0.23,0.72-0.37,1.11c-0.13,0.39-0.27,0.79-0.4,1.19s-0.26,0.79-0.38,1.15
			c-0.12,0.36-0.23,0.69-0.33,0.99c-0.1,0.3-0.18,0.53-0.25,0.7H307.82z"/>
		<path class="st0" d="M316.03,348.29c0-0.68,0.1-1.29,0.29-1.83c0.2-0.54,0.47-1,0.83-1.37c0.36-0.38,0.79-0.66,1.29-0.86
			c0.5-0.2,1.06-0.3,1.68-0.3s1.18,0.1,1.68,0.3c0.5,0.2,0.93,0.49,1.29,0.86c0.36,0.38,0.63,0.83,0.83,1.37
			c0.2,0.54,0.29,1.15,0.29,1.83c0,0.68-0.1,1.29-0.29,1.83c-0.2,0.54-0.47,1-0.83,1.37c-0.36,0.38-0.79,0.66-1.29,0.86
			s-1.06,0.3-1.68,0.3s-1.18-0.1-1.68-0.3s-0.93-0.49-1.29-0.86c-0.36-0.38-0.63-0.83-0.83-1.37
			C316.12,349.58,316.03,348.97,316.03,348.29z M317.89,348.29c0,0.42,0.05,0.81,0.14,1.17c0.09,0.36,0.23,0.66,0.41,0.91
			s0.42,0.45,0.7,0.59c0.28,0.14,0.61,0.21,0.98,0.21s0.7-0.07,0.98-0.21c0.28-0.14,0.51-0.34,0.7-0.59s0.32-0.56,0.41-0.91
			c0.09-0.36,0.14-0.75,0.14-1.17c0-0.42-0.05-0.81-0.14-1.17c-0.09-0.36-0.23-0.66-0.41-0.91s-0.42-0.45-0.7-0.59
			c-0.28-0.14-0.61-0.21-0.98-0.21s-0.7,0.07-0.98,0.21c-0.28,0.14-0.51,0.34-0.7,0.59s-0.32,0.56-0.41,0.91
			C317.93,347.47,317.89,347.86,317.89,348.29z"/>
		<path class="st0" d="M327.03,344.09h3.13c0.64,0,1.22,0.09,1.73,0.28c0.51,0.19,0.94,0.46,1.29,0.82
			c0.35,0.36,0.62,0.79,0.81,1.31c0.19,0.52,0.28,1.12,0.28,1.79s-0.1,1.27-0.28,1.79c-0.19,0.52-0.46,0.96-0.81,1.31
			c-0.35,0.36-0.78,0.63-1.29,0.82c-0.51,0.19-1.09,0.28-1.73,0.28h-3.13V344.09z M332.42,348.29c0-0.41-0.04-0.78-0.14-1.11
			c-0.09-0.33-0.23-0.62-0.42-0.86c-0.19-0.24-0.43-0.42-0.71-0.55s-0.63-0.19-1.03-0.19h-1.27V351h1.27c0.4,0,0.74-0.06,1.03-0.19
			s0.53-0.31,0.71-0.55c0.19-0.24,0.33-0.53,0.42-0.86C332.37,349.07,332.42,348.7,332.42,348.29z"/>
		<path class="st0" d="M337.1,352.49v-8.4h5.72v1.49h-3.95v1.85h3.67v1.49h-3.67V351h4.01v1.49H337.1z"/>
		<path class="st0" d="M345.66,344.09h1.8v6.9h3.67v1.5h-5.47V344.09z"/>
	</g>
</g>
<g id="REF" class="st10">
	<rect x="7" y="90.33" class="st11" width="360" height="108"/>
	<line class="st14" x1="187" y1="0.19" x2="187" y2="360.06"/>
</g>
<g id="LINE_ONE">
	<g>
		<path class="st6" d="M65.58,243.24v4.92H62.6v-14h5.32c0.84,0,1.6,0.09,2.28,0.26c0.68,0.17,1.26,0.44,1.74,0.8
			c0.48,0.36,0.85,0.82,1.12,1.38c0.27,0.56,0.4,1.23,0.4,2.02c0,0.8-0.14,1.49-0.41,2.07c-0.27,0.58-0.65,1.06-1.14,1.44
			s-1.07,0.66-1.75,0.84c-0.68,0.18-1.43,0.27-2.24,0.27H65.58z M70.4,238.62c0-0.76-0.23-1.28-0.69-1.56
			c-0.46-0.28-1.16-0.42-2.09-0.42h-2.04v4.12h2.04c0.93,0,1.63-0.17,2.09-0.5C70.17,239.93,70.4,239.38,70.4,238.62z"/>
		<path class="st6" d="M77.86,234.16h3v5.54h5.3v-5.54h3v14h-3v-5.94h-5.3v5.94h-3V234.16z"/>
		<path class="st6" d="M98.48,242.3l-5.3-8.14h3.44l3.42,5.36l3.4-5.36h3.34l-5.3,8.14v5.86h-3V242.3z"/>
		<path class="st6" d="M112.92,237.84c0,0.6,0.26,1.03,0.78,1.29c0.52,0.26,1.35,0.48,2.48,0.67c1.67,0.28,2.89,0.74,3.67,1.38
			c0.78,0.64,1.17,1.59,1.17,2.86c0,0.68-0.14,1.29-0.42,1.83c-0.28,0.54-0.67,1-1.17,1.38s-1.1,0.67-1.79,0.88
			c-0.69,0.21-1.45,0.31-2.26,0.31c-0.88,0-1.67-0.12-2.38-0.35c-0.71-0.23-1.31-0.54-1.8-0.93s-0.88-0.84-1.16-1.36
			c-0.28-0.52-0.43-1.06-0.46-1.62l3-0.48c0.07,0.68,0.33,1.24,0.79,1.67c0.46,0.43,1.13,0.65,2.01,0.65c0.36,0,0.7-0.03,1.01-0.1
			c0.31-0.07,0.59-0.18,0.82-0.33c0.23-0.15,0.42-0.34,0.55-0.57c0.13-0.23,0.2-0.5,0.2-0.82c0-0.52-0.22-0.92-0.65-1.2
			c-0.43-0.28-1.2-0.51-2.29-0.68c-0.73-0.12-1.41-0.27-2.04-0.46s-1.17-0.44-1.63-0.77c-0.46-0.33-0.82-0.73-1.08-1.22
			c-0.26-0.49-0.39-1.08-0.39-1.79c0-0.71,0.13-1.32,0.4-1.84c0.27-0.52,0.64-0.96,1.12-1.31c0.48-0.35,1.05-0.62,1.7-0.79
			c0.65-0.17,1.37-0.26,2.14-0.26c0.72,0,1.39,0.08,2.02,0.25c0.63,0.17,1.18,0.41,1.67,0.74c0.49,0.33,0.89,0.73,1.21,1.21
			c0.32,0.48,0.54,1.03,0.66,1.64l-3.04,0.66c-0.11-0.64-0.38-1.15-0.82-1.52s-1.03-0.56-1.78-0.56c-0.76,0-1.32,0.14-1.69,0.42
			C113.1,237,112.92,237.37,112.92,237.84z"/>
		<path class="st6" d="M125.68,234.16h3v14h-3V234.16z"/>
		<path class="st6" d="M133.38,241.16c0-1.15,0.16-2.17,0.48-3.07c0.32-0.9,0.78-1.66,1.37-2.29c0.59-0.63,1.31-1.1,2.16-1.43
			c0.85-0.33,1.8-0.49,2.85-0.49c1.49,0,2.75,0.33,3.76,0.98s1.73,1.65,2.16,2.98l-2.92,1.02c-0.24-0.79-0.6-1.4-1.08-1.83
			s-1.14-0.65-1.98-0.65c-0.61,0-1.15,0.12-1.62,0.36c-0.47,0.24-0.85,0.57-1.16,0.99s-0.54,0.92-0.69,1.51s-0.23,1.23-0.23,1.92
			s0.08,1.33,0.23,1.91s0.38,1.08,0.69,1.51s0.69,0.76,1.16,1c0.47,0.24,1.01,0.36,1.64,0.36c0.77,0,1.4-0.19,1.89-0.58
			s0.86-0.97,1.11-1.76l2.88,1.02c-0.47,1.19-1.19,2.12-2.16,2.8c-0.97,0.68-2.23,1.02-3.76,1.02c-1.03,0-1.96-0.16-2.79-0.49
			s-1.55-0.8-2.14-1.42c-0.59-0.62-1.05-1.38-1.37-2.29C133.54,243.33,133.38,242.31,133.38,241.16z"/>
		<path class="st6" d="M162.72,248.16h-3.1l-1.12-3.24h-5.02l-1.12,3.24h-2.94l5.04-14h3.22L162.72,248.16z M155.96,237.44
			c-0.03,0.11-0.07,0.26-0.14,0.47c-0.07,0.21-0.14,0.44-0.22,0.7s-0.17,0.54-0.27,0.84c-0.1,0.3-0.2,0.59-0.29,0.87
			c-0.23,0.69-0.47,1.43-0.74,2.22h3.38c-0.27-0.79-0.51-1.53-0.74-2.22c-0.15-0.4-0.26-0.73-0.35-0.99
			c-0.09-0.26-0.17-0.51-0.24-0.75s-0.14-0.46-0.21-0.67c-0.07-0.21-0.11-0.36-0.14-0.47H155.96z"/>
		<path class="st6" d="M166.86,234.16h3v11.5h6.12v2.5h-9.12V234.16z"/>
		<path class="st6" d="M186.44,240.5h3.86v-3.88h2.28v3.88h3.86v2.28h-3.86v3.98h-2.28v-3.98h-3.86V240.5z"/>
		<path class="st6" d="M214.13,248.16c-0.2-0.55-0.45-1.26-0.75-2.15c-0.3-0.89-0.61-1.81-0.93-2.77s-0.63-1.9-0.93-2.82
			s-0.54-1.69-0.73-2.32h-0.06v10.06h-2.76v-14h4.2c0.57,1.71,1.09,3.27,1.56,4.7c0.28,0.85,0.51,1.54,0.69,2.07
			c0.18,0.53,0.35,1.03,0.5,1.51c0.15,0.48,0.29,0.91,0.42,1.3c0.13,0.39,0.22,0.67,0.27,0.84c0.05-0.17,0.14-0.45,0.26-0.84
			s0.26-0.84,0.43-1.37c0.17-0.53,0.35-1.09,0.54-1.7c0.19-0.61,0.39-1.21,0.59-1.81c0.45-1.43,0.95-2.99,1.5-4.7h4.18v14h-2.76
			V238.1h-0.06c-0.13,0.41-0.29,0.91-0.48,1.49c-0.19,0.58-0.39,1.2-0.61,1.85s-0.44,1.32-0.67,1.99c-0.23,0.67-0.44,1.31-0.64,1.92
			c-0.2,0.61-0.38,1.16-0.55,1.65c-0.17,0.49-0.3,0.88-0.41,1.16H214.13z"/>
		<path class="st6" d="M228.4,248.16v-14h9.54v2.48h-6.58v3.08h6.12v2.48h-6.12v3.48h6.68v2.48H228.4z"/>
		<path class="st6" d="M242.68,234.16h3.12c0.81,1.32,1.59,2.57,2.32,3.76c0.44,0.71,0.8,1.29,1.08,1.75s0.56,0.92,0.84,1.37
			s0.55,0.88,0.8,1.29c0.25,0.41,0.47,0.75,0.64,1.03h0.06v-9.2h2.84v14h-3.12c-0.8-1.29-1.56-2.53-2.28-3.7
			c-0.43-0.69-0.78-1.27-1.07-1.73s-0.57-0.92-0.85-1.38c-0.28-0.46-0.55-0.9-0.81-1.32s-0.48-0.78-0.67-1.07h-0.06v9.2h-2.84
			V234.16z"/>
		<path class="st6" d="M258.59,234.16h11.1v2.5h-4.04v11.5h-3.02v-11.5h-4.04V234.16z"/>
		<path class="st6" d="M284.47,248.16h-3.1l-1.12-3.24h-5.02l-1.12,3.24h-2.94l5.04-14h3.22L284.47,248.16z M277.72,237.44
			c-0.03,0.11-0.07,0.26-0.14,0.47c-0.07,0.21-0.14,0.44-0.22,0.7c-0.08,0.26-0.17,0.54-0.27,0.84s-0.2,0.59-0.29,0.87
			c-0.23,0.69-0.47,1.43-0.74,2.22h3.38c-0.27-0.79-0.51-1.53-0.74-2.22c-0.15-0.4-0.26-0.73-0.35-0.99s-0.17-0.51-0.24-0.75
			c-0.07-0.24-0.14-0.46-0.21-0.67c-0.07-0.21-0.11-0.36-0.14-0.47H277.72z"/>
		<path class="st6" d="M288.61,234.16h3v11.5h6.12v2.5h-9.12V234.16z"/>
	</g>
</g>
<g id="LINE_TWO">
	<g>
		<path class="st6" d="M54.87,251.94h3v5.54h5.3v-5.54h3v14h-3V260h-5.3v5.94h-3V251.94z"/>
		<path class="st6" d="M71.45,265.94v-14h9.54v2.48h-6.58v3.08h6.12v2.48h-6.12v3.48h6.68v2.48H71.45z"/>
		<path class="st6" d="M97.89,265.94h-3.1l-1.12-3.24h-5.02l-1.12,3.24h-2.94l5.04-14h3.22L97.89,265.94z M91.13,255.23
			c-0.03,0.11-0.07,0.26-0.14,0.47s-0.14,0.44-0.22,0.7s-0.17,0.54-0.27,0.84s-0.2,0.59-0.29,0.87c-0.23,0.69-0.47,1.43-0.74,2.22
			h3.38c-0.27-0.79-0.51-1.53-0.74-2.22c-0.15-0.4-0.26-0.73-0.35-0.99c-0.09-0.26-0.17-0.51-0.24-0.75
			c-0.07-0.24-0.14-0.46-0.21-0.67c-0.07-0.21-0.11-0.36-0.14-0.47H91.13z"/>
		<path class="st6" d="M102.03,251.94h3v11.5h6.12v2.5h-9.12V251.94z"/>
		<path class="st6" d="M112.39,251.94h11.1v2.5h-4.04v11.5h-3.02v-11.5h-4.04V251.94z"/>
		<path class="st6" d="M127.71,251.94h3v5.54h5.3v-5.54h3v14h-3V260h-5.3v5.94h-3V251.94z"/>
		<path class="st6" d="M150.99,251.94h3v14h-3V251.94z"/>
		<path class="st6" d="M159.27,251.94h3.12c0.81,1.32,1.59,2.57,2.32,3.76c0.44,0.71,0.8,1.29,1.08,1.75s0.56,0.92,0.84,1.37
			s0.55,0.88,0.8,1.29c0.25,0.41,0.47,0.75,0.64,1.03h0.06v-9.2h2.84v14h-3.12c-0.8-1.29-1.56-2.53-2.28-3.7
			c-0.43-0.69-0.78-1.27-1.07-1.73s-0.57-0.92-0.85-1.38c-0.28-0.46-0.55-0.9-0.81-1.32s-0.48-0.78-0.67-1.07h-0.06v9.2h-2.84
			V251.94z"/>
		<path class="st6" d="M175.19,251.94h11.1v2.5h-4.04v11.5h-3.02v-11.5h-4.04V251.94z"/>
		<path class="st6" d="M190.51,265.94v-14h9.54v2.48h-6.58v3.08h6.12v2.48h-6.12v3.48h6.68v2.48H190.51z"/>
		<path class="st6" d="M210.51,258.19h6.44v7.76h-2.72v-1.44c-0.31,0.48-0.76,0.89-1.36,1.22c-0.6,0.33-1.38,0.5-2.34,0.5
			c-1.04,0-1.96-0.19-2.75-0.57s-1.45-0.9-1.98-1.55c-0.53-0.65-0.92-1.42-1.19-2.3s-0.4-1.82-0.4-2.82c0-1.08,0.16-2.07,0.47-2.96
			c0.31-0.89,0.77-1.66,1.37-2.31c0.6-0.65,1.33-1.15,2.19-1.51c0.86-0.36,1.84-0.54,2.93-0.54c1.41,0,2.62,0.31,3.62,0.93
			c1,0.62,1.75,1.54,2.26,2.75l-2.78,1.14c-0.27-0.75-0.67-1.32-1.22-1.73c-0.55-0.41-1.21-0.61-2-0.61c-1.13,0-2.04,0.42-2.72,1.25
			c-0.68,0.83-1.02,2.06-1.02,3.69c0,3.12,1.23,4.68,3.7,4.68c0.36,0,0.72-0.05,1.08-0.15c0.36-0.1,0.69-0.25,0.99-0.46
			c0.3-0.21,0.54-0.47,0.73-0.79s0.28-0.71,0.28-1.16v-0.64h-3.58V258.19z"/>
		<path class="st6" d="M232.65,256.2c0,1.04-0.24,1.89-0.71,2.54s-1.12,1.14-1.95,1.46l3.22,5.74h-3.3l-2.9-5.3h-1.86v5.3h-2.98v-14
			h5.12c0.81,0,1.55,0.08,2.21,0.25c0.66,0.17,1.22,0.42,1.69,0.77c0.47,0.35,0.83,0.79,1.08,1.32
			C232.52,254.82,232.65,255.46,232.65,256.2z M229.57,256.23c0-0.68-0.22-1.15-0.65-1.41c-0.43-0.26-1.09-0.39-1.97-0.39h-1.8v3.78
			h1.8c0.88,0,1.54-0.15,1.97-0.45C229.35,257.45,229.57,256.94,229.57,256.23z"/>
		<path class="st6" d="M249.85,265.94h-3.1l-1.12-3.24h-5.02l-1.12,3.24h-2.94l5.04-14h3.22L249.85,265.94z M243.09,255.23
			c-0.03,0.11-0.07,0.26-0.14,0.47c-0.07,0.21-0.14,0.44-0.22,0.7c-0.08,0.26-0.17,0.54-0.27,0.84s-0.2,0.59-0.29,0.87
			c-0.23,0.69-0.47,1.43-0.74,2.22h3.38c-0.27-0.79-0.51-1.53-0.74-2.22c-0.15-0.4-0.26-0.73-0.35-0.99s-0.17-0.51-0.24-0.75
			c-0.07-0.24-0.14-0.46-0.21-0.67c-0.07-0.21-0.11-0.36-0.14-0.47H243.09z"/>
		<path class="st6" d="M251.33,251.94h11.1v2.5h-4.04v11.5h-3.02v-11.5h-4.04V251.94z"/>
		<path class="st6" d="M266.65,251.94h3v14h-3V251.94z"/>
		<path class="st6" d="M274.35,258.94c0-1.13,0.16-2.15,0.49-3.05c0.33-0.9,0.79-1.66,1.38-2.29c0.59-0.63,1.31-1.11,2.15-1.44
			c0.84-0.33,1.77-0.5,2.8-0.5c1.03,0,1.96,0.17,2.8,0.5c0.84,0.33,1.56,0.81,2.15,1.44c0.59,0.63,1.05,1.39,1.38,2.29
			c0.33,0.9,0.49,1.92,0.49,3.05c0,1.13-0.16,2.15-0.49,3.05c-0.33,0.9-0.79,1.66-1.38,2.29c-0.59,0.63-1.31,1.11-2.15,1.44
			c-0.84,0.33-1.77,0.5-2.8,0.5c-1.03,0-1.96-0.17-2.8-0.5s-1.56-0.81-2.15-1.44c-0.59-0.63-1.05-1.39-1.38-2.29
			C274.51,261.1,274.35,260.08,274.35,258.94z M277.45,258.94c0,0.71,0.08,1.36,0.23,1.95c0.15,0.59,0.38,1.1,0.69,1.52
			s0.69,0.75,1.16,0.98s1.01,0.35,1.64,0.35s1.17-0.12,1.64-0.35c0.47-0.23,0.85-0.56,1.16-0.98c0.31-0.42,0.54-0.93,0.69-1.52
			c0.15-0.59,0.23-1.24,0.23-1.95s-0.08-1.36-0.23-1.95c-0.15-0.59-0.38-1.1-0.69-1.52c-0.31-0.42-0.69-0.75-1.16-0.98
			c-0.47-0.23-1.01-0.35-1.64-0.35s-1.17,0.12-1.64,0.35s-0.85,0.56-1.16,0.98s-0.54,0.93-0.69,1.52
			C277.52,257.59,277.45,258.24,277.45,258.94z"/>
		<path class="st6" d="M292.68,251.94h3.12c0.81,1.32,1.59,2.57,2.32,3.76c0.44,0.71,0.8,1.29,1.08,1.75s0.56,0.92,0.84,1.37
			s0.55,0.88,0.8,1.29c0.25,0.41,0.47,0.75,0.64,1.03h0.06v-9.2h2.84v14h-3.12c-0.8-1.29-1.56-2.53-2.28-3.7
			c-0.43-0.69-0.78-1.27-1.07-1.73s-0.57-0.92-0.85-1.38c-0.28-0.46-0.55-0.9-0.81-1.32s-0.48-0.78-0.67-1.07h-0.06v9.2h-2.84
			V251.94z"/>
	</g>
</g>
<g id="ICON">
	<g>
		<path class="st64" d="M230.86,104.89c-6.17,0.02-12.35,0.01-18.52,0.01c-9.64,0-19.27,0-28.91,0c-0.37,0-0.74,0-1.22,0
			c0,29.53,0,58.99,0,88.57c0.36,0.02,0.72,0.05,1.08,0.05c7.87,0,15.74,0,23.62,0c5.05,0,10.11,0,15.16,0
			c1.63,0,2.73,0.83,2.87,2.14c0.19,1.75-0.86,2.92-2.68,2.92c-4.55,0.01-9.09,0-13.64,0c-23.72,0-47.44,0-71.16,0
			c-0.44,0-0.89,0.02-1.32-0.07c-1.17-0.25-2.07-1.5-1.95-2.64c0.14-1.38,1.14-2.32,2.61-2.36c1.66-0.04,3.32,0,4.98,0
			c7.19,0,14.39,0,21.58-0.01c4.17,0,8.35,0,12.52,0c0.36,0,0.73,0,1.16,0c0-29.57,0-59,0-88.55c-16.43,0-32.84,0-49.1,0l0.17-5.14
			c6.58-0.02,13.17,0,19.75,0c9.33,0,18.66,0,27.99-0.01c0.36,0,0.73,0,1.22,0c0-2.21-0.03-4.3,0.01-6.39
			c0.04-1.87,1.81-3.04,3.49-2.31c1.05,0.46,1.59,1.32,1.59,2.5c-0.01,2.03,0,4.06,0,6.16c0.42,0.02,0.75,0.05,1.08,0.05
			c10.28,0,20.57,0,30.85,0c5.66,0,11.16-0.01,16.82,0.01"/>
		<circle class="st82" cx="234.23" cy="102.08" r="3.93"/>
		<line class="st83" x1="234.23" y1="106.02" x2="216.77" y2="149.8"/>
		<rect x="214.34" y="149.8" class="st84" width="40.68" height="1.94"/>
		<line class="st83" x1="234.88" y1="106.02" x2="252.34" y2="149.8"/>
		<circle class="st82" cx="124.98" cy="102.08" r="3.93"/>
		<line class="st83" x1="124.98" y1="106.02" x2="107.52" y2="149.8"/>
		<rect x="105.29" y="149.8" class="st84" width="40.68" height="1.94"/>
		<line class="st83" x1="125.63" y1="106.02" x2="143.09" y2="149.8"/>
	</g>
</g>
</svg>
