<?xml version="1.0" encoding="utf-8"?>
<!-- Generator: Adobe Illustrator 23.1.0, SVG Export Plug-In . SVG Version: 6.00 Build 0)  -->
<svg version="1.1" xmlns="http://www.w3.org/2000/svg" xmlns:xlink="http://www.w3.org/1999/xlink" x="0px" y="0px"
	 viewBox="0 0 360 360.06" style="enable-background:new 0 0 360 360.06;" xml:space="preserve">
<style type="text/css">
	.st0{fill:#FFFFFF;}
	.st1{fill:#0E6E39;}
	.st2{fill:#0C6E39;}
	.st3{fill:#4F497B;}
	.st4{fill:#216885;}
	.st5{fill:#F0492D;}
	.st6{fill:#EF3F25;}
	.st7{fill:#236886;}
	.st8{fill:#256887;}
	.st9{fill:#D2BF2D;}
	.st10{display:none;}
	.st11{display:inline;fill:none;stroke:#000000;stroke-width:0.25;stroke-miterlimit:10;}
	.st12{display:inline;fill:none;stroke:#FFFFFF;stroke-width:0.25;stroke-miterlimit:10;}
	.st13{display:inline;fill:none;stroke:#FFFFFF;stroke-width:0.25;stroke-linecap:round;stroke-miterlimit:10;}
	.st14{display:inline;fill:none;stroke:#000000;stroke-width:0.25;stroke-linecap:round;stroke-miterlimit:10;}
	.st15{fill:#4F4A7C;}
	.st16{fill:none;stroke:#FFFFFF;stroke-miterlimit:10;}
	.st17{stroke:#FFFFFF;stroke-miterlimit:10;}
	.st18{fill:none;stroke:#FFFFFF;stroke-width:3;stroke-miterlimit:10;}
	.st19{fill:none;stroke:#FFFFFF;stroke-linecap:round;stroke-miterlimit:10;}
	.st20{fill:none;stroke:#236886;stroke-width:5;stroke-miterlimit:10;}
	.st21{fill:none;stroke:#236886;stroke-width:5;stroke-linecap:round;stroke-miterlimit:10;}
	.st22{fill:none;stroke:#FFFFFF;stroke-width:5;stroke-miterlimit:10;}
	.st23{fill:none;stroke:#FFFFFF;stroke-width:5;stroke-linecap:round;stroke-miterlimit:10;}
	.st24{fill:none;stroke:#4F497B;stroke-width:3;stroke-miterlimit:10;}
	.st25{fill:none;stroke:#4F497B;stroke-miterlimit:10;}
	.st26{fill:#FFFFFF;stroke:#4F497B;stroke-miterlimit:10;}
	.st27{fill:#FFFFFF;stroke:#4F497B;stroke-width:2;stroke-miterlimit:10;}
	.st28{fill:none;stroke:#4F497B;stroke-width:2;stroke-linecap:round;stroke-miterlimit:10;}
	.st29{stroke:#FFFFFF;stroke-width:2;stroke-miterlimit:10;}
	.st30{fill:none;stroke:#FFFFFF;stroke-width:2;stroke-linecap:round;stroke-miterlimit:10;}
	.st31{fill:none;stroke:#0C6E39;stroke-width:3;stroke-miterlimit:10;}
	.st32{fill:none;stroke:#EF3F25;stroke-miterlimit:10;}
	.st33{fill:none;stroke:#EF3F25;stroke-width:3;stroke-miterlimit:10;}
	.st34{fill:none;stroke:#4F4A7C;stroke-width:3;stroke-miterlimit:10;}
	.st35{fill:none;stroke:#4F4A7C;stroke-width:5;stroke-linecap:round;stroke-miterlimit:10;}
	.st36{fill:none;stroke:#EF3F25;stroke-width:3;stroke-linecap:round;stroke-miterlimit:10;}
	.st37{fill:none;stroke:#EF3F25;stroke-width:5;stroke-linecap:round;stroke-miterlimit:10;}
	.st38{fill:none;stroke:#FFFFFF;stroke-width:3;stroke-linecap:round;stroke-miterlimit:10;}
	.st39{fill:none;stroke:#4F497B;stroke-width:5;stroke-linecap:round;stroke-miterlimit:10;}
	.st40{fill:#FFFFFF;stroke:#0E6E39;stroke-width:3;stroke-linejoin:round;stroke-miterlimit:10;}
	.st41{fill:none;stroke:#0E6E39;stroke-width:3;stroke-linejoin:round;stroke-miterlimit:10;}
	.st42{stroke:#FFFFFF;stroke-width:3;stroke-linejoin:round;stroke-miterlimit:10;}
	.st43{fill:none;stroke:#FFFFFF;stroke-width:3;stroke-linejoin:round;stroke-miterlimit:10;}
	.st44{fill:none;stroke:#0C6E39;stroke-width:5;stroke-linecap:round;stroke-miterlimit:10;}
	.st45{fill:none;stroke:#0C6E39;stroke-width:3;stroke-linecap:round;stroke-miterlimit:10;}
	.st46{fill:none;stroke:#0C6E39;stroke-linecap:round;stroke-linejoin:round;stroke-miterlimit:10;}
	.st47{fill:#0C6E39;stroke:#0C6E39;stroke-width:0;stroke-miterlimit:10;}
	.st48{fill:none;stroke:#0C6E39;stroke-width:3;stroke-linecap:round;stroke-linejoin:round;stroke-miterlimit:10;}
	.st49{fill:none;stroke:#0C6E39;stroke-linecap:round;stroke-miterlimit:10;}
	.st50{fill:none;stroke:#FFFFFF;stroke-linecap:round;stroke-linejoin:round;stroke-miterlimit:10;}
	.st51{fill:none;stroke:#FFFFFF;stroke-width:3;stroke-linecap:round;stroke-linejoin:round;stroke-miterlimit:10;}
	.st52{fill:none;stroke:#4F4A7C;stroke-miterlimit:10;}
	.st53{fill:#FFFFFF;stroke:#4F4A7C;stroke-width:2;stroke-miterlimit:10;}
	.st54{fill:#FFFFFF;stroke:#4F497B;stroke-width:5;stroke-miterlimit:10;}
	.st55{stroke:#FFFFFF;stroke-width:5;stroke-miterlimit:10;}
	.st56{fill:none;stroke:#EF3F25;stroke-width:2;stroke-linecap:round;stroke-miterlimit:10;}
	.st57{fill:none;stroke:#FFFFFF;stroke-width:1.5;stroke-miterlimit:10;}
	.st58{fill:none;stroke:#FFFFFF;stroke-width:1.5;stroke-linecap:round;stroke-miterlimit:10;}
	.st59{fill:none;stroke:#0E6E39;stroke-width:3;stroke-miterlimit:10;}
	.st60{fill:none;stroke:#0E6E39;stroke-width:1.5;stroke-miterlimit:10;}
	.st61{fill:none;stroke:#0E6E39;stroke-width:1.5;stroke-linecap:round;stroke-miterlimit:10;}
	.st62{fill:none;stroke:#EF3F25;stroke-width:0.7099;stroke-miterlimit:10;}
	.st63{fill:none;stroke:#FFFFFF;stroke-width:0.7099;stroke-miterlimit:10;}
	.st64{fill:#EF4025;}
	.st65{fill:#505050;stroke:#4F4A7C;stroke-width:2.9281;stroke-miterlimit:10;}
	.st66{fill:#FFFFFF;stroke:#FFFFFF;stroke-width:2.9281;stroke-miterlimit:10;}
	.st67{fill:none;stroke:#FFFFFF;stroke-width:3.2577;stroke-miterlimit:10;}
	.st68{fill:none;stroke:#FFFFFF;stroke-width:3.2577;stroke-linecap:round;stroke-linejoin:round;stroke-miterlimit:10;}
	.st69{fill:none;stroke:#256887;stroke-width:3.2577;stroke-miterlimit:10;}
	.st70{fill:none;stroke:#256887;stroke-width:3.2577;stroke-linecap:round;stroke-linejoin:round;stroke-miterlimit:10;}
	.st71{fill:#FFFFFF;stroke:#FFFFFF;stroke-width:2;stroke-miterlimit:10;}
	.st72{fill:#D2BF2D;stroke:#D2BF2D;stroke-width:2;stroke-miterlimit:10;}
	.st73{fill:#086E38;}
	.st74{fill:#256887;stroke:#256887;stroke-width:4;stroke-miterlimit:10;}
	.st75{fill:#FFFFFF;stroke:#FFFFFF;stroke-width:4;stroke-miterlimit:10;}
	.st76{fill:#4F4B7D;}
	.st77{fill:#256887;stroke:#256887;stroke-width:2.8997;stroke-miterlimit:10;}
	.st78{fill:#FFFFFF;stroke:#FFFFFF;stroke-width:2.8997;stroke-miterlimit:10;}
	.st79{fill:none;stroke:#FFFFFF;stroke-width:2.2399;stroke-miterlimit:10;}
	.st80{fill:none;stroke:#FFFFFF;stroke-width:2;stroke-miterlimit:10;}
	.st81{fill:none;stroke:#FFFFFF;stroke-width:1.4254;stroke-miterlimit:10;}
	.st82{fill:none;stroke:#EF4025;stroke-width:2.2399;stroke-miterlimit:10;}
	.st83{fill:none;stroke:#EF4025;stroke-width:2;stroke-miterlimit:10;}
	.st84{fill:none;stroke:#EF4025;stroke-width:1.4254;stroke-miterlimit:10;}
	.st85{fill:none;stroke:#4F497B;stroke-linecap:round;stroke-miterlimit:10;}
</style>
<g id="White">
	<rect x="-0.41" y="-0.15" class="st0" width="360.29" height="360.29"/>
</g>
<g id="BACKGROUND">
	<rect x="-0.41" y="336.06" class="st7" width="360.41" height="23.94"/>
	<g>
		<path class="st0" d="M297.29,349.53v2.95h-1.79v-8.4h3.19c0.5,0,0.96,0.05,1.37,0.16c0.41,0.1,0.76,0.26,1.04,0.48
			c0.29,0.22,0.51,0.49,0.67,0.83c0.16,0.34,0.24,0.74,0.24,1.21c0,0.48-0.08,0.89-0.25,1.24c-0.16,0.35-0.39,0.64-0.68,0.86
			c-0.29,0.23-0.64,0.4-1.05,0.5c-0.41,0.11-0.86,0.16-1.34,0.16H297.29z M300.19,346.76c0-0.46-0.14-0.77-0.41-0.94
			s-0.69-0.25-1.25-0.25h-1.22v2.47h1.22c0.56,0,0.98-0.1,1.25-0.3C300.05,347.55,300.19,347.22,300.19,346.76z"/>
		<path class="st0" d="M311.3,352.49h-1.86l-0.67-1.94h-3.01l-0.67,1.94h-1.76l3.02-8.4h1.93L311.3,352.49z M307.24,346.05
			c-0.02,0.06-0.04,0.16-0.08,0.28c-0.04,0.13-0.08,0.26-0.13,0.42c-0.05,0.16-0.1,0.32-0.16,0.5c-0.06,0.18-0.12,0.35-0.17,0.52
			c-0.14,0.42-0.28,0.86-0.44,1.33h2.03c-0.16-0.47-0.31-0.92-0.44-1.33c-0.09-0.24-0.16-0.44-0.21-0.59
			c-0.05-0.16-0.1-0.31-0.14-0.45c-0.04-0.14-0.09-0.28-0.13-0.4c-0.04-0.12-0.07-0.22-0.08-0.28H307.24z"/>
		<path class="st0" d="M312.18,344.09h6.66v1.5h-2.42v6.9h-1.81v-6.9h-2.42V344.09z"/>
		<path class="st0" d="M321.38,344.09h1.8v8.4h-1.8V344.09z"/>
		<path class="st0" d="M326.35,352.49v-8.4h5.72v1.49h-3.95v1.85h3.67v1.49h-3.67V351h4.01v1.49H326.35z"/>
		<path class="st0" d="M334.91,344.09h1.87c0.49,0.79,0.95,1.54,1.39,2.26c0.26,0.42,0.48,0.77,0.65,1.05
			c0.17,0.28,0.34,0.55,0.5,0.82c0.17,0.27,0.33,0.53,0.48,0.77c0.15,0.24,0.28,0.45,0.38,0.62h0.04v-5.52h1.7v8.4h-1.87
			c-0.48-0.78-0.94-1.52-1.37-2.22c-0.26-0.42-0.47-0.76-0.64-1.04c-0.17-0.28-0.34-0.55-0.51-0.83s-0.33-0.54-0.49-0.79
			s-0.29-0.47-0.4-0.64h-0.04v5.52h-1.7V344.09z"/>
		<path class="st0" d="M344.46,344.09h6.66v1.5h-2.42v6.9h-1.81v-6.9h-2.42V344.09z"/>
	</g>
</g>
<g id="REF" class="st10">
	<rect x="11" y="90.33" class="st11" width="360" height="108"/>
	<line class="st14" x1="191" y1="0.19" x2="191" y2="360.06"/>
</g>
<g id="LINE_ONE">
	<g>
		<path class="st7" d="M139.92,248.16v-14h9.58v2.48h-6.62v3.08h6.1v2.48h-6.1v5.96H139.92z"/>
		<path class="st7" d="M165.04,248.16h-3.1l-1.12-3.24h-5.02l-1.12,3.24h-2.94l5.04-14H160L165.04,248.16z M158.28,237.44
			c-0.03,0.11-0.07,0.26-0.14,0.47c-0.07,0.21-0.14,0.44-0.22,0.7s-0.17,0.54-0.27,0.84s-0.2,0.59-0.29,0.87
			c-0.23,0.69-0.47,1.43-0.74,2.22H160c-0.27-0.79-0.51-1.53-0.74-2.22c-0.15-0.4-0.26-0.73-0.35-0.99
			c-0.09-0.26-0.17-0.51-0.24-0.75c-0.07-0.24-0.14-0.46-0.21-0.67s-0.11-0.36-0.14-0.47H158.28z"/>
		<path class="st7" d="M175.34,248.16c-0.2-0.55-0.45-1.26-0.75-2.15c-0.3-0.89-0.61-1.81-0.93-2.77s-0.63-1.9-0.93-2.82
			c-0.3-0.92-0.54-1.69-0.73-2.32h-0.06v10.06h-2.76v-14h4.2c0.57,1.71,1.09,3.27,1.56,4.7c0.28,0.85,0.51,1.54,0.69,2.07
			c0.18,0.53,0.35,1.03,0.5,1.51c0.15,0.48,0.29,0.91,0.42,1.3c0.13,0.39,0.22,0.67,0.27,0.84c0.05-0.17,0.14-0.45,0.26-0.84
			c0.12-0.39,0.26-0.84,0.43-1.37c0.17-0.53,0.35-1.09,0.54-1.7c0.19-0.61,0.39-1.21,0.59-1.81c0.45-1.43,0.95-2.99,1.5-4.7h4.18v14
			h-2.76V238.1h-0.06c-0.13,0.41-0.29,0.91-0.48,1.49c-0.19,0.58-0.39,1.2-0.61,1.85c-0.22,0.65-0.44,1.32-0.67,1.99
			c-0.23,0.67-0.44,1.31-0.64,1.92c-0.2,0.61-0.38,1.16-0.55,1.65s-0.3,0.88-0.41,1.16H175.34z"/>
		<path class="st7" d="M189.6,234.16h3v14h-3V234.16z"/>
		<path class="st7" d="M197.88,234.16h3v11.5H207v2.5h-9.12V234.16z"/>
		<path class="st7" d="M213.04,242.3l-5.3-8.14h3.44l3.42,5.36l3.4-5.36h3.34l-5.3,8.14v5.86h-3V242.3z"/>
	</g>
</g>
<g id="LINE_TWO">
	<g>
		<path class="st7" d="M130.58,255.62c0,0.6,0.26,1.03,0.78,1.29s1.35,0.48,2.48,0.67c1.67,0.28,2.89,0.74,3.67,1.38
			c0.78,0.64,1.17,1.59,1.17,2.86c0,0.68-0.14,1.29-0.42,1.83c-0.28,0.54-0.67,1-1.17,1.38c-0.5,0.38-1.1,0.67-1.79,0.88
			s-1.45,0.31-2.26,0.31c-0.88,0-1.67-0.12-2.38-0.35c-0.71-0.23-1.31-0.54-1.8-0.93s-0.88-0.84-1.16-1.36s-0.43-1.06-0.46-1.62
			l3-0.48c0.07,0.68,0.33,1.24,0.79,1.67s1.13,0.65,2.01,0.65c0.36,0,0.7-0.03,1.01-0.1c0.31-0.07,0.59-0.18,0.82-0.33
			c0.23-0.15,0.42-0.34,0.55-0.57c0.13-0.23,0.2-0.5,0.2-0.82c0-0.52-0.22-0.92-0.65-1.2c-0.43-0.28-1.2-0.51-2.29-0.68
			c-0.73-0.12-1.41-0.27-2.04-0.46c-0.63-0.19-1.17-0.44-1.63-0.77c-0.46-0.33-0.82-0.73-1.08-1.22c-0.26-0.49-0.39-1.08-0.39-1.79
			c0-0.71,0.13-1.32,0.4-1.84s0.64-0.96,1.12-1.31c0.48-0.35,1.05-0.62,1.7-0.79c0.65-0.17,1.37-0.26,2.14-0.26
			c0.72,0,1.39,0.08,2.02,0.25s1.18,0.41,1.67,0.74c0.49,0.33,0.89,0.73,1.21,1.21c0.32,0.48,0.54,1.03,0.66,1.64l-3.04,0.66
			c-0.11-0.64-0.38-1.15-0.82-1.52s-1.03-0.56-1.78-0.56c-0.76,0-1.32,0.14-1.69,0.42C130.76,254.78,130.58,255.16,130.58,255.62z"
			/>
		<path class="st7" d="M148.86,266.23c-1.95,0-3.37-0.48-4.26-1.44c-0.89-0.96-1.34-2.29-1.34-4v-8.84h3v8.86
			c0,0.85,0.21,1.56,0.64,2.11s1.08,0.83,1.96,0.83s1.53-0.28,1.96-0.83s0.64-1.26,0.64-2.11v-8.86h3v8.84c0,1.71-0.45,3.04-1.34,4
			C152.23,265.75,150.81,266.23,148.86,266.23z"/>
		<path class="st7" d="M162.64,261.02v4.92h-2.98v-14h5.32c0.84,0,1.6,0.09,2.28,0.26c0.68,0.17,1.26,0.44,1.74,0.8
			s0.85,0.82,1.12,1.38c0.27,0.56,0.4,1.23,0.4,2.02c0,0.8-0.14,1.49-0.41,2.07c-0.27,0.58-0.65,1.06-1.14,1.44
			c-0.49,0.38-1.07,0.66-1.75,0.84c-0.68,0.18-1.43,0.27-2.24,0.27H162.64z M167.46,256.41c0-0.76-0.23-1.28-0.69-1.56
			c-0.46-0.28-1.16-0.42-2.09-0.42h-2.04v4.12h2.04c0.93,0,1.63-0.17,2.09-0.5C167.23,257.71,167.46,257.17,167.46,256.41z"/>
		<path class="st7" d="M177.9,261.02v4.92h-2.98v-14h5.32c0.84,0,1.6,0.09,2.28,0.26c0.68,0.17,1.26,0.44,1.74,0.8
			c0.48,0.36,0.85,0.82,1.12,1.38c0.27,0.56,0.4,1.23,0.4,2.02c0,0.8-0.14,1.49-0.41,2.07s-0.65,1.06-1.14,1.44
			c-0.49,0.38-1.07,0.66-1.75,0.84s-1.43,0.27-2.24,0.27H177.9z M182.72,256.41c0-0.76-0.23-1.28-0.69-1.56s-1.16-0.42-2.09-0.42
			h-2.04v4.12h2.04c0.93,0,1.63-0.17,2.09-0.5C182.49,257.71,182.72,257.17,182.72,256.41z"/>
		<path class="st7" d="M189.6,258.94c0-1.13,0.16-2.15,0.49-3.05c0.33-0.9,0.79-1.66,1.38-2.29c0.59-0.63,1.31-1.11,2.15-1.44
			s1.77-0.5,2.8-0.5s1.96,0.17,2.8,0.5c0.84,0.33,1.55,0.81,2.15,1.44s1.05,1.39,1.38,2.29c0.33,0.9,0.49,1.92,0.49,3.05
			c0,1.13-0.16,2.15-0.49,3.05s-0.79,1.66-1.38,2.29c-0.59,0.63-1.31,1.11-2.15,1.44c-0.84,0.33-1.77,0.5-2.8,0.5
			s-1.96-0.17-2.8-0.5c-0.84-0.33-1.56-0.81-2.15-1.44c-0.59-0.63-1.05-1.39-1.38-2.29S189.6,260.08,189.6,258.94z M192.7,258.94
			c0,0.71,0.08,1.36,0.23,1.95c0.15,0.59,0.38,1.1,0.69,1.52s0.69,0.75,1.16,0.98c0.47,0.23,1.01,0.35,1.64,0.35
			s1.17-0.12,1.64-0.35c0.46-0.23,0.85-0.56,1.16-0.98c0.3-0.42,0.54-0.93,0.69-1.52c0.15-0.59,0.23-1.24,0.23-1.95
			s-0.08-1.36-0.23-1.95c-0.15-0.59-0.38-1.1-0.69-1.52c-0.31-0.42-0.7-0.75-1.16-0.98c-0.47-0.23-1.01-0.35-1.64-0.35
			s-1.17,0.12-1.64,0.35c-0.47,0.23-0.85,0.56-1.16,0.98s-0.54,0.93-0.69,1.52C192.78,257.59,192.7,258.24,192.7,258.94z"/>
		<path class="st7" d="M218.42,256.2c0,1.04-0.24,1.89-0.71,2.54c-0.47,0.65-1.12,1.14-1.95,1.46l3.22,5.74h-3.3l-2.9-5.3h-1.86v5.3
			h-2.98v-14h5.12c0.81,0,1.55,0.08,2.21,0.25c0.66,0.17,1.22,0.42,1.69,0.77c0.47,0.35,0.83,0.79,1.08,1.32
			S218.42,255.46,218.42,256.2z M215.34,256.23c0-0.68-0.22-1.15-0.65-1.41s-1.09-0.39-1.97-0.39h-1.8v3.78h1.8
			c0.88,0,1.54-0.15,1.97-0.45S215.34,256.94,215.34,256.23z"/>
		<path class="st7" d="M222.1,251.94h11.1v2.5h-4.04v11.5h-3.02v-11.5h-4.04V251.94z"/>
	</g>
</g>
<g id="ICON">
	<g>
		<g>
			<g>
				<path class="st8" d="M220.93,159.68c1.36,0.86,2.41,1.31,3.18,2.04c1.91,1.81,2.68,4.08,1.9,6.67c-0.79,2.62-2.53,4.36-5.3,4.78
					c-5.38,0.82-10.76,1.6-16.16,2.28c-0.63,0.08-1.35-0.57-2.02-0.88c0.55-0.41,1.06-1.1,1.66-1.2c5.14-0.83,10.31-1.43,15.42-2.38
					c1.39-0.26,3.12-1.19,3.74-2.33c0.61-1.13,0.53-3.24-0.17-4.32c-0.69-1.07-2.61-2.1-3.85-1.95c-8.76,1.05-17.54,2.16-26.2,3.83
					c-2.54,0.49-5.28,2.39-6.97,4.43c-4.37,5.27-8.23,10.97-12.23,16.54c-1.41,1.96-1.1,3.65,0.84,5.1
					c2.77,2.08,5.58,4.13,8.41,6.14c2.02,1.44,3.76,1.17,5.34-0.83c1.17-1.48,2.39-2.96,3.33-4.59c1.55-2.68,3.89-3.87,6.79-4.59
					c7.34-1.82,14.64-3.84,21.95-5.77c2.87-0.76,4.77-2.48,5.89-5.28c4.14-10.37,8.39-20.71,12.58-31.06
					c0.27-0.65,0.58-1.32,0.68-2.01c0.32-2.2-0.53-3.91-2.54-4.85c-1.95-0.92-3.92-0.53-5.03,1.27
					C228.34,146.93,224.7,153.26,220.93,159.68z"/>
			</g>
			<g>
				<path class="st8" d="M139.07,159.68c-1.36,0.86-2.41,1.31-3.18,2.04c-1.91,1.81-2.68,4.08-1.9,6.67
					c0.79,2.62,2.53,4.36,5.3,4.78c5.38,0.82,10.76,1.6,16.16,2.28c0.63,0.08,1.35-0.57,2.02-0.88c-0.55-0.41-1.06-1.1-1.66-1.2
					c-5.14-0.83-10.31-1.43-15.42-2.38c-1.39-0.26-3.12-1.19-3.74-2.33c-0.61-1.13-0.53-3.24,0.17-4.32
					c0.69-1.07,2.61-2.1,3.85-1.95c8.76,1.05,17.54,2.16,26.2,3.83c2.54,0.49,5.28,2.39,6.97,4.43c4.37,5.27,8.23,10.97,12.23,16.54
					c1.41,1.96,1.1,3.65-0.84,5.1c-2.77,2.08-5.58,4.13-8.41,6.14c-2.02,1.44-3.76,1.17-5.34-0.83c-1.17-1.48-2.39-2.96-3.33-4.59
					c-1.55-2.68-3.89-3.87-6.79-4.59c-7.34-1.82-14.64-3.84-21.95-5.77c-2.87-0.76-4.77-2.48-5.89-5.28
					c-4.14-10.37-8.39-20.71-12.58-31.06c-0.27-0.65-0.58-1.32-0.68-2.01c-0.32-2.2,0.53-3.91,2.54-4.85
					c1.95-0.92,3.92-0.53,5.03,1.27C131.66,146.93,135.3,153.26,139.07,159.68z"/>
			</g>
		</g>
		<g>
			<path class="st8" d="M180.02,116.69c1.68-2.97,4.05-3.93,7.03-3.92c8.09,0.05,16.18,0,24.27,0.02c4.49,0.01,7.04,2.57,7.04,7.06
				c0.01,11.25,0.01,22.5,0,33.75c0,2.83-0.97,3.92-3.44,3.94c-2.62,0.02-3.72-1.11-3.73-3.94c-0.02-8.44-0.01-16.88-0.01-25.32
				c0-0.77,0-1.53,0-2.29c-1.59-0.14-1.62-0.14-1.63,1.39c-0.01,6.4-0.06,20.77-0.05,27.16 M209.51,154.56h-58.92l-0.17-7.97
				c0.01-6.4,0.02-12.79,0.02-19.19c0-1.53-0.04-1.53-1.63-1.39c0,0.75,0,1.52,0,2.29c0,8.44,0.01,16.88-0.01,25.32
				c-0.01,2.83-1.11,3.96-3.73,3.94c-2.47-0.02-3.44-1.11-3.44-3.94c0-11.25-0.01-22.5,0-33.75c0-4.5,2.55-7.05,7.04-7.06
				c8.09-0.02,16.18,0.02,24.27-0.02c2.98-0.02,5.36,0.95,7.03,3.92"/>
			<path class="st8" d="M209.2,100.98c0,5.73-4.61,10.35-10.29,10.32c-5.59-0.04-10.14-4.63-10.14-10.25
				c0-5.74,4.58-10.31,10.29-10.28C204.68,90.79,209.21,95.35,209.2,100.98z"/>
			<path class="st8" d="M171.02,100.98c0,5.73-4.61,10.35-10.29,10.32c-5.59-0.04-10.14-4.63-10.14-10.25
				c0-5.74,4.58-10.31,10.29-10.28C166.5,90.79,171.02,95.35,171.02,100.98z"/>
			<path class="st0" d="M189.85,147.15c3.26-4.66,6.64-9.24,9.98-13.84c0.88-1.21,1.75-2.41,0.82-4.02c-1.15-2-3.32-2.27-4.83-0.37
				c-2.23,2.8-4.27,5.74-6.39,8.63c-0.25,0.34-0.54,0.66-0.7,1.04c-1.85,4.21-5.34,4.35-9.33,4.37c-3.56,0.02-5.97-0.68-7.87-3.98
				c-2.01-3.51-4.72-6.62-7.19-9.86c-1.23-1.62-2.82-1.87-4.21-0.86c-1.38,1.01-1.65,2.66-0.5,4.29c3.45,4.87,7,9.66,10.43,14.54
				c0.57,0.81,1.06,1.88,1.07,2.84h17.78c0.01-0.96,0.5-2.03,1.07-2.84c3.43-4.88,6.98-9.67,10.43-14.54
				c1.15-1.63,0.88-3.28-0.5-4.29c-1.39-1.01-2.98-0.76-4.21,0.86c-2.47,3.24-5.17,6.35-7.19,9.86c-1.89,3.3-4.31,4-7.87,3.98
				c-3.99-0.02-7.48-0.16-9.33-4.37c-0.17-0.38-0.45-0.7-0.7-1.04c-2.12-2.88-4.17-5.83-6.39-8.63c-1.51-1.9-3.68-1.63-4.83,0.37
				c-0.94,1.62-0.06,2.81,0.82,4.02c3.34,4.61,6.72,9.18,9.98,13.84"/>
			<path class="st0" d="M179.89,126.4c-3.97-0.07-7.49,3.29-7.55,7.21c-0.07,4.01,3.18,7.33,7.29,7.46c4.11,0.12,7.46-3.17,7.51-7.4
				C187.19,129.85,183.81,126.47,179.89,126.4z"/>
			<polyline class="st0" points="188.91,147.81 188.91,161.56 171.13,161.56 171.13,147.81 			"/>
			<polygon class="st8" points="150.59,154.56 150.59,157.55 168.28,160.27 171.13,161.56 171.13,149.92 			"/>
			<polygon class="st8" points="209.46,154.56 209.46,157.55 191.77,160.27 188.93,161.56 188.91,149.92 			"/>
		</g>
	</g>
</g>
</svg>
