<?xml version="1.0" encoding="utf-8"?>
<!-- Generator: Adobe Illustrator 23.1.0, SVG Export Plug-In . SVG Version: 6.00 Build 0)  -->
<svg version="1.1" xmlns="http://www.w3.org/2000/svg" xmlns:xlink="http://www.w3.org/1999/xlink" x="0px" y="0px"
	 viewBox="0 0 360 360" style="enable-background:new 0 0 360 360;" xml:space="preserve">
<style type="text/css">
	.st0{fill:#FFFFFF;}
	.st1{fill:#0E6E39;}
	.st2{fill:#0C6E39;}
	.st3{fill:#4F497B;}
	.st4{fill:#216885;}
	.st5{fill:#F0492D;}
	.st6{fill:#EF3F25;}
	.st7{fill:#236886;}
	.st8{fill:#256887;}
	.st9{fill:#D2BF2D;}
	.st10{display:none;}
	.st11{display:inline;fill:none;stroke:#000000;stroke-width:0.25;stroke-miterlimit:10;}
	.st12{display:inline;fill:none;stroke:#FFFFFF;stroke-width:0.25;stroke-miterlimit:10;}
	.st13{display:inline;fill:none;stroke:#FFFFFF;stroke-width:0.25;stroke-linecap:round;stroke-miterlimit:10;}
	.st14{display:inline;fill:none;stroke:#000000;stroke-width:0.25;stroke-linecap:round;stroke-miterlimit:10;}
	.st15{fill:#4F4A7C;}
	.st16{fill:none;stroke:#FFFFFF;stroke-miterlimit:10;}
	.st17{stroke:#FFFFFF;stroke-miterlimit:10;}
	.st18{fill:none;stroke:#FFFFFF;stroke-width:3;stroke-miterlimit:10;}
	.st19{fill:none;stroke:#FFFFFF;stroke-linecap:round;stroke-miterlimit:10;}
	.st20{fill:none;stroke:#236886;stroke-width:5;stroke-miterlimit:10;}
	.st21{fill:none;stroke:#236886;stroke-width:5;stroke-linecap:round;stroke-miterlimit:10;}
	.st22{fill:none;stroke:#FFFFFF;stroke-width:5;stroke-miterlimit:10;}
	.st23{fill:none;stroke:#FFFFFF;stroke-width:5;stroke-linecap:round;stroke-miterlimit:10;}
	.st24{fill:none;stroke:#4F497B;stroke-width:3;stroke-miterlimit:10;}
	.st25{fill:none;stroke:#4F497B;stroke-miterlimit:10;}
	.st26{fill:#FFFFFF;stroke:#4F497B;stroke-miterlimit:10;}
	.st27{fill:#FFFFFF;stroke:#4F497B;stroke-width:2;stroke-miterlimit:10;}
	.st28{fill:none;stroke:#4F497B;stroke-width:2;stroke-linecap:round;stroke-miterlimit:10;}
	.st29{stroke:#FFFFFF;stroke-width:2;stroke-miterlimit:10;}
	.st30{fill:none;stroke:#FFFFFF;stroke-width:2;stroke-linecap:round;stroke-miterlimit:10;}
	.st31{fill:none;stroke:#0C6E39;stroke-width:3;stroke-miterlimit:10;}
	.st32{fill:none;stroke:#EF3F25;stroke-miterlimit:10;}
	.st33{fill:none;stroke:#EF3F25;stroke-width:3;stroke-miterlimit:10;}
	.st34{fill:none;stroke:#4F4A7C;stroke-width:3;stroke-miterlimit:10;}
	.st35{fill:none;stroke:#4F4A7C;stroke-width:5;stroke-linecap:round;stroke-miterlimit:10;}
	.st36{fill:none;stroke:#EF3F25;stroke-width:3;stroke-linecap:round;stroke-miterlimit:10;}
	.st37{fill:none;stroke:#EF3F25;stroke-width:5;stroke-linecap:round;stroke-miterlimit:10;}
	.st38{fill:none;stroke:#FFFFFF;stroke-width:3;stroke-linecap:round;stroke-miterlimit:10;}
	.st39{fill:none;stroke:#4F497B;stroke-width:5;stroke-linecap:round;stroke-miterlimit:10;}
	.st40{fill:#FFFFFF;stroke:#0E6E39;stroke-width:3;stroke-linejoin:round;stroke-miterlimit:10;}
	.st41{fill:none;stroke:#0E6E39;stroke-width:3;stroke-linejoin:round;stroke-miterlimit:10;}
	.st42{stroke:#FFFFFF;stroke-width:3;stroke-linejoin:round;stroke-miterlimit:10;}
	.st43{fill:none;stroke:#FFFFFF;stroke-width:3;stroke-linejoin:round;stroke-miterlimit:10;}
	.st44{fill:none;stroke:#0C6E39;stroke-width:5;stroke-linecap:round;stroke-miterlimit:10;}
	.st45{fill:none;stroke:#0C6E39;stroke-width:3;stroke-linecap:round;stroke-miterlimit:10;}
	.st46{fill:none;stroke:#0C6E39;stroke-linecap:round;stroke-linejoin:round;stroke-miterlimit:10;}
	.st47{fill:#0C6E39;stroke:#0C6E39;stroke-width:0;stroke-miterlimit:10;}
	.st48{fill:none;stroke:#0C6E39;stroke-width:3;stroke-linecap:round;stroke-linejoin:round;stroke-miterlimit:10;}
	.st49{fill:none;stroke:#0C6E39;stroke-linecap:round;stroke-miterlimit:10;}
	.st50{fill:none;stroke:#FFFFFF;stroke-linecap:round;stroke-linejoin:round;stroke-miterlimit:10;}
	.st51{fill:none;stroke:#FFFFFF;stroke-width:3;stroke-linecap:round;stroke-linejoin:round;stroke-miterlimit:10;}
	.st52{fill:none;stroke:#4F4A7C;stroke-miterlimit:10;}
	.st53{fill:#FFFFFF;stroke:#4F4A7C;stroke-width:2;stroke-miterlimit:10;}
	.st54{fill:#FFFFFF;stroke:#4F497B;stroke-width:5;stroke-miterlimit:10;}
	.st55{stroke:#FFFFFF;stroke-width:5;stroke-miterlimit:10;}
	.st56{fill:none;stroke:#EF3F25;stroke-width:2;stroke-linecap:round;stroke-miterlimit:10;}
	.st57{fill:none;stroke:#FFFFFF;stroke-width:1.5;stroke-miterlimit:10;}
	.st58{fill:none;stroke:#FFFFFF;stroke-width:1.5;stroke-linecap:round;stroke-miterlimit:10;}
	.st59{fill:none;stroke:#0E6E39;stroke-width:3;stroke-miterlimit:10;}
	.st60{fill:none;stroke:#0E6E39;stroke-width:1.5;stroke-miterlimit:10;}
	.st61{fill:none;stroke:#0E6E39;stroke-width:1.5;stroke-linecap:round;stroke-miterlimit:10;}
	.st62{fill:none;stroke:#EF3F25;stroke-width:0.7099;stroke-miterlimit:10;}
	.st63{fill:none;stroke:#FFFFFF;stroke-width:0.7099;stroke-miterlimit:10;}
	.st64{fill:#EF4025;}
	.st65{fill:#505050;stroke:#4F4A7C;stroke-width:2.9281;stroke-miterlimit:10;}
	.st66{fill:#FFFFFF;stroke:#FFFFFF;stroke-width:2.9281;stroke-miterlimit:10;}
	.st67{fill:none;stroke:#FFFFFF;stroke-width:3.2577;stroke-miterlimit:10;}
	.st68{fill:none;stroke:#FFFFFF;stroke-width:3.2577;stroke-linecap:round;stroke-linejoin:round;stroke-miterlimit:10;}
	.st69{fill:none;stroke:#256887;stroke-width:3.2577;stroke-miterlimit:10;}
	.st70{fill:none;stroke:#256887;stroke-width:3.2577;stroke-linecap:round;stroke-linejoin:round;stroke-miterlimit:10;}
	.st71{fill:#FFFFFF;stroke:#FFFFFF;stroke-width:2;stroke-miterlimit:10;}
	.st72{fill:#D2BF2D;stroke:#D2BF2D;stroke-width:2;stroke-miterlimit:10;}
	.st73{fill:#086E38;}
	.st74{fill:#256887;stroke:#256887;stroke-width:4;stroke-miterlimit:10;}
	.st75{fill:#FFFFFF;stroke:#FFFFFF;stroke-width:4;stroke-miterlimit:10;}
	.st76{fill:#4F4B7D;}
	.st77{fill:#256887;stroke:#256887;stroke-width:2.8997;stroke-miterlimit:10;}
	.st78{fill:#FFFFFF;stroke:#FFFFFF;stroke-width:2.8997;stroke-miterlimit:10;}
	.st79{fill:none;stroke:#FFFFFF;stroke-width:2.2399;stroke-miterlimit:10;}
	.st80{fill:none;stroke:#FFFFFF;stroke-width:2;stroke-miterlimit:10;}
	.st81{fill:none;stroke:#FFFFFF;stroke-width:1.4254;stroke-miterlimit:10;}
	.st82{fill:none;stroke:#EF4025;stroke-width:2.2399;stroke-miterlimit:10;}
	.st83{fill:none;stroke:#EF4025;stroke-width:2;stroke-miterlimit:10;}
	.st84{fill:none;stroke:#EF4025;stroke-width:1.4254;stroke-miterlimit:10;}
	.st85{fill:none;stroke:#4F497B;stroke-linecap:round;stroke-miterlimit:10;}
</style>
<g id="White">
	<rect x="0" class="st0" width="360.29" height="360.29"/>
</g>
<g id="BACKGROUND">
	<rect y="336.06" class="st6" width="360" height="23.94"/>
	<g>
		<path class="st0" d="M208.83,344.09h1.8v3.32h3.18v-3.32h1.8v8.4h-1.8v-3.56h-3.18v3.56h-1.8V344.09z"/>
		<path class="st0" d="M218.78,352.49v-8.4h5.72v1.49h-3.95v1.85h3.67v1.49h-3.67V351h4.01v1.49H218.78z"/>
		<path class="st0" d="M234.64,352.49h-1.86l-0.67-1.94h-3.01l-0.67,1.94h-1.76l3.02-8.4h1.93L234.64,352.49z M230.59,346.06
			c-0.02,0.06-0.04,0.16-0.08,0.28c-0.04,0.13-0.08,0.26-0.13,0.42c-0.05,0.16-0.1,0.32-0.16,0.5c-0.06,0.18-0.12,0.35-0.17,0.52
			c-0.14,0.42-0.28,0.86-0.44,1.33h2.03c-0.16-0.47-0.31-0.92-0.44-1.33c-0.09-0.24-0.16-0.44-0.21-0.59
			c-0.05-0.16-0.1-0.31-0.14-0.45c-0.04-0.14-0.09-0.28-0.13-0.4c-0.04-0.12-0.07-0.22-0.08-0.28H230.59z"/>
		<path class="st0" d="M237.13,344.09h1.8v6.9h3.67v1.5h-5.47V344.09z"/>
		<path class="st0" d="M243.34,344.09H250v1.5h-2.42v6.9h-1.81v-6.9h-2.42V344.09z"/>
		<path class="st0" d="M252.53,344.09h1.8v3.32h3.18v-3.32h1.8v8.4h-1.8v-3.56h-3.18v3.56h-1.8V344.09z"/>
		<path class="st0" d="M262.13,348.29c0-0.69,0.1-1.3,0.29-1.84c0.19-0.54,0.47-1,0.82-1.37c0.36-0.38,0.79-0.66,1.3-0.86
			c0.51-0.2,1.08-0.29,1.71-0.29c0.9,0,1.65,0.2,2.26,0.59c0.61,0.39,1.04,0.99,1.3,1.79l-1.75,0.61c-0.14-0.47-0.36-0.84-0.65-1.1
			s-0.68-0.39-1.19-0.39c-0.37,0-0.69,0.07-0.97,0.22c-0.28,0.14-0.51,0.34-0.7,0.59c-0.18,0.25-0.32,0.55-0.41,0.91
			c-0.09,0.35-0.14,0.74-0.14,1.15s0.05,0.8,0.14,1.15c0.09,0.35,0.23,0.65,0.41,0.91c0.18,0.26,0.42,0.46,0.7,0.6
			c0.28,0.14,0.61,0.22,0.98,0.22c0.46,0,0.84-0.12,1.13-0.35c0.29-0.23,0.51-0.58,0.67-1.06l1.73,0.61
			c-0.28,0.71-0.71,1.27-1.3,1.68c-0.58,0.41-1.34,0.61-2.26,0.61c-0.62,0-1.17-0.1-1.67-0.29s-0.93-0.48-1.28-0.85
			c-0.36-0.37-0.63-0.83-0.82-1.37C262.23,349.59,262.13,348.98,262.13,348.29z"/>
		<path class="st0" d="M279.74,352.49h-1.86l-0.67-1.94h-3.01l-0.67,1.94h-1.76l3.02-8.4h1.93L279.74,352.49z M275.68,346.06
			c-0.02,0.06-0.04,0.16-0.08,0.28c-0.04,0.13-0.08,0.26-0.13,0.42c-0.05,0.16-0.1,0.32-0.16,0.5c-0.06,0.18-0.12,0.35-0.17,0.52
			c-0.14,0.42-0.28,0.86-0.44,1.33h2.03c-0.16-0.47-0.31-0.92-0.44-1.33c-0.09-0.24-0.16-0.44-0.21-0.59
			c-0.05-0.16-0.1-0.31-0.14-0.45c-0.04-0.14-0.09-0.28-0.13-0.4c-0.04-0.12-0.07-0.22-0.08-0.28H275.68z"/>
		<path class="st0" d="M288.51,346.64c0,0.62-0.14,1.13-0.43,1.52c-0.28,0.39-0.67,0.68-1.17,0.88l1.93,3.44h-1.98l-1.74-3.18h-1.12
			v3.18h-1.79v-8.4h3.07c0.49,0,0.93,0.05,1.33,0.15c0.4,0.1,0.73,0.25,1.01,0.46c0.28,0.21,0.5,0.47,0.65,0.79
			C288.43,345.81,288.51,346.2,288.51,346.64z M286.66,346.66c0-0.41-0.13-0.69-0.39-0.85c-0.26-0.16-0.65-0.23-1.18-0.23h-1.08
			v2.27h1.08c0.53,0,0.92-0.09,1.18-0.27S286.66,347.09,286.66,346.66z"/>
		<path class="st0" d="M291.53,352.49v-8.4h5.72v1.49h-3.95v1.85h3.67v1.49h-3.67V351h4.01v1.49H291.53z"/>
		<path class="st0" d="M307.82,352.49c-0.12-0.33-0.27-0.76-0.45-1.29c-0.18-0.53-0.37-1.09-0.56-1.66
			c-0.19-0.58-0.38-1.14-0.56-1.69c-0.18-0.55-0.33-1.02-0.44-1.39h-0.04v6.04h-1.66v-8.4h2.52c0.34,1.02,0.66,1.96,0.94,2.82
			c0.17,0.51,0.31,0.93,0.41,1.24c0.11,0.32,0.21,0.62,0.3,0.91s0.18,0.55,0.25,0.78c0.08,0.23,0.13,0.4,0.16,0.5
			c0.03-0.1,0.08-0.27,0.16-0.5c0.07-0.23,0.16-0.51,0.26-0.82c0.1-0.32,0.21-0.66,0.32-1.02c0.12-0.36,0.23-0.73,0.35-1.09
			c0.27-0.86,0.57-1.8,0.9-2.82h2.51v8.4h-1.66v-6.04h-0.04c-0.08,0.25-0.18,0.55-0.29,0.89c-0.11,0.35-0.23,0.72-0.37,1.11
			c-0.13,0.39-0.27,0.79-0.4,1.19c-0.14,0.4-0.26,0.79-0.38,1.15c-0.12,0.36-0.23,0.69-0.33,0.99c-0.1,0.3-0.18,0.53-0.25,0.7
			H307.82z"/>
		<path class="st0" d="M316.02,348.29c0-0.68,0.1-1.29,0.29-1.83c0.2-0.54,0.47-1,0.83-1.37c0.36-0.38,0.79-0.66,1.29-0.86
			c0.5-0.2,1.06-0.3,1.68-0.3c0.62,0,1.18,0.1,1.68,0.3c0.5,0.2,0.93,0.49,1.29,0.86c0.36,0.38,0.63,0.83,0.83,1.37
			c0.2,0.54,0.29,1.15,0.29,1.83c0,0.68-0.1,1.29-0.29,1.83c-0.2,0.54-0.47,1-0.83,1.37c-0.36,0.38-0.79,0.66-1.29,0.86
			s-1.06,0.3-1.68,0.3c-0.62,0-1.18-0.1-1.68-0.3s-0.93-0.49-1.29-0.86c-0.36-0.38-0.63-0.83-0.83-1.37
			C316.12,349.58,316.02,348.97,316.02,348.29z M317.89,348.29c0,0.42,0.05,0.81,0.14,1.17c0.09,0.36,0.23,0.66,0.41,0.91
			c0.18,0.25,0.42,0.45,0.7,0.59c0.28,0.14,0.61,0.21,0.98,0.21c0.38,0,0.7-0.07,0.98-0.21c0.28-0.14,0.51-0.34,0.7-0.59
			c0.18-0.25,0.32-0.56,0.41-0.91c0.09-0.36,0.14-0.75,0.14-1.17c0-0.42-0.05-0.81-0.14-1.17c-0.09-0.36-0.23-0.66-0.41-0.91
			c-0.18-0.25-0.42-0.45-0.7-0.59c-0.28-0.14-0.61-0.21-0.98-0.21c-0.38,0-0.7,0.07-0.98,0.21c-0.28,0.14-0.51,0.34-0.7,0.59
			c-0.18,0.25-0.32,0.56-0.41,0.91C317.93,347.47,317.89,347.86,317.89,348.29z"/>
		<path class="st0" d="M327.03,344.09h3.13c0.64,0,1.22,0.09,1.73,0.28c0.51,0.19,0.94,0.46,1.3,0.82c0.35,0.36,0.62,0.79,0.81,1.31
			c0.19,0.52,0.28,1.12,0.28,1.79s-0.09,1.27-0.28,1.79c-0.19,0.52-0.46,0.96-0.81,1.31c-0.35,0.36-0.78,0.63-1.3,0.82
			c-0.51,0.19-1.09,0.28-1.73,0.28h-3.13V344.09z M332.42,348.29c0-0.41-0.05-0.78-0.14-1.11c-0.09-0.33-0.23-0.62-0.42-0.86
			c-0.19-0.24-0.43-0.42-0.71-0.55c-0.29-0.13-0.63-0.19-1.03-0.19h-1.27V351h1.27c0.4,0,0.74-0.06,1.03-0.19
			c0.29-0.13,0.53-0.31,0.71-0.55c0.19-0.24,0.33-0.53,0.42-0.86C332.37,349.07,332.42,348.7,332.42,348.29z"/>
		<path class="st0" d="M337.1,352.49v-8.4h5.72v1.49h-3.95v1.85h3.67v1.49h-3.67V351h4.01v1.49H337.1z"/>
		<path class="st0" d="M345.66,344.09h1.8v6.9h3.67v1.5h-5.47V344.09z"/>
	</g>
</g>
<g id="REF" class="st10">
	<rect x="17" y="90.33" class="st11" width="360" height="108"/>
	<line class="st14" x1="197" y1="0.19" x2="197" y2="360.06"/>
</g>
<g id="LINE_ONE">
	<g>
		<path class="st6" d="M71.07,243.24v4.92h-2.98v-14h5.32c0.84,0,1.6,0.09,2.28,0.26c0.68,0.17,1.26,0.44,1.74,0.8
			c0.48,0.36,0.85,0.82,1.12,1.38c0.27,0.56,0.4,1.23,0.4,2.02c0,0.8-0.14,1.49-0.41,2.07s-0.65,1.06-1.14,1.44
			c-0.49,0.38-1.07,0.66-1.75,0.84c-0.68,0.18-1.43,0.27-2.24,0.27H71.07z M75.89,238.62c0-0.76-0.23-1.28-0.69-1.56
			c-0.46-0.28-1.16-0.42-2.09-0.42h-2.04v4.12h2.04c0.93,0,1.63-0.17,2.09-0.5C75.66,239.93,75.89,239.38,75.89,238.62z"/>
		<path class="st6" d="M94.41,248.16h-3.1l-1.12-3.24h-5.02l-1.12,3.24h-2.94l5.04-14h3.22L94.41,248.16z M87.65,237.44
			c-0.03,0.11-0.07,0.26-0.14,0.47s-0.14,0.44-0.22,0.7s-0.17,0.54-0.27,0.84c-0.1,0.3-0.2,0.59-0.29,0.87
			c-0.23,0.69-0.47,1.43-0.74,2.22h3.38c-0.27-0.79-0.51-1.53-0.74-2.22c-0.15-0.4-0.26-0.73-0.35-0.99
			c-0.09-0.26-0.17-0.51-0.24-0.75s-0.14-0.46-0.21-0.67c-0.07-0.21-0.11-0.36-0.14-0.47H87.65z"/>
		<path class="st6" d="M95.89,234.16h11.1v2.5h-4.04v11.5h-3.02v-11.5h-4.04V234.16z"/>
		<path class="st6" d="M111.21,234.16h3v14h-3V234.16z"/>
		<path class="st6" d="M119.49,248.16v-14h9.54v2.48h-6.58v3.08h6.12v2.48h-6.12v3.48h6.68v2.48H119.49z"/>
		<path class="st6" d="M133.77,234.16h3.12c0.81,1.32,1.59,2.57,2.32,3.76c0.44,0.71,0.8,1.29,1.08,1.75s0.56,0.92,0.84,1.37
			s0.55,0.88,0.8,1.29c0.25,0.41,0.47,0.75,0.64,1.03h0.06v-9.2h2.84v14h-3.12c-0.8-1.29-1.56-2.53-2.28-3.7
			c-0.43-0.69-0.78-1.27-1.07-1.73c-0.29-0.46-0.57-0.92-0.85-1.38c-0.28-0.46-0.55-0.9-0.81-1.32s-0.48-0.78-0.67-1.07h-0.06v9.2
			h-2.84V234.16z"/>
		<path class="st6" d="M149.69,234.16h11.1v2.5h-4.04v11.5h-3.02v-11.5h-4.04V234.16z"/>
		<path class="st6" d="M163.05,241.32h5.5v2.14h-5.5V241.32z"/>
		<path class="st6" d="M172.89,241.16c0-1.15,0.16-2.17,0.48-3.07c0.32-0.9,0.78-1.66,1.37-2.29c0.59-0.63,1.31-1.1,2.16-1.43
			c0.85-0.33,1.8-0.49,2.85-0.49c1.49,0,2.75,0.33,3.76,0.98s1.73,1.65,2.16,2.98l-2.92,1.02c-0.24-0.79-0.6-1.4-1.08-1.83
			s-1.14-0.65-1.98-0.65c-0.61,0-1.15,0.12-1.62,0.36s-0.85,0.57-1.16,0.99s-0.54,0.92-0.69,1.51s-0.23,1.23-0.23,1.92
			s0.08,1.33,0.23,1.91s0.38,1.08,0.69,1.51s0.69,0.76,1.16,1s1.01,0.36,1.64,0.36c0.77,0,1.4-0.19,1.89-0.58s0.86-0.97,1.11-1.76
			l2.88,1.02c-0.47,1.19-1.19,2.12-2.16,2.8c-0.97,0.68-2.23,1.02-3.76,1.02c-1.03,0-1.96-0.16-2.79-0.49
			c-0.83-0.33-1.55-0.8-2.14-1.42c-0.59-0.62-1.05-1.38-1.37-2.29C173.05,243.33,172.89,242.31,172.89,241.16z"/>
		<path class="st6" d="M190.07,248.16v-14h9.54v2.48h-6.58v3.08h6.12v2.48h-6.12v3.48h6.68v2.48H190.07z"/>
		<path class="st6" d="M204.35,234.16h3.12c0.81,1.32,1.59,2.57,2.32,3.76c0.44,0.71,0.8,1.29,1.08,1.75s0.56,0.92,0.84,1.37
			s0.55,0.88,0.8,1.29c0.25,0.41,0.47,0.75,0.64,1.03h0.06v-9.2h2.84v14h-3.12c-0.8-1.29-1.56-2.53-2.28-3.7
			c-0.43-0.69-0.78-1.27-1.07-1.73s-0.57-0.92-0.85-1.38c-0.28-0.46-0.55-0.9-0.81-1.32s-0.48-0.78-0.67-1.07h-0.06v9.2h-2.84
			V234.16z"/>
		<path class="st6" d="M220.27,234.16h11.1v2.5h-4.04v11.5h-3.02v-11.5h-4.04V234.16z"/>
		<path class="st6" d="M235.59,248.16v-14h9.54v2.48h-6.58v3.08h6.12v2.48h-6.12v3.48h6.68v2.48H235.59z"/>
		<path class="st6" d="M260.35,238.42c0,1.04-0.24,1.89-0.71,2.54s-1.12,1.14-1.95,1.46l3.22,5.74h-3.3l-2.9-5.3h-1.86v5.3h-2.98
			v-14h5.12c0.81,0,1.55,0.08,2.21,0.25c0.66,0.17,1.22,0.42,1.69,0.77c0.47,0.35,0.83,0.79,1.08,1.32
			C260.22,237.03,260.35,237.67,260.35,238.42z M257.27,238.44c0-0.68-0.22-1.15-0.65-1.41c-0.43-0.26-1.09-0.39-1.97-0.39h-1.8
			v3.78h1.8c0.88,0,1.54-0.15,1.97-0.45C257.05,239.67,257.27,239.16,257.27,238.44z"/>
		<path class="st6" d="M265.39,248.16v-14h9.54v2.48h-6.58v3.08h6.12v2.48h-6.12v3.48h6.68v2.48H265.39z"/>
		<path class="st6" d="M279.67,234.16h5.22c1.07,0,2.03,0.16,2.88,0.47c0.85,0.31,1.57,0.77,2.16,1.36
			c0.59,0.59,1.04,1.32,1.35,2.19c0.31,0.87,0.47,1.86,0.47,2.98s-0.16,2.11-0.47,2.98c-0.31,0.87-0.76,1.6-1.35,2.19
			c-0.59,0.59-1.31,1.05-2.16,1.36s-1.81,0.47-2.88,0.47h-5.22V234.16z M288.64,241.16c0-0.68-0.08-1.3-0.23-1.85
			c-0.15-0.55-0.39-1.03-0.7-1.43c-0.31-0.4-0.71-0.71-1.19-0.92c-0.48-0.21-1.05-0.32-1.72-0.32h-2.12v9.04h2.12
			c0.67,0,1.24-0.11,1.72-0.32c0.48-0.21,0.88-0.52,1.19-0.92c0.31-0.4,0.55-0.88,0.7-1.43
			C288.57,242.46,288.64,241.84,288.64,241.16z"/>
	</g>
</g>
<g id="LINE_TWO">
	<g>
		<path class="st6" d="M150.34,258.94c0-1.15,0.16-2.17,0.48-3.07c0.32-0.9,0.78-1.66,1.37-2.29c0.59-0.63,1.31-1.1,2.16-1.43
			c0.85-0.33,1.8-0.49,2.85-0.49c1.49,0,2.75,0.33,3.76,0.98c1.01,0.65,1.73,1.65,2.16,2.98l-2.92,1.02
			c-0.24-0.79-0.6-1.4-1.08-1.83c-0.48-0.43-1.14-0.65-1.98-0.65c-0.61,0-1.15,0.12-1.62,0.36c-0.47,0.24-0.85,0.57-1.16,0.99
			s-0.54,0.92-0.69,1.51s-0.23,1.23-0.23,1.92s0.08,1.33,0.23,1.91s0.38,1.08,0.69,1.51s0.69,0.76,1.16,1
			c0.47,0.24,1.01,0.36,1.64,0.36c0.77,0,1.4-0.19,1.89-0.58c0.49-0.39,0.86-0.97,1.11-1.76l2.88,1.02
			c-0.47,1.19-1.19,2.12-2.16,2.8c-0.97,0.68-2.23,1.02-3.76,1.02c-1.03,0-1.96-0.16-2.79-0.49s-1.55-0.8-2.14-1.42
			c-0.59-0.62-1.05-1.38-1.37-2.29C150.5,261.12,150.34,260.09,150.34,258.94z"/>
		<path class="st6" d="M179.68,265.94h-3.1l-1.12-3.24h-5.02l-1.12,3.24h-2.94l5.04-14h3.22L179.68,265.94z M172.92,255.23
			c-0.03,0.11-0.07,0.26-0.14,0.47c-0.07,0.21-0.14,0.44-0.22,0.7s-0.17,0.54-0.27,0.84c-0.1,0.3-0.2,0.59-0.29,0.87
			c-0.23,0.69-0.47,1.43-0.74,2.22h3.38c-0.27-0.79-0.51-1.53-0.74-2.22c-0.15-0.4-0.26-0.73-0.35-0.99s-0.17-0.51-0.24-0.75
			s-0.14-0.46-0.21-0.67s-0.11-0.36-0.14-0.47H172.92z"/>
		<path class="st6" d="M194.3,256.2c0,1.04-0.24,1.89-0.71,2.54s-1.12,1.14-1.95,1.46l3.22,5.74h-3.3l-2.9-5.3h-1.86v5.3h-2.98v-14
			h5.12c0.81,0,1.55,0.08,2.21,0.25c0.66,0.17,1.22,0.42,1.69,0.77c0.47,0.35,0.83,0.79,1.08,1.32
			C194.17,254.82,194.3,255.46,194.3,256.2z M191.22,256.23c0-0.68-0.22-1.15-0.65-1.41c-0.43-0.26-1.09-0.39-1.97-0.39h-1.8v3.78
			h1.8c0.88,0,1.54-0.15,1.97-0.45C191,257.45,191.22,256.94,191.22,256.23z"/>
		<path class="st6" d="M199.34,265.94v-14h9.54v2.48h-6.58v3.08h6.12v2.48h-6.12v3.48h6.68v2.48H199.34z"/>
	</g>
</g>
<g id="ICON">
	<g>
		<path class="st64" d="M186.79,165.59c-17.22-0.04-33.06-11.9-36.8-29.27c-2.9-13.48,0.74-25.2,10.41-34.97
			c6.07-6.13,13.57-9.58,22.09-10.67c17.74-2.28,35.01,8.2,40.72,25.28c1.29,3.87,2.09,7.87,2.01,11.88
			c-0.17,8.39-2.69,16.1-7.94,22.78c-6.35,8.07-14.63,12.9-24.79,14.42C190.6,165.31,188.69,165.41,186.79,165.59z M187.25,98.63
			c-16.92,0.06-29.91,13.59-29.85,29.48c0.07,16.59,13.52,29.23,29.62,29.13c16.84-0.1,30.11-13.53,29.72-30.13
			C216.36,110.66,202.79,98.64,187.25,98.63z"/>
		<path class="st64" d="M171.54,168.99c-3.25,4.88-6.39,9.63-9.56,14.37c-2.16,3.24-4.37,6.45-6.51,9.7
			c-2.06,3.14-4.98,5.01-8.66,5.22c-2.53,0.15-4.95-0.8-7.07-2.31c-3.02-2.13-4.73-5.1-4.95-8.73c-0.13-2.19,0.62-4.36,1.93-6.2
			c5.68-7.96,11.39-15.89,17.09-23.83c0.06-0.08,0.16-0.14,0.36-0.3C159,162.22,164.58,166.49,171.54,168.99z"/>
		<g>
			<path class="st64" d="M206.07,143.11c-12.65,0-25.26,0-37.93,0c0.03-0.6,0.04-1.18,0.09-1.75c0.4-3.99,1.89-7.52,4.5-10.57
				c1.63-1.91,3.57-3.42,5.8-4.57c0.26-0.13,0.4-0.09,0.6,0.09c2.6,2.32,5.66,3.33,9.12,3.03c2.55-0.22,4.81-1.22,6.72-2.93
				c0.31-0.28,0.53-0.31,0.89-0.11c5.51,3.03,8.86,7.63,9.97,13.83c0.16,0.87,0.17,1.77,0.24,2.66
				C206.1,142.88,206.08,142.98,206.07,143.11z"/>
			<path class="st64" d="M177.82,117.47c-0.01-5.11,4.15-9.31,9.24-9.33c5.14-0.02,9.36,4.14,9.37,9.24c0.01,5.2-4.13,9.4-9.28,9.41
				C182,126.79,177.83,122.63,177.82,117.47z"/>
		</g>
	</g>
</g>
</svg>
