<?xml version="1.0" encoding="utf-8"?>
<!-- Generator: Adobe Illustrator 23.1.0, SVG Export Plug-In . SVG Version: 6.00 Build 0)  -->
<svg version="1.1" xmlns="http://www.w3.org/2000/svg" xmlns:xlink="http://www.w3.org/1999/xlink" x="0px" y="0px"
	 viewBox="0 0 360 360" enable-background="new 0 0 360 360" xml:space="preserve">
<g id="BACKGROUND">
	<rect y="0" fill="#FFFFFF" width="360" height="360"/>
</g>
<g id="REF" display="none">
	
		<rect y="90.27" display="inline" fill="none" stroke="#000000" stroke-width="0.25" stroke-miterlimit="10" width="360" height="108"/>
	
		<rect x="360" y="90.27" display="inline" fill="none" stroke="#FFFFFF" stroke-width="0.25" stroke-miterlimit="10" width="360" height="108"/>
	
		<line display="inline" fill="none" stroke="#000000" stroke-width="0.25" stroke-linecap="round" stroke-miterlimit="10" x1="180" y1="0" x2="180" y2="359.87"/>
</g>
<g id="LINE_ONE">
	<g>
		<path d="M110.32,248.16c-0.2-0.55-0.45-1.26-0.75-2.15c-0.3-0.89-0.61-1.81-0.93-2.77s-0.63-1.9-0.93-2.82
			c-0.3-0.92-0.54-1.69-0.73-2.32h-0.06v10.06h-2.76v-14h4.2c0.57,1.71,1.09,3.27,1.56,4.7c0.28,0.85,0.51,1.54,0.69,2.07
			c0.18,0.53,0.35,1.03,0.5,1.51c0.15,0.48,0.29,0.91,0.42,1.3c0.13,0.39,0.22,0.67,0.27,0.84c0.05-0.17,0.14-0.45,0.26-0.84
			c0.12-0.39,0.26-0.84,0.43-1.37c0.17-0.53,0.35-1.09,0.54-1.7c0.19-0.61,0.39-1.21,0.59-1.81c0.45-1.43,0.95-2.99,1.5-4.7h4.18v14
			h-2.76V238.1h-0.06c-0.13,0.41-0.29,0.91-0.48,1.49c-0.19,0.58-0.39,1.2-0.61,1.85c-0.22,0.65-0.44,1.32-0.67,1.99
			c-0.23,0.67-0.44,1.31-0.64,1.92c-0.2,0.61-0.38,1.16-0.55,1.65c-0.17,0.49-0.3,0.88-0.41,1.16H110.32z"/>
		<path d="M124.58,234.16h3v14h-3V234.16z"/>
		<path d="M132.86,234.16h3v11.5h6.12v2.5h-9.12V234.16z"/>
		<path d="M146.18,234.16h3v11.5h6.12v2.5h-9.12V234.16z"/>
		<path d="M159.5,248.16v-14h9.54v2.48h-6.58v3.08h6.12v2.48h-6.12v3.48h6.68v2.48H159.5z"/>
		<path d="M173.78,234.16h3.12c0.81,1.32,1.59,2.57,2.32,3.76c0.44,0.71,0.8,1.29,1.08,1.75s0.56,0.92,0.84,1.37
			c0.28,0.45,0.55,0.88,0.8,1.29c0.25,0.41,0.47,0.75,0.64,1.03h0.06v-9.2h2.84v14h-3.12c-0.8-1.29-1.56-2.53-2.28-3.7
			c-0.43-0.69-0.78-1.27-1.07-1.73s-0.57-0.92-0.85-1.38c-0.28-0.46-0.55-0.9-0.81-1.32s-0.48-0.78-0.67-1.07h-0.06v9.2h-2.84
			V234.16z"/>
		<path d="M190.76,234.16h3.12c0.81,1.32,1.59,2.57,2.32,3.76c0.44,0.71,0.8,1.29,1.08,1.75c0.28,0.46,0.56,0.92,0.84,1.37
			c0.28,0.45,0.55,0.88,0.8,1.29c0.25,0.41,0.47,0.75,0.64,1.03h0.06v-9.2h2.84v14h-3.12c-0.8-1.29-1.56-2.53-2.28-3.7
			c-0.43-0.69-0.78-1.27-1.07-1.73s-0.57-0.92-0.85-1.38c-0.28-0.46-0.55-0.9-0.81-1.32s-0.48-0.78-0.67-1.07h-0.06v9.2h-2.84
			V234.16z"/>
		<path d="M207.74,234.16h3v14h-3V234.16z"/>
		<path d="M228.18,248.16h-3.1l-1.12-3.24h-5.02l-1.12,3.24h-2.94l5.04-14h3.22L228.18,248.16z M221.42,237.44
			c-0.03,0.11-0.07,0.26-0.14,0.47s-0.14,0.44-0.22,0.7c-0.08,0.26-0.17,0.54-0.27,0.84s-0.2,0.59-0.29,0.87
			c-0.23,0.69-0.47,1.43-0.74,2.22h3.38c-0.27-0.79-0.51-1.53-0.74-2.22c-0.15-0.4-0.26-0.73-0.35-0.99
			c-0.09-0.26-0.17-0.51-0.24-0.75c-0.07-0.24-0.14-0.46-0.21-0.67s-0.11-0.36-0.14-0.47H221.42z"/>
		<path d="M232.32,234.16h3v11.5h6.12v2.5h-9.12V234.16z"/>
		<path d="M248.36,237.84c0,0.6,0.26,1.03,0.78,1.29c0.52,0.26,1.35,0.48,2.48,0.67c1.67,0.28,2.89,0.74,3.67,1.38
			c0.78,0.64,1.17,1.59,1.17,2.86c0,0.68-0.14,1.29-0.42,1.83c-0.28,0.54-0.67,1-1.17,1.38s-1.1,0.67-1.79,0.88
			c-0.69,0.21-1.45,0.31-2.26,0.31c-0.88,0-1.67-0.12-2.38-0.35c-0.71-0.23-1.31-0.54-1.8-0.93s-0.88-0.84-1.16-1.36
			c-0.28-0.52-0.43-1.06-0.46-1.62l3-0.48c0.07,0.68,0.33,1.24,0.79,1.67c0.46,0.43,1.13,0.65,2.01,0.65c0.36,0,0.7-0.03,1.01-0.1
			c0.31-0.07,0.59-0.18,0.82-0.33c0.23-0.15,0.42-0.34,0.55-0.57c0.13-0.23,0.2-0.5,0.2-0.82c0-0.52-0.22-0.92-0.65-1.2
			s-1.2-0.51-2.29-0.68c-0.73-0.12-1.41-0.27-2.04-0.46s-1.17-0.44-1.63-0.77c-0.46-0.33-0.82-0.73-1.08-1.22
			c-0.26-0.49-0.39-1.08-0.39-1.79c0-0.71,0.13-1.32,0.4-1.84c0.27-0.52,0.64-0.96,1.12-1.31c0.48-0.35,1.05-0.62,1.7-0.79
			c0.65-0.17,1.37-0.26,2.14-0.26c0.72,0,1.39,0.08,2.02,0.25c0.63,0.17,1.18,0.41,1.67,0.74c0.49,0.33,0.89,0.73,1.21,1.21
			c0.32,0.48,0.54,1.03,0.66,1.64l-3.04,0.66c-0.11-0.64-0.38-1.15-0.82-1.52s-1.03-0.56-1.78-0.56c-0.76,0-1.32,0.14-1.69,0.42
			C248.54,237,248.36,237.37,248.36,237.84z"/>
	</g>
</g>
<g id="LINE_TWO">
</g>
<g id="ICON">
	<g>
		<path fill="none" stroke="#000000" stroke-width="3" stroke-miterlimit="10" d="M125.56,185.11c4.48-1.58,8.47-4.37,12.11-7.79
			c0.81-0.76,2.12-1.42,3.2-1.4c7.97,0.09,15.5-1.35,22.26-5.83c11.76-7.8,11.95-21.57,0.4-29.61c-11.88-8.27-30.77-7.93-42.22,0.77
			c-10.42,7.91-10.07,20.84,0.84,28.45c2,1.39,4.24,2.48,6.49,3.45c1.39,0.6,1.99,1.24,1.33,2.66
			C128.51,178.93,127.02,182.04,125.56,185.11z"/>
		<path fill="none" stroke="#000000" stroke-width="3" stroke-miterlimit="10" d="M226.92,197.83c0.93-3.56,1.87-7.13,2.8-10.69
			c0.26-1.01,0.53-2.02,0.8-3.04c0.32-1.21,0.15-1.46-1.07-1.45c-4.37,0.02-8.75,0.04-13.12,0.07c-7.91,0.06-15.82,0.16-23.73,0.19
			c-2.33,0.01-4.71,0.09-6.99-0.32c-3.9-0.69-6.08-3.57-6.09-7.49c-0.02-7.35-0.04-14.7-0.05-22.05c-0.01-4.58,3.12-7.89,7.73-8.01
			c6.26-0.17,12.53-0.24,18.79-0.33c10.25-0.14,20.51-0.24,30.76-0.39c2.19-0.03,4.25,0.35,6.07,1.62c1.95,1.36,3.04,3.2,3.07,5.65
			c0.09,7.66,0.12,15.33,0.39,22.99c0.16,4.44-3.16,7.28-6.69,7.8c-1.42,0.21-2.28,0.78-3.06,1.94c-2.87,4.26-5.84,8.46-8.77,12.68
			c-0.22,0.31-0.45,0.61-0.68,0.91C227.03,197.88,226.97,197.86,226.92,197.83z"/>
		<path fill="none" stroke="#000000" stroke-width="3" stroke-miterlimit="10" d="M156.55,127.17c-4.99-0.14-8.81-1.77-11.45-5.66
			c-0.44-0.65-0.95-0.77-1.66-0.77c-2.81,0.01-4.95-1.58-5.54-4.05c-0.41-1.73,0.15-3.19,1.29-4.48c0.86-0.98,0.86-1.14-0.14-1.97
			c-1.63-1.34-2.24-3.06-1.71-5.08c0.56-2.11,2.07-3.43,4.17-3.66c1.68-0.18,2.38-0.74,2.87-2.43c1.72-5.85,8.83-8.73,14.64-6.12
			c0.35,0.15,0.69,0.32,1.01,0.52c0.62,0.38,1.13,0.31,1.68-0.18c3.61-3.25,7.83-3.45,11.76-0.56c0.64,0.47,1.14,0.44,1.75-0.06
			c3.32-2.68,7.26-2.73,10.52-0.1c0.72,0.58,1.25,0.58,2.02,0.12c3.18-1.91,7.43-1.46,9.83,1.08c0.64,0.68,0.97,1.64,1.51,2.43
			c0.28,0.41,0.66,0.92,1.1,1.05c4.08,1.28,6.02,5.57,3.91,9.15c-0.18,0.3-0.15,0.92,0.04,1.21c3.7,5.54-0.82,11.84-6.82,12.32
			c-0.31,0.02-0.62,0.04-0.93,0.03c-0.68-0.02-1.12,0.28-1.3,0.94c-1.31,4.9-7.6,7.68-12.77,4.86c-1.23-0.67-1.33-0.64-2.21,0.48
			c-4.35,5.54-13,5.98-18.16,0.86c-0.72-0.72-1.32-0.85-2.27-0.56C158.57,126.91,157.35,127.02,156.55,127.17z"/>
		<path fill="none" stroke="#000000" stroke-width="2" stroke-miterlimit="10" d="M197.87,133.01c-1.41-0.03-3.07-0.69-4.23-2.28
			c-1.44-1.96-0.56-4.22,1.82-4.76c1.75-0.4,3.36,0,4.81,1.01c1.45,1,2.12,2.57,1.7,3.91C201.58,132.16,200.17,132.99,197.87,133.01
			z"/>
		<path fill="none" stroke="#000000" stroke-width="2" stroke-miterlimit="10" d="M205.4,135.73c-1.32-0.05-2.49-0.48-3.31-1.58
			c-0.99-1.33-0.47-2.91,1.13-3.31c1.5-0.38,2.88-0.02,3.99,1.07c0.66,0.66,1.06,1.47,0.65,2.43
			C207.41,135.41,206.46,135.66,205.4,135.73z"/>
		<circle cx="142.95" cy="155.46" r="3.18"/>
		<circle cx="151.89" cy="155.46" r="3.18"/>
		<circle cx="133.98" cy="155.46" r="3.18"/>
		<path fill="none" stroke="#000000" stroke-miterlimit="10" d="M170.85,120.36c-0.92,0-1.84,0-2.76,0c-0.44,0-0.58-0.13-0.61-0.55
			c-0.12-1.82-0.77-3.48-1.63-5.08c-0.59-1.09-1.22-2.18-1.66-3.33c-1.57-4.09,0.74-8.21,5.09-9.17c4.04-0.89,8.06,1.73,8.66,5.68
			c0.24,1.59-0.15,3.09-0.87,4.51c-0.58,1.14-1.2,2.26-1.78,3.4c-0.64,1.28-1,2.63-1.1,4.05c-0.02,0.35-0.18,0.5-0.56,0.5
			C172.71,120.36,171.78,120.36,170.85,120.36z"/>
		<path d="M170.81,122.32c-0.87,0-1.74,0-2.61,0c-0.39,0-0.61-0.17-0.6-0.46c0.01-0.28,0.22-0.45,0.59-0.45c1.78,0,3.55,0,5.33,0
			c0.36,0,0.58,0.18,0.59,0.46c0.01,0.28-0.21,0.45-0.58,0.46C172.62,122.32,171.71,122.32,170.81,122.32z"/>
		<path d="M170.85,123.08c0.81,0,1.63,0,2.44,0c0.38,0,0.57,0.16,0.57,0.46c0,0.29-0.21,0.45-0.58,0.45c-1.62,0-3.23,0-4.85,0
			c-0.38,0-0.58-0.16-0.59-0.45c-0.01-0.3,0.19-0.46,0.6-0.46C169.25,123.07,170.05,123.08,170.85,123.08z"/>
		<path d="M170.38,98c0-0.49-0.01-0.98,0-1.46c0.01-0.38,0.17-0.57,0.47-0.57c0.29,0,0.45,0.2,0.46,0.58c0.01,0.98,0.01,1.95,0,2.93
			c0,0.38-0.17,0.57-0.47,0.57c-0.29,0-0.45-0.19-0.45-0.58C170.38,98.97,170.38,98.48,170.38,98z"/>
		<path d="M165.95,101.34c-0.07-0.06-0.24-0.14-0.32-0.27c-0.53-0.89-1.04-1.78-1.55-2.68c-0.16-0.28-0.09-0.53,0.15-0.66
			c0.27-0.15,0.48-0.05,0.62,0.19c0.53,0.91,1.07,1.82,1.58,2.74C166.61,100.97,166.38,101.33,165.95,101.34z"/>
		<path d="M175.13,100.93c0.08-0.17,0.12-0.28,0.18-0.38c0.49-0.84,0.97-1.69,1.46-2.53c0.2-0.34,0.42-0.43,0.67-0.3
			c0.28,0.15,0.32,0.4,0.12,0.74c-0.5,0.87-0.99,1.73-1.49,2.59c-0.12,0.21-0.31,0.36-0.54,0.24
			C175.37,101.23,175.26,101.05,175.13,100.93z"/>
		<path d="M162.98,104.29c0.01,0.47-0.36,0.67-0.71,0.47c-0.59-0.33-1.16-0.67-1.75-1.01c-0.31-0.18-0.63-0.35-0.93-0.54
			c-0.24-0.14-0.34-0.35-0.21-0.62c0.12-0.24,0.39-0.32,0.65-0.18c0.91,0.52,1.81,1.04,2.71,1.57
			C162.85,104.06,162.93,104.22,162.98,104.29z"/>
		<path d="M179.09,104.9c-0.12-0.11-0.32-0.22-0.34-0.36c-0.02-0.17,0.06-0.43,0.19-0.53c0.3-0.23,0.65-0.4,0.98-0.59
			c0.56-0.32,1.12-0.65,1.69-0.97c0.3-0.17,0.55-0.12,0.69,0.12c0.15,0.24,0.06,0.49-0.23,0.66c-0.87,0.51-1.74,1.01-2.62,1.51
			C179.36,104.8,179.26,104.83,179.09,104.9z"/>
		<path d="M182.37,115.49c0,0.44-0.35,0.66-0.67,0.48c-0.93-0.52-1.85-1.06-2.77-1.6c-0.24-0.14-0.28-0.37-0.16-0.6
			c0.13-0.24,0.36-0.31,0.59-0.18c0.94,0.53,1.87,1.07,2.79,1.62C182.27,115.28,182.33,115.44,182.37,115.49z"/>
		<path d="M159.72,116.07c-0.11-0.1-0.3-0.18-0.35-0.31c-0.05-0.13,0.01-0.33,0.07-0.48c0.03-0.08,0.16-0.13,0.25-0.18
			c0.83-0.48,1.66-0.96,2.49-1.44c0.32-0.18,0.59-0.14,0.73,0.09c0.14,0.24,0.05,0.51-0.26,0.69c-0.85,0.5-1.7,0.99-2.56,1.47
			C160,115.98,159.89,116.01,159.72,116.07z"/>
		<path d="M159.67,108.74c0.5,0,1,0,1.5,0c0.3,0,0.5,0.12,0.53,0.43c0.02,0.28-0.19,0.48-0.52,0.48c-1.01,0.01-2.02,0.01-3.04,0
			c-0.33,0-0.55-0.2-0.53-0.47c0.03-0.3,0.21-0.44,0.52-0.44C158.64,108.75,159.15,108.74,159.67,108.74z"/>
		<path d="M182.05,108.74c0.5,0,1,0,1.5,0c0.31,0,0.49,0.13,0.53,0.43c0.03,0.27-0.19,0.47-0.52,0.48c-1.01,0.01-2.02,0.01-3.04,0
			c-0.33,0-0.55-0.2-0.52-0.47c0.02-0.31,0.22-0.44,0.52-0.43C181.03,108.75,181.54,108.74,182.05,108.74z"/>
		<path d="M170.83,125.5c-0.43,0-0.86,0.01-1.29,0c-0.33-0.01-0.51-0.17-0.51-0.45c0-0.26,0.19-0.46,0.51-0.46
			c0.87-0.01,1.74-0.01,2.62,0c0.31,0,0.51,0.19,0.51,0.46c0,0.27-0.18,0.44-0.51,0.45C171.71,125.51,171.27,125.5,170.83,125.5z"/>
		<path d="M202.62,161.74c0.87-0.03,1.61-0.03,2.34-0.09c0.15-0.01,0.36-0.21,0.41-0.36c0.52-1.74,0.83-1.27,1.98-0.89
			c0.11,0.04,0.22,0.07,0.32,0.11c0.82,0.29,0.9,0.44,0.62,1.25c-0.07,0.2-0.18,0.39-0.19,0.59c-0.01,0.16,0.04,0.37,0.15,0.47
			c0.44,0.44,0.91,0.86,1.39,1.24c0.13,0.1,0.41,0.13,0.57,0.07c1.38-0.6,1.38-0.61,2.05,0.76c0.09,0.19,0.19,0.37,0.27,0.56
			c0.2,0.44,0.1,0.83-0.35,0.98c-0.91,0.28-1,0.81-0.96,1.72c0.05,0.97,0.16,1.61,1.24,1.78c0.36,0.06,0.49,0.4,0.37,0.77
			c-0.17,0.52-0.35,1.04-0.55,1.55c-0.16,0.42-0.51,0.56-0.87,0.35c-0.84-0.47-1.4-0.25-1.87,0.56c-0.2,0.35-0.58,0.59-0.99,1
			c0.17,0.29,0.38,0.63,0.55,0.98c0.23,0.46,0.08,0.8-0.38,1.02c-0.41,0.19-0.82,0.39-1.23,0.59c-0.46,0.22-0.88,0.13-1.01-0.36
			c-0.26-0.93-0.82-0.98-1.69-0.93c-0.95,0.05-1.62,0.14-1.79,1.23c-0.06,0.4-0.44,0.5-0.82,0.37c-0.49-0.16-0.97-0.34-1.45-0.51
			c-0.44-0.16-0.62-0.5-0.41-0.9c0.44-0.81,0.18-1.28-0.5-1.86c-0.69-0.59-1.2-1.1-2.11-0.43c-0.33,0.24-0.7,0.07-0.89-0.32
			c-0.23-0.46-0.45-0.92-0.66-1.39c-0.19-0.42-0.07-0.81,0.35-0.93c1-0.26,1-0.88,0.96-1.77c-0.04-0.93-0.17-1.53-1.19-1.7
			c-0.42-0.07-0.54-0.45-0.4-0.85c0.16-0.47,0.32-0.93,0.49-1.4c0.17-0.46,0.51-0.65,0.94-0.42c0.79,0.43,1.24,0.19,1.82-0.49
			c0.62-0.72,1.13-1.24,0.44-2.17c-0.23-0.32-0.04-0.67,0.31-0.85c0.47-0.24,0.95-0.48,1.43-0.69c0.39-0.17,0.72-0.04,0.9,0.35
			C202.38,161.08,202.51,161.45,202.62,161.74z M205.74,164.79c-2.14-0.77-4.41,0.28-5.19,2.4c-0.77,2.09,0.31,4.42,2.41,5.2
			c2.09,0.78,4.42-0.31,5.18-2.42C208.91,167.83,207.86,165.55,205.74,164.79z"/>
		<path d="M218.87,153.38c1.02-0.27,1.88-0.48,2.71-0.75c0.17-0.05,0.36-0.34,0.38-0.53c0.14-2.18,0.62-1.72,2.08-1.59
			c0.14,0.01,0.27,0.03,0.41,0.04c1.04,0.11,1.18,0.27,1.07,1.29c-0.03,0.25-0.1,0.51-0.06,0.75c0.03,0.19,0.15,0.42,0.3,0.51
			c0.64,0.39,1.3,0.76,1.97,1.07c0.18,0.08,0.52,0.04,0.69-0.08c1.46-1.08,1.45-1.09,2.61,0.33c0.16,0.19,0.32,0.38,0.47,0.58
			c0.35,0.46,0.35,0.95-0.14,1.24c-0.98,0.58-0.95,1.23-0.65,2.27c0.33,1.12,0.63,1.84,1.94,1.74c0.44-0.03,0.69,0.34,0.65,0.79
			c-0.05,0.66-0.13,1.32-0.22,1.97c-0.07,0.53-0.44,0.79-0.93,0.65c-1.12-0.32-1.71,0.1-2.04,1.17c-0.14,0.46-0.51,0.85-0.88,1.44
			c0.28,0.3,0.61,0.63,0.91,0.99c0.39,0.47,0.32,0.92-0.16,1.3c-0.43,0.34-0.86,0.68-1.28,1.03c-0.48,0.39-0.99,0.39-1.29-0.14
			c-0.56-1.02-1.23-0.92-2.23-0.63c-1.1,0.32-1.86,0.61-1.75,1.93c0.04,0.48-0.38,0.7-0.85,0.66c-0.61-0.05-1.22-0.13-1.84-0.2
			c-0.56-0.07-0.86-0.42-0.72-0.94c0.29-1.07-0.14-1.55-1.1-2.04c-0.97-0.5-1.71-0.95-2.59,0.08c-0.32,0.37-0.8,0.27-1.13-0.13
			c-0.39-0.47-0.78-0.95-1.16-1.44c-0.34-0.44-0.31-0.93,0.16-1.18c1.1-0.58,0.93-1.3,0.63-2.33c-0.31-1.07-0.62-1.75-1.87-1.66
			c-0.51,0.04-0.75-0.37-0.7-0.89c0.06-0.59,0.12-1.18,0.19-1.77c0.07-0.58,0.42-0.91,0.98-0.76c1.05,0.28,1.51-0.12,2-1.07
			c0.52-1.01,0.98-1.77-0.09-2.67c-0.36-0.31-0.23-0.77,0.13-1.08c0.48-0.42,0.98-0.82,1.49-1.2c0.41-0.31,0.83-0.24,1.15,0.16
			C218.4,152.67,218.66,153.08,218.87,153.38z M223.36,156.09c-2.72-0.32-5.09,1.54-5.42,4.24c-0.32,2.66,1.58,5.09,4.26,5.42
			c2.67,0.33,5.09-1.58,5.4-4.26C227.92,158.77,226.05,156.4,223.36,156.09z"/>
	</g>
</g>
</svg>
