<?xml version="1.0" encoding="utf-8"?>
<!-- Generator: Adobe Illustrator 23.1.0, SVG Export Plug-In . SVG Version: 6.00 Build 0)  -->
<svg version="1.1" xmlns="http://www.w3.org/2000/svg" xmlns:xlink="http://www.w3.org/1999/xlink" x="0px" y="0px"
	 viewBox="0 0 360 360" enable-background="new 0 0 360 360" xml:space="preserve">
<g id="BACKGROUND">
	<rect x="0" y="0" fill="#FFFFFF" width="360" height="360"/>
</g>
<g id="REF" display="none">
	
		<rect y="90.33" display="inline" fill="none" stroke="#000000" stroke-width="0.25" stroke-miterlimit="10" width="360" height="108"/>
	
		<rect x="360" y="90.33" display="inline" fill="none" stroke="#FFFFFF" stroke-width="0.25" stroke-miterlimit="10" width="360" height="108"/>
	
		<line display="inline" fill="none" stroke="#000000" stroke-width="0.25" stroke-linecap="round" stroke-miterlimit="10" x1="180" y1="0.19" x2="180" y2="360.06"/>
</g>
<g id="LINE_ONE">
	<g>
		<path d="M156.13,243.24v4.92h-2.98v-14h5.32c0.84,0,1.6,0.09,2.28,0.26c0.68,0.17,1.26,0.44,1.74,0.8
			c0.48,0.36,0.85,0.82,1.12,1.38c0.27,0.56,0.4,1.23,0.4,2.02c0,0.8-0.14,1.49-0.41,2.07s-0.65,1.06-1.14,1.44
			c-0.49,0.38-1.07,0.66-1.75,0.84c-0.68,0.18-1.43,0.27-2.24,0.27H156.13z M160.95,238.62c0-0.76-0.23-1.28-0.69-1.56
			c-0.46-0.28-1.16-0.42-2.09-0.42h-2.04v4.12h2.04c0.93,0,1.63-0.17,2.09-0.5C160.72,239.92,160.95,239.38,160.95,238.62z"/>
		<path d="M168.41,248.16v-14h9.54v2.48h-6.58v3.08h6.12v2.48h-6.12v3.48h6.68v2.48H168.41z"/>
		<path d="M181.63,234.16h11.1v2.5h-4.04v11.5h-3.02v-11.5h-4.04V234.16z"/>
		<path d="M199.37,237.84c0,0.6,0.26,1.03,0.78,1.29c0.52,0.26,1.35,0.48,2.48,0.67c1.67,0.28,2.89,0.74,3.67,1.38
			c0.78,0.64,1.17,1.59,1.17,2.86c0,0.68-0.14,1.29-0.42,1.83c-0.28,0.54-0.67,1-1.17,1.38s-1.1,0.67-1.79,0.88
			c-0.69,0.21-1.45,0.31-2.26,0.31c-0.88,0-1.67-0.12-2.38-0.35c-0.71-0.23-1.31-0.54-1.8-0.93c-0.49-0.39-0.88-0.84-1.16-1.36
			c-0.28-0.52-0.43-1.06-0.46-1.62l3-0.48c0.07,0.68,0.33,1.24,0.79,1.67c0.46,0.43,1.13,0.65,2.01,0.65c0.36,0,0.7-0.03,1.01-0.1
			c0.31-0.07,0.59-0.18,0.82-0.33c0.23-0.15,0.42-0.34,0.55-0.57s0.2-0.5,0.2-0.82c0-0.52-0.22-0.92-0.65-1.2s-1.2-0.51-2.29-0.68
			c-0.73-0.12-1.41-0.27-2.04-0.46s-1.17-0.44-1.63-0.77c-0.46-0.33-0.82-0.73-1.08-1.22c-0.26-0.49-0.39-1.08-0.39-1.79
			c0-0.71,0.13-1.32,0.4-1.84c0.27-0.52,0.64-0.96,1.12-1.31c0.48-0.35,1.05-0.62,1.7-0.79c0.65-0.17,1.37-0.26,2.14-0.26
			c0.72,0,1.39,0.08,2.02,0.25c0.63,0.17,1.18,0.41,1.67,0.74c0.49,0.33,0.89,0.73,1.21,1.21c0.32,0.48,0.54,1.03,0.66,1.64
			l-3.04,0.66c-0.11-0.64-0.38-1.15-0.82-1.52c-0.44-0.37-1.03-0.56-1.78-0.56c-0.76,0-1.32,0.14-1.69,0.42
			C199.55,237,199.37,237.37,199.37,237.84z"/>
	</g>
</g>
<g id="LINE_TWO">
</g>
<g id="ICON">
	<g>
		<g>
			<path fill="none" stroke="#000000" stroke-width="3" stroke-linecap="round" stroke-linejoin="round" stroke-miterlimit="10" d="
				M206.35,163.66v15.78c0,3.83,1.3,7.54,3.69,10.54l6.66,8.36h-14.66h-26.66h-32.23v-29.86c0-17.8,14.43-32.23,32.23-32.23h0V99.57
				c0-6.03,4.89-10.93,10.93-10.93h20.01v4.08c0,4.38,3.55,7.92,7.92,7.92h10.35l0,6.76c0.13,5.59-5.45,7.92-6.78,7.92h-11.49
				c0,0,35.48,21.01-13.68,61.41c0,0-0.87,13.81,10.36,21.58"/>
			<path d="M213.39,121.58h-38.02L210,159.15C210,159.15,227.67,138.78,213.39,121.58z"/>
			<path d="M170.92,127.11c2.71,0,4.91-2.2,4.91-4.91h-9.82C166.02,124.92,168.21,127.11,170.92,127.11z"/>
			<path d="M168.89,122.2c1.92,1.92,5.02,1.92,6.94,0l-6.94-6.94C166.97,117.18,166.97,120.29,168.89,122.2z"/>
			<path d="M160.01,189.46c0,0,12.28-8,12.55-24.01c0,0,5.08-0.38,5.08,8.06s0.22,12.71,5.14,17.36s7.68,7.46,7.68,7.46h-7.36
				c0,0-5.52-6.11-10.65-7.63C167.31,189.19,160.01,189.46,160.01,189.46z"/>
			<path d="M196.84,88.65L196.84,88.65l-13.77,0.48c0,0-1.48,18.01,13.77,18.01V93.32c0-1.75,1.42-3.18,3.18-3.18v-1.5H196.84z"/>
		</g>
		<path d="M223.24,105.09c-1.75,0-3.18-1.42-3.18-3.18h3.18V105.09z"/>
	</g>
</g>
</svg>
