<?xml version="1.0" encoding="utf-8"?>
<!-- Generator: Adobe Illustrator 23.1.0, SVG Export Plug-In . SVG Version: 6.00 Build 0)  -->
<svg version="1.1" xmlns="http://www.w3.org/2000/svg" xmlns:xlink="http://www.w3.org/1999/xlink" x="0px" y="0px"
	 viewBox="0 0 360 360" enable-background="new 0 0 360 360" xml:space="preserve">
<g id="BACKGROUND">
	<rect x="0" y="0" width="360" height="360"/>
</g>
<g id="REF" display="none">
	
		<rect x="-360" y="90.33" display="inline" fill="none" stroke="#000000" stroke-width="0.25" stroke-miterlimit="10" width="360" height="108"/>
	
		<rect y="90.33" display="inline" fill="none" stroke="#FFFFFF" stroke-width="0.25" stroke-miterlimit="10" width="360" height="108"/>
	
		<line display="inline" fill="none" stroke="#FFFFFF" stroke-width="0.25" stroke-linecap="round" stroke-miterlimit="10" x1="180" y1="0.19" x2="180" y2="360.06"/>
</g>
<g id="LINE_ONE">
	<g>
		<path fill="#FFFFFF" d="M131.33,234.16h5.22c1.07,0,2.03,0.16,2.88,0.47c0.85,0.31,1.57,0.77,2.16,1.36
			c0.59,0.59,1.04,1.32,1.35,2.19c0.31,0.87,0.47,1.86,0.47,2.98s-0.16,2.11-0.47,2.98c-0.31,0.87-0.76,1.6-1.35,2.19
			c-0.59,0.59-1.31,1.05-2.16,1.36c-0.85,0.31-1.81,0.47-2.88,0.47h-5.22V234.16z M140.31,241.16c0-0.68-0.08-1.3-0.23-1.85
			c-0.15-0.55-0.39-1.03-0.7-1.43c-0.31-0.4-0.71-0.71-1.19-0.92c-0.48-0.21-1.05-0.32-1.72-0.32h-2.12v9.04h2.12
			c0.67,0,1.24-0.11,1.72-0.32s0.88-0.52,1.19-0.92c0.31-0.4,0.55-0.88,0.7-1.43C140.23,242.45,140.31,241.84,140.31,241.16z"/>
		<path fill="#FFFFFF" d="M148.11,248.16v-14h9.54v2.48h-6.58v3.08h6.12v2.48h-6.12v3.48h6.68v2.48H148.11z"/>
		<path fill="#FFFFFF" d="M162.39,234.16h3.12c0.81,1.32,1.59,2.57,2.32,3.76c0.44,0.71,0.8,1.29,1.08,1.75
			c0.28,0.46,0.56,0.92,0.84,1.37c0.28,0.45,0.55,0.88,0.8,1.29c0.25,0.41,0.47,0.75,0.64,1.03h0.06v-9.2h2.84v14h-3.12
			c-0.8-1.29-1.56-2.53-2.28-3.7c-0.43-0.69-0.78-1.27-1.07-1.73s-0.57-0.92-0.85-1.38c-0.28-0.46-0.55-0.9-0.81-1.32
			c-0.26-0.42-0.48-0.78-0.67-1.07h-0.06v9.2h-2.84V234.16z"/>
		<path fill="#FFFFFF" d="M182.09,237.84c0,0.6,0.26,1.03,0.78,1.29c0.52,0.26,1.35,0.48,2.48,0.67c1.67,0.28,2.89,0.74,3.67,1.38
			c0.78,0.64,1.17,1.59,1.17,2.86c0,0.68-0.14,1.29-0.42,1.83c-0.28,0.54-0.67,1-1.17,1.38s-1.1,0.67-1.79,0.88
			c-0.69,0.21-1.45,0.31-2.26,0.31c-0.88,0-1.67-0.12-2.38-0.35c-0.71-0.23-1.31-0.54-1.8-0.93s-0.88-0.84-1.16-1.36
			c-0.28-0.52-0.43-1.06-0.46-1.62l3-0.48c0.07,0.68,0.33,1.24,0.79,1.67c0.46,0.43,1.13,0.65,2.01,0.65c0.36,0,0.7-0.03,1.01-0.1
			c0.31-0.07,0.59-0.18,0.82-0.33c0.23-0.15,0.42-0.34,0.55-0.57s0.2-0.5,0.2-0.82c0-0.52-0.22-0.92-0.65-1.2s-1.2-0.51-2.29-0.68
			c-0.73-0.12-1.41-0.27-2.04-0.46s-1.17-0.44-1.63-0.77c-0.46-0.33-0.82-0.73-1.08-1.22c-0.26-0.49-0.39-1.08-0.39-1.79
			c0-0.71,0.13-1.32,0.4-1.84c0.27-0.52,0.64-0.96,1.12-1.31c0.48-0.35,1.05-0.62,1.7-0.79c0.65-0.17,1.37-0.26,2.14-0.26
			c0.72,0,1.39,0.08,2.02,0.25c0.63,0.17,1.18,0.41,1.67,0.74c0.49,0.33,0.89,0.73,1.21,1.21c0.32,0.48,0.54,1.03,0.66,1.64
			l-3.04,0.66c-0.11-0.64-0.38-1.15-0.82-1.52c-0.44-0.37-1.03-0.56-1.78-0.56c-0.76,0-1.32,0.14-1.69,0.42
			C182.27,237,182.09,237.37,182.09,237.84z"/>
		<path fill="#FFFFFF" d="M194.85,234.16h3v14h-3V234.16z"/>
		<path fill="#FFFFFF" d="M202.07,234.16h11.1v2.5h-4.04v11.5h-3.02v-11.5h-4.04V234.16z"/>
		<path fill="#FFFFFF" d="M221.63,242.3l-5.3-8.14h3.44l3.42,5.36l3.4-5.36h3.34l-5.3,8.14v5.86h-3V242.3z"/>
	</g>
</g>
<g id="LINE_TWO">
</g>
<g id="ICON">
	<g>
		<g>
			<path fill="#FFFFFF" d="M147.43,154.42c-12.65,0-25.26,0-37.93,0c0.03-0.6,0.04-1.18,0.09-1.75c0.4-3.99,1.89-7.52,4.5-10.57
				c1.63-1.91,3.57-3.42,5.8-4.57c0.26-0.13,0.4-0.09,0.6,0.09c2.6,2.32,5.66,3.33,9.12,3.03c2.55-0.22,4.81-1.22,6.72-2.93
				c0.31-0.28,0.53-0.31,0.89-0.11c5.51,3.03,8.86,7.63,9.97,13.83c0.16,0.87,0.17,1.77,0.24,2.66
				C147.45,154.19,147.43,154.3,147.43,154.42z"/>
			<path fill="#FFFFFF" d="M119.17,128.78c-0.01-5.11,4.15-9.31,9.24-9.33c5.14-0.02,9.36,4.14,9.37,9.24
				c0.01,5.2-4.13,9.4-9.28,9.41C123.35,138.11,119.19,133.94,119.17,128.78z"/>
		</g>
		<g>
			<path fill="#FFFFFF" d="M104.24,166.03c0.45-0.37,0.88-0.73,1.29-1.08c0.24-0.2,0.44-0.37,0.6-0.51
				c0.16-0.14,0.32-0.28,0.49-0.42s0.32-0.28,0.47-0.41c0.15-0.13,0.28-0.25,0.39-0.35c0.51-0.47,0.92-0.93,1.24-1.39
				c0.31-0.46,0.47-0.94,0.47-1.46c0-0.45-0.12-0.82-0.35-1.1c-0.23-0.28-0.56-0.43-0.98-0.43c-0.26,0-0.49,0.06-0.69,0.18
				c-0.2,0.12-0.37,0.27-0.5,0.46c-0.13,0.19-0.24,0.39-0.32,0.63c-0.08,0.23-0.13,0.47-0.15,0.71l-2.07-0.36
				c0.09-0.47,0.23-0.91,0.42-1.31c0.19-0.41,0.44-0.76,0.75-1.06s0.68-0.53,1.11-0.7c0.43-0.17,0.92-0.25,1.48-0.25
				c0.58,0,1.09,0.09,1.53,0.27c0.44,0.18,0.8,0.42,1.09,0.71c0.29,0.29,0.51,0.63,0.66,1.02c0.15,0.38,0.22,0.78,0.22,1.19
				c0,0.38-0.06,0.74-0.18,1.09s-0.29,0.69-0.5,1.02c-0.21,0.33-0.46,0.65-0.75,0.95c-0.28,0.3-0.59,0.61-0.92,0.91
				c-0.11,0.1-0.25,0.22-0.41,0.36c-0.16,0.14-0.33,0.28-0.5,0.43s-0.35,0.29-0.52,0.43c-0.18,0.14-0.33,0.26-0.47,0.37h4.33v1.74
				h-7.22V166.03z"/>
			<path fill="#FFFFFF" d="M113.56,166.03c0.45-0.37,0.88-0.73,1.29-1.08c0.24-0.2,0.44-0.37,0.6-0.51
				c0.16-0.14,0.32-0.28,0.49-0.42s0.32-0.28,0.47-0.41c0.15-0.13,0.28-0.25,0.39-0.35c0.51-0.47,0.92-0.93,1.24-1.39
				c0.31-0.46,0.47-0.94,0.47-1.46c0-0.45-0.12-0.82-0.35-1.1c-0.23-0.28-0.56-0.43-0.98-0.43c-0.26,0-0.49,0.06-0.69,0.18
				c-0.2,0.12-0.37,0.27-0.5,0.46c-0.13,0.19-0.24,0.39-0.32,0.63c-0.08,0.23-0.13,0.47-0.15,0.71l-2.07-0.36
				c0.09-0.47,0.23-0.91,0.42-1.31c0.19-0.41,0.44-0.76,0.75-1.06s0.68-0.53,1.11-0.7c0.43-0.17,0.92-0.25,1.48-0.25
				c0.58,0,1.09,0.09,1.53,0.27c0.44,0.18,0.8,0.42,1.09,0.71c0.29,0.29,0.51,0.63,0.66,1.02c0.15,0.38,0.22,0.78,0.22,1.19
				c0,0.38-0.06,0.74-0.18,1.09s-0.29,0.69-0.5,1.02c-0.21,0.33-0.46,0.65-0.75,0.95c-0.28,0.3-0.59,0.61-0.92,0.91
				c-0.11,0.1-0.25,0.22-0.41,0.36c-0.16,0.14-0.33,0.28-0.5,0.43s-0.35,0.29-0.52,0.43c-0.18,0.14-0.33,0.26-0.47,0.37h4.33v1.74
				h-7.22V166.03z"/>
			<path fill="#FFFFFF" d="M124.69,164.68c0.02,0.4,0.18,0.74,0.48,1.03c0.3,0.29,0.68,0.43,1.15,0.43c0.53,0,0.94-0.18,1.24-0.54
				s0.45-0.81,0.45-1.36c0-0.49-0.13-0.91-0.37-1.26c-0.25-0.35-0.65-0.52-1.2-0.52c-0.11,0-0.24,0.01-0.38,0.04
				c-0.14,0.03-0.29,0.07-0.43,0.13c-0.15,0.07-0.29,0.16-0.42,0.29s-0.25,0.29-0.34,0.5l-1.86-0.34l0.63-5.69h5.96l-0.3,1.74h-4.11
				l-0.3,2.44c0.2-0.25,0.46-0.45,0.79-0.6c0.32-0.15,0.74-0.23,1.25-0.23c0.56,0,1.04,0.1,1.45,0.3c0.41,0.2,0.75,0.46,1.02,0.79
				c0.27,0.33,0.47,0.7,0.6,1.12c0.13,0.42,0.19,0.84,0.19,1.27c0,0.51-0.09,0.99-0.26,1.43s-0.43,0.83-0.77,1.16
				c-0.34,0.33-0.75,0.59-1.23,0.78s-1.03,0.29-1.65,0.29c-0.55,0-1.04-0.08-1.48-0.23s-0.81-0.36-1.12-0.61
				c-0.31-0.25-0.54-0.53-0.71-0.85s-0.26-0.63-0.29-0.95L124.69,164.68z"/>
			<path fill="#FFFFFF" d="M137.92,159.93c0,0.45,0.19,0.77,0.58,0.97c0.39,0.19,1.01,0.36,1.86,0.5c1.25,0.21,2.17,0.55,2.75,1.03
				c0.58,0.48,0.88,1.19,0.88,2.14c0,0.51-0.1,0.97-0.31,1.37c-0.21,0.41-0.5,0.75-0.88,1.03c-0.37,0.28-0.82,0.5-1.34,0.66
				s-1.08,0.23-1.69,0.23c-0.66,0-1.25-0.09-1.78-0.26s-0.98-0.41-1.35-0.7c-0.37-0.29-0.66-0.63-0.87-1.02s-0.33-0.79-0.34-1.21
				l2.25-0.36c0.05,0.51,0.25,0.93,0.59,1.25s0.85,0.49,1.51,0.49c0.27,0,0.52-0.03,0.76-0.08c0.23-0.05,0.44-0.13,0.61-0.25
				c0.17-0.12,0.31-0.26,0.41-0.43c0.1-0.17,0.15-0.37,0.15-0.61c0-0.39-0.16-0.69-0.49-0.9s-0.9-0.38-1.71-0.51
				c-0.55-0.09-1.06-0.2-1.53-0.34c-0.47-0.14-0.88-0.33-1.22-0.58c-0.34-0.25-0.61-0.55-0.81-0.91c-0.19-0.36-0.29-0.81-0.29-1.34
				s0.1-0.99,0.3-1.38c0.2-0.39,0.48-0.72,0.84-0.98s0.78-0.46,1.27-0.59s1.02-0.19,1.6-0.19c0.54,0,1.04,0.06,1.51,0.19
				c0.47,0.13,0.89,0.31,1.25,0.55c0.36,0.25,0.67,0.55,0.91,0.91s0.4,0.77,0.49,1.23l-2.28,0.49c-0.08-0.48-0.28-0.86-0.61-1.14
				c-0.33-0.28-0.77-0.42-1.33-0.42c-0.57,0-0.99,0.1-1.27,0.31C138.05,159.3,137.92,159.58,137.92,159.93z"/>
			<path fill="#FFFFFF" d="M146.01,167.66v-10.49h7.18v1.86h-4.96v2.31h4.57v1.86h-4.57v4.46H146.01z"/>
		</g>
		<g>
			<path fill="#FFFFFF" d="M264.57,156.42c-12.65,0-25.26,0-37.93,0c0.03-0.6,0.04-1.18,0.09-1.75c0.4-3.99,1.89-7.52,4.5-10.57
				c1.63-1.91,3.57-3.42,5.8-4.57c0.26-0.13,0.4-0.09,0.6,0.09c2.6,2.32,5.66,3.33,9.12,3.03c2.55-0.22,4.81-1.22,6.72-2.93
				c0.31-0.28,0.53-0.31,0.89-0.11c5.51,3.03,8.86,7.63,9.97,13.83c0.16,0.87,0.17,1.77,0.24,2.66
				C264.6,156.2,264.58,156.3,264.57,156.42z"/>
			<path fill="#FFFFFF" d="M236.32,130.78c-0.01-5.11,4.15-9.31,9.24-9.33c5.14-0.02,9.36,4.14,9.37,9.24
				c0.01,5.2-4.13,9.4-9.28,9.41C240.5,140.11,236.33,135.95,236.32,130.78z"/>
		</g>
		<g>
			<path fill="#FFFFFF" d="M221.68,167.95h2.43v-6.35c-0.2,0.15-0.47,0.27-0.81,0.37s-0.7,0.16-1.09,0.18l-0.39-1.75
				c0.54-0.06,1.03-0.18,1.48-0.36s0.79-0.42,1.04-0.72h1.96v8.63h2.22v1.71h-6.83V167.95z"/>
			<path fill="#FFFFFF" d="M230.7,168.03c0.45-0.37,0.88-0.73,1.29-1.08c0.24-0.2,0.44-0.37,0.6-0.51c0.16-0.14,0.32-0.28,0.49-0.42
				s0.32-0.28,0.47-0.41c0.15-0.13,0.28-0.25,0.39-0.35c0.51-0.47,0.92-0.93,1.24-1.39c0.31-0.46,0.47-0.94,0.47-1.46
				c0-0.45-0.12-0.82-0.35-1.1c-0.23-0.28-0.56-0.43-0.98-0.43c-0.26,0-0.49,0.06-0.69,0.18c-0.2,0.12-0.37,0.27-0.5,0.46
				c-0.13,0.19-0.24,0.39-0.32,0.63c-0.08,0.23-0.13,0.47-0.15,0.71l-2.07-0.36c0.09-0.47,0.23-0.91,0.42-1.31
				c0.19-0.41,0.44-0.76,0.75-1.06s0.68-0.53,1.11-0.7c0.43-0.17,0.92-0.25,1.48-0.25c0.58,0,1.09,0.09,1.53,0.27
				c0.44,0.18,0.8,0.42,1.09,0.71c0.29,0.29,0.51,0.63,0.66,1.02c0.15,0.38,0.22,0.78,0.22,1.19c0,0.38-0.06,0.74-0.18,1.09
				s-0.29,0.69-0.5,1.02c-0.21,0.33-0.46,0.65-0.75,0.95c-0.28,0.3-0.59,0.61-0.92,0.91c-0.11,0.1-0.25,0.22-0.41,0.36
				c-0.16,0.14-0.33,0.28-0.5,0.43s-0.35,0.29-0.52,0.43c-0.18,0.14-0.33,0.26-0.47,0.37h4.33v1.74h-7.22V168.03z"/>
			<path fill="#FFFFFF" d="M241.83,166.68c0.02,0.4,0.18,0.74,0.48,1.03c0.3,0.29,0.68,0.43,1.15,0.43c0.53,0,0.94-0.18,1.24-0.54
				s0.45-0.81,0.45-1.36c0-0.49-0.13-0.91-0.37-1.26c-0.25-0.35-0.65-0.52-1.2-0.52c-0.11,0-0.24,0.01-0.38,0.04
				c-0.14,0.03-0.29,0.07-0.43,0.13c-0.15,0.07-0.29,0.16-0.42,0.29s-0.25,0.29-0.34,0.5l-1.86-0.34l0.63-5.69h5.96l-0.3,1.74h-4.11
				l-0.3,2.44c0.2-0.25,0.46-0.45,0.79-0.6c0.32-0.15,0.74-0.23,1.25-0.23c0.56,0,1.04,0.1,1.45,0.3c0.41,0.2,0.75,0.46,1.02,0.79
				c0.27,0.33,0.47,0.7,0.6,1.12c0.13,0.42,0.19,0.84,0.19,1.27c0,0.51-0.09,0.99-0.26,1.43s-0.43,0.83-0.77,1.16
				c-0.34,0.33-0.75,0.59-1.23,0.78s-1.03,0.29-1.65,0.29c-0.55,0-1.04-0.08-1.48-0.23s-0.81-0.36-1.12-0.61
				c-0.31-0.25-0.54-0.53-0.71-0.85s-0.26-0.63-0.29-0.95L241.83,166.68z"/>
			<path fill="#FFFFFF" d="M255.06,161.93c0,0.45,0.19,0.77,0.58,0.97c0.39,0.19,1.01,0.36,1.86,0.5c1.25,0.21,2.17,0.55,2.75,1.03
				c0.58,0.48,0.88,1.19,0.88,2.14c0,0.51-0.1,0.97-0.31,1.37c-0.21,0.41-0.5,0.75-0.88,1.03c-0.37,0.28-0.82,0.5-1.34,0.66
				s-1.08,0.23-1.69,0.23c-0.66,0-1.25-0.09-1.78-0.26s-0.98-0.41-1.35-0.7c-0.37-0.29-0.66-0.63-0.87-1.02s-0.33-0.79-0.34-1.21
				l2.25-0.36c0.05,0.51,0.25,0.93,0.59,1.25s0.85,0.49,1.51,0.49c0.27,0,0.52-0.03,0.76-0.08c0.23-0.05,0.44-0.13,0.61-0.25
				c0.17-0.12,0.31-0.26,0.41-0.43c0.1-0.17,0.15-0.37,0.15-0.61c0-0.39-0.16-0.69-0.49-0.9s-0.9-0.38-1.71-0.51
				c-0.55-0.09-1.06-0.2-1.53-0.34c-0.47-0.14-0.88-0.33-1.22-0.58c-0.34-0.25-0.61-0.55-0.81-0.91c-0.19-0.36-0.29-0.81-0.29-1.34
				s0.1-0.99,0.3-1.38c0.2-0.39,0.48-0.72,0.84-0.98s0.78-0.46,1.27-0.59s1.02-0.19,1.6-0.19c0.54,0,1.04,0.06,1.51,0.19
				c0.47,0.13,0.89,0.31,1.25,0.55c0.36,0.25,0.67,0.55,0.91,0.91s0.4,0.77,0.49,1.23l-2.28,0.49c-0.08-0.48-0.28-0.86-0.61-1.14
				c-0.33-0.28-0.77-0.42-1.33-0.42c-0.57,0-0.99,0.1-1.27,0.31C255.2,161.3,255.06,161.58,255.06,161.93z"/>
			<path fill="#FFFFFF" d="M263.15,169.66v-10.49h7.18v1.86h-4.96v2.31h4.57v1.86h-4.57v4.46H263.15z"/>
		</g>
		<g>
			<path fill="none" stroke="#FFFFFF" stroke-width="5" stroke-miterlimit="10" d="M181.12,185.97c0,5.5-4.5,10.01-10.01,10.01
				H87.83c-5.5,0-10.01-4.5-10.01-10.01v-83.28c0-5.5,4.5-10.01,10.01-10.01h83.28c5.5,0,10.01,4.5,10.01,10.01V185.97z"/>
		</g>
		<g>
			<path fill="none" stroke="#FFFFFF" stroke-width="5" stroke-miterlimit="10" d="M282.18,173.81c0,5.5-4.5,10.01-10.01,10.01
				h-56.42c-5.5,0-10.01-4.5-10.01-10.01v-56.42c0-5.5,4.5-10.01,10.01-10.01h56.42c5.5,0,10.01,4.5,10.01,10.01V173.81z"/>
		</g>
		<g>
			<path fill="#FFFFFF" d="M168.23,139.83c0.26-0.4,0.45-0.89,0.8-1.16c0.34-0.25,0.85-0.35,1.29-0.36
				c8.04-0.02,16.07-0.01,24.11-0.01c0.19,0,0.39,0,0.63,0c0-0.21,0-0.36,0-0.52c0-2.08-0.01-4.16,0.01-6.24
				c0-0.46,0.04-0.93,0.14-1.37c0.24-1,1.24-1.44,2.13-0.91c0.62,0.37,1.19,0.82,1.76,1.26c2.08,1.57,4.15,3.14,6.22,4.73
				c2.54,1.94,5.07,3.89,7.59,5.86c1.32,1.03,2.6,2.1,3.89,3.16c0.46,0.38,0.72,0.89,0.94,1.43c0,0.26,0,0.53,0,0.79
				c-0.37,1.23-1.4,1.87-2.3,2.62c-1.64,1.37-3.29,2.72-4.93,4.07c-2.02,1.67-4.03,3.34-6.05,5.01c-1.97,1.64-3.94,3.29-5.91,4.92
				c-0.29,0.24-0.61,0.46-0.95,0.63c-0.97,0.49-1.88-0.09-1.99-1.25c-0.02-0.18-0.01-0.37-0.01-0.55c0-2.35,0-4.69,0-7.04
				c0-0.14,0-0.29,0-0.49c-0.17,0-0.31,0-0.44,0c-8.21,0-16.42,0-24.63,0c-0.07,0-0.13,0-0.2,0c-1.19,0.02-1.67-0.33-2-1.47
				c-0.02-0.07-0.06-0.14-0.09-0.21C168.23,148.43,168.23,144.13,168.23,139.83z M196.51,139.71c-0.26,0-0.43,0-0.6,0
				c-6.5,0-12.99,0-19.49,0c-2.04,0-4.09,0-6.13,0c-0.5,0-0.63,0.12-0.64,0.63c-0.01,0.46,0,0.92,0,1.38c0,3.48,0,6.96,0,10.44
				c0,0.77,0.08,0.84,0.82,0.84c8.68,0,17.37,0,26.06,0c0.15,0,0.31,0.01,0.51,0.03c0,3.14,0,6.24,0,9.34
				c0.03,0.02,0.07,0.04,0.1,0.06c0.3-0.25,0.6-0.49,0.9-0.74c2.4-1.99,4.8-3.98,7.2-5.97c1.83-1.52,3.67-3.03,5.51-4.55
				c1.7-1.41,3.41-2.82,5.1-4.23c0.62-0.51,0.63-1.06,0.04-1.6c-0.39-0.35-0.79-0.7-1.2-1.02c-1.7-1.34-3.41-2.68-5.12-4.01
				c-1.97-1.53-3.95-3.06-5.94-4.58c-2.13-1.63-4.27-3.25-6.4-4.88c-0.19-0.14-0.41-0.25-0.71-0.43
				C196.51,133.57,196.51,136.61,196.51,139.71z"/>
			<path stroke="#FFFFFF" stroke-miterlimit="10" d="M196.51,139.71c0-3.1,0-6.14,0-9.31c0.31,0.18,0.52,0.29,0.71,0.43
				c2.14,1.62,4.27,3.24,6.4,4.88c1.98,1.52,3.96,3.05,5.94,4.58c1.71,1.33,3.42,2.67,5.12,4.01c0.41,0.33,0.81,0.67,1.2,1.02
				c0.59,0.54,0.57,1.09-0.04,1.6c-1.7,1.41-3.4,2.83-5.1,4.23c-1.83,1.52-3.67,3.03-5.51,4.55c-2.4,1.99-4.8,3.98-7.2,5.97
				c-0.3,0.25-0.6,0.49-0.9,0.74c-0.03-0.02-0.07-0.04-0.1-0.06c0-3.1,0-6.2,0-9.34c-0.2-0.01-0.36-0.03-0.51-0.03
				c-8.68,0-17.37,0-26.06,0c-0.73,0-0.81-0.07-0.82-0.84c-0.01-3.48,0-6.96,0-10.44c0-0.46-0.01-0.92,0-1.38
				c0.01-0.5,0.14-0.63,0.64-0.63c2.04,0,4.09,0,6.13,0c6.5,0,12.99,0,19.49,0C196.08,139.71,196.25,139.71,196.51,139.71z"/>
		</g>
	</g>
</g>
</svg>
