<?xml version="1.0" encoding="utf-8"?>
<!-- Generator: Adobe Illustrator 23.1.0, SVG Export Plug-In . SVG Version: 6.00 Build 0)  -->
<svg version="1.1" xmlns="http://www.w3.org/2000/svg" xmlns:xlink="http://www.w3.org/1999/xlink" x="0px" y="0px"
	 viewBox="0 0 360 360" enable-background="new 0 0 360 360" xml:space="preserve">
<g id="BACKGROUND">
	<rect x="0" y="0" width="360" height="360"/>
</g>
<g id="REF" display="none">
	
		<rect x="-360" y="90.27" display="inline" fill="none" stroke="#000000" stroke-width="0.25" stroke-miterlimit="10" width="360" height="108"/>
	
		<rect y="90.27" display="inline" fill="none" stroke="#FFFFFF" stroke-width="0.25" stroke-miterlimit="10" width="360" height="108"/>
	
		<line display="inline" fill="none" stroke="#FFFFFF" stroke-width="0.25" stroke-linecap="round" stroke-miterlimit="10" x1="180" y1="0" x2="180" y2="359.87"/>
</g>
<g id="LINE_ONE">
	<g>
		<path fill="#FFFFFF" d="M101.49,234.16h11.1v2.5h-4.04v11.5h-3.02v-11.5h-4.04V234.16z"/>
		<path fill="#FFFFFF" d="M116.81,248.16v-14h9.54v2.48h-6.58v3.08h6.12v2.48h-6.12v3.48h6.68v2.48H116.81z"/>
		<path fill="#FFFFFF" d="M130.51,241.16c0-1.15,0.16-2.17,0.48-3.07c0.32-0.9,0.78-1.66,1.37-2.29c0.59-0.63,1.31-1.1,2.16-1.43
			c0.85-0.33,1.8-0.49,2.85-0.49c1.49,0,2.75,0.33,3.76,0.98c1.01,0.65,1.73,1.65,2.16,2.98l-2.92,1.02
			c-0.24-0.79-0.6-1.4-1.08-1.83c-0.48-0.43-1.14-0.65-1.98-0.65c-0.61,0-1.15,0.12-1.62,0.36c-0.47,0.24-0.85,0.57-1.16,0.99
			s-0.54,0.92-0.69,1.51s-0.23,1.23-0.23,1.92s0.08,1.33,0.23,1.91s0.38,1.08,0.69,1.51s0.69,0.76,1.16,1
			c0.47,0.24,1.01,0.36,1.64,0.36c0.77,0,1.4-0.19,1.89-0.58c0.49-0.39,0.86-0.97,1.11-1.76l2.88,1.02
			c-0.47,1.19-1.19,2.12-2.16,2.8c-0.97,0.68-2.23,1.02-3.76,1.02c-1.03,0-1.96-0.16-2.79-0.49s-1.55-0.8-2.14-1.42
			c-0.59-0.62-1.05-1.38-1.37-2.29C130.67,243.33,130.51,242.3,130.51,241.16z"/>
		<path fill="#FFFFFF" d="M147.69,234.16h3v5.54h5.3v-5.54h3v14h-3v-5.94h-5.3v5.94h-3V234.16z"/>
		<path fill="#FFFFFF" d="M164.27,234.16h3.12c0.81,1.32,1.59,2.57,2.32,3.76c0.44,0.71,0.8,1.29,1.08,1.75
			c0.28,0.46,0.56,0.92,0.84,1.37c0.28,0.45,0.55,0.88,0.8,1.29c0.25,0.41,0.47,0.75,0.64,1.03h0.06v-9.2h2.84v14h-3.12
			c-0.8-1.29-1.56-2.53-2.28-3.7c-0.43-0.69-0.78-1.27-1.07-1.73c-0.29-0.46-0.57-0.92-0.85-1.38s-0.55-0.9-0.81-1.32
			c-0.26-0.42-0.48-0.78-0.67-1.07h-0.06v9.2h-2.84V234.16z"/>
		<path fill="#FFFFFF" d="M180.67,241.16c0-1.13,0.16-2.15,0.49-3.05c0.33-0.9,0.79-1.66,1.38-2.29c0.59-0.63,1.31-1.11,2.15-1.44
			c0.84-0.33,1.77-0.5,2.8-0.5s1.96,0.17,2.8,0.5c0.84,0.33,1.55,0.81,2.15,1.44s1.05,1.39,1.38,2.29c0.33,0.9,0.49,1.92,0.49,3.05
			c0,1.13-0.16,2.15-0.49,3.05c-0.33,0.9-0.79,1.66-1.38,2.29c-0.59,0.63-1.31,1.11-2.15,1.44c-0.84,0.33-1.77,0.5-2.8,0.5
			s-1.96-0.17-2.8-0.5s-1.56-0.81-2.15-1.44c-0.59-0.63-1.05-1.39-1.38-2.29C180.83,243.31,180.67,242.29,180.67,241.16z
			 M183.77,241.16c0,0.71,0.08,1.36,0.23,1.95c0.15,0.59,0.38,1.1,0.69,1.52s0.69,0.75,1.16,0.98s1.01,0.35,1.64,0.35
			s1.17-0.12,1.64-0.35c0.46-0.23,0.85-0.56,1.16-0.98c0.3-0.42,0.54-0.93,0.69-1.52c0.15-0.59,0.23-1.24,0.23-1.95
			s-0.08-1.36-0.23-1.95c-0.15-0.59-0.38-1.1-0.69-1.52c-0.31-0.42-0.7-0.75-1.16-0.98c-0.47-0.23-1.01-0.35-1.64-0.35
			s-1.17,0.12-1.64,0.35s-0.85,0.56-1.16,0.98s-0.54,0.93-0.69,1.52C183.85,239.8,183.77,240.45,183.77,241.16z"/>
		<path fill="#FFFFFF" d="M199.01,234.16h3v11.5h6.12v2.5h-9.12V234.16z"/>
		<path fill="#FFFFFF" d="M211.25,241.16c0-1.13,0.16-2.15,0.49-3.05c0.33-0.9,0.79-1.66,1.38-2.29c0.59-0.63,1.31-1.11,2.15-1.44
			c0.84-0.33,1.77-0.5,2.8-0.5c1.03,0,1.96,0.17,2.8,0.5c0.84,0.33,1.56,0.81,2.15,1.44c0.59,0.63,1.05,1.39,1.38,2.29
			c0.33,0.9,0.49,1.92,0.49,3.05c0,1.13-0.16,2.15-0.49,3.05c-0.33,0.9-0.79,1.66-1.38,2.29c-0.59,0.63-1.31,1.11-2.15,1.44
			c-0.84,0.33-1.77,0.5-2.8,0.5c-1.03,0-1.96-0.17-2.8-0.5s-1.56-0.81-2.15-1.44c-0.59-0.63-1.05-1.39-1.38-2.29
			C211.41,243.31,211.25,242.29,211.25,241.16z M214.35,241.16c0,0.71,0.08,1.36,0.23,1.95c0.15,0.59,0.38,1.1,0.69,1.52
			s0.69,0.75,1.16,0.98s1.01,0.35,1.64,0.35s1.17-0.12,1.64-0.35c0.47-0.23,0.85-0.56,1.16-0.98c0.31-0.42,0.54-0.93,0.69-1.52
			c0.15-0.59,0.23-1.24,0.23-1.95s-0.08-1.36-0.23-1.95c-0.15-0.59-0.38-1.1-0.69-1.52c-0.31-0.42-0.69-0.75-1.16-0.98
			c-0.47-0.23-1.01-0.35-1.64-0.35s-1.17,0.12-1.64,0.35s-0.85,0.56-1.16,0.98s-0.54,0.93-0.69,1.52
			C214.43,239.8,214.35,240.45,214.35,241.16z"/>
		<path fill="#FFFFFF" d="M235.51,240.4h6.44v7.76h-2.72v-1.44c-0.31,0.48-0.76,0.89-1.36,1.22c-0.6,0.33-1.38,0.5-2.34,0.5
			c-1.04,0-1.96-0.19-2.75-0.57s-1.45-0.9-1.98-1.55c-0.53-0.65-0.92-1.42-1.19-2.3s-0.4-1.82-0.4-2.82c0-1.08,0.16-2.07,0.47-2.96
			s0.77-1.66,1.37-2.31c0.6-0.65,1.33-1.15,2.19-1.51c0.86-0.36,1.84-0.54,2.93-0.54c1.41,0,2.62,0.31,3.62,0.93
			c1,0.62,1.75,1.54,2.26,2.75l-2.78,1.14c-0.27-0.75-0.67-1.32-1.22-1.73c-0.55-0.41-1.21-0.61-2-0.61c-1.13,0-2.04,0.42-2.72,1.25
			c-0.68,0.83-1.02,2.06-1.02,3.69c0,3.12,1.23,4.68,3.7,4.68c0.36,0,0.72-0.05,1.08-0.15c0.36-0.1,0.69-0.25,0.99-0.46
			c0.3-0.21,0.54-0.47,0.73-0.79s0.28-0.71,0.28-1.16v-0.64h-3.58V240.4z"/>
		<path fill="#FFFFFF" d="M250.41,242.3l-5.3-8.14h3.44l3.42,5.36l3.4-5.36h3.34l-5.3,8.14v5.86h-3V242.3z"/>
	</g>
</g>
<g id="LINE_TWO">
</g>
<g id="ICON">
	<g>
		<g>
			<circle fill="none" stroke="#FFFFFF" stroke-width="3" stroke-miterlimit="10" cx="209.9" cy="126.32" r="36.05"/>
			<line fill="none" stroke="#FFFFFF" stroke-width="3" stroke-miterlimit="10" x1="173.84" y1="126.32" x2="245.95" y2="126.32"/>
			<line fill="none" stroke="#FFFFFF" stroke-width="3" stroke-miterlimit="10" x1="209.9" y1="90.27" x2="209.9" y2="162.38"/>
			<path fill="none" stroke="#FFFFFF" stroke-width="3" stroke-miterlimit="10" d="M209.64,90.27c-1.85,1.46-18.19,14.79-17.6,37.15
				c0.56,21.13,15.77,33.34,17.87,34.96"/>
			<path fill="none" stroke="#FFFFFF" stroke-width="3" stroke-miterlimit="10" d="M210.16,90.27c1.85,1.46,18.19,14.79,17.6,37.15
				c-0.56,21.13-15.77,33.34-17.87,34.96"/>
			<path fill="none" stroke="#FFFFFF" stroke-width="3" stroke-miterlimit="10" d="M184.24,151.22c1.04-1.2,10.57-11.84,26.57-11.46
				c15.11,0.36,23.84,10.26,25,11.63"/>
			<path fill="none" stroke="#FFFFFF" stroke-width="3" stroke-miterlimit="10" d="M184.11,101.37c1.04,1.2,10.57,11.84,26.57,11.46
				c15.11-0.36,23.84-10.26,25-11.63"/>
		</g>
		<g>
			<path fill="#FFFFFF" d="M163.61,181.58c-13.05,0-26.09,0-39.14,0c-1.54,0-1.55,0-1.55-1.54c0-14.86,0-29.72,0-44.58
				c0-2.68,0.87-3.53,3.53-3.53c24.77,0,49.54,0,74.3,0c2.66,0,3.54,0.85,3.54,3.52c0,14.86,0,29.72,0,44.58
				c0,1.54-0.01,1.54-1.55,1.54C189.7,181.58,176.65,181.58,163.61,181.58z M126.43,135.67c-0.03,0.49-0.06,0.86-0.06,1.23
				c0,13.24,0.01,26.47-0.03,39.71c0,1.12,0.35,1.36,1.41,1.36c23.9-0.03,47.8-0.03,71.71,0c1.05,0,1.41-0.23,1.41-1.36
				c-0.04-13.24-0.02-26.47-0.03-39.71c0-0.4-0.04-0.8-0.06-1.23C175.95,135.67,151.26,135.67,126.43,135.67z M163.68,134.94
				c0.32-0.6,0.64-0.93,0.62-1.23c-0.02-0.25-0.45-0.47-0.69-0.71c-0.25,0.27-0.68,0.52-0.7,0.81
				C162.88,134.08,163.28,134.39,163.68,134.94z"/>
			<path fill="#FFFFFF" d="M114.05,183.7c0.68,0,1.28,0,1.88,0c10.85,0,21.71-0.01,32.56,0.03c0.61,0,1.22,0.4,1.83,0.63
				c0.37,0.13,0.73,0.4,1.1,0.41c8.13,0.02,16.26,0.02,24.39,0.01c0.32,0,0.77-0.06,0.92-0.27c0.62-0.82,1.46-0.8,2.34-0.8
				c10.66,0.01,21.33,0.01,31.99,0.01c0.67,0,1.35,0,2.01,0c0.35,2.78-2.04,5.81-5.02,6.41c-0.66,0.13-1.35,0.19-2.03,0.19
				c-28.29,0.01-56.57,0.01-84.86,0.01C117.03,190.3,114.09,187.63,114.05,183.7z"/>
			<path d="M126.43,135.67c24.83,0,49.52,0,74.34,0c0.02,0.43,0.06,0.83,0.06,1.23c0,13.24-0.01,26.47,0.03,39.71
				c0,1.12-0.35,1.36-1.41,1.36c-23.9-0.03-47.8-0.03-71.71,0c-1.05,0-1.41-0.23-1.41-1.36c0.04-13.24,0.02-26.47,0.03-39.71
				C126.37,136.53,126.41,136.16,126.43,135.67z"/>
			<path d="M163.68,134.94c-0.4-0.55-0.8-0.85-0.78-1.12c0.03-0.29,0.45-0.54,0.7-0.81c0.25,0.23,0.67,0.45,0.69,0.71
				C164.33,134.01,164,134.34,163.68,134.94z"/>
		</g>
		<g>
			<path fill="#FFFFFF" d="M197.36,175.7c0-6.6,0-13.2,0-19.8c0-1.88,0.88-2.76,2.76-2.76c6.85,0,13.71,0,20.56,0
				c1.62,0,2.58,0.95,2.58,2.58c0,13.32,0,26.64,0,39.96c0,1.63-0.95,2.59-2.58,2.59c-6.9,0-13.81,0-20.71,0
				c-1.66,0-2.61-0.95-2.61-2.61C197.36,189,197.36,182.35,197.36,175.7z M221.86,192.48c0-11.2,0-22.36,0-33.54
				c-7.71,0-15.4,0-23.08,0c0,11.2,0,22.36,0,33.54C206.47,192.48,214.13,192.48,221.86,192.48z M210.32,196.15c1.5,0,3,0,4.5,0
				c0.5,0,0.79-0.24,0.82-0.64c0.03-0.44-0.28-0.73-0.83-0.74c-1.31-0.01-2.63,0-3.94,0c-1.67,0-3.34-0.02-5,0.02
				c-0.27,0.01-0.64,0.18-0.78,0.4c-0.3,0.46,0.09,0.96,0.74,0.96C207.32,196.16,208.82,196.15,210.32,196.15z M210.3,156.68
				c0.95,0,1.89,0.01,2.84,0c0.5,0,0.79-0.25,0.8-0.65c0.01-0.42-0.29-0.69-0.81-0.7c-1.87-0.01-3.75-0.01-5.62,0
				c-0.53,0-0.83,0.26-0.83,0.68c0,0.42,0.3,0.67,0.83,0.67C208.45,156.68,209.38,156.68,210.3,156.68z"/>
			<path fill="#FFFFFF" d="M221.86,192.48c-7.73,0-15.38,0-23.08,0c0-11.18,0-22.35,0-33.54c7.68,0,15.37,0,23.08,0
				C221.86,170.12,221.86,181.28,221.86,192.48z M220.49,191.09c0-10.29,0-20.52,0-30.77c-6.81,0-13.58,0-20.36,0
				c0,10.27,0,20.51,0,30.77C206.93,191.09,213.69,191.09,220.49,191.09z"/>
			<path d="M210.32,196.15c-1.5,0-3,0.01-4.5,0c-0.64,0-1.04-0.5-0.74-0.96c0.14-0.22,0.51-0.39,0.78-0.4
				c1.67-0.04,3.34-0.02,5-0.02c1.31,0,2.63,0,3.94,0c0.54,0,0.86,0.3,0.83,0.74c-0.03,0.4-0.32,0.64-0.82,0.64
				C213.32,196.15,211.82,196.15,210.32,196.15z"/>
			<path d="M210.3,156.68c-0.93,0-1.86,0-2.78,0c-0.54,0-0.83-0.25-0.83-0.67c0-0.42,0.3-0.68,0.83-0.68c1.87,0,3.75-0.01,5.62,0
				c0.52,0,0.82,0.27,0.81,0.7c-0.01,0.4-0.3,0.65-0.8,0.65C212.19,156.68,211.25,156.68,210.3,156.68z"/>
			<path d="M220.49,191.09c-6.8,0-13.56,0-20.36,0c0-10.26,0-20.49,0-30.77c6.78,0,13.55,0,20.36,0
				C220.49,170.57,220.49,180.8,220.49,191.09z"/>
		</g>
	</g>
</g>
</svg>
