<?xml version="1.0" encoding="utf-8"?>
<!-- Generator: Adobe Illustrator 23.1.0, SVG Export Plug-In . SVG Version: 6.00 Build 0)  -->
<svg version="1.1" xmlns="http://www.w3.org/2000/svg" xmlns:xlink="http://www.w3.org/1999/xlink" x="0px" y="0px"
	 viewBox="0 0 360 360" enable-background="new 0 0 360 360" xml:space="preserve">
<g id="BACKGROUND">
	<rect x="360" y="0" width="360" height="360"/>
	<rect y="0" fill="#FFFFFF" width="360" height="360"/>
</g>
<g id="REF" display="none">
	
		<rect y="90.27" display="inline" fill="none" stroke="#000000" stroke-width="0.25" stroke-miterlimit="10" width="360" height="108"/>
	
		<rect x="360" y="90.27" display="inline" fill="none" stroke="#FFFFFF" stroke-width="0.25" stroke-miterlimit="10" width="360" height="108"/>
	
		<line display="inline" fill="none" stroke="#000000" stroke-width="0.25" stroke-linecap="round" stroke-miterlimit="10" x1="180" y1="0.21" x2="180" y2="360.08"/>
</g>
<g id="LINE_ONE">
	<g>
		<path d="M128.72,248.16h-3.1l-1.12-3.24h-5.02l-1.12,3.24h-2.94l5.04-14h3.22L128.72,248.16z M121.96,237.44
			c-0.03,0.11-0.07,0.26-0.14,0.47c-0.07,0.21-0.14,0.44-0.22,0.7s-0.17,0.54-0.27,0.84c-0.1,0.3-0.2,0.59-0.29,0.87
			c-0.23,0.69-0.47,1.43-0.74,2.22h3.38c-0.27-0.79-0.51-1.53-0.74-2.22c-0.15-0.4-0.26-0.73-0.35-0.99s-0.17-0.51-0.24-0.75
			s-0.14-0.46-0.21-0.67s-0.11-0.36-0.14-0.47H121.96z"/>
		<path d="M131.58,241.16c0-1.15,0.16-2.17,0.48-3.07c0.32-0.9,0.78-1.66,1.37-2.29c0.59-0.63,1.31-1.1,2.16-1.43
			c0.85-0.33,1.8-0.49,2.85-0.49c1.49,0,2.75,0.33,3.76,0.98c1.01,0.65,1.73,1.65,2.16,2.98l-2.92,1.02
			c-0.24-0.79-0.6-1.4-1.08-1.83c-0.48-0.43-1.14-0.65-1.98-0.65c-0.61,0-1.15,0.12-1.62,0.36s-0.85,0.57-1.16,0.99
			s-0.54,0.92-0.69,1.51s-0.23,1.23-0.23,1.92s0.08,1.33,0.23,1.91s0.38,1.08,0.69,1.51s0.69,0.76,1.16,1s1.01,0.36,1.64,0.36
			c0.77,0,1.4-0.19,1.89-0.58c0.49-0.39,0.86-0.97,1.11-1.76l2.88,1.02c-0.47,1.19-1.19,2.12-2.16,2.8
			c-0.97,0.68-2.23,1.02-3.76,1.02c-1.03,0-1.96-0.16-2.79-0.49c-0.83-0.33-1.55-0.8-2.14-1.42c-0.59-0.62-1.05-1.38-1.37-2.29
			C131.74,243.33,131.58,242.3,131.58,241.16z"/>
		<path d="M148.18,241.16c0-1.15,0.16-2.17,0.48-3.07c0.32-0.9,0.78-1.66,1.37-2.29c0.59-0.63,1.31-1.1,2.16-1.43
			c0.85-0.33,1.8-0.49,2.85-0.49c1.49,0,2.75,0.33,3.76,0.98c1.01,0.65,1.73,1.65,2.16,2.98l-2.92,1.02
			c-0.24-0.79-0.6-1.4-1.08-1.83c-0.48-0.43-1.14-0.65-1.98-0.65c-0.61,0-1.15,0.12-1.62,0.36s-0.85,0.57-1.16,0.99
			s-0.54,0.92-0.69,1.51s-0.23,1.23-0.23,1.92s0.08,1.33,0.23,1.91s0.38,1.08,0.69,1.51s0.69,0.76,1.16,1s1.01,0.36,1.64,0.36
			c0.77,0,1.4-0.19,1.89-0.58c0.49-0.39,0.86-0.97,1.11-1.76l2.88,1.02c-0.47,1.19-1.19,2.12-2.16,2.8
			c-0.97,0.68-2.23,1.02-3.76,1.02c-1.03,0-1.96-0.16-2.79-0.49c-0.83-0.33-1.55-0.8-2.14-1.42c-0.59-0.62-1.05-1.38-1.37-2.29
			C148.34,243.33,148.18,242.3,148.18,241.16z"/>
		<path d="M165.36,248.16v-14h9.54v2.48h-6.58v3.08h6.12v2.48h-6.12v3.48H175v2.48H165.36z"/>
		<path d="M182.36,237.84c0,0.6,0.26,1.03,0.78,1.29c0.52,0.26,1.35,0.48,2.48,0.67c1.67,0.28,2.89,0.74,3.67,1.38
			c0.78,0.64,1.17,1.59,1.17,2.86c0,0.68-0.14,1.29-0.42,1.83s-0.67,1-1.17,1.38s-1.1,0.67-1.79,0.88
			c-0.69,0.21-1.45,0.31-2.26,0.31c-0.88,0-1.67-0.12-2.38-0.35c-0.71-0.23-1.31-0.54-1.8-0.93c-0.49-0.39-0.88-0.84-1.16-1.36
			c-0.28-0.52-0.43-1.06-0.46-1.62l3-0.48c0.07,0.68,0.33,1.24,0.79,1.67c0.46,0.43,1.13,0.65,2.01,0.65c0.36,0,0.7-0.03,1.01-0.1
			c0.31-0.07,0.59-0.18,0.82-0.33c0.23-0.15,0.42-0.34,0.55-0.57c0.13-0.23,0.2-0.5,0.2-0.82c0-0.52-0.22-0.92-0.65-1.2
			s-1.2-0.51-2.29-0.68c-0.73-0.12-1.41-0.27-2.04-0.46s-1.17-0.44-1.63-0.77c-0.46-0.33-0.82-0.73-1.08-1.22
			c-0.26-0.49-0.39-1.08-0.39-1.79c0-0.71,0.13-1.32,0.4-1.84c0.27-0.52,0.64-0.96,1.12-1.31c0.48-0.35,1.05-0.62,1.7-0.79
			c0.65-0.17,1.37-0.26,2.14-0.26c0.72,0,1.39,0.08,2.02,0.25c0.63,0.17,1.18,0.41,1.67,0.74c0.49,0.33,0.89,0.73,1.21,1.21
			c0.32,0.48,0.54,1.03,0.66,1.64l-3.04,0.66c-0.11-0.64-0.38-1.15-0.82-1.52c-0.44-0.37-1.03-0.56-1.78-0.56
			c-0.76,0-1.32,0.14-1.69,0.42C182.54,237,182.36,237.37,182.36,237.84z"/>
		<path d="M197.84,237.84c0,0.6,0.26,1.03,0.78,1.29c0.52,0.26,1.35,0.48,2.48,0.67c1.67,0.28,2.89,0.74,3.67,1.38
			c0.78,0.64,1.17,1.59,1.17,2.86c0,0.68-0.14,1.29-0.42,1.83s-0.67,1-1.17,1.38s-1.1,0.67-1.79,0.88
			c-0.69,0.21-1.45,0.31-2.26,0.31c-0.88,0-1.67-0.12-2.38-0.35c-0.71-0.23-1.31-0.54-1.8-0.93c-0.49-0.39-0.88-0.84-1.16-1.36
			c-0.28-0.52-0.43-1.06-0.46-1.62l3-0.48c0.07,0.68,0.33,1.24,0.79,1.67c0.46,0.43,1.13,0.65,2.01,0.65c0.36,0,0.7-0.03,1.01-0.1
			c0.31-0.07,0.59-0.18,0.82-0.33c0.23-0.15,0.42-0.34,0.55-0.57c0.13-0.23,0.2-0.5,0.2-0.82c0-0.52-0.22-0.92-0.65-1.2
			s-1.2-0.51-2.29-0.68c-0.73-0.12-1.41-0.27-2.04-0.46s-1.17-0.44-1.63-0.77c-0.46-0.33-0.82-0.73-1.08-1.22
			c-0.26-0.49-0.39-1.08-0.39-1.79c0-0.71,0.13-1.32,0.4-1.84c0.27-0.52,0.64-0.96,1.12-1.31c0.48-0.35,1.05-0.62,1.7-0.79
			c0.65-0.17,1.37-0.26,2.14-0.26c0.72,0,1.39,0.08,2.02,0.25c0.63,0.17,1.18,0.41,1.67,0.74c0.49,0.33,0.89,0.73,1.21,1.21
			c0.32,0.48,0.54,1.03,0.66,1.64l-3.04,0.66c-0.11-0.64-0.38-1.15-0.82-1.52c-0.44-0.37-1.03-0.56-1.78-0.56
			c-0.76,0-1.32,0.14-1.69,0.42C198.02,237,197.84,237.37,197.84,237.84z"/>
		<path d="M216.24,234.16h11.1v2.5h-4.04v11.5h-3.02v-11.5h-4.04V234.16z"/>
		<path d="M230.38,241.16c0-1.13,0.16-2.15,0.49-3.05c0.33-0.9,0.79-1.66,1.38-2.29c0.59-0.63,1.31-1.11,2.15-1.44
			c0.84-0.33,1.77-0.5,2.8-0.5c1.03,0,1.96,0.17,2.8,0.5c0.84,0.33,1.56,0.81,2.15,1.44c0.59,0.63,1.05,1.39,1.38,2.29
			c0.33,0.9,0.49,1.92,0.49,3.05c0,1.13-0.16,2.15-0.49,3.05c-0.33,0.9-0.79,1.66-1.38,2.29c-0.59,0.63-1.31,1.11-2.15,1.44
			c-0.84,0.33-1.77,0.5-2.8,0.5c-1.03,0-1.96-0.17-2.8-0.5s-1.56-0.81-2.15-1.44c-0.59-0.63-1.05-1.39-1.38-2.29
			C230.54,243.31,230.38,242.29,230.38,241.16z M233.48,241.16c0,0.71,0.08,1.36,0.23,1.95c0.15,0.59,0.38,1.1,0.69,1.52
			s0.69,0.75,1.16,0.98s1.01,0.35,1.64,0.35s1.17-0.12,1.64-0.35c0.47-0.23,0.85-0.56,1.16-0.98c0.31-0.42,0.54-0.93,0.69-1.52
			c0.15-0.59,0.23-1.24,0.23-1.95s-0.08-1.36-0.23-1.95c-0.15-0.59-0.38-1.1-0.69-1.52c-0.31-0.42-0.69-0.75-1.16-0.98
			c-0.47-0.23-1.01-0.35-1.64-0.35s-1.17,0.12-1.64,0.35s-0.85,0.56-1.16,0.98s-0.54,0.93-0.69,1.52
			C233.56,239.8,233.48,240.45,233.48,241.16z"/>
	</g>
</g>
<g id="LINE_TWO">
	<g>
		<path d="M147,255.94c0.49,1.4,0.96,2.75,1.4,4.06c0.27,0.76,0.49,1.4,0.66,1.92c0.17,0.52,0.35,1.04,0.52,1.57
			c0.17,0.53,0.34,1.04,0.5,1.53c0.16,0.49,0.3,0.93,0.42,1.32h0.04c0.12-0.39,0.26-0.83,0.42-1.33s0.33-1.03,0.51-1.59
			c0.18-0.56,0.37-1.13,0.57-1.72c0.2-0.59,0.39-1.15,0.58-1.7c0.44-1.31,0.91-2.66,1.4-4.06h3.08l-5.16,14h-3.06l-5.1-14H147z"/>
		<path d="M161.22,255.94h3v14h-3V255.94z"/>
		<path d="M169.5,269.94v-14h9.54v2.48h-6.58v3.08h6.12v2.48h-6.12v3.48h6.68v2.48H169.5z"/>
		<path d="M200.94,255.94l-3.5,14h-3.48c-0.29-1.29-0.57-2.53-0.84-3.7c-0.16-0.69-0.29-1.27-0.4-1.74
			c-0.11-0.47-0.21-0.93-0.31-1.4s-0.2-0.91-0.3-1.34c-0.1-0.43-0.18-0.79-0.25-1.1h-0.06c-0.07,0.31-0.15,0.68-0.24,1.11
			s-0.2,0.9-0.32,1.39s-0.24,1-0.36,1.53c-0.12,0.53-0.24,1.04-0.36,1.55c-0.28,1.17-0.58,2.41-0.9,3.7h-3.48l-3.52-14h3.04
			c0.35,1.49,0.67,2.91,0.98,4.26c0.17,0.8,0.32,1.46,0.44,1.98c0.12,0.52,0.23,1.04,0.34,1.56s0.21,1.01,0.31,1.48
			s0.18,0.86,0.23,1.18h0.06c0.07-0.32,0.15-0.72,0.25-1.19c0.1-0.47,0.21-0.98,0.34-1.53c0.13-0.55,0.26-1.12,0.4-1.72
			c0.14-0.6,0.28-1.19,0.41-1.76c0.32-1.35,0.66-2.77,1.02-4.26h2.82c0.36,1.49,0.7,2.91,1.02,4.26c0.19,0.8,0.34,1.46,0.47,1.98
			s0.25,1.04,0.37,1.56c0.12,0.52,0.23,1.01,0.33,1.48c0.1,0.47,0.18,0.86,0.25,1.18h0.06c0.07-0.32,0.15-0.72,0.25-1.19
			c0.1-0.47,0.21-0.98,0.33-1.53c0.12-0.55,0.25-1.12,0.38-1.72c0.13-0.6,0.27-1.19,0.4-1.76c0.32-1.35,0.65-2.77,1-4.26H200.94z"/>
		<path d="M207.58,259.62c0,0.6,0.26,1.03,0.78,1.29c0.52,0.26,1.35,0.48,2.48,0.67c1.67,0.28,2.89,0.74,3.67,1.38
			c0.78,0.64,1.17,1.59,1.17,2.86c0,0.68-0.14,1.29-0.42,1.83c-0.28,0.54-0.67,1-1.17,1.38c-0.5,0.38-1.1,0.67-1.79,0.88
			s-1.45,0.31-2.26,0.31c-0.88,0-1.67-0.12-2.38-0.35c-0.71-0.23-1.31-0.54-1.8-0.93c-0.49-0.39-0.88-0.84-1.16-1.36
			c-0.28-0.52-0.43-1.06-0.46-1.62l3-0.48c0.07,0.68,0.33,1.24,0.79,1.67c0.46,0.43,1.13,0.65,2.01,0.65c0.36,0,0.7-0.03,1.01-0.1
			c0.31-0.07,0.59-0.18,0.82-0.33c0.23-0.15,0.42-0.34,0.55-0.57s0.2-0.5,0.2-0.82c0-0.52-0.22-0.92-0.65-1.2
			c-0.43-0.28-1.2-0.51-2.29-0.68c-0.73-0.12-1.41-0.27-2.04-0.46c-0.63-0.19-1.17-0.44-1.63-0.77c-0.46-0.33-0.82-0.73-1.08-1.22
			s-0.39-1.08-0.39-1.79c0-0.71,0.13-1.32,0.4-1.84c0.27-0.52,0.64-0.96,1.12-1.31c0.48-0.35,1.05-0.62,1.7-0.79
			c0.65-0.17,1.37-0.26,2.14-0.26c0.72,0,1.39,0.08,2.02,0.25s1.18,0.41,1.67,0.74s0.89,0.73,1.21,1.21
			c0.32,0.48,0.54,1.03,0.66,1.64l-3.04,0.66c-0.11-0.64-0.38-1.15-0.82-1.52c-0.44-0.37-1.03-0.56-1.78-0.56
			c-0.76,0-1.32,0.14-1.69,0.42C207.76,258.78,207.58,259.16,207.58,259.62z"/>
	</g>
</g>
<g id="ICON">
	<g>
		<rect x="126" y="90.27" fill="none" stroke="#000000" stroke-width="3" stroke-miterlimit="10" width="108" height="108"/>
		<rect x="133.06" y="97.33" fill="none" stroke="#000000" stroke-width="3" stroke-miterlimit="10" width="93.88" height="93.88"/>
		<line fill="none" stroke="#000000" stroke-width="3" stroke-miterlimit="10" x1="180" y1="96.29" x2="180" y2="191.21"/>
		<line fill="none" stroke="#000000" stroke-width="3" stroke-miterlimit="10" x1="133.06" y1="143.75" x2="226.94" y2="143.75"/>
	</g>
	<g>
		<defs>
			<rect id="SVGID_1_" x="133.06" y="97.33" width="93.88" height="93.88"/>
		</defs>
		<clipPath id="SVGID_2_">
			<use xlink:href="#SVGID_1_"  overflow="visible"/>
		</clipPath>
		<g clip-path="url(#SVGID_2_)">
			<g>
				
					<line fill="none" stroke="#000000" stroke-linecap="round" stroke-linejoin="round" stroke-miterlimit="10" x1="238.18" y1="148.36" x2="238.18" y2="184.01"/>
				<path fill="none" stroke="#000000" stroke-linecap="round" stroke-linejoin="round" stroke-miterlimit="10" d="M274.8,172.03
					c-17.65-2.61-36.61,2.51-36.61,2.51l3.84,7v-7.89"/>
				<polyline fill="none" stroke="#000000" stroke-linecap="round" stroke-linejoin="round" stroke-miterlimit="10" points="
					235.3,184.01 235.3,148.36 226.88,181.55 272.38,181.55 				"/>
				
					<line fill="none" stroke="#000000" stroke-linecap="round" stroke-linejoin="round" stroke-miterlimit="10" x1="243.24" y1="173.41" x2="248.73" y2="179.61"/>
				
					<line fill="none" stroke="#000000" stroke-linecap="round" stroke-linejoin="round" stroke-miterlimit="10" x1="243.24" y1="181.55" x2="243.24" y2="173.41"/>
				
					<line fill="none" stroke="#000000" stroke-linecap="round" stroke-linejoin="round" stroke-miterlimit="10" x1="248.73" y1="172.39" x2="248.73" y2="181.55"/>
				
					<line fill="none" stroke="#000000" stroke-linecap="round" stroke-linejoin="round" stroke-miterlimit="10" x1="249.94" y1="172.39" x2="249.94" y2="181.55"/>
				
					<line fill="none" stroke="#000000" stroke-linecap="round" stroke-linejoin="round" stroke-miterlimit="10" x1="255.44" y1="171.63" x2="255.44" y2="181.55"/>
				
					<line fill="none" stroke="#000000" stroke-linecap="round" stroke-linejoin="round" stroke-miterlimit="10" x1="256.99" y1="171.63" x2="256.99" y2="181.55"/>
				
					<line fill="none" stroke="#000000" stroke-linecap="round" stroke-linejoin="round" stroke-miterlimit="10" x1="263.01" y1="171.29" x2="263.01" y2="181.55"/>
				
					<line fill="none" stroke="#000000" stroke-linecap="round" stroke-linejoin="round" stroke-miterlimit="10" x1="264.57" y1="171.29" x2="264.57" y2="181.55"/>
				
					<line fill="none" stroke="#000000" stroke-linecap="round" stroke-linejoin="round" stroke-miterlimit="10" x1="270.01" y1="171.58" x2="270.01" y2="181.55"/>
				
					<line fill="none" stroke="#000000" stroke-linecap="round" stroke-linejoin="round" stroke-miterlimit="10" x1="271.79" y1="171.58" x2="271.79" y2="181.55"/>
				
					<line fill="none" stroke="#000000" stroke-linecap="round" stroke-linejoin="round" stroke-miterlimit="10" x1="243.24" y1="175.87" x2="247.8" y2="181.55"/>
				
					<line fill="none" stroke="#000000" stroke-linecap="round" stroke-linejoin="round" stroke-miterlimit="10" x1="249.94" y1="172.55" x2="255.44" y2="178.91"/>
				
					<line fill="none" stroke="#000000" stroke-linecap="round" stroke-linejoin="round" stroke-miterlimit="10" x1="249.94" y1="174.46" x2="255.44" y2="180.82"/>
				
					<line fill="none" stroke="#000000" stroke-linecap="round" stroke-linejoin="round" stroke-miterlimit="10" x1="256.99" y1="171.63" x2="263.01" y2="179.76"/>
				
					<line fill="none" stroke="#000000" stroke-linecap="round" stroke-linejoin="round" stroke-miterlimit="10" x1="256.99" y1="173.75" x2="262.76" y2="181.55"/>
				
					<line fill="none" stroke="#000000" stroke-linecap="round" stroke-linejoin="round" stroke-miterlimit="10" x1="265.48" y1="171.29" x2="270.01" y2="179.8"/>
				
					<line fill="none" stroke="#000000" stroke-linecap="round" stroke-linejoin="round" stroke-miterlimit="10" x1="264.57" y1="172.66" x2="269.21" y2="181.55"/>
				
					<line fill="none" stroke="#000000" stroke-linecap="round" stroke-linejoin="round" stroke-miterlimit="10" x1="235.3" y1="175.69" x2="238.18" y2="174.54"/>
				
					<line fill="none" stroke="#000000" stroke-linecap="round" stroke-linejoin="round" stroke-miterlimit="10" x1="235.3" y1="168.44" x2="238.18" y2="168.29"/>
				
					<line fill="none" stroke="#000000" stroke-linecap="round" stroke-linejoin="round" stroke-miterlimit="10" x1="235.3" y1="162.3" x2="238.18" y2="162.34"/>
				
					<line fill="none" stroke="#000000" stroke-linecap="round" stroke-linejoin="round" stroke-miterlimit="10" x1="235.3" y1="156.02" x2="238.18" y2="156.02"/>
				
					<line fill="none" stroke="#000000" stroke-linecap="round" stroke-linejoin="round" stroke-miterlimit="10" x1="228.18" y1="176.17" x2="235.3" y2="176.17"/>
				
					<line fill="none" stroke="#000000" stroke-linecap="round" stroke-linejoin="round" stroke-miterlimit="10" x1="229.39" y1="171.63" x2="235.3" y2="171.63"/>
				
					<line fill="none" stroke="#000000" stroke-linecap="round" stroke-linejoin="round" stroke-miterlimit="10" x1="230.92" y1="165.62" x2="235.3" y2="165.62"/>
				
					<line fill="none" stroke="#000000" stroke-linecap="round" stroke-linejoin="round" stroke-miterlimit="10" x1="232.17" y1="160.69" x2="235.3" y2="160.69"/>
				
					<line fill="none" stroke="#000000" stroke-linecap="round" stroke-linejoin="round" stroke-miterlimit="10" x1="233.48" y1="155.51" x2="235.3" y2="155.51"/>
				
					<line fill="none" stroke="#000000" stroke-linecap="round" stroke-linejoin="round" stroke-miterlimit="10" x1="228.18" y1="176.17" x2="235.3" y2="181.55"/>
				
					<line fill="none" stroke="#000000" stroke-linecap="round" stroke-linejoin="round" stroke-miterlimit="10" x1="235.3" y1="176.17" x2="226.88" y2="181.55"/>
				
					<line fill="none" stroke="#000000" stroke-linecap="round" stroke-linejoin="round" stroke-miterlimit="10" x1="229.39" y1="171.63" x2="235.3" y2="176.17"/>
				
					<line fill="none" stroke="#000000" stroke-linecap="round" stroke-linejoin="round" stroke-miterlimit="10" x1="235.11" y1="171.63" x2="228.18" y2="176.17"/>
				
					<line fill="none" stroke="#000000" stroke-linecap="round" stroke-linejoin="round" stroke-miterlimit="10" x1="230.92" y1="165.62" x2="235.3" y2="171.63"/>
				
					<line fill="none" stroke="#000000" stroke-linecap="round" stroke-linejoin="round" stroke-miterlimit="10" x1="235.3" y1="165.62" x2="229.39" y2="171.63"/>
				
					<line fill="none" stroke="#000000" stroke-linecap="round" stroke-linejoin="round" stroke-miterlimit="10" x1="232.17" y1="160.69" x2="235.3" y2="165.62"/>
				
					<line fill="none" stroke="#000000" stroke-linecap="round" stroke-linejoin="round" stroke-miterlimit="10" x1="231.09" y1="165.62" x2="235.3" y2="160.69"/>
				
					<line fill="none" stroke="#000000" stroke-linecap="round" stroke-linejoin="round" stroke-miterlimit="10" x1="233.48" y1="155.51" x2="235.3" y2="160.69"/>
				
					<line fill="none" stroke="#000000" stroke-linecap="round" stroke-linejoin="round" stroke-miterlimit="10" x1="235.3" y1="155.51" x2="232.35" y2="160.45"/>
				
					<line fill="none" stroke="#000000" stroke-linecap="round" stroke-linejoin="round" stroke-miterlimit="10" x1="234.19" y1="152.74" x2="235.3" y2="155.51"/>
				
					<line fill="none" stroke="#000000" stroke-linecap="round" stroke-linejoin="round" stroke-miterlimit="10" x1="233.73" y1="149.17" x2="239.56" y2="149.17"/>
				
					<line fill="none" stroke="#000000" stroke-linecap="round" stroke-linejoin="round" stroke-miterlimit="10" x1="233.99" y1="150.65" x2="239.17" y2="150.65"/>
				
					<line fill="none" stroke="#000000" stroke-linecap="round" stroke-linejoin="round" stroke-miterlimit="10" x1="235.3" y1="174.96" x2="238.18" y2="174.54"/>
				
					<line fill="none" stroke="#000000" stroke-linecap="round" stroke-linejoin="round" stroke-miterlimit="10" x1="235.3" y1="181.55" x2="238.18" y2="174.75"/>
				
					<line fill="none" stroke="#000000" stroke-linecap="round" stroke-linejoin="round" stroke-miterlimit="10" x1="235.43" y1="174.94" x2="238.18" y2="181.64"/>
				
					<line fill="none" stroke="#000000" stroke-linecap="round" stroke-linejoin="round" stroke-miterlimit="10" x1="238.08" y1="177.48" x2="240.55" y2="181.55"/>
				
					<line fill="none" stroke="#000000" stroke-linecap="round" stroke-linejoin="round" stroke-miterlimit="10" x1="235.3" y1="150.65" x2="238.18" y2="156.02"/>
				
					<line fill="none" stroke="#000000" stroke-linecap="round" stroke-linejoin="round" stroke-miterlimit="10" x1="238.18" y1="150.65" x2="235.3" y2="156.02"/>
				
					<line fill="none" stroke="#000000" stroke-linecap="round" stroke-linejoin="round" stroke-miterlimit="10" x1="238.18" y1="156.15" x2="235.3" y2="162.3"/>
				
					<line fill="none" stroke="#000000" stroke-linecap="round" stroke-linejoin="round" stroke-miterlimit="10" x1="235.3" y1="156.02" x2="238.18" y2="162.34"/>
				
					<line fill="none" stroke="#000000" stroke-linecap="round" stroke-linejoin="round" stroke-miterlimit="10" x1="235.3" y1="162.3" x2="238.18" y2="168.13"/>
				
					<line fill="none" stroke="#000000" stroke-linecap="round" stroke-linejoin="round" stroke-miterlimit="10" x1="238.18" y1="162.34" x2="235.3" y2="168.44"/>
				
					<line fill="none" stroke="#000000" stroke-linecap="round" stroke-linejoin="round" stroke-miterlimit="10" x1="238.18" y1="168.29" x2="235.43" y2="174.94"/>
				
					<line fill="none" stroke="#000000" stroke-linecap="round" stroke-linejoin="round" stroke-miterlimit="10" x1="235.3" y1="168.44" x2="238.18" y2="174.54"/>
			</g>
			<path fill="none" stroke="#000000" stroke-miterlimit="10" d="M230.77,166.08c-2.8,0-5.78,0-8.68,0c0-4.42,0-8.7,0-13
				c-1.15-0.13-2.03-0.23-2.97-0.34c-0.13-1.29-0.25-2.44-0.38-3.65c-1.5,0-2.87,0-4.33,0c-0.1,1.31-0.19,2.53-0.3,3.91
				c-1.41,0-2.63,0-4.17,0c0,6.27,0,12.36,0,18.42c-1.61,0-2.9,0-4.44,0c0-3.6,0-7.06,0-10.72c-3.21,0-6.17,0-9.4,0
				c0-3.02,0-5.83,0-8.58c-4.15,0-8.02,0-12.13,0c0,3.47,0,6.79,0,10.17c-2.64,0.25-7.88-0.08-8.85-0.08l-0.22,0.04v-12.01
				l-1.81-2.67v-12.21l-3.8-5.69h-1.98l-3.86,5.69v12.21l-1.81,2.67v12.49c-1.07,0-1.94,0-2.9,0c-0.14-0.99-0.27-1.93-0.43-3.1
				c-1.5,0-2.91,0-4.32,0c-0.11-1.33-0.19-2.41-0.27-3.38c-1.24,0-2.25,0-3.28,0c-0.06,1.21-0.11,2.24-0.16,3.35
				c-1.18,0-2.25,0-3.52,0c0-14.84,0-29.51,0-44.01c0-0.37,0-0.75,0-1.12v-0.54h-0.48v0.54c-0.55,0-1.11,0-1.66,0v-0.54h-0.48v0.54
				c-0.55,0-1.1,0-1.66,0v-0.54H142v0.54c-0.55,0-1.1,0-1.66,0v-0.54h-0.48v0.54c-0.55,0-1.1,0-1.66,0v-0.54h-0.48v0.54
				c-0.55,0-1.1,0-1.66,0v-0.54h-0.48v0.54c-0.55,0-1.1,0-1.66,0v-0.54h-0.48v0.54c-0.55,0-1.1,0-1.66,0v-0.54h-0.48v0.54
				c0,0.38,0,0.75,0,1.12c0,18.09,0,36.17,0,54.25c-0.21,0-0.42,0-0.64,0c0-2.46,0-4.93,0-7.64c-2.48,0-4.67,0-6.92,0
				c-0.09-1.86,0.04-3.5-0.29-5.04c-0.49-2.27,0.37-5.25-2.95-6.26c-2.29-0.69-4.42-0.52-6.31,1.01c-0.45,0.37-0.94,0.93-1.03,1.46
				c-0.27,1.63-0.39,3.29-0.49,4.94c-0.16,2.5-0.2,5.01-0.41,7.5c-0.04,0.5-0.63,0.96-0.97,1.44c-0.23-0.11-0.46-0.23-0.7-0.34
				c0-5.9,0-11.8,0-17.74c-3.67,0-7.11,0-10.67,0c0,2.04,0.01,3.91,0,5.79c-0.03,7.19-0.06,14.39-0.11,21.58
				c-0.01,1.75-0.04,1.75-1.71,1.5c0-5.26,0-10.54,0-15.78c-5-1.19-5-1.19-12.03,0.03c0,3.06,0,6.18,0,9.3
				c-0.22,0.01-0.43,0.02-0.65,0.03c-0.08-0.69-0.23-1.37-0.24-2.06c-0.05-4.61-0.17-16-0.17-16l-2.65-0.01c0,0-8.28,0-12.64,0
				c0-3.81,0-7.47,0-11.1c-4.86,0-9.44,0-14.26,0c0,8.34,0,16.53,0,24.98c-1.88,0-3.51,0-5.3,0c0,1.78,0,3.29,0,4.9
				c-0.97,0-1.77,0-2.86,0c0-3.48,0-6.85,0-10.39c-4.25,0-8.2,0-12.42,0c0-3.7,0-7.23,0-10.87c-4.01,0-7.75,0-11.77,0
				c0,3.07,0,6.02,0,9.15c-2.43,0-4.57,0-7.04,0c0,3.09,0,6,0,8.91c-0.26,0-0.52,0.01-0.79,0.01c0-4.26,0-8.52,0-12.88
				c-2.36,0-4.27,0-6.49,0c0,4.33,0,8.54,0,12.77c-1.43,0.11-2.57,0.21-4.05,0.33c0,4.24,0,8.25,0,12.25c-0.28,0-0.55,0-0.83,0
				c0-4.97,0-9.95,0-14.94c-4.01,0-7.56,0-11.11,0v24.56"/>
			<rect x="167.79" y="127.6" fill="none" stroke="#000000" stroke-miterlimit="10" width="1.03" height="2.07"/>
			<line fill="none" stroke="#000000" stroke-miterlimit="10" x1="168.31" y1="127.6" x2="168.31" y2="124.97"/>
		</g>
		<use xlink:href="#SVGID_1_"  overflow="visible" fill="none" stroke="#000000" stroke-miterlimit="10"/>
	</g>
	<g>
		<circle fill="none" stroke="#000000" stroke-miterlimit="10" cx="209.05" cy="114.7" r="5.63"/>
		
			<line fill="none" stroke="#000000" stroke-linecap="round" stroke-miterlimit="10" x1="209.05" y1="107.32" x2="209.05" y2="102.29"/>
		
			<line fill="none" stroke="#000000" stroke-linecap="round" stroke-miterlimit="10" x1="209.05" y1="127.11" x2="209.05" y2="122.08"/>
		
			<line fill="none" stroke="#000000" stroke-linecap="round" stroke-miterlimit="10" x1="216.43" y1="114.7" x2="221.46" y2="114.7"/>
		
			<line fill="none" stroke="#000000" stroke-linecap="round" stroke-miterlimit="10" x1="196.64" y1="114.7" x2="201.66" y2="114.7"/>
		
			<line fill="none" stroke="#000000" stroke-linecap="round" stroke-miterlimit="10" x1="214.27" y1="109.48" x2="217.82" y2="105.93"/>
		
			<line fill="none" stroke="#000000" stroke-linecap="round" stroke-miterlimit="10" x1="200.27" y1="123.48" x2="203.83" y2="119.92"/>
		
			<line fill="none" stroke="#000000" stroke-linecap="round" stroke-miterlimit="10" x1="214.27" y1="119.92" x2="217.82" y2="123.48"/>
		
			<line fill="none" stroke="#000000" stroke-linecap="round" stroke-miterlimit="10" x1="200.27" y1="105.93" x2="203.83" y2="109.48"/>
	</g>
</g>
</svg>
