<?xml version="1.0" encoding="utf-8"?>
<!-- Generator: Adobe Illustrator 23.1.0, SVG Export Plug-In . SVG Version: 6.00 Build 0)  -->
<svg version="1.1" xmlns="http://www.w3.org/2000/svg" xmlns:xlink="http://www.w3.org/1999/xlink" x="0px" y="0px"
	 viewBox="0 0 360 360" enable-background="new 0 0 360 360" xml:space="preserve">
<g id="BACKGROUND">
	<rect x="360" y="0" width="360" height="360"/>
	<rect y="0" fill="#FFFFFF" width="360" height="360"/>
</g>
<g id="REF" display="none">
	
		<rect y="90.27" display="inline" fill="none" stroke="#000000" stroke-width="0.25" stroke-miterlimit="10" width="360" height="108"/>
	
		<rect x="360" y="90.27" display="inline" fill="none" stroke="#FFFFFF" stroke-width="0.25" stroke-miterlimit="10" width="360" height="108"/>
	
		<line display="inline" fill="none" stroke="#000000" stroke-width="0.25" stroke-linecap="round" stroke-miterlimit="10" x1="180" y1="0.21" x2="180" y2="360.08"/>
</g>
<g id="LINE_ONE">
	<g>
		<path d="M120.46,248.16v-14H130v2.48h-6.58v3.08h6.12v2.48h-6.12v3.48h6.68v2.48H120.46z"/>
		<path d="M140.9,248.16c-0.2-0.55-0.45-1.26-0.75-2.15c-0.3-0.89-0.61-1.81-0.93-2.77s-0.63-1.9-0.93-2.82
			c-0.3-0.92-0.54-1.69-0.73-2.32h-0.06v10.06h-2.76v-14h4.2c0.57,1.71,1.09,3.27,1.56,4.7c0.28,0.85,0.51,1.54,0.69,2.07
			c0.18,0.53,0.35,1.03,0.5,1.51c0.15,0.48,0.29,0.91,0.42,1.3s0.22,0.67,0.27,0.84c0.05-0.17,0.14-0.45,0.26-0.84
			s0.26-0.84,0.43-1.37c0.17-0.53,0.35-1.09,0.54-1.7c0.19-0.61,0.39-1.21,0.59-1.81c0.45-1.43,0.95-2.99,1.5-4.7h4.18v14h-2.76
			V238.1h-0.06c-0.13,0.41-0.29,0.91-0.48,1.49c-0.19,0.58-0.39,1.2-0.61,1.85s-0.44,1.32-0.67,1.99c-0.23,0.67-0.44,1.31-0.64,1.92
			c-0.2,0.61-0.38,1.16-0.55,1.65s-0.3,0.88-0.41,1.16H140.9z"/>
		<path d="M158.14,243.24v4.92h-2.98v-14h5.32c0.84,0,1.6,0.09,2.28,0.26c0.68,0.17,1.26,0.44,1.74,0.8
			c0.48,0.36,0.85,0.82,1.12,1.38c0.27,0.56,0.4,1.23,0.4,2.02c0,0.8-0.14,1.49-0.41,2.07c-0.27,0.58-0.65,1.06-1.14,1.44
			s-1.07,0.66-1.75,0.84c-0.68,0.18-1.43,0.27-2.24,0.27H158.14z M162.96,238.62c0-0.76-0.23-1.28-0.69-1.56
			c-0.46-0.28-1.16-0.42-2.09-0.42h-2.04v4.12h2.04c0.93,0,1.63-0.17,2.09-0.5C162.73,239.93,162.96,239.38,162.96,238.62z"/>
		<path d="M170.42,234.16h3v11.5h6.12v2.5h-9.12V234.16z"/>
		<path d="M182.66,241.16c0-1.13,0.16-2.15,0.49-3.05c0.33-0.9,0.79-1.66,1.38-2.29c0.59-0.63,1.31-1.11,2.15-1.44
			c0.84-0.33,1.77-0.5,2.8-0.5c1.03,0,1.96,0.17,2.8,0.5c0.84,0.33,1.56,0.81,2.15,1.44c0.59,0.63,1.05,1.39,1.38,2.29
			c0.33,0.9,0.49,1.92,0.49,3.05c0,1.13-0.16,2.15-0.49,3.05c-0.33,0.9-0.79,1.66-1.38,2.29c-0.59,0.63-1.31,1.11-2.15,1.44
			c-0.84,0.33-1.77,0.5-2.8,0.5c-1.03,0-1.96-0.17-2.8-0.5s-1.56-0.81-2.15-1.44c-0.59-0.63-1.05-1.39-1.38-2.29
			C182.82,243.31,182.66,242.29,182.66,241.16z M185.76,241.16c0,0.71,0.08,1.36,0.23,1.95c0.15,0.59,0.38,1.1,0.69,1.52
			s0.69,0.75,1.16,0.98s1.01,0.35,1.64,0.35s1.17-0.12,1.64-0.35c0.47-0.23,0.85-0.56,1.16-0.98c0.31-0.42,0.54-0.93,0.69-1.52
			c0.15-0.59,0.23-1.24,0.23-1.95s-0.08-1.36-0.23-1.95c-0.15-0.59-0.38-1.1-0.69-1.52c-0.31-0.42-0.69-0.75-1.16-0.98
			c-0.47-0.23-1.01-0.35-1.64-0.35s-1.17,0.12-1.64,0.35s-0.85,0.56-1.16,0.98s-0.54,0.93-0.69,1.52
			C185.84,239.8,185.76,240.45,185.76,241.16z"/>
		<path d="M203.94,242.3l-5.3-8.14h3.44l3.42,5.36l3.4-5.36h3.34l-5.3,8.14v5.86h-3V242.3z"/>
		<path d="M216.26,248.16v-14h9.54v2.48h-6.58v3.08h6.12v2.48h-6.12v3.48h6.68v2.48H216.26z"/>
		<path d="M230.54,248.16v-14h9.54v2.48h-6.58v3.08h6.12v2.48h-6.12v3.48h6.68v2.48H230.54z"/>
	</g>
</g>
<g id="LINE_TWO">
	<g>
		<path d="M126.82,260.2c0,1.04-0.24,1.89-0.71,2.54s-1.12,1.14-1.95,1.46l3.22,5.74h-3.3l-2.9-5.3h-1.86v5.3h-2.98v-14h5.12
			c0.81,0,1.55,0.08,2.21,0.25s1.22,0.42,1.69,0.77c0.47,0.35,0.83,0.79,1.08,1.32S126.82,259.46,126.82,260.2z M123.74,260.23
			c0-0.68-0.22-1.15-0.65-1.41s-1.09-0.39-1.97-0.39h-1.8v3.78h1.8c0.88,0,1.54-0.15,1.97-0.45
			C123.52,261.45,123.74,260.95,123.74,260.23z"/>
		<path d="M131.86,269.95v-14h9.54v2.48h-6.58v3.08h6.12v2.48h-6.12v3.48h6.68v2.48H131.86z"/>
		<path d="M145.08,255.95h11.1v2.5h-4.04v11.5h-3.02v-11.5h-4.04V255.95z"/>
		<path d="M160.4,269.95v-14h9.54v2.48h-6.58v3.08h6.12v2.48h-6.12v3.48h6.68v2.48H160.4z"/>
		<path d="M174.68,255.95h3.12c0.81,1.32,1.59,2.57,2.32,3.76c0.44,0.71,0.8,1.29,1.08,1.75c0.28,0.46,0.56,0.92,0.84,1.37
			c0.28,0.45,0.55,0.88,0.8,1.29c0.25,0.41,0.47,0.75,0.64,1.03h0.06v-9.2h2.84v14h-3.12c-0.8-1.29-1.56-2.53-2.28-3.7
			c-0.43-0.69-0.78-1.27-1.07-1.73c-0.29-0.46-0.57-0.92-0.85-1.38s-0.55-0.9-0.81-1.32s-0.48-0.78-0.67-1.07h-0.06v9.2h-2.84
			V255.95z"/>
		<path d="M190.6,255.95h11.1v2.5h-4.04v11.5h-3.02v-11.5h-4.04V255.95z"/>
		<path d="M205.92,255.95h3v14h-3V255.95z"/>
		<path d="M213.62,262.95c0-1.13,0.16-2.15,0.49-3.05c0.33-0.9,0.79-1.66,1.38-2.29s1.31-1.11,2.15-1.44c0.84-0.33,1.77-0.5,2.8-0.5
			c1.03,0,1.96,0.17,2.8,0.5c0.84,0.33,1.56,0.81,2.15,1.44c0.59,0.63,1.05,1.39,1.38,2.29c0.33,0.9,0.49,1.92,0.49,3.05
			c0,1.13-0.16,2.15-0.49,3.05c-0.33,0.9-0.79,1.66-1.38,2.29c-0.59,0.63-1.31,1.11-2.15,1.44s-1.77,0.5-2.8,0.5
			c-1.03,0-1.96-0.17-2.8-0.5s-1.56-0.81-2.15-1.44c-0.59-0.63-1.05-1.39-1.38-2.29C213.78,265.1,213.62,264.08,213.62,262.95z
			 M216.72,262.95c0,0.71,0.08,1.36,0.23,1.95c0.15,0.59,0.38,1.1,0.69,1.52s0.69,0.75,1.16,0.98s1.01,0.35,1.64,0.35
			s1.17-0.12,1.64-0.35s0.85-0.56,1.16-0.98s0.54-0.93,0.69-1.52c0.15-0.59,0.23-1.24,0.23-1.95s-0.08-1.36-0.23-1.95
			c-0.15-0.59-0.38-1.1-0.69-1.52s-0.69-0.75-1.16-0.98s-1.01-0.35-1.64-0.35s-1.17,0.12-1.64,0.35s-0.85,0.56-1.16,0.98
			s-0.54,0.93-0.69,1.52C216.8,261.59,216.72,262.24,216.72,262.95z"/>
		<path d="M231.96,255.95h3.12c0.81,1.32,1.59,2.57,2.32,3.76c0.44,0.71,0.8,1.29,1.08,1.75c0.28,0.46,0.56,0.92,0.84,1.37
			c0.28,0.45,0.55,0.88,0.8,1.29c0.25,0.41,0.47,0.75,0.64,1.03h0.06v-9.2h2.84v14h-3.12c-0.8-1.29-1.56-2.53-2.28-3.7
			c-0.43-0.69-0.78-1.27-1.07-1.73s-0.57-0.92-0.85-1.38s-0.55-0.9-0.81-1.32s-0.48-0.78-0.67-1.07h-0.06v9.2h-2.84V255.95z"/>
	</g>
</g>
<g id="ICON">
	<g>
		<path d="M145.35,140.82c5.51,0,10.94,0,16.45,0c0,0.34,0,0.65,0,0.95c0,7.99,0.15,15.99-0.04,23.98
			c-0.18,7.62,4.76,12.08,9.51,14.03c2.32,0.95,4.74,1.41,7.24,1.43c2.94,0.03,5.89,0.14,8.75-0.78c4.94-1.59,8.54-4.63,10.05-9.71
			c0.43-1.44,0.55-3.01,0.56-4.52c0.05-8.21,0.02-16.43,0.02-24.64c0-0.22,0-0.44,0-0.72c5.59,0,11.13,0,16.75,0
			c0,0.29,0,0.58,0,0.86c0,9.32,0,18.64,0,27.96c0,6.43-2.11,12.12-6.21,17.03c-5.2,6.24-11.96,9.73-19.9,11.11
			c-2.88,0.5-5.77,0.43-8.67,0.46c-3.57,0.04-7.12-0.12-10.61-0.99c-8.16-2.06-14.88-6.27-19.61-13.34
			c-2.86-4.28-4.31-9.02-4.31-14.2c0.01-9.3,0-18.6,0-27.9C145.35,141.51,145.35,141.18,145.35,140.82z"/>
		<path fill="none" stroke="#000000" stroke-width="3" stroke-miterlimit="10" d="M199.44,122.04c4.59,0,9.11,0,13.68,0
			c0,4.95,0,9.88,0,14.86c-4.55,0-9.09,0-13.68,0C199.44,131.98,199.44,127.04,199.44,122.04z"/>
		<path fill="none" stroke="#000000" stroke-width="3" stroke-miterlimit="10" d="M146.63,122.04c4.59,0,9.11,0,13.68,0
			c0,4.95,0,9.88,0,14.86c-4.55,0-9.09,0-13.68,0C146.63,131.98,146.63,127.04,146.63,122.04z"/>
		<path d="M177.23,111.58c-1.02,0-2.03,0.02-3.05-0.01c-0.3-0.01-0.8-0.12-0.85-0.28c-0.08-0.3,0-0.74,0.19-1.02
			c2.61-3.87,5.26-7.71,7.89-11.57c1.8-2.63,3.6-5.26,5.4-7.89c0.25-0.37,0.52-0.71,1.02-0.45c0.51,0.26,0.37,0.68,0.21,1.09
			c-1.75,4.49-3.49,8.98-5.24,13.47c-0.38,0.98-0.28,1.14,0.75,1.13c2.1-0.01,4.2-0.05,6.31-0.04c0.27,0,0.69,0.13,0.77,0.31
			c0.1,0.24,0.02,0.66-0.14,0.89c-4.46,6.55-8.93,13.08-13.4,19.62c-0.26,0.39-0.58,0.58-1,0.37c-0.46-0.24-0.36-0.64-0.2-1.04
			c1.76-4.53,3.52-9.06,5.28-13.6c0.33-0.85,0.21-1.04-0.69-1.04c-1.08-0.01-2.17,0-3.25,0
			C177.23,111.54,177.23,111.56,177.23,111.58z"/>
	</g>
</g>
</svg>
