<?xml version="1.0" encoding="utf-8"?>
<!-- Generator: Adobe Illustrator 23.1.0, SVG Export Plug-In . SVG Version: 6.00 Build 0)  -->
<svg version="1.1" xmlns="http://www.w3.org/2000/svg" xmlns:xlink="http://www.w3.org/1999/xlink" x="0px" y="0px"
	 viewBox="0 0 360 360" enable-background="new 0 0 360 360" xml:space="preserve">
<g id="BACKGROUND">
	<rect x="0" y="0" fill="#FFFFFF" width="360" height="360"/>
</g>
<g id="REF" display="none">
	
		<rect y="90.33" display="inline" fill="none" stroke="#000000" stroke-width="0.25" stroke-miterlimit="10" width="360" height="108"/>
	
		<rect x="360" y="90.33" display="inline" fill="none" stroke="#FFFFFF" stroke-width="0.25" stroke-miterlimit="10" width="360" height="108"/>
	
		<line display="inline" fill="none" stroke="#000000" stroke-width="0.25" stroke-linecap="round" stroke-miterlimit="10" x1="180" y1="0.19" x2="180" y2="360.06"/>
</g>
<g id="LINE_ONE">
	<g>
		<path d="M130.52,248.16h-3.1l-1.12-3.24h-5.02l-1.12,3.24h-2.94l5.04-14h3.22L130.52,248.16z M123.76,237.44
			c-0.03,0.11-0.07,0.26-0.14,0.47s-0.14,0.44-0.22,0.7s-0.17,0.54-0.27,0.84c-0.1,0.3-0.2,0.59-0.29,0.87
			c-0.23,0.69-0.47,1.43-0.74,2.22h3.38c-0.27-0.79-0.51-1.53-0.74-2.22c-0.15-0.4-0.26-0.73-0.35-0.99s-0.17-0.51-0.24-0.75
			s-0.14-0.46-0.21-0.67s-0.11-0.36-0.14-0.47H123.76z"/>
		<path d="M140.82,248.16c-0.2-0.55-0.45-1.26-0.75-2.15c-0.3-0.89-0.61-1.81-0.93-2.77c-0.32-0.96-0.63-1.9-0.93-2.82
			c-0.3-0.92-0.54-1.69-0.73-2.32h-0.06v10.06h-2.76v-14h4.2c0.57,1.71,1.09,3.27,1.56,4.7c0.28,0.85,0.51,1.54,0.69,2.07
			c0.18,0.53,0.35,1.03,0.5,1.51c0.15,0.48,0.29,0.91,0.42,1.3s0.22,0.67,0.27,0.84c0.05-0.17,0.14-0.45,0.26-0.84
			c0.12-0.39,0.26-0.84,0.43-1.37c0.17-0.53,0.35-1.09,0.54-1.7c0.19-0.61,0.39-1.21,0.59-1.81c0.45-1.43,0.95-2.99,1.5-4.7h4.18v14
			h-2.76V238.1h-0.06c-0.13,0.41-0.29,0.91-0.48,1.49s-0.39,1.2-0.61,1.85c-0.22,0.65-0.44,1.32-0.67,1.99
			c-0.23,0.67-0.44,1.31-0.64,1.92c-0.2,0.61-0.38,1.16-0.55,1.65c-0.17,0.49-0.3,0.88-0.41,1.16H140.82z"/>
		<path d="M155.08,248.16v-14h9.54v2.48h-6.58v3.08h6.12v2.48h-6.12v3.48h6.68v2.48H155.08z"/>
		<path d="M169.36,234.16h3.12c0.81,1.32,1.59,2.57,2.32,3.76c0.44,0.71,0.8,1.29,1.08,1.75c0.28,0.46,0.56,0.92,0.84,1.37
			c0.28,0.45,0.55,0.88,0.8,1.29c0.25,0.41,0.47,0.75,0.64,1.03h0.06v-9.2h2.84v14h-3.12c-0.8-1.29-1.56-2.53-2.28-3.7
			c-0.43-0.69-0.78-1.27-1.07-1.73s-0.57-0.92-0.85-1.38c-0.28-0.46-0.55-0.9-0.81-1.32c-0.26-0.42-0.48-0.78-0.67-1.07h-0.06v9.2
			h-2.84V234.16z"/>
		<path d="M186.34,234.16h3v14h-3V234.16z"/>
		<path d="M193.56,234.16h11.1v2.5h-4.04v11.5h-3.02v-11.5h-4.04V234.16z"/>
		<path d="M208.88,234.16h3v14h-3V234.16z"/>
		<path d="M217.16,248.16v-14h9.54v2.48h-6.58v3.08h6.12v2.48h-6.12v3.48h6.68v2.48H217.16z"/>
		<path d="M234.16,237.84c0,0.6,0.26,1.03,0.78,1.29c0.52,0.26,1.35,0.48,2.48,0.67c1.67,0.28,2.89,0.74,3.67,1.38
			c0.78,0.64,1.17,1.59,1.17,2.86c0,0.68-0.14,1.29-0.42,1.83c-0.28,0.54-0.67,1-1.17,1.38s-1.1,0.67-1.79,0.88
			c-0.69,0.21-1.45,0.31-2.26,0.31c-0.88,0-1.67-0.12-2.38-0.35c-0.71-0.23-1.31-0.54-1.8-0.93s-0.88-0.84-1.16-1.36
			c-0.28-0.52-0.43-1.06-0.46-1.62l3-0.48c0.07,0.68,0.33,1.24,0.79,1.67c0.46,0.43,1.13,0.65,2.01,0.65c0.36,0,0.7-0.03,1.01-0.1
			c0.31-0.07,0.59-0.18,0.82-0.33c0.23-0.15,0.42-0.34,0.55-0.57c0.13-0.23,0.2-0.5,0.2-0.82c0-0.52-0.22-0.92-0.65-1.2
			s-1.2-0.51-2.29-0.68c-0.73-0.12-1.41-0.27-2.04-0.46s-1.17-0.44-1.63-0.77c-0.46-0.33-0.82-0.73-1.08-1.22
			c-0.26-0.49-0.39-1.08-0.39-1.79c0-0.71,0.13-1.32,0.4-1.84c0.27-0.52,0.64-0.96,1.12-1.31c0.48-0.35,1.05-0.62,1.7-0.79
			c0.65-0.17,1.37-0.26,2.14-0.26c0.72,0,1.39,0.08,2.02,0.25c0.63,0.17,1.18,0.41,1.67,0.74c0.49,0.33,0.89,0.73,1.21,1.21
			c0.32,0.48,0.54,1.03,0.66,1.64l-3.04,0.66c-0.11-0.64-0.38-1.15-0.82-1.52s-1.03-0.56-1.78-0.56c-0.76,0-1.32,0.14-1.69,0.42
			C234.34,237,234.16,237.37,234.16,237.84z"/>
	</g>
</g>
<g id="LINE_TWO">
</g>
<g id="ICON">
	<g>
		<g>
			<path fill="none" stroke="#000000" stroke-width="3" stroke-miterlimit="10" d="M234.21,114.87c0,3.17-2.59,5.76-5.76,5.76
				h-91.79c-3.17,0-5.76-2.59-5.76-5.76V96.59c0-3.17,2.59-5.76,5.76-5.76h91.79c3.17,0,5.76,2.59,5.76,5.76V114.87z"/>
		</g>
		<g>
			<path fill="none" stroke="#000000" stroke-width="3" stroke-miterlimit="10" d="M234.21,111.01v86.11c0,0.4-0.32,0.72-0.72,0.72
				H130.86c-0.4,0-0.72-0.32-0.72-0.72v-6.53c0-0.4,0.32-0.72,0.72-0.72h72.11c0.4,0,0.72-0.32,0.72-0.72v-68.52"/>
		</g>
		<g>
			<path fill="none" stroke="#000000" stroke-width="3" stroke-miterlimit="10" d="M183.32,131.19c0,1.19-0.97,2.16-2.16,2.16
				h-26.05c-1.19,0-2.16-0.97-2.16-2.16v-8.41c0-1.19,0.97-2.16,2.16-2.16h26.05c1.19,0,2.16,0.97,2.16,2.16V131.19z"/>
		</g>
		<g>
			<path fill="none" stroke="#000000" stroke-width="3" stroke-miterlimit="10" d="M177.35,140.04c0,1.19-0.97,2.16-2.16,2.16h-12.9
				c-1.19,0-2.16-0.97-2.16-2.16v-4.52c0-1.19,0.97-2.16,2.16-2.16h12.9c1.19,0,2.16,0.97,2.16,2.16V140.04z"/>
		</g>
		<line fill="none" stroke="#000000" stroke-miterlimit="10" x1="152.96" y1="127.79" x2="142.87" y2="127.79"/>
		<path fill="none" stroke="#000000" stroke-miterlimit="10" d="M128.37,129.92h12.7c0.99,0,1.81-0.81,1.81-1.81v-0.64
			c0-0.99-0.81-1.81-1.81-1.81h-12.7c-0.99,0-1.81,0.81-1.81,1.81v0.64C126.56,129.11,127.37,129.92,128.37,129.92z"/>
		<circle fill="none" stroke="#000000" stroke-miterlimit="10" cx="143.97" cy="105.73" r="4.35"/>
		<circle fill="none" stroke="#000000" stroke-miterlimit="10" cx="157.19" cy="105.73" r="4.35"/>
		<circle fill="none" stroke="#000000" stroke-miterlimit="10" cx="170.93" cy="105.73" r="4.35"/>
		<g>
			<path fill="none" stroke="#000000" stroke-width="3" stroke-miterlimit="10" d="M149.41,158.58c0,0,0,7.02,0,15.6
				c0,8.58,8.69,15.6,19.32,15.6c10.62,0,19.32-7.02,19.32-15.6c0-8.58,0-15.6,0-15.6"/>
		</g>
		<line fill="none" stroke="#000000" stroke-width="3" stroke-miterlimit="10" x1="147.81" y1="158.58" x2="189.63" y2="158.58"/>
		<g>
			<path fill="none" stroke="#000000" stroke-width="3" stroke-miterlimit="10" d="M149.41,162.37c0,0-2.54,0-5.64,0
				s-5.64,2.66-5.64,5.91s2.54,5.91,5.64,5.91s5.64,0,5.64,0"/>
		</g>
	</g>
</g>
</svg>
