<?xml version="1.0" encoding="utf-8"?>
<!-- Generator: Adobe Illustrator 23.1.0, SVG Export Plug-In . SVG Version: 6.00 Build 0)  -->
<svg version="1.1" xmlns="http://www.w3.org/2000/svg" xmlns:xlink="http://www.w3.org/1999/xlink" x="0px" y="0px"
	 viewBox="0 0 360 360" enable-background="new 0 0 360 360" xml:space="preserve">
<g id="BACKGROUND">
	<rect y="0" fill="#FFFFFF" width="360" height="360"/>
</g>
<g id="REF" display="none">
	
		<rect y="90.33" display="inline" fill="none" stroke="#000000" stroke-width="0.25" stroke-miterlimit="10" width="360" height="108"/>
	
		<rect x="360" y="90.33" display="inline" fill="none" stroke="#FFFFFF" stroke-width="0.25" stroke-miterlimit="10" width="360" height="108"/>
	
		<line display="inline" fill="none" stroke="#000000" stroke-width="0.25" stroke-linecap="round" stroke-miterlimit="10" x1="180" y1="0.19" x2="180" y2="360.06"/>
</g>
<g id="LINE_ONE">
	<g>
		<path d="M136.97,240.4h6.44v7.76h-2.72v-1.44c-0.31,0.48-0.76,0.89-1.36,1.22c-0.6,0.33-1.38,0.5-2.34,0.5
			c-1.04,0-1.96-0.19-2.75-0.57s-1.45-0.9-1.98-1.55c-0.53-0.65-0.92-1.42-1.19-2.3s-0.4-1.82-0.4-2.82c0-1.08,0.16-2.07,0.47-2.96
			c0.31-0.89,0.77-1.66,1.37-2.31c0.6-0.65,1.33-1.15,2.19-1.51c0.86-0.36,1.84-0.54,2.93-0.54c1.41,0,2.62,0.31,3.62,0.93
			c1,0.62,1.75,1.54,2.26,2.75l-2.78,1.14c-0.27-0.75-0.67-1.32-1.22-1.73c-0.55-0.41-1.21-0.61-2-0.61c-1.13,0-2.04,0.42-2.72,1.25
			c-0.68,0.83-1.02,2.06-1.02,3.69c0,3.12,1.23,4.68,3.7,4.68c0.36,0,0.72-0.05,1.08-0.15c0.36-0.1,0.69-0.25,0.99-0.46
			c0.3-0.21,0.54-0.47,0.73-0.79c0.19-0.32,0.28-0.71,0.28-1.16v-0.64h-3.58V240.4z"/>
		<path d="M159.11,238.42c0,1.04-0.24,1.89-0.71,2.54c-0.47,0.65-1.12,1.14-1.95,1.46l3.22,5.74h-3.3l-2.9-5.3h-1.86v5.3h-2.98v-14
			h5.12c0.81,0,1.55,0.08,2.21,0.25s1.22,0.42,1.69,0.77c0.47,0.35,0.83,0.79,1.08,1.32C158.98,237.03,159.11,237.67,159.11,238.42z
			 M156.03,238.44c0-0.68-0.22-1.15-0.65-1.41s-1.09-0.39-1.97-0.39h-1.8v3.78h1.8c0.88,0,1.54-0.15,1.97-0.45
			C155.81,239.67,156.03,239.16,156.03,238.44z"/>
		<path d="M163.57,241.16c0-1.13,0.16-2.15,0.49-3.05c0.33-0.9,0.79-1.66,1.38-2.29c0.59-0.63,1.31-1.11,2.15-1.44
			c0.84-0.33,1.77-0.5,2.8-0.5s1.96,0.17,2.8,0.5c0.84,0.33,1.56,0.81,2.15,1.44c0.59,0.63,1.05,1.39,1.38,2.29
			c0.33,0.9,0.49,1.92,0.49,3.05c0,1.13-0.16,2.15-0.49,3.05c-0.33,0.9-0.79,1.66-1.38,2.29c-0.59,0.63-1.31,1.11-2.15,1.44
			s-1.77,0.5-2.8,0.5s-1.96-0.17-2.8-0.5s-1.56-0.81-2.15-1.44c-0.59-0.63-1.05-1.39-1.38-2.29
			C163.73,243.31,163.57,242.29,163.57,241.16z M166.67,241.16c0,0.71,0.08,1.36,0.23,1.95c0.15,0.59,0.38,1.1,0.69,1.52
			s0.69,0.75,1.16,0.98c0.47,0.23,1.01,0.35,1.64,0.35s1.17-0.12,1.64-0.35s0.85-0.56,1.16-0.98s0.54-0.93,0.69-1.52
			c0.15-0.59,0.23-1.24,0.23-1.95s-0.08-1.36-0.23-1.95c-0.15-0.59-0.38-1.1-0.69-1.52s-0.69-0.75-1.16-0.98s-1.01-0.35-1.64-0.35
			s-1.17,0.12-1.64,0.35c-0.47,0.23-0.85,0.56-1.16,0.98s-0.54,0.93-0.69,1.52C166.75,239.8,166.67,240.45,166.67,241.16z"/>
		<path d="M198.87,234.16l-3.5,14h-3.48c-0.29-1.29-0.57-2.53-0.84-3.7c-0.16-0.69-0.29-1.27-0.4-1.74
			c-0.11-0.47-0.21-0.93-0.31-1.4c-0.1-0.47-0.2-0.91-0.3-1.34c-0.1-0.43-0.18-0.79-0.25-1.1h-0.06c-0.07,0.31-0.15,0.68-0.24,1.11
			c-0.09,0.43-0.2,0.9-0.32,1.39c-0.12,0.49-0.24,1-0.36,1.53c-0.12,0.53-0.24,1.04-0.36,1.55c-0.28,1.17-0.58,2.41-0.9,3.7h-3.48
			l-3.52-14h3.04c0.35,1.49,0.67,2.91,0.98,4.26c0.17,0.8,0.32,1.46,0.44,1.98c0.12,0.52,0.23,1.04,0.34,1.56
			c0.11,0.52,0.21,1.01,0.31,1.48c0.1,0.47,0.18,0.86,0.23,1.18h0.06c0.07-0.32,0.15-0.72,0.25-1.19c0.1-0.47,0.21-0.98,0.34-1.53
			c0.13-0.55,0.26-1.12,0.4-1.72c0.14-0.6,0.28-1.19,0.41-1.76c0.32-1.35,0.66-2.77,1.02-4.26h2.82c0.36,1.49,0.7,2.91,1.02,4.26
			c0.19,0.8,0.34,1.46,0.47,1.98c0.13,0.52,0.25,1.04,0.37,1.56c0.12,0.52,0.23,1.01,0.33,1.48c0.1,0.47,0.18,0.86,0.25,1.18h0.06
			c0.07-0.32,0.15-0.72,0.25-1.19c0.1-0.47,0.21-0.98,0.33-1.53s0.25-1.12,0.38-1.72c0.13-0.6,0.27-1.19,0.4-1.76
			c0.32-1.35,0.65-2.77,1-4.26H198.87z"/>
		<path d="M202.13,234.16h11.1v2.5h-4.04v11.5h-3.02v-11.5h-4.04V234.16z"/>
		<path d="M217.45,234.16h3v5.54h5.3v-5.54h3v14h-3v-5.94h-5.3v5.94h-3V234.16z"/>
	</g>
</g>
<g id="LINE_TWO">
</g>
<g id="ICON">
	<g>
		<path fill="none" stroke="#000000" stroke-width="3" stroke-miterlimit="10" d="M221.17,90.6c5.21,5.64,5.14,12.97-0.15,17.83
			C215.33,105.33,215.49,93.3,221.17,90.6z"/>
		<path fill="none" stroke="#000000" stroke-width="3" stroke-miterlimit="10" d="M236.65,160.76c0.64,7.88-6.15,14.47-13.46,13.34
			C223.55,166.09,228.26,161.37,236.65,160.76z"/>
		<path fill="none" stroke="#000000" stroke-width="3" stroke-miterlimit="10" d="M205.17,160.96c7.77-0.12,13.37,5.42,13.38,13.01
			C212.25,175.34,204.83,168.85,205.17,160.96z"/>
		<path fill="none" stroke="#000000" stroke-width="3" stroke-miterlimit="10" d="M236.65,139.34c0.64,7.88-6.15,14.47-13.46,13.34
			C223.55,144.67,228.26,139.95,236.65,139.34z"/>
		<path fill="none" stroke="#000000" stroke-width="3" stroke-miterlimit="10" d="M205.17,139.53c7.77-0.12,13.37,5.42,13.38,13.01
			C212.25,153.92,204.83,147.42,205.17,139.53z"/>
		<path fill="none" stroke="#000000" stroke-width="3" stroke-miterlimit="10" d="M236.65,117.15c0.64,7.88-6.15,14.47-13.46,13.34
			C223.55,122.49,228.26,117.76,236.65,117.15z"/>
		<path fill="none" stroke="#000000" stroke-width="3" stroke-miterlimit="10" d="M205.17,117.35c7.77-0.12,13.37,5.42,13.38,13.01
			C212.25,131.73,204.83,125.24,205.17,117.35z"/>
		
			<line fill="none" stroke="#000000" stroke-width="3" stroke-linecap="round" stroke-miterlimit="10" x1="220.93" y1="109.19" x2="220.93" y2="197.61"/>
		<path fill="none" stroke="#000000" stroke-width="3" stroke-miterlimit="10" d="M176.19,112.71c5.21,5.64,5.14,12.97-0.15,17.83
			C170.36,127.44,170.51,115.42,176.19,112.71z"/>
		<path fill="none" stroke="#000000" stroke-width="3" stroke-miterlimit="10" d="M191.68,160.76c0.64,7.88-6.15,14.47-13.46,13.34
			C178.57,166.09,183.29,161.37,191.68,160.76z"/>
		<path fill="none" stroke="#000000" stroke-width="3" stroke-miterlimit="10" d="M160.2,160.96c7.77-0.12,13.37,5.42,13.38,13.01
			C167.27,175.34,159.85,168.85,160.2,160.96z"/>
		<path fill="none" stroke="#000000" stroke-width="3" stroke-miterlimit="10" d="M191.68,139.34c0.64,7.88-6.15,14.47-13.46,13.34
			C178.57,144.67,183.29,139.95,191.68,139.34z"/>
		<path fill="none" stroke="#000000" stroke-width="3" stroke-miterlimit="10" d="M160.2,139.53c7.77-0.12,13.37,5.42,13.38,13.01
			C167.27,153.92,159.85,147.42,160.2,139.53z"/>
		
			<line fill="none" stroke="#000000" stroke-width="3" stroke-linecap="round" stroke-miterlimit="10" x1="175.95" y1="130.54" x2="175.95" y2="197.61"/>
		<path fill="none" stroke="#000000" stroke-width="3" stroke-miterlimit="10" d="M133.52,134.9c5.21,5.64,5.14,12.97-0.15,17.83
			C127.68,149.63,127.84,137.6,133.52,134.9z"/>
		<path fill="none" stroke="#000000" stroke-width="3" stroke-miterlimit="10" d="M149.01,160.76c0.64,7.88-6.15,14.47-13.46,13.34
			C135.9,166.09,140.61,161.37,149.01,160.76z"/>
		<path fill="none" stroke="#000000" stroke-width="3" stroke-miterlimit="10" d="M117.52,160.96c7.77-0.12,13.37,5.42,13.38,13.01
			C124.6,175.34,117.18,168.85,117.52,160.96z"/>
		
			<line fill="none" stroke="#000000" stroke-width="3" stroke-linecap="round" stroke-miterlimit="10" x1="133.28" y1="152.8" x2="133.28" y2="197.61"/>
		
			<line fill="none" stroke="#000000" stroke-width="5" stroke-linecap="round" stroke-miterlimit="10" x1="113.45" y1="197.61" x2="245.8" y2="197.61"/>
	</g>
</g>
</svg>
