<?xml version="1.0" encoding="utf-8"?>
<!-- Generator: Adobe Illustrator 23.1.0, SVG Export Plug-In . SVG Version: 6.00 Build 0)  -->
<svg version="1.1" xmlns="http://www.w3.org/2000/svg" xmlns:xlink="http://www.w3.org/1999/xlink" x="0px" y="0px"
	 viewBox="0 0 360 360" enable-background="new 0 0 360 360" xml:space="preserve">
<g id="BACKGROUND">
	<rect y="0" width="360" height="360"/>
</g>
<g id="REF" display="none">
	
		<rect x="-360" y="90.33" display="inline" fill="none" stroke="#000000" stroke-width="0.25" stroke-miterlimit="10" width="360" height="108"/>
	
		<rect y="90.33" display="inline" fill="none" stroke="#FFFFFF" stroke-width="0.25" stroke-miterlimit="10" width="360" height="108"/>
	
		<line display="inline" fill="none" stroke="#FFFFFF" stroke-width="0.25" stroke-linecap="round" stroke-miterlimit="10" x1="180" y1="0.19" x2="180" y2="360.06"/>
</g>
<g id="LINE_ONE">
	<g>
		<path fill="#FFFFFF" d="M110.25,248.16h-3.1l-1.12-3.24h-5.02l-1.12,3.24h-2.94l5.04-14h3.22L110.25,248.16z M103.49,237.44
			c-0.03,0.11-0.07,0.26-0.14,0.47s-0.14,0.44-0.22,0.7s-0.17,0.54-0.27,0.84c-0.1,0.3-0.2,0.59-0.29,0.87
			c-0.23,0.69-0.47,1.43-0.74,2.22h3.38c-0.27-0.79-0.51-1.53-0.74-2.22c-0.15-0.4-0.26-0.73-0.35-0.99s-0.17-0.51-0.24-0.75
			s-0.14-0.46-0.21-0.67s-0.11-0.36-0.14-0.47H103.49z"/>
		<path fill="#FFFFFF" d="M114.39,234.16h5.22c1.07,0,2.03,0.16,2.88,0.47c0.85,0.31,1.57,0.77,2.16,1.36
			c0.59,0.59,1.04,1.32,1.35,2.19c0.31,0.87,0.47,1.86,0.47,2.98s-0.16,2.11-0.47,2.98c-0.31,0.87-0.76,1.6-1.35,2.19
			c-0.59,0.59-1.31,1.05-2.16,1.36c-0.85,0.31-1.81,0.47-2.88,0.47h-5.22V234.16z M123.37,241.16c0-0.68-0.08-1.3-0.23-1.85
			c-0.15-0.55-0.39-1.03-0.7-1.43c-0.31-0.4-0.71-0.71-1.19-0.92c-0.48-0.21-1.05-0.32-1.72-0.32h-2.12v9.04h2.12
			c0.67,0,1.24-0.11,1.72-0.32c0.48-0.21,0.88-0.52,1.19-0.92c0.31-0.4,0.55-0.88,0.7-1.43
			C123.29,242.45,123.37,241.84,123.37,241.16z"/>
		<path fill="#FFFFFF" d="M142.63,248.16h-3.1l-1.12-3.24h-5.02l-1.12,3.24h-2.94l5.04-14h3.22L142.63,248.16z M135.87,237.44
			c-0.03,0.11-0.07,0.26-0.14,0.47c-0.07,0.21-0.14,0.44-0.22,0.7s-0.17,0.54-0.27,0.84c-0.1,0.3-0.2,0.59-0.29,0.87
			c-0.23,0.69-0.47,1.43-0.74,2.22h3.38c-0.27-0.79-0.51-1.53-0.74-2.22c-0.15-0.4-0.26-0.73-0.35-0.99
			c-0.09-0.26-0.17-0.51-0.24-0.75s-0.14-0.46-0.21-0.67c-0.07-0.21-0.11-0.36-0.14-0.47H135.87z"/>
		<path fill="#FFFFFF" d="M149.75,243.24v4.92h-2.98v-14h5.32c0.84,0,1.6,0.09,2.28,0.26c0.68,0.17,1.26,0.44,1.74,0.8
			c0.48,0.36,0.85,0.82,1.12,1.38c0.27,0.56,0.4,1.23,0.4,2.02c0,0.8-0.14,1.49-0.41,2.07c-0.27,0.58-0.65,1.06-1.14,1.44
			s-1.07,0.66-1.75,0.84c-0.68,0.18-1.43,0.27-2.24,0.27H149.75z M154.57,238.62c0-0.76-0.23-1.28-0.69-1.56
			c-0.46-0.28-1.16-0.42-2.09-0.42h-2.04v4.12h2.04c0.93,0,1.63-0.17,2.09-0.5C154.34,239.92,154.57,239.38,154.57,238.62z"/>
		<path fill="#FFFFFF" d="M160.97,234.16h11.1v2.5h-4.04v11.5h-3.02v-11.5h-4.04V234.16z"/>
		<path fill="#FFFFFF" d="M186.85,248.16h-3.1l-1.12-3.24h-5.02l-1.12,3.24h-2.94l5.04-14h3.22L186.85,248.16z M180.09,237.44
			c-0.03,0.11-0.07,0.26-0.14,0.47c-0.07,0.21-0.14,0.44-0.22,0.7s-0.17,0.54-0.27,0.84s-0.2,0.59-0.29,0.87
			c-0.23,0.69-0.47,1.43-0.74,2.22h3.38c-0.27-0.79-0.51-1.53-0.74-2.22c-0.15-0.4-0.26-0.73-0.35-0.99
			c-0.09-0.26-0.17-0.51-0.24-0.75c-0.07-0.24-0.14-0.46-0.21-0.67s-0.11-0.36-0.14-0.47H180.09z"/>
		<path fill="#FFFFFF" d="M190.99,234.16h6.08c0.65,0,1.24,0.09,1.75,0.28c0.51,0.19,0.95,0.44,1.3,0.77
			c0.35,0.33,0.62,0.71,0.81,1.16c0.19,0.45,0.28,0.93,0.28,1.45c0,0.43-0.06,0.81-0.18,1.14c-0.12,0.33-0.28,0.62-0.47,0.87
			c-0.19,0.25-0.41,0.45-0.66,0.62c-0.25,0.17-0.5,0.3-0.77,0.39c0.31,0.04,0.62,0.13,0.93,0.26c0.31,0.13,0.6,0.32,0.87,0.57
			c0.27,0.25,0.48,0.56,0.65,0.93c0.17,0.37,0.25,0.83,0.25,1.38c0,0.6-0.11,1.16-0.34,1.67c-0.23,0.51-0.54,0.95-0.94,1.32
			c-0.4,0.37-0.87,0.66-1.42,0.87c-0.55,0.21-1.15,0.32-1.8,0.32h-6.34V234.16z M193.91,236.6v3.24h2.1c0.72,0,1.25-0.12,1.6-0.36
			c0.35-0.24,0.52-0.67,0.52-1.3c0-0.57-0.15-0.98-0.45-1.22s-0.8-0.36-1.51-0.36H193.91z M193.91,245.72h2.4
			c0.95,0,1.59-0.15,1.93-0.45c0.34-0.3,0.51-0.74,0.51-1.31c0-0.68-0.21-1.14-0.62-1.37c-0.41-0.23-1.03-0.35-1.86-0.35h-2.36
			V245.72z"/>
		<path fill="#FFFFFF" d="M206.49,234.16h3v14h-3V234.16z"/>
		<path fill="#FFFFFF" d="M214.77,234.16h3v11.5h6.12v2.5h-9.12V234.16z"/>
		<path fill="#FFFFFF" d="M228.09,234.16h3v14h-3V234.16z"/>
		<path fill="#FFFFFF" d="M235.31,234.16h11.1v2.5h-4.04v11.5h-3.02v-11.5h-4.04V234.16z"/>
		<path fill="#FFFFFF" d="M254.87,242.3l-5.3-8.14h3.44l3.42,5.36l3.4-5.36h3.34l-5.3,8.14v5.86h-3V242.3z"/>
	</g>
</g>
<g id="LINE_TWO">
</g>
<g id="ICON">
	<g>
		<g>
			
				<rect x="84.95" y="164" transform="matrix(-1 1.501760e-07 -1.501760e-07 -1 224.211 361.4326)" stroke="#FFFFFF" stroke-width="3" stroke-linejoin="round" stroke-miterlimit="10" width="54.32" height="33.42"/>
			
				<rect x="89.82" y="158.08" fill="none" stroke="#FFFFFF" stroke-width="3" stroke-linejoin="round" stroke-miterlimit="10" width="16.71" height="5.92"/>
			
				<rect x="117.68" y="158.08" fill="none" stroke="#FFFFFF" stroke-width="3" stroke-linejoin="round" stroke-miterlimit="10" width="16.71" height="5.92"/>
		</g>
		<g>
			
				<rect x="166.42" y="164" transform="matrix(-1 1.501828e-07 -1.501828e-07 -1 441.4734 361.4325)" stroke="#FFFFFF" stroke-width="3" stroke-linejoin="round" stroke-miterlimit="10" width="108.63" height="33.42"/>
			
				<rect x="171.3" y="158.08" fill="none" stroke="#FFFFFF" stroke-width="3" stroke-linejoin="round" stroke-miterlimit="10" width="16.71" height="5.92"/>
			
				<rect x="199.15" y="158.08" fill="none" stroke="#FFFFFF" stroke-width="3" stroke-linejoin="round" stroke-miterlimit="10" width="16.71" height="5.92"/>
			
				<rect x="225.61" y="158.08" fill="none" stroke="#FFFFFF" stroke-width="3" stroke-linejoin="round" stroke-miterlimit="10" width="16.71" height="5.92"/>
			
				<rect x="253.47" y="158.08" fill="none" stroke="#FFFFFF" stroke-width="3" stroke-linejoin="round" stroke-miterlimit="10" width="16.71" height="5.92"/>
		</g>
		<g>
			
				<rect x="112.11" y="130.58" transform="matrix(-1 1.501828e-07 -1.501828e-07 -1 332.8422 294.5826)" stroke="#FFFFFF" stroke-width="3" stroke-linejoin="round" stroke-miterlimit="10" width="108.63" height="33.42"/>
			
				<rect x="116.98" y="124.66" fill="none" stroke="#FFFFFF" stroke-width="3" stroke-linejoin="round" stroke-miterlimit="10" width="16.71" height="5.92"/>
			
				<rect x="144.83" y="124.66" fill="none" stroke="#FFFFFF" stroke-width="3" stroke-linejoin="round" stroke-miterlimit="10" width="16.71" height="5.92"/>
			
				<rect x="171.3" y="124.66" fill="none" stroke="#FFFFFF" stroke-width="3" stroke-linejoin="round" stroke-miterlimit="10" width="16.71" height="5.92"/>
			
				<rect x="199.15" y="124.66" fill="none" stroke="#FFFFFF" stroke-width="3" stroke-linejoin="round" stroke-miterlimit="10" width="16.71" height="5.92"/>
		</g>
		<g>
			
				<rect x="166.42" y="97.15" transform="matrix(-1 1.501760e-07 -1.501760e-07 -1 387.1578 227.7326)" stroke="#FFFFFF" stroke-width="3" stroke-linejoin="round" stroke-miterlimit="10" width="54.32" height="33.42"/>
			
				<rect x="171.3" y="91.23" fill="none" stroke="#FFFFFF" stroke-width="3" stroke-linejoin="round" stroke-miterlimit="10" width="16.71" height="5.92"/>
			
				<rect x="199.15" y="91.23" fill="none" stroke="#FFFFFF" stroke-width="3" stroke-linejoin="round" stroke-miterlimit="10" width="16.71" height="5.92"/>
		</g>
	</g>
</g>
</svg>
