<?xml version="1.0" encoding="utf-8"?>
<!-- Generator: Adobe Illustrator 23.1.0, SVG Export Plug-In . SVG Version: 6.00 Build 0)  -->
<svg version="1.1" xmlns="http://www.w3.org/2000/svg" xmlns:xlink="http://www.w3.org/1999/xlink" x="0px" y="0px"
	 viewBox="0 0 360 360" enable-background="new 0 0 360 360" xml:space="preserve">
<g id="BACKGROUND">
	<rect width="360" height="360"/>
</g>
<g id="REF" display="none">
	
		<rect x="-360" y="90.33" display="inline" fill="none" stroke="#000000" stroke-width="0.25" stroke-miterlimit="10" width="360" height="108"/>
	
		<rect y="90.33" display="inline" fill="none" stroke="#FFFFFF" stroke-width="0.25" stroke-miterlimit="10" width="360" height="108"/>
	
		<line display="inline" fill="none" stroke="#FFFFFF" stroke-width="0.25" stroke-linecap="round" stroke-miterlimit="10" x1="180" y1="0.19" x2="180" y2="360.06"/>
</g>
<g id="LINE_ONE">
	<g>
		<path fill="#FFFFFF" d="M133.23,248.16v-14h9.58v2.48h-6.62v3.08h6.1v2.48h-6.1v5.96H133.23z"/>
		<path fill="#FFFFFF" d="M147.29,234.16h3v14h-3V234.16z"/>
		<path fill="#FFFFFF" d="M154.51,234.16h11.1v2.5h-4.04v11.5h-3.02v-11.5h-4.04V234.16z"/>
		<path fill="#FFFFFF" d="M169.83,234.16h3.12c0.81,1.32,1.59,2.57,2.32,3.76c0.44,0.71,0.8,1.29,1.08,1.75
			c0.28,0.46,0.56,0.92,0.84,1.37c0.28,0.45,0.55,0.88,0.8,1.29c0.25,0.41,0.47,0.75,0.64,1.03h0.06v-9.2h2.84v14h-3.12
			c-0.8-1.29-1.56-2.53-2.28-3.7c-0.43-0.69-0.78-1.27-1.07-1.73s-0.57-0.92-0.85-1.38c-0.28-0.46-0.55-0.9-0.81-1.32
			c-0.26-0.42-0.48-0.78-0.67-1.07h-0.06v9.2h-2.84V234.16z"/>
		<path fill="#FFFFFF" d="M186.81,248.16v-14h9.54v2.48h-6.58v3.08h6.12v2.48h-6.12v3.48h6.68v2.48H186.81z"/>
		<path fill="#FFFFFF" d="M203.81,237.84c0,0.6,0.26,1.03,0.78,1.29c0.52,0.26,1.35,0.48,2.48,0.67c1.67,0.28,2.89,0.74,3.67,1.38
			c0.78,0.64,1.17,1.59,1.17,2.86c0,0.68-0.14,1.29-0.42,1.83c-0.28,0.54-0.67,1-1.17,1.38s-1.1,0.67-1.79,0.88
			c-0.69,0.21-1.45,0.31-2.26,0.31c-0.88,0-1.67-0.12-2.38-0.35c-0.71-0.23-1.31-0.54-1.8-0.93c-0.49-0.39-0.88-0.84-1.16-1.36
			c-0.28-0.52-0.43-1.06-0.46-1.62l3-0.48c0.07,0.68,0.33,1.24,0.79,1.67c0.46,0.43,1.13,0.65,2.01,0.65c0.36,0,0.7-0.03,1.01-0.1
			c0.31-0.07,0.59-0.18,0.82-0.33c0.23-0.15,0.42-0.34,0.55-0.57s0.2-0.5,0.2-0.82c0-0.52-0.22-0.92-0.65-1.2s-1.2-0.51-2.29-0.68
			c-0.73-0.12-1.41-0.27-2.04-0.46s-1.17-0.44-1.63-0.77c-0.46-0.33-0.82-0.73-1.08-1.22c-0.26-0.49-0.39-1.08-0.39-1.79
			c0-0.71,0.13-1.32,0.4-1.84c0.27-0.52,0.64-0.96,1.12-1.31c0.48-0.35,1.05-0.62,1.7-0.79c0.65-0.17,1.37-0.26,2.14-0.26
			c0.72,0,1.39,0.08,2.02,0.25c0.63,0.17,1.18,0.41,1.67,0.74c0.49,0.33,0.89,0.73,1.21,1.21c0.32,0.48,0.54,1.03,0.66,1.64
			l-3.04,0.66c-0.11-0.64-0.38-1.15-0.82-1.52c-0.44-0.37-1.03-0.56-1.78-0.56c-0.76,0-1.32,0.14-1.69,0.42
			C203.99,237,203.81,237.37,203.81,237.84z"/>
		<path fill="#FFFFFF" d="M219.29,237.84c0,0.6,0.26,1.03,0.78,1.29c0.52,0.26,1.35,0.48,2.48,0.67c1.67,0.28,2.89,0.74,3.67,1.38
			c0.78,0.64,1.17,1.59,1.17,2.86c0,0.68-0.14,1.29-0.42,1.83c-0.28,0.54-0.67,1-1.17,1.38s-1.1,0.67-1.79,0.88
			c-0.69,0.21-1.45,0.31-2.26,0.31c-0.88,0-1.67-0.12-2.38-0.35c-0.71-0.23-1.31-0.54-1.8-0.93c-0.49-0.39-0.88-0.84-1.16-1.36
			c-0.28-0.52-0.43-1.06-0.46-1.62l3-0.48c0.07,0.68,0.33,1.24,0.79,1.67c0.46,0.43,1.13,0.65,2.01,0.65c0.36,0,0.7-0.03,1.01-0.1
			c0.31-0.07,0.59-0.18,0.82-0.33c0.23-0.15,0.42-0.34,0.55-0.57s0.2-0.5,0.2-0.82c0-0.52-0.22-0.92-0.65-1.2s-1.2-0.51-2.29-0.68
			c-0.73-0.12-1.41-0.27-2.04-0.46s-1.17-0.44-1.63-0.77c-0.46-0.33-0.82-0.73-1.08-1.22c-0.26-0.49-0.39-1.08-0.39-1.79
			c0-0.71,0.13-1.32,0.4-1.84c0.27-0.52,0.64-0.96,1.12-1.31c0.48-0.35,1.05-0.62,1.7-0.79c0.65-0.17,1.37-0.26,2.14-0.26
			c0.72,0,1.39,0.08,2.02,0.25c0.63,0.17,1.18,0.41,1.67,0.74c0.49,0.33,0.89,0.73,1.21,1.21c0.32,0.48,0.54,1.03,0.66,1.64
			l-3.04,0.66c-0.11-0.64-0.38-1.15-0.82-1.52c-0.44-0.37-1.03-0.56-1.78-0.56c-0.76,0-1.32,0.14-1.69,0.42
			C219.47,237,219.29,237.37,219.29,237.84z"/>
	</g>
</g>
<g id="LINE_TWO">
</g>
<g id="ICON">
	<g>
		<g>
			<path fill="#FFFFFF" d="M224.76,198.32c-6.68,0.24-13.66-2.17-20.58-4.74c-12.13-4.51-23.8-10.09-35.07-16.38
				c-11.11-6.2-22.72-10.87-35.04-14.01c-7.55-1.92-14.95-4.46-21.83-8.2c-2.3-1.25-4.54-2.7-6.55-4.37
				c-6.38-5.27-7.82-11.84-4.51-19.48c1.71-3.95,4.43-7.2,7.22-10.38c2.82-3.22,5.04-6.7,6.41-10.82c1.66-5.01,4.03-9.72,7.35-13.89
				c4.8-6.01,9.56-6.73,15.69-2.08c3.14,2.38,6.13,5,8.94,7.77c3.99,3.95,8.9,5.24,14.24,5.98c3.61,0.49,6.12-0.46,8.62-3.11
				c2.72-2.88,5.95-5.33,9.18-7.67c1.78-1.29,3.96-2.11,6.07-2.84c2.78-0.97,5.17-0.02,6.78,2.37c1.35,2.02,2.59,4.15,3.55,6.38
				c1.74,4.05,3.42,8.15,4.8,12.33c3.57,10.76,9.14,20.34,16.37,29.04c3.88,4.67,7.65,9.43,12.42,13.26
				c3.2,2.56,6.68,4.02,10.93,4.22c6.85,0.31,12.67,3.24,17.24,8.46c5.77,6.59,3.77,14.19-0.9,19.07
				c-3.67,3.83-8.41,5.75-13.43,7.05C237.09,197.72,231.38,198.2,224.76,198.32z M208.85,143.9c-2.84,1.89-5.75,3.86-8.69,5.79
				c-1.53,1-3.19,0.72-4.11-0.62c-0.97-1.41-0.6-3.05,1-4.13c2.49-1.69,5-3.35,7.5-5.02c0.33-0.22,0.64-0.48,0.86-0.66
				c-1.63-2.63-3.19-5.12-4.78-7.69c-0.39,0.24-0.8,0.46-1.18,0.72c-1.73,1.14-3.43,2.31-5.17,3.43c-1.05,0.67-2.15,0.64-3.18-0.07
				c-0.99-0.69-1.46-1.73-1.1-2.83c0.25-0.78,0.87-1.56,1.54-2.05c2.2-1.6,4.49-3.06,6.75-4.57c-1.17-2.95-2.29-5.77-3.45-8.71
				c-1.95,1.3-3.82,2.54-5.7,3.78c-1.8,1.18-3.48,0.98-4.43-0.53c-0.93-1.47-0.47-3.02,1.25-4.19c2.26-1.52,4.52-3.03,6.84-4.58
				c-0.51-1.32-0.94-2.61-1.49-3.85c-1.09-2.44-2.25-4.85-3.37-7.28c-0.62-1.34-1.58-1.66-2.83-0.93c-1.74,1.01-3.62,1.88-5.14,3.16
				c-3.54,3.01-6.94,6.21-10.32,9.41c-0.82,0.78-1.59,1.16-2.71,1.08c-2.39-0.16-4.8-0.12-7.18-0.35
				c-6.03-0.57-11.56-2.34-16.08-6.67c-2.71-2.6-5.55-5.09-8.47-7.46c-4.3-3.49-5.86-3.23-9.13,1.22c-2.92,3.98-4.92,8.43-6.5,13.07
				c-0.98,2.88-2.38,5.52-4.27,7.89c-1.46,1.84-2.98,3.63-4.55,5.53c0.48,0.64,0.86,1.4,1.45,1.88c2.01,1.61,3.91,3.49,6.19,4.59
				c4.42,2.15,8.97,4.09,13.62,5.67c17.76,6.01,13.95,3.46,33.04,16.21c10.2,6.82,20.44,13.58,31.3,19.33
				c10.36,5.49,20.99,10.3,32.73,12.07c8.92,1.35,17.33,0.2,24.87-5.12c0.3-0.21,0.51-0.63,0.63-1c0.76-2.48-0.22-4.53-1.76-6.36
				c-3.73-4.44-8.62-6.63-14.32-6.81c-3.61-0.11-6.82-1.17-9.83-3.01c-4.26-2.6-7.83-6.02-11.07-9.77
				C214.62,151.06,211.8,147.47,208.85,143.9z M107.3,131.86c-3.51,6.07-2.57,10.69,1.86,14.17c2.49,1.96,5.21,3.83,8.12,5
				c6.51,2.63,13.1,5.24,19.87,7.06c11.68,3.14,22.76,7.5,33.34,13.38c11.04,6.14,22.43,11.62,34.23,16.21
				c5.61,2.18,11.26,4.24,17.31,4.8c2.06,0.19,4.15,0.03,6.23,0.03c-3.65-1.05-7.31-1.81-10.88-2.89
				c-11.68-3.53-22.52-8.97-32.85-15.35c-10.76-6.64-21.3-13.64-31.89-20.54c-4.36-2.84-8.95-5.12-13.94-6.61
				c-3.77-1.13-7.53-2.34-11.24-3.67C120.09,140.82,112.81,137.98,107.3,131.86z"/>
		</g>
		
			<line stroke="#FFFFFF" stroke-width="3" stroke-linecap="round" stroke-miterlimit="10" x1="154.47" y1="192.58" x2="99.46" y2="192.58"/>
		
			<line stroke="#FFFFFF" stroke-width="3" stroke-linecap="round" stroke-miterlimit="10" x1="145.74" y1="182.7" x2="99.46" y2="182.7"/>
		
			<line stroke="#FFFFFF" stroke-width="3" stroke-linecap="round" stroke-miterlimit="10" x1="137" y1="172.82" x2="99.46" y2="172.82"/>
		<path fill="none" stroke="#FFFFFF" stroke-width="3" stroke-linecap="round" stroke-miterlimit="10" d="M122.29,100.29
			c0,0,15.77,6,15.77,19.16c0,8.49-15.77,17.9-15.77,17.9"/>
		<path fill="none" stroke="#FFFFFF" stroke-width="3" stroke-linecap="round" stroke-miterlimit="10" d="M144.06,121.58
			c0,0,31.53-9.41,43.06,27.06c4.13,13.07,5.56,18.64,5.56,18.64"/>
	</g>
</g>
</svg>
