<?xml version="1.0" encoding="utf-8"?>
<!-- Generator: Adobe Illustrator 23.1.0, SVG Export Plug-In . SVG Version: 6.00 Build 0)  -->
<svg version="1.1" xmlns="http://www.w3.org/2000/svg" xmlns:xlink="http://www.w3.org/1999/xlink" x="0px" y="0px"
	 viewBox="0 0 360 360" enable-background="new 0 0 360 360" xml:space="preserve">
<g id="BACKGROUND">
	<rect x="0" y="0" fill="#FFFFFF" width="360" height="360"/>
</g>
<g id="REF" display="none">
	
		<rect y="90.27" display="inline" fill="none" stroke="#000000" stroke-width="0.25" stroke-miterlimit="10" width="360" height="108"/>
	
		<rect x="360" y="90.27" display="inline" fill="none" stroke="#FFFFFF" stroke-width="0.25" stroke-miterlimit="10" width="360" height="108"/>
	
		<line display="inline" fill="none" stroke="#000000" stroke-width="0.25" stroke-linecap="round" stroke-miterlimit="10" x1="180" y1="0.06" x2="180" y2="359.94"/>
</g>
<g id="LINE_ONE">
	<g>
		<path d="M109.61,234.16h3v14h-3V234.16z"/>
		<path d="M117.89,234.16h3.12c0.81,1.32,1.59,2.57,2.32,3.76c0.44,0.71,0.8,1.29,1.08,1.75c0.28,0.46,0.56,0.92,0.84,1.37
			c0.28,0.45,0.55,0.88,0.8,1.29c0.25,0.41,0.47,0.75,0.64,1.03h0.06v-9.2h2.84v14h-3.12c-0.8-1.29-1.56-2.53-2.28-3.7
			c-0.43-0.69-0.78-1.27-1.07-1.73s-0.57-0.92-0.85-1.38c-0.28-0.46-0.55-0.9-0.81-1.32c-0.26-0.42-0.48-0.78-0.67-1.07h-0.06v9.2
			h-2.84V234.16z"/>
		<path d="M134.87,234.16h3.12c0.81,1.32,1.59,2.57,2.32,3.76c0.44,0.71,0.8,1.29,1.08,1.75c0.28,0.46,0.56,0.92,0.84,1.37
			c0.28,0.45,0.55,0.88,0.8,1.29c0.25,0.41,0.47,0.75,0.64,1.03h0.06v-9.2h2.84v14h-3.12c-0.8-1.29-1.56-2.53-2.28-3.7
			c-0.43-0.69-0.78-1.27-1.07-1.73s-0.57-0.92-0.85-1.38c-0.28-0.46-0.55-0.9-0.81-1.32c-0.26-0.42-0.48-0.78-0.67-1.07h-0.06v9.2
			h-2.84V234.16z"/>
		<path d="M151.27,241.16c0-1.13,0.16-2.15,0.49-3.05c0.33-0.9,0.79-1.66,1.38-2.29s1.31-1.11,2.15-1.44c0.84-0.33,1.77-0.5,2.8-0.5
			c1.03,0,1.96,0.17,2.8,0.5c0.84,0.33,1.56,0.81,2.15,1.44s1.05,1.39,1.38,2.29c0.33,0.9,0.49,1.92,0.49,3.05
			c0,1.13-0.16,2.15-0.49,3.05c-0.33,0.9-0.79,1.66-1.38,2.29c-0.59,0.63-1.31,1.11-2.15,1.44s-1.77,0.5-2.8,0.5
			c-1.03,0-1.96-0.17-2.8-0.5c-0.84-0.33-1.56-0.81-2.15-1.44c-0.59-0.63-1.05-1.39-1.38-2.29
			C151.43,243.31,151.27,242.29,151.27,241.16z M154.37,241.16c0,0.71,0.08,1.36,0.23,1.95c0.15,0.59,0.38,1.1,0.69,1.52
			s0.69,0.75,1.16,0.98c0.47,0.23,1.01,0.35,1.64,0.35c0.63,0,1.17-0.12,1.64-0.35s0.85-0.56,1.16-0.98s0.54-0.93,0.69-1.52
			c0.15-0.59,0.23-1.24,0.23-1.95s-0.08-1.36-0.23-1.95c-0.15-0.59-0.38-1.1-0.69-1.52s-0.69-0.75-1.16-0.98s-1.01-0.35-1.64-0.35
			c-0.63,0-1.17,0.12-1.64,0.35c-0.47,0.23-0.85,0.56-1.16,0.98s-0.54,0.93-0.69,1.52C154.45,239.8,154.37,240.45,154.37,241.16z"/>
		<path d="M171.17,234.16c0.49,1.4,0.96,2.75,1.4,4.06c0.27,0.76,0.49,1.4,0.66,1.92c0.17,0.52,0.35,1.04,0.52,1.57
			c0.17,0.53,0.34,1.04,0.5,1.53s0.3,0.93,0.42,1.32h0.04c0.12-0.39,0.26-0.83,0.42-1.33s0.33-1.03,0.51-1.59
			c0.18-0.56,0.37-1.13,0.57-1.72c0.2-0.59,0.39-1.15,0.58-1.7c0.44-1.31,0.91-2.66,1.4-4.06h3.08l-5.16,14h-3.06l-5.1-14H171.17z"
			/>
		<path d="M195.85,248.16h-3.1l-1.12-3.24h-5.02l-1.12,3.24h-2.94l5.04-14h3.22L195.85,248.16z M189.09,237.44
			c-0.03,0.11-0.07,0.26-0.14,0.47c-0.07,0.21-0.14,0.44-0.22,0.7c-0.08,0.26-0.17,0.54-0.27,0.84s-0.2,0.59-0.29,0.87
			c-0.23,0.69-0.47,1.43-0.74,2.22h3.38c-0.27-0.79-0.51-1.53-0.74-2.22c-0.15-0.4-0.26-0.73-0.35-0.99s-0.17-0.51-0.24-0.75
			c-0.07-0.24-0.14-0.46-0.21-0.67c-0.07-0.21-0.11-0.36-0.14-0.47H189.09z"/>
		<path d="M197.33,234.16h11.1v2.5h-4.04v11.5h-3.02v-11.5h-4.04V234.16z"/>
		<path d="M212.65,234.16h3v14h-3V234.16z"/>
		<path d="M220.35,241.16c0-1.13,0.16-2.15,0.49-3.05c0.33-0.9,0.79-1.66,1.38-2.29c0.59-0.63,1.31-1.11,2.15-1.44
			c0.84-0.33,1.77-0.5,2.8-0.5c1.03,0,1.96,0.17,2.8,0.5c0.84,0.33,1.56,0.81,2.15,1.44c0.59,0.63,1.05,1.39,1.38,2.29
			c0.33,0.9,0.49,1.92,0.49,3.05c0,1.13-0.16,2.15-0.49,3.05c-0.33,0.9-0.79,1.66-1.38,2.29c-0.59,0.63-1.31,1.11-2.15,1.44
			c-0.84,0.33-1.77,0.5-2.8,0.5c-1.03,0-1.96-0.17-2.8-0.5s-1.56-0.81-2.15-1.44c-0.59-0.63-1.05-1.39-1.38-2.29
			C220.51,243.31,220.35,242.29,220.35,241.16z M223.45,241.16c0,0.71,0.08,1.36,0.23,1.95c0.15,0.59,0.38,1.1,0.69,1.52
			s0.69,0.75,1.16,0.98s1.01,0.35,1.64,0.35s1.17-0.12,1.64-0.35c0.47-0.23,0.85-0.56,1.16-0.98c0.31-0.42,0.54-0.93,0.69-1.52
			c0.15-0.59,0.23-1.24,0.23-1.95s-0.08-1.36-0.23-1.95c-0.15-0.59-0.38-1.1-0.69-1.52c-0.31-0.42-0.69-0.75-1.16-0.98
			c-0.47-0.23-1.01-0.35-1.64-0.35s-1.17,0.12-1.64,0.35s-0.85,0.56-1.16,0.98s-0.54,0.93-0.69,1.52
			C223.53,239.8,223.45,240.45,223.45,241.16z"/>
		<path d="M238.69,234.16h3.12c0.81,1.32,1.59,2.57,2.32,3.76c0.44,0.71,0.8,1.29,1.08,1.75s0.56,0.92,0.84,1.37s0.55,0.88,0.8,1.29
			c0.25,0.41,0.47,0.75,0.64,1.03h0.06v-9.2h2.84v14h-3.12c-0.8-1.29-1.56-2.53-2.28-3.7c-0.43-0.69-0.78-1.27-1.07-1.73
			s-0.57-0.92-0.85-1.38c-0.28-0.46-0.55-0.9-0.81-1.32s-0.48-0.78-0.67-1.07h-0.06v9.2h-2.84V234.16z"/>
	</g>
</g>
<g id="LINE_TWO">
</g>
<g id="ICON">
	<g>
		<path fill="none" stroke="#000000" stroke-miterlimit="10" d="M182.02,177.86c-1.83,0-3.52,0-5.36,0c0-11.15,0-22.27,0-33.52
			c1.69,0,3.47,0,5.36,0C182.02,155.45,182.02,166.57,182.02,177.86z"/>
		<path fill="none" stroke="#000000" stroke-miterlimit="10" d="M182.02,144.23c0.33-1.59,0.61-2.97,0.92-4.35
			c0.44-2.01,2.05-2.36,3.69-2.38c1.39-0.01,2.33,0.87,2.94,2.14c0.88,1.84-0.47,4.24-2.78,4.55
			C185.35,144.39,183.87,144.23,182.02,144.23z"/>
		<path fill="none" stroke="#000000" stroke-miterlimit="10" d="M176.65,144.35c-1.98,0-3.41,0.11-4.82-0.03
			c-1.65-0.16-2.88-1.55-3.03-3.14c-0.13-1.44,0.8-3.11,1.98-3.52c1.71-0.6,3.53-0.13,4.29,1.48
			C175.8,140.68,176.09,142.42,176.65,144.35z"/>
		<path fill="none" stroke="#000000" stroke-width="3" stroke-miterlimit="10" d="M179.31,179.16c-3.34,0-6.68,0.01-10.02,0
			c-1.6,0-2.12-0.49-2.22-2.02c-0.43-6.63-2.79-12.67-5.93-18.51c-2.15-3.99-4.44-7.95-6.05-12.15
			c-5.72-14.91,2.7-29.92,18.51-33.43c14.7-3.26,29.32,6.31,31.49,20.71c0.87,5.78-0.53,11.25-3.15,16.43
			c-2.1,4.15-4.38,8.22-6.47,12.38c-2.34,4.65-3.64,9.59-3.99,14.76c-0.09,1.29-0.65,1.81-2.03,1.81
			C186.07,179.17,182.69,179.16,179.31,179.16z"/>
		<path d="M179.14,186.29c-3.17,0-6.34,0.01-9.5,0c-1.43,0-2.23-0.62-2.19-1.68c0.04-1.02,0.81-1.64,2.15-1.64
			c6.46-0.01,12.92-0.01,19.39,0c1.32,0,2.11,0.64,2.13,1.66c0.02,1.01-0.77,1.66-2.09,1.66
			C185.73,186.3,182.44,186.29,179.14,186.29z"/>
		<path d="M179.31,189.06c2.96,0,5.92-0.01,8.87,0c1.37,0,2.08,0.59,2.06,1.66c-0.02,1.05-0.76,1.64-2.12,1.65
			c-5.87,0.01-11.75,0.01-17.62,0c-1.37,0-2.1-0.59-2.13-1.63c-0.03-1.1,0.7-1.67,2.18-1.67
			C173.48,189.06,176.4,189.06,179.31,189.06z"/>
		<path d="M177.6,97.67c0-1.78-0.02-3.56,0.01-5.33c0.02-1.38,0.62-2.08,1.7-2.07c1.06,0.01,1.65,0.71,1.66,2.11
			c0.02,3.56,0.02,7.11,0,10.67c-0.01,1.39-0.62,2.08-1.7,2.07c-1.06-0.01-1.63-0.71-1.65-2.11
			C177.58,101.23,177.6,99.45,177.6,97.67z"/>
		<path d="M161.5,109.85c-0.26-0.21-0.87-0.5-1.16-0.99c-1.92-3.23-3.79-6.49-5.64-9.76c-0.57-1.01-0.33-1.92,0.56-2.4
			c0.97-0.53,1.75-0.17,2.26,0.7c1.94,3.32,3.87,6.64,5.74,9.99C163.89,108.52,163.07,109.83,161.5,109.85z"/>
		<path d="M194.88,108.36c0.29-0.63,0.44-1.02,0.64-1.38c1.76-3.08,3.54-6.15,5.32-9.22c0.72-1.24,1.52-1.58,2.44-1.08
			c1,0.54,1.16,1.44,0.43,2.71c-1.8,3.15-3.61,6.3-5.43,9.44c-0.44,0.76-1.11,1.3-1.98,0.89
			C195.72,109.44,195.33,108.81,194.88,108.36z"/>
		<path d="M150.67,120.6c0.04,1.71-1.29,2.45-2.59,1.73c-2.13-1.19-4.23-2.44-6.35-3.67c-1.13-0.65-2.27-1.29-3.39-1.96
			c-0.87-0.53-1.22-1.28-0.76-2.25c0.43-0.89,1.42-1.18,2.37-0.64c3.3,1.88,6.58,3.77,9.84,5.72
			C150.23,119.79,150.49,120.37,150.67,120.6z"/>
		<path d="M209.28,122.82c-0.42-0.41-1.17-0.81-1.24-1.29c-0.08-0.62,0.21-1.56,0.67-1.93c1.08-0.85,2.36-1.45,3.57-2.15
			c2.04-1.18,4.08-2.37,6.14-3.54c1.1-0.62,1.98-0.45,2.52,0.44c0.53,0.88,0.24,1.78-0.85,2.42c-3.17,1.85-6.34,3.68-9.52,5.51
			C210.25,122.46,209.89,122.57,209.28,122.82z"/>
		<path d="M221.18,161.43c-0.01,1.59-1.28,2.4-2.44,1.76c-3.38-1.89-6.73-3.85-10.06-5.81c-0.86-0.51-1.03-1.35-0.58-2.2
			c0.46-0.88,1.32-1.14,2.16-0.67c3.41,1.92,6.8,3.89,10.16,5.9C220.83,160.64,221.03,161.23,221.18,161.43z"/>
		<path d="M138.84,163.55c-0.42-0.35-1.08-0.66-1.26-1.14c-0.18-0.49,0.04-1.19,0.25-1.73c0.11-0.29,0.57-0.47,0.9-0.66
			c3.02-1.76,6.04-3.51,9.07-5.26c1.16-0.67,2.14-0.53,2.65,0.35c0.52,0.89,0.18,1.85-0.94,2.51c-3.09,1.8-6.19,3.59-9.3,5.37
			C139.86,163.19,139.45,163.3,138.84,163.55z"/>
		<path d="M138.64,136.84c1.82,0,3.64,0.01,5.46-0.01c1.09-0.01,1.81,0.42,1.92,1.56c0.09,1-0.69,1.74-1.89,1.75
			c-3.68,0.02-7.36,0.02-11.04,0c-1.21-0.01-2.02-0.73-1.92-1.72c0.11-1.1,0.77-1.61,1.89-1.6
			C134.91,136.86,136.78,136.84,138.64,136.84z"/>
		<path d="M220.03,136.84c1.82,0,3.64,0.02,5.46-0.01c1.11-0.02,1.8,0.47,1.91,1.58c0.1,0.99-0.7,1.72-1.91,1.73
			c-3.68,0.02-7.36,0.02-11.04,0c-1.21-0.01-1.98-0.72-1.9-1.73c0.09-1.14,0.8-1.59,1.9-1.58
			C216.31,136.85,218.17,136.84,220.03,136.84z"/>
		<path d="M179.22,197.9c-1.56,0-3.13,0.02-4.69-0.01c-1.19-0.02-1.85-0.63-1.85-1.63c0-0.96,0.7-1.66,1.84-1.67
			c3.17-0.03,6.34-0.03,9.51,0c1.14,0.01,1.85,0.7,1.85,1.66c0,1-0.65,1.62-1.84,1.64C182.44,197.92,180.83,197.9,179.22,197.9z"/>
	</g>
</g>
</svg>
