<?xml version="1.0" encoding="utf-8"?>
<!-- Generator: Adobe Illustrator 23.1.0, SVG Export Plug-In . SVG Version: 6.00 Build 0)  -->
<svg version="1.1" xmlns="http://www.w3.org/2000/svg" xmlns:xlink="http://www.w3.org/1999/xlink" x="0px" y="0px"
	 viewBox="0 0 360 360" enable-background="new 0 0 360 360" xml:space="preserve">
<g id="BACKGROUND">
	<rect x="360" y="0" width="360" height="360"/>
	<rect y="0" fill="#FFFFFF" width="360" height="360"/>
</g>
<g id="REF" display="none">
	
		<rect y="90.27" display="inline" fill="none" stroke="#000000" stroke-width="0.25" stroke-miterlimit="10" width="360" height="108"/>
	
		<rect x="360" y="90.27" display="inline" fill="none" stroke="#FFFFFF" stroke-width="0.25" stroke-miterlimit="10" width="360" height="108"/>
	
		<line display="inline" fill="none" stroke="#000000" stroke-width="0.25" stroke-linecap="round" stroke-miterlimit="10" x1="180" y1="0.21" x2="180" y2="360.08"/>
</g>
<g id="LINE_ONE">
	<g>
		<path d="M142,248.16h-3.1l-1.12-3.24h-5.02l-1.12,3.24h-2.94l5.04-14h3.22L142,248.16z M135.24,237.44
			c-0.03,0.11-0.07,0.26-0.14,0.47s-0.14,0.44-0.22,0.7s-0.17,0.54-0.27,0.84c-0.1,0.3-0.2,0.59-0.29,0.87
			c-0.23,0.69-0.47,1.43-0.74,2.22h3.38c-0.27-0.79-0.51-1.53-0.74-2.22c-0.15-0.4-0.26-0.73-0.35-0.99
			c-0.09-0.26-0.17-0.51-0.24-0.75s-0.14-0.46-0.21-0.67c-0.07-0.21-0.11-0.36-0.14-0.47H135.24z"/>
		<path d="M143.48,234.16h11.1v2.5h-4.04v11.5h-3.02v-11.5h-4.04V234.16z"/>
		<path d="M158.14,234.16h11.1v2.5h-4.04v11.5h-3.02v-11.5h-4.04V234.16z"/>
		<path d="M183.94,238.42c0,1.04-0.24,1.89-0.71,2.54s-1.12,1.14-1.95,1.46l3.22,5.74h-3.3l-2.9-5.3h-1.86v5.3h-2.98v-14h5.12
			c0.81,0,1.55,0.08,2.21,0.25c0.66,0.17,1.22,0.42,1.69,0.77c0.47,0.35,0.83,0.79,1.08,1.32
			C183.81,237.03,183.94,237.67,183.94,238.42z M180.86,238.44c0-0.68-0.22-1.15-0.65-1.41c-0.43-0.26-1.09-0.39-1.97-0.39h-1.8
			v3.78h1.8c0.88,0,1.54-0.15,1.97-0.45C180.64,239.67,180.86,239.16,180.86,238.44z"/>
		<path d="M201.14,248.16h-3.1l-1.12-3.24h-5.02l-1.12,3.24h-2.94l5.04-14h3.22L201.14,248.16z M194.38,237.44
			c-0.03,0.11-0.07,0.26-0.14,0.47c-0.07,0.21-0.14,0.44-0.22,0.7c-0.08,0.26-0.17,0.54-0.27,0.84s-0.2,0.59-0.29,0.87
			c-0.23,0.69-0.47,1.43-0.74,2.22h3.38c-0.27-0.79-0.51-1.53-0.74-2.22c-0.15-0.4-0.26-0.73-0.35-0.99s-0.17-0.51-0.24-0.75
			c-0.07-0.24-0.14-0.46-0.21-0.67c-0.07-0.21-0.11-0.36-0.14-0.47H194.38z"/>
		<path d="M204,241.16c0-1.15,0.16-2.17,0.48-3.07c0.32-0.9,0.78-1.66,1.37-2.29c0.59-0.63,1.31-1.1,2.16-1.43
			c0.85-0.33,1.8-0.49,2.85-0.49c1.49,0,2.75,0.33,3.76,0.98c1.01,0.65,1.73,1.65,2.16,2.98l-2.92,1.02
			c-0.24-0.79-0.6-1.4-1.08-1.83c-0.48-0.43-1.14-0.65-1.98-0.65c-0.61,0-1.15,0.12-1.62,0.36s-0.85,0.57-1.16,0.99
			s-0.54,0.92-0.69,1.51c-0.15,0.59-0.23,1.23-0.23,1.92s0.08,1.33,0.23,1.91c0.15,0.58,0.38,1.08,0.69,1.51s0.69,0.76,1.16,1
			s1.01,0.36,1.64,0.36c0.77,0,1.4-0.19,1.89-0.58c0.49-0.39,0.86-0.97,1.11-1.76l2.88,1.02c-0.47,1.19-1.19,2.12-2.16,2.8
			c-0.97,0.68-2.23,1.02-3.76,1.02c-1.03,0-1.96-0.16-2.79-0.49c-0.83-0.33-1.55-0.8-2.14-1.42c-0.59-0.62-1.05-1.38-1.37-2.29
			C204.16,243.33,204,242.31,204,241.16z"/>
		<path d="M220.12,234.16h11.1v2.5h-4.04v11.5h-3.02v-11.5h-4.04V234.16z"/>
	</g>
</g>
<g id="LINE_TWO">
	<g>
		<path d="M137.68,255.95h11.1v2.5h-4.04v11.5h-3.02v-11.5h-4.04V255.95z"/>
		<path d="M163.56,269.95h-3.1l-1.12-3.24h-5.02l-1.12,3.24h-2.94l5.04-14h3.22L163.56,269.95z M156.8,259.23
			c-0.03,0.11-0.07,0.26-0.14,0.47c-0.07,0.21-0.14,0.44-0.22,0.7s-0.17,0.54-0.27,0.84c-0.1,0.3-0.2,0.59-0.29,0.87
			c-0.23,0.69-0.47,1.43-0.74,2.22h3.38c-0.27-0.79-0.51-1.53-0.74-2.22c-0.15-0.4-0.26-0.73-0.35-0.99s-0.17-0.51-0.24-0.75
			s-0.14-0.46-0.21-0.67s-0.11-0.36-0.14-0.47H156.8z"/>
		<path d="M167.7,255.95h3v11.5h6.12v2.5h-9.12V255.95z"/>
		<path d="M181.02,269.95v-14h9.54v2.48h-6.58v3.08h6.12v2.48h-6.12v3.48h6.68v2.48H181.02z"/>
		<path d="M195.3,255.95h3.12c0.81,1.32,1.59,2.57,2.32,3.76c0.44,0.71,0.8,1.29,1.08,1.75s0.56,0.92,0.84,1.37s0.55,0.88,0.8,1.29
			c0.25,0.41,0.47,0.75,0.64,1.03h0.06v-9.2H207v14h-3.12c-0.8-1.29-1.56-2.53-2.28-3.7c-0.43-0.69-0.78-1.27-1.07-1.73
			s-0.57-0.92-0.85-1.38c-0.28-0.46-0.55-0.9-0.81-1.32s-0.48-0.78-0.67-1.07h-0.06v9.2h-2.84V255.95z"/>
		<path d="M211.22,255.95h11.1v2.5h-4.04v11.5h-3.02v-11.5h-4.04V255.95z"/>
	</g>
</g>
<g id="ICON">
	<g>
		<g>
			<path fill="none" stroke="#000000" stroke-miterlimit="10" d="M205.63,153.36c0,5.5-4.5,10.01-10.01,10.01h-31.31
				c-5.5,0-10.01-4.5-10.01-10.01v-18.99c0-5.5,4.5-10.01,10.01-10.01h31.31c5.5,0,10.01,4.5,10.01,10.01V153.36z"/>
		</g>
		<circle fill="none" stroke="#000000" stroke-width="3" stroke-miterlimit="10" cx="179.9" cy="143.64" r="39.02"/>
		<polygon fill="#FFFFFF" stroke="#000000" stroke-miterlimit="10" points="173.93,158.28 172.63,159.05 171.75,159.97 
			171.59,160.38 171.59,163.37 160.96,163.37 160.96,167.48 161.39,168.21 161.88,168.7 162.29,169.22 162.48,169.46 162.48,171.8 
			171.32,171.8 171.32,170.88 171.97,170.2 173.03,169.41 174.39,168.27 174.83,167.5 175.05,166.8 175.05,158.28 175.05,158.01 
			174.56,158.01 		"/>
		
			<rect x="161.2" y="171.8" fill="#FFFFFF" stroke="#000000" stroke-width="2" stroke-miterlimit="10" width="11.91" height="25.98"/>
		<polygon fill="#FFFFFF" stroke="#000000" stroke-miterlimit="10" points="186.06,158.28 187.37,159.05 188.24,159.97 
			188.4,160.38 188.4,163.37 199.04,163.37 199.04,167.48 198.6,168.21 198.11,168.7 197.7,169.22 197.51,169.46 197.51,171.8 
			188.67,171.8 188.67,170.88 188.02,170.2 186.96,169.41 185.6,168.27 185.16,167.5 184.95,166.8 184.95,158.28 184.95,158.01 
			185.44,158.01 		"/>
		
			<rect x="186.88" y="171.8" transform="matrix(-1 -4.534696e-11 4.534696e-11 -1 385.6691 369.5801)" fill="#FFFFFF" stroke="#000000" stroke-width="2" stroke-miterlimit="10" width="11.91" height="25.98"/>
		<g>
			<path d="M171.5,130.95h1.18l-1.13,11.33h-1.49l-1.49-9.31l-1.33,9.31h-1.55l-1.41-11.33h1.31l0.92,9.32l1.41-9.32h1.28l1.57,9.32
				L171.5,130.95z"/>
			<path d="M174.46,130.95h3.77v1.2h-2.46v3.9h2.22v1.2h-2.22v3.84h2.46v1.2h-3.77V130.95z"/>
			<path d="M180.24,130.79h1.31l-0.99,3.4h-0.81L180.24,130.79z"/>
			<path d="M185.69,137.21h-1.15v5.07h-1.31v-11.33h2.41c0.36,0,0.68,0.05,0.98,0.14s0.55,0.25,0.76,0.49
				c0.21,0.23,0.37,0.55,0.49,0.95s0.17,0.91,0.17,1.52c0,0.7-0.09,1.3-0.27,1.79s-0.46,0.86-0.85,1.09l1.38,5.36h-1.39
				L185.69,137.21z M184.54,136.08h1.15c0.39,0,0.65-0.16,0.79-0.49c0.13-0.32,0.2-0.84,0.2-1.55c0-0.38-0.02-0.69-0.06-0.95
				c-0.04-0.25-0.1-0.46-0.2-0.61c-0.1-0.15-0.22-0.26-0.38-0.32c-0.16-0.06-0.35-0.09-0.59-0.09h-0.91V136.08z"/>
			<path d="M190.06,130.95h3.77v1.2h-2.46v3.9h2.22v1.2h-2.22v3.84h2.46v1.2h-3.77V130.95z"/>
		</g>
		<g>
			<path d="M164.99,150.5h-2.4v5.07h-1.31v-11.33h1.31v5.07h2.4v-5.07h1.31v11.33h-1.31V150.5z"/>
			<path d="M168.66,144.24h1.31v11.33h-1.31V144.24z"/>
			<path d="M174.79,150.5h-1.15v5.07h-1.31v-11.33h2.41c0.36,0,0.68,0.05,0.98,0.14s0.55,0.25,0.76,0.49
				c0.21,0.23,0.37,0.55,0.49,0.95s0.17,0.91,0.17,1.52c0,0.7-0.09,1.3-0.27,1.79s-0.46,0.86-0.85,1.09l1.38,5.36h-1.39
				L174.79,150.5z M173.64,149.37h1.15c0.39,0,0.65-0.16,0.79-0.49c0.13-0.32,0.2-0.84,0.2-1.55c0-0.38-0.02-0.69-0.06-0.95
				c-0.04-0.25-0.1-0.46-0.2-0.61c-0.1-0.15-0.22-0.26-0.38-0.32c-0.16-0.06-0.35-0.09-0.59-0.09h-0.91V149.37z"/>
			<path d="M179.16,144.24h1.31v11.33h-1.31V144.24z"/>
			<path d="M184.13,144.24l2.69,8.67c-0.06-0.88-0.1-1.63-0.1-2.25v-6.43h1.18v11.33h-1.21l-2.77-8.71
				c0.01,0.15,0.02,0.33,0.04,0.54c0.02,0.21,0.03,0.43,0.04,0.65c0.01,0.22,0.02,0.43,0.02,0.63c0,0.2,0.01,0.35,0.01,0.46v6.42
				h-1.2v-11.33H184.13z"/>
			<path d="M195.12,150.32v5.24h-0.89l-0.24-0.96c-0.18,0.43-0.42,0.73-0.7,0.88c-0.28,0.16-0.55,0.24-0.81,0.24
				c-0.31,0-0.62-0.07-0.93-0.19c-0.31-0.13-0.59-0.4-0.84-0.81c-0.25-0.41-0.46-1-0.62-1.76c-0.16-0.77-0.23-1.79-0.23-3.06
				c0-1.2,0.08-2.17,0.23-2.93c0.15-0.75,0.36-1.35,0.62-1.77c0.26-0.43,0.56-0.72,0.91-0.88c0.34-0.16,0.71-0.24,1.1-0.24
				c0.36,0,0.68,0.06,0.99,0.19c0.3,0.13,0.56,0.35,0.79,0.67c0.22,0.32,0.39,0.75,0.51,1.28c0.12,0.53,0.18,1.2,0.18,2h-1.42
				c0-1.01-0.08-1.75-0.24-2.22s-0.42-0.7-0.8-0.7c-0.22,0-0.41,0.06-0.59,0.19s-0.33,0.37-0.45,0.71
				c-0.12,0.35-0.22,0.82-0.28,1.41c-0.06,0.59-0.1,1.35-0.1,2.28c0,0.95,0.03,1.72,0.1,2.32s0.16,1.07,0.28,1.4
				c0.11,0.33,0.25,0.56,0.4,0.69s0.33,0.19,0.51,0.19c0.17,0,0.34-0.05,0.49-0.15c0.16-0.1,0.29-0.26,0.4-0.49
				c0.11-0.23,0.2-0.54,0.27-0.92c0.06-0.38,0.1-0.85,0.1-1.42h-1.15v-1.2H195.12z"/>
			<path d="M197.17,144.24h1.39l-0.24,8.4h-0.91L197.17,144.24z M197.26,153.98h1.23v1.59h-1.23V153.98z"/>
		</g>
		
			<line fill="none" stroke="#000000" stroke-width="2" stroke-linecap="round" stroke-miterlimit="10" x1="185.62" y1="99.27" x2="186.97" y2="86.93"/>
		
			<line fill="none" stroke="#000000" stroke-width="2" stroke-linecap="round" stroke-miterlimit="10" x1="197.84" y1="102.42" x2="202.34" y2="90.84"/>
		
			<line fill="none" stroke="#000000" stroke-width="2" stroke-linecap="round" stroke-miterlimit="10" x1="208.14" y1="108.44" x2="215.6" y2="98.51"/>
		
			<line fill="none" stroke="#000000" stroke-width="2" stroke-linecap="round" stroke-miterlimit="10" x1="215.92" y1="116.75" x2="225.56" y2="108.93"/>
		
			<line fill="none" stroke="#000000" stroke-width="2" stroke-linecap="round" stroke-miterlimit="10" x1="221.82" y1="127.4" x2="233.26" y2="122.57"/>
		
			<line fill="none" stroke="#000000" stroke-width="2" stroke-linecap="round" stroke-miterlimit="10" x1="224.36" y1="138.55" x2="236.74" y2="137.57"/>
		
			<line fill="none" stroke="#000000" stroke-width="2" stroke-linecap="round" stroke-miterlimit="10" x1="223.89" y1="150.25" x2="236.17" y2="152.07"/>
		
			<line fill="none" stroke="#000000" stroke-width="2" stroke-linecap="round" stroke-miterlimit="10" x1="221.15" y1="161.66" x2="232.48" y2="166.75"/>
		
			<line fill="none" stroke="#000000" stroke-width="2" stroke-linecap="round" stroke-miterlimit="10" x1="214.95" y1="171.35" x2="224.77" y2="178.95"/>
		
			<line fill="none" stroke="#000000" stroke-width="2" stroke-linecap="round" stroke-miterlimit="10" x1="207.06" y1="179.91" x2="214.74" y2="189.67"/>
		
			<line fill="none" stroke="#000000" stroke-width="2" stroke-linecap="round" stroke-miterlimit="10" x1="175.69" y1="99.3" x2="174.33" y2="86.95"/>
		
			<line fill="none" stroke="#000000" stroke-width="2" stroke-linecap="round" stroke-miterlimit="10" x1="163.46" y1="102.44" x2="158.96" y2="90.87"/>
		
			<line fill="none" stroke="#000000" stroke-width="2" stroke-linecap="round" stroke-miterlimit="10" x1="153.17" y1="108.46" x2="145.7" y2="98.54"/>
		
			<line fill="none" stroke="#000000" stroke-width="2" stroke-linecap="round" stroke-miterlimit="10" x1="145.39" y1="116.78" x2="135.74" y2="108.96"/>
		
			<line fill="none" stroke="#000000" stroke-width="2" stroke-linecap="round" stroke-miterlimit="10" x1="139.48" y1="127.43" x2="128.04" y2="122.6"/>
		
			<line fill="none" stroke="#000000" stroke-width="2" stroke-linecap="round" stroke-miterlimit="10" x1="136.94" y1="138.58" x2="124.57" y2="137.6"/>
		
			<line fill="none" stroke="#000000" stroke-width="2" stroke-linecap="round" stroke-miterlimit="10" x1="137.41" y1="150.28" x2="125.13" y2="152.1"/>
		
			<line fill="none" stroke="#000000" stroke-width="2" stroke-linecap="round" stroke-miterlimit="10" x1="140.15" y1="161.68" x2="128.82" y2="166.77"/>
		
			<line fill="none" stroke="#000000" stroke-width="2" stroke-linecap="round" stroke-miterlimit="10" x1="146.35" y1="171.38" x2="136.53" y2="178.98"/>
		
			<line fill="none" stroke="#000000" stroke-width="2" stroke-linecap="round" stroke-miterlimit="10" x1="154.24" y1="179.94" x2="146.57" y2="189.7"/>
	</g>
</g>
</svg>
