<?xml version="1.0" encoding="utf-8"?>
<!-- Generator: Adobe Illustrator 23.1.0, SVG Export Plug-In . SVG Version: 6.00 Build 0)  -->
<svg version="1.1" xmlns="http://www.w3.org/2000/svg" xmlns:xlink="http://www.w3.org/1999/xlink" x="0px" y="0px"
	 viewBox="0 0 360 360" style="enable-background:new 0 0 360 360;" xml:space="preserve">
<style type="text/css">
	.st0{fill:#FFFFFF;}
	.st1{fill:#0E6E39;}
	.st2{fill:#0C6E39;}
	.st3{fill:#4F497B;}
	.st4{fill:#216885;}
	.st5{fill:#F0492D;}
	.st6{fill:#EF3F25;}
	.st7{fill:#236886;}
	.st8{fill:#256887;}
	.st9{fill:#D2BF2D;}
	.st10{display:none;}
	.st11{display:inline;fill:none;stroke:#000000;stroke-width:0.25;stroke-miterlimit:10;}
	.st12{display:inline;fill:none;stroke:#FFFFFF;stroke-width:0.25;stroke-miterlimit:10;}
	.st13{display:inline;fill:none;stroke:#FFFFFF;stroke-width:0.25;stroke-linecap:round;stroke-miterlimit:10;}
	.st14{display:inline;fill:none;stroke:#000000;stroke-width:0.25;stroke-linecap:round;stroke-miterlimit:10;}
	.st15{fill:#4F4A7C;}
	.st16{fill:none;stroke:#FFFFFF;stroke-miterlimit:10;}
	.st17{stroke:#FFFFFF;stroke-miterlimit:10;}
	.st18{fill:none;stroke:#FFFFFF;stroke-width:3;stroke-miterlimit:10;}
	.st19{fill:none;stroke:#FFFFFF;stroke-linecap:round;stroke-miterlimit:10;}
	.st20{fill:none;stroke:#236886;stroke-width:5;stroke-miterlimit:10;}
	.st21{fill:none;stroke:#236886;stroke-width:5;stroke-linecap:round;stroke-miterlimit:10;}
	.st22{fill:none;stroke:#FFFFFF;stroke-width:5;stroke-miterlimit:10;}
	.st23{fill:none;stroke:#FFFFFF;stroke-width:5;stroke-linecap:round;stroke-miterlimit:10;}
	.st24{fill:none;stroke:#4F497B;stroke-width:3;stroke-miterlimit:10;}
	.st25{fill:none;stroke:#4F497B;stroke-miterlimit:10;}
	.st26{fill:#FFFFFF;stroke:#4F497B;stroke-miterlimit:10;}
	.st27{fill:#FFFFFF;stroke:#4F497B;stroke-width:2;stroke-miterlimit:10;}
	.st28{fill:none;stroke:#4F497B;stroke-width:2;stroke-linecap:round;stroke-miterlimit:10;}
	.st29{stroke:#FFFFFF;stroke-width:2;stroke-miterlimit:10;}
	.st30{fill:none;stroke:#FFFFFF;stroke-width:2;stroke-linecap:round;stroke-miterlimit:10;}
	.st31{fill:none;stroke:#0C6E39;stroke-width:3;stroke-miterlimit:10;}
	.st32{fill:none;stroke:#EF3F25;stroke-miterlimit:10;}
	.st33{fill:none;stroke:#EF3F25;stroke-width:3;stroke-miterlimit:10;}
	.st34{fill:none;stroke:#4F4A7C;stroke-width:3;stroke-miterlimit:10;}
	.st35{fill:none;stroke:#4F4A7C;stroke-width:5;stroke-linecap:round;stroke-miterlimit:10;}
	.st36{fill:none;stroke:#EF3F25;stroke-width:3;stroke-linecap:round;stroke-miterlimit:10;}
	.st37{fill:none;stroke:#EF3F25;stroke-width:5;stroke-linecap:round;stroke-miterlimit:10;}
	.st38{fill:none;stroke:#FFFFFF;stroke-width:3;stroke-linecap:round;stroke-miterlimit:10;}
	.st39{fill:none;stroke:#4F497B;stroke-width:5;stroke-linecap:round;stroke-miterlimit:10;}
	.st40{fill:#FFFFFF;stroke:#0E6E39;stroke-width:3;stroke-linejoin:round;stroke-miterlimit:10;}
	.st41{fill:none;stroke:#0E6E39;stroke-width:3;stroke-linejoin:round;stroke-miterlimit:10;}
	.st42{stroke:#FFFFFF;stroke-width:3;stroke-linejoin:round;stroke-miterlimit:10;}
	.st43{fill:none;stroke:#FFFFFF;stroke-width:3;stroke-linejoin:round;stroke-miterlimit:10;}
	.st44{fill:none;stroke:#0C6E39;stroke-width:5;stroke-linecap:round;stroke-miterlimit:10;}
	.st45{fill:none;stroke:#0C6E39;stroke-width:3;stroke-linecap:round;stroke-miterlimit:10;}
	.st46{fill:none;stroke:#0C6E39;stroke-linecap:round;stroke-linejoin:round;stroke-miterlimit:10;}
	.st47{fill:#0C6E39;stroke:#0C6E39;stroke-width:0;stroke-miterlimit:10;}
	.st48{fill:none;stroke:#0C6E39;stroke-width:3;stroke-linecap:round;stroke-linejoin:round;stroke-miterlimit:10;}
	.st49{fill:none;stroke:#0C6E39;stroke-linecap:round;stroke-miterlimit:10;}
	.st50{fill:none;stroke:#FFFFFF;stroke-linecap:round;stroke-linejoin:round;stroke-miterlimit:10;}
	.st51{fill:none;stroke:#FFFFFF;stroke-width:3;stroke-linecap:round;stroke-linejoin:round;stroke-miterlimit:10;}
	.st52{fill:none;stroke:#4F4A7C;stroke-miterlimit:10;}
	.st53{fill:#FFFFFF;stroke:#4F4A7C;stroke-width:2;stroke-miterlimit:10;}
	.st54{fill:#FFFFFF;stroke:#4F497B;stroke-width:5;stroke-miterlimit:10;}
	.st55{stroke:#FFFFFF;stroke-width:5;stroke-miterlimit:10;}
	.st56{fill:none;stroke:#EF3F25;stroke-width:2;stroke-linecap:round;stroke-miterlimit:10;}
	.st57{fill:none;stroke:#FFFFFF;stroke-width:1.5;stroke-miterlimit:10;}
	.st58{fill:none;stroke:#FFFFFF;stroke-width:1.5;stroke-linecap:round;stroke-miterlimit:10;}
	.st59{fill:none;stroke:#0E6E39;stroke-width:3;stroke-miterlimit:10;}
	.st60{fill:none;stroke:#0E6E39;stroke-width:1.5;stroke-miterlimit:10;}
	.st61{fill:none;stroke:#0E6E39;stroke-width:1.5;stroke-linecap:round;stroke-miterlimit:10;}
	.st62{fill:none;stroke:#EF3F25;stroke-width:0.7099;stroke-miterlimit:10;}
	.st63{fill:none;stroke:#FFFFFF;stroke-width:0.7099;stroke-miterlimit:10;}
	.st64{fill:#EF4025;}
	.st65{fill:#505050;stroke:#4F4A7C;stroke-width:2.9281;stroke-miterlimit:10;}
	.st66{fill:#FFFFFF;stroke:#FFFFFF;stroke-width:2.9281;stroke-miterlimit:10;}
	.st67{fill:none;stroke:#FFFFFF;stroke-width:3.2577;stroke-miterlimit:10;}
	.st68{fill:none;stroke:#FFFFFF;stroke-width:3.2577;stroke-linecap:round;stroke-linejoin:round;stroke-miterlimit:10;}
	.st69{fill:none;stroke:#256887;stroke-width:3.2577;stroke-miterlimit:10;}
	.st70{fill:none;stroke:#256887;stroke-width:3.2577;stroke-linecap:round;stroke-linejoin:round;stroke-miterlimit:10;}
	.st71{fill:#FFFFFF;stroke:#FFFFFF;stroke-width:2;stroke-miterlimit:10;}
	.st72{fill:#D2BF2D;stroke:#D2BF2D;stroke-width:2;stroke-miterlimit:10;}
	.st73{fill:#086E38;}
	.st74{fill:#256887;stroke:#256887;stroke-width:4;stroke-miterlimit:10;}
	.st75{fill:#FFFFFF;stroke:#FFFFFF;stroke-width:4;stroke-miterlimit:10;}
	.st76{fill:#4F4B7D;}
	.st77{fill:#256887;stroke:#256887;stroke-width:2.8997;stroke-miterlimit:10;}
	.st78{fill:#FFFFFF;stroke:#FFFFFF;stroke-width:2.8997;stroke-miterlimit:10;}
	.st79{fill:none;stroke:#FFFFFF;stroke-width:2.2399;stroke-miterlimit:10;}
	.st80{fill:none;stroke:#FFFFFF;stroke-width:2;stroke-miterlimit:10;}
	.st81{fill:none;stroke:#FFFFFF;stroke-width:1.4254;stroke-miterlimit:10;}
	.st82{fill:none;stroke:#EF4025;stroke-width:2.2399;stroke-miterlimit:10;}
	.st83{fill:none;stroke:#EF4025;stroke-width:2;stroke-miterlimit:10;}
	.st84{fill:none;stroke:#EF4025;stroke-width:1.4254;stroke-miterlimit:10;}
	.st85{fill:none;stroke:#4F497B;stroke-linecap:round;stroke-miterlimit:10;}
</style>
<g id="White">
</g>
<g id="BACKGROUND">
	<rect width="360" height="360"/>
</g>
<g id="REF" class="st10">
	<rect x="-360" y="90.33" class="st11" width="360" height="108"/>
	<rect y="90.33" class="st12" width="360" height="108"/>
	<line class="st13" x1="180" y1="0.19" x2="180" y2="360.06"/>
</g>
<g id="LINE_ONE">
	<g>
		<path class="st0" d="M137.07,234.16c0.49,1.4,0.96,2.75,1.4,4.06c0.27,0.76,0.49,1.4,0.66,1.92c0.17,0.52,0.35,1.04,0.52,1.57
			c0.17,0.53,0.34,1.04,0.5,1.53s0.3,0.93,0.42,1.32h0.04c0.12-0.39,0.26-0.83,0.42-1.33s0.33-1.03,0.51-1.59
			c0.18-0.56,0.37-1.13,0.57-1.72c0.2-0.59,0.39-1.15,0.58-1.7c0.44-1.31,0.91-2.66,1.4-4.06h3.08l-5.16,14h-3.06l-5.1-14H137.07z"
			/>
		<path class="st0" d="M151.29,234.16h3v14h-3V234.16z"/>
		<path class="st0" d="M162.29,237.84c0,0.6,0.26,1.03,0.78,1.29c0.52,0.26,1.35,0.48,2.48,0.67c1.67,0.28,2.89,0.74,3.67,1.38
			c0.78,0.64,1.17,1.59,1.17,2.86c0,0.68-0.14,1.29-0.42,1.83s-0.67,1-1.17,1.38s-1.1,0.67-1.79,0.88
			c-0.69,0.21-1.45,0.31-2.26,0.31c-0.88,0-1.67-0.12-2.38-0.35c-0.71-0.23-1.31-0.54-1.8-0.93s-0.88-0.84-1.16-1.36
			c-0.28-0.52-0.43-1.06-0.46-1.62l3-0.48c0.07,0.68,0.33,1.24,0.79,1.67c0.46,0.43,1.13,0.65,2.01,0.65c0.36,0,0.7-0.03,1.01-0.1
			c0.31-0.07,0.59-0.18,0.82-0.33c0.23-0.15,0.42-0.34,0.55-0.57c0.13-0.23,0.2-0.5,0.2-0.82c0-0.52-0.22-0.92-0.65-1.2
			c-0.43-0.28-1.2-0.51-2.29-0.68c-0.73-0.12-1.41-0.27-2.04-0.46s-1.17-0.44-1.63-0.77c-0.46-0.33-0.82-0.73-1.08-1.22
			c-0.26-0.49-0.39-1.08-0.39-1.79c0-0.71,0.13-1.32,0.4-1.84c0.27-0.52,0.64-0.96,1.12-1.31c0.48-0.35,1.05-0.62,1.7-0.79
			c0.65-0.17,1.37-0.26,2.14-0.26c0.72,0,1.39,0.08,2.02,0.25c0.63,0.17,1.18,0.41,1.67,0.74c0.49,0.33,0.89,0.73,1.21,1.21
			c0.32,0.48,0.54,1.03,0.66,1.64l-3.04,0.66c-0.11-0.64-0.38-1.15-0.82-1.52c-0.44-0.37-1.03-0.56-1.78-0.56
			c-0.76,0-1.32,0.14-1.69,0.42C162.47,237,162.29,237.37,162.29,237.84z"/>
		<path class="st0" d="M175.05,234.16h3v14h-3V234.16z"/>
		<path class="st0" d="M182.27,234.16h11.1v2.5h-4.04v11.5h-3.02v-11.5h-4.04V234.16z"/>
		<path class="st0" d="M196.41,241.16c0-1.13,0.16-2.15,0.49-3.05c0.33-0.9,0.79-1.66,1.38-2.29c0.59-0.63,1.31-1.11,2.15-1.44
			c0.84-0.33,1.77-0.5,2.8-0.5c1.03,0,1.96,0.17,2.8,0.5c0.84,0.33,1.56,0.81,2.15,1.44c0.59,0.63,1.05,1.39,1.38,2.29
			c0.33,0.9,0.49,1.92,0.49,3.05c0,1.13-0.16,2.15-0.49,3.05c-0.33,0.9-0.79,1.66-1.38,2.29c-0.59,0.63-1.31,1.11-2.15,1.44
			c-0.84,0.33-1.77,0.5-2.8,0.5c-1.03,0-1.96-0.17-2.8-0.5s-1.56-0.81-2.15-1.44c-0.59-0.63-1.05-1.39-1.38-2.29
			C196.57,243.31,196.41,242.29,196.41,241.16z M199.51,241.16c0,0.71,0.08,1.36,0.23,1.95c0.15,0.59,0.38,1.1,0.69,1.52
			s0.69,0.75,1.16,0.98s1.01,0.35,1.64,0.35s1.17-0.12,1.64-0.35c0.47-0.23,0.85-0.56,1.16-0.98c0.31-0.42,0.54-0.93,0.69-1.52
			c0.15-0.59,0.23-1.24,0.23-1.95s-0.08-1.36-0.23-1.95c-0.15-0.59-0.38-1.1-0.69-1.52c-0.31-0.42-0.69-0.75-1.16-0.98
			c-0.47-0.23-1.01-0.35-1.64-0.35s-1.17,0.12-1.64,0.35s-0.85,0.56-1.16,0.98s-0.54,0.93-0.69,1.52
			C199.59,239.8,199.51,240.45,199.51,241.16z"/>
		<path class="st0" d="M225.23,238.42c0,1.04-0.24,1.89-0.71,2.54s-1.12,1.14-1.95,1.46l3.22,5.74h-3.3l-2.9-5.3h-1.86v5.3h-2.98
			v-14h5.12c0.81,0,1.55,0.08,2.21,0.25c0.66,0.17,1.22,0.42,1.69,0.77c0.47,0.35,0.83,0.79,1.08,1.32
			C225.1,237.03,225.23,237.67,225.23,238.42z M222.15,238.44c0-0.68-0.22-1.15-0.65-1.41c-0.43-0.26-1.09-0.39-1.97-0.39h-1.8v3.78
			h1.8c0.88,0,1.54-0.15,1.97-0.45C221.93,239.67,222.15,239.16,222.15,238.44z"/>
	</g>
</g>
<g id="LINE_TWO">
	<g>
		<path class="st0" d="M109.39,265.94v-14h9.54v2.48h-6.58v3.08h6.12v2.48h-6.12v3.48h6.68v2.48H109.39z"/>
		<path class="st0" d="M131.11,258.6l5.18,7.34h-3.6l-3.38-4.86l-3.44,4.86h-3.36l5.14-7.2l-4.74-6.8h3.62l2.94,4.32l3.04-4.32h3.38
			L131.11,258.6z"/>
		<path class="st0" d="M143.39,261.02v4.92h-2.98v-14h5.32c0.84,0,1.6,0.09,2.28,0.26c0.68,0.17,1.26,0.44,1.74,0.8
			c0.48,0.36,0.85,0.82,1.12,1.38c0.27,0.56,0.4,1.23,0.4,2.02c0,0.8-0.14,1.49-0.41,2.07s-0.65,1.06-1.14,1.44
			c-0.49,0.38-1.07,0.66-1.75,0.84c-0.68,0.18-1.43,0.27-2.24,0.27H143.39z M148.21,256.4c0-0.76-0.23-1.28-0.69-1.56
			c-0.46-0.28-1.16-0.42-2.09-0.42h-2.04v4.12h2.04c0.93,0,1.63-0.17,2.09-0.5C147.98,257.71,148.21,257.16,148.21,256.4z"/>
		<path class="st0" d="M155.67,265.94v-14h9.54v2.48h-6.58v3.08h6.12v2.48h-6.12v3.48h6.68v2.48H155.67z"/>
		<path class="st0" d="M180.43,256.2c0,1.04-0.24,1.89-0.71,2.54c-0.47,0.65-1.12,1.14-1.95,1.46l3.22,5.74h-3.3l-2.9-5.3h-1.86v5.3
			h-2.98v-14h5.12c0.81,0,1.55,0.08,2.21,0.25s1.22,0.42,1.69,0.77c0.47,0.35,0.83,0.79,1.08,1.32
			C180.3,254.82,180.43,255.46,180.43,256.2z M177.35,256.22c0-0.68-0.22-1.15-0.65-1.41s-1.09-0.39-1.97-0.39h-1.8v3.78h1.8
			c0.88,0,1.54-0.15,1.97-0.45C177.13,257.45,177.35,256.94,177.35,256.22z"/>
		<path class="st0" d="M185.47,251.94h3v14h-3V251.94z"/>
		<path class="st0" d="M193.75,265.94v-14h9.54v2.48h-6.58v3.08h6.12v2.48h-6.12v3.48h6.68v2.48H193.75z"/>
		<path class="st0" d="M208.03,251.94h3.12c0.81,1.32,1.59,2.57,2.32,3.76c0.44,0.71,0.8,1.29,1.08,1.75s0.56,0.92,0.84,1.37
			s0.55,0.88,0.8,1.29c0.25,0.41,0.47,0.75,0.64,1.03h0.06v-9.2h2.84v14h-3.12c-0.8-1.29-1.56-2.53-2.28-3.7
			c-0.43-0.69-0.78-1.27-1.07-1.73s-0.57-0.92-0.85-1.38c-0.28-0.46-0.55-0.9-0.81-1.32s-0.48-0.78-0.67-1.07h-0.06v9.2h-2.84
			V251.94z"/>
		<path class="st0" d="M224.43,258.94c0-1.15,0.16-2.17,0.48-3.07c0.32-0.9,0.78-1.66,1.37-2.29c0.59-0.63,1.31-1.1,2.16-1.43
			c0.85-0.33,1.8-0.49,2.85-0.49c1.49,0,2.75,0.33,3.76,0.98c1.01,0.65,1.73,1.65,2.16,2.98l-2.92,1.02
			c-0.24-0.79-0.6-1.4-1.08-1.83c-0.48-0.43-1.14-0.65-1.98-0.65c-0.61,0-1.15,0.12-1.62,0.36s-0.85,0.57-1.16,0.99
			s-0.54,0.92-0.69,1.51c-0.15,0.59-0.23,1.23-0.23,1.92s0.08,1.33,0.23,1.91c0.15,0.58,0.38,1.08,0.69,1.51s0.69,0.76,1.16,1
			s1.01,0.36,1.64,0.36c0.77,0,1.4-0.19,1.89-0.58c0.49-0.39,0.86-0.97,1.11-1.76l2.88,1.02c-0.47,1.19-1.19,2.12-2.16,2.8
			c-0.97,0.68-2.23,1.02-3.76,1.02c-1.03,0-1.96-0.16-2.79-0.49c-0.83-0.33-1.55-0.8-2.14-1.42c-0.59-0.62-1.05-1.38-1.37-2.29
			C224.59,261.12,224.43,260.09,224.43,258.94z"/>
		<path class="st0" d="M241.61,265.94v-14h9.54v2.48h-6.58v3.08h6.12v2.48h-6.12v3.48h6.68v2.48H241.61z"/>
	</g>
</g>
<g id="ICON">
	<g>
		<path class="st71" d="M133.18,121.25c-3.59-10.39-3.13-11.99,4.9-17.3c-0.94-4.42-0.82-8.51,3.93-11.05
			c4.57-2.44,6.8-2.14,11.9,2.05c6.99-6.91,11.67-6.28,18.04,1.66c7.92,9.88,16.2,19.47,24.35,29.17c0.24,0.29,0.66,0.43,0.56,0.36
			c2.2-3.24,3.96-6.71,6.54-9.4c2.72-2.83,6.61-3.75,10.46-2.49c3.85,1.26,4.41,4.87,4.45,8.23c0.1,9.03-0.28,18.07-0.06,27.1
			c0.17,6.92,0.62,13.88,1.56,20.74c1.08,7.77-2.5,13.24-7.93,17.79c-7.01,5.87-15.34,9.06-24.37,10.07c-4.8,0.53-8.86-1.29-12-5.33
			c-2.81-3.61-5.74-7.3-9.28-10.13c-11.31-9.03-19.73-20.37-27.1-32.6c-2.94-4.87-5.7-9.86-8.29-14.92
			C128.18,130.02,127.76,125,133.18,121.25z M135.97,124.34c-3.86,2.17-3.71,4.84-2.37,7.84c6.03,13.45,14.11,25.65,23.77,36.68
			c6.58,7.52,14.21,14.1,21,21.44c2.62,2.84,5.3,4.54,9.02,4.05c9.21-1.19,17.56-4.5,24.15-11.24c3.04-3.11,5.14-6.71,4.76-11.55
			c-0.74-9.4-1.15-18.83-1.48-28.25c-0.24-6.96,0.08-13.94-0.23-20.89c-0.22-4.92-2.57-6.15-6.92-3.95c-5,2.53-6.39,7.1-6.22,12.28
			c0.08,2.36,0.73,4.7,0.71,7.05c-0.01,1.16-0.63,2.8-1.52,3.4c-6.95,4.64-9.84,11.07-9.23,19.31c0.07,0.95-0.83,1.96-1.28,2.95
			c-0.76-0.92-2.1-1.79-2.2-2.78c-0.85-8.28,1.32-15.66,8.19-20.75c3.39-2.52,2.25-4.89,0.99-7.48c-0.58-1.2-1.83-2.08-2.74-3.14
			c-7.21-8.32-14.45-16.61-21.59-24.99c-2.26-2.65-4.08-5.67-6.41-8.24c-2.02-2.23-4.43-3.24-7.3-0.82
			c-2.91,2.44-1.65,4.4,0.11,6.72c7.01,9.2,13.96,18.45,20.79,27.79c0.71,0.97,0.44,2.64,0.63,3.98c-1.24-0.59-2.84-0.88-3.66-1.83
			c-2.35-2.74-4.35-5.78-6.55-8.65c-6.7-8.72-13.37-17.47-20.2-26.08c-2.12-2.67-5.23-2.57-7.49-0.14
			c-2.45,2.64-1.22,5.28,0.48,7.57c2.98,4.03,6.23,7.86,9.34,11.8c5.61,7.11,11.27,14.2,16.73,21.43c0.68,0.9,0.3,2.6,0.4,3.94
			c-1.1-0.59-2.48-0.93-3.26-1.8c-2.49-2.82-4.76-5.82-7.1-8.77c-6.3-7.92-12.58-15.86-18.81-23.7c-6.51,3.12-7.36,5.66-3.76,11.21
			c1.74,2.68,3.87,5.11,5.84,7.64c6.1,7.79,12.25,15.54,18.25,23.41c0.62,0.82,0.32,2.34,0.45,3.54c-1.15-0.42-2.38-0.7-3.41-1.31
			c-0.67-0.4-1.04-1.28-1.56-1.94C149.55,141.54,142.83,133.03,135.97,124.34z"/>
		<path class="st0" d="M130.79,155.9c0.32-0.39,0.99-1.22,1.66-2.05c0.67,0.82,1.81,1.56,1.95,2.46
			c2.47,15.7,11.33,25.84,26.34,30.83c1.04,0.35,1.74,1.71,2.6,2.6c-1.05,0.39-2.26,1.34-3.13,1.09
			C143.4,186.07,132.57,173.1,130.79,155.9z"/>
		<path class="st0" d="M230.68,133.66c0,0.14,0.03,0.29-0.01,0.42c-0.52,1.68-1.11,4.81-1.58,4.79c-3.46-0.13-1.82-3.02-1.94-4.77
			c-0.98-14.62-7.38-25.72-20.57-32.65c-1.12-0.59-1.79-2.02-2.67-3.07c1.45-0.1,3.2-0.78,4.31-0.22
			C222.71,105.52,229.89,117.59,230.68,133.66z"/>
		<path class="st0" d="M215.75,92.83c1.37,0.32,2.91,0.34,4.08,1c9.96,5.63,16.33,14.1,19.24,25.12c0.27,1.04-0.46,2.34-0.72,3.51
			c-0.94-0.92-2.39-1.69-2.74-2.8c-3.14-9.83-8.83-17.55-17.87-22.74c-1.11-0.64-1.81-1.98-2.69-2.99
			C215.29,93.57,215.52,93.2,215.75,92.83z"/>
		<path class="st0" d="M153.54,195.46c-1.54,0.58-2.54,1.34-3.48,1.27c-9.09-0.68-23.1-13.19-25.02-22.33
			c-0.18-0.84,0.47-1.85,0.74-2.79c0.97,0.73,2.39,1.26,2.83,2.23c3.94,8.63,10.1,14.87,19.01,18.29c1.16,0.45,2.43,0.64,3.56,1.16
			C151.84,193.6,152.32,194.32,153.54,195.46z"/>
		<path d="M135.97,124.34c6.86,8.69,13.58,17.21,20.3,25.72c0.52,0.66,0.89,1.54,1.56,1.94c1.03,0.61,2.27,0.89,3.41,1.31
			c-0.13-1.2,0.18-2.72-0.45-3.54c-5.99-7.87-12.15-15.62-18.25-23.41c-1.98-2.53-4.1-4.96-5.84-7.64
			c-3.6-5.55-2.75-8.09,3.76-11.21c6.23,7.85,12.51,15.78,18.81,23.7c2.34,2.95,4.61,5.95,7.1,8.77c0.77,0.88,2.15,1.22,3.26,1.8
			c-0.11-1.33,0.28-3.04-0.4-3.94c-5.46-7.23-11.12-14.31-16.73-21.43c-3.11-3.94-6.36-7.77-9.34-11.8
			c-1.7-2.29-2.93-4.93-0.48-7.57c2.27-2.43,5.37-2.53,7.49,0.14c6.84,8.61,13.5,17.36,20.2,26.08c2.21,2.87,4.2,5.91,6.55,8.65
			c0.82,0.95,2.42,1.24,3.66,1.83c-0.19-1.35,0.08-3.02-0.63-3.98c-6.83-9.34-13.78-18.58-20.79-27.79
			c-1.76-2.32-3.02-4.27-0.11-6.72c2.87-2.41,5.28-1.4,7.3,0.82c2.33,2.57,4.16,5.59,6.41,8.24c7.14,8.38,14.38,16.67,21.59,24.99
			c0.91,1.05,2.16,1.93,2.74,3.14c1.26,2.6,2.4,4.96-0.99,7.48c-6.86,5.1-9.03,12.47-8.19,20.75c0.1,0.99,1.44,1.85,2.2,2.78
			c0.45-0.98,1.35-2,1.28-2.95c-0.61-8.24,2.28-14.67,9.23-19.31c0.89-0.6,1.51-2.24,1.52-3.4c0.02-2.35-0.63-4.69-0.71-7.05
			c-0.17-5.18,1.22-9.75,6.22-12.28c4.36-2.21,6.7-0.97,6.92,3.95c0.31,6.95-0.01,13.93,0.23,20.89c0.32,9.42,0.74,18.85,1.48,28.25
			c0.38,4.84-1.72,8.44-4.76,11.55c-6.59,6.74-14.94,10.05-24.15,11.24c-3.73,0.48-6.4-1.22-9.02-4.05
			c-6.79-7.34-14.42-13.92-21-21.44c-9.66-11.03-17.73-23.23-23.77-36.68C132.25,129.18,132.1,126.51,135.97,124.34z"/>
	</g>
</g>
</svg>
