<?xml version="1.0" encoding="utf-8"?>
<!-- Generator: Adobe Illustrator 23.1.0, SVG Export Plug-In . SVG Version: 6.00 Build 0)  -->
<svg version="1.1" xmlns="http://www.w3.org/2000/svg" xmlns:xlink="http://www.w3.org/1999/xlink" x="0px" y="0px"
	 viewBox="0 0 360 360" style="enable-background:new 0 0 360 360;" xml:space="preserve">
<style type="text/css">
	.st0{fill:#FFFFFF;}
	.st1{fill:#0E6E39;}
	.st2{fill:#0C6E39;}
	.st3{fill:#4F497B;}
	.st4{fill:#216885;}
	.st5{fill:#F0492D;}
	.st6{fill:#EF3F25;}
	.st7{fill:#236886;}
	.st8{fill:#256887;}
	.st9{fill:#D2BF2D;}
	.st10{display:none;}
	.st11{display:inline;fill:none;stroke:#000000;stroke-width:0.25;stroke-miterlimit:10;}
	.st12{display:inline;fill:none;stroke:#FFFFFF;stroke-width:0.25;stroke-miterlimit:10;}
	.st13{display:inline;fill:none;stroke:#FFFFFF;stroke-width:0.25;stroke-linecap:round;stroke-miterlimit:10;}
	.st14{display:inline;fill:none;stroke:#000000;stroke-width:0.25;stroke-linecap:round;stroke-miterlimit:10;}
	.st15{fill:#4F4A7C;}
	.st16{fill:none;stroke:#FFFFFF;stroke-miterlimit:10;}
	.st17{stroke:#FFFFFF;stroke-miterlimit:10;}
	.st18{fill:none;stroke:#FFFFFF;stroke-width:3;stroke-miterlimit:10;}
	.st19{fill:none;stroke:#FFFFFF;stroke-linecap:round;stroke-miterlimit:10;}
	.st20{fill:none;stroke:#236886;stroke-width:5;stroke-miterlimit:10;}
	.st21{fill:none;stroke:#236886;stroke-width:5;stroke-linecap:round;stroke-miterlimit:10;}
	.st22{fill:none;stroke:#FFFFFF;stroke-width:5;stroke-miterlimit:10;}
	.st23{fill:none;stroke:#FFFFFF;stroke-width:5;stroke-linecap:round;stroke-miterlimit:10;}
	.st24{fill:none;stroke:#4F497B;stroke-width:3;stroke-miterlimit:10;}
	.st25{fill:none;stroke:#4F497B;stroke-miterlimit:10;}
	.st26{fill:#FFFFFF;stroke:#4F497B;stroke-miterlimit:10;}
	.st27{fill:#FFFFFF;stroke:#4F497B;stroke-width:2;stroke-miterlimit:10;}
	.st28{fill:none;stroke:#4F497B;stroke-width:2;stroke-linecap:round;stroke-miterlimit:10;}
	.st29{stroke:#FFFFFF;stroke-width:2;stroke-miterlimit:10;}
	.st30{fill:none;stroke:#FFFFFF;stroke-width:2;stroke-linecap:round;stroke-miterlimit:10;}
	.st31{fill:none;stroke:#0C6E39;stroke-width:3;stroke-miterlimit:10;}
	.st32{fill:none;stroke:#EF3F25;stroke-miterlimit:10;}
	.st33{fill:none;stroke:#EF3F25;stroke-width:3;stroke-miterlimit:10;}
	.st34{fill:none;stroke:#4F4A7C;stroke-width:3;stroke-miterlimit:10;}
	.st35{fill:none;stroke:#4F4A7C;stroke-width:5;stroke-linecap:round;stroke-miterlimit:10;}
	.st36{fill:none;stroke:#EF3F25;stroke-width:3;stroke-linecap:round;stroke-miterlimit:10;}
	.st37{fill:none;stroke:#EF3F25;stroke-width:5;stroke-linecap:round;stroke-miterlimit:10;}
	.st38{fill:none;stroke:#FFFFFF;stroke-width:3;stroke-linecap:round;stroke-miterlimit:10;}
	.st39{fill:none;stroke:#4F497B;stroke-width:5;stroke-linecap:round;stroke-miterlimit:10;}
	.st40{fill:#FFFFFF;stroke:#0E6E39;stroke-width:3;stroke-linejoin:round;stroke-miterlimit:10;}
	.st41{fill:none;stroke:#0E6E39;stroke-width:3;stroke-linejoin:round;stroke-miterlimit:10;}
	.st42{stroke:#FFFFFF;stroke-width:3;stroke-linejoin:round;stroke-miterlimit:10;}
	.st43{fill:none;stroke:#FFFFFF;stroke-width:3;stroke-linejoin:round;stroke-miterlimit:10;}
	.st44{fill:none;stroke:#0C6E39;stroke-width:5;stroke-linecap:round;stroke-miterlimit:10;}
	.st45{fill:none;stroke:#0C6E39;stroke-width:3;stroke-linecap:round;stroke-miterlimit:10;}
	.st46{fill:none;stroke:#0C6E39;stroke-linecap:round;stroke-linejoin:round;stroke-miterlimit:10;}
	.st47{fill:#0C6E39;stroke:#0C6E39;stroke-width:0;stroke-miterlimit:10;}
	.st48{fill:none;stroke:#0C6E39;stroke-width:3;stroke-linecap:round;stroke-linejoin:round;stroke-miterlimit:10;}
	.st49{fill:none;stroke:#0C6E39;stroke-linecap:round;stroke-miterlimit:10;}
	.st50{fill:none;stroke:#FFFFFF;stroke-linecap:round;stroke-linejoin:round;stroke-miterlimit:10;}
	.st51{fill:none;stroke:#FFFFFF;stroke-width:3;stroke-linecap:round;stroke-linejoin:round;stroke-miterlimit:10;}
	.st52{fill:none;stroke:#4F4A7C;stroke-miterlimit:10;}
	.st53{fill:#FFFFFF;stroke:#4F4A7C;stroke-width:2;stroke-miterlimit:10;}
	.st54{fill:#FFFFFF;stroke:#4F497B;stroke-width:5;stroke-miterlimit:10;}
	.st55{stroke:#FFFFFF;stroke-width:5;stroke-miterlimit:10;}
	.st56{fill:none;stroke:#EF3F25;stroke-width:2;stroke-linecap:round;stroke-miterlimit:10;}
	.st57{fill:none;stroke:#FFFFFF;stroke-width:1.5;stroke-miterlimit:10;}
	.st58{fill:none;stroke:#FFFFFF;stroke-width:1.5;stroke-linecap:round;stroke-miterlimit:10;}
	.st59{fill:none;stroke:#0E6E39;stroke-width:3;stroke-miterlimit:10;}
	.st60{fill:none;stroke:#0E6E39;stroke-width:1.5;stroke-miterlimit:10;}
	.st61{fill:none;stroke:#0E6E39;stroke-width:1.5;stroke-linecap:round;stroke-miterlimit:10;}
	.st62{fill:none;stroke:#EF3F25;stroke-width:0.7099;stroke-miterlimit:10;}
	.st63{fill:none;stroke:#FFFFFF;stroke-width:0.7099;stroke-miterlimit:10;}
	.st64{fill:#EF4025;}
	.st65{fill:#505050;stroke:#4F4A7C;stroke-width:2.9281;stroke-miterlimit:10;}
	.st66{fill:#FFFFFF;stroke:#FFFFFF;stroke-width:2.9281;stroke-miterlimit:10;}
	.st67{fill:none;stroke:#FFFFFF;stroke-width:3.2577;stroke-miterlimit:10;}
	.st68{fill:none;stroke:#FFFFFF;stroke-width:3.2577;stroke-linecap:round;stroke-linejoin:round;stroke-miterlimit:10;}
	.st69{fill:none;stroke:#256887;stroke-width:3.2577;stroke-miterlimit:10;}
	.st70{fill:none;stroke:#256887;stroke-width:3.2577;stroke-linecap:round;stroke-linejoin:round;stroke-miterlimit:10;}
	.st71{fill:#FFFFFF;stroke:#FFFFFF;stroke-width:2;stroke-miterlimit:10;}
	.st72{fill:#D2BF2D;stroke:#D2BF2D;stroke-width:2;stroke-miterlimit:10;}
	.st73{fill:#086E38;}
	.st74{fill:#256887;stroke:#256887;stroke-width:4;stroke-miterlimit:10;}
	.st75{fill:#FFFFFF;stroke:#FFFFFF;stroke-width:4;stroke-miterlimit:10;}
	.st76{fill:#4F4B7D;}
	.st77{fill:#256887;stroke:#256887;stroke-width:2.8997;stroke-miterlimit:10;}
	.st78{fill:#FFFFFF;stroke:#FFFFFF;stroke-width:2.8997;stroke-miterlimit:10;}
	.st79{fill:none;stroke:#FFFFFF;stroke-width:2.2399;stroke-miterlimit:10;}
	.st80{fill:none;stroke:#FFFFFF;stroke-width:2;stroke-miterlimit:10;}
	.st81{fill:none;stroke:#FFFFFF;stroke-width:1.4254;stroke-miterlimit:10;}
	.st82{fill:none;stroke:#EF4025;stroke-width:2.2399;stroke-miterlimit:10;}
	.st83{fill:none;stroke:#EF4025;stroke-width:2;stroke-miterlimit:10;}
	.st84{fill:none;stroke:#EF4025;stroke-width:1.4254;stroke-miterlimit:10;}
	.st85{fill:none;stroke:#4F497B;stroke-linecap:round;stroke-miterlimit:10;}
</style>
<g id="White">
	<rect x="0" class="st0" width="360.29" height="360.29"/>
</g>
<g id="BACKGROUND">
	<rect y="336" class="st7" width="360" height="23.94"/>
	<g>
		<path class="st0" d="M297.29,349.47v2.95h-1.79v-8.4h3.19c0.5,0,0.96,0.05,1.37,0.16c0.41,0.1,0.76,0.26,1.04,0.48
			c0.29,0.22,0.51,0.49,0.67,0.83c0.16,0.34,0.24,0.74,0.24,1.21c0,0.48-0.08,0.89-0.25,1.24c-0.16,0.35-0.39,0.64-0.68,0.86
			c-0.29,0.23-0.64,0.4-1.05,0.5c-0.41,0.11-0.86,0.16-1.34,0.16H297.29z M300.18,346.7c0-0.46-0.14-0.77-0.41-0.94
			s-0.69-0.25-1.25-0.25h-1.22v2.47h1.22c0.56,0,0.98-0.1,1.25-0.3C300.05,347.48,300.18,347.16,300.18,346.7z"/>
		<path class="st0" d="M311.3,352.42h-1.86l-0.67-1.94h-3.01l-0.67,1.94h-1.76l3.02-8.4h1.93L311.3,352.42z M307.24,345.99
			c-0.02,0.06-0.04,0.16-0.08,0.28c-0.04,0.13-0.08,0.26-0.13,0.42c-0.05,0.16-0.1,0.32-0.16,0.5c-0.06,0.18-0.12,0.35-0.17,0.52
			c-0.14,0.42-0.28,0.86-0.44,1.33h2.03c-0.16-0.47-0.31-0.92-0.44-1.33c-0.09-0.24-0.16-0.44-0.21-0.59
			c-0.05-0.16-0.1-0.31-0.14-0.45c-0.04-0.14-0.09-0.28-0.13-0.4c-0.04-0.12-0.07-0.22-0.08-0.28H307.24z"/>
		<path class="st0" d="M312.18,344.02h6.66v1.5h-2.42v6.9h-1.81v-6.9h-2.42V344.02z"/>
		<path class="st0" d="M321.38,344.02h1.8v8.4h-1.8V344.02z"/>
		<path class="st0" d="M326.34,352.42v-8.4h5.72v1.49h-3.95v1.85h3.67v1.49h-3.67v2.09h4.01v1.49H326.34z"/>
		<path class="st0" d="M334.91,344.02h1.87c0.49,0.79,0.95,1.54,1.39,2.26c0.26,0.42,0.48,0.77,0.65,1.05
			c0.17,0.28,0.34,0.55,0.5,0.82c0.17,0.27,0.33,0.53,0.48,0.77c0.15,0.24,0.28,0.45,0.38,0.62h0.04v-5.52h1.7v8.4h-1.87
			c-0.48-0.78-0.94-1.52-1.37-2.22c-0.26-0.42-0.47-0.76-0.64-1.04c-0.17-0.28-0.34-0.55-0.51-0.83s-0.33-0.54-0.49-0.79
			s-0.29-0.47-0.4-0.64h-0.04v5.52h-1.7V344.02z"/>
		<path class="st0" d="M344.46,344.02h6.66v1.5h-2.42v6.9h-1.81v-6.9h-2.42V344.02z"/>
	</g>
</g>
<g id="REF" class="st10">
	<rect x="7" y="90.27" class="st11" width="360" height="108"/>
	<line class="st14" x1="187" y1="0.13" x2="187" y2="360"/>
</g>
<g id="LINE_ONE">
	<g>
		<path class="st7" d="M137.16,243.18v4.92h-2.98v-14h5.32c0.84,0,1.6,0.09,2.28,0.26c0.68,0.17,1.26,0.44,1.74,0.8
			c0.48,0.36,0.85,0.82,1.12,1.38c0.27,0.56,0.4,1.23,0.4,2.02c0,0.8-0.14,1.49-0.41,2.07c-0.27,0.58-0.65,1.06-1.14,1.44
			s-1.07,0.66-1.75,0.84c-0.68,0.18-1.43,0.27-2.24,0.27H137.16z M141.98,238.56c0-0.76-0.23-1.28-0.69-1.56
			c-0.46-0.28-1.16-0.42-2.09-0.42h-2.04v4.12h2.04c0.93,0,1.63-0.17,2.09-0.5C141.75,239.86,141.98,239.32,141.98,238.56z"/>
		<path class="st7" d="M160.5,248.1h-3.1l-1.12-3.24h-5.02l-1.12,3.24h-2.94l5.04-14h3.22L160.5,248.1z M153.74,237.38
			c-0.03,0.11-0.07,0.26-0.14,0.47c-0.07,0.21-0.14,0.44-0.22,0.7s-0.17,0.54-0.27,0.84s-0.2,0.59-0.29,0.87
			c-0.23,0.69-0.47,1.43-0.74,2.22h3.38c-0.27-0.79-0.51-1.53-0.74-2.22c-0.15-0.4-0.26-0.73-0.35-0.99
			c-0.09-0.26-0.17-0.51-0.24-0.75c-0.07-0.24-0.14-0.46-0.21-0.67s-0.11-0.36-0.14-0.47H153.74z"/>
		<path class="st7" d="M161.98,234.1h11.1v2.5h-4.04v11.5h-3.02v-11.5h-4.04V234.1z"/>
		<path class="st7" d="M177.3,234.1h3v14h-3V234.1z"/>
		<path class="st7" d="M185.58,248.1v-14h9.54v2.48h-6.58v3.08h6.12v2.48h-6.12v3.48h6.68v2.48H185.58z"/>
		<path class="st7" d="M199.86,234.1h3.12c0.81,1.32,1.59,2.57,2.32,3.76c0.44,0.71,0.8,1.29,1.08,1.75
			c0.28,0.46,0.56,0.92,0.84,1.37c0.28,0.45,0.55,0.88,0.8,1.29c0.25,0.41,0.47,0.75,0.64,1.03h0.06v-9.2h2.84v14h-3.12
			c-0.8-1.29-1.56-2.53-2.28-3.7c-0.43-0.69-0.78-1.27-1.07-1.73s-0.57-0.92-0.85-1.38s-0.55-0.9-0.81-1.32s-0.48-0.78-0.67-1.07
			h-0.06v9.2h-2.84V234.1z"/>
		<path class="st7" d="M215.78,234.1h11.1v2.5h-4.04v11.5h-3.02v-11.5h-4.04V234.1z"/>
	</g>
</g>
<g id="LINE_TWO">
	<g>
		<path class="st7" d="M134.62,260.96v4.92h-2.98v-14h5.32c0.84,0,1.6,0.09,2.28,0.26c0.68,0.17,1.26,0.44,1.74,0.8
			c0.48,0.36,0.85,0.82,1.12,1.38c0.27,0.56,0.4,1.23,0.4,2.02c0,0.8-0.14,1.49-0.41,2.07s-0.65,1.06-1.14,1.44
			c-0.49,0.38-1.07,0.66-1.75,0.84c-0.68,0.18-1.43,0.27-2.24,0.27H134.62z M139.44,256.34c0-0.76-0.23-1.28-0.69-1.56
			c-0.46-0.28-1.16-0.42-2.09-0.42h-2.04v4.12h2.04c0.93,0,1.63-0.17,2.09-0.5C139.21,257.65,139.44,257.1,139.44,256.34z"/>
		<path class="st7" d="M157.38,256.14c0,1.04-0.24,1.89-0.71,2.54c-0.47,0.65-1.12,1.14-1.95,1.46l3.22,5.74h-3.3l-2.9-5.3h-1.86
			v5.3h-2.98v-14h5.12c0.81,0,1.55,0.08,2.21,0.25s1.22,0.42,1.69,0.77c0.47,0.35,0.83,0.79,1.08,1.32
			C157.25,254.75,157.38,255.4,157.38,256.14z M154.3,256.16c0-0.68-0.22-1.15-0.65-1.41c-0.43-0.26-1.09-0.39-1.97-0.39h-1.8v3.78
			h1.8c0.88,0,1.54-0.15,1.97-0.45C154.08,257.39,154.3,256.88,154.3,256.16z"/>
		<path class="st7" d="M162.42,251.88h3v14h-3V251.88z"/>
		<path class="st7" d="M172.76,251.88c0.49,1.4,0.96,2.75,1.4,4.06c0.27,0.76,0.49,1.4,0.66,1.92c0.17,0.52,0.35,1.04,0.52,1.57
			c0.17,0.53,0.34,1.04,0.5,1.53s0.3,0.93,0.42,1.32h0.04c0.12-0.39,0.26-0.83,0.42-1.33s0.33-1.03,0.51-1.59
			c0.18-0.56,0.37-1.13,0.57-1.72c0.2-0.59,0.39-1.15,0.58-1.7c0.44-1.31,0.91-2.66,1.4-4.06h3.08l-5.16,14h-3.06l-5.1-14H172.76z"
			/>
		<path class="st7" d="M197.44,265.88h-3.1l-1.12-3.24h-5.02l-1.12,3.24h-2.94l5.04-14h3.22L197.44,265.88z M190.68,255.16
			c-0.03,0.11-0.07,0.26-0.14,0.47s-0.14,0.44-0.22,0.7c-0.08,0.26-0.17,0.54-0.27,0.84s-0.2,0.59-0.29,0.87
			c-0.23,0.69-0.47,1.43-0.74,2.22h3.38c-0.27-0.79-0.51-1.53-0.74-2.22c-0.15-0.4-0.26-0.73-0.35-0.99
			c-0.09-0.26-0.17-0.51-0.24-0.75c-0.07-0.24-0.14-0.46-0.21-0.67s-0.11-0.36-0.14-0.47H190.68z"/>
		<path class="st7" d="M200.3,258.88c0-1.15,0.16-2.17,0.48-3.07c0.32-0.9,0.78-1.66,1.37-2.29c0.59-0.63,1.31-1.1,2.16-1.43
			c0.85-0.33,1.8-0.49,2.85-0.49c1.49,0,2.75,0.33,3.76,0.98s1.73,1.65,2.16,2.98l-2.92,1.02c-0.24-0.79-0.6-1.4-1.08-1.83
			s-1.14-0.65-1.98-0.65c-0.61,0-1.15,0.12-1.62,0.36s-0.85,0.57-1.16,0.99s-0.54,0.92-0.69,1.51c-0.15,0.59-0.23,1.23-0.23,1.92
			s0.08,1.33,0.23,1.91c0.15,0.58,0.38,1.08,0.69,1.51s0.69,0.76,1.16,1s1.01,0.36,1.64,0.36c0.77,0,1.4-0.19,1.89-0.58
			s0.86-0.97,1.11-1.76l2.88,1.02c-0.47,1.19-1.19,2.12-2.16,2.8c-0.97,0.68-2.23,1.02-3.76,1.02c-1.03,0-1.96-0.16-2.79-0.49
			c-0.83-0.33-1.55-0.8-2.14-1.42c-0.59-0.62-1.05-1.38-1.37-2.29C200.46,261.06,200.3,260.03,200.3,258.88z"/>
		<path class="st7" d="M221.32,260.02l-5.3-8.14h3.44l3.42,5.36l3.4-5.36h3.34l-5.3,8.14v5.86h-3V260.02z"/>
	</g>
</g>
<g id="ICON">
	<g>
		<path class="st8" d="M180.02,118.77c15.53,0,31.06,0,46.6,0c3.8,0,7.6-0.02,11.4,0c2.22,0.01,3.72,1.28,3.92,3.46
			c0.09,0.93-0.16,1.89-0.29,2.83c-0.55,3.93-1.11,7.85-1.67,11.78c-0.6,4.16-1.22,8.31-1.81,12.46
			c-0.75,5.25-1.47,10.51-2.23,15.76c-0.8,5.58-1.63,11.16-2.43,16.75c-0.55,3.83-1.09,7.65-1.59,11.48
			c-0.39,2.94-2.62,4.97-5.57,4.97c-30.86,0-61.72,0-92.57,0c-2.93,0-5.04-1.7-5.57-4.56c-0.3-1.59-0.49-3.21-0.72-4.81
			c-0.39-2.7-0.76-5.41-1.14-8.11c-0.45-3.19-0.9-6.38-1.36-9.56c-0.47-3.31-0.95-6.63-1.43-9.94c-0.5-3.47-1-6.93-1.5-10.4
			c-0.56-3.87-1.13-7.75-1.68-11.62c-0.48-3.37-0.95-6.73-1.42-10.1c-0.29-2.07-0.63-4.13-0.88-6.2c-0.27-2.24,1.42-4.16,3.57-4.17
			c3.93-0.02,7.86-0.02,11.78-0.02C148.96,118.77,164.49,118.77,180.02,118.77C180.02,118.77,180.02,118.77,180.02,118.77z
			 M151.65,158.47c0.04,15.09,11.92,28.1,28.03,28.33c15.47,0.22,28.61-12.04,28.66-28.3c0.05-15.16-11.8-27.56-26.92-28.3
			C165.18,129.42,151.78,142.18,151.65,158.47z"/>
		<path class="st8" d="M179.98,112.87c-11.34,0-22.69,0-34.03,0c-5.4,0-10.8-0.02-16.2,0.01c-0.73,0-0.9-0.24-0.89-0.93
			c0.03-5.66,0.01-11.32,0.02-16.98c0-2.79,1.93-4.71,4.73-4.71c10.83,0,21.66-0.01,32.48,0.01c1.52,0,3.05-0.03,4.56,0.15
			c2.03,0.25,3.57,2.17,3.6,4.24c0.01,1.03-0.09,2.09,0.07,3.09c0.39,2.4,2.32,3.93,4.83,3.94c6.51,0.01,13.02,0,19.54,0
			c9.23,0,18.45,0.04,27.68-0.03c3.02-0.02,5,2.34,4.84,4.93c-0.12,1.8-0.06,3.62-0.01,5.42c0.02,0.7-0.22,0.87-0.88,0.86
			c-6.28-0.02-12.56-0.01-18.84-0.01C200.96,112.88,190.47,112.88,179.98,112.87C179.98,112.88,179.98,112.87,179.98,112.87z"/>
		<path class="st0" d="M151.65,158.47c0.13-16.29,13.53-29.05,29.77-28.26c15.12,0.73,26.98,13.14,26.92,28.3
			c-0.06,16.26-13.2,28.51-28.66,28.3C163.57,186.58,151.69,173.56,151.65,158.47z M179.99,175.47
			C179.99,175.47,179.99,175.47,179.99,175.47c4.96,0,9.92,0,14.88,0c1.95,0,2.95-1,2.95-2.95c0-5.45,0-10.9-0.01-16.36
			c0-1.94-1-2.93-2.97-2.93c-1.06,0-1.03,0-1.06-1.05c-0.06-2.06,0.08-4.16-0.28-6.17c-1.19-6.6-7.56-11.73-14.93-10.97
			c-6.07,0.62-11.32,5.43-12.15,11.45c-0.26,1.88-0.15,3.81-0.2,5.72c-0.03,1.02-0.01,1.02-1.02,1.02c-2.03,0.01-3.02,1-3.02,3.05
			c0,5.43,0,10.85,0.01,16.28c0,1.92,0.99,2.91,2.9,2.91C170.07,175.47,175.03,175.47,179.99,175.47z"/>
		<path class="st8" d="M179.99,175.47c-4.96,0-9.92,0-14.88,0c-1.91,0-2.9-0.99-2.9-2.91c0-5.43-0.01-10.85-0.01-16.28
			c0-2.05,0.99-3.04,3.02-3.05c1,0,0.99,0,1.02-1.02c0.05-1.91-0.06-3.84,0.2-5.72c0.83-6.02,6.08-10.82,12.15-11.45
			c7.37-0.76,13.74,4.38,14.93,10.97c0.36,2.01,0.22,4.11,0.28,6.17c0.03,1.04,0,1.04,1.06,1.05c1.97,0.01,2.97,0.99,2.97,2.93
			c0,5.45,0.01,10.9,0.01,16.36c0,1.95-1,2.95-2.95,2.95C189.91,175.47,184.95,175.47,179.99,175.47
			C179.99,175.47,179.99,175.47,179.99,175.47z M171.42,153.18c5.8,0,11.44,0,17.14,0c0-1.86,0.14-3.67-0.03-5.46
			c-0.38-4.11-3.86-7.34-8.22-7.54c-3.94-0.18-7.41,2.29-8.55,6.18C171.11,148.59,171.56,150.87,171.42,153.18z M178.41,166.59
			C178.4,166.59,178.4,166.59,178.41,166.59c0,0.54-0.02,1.09,0,1.63c0.02,0.98,0.66,1.62,1.6,1.61c0.94,0,1.58-0.63,1.61-1.6
			c0.03-0.93,0.04-1.86,0-2.79c-0.02-0.65,0.1-1.14,0.6-1.64c1.14-1.15,1.03-2.99-0.14-4.1c-1.15-1.11-2.98-1.1-4.13,0
			c-1.17,1.12-1.29,2.96-0.15,4.1c0.5,0.5,0.67,0.98,0.62,1.63C178.38,165.81,178.41,166.2,178.41,166.59z"/>
		<path class="st0" d="M171.42,153.18c0.13-2.31-0.31-4.59,0.34-6.81c1.14-3.89,4.61-6.36,8.55-6.18c4.36,0.2,7.84,3.42,8.22,7.54
			c0.17,1.79,0.03,3.6,0.03,5.46C182.86,153.18,177.22,153.18,171.42,153.18z"/>
		<path class="st0" d="M178.41,166.59c0-0.39-0.03-0.78,0.01-1.16c0.05-0.65-0.12-1.13-0.62-1.63c-1.14-1.14-1.02-2.98,0.15-4.1
			c1.15-1.11,2.98-1.11,4.13,0c1.16,1.12,1.27,2.96,0.14,4.1c-0.5,0.5-0.62,1-0.6,1.64c0.03,0.93,0.02,1.86,0,2.79
			c-0.03,0.98-0.67,1.6-1.61,1.6c-0.93,0-1.57-0.64-1.6-1.61C178.39,167.68,178.4,167.13,178.41,166.59
			C178.4,166.59,178.4,166.59,178.41,166.59z"/>
	</g>
</g>
</svg>
