<?xml version="1.0" encoding="utf-8"?>
<!-- Generator: Adobe Illustrator 23.1.0, SVG Export Plug-In . SVG Version: 6.00 Build 0)  -->
<svg version="1.1" xmlns="http://www.w3.org/2000/svg" xmlns:xlink="http://www.w3.org/1999/xlink" x="0px" y="0px"
	 viewBox="0 0 360 359.81" style="enable-background:new 0 0 360 359.81;" xml:space="preserve">
<style type="text/css">
	.st0{fill:#FFFFFF;}
	.st1{fill:#0E6E39;}
	.st2{fill:#0C6E39;}
	.st3{fill:#4F497B;}
	.st4{fill:#216885;}
	.st5{fill:#F0492D;}
	.st6{fill:#EF3F25;}
	.st7{fill:#236886;}
	.st8{fill:#256887;}
	.st9{fill:#D2BF2D;}
	.st10{display:none;}
	.st11{display:inline;fill:none;stroke:#000000;stroke-width:0.25;stroke-miterlimit:10;}
	.st12{display:inline;fill:none;stroke:#FFFFFF;stroke-width:0.25;stroke-miterlimit:10;}
	.st13{display:inline;fill:none;stroke:#FFFFFF;stroke-width:0.25;stroke-linecap:round;stroke-miterlimit:10;}
	.st14{display:inline;fill:none;stroke:#000000;stroke-width:0.25;stroke-linecap:round;stroke-miterlimit:10;}
	.st15{fill:#4F4A7C;}
	.st16{fill:none;stroke:#FFFFFF;stroke-miterlimit:10;}
	.st17{stroke:#FFFFFF;stroke-miterlimit:10;}
	.st18{fill:none;stroke:#FFFFFF;stroke-width:3;stroke-miterlimit:10;}
	.st19{fill:none;stroke:#FFFFFF;stroke-linecap:round;stroke-miterlimit:10;}
	.st20{fill:none;stroke:#236886;stroke-width:5;stroke-miterlimit:10;}
	.st21{fill:none;stroke:#236886;stroke-width:5;stroke-linecap:round;stroke-miterlimit:10;}
	.st22{fill:none;stroke:#FFFFFF;stroke-width:5;stroke-miterlimit:10;}
	.st23{fill:none;stroke:#FFFFFF;stroke-width:5;stroke-linecap:round;stroke-miterlimit:10;}
	.st24{fill:none;stroke:#4F497B;stroke-width:3;stroke-miterlimit:10;}
	.st25{fill:none;stroke:#4F497B;stroke-miterlimit:10;}
	.st26{fill:#FFFFFF;stroke:#4F497B;stroke-miterlimit:10;}
	.st27{fill:#FFFFFF;stroke:#4F497B;stroke-width:2;stroke-miterlimit:10;}
	.st28{fill:none;stroke:#4F497B;stroke-width:2;stroke-linecap:round;stroke-miterlimit:10;}
	.st29{stroke:#FFFFFF;stroke-width:2;stroke-miterlimit:10;}
	.st30{fill:none;stroke:#FFFFFF;stroke-width:2;stroke-linecap:round;stroke-miterlimit:10;}
	.st31{fill:none;stroke:#0C6E39;stroke-width:3;stroke-miterlimit:10;}
	.st32{fill:none;stroke:#EF3F25;stroke-miterlimit:10;}
	.st33{fill:none;stroke:#EF3F25;stroke-width:3;stroke-miterlimit:10;}
	.st34{fill:none;stroke:#4F4A7C;stroke-width:3;stroke-miterlimit:10;}
	.st35{fill:none;stroke:#4F4A7C;stroke-width:5;stroke-linecap:round;stroke-miterlimit:10;}
	.st36{fill:none;stroke:#EF3F25;stroke-width:3;stroke-linecap:round;stroke-miterlimit:10;}
	.st37{fill:none;stroke:#EF3F25;stroke-width:5;stroke-linecap:round;stroke-miterlimit:10;}
	.st38{fill:none;stroke:#FFFFFF;stroke-width:3;stroke-linecap:round;stroke-miterlimit:10;}
	.st39{fill:none;stroke:#4F497B;stroke-width:5;stroke-linecap:round;stroke-miterlimit:10;}
	.st40{fill:#FFFFFF;stroke:#0E6E39;stroke-width:3;stroke-linejoin:round;stroke-miterlimit:10;}
	.st41{fill:none;stroke:#0E6E39;stroke-width:3;stroke-linejoin:round;stroke-miterlimit:10;}
	.st42{stroke:#FFFFFF;stroke-width:3;stroke-linejoin:round;stroke-miterlimit:10;}
	.st43{fill:none;stroke:#FFFFFF;stroke-width:3;stroke-linejoin:round;stroke-miterlimit:10;}
	.st44{fill:none;stroke:#0C6E39;stroke-width:5;stroke-linecap:round;stroke-miterlimit:10;}
	.st45{fill:none;stroke:#0C6E39;stroke-width:3;stroke-linecap:round;stroke-miterlimit:10;}
	.st46{fill:none;stroke:#0C6E39;stroke-linecap:round;stroke-linejoin:round;stroke-miterlimit:10;}
	.st47{fill:#0C6E39;stroke:#0C6E39;stroke-width:0;stroke-miterlimit:10;}
	.st48{fill:none;stroke:#0C6E39;stroke-width:3;stroke-linecap:round;stroke-linejoin:round;stroke-miterlimit:10;}
	.st49{fill:none;stroke:#0C6E39;stroke-linecap:round;stroke-miterlimit:10;}
	.st50{fill:none;stroke:#FFFFFF;stroke-linecap:round;stroke-linejoin:round;stroke-miterlimit:10;}
	.st51{fill:none;stroke:#FFFFFF;stroke-width:3;stroke-linecap:round;stroke-linejoin:round;stroke-miterlimit:10;}
	.st52{fill:none;stroke:#4F4A7C;stroke-miterlimit:10;}
	.st53{fill:#FFFFFF;stroke:#4F4A7C;stroke-width:2;stroke-miterlimit:10;}
	.st54{fill:#FFFFFF;stroke:#4F497B;stroke-width:5;stroke-miterlimit:10;}
	.st55{stroke:#FFFFFF;stroke-width:5;stroke-miterlimit:10;}
	.st56{fill:none;stroke:#EF3F25;stroke-width:2;stroke-linecap:round;stroke-miterlimit:10;}
	.st57{fill:none;stroke:#FFFFFF;stroke-width:1.5;stroke-miterlimit:10;}
	.st58{fill:none;stroke:#FFFFFF;stroke-width:1.5;stroke-linecap:round;stroke-miterlimit:10;}
	.st59{fill:none;stroke:#0E6E39;stroke-width:3;stroke-miterlimit:10;}
	.st60{fill:none;stroke:#0E6E39;stroke-width:1.5;stroke-miterlimit:10;}
	.st61{fill:none;stroke:#0E6E39;stroke-width:1.5;stroke-linecap:round;stroke-miterlimit:10;}
	.st62{fill:none;stroke:#EF3F25;stroke-width:0.7099;stroke-miterlimit:10;}
	.st63{fill:none;stroke:#FFFFFF;stroke-width:0.7099;stroke-miterlimit:10;}
	.st64{fill:#EF4025;}
	.st65{fill:#505050;stroke:#4F4A7C;stroke-width:2.9281;stroke-miterlimit:10;}
	.st66{fill:#FFFFFF;stroke:#FFFFFF;stroke-width:2.9281;stroke-miterlimit:10;}
	.st67{fill:none;stroke:#FFFFFF;stroke-width:3.2577;stroke-miterlimit:10;}
	.st68{fill:none;stroke:#FFFFFF;stroke-width:3.2577;stroke-linecap:round;stroke-linejoin:round;stroke-miterlimit:10;}
	.st69{fill:none;stroke:#256887;stroke-width:3.2577;stroke-miterlimit:10;}
	.st70{fill:none;stroke:#256887;stroke-width:3.2577;stroke-linecap:round;stroke-linejoin:round;stroke-miterlimit:10;}
	.st71{fill:#FFFFFF;stroke:#FFFFFF;stroke-width:2;stroke-miterlimit:10;}
	.st72{fill:#D2BF2D;stroke:#D2BF2D;stroke-width:2;stroke-miterlimit:10;}
	.st73{fill:#086E38;}
	.st74{fill:#256887;stroke:#256887;stroke-width:4;stroke-miterlimit:10;}
	.st75{fill:#FFFFFF;stroke:#FFFFFF;stroke-width:4;stroke-miterlimit:10;}
	.st76{fill:#4F4B7D;}
	.st77{fill:#256887;stroke:#256887;stroke-width:2.8997;stroke-miterlimit:10;}
	.st78{fill:#FFFFFF;stroke:#FFFFFF;stroke-width:2.8997;stroke-miterlimit:10;}
	.st79{fill:none;stroke:#FFFFFF;stroke-width:2.2399;stroke-miterlimit:10;}
	.st80{fill:none;stroke:#FFFFFF;stroke-width:2;stroke-miterlimit:10;}
	.st81{fill:none;stroke:#FFFFFF;stroke-width:1.4254;stroke-miterlimit:10;}
	.st82{fill:none;stroke:#EF4025;stroke-width:2.2399;stroke-miterlimit:10;}
	.st83{fill:none;stroke:#EF4025;stroke-width:2;stroke-miterlimit:10;}
	.st84{fill:none;stroke:#EF4025;stroke-width:1.4254;stroke-miterlimit:10;}
	.st85{fill:none;stroke:#4F497B;stroke-linecap:round;stroke-miterlimit:10;}
</style>
<g id="White">
	<rect x="0" class="st0" width="360.29" height="360.29"/>
</g>
<g id="BACKGROUND">
	<rect x="0.29" y="336.03" class="st3" width="359.71" height="23.94"/>
	<g>
		<path class="st0" d="M312.09,346.26c0,0.36,0.16,0.62,0.47,0.77c0.31,0.16,0.81,0.29,1.49,0.4c1,0.17,1.73,0.44,2.2,0.83
			c0.47,0.38,0.7,0.96,0.7,1.72c0,0.41-0.08,0.77-0.25,1.1c-0.17,0.32-0.4,0.6-0.7,0.83c-0.3,0.23-0.66,0.4-1.07,0.53
			c-0.42,0.12-0.87,0.19-1.35,0.19c-0.53,0-1-0.07-1.43-0.21s-0.78-0.33-1.08-0.56c-0.3-0.23-0.53-0.5-0.7-0.82
			c-0.17-0.31-0.26-0.64-0.28-0.97l1.8-0.29c0.04,0.41,0.2,0.74,0.47,1s0.68,0.39,1.21,0.39c0.22,0,0.42-0.02,0.61-0.06
			s0.35-0.11,0.49-0.2c0.14-0.09,0.25-0.21,0.33-0.34s0.12-0.3,0.12-0.49c0-0.31-0.13-0.55-0.39-0.72s-0.72-0.3-1.37-0.41
			c-0.44-0.07-0.85-0.16-1.22-0.28c-0.38-0.11-0.7-0.27-0.98-0.46c-0.28-0.2-0.49-0.44-0.65-0.73s-0.23-0.65-0.23-1.07
			s0.08-0.79,0.24-1.1c0.16-0.31,0.38-0.57,0.67-0.79c0.29-0.21,0.63-0.37,1.02-0.47c0.39-0.1,0.82-0.16,1.28-0.16
			c0.43,0,0.83,0.05,1.21,0.15s0.71,0.25,1,0.44c0.29,0.2,0.53,0.44,0.73,0.73c0.19,0.29,0.32,0.62,0.4,0.98l-1.82,0.4
			c-0.06-0.38-0.23-0.69-0.49-0.91c-0.26-0.22-0.62-0.34-1.07-0.34c-0.46,0-0.79,0.08-1.01,0.25S312.09,345.98,312.09,346.26z"/>
		<path class="st0" d="M318.81,344.06h6.66v1.5h-2.42v6.9h-1.81v-6.9h-2.42V344.06z"/>
		<path class="st0" d="M334.32,352.46h-1.86l-0.67-1.94h-3.01l-0.67,1.94h-1.76l3.02-8.4h1.93L334.32,352.46z M330.27,346.02
			c-0.02,0.06-0.04,0.16-0.08,0.28c-0.04,0.13-0.08,0.26-0.13,0.42c-0.05,0.16-0.1,0.32-0.16,0.5c-0.06,0.18-0.12,0.35-0.17,0.52
			c-0.14,0.42-0.28,0.86-0.44,1.33h2.03c-0.16-0.47-0.31-0.92-0.44-1.33c-0.09-0.24-0.16-0.44-0.21-0.59
			c-0.05-0.16-0.1-0.31-0.14-0.45c-0.04-0.14-0.09-0.28-0.13-0.4c-0.04-0.12-0.07-0.22-0.08-0.28H330.27z"/>
		<path class="st0" d="M336.8,352.46v-8.4h5.74v1.49h-3.97v1.85h3.66v1.49h-3.66v3.58H336.8z"/>
		<path class="st0" d="M345.23,352.46v-8.4h5.74v1.49h-3.97v1.85h3.66v1.49h-3.66v3.58H345.23z"/>
	</g>
</g>
<g id="REF" class="st10">
	<rect x="11" y="90.3" class="st11" width="360" height="108"/>
	<line class="st14" x1="191" y1="0.16" x2="191" y2="360.03"/>
</g>
<g id="LINE_ONE">
	<g>
		<path class="st15" d="M107.77,241.13c0-1.13,0.16-2.15,0.49-3.05c0.33-0.9,0.79-1.66,1.38-2.29c0.59-0.63,1.31-1.11,2.15-1.44
			c0.84-0.33,1.77-0.5,2.8-0.5c1.03,0,1.96,0.17,2.8,0.5c0.84,0.33,1.56,0.81,2.15,1.44s1.05,1.39,1.38,2.29
			c0.33,0.9,0.49,1.92,0.49,3.05c0,1.13-0.16,2.15-0.49,3.05c-0.33,0.9-0.79,1.66-1.38,2.29c-0.59,0.63-1.31,1.11-2.15,1.44
			s-1.77,0.5-2.8,0.5c-1.03,0-1.96-0.17-2.8-0.5c-0.84-0.33-1.56-0.81-2.15-1.44c-0.59-0.63-1.05-1.39-1.38-2.29
			C107.93,243.28,107.77,242.26,107.77,241.13z M110.87,241.13c0,0.71,0.08,1.36,0.23,1.95c0.15,0.59,0.38,1.1,0.69,1.52
			s0.69,0.75,1.16,0.98c0.47,0.23,1.01,0.35,1.64,0.35s1.17-0.12,1.64-0.35s0.85-0.56,1.16-0.98s0.54-0.93,0.69-1.52
			c0.15-0.59,0.23-1.24,0.23-1.95s-0.08-1.36-0.23-1.95c-0.15-0.59-0.38-1.1-0.69-1.52s-0.69-0.75-1.16-0.98s-1.01-0.35-1.64-0.35
			s-1.17,0.12-1.64,0.35c-0.47,0.23-0.85,0.56-1.16,0.98s-0.54,0.93-0.69,1.52C110.95,239.77,110.87,240.42,110.87,241.13z"/>
		<path class="st15" d="M126.11,248.13v-14h9.58v2.48h-6.62v3.08h6.1v2.48h-6.1v5.96H126.11z"/>
		<path class="st15" d="M140.17,248.13v-14h9.58v2.48h-6.62v3.08h6.1v2.48h-6.1v5.96H140.17z"/>
		<path class="st15" d="M163.65,237.81c0,0.6,0.26,1.03,0.78,1.29c0.52,0.26,1.35,0.48,2.48,0.67c1.67,0.28,2.89,0.74,3.67,1.38
			c0.78,0.64,1.17,1.59,1.17,2.86c0,0.68-0.14,1.29-0.42,1.83s-0.67,1-1.17,1.38s-1.1,0.67-1.79,0.88
			c-0.69,0.21-1.45,0.31-2.26,0.31c-0.88,0-1.67-0.12-2.38-0.35c-0.71-0.23-1.31-0.54-1.8-0.93c-0.49-0.39-0.88-0.84-1.16-1.36
			c-0.28-0.52-0.43-1.06-0.46-1.62l3-0.48c0.07,0.68,0.33,1.24,0.79,1.67c0.46,0.43,1.13,0.65,2.01,0.65c0.36,0,0.7-0.03,1.01-0.1
			c0.31-0.07,0.59-0.18,0.82-0.33c0.23-0.15,0.42-0.34,0.55-0.57s0.2-0.5,0.2-0.82c0-0.52-0.22-0.92-0.65-1.2s-1.2-0.51-2.29-0.68
			c-0.73-0.12-1.41-0.27-2.04-0.46s-1.17-0.44-1.63-0.77c-0.46-0.33-0.82-0.73-1.08-1.22c-0.26-0.49-0.39-1.08-0.39-1.79
			c0-0.71,0.13-1.32,0.4-1.84c0.27-0.52,0.64-0.96,1.12-1.31c0.48-0.35,1.05-0.62,1.7-0.79c0.65-0.17,1.37-0.26,2.14-0.26
			c0.72,0,1.39,0.08,2.02,0.25c0.63,0.17,1.18,0.41,1.67,0.74c0.49,0.33,0.89,0.73,1.21,1.21c0.32,0.48,0.54,1.03,0.66,1.64
			l-3.04,0.66c-0.11-0.64-0.38-1.15-0.82-1.52c-0.44-0.37-1.03-0.56-1.78-0.56c-0.76,0-1.32,0.14-1.69,0.42
			C163.83,236.97,163.65,237.34,163.65,237.81z"/>
		<path class="st15" d="M174.85,234.13h11.1v2.5h-4.04v11.5h-3.02v-11.5h-4.04V234.13z"/>
		<path class="st15" d="M200.73,248.13h-3.1l-1.12-3.24h-5.02l-1.12,3.24h-2.94l5.04-14h3.22L200.73,248.13z M193.97,237.41
			c-0.03,0.11-0.07,0.26-0.14,0.47c-0.07,0.21-0.14,0.44-0.22,0.7s-0.17,0.54-0.27,0.84s-0.2,0.59-0.29,0.87
			c-0.23,0.69-0.47,1.43-0.74,2.22h3.38c-0.27-0.79-0.51-1.53-0.74-2.22c-0.15-0.4-0.26-0.73-0.35-0.99
			c-0.09-0.26-0.17-0.51-0.24-0.75c-0.07-0.24-0.14-0.46-0.21-0.67c-0.07-0.21-0.11-0.36-0.14-0.47H193.97z"/>
		<path class="st15" d="M209.89,240.37h6.44v7.76h-2.72v-1.44c-0.31,0.48-0.76,0.89-1.36,1.22c-0.6,0.33-1.38,0.5-2.34,0.5
			c-1.04,0-1.96-0.19-2.75-0.57s-1.45-0.9-1.98-1.55c-0.53-0.65-0.92-1.42-1.19-2.3c-0.27-0.88-0.4-1.82-0.4-2.82
			c0-1.08,0.16-2.07,0.47-2.96c0.31-0.89,0.77-1.66,1.37-2.31c0.6-0.65,1.33-1.15,2.19-1.51c0.86-0.36,1.84-0.54,2.93-0.54
			c1.41,0,2.62,0.31,3.62,0.93c1,0.62,1.75,1.54,2.26,2.75l-2.78,1.14c-0.27-0.75-0.67-1.32-1.22-1.73c-0.55-0.41-1.21-0.61-2-0.61
			c-1.13,0-2.04,0.42-2.72,1.25s-1.02,2.06-1.02,3.69c0,3.12,1.23,4.68,3.7,4.68c0.36,0,0.72-0.05,1.08-0.15s0.69-0.25,0.99-0.46
			c0.3-0.21,0.54-0.47,0.73-0.79c0.19-0.32,0.28-0.71,0.28-1.16v-0.64h-3.58V240.37z"/>
		<path class="st15" d="M221.55,248.13v-14h9.54v2.48h-6.58v3.08h6.12v2.48h-6.12v3.48h6.68v2.48H221.55z"/>
		<path class="st15" d="M242.09,240.47h3.86v-3.88h2.28v3.88h3.86v2.28h-3.86v3.98h-2.28v-3.98h-3.86V240.47z"/>
	</g>
</g>
<g id="LINE_TWO">
	<g>
		<path class="st15" d="M123.89,258.91c0-1.13,0.16-2.15,0.49-3.05c0.33-0.9,0.79-1.66,1.38-2.29s1.31-1.11,2.15-1.44
			c0.84-0.33,1.77-0.5,2.8-0.5s1.96,0.17,2.8,0.5c0.84,0.33,1.56,0.81,2.15,1.44c0.59,0.63,1.05,1.39,1.38,2.29
			c0.33,0.9,0.49,1.92,0.49,3.05c0,1.13-0.16,2.15-0.49,3.05c-0.33,0.9-0.79,1.66-1.38,2.29c-0.59,0.63-1.31,1.11-2.15,1.44
			s-1.77,0.5-2.8,0.5s-1.96-0.17-2.8-0.5s-1.56-0.81-2.15-1.44c-0.59-0.63-1.05-1.39-1.38-2.29
			C124.05,261.06,123.89,260.05,123.89,258.91z M126.99,258.91c0,0.71,0.08,1.36,0.23,1.95c0.15,0.59,0.38,1.1,0.69,1.52
			s0.69,0.75,1.16,0.98c0.47,0.23,1.01,0.35,1.64,0.35c0.63,0,1.17-0.12,1.64-0.35s0.85-0.56,1.16-0.98s0.54-0.93,0.69-1.52
			c0.15-0.59,0.23-1.24,0.23-1.95s-0.08-1.36-0.23-1.95c-0.15-0.59-0.38-1.1-0.69-1.52s-0.69-0.75-1.16-0.98s-1.01-0.35-1.64-0.35
			c-0.63,0-1.17,0.12-1.64,0.35c-0.47,0.23-0.85,0.56-1.16,0.98s-0.54,0.93-0.69,1.52C127.07,257.56,126.99,258.21,126.99,258.91z"
			/>
		<path class="st15" d="M142.23,251.91h3.12c0.81,1.32,1.59,2.57,2.32,3.76c0.44,0.71,0.8,1.29,1.08,1.75
			c0.28,0.46,0.56,0.92,0.84,1.37c0.28,0.45,0.55,0.88,0.8,1.29c0.25,0.41,0.47,0.75,0.64,1.03h0.06v-9.2h2.84v14h-3.12
			c-0.8-1.29-1.56-2.53-2.28-3.7c-0.43-0.69-0.78-1.27-1.07-1.73c-0.29-0.46-0.57-0.92-0.85-1.38c-0.28-0.46-0.55-0.9-0.81-1.32
			c-0.26-0.42-0.48-0.78-0.67-1.07h-0.06v9.2h-2.84V251.91z"/>
		<path class="st15" d="M168.63,255.59c0,0.6,0.26,1.03,0.78,1.29c0.52,0.26,1.35,0.48,2.48,0.67c1.67,0.28,2.89,0.74,3.67,1.38
			c0.78,0.64,1.17,1.59,1.17,2.86c0,0.68-0.14,1.29-0.42,1.83c-0.28,0.54-0.67,1-1.17,1.38s-1.1,0.67-1.79,0.88
			c-0.69,0.21-1.45,0.31-2.26,0.31c-0.88,0-1.67-0.12-2.38-0.35c-0.71-0.23-1.31-0.54-1.8-0.93s-0.88-0.84-1.16-1.36
			c-0.28-0.52-0.43-1.06-0.46-1.62l3-0.48c0.07,0.68,0.33,1.24,0.79,1.67c0.46,0.43,1.13,0.65,2.01,0.65c0.36,0,0.7-0.03,1.01-0.1
			c0.31-0.07,0.59-0.18,0.82-0.33c0.23-0.15,0.42-0.34,0.55-0.57c0.13-0.23,0.2-0.5,0.2-0.82c0-0.52-0.22-0.92-0.65-1.2
			c-0.43-0.28-1.2-0.51-2.29-0.68c-0.73-0.12-1.41-0.27-2.04-0.46s-1.17-0.44-1.63-0.77c-0.46-0.33-0.82-0.73-1.08-1.22
			c-0.26-0.49-0.39-1.08-0.39-1.79c0-0.71,0.13-1.32,0.4-1.84c0.27-0.52,0.64-0.96,1.12-1.31c0.48-0.35,1.05-0.62,1.7-0.79
			c0.65-0.17,1.37-0.26,2.14-0.26c0.72,0,1.39,0.08,2.02,0.25c0.63,0.17,1.18,0.41,1.67,0.74c0.49,0.33,0.89,0.73,1.21,1.21
			c0.32,0.48,0.54,1.03,0.66,1.64l-3.04,0.66c-0.11-0.64-0.38-1.15-0.82-1.52s-1.03-0.56-1.78-0.56c-0.76,0-1.32,0.14-1.69,0.42
			C168.81,254.75,168.63,255.13,168.63,255.59z"/>
		<path class="st15" d="M179.83,251.91h11.1v2.5h-4.04v11.5h-3.02v-11.5h-4.04V251.91z"/>
		<path class="st15" d="M205.71,265.91h-3.1l-1.12-3.24h-5.02l-1.12,3.24h-2.94l5.04-14h3.22L205.71,265.91z M198.95,255.19
			c-0.03,0.11-0.07,0.26-0.14,0.47s-0.14,0.44-0.22,0.7c-0.08,0.26-0.17,0.54-0.27,0.84s-0.2,0.59-0.29,0.87
			c-0.23,0.69-0.47,1.43-0.74,2.22h3.38c-0.27-0.79-0.51-1.53-0.74-2.22c-0.15-0.4-0.26-0.73-0.35-0.99
			c-0.09-0.26-0.17-0.51-0.24-0.75c-0.07-0.24-0.14-0.46-0.21-0.67s-0.11-0.36-0.14-0.47H198.95z"/>
		<path class="st15" d="M214.87,258.15h6.44v7.76h-2.72v-1.44c-0.31,0.48-0.76,0.89-1.36,1.22c-0.6,0.33-1.38,0.5-2.34,0.5
			c-1.04,0-1.96-0.19-2.75-0.57s-1.45-0.9-1.98-1.55c-0.53-0.65-0.92-1.42-1.19-2.3c-0.27-0.88-0.4-1.82-0.4-2.82
			c0-1.08,0.16-2.07,0.47-2.96c0.31-0.89,0.77-1.66,1.37-2.31c0.6-0.65,1.33-1.15,2.19-1.51c0.86-0.36,1.84-0.54,2.93-0.54
			c1.41,0,2.62,0.31,3.62,0.93c1,0.62,1.75,1.54,2.26,2.75l-2.78,1.14c-0.27-0.75-0.67-1.32-1.22-1.73c-0.55-0.41-1.21-0.61-2-0.61
			c-1.13,0-2.04,0.42-2.72,1.25c-0.68,0.83-1.02,2.06-1.02,3.69c0,3.12,1.23,4.68,3.7,4.68c0.36,0,0.72-0.05,1.08-0.15
			s0.69-0.25,0.99-0.46c0.3-0.21,0.54-0.47,0.73-0.79c0.19-0.32,0.28-0.71,0.28-1.16v-0.64h-3.58V258.15z"/>
		<path class="st15" d="M226.53,265.91v-14h9.54v2.48h-6.58v3.08h6.12v2.48h-6.12v3.48h6.68v2.48H226.53z"/>
	</g>
</g>
<g id="ICON">
	<g>
		<path class="st15" d="M88.95,131.72c0.58-1.72,1.05-3.5,1.78-5.16c2.3-5.28,5.92-9.62,10.57-12.88c4.5-3.16,9.16-6.24,14.13-8.56
			c5.65-2.64,11.61-4.72,17.61-6.42c6.46-1.83,13.09-3.1,19.71-4.28c3.96-0.71,8.03-0.94,12.06-1.13
			c7.37-0.35,14.74-0.75,22.11-0.66c5.31,0.06,10.61,0.89,15.92,1.33c7.38,0.61,14.61,2.1,21.77,3.94
			c10.62,2.73,20.76,6.63,30.03,12.63c6.18,4,11.53,8.79,14.75,15.55c0.85,1.79,1.32,3.76,1.97,5.65c0,20.9,0,41.8,0,62.7
			c-0.75,0.24-1.5,0.67-2.26,0.68c-15.08,0.04-30.15,0.04-45.23,0c-0.87,0-2.31-0.3-2.47-0.79c-0.27-0.83-0.03-2.14,0.51-2.88
			c3.33-4.56,6.72-9.1,10.28-13.48c1.28-1.57,1.29-2.97,0.77-4.71c-1.88-6.25-6.26-10.48-11.39-14.03
			c-7.39-5.11-15.75-7.9-24.55-9.29c-4.44-0.7-8.93-1.12-13.42-1.4c-3.56-0.22-7.17-0.3-10.72,0.01
			c-8.78,0.76-17.35,2.45-25.52,5.96c-4.82,2.07-9.35,4.61-13.13,8.16c-4.14,3.88-7.38,8.53-7.45,14.52
			c-0.01,1.14,1.18,2.36,1.98,3.42c2.73,3.64,5.57,7.19,8.25,10.86c0.48,0.66,0.81,1.9,0.5,2.52c-0.3,0.62-1.5,1.12-2.31,1.12
			c-14.66,0.07-29.32,0.06-43.98,0.02c-0.75,0-1.5-0.44-2.26-0.68C88.95,173.52,88.95,152.62,88.95,131.72z M267.7,137.91
			c-13.71,17.91-27.15,35.48-40.71,53.2c13.79,0,27.24,0,40.71,0C267.7,173.45,267.7,155.91,267.7,137.91z M131.85,191.14
			c-13.13-17.36-26.12-34.53-39.25-51.9c0,17.48,0,34.65,0,51.9C105.6,191.14,118.51,191.14,131.85,191.14z M224.62,114.41
			c-13.94-3.97-28.08-5.98-42.6-5.88c0,3.42,0,6.64,0,9.84c1.96,0.18,3.82,0.37,5.68,0.52c4.37,0.36,8.79,0.45,13.11,1.13
			c6.29,0.99,12.52,2.42,18.79,3.58c0.47,0.09,1.37-0.27,1.54-0.66C222.37,120.14,223.47,117.27,224.62,114.41z M178.31,108.52
			c-14.57-0.02-28.62,2-42.49,6.23c1.3,3.29,2.51,6.34,3.71,9.38c12.73-3.68,25.64-5.32,38.78-5.67
			C178.31,115.14,178.31,111.96,178.31,108.52z M224.55,125.05c0.72,0.37,1.28,0.69,1.86,0.95c4.11,1.9,8.31,3.61,12.31,5.71
			c4.68,2.46,8.78,5.78,11.87,10.12c1.52,2.13,2.69,4.49,3.99,6.69c1.19-1.49,2.5-3.06,3.72-4.68c0.75-0.99,1.08-1.98,0.73-3.38
			c-1.36-5.37-4.28-9.56-8.52-13.08c-6.56-5.45-14.13-8.85-22.17-11.74C227.09,118.76,225.85,121.82,224.55,125.05z M105.33,149.48
			c2.47-6.97,7.17-11.48,12.67-15.35c5.42-3.8,11.41-6.42,17.85-8.77c-1.28-3.18-2.54-6.31-3.8-9.45c-2.86,1.15-5.42,2.09-7.89,3.21
			c-5.16,2.34-10.09,5.13-14.41,8.8c-3.55,3.02-6.65,6.48-8.18,11.01c-0.49,1.46-1.22,3.37-0.68,4.55
			C101.86,145.63,103.7,147.38,105.33,149.48z M178.3,96.4c-16.04,0.06-31.61,2.19-47.02,6.72c1.09,2.79,2.09,5.35,2.94,7.52
			c7.36-1.5,14.52-3.29,21.78-4.34c7.34-1.07,14.79-1.41,22.29-2.08C178.3,101.87,178.3,99.28,178.3,96.4z M181.99,104.28
			c7.55,0.61,14.96,0.88,22.26,1.89c7.27,1.01,14.43,2.76,21.84,4.22c0.39-0.9,0.94-2.1,1.42-3.33c0.49-1.26,0.92-2.54,1.43-3.97
			c-15.45-4.5-31-6.66-46.95-6.67C181.99,99.24,181.99,101.83,181.99,104.28z M97.3,138.81c0.19-0.17,0.33-0.23,0.36-0.33
			c1.64-4.99,4.65-8.99,8.54-12.51c3.76-3.4,7.89-6.19,12.36-8.46c3.91-1.98,7.99-3.6,12.04-5.4c-1.02-2.59-2.05-5.2-3.11-7.91
			c-2.86,1.21-5.63,2.39-8.41,3.54c-7.75,3.21-14.77,7.54-20.46,13.78c-2.82,3.09-4.78,6.7-5.72,10.82c-0.08,0.33-0.1,0.8,0.08,1.03
			C94.39,135.21,95.85,137,97.3,138.81z M236.65,171.97c2.21-2.85,4.36-5.59,6.46-8.37c0.2-0.26,0.13-0.74,0.13-1.12
			c-0.05-3.15-1.52-5.72-3.48-7.99c-5.47-6.35-12.75-9.84-20.43-12.66c-0.97-0.35-1.44-0.02-1.75,0.81
			c-1.03,2.75-2.06,5.49-3.11,8.29C224.1,155.48,232.84,160.94,236.65,171.97z M137.27,129.01c-6.88,2.45-13.33,5.44-19.11,9.8
			c-4.13,3.1-7.39,6.8-9.01,11.75c-0.37,1.14-0.74,2.73-0.24,3.63c1.19,2.14,2.91,3.99,4.41,5.95
			c5.33-12.25,16.25-17.28,27.56-21.88C139.67,135.18,138.48,132.11,137.27,129.01z M142.35,141.95
			c-6.37,2.32-12.26,5.13-17.48,9.23c-3.76,2.95-6.82,6.4-7.9,11.18c-0.23,1-0.02,2.39,0.54,3.23c1.76,2.65,3.79,5.13,5.82,7.81
			c1.33-5.66,4.26-10.31,8.59-13.77c4.29-3.42,9.09-6.2,13.72-9.3C144.67,147.86,143.53,144.96,142.35,141.95z M229.73,112.01
			c7.8,2.65,15.14,5.99,21.58,10.98c4.87,3.77,9.03,8.17,10.87,14.3c0.08,0.27,0.32,0.49,0.53,0.79c1.36-1.86,2.68-3.56,3.86-5.34
			c0.34-0.51,0.59-1.44,0.36-1.91c-1.47-2.95-2.69-6.14-4.74-8.64c-4.19-5.12-9.56-8.95-15.53-11.83
			c-4.54-2.19-9.18-4.17-13.82-6.26C231.75,106.85,230.76,109.38,229.73,112.01z M144.5,136.79c5.74-1.18,11.2-2.56,16.75-3.38
			c5.6-0.83,11.29-1.12,17.01-1.66c0-2.95,0-6.06,0-9.35c-12.71,0.27-25.12,1.74-37.26,5.47
			C142.24,131.03,143.41,133.99,144.5,136.79z M219.5,127.32c-6.34-1.18-12.42-2.43-18.54-3.42c-6.24-1.02-12.54-1.53-18.92-1.43
			c0,3.29,0,6.4,0,9.57c11.52,0.08,22.75,1.58,33.82,4.61C217.06,133.56,218.2,130.66,219.5,127.32z M219.63,137.7
			c11.13,4.49,22.05,9.07,27.03,21.13c1.1-1.36,2.37-2.74,3.4-4.28c0.54-0.81,1.05-1.96,0.9-2.85c-0.62-3.77-2.53-6.97-5.15-9.7
			c-6.3-6.54-14.31-10.16-22.72-13.15C221.94,131.8,220.82,134.65,219.63,137.7z M214.4,140.31c-10.64-2.96-21.39-4.41-32.39-4.42
			c0,2.74,0,5.62,0,8.6c9.89,0.17,19.47,1.77,28.79,5.05C212.02,146.41,213.16,143.51,214.4,140.31z M149.48,149.52
			c9.41-3.26,18.98-4.89,28.77-5.03c0-3.05,0-5.91,0-8.61c-11.01,0.1-21.68,1.69-32.18,4.86
			C147.2,143.64,148.32,146.52,149.48,149.52z"/>
		<path class="st15" d="M180.2,160.78c8.48-0.14,16.67,1.25,24.48,4.5c4.5,1.87,8.7,4.31,10.99,8.98c1.97,4.01,1.13,8.44-1.95,11.74
			c-4.69,5.02-10.82,7.14-17.19,8.75c-6.76,1.71-13.7,2.17-20.63,1.75c-8.23-0.5-16.32-1.94-23.64-6.05
			c-4.1-2.31-7.63-5.23-8.61-10.24c-0.58-2.97,0.46-5.55,2.13-7.84c3.17-4.33,7.82-6.5,12.71-8.19c4.46-1.55,9.03-2.65,13.78-2.89
			C174.92,161.15,177.56,160.95,180.2,160.78z M180.12,192.99c4.3-0.47,8.66-0.67,12.9-1.48c5.7-1.1,11.32-2.64,16.02-6.36
			c4.12-3.26,5.77-7.72,1.1-11.79c-1.94-1.69-4.21-3.1-6.54-4.2c-5.96-2.82-12.36-3.99-18.92-4.29c-2.67-0.12-5.37-0.16-8.04,0.01
			c-3.26,0.21-6.54,0.46-9.74,1.08c-5.47,1.07-10.9,2.54-15.37,6.07c-5.47,4.32-5.56,8.42-0.65,12.83
			c3.27,2.93,7.39,4.46,11.53,5.54C168.17,191.92,174.05,193.03,180.12,192.99z"/>
		<path class="st0" d="M267.7,137.91c0,18.01,0,35.54,0,53.2c-13.47,0-26.92,0-40.71,0C240.54,173.39,253.99,155.82,267.7,137.91z"
			/>
		<path class="st0" d="M131.85,191.14c-13.34,0-26.25,0-39.25,0c0-17.25,0-34.41,0-51.9C105.73,156.61,118.72,173.78,131.85,191.14z
			"/>
		<path class="st0" d="M224.62,114.41c-1.15,2.86-2.24,5.73-3.48,8.54c-0.17,0.39-1.06,0.75-1.54,0.66
			c-6.27-1.17-12.49-2.6-18.79-3.58c-4.32-0.68-8.74-0.77-13.11-1.13c-1.86-0.15-3.72-0.34-5.68-0.52c0-3.2,0-6.42,0-9.84
			C196.54,108.43,210.68,110.44,224.62,114.41z"/>
		<path class="st0" d="M178.31,108.52c0,3.43,0,6.62,0,9.93c-13.14,0.35-26.05,1.99-38.78,5.67c-1.2-3.03-2.41-6.08-3.71-9.38
			C149.69,110.52,163.74,108.51,178.31,108.52z"/>
		<path class="st0" d="M224.55,125.05c1.3-3.23,2.54-6.29,3.8-9.4c8.04,2.89,15.61,6.29,22.17,11.74c4.24,3.52,7.16,7.72,8.52,13.08
			c0.35,1.41,0.02,2.4-0.73,3.38c-1.23,1.62-2.53,3.19-3.72,4.68c-1.3-2.2-2.48-4.57-3.99-6.69c-3.1-4.34-7.19-7.66-11.87-10.12
			c-4-2.1-8.2-3.82-12.31-5.71C225.83,125.73,225.27,125.42,224.55,125.05z"/>
		<path class="st0" d="M105.33,149.48c-1.63-2.1-3.47-3.85-4.45-5.99c-0.54-1.18,0.19-3.08,0.68-4.55c1.53-4.53,4.63-8,8.18-11.01
			c4.32-3.68,9.25-6.46,14.41-8.8c2.48-1.12,5.04-2.06,7.89-3.21c1.27,3.15,2.52,6.27,3.8,9.45c-6.44,2.34-12.43,4.96-17.85,8.77
			C112.5,138,107.8,142.51,105.33,149.48z"/>
		<path class="st0" d="M178.3,96.4c0,2.88,0,5.46,0,7.83c-7.5,0.67-14.95,1.01-22.29,2.08c-7.26,1.06-14.42,2.84-21.78,4.34
			c-0.85-2.17-1.85-4.73-2.94-7.52C146.69,98.59,162.25,96.47,178.3,96.4z"/>
		<path class="st0" d="M181.99,104.28c0-2.45,0-5.04,0-7.87c15.95,0.01,31.51,2.18,46.95,6.67c-0.51,1.43-0.94,2.71-1.43,3.97
			c-0.48,1.23-1.04,2.44-1.42,3.33c-7.41-1.46-14.57-3.22-21.84-4.22C196.95,105.16,189.54,104.89,181.99,104.28z"/>
		<path class="st0" d="M97.3,138.81c-1.45-1.81-2.91-3.59-4.32-5.42c-0.18-0.23-0.15-0.71-0.08-1.03c0.94-4.11,2.91-7.72,5.72-10.82
			c5.69-6.24,12.71-10.57,20.46-13.78c2.78-1.15,5.55-2.34,8.41-3.54c1.07,2.71,2.1,5.33,3.11,7.91c-4.05,1.8-8.14,3.42-12.04,5.4
			c-4.47,2.26-8.61,5.05-12.36,8.46c-3.89,3.52-6.9,7.52-8.54,12.51C97.63,138.57,97.49,138.64,97.3,138.81z"/>
		<path class="st0" d="M236.65,171.97c-3.81-11.03-12.56-16.49-22.18-21.04c1.05-2.8,2.07-5.54,3.11-8.29
			c0.31-0.83,0.78-1.16,1.75-0.81c7.69,2.81,14.96,6.31,20.43,12.66c1.96,2.27,3.43,4.85,3.48,7.99c0.01,0.38,0.07,0.86-0.13,1.12
			C241.01,166.38,238.86,169.13,236.65,171.97z"/>
		<path class="st0" d="M137.27,129.01c1.2,3.09,2.4,6.17,3.6,9.25c-11.31,4.59-22.23,9.63-27.56,21.88
			c-1.5-1.96-3.21-3.81-4.41-5.95c-0.5-0.9-0.14-2.49,0.24-3.63c1.62-4.95,4.88-8.64,9.01-11.75
			C123.94,134.46,130.39,131.46,137.27,129.01z"/>
		<path class="st0" d="M142.35,141.95c1.18,3.02,2.32,5.92,3.28,8.38c-4.63,3.1-9.43,5.87-13.72,9.3c-4.32,3.45-7.25,8.1-8.59,13.77
			c-2.03-2.68-4.05-5.16-5.82-7.81c-0.56-0.84-0.77-2.23-0.54-3.23c1.08-4.78,4.15-8.23,7.9-11.18
			C130.1,147.08,135.98,144.27,142.35,141.95z"/>
		<path class="st0" d="M229.73,112.01c1.03-2.63,2.02-5.15,3.11-7.93c4.64,2.09,9.28,4.07,13.82,6.26
			c5.96,2.88,11.34,6.7,15.53,11.83c2.05,2.5,3.27,5.7,4.74,8.64c0.24,0.47-0.02,1.4-0.36,1.91c-1.18,1.79-2.5,3.49-3.86,5.34
			c-0.21-0.3-0.45-0.52-0.53-0.79c-1.84-6.12-6-10.53-10.87-14.3C244.87,118,237.53,114.66,229.73,112.01z"/>
		<path class="st0" d="M144.5,136.79c-1.1-2.79-2.26-5.76-3.5-8.91c12.14-3.73,24.55-5.2,37.26-5.47c0,3.29,0,6.4,0,9.35
			c-5.73,0.53-11.41,0.82-17.01,1.66C155.71,134.23,150.24,135.61,144.5,136.79z"/>
		<path class="st0" d="M219.5,127.32c-1.31,3.34-2.45,6.25-3.65,9.33c-11.07-3.03-22.3-4.53-33.82-4.61c0-3.17,0-6.28,0-9.57
			c6.38-0.1,12.68,0.42,18.92,1.43C207.09,124.89,213.17,126.14,219.5,127.32z"/>
		<path class="st0" d="M219.63,137.7c1.19-3.05,2.31-5.9,3.46-8.84c8.41,2.99,16.42,6.6,22.72,13.15c2.62,2.72,4.52,5.93,5.15,9.7
			c0.15,0.89-0.36,2.04-0.9,2.85c-1.03,1.54-2.3,2.92-3.4,4.28C241.68,146.76,230.76,142.19,219.63,137.7z"/>
		<path class="st0" d="M214.4,140.31c-1.25,3.2-2.38,6.1-3.6,9.24c-9.32-3.28-18.9-4.88-28.79-5.05c0-2.98,0-5.86,0-8.6
			C193.01,135.9,203.76,137.35,214.4,140.31z"/>
		<path class="st0" d="M149.48,149.52c-1.16-3-2.28-5.88-3.41-8.78c10.5-3.17,21.17-4.76,32.18-4.86c0,2.7,0,5.57,0,8.61
			C168.46,144.63,158.89,146.26,149.48,149.52z"/>
		<path class="st0" d="M180.12,192.99c-6.07,0.04-11.96-1.07-17.72-2.58c-4.13-1.08-8.26-2.61-11.53-5.54
			c-4.91-4.41-4.82-8.51,0.65-12.83c4.47-3.54,9.9-5.01,15.37-6.07c3.2-0.62,6.48-0.87,9.74-1.08c2.67-0.17,5.36-0.14,8.04-0.01
			c6.55,0.3,12.95,1.47,18.92,4.29c2.33,1.1,4.6,2.52,6.54,4.2c4.67,4.06,3.02,8.52-1.1,11.79c-4.69,3.71-10.32,5.26-16.02,6.36
			C188.78,192.32,184.42,192.52,180.12,192.99z"/>
	</g>
</g>
</svg>
