<?xml version="1.0" encoding="utf-8"?>
<!-- Generator: Adobe Illustrator 23.1.0, SVG Export Plug-In . SVG Version: 6.00 Build 0)  -->
<svg version="1.1" xmlns="http://www.w3.org/2000/svg" xmlns:xlink="http://www.w3.org/1999/xlink" x="0px" y="0px"
	 viewBox="0 0 360 360" style="enable-background:new 0 0 360 360;" xml:space="preserve">
<style type="text/css">
	.st0{fill:#FFFFFF;}
	.st1{fill:#0E6E39;}
	.st2{fill:#0C6E39;}
	.st3{fill:#4F497B;}
	.st4{fill:#216885;}
	.st5{fill:#F0492D;}
	.st6{fill:#EF3F25;}
	.st7{fill:#236886;}
	.st8{fill:#256887;}
	.st9{fill:#D2BF2D;}
	.st10{display:none;}
	.st11{display:inline;fill:none;stroke:#000000;stroke-width:0.25;stroke-miterlimit:10;}
	.st12{display:inline;fill:none;stroke:#FFFFFF;stroke-width:0.25;stroke-miterlimit:10;}
	.st13{display:inline;fill:none;stroke:#FFFFFF;stroke-width:0.25;stroke-linecap:round;stroke-miterlimit:10;}
	.st14{display:inline;fill:none;stroke:#000000;stroke-width:0.25;stroke-linecap:round;stroke-miterlimit:10;}
	.st15{fill:#4F4A7C;}
	.st16{fill:none;stroke:#FFFFFF;stroke-miterlimit:10;}
	.st17{stroke:#FFFFFF;stroke-miterlimit:10;}
	.st18{fill:none;stroke:#FFFFFF;stroke-width:3;stroke-miterlimit:10;}
	.st19{fill:none;stroke:#FFFFFF;stroke-linecap:round;stroke-miterlimit:10;}
	.st20{fill:none;stroke:#236886;stroke-width:5;stroke-miterlimit:10;}
	.st21{fill:none;stroke:#236886;stroke-width:5;stroke-linecap:round;stroke-miterlimit:10;}
	.st22{fill:none;stroke:#FFFFFF;stroke-width:5;stroke-miterlimit:10;}
	.st23{fill:none;stroke:#FFFFFF;stroke-width:5;stroke-linecap:round;stroke-miterlimit:10;}
	.st24{fill:none;stroke:#4F497B;stroke-width:3;stroke-miterlimit:10;}
	.st25{fill:none;stroke:#4F497B;stroke-miterlimit:10;}
	.st26{fill:#FFFFFF;stroke:#4F497B;stroke-miterlimit:10;}
	.st27{fill:#FFFFFF;stroke:#4F497B;stroke-width:2;stroke-miterlimit:10;}
	.st28{fill:none;stroke:#4F497B;stroke-width:2;stroke-linecap:round;stroke-miterlimit:10;}
	.st29{stroke:#FFFFFF;stroke-width:2;stroke-miterlimit:10;}
	.st30{fill:none;stroke:#FFFFFF;stroke-width:2;stroke-linecap:round;stroke-miterlimit:10;}
	.st31{fill:none;stroke:#0C6E39;stroke-width:3;stroke-miterlimit:10;}
	.st32{fill:none;stroke:#EF3F25;stroke-miterlimit:10;}
	.st33{fill:none;stroke:#EF3F25;stroke-width:3;stroke-miterlimit:10;}
	.st34{fill:none;stroke:#4F4A7C;stroke-width:3;stroke-miterlimit:10;}
	.st35{fill:none;stroke:#4F4A7C;stroke-width:5;stroke-linecap:round;stroke-miterlimit:10;}
	.st36{fill:none;stroke:#EF3F25;stroke-width:3;stroke-linecap:round;stroke-miterlimit:10;}
	.st37{fill:none;stroke:#EF3F25;stroke-width:5;stroke-linecap:round;stroke-miterlimit:10;}
	.st38{fill:none;stroke:#FFFFFF;stroke-width:3;stroke-linecap:round;stroke-miterlimit:10;}
	.st39{fill:none;stroke:#4F497B;stroke-width:5;stroke-linecap:round;stroke-miterlimit:10;}
	.st40{fill:#FFFFFF;stroke:#0E6E39;stroke-width:3;stroke-linejoin:round;stroke-miterlimit:10;}
	.st41{fill:none;stroke:#0E6E39;stroke-width:3;stroke-linejoin:round;stroke-miterlimit:10;}
	.st42{stroke:#FFFFFF;stroke-width:3;stroke-linejoin:round;stroke-miterlimit:10;}
	.st43{fill:none;stroke:#FFFFFF;stroke-width:3;stroke-linejoin:round;stroke-miterlimit:10;}
	.st44{fill:none;stroke:#0C6E39;stroke-width:5;stroke-linecap:round;stroke-miterlimit:10;}
	.st45{fill:none;stroke:#0C6E39;stroke-width:3;stroke-linecap:round;stroke-miterlimit:10;}
	.st46{fill:none;stroke:#0C6E39;stroke-linecap:round;stroke-linejoin:round;stroke-miterlimit:10;}
	.st47{fill:#0C6E39;stroke:#0C6E39;stroke-width:0;stroke-miterlimit:10;}
	.st48{fill:none;stroke:#0C6E39;stroke-width:3;stroke-linecap:round;stroke-linejoin:round;stroke-miterlimit:10;}
	.st49{fill:none;stroke:#0C6E39;stroke-linecap:round;stroke-miterlimit:10;}
	.st50{fill:none;stroke:#FFFFFF;stroke-linecap:round;stroke-linejoin:round;stroke-miterlimit:10;}
	.st51{fill:none;stroke:#FFFFFF;stroke-width:3;stroke-linecap:round;stroke-linejoin:round;stroke-miterlimit:10;}
	.st52{fill:none;stroke:#4F4A7C;stroke-miterlimit:10;}
	.st53{fill:#FFFFFF;stroke:#4F4A7C;stroke-width:2;stroke-miterlimit:10;}
	.st54{fill:#FFFFFF;stroke:#4F497B;stroke-width:5;stroke-miterlimit:10;}
	.st55{stroke:#FFFFFF;stroke-width:5;stroke-miterlimit:10;}
	.st56{fill:none;stroke:#EF3F25;stroke-width:2;stroke-linecap:round;stroke-miterlimit:10;}
	.st57{fill:none;stroke:#FFFFFF;stroke-width:1.5;stroke-miterlimit:10;}
	.st58{fill:none;stroke:#FFFFFF;stroke-width:1.5;stroke-linecap:round;stroke-miterlimit:10;}
	.st59{fill:none;stroke:#0E6E39;stroke-width:3;stroke-miterlimit:10;}
	.st60{fill:none;stroke:#0E6E39;stroke-width:1.5;stroke-miterlimit:10;}
	.st61{fill:none;stroke:#0E6E39;stroke-width:1.5;stroke-linecap:round;stroke-miterlimit:10;}
	.st62{fill:none;stroke:#EF3F25;stroke-width:0.7099;stroke-miterlimit:10;}
	.st63{fill:none;stroke:#FFFFFF;stroke-width:0.7099;stroke-miterlimit:10;}
	.st64{fill:#EF4025;}
	.st65{fill:#505050;stroke:#4F4A7C;stroke-width:2.9281;stroke-miterlimit:10;}
	.st66{fill:#FFFFFF;stroke:#FFFFFF;stroke-width:2.9281;stroke-miterlimit:10;}
	.st67{fill:none;stroke:#FFFFFF;stroke-width:3.2577;stroke-miterlimit:10;}
	.st68{fill:none;stroke:#FFFFFF;stroke-width:3.2577;stroke-linecap:round;stroke-linejoin:round;stroke-miterlimit:10;}
	.st69{fill:none;stroke:#256887;stroke-width:3.2577;stroke-miterlimit:10;}
	.st70{fill:none;stroke:#256887;stroke-width:3.2577;stroke-linecap:round;stroke-linejoin:round;stroke-miterlimit:10;}
	.st71{fill:#FFFFFF;stroke:#FFFFFF;stroke-width:2;stroke-miterlimit:10;}
	.st72{fill:#D2BF2D;stroke:#D2BF2D;stroke-width:2;stroke-miterlimit:10;}
	.st73{fill:#086E38;}
	.st74{fill:#256887;stroke:#256887;stroke-width:4;stroke-miterlimit:10;}
	.st75{fill:#FFFFFF;stroke:#FFFFFF;stroke-width:4;stroke-miterlimit:10;}
	.st76{fill:#4F4B7D;}
	.st77{fill:#256887;stroke:#256887;stroke-width:2.8997;stroke-miterlimit:10;}
	.st78{fill:#FFFFFF;stroke:#FFFFFF;stroke-width:2.8997;stroke-miterlimit:10;}
	.st79{fill:none;stroke:#FFFFFF;stroke-width:2.2399;stroke-miterlimit:10;}
	.st80{fill:none;stroke:#FFFFFF;stroke-width:2;stroke-miterlimit:10;}
	.st81{fill:none;stroke:#FFFFFF;stroke-width:1.4254;stroke-miterlimit:10;}
	.st82{fill:none;stroke:#EF4025;stroke-width:2.2399;stroke-miterlimit:10;}
	.st83{fill:none;stroke:#EF4025;stroke-width:2;stroke-miterlimit:10;}
	.st84{fill:none;stroke:#EF4025;stroke-width:1.4254;stroke-miterlimit:10;}
	.st85{fill:none;stroke:#4F497B;stroke-linecap:round;stroke-miterlimit:10;}
</style>
<g id="White">
</g>
<g id="BACKGROUND">
	<rect x="0.22" width="360" height="360"/>
</g>
<g id="REF" class="st10">
	<rect x="-360" y="90.33" class="st11" width="360" height="108"/>
	<rect x="0" y="90.33" class="st12" width="360" height="108"/>
	<line class="st13" x1="180" y1="0.19" x2="180" y2="360.06"/>
</g>
<g id="LINE_ONE">
	<g>
		<path class="st0" d="M59.16,234.16h5.22c1.07,0,2.03,0.16,2.88,0.47c0.85,0.31,1.57,0.77,2.16,1.36c0.59,0.59,1.04,1.32,1.35,2.19
			c0.31,0.87,0.47,1.86,0.47,2.98s-0.16,2.11-0.47,2.98c-0.31,0.87-0.76,1.6-1.35,2.19c-0.59,0.59-1.31,1.05-2.16,1.36
			s-1.81,0.47-2.88,0.47h-5.22V234.16z M68.14,241.16c0-0.68-0.08-1.3-0.23-1.85c-0.15-0.55-0.39-1.03-0.7-1.43
			c-0.31-0.4-0.71-0.71-1.19-0.92c-0.48-0.21-1.05-0.32-1.72-0.32h-2.12v9.04h2.12c0.67,0,1.24-0.11,1.72-0.32
			c0.48-0.21,0.88-0.52,1.19-0.92c0.31-0.4,0.55-0.88,0.7-1.43C68.06,242.45,68.14,241.84,68.14,241.16z"/>
		<path class="st0" d="M75.94,234.16h3v14h-3V234.16z"/>
		<path class="st0" d="M86.28,234.16c0.49,1.4,0.96,2.75,1.4,4.06c0.27,0.76,0.49,1.4,0.66,1.92c0.17,0.52,0.35,1.04,0.52,1.57
			c0.17,0.53,0.34,1.04,0.5,1.53s0.3,0.93,0.42,1.32h0.04c0.12-0.39,0.26-0.83,0.42-1.33s0.33-1.03,0.51-1.59
			c0.18-0.56,0.37-1.13,0.57-1.72c0.2-0.59,0.39-1.15,0.58-1.7c0.44-1.31,0.91-2.66,1.4-4.06h3.08l-5.16,14h-3.06l-5.1-14H86.28z"/>
		<path class="st0" d="M100.5,248.16v-14h9.54v2.48h-6.58v3.08h6.12v2.48h-6.12v3.48h6.68v2.48H100.5z"/>
		<path class="st0" d="M125.26,238.42c0,1.04-0.24,1.89-0.71,2.54s-1.12,1.14-1.95,1.46l3.22,5.74h-3.3l-2.9-5.3h-1.86v5.3h-2.98
			v-14h5.12c0.81,0,1.55,0.08,2.21,0.25s1.22,0.42,1.69,0.77c0.47,0.35,0.83,0.79,1.08,1.32S125.26,237.67,125.26,238.42z
			 M122.18,238.44c0-0.68-0.22-1.15-0.65-1.41s-1.09-0.39-1.97-0.39h-1.8v3.78h1.8c0.88,0,1.54-0.15,1.97-0.45
			C121.96,239.67,122.18,239.16,122.18,238.44z"/>
		<path class="st0" d="M133.02,237.84c0,0.6,0.26,1.03,0.78,1.29c0.52,0.26,1.35,0.48,2.48,0.67c1.67,0.28,2.89,0.74,3.67,1.38
			c0.78,0.64,1.17,1.59,1.17,2.86c0,0.68-0.14,1.29-0.42,1.83c-0.28,0.54-0.67,1-1.17,1.38s-1.1,0.67-1.79,0.88
			c-0.69,0.21-1.45,0.31-2.26,0.31c-0.88,0-1.67-0.12-2.38-0.35c-0.71-0.23-1.31-0.54-1.8-0.93c-0.49-0.39-0.88-0.84-1.16-1.36
			c-0.28-0.52-0.43-1.06-0.46-1.62l3-0.48c0.07,0.68,0.33,1.24,0.79,1.67c0.46,0.43,1.13,0.65,2.01,0.65c0.36,0,0.7-0.03,1.01-0.1
			c0.31-0.07,0.59-0.18,0.82-0.33c0.23-0.15,0.42-0.34,0.55-0.57s0.2-0.5,0.2-0.82c0-0.52-0.22-0.92-0.65-1.2s-1.2-0.51-2.29-0.68
			c-0.73-0.12-1.41-0.27-2.04-0.46c-0.63-0.19-1.17-0.44-1.63-0.77c-0.46-0.33-0.82-0.73-1.08-1.22c-0.26-0.49-0.39-1.08-0.39-1.79
			c0-0.71,0.13-1.32,0.4-1.84c0.27-0.52,0.64-0.96,1.12-1.31c0.48-0.35,1.05-0.62,1.7-0.79c0.65-0.17,1.37-0.26,2.14-0.26
			c0.72,0,1.39,0.08,2.02,0.25c0.63,0.17,1.18,0.41,1.67,0.74c0.49,0.33,0.89,0.73,1.21,1.21c0.32,0.48,0.54,1.03,0.66,1.64
			l-3.04,0.66c-0.11-0.64-0.38-1.15-0.82-1.52c-0.44-0.37-1.03-0.56-1.78-0.56c-0.76,0-1.32,0.14-1.69,0.42
			C133.2,237,133.02,237.37,133.02,237.84z"/>
		<path class="st0" d="M145.78,234.16h3v14h-3V234.16z"/>
		<path class="st0" d="M153,234.16h11.1v2.5h-4.04v11.5h-3.02v-11.5H153V234.16z"/>
		<path class="st0" d="M172.56,242.3l-5.3-8.14h3.44l3.42,5.36l3.4-5.36h3.34l-5.3,8.14v5.86h-3V242.3z"/>
		<path class="st0" d="M185.94,247.34c0,0.29-0.04,0.63-0.12,1.01c-0.08,0.38-0.23,0.74-0.46,1.09c-0.23,0.35-0.54,0.66-0.93,0.93
			c-0.39,0.27-0.91,0.45-1.55,0.53l-0.46-1.24c0.16,0,0.34-0.03,0.53-0.09c0.19-0.06,0.38-0.15,0.55-0.27s0.32-0.26,0.44-0.42
			c0.12-0.16,0.18-0.34,0.18-0.54v-0.12c-0.12,0.04-0.25,0.06-0.38,0.06c-0.43,0-0.8-0.16-1.13-0.49c-0.33-0.33-0.49-0.74-0.49-1.23
			c0-0.2,0.03-0.4,0.1-0.61s0.17-0.39,0.32-0.55s0.33-0.29,0.56-0.4c0.23-0.11,0.49-0.16,0.8-0.16c0.36,0,0.67,0.07,0.93,0.21
			c0.26,0.14,0.47,0.33,0.63,0.56s0.28,0.5,0.36,0.8S185.94,247.02,185.94,247.34z"/>
		<path class="st0" d="M197.56,248.16v-14h9.54v2.48h-6.58v3.08h6.12v2.48h-6.12v3.48h6.68v2.48H197.56z"/>
		<path class="st0" d="M220.86,247.94c-0.85,0.33-1.78,0.5-2.78,0.5c-1.03,0-1.96-0.17-2.8-0.5s-1.56-0.81-2.15-1.44
			c-0.59-0.63-1.05-1.39-1.38-2.29c-0.33-0.9-0.49-1.92-0.49-3.05c0-1.13,0.16-2.15,0.49-3.05c0.33-0.9,0.79-1.66,1.38-2.29
			c0.59-0.63,1.31-1.11,2.15-1.44c0.84-0.33,1.77-0.5,2.8-0.5s1.96,0.17,2.8,0.5c0.84,0.33,1.55,0.81,2.15,1.44s1.05,1.39,1.38,2.29
			c0.33,0.9,0.49,1.92,0.49,3.05c0,1.21-0.18,2.29-0.55,3.23c-0.37,0.94-0.89,1.72-1.57,2.35l1.28,1.4l-1.68,1.48L220.86,247.94z
			 M214.36,241.16c0,0.71,0.08,1.36,0.23,1.95c0.15,0.59,0.38,1.1,0.69,1.52s0.69,0.75,1.16,0.98s1.01,0.35,1.64,0.35
			c0.29,0,0.59-0.03,0.9-0.1l-1.3-1.44l1.64-1.48l1.54,1.7c0.32-0.43,0.56-0.93,0.71-1.52c0.15-0.59,0.23-1.24,0.23-1.96
			c0-0.71-0.08-1.36-0.23-1.95c-0.15-0.59-0.38-1.1-0.69-1.52c-0.31-0.42-0.7-0.75-1.16-0.98c-0.47-0.23-1.01-0.35-1.64-0.35
			s-1.17,0.12-1.64,0.35s-0.85,0.56-1.16,0.98s-0.54,0.93-0.69,1.52C214.43,239.8,214.36,240.45,214.36,241.16z"/>
		<path class="st0" d="M235.12,248.44c-1.95,0-3.37-0.48-4.26-1.44s-1.34-2.29-1.34-4v-8.84h3v8.86c0,0.85,0.21,1.56,0.64,2.11
			c0.43,0.55,1.08,0.83,1.96,0.83c0.88,0,1.53-0.28,1.96-0.83c0.43-0.55,0.64-1.26,0.64-2.11v-8.86h3V243c0,1.71-0.45,3.04-1.34,4
			C238.48,247.96,237.06,248.44,235.12,248.44z"/>
		<path class="st0" d="M245.92,234.16h3v14h-3V234.16z"/>
		<path class="st0" d="M253.14,234.16h11.1v2.5h-4.04v11.5h-3.02v-11.5h-4.04V234.16z"/>
		<path class="st0" d="M272.7,242.3l-5.3-8.14h3.44l3.42,5.36l3.4-5.36H281l-5.3,8.14v5.86h-3V242.3z"/>
		<path class="st0" d="M291.28,240.5h3.86v-3.88h2.28v3.88h3.86v2.28h-3.86v3.98h-2.28v-3.98h-3.86V240.5z"/>
	</g>
</g>
<g id="LINE_TWO">
	<g>
		<path class="st0" d="M117.79,251.94h3v14h-3V251.94z"/>
		<path class="st0" d="M126.07,251.94h3.12c0.81,1.32,1.59,2.57,2.32,3.76c0.44,0.71,0.8,1.29,1.08,1.75
			c0.28,0.46,0.56,0.92,0.84,1.37c0.28,0.45,0.55,0.88,0.8,1.29c0.25,0.41,0.47,0.75,0.64,1.03h0.06v-9.2h2.84v14h-3.12
			c-0.8-1.29-1.56-2.53-2.28-3.7c-0.43-0.69-0.78-1.27-1.07-1.73s-0.57-0.92-0.85-1.38c-0.28-0.46-0.55-0.9-0.81-1.32
			c-0.26-0.42-0.48-0.78-0.67-1.07h-0.06v9.2h-2.84V251.94z"/>
		<path class="st0" d="M142.47,258.94c0-1.15,0.16-2.17,0.48-3.07c0.32-0.9,0.78-1.66,1.37-2.29c0.59-0.63,1.31-1.1,2.16-1.43
			c0.85-0.33,1.8-0.49,2.85-0.49c1.49,0,2.75,0.33,3.76,0.98c1.01,0.65,1.73,1.65,2.16,2.98l-2.92,1.02
			c-0.24-0.79-0.6-1.4-1.08-1.83c-0.48-0.43-1.14-0.65-1.98-0.65c-0.61,0-1.15,0.12-1.62,0.36c-0.47,0.24-0.85,0.57-1.16,0.99
			s-0.54,0.92-0.69,1.51c-0.15,0.59-0.23,1.23-0.23,1.92s0.08,1.33,0.23,1.91c0.15,0.58,0.38,1.08,0.69,1.51s0.69,0.76,1.16,1
			c0.47,0.24,1.01,0.36,1.64,0.36c0.77,0,1.4-0.19,1.89-0.58c0.49-0.39,0.86-0.97,1.11-1.76l2.88,1.02
			c-0.47,1.19-1.19,2.12-2.16,2.8c-0.97,0.68-2.23,1.02-3.76,1.02c-1.03,0-1.96-0.16-2.79-0.49c-0.83-0.33-1.55-0.8-2.14-1.42
			s-1.05-1.38-1.37-2.29C142.63,261.12,142.47,260.09,142.47,258.94z"/>
		<path class="st0" d="M159.65,251.94h3v11.5h6.12v2.5h-9.12V251.94z"/>
		<path class="st0" d="M178.19,266.22c-1.95,0-3.37-0.48-4.26-1.44c-0.89-0.96-1.34-2.29-1.34-4v-8.84h3v8.86
			c0,0.85,0.21,1.56,0.64,2.11c0.43,0.55,1.08,0.83,1.96,0.83s1.53-0.28,1.96-0.83c0.43-0.55,0.64-1.26,0.64-2.11v-8.86h3v8.84
			c0,1.71-0.45,3.04-1.34,4C181.56,265.74,180.14,266.22,178.19,266.22z"/>
		<path class="st0" d="M191.71,255.62c0,0.6,0.26,1.03,0.78,1.29c0.52,0.26,1.35,0.48,2.48,0.67c1.67,0.28,2.89,0.74,3.67,1.38
			c0.78,0.64,1.17,1.59,1.17,2.86c0,0.68-0.14,1.29-0.42,1.83c-0.28,0.54-0.67,1-1.17,1.38s-1.1,0.67-1.79,0.88
			c-0.69,0.21-1.45,0.31-2.26,0.31c-0.88,0-1.67-0.12-2.38-0.35c-0.71-0.23-1.31-0.54-1.8-0.93c-0.49-0.39-0.88-0.84-1.16-1.36
			c-0.28-0.52-0.43-1.06-0.46-1.62l3-0.48c0.07,0.68,0.33,1.24,0.79,1.67c0.46,0.43,1.13,0.65,2.01,0.65c0.36,0,0.7-0.03,1.01-0.1
			c0.31-0.07,0.59-0.18,0.82-0.33c0.23-0.15,0.42-0.34,0.55-0.57s0.2-0.5,0.2-0.82c0-0.52-0.22-0.92-0.65-1.2s-1.2-0.51-2.29-0.68
			c-0.73-0.12-1.41-0.27-2.04-0.46s-1.17-0.44-1.63-0.77c-0.46-0.33-0.82-0.73-1.08-1.22c-0.26-0.49-0.39-1.08-0.39-1.79
			c0-0.71,0.13-1.32,0.4-1.84c0.27-0.52,0.64-0.96,1.12-1.31c0.48-0.35,1.05-0.62,1.7-0.79c0.65-0.17,1.37-0.26,2.14-0.26
			c0.72,0,1.39,0.08,2.02,0.25c0.63,0.17,1.18,0.41,1.67,0.74c0.49,0.33,0.89,0.73,1.21,1.21c0.32,0.48,0.54,1.03,0.66,1.64
			l-3.04,0.66c-0.11-0.64-0.38-1.15-0.82-1.52c-0.44-0.37-1.03-0.56-1.78-0.56c-0.76,0-1.32,0.14-1.69,0.42
			C191.89,254.78,191.71,255.16,191.71,255.62z"/>
		<path class="st0" d="M204.47,251.94h3v14h-3V251.94z"/>
		<path class="st0" d="M212.17,258.94c0-1.13,0.16-2.15,0.49-3.05c0.33-0.9,0.79-1.66,1.38-2.29s1.31-1.11,2.15-1.44
			c0.84-0.33,1.77-0.5,2.8-0.5c1.03,0,1.96,0.17,2.8,0.5c0.84,0.33,1.56,0.81,2.15,1.44c0.59,0.63,1.05,1.39,1.38,2.29
			c0.33,0.9,0.49,1.92,0.49,3.05c0,1.13-0.16,2.15-0.49,3.05c-0.33,0.9-0.79,1.66-1.38,2.29c-0.59,0.63-1.31,1.11-2.15,1.44
			s-1.77,0.5-2.8,0.5c-1.03,0-1.96-0.17-2.8-0.5s-1.56-0.81-2.15-1.44c-0.59-0.63-1.05-1.39-1.38-2.29
			C212.33,261.1,212.17,260.08,212.17,258.94z M215.27,258.94c0,0.71,0.08,1.36,0.23,1.95c0.15,0.59,0.38,1.1,0.69,1.52
			s0.69,0.75,1.16,0.98s1.01,0.35,1.64,0.35s1.17-0.12,1.64-0.35s0.85-0.56,1.16-0.98s0.54-0.93,0.69-1.52
			c0.15-0.59,0.23-1.24,0.23-1.95s-0.08-1.36-0.23-1.95c-0.15-0.59-0.38-1.1-0.69-1.52s-0.69-0.75-1.16-0.98s-1.01-0.35-1.64-0.35
			s-1.17,0.12-1.64,0.35s-0.85,0.56-1.16,0.98s-0.54,0.93-0.69,1.52C215.35,257.59,215.27,258.24,215.27,258.94z"/>
		<path class="st0" d="M230.51,251.94h3.12c0.81,1.32,1.59,2.57,2.32,3.76c0.44,0.71,0.8,1.29,1.08,1.75
			c0.28,0.46,0.56,0.92,0.84,1.37c0.28,0.45,0.55,0.88,0.8,1.29c0.25,0.41,0.47,0.75,0.64,1.03h0.06v-9.2h2.84v14h-3.12
			c-0.8-1.29-1.56-2.53-2.28-3.7c-0.43-0.69-0.78-1.27-1.07-1.73s-0.57-0.92-0.85-1.38s-0.55-0.9-0.81-1.32s-0.48-0.78-0.67-1.07
			h-0.06v9.2h-2.84V251.94z"/>
	</g>
</g>
<g id="ICON">
	<g>
		<g>
			<path class="st18" d="M208.4,195.73c0,0.79,0.65,1.44,1.44,1.44h28.36c0.79,0,1.44-0.65,1.44-1.44v-21.65
				c0-0.79-0.65-1.44-1.44-1.44h-28.36c-0.79,0-1.44,0.65-1.44,1.44V195.73z"/>
		</g>
		<line class="st23" x1="102.13" y1="197.17" x2="257.9" y2="197.17"/>
		<g>
			<path class="st18" d="M148.62,154.62c-1.61,0-3.09-0.05-4.56,0.05c-0.21,0.01-0.52,0.75-0.52,1.15
				c-0.03,5.55-0.03,11.09-0.02,16.64c0,6.38-0.12,12.76,0.06,19.14c0.09,3.42-1.98,4.94-4.35,5.42c-2.01,0.4-3.97,0.2-5.71-1.03
				c-1.27-0.9-1.89-2.09-1.89-3.69c0.02-17.76,0.01-35.53,0.01-53.29c0-5.11-0.02-10.22,0.02-15.33c0.01-0.82-0.28-1.31-0.92-1.8
				c-8.86-6.67-17.7-13.36-26.55-20.04c-0.03-0.02-0.06-0.04-0.09-0.06c-1.12-0.87-2.18-1.83-1.97-3.39
				c0.25-1.84,1.49-2.93,3.19-3.48c2.42-0.79,4.62-0.3,6.64,1.25c3.83,2.92,7.69,5.81,11.54,8.72c4.69,3.54,9.36,7.09,14.07,10.59
				c0.48,0.36,1.17,0.58,1.77,0.59c4.46,0.05,8.92,0.01,13.38,0.05c0.96,0.01,1.71-0.25,2.47-0.84
				c8.41-6.42,16.84-12.82,25.28-19.21c2.36-1.79,5.25-2.01,7.51-0.64c2.67,1.62,2.84,4.28,0.36,6.18
				c-3.07,2.36-6.18,4.69-9.27,7.02c-5.84,4.41-11.68,8.83-17.54,13.21c-0.72,0.54-0.98,1.11-0.97,2c0.05,20.3,0.08,40.6,0.1,60.9
				c0,2.18-0.12,4.36,0.03,6.52c0.27,4.06-2.44,5.81-5.64,5.9c-1.02,0.03-2.1-0.14-3.08-0.46c-2.33-0.76-3.25-2.19-3.26-4.78
				c-0.04-11.93-0.06-23.85-0.09-35.78C148.62,155.69,148.62,155.26,148.62,154.62z"/>
			<path class="st18" d="M145.93,90.33c5.95,0.02,10.63,4.59,10.6,10.36c-0.03,5.6-4.85,10.11-10.77,10.08
				c-5.89-0.03-10.48-4.58-10.45-10.35C135.35,94.78,140.04,90.31,145.93,90.33z"/>
		</g>
		<g>
			<path class="st18" d="M225.96,139.84c-1.24,0-2.38-0.04-3.51,0.04c-0.16,0.01-0.4,0.58-0.4,0.89c-0.03,4.27-0.02,8.54-0.02,12.81
				c0,4.91-0.09,9.83,0.04,14.74c0.07,2.64-1.53,3.8-3.35,4.17c-1.55,0.31-3.06,0.15-4.4-0.8c-0.98-0.69-1.46-1.61-1.46-2.84
				c0.02-13.68,0.01-27.36,0.01-41.04c0-3.94-0.02-7.87,0.01-11.81c0-0.63-0.22-1.01-0.71-1.38c-6.82-5.13-13.63-10.29-20.45-15.43
				c-0.02-0.02-0.05-0.03-0.07-0.05c-0.86-0.67-1.68-1.41-1.52-2.61c0.19-1.42,1.15-2.26,2.46-2.68c1.87-0.61,3.56-0.23,5.11,0.96
				c2.95,2.25,5.92,4.48,8.88,6.71c3.61,2.72,7.21,5.46,10.84,8.15c0.37,0.27,0.9,0.45,1.37,0.45c3.43,0.04,6.87,0.01,10.3,0.04
				c0.74,0.01,1.32-0.2,1.91-0.64c6.48-4.95,12.97-9.87,19.46-14.79c1.82-1.38,4.04-1.55,5.79-0.49c2.05,1.25,2.19,3.29,0.28,4.76
				c-2.37,1.82-4.76,3.61-7.14,5.41c-4.5,3.4-8.99,6.8-13.51,10.18c-0.55,0.41-0.75,0.86-0.75,1.54c0.04,15.63,0.06,31.27,0.08,46.9
				c0,1.68-0.09,3.36,0.02,5.02c0.21,3.13-1.88,4.47-4.34,4.55c-0.79,0.02-1.62-0.11-2.37-0.35c-1.8-0.59-2.5-1.68-2.51-3.68
				c-0.03-9.18-0.05-18.37-0.07-27.55C225.96,140.66,225.96,140.33,225.96,139.84z"/>
			<path class="st18" d="M223.88,90.33c4.58,0.01,8.19,3.53,8.17,7.98c-0.02,4.31-3.73,7.78-8.29,7.76
				c-4.54-0.02-8.07-3.52-8.05-7.97C215.74,93.76,219.35,90.32,223.88,90.33z"/>
		</g>
	</g>
</g>
</svg>
