<?xml version="1.0" encoding="utf-8"?>
<!-- Generator: Adobe Illustrator 23.1.0, SVG Export Plug-In . SVG Version: 6.00 Build 0)  -->
<svg version="1.1" xmlns="http://www.w3.org/2000/svg" xmlns:xlink="http://www.w3.org/1999/xlink" x="0px" y="0px"
	 viewBox="0 0 360 360" style="enable-background:new 0 0 360 360;" xml:space="preserve">
<style type="text/css">
	.st0{fill:#FFFFFF;}
	.st1{fill:#0E6E39;}
	.st2{fill:#0C6E39;}
	.st3{fill:#4F497B;}
	.st4{fill:#216885;}
	.st5{fill:#F0492D;}
	.st6{fill:#EF3F25;}
	.st7{fill:#236886;}
	.st8{fill:#256887;}
	.st9{fill:#D2BF2D;}
	.st10{display:none;}
	.st11{display:inline;fill:none;stroke:#000000;stroke-width:0.25;stroke-miterlimit:10;}
	.st12{display:inline;fill:none;stroke:#FFFFFF;stroke-width:0.25;stroke-miterlimit:10;}
	.st13{display:inline;fill:none;stroke:#FFFFFF;stroke-width:0.25;stroke-linecap:round;stroke-miterlimit:10;}
	.st14{display:inline;fill:none;stroke:#000000;stroke-width:0.25;stroke-linecap:round;stroke-miterlimit:10;}
	.st15{fill:#4F4A7C;}
	.st16{fill:none;stroke:#FFFFFF;stroke-miterlimit:10;}
	.st17{stroke:#FFFFFF;stroke-miterlimit:10;}
	.st18{fill:none;stroke:#FFFFFF;stroke-width:3;stroke-miterlimit:10;}
	.st19{fill:none;stroke:#FFFFFF;stroke-linecap:round;stroke-miterlimit:10;}
	.st20{fill:none;stroke:#236886;stroke-width:5;stroke-miterlimit:10;}
	.st21{fill:none;stroke:#236886;stroke-width:5;stroke-linecap:round;stroke-miterlimit:10;}
	.st22{fill:none;stroke:#FFFFFF;stroke-width:5;stroke-miterlimit:10;}
	.st23{fill:none;stroke:#FFFFFF;stroke-width:5;stroke-linecap:round;stroke-miterlimit:10;}
	.st24{fill:none;stroke:#4F497B;stroke-width:3;stroke-miterlimit:10;}
	.st25{fill:none;stroke:#4F497B;stroke-miterlimit:10;}
	.st26{fill:#FFFFFF;stroke:#4F497B;stroke-miterlimit:10;}
	.st27{fill:#FFFFFF;stroke:#4F497B;stroke-width:2;stroke-miterlimit:10;}
	.st28{fill:none;stroke:#4F497B;stroke-width:2;stroke-linecap:round;stroke-miterlimit:10;}
	.st29{stroke:#FFFFFF;stroke-width:2;stroke-miterlimit:10;}
	.st30{fill:none;stroke:#FFFFFF;stroke-width:2;stroke-linecap:round;stroke-miterlimit:10;}
	.st31{fill:none;stroke:#0C6E39;stroke-width:3;stroke-miterlimit:10;}
	.st32{fill:none;stroke:#EF3F25;stroke-miterlimit:10;}
	.st33{fill:none;stroke:#EF3F25;stroke-width:3;stroke-miterlimit:10;}
	.st34{fill:none;stroke:#4F4A7C;stroke-width:3;stroke-miterlimit:10;}
	.st35{fill:none;stroke:#4F4A7C;stroke-width:5;stroke-linecap:round;stroke-miterlimit:10;}
	.st36{fill:none;stroke:#EF3F25;stroke-width:3;stroke-linecap:round;stroke-miterlimit:10;}
	.st37{fill:none;stroke:#EF3F25;stroke-width:5;stroke-linecap:round;stroke-miterlimit:10;}
	.st38{fill:none;stroke:#FFFFFF;stroke-width:3;stroke-linecap:round;stroke-miterlimit:10;}
	.st39{fill:none;stroke:#4F497B;stroke-width:5;stroke-linecap:round;stroke-miterlimit:10;}
	.st40{fill:#FFFFFF;stroke:#0E6E39;stroke-width:3;stroke-linejoin:round;stroke-miterlimit:10;}
	.st41{fill:none;stroke:#0E6E39;stroke-width:3;stroke-linejoin:round;stroke-miterlimit:10;}
	.st42{stroke:#FFFFFF;stroke-width:3;stroke-linejoin:round;stroke-miterlimit:10;}
	.st43{fill:none;stroke:#FFFFFF;stroke-width:3;stroke-linejoin:round;stroke-miterlimit:10;}
	.st44{fill:none;stroke:#0C6E39;stroke-width:5;stroke-linecap:round;stroke-miterlimit:10;}
	.st45{fill:none;stroke:#0C6E39;stroke-width:3;stroke-linecap:round;stroke-miterlimit:10;}
	.st46{fill:none;stroke:#0C6E39;stroke-linecap:round;stroke-linejoin:round;stroke-miterlimit:10;}
	.st47{fill:#0C6E39;stroke:#0C6E39;stroke-width:0;stroke-miterlimit:10;}
	.st48{fill:none;stroke:#0C6E39;stroke-width:3;stroke-linecap:round;stroke-linejoin:round;stroke-miterlimit:10;}
	.st49{fill:none;stroke:#0C6E39;stroke-linecap:round;stroke-miterlimit:10;}
	.st50{fill:none;stroke:#FFFFFF;stroke-linecap:round;stroke-linejoin:round;stroke-miterlimit:10;}
	.st51{fill:none;stroke:#FFFFFF;stroke-width:3;stroke-linecap:round;stroke-linejoin:round;stroke-miterlimit:10;}
	.st52{fill:none;stroke:#4F4A7C;stroke-miterlimit:10;}
	.st53{fill:#FFFFFF;stroke:#4F4A7C;stroke-width:2;stroke-miterlimit:10;}
	.st54{fill:#FFFFFF;stroke:#4F497B;stroke-width:5;stroke-miterlimit:10;}
	.st55{stroke:#FFFFFF;stroke-width:5;stroke-miterlimit:10;}
	.st56{fill:none;stroke:#EF3F25;stroke-width:2;stroke-linecap:round;stroke-miterlimit:10;}
	.st57{fill:none;stroke:#FFFFFF;stroke-width:1.5;stroke-miterlimit:10;}
	.st58{fill:none;stroke:#FFFFFF;stroke-width:1.5;stroke-linecap:round;stroke-miterlimit:10;}
	.st59{fill:none;stroke:#0E6E39;stroke-width:3;stroke-miterlimit:10;}
	.st60{fill:none;stroke:#0E6E39;stroke-width:1.5;stroke-miterlimit:10;}
	.st61{fill:none;stroke:#0E6E39;stroke-width:1.5;stroke-linecap:round;stroke-miterlimit:10;}
	.st62{fill:none;stroke:#EF3F25;stroke-width:0.7099;stroke-miterlimit:10;}
	.st63{fill:none;stroke:#FFFFFF;stroke-width:0.7099;stroke-miterlimit:10;}
	.st64{fill:#EF4025;}
	.st65{fill:#505050;stroke:#4F4A7C;stroke-width:2.9281;stroke-miterlimit:10;}
	.st66{fill:#FFFFFF;stroke:#FFFFFF;stroke-width:2.9281;stroke-miterlimit:10;}
	.st67{fill:none;stroke:#FFFFFF;stroke-width:3.2577;stroke-miterlimit:10;}
	.st68{fill:none;stroke:#FFFFFF;stroke-width:3.2577;stroke-linecap:round;stroke-linejoin:round;stroke-miterlimit:10;}
	.st69{fill:none;stroke:#256887;stroke-width:3.2577;stroke-miterlimit:10;}
	.st70{fill:none;stroke:#256887;stroke-width:3.2577;stroke-linecap:round;stroke-linejoin:round;stroke-miterlimit:10;}
	.st71{fill:#FFFFFF;stroke:#FFFFFF;stroke-width:2;stroke-miterlimit:10;}
	.st72{fill:#D2BF2D;stroke:#D2BF2D;stroke-width:2;stroke-miterlimit:10;}
	.st73{fill:#086E38;}
	.st74{fill:#256887;stroke:#256887;stroke-width:4;stroke-miterlimit:10;}
	.st75{fill:#FFFFFF;stroke:#FFFFFF;stroke-width:4;stroke-miterlimit:10;}
	.st76{fill:#4F4B7D;}
	.st77{fill:#256887;stroke:#256887;stroke-width:2.8997;stroke-miterlimit:10;}
	.st78{fill:#FFFFFF;stroke:#FFFFFF;stroke-width:2.8997;stroke-miterlimit:10;}
	.st79{fill:none;stroke:#FFFFFF;stroke-width:2.2399;stroke-miterlimit:10;}
	.st80{fill:none;stroke:#FFFFFF;stroke-width:2;stroke-miterlimit:10;}
	.st81{fill:none;stroke:#FFFFFF;stroke-width:1.4254;stroke-miterlimit:10;}
	.st82{fill:none;stroke:#EF4025;stroke-width:2.2399;stroke-miterlimit:10;}
	.st83{fill:none;stroke:#EF4025;stroke-width:2;stroke-miterlimit:10;}
	.st84{fill:none;stroke:#EF4025;stroke-width:1.4254;stroke-miterlimit:10;}
	.st85{fill:none;stroke:#4F497B;stroke-linecap:round;stroke-miterlimit:10;}
</style>
<g id="White">
</g>
<g id="BACKGROUND">
	<rect width="360" height="360"/>
</g>
<g id="REF" class="st10">
	<rect x="-360" y="90.33" class="st11" width="360" height="108"/>
	<rect y="90.33" class="st12" width="360" height="108"/>
	<line class="st13" x1="180" y1="0.19" x2="180" y2="360.06"/>
</g>
<g id="LINE_ONE">
	<g>
		<path class="st0" d="M137.16,243.24v4.92h-2.98v-14h5.32c0.84,0,1.6,0.09,2.28,0.26c0.68,0.17,1.26,0.44,1.74,0.8
			c0.48,0.36,0.85,0.82,1.12,1.38c0.27,0.56,0.4,1.23,0.4,2.02c0,0.8-0.14,1.49-0.41,2.07s-0.65,1.06-1.14,1.44
			c-0.49,0.38-1.07,0.66-1.75,0.84c-0.68,0.18-1.43,0.27-2.24,0.27H137.16z M141.98,238.62c0-0.76-0.23-1.28-0.69-1.56
			c-0.46-0.28-1.16-0.42-2.09-0.42h-2.04v4.12h2.04c0.93,0,1.63-0.17,2.09-0.5C141.75,239.93,141.98,239.38,141.98,238.62z"/>
		<path class="st0" d="M160.5,248.16h-3.1l-1.12-3.24h-5.02l-1.12,3.24h-2.94l5.04-14h3.22L160.5,248.16z M153.74,237.44
			c-0.03,0.11-0.07,0.26-0.14,0.47s-0.14,0.44-0.22,0.7s-0.17,0.54-0.27,0.84s-0.2,0.59-0.29,0.87c-0.23,0.69-0.47,1.43-0.74,2.22
			h3.38c-0.27-0.79-0.51-1.53-0.74-2.22c-0.15-0.4-0.26-0.73-0.35-0.99c-0.09-0.26-0.17-0.51-0.24-0.75
			c-0.07-0.24-0.14-0.46-0.21-0.67c-0.07-0.21-0.11-0.36-0.14-0.47H153.74z"/>
		<path class="st0" d="M161.98,234.16h11.1v2.5h-4.04v11.5h-3.02v-11.5h-4.04V234.16z"/>
		<path class="st0" d="M177.3,234.16h3v14h-3V234.16z"/>
		<path class="st0" d="M185.58,248.16v-14h9.54v2.48h-6.58v3.08h6.12v2.48h-6.12v3.48h6.68v2.48H185.58z"/>
		<path class="st0" d="M199.86,234.16h3.12c0.81,1.32,1.59,2.57,2.32,3.76c0.44,0.71,0.8,1.29,1.08,1.75
			c0.28,0.46,0.56,0.92,0.84,1.37c0.28,0.45,0.55,0.88,0.8,1.29c0.25,0.41,0.47,0.75,0.64,1.03h0.06v-9.2h2.84v14h-3.12
			c-0.8-1.29-1.56-2.53-2.28-3.7c-0.43-0.69-0.78-1.27-1.07-1.73s-0.57-0.92-0.85-1.38c-0.28-0.46-0.55-0.9-0.81-1.32
			s-0.48-0.78-0.67-1.07h-0.06v9.2h-2.84V234.16z"/>
		<path class="st0" d="M215.78,234.16h11.1v2.5h-4.04v11.5h-3.02v-11.5h-4.04V234.16z"/>
	</g>
</g>
<g id="LINE_TWO">
	<g>
		<path class="st0" d="M109.39,265.94v-14h9.54v2.48h-6.58v3.08h6.12v2.48h-6.12v3.48h6.68v2.48H109.39z"/>
		<path class="st0" d="M131.11,258.6l5.18,7.34h-3.6l-3.38-4.86l-3.44,4.86h-3.36l5.14-7.2l-4.74-6.8h3.62l2.94,4.32l3.04-4.32h3.38
			L131.11,258.6z"/>
		<path class="st0" d="M143.39,261.02v4.92h-2.98v-14h5.32c0.84,0,1.6,0.09,2.28,0.26c0.68,0.17,1.26,0.44,1.74,0.8
			c0.48,0.36,0.85,0.82,1.12,1.38c0.27,0.56,0.4,1.23,0.4,2.02c0,0.8-0.14,1.49-0.41,2.07s-0.65,1.06-1.14,1.44
			s-1.07,0.66-1.75,0.84c-0.68,0.18-1.43,0.27-2.24,0.27H143.39z M148.21,256.4c0-0.76-0.23-1.28-0.69-1.56
			c-0.46-0.28-1.16-0.42-2.09-0.42h-2.04v4.12h2.04c0.93,0,1.63-0.17,2.09-0.5C147.98,257.71,148.21,257.16,148.21,256.4z"/>
		<path class="st0" d="M155.67,265.94v-14h9.54v2.48h-6.58v3.08h6.12v2.48h-6.12v3.48h6.68v2.48H155.67z"/>
		<path class="st0" d="M180.43,256.2c0,1.04-0.24,1.89-0.71,2.54c-0.47,0.65-1.12,1.14-1.95,1.46l3.22,5.74h-3.3l-2.9-5.3h-1.86v5.3
			h-2.98v-14h5.12c0.81,0,1.55,0.08,2.21,0.25s1.22,0.42,1.69,0.77c0.47,0.35,0.83,0.79,1.08,1.32
			C180.3,254.82,180.43,255.46,180.43,256.2z M177.35,256.22c0-0.68-0.22-1.15-0.65-1.41s-1.09-0.39-1.97-0.39h-1.8v3.78h1.8
			c0.88,0,1.54-0.15,1.97-0.45C177.13,257.45,177.35,256.94,177.35,256.22z"/>
		<path class="st0" d="M185.47,251.94h3v14h-3V251.94z"/>
		<path class="st0" d="M193.75,265.94v-14h9.54v2.48h-6.58v3.08h6.12v2.48h-6.12v3.48h6.68v2.48H193.75z"/>
		<path class="st0" d="M208.03,251.94h3.12c0.81,1.32,1.59,2.57,2.32,3.76c0.44,0.71,0.8,1.29,1.08,1.75
			c0.28,0.46,0.56,0.92,0.84,1.37c0.28,0.45,0.55,0.88,0.8,1.29c0.25,0.41,0.47,0.75,0.64,1.03h0.06v-9.2h2.84v14h-3.12
			c-0.8-1.29-1.56-2.53-2.28-3.7c-0.43-0.69-0.78-1.27-1.07-1.73s-0.57-0.92-0.85-1.38s-0.55-0.9-0.81-1.32s-0.48-0.78-0.67-1.07
			h-0.06v9.2h-2.84V251.94z"/>
		<path class="st0" d="M224.43,258.94c0-1.15,0.16-2.17,0.48-3.07c0.32-0.9,0.78-1.66,1.37-2.29c0.59-0.63,1.31-1.1,2.16-1.43
			c0.85-0.33,1.8-0.49,2.85-0.49c1.49,0,2.75,0.33,3.76,0.98s1.73,1.65,2.16,2.98l-2.92,1.02c-0.24-0.79-0.6-1.4-1.08-1.83
			s-1.14-0.65-1.98-0.65c-0.61,0-1.15,0.12-1.62,0.36s-0.85,0.57-1.16,0.99s-0.54,0.92-0.69,1.51c-0.15,0.59-0.23,1.23-0.23,1.92
			s0.08,1.33,0.23,1.91c0.15,0.58,0.38,1.08,0.69,1.51s0.69,0.76,1.16,1s1.01,0.36,1.64,0.36c0.77,0,1.4-0.19,1.89-0.58
			s0.86-0.97,1.11-1.76l2.88,1.02c-0.47,1.19-1.19,2.12-2.16,2.8c-0.97,0.68-2.23,1.02-3.76,1.02c-1.03,0-1.96-0.16-2.79-0.49
			c-0.83-0.33-1.55-0.8-2.14-1.42c-0.59-0.62-1.05-1.38-1.37-2.29C224.59,261.12,224.43,260.09,224.43,258.94z"/>
		<path class="st0" d="M241.61,265.94v-14h9.54v2.48h-6.58v3.08h6.12v2.48h-6.12v3.48h6.68v2.48H241.61z"/>
	</g>
</g>
<g id="ICON">
	<g>
		<path class="st78" d="M127.83,163.37c-1.88-1.43-3.77-2.75-5.52-4.23c-4.29-3.62-7.86-7.9-10.85-12.64
			c-4.38-6.94-7.4-14.44-9.17-22.44c-0.48-2.17-0.8-4.38-1.14-6.57c-0.22-1.44,0.91-2.8,2.42-2.75c3.1,0.1,6.21,0.22,9.29,0.54
			c3.1,0.31,6.2,0.77,9.26,1.35c3.19,0.61,6.35,1.45,9.6,2.21c0.01-0.05,0.07-0.25,0.11-0.45c0.58-3.68,1.13-7.36,1.75-11.03
			c0.22-1.3,0.57-2.58,0.93-3.86c0.43-1.52,1.89-2.19,3.38-1.65c7.87,2.85,15.23,6.67,22.16,11.34c0.52,0.35,1.02,0.73,1.5,1.07
			c1.13-2.09,2.18-4.19,3.37-6.2c3.16-5.39,7.09-10.17,11.67-14.41c0.59-0.54,1.2-1.05,1.84-1.54c1.05-0.81,2.31-0.77,3.33,0.08
			c6.43,5.37,11.46,11.86,15.31,19.27c0.48,0.92,0.93,1.86,1.39,2.79c1.7-1.1,3.37-2.22,5.06-3.29c4.63-2.93,9.5-5.4,14.56-7.5
			c1.34-0.56,2.7-1.06,4.05-1.58c1.54-0.6,3.01,0.04,3.44,1.63c0.57,2.1,1.1,4.21,1.48,6.35c0.49,2.83,0.82,5.7,1.22,8.55
			c0.02,0.16,0.07,0.32,0.11,0.52c1.64-0.44,3.23-0.94,4.84-1.27c3.38-0.69,6.78-1.35,10.18-1.92c4.17-0.7,8.38-0.95,12.6-1.01
			c2.14-0.03,3.1,1.08,2.85,3.2c-0.83,7.05-2.86,13.75-5.74,20.22c-2.93,6.59-6.83,12.54-11.83,17.74c-2.57,2.68-5.4,5.08-8.57,7.04
			c-0.18,0.11-0.34,0.23-0.62,0.42c3.92,1.24,7.62,2.81,11.75,2.4c1.64-0.16,2.78,0.96,2.76,2.61c-0.03,3.58-1.04,6.86-2.97,9.87
			c-3.14,4.89-7.68,7.87-13.11,9.64c-5.16,1.68-10.44,1.98-15.8,1.47c-3.33-0.32-6.64-0.72-9.78-1.95
			c-1.41-0.56-2.77-1.25-4.15-1.89c-0.22-0.1-0.42-0.22-0.65-0.35c-2.04,2.11-4.33,3.84-6.83,5.3c-3.99,2.32-8.23,4.08-12.66,5.35
			c-0.44,0.12-0.98,0.07-1.42-0.07c-5.11-1.51-9.98-3.55-14.4-6.55c-1.71-1.17-3.27-2.56-4.97-3.91c-1.07,0.51-2.29,1.14-3.55,1.68
			c-2.82,1.21-5.8,1.84-8.83,2.19c-3.18,0.36-6.37,0.57-9.58,0.32c-5.55-0.43-10.79-1.82-15.4-5.02c-4.39-3.04-7.43-7.11-8.58-12.41
			c-0.26-1.2-0.36-2.44-0.4-3.67c-0.06-1.66,1.1-2.76,2.76-2.6C120.38,166.12,124.08,164.56,127.83,163.37z M180.19,97.15
			c-0.37,0.31-0.57,0.45-0.74,0.62c-3.07,2.95-5.81,6.17-8.2,9.69c-4.04,5.94-6.96,12.38-8.6,19.38c-0.72,3.1-1.13,6.24-1.32,9.41
			c-0.31,4.96,0.17,9.82,1.91,14.51c1.76,4.74,4.57,8.74,8.42,12c2.17,1.84,4.53,3.4,7.28,4.26c0.46,0.15,1.04,0.36,1.44,0.21
			c1.51-0.56,3.06-1.1,4.43-1.93c6.77-4.1,11.04-10.09,13.02-17.72c1.02-3.93,1.16-7.94,0.89-11.98c-0.35-5.28-1.41-10.4-3.23-15.35
			c-2.83-7.69-7.15-14.47-12.77-20.42C181.88,98.95,181.05,98.07,180.19,97.15z M138.63,107.35c-1.04,4.4-1.65,8.69-1.97,13.01
			c-0.29,3.92-0.28,7.84,0.09,11.77c0.44,4.6,1.37,9.08,3.1,13.37c2.14,5.31,5.37,9.85,9.88,13.41c4.84,3.83,10.41,6.07,16.4,7.33
			c0.67,0.14,1.35,0.23,2.03,0.35c-0.2-0.4-0.49-0.64-0.75-0.92c-1.29-1.38-2.67-2.69-3.83-4.16c-4.03-5.1-6.26-10.97-7-17.4
			c-0.47-4.01-0.33-8.03,0.13-12.04c0.43-3.73,1.21-7.39,2.32-10.98c0.21-0.66,0.69-1.45,0.5-1.97c-0.22-0.57-1.06-0.92-1.65-1.34
			c-3.82-2.7-7.86-5.05-12.04-7.13C143.49,109.5,141.07,108.47,138.63,107.35z M221.56,107.39c-0.44,0.18-0.75,0.28-1.05,0.43
			c-3.65,1.77-7.38,3.41-10.93,5.37c-3.02,1.67-5.84,3.7-8.75,5.58c-0.32,0.21-0.45,0.41-0.3,0.83c1.8,5.17,2.82,10.49,3.15,15.96
			c0.33,5.42-0.07,10.74-1.8,15.92c-1.45,4.35-3.66,8.27-6.72,11.68c-1.04,1.16-2.18,2.24-3.31,3.38c0.1,0.02,0.17,0.04,0.23,0.04
			c0.12,0,0.24,0,0.36-0.02c4.73-0.87,9.28-2.29,13.49-4.67c7.11-4.02,11.96-9.93,14.75-17.57c1.31-3.58,2.2-7.27,2.49-11.07
			c0.23-3.04,0.44-6.09,0.39-9.13c-0.06-3-0.38-6-0.73-8.98C222.52,112.56,222,110.02,221.56,107.39z M253.65,119.77
			c-0.23-0.03-0.32-0.05-0.41-0.05c-4.82,0.21-9.62,0.73-14.34,1.73c-3.26,0.69-6.47,1.6-9.7,2.4c-0.35,0.09-0.61,0.17-0.6,0.65
			c0.09,3.69-0.11,7.37-0.64,11.02c-0.73,5.06-2.08,9.92-4.34,14.53c-2.83,5.78-6.89,10.5-12.17,14.17c-1.15,0.8-2.37,1.51-3.7,2.36
			c0.89-0.16,1.6-0.27,2.31-0.41c4.02-0.78,7.95-1.86,11.76-3.34c4.43-1.71,8.58-3.94,12.23-7c4.92-4.13,8.83-9.1,11.96-14.69
			c2.76-4.92,4.82-10.12,6.27-15.56C252.79,123.67,253.19,121.74,253.65,119.77z M152.26,166.71c-0.13-0.25-0.14-0.3-0.18-0.32
			c-0.2-0.13-0.41-0.25-0.62-0.37c-6.6-3.77-11.61-9.05-14.98-15.87c-3.96-8.01-5.12-16.58-5.03-25.39c0.01-0.53-0.1-0.77-0.62-0.91
			c-2.03-0.53-4.04-1.18-6.08-1.66c-5.14-1.2-10.36-1.94-15.63-2.34c-0.86-0.07-1.72-0.01-2.76-0.01c0.7,2.69,1.3,5.38,2.09,8.01
			c2.46,8.2,6.25,15.71,11.83,22.27c3.45,4.06,7.41,7.5,12.13,10.04c3.64,1.96,7.44,3.47,11.42,4.54
			C146.57,165.41,149.35,166.01,152.26,166.71z M169.65,172.92c0-0.06,0-0.13-0.01-0.19c-1.63,0-3.25,0-4.88,0
			c-0.19,0-0.39,0.01-0.56,0.08c-2.63,1.12-3.58,3.56-2.44,6.15c1.05,2.38,2.91,4.02,4.94,5.5c3.12,2.26,6.56,3.93,10.16,5.24
			c3.84,1.4,2.43,1.4,6.18,0.05c0.07-0.02,0.14-0.03,0.21-0.06c3.78-1.46,7.43-3.2,10.67-5.66c1.81-1.37,3.46-2.91,4.35-5.07
			c0.52-1.27,1.01-2.65,0.05-3.86c-0.69-0.87-1.65-1.53-2.52-2.25c-0.15-0.13-0.45-0.1-0.69-0.1c-3.51-0.05-7.03-0.08-10.54-0.16
			c-1.67-0.04-3.34-0.34-5-0.28C176.28,172.42,172.97,172.7,169.65,172.92z M202.56,172.42c1.75,2.69,1.45,5.57,0.27,8.64
			c1.56,0.66,3.08,1.4,4.67,1.94c3,1.02,6.14,1.32,9.28,1.51c4.74,0.28,9.38-0.15,13.83-1.94c4.06-1.64,7.33-4.22,9.4-8.14
			c0.61-1.15,1-2.42,1.52-3.71c-0.42-0.05-0.61-0.05-0.8-0.09c-1.96-0.4-3.94-0.72-5.87-1.22c-2.85-0.73-5.66-1.61-8.5-2.37
			c-0.48-0.13-1.09-0.18-1.53-0.01c-4.02,1.62-8.14,2.91-12.4,3.74C209.17,171.4,205.89,171.87,202.56,172.42z M118.74,170.78
			c0,0.04-0.03,0.11-0.02,0.18c0.66,2.55,1.85,4.82,3.63,6.76c3.78,4.12,8.67,5.98,14.07,6.57c2.61,0.28,5.28,0.27,7.91,0.14
			c2.8-0.13,5.6-0.49,8.27-1.44c1.58-0.56,3.1-1.29,4.64-1.95c-1.21-3.08-1.45-5.95,0.3-8.71c-2.18-0.3-4.25-0.53-6.3-0.87
			c-5.5-0.92-10.86-2.33-16.02-4.46c-0.21-0.09-0.48-0.17-0.69-0.12c-1.53,0.33-3.08,0.63-4.59,1.05c-2.44,0.69-4.83,1.52-7.27,2.18
			C121.4,170.45,120.07,170.56,118.74,170.78z"/>
		<path d="M180.19,97.15c0.86,0.92,1.69,1.8,2.52,2.68c5.62,5.95,9.93,12.73,12.77,20.42c1.82,4.95,2.89,10.07,3.23,15.35
			c0.27,4.05,0.13,8.05-0.89,11.98c-1.98,7.63-6.25,13.62-13.02,17.72c-1.37,0.83-2.92,1.37-4.43,1.93
			c-0.4,0.15-0.97-0.07-1.44-0.21c-2.75-0.86-5.11-2.42-7.28-4.26c-3.85-3.26-6.67-7.26-8.42-12c-1.74-4.69-2.22-9.55-1.91-14.51
			c0.2-3.17,0.6-6.31,1.32-9.41c1.64-7,4.56-13.44,8.6-19.38c2.39-3.52,5.14-6.74,8.2-9.69C179.62,97.61,179.81,97.46,180.19,97.15z
			"/>
		<path d="M138.63,107.35c2.44,1.12,4.86,2.15,7.22,3.32c4.19,2.08,8.22,4.42,12.04,7.13c0.59,0.42,1.43,0.77,1.65,1.34
			c0.2,0.52-0.29,1.31-0.5,1.97c-1.12,3.59-1.89,7.24-2.32,10.98c-0.46,4.01-0.6,8.02-0.13,12.04c0.75,6.43,2.97,12.3,7,17.4
			c1.17,1.48,2.54,2.78,3.83,4.16c0.26,0.28,0.54,0.52,0.75,0.92c-0.68-0.11-1.36-0.21-2.03-0.35c-6-1.26-11.56-3.5-16.4-7.33
			c-4.51-3.57-7.74-8.1-9.88-13.41c-1.73-4.29-2.66-8.77-3.1-13.37c-0.38-3.93-0.38-7.85-0.09-11.77
			C136.97,116.04,137.58,111.76,138.63,107.35z"/>
		<path d="M221.56,107.39c0.44,2.64,0.96,5.18,1.27,7.74c0.36,2.98,0.68,5.98,0.73,8.98c0.06,3.04-0.15,6.09-0.39,9.13
			c-0.29,3.8-1.18,7.49-2.49,11.07c-2.79,7.64-7.64,13.56-14.75,17.57c-4.21,2.38-8.76,3.79-13.49,4.67
			c-0.12,0.02-0.24,0.02-0.36,0.02c-0.06,0-0.13-0.02-0.23-0.04c1.12-1.14,2.26-2.21,3.31-3.38c3.06-3.42,5.27-7.33,6.72-11.68
			c1.73-5.18,2.13-10.5,1.8-15.92c-0.33-5.46-1.35-10.79-3.15-15.96c-0.15-0.42-0.02-0.63,0.3-0.83c2.91-1.87,5.73-3.91,8.75-5.58
			c3.55-1.96,7.28-3.6,10.93-5.37C220.81,107.67,221.12,107.56,221.56,107.39z"/>
		<path d="M253.65,119.77c-0.46,1.97-0.87,3.9-1.37,5.8c-1.45,5.44-3.51,10.65-6.27,15.56c-3.13,5.59-7.04,10.56-11.96,14.69
			c-3.65,3.07-7.8,5.29-12.23,7c-3.82,1.48-7.75,2.56-11.76,3.34c-0.71,0.14-1.42,0.25-2.31,0.41c1.34-0.85,2.55-1.56,3.7-2.36
			c5.28-3.66,9.34-8.38,12.17-14.17c2.26-4.61,3.61-9.47,4.34-14.53c0.53-3.66,0.73-7.33,0.64-11.02c-0.01-0.48,0.25-0.56,0.6-0.65
			c3.23-0.81,6.44-1.71,9.7-2.4c4.72-1,9.52-1.52,14.34-1.73C253.34,119.72,253.43,119.75,253.65,119.77z"/>
		<path d="M152.26,166.71c-2.91-0.7-5.69-1.3-8.43-2.03c-3.98-1.06-7.78-2.58-11.42-4.54c-4.72-2.54-8.68-5.98-12.13-10.04
			c-5.57-6.56-9.36-14.07-11.83-22.27c-0.79-2.63-1.39-5.31-2.09-8.01c1.04,0,1.9-0.06,2.76,0.01c5.27,0.41,10.49,1.14,15.63,2.34
			c2.04,0.48,4.05,1.12,6.08,1.66c0.52,0.14,0.63,0.37,0.62,0.91c-0.09,8.81,1.07,17.38,5.03,25.39c3.37,6.82,8.38,12.1,14.98,15.87
			c0.21,0.12,0.42,0.24,0.62,0.37C152.12,166.4,152.13,166.46,152.26,166.71z"/>
		<path d="M169.65,172.92c3.31-0.22,6.62-0.5,9.94-0.62c1.66-0.06,3.33,0.24,5,0.28c3.51,0.09,7.03,0.11,10.54,0.16
			c0.23,0,0.53-0.03,0.69,0.1c0.87,0.72,1.83,1.38,2.52,2.25c0.96,1.22,0.47,2.59-0.05,3.86c-0.89,2.16-2.54,3.7-4.35,5.07
			c-3.25,2.46-6.89,4.2-10.67,5.66c-0.07,0.03-0.14,0.03-0.21,0.06c-3.75,1.34-2.34,1.35-6.18-0.05c-3.6-1.31-7.04-2.98-10.16-5.24
			c-2.04-1.47-3.89-3.12-4.94-5.5c-1.14-2.59-0.2-5.03,2.44-6.15c0.17-0.07,0.37-0.08,0.56-0.08c1.63-0.01,3.25,0,4.88,0
			C169.65,172.79,169.65,172.86,169.65,172.92z"/>
		<path d="M202.56,172.42c3.33-0.55,6.61-1.02,9.86-1.65c4.25-0.82,8.37-2.12,12.4-3.74c0.44-0.18,1.05-0.12,1.53,0.01
			c2.84,0.77,5.65,1.64,8.5,2.37c1.93,0.5,3.91,0.82,5.87,1.22c0.19,0.04,0.38,0.04,0.8,0.09c-0.52,1.29-0.91,2.56-1.52,3.71
			c-2.07,3.92-5.34,6.5-9.4,8.14c-4.44,1.79-9.09,2.22-13.83,1.94c-3.15-0.19-6.28-0.48-9.28-1.51c-1.59-0.54-3.1-1.29-4.67-1.94
			C204.01,177.99,204.31,175.11,202.56,172.42z"/>
		<path d="M118.74,170.78c1.32-0.22,2.66-0.33,3.93-0.67c2.44-0.66,4.84-1.49,7.27-2.18c1.51-0.43,3.05-0.72,4.59-1.05
			c0.21-0.05,0.48,0.04,0.69,0.12c5.16,2.13,10.52,3.55,16.02,4.46c2.05,0.34,4.12,0.57,6.3,0.87c-1.74,2.76-1.51,5.63-0.3,8.71
			c-1.55,0.66-3.07,1.39-4.64,1.95c-2.66,0.95-5.47,1.3-8.27,1.44c-2.63,0.12-5.3,0.14-7.91-0.14c-5.4-0.58-10.28-2.45-14.07-6.57
			c-1.79-1.94-2.97-4.21-3.63-6.76C118.71,170.9,118.74,170.82,118.74,170.78z"/>
	</g>
</g>
</svg>
