<?xml version="1.0" encoding="utf-8"?>
<!-- Generator: Adobe Illustrator 23.1.0, SVG Export Plug-In . SVG Version: 6.00 Build 0)  -->
<svg version="1.1" xmlns="http://www.w3.org/2000/svg" xmlns:xlink="http://www.w3.org/1999/xlink" x="0px" y="0px"
	 viewBox="0 0 360 360" style="enable-background:new 0 0 360 360;" xml:space="preserve">
<style type="text/css">
	.st0{fill:#FFFFFF;}
	.st1{fill:#0E6E39;}
	.st2{fill:#0C6E39;}
	.st3{fill:#4F497B;}
	.st4{fill:#216885;}
	.st5{fill:#F0492D;}
	.st6{fill:#EF3F25;}
	.st7{fill:#236886;}
	.st8{fill:#256887;}
	.st9{fill:#D2BF2D;}
	.st10{display:none;}
	.st11{display:inline;fill:none;stroke:#000000;stroke-width:0.25;stroke-miterlimit:10;}
	.st12{display:inline;fill:none;stroke:#FFFFFF;stroke-width:0.25;stroke-miterlimit:10;}
	.st13{display:inline;fill:none;stroke:#FFFFFF;stroke-width:0.25;stroke-linecap:round;stroke-miterlimit:10;}
	.st14{display:inline;fill:none;stroke:#000000;stroke-width:0.25;stroke-linecap:round;stroke-miterlimit:10;}
	.st15{fill:#4F4A7C;}
	.st16{fill:none;stroke:#FFFFFF;stroke-miterlimit:10;}
	.st17{stroke:#FFFFFF;stroke-miterlimit:10;}
	.st18{fill:none;stroke:#FFFFFF;stroke-width:3;stroke-miterlimit:10;}
	.st19{fill:none;stroke:#FFFFFF;stroke-linecap:round;stroke-miterlimit:10;}
	.st20{fill:none;stroke:#236886;stroke-width:5;stroke-miterlimit:10;}
	.st21{fill:none;stroke:#236886;stroke-width:5;stroke-linecap:round;stroke-miterlimit:10;}
	.st22{fill:none;stroke:#FFFFFF;stroke-width:5;stroke-miterlimit:10;}
	.st23{fill:none;stroke:#FFFFFF;stroke-width:5;stroke-linecap:round;stroke-miterlimit:10;}
	.st24{fill:none;stroke:#4F497B;stroke-width:3;stroke-miterlimit:10;}
	.st25{fill:none;stroke:#4F497B;stroke-miterlimit:10;}
	.st26{fill:#FFFFFF;stroke:#4F497B;stroke-miterlimit:10;}
	.st27{fill:#FFFFFF;stroke:#4F497B;stroke-width:2;stroke-miterlimit:10;}
	.st28{fill:none;stroke:#4F497B;stroke-width:2;stroke-linecap:round;stroke-miterlimit:10;}
	.st29{stroke:#FFFFFF;stroke-width:2;stroke-miterlimit:10;}
	.st30{fill:none;stroke:#FFFFFF;stroke-width:2;stroke-linecap:round;stroke-miterlimit:10;}
	.st31{fill:none;stroke:#0C6E39;stroke-width:3;stroke-miterlimit:10;}
	.st32{fill:none;stroke:#EF3F25;stroke-miterlimit:10;}
	.st33{fill:none;stroke:#EF3F25;stroke-width:3;stroke-miterlimit:10;}
	.st34{fill:none;stroke:#4F4A7C;stroke-width:3;stroke-miterlimit:10;}
	.st35{fill:none;stroke:#4F4A7C;stroke-width:5;stroke-linecap:round;stroke-miterlimit:10;}
	.st36{fill:none;stroke:#EF3F25;stroke-width:3;stroke-linecap:round;stroke-miterlimit:10;}
	.st37{fill:none;stroke:#EF3F25;stroke-width:5;stroke-linecap:round;stroke-miterlimit:10;}
	.st38{fill:none;stroke:#FFFFFF;stroke-width:3;stroke-linecap:round;stroke-miterlimit:10;}
	.st39{fill:none;stroke:#4F497B;stroke-width:5;stroke-linecap:round;stroke-miterlimit:10;}
	.st40{fill:#FFFFFF;stroke:#0E6E39;stroke-width:3;stroke-linejoin:round;stroke-miterlimit:10;}
	.st41{fill:none;stroke:#0E6E39;stroke-width:3;stroke-linejoin:round;stroke-miterlimit:10;}
	.st42{stroke:#FFFFFF;stroke-width:3;stroke-linejoin:round;stroke-miterlimit:10;}
	.st43{fill:none;stroke:#FFFFFF;stroke-width:3;stroke-linejoin:round;stroke-miterlimit:10;}
	.st44{fill:none;stroke:#0C6E39;stroke-width:5;stroke-linecap:round;stroke-miterlimit:10;}
	.st45{fill:none;stroke:#0C6E39;stroke-width:3;stroke-linecap:round;stroke-miterlimit:10;}
	.st46{fill:none;stroke:#0C6E39;stroke-linecap:round;stroke-linejoin:round;stroke-miterlimit:10;}
	.st47{fill:#0C6E39;stroke:#0C6E39;stroke-width:0;stroke-miterlimit:10;}
	.st48{fill:none;stroke:#0C6E39;stroke-width:3;stroke-linecap:round;stroke-linejoin:round;stroke-miterlimit:10;}
	.st49{fill:none;stroke:#0C6E39;stroke-linecap:round;stroke-miterlimit:10;}
	.st50{fill:none;stroke:#FFFFFF;stroke-linecap:round;stroke-linejoin:round;stroke-miterlimit:10;}
	.st51{fill:none;stroke:#FFFFFF;stroke-width:3;stroke-linecap:round;stroke-linejoin:round;stroke-miterlimit:10;}
	.st52{fill:none;stroke:#4F4A7C;stroke-miterlimit:10;}
	.st53{fill:#FFFFFF;stroke:#4F4A7C;stroke-width:2;stroke-miterlimit:10;}
	.st54{fill:#FFFFFF;stroke:#4F497B;stroke-width:5;stroke-miterlimit:10;}
	.st55{stroke:#FFFFFF;stroke-width:5;stroke-miterlimit:10;}
	.st56{fill:none;stroke:#EF3F25;stroke-width:2;stroke-linecap:round;stroke-miterlimit:10;}
	.st57{fill:none;stroke:#FFFFFF;stroke-width:1.5;stroke-miterlimit:10;}
	.st58{fill:none;stroke:#FFFFFF;stroke-width:1.5;stroke-linecap:round;stroke-miterlimit:10;}
	.st59{fill:none;stroke:#0E6E39;stroke-width:3;stroke-miterlimit:10;}
	.st60{fill:none;stroke:#0E6E39;stroke-width:1.5;stroke-miterlimit:10;}
	.st61{fill:none;stroke:#0E6E39;stroke-width:1.5;stroke-linecap:round;stroke-miterlimit:10;}
	.st62{fill:none;stroke:#EF3F25;stroke-width:0.7099;stroke-miterlimit:10;}
	.st63{fill:none;stroke:#FFFFFF;stroke-width:0.7099;stroke-miterlimit:10;}
	.st64{fill:#EF4025;}
	.st65{fill:#505050;stroke:#4F4A7C;stroke-width:2.9281;stroke-miterlimit:10;}
	.st66{fill:#FFFFFF;stroke:#FFFFFF;stroke-width:2.9281;stroke-miterlimit:10;}
	.st67{fill:none;stroke:#FFFFFF;stroke-width:3.2577;stroke-miterlimit:10;}
	.st68{fill:none;stroke:#FFFFFF;stroke-width:3.2577;stroke-linecap:round;stroke-linejoin:round;stroke-miterlimit:10;}
	.st69{fill:none;stroke:#256887;stroke-width:3.2577;stroke-miterlimit:10;}
	.st70{fill:none;stroke:#256887;stroke-width:3.2577;stroke-linecap:round;stroke-linejoin:round;stroke-miterlimit:10;}
	.st71{fill:#FFFFFF;stroke:#FFFFFF;stroke-width:2;stroke-miterlimit:10;}
	.st72{fill:#D2BF2D;stroke:#D2BF2D;stroke-width:2;stroke-miterlimit:10;}
	.st73{fill:#086E38;}
	.st74{fill:#256887;stroke:#256887;stroke-width:4;stroke-miterlimit:10;}
	.st75{fill:#FFFFFF;stroke:#FFFFFF;stroke-width:4;stroke-miterlimit:10;}
	.st76{fill:#4F4B7D;}
	.st77{fill:#256887;stroke:#256887;stroke-width:2.8997;stroke-miterlimit:10;}
	.st78{fill:#FFFFFF;stroke:#FFFFFF;stroke-width:2.8997;stroke-miterlimit:10;}
	.st79{fill:none;stroke:#FFFFFF;stroke-width:2.2399;stroke-miterlimit:10;}
	.st80{fill:none;stroke:#FFFFFF;stroke-width:2;stroke-miterlimit:10;}
	.st81{fill:none;stroke:#FFFFFF;stroke-width:1.4254;stroke-miterlimit:10;}
	.st82{fill:none;stroke:#EF4025;stroke-width:2.2399;stroke-miterlimit:10;}
	.st83{fill:none;stroke:#EF4025;stroke-width:2;stroke-miterlimit:10;}
	.st84{fill:none;stroke:#EF4025;stroke-width:1.4254;stroke-miterlimit:10;}
	.st85{fill:none;stroke:#4F497B;stroke-linecap:round;stroke-miterlimit:10;}
</style>
<g id="White">
</g>
<g id="BACKGROUND">
	<rect width="360" height="360"/>
</g>
<g id="REF" class="st10">
	<rect x="-360" y="90.33" class="st11" width="360" height="108"/>
	<rect x="0" y="90.33" class="st12" width="360" height="108"/>
	<line class="st13" x1="180" y1="0.19" x2="180" y2="360.06"/>
</g>
<g id="LINE_ONE">
	<g>
		<path class="st0" d="M137.98,234.16h3v14h-3V234.16z"/>
		<path class="st0" d="M152.42,248.16c-0.2-0.55-0.45-1.26-0.75-2.15c-0.3-0.89-0.61-1.81-0.93-2.77s-0.63-1.9-0.93-2.82
			c-0.3-0.92-0.54-1.69-0.73-2.32h-0.06v10.06h-2.76v-14h4.2c0.57,1.71,1.09,3.27,1.56,4.7c0.28,0.85,0.51,1.54,0.69,2.07
			c0.18,0.53,0.35,1.03,0.5,1.51c0.15,0.48,0.29,0.91,0.42,1.3c0.13,0.39,0.22,0.67,0.27,0.84c0.05-0.17,0.14-0.45,0.26-0.84
			c0.12-0.39,0.26-0.84,0.43-1.37c0.17-0.53,0.35-1.09,0.54-1.7c0.19-0.61,0.39-1.21,0.59-1.81c0.45-1.43,0.95-2.99,1.5-4.7h4.18v14
			h-2.76V238.1h-0.06c-0.13,0.41-0.29,0.91-0.48,1.49c-0.19,0.58-0.39,1.2-0.61,1.85c-0.22,0.65-0.44,1.32-0.67,1.99
			c-0.23,0.67-0.44,1.31-0.64,1.92c-0.2,0.61-0.38,1.16-0.55,1.65s-0.3,0.88-0.41,1.16H152.42z"/>
		<path class="st0" d="M169.66,243.24v4.92h-2.98v-14H172c0.84,0,1.6,0.09,2.28,0.26c0.68,0.17,1.26,0.44,1.74,0.8
			c0.48,0.36,0.85,0.82,1.12,1.38c0.27,0.56,0.4,1.23,0.4,2.02c0,0.8-0.14,1.49-0.41,2.07s-0.65,1.06-1.14,1.44
			c-0.49,0.38-1.07,0.66-1.75,0.84c-0.68,0.18-1.43,0.27-2.24,0.27H169.66z M174.48,238.62c0-0.76-0.23-1.28-0.69-1.56
			c-0.46-0.28-1.16-0.42-2.09-0.42h-2.04v4.12h2.04c0.93,0,1.63-0.17,2.09-0.5C174.25,239.93,174.48,239.38,174.48,238.62z"/>
		<path class="st0" d="M193,248.16h-3.1l-1.12-3.24h-5.02l-1.12,3.24h-2.94l5.04-14h3.22L193,248.16z M186.24,237.44
			c-0.03,0.11-0.07,0.26-0.14,0.47s-0.14,0.44-0.22,0.7c-0.08,0.26-0.17,0.54-0.27,0.84s-0.2,0.59-0.29,0.87
			c-0.23,0.69-0.47,1.43-0.74,2.22h3.38c-0.27-0.79-0.51-1.53-0.74-2.22c-0.15-0.4-0.26-0.73-0.35-0.99
			c-0.09-0.26-0.17-0.51-0.24-0.75c-0.07-0.24-0.14-0.46-0.21-0.67s-0.11-0.36-0.14-0.47H186.24z"/>
		<path class="st0" d="M195.86,241.16c0-1.15,0.16-2.17,0.48-3.07c0.32-0.9,0.78-1.66,1.37-2.29c0.59-0.63,1.31-1.1,2.16-1.43
			c0.85-0.33,1.8-0.49,2.85-0.49c1.49,0,2.75,0.33,3.76,0.98s1.73,1.65,2.16,2.98l-2.92,1.02c-0.24-0.79-0.6-1.4-1.08-1.83
			s-1.14-0.65-1.98-0.65c-0.61,0-1.15,0.12-1.62,0.36s-0.85,0.57-1.16,0.99s-0.54,0.92-0.69,1.51c-0.15,0.59-0.23,1.23-0.23,1.92
			s0.08,1.33,0.23,1.91c0.15,0.58,0.38,1.08,0.69,1.51s0.69,0.76,1.16,1s1.01,0.36,1.64,0.36c0.77,0,1.4-0.19,1.89-0.58
			s0.86-0.97,1.11-1.76l2.88,1.02c-0.47,1.19-1.19,2.12-2.16,2.8c-0.97,0.68-2.23,1.02-3.76,1.02c-1.03,0-1.96-0.16-2.79-0.49
			c-0.83-0.33-1.55-0.8-2.14-1.42c-0.59-0.62-1.05-1.38-1.37-2.29C196.02,243.33,195.86,242.31,195.86,241.16z"/>
		<path class="st0" d="M211.98,234.16h11.1v2.5h-4.04v11.5h-3.02v-11.5h-4.04V234.16z"/>
	</g>
</g>
<g id="LINE_TWO">
</g>
<g id="ICON">
	<g>
		<path class="st0" d="M198.31,92.52 M172.25,95.73 M188.36,103.4c-0.03,1.1,0.28,1.68,1.39,2.06c1.76,0.59,2.87,1.75,3.06,3.8
			c0.11,1.15,0.83,2.23,1.21,3.37c0.47,1.41,1.47,1.67,2.82,1.65c1.04-0.01,2.13,0.19,3.1,0.57c0.4,0.16,0.8,1.14,0.66,1.56
			c-0.14,0.41-0.96,0.64-1.52,0.82c-0.26,0.08-0.62-0.2-0.95-0.24c-5.2-0.66-6.88-2.14-8-7.11c-0.45-2-2.57-3-4.18-1.72
			c-1.48,1.18-2.81,2.65-3.89,4.22c-0.97,1.41-2.05,2.34-3.71,2.78c-1.18,0.31-2.24,1.06-3.41,1.48c-0.55,0.19-1.45,0.3-1.76,0
			c-0.33-0.32-0.4-1.52-0.13-1.72c1.19-0.88,2.46-1.82,3.85-2.21c1.33-0.37,2.1-0.96,2.92-2.07c1.32-1.79,3.1-3.24,4.67-4.85
			c0.42-0.44,1.1-0.92,1.12-1.4c0.11-2.54,0.05-5.09,0.05-7.64c0-0.66,0-1.32,0-2.1l-0.12-3.32c0-0.72,0-1.97,0-3.1
			c-1.72,0-3.49,0.14-5.23-0.03c-3.99-0.39-6.61-2.73-7.44-6.53c-0.66-3.03-0.65-6.21-0.83-9.33c-0.02-0.44,0.51-1.16,0.94-1.29
			c0.41-0.13,1.23,0.19,1.48,0.57c1.88,2.91,4.69,4.39,7.81,5.65c1.79,0.72,3.29,2.16,5,3.34c1.29-2.08,3.64-2.93,5.95-4.04
			c2.21-1.06,4.01-2.98,6.01-4.48c0.57-0.43,1.24-0.74,1.86-1.11c0.36,0.65,1.05,1.32,1.01,1.94c-0.16,2.92-0.18,5.92-0.89,8.73
			c-1.26,5.04-5.45,7.41-10.6,6.5c-0.65-0.12-1.31-0.17-2.11-0.27L188.36,103.4 M174.59,75.85c-0.54,6.53,3.3,10.88,7.86,9.3
			c-0.61-0.4-1.32-0.63-1.66-1.12c-0.38-0.56-0.43-1.35-0.62-2.04c0.67-0.06,1.38-0.32,1.99-0.15c0.85,0.23,1.6,0.78,2.83,1.41
			C182.65,78.67,177.34,79.61,174.59,75.85z M199.22,76.47c-1.14,0.73-2.21,1.54-3.38,2.12c-1.19,0.59-2.58,0.79-3.72,1.45
			c-1.22,0.71-2.23,1.76-3.34,2.66c0.13,0.17,0.27,0.33,0.4,0.5c0.93-0.48,1.83-1.09,2.82-1.37c0.47-0.14,1.4,0.2,1.62,0.6
			c0.22,0.4-0.01,1.3-0.36,1.7c-0.48,0.55-1.25,0.84-2.08,1.35C196.45,86.21,199.62,82.55,199.22,76.47z"/>
		<g>
			<g>
				<g>
					<g>
						<path class="st0" d="M180.75,95.83c10.5,0.19,18.91,1.63,26.4,6.58c8.4,5.54,12.49,13.55,13.08,23.38
							c0.66,11.02-2.71,20.95-8.58,30.19c-1.61,2.54-3.32,5.25-3.95,8.11c-0.95,4.31,0.44,8.49,2.79,12.23
							c1.01,1.61,2.14,3.14,3.32,4.63c0.83,1.03,0.9,1.7-0.33,2.46c-10.23,6.39-21.07,11.45-32.57,15.1
							c-1.72,0.55-1.91,0.29-2.37-1.53c-1.46-5.77-2.9-11.56-4.59-17.27c-1.12-3.8-3.52-6.79-7.58-7.55
							c-2.44-0.46-5.05-0.06-7.59-0.02c-2.32,0.04-4.65,0.28-6.96,0.12c-2.19-0.15-3.13-1.34-3.27-3.55
							c-0.08-1.25,0.01-2.5-0.05-3.75c-0.03-0.58-0.03-1.3-0.36-1.71c-1.02-1.27-1.35-2.5-0.54-4.02c0.1-0.19-0.48-1-0.9-1.19
							c-2.25-1.01-2.27-0.98-1.71-3.2c0.69-2.75,0.17-3.64-2.55-4.4c-0.62-0.17-1.27-0.35-1.82-0.67c-0.93-0.55-1.24-1.35-0.59-2.33
							c2.01-3.03,3.91-6.14,6.08-9.05c1.55-2.08,2.24-4.26,1.61-6.71c-0.66-2.54-0.34-4.91,0.42-7.35c0.63-2.01,1.1-4.08,1.54-6.14
							c2.35-10.83,10.9-19.24,21.81-21.2C175.12,96.33,178.8,96.06,180.75,95.83z M182.63,101c-2.08,0.37-5.38,0.61-8.45,1.57
							c-9.95,3.13-17.19,9.11-18.91,19.98c-1.03,6.53,1.26,10.96,8.22,12.26c1.81,0.34,3.66,0.64,5.49,0.62
							c7.02-0.07,13.1,1.93,18.42,6.79c3.13,2.86,6.94,5,10.57,7.27c2.57,1.6,5.37,1.28,7.63-0.58c1.81-1.49,3.46-3.32,4.69-5.31
							c2.74-4.42,3.71-9.43,4.29-14.56c0.63-5.54-0.38-10.64-3.79-15.08C203.98,105.13,194.61,101.59,182.63,101z"/>
					</g>
				</g>
			</g>
			<g>
				<path class="st0" d="M193.94,124.47c0.25,0.67,0.49,1.11,0.57,1.58c0.18,1.16-0.16,2.16-1.14,2.86
					c-0.99,0.71-2.07,0.85-3.16,0.24c-2.11-1.17-4.22-2.35-6.3-3.58c-0.24-0.14-0.32-0.57-0.47-0.86c0.31,0,0.67-0.1,0.91,0.03
					c2.03,1.1,4.02,2.29,6.07,3.34c0.56,0.29,1.42,0.43,1.95,0.19c0.52-0.23,1.06-1,1.11-1.57c0.05-0.56-0.35-1.45-0.83-1.73
					c-3.37-2-6.76-3.99-10.26-5.75c-1.03-0.52-2.5-0.59-3.65-0.33c-2.97,0.67-5.87,1.63-8.79,2.51c-1.03,0.31-1.37,0.99-1.09,2.02
					c0.41,1.49,0.84,2.96,1.3,4.44c0.32,1.05,1.01,1.43,2.1,1.16c0.82-0.2,1.64-0.4,2.42-0.71c1.27-0.52,2.42-0.31,3.63,0.23
					c3.08,1.35,6.19,2.62,9.29,3.92c1.21,0.51,2.35,0.42,3.5-0.26c4.27-2.53,8.56-5.01,12.85-7.52c0.27-0.16,0.56-0.31,0.78-0.52
					c0.71-0.69,0.87-1.52,0.42-2.4c-0.44-0.85-1.23-1.25-2.11-0.92C200,121.99,197.01,123.23,193.94,124.47z"/>
			</g>
		</g>
	</g>
</g>
</svg>
