<?xml version="1.0" encoding="utf-8"?>
<!-- Generator: Adobe Illustrator 23.1.0, SVG Export Plug-In . SVG Version: 6.00 Build 0)  -->
<svg version="1.1" xmlns="http://www.w3.org/2000/svg" xmlns:xlink="http://www.w3.org/1999/xlink" x="0px" y="0px"
	 viewBox="0 0 360 360" style="enable-background:new 0 0 360 360;" xml:space="preserve">
<style type="text/css">
	.st0{fill:#FFFFFF;}
	.st1{fill:#0E6E39;}
	.st2{fill:#0C6E39;}
	.st3{fill:#4F497B;}
	.st4{fill:#216885;}
	.st5{fill:#F0492D;}
	.st6{fill:#EF3F25;}
	.st7{fill:#236886;}
	.st8{fill:#256887;}
	.st9{fill:#D2BF2D;}
	.st10{display:none;}
	.st11{display:inline;fill:none;stroke:#000000;stroke-width:0.25;stroke-miterlimit:10;}
	.st12{display:inline;fill:none;stroke:#FFFFFF;stroke-width:0.25;stroke-miterlimit:10;}
	.st13{display:inline;fill:none;stroke:#FFFFFF;stroke-width:0.25;stroke-linecap:round;stroke-miterlimit:10;}
	.st14{display:inline;fill:none;stroke:#000000;stroke-width:0.25;stroke-linecap:round;stroke-miterlimit:10;}
	.st15{fill:#4F4A7C;}
	.st16{fill:none;stroke:#FFFFFF;stroke-miterlimit:10;}
	.st17{stroke:#FFFFFF;stroke-miterlimit:10;}
	.st18{fill:none;stroke:#FFFFFF;stroke-width:3;stroke-miterlimit:10;}
	.st19{fill:none;stroke:#FFFFFF;stroke-linecap:round;stroke-miterlimit:10;}
	.st20{fill:none;stroke:#236886;stroke-width:5;stroke-miterlimit:10;}
	.st21{fill:none;stroke:#236886;stroke-width:5;stroke-linecap:round;stroke-miterlimit:10;}
	.st22{fill:none;stroke:#FFFFFF;stroke-width:5;stroke-miterlimit:10;}
	.st23{fill:none;stroke:#FFFFFF;stroke-width:5;stroke-linecap:round;stroke-miterlimit:10;}
	.st24{fill:none;stroke:#4F497B;stroke-width:3;stroke-miterlimit:10;}
	.st25{fill:none;stroke:#4F497B;stroke-miterlimit:10;}
	.st26{fill:#FFFFFF;stroke:#4F497B;stroke-miterlimit:10;}
	.st27{fill:#FFFFFF;stroke:#4F497B;stroke-width:2;stroke-miterlimit:10;}
	.st28{fill:none;stroke:#4F497B;stroke-width:2;stroke-linecap:round;stroke-miterlimit:10;}
	.st29{stroke:#FFFFFF;stroke-width:2;stroke-miterlimit:10;}
	.st30{fill:none;stroke:#FFFFFF;stroke-width:2;stroke-linecap:round;stroke-miterlimit:10;}
	.st31{fill:none;stroke:#0C6E39;stroke-width:3;stroke-miterlimit:10;}
	.st32{fill:none;stroke:#EF3F25;stroke-miterlimit:10;}
	.st33{fill:none;stroke:#EF3F25;stroke-width:3;stroke-miterlimit:10;}
	.st34{fill:none;stroke:#4F4A7C;stroke-width:3;stroke-miterlimit:10;}
	.st35{fill:none;stroke:#4F4A7C;stroke-width:5;stroke-linecap:round;stroke-miterlimit:10;}
	.st36{fill:none;stroke:#EF3F25;stroke-width:3;stroke-linecap:round;stroke-miterlimit:10;}
	.st37{fill:none;stroke:#EF3F25;stroke-width:5;stroke-linecap:round;stroke-miterlimit:10;}
	.st38{fill:none;stroke:#FFFFFF;stroke-width:3;stroke-linecap:round;stroke-miterlimit:10;}
	.st39{fill:none;stroke:#4F497B;stroke-width:5;stroke-linecap:round;stroke-miterlimit:10;}
	.st40{fill:#FFFFFF;stroke:#0E6E39;stroke-width:3;stroke-linejoin:round;stroke-miterlimit:10;}
	.st41{fill:none;stroke:#0E6E39;stroke-width:3;stroke-linejoin:round;stroke-miterlimit:10;}
	.st42{stroke:#FFFFFF;stroke-width:3;stroke-linejoin:round;stroke-miterlimit:10;}
	.st43{fill:none;stroke:#FFFFFF;stroke-width:3;stroke-linejoin:round;stroke-miterlimit:10;}
	.st44{fill:none;stroke:#0C6E39;stroke-width:5;stroke-linecap:round;stroke-miterlimit:10;}
	.st45{fill:none;stroke:#0C6E39;stroke-width:3;stroke-linecap:round;stroke-miterlimit:10;}
	.st46{fill:none;stroke:#0C6E39;stroke-linecap:round;stroke-linejoin:round;stroke-miterlimit:10;}
	.st47{fill:#0C6E39;stroke:#0C6E39;stroke-width:0;stroke-miterlimit:10;}
	.st48{fill:none;stroke:#0C6E39;stroke-width:3;stroke-linecap:round;stroke-linejoin:round;stroke-miterlimit:10;}
	.st49{fill:none;stroke:#0C6E39;stroke-linecap:round;stroke-miterlimit:10;}
	.st50{fill:none;stroke:#FFFFFF;stroke-linecap:round;stroke-linejoin:round;stroke-miterlimit:10;}
	.st51{fill:none;stroke:#FFFFFF;stroke-width:3;stroke-linecap:round;stroke-linejoin:round;stroke-miterlimit:10;}
	.st52{fill:none;stroke:#4F4A7C;stroke-miterlimit:10;}
	.st53{fill:#FFFFFF;stroke:#4F4A7C;stroke-width:2;stroke-miterlimit:10;}
	.st54{fill:#FFFFFF;stroke:#4F497B;stroke-width:5;stroke-miterlimit:10;}
	.st55{stroke:#FFFFFF;stroke-width:5;stroke-miterlimit:10;}
	.st56{fill:none;stroke:#EF3F25;stroke-width:2;stroke-linecap:round;stroke-miterlimit:10;}
	.st57{fill:none;stroke:#FFFFFF;stroke-width:1.5;stroke-miterlimit:10;}
	.st58{fill:none;stroke:#FFFFFF;stroke-width:1.5;stroke-linecap:round;stroke-miterlimit:10;}
	.st59{fill:none;stroke:#0E6E39;stroke-width:3;stroke-miterlimit:10;}
	.st60{fill:none;stroke:#0E6E39;stroke-width:1.5;stroke-miterlimit:10;}
	.st61{fill:none;stroke:#0E6E39;stroke-width:1.5;stroke-linecap:round;stroke-miterlimit:10;}
	.st62{fill:none;stroke:#EF3F25;stroke-width:0.7099;stroke-miterlimit:10;}
	.st63{fill:none;stroke:#FFFFFF;stroke-width:0.7099;stroke-miterlimit:10;}
	.st64{fill:#EF4025;}
	.st65{fill:#505050;stroke:#4F4A7C;stroke-width:2.9281;stroke-miterlimit:10;}
	.st66{fill:#FFFFFF;stroke:#FFFFFF;stroke-width:2.9281;stroke-miterlimit:10;}
	.st67{fill:none;stroke:#FFFFFF;stroke-width:3.2577;stroke-miterlimit:10;}
	.st68{fill:none;stroke:#FFFFFF;stroke-width:3.2577;stroke-linecap:round;stroke-linejoin:round;stroke-miterlimit:10;}
	.st69{fill:none;stroke:#256887;stroke-width:3.2577;stroke-miterlimit:10;}
	.st70{fill:none;stroke:#256887;stroke-width:3.2577;stroke-linecap:round;stroke-linejoin:round;stroke-miterlimit:10;}
	.st71{fill:#FFFFFF;stroke:#FFFFFF;stroke-width:2;stroke-miterlimit:10;}
	.st72{fill:#D2BF2D;stroke:#D2BF2D;stroke-width:2;stroke-miterlimit:10;}
	.st73{fill:#086E38;}
	.st74{fill:#256887;stroke:#256887;stroke-width:4;stroke-miterlimit:10;}
	.st75{fill:#FFFFFF;stroke:#FFFFFF;stroke-width:4;stroke-miterlimit:10;}
	.st76{fill:#4F4B7D;}
	.st77{fill:#256887;stroke:#256887;stroke-width:2.8997;stroke-miterlimit:10;}
	.st78{fill:#FFFFFF;stroke:#FFFFFF;stroke-width:2.8997;stroke-miterlimit:10;}
	.st79{fill:none;stroke:#FFFFFF;stroke-width:2.2399;stroke-miterlimit:10;}
	.st80{fill:none;stroke:#FFFFFF;stroke-width:2;stroke-miterlimit:10;}
	.st81{fill:none;stroke:#FFFFFF;stroke-width:1.4254;stroke-miterlimit:10;}
	.st82{fill:none;stroke:#EF4025;stroke-width:2.2399;stroke-miterlimit:10;}
	.st83{fill:none;stroke:#EF4025;stroke-width:2;stroke-miterlimit:10;}
	.st84{fill:none;stroke:#EF4025;stroke-width:1.4254;stroke-miterlimit:10;}
	.st85{fill:none;stroke:#4F497B;stroke-linecap:round;stroke-miterlimit:10;}
</style>
<g id="White">
</g>
<g id="BACKGROUND">
	<rect x="0.35" y="0.15" width="360" height="360"/>
</g>
<g id="REF" class="st10">
	<rect x="-360" y="90.33" class="st11" width="360" height="108"/>
	<rect x="0" y="90.33" class="st12" width="360" height="108"/>
	<line class="st13" x1="180" y1="0.19" x2="180" y2="360.06"/>
</g>
<g id="LINE_ONE">
	<g>
		<path class="st0" d="M139.92,248.16v-14h9.58v2.48h-6.62v3.08h6.1v2.48h-6.1v5.96H139.92z"/>
		<path class="st0" d="M165.04,248.16h-3.1l-1.12-3.24h-5.02l-1.12,3.24h-2.94l5.04-14H160L165.04,248.16z M158.28,237.44
			c-0.03,0.11-0.07,0.26-0.14,0.47c-0.07,0.21-0.14,0.44-0.22,0.7s-0.17,0.54-0.27,0.84s-0.2,0.59-0.29,0.87
			c-0.23,0.69-0.47,1.43-0.74,2.22H160c-0.27-0.79-0.51-1.53-0.74-2.22c-0.15-0.4-0.26-0.73-0.35-0.99
			c-0.09-0.26-0.17-0.51-0.24-0.75c-0.07-0.24-0.14-0.46-0.21-0.67s-0.11-0.36-0.14-0.47H158.28z"/>
		<path class="st0" d="M175.34,248.16c-0.2-0.55-0.45-1.26-0.75-2.15c-0.3-0.89-0.61-1.81-0.93-2.77s-0.63-1.9-0.93-2.82
			c-0.3-0.92-0.54-1.69-0.73-2.32h-0.06v10.06h-2.76v-14h4.2c0.57,1.71,1.09,3.27,1.56,4.7c0.28,0.85,0.51,1.54,0.69,2.07
			c0.18,0.53,0.35,1.03,0.5,1.51c0.15,0.48,0.29,0.91,0.42,1.3c0.13,0.39,0.22,0.67,0.27,0.84c0.05-0.17,0.14-0.45,0.26-0.84
			c0.12-0.39,0.26-0.84,0.43-1.37c0.17-0.53,0.35-1.09,0.54-1.7c0.19-0.61,0.39-1.21,0.59-1.81c0.45-1.43,0.95-2.99,1.5-4.7h4.18v14
			h-2.76V238.1h-0.06c-0.13,0.41-0.29,0.91-0.48,1.49c-0.19,0.58-0.39,1.2-0.61,1.85c-0.22,0.65-0.44,1.32-0.67,1.99
			c-0.23,0.67-0.44,1.31-0.64,1.92c-0.2,0.61-0.38,1.16-0.55,1.65s-0.3,0.88-0.41,1.16H175.34z"/>
		<path class="st0" d="M189.6,234.16h3v14h-3V234.16z"/>
		<path class="st0" d="M197.88,234.16h3v11.5H207v2.5h-9.12V234.16z"/>
		<path class="st0" d="M213.04,242.3l-5.3-8.14h3.44l3.42,5.36l3.4-5.36h3.34l-5.3,8.14v5.86h-3V242.3z"/>
	</g>
</g>
<g id="LINE_TWO">
	<g>
		<path class="st0" d="M130.58,255.62c0,0.6,0.26,1.03,0.78,1.29c0.52,0.26,1.35,0.48,2.48,0.67c1.67,0.28,2.89,0.74,3.67,1.38
			c0.78,0.64,1.17,1.59,1.17,2.86c0,0.68-0.14,1.29-0.42,1.83c-0.28,0.54-0.67,1-1.17,1.38s-1.1,0.67-1.79,0.88
			c-0.69,0.21-1.45,0.31-2.26,0.31c-0.88,0-1.67-0.12-2.38-0.35c-0.71-0.23-1.31-0.54-1.8-0.93s-0.88-0.84-1.16-1.36
			c-0.28-0.52-0.43-1.06-0.46-1.62l3-0.48c0.07,0.68,0.33,1.24,0.79,1.67c0.46,0.43,1.13,0.65,2.01,0.65c0.36,0,0.7-0.03,1.01-0.1
			c0.31-0.07,0.59-0.18,0.82-0.33c0.23-0.15,0.42-0.34,0.55-0.57c0.13-0.23,0.2-0.5,0.2-0.82c0-0.52-0.22-0.92-0.65-1.2
			c-0.43-0.28-1.2-0.51-2.29-0.68c-0.73-0.12-1.41-0.27-2.04-0.46s-1.17-0.44-1.63-0.77c-0.46-0.33-0.82-0.73-1.08-1.22
			c-0.26-0.49-0.39-1.08-0.39-1.79c0-0.71,0.13-1.32,0.4-1.84c0.27-0.52,0.64-0.96,1.12-1.31c0.48-0.35,1.05-0.62,1.7-0.79
			c0.65-0.17,1.37-0.26,2.14-0.26c0.72,0,1.39,0.08,2.02,0.25c0.63,0.17,1.18,0.41,1.67,0.74c0.49,0.33,0.89,0.73,1.21,1.21
			c0.32,0.48,0.54,1.03,0.66,1.64l-3.04,0.66c-0.11-0.64-0.38-1.15-0.82-1.52s-1.03-0.56-1.78-0.56c-0.76,0-1.32,0.14-1.69,0.42
			C130.76,254.78,130.58,255.16,130.58,255.62z"/>
		<path class="st0" d="M148.86,266.22c-1.95,0-3.37-0.48-4.26-1.44s-1.34-2.29-1.34-4v-8.84h3v8.86c0,0.85,0.21,1.56,0.64,2.11
			c0.43,0.55,1.08,0.83,1.96,0.83s1.53-0.28,1.96-0.83c0.43-0.55,0.64-1.26,0.64-2.11v-8.86h3v8.84c0,1.71-0.45,3.04-1.34,4
			C152.23,265.74,150.81,266.22,148.86,266.22z"/>
		<path class="st0" d="M162.64,261.02v4.92h-2.98v-14h5.32c0.84,0,1.6,0.09,2.28,0.26c0.68,0.17,1.26,0.44,1.74,0.8
			c0.48,0.36,0.85,0.82,1.12,1.38c0.27,0.56,0.4,1.23,0.4,2.02c0,0.8-0.14,1.49-0.41,2.07c-0.27,0.58-0.65,1.06-1.14,1.44
			c-0.49,0.38-1.07,0.66-1.75,0.84c-0.68,0.18-1.43,0.27-2.24,0.27H162.64z M167.46,256.4c0-0.76-0.23-1.28-0.69-1.56
			c-0.46-0.28-1.16-0.42-2.09-0.42h-2.04v4.12h2.04c0.93,0,1.63-0.17,2.09-0.5C167.23,257.71,167.46,257.16,167.46,256.4z"/>
		<path class="st0" d="M177.9,261.02v4.92h-2.98v-14h5.32c0.84,0,1.6,0.09,2.28,0.26c0.68,0.17,1.26,0.44,1.74,0.8
			c0.48,0.36,0.85,0.82,1.12,1.38c0.27,0.56,0.4,1.23,0.4,2.02c0,0.8-0.14,1.49-0.41,2.07s-0.65,1.06-1.14,1.44
			s-1.07,0.66-1.75,0.84c-0.68,0.18-1.43,0.27-2.24,0.27H177.9z M182.72,256.4c0-0.76-0.23-1.28-0.69-1.56
			c-0.46-0.28-1.16-0.42-2.09-0.42h-2.04v4.12h2.04c0.93,0,1.63-0.17,2.09-0.5C182.49,257.71,182.72,257.16,182.72,256.4z"/>
		<path class="st0" d="M189.6,258.94c0-1.13,0.16-2.15,0.49-3.05c0.33-0.9,0.79-1.66,1.38-2.29c0.59-0.63,1.31-1.11,2.15-1.44
			c0.84-0.33,1.77-0.5,2.8-0.5s1.96,0.17,2.8,0.5c0.84,0.33,1.55,0.81,2.15,1.44s1.05,1.39,1.38,2.29c0.33,0.9,0.49,1.92,0.49,3.05
			c0,1.13-0.16,2.15-0.49,3.05c-0.33,0.9-0.79,1.66-1.38,2.29c-0.59,0.63-1.31,1.11-2.15,1.44c-0.84,0.33-1.77,0.5-2.8,0.5
			s-1.96-0.17-2.8-0.5s-1.56-0.81-2.15-1.44c-0.59-0.63-1.05-1.39-1.38-2.29C189.76,261.1,189.6,260.08,189.6,258.94z M192.7,258.94
			c0,0.71,0.08,1.36,0.23,1.95c0.15,0.59,0.38,1.1,0.69,1.52s0.69,0.75,1.16,0.98s1.01,0.35,1.64,0.35s1.17-0.12,1.64-0.35
			c0.46-0.23,0.85-0.56,1.16-0.98c0.3-0.42,0.54-0.93,0.69-1.52c0.15-0.59,0.23-1.24,0.23-1.95s-0.08-1.36-0.23-1.95
			c-0.15-0.59-0.38-1.1-0.69-1.52c-0.31-0.42-0.7-0.75-1.16-0.98c-0.47-0.23-1.01-0.35-1.64-0.35s-1.17,0.12-1.64,0.35
			s-0.85,0.56-1.16,0.98s-0.54,0.93-0.69,1.52C192.78,257.59,192.7,258.24,192.7,258.94z"/>
		<path class="st0" d="M218.42,256.2c0,1.04-0.24,1.89-0.71,2.54c-0.47,0.65-1.12,1.14-1.95,1.46l3.22,5.74h-3.3l-2.9-5.3h-1.86v5.3
			h-2.98v-14h5.12c0.81,0,1.55,0.08,2.21,0.25s1.22,0.42,1.69,0.77c0.47,0.35,0.83,0.79,1.08,1.32S218.42,255.46,218.42,256.2z
			 M215.34,256.22c0-0.68-0.22-1.15-0.65-1.41s-1.09-0.39-1.97-0.39h-1.8v3.78h1.8c0.88,0,1.54-0.15,1.97-0.45
			C215.12,257.45,215.34,256.94,215.34,256.22z"/>
		<path class="st0" d="M222.1,251.94h11.1v2.5h-4.04v11.5h-3.02v-11.5h-4.04V251.94z"/>
	</g>
</g>
<g id="ICON">
	<g>
		<g>
			<g>
				<path class="st0" d="M220.65,158.77c1.35,0.85,2.39,1.3,3.16,2.03c1.9,1.8,2.66,4.05,1.89,6.62c-0.79,2.6-2.51,4.33-5.27,4.74
					c-5.34,0.81-10.69,1.59-16.05,2.26c-0.62,0.08-1.34-0.57-2.01-0.88c0.55-0.41,1.05-1.1,1.65-1.19
					c5.1-0.82,10.24-1.42,15.32-2.36c1.38-0.26,3.1-1.18,3.71-2.32c0.61-1.12,0.52-3.21-0.17-4.29c-0.69-1.07-2.6-2.09-3.83-1.94
					c-8.7,1.05-17.42,2.15-26.02,3.81c-2.52,0.49-5.24,2.37-6.92,4.4c-4.34,5.24-8.17,10.9-12.14,16.43
					c-1.4,1.94-1.09,3.62,0.83,5.06c2.75,2.07,5.54,4.1,8.35,6.09c2.01,1.43,3.73,1.16,5.3-0.82c1.17-1.47,2.37-2.94,3.31-4.56
					c1.54-2.66,3.86-3.84,6.74-4.56c7.29-1.81,14.53-3.81,21.8-5.73c2.85-0.75,4.74-2.46,5.85-5.25c4.12-10.3,8.33-20.57,12.5-30.85
					c0.26-0.65,0.57-1.31,0.67-1.99c0.32-2.19-0.53-3.88-2.52-4.82c-1.94-0.91-3.89-0.53-4.99,1.26
					C228.01,146.11,224.4,152.4,220.65,158.77z"/>
			</g>
			<g>
				<path class="st0" d="M139.35,158.77c-1.35,0.85-2.39,1.3-3.16,2.03c-1.9,1.8-2.66,4.05-1.89,6.62c0.79,2.6,2.51,4.33,5.27,4.74
					c5.34,0.81,10.69,1.59,16.05,2.26c0.62,0.08,1.34-0.57,2.01-0.88c-0.55-0.41-1.05-1.1-1.65-1.19
					c-5.1-0.82-10.24-1.42-15.32-2.36c-1.38-0.26-3.1-1.18-3.71-2.32c-0.61-1.12-0.52-3.21,0.17-4.29c0.69-1.07,2.6-2.09,3.83-1.94
					c8.7,1.05,17.42,2.15,26.02,3.81c2.52,0.49,5.24,2.37,6.92,4.4c4.34,5.24,8.17,10.9,12.14,16.43c1.4,1.94,1.09,3.62-0.83,5.06
					c-2.75,2.07-5.54,4.1-8.35,6.09c-2.01,1.43-3.73,1.16-5.3-0.82c-1.17-1.47-2.37-2.94-3.31-4.56c-1.54-2.66-3.86-3.84-6.74-4.56
					c-7.29-1.81-14.53-3.81-21.8-5.73c-2.85-0.75-4.74-2.46-5.85-5.25c-4.12-10.3-8.33-20.57-12.5-30.85
					c-0.26-0.65-0.57-1.31-0.67-1.99c-0.32-2.19,0.53-3.88,2.52-4.82c1.94-0.91,3.89-0.53,4.99,1.26
					C131.99,146.11,135.6,152.4,139.35,158.77z"/>
			</g>
		</g>
		<g>
			<path class="st0" d="M180.02,116.07c1.67-2.95,4.03-3.91,6.99-3.89c8.03,0.05,16.07,0,24.1,0.02c4.46,0.01,6.99,2.55,7,7.02
				c0.01,11.17,0.01,22.35,0,33.52c0,2.81-0.96,3.89-3.42,3.91c-2.6,0.02-3.7-1.1-3.7-3.91c-0.02-8.38-0.01-16.76-0.01-25.14
				c0-0.76,0-1.52,0-2.27c-1.58-0.14-1.61-0.14-1.61,1.38c-0.01,6.35-0.06,20.62-0.05,26.98 M209.31,153.69h-58.52l-0.17-7.92
				c0.01-6.35,0.02-12.7,0.02-19.06c0-1.52-0.04-1.52-1.61-1.38c0,0.75,0,1.51,0,2.27c0,8.38,0.01,16.76-0.01,25.14
				c-0.01,2.81-1.1,3.93-3.7,3.91c-2.46-0.02-3.42-1.1-3.42-3.91c0-11.17-0.01-22.35,0-33.52c0-4.46,2.53-7.01,7-7.02
				c8.03-0.02,16.07,0.02,24.1-0.02c2.96-0.02,5.32,0.94,6.99,3.89"/>
			<path class="st0" d="M209,100.48c0,5.69-4.58,10.28-10.22,10.25c-5.55-0.03-10.07-4.6-10.07-10.18c0-5.7,4.55-10.24,10.22-10.21
				C204.51,90.36,209.01,94.88,209,100.48z"/>
			<path class="st0" d="M171.08,100.48c0,5.69-4.58,10.28-10.22,10.25c-5.55-0.03-10.07-4.6-10.07-10.18
				c0-5.7,4.55-10.24,10.22-10.21C166.59,90.36,171.08,94.88,171.08,100.48z"/>
			<path d="M189.78,146.32c3.24-4.63,6.6-9.17,9.91-13.75c0.87-1.21,1.74-2.39,0.81-4c-1.15-1.98-3.3-2.26-4.8-0.37
				c-2.21,2.78-4.24,5.7-6.35,8.57c-0.25,0.34-0.53,0.66-0.7,1.03c-1.83,4.18-5.3,4.32-9.26,4.34c-3.54,0.02-5.93-0.67-7.81-3.95
				c-2-3.48-4.68-6.58-7.14-9.79c-1.22-1.61-2.8-1.86-4.18-0.85c-1.37,1-1.64,2.64-0.5,4.26c3.42,4.83,6.95,9.6,10.36,14.44
				c0.56,0.8,1.05,1.87,1.06,2.82h17.66c0.01-0.95,0.49-2.02,1.06-2.82c3.41-4.84,6.94-9.61,10.36-14.44
				c1.14-1.62,0.87-3.26-0.5-4.26c-1.38-1.01-2.96-0.76-4.18,0.85c-2.45,3.21-5.14,6.31-7.14,9.79c-1.88,3.28-4.28,3.97-7.81,3.95
				c-3.96-0.02-7.43-0.16-9.26-4.34c-0.16-0.38-0.45-0.7-0.7-1.03c-2.1-2.86-4.14-5.79-6.35-8.57c-1.5-1.89-3.65-1.61-4.8,0.37
				c-0.93,1.61-0.06,2.79,0.81,4c3.31,4.58,6.67,9.12,9.91,13.75"/>
			<path d="M179.89,125.72c-3.94-0.07-7.43,3.27-7.5,7.16c-0.07,3.98,3.16,7.28,7.24,7.4c4.08,0.12,7.41-3.15,7.46-7.35
				C187.14,129.15,183.79,125.79,179.89,125.72z"/>
			<polyline points="188.85,146.98 188.85,160.64 171.19,160.64 171.19,146.98 			"/>
			<polygon class="st0" points="150.79,153.69 150.79,156.66 168.36,159.36 171.19,160.64 171.19,149.08 			"/>
			<polygon class="st0" points="209.26,153.69 209.26,156.66 191.69,159.36 188.86,160.64 188.85,149.08 			"/>
		</g>
	</g>
</g>
</svg>
