<?xml version="1.0" encoding="utf-8"?>
<!-- Generator: Adobe Illustrator 23.1.0, SVG Export Plug-In . SVG Version: 6.00 Build 0)  -->
<svg version="1.1" xmlns="http://www.w3.org/2000/svg" xmlns:xlink="http://www.w3.org/1999/xlink" x="0px" y="0px"
	 viewBox="0 0 360 360" style="enable-background:new 0 0 360 360;" xml:space="preserve">
<style type="text/css">
	.st0{fill:#FFFFFF;}
	.st1{fill:#0E6E39;}
	.st2{fill:#0C6E39;}
	.st3{fill:#4F497B;}
	.st4{fill:#216885;}
	.st5{fill:#F0492D;}
	.st6{fill:#EF3F25;}
	.st7{fill:#236886;}
	.st8{fill:#256887;}
	.st9{fill:#D2BF2D;}
	.st10{display:none;}
	.st11{display:inline;fill:none;stroke:#000000;stroke-width:0.25;stroke-miterlimit:10;}
	.st12{display:inline;fill:none;stroke:#FFFFFF;stroke-width:0.25;stroke-miterlimit:10;}
	.st13{display:inline;fill:none;stroke:#FFFFFF;stroke-width:0.25;stroke-linecap:round;stroke-miterlimit:10;}
	.st14{display:inline;fill:none;stroke:#000000;stroke-width:0.25;stroke-linecap:round;stroke-miterlimit:10;}
	.st15{fill:#4F4A7C;}
	.st16{fill:none;stroke:#FFFFFF;stroke-miterlimit:10;}
	.st17{stroke:#FFFFFF;stroke-miterlimit:10;}
	.st18{fill:none;stroke:#FFFFFF;stroke-width:3;stroke-miterlimit:10;}
	.st19{fill:none;stroke:#FFFFFF;stroke-linecap:round;stroke-miterlimit:10;}
	.st20{fill:none;stroke:#236886;stroke-width:5;stroke-miterlimit:10;}
	.st21{fill:none;stroke:#236886;stroke-width:5;stroke-linecap:round;stroke-miterlimit:10;}
	.st22{fill:none;stroke:#FFFFFF;stroke-width:5;stroke-miterlimit:10;}
	.st23{fill:none;stroke:#FFFFFF;stroke-width:5;stroke-linecap:round;stroke-miterlimit:10;}
	.st24{fill:none;stroke:#4F497B;stroke-width:3;stroke-miterlimit:10;}
	.st25{fill:none;stroke:#4F497B;stroke-miterlimit:10;}
	.st26{fill:#FFFFFF;stroke:#4F497B;stroke-miterlimit:10;}
	.st27{fill:#FFFFFF;stroke:#4F497B;stroke-width:2;stroke-miterlimit:10;}
	.st28{fill:none;stroke:#4F497B;stroke-width:2;stroke-linecap:round;stroke-miterlimit:10;}
	.st29{stroke:#FFFFFF;stroke-width:2;stroke-miterlimit:10;}
	.st30{fill:none;stroke:#FFFFFF;stroke-width:2;stroke-linecap:round;stroke-miterlimit:10;}
	.st31{fill:none;stroke:#0C6E39;stroke-width:3;stroke-miterlimit:10;}
	.st32{fill:none;stroke:#EF3F25;stroke-miterlimit:10;}
	.st33{fill:none;stroke:#EF3F25;stroke-width:3;stroke-miterlimit:10;}
	.st34{fill:none;stroke:#4F4A7C;stroke-width:3;stroke-miterlimit:10;}
	.st35{fill:none;stroke:#4F4A7C;stroke-width:5;stroke-linecap:round;stroke-miterlimit:10;}
	.st36{fill:none;stroke:#EF3F25;stroke-width:3;stroke-linecap:round;stroke-miterlimit:10;}
	.st37{fill:none;stroke:#EF3F25;stroke-width:5;stroke-linecap:round;stroke-miterlimit:10;}
	.st38{fill:none;stroke:#FFFFFF;stroke-width:3;stroke-linecap:round;stroke-miterlimit:10;}
	.st39{fill:none;stroke:#4F497B;stroke-width:5;stroke-linecap:round;stroke-miterlimit:10;}
	.st40{fill:#FFFFFF;stroke:#0E6E39;stroke-width:3;stroke-linejoin:round;stroke-miterlimit:10;}
	.st41{fill:none;stroke:#0E6E39;stroke-width:3;stroke-linejoin:round;stroke-miterlimit:10;}
	.st42{stroke:#FFFFFF;stroke-width:3;stroke-linejoin:round;stroke-miterlimit:10;}
	.st43{fill:none;stroke:#FFFFFF;stroke-width:3;stroke-linejoin:round;stroke-miterlimit:10;}
	.st44{fill:none;stroke:#0C6E39;stroke-width:5;stroke-linecap:round;stroke-miterlimit:10;}
	.st45{fill:none;stroke:#0C6E39;stroke-width:3;stroke-linecap:round;stroke-miterlimit:10;}
	.st46{fill:none;stroke:#0C6E39;stroke-linecap:round;stroke-linejoin:round;stroke-miterlimit:10;}
	.st47{fill:#0C6E39;stroke:#0C6E39;stroke-width:0;stroke-miterlimit:10;}
	.st48{fill:none;stroke:#0C6E39;stroke-width:3;stroke-linecap:round;stroke-linejoin:round;stroke-miterlimit:10;}
	.st49{fill:none;stroke:#0C6E39;stroke-linecap:round;stroke-miterlimit:10;}
	.st50{fill:none;stroke:#FFFFFF;stroke-linecap:round;stroke-linejoin:round;stroke-miterlimit:10;}
	.st51{fill:none;stroke:#FFFFFF;stroke-width:3;stroke-linecap:round;stroke-linejoin:round;stroke-miterlimit:10;}
	.st52{fill:none;stroke:#4F4A7C;stroke-miterlimit:10;}
	.st53{fill:#FFFFFF;stroke:#4F4A7C;stroke-width:2;stroke-miterlimit:10;}
	.st54{fill:#FFFFFF;stroke:#4F497B;stroke-width:5;stroke-miterlimit:10;}
	.st55{stroke:#FFFFFF;stroke-width:5;stroke-miterlimit:10;}
	.st56{fill:none;stroke:#EF3F25;stroke-width:2;stroke-linecap:round;stroke-miterlimit:10;}
	.st57{fill:none;stroke:#FFFFFF;stroke-width:1.5;stroke-miterlimit:10;}
	.st58{fill:none;stroke:#FFFFFF;stroke-width:1.5;stroke-linecap:round;stroke-miterlimit:10;}
	.st59{fill:none;stroke:#0E6E39;stroke-width:3;stroke-miterlimit:10;}
	.st60{fill:none;stroke:#0E6E39;stroke-width:1.5;stroke-miterlimit:10;}
	.st61{fill:none;stroke:#0E6E39;stroke-width:1.5;stroke-linecap:round;stroke-miterlimit:10;}
	.st62{fill:none;stroke:#EF3F25;stroke-width:0.7099;stroke-miterlimit:10;}
	.st63{fill:none;stroke:#FFFFFF;stroke-width:0.7099;stroke-miterlimit:10;}
	.st64{fill:#EF4025;}
	.st65{fill:#505050;stroke:#4F4A7C;stroke-width:2.9281;stroke-miterlimit:10;}
	.st66{fill:#FFFFFF;stroke:#FFFFFF;stroke-width:2.9281;stroke-miterlimit:10;}
	.st67{fill:none;stroke:#FFFFFF;stroke-width:3.2577;stroke-miterlimit:10;}
	.st68{fill:none;stroke:#FFFFFF;stroke-width:3.2577;stroke-linecap:round;stroke-linejoin:round;stroke-miterlimit:10;}
	.st69{fill:none;stroke:#256887;stroke-width:3.2577;stroke-miterlimit:10;}
	.st70{fill:none;stroke:#256887;stroke-width:3.2577;stroke-linecap:round;stroke-linejoin:round;stroke-miterlimit:10;}
	.st71{fill:#FFFFFF;stroke:#FFFFFF;stroke-width:2;stroke-miterlimit:10;}
	.st72{fill:#D2BF2D;stroke:#D2BF2D;stroke-width:2;stroke-miterlimit:10;}
	.st73{fill:#086E38;}
	.st74{fill:#256887;stroke:#256887;stroke-width:4;stroke-miterlimit:10;}
	.st75{fill:#FFFFFF;stroke:#FFFFFF;stroke-width:4;stroke-miterlimit:10;}
	.st76{fill:#4F4B7D;}
	.st77{fill:#256887;stroke:#256887;stroke-width:2.8997;stroke-miterlimit:10;}
	.st78{fill:#FFFFFF;stroke:#FFFFFF;stroke-width:2.8997;stroke-miterlimit:10;}
	.st79{fill:none;stroke:#FFFFFF;stroke-width:2.2399;stroke-miterlimit:10;}
	.st80{fill:none;stroke:#FFFFFF;stroke-width:2;stroke-miterlimit:10;}
	.st81{fill:none;stroke:#FFFFFF;stroke-width:1.4254;stroke-miterlimit:10;}
	.st82{fill:none;stroke:#EF4025;stroke-width:2.2399;stroke-miterlimit:10;}
	.st83{fill:none;stroke:#EF4025;stroke-width:2;stroke-miterlimit:10;}
	.st84{fill:none;stroke:#EF4025;stroke-width:1.4254;stroke-miterlimit:10;}
	.st85{fill:none;stroke:#4F497B;stroke-linecap:round;stroke-miterlimit:10;}
</style>
<g id="White">
	<rect x="0" class="st0" width="360.29" height="360.29"/>
</g>
<g id="BACKGROUND">
	<rect x="0" y="336.06" class="st3" width="360" height="23.94"/>
	<g>
		<path class="st0" d="M312.05,346.29c0,0.36,0.16,0.62,0.47,0.77s0.81,0.29,1.49,0.4c1,0.17,1.73,0.44,2.2,0.83
			c0.47,0.38,0.7,0.96,0.7,1.72c0,0.41-0.08,0.77-0.25,1.1c-0.17,0.32-0.4,0.6-0.7,0.83c-0.3,0.23-0.66,0.4-1.07,0.53
			c-0.42,0.12-0.87,0.19-1.36,0.19c-0.53,0-1-0.07-1.43-0.21s-0.79-0.33-1.08-0.56c-0.3-0.23-0.53-0.5-0.7-0.82
			c-0.17-0.31-0.26-0.64-0.28-0.97l1.8-0.29c0.04,0.41,0.2,0.74,0.47,1c0.28,0.26,0.68,0.39,1.21,0.39c0.22,0,0.42-0.02,0.61-0.06
			s0.35-0.11,0.49-0.2s0.25-0.21,0.33-0.34s0.12-0.3,0.12-0.49c0-0.31-0.13-0.55-0.39-0.72s-0.72-0.3-1.38-0.41
			c-0.44-0.07-0.85-0.16-1.22-0.28c-0.38-0.11-0.7-0.27-0.98-0.46c-0.28-0.2-0.49-0.44-0.65-0.73s-0.23-0.65-0.23-1.07
			s0.08-0.79,0.24-1.1c0.16-0.31,0.38-0.57,0.67-0.79c0.29-0.21,0.63-0.37,1.02-0.47c0.39-0.1,0.82-0.16,1.29-0.16
			c0.43,0,0.84,0.05,1.21,0.15c0.38,0.1,0.71,0.25,1,0.44c0.29,0.2,0.54,0.44,0.73,0.73s0.32,0.62,0.4,0.98l-1.82,0.4
			c-0.06-0.38-0.23-0.69-0.49-0.91c-0.26-0.22-0.62-0.34-1.07-0.34c-0.46,0-0.79,0.08-1.01,0.25S312.05,346.01,312.05,346.29z"/>
		<path class="st0" d="M318.77,344.09h6.66v1.5h-2.42v6.9h-1.81v-6.9h-2.42V344.09z"/>
		<path class="st0" d="M334.3,352.49h-1.86l-0.67-1.94h-3.01l-0.67,1.94h-1.77l3.03-8.4h1.93L334.3,352.49z M330.24,346.05
			c-0.02,0.06-0.04,0.16-0.08,0.28c-0.04,0.13-0.08,0.26-0.13,0.42c-0.05,0.16-0.1,0.32-0.16,0.5c-0.06,0.18-0.12,0.35-0.17,0.52
			c-0.14,0.42-0.29,0.86-0.44,1.33h2.03c-0.16-0.47-0.31-0.92-0.44-1.33c-0.09-0.24-0.16-0.44-0.21-0.59s-0.1-0.31-0.14-0.45
			c-0.04-0.14-0.09-0.28-0.13-0.4c-0.04-0.12-0.07-0.22-0.08-0.28H330.24z"/>
		<path class="st0" d="M336.78,352.49v-8.4h5.75v1.49h-3.97v1.85h3.66v1.49h-3.66v3.58H336.78z"/>
		<path class="st0" d="M345.22,352.49v-8.4h5.75v1.49H347v1.85h3.66v1.49H347v3.58H345.22z"/>
	</g>
</g>
<g id="REF" class="st10">
	<rect x="10" y="90.33" class="st11" width="360" height="108"/>
	<line class="st14" x1="190" y1="0.19" x2="190" y2="360.06"/>
</g>
<g id="LINE_ONE">
	<g>
		<path class="st15" d="M149.33,237.84c0,0.6,0.26,1.03,0.78,1.29c0.52,0.26,1.35,0.48,2.48,0.67c1.67,0.28,2.89,0.74,3.67,1.38
			c0.78,0.64,1.17,1.59,1.17,2.86c0,0.68-0.14,1.29-0.42,1.83s-0.67,1-1.17,1.38s-1.1,0.67-1.79,0.88
			c-0.69,0.21-1.45,0.31-2.26,0.31c-0.88,0-1.67-0.12-2.38-0.35c-0.71-0.23-1.31-0.54-1.8-0.93c-0.49-0.39-0.88-0.84-1.16-1.36
			c-0.28-0.52-0.43-1.06-0.46-1.62l3-0.48c0.07,0.68,0.33,1.24,0.79,1.67c0.46,0.43,1.13,0.65,2.01,0.65c0.36,0,0.7-0.03,1.01-0.1
			c0.31-0.07,0.59-0.18,0.82-0.33c0.23-0.15,0.42-0.34,0.55-0.57s0.2-0.5,0.2-0.82c0-0.52-0.22-0.92-0.65-1.2s-1.2-0.51-2.29-0.68
			c-0.73-0.12-1.41-0.27-2.04-0.46s-1.17-0.44-1.63-0.77c-0.46-0.33-0.82-0.73-1.08-1.22c-0.26-0.49-0.39-1.08-0.39-1.79
			c0-0.71,0.13-1.32,0.4-1.84c0.27-0.52,0.64-0.96,1.12-1.31c0.48-0.35,1.05-0.62,1.7-0.79c0.65-0.17,1.37-0.26,2.14-0.26
			c0.72,0,1.39,0.08,2.02,0.25c0.63,0.17,1.18,0.41,1.67,0.74c0.49,0.33,0.89,0.73,1.21,1.21c0.32,0.48,0.54,1.03,0.66,1.64
			l-3.04,0.66c-0.11-0.64-0.38-1.15-0.82-1.52c-0.44-0.37-1.03-0.56-1.78-0.56c-0.76,0-1.32,0.14-1.69,0.42
			C149.51,237,149.33,237.37,149.33,237.84z"/>
		<path class="st15" d="M160.53,234.16h11.1v2.5h-4.04v11.5h-3.02v-11.5h-4.04V234.16z"/>
		<path class="st15" d="M186.41,248.16h-3.1l-1.12-3.24h-5.02l-1.12,3.24h-2.94l5.04-14h3.22L186.41,248.16z M179.65,237.44
			c-0.03,0.11-0.07,0.26-0.14,0.47c-0.07,0.21-0.14,0.44-0.22,0.7s-0.17,0.54-0.27,0.84s-0.2,0.59-0.29,0.87
			c-0.23,0.69-0.47,1.43-0.74,2.22h3.38c-0.27-0.79-0.51-1.53-0.74-2.22c-0.15-0.4-0.26-0.73-0.35-0.99
			c-0.09-0.26-0.17-0.51-0.24-0.75c-0.07-0.24-0.14-0.46-0.21-0.67s-0.11-0.36-0.14-0.47H179.65z"/>
		<path class="st15" d="M190.55,248.16v-14h9.58v2.48h-6.62v3.08h6.1v2.48h-6.1v5.96H190.55z"/>
		<path class="st15" d="M204.61,248.16v-14h9.58v2.48h-6.62v3.08h6.1v2.48h-6.1v5.96H204.61z"/>
	</g>
</g>
<g id="LINE_TWO">
	<g>
		<path class="st15" d="M139.89,255.62c0,0.6,0.26,1.03,0.78,1.29c0.52,0.26,1.35,0.48,2.48,0.67c1.67,0.28,2.89,0.74,3.67,1.38
			c0.78,0.64,1.17,1.59,1.17,2.86c0,0.68-0.14,1.29-0.42,1.83c-0.28,0.54-0.67,1-1.17,1.38s-1.1,0.67-1.79,0.88
			c-0.69,0.21-1.45,0.31-2.26,0.31c-0.88,0-1.67-0.12-2.38-0.35c-0.71-0.23-1.31-0.54-1.8-0.93s-0.88-0.84-1.16-1.36
			c-0.28-0.52-0.43-1.06-0.46-1.62l3-0.48c0.07,0.68,0.33,1.24,0.79,1.67c0.46,0.43,1.13,0.65,2.01,0.65c0.36,0,0.7-0.03,1.01-0.1
			c0.31-0.07,0.59-0.18,0.82-0.33c0.23-0.15,0.42-0.34,0.55-0.57c0.13-0.23,0.2-0.5,0.2-0.82c0-0.52-0.22-0.92-0.65-1.2
			c-0.43-0.28-1.2-0.51-2.29-0.68c-0.73-0.12-1.41-0.27-2.04-0.46s-1.17-0.44-1.63-0.77c-0.46-0.33-0.82-0.73-1.08-1.22
			c-0.26-0.49-0.39-1.08-0.39-1.79c0-0.71,0.13-1.32,0.4-1.84c0.27-0.52,0.64-0.96,1.12-1.31c0.48-0.35,1.05-0.62,1.7-0.79
			c0.65-0.17,1.37-0.26,2.14-0.26c0.72,0,1.39,0.08,2.02,0.25c0.63,0.17,1.18,0.41,1.67,0.74c0.49,0.33,0.89,0.73,1.21,1.21
			c0.32,0.48,0.54,1.03,0.66,1.64l-3.04,0.66c-0.11-0.64-0.38-1.15-0.82-1.52s-1.03-0.56-1.78-0.56c-0.76,0-1.32,0.14-1.69,0.42
			C140.07,254.78,139.89,255.16,139.89,255.62z"/>
		<path class="st15" d="M164.81,265.94h-3.1l-1.12-3.24h-5.02l-1.12,3.24h-2.94l5.04-14h3.22L164.81,265.94z M158.05,255.22
			c-0.03,0.11-0.07,0.26-0.14,0.47c-0.07,0.21-0.14,0.44-0.22,0.7s-0.17,0.54-0.27,0.84s-0.2,0.59-0.29,0.87
			c-0.23,0.69-0.47,1.43-0.74,2.22h3.38c-0.27-0.79-0.51-1.53-0.74-2.22c-0.15-0.4-0.26-0.73-0.35-0.99
			c-0.09-0.26-0.17-0.51-0.24-0.75c-0.07-0.24-0.14-0.46-0.21-0.67s-0.11-0.36-0.14-0.47H158.05z"/>
		<path class="st15" d="M168.95,265.94v-14h9.58v2.48h-6.62v3.08h6.1v2.48h-6.1v5.96H168.95z"/>
		<path class="st15" d="M183.01,265.94v-14h9.54v2.48h-6.58v3.08h6.12v2.48h-6.12v3.48h6.68v2.48H183.01z"/>
		<path class="st15" d="M196.23,251.94h11.1v2.5h-4.04v11.5h-3.02v-11.5h-4.04V251.94z"/>
		<path class="st15" d="M215.79,260.08l-5.3-8.14h3.44l3.42,5.36l3.4-5.36h3.34l-5.3,8.14v5.86h-3V260.08z"/>
	</g>
</g>
<g id="ICON">
	<g>
		<path class="st15" d="M164.93,149.37c-11.62-2.21-19.4-8.52-22.63-19.79c-0.75-2.6-0.83-5.45-0.87-8.19
			c-0.1-8.38-0.04-16.75-0.03-25.13c0-2.99,0.38-3.33,3.39-3.37c2.36-0.03,4.69,0.39,6.77-1.6c1.46-1.39,4.17-0.58,5.44,1.03
			c1.3,1.65,1.21,4.03-0.2,5.59c-1.43,1.58-3.7,1.73-5.55,0.75c-1.58-0.84-3.37-1.3-5.07-1.92c-0.08,0.23-0.16,0.45-0.24,0.68
			c-0.1,0.13-0.28,0.25-0.27,0.38c0.08,9.51-0.38,19.06,0.43,28.51c0.69,7.97,5.65,13.71,13.04,16.92
			c7.78,3.38,15.29,2.45,22.1-2.54c6.01-4.41,9.02-10.53,9.07-18c0.06-8.36,0.01-16.73,0.01-25.27c-2.03-0.14-3.79-0.61-5.47,1.09
			c-1.42,1.44-4.1,1.01-5.54-0.44c-1.45-1.46-1.67-3.93-0.49-5.6c1.17-1.66,3.97-2.61,5.38-1.26c2.01,1.93,4.22,1.67,6.52,1.67
			c3.65,0,3.95,0.31,3.95,4.09c0,8.38,0,16.75,0,25.13c-0.01,14.05-9.18,24.81-23.05,27.06c-0.71,0.12-1.4,0.3-2.12,0.46
			c-0.61,8.4-0.27,16.55,5.23,23.46c5.79,7.28,13.33,10.71,22.57,8.51c9.3-2.21,15.02-8.61,17.26-17.68
			c1.07-4.34,0.74-9.01,1.09-13.53c0.12-1.53-1.01-1.54-1.99-1.89c-5.75-2.08-8.93-7.95-7.68-14.09c1.08-5.34,6.45-9.44,12.16-9.29
			c5.58,0.15,10.34,4.22,11.28,9.65c1.04,6.05-1.97,11.68-7.6,13.63c-1.74,0.61-2.17,1.42-2.14,3.09c0.1,5.27,0.22,10.54-1.54,15.66
			c-3.88,11.3-14.04,19.19-25.18,19.41c-12.56,0.25-23.92-8.85-27-21.81c-0.65-2.74-0.8-5.61-0.99-8.43
			C164.81,154.01,164.93,151.66,164.93,149.37z M217.82,129.5c-4.28-0.03-7.82,3.36-7.89,7.56c-0.07,4.14,3.48,7.76,7.69,7.85
			c4.17,0.09,7.8-3.46,7.83-7.64C225.48,132.96,222.12,129.54,217.82,129.5z"/>
		<g>
			<path class="st65" d="M155.37,134.83c7.81,0,15.61,0,23.42,0c1.44,0,1.73,0.28,1.73,1.69c0,9.52-0.08,19.04,0.01,28.56
				c0.04,4.3-0.5,8.43-2.22,12.38c-1.88,4.31-4.76,7.83-8.51,10.67c-4.45,3.36-8.87,6.75-13.31,10.12
				c-0.94,0.71-1.27,0.72-2.19,0.01c-4.66-3.55-9.38-7.03-13.97-10.67c-6.67-5.29-10-12.31-10.08-20.78
				c-0.1-10.12-0.01-20.24,0-30.36c0-1.32,0.3-1.61,1.63-1.61C139.7,134.83,147.53,134.83,155.37,134.83
				C155.37,134.83,155.37,134.83,155.37,134.83z M132.52,137.09c-0.02,0.34-0.05,0.59-0.05,0.85c0,9.69-0.04,19.38,0.03,29.08
				c0.06,7.88,3.32,14.25,9.51,19.09c4.23,3.31,8.55,6.51,12.81,9.79c0.42,0.33,0.67,0.32,1.09,0c4.35-3.34,8.75-6.62,13.08-10
				c4.46-3.48,7.31-8.02,8.66-13.52c0.78-3.18,0.6-6.42,0.61-9.64c0.04-8.26,0.01-16.53,0-24.79c0-0.27-0.02-0.55-0.04-0.85
				C162.97,137.09,147.79,137.09,132.52,137.09z"/>
			<path class="st0" d="M132.52,137.09c15.27,0,30.44,0,45.71,0c0.01,0.3,0.04,0.57,0.04,0.85c0.01,8.26,0.03,16.53,0,24.79
				c-0.01,3.22,0.16,6.46-0.61,9.64c-1.34,5.5-4.2,10.04-8.66,13.52c-4.33,3.37-8.73,6.65-13.08,10c-0.42,0.32-0.67,0.33-1.09,0
				c-4.26-3.27-8.57-6.48-12.81-9.79c-6.19-4.84-9.45-11.21-9.51-19.09c-0.08-9.69-0.03-19.38-0.03-29.08
				C132.48,137.69,132.5,137.43,132.52,137.09z M162.21,155.41c0-0.43,0-0.74,0-1.05c0-2.94,0-5.89,0-8.83
				c0-1.2-0.34-1.54-1.51-1.55c-3.54,0-7.09,0-10.63,0c-1.18,0-1.52,0.35-1.52,1.53c-0.01,2.97,0,5.95,0,8.92c0,0.3,0,0.6,0,0.98
				c-0.47,0-0.81,0-1.14,0c-2.92,0-5.83,0-8.75,0.01c-1.21,0-1.54,0.32-1.54,1.53c-0.01,3.57,0,7.14,0.01,10.72
				c0,1.05,0.36,1.39,1.39,1.39c2.03,0.01,4.06,0,6.09,0c1.28,0,2.56,0,3.93,0c0,0.4,0,0.68,0,0.96c0,2.97,0.01,5.94,0.01,8.92
				c0,1.24,0.35,1.58,1.57,1.59c3.52,0,7.03,0,10.55,0c1.18,0,1.54-0.36,1.55-1.52c0.01-2.97,0-5.95,0-8.92c0-0.3,0-0.61,0-1.02
				c0.44,0,0.77,0,1.11,0c2.94,0,5.89,0.02,8.83,0c1.2-0.01,1.5-0.34,1.5-1.56c0.01-3.49,0.01-6.97,0.01-10.46
				c0-1.3-0.33-1.62-1.63-1.62c-2.92,0-5.83,0-8.75,0C162.95,155.41,162.61,155.41,162.21,155.41z"/>
			<path class="st15" d="M162.21,155.41c0.41,0,0.74,0,1.08,0c2.92,0,5.83,0,8.75,0c1.3,0,1.62,0.32,1.63,1.62
				c0,3.49,0,6.97-0.01,10.46c0,1.22-0.3,1.55-1.5,1.56c-2.94,0.02-5.89,0-8.83,0c-0.34,0-0.67,0-1.11,0c0,0.41,0,0.71,0,1.02
				c0,2.97,0,5.95,0,8.92c0,1.17-0.36,1.52-1.55,1.52c-3.52,0-7.03,0-10.55,0c-1.23,0-1.57-0.35-1.57-1.59
				c-0.01-2.97-0.01-5.94-0.01-8.92c0-0.28,0-0.56,0-0.96c-1.37,0-2.65,0-3.93,0c-2.03,0-4.06,0.01-6.09,0
				c-1.04,0-1.39-0.35-1.39-1.39c-0.01-3.57-0.02-7.14-0.01-10.72c0-1.21,0.33-1.52,1.54-1.53c2.92-0.01,5.83,0,8.75-0.01
				c0.34,0,0.68,0,1.14,0c0-0.38,0-0.68,0-0.98c0-2.97,0-5.95,0-8.92c0-1.19,0.34-1.53,1.52-1.53c3.54,0,7.09,0,10.63,0
				c1.17,0,1.51,0.35,1.51,1.55c0,2.94,0,5.89,0,8.83C162.21,154.66,162.21,154.98,162.21,155.41z M159.99,178.24
				c0-0.41,0-0.74,0-1.08c0-2.97-0.01-5.95-0.01-8.92c0-1.03,0.36-1.39,1.39-1.4c1.29-0.01,2.57,0,3.86,0c2.02,0,4.04,0,6.11,0
				c0-3.13,0-6.13,0-9.2c-0.4,0-0.71,0-1.02,0c-2.92,0-5.83,0-8.75,0c-1.25,0-1.59-0.33-1.59-1.57c0-2.97,0-5.95,0-8.92
				c0-0.3-0.03-0.61-0.04-0.89c-3.11,0-6.12,0-9.2,0c0,0.39,0,0.7,0,1.01c0,2.92,0,5.83,0,8.75c0,1.29-0.32,1.61-1.62,1.62
				c-2.95,0-5.89,0-8.84,0c-0.3,0-0.6,0-0.91,0c0,3.13,0,6.12,0,9.19c0.37,0,0.68,0,0.99,0c2.97,0,5.95,0,8.92,0
				c1.08,0,1.45,0.37,1.46,1.43c0.01,1.72,0,3.43,0,5.15c0,1.59,0,3.18,0,4.83C153.86,178.24,156.85,178.24,159.99,178.24z"/>
			<path class="st15" d="M159.99,178.24c-3.15,0-6.14,0-9.25,0c0-1.64,0-3.23,0-4.83c0-1.72,0.01-3.43,0-5.15
				c0-1.06-0.38-1.43-1.46-1.43c-2.97-0.01-5.95,0-8.92,0c-0.31,0-0.62,0-0.99,0c0-3.07,0-6.06,0-9.19c0.31,0,0.61,0,0.91,0
				c2.95,0,5.89,0,8.84,0c1.3,0,1.62-0.32,1.62-1.62c0-2.92,0-5.83,0-8.75c0-0.31,0-0.62,0-1.01c3.07,0,6.08,0,9.2,0
				c0.01,0.28,0.04,0.58,0.04,0.89c0,2.97,0,5.95,0,8.92c0,1.24,0.34,1.56,1.59,1.57c2.92,0,5.83,0,8.75,0c0.31,0,0.62,0,1.02,0
				c0,3.07,0,6.07,0,9.2c-2.07,0-4.09,0-6.11,0c-1.29,0-2.57-0.01-3.86,0c-1.03,0.01-1.39,0.37-1.39,1.4c0,2.97,0.01,5.95,0.01,8.92
				C159.99,177.49,159.99,177.83,159.99,178.24z"/>
		</g>
		<path class="st0" d="M217.82,129.5c4.3,0.03,7.66,3.45,7.62,7.76c-0.03,4.19-3.66,7.73-7.83,7.64c-4.21-0.09-7.75-3.71-7.69-7.85
			C210,132.86,213.53,129.47,217.82,129.5z M217.77,132.88c-2.35-0.02-4.39,1.88-4.47,4.18c-0.08,2.28,2.15,4.52,4.49,4.49
			c2.36-0.03,4.25-1.97,4.25-4.37C222.04,134.78,220.18,132.9,217.77,132.88z"/>
		<path class="st15" d="M217.77,132.88c2.41,0.02,4.27,1.9,4.27,4.29c0,2.4-1.89,4.34-4.25,4.37c-2.34,0.03-4.58-2.2-4.49-4.49
			C213.38,134.77,215.42,132.86,217.77,132.88z"/>
	</g>
</g>
</svg>
