<?xml version="1.0" encoding="utf-8"?>
<!-- Generator: Adobe Illustrator 23.1.0, SVG Export Plug-In . SVG Version: 6.00 Build 0)  -->
<svg version="1.1" xmlns="http://www.w3.org/2000/svg" xmlns:xlink="http://www.w3.org/1999/xlink" x="0px" y="0px"
	 viewBox="0 0 360 360" style="enable-background:new 0 0 360 360;" xml:space="preserve">
<style type="text/css">
	.st0{fill:#FFFFFF;}
	.st1{fill:#0E6E39;}
	.st2{fill:#0C6E39;}
	.st3{fill:#4F497B;}
	.st4{fill:#216885;}
	.st5{fill:#F0492D;}
	.st6{fill:#EF3F25;}
	.st7{fill:#236886;}
	.st8{fill:#256887;}
	.st9{fill:#D2BF2D;}
	.st10{display:none;}
	.st11{display:inline;fill:none;stroke:#000000;stroke-width:0.25;stroke-miterlimit:10;}
	.st12{display:inline;fill:none;stroke:#FFFFFF;stroke-width:0.25;stroke-miterlimit:10;}
	.st13{display:inline;fill:none;stroke:#FFFFFF;stroke-width:0.25;stroke-linecap:round;stroke-miterlimit:10;}
	.st14{display:inline;fill:none;stroke:#000000;stroke-width:0.25;stroke-linecap:round;stroke-miterlimit:10;}
	.st15{fill:#4F4A7C;}
	.st16{fill:none;stroke:#FFFFFF;stroke-miterlimit:10;}
	.st17{stroke:#FFFFFF;stroke-miterlimit:10;}
	.st18{fill:none;stroke:#FFFFFF;stroke-width:3;stroke-miterlimit:10;}
	.st19{fill:none;stroke:#FFFFFF;stroke-linecap:round;stroke-miterlimit:10;}
	.st20{fill:none;stroke:#236886;stroke-width:5;stroke-miterlimit:10;}
	.st21{fill:none;stroke:#236886;stroke-width:5;stroke-linecap:round;stroke-miterlimit:10;}
	.st22{fill:none;stroke:#FFFFFF;stroke-width:5;stroke-miterlimit:10;}
	.st23{fill:none;stroke:#FFFFFF;stroke-width:5;stroke-linecap:round;stroke-miterlimit:10;}
	.st24{fill:none;stroke:#4F497B;stroke-width:3;stroke-miterlimit:10;}
	.st25{fill:none;stroke:#4F497B;stroke-miterlimit:10;}
	.st26{fill:#FFFFFF;stroke:#4F497B;stroke-miterlimit:10;}
	.st27{fill:#FFFFFF;stroke:#4F497B;stroke-width:2;stroke-miterlimit:10;}
	.st28{fill:none;stroke:#4F497B;stroke-width:2;stroke-linecap:round;stroke-miterlimit:10;}
	.st29{stroke:#FFFFFF;stroke-width:2;stroke-miterlimit:10;}
	.st30{fill:none;stroke:#FFFFFF;stroke-width:2;stroke-linecap:round;stroke-miterlimit:10;}
	.st31{fill:none;stroke:#0C6E39;stroke-width:3;stroke-miterlimit:10;}
	.st32{fill:none;stroke:#EF3F25;stroke-miterlimit:10;}
	.st33{fill:none;stroke:#EF3F25;stroke-width:3;stroke-miterlimit:10;}
	.st34{fill:none;stroke:#4F4A7C;stroke-width:3;stroke-miterlimit:10;}
	.st35{fill:none;stroke:#4F4A7C;stroke-width:5;stroke-linecap:round;stroke-miterlimit:10;}
	.st36{fill:none;stroke:#EF3F25;stroke-width:3;stroke-linecap:round;stroke-miterlimit:10;}
	.st37{fill:none;stroke:#EF3F25;stroke-width:5;stroke-linecap:round;stroke-miterlimit:10;}
	.st38{fill:none;stroke:#FFFFFF;stroke-width:3;stroke-linecap:round;stroke-miterlimit:10;}
	.st39{fill:none;stroke:#4F497B;stroke-width:5;stroke-linecap:round;stroke-miterlimit:10;}
	.st40{fill:#FFFFFF;stroke:#0E6E39;stroke-width:3;stroke-linejoin:round;stroke-miterlimit:10;}
	.st41{fill:none;stroke:#0E6E39;stroke-width:3;stroke-linejoin:round;stroke-miterlimit:10;}
	.st42{stroke:#FFFFFF;stroke-width:3;stroke-linejoin:round;stroke-miterlimit:10;}
	.st43{fill:none;stroke:#FFFFFF;stroke-width:3;stroke-linejoin:round;stroke-miterlimit:10;}
	.st44{fill:none;stroke:#0C6E39;stroke-width:5;stroke-linecap:round;stroke-miterlimit:10;}
	.st45{fill:none;stroke:#0C6E39;stroke-width:3;stroke-linecap:round;stroke-miterlimit:10;}
	.st46{fill:none;stroke:#0C6E39;stroke-linecap:round;stroke-linejoin:round;stroke-miterlimit:10;}
	.st47{fill:#0C6E39;stroke:#0C6E39;stroke-width:0;stroke-miterlimit:10;}
	.st48{fill:none;stroke:#0C6E39;stroke-width:3;stroke-linecap:round;stroke-linejoin:round;stroke-miterlimit:10;}
	.st49{fill:none;stroke:#0C6E39;stroke-linecap:round;stroke-miterlimit:10;}
	.st50{fill:none;stroke:#FFFFFF;stroke-linecap:round;stroke-linejoin:round;stroke-miterlimit:10;}
	.st51{fill:none;stroke:#FFFFFF;stroke-width:3;stroke-linecap:round;stroke-linejoin:round;stroke-miterlimit:10;}
	.st52{fill:none;stroke:#4F4A7C;stroke-miterlimit:10;}
	.st53{fill:#FFFFFF;stroke:#4F4A7C;stroke-width:2;stroke-miterlimit:10;}
	.st54{fill:#FFFFFF;stroke:#4F497B;stroke-width:5;stroke-miterlimit:10;}
	.st55{stroke:#FFFFFF;stroke-width:5;stroke-miterlimit:10;}
	.st56{fill:none;stroke:#EF3F25;stroke-width:2;stroke-linecap:round;stroke-miterlimit:10;}
	.st57{fill:none;stroke:#FFFFFF;stroke-width:1.5;stroke-miterlimit:10;}
	.st58{fill:none;stroke:#FFFFFF;stroke-width:1.5;stroke-linecap:round;stroke-miterlimit:10;}
	.st59{fill:none;stroke:#0E6E39;stroke-width:3;stroke-miterlimit:10;}
	.st60{fill:none;stroke:#0E6E39;stroke-width:1.5;stroke-miterlimit:10;}
	.st61{fill:none;stroke:#0E6E39;stroke-width:1.5;stroke-linecap:round;stroke-miterlimit:10;}
	.st62{fill:none;stroke:#EF3F25;stroke-width:0.7099;stroke-miterlimit:10;}
	.st63{fill:none;stroke:#FFFFFF;stroke-width:0.7099;stroke-miterlimit:10;}
	.st64{fill:#EF4025;}
	.st65{fill:#505050;stroke:#4F4A7C;stroke-width:2.9281;stroke-miterlimit:10;}
	.st66{fill:#FFFFFF;stroke:#FFFFFF;stroke-width:2.9281;stroke-miterlimit:10;}
	.st67{fill:none;stroke:#FFFFFF;stroke-width:3.2577;stroke-miterlimit:10;}
	.st68{fill:none;stroke:#FFFFFF;stroke-width:3.2577;stroke-linecap:round;stroke-linejoin:round;stroke-miterlimit:10;}
	.st69{fill:none;stroke:#256887;stroke-width:3.2577;stroke-miterlimit:10;}
	.st70{fill:none;stroke:#256887;stroke-width:3.2577;stroke-linecap:round;stroke-linejoin:round;stroke-miterlimit:10;}
	.st71{fill:#FFFFFF;stroke:#FFFFFF;stroke-width:2;stroke-miterlimit:10;}
	.st72{fill:#D2BF2D;stroke:#D2BF2D;stroke-width:2;stroke-miterlimit:10;}
	.st73{fill:#086E38;}
	.st74{fill:#256887;stroke:#256887;stroke-width:4;stroke-miterlimit:10;}
	.st75{fill:#FFFFFF;stroke:#FFFFFF;stroke-width:4;stroke-miterlimit:10;}
	.st76{fill:#4F4B7D;}
	.st77{fill:#256887;stroke:#256887;stroke-width:2.8997;stroke-miterlimit:10;}
	.st78{fill:#FFFFFF;stroke:#FFFFFF;stroke-width:2.8997;stroke-miterlimit:10;}
	.st79{fill:none;stroke:#FFFFFF;stroke-width:2.2399;stroke-miterlimit:10;}
	.st80{fill:none;stroke:#FFFFFF;stroke-width:2;stroke-miterlimit:10;}
	.st81{fill:none;stroke:#FFFFFF;stroke-width:1.4254;stroke-miterlimit:10;}
	.st82{fill:none;stroke:#EF4025;stroke-width:2.2399;stroke-miterlimit:10;}
	.st83{fill:none;stroke:#EF4025;stroke-width:2;stroke-miterlimit:10;}
	.st84{fill:none;stroke:#EF4025;stroke-width:1.4254;stroke-miterlimit:10;}
	.st85{fill:none;stroke:#4F497B;stroke-linecap:round;stroke-miterlimit:10;}
</style>
<g id="White">
	<rect x="0" class="st0" width="360.29" height="360.29"/>
</g>
<g id="BACKGROUND">
	<rect y="336.06" class="st3" width="360" height="23.94"/>
	<g>
		<path class="st0" d="M312.05,346.29c0,0.36,0.16,0.62,0.47,0.77c0.31,0.16,0.81,0.29,1.49,0.4c1,0.17,1.73,0.44,2.2,0.83
			c0.47,0.38,0.7,0.96,0.7,1.72c0,0.41-0.08,0.77-0.25,1.1c-0.17,0.32-0.4,0.6-0.7,0.83c-0.3,0.23-0.66,0.4-1.07,0.53
			c-0.42,0.12-0.87,0.19-1.36,0.19c-0.53,0-1-0.07-1.43-0.21s-0.78-0.33-1.08-0.56c-0.3-0.23-0.53-0.5-0.7-0.82
			c-0.17-0.31-0.26-0.64-0.28-0.97l1.8-0.29c0.04,0.41,0.2,0.74,0.47,1c0.28,0.26,0.68,0.39,1.21,0.39c0.22,0,0.42-0.02,0.61-0.06
			c0.19-0.04,0.35-0.11,0.49-0.2c0.14-0.09,0.25-0.21,0.33-0.34c0.08-0.14,0.12-0.3,0.12-0.49c0-0.31-0.13-0.55-0.39-0.72
			s-0.72-0.3-1.37-0.41c-0.44-0.07-0.85-0.16-1.22-0.28c-0.38-0.11-0.7-0.27-0.98-0.46c-0.28-0.2-0.49-0.44-0.65-0.73
			c-0.16-0.29-0.23-0.65-0.23-1.07s0.08-0.79,0.24-1.1c0.16-0.31,0.38-0.57,0.67-0.79c0.29-0.21,0.63-0.37,1.02-0.47
			c0.39-0.1,0.82-0.16,1.28-0.16c0.43,0,0.84,0.05,1.21,0.15s0.71,0.25,1,0.44c0.29,0.2,0.53,0.44,0.73,0.73
			c0.19,0.29,0.32,0.62,0.4,0.98l-1.82,0.4c-0.06-0.38-0.23-0.69-0.49-0.91c-0.26-0.22-0.62-0.34-1.07-0.34
			c-0.46,0-0.79,0.08-1.01,0.25C312.16,345.79,312.05,346.01,312.05,346.29z"/>
		<path class="st0" d="M318.77,344.09h6.66v1.5h-2.42v6.9h-1.81v-6.9h-2.42V344.09z"/>
		<path class="st0" d="M334.3,352.49h-1.86l-0.67-1.94h-3.01l-0.67,1.94h-1.76l3.02-8.4h1.93L334.3,352.49z M330.24,346.05
			c-0.02,0.06-0.04,0.16-0.08,0.28c-0.04,0.13-0.08,0.26-0.13,0.42c-0.05,0.16-0.1,0.32-0.16,0.5c-0.06,0.18-0.12,0.35-0.17,0.52
			c-0.14,0.42-0.28,0.86-0.44,1.33h2.03c-0.16-0.47-0.31-0.92-0.44-1.33c-0.09-0.24-0.16-0.44-0.21-0.59
			c-0.05-0.16-0.1-0.31-0.14-0.45c-0.04-0.14-0.09-0.28-0.13-0.4c-0.04-0.12-0.07-0.22-0.08-0.28H330.24z"/>
		<path class="st0" d="M336.78,352.49v-8.4h5.75v1.49h-3.97v1.85h3.66v1.49h-3.66v3.58H336.78z"/>
		<path class="st0" d="M345.22,352.49v-8.4h5.75v1.49H347v1.85h3.66v1.49H347v3.58H345.22z"/>
	</g>
</g>
<g id="REF" class="st10">
	<rect x="17" y="90.33" class="st11" width="360" height="108"/>
	<line class="st14" x1="197" y1="0.19" x2="197" y2="360.06"/>
</g>
<g id="LINE_ONE">
	<g>
		<path class="st3" d="M149.33,233.6c0,0.6,0.26,1.03,0.78,1.29c0.52,0.26,1.35,0.48,2.48,0.67c1.67,0.28,2.89,0.74,3.67,1.38
			c0.78,0.64,1.17,1.59,1.17,2.86c0,0.68-0.14,1.29-0.42,1.83s-0.67,1-1.17,1.38s-1.1,0.67-1.79,0.88
			c-0.69,0.21-1.45,0.31-2.26,0.31c-0.88,0-1.67-0.12-2.38-0.35c-0.71-0.23-1.31-0.54-1.8-0.93c-0.49-0.39-0.88-0.84-1.16-1.36
			c-0.28-0.52-0.43-1.06-0.46-1.62l3-0.48c0.07,0.68,0.33,1.24,0.79,1.67c0.46,0.43,1.13,0.65,2.01,0.65c0.36,0,0.7-0.03,1.01-0.1
			c0.31-0.07,0.59-0.18,0.82-0.33c0.23-0.15,0.42-0.34,0.55-0.57s0.2-0.5,0.2-0.82c0-0.52-0.22-0.92-0.65-1.2s-1.2-0.51-2.29-0.68
			c-0.73-0.12-1.41-0.27-2.04-0.46s-1.17-0.44-1.63-0.77c-0.46-0.33-0.82-0.73-1.08-1.22c-0.26-0.49-0.39-1.08-0.39-1.79
			c0-0.71,0.13-1.32,0.4-1.84c0.27-0.52,0.64-0.96,1.12-1.31c0.48-0.35,1.05-0.62,1.7-0.79c0.65-0.17,1.37-0.26,2.14-0.26
			c0.72,0,1.39,0.08,2.02,0.25c0.63,0.17,1.18,0.41,1.67,0.74c0.49,0.33,0.89,0.73,1.21,1.21c0.32,0.48,0.54,1.03,0.66,1.64
			l-3.04,0.66c-0.11-0.64-0.38-1.15-0.82-1.52c-0.44-0.37-1.03-0.56-1.78-0.56c-0.76,0-1.32,0.14-1.69,0.42
			C149.51,232.76,149.33,233.14,149.33,233.6z"/>
		<path class="st3" d="M160.53,229.92h11.1v2.5h-4.04v11.5h-3.02v-11.5h-4.04V229.92z"/>
		<path class="st3" d="M186.41,243.92h-3.1l-1.12-3.24h-5.02l-1.12,3.24h-2.94l5.04-14h3.22L186.41,243.92z M179.65,233.2
			c-0.03,0.11-0.07,0.26-0.14,0.47c-0.07,0.21-0.14,0.44-0.22,0.7s-0.17,0.54-0.27,0.84s-0.2,0.59-0.29,0.87
			c-0.23,0.69-0.47,1.43-0.74,2.22h3.38c-0.27-0.79-0.51-1.53-0.74-2.22c-0.15-0.4-0.26-0.73-0.35-0.99
			c-0.09-0.26-0.17-0.51-0.24-0.75c-0.07-0.24-0.14-0.46-0.21-0.67s-0.11-0.36-0.14-0.47H179.65z"/>
		<path class="st3" d="M190.55,243.92v-14h9.58v2.48h-6.62v3.08h6.1v2.48h-6.1v5.96H190.55z"/>
		<path class="st3" d="M204.61,243.92v-14h9.58v2.48h-6.62v3.08h6.1v2.48h-6.1v5.96H204.61z"/>
	</g>
</g>
<g id="LINE_TWO">
	<g>
		<path class="st3" d="M101.72,261.71v-14h9.54v2.48h-6.58v3.08h6.12v2.48h-6.12v3.48h6.68v2.48H101.72z"/>
		<path class="st3" d="M116,247.71h3.12c0.81,1.32,1.59,2.57,2.32,3.76c0.44,0.71,0.8,1.29,1.08,1.75c0.28,0.46,0.56,0.92,0.84,1.37
			c0.28,0.45,0.55,0.88,0.8,1.29c0.25,0.41,0.47,0.75,0.64,1.03h0.06v-9.2h2.84v14h-3.12c-0.8-1.29-1.56-2.53-2.28-3.7
			c-0.43-0.69-0.78-1.27-1.07-1.73c-0.29-0.46-0.57-0.92-0.85-1.38c-0.28-0.46-0.55-0.9-0.81-1.32c-0.26-0.42-0.48-0.78-0.67-1.07
			h-0.06v9.2H116V247.71z"/>
		<path class="st3" d="M138.7,253.95h6.44v7.76h-2.72v-1.44c-0.31,0.48-0.76,0.89-1.36,1.22s-1.38,0.5-2.34,0.5
			c-1.04,0-1.96-0.19-2.75-0.57s-1.45-0.9-1.98-1.55c-0.53-0.65-0.92-1.42-1.19-2.3c-0.27-0.88-0.4-1.82-0.4-2.82
			c0-1.08,0.16-2.07,0.47-2.96c0.31-0.89,0.77-1.66,1.37-2.31c0.6-0.65,1.33-1.15,2.19-1.51c0.86-0.36,1.84-0.54,2.93-0.54
			c1.41,0,2.62,0.31,3.62,0.93c1,0.62,1.75,1.54,2.26,2.75l-2.78,1.14c-0.27-0.75-0.67-1.32-1.22-1.73c-0.55-0.41-1.21-0.61-2-0.61
			c-1.13,0-2.04,0.42-2.72,1.25s-1.02,2.06-1.02,3.69c0,3.12,1.23,4.68,3.7,4.68c0.36,0,0.72-0.05,1.08-0.15
			c0.36-0.1,0.69-0.25,0.99-0.46c0.3-0.21,0.54-0.47,0.73-0.79c0.19-0.32,0.28-0.71,0.28-1.16v-0.64h-3.58V253.95z"/>
		<path class="st3" d="M162.52,261.71h-3.1l-1.12-3.24h-5.02l-1.12,3.24h-2.94l5.04-14h3.22L162.52,261.71z M155.76,250.99
			c-0.03,0.11-0.07,0.26-0.14,0.47s-0.14,0.44-0.22,0.7s-0.17,0.54-0.27,0.84s-0.2,0.59-0.29,0.87c-0.23,0.69-0.47,1.43-0.74,2.22
			h3.38c-0.27-0.79-0.51-1.53-0.74-2.22c-0.15-0.4-0.26-0.73-0.35-0.99c-0.09-0.26-0.17-0.51-0.24-0.75
			c-0.07-0.24-0.14-0.46-0.21-0.67c-0.07-0.21-0.11-0.36-0.14-0.47H155.76z"/>
		<path class="st3" d="M171.68,253.95h6.44v7.76h-2.72v-1.44c-0.31,0.48-0.76,0.89-1.36,1.22s-1.38,0.5-2.34,0.5
			c-1.04,0-1.96-0.19-2.75-0.57s-1.45-0.9-1.98-1.55c-0.53-0.65-0.92-1.42-1.19-2.3c-0.27-0.88-0.4-1.82-0.4-2.82
			c0-1.08,0.16-2.07,0.47-2.96c0.31-0.89,0.77-1.66,1.37-2.31c0.6-0.65,1.33-1.15,2.19-1.51c0.86-0.36,1.84-0.54,2.93-0.54
			c1.41,0,2.62,0.31,3.62,0.93c1,0.62,1.75,1.54,2.26,2.75l-2.78,1.14c-0.27-0.75-0.67-1.32-1.22-1.73c-0.55-0.41-1.21-0.61-2-0.61
			c-1.13,0-2.04,0.42-2.72,1.25s-1.02,2.06-1.02,3.69c0,3.12,1.23,4.68,3.7,4.68c0.36,0,0.72-0.05,1.08-0.15
			c0.36-0.1,0.69-0.25,0.99-0.46c0.3-0.21,0.54-0.47,0.73-0.79c0.19-0.32,0.28-0.71,0.28-1.16v-0.64h-3.58V253.95z"/>
		<path class="st3" d="M183.34,261.71v-14h9.54v2.48h-6.58v3.08h6.12v2.48h-6.12v3.48h6.68v2.48H183.34z"/>
		<path class="st3" d="M203.78,261.71c-0.2-0.55-0.45-1.26-0.75-2.15c-0.3-0.89-0.61-1.81-0.93-2.77c-0.32-0.96-0.63-1.9-0.93-2.82
			c-0.3-0.92-0.54-1.69-0.73-2.32h-0.06v10.06h-2.76v-14h4.2c0.57,1.71,1.09,3.27,1.56,4.7c0.28,0.85,0.51,1.54,0.69,2.07
			c0.18,0.53,0.35,1.03,0.5,1.51c0.15,0.48,0.29,0.91,0.42,1.3c0.13,0.39,0.22,0.67,0.27,0.84c0.05-0.17,0.14-0.45,0.26-0.84
			c0.12-0.39,0.26-0.84,0.43-1.37c0.17-0.53,0.35-1.09,0.54-1.7c0.19-0.61,0.39-1.21,0.59-1.81c0.45-1.43,0.95-2.99,1.5-4.7h4.18v14
			H210v-10.06h-0.06c-0.13,0.41-0.29,0.91-0.48,1.49s-0.39,1.2-0.61,1.85c-0.22,0.65-0.44,1.32-0.67,1.99
			c-0.23,0.67-0.44,1.31-0.64,1.92c-0.2,0.61-0.38,1.16-0.55,1.65c-0.17,0.49-0.3,0.88-0.41,1.16H203.78z"/>
		<path class="st3" d="M218.04,261.71v-14h9.54v2.48H221v3.08h6.12v2.48H221v3.48h6.68v2.48H218.04z"/>
		<path class="st3" d="M232.32,247.71h3.12c0.81,1.32,1.59,2.57,2.32,3.76c0.44,0.71,0.8,1.29,1.08,1.75
			c0.28,0.46,0.56,0.92,0.84,1.37c0.28,0.45,0.55,0.88,0.8,1.29c0.25,0.41,0.47,0.75,0.64,1.03h0.06v-9.2h2.84v14h-3.12
			c-0.8-1.29-1.56-2.53-2.28-3.7c-0.43-0.69-0.78-1.27-1.07-1.73c-0.29-0.46-0.57-0.92-0.85-1.38c-0.28-0.46-0.55-0.9-0.81-1.32
			s-0.48-0.78-0.67-1.07h-0.06v9.2h-2.84V247.71z"/>
		<path class="st3" d="M248.24,247.71h11.1v2.5h-4.04v11.5h-3.02v-11.5h-4.04V247.71z"/>
	</g>
</g>
<g id="ICON">
	<g>
		<path class="st3" d="M123.18,160.56c-9.45-0.06-17.16-7.81-17.15-17.24c0.01-9.46,8.01-17.34,17.49-17.21
			c9.38,0.13,17.17,8.1,17.03,17.42C140.41,152.97,132.61,160.62,123.18,160.56z"/>
		<g>
			<path class="st3" d="M150.55,181.79c0,5.5-4.5,10.01-10.01,10.01h-32.69c-5.5,0-10.01-4.5-10.01-10.01v-7.21
				c0-5.5,4.5-10.01,10.01-10.01h32.69c5.5,0,10.01,4.5,10.01,10.01V181.79z"/>
		</g>
		<path class="st3" d="M235.78,160.56c-9.45-0.06-17.16-7.81-17.15-17.24c0.01-9.46,8.01-17.34,17.49-17.21
			c9.38,0.13,17.17,8.1,17.03,17.42C253.02,152.97,245.21,160.62,235.78,160.56z"/>
		<g>
			<path class="st3" d="M263.16,181.79c0,5.5-4.5,10.01-10.01,10.01h-45.42c-5.5,0-10.01-4.5-10.01-10.01v-7.21
				c0-5.5,4.5-10.01,10.01-10.01h45.42c5.5,0,10.01,4.5,10.01,10.01V181.79z"/>
		</g>
		<path class="st54" d="M175.52,197.4c-10.54,0-21.07,0-31.61,0c-3.79,0-4.58-0.74-4.61-4.55c-0.03-5.32-0.04-10.65,0.02-15.97
			c0.12-10.19,6.92-17.01,17.11-17.07c12.46-0.07,24.92-0.09,37.38,0.02c2.39,0.02,3.64-0.62,4.46-2.98
			c2.11-6.08,4.6-12.02,6.73-18.09c0.73-2.08,1.17-4.38,1.2-6.58c0.13-11.21-0.04-22.43,0.16-33.64c0.09-5.24,3.9-8.77,9.11-9.13
			c5.16-0.35,9.33,2.73,10.4,7.76c0.23,1.1,0.3,2.25,0.3,3.37c0.02,11.89,0.38,23.81-0.18,35.67c-0.22,4.68-2.33,9.35-3.95,13.88
			c-2.93,8.18-6.18,16.25-9.2,24.41c-0.53,1.44-0.79,3.05-0.83,4.59c-0.11,4.64-0.1,9.29-0.02,13.93c0.05,3.17-1.32,4.43-4.51,4.4
			c-10.65-0.11-21.3-0.04-31.94-0.04C175.52,197.38,175.52,197.39,175.52,197.4z"/>
		<path class="st54" d="M175.59,152c-12.04-0.08-21.85-9.94-21.84-21.95c0.01-12.05,10.2-22.08,22.27-21.92
			c11.94,0.16,21.87,10.31,21.69,22.18C197.54,142.33,187.6,152.08,175.59,152z"/>
	</g>
</g>
</svg>
