<?xml version="1.0" encoding="utf-8"?>
<!-- Generator: Adobe Illustrator 23.1.0, SVG Export Plug-In . SVG Version: 6.00 Build 0)  -->
<svg version="1.1" xmlns="http://www.w3.org/2000/svg" xmlns:xlink="http://www.w3.org/1999/xlink" x="0px" y="0px"
	 viewBox="0 0 360 360" style="enable-background:new 0 0 360 360;" xml:space="preserve">
<style type="text/css">
	.st0{fill:#FFFFFF;}
	.st1{fill:#0E6E39;}
	.st2{fill:#0C6E39;}
	.st3{fill:#4F497B;}
	.st4{fill:#216885;}
	.st5{fill:#F0492D;}
	.st6{fill:#EF3F25;}
	.st7{fill:#236886;}
	.st8{fill:#256887;}
	.st9{fill:#D2BF2D;}
	.st10{display:none;}
	.st11{display:inline;fill:none;stroke:#000000;stroke-width:0.25;stroke-miterlimit:10;}
	.st12{display:inline;fill:none;stroke:#FFFFFF;stroke-width:0.25;stroke-miterlimit:10;}
	.st13{display:inline;fill:none;stroke:#FFFFFF;stroke-width:0.25;stroke-linecap:round;stroke-miterlimit:10;}
	.st14{display:inline;fill:none;stroke:#000000;stroke-width:0.25;stroke-linecap:round;stroke-miterlimit:10;}
	.st15{fill:#4F4A7C;}
	.st16{fill:none;stroke:#FFFFFF;stroke-miterlimit:10;}
	.st17{stroke:#FFFFFF;stroke-miterlimit:10;}
	.st18{fill:none;stroke:#FFFFFF;stroke-width:3;stroke-miterlimit:10;}
	.st19{fill:none;stroke:#FFFFFF;stroke-linecap:round;stroke-miterlimit:10;}
	.st20{fill:none;stroke:#236886;stroke-width:5;stroke-miterlimit:10;}
	.st21{fill:none;stroke:#236886;stroke-width:5;stroke-linecap:round;stroke-miterlimit:10;}
	.st22{fill:none;stroke:#FFFFFF;stroke-width:5;stroke-miterlimit:10;}
	.st23{fill:none;stroke:#FFFFFF;stroke-width:5;stroke-linecap:round;stroke-miterlimit:10;}
	.st24{fill:none;stroke:#4F497B;stroke-width:3;stroke-miterlimit:10;}
	.st25{fill:none;stroke:#4F497B;stroke-miterlimit:10;}
	.st26{fill:#FFFFFF;stroke:#4F497B;stroke-miterlimit:10;}
	.st27{fill:#FFFFFF;stroke:#4F497B;stroke-width:2;stroke-miterlimit:10;}
	.st28{fill:none;stroke:#4F497B;stroke-width:2;stroke-linecap:round;stroke-miterlimit:10;}
	.st29{stroke:#FFFFFF;stroke-width:2;stroke-miterlimit:10;}
	.st30{fill:none;stroke:#FFFFFF;stroke-width:2;stroke-linecap:round;stroke-miterlimit:10;}
	.st31{fill:none;stroke:#0C6E39;stroke-width:3;stroke-miterlimit:10;}
	.st32{fill:none;stroke:#EF3F25;stroke-miterlimit:10;}
	.st33{fill:none;stroke:#EF3F25;stroke-width:3;stroke-miterlimit:10;}
	.st34{fill:none;stroke:#4F4A7C;stroke-width:3;stroke-miterlimit:10;}
	.st35{fill:none;stroke:#4F4A7C;stroke-width:5;stroke-linecap:round;stroke-miterlimit:10;}
	.st36{fill:none;stroke:#EF3F25;stroke-width:3;stroke-linecap:round;stroke-miterlimit:10;}
	.st37{fill:none;stroke:#EF3F25;stroke-width:5;stroke-linecap:round;stroke-miterlimit:10;}
	.st38{fill:none;stroke:#FFFFFF;stroke-width:3;stroke-linecap:round;stroke-miterlimit:10;}
	.st39{fill:none;stroke:#4F497B;stroke-width:5;stroke-linecap:round;stroke-miterlimit:10;}
	.st40{fill:#FFFFFF;stroke:#0E6E39;stroke-width:3;stroke-linejoin:round;stroke-miterlimit:10;}
	.st41{fill:none;stroke:#0E6E39;stroke-width:3;stroke-linejoin:round;stroke-miterlimit:10;}
	.st42{stroke:#FFFFFF;stroke-width:3;stroke-linejoin:round;stroke-miterlimit:10;}
	.st43{fill:none;stroke:#FFFFFF;stroke-width:3;stroke-linejoin:round;stroke-miterlimit:10;}
	.st44{fill:none;stroke:#0C6E39;stroke-width:5;stroke-linecap:round;stroke-miterlimit:10;}
	.st45{fill:none;stroke:#0C6E39;stroke-width:3;stroke-linecap:round;stroke-miterlimit:10;}
	.st46{fill:none;stroke:#0C6E39;stroke-linecap:round;stroke-linejoin:round;stroke-miterlimit:10;}
	.st47{fill:#0C6E39;stroke:#0C6E39;stroke-width:0;stroke-miterlimit:10;}
	.st48{fill:none;stroke:#0C6E39;stroke-width:3;stroke-linecap:round;stroke-linejoin:round;stroke-miterlimit:10;}
	.st49{fill:none;stroke:#0C6E39;stroke-linecap:round;stroke-miterlimit:10;}
	.st50{fill:none;stroke:#FFFFFF;stroke-linecap:round;stroke-linejoin:round;stroke-miterlimit:10;}
	.st51{fill:none;stroke:#FFFFFF;stroke-width:3;stroke-linecap:round;stroke-linejoin:round;stroke-miterlimit:10;}
	.st52{fill:none;stroke:#4F4A7C;stroke-miterlimit:10;}
	.st53{fill:#FFFFFF;stroke:#4F4A7C;stroke-width:2;stroke-miterlimit:10;}
	.st54{fill:#FFFFFF;stroke:#4F497B;stroke-width:5;stroke-miterlimit:10;}
	.st55{stroke:#FFFFFF;stroke-width:5;stroke-miterlimit:10;}
	.st56{fill:none;stroke:#EF3F25;stroke-width:2;stroke-linecap:round;stroke-miterlimit:10;}
	.st57{fill:none;stroke:#FFFFFF;stroke-width:1.5;stroke-miterlimit:10;}
	.st58{fill:none;stroke:#FFFFFF;stroke-width:1.5;stroke-linecap:round;stroke-miterlimit:10;}
	.st59{fill:none;stroke:#0E6E39;stroke-width:3;stroke-miterlimit:10;}
	.st60{fill:none;stroke:#0E6E39;stroke-width:1.5;stroke-miterlimit:10;}
	.st61{fill:none;stroke:#0E6E39;stroke-width:1.5;stroke-linecap:round;stroke-miterlimit:10;}
	.st62{fill:none;stroke:#EF3F25;stroke-width:0.7099;stroke-miterlimit:10;}
	.st63{fill:none;stroke:#FFFFFF;stroke-width:0.7099;stroke-miterlimit:10;}
	.st64{fill:#EF4025;}
	.st65{fill:#505050;stroke:#4F4A7C;stroke-width:2.9281;stroke-miterlimit:10;}
	.st66{fill:#FFFFFF;stroke:#FFFFFF;stroke-width:2.9281;stroke-miterlimit:10;}
	.st67{fill:none;stroke:#FFFFFF;stroke-width:3.2577;stroke-miterlimit:10;}
	.st68{fill:none;stroke:#FFFFFF;stroke-width:3.2577;stroke-linecap:round;stroke-linejoin:round;stroke-miterlimit:10;}
	.st69{fill:none;stroke:#256887;stroke-width:3.2577;stroke-miterlimit:10;}
	.st70{fill:none;stroke:#256887;stroke-width:3.2577;stroke-linecap:round;stroke-linejoin:round;stroke-miterlimit:10;}
	.st71{fill:#FFFFFF;stroke:#FFFFFF;stroke-width:2;stroke-miterlimit:10;}
	.st72{fill:#D2BF2D;stroke:#D2BF2D;stroke-width:2;stroke-miterlimit:10;}
	.st73{fill:#086E38;}
	.st74{fill:#256887;stroke:#256887;stroke-width:4;stroke-miterlimit:10;}
	.st75{fill:#FFFFFF;stroke:#FFFFFF;stroke-width:4;stroke-miterlimit:10;}
	.st76{fill:#4F4B7D;}
	.st77{fill:#256887;stroke:#256887;stroke-width:2.8997;stroke-miterlimit:10;}
	.st78{fill:#FFFFFF;stroke:#FFFFFF;stroke-width:2.8997;stroke-miterlimit:10;}
	.st79{fill:none;stroke:#FFFFFF;stroke-width:2.2399;stroke-miterlimit:10;}
	.st80{fill:none;stroke:#FFFFFF;stroke-width:2;stroke-miterlimit:10;}
	.st81{fill:none;stroke:#FFFFFF;stroke-width:1.4254;stroke-miterlimit:10;}
	.st82{fill:none;stroke:#EF4025;stroke-width:2.2399;stroke-miterlimit:10;}
	.st83{fill:none;stroke:#EF4025;stroke-width:2;stroke-miterlimit:10;}
	.st84{fill:none;stroke:#EF4025;stroke-width:1.4254;stroke-miterlimit:10;}
	.st85{fill:none;stroke:#4F497B;stroke-linecap:round;stroke-miterlimit:10;}
</style>
<g id="White">
</g>
<g id="BACKGROUND">
	<rect width="360" height="360"/>
</g>
<g id="REF" class="st10">
	<rect x="-360" y="90.27" class="st11" width="360" height="108"/>
	<rect x="0" y="90.27" class="st12" width="360" height="108"/>
	<line class="st13" x1="180" y1="0.27" x2="180" y2="360.14"/>
</g>
<g id="LINE_ONE">
	<g>
		<path class="st0" d="M82.04,234.16h3v14h-3V234.16z"/>
		<path class="st0" d="M90.32,234.16h3.12c0.81,1.32,1.59,2.57,2.32,3.76c0.44,0.71,0.8,1.29,1.08,1.75s0.56,0.92,0.84,1.37
			s0.55,0.88,0.8,1.29c0.25,0.41,0.47,0.75,0.64,1.03h0.06v-9.2h2.84v14H98.9c-0.8-1.29-1.56-2.53-2.28-3.7
			c-0.43-0.69-0.78-1.27-1.07-1.73c-0.29-0.46-0.57-0.92-0.85-1.38c-0.28-0.46-0.55-0.9-0.81-1.32s-0.48-0.78-0.67-1.07h-0.06v9.2
			h-2.84V234.16z"/>
		<path class="st0" d="M106.24,234.16h11.1v2.5h-4.04v11.5h-3.02v-11.5h-4.04V234.16z"/>
		<path class="st0" d="M121.56,248.16v-14h9.54v2.48h-6.58v3.08h6.12v2.48h-6.12v3.48h6.68v2.48H121.56z"/>
		<path class="st0" d="M141.56,240.4H148v7.76h-2.72v-1.44c-0.31,0.48-0.76,0.89-1.36,1.22c-0.6,0.33-1.38,0.5-2.34,0.5
			c-1.04,0-1.96-0.19-2.75-0.57s-1.45-0.9-1.98-1.55c-0.53-0.65-0.92-1.42-1.19-2.3s-0.4-1.82-0.4-2.82c0-1.08,0.16-2.07,0.47-2.96
			c0.31-0.89,0.77-1.66,1.37-2.31c0.6-0.65,1.33-1.15,2.19-1.51c0.86-0.36,1.84-0.54,2.93-0.54c1.41,0,2.62,0.31,3.62,0.93
			c1,0.62,1.75,1.54,2.26,2.75l-2.78,1.14c-0.27-0.75-0.67-1.32-1.22-1.73c-0.55-0.41-1.21-0.61-2-0.61c-1.13,0-2.04,0.42-2.72,1.25
			c-0.68,0.83-1.02,2.06-1.02,3.69c0,3.12,1.23,4.68,3.7,4.68c0.36,0,0.72-0.05,1.08-0.15c0.36-0.1,0.69-0.25,0.99-0.46
			c0.3-0.21,0.54-0.47,0.73-0.79c0.19-0.32,0.28-0.71,0.28-1.16v-0.64h-3.58V240.4z"/>
		<path class="st0" d="M163.7,238.42c0,1.04-0.24,1.89-0.71,2.54c-0.47,0.65-1.12,1.14-1.95,1.46l3.22,5.74h-3.3l-2.9-5.3h-1.86v5.3
			h-2.98v-14h5.12c0.81,0,1.55,0.08,2.21,0.25s1.22,0.42,1.69,0.77c0.47,0.35,0.83,0.79,1.08,1.32
			C163.57,237.03,163.7,237.67,163.7,238.42z M160.62,238.44c0-0.68-0.22-1.15-0.65-1.41s-1.09-0.39-1.97-0.39h-1.8v3.78h1.8
			c0.88,0,1.54-0.15,1.97-0.45C160.4,239.67,160.62,239.16,160.62,238.44z"/>
		<path class="st0" d="M180.9,248.16h-3.1l-1.12-3.24h-5.02l-1.12,3.24h-2.94l5.04-14h3.22L180.9,248.16z M174.14,237.44
			c-0.03,0.11-0.07,0.26-0.14,0.47c-0.07,0.21-0.14,0.44-0.22,0.7s-0.17,0.54-0.27,0.84c-0.1,0.3-0.2,0.59-0.29,0.87
			c-0.23,0.69-0.47,1.43-0.74,2.22h3.38c-0.27-0.79-0.51-1.53-0.74-2.22c-0.15-0.4-0.26-0.73-0.35-0.99s-0.17-0.51-0.24-0.75
			s-0.14-0.46-0.21-0.67s-0.11-0.36-0.14-0.47H174.14z"/>
		<path class="st0" d="M182.38,234.16h11.1v2.5h-4.04v11.5h-3.02v-11.5h-4.04V234.16z"/>
		<path class="st0" d="M197.7,234.16h3v14h-3V234.16z"/>
		<path class="st0" d="M205.4,241.16c0-1.13,0.16-2.15,0.49-3.05c0.33-0.9,0.79-1.66,1.38-2.29c0.59-0.63,1.31-1.11,2.15-1.44
			c0.84-0.33,1.77-0.5,2.8-0.5c1.03,0,1.96,0.17,2.8,0.5c0.84,0.33,1.56,0.81,2.15,1.44c0.59,0.63,1.05,1.39,1.38,2.29
			c0.33,0.9,0.49,1.92,0.49,3.05c0,1.13-0.16,2.15-0.49,3.05c-0.33,0.9-0.79,1.66-1.38,2.29c-0.59,0.63-1.31,1.11-2.15,1.44
			c-0.84,0.33-1.77,0.5-2.8,0.5c-1.03,0-1.96-0.17-2.8-0.5s-1.56-0.81-2.15-1.44c-0.59-0.63-1.05-1.39-1.38-2.29
			C205.56,243.31,205.4,242.29,205.4,241.16z M208.5,241.16c0,0.71,0.08,1.36,0.23,1.95c0.15,0.59,0.38,1.1,0.69,1.52
			s0.69,0.75,1.16,0.98s1.01,0.35,1.64,0.35s1.17-0.12,1.64-0.35c0.47-0.23,0.85-0.56,1.16-0.98c0.31-0.42,0.54-0.93,0.69-1.52
			c0.15-0.59,0.23-1.24,0.23-1.95s-0.08-1.36-0.23-1.95c-0.15-0.59-0.38-1.1-0.69-1.52c-0.31-0.42-0.69-0.75-1.16-0.98
			c-0.47-0.23-1.01-0.35-1.64-0.35s-1.17,0.12-1.64,0.35s-0.85,0.56-1.16,0.98s-0.54,0.93-0.69,1.52
			C208.58,239.8,208.5,240.45,208.5,241.16z"/>
		<path class="st0" d="M223.74,234.16h3.12c0.81,1.32,1.59,2.57,2.32,3.76c0.44,0.71,0.8,1.29,1.08,1.75s0.56,0.92,0.84,1.37
			s0.55,0.88,0.8,1.29c0.25,0.41,0.47,0.75,0.64,1.03h0.06v-9.2h2.84v14h-3.12c-0.8-1.29-1.56-2.53-2.28-3.7
			c-0.43-0.69-0.78-1.27-1.07-1.73s-0.57-0.92-0.85-1.38c-0.28-0.46-0.55-0.9-0.81-1.32s-0.48-0.78-0.67-1.07h-0.06v9.2h-2.84
			V234.16z"/>
		<path class="st0" d="M246.84,241.16c0-1.13,0.16-2.15,0.49-3.05c0.33-0.9,0.79-1.66,1.38-2.29c0.59-0.63,1.31-1.11,2.15-1.44
			c0.84-0.33,1.77-0.5,2.8-0.5c1.03,0,1.96,0.17,2.8,0.5c0.84,0.33,1.56,0.81,2.15,1.44c0.59,0.63,1.05,1.39,1.38,2.29
			c0.33,0.9,0.49,1.92,0.49,3.05c0,1.13-0.16,2.15-0.49,3.05c-0.33,0.9-0.79,1.66-1.38,2.29c-0.59,0.63-1.31,1.11-2.15,1.44
			c-0.84,0.33-1.77,0.5-2.8,0.5c-1.03,0-1.96-0.17-2.8-0.5s-1.56-0.81-2.15-1.44c-0.59-0.63-1.05-1.39-1.38-2.29
			C247,243.31,246.84,242.29,246.84,241.16z M249.94,241.16c0,0.71,0.08,1.36,0.23,1.95c0.15,0.59,0.38,1.1,0.69,1.52
			s0.69,0.75,1.16,0.98s1.01,0.35,1.64,0.35s1.17-0.12,1.64-0.35c0.47-0.23,0.85-0.56,1.16-0.98c0.31-0.42,0.54-0.93,0.69-1.52
			c0.15-0.59,0.23-1.24,0.23-1.95s-0.08-1.36-0.23-1.95c-0.15-0.59-0.38-1.1-0.69-1.52c-0.31-0.42-0.69-0.75-1.16-0.98
			c-0.47-0.23-1.01-0.35-1.64-0.35s-1.17,0.12-1.64,0.35s-0.85,0.56-1.16,0.98s-0.54,0.93-0.69,1.52
			C250.01,239.8,249.94,240.45,249.94,241.16z"/>
		<path class="st0" d="M265.18,248.16v-14h9.58v2.48h-6.62v3.08h6.1v2.48h-6.1v5.96H265.18z"/>
	</g>
</g>
<g id="LINE_TWO">
	<g>
		<path class="st0" d="M64.16,251.95h3.12c0.81,1.32,1.59,2.57,2.32,3.76c0.44,0.71,0.8,1.29,1.08,1.75
			c0.28,0.46,0.56,0.92,0.84,1.37c0.28,0.45,0.55,0.88,0.8,1.29c0.25,0.41,0.47,0.75,0.64,1.03h0.06v-9.2h2.84v14h-3.12
			c-0.8-1.29-1.56-2.53-2.28-3.7c-0.43-0.69-0.78-1.27-1.07-1.73c-0.29-0.46-0.57-0.92-0.85-1.38s-0.55-0.9-0.81-1.32
			c-0.26-0.42-0.48-0.78-0.67-1.07H67v9.2h-2.84V251.95z"/>
		<path class="st0" d="M93.3,265.95h-3.1l-1.12-3.24h-5.02l-1.12,3.24H80l5.04-14h3.22L93.3,265.95z M86.54,255.23
			c-0.03,0.11-0.07,0.26-0.14,0.47s-0.14,0.44-0.22,0.7s-0.17,0.54-0.27,0.84c-0.1,0.3-0.2,0.59-0.29,0.87
			c-0.23,0.69-0.47,1.43-0.74,2.22h3.38c-0.27-0.79-0.51-1.53-0.74-2.22c-0.15-0.4-0.26-0.73-0.35-0.99
			c-0.09-0.26-0.17-0.51-0.24-0.75s-0.14-0.46-0.21-0.67c-0.07-0.21-0.11-0.36-0.14-0.47H86.54z"/>
		<path class="st0" d="M94.78,251.95h11.1v2.5h-4.04v11.5h-3.02v-11.5h-4.04V251.95z"/>
		<path class="st0" d="M115.62,266.23c-1.95,0-3.37-0.48-4.26-1.44c-0.89-0.96-1.34-2.29-1.34-4v-8.84h3v8.86
			c0,0.85,0.21,1.56,0.64,2.11c0.43,0.55,1.08,0.83,1.96,0.83s1.53-0.28,1.96-0.83c0.43-0.55,0.64-1.26,0.64-2.11v-8.86h3v8.84
			c0,1.71-0.45,3.04-1.34,4S117.57,266.23,115.62,266.23z"/>
		<path class="st0" d="M136.9,256.21c0,1.04-0.24,1.89-0.71,2.54s-1.12,1.14-1.95,1.46l3.22,5.74h-3.3l-2.9-5.3h-1.86v5.3h-2.98v-14
			h5.12c0.81,0,1.55,0.08,2.21,0.25s1.22,0.42,1.69,0.77c0.47,0.35,0.83,0.79,1.08,1.32S136.9,255.46,136.9,256.21z M133.82,256.23
			c0-0.68-0.22-1.15-0.65-1.41c-0.43-0.26-1.09-0.39-1.97-0.39h-1.8v3.78h1.8c0.88,0,1.54-0.15,1.97-0.45
			C133.6,257.46,133.82,256.95,133.82,256.23z"/>
		<path class="st0" d="M141.94,265.95v-14h9.54v2.48h-6.58v3.08h6.12v2.48h-6.12v3.48h6.68v2.48H141.94z"/>
		<path class="st0" d="M163.04,250.01h2.42v19.32h-2.42V250.01z"/>
		<path class="st0" d="M177.56,251.95h6.08c0.65,0,1.24,0.09,1.75,0.28c0.51,0.19,0.95,0.44,1.3,0.77c0.35,0.33,0.62,0.71,0.81,1.16
			c0.19,0.45,0.28,0.93,0.28,1.45c0,0.43-0.06,0.81-0.18,1.14c-0.12,0.33-0.28,0.62-0.47,0.87c-0.19,0.25-0.41,0.45-0.66,0.62
			c-0.25,0.17-0.5,0.3-0.77,0.39c0.31,0.04,0.62,0.13,0.93,0.26c0.31,0.13,0.6,0.32,0.87,0.57c0.27,0.25,0.48,0.56,0.65,0.93
			c0.17,0.37,0.25,0.83,0.25,1.38c0,0.6-0.11,1.16-0.34,1.67c-0.23,0.51-0.54,0.95-0.94,1.32c-0.4,0.37-0.87,0.66-1.42,0.87
			c-0.55,0.21-1.15,0.32-1.8,0.32h-6.34V251.95z M180.48,254.39v3.24h2.1c0.72,0,1.25-0.12,1.6-0.36c0.35-0.24,0.52-0.67,0.52-1.3
			c0-0.57-0.15-0.98-0.45-1.22s-0.8-0.36-1.51-0.36H180.48z M180.48,263.51h2.4c0.95,0,1.59-0.15,1.93-0.45
			c0.34-0.3,0.51-0.74,0.51-1.31c0-0.68-0.21-1.14-0.62-1.37c-0.41-0.23-1.03-0.35-1.86-0.35h-2.36V263.51z"/>
		<path class="st0" d="M193.06,251.95h3v14h-3V251.95z"/>
		<path class="st0" d="M200.76,258.95c0-1.13,0.16-2.15,0.49-3.05c0.33-0.9,0.79-1.66,1.38-2.29c0.59-0.63,1.31-1.11,2.15-1.44
			c0.84-0.33,1.77-0.5,2.8-0.5c1.03,0,1.96,0.17,2.8,0.5c0.84,0.33,1.56,0.81,2.15,1.44c0.59,0.63,1.05,1.39,1.38,2.29
			c0.33,0.9,0.49,1.92,0.49,3.05c0,1.13-0.16,2.15-0.49,3.05c-0.33,0.9-0.79,1.66-1.38,2.29c-0.59,0.63-1.31,1.11-2.15,1.44
			c-0.84,0.33-1.77,0.5-2.8,0.5c-1.03,0-1.96-0.17-2.8-0.5s-1.56-0.81-2.15-1.44c-0.59-0.63-1.05-1.39-1.38-2.29
			C200.92,261.1,200.76,260.08,200.76,258.95z M203.86,258.95c0,0.71,0.08,1.36,0.23,1.95c0.15,0.59,0.38,1.1,0.69,1.52
			s0.69,0.75,1.16,0.98s1.01,0.35,1.64,0.35s1.17-0.12,1.64-0.35c0.47-0.23,0.85-0.56,1.16-0.98c0.31-0.42,0.54-0.93,0.69-1.52
			c0.15-0.59,0.23-1.24,0.23-1.95s-0.08-1.36-0.23-1.95c-0.15-0.59-0.38-1.1-0.69-1.52c-0.31-0.42-0.69-0.75-1.16-0.98
			c-0.47-0.23-1.01-0.35-1.64-0.35s-1.17,0.12-1.64,0.35s-0.85,0.56-1.16,0.98s-0.54,0.93-0.69,1.52
			C203.94,257.59,203.86,258.24,203.86,258.95z"/>
		<path class="st0" d="M222.08,261.03v4.92h-2.98v-14h5.32c0.84,0,1.6,0.09,2.28,0.26c0.68,0.17,1.26,0.44,1.74,0.8
			c0.48,0.36,0.85,0.82,1.12,1.38c0.27,0.56,0.4,1.23,0.4,2.02c0,0.8-0.14,1.49-0.41,2.07s-0.65,1.06-1.14,1.44
			c-0.49,0.38-1.07,0.66-1.75,0.84c-0.68,0.18-1.43,0.27-2.24,0.27H222.08z M226.9,256.41c0-0.76-0.23-1.28-0.69-1.56
			c-0.46-0.28-1.16-0.42-2.09-0.42h-2.04v4.12h2.04c0.93,0,1.63-0.17,2.09-0.5C226.67,257.71,226.9,257.17,226.9,256.41z"/>
		<path class="st0" d="M234.36,251.95h3v5.54h5.3v-5.54h3v14h-3v-5.94h-5.3v5.94h-3V251.95z"/>
		<path class="st0" d="M250.94,251.95h3v14h-3V251.95z"/>
		<path class="st0" d="M259.22,251.95h3v11.5h6.12v2.5h-9.12V251.95z"/>
		<path class="st0" d="M272.54,251.95h3v14h-3V251.95z"/>
		<path class="st0" d="M292.98,265.95h-3.1l-1.12-3.24h-5.02l-1.12,3.24h-2.94l5.04-14h3.22L292.98,265.95z M286.22,255.23
			c-0.03,0.11-0.07,0.26-0.14,0.47c-0.07,0.21-0.14,0.44-0.22,0.7c-0.08,0.26-0.17,0.54-0.27,0.84s-0.2,0.59-0.29,0.87
			c-0.23,0.69-0.47,1.43-0.74,2.22h3.38c-0.27-0.79-0.51-1.53-0.74-2.22c-0.15-0.4-0.26-0.73-0.35-0.99s-0.17-0.51-0.24-0.75
			c-0.07-0.24-0.14-0.46-0.21-0.67c-0.07-0.21-0.11-0.36-0.14-0.47H286.22z"/>
	</g>
</g>
<g id="ICON">
	<g>
		<path class="st0" d="M161.54,182.73c10.54-0.56,18.4-4.44,22.85-13.54c-0.19-0.29-0.37-0.58-0.56-0.87
			c-1.04,0.69-2.12,1.33-3.11,2.08c-5.14,3.94-10.22,7.92-16.8,9.33c-3.64,0.78-7.16,0.34-9.77-2.08c-3.7-3.44-6.86-7.46-10-11.61
			c8.9-1.14,17.49-1.81,24.93-6.61c-0.09-0.36-0.18-0.72-0.27-1.08c-2.23,0.51-4.46,1.01-6.69,1.54c-3.89,0.92-7.74,2.18-11.68,2.68
			c-3.76,0.47-7.37-0.7-10.06-3.57c-4.42-4.69-6.98-10.48-9.61-16.56c9.04,1.72,17.57,7.65,26.36,1.65c0.08-0.5,0.16-1,0.24-1.51
			c-1.14-0.44-2.26-1.19-3.42-1.27c-2.22-0.14-4.45,0.1-6.68,0.2c-2.23,0.1-4.47,0.42-6.68,0.3c-10.27-0.55-15.71-8.06-12.92-18.03
			c1.39-4.97,3.16-9.87,1.41-15.04c-0.99-2.92-2.4-5.69-3.67-8.65c1.34,0.58,2.73,1.36,4.23,1.79c3.91,1.13,7.71,0.8,11.33-1.19
			c2.93-1.61,5.82-3.31,8.86-4.7c3.86-1.76,6.69-0.77,8.55,3.05c1.6,3.3,2.76,6.81,4.31,10.14c0.68,1.46,1.84,2.7,3.31,3.71
			c1.06-9.42-3.15-16.17-11.02-21.54c6.06-1.55,11.58-1.59,16.72,0.78c2.22,1.02,4.3,3.23,5.51,5.41c3.9,7.01,4.08,14.94,4.88,22.7
			c0.17,1.67,0.81,3.29,1.33,5.33c5.63-6.91,2.9-20.93-5.8-32.7c7.86-4.24,19.62-1.27,23.03,8.71c2.01,5.86,2.14,11.77,0.4,17.76
			c-0.77,2.66-1.28,5.41-1.6,8.16c-0.13,1.13,0.56,2.36,1.38,3.5c8.49-10.14,8.37-20.93,2.21-32.68
			c9.05,2.08,14.76,6.96,17.72,14.73c2,5.25,4.72,9.75,9.05,13.39c5.19,4.36,5.15,10.41,4.45,16.38
			c-0.72,6.08-3.13,11.57-6.84,16.49c-4.02,5.32-9.22,8.27-16.59,8.17c1.14,1.23,1.94,2.07,2.71,2.93
			c5.99,6.63,11.99,13.24,17.93,19.91c0.96,1.07,2.07,2.3,2.33,3.61c0.27,1.35-0.42,2.89-0.7,4.34c-1.4-0.48-3.31-0.53-4.11-1.49
			c-6.14-7.5-12.07-15.18-18.05-22.81c-0.34-0.44-0.61-0.93-1.37-2.09c-0.5,2.86-0.57,4.84-1.2,6.6
			c-2.93,8.13-9.38,11.87-17.43,13.26C179.91,193.65,170.31,190.65,161.54,182.73z M218.68,123.51c-3.59,5.77-7,10.74-8.83,16.5
			c-0.51,1.62,1.43,2.19,3.08,1.43C217.85,139.18,221.38,129.73,218.68,123.51z M145.86,108.15c0.11,2.83,4.16,8.09,6.9,8.83
			c2.07,0.56,3.51-0.24,3.04-2.47c-0.82-3.88-3.18-6.86-6.74-8.58C147.26,105.05,145.75,105.72,145.86,108.15z M223.46,147.41
			c-0.25-0.31-0.5-0.62-0.75-0.92c-3.9,2.68-7.99,5.13-11.62,8.13c-1.67,1.37-0.14,2.55,1.58,2.7
			C216.96,157.69,223.1,152.01,223.46,147.41z M133.24,118.77c1.48,5.15,9.44,9.3,13.41,7.52c0.59-0.26,1.28-1.1,1.28-1.66
			c-0.01-0.58-0.7-1.43-1.29-1.67c-2.25-0.92-4.57-1.7-6.9-2.42C137.72,119.91,135.65,119.42,133.24,118.77z M171.6,123.98
			c0.09-3.86-1.91-7.14-3.6-6.59c-1.14,0.37-2.37,2.09-2.59,3.38c-0.45,2.63,1.75,5.89,3.51,5.47
			C170.16,125.94,171.11,124.43,171.6,123.98z M187.46,133.5c-0.51-0.53-1.44-2.19-2.79-2.69c-1.65-0.6-3.85,2.47-3.47,5.17
			c0.2,1.38,1.28,3.14,2.46,3.73C185.15,140.45,187.39,137.31,187.46,133.5z M179.34,157.68c3.7,0.02,7.06-2.34,6.52-4.19
			c-0.31-1.06-2.05-2.4-3.15-2.4c-2.49,0-5,1.02-5.23,3.96C177.42,156.03,178.94,157.14,179.34,157.68z M191.88,143.95
			c0.62,0.53,1.52,1.91,2.33,1.87c2.6-0.16,3.77-2.22,3.84-4.54c0.03-0.89-1.34-2.6-2.04-2.58
			C193.35,138.75,192.51,140.89,191.88,143.95z M198.12,175.17c-1.39-1.16-2.06-1.71-2.73-2.27c-1.27,1.79-2.62,3.54-3.72,5.44
			c-0.13,0.21,1.1,1.22,1.69,1.85C194.83,178.64,196.29,177.1,198.12,175.17z M166.98,138.76c-1.56,1.54-2.62,2.58-3.67,3.62
			c1.03,0.74,2.19,2.21,3.06,2.06c1.33-0.23,2.47-1.59,3.68-2.46C169.22,141.09,168.37,140.21,166.98,138.76z"/>
		<path d="M218.68,123.51c2.7,6.21-0.83,15.66-5.75,17.93c-1.65,0.76-3.59,0.19-3.08-1.43
			C211.68,134.26,215.09,129.28,218.68,123.51z"/>
		<path d="M145.86,108.15c-0.11-2.42,1.39-3.1,3.2-2.23c3.56,1.72,5.92,4.7,6.74,8.58c0.47,2.24-0.97,3.03-3.04,2.47
			C150.02,116.24,145.97,110.97,145.86,108.15z"/>
		<path d="M223.46,147.41c-0.36,4.6-6.5,10.28-10.79,9.91c-1.72-0.15-3.25-1.32-1.58-2.7c3.64-3,7.72-5.45,11.62-8.13
			C222.96,146.8,223.21,147.1,223.46,147.41z"/>
		<path d="M133.24,118.77c2.41,0.65,4.48,1.14,6.5,1.77c2.33,0.72,4.64,1.5,6.9,2.42c0.59,0.24,1.28,1.09,1.29,1.67
			c0,0.56-0.69,1.4-1.28,1.66C142.68,128.06,134.71,123.92,133.24,118.77z"/>
		<path d="M171.6,123.98c-0.49,0.44-1.44,1.96-2.68,2.25c-1.76,0.42-3.95-2.84-3.51-5.47c0.22-1.28,1.44-3.01,2.59-3.38
			C169.68,116.85,171.69,120.12,171.6,123.98z"/>
		<path d="M187.46,133.5c-0.07,3.82-2.3,6.96-3.79,6.21c-1.18-0.59-2.27-2.35-2.46-3.73c-0.38-2.7,1.82-5.77,3.47-5.17
			C186.02,131.3,186.94,132.97,187.46,133.5z"/>
		<path d="M179.34,157.68c-0.41-0.54-1.93-1.65-1.85-2.63c0.22-2.94,2.74-3.96,5.23-3.96c1.1,0,2.84,1.34,3.15,2.4
			C186.4,155.34,183.05,157.7,179.34,157.68z"/>
		<path d="M191.88,143.95c0.63-3.06,1.46-5.2,4.13-5.26c0.7-0.02,2.06,1.7,2.04,2.58c-0.07,2.32-1.24,4.38-3.84,4.54
			C193.4,145.86,192.5,144.48,191.88,143.95z"/>
		<path d="M198.12,175.17c-1.83,1.92-3.3,3.47-4.76,5.02c-0.6-0.64-1.82-1.64-1.69-1.85c1.1-1.89,2.45-3.64,3.72-5.44
			C196.06,173.46,196.73,174.02,198.12,175.17z"/>
		<path d="M166.98,138.76c1.39,1.45,2.23,2.33,3.08,3.21c-1.22,0.88-2.35,2.23-3.68,2.46c-0.87,0.15-2.03-1.31-3.06-2.06
			C164.37,141.34,165.42,140.3,166.98,138.76z"/>
	</g>
</g>
</svg>
