<?xml version="1.0" encoding="utf-8"?>
<!-- Generator: Adobe Illustrator 23.1.0, SVG Export Plug-In . SVG Version: 6.00 Build 0)  -->
<svg version="1.1" xmlns="http://www.w3.org/2000/svg" xmlns:xlink="http://www.w3.org/1999/xlink" x="0px" y="0px"
	 viewBox="0 0 360 360" style="enable-background:new 0 0 360 360;" xml:space="preserve">
<style type="text/css">
	.st0{fill:#FFFFFF;}
	.st1{fill:#0E6E39;}
	.st2{fill:#0C6E39;}
	.st3{fill:#4F497B;}
	.st4{fill:#216885;}
	.st5{fill:#F0492D;}
	.st6{fill:#EF3F25;}
	.st7{fill:#236886;}
	.st8{fill:#256887;}
	.st9{fill:#D2BF2D;}
	.st10{display:none;}
	.st11{display:inline;fill:none;stroke:#000000;stroke-width:0.25;stroke-miterlimit:10;}
	.st12{display:inline;fill:none;stroke:#FFFFFF;stroke-width:0.25;stroke-miterlimit:10;}
	.st13{display:inline;fill:none;stroke:#FFFFFF;stroke-width:0.25;stroke-linecap:round;stroke-miterlimit:10;}
	.st14{display:inline;fill:none;stroke:#000000;stroke-width:0.25;stroke-linecap:round;stroke-miterlimit:10;}
	.st15{fill:#4F4A7C;}
	.st16{fill:none;stroke:#FFFFFF;stroke-miterlimit:10;}
	.st17{stroke:#FFFFFF;stroke-miterlimit:10;}
	.st18{fill:none;stroke:#FFFFFF;stroke-width:3;stroke-miterlimit:10;}
	.st19{fill:none;stroke:#FFFFFF;stroke-linecap:round;stroke-miterlimit:10;}
	.st20{fill:none;stroke:#236886;stroke-width:5;stroke-miterlimit:10;}
	.st21{fill:none;stroke:#236886;stroke-width:5;stroke-linecap:round;stroke-miterlimit:10;}
	.st22{fill:none;stroke:#FFFFFF;stroke-width:5;stroke-miterlimit:10;}
	.st23{fill:none;stroke:#FFFFFF;stroke-width:5;stroke-linecap:round;stroke-miterlimit:10;}
	.st24{fill:none;stroke:#4F497B;stroke-width:3;stroke-miterlimit:10;}
	.st25{fill:none;stroke:#4F497B;stroke-miterlimit:10;}
	.st26{fill:#FFFFFF;stroke:#4F497B;stroke-miterlimit:10;}
	.st27{fill:#FFFFFF;stroke:#4F497B;stroke-width:2;stroke-miterlimit:10;}
	.st28{fill:none;stroke:#4F497B;stroke-width:2;stroke-linecap:round;stroke-miterlimit:10;}
	.st29{stroke:#FFFFFF;stroke-width:2;stroke-miterlimit:10;}
	.st30{fill:none;stroke:#FFFFFF;stroke-width:2;stroke-linecap:round;stroke-miterlimit:10;}
	.st31{fill:none;stroke:#0C6E39;stroke-width:3;stroke-miterlimit:10;}
	.st32{fill:none;stroke:#EF3F25;stroke-miterlimit:10;}
	.st33{fill:none;stroke:#EF3F25;stroke-width:3;stroke-miterlimit:10;}
	.st34{fill:none;stroke:#4F4A7C;stroke-width:3;stroke-miterlimit:10;}
	.st35{fill:none;stroke:#4F4A7C;stroke-width:5;stroke-linecap:round;stroke-miterlimit:10;}
	.st36{fill:none;stroke:#EF3F25;stroke-width:3;stroke-linecap:round;stroke-miterlimit:10;}
	.st37{fill:none;stroke:#EF3F25;stroke-width:5;stroke-linecap:round;stroke-miterlimit:10;}
	.st38{fill:none;stroke:#FFFFFF;stroke-width:3;stroke-linecap:round;stroke-miterlimit:10;}
	.st39{fill:none;stroke:#4F497B;stroke-width:5;stroke-linecap:round;stroke-miterlimit:10;}
	.st40{fill:#FFFFFF;stroke:#0E6E39;stroke-width:3;stroke-linejoin:round;stroke-miterlimit:10;}
	.st41{fill:none;stroke:#0E6E39;stroke-width:3;stroke-linejoin:round;stroke-miterlimit:10;}
	.st42{stroke:#FFFFFF;stroke-width:3;stroke-linejoin:round;stroke-miterlimit:10;}
	.st43{fill:none;stroke:#FFFFFF;stroke-width:3;stroke-linejoin:round;stroke-miterlimit:10;}
	.st44{fill:none;stroke:#0C6E39;stroke-width:5;stroke-linecap:round;stroke-miterlimit:10;}
	.st45{fill:none;stroke:#0C6E39;stroke-width:3;stroke-linecap:round;stroke-miterlimit:10;}
	.st46{fill:none;stroke:#0C6E39;stroke-linecap:round;stroke-linejoin:round;stroke-miterlimit:10;}
	.st47{fill:#0C6E39;stroke:#0C6E39;stroke-width:0;stroke-miterlimit:10;}
	.st48{fill:none;stroke:#0C6E39;stroke-width:3;stroke-linecap:round;stroke-linejoin:round;stroke-miterlimit:10;}
	.st49{fill:none;stroke:#0C6E39;stroke-linecap:round;stroke-miterlimit:10;}
	.st50{fill:none;stroke:#FFFFFF;stroke-linecap:round;stroke-linejoin:round;stroke-miterlimit:10;}
	.st51{fill:none;stroke:#FFFFFF;stroke-width:3;stroke-linecap:round;stroke-linejoin:round;stroke-miterlimit:10;}
	.st52{fill:none;stroke:#4F4A7C;stroke-miterlimit:10;}
	.st53{fill:#FFFFFF;stroke:#4F4A7C;stroke-width:2;stroke-miterlimit:10;}
	.st54{fill:#FFFFFF;stroke:#4F497B;stroke-width:5;stroke-miterlimit:10;}
	.st55{stroke:#FFFFFF;stroke-width:5;stroke-miterlimit:10;}
	.st56{fill:none;stroke:#EF3F25;stroke-width:2;stroke-linecap:round;stroke-miterlimit:10;}
	.st57{fill:none;stroke:#FFFFFF;stroke-width:1.5;stroke-miterlimit:10;}
	.st58{fill:none;stroke:#FFFFFF;stroke-width:1.5;stroke-linecap:round;stroke-miterlimit:10;}
	.st59{fill:none;stroke:#0E6E39;stroke-width:3;stroke-miterlimit:10;}
	.st60{fill:none;stroke:#0E6E39;stroke-width:1.5;stroke-miterlimit:10;}
	.st61{fill:none;stroke:#0E6E39;stroke-width:1.5;stroke-linecap:round;stroke-miterlimit:10;}
	.st62{fill:none;stroke:#EF3F25;stroke-width:0.7099;stroke-miterlimit:10;}
	.st63{fill:none;stroke:#FFFFFF;stroke-width:0.7099;stroke-miterlimit:10;}
	.st64{fill:#EF4025;}
	.st65{fill:#505050;stroke:#4F4A7C;stroke-width:2.9281;stroke-miterlimit:10;}
	.st66{fill:#FFFFFF;stroke:#FFFFFF;stroke-width:2.9281;stroke-miterlimit:10;}
	.st67{fill:none;stroke:#FFFFFF;stroke-width:3.2577;stroke-miterlimit:10;}
	.st68{fill:none;stroke:#FFFFFF;stroke-width:3.2577;stroke-linecap:round;stroke-linejoin:round;stroke-miterlimit:10;}
	.st69{fill:none;stroke:#256887;stroke-width:3.2577;stroke-miterlimit:10;}
	.st70{fill:none;stroke:#256887;stroke-width:3.2577;stroke-linecap:round;stroke-linejoin:round;stroke-miterlimit:10;}
	.st71{fill:#FFFFFF;stroke:#FFFFFF;stroke-width:2;stroke-miterlimit:10;}
	.st72{fill:#D2BF2D;stroke:#D2BF2D;stroke-width:2;stroke-miterlimit:10;}
	.st73{fill:#086E38;}
	.st74{fill:#256887;stroke:#256887;stroke-width:4;stroke-miterlimit:10;}
	.st75{fill:#FFFFFF;stroke:#FFFFFF;stroke-width:4;stroke-miterlimit:10;}
	.st76{fill:#4F4B7D;}
	.st77{fill:#256887;stroke:#256887;stroke-width:2.8997;stroke-miterlimit:10;}
	.st78{fill:#FFFFFF;stroke:#FFFFFF;stroke-width:2.8997;stroke-miterlimit:10;}
	.st79{fill:none;stroke:#FFFFFF;stroke-width:2.2399;stroke-miterlimit:10;}
	.st80{fill:none;stroke:#FFFFFF;stroke-width:2;stroke-miterlimit:10;}
	.st81{fill:none;stroke:#FFFFFF;stroke-width:1.4254;stroke-miterlimit:10;}
	.st82{fill:none;stroke:#EF4025;stroke-width:2.2399;stroke-miterlimit:10;}
	.st83{fill:none;stroke:#EF4025;stroke-width:2;stroke-miterlimit:10;}
	.st84{fill:none;stroke:#EF4025;stroke-width:1.4254;stroke-miterlimit:10;}
	.st85{fill:none;stroke:#4F497B;stroke-linecap:round;stroke-miterlimit:10;}
</style>
<g id="White">
	<rect x="0" class="st0" width="360.29" height="360.29"/>
</g>
<g id="BACKGROUND">
	<rect y="336" class="st7" width="360" height="23.94"/>
	<g>
		<path class="st0" d="M297.29,349.47v2.95h-1.79v-8.4h3.19c0.5,0,0.96,0.05,1.37,0.16c0.41,0.1,0.76,0.26,1.04,0.48
			c0.29,0.22,0.51,0.49,0.67,0.83c0.16,0.34,0.24,0.74,0.24,1.21c0,0.48-0.08,0.89-0.25,1.24c-0.16,0.35-0.39,0.64-0.68,0.86
			c-0.29,0.23-0.64,0.4-1.05,0.5c-0.41,0.11-0.86,0.16-1.34,0.16H297.29z M300.18,346.7c0-0.46-0.14-0.77-0.41-0.94
			s-0.69-0.25-1.25-0.25h-1.22v2.47h1.22c0.56,0,0.98-0.1,1.25-0.3C300.05,347.48,300.18,347.16,300.18,346.7z"/>
		<path class="st0" d="M311.3,352.42h-1.86l-0.67-1.94h-3.01l-0.67,1.94h-1.76l3.02-8.4h1.93L311.3,352.42z M307.24,345.99
			c-0.02,0.06-0.04,0.16-0.08,0.28c-0.04,0.13-0.08,0.26-0.13,0.42c-0.05,0.16-0.1,0.32-0.16,0.5c-0.06,0.18-0.12,0.35-0.17,0.52
			c-0.14,0.42-0.28,0.86-0.44,1.33h2.03c-0.16-0.47-0.31-0.92-0.44-1.33c-0.09-0.24-0.16-0.44-0.21-0.59
			c-0.05-0.16-0.1-0.31-0.14-0.45c-0.04-0.14-0.09-0.28-0.13-0.4c-0.04-0.12-0.07-0.22-0.08-0.28H307.24z"/>
		<path class="st0" d="M312.18,344.02h6.66v1.5h-2.42v6.9h-1.81v-6.9h-2.42V344.02z"/>
		<path class="st0" d="M321.38,344.02h1.8v8.4h-1.8V344.02z"/>
		<path class="st0" d="M326.35,352.42v-8.4h5.72v1.49h-3.95v1.85h3.67v1.49h-3.67v2.09h4.01v1.49H326.35z"/>
		<path class="st0" d="M334.91,344.02h1.87c0.49,0.79,0.95,1.54,1.39,2.26c0.26,0.42,0.48,0.77,0.65,1.05
			c0.17,0.28,0.34,0.55,0.5,0.82c0.17,0.27,0.33,0.53,0.48,0.77c0.15,0.24,0.28,0.45,0.38,0.62h0.04v-5.52h1.7v8.4h-1.87
			c-0.48-0.78-0.94-1.52-1.37-2.22c-0.26-0.42-0.47-0.76-0.64-1.04c-0.17-0.28-0.34-0.55-0.51-0.83s-0.33-0.54-0.49-0.79
			s-0.29-0.47-0.4-0.64h-0.04v5.52h-1.7V344.02z"/>
		<path class="st0" d="M344.46,344.02h6.66v1.5h-2.42v6.9h-1.81v-6.9h-2.42V344.02z"/>
	</g>
</g>
<g id="REF" class="st10">
	<rect x="10" y="90.27" class="st11" width="360" height="108"/>
	<line class="st14" x1="190" y1="0.13" x2="190" y2="360"/>
</g>
<g id="LINE_ONE">
	<g>
		<path class="st7" d="M137.16,243.18v4.92h-2.98v-14h5.32c0.84,0,1.6,0.09,2.28,0.26c0.68,0.17,1.26,0.44,1.74,0.8
			c0.48,0.36,0.85,0.82,1.12,1.38c0.27,0.56,0.4,1.23,0.4,2.02c0,0.8-0.14,1.49-0.41,2.07s-0.65,1.06-1.14,1.44
			c-0.49,0.38-1.07,0.66-1.75,0.84c-0.68,0.18-1.43,0.27-2.24,0.27H137.16z M141.98,238.56c0-0.76-0.23-1.28-0.69-1.56
			c-0.46-0.28-1.16-0.42-2.09-0.42h-2.04v4.12h2.04c0.93,0,1.63-0.17,2.09-0.5C141.75,239.86,141.98,239.32,141.98,238.56z"/>
		<path class="st7" d="M160.5,248.1h-3.1l-1.12-3.24h-5.02l-1.12,3.24h-2.94l5.04-14h3.22L160.5,248.1z M153.74,237.38
			c-0.03,0.11-0.07,0.26-0.14,0.47s-0.14,0.44-0.22,0.7s-0.17,0.54-0.27,0.84s-0.2,0.59-0.29,0.87c-0.23,0.69-0.47,1.43-0.74,2.22
			h3.38c-0.27-0.79-0.51-1.53-0.74-2.22c-0.15-0.4-0.26-0.73-0.35-0.99c-0.09-0.26-0.17-0.51-0.24-0.75
			c-0.07-0.24-0.14-0.46-0.21-0.67c-0.07-0.21-0.11-0.36-0.14-0.47H153.74z"/>
		<path class="st7" d="M161.98,234.1h11.1v2.5h-4.04v11.5h-3.02v-11.5h-4.04V234.1z"/>
		<path class="st7" d="M177.3,234.1h3v14h-3V234.1z"/>
		<path class="st7" d="M185.58,248.1v-14h9.54v2.48h-6.58v3.08h6.12v2.48h-6.12v3.48h6.68v2.48H185.58z"/>
		<path class="st7" d="M199.86,234.1h3.12c0.81,1.32,1.59,2.57,2.32,3.76c0.44,0.71,0.8,1.29,1.08,1.75
			c0.28,0.46,0.56,0.92,0.84,1.37c0.28,0.45,0.55,0.88,0.8,1.29c0.25,0.41,0.47,0.75,0.64,1.03h0.06v-9.2h2.84v14h-3.12
			c-0.8-1.29-1.56-2.53-2.28-3.7c-0.43-0.69-0.78-1.27-1.07-1.73s-0.57-0.92-0.85-1.38c-0.28-0.46-0.55-0.9-0.81-1.32
			s-0.48-0.78-0.67-1.07h-0.06v9.2h-2.84V234.1z"/>
		<path class="st7" d="M215.78,234.1h11.1v2.5h-4.04v11.5h-3.02v-11.5h-4.04V234.1z"/>
	</g>
</g>
<g id="LINE_TWO">
	<g>
		<path class="st7" d="M90.37,265.88v-14h9.54v2.48h-6.58v3.08h6.12v2.48h-6.12v3.48h6.68v2.48H90.37z"/>
		<path class="st7" d="M110.81,265.88c-0.2-0.55-0.45-1.26-0.75-2.15c-0.3-0.89-0.61-1.81-0.93-2.77c-0.32-0.96-0.63-1.9-0.93-2.82
			c-0.3-0.92-0.54-1.69-0.73-2.32h-0.06v10.06h-2.76v-14h4.2c0.57,1.71,1.09,3.27,1.56,4.7c0.28,0.85,0.51,1.54,0.69,2.07
			c0.18,0.53,0.35,1.03,0.5,1.51c0.15,0.48,0.29,0.91,0.42,1.3s0.22,0.67,0.27,0.84c0.05-0.17,0.14-0.45,0.26-0.84
			c0.12-0.39,0.26-0.84,0.43-1.37c0.17-0.53,0.35-1.09,0.54-1.7c0.19-0.61,0.39-1.21,0.59-1.81c0.45-1.43,0.95-2.99,1.5-4.7h4.18v14
			h-2.76v-10.06h-0.06c-0.13,0.41-0.29,0.91-0.48,1.49s-0.39,1.2-0.61,1.85c-0.22,0.65-0.44,1.32-0.67,1.99
			c-0.23,0.67-0.44,1.31-0.64,1.92c-0.2,0.61-0.38,1.16-0.55,1.65c-0.17,0.49-0.3,0.88-0.41,1.16H110.81z"/>
		<path class="st7" d="M128.05,260.96v4.92h-2.98v-14h5.32c0.84,0,1.6,0.09,2.28,0.26c0.68,0.17,1.26,0.44,1.74,0.8
			c0.48,0.36,0.85,0.82,1.12,1.38c0.27,0.56,0.4,1.23,0.4,2.02c0,0.8-0.14,1.49-0.41,2.07c-0.27,0.58-0.65,1.06-1.14,1.44
			s-1.07,0.66-1.75,0.84c-0.68,0.18-1.43,0.27-2.24,0.27H128.05z M132.87,256.34c0-0.76-0.23-1.28-0.69-1.56
			c-0.46-0.28-1.16-0.42-2.09-0.42h-2.04v4.12h2.04c0.93,0,1.63-0.17,2.09-0.5C132.64,257.65,132.87,257.1,132.87,256.34z"/>
		<path class="st7" d="M139.75,258.88c0-1.13,0.16-2.15,0.49-3.05c0.33-0.9,0.79-1.66,1.38-2.29s1.31-1.11,2.15-1.44
			c0.84-0.33,1.77-0.5,2.8-0.5s1.96,0.17,2.8,0.5c0.84,0.33,1.56,0.81,2.15,1.44c0.59,0.63,1.05,1.39,1.38,2.29
			c0.33,0.9,0.49,1.92,0.49,3.05c0,1.13-0.16,2.15-0.49,3.05c-0.33,0.9-0.79,1.66-1.38,2.29c-0.59,0.63-1.31,1.11-2.15,1.44
			s-1.77,0.5-2.8,0.5s-1.96-0.17-2.8-0.5s-1.56-0.81-2.15-1.44c-0.59-0.63-1.05-1.39-1.38-2.29
			C139.91,261.03,139.75,260.02,139.75,258.88z M142.85,258.88c0,0.71,0.08,1.36,0.23,1.95c0.15,0.59,0.38,1.1,0.69,1.52
			s0.69,0.75,1.16,0.98c0.47,0.23,1.01,0.35,1.64,0.35c0.63,0,1.17-0.12,1.64-0.35s0.85-0.56,1.16-0.98s0.54-0.93,0.69-1.52
			c0.15-0.59,0.23-1.24,0.23-1.95s-0.08-1.36-0.23-1.95c-0.15-0.59-0.38-1.1-0.69-1.52s-0.69-0.75-1.16-0.98s-1.01-0.35-1.64-0.35
			c-0.63,0-1.17,0.12-1.64,0.35c-0.47,0.23-0.85,0.56-1.16,0.98s-0.54,0.93-0.69,1.52C142.93,257.53,142.85,258.17,142.85,258.88z"
			/>
		<path class="st7" d="M175.05,251.88l-3.5,14h-3.48c-0.29-1.29-0.57-2.53-0.84-3.7c-0.16-0.69-0.29-1.27-0.4-1.74
			c-0.11-0.47-0.21-0.93-0.31-1.4s-0.2-0.91-0.3-1.34c-0.1-0.43-0.18-0.79-0.25-1.1h-0.06c-0.07,0.31-0.15,0.68-0.24,1.11
			c-0.09,0.43-0.2,0.9-0.32,1.39c-0.12,0.49-0.24,1-0.36,1.53c-0.12,0.53-0.24,1.04-0.36,1.55c-0.28,1.17-0.58,2.41-0.9,3.7h-3.48
			l-3.52-14h3.04c0.35,1.49,0.67,2.91,0.98,4.26c0.17,0.8,0.32,1.46,0.44,1.98c0.12,0.52,0.23,1.04,0.34,1.56
			c0.11,0.52,0.21,1.01,0.31,1.48c0.1,0.47,0.18,0.86,0.23,1.18h0.06c0.07-0.32,0.15-0.72,0.25-1.19c0.1-0.47,0.21-0.98,0.34-1.53
			s0.26-1.12,0.4-1.72c0.14-0.6,0.28-1.19,0.41-1.76c0.32-1.35,0.66-2.77,1.02-4.26h2.82c0.36,1.49,0.7,2.91,1.02,4.26
			c0.19,0.8,0.34,1.46,0.47,1.98c0.13,0.52,0.25,1.04,0.37,1.56c0.12,0.52,0.23,1.01,0.33,1.48c0.1,0.47,0.18,0.86,0.25,1.18h0.06
			c0.07-0.32,0.15-0.72,0.25-1.19c0.1-0.47,0.21-0.98,0.33-1.53s0.25-1.12,0.38-1.72c0.13-0.6,0.27-1.19,0.4-1.76
			c0.32-1.35,0.65-2.77,1-4.26H175.05z"/>
		<path class="st7" d="M179.17,265.88v-14h9.54v2.48h-6.58v3.08h6.12v2.48h-6.12v3.48h6.68v2.48H179.17z"/>
		<path class="st7" d="M203.93,256.14c0,1.04-0.24,1.89-0.71,2.54c-0.47,0.65-1.12,1.14-1.95,1.46l3.22,5.74h-3.3l-2.9-5.3h-1.86
			v5.3h-2.98v-14h5.12c0.81,0,1.55,0.08,2.21,0.25s1.22,0.42,1.69,0.77c0.47,0.35,0.83,0.79,1.08,1.32S203.93,255.4,203.93,256.14z
			 M200.85,256.16c0-0.68-0.22-1.15-0.65-1.41s-1.09-0.39-1.97-0.39h-1.8v3.78h1.8c0.88,0,1.54-0.15,1.97-0.45
			C200.63,257.39,200.85,256.88,200.85,256.16z"/>
		<path class="st7" d="M215.13,265.88c-0.2-0.55-0.45-1.26-0.75-2.15c-0.3-0.89-0.61-1.81-0.93-2.77s-0.63-1.9-0.93-2.82
			c-0.3-0.92-0.54-1.69-0.73-2.32h-0.06v10.06h-2.76v-14h4.2c0.57,1.71,1.09,3.27,1.56,4.7c0.28,0.85,0.51,1.54,0.69,2.07
			c0.18,0.53,0.35,1.03,0.5,1.51c0.15,0.48,0.29,0.91,0.42,1.3s0.22,0.67,0.27,0.84c0.05-0.17,0.14-0.45,0.26-0.84
			c0.12-0.39,0.26-0.84,0.43-1.37c0.17-0.53,0.35-1.09,0.54-1.7c0.19-0.61,0.39-1.21,0.59-1.81c0.45-1.43,0.95-2.99,1.5-4.7h4.18v14
			h-2.76v-10.06h-0.06c-0.13,0.41-0.29,0.91-0.48,1.49c-0.19,0.58-0.39,1.2-0.61,1.85c-0.22,0.65-0.44,1.32-0.67,1.99
			c-0.23,0.67-0.44,1.31-0.64,1.92c-0.2,0.61-0.38,1.16-0.55,1.65s-0.3,0.88-0.41,1.16H215.13z"/>
		<path class="st7" d="M229.39,265.88v-14h9.54v2.48h-6.58v3.08h6.12v2.48h-6.12v3.48h6.68v2.48H229.39z"/>
		<path class="st7" d="M243.67,251.88h3.12c0.81,1.32,1.59,2.57,2.32,3.76c0.44,0.71,0.8,1.29,1.08,1.75
			c0.28,0.46,0.56,0.92,0.84,1.37c0.28,0.45,0.55,0.88,0.8,1.29c0.25,0.41,0.47,0.75,0.64,1.03h0.06v-9.2h2.84v14h-3.12
			c-0.8-1.29-1.56-2.53-2.28-3.7c-0.43-0.69-0.78-1.27-1.07-1.73s-0.57-0.92-0.85-1.38s-0.55-0.9-0.81-1.32s-0.48-0.78-0.67-1.07
			h-0.06v9.2h-2.84V251.88z"/>
		<path class="st7" d="M259.59,251.88h11.1v2.5h-4.04v11.5h-3.02v-11.5h-4.04V251.88z"/>
	</g>
</g>
<g id="ICON">
	<g>
		<g>
			<path class="st8" d="M180.72,90.27c29.81,0.08,53.79,24.45,53.7,54.56c-0.09,29.51-24.57,53.52-54.49,53.44
				c-29.71-0.08-53.62-24.55-53.51-54.76C126.53,114.21,151.04,90.19,180.72,90.27z M197.69,116.46c8.88-1.82,13.98,2.3,13.99,11.11
				c0.01,12.91,0.01,25.82,0,38.72c0,4.76-1.51,9.23-5.48,11.74c-3.72,2.35-2.98,5.14-2.97,8.49c17.03-8.36,30.16-30.37,24.01-54.45
				c-5.71-22.38-27.48-37.89-50.58-36.06c-23.57,1.87-42.64,20.94-44.49,44.49c-1.77,22.47,12.99,40.92,25.2,45.59
				c1.39-4.49-0.09-7.99-3.88-10.67c-0.96-0.68-1.71-1.64-2.58-2.44c-3.14-2.87-4.71-6.36-4.61-10.69
				c0.12-5.44-0.04-10.9,0.07-16.34c0.04-1.86,0.05-4.03,0.97-5.51c2.18-3.51,1.8-7.24,1.83-10.98c0.02-2.37-0.11-4.74,0.05-7.1
				c0.4-6.21,6.23-10.47,12.24-9.04c0.78,0.19,1.55,0.4,2.25,0.59c4.88-7.37,9.46-8.4,16.74-3.93
				C188.55,104.96,194.36,107.07,197.69,116.46z M180.59,172.55c-0.97-7.64-4.99-12.22-12.29-14.05c-6.65-1.66-8.26-4.1-7.78-10.8
				c0.17-2.34,1.27-3.43,3.58-3.42c2.72,0.02,5.45-0.05,8.17,0.02c2.88,0.06,4.91-1.02,5.27-4.04c0.3-2.5-2.01-4.44-5.24-4.51
				c-3.43-0.07-6.87-0.09-10.3,0c-5.87,0.16-9.89,4.27-9.99,10.23c-0.08,4.74,0.2,9.49-0.08,14.21c-0.25,4.13,0.81,7.49,4.2,9.92
				c5.75,4.13,8.63,9.47,7.22,16.67c-0.44,2.25,0.82,3.05,2.74,3.63c8.82,2.68,17.64,2.75,26.62,0.68c3.75-0.86,5.52-2.46,4.83-6.42
				c-0.24-1.38,0.07-2.85-0.06-4.26c-0.23-2.53,0.85-3.84,2.97-5.37c2.3-1.66,4.91-4.43,5.23-6.99c0.76-6.13,0.24-12.42,0.24-17.65
				c-4.14-0.85-7.78-1.59-12.27-2.51c-3.75,2.97-8.51,3.04-12,0.19c-5.85,0.96-10.57,1.74-15.29,2.51c1.42,1.43,3.13,2.35,4.96,2.87
				c8.85,2.55,15.3,10.94,14.41,19.07C184.11,172.55,182.48,172.55,180.59,172.55z M191.8,128.61c0-3.54,0-7.08,0-10.61
				c0-2.9-1.28-4.94-4.3-4.93c-3.01,0.01-4.26,2.07-4.26,4.96c0.01,7.08,0.01,14.15,0,21.23c0,2.9,1.28,4.94,4.29,4.93
				c3-0.02,4.28-2.06,4.26-4.96C191.79,135.69,191.8,132.15,191.8,128.61z M206,132.84c0-2.36,0.12-4.72-0.03-7.06
				c-0.16-2.58-1.65-4.24-4.28-4.2c-2.61,0.05-4.13,1.68-4.18,4.3c-0.09,4.71-0.11,9.42,0.01,14.13c0.07,2.61,1.66,4.22,4.27,4.2
				c2.62-0.03,4.06-1.71,4.19-4.3C206.1,137.56,206.01,135.2,206,132.84z M169.06,129.82c3,0.27,5.68,0.52,8.52,0.78
				c0-4.67,0.11-9.04-0.04-13.39c-0.09-2.6-1.69-4.2-4.33-4.16c-2.45,0.04-4.01,1.6-4.1,4.03
				C168.94,121.29,169.06,125.52,169.06,129.82z M163.35,129.65c0-2.32,0.16-4.67-0.04-6.99c-0.21-2.41-1.73-3.92-4.2-3.93
				c-2.47-0.01-4.02,1.51-4.2,3.91c-0.21,2.86-0.05,5.76-0.05,8.62C157.79,130.7,160.32,130.23,163.35,129.65z"/>
			<path class="st0" d="M197.69,116.46c-3.33-9.39-9.13-11.5-17.25-6.47c-7.29-4.47-11.87-3.45-16.74,3.93
				c-0.7-0.18-1.47-0.4-2.25-0.59c-6-1.43-11.83,2.83-12.24,9.04c-0.15,2.36-0.03,4.74-0.05,7.1c-0.03,3.75,0.35,7.47-1.83,10.98
				c-0.92,1.47-0.93,3.64-0.97,5.51c-0.12,5.44,0.05,10.9-0.07,16.34c-0.1,4.33,1.47,7.82,4.61,10.69c0.87,0.8,1.62,1.76,2.58,2.44
				c3.79,2.69,5.27,6.19,3.88,10.67c-12.21-4.67-26.97-23.12-25.2-45.59c1.86-23.56,20.93-42.62,44.49-44.49
				c23.1-1.83,44.87,13.68,50.58,36.06c6.14,24.08-6.99,46.08-24.01,54.45c0-3.35-0.75-6.14,2.97-8.49
				c3.96-2.5,5.47-6.97,5.48-11.74c0.01-12.91,0.01-25.82,0-38.72C211.66,118.77,206.57,114.64,197.69,116.46z"/>
			<path class="st0" d="M180.59,172.55c1.89,0,3.52,0,5.13,0c0.9-8.13-5.55-16.52-14.41-19.07c-1.83-0.53-3.54-1.44-4.96-2.87
				c4.72-0.78,9.43-1.55,15.29-2.51c3.48,2.85,8.25,2.78,12-0.19c4.49,0.92,8.14,1.66,12.27,2.51c0,5.23,0.51,11.51-0.24,17.65
				c-0.31,2.55-2.93,5.33-5.23,6.99c-2.12,1.53-3.2,2.85-2.97,5.37c0.13,1.41-0.18,2.88,0.06,4.26c0.69,3.95-1.09,5.55-4.83,6.42
				c-8.98,2.07-17.8,2-26.62-0.68c-1.91-0.58-3.18-1.39-2.74-3.63c1.4-7.2-1.47-12.54-7.22-16.67c-3.39-2.43-4.45-5.79-4.2-9.92
				c0.28-4.72,0.01-9.47,0.08-14.21c0.1-5.96,4.12-10.07,9.99-10.23c3.43-0.09,6.87-0.08,10.3,0c3.24,0.07,5.54,2.01,5.24,4.51
				c-0.36,3.02-2.39,4.1-5.27,4.04c-2.72-0.06-5.45,0-8.17-0.02c-2.31-0.01-3.41,1.08-3.58,3.42c-0.47,6.7,1.13,9.14,7.78,10.8
				C175.6,160.33,179.63,164.91,180.59,172.55z"/>
			<path class="st0" d="M191.8,128.61c0,3.54-0.01,7.08,0,10.61c0.01,2.91-1.26,4.95-4.26,4.96c-3.01,0.02-4.29-2.02-4.29-4.93
				c0-7.08,0.01-14.15,0-21.23c0-2.9,1.25-4.95,4.26-4.96c3.02-0.01,4.3,2.03,4.3,4.93C191.8,121.54,191.8,125.08,191.8,128.61z"/>
			<path class="st0" d="M206,132.84c0,2.36,0.09,4.72-0.02,7.06c-0.13,2.59-1.57,4.28-4.19,4.3c-2.61,0.03-4.2-1.59-4.27-4.2
				c-0.12-4.71-0.11-9.42-0.01-14.13c0.05-2.62,1.57-4.25,4.18-4.3c2.64-0.05,4.12,1.61,4.28,4.2
				C206.12,128.12,206,130.49,206,132.84z"/>
			<path class="st0" d="M169.06,129.82c0-4.3-0.12-8.53,0.04-12.74c0.09-2.43,1.65-3.98,4.1-4.03c2.64-0.05,4.24,1.56,4.33,4.16
				c0.15,4.36,0.04,8.72,0.04,13.39C174.74,130.34,172.06,130.09,169.06,129.82z"/>
			<path class="st0" d="M163.35,129.65c-3.03,0.57-5.55,1.05-8.5,1.61c0-2.86-0.16-5.75,0.05-8.62c0.18-2.4,1.73-3.92,4.2-3.91
				c2.47,0.01,3.98,1.52,4.2,3.93C163.51,124.98,163.35,127.34,163.35,129.65z"/>
		</g>
	</g>
</g>
</svg>
