<?xml version="1.0" encoding="utf-8"?>
<!-- Generator: Adobe Illustrator 23.1.0, SVG Export Plug-In . SVG Version: 6.00 Build 0)  -->
<svg version="1.1" xmlns="http://www.w3.org/2000/svg" xmlns:xlink="http://www.w3.org/1999/xlink" x="0px" y="0px"
	 viewBox="0 0 360 360" style="enable-background:new 0 0 360 360;" xml:space="preserve">
<style type="text/css">
	.st0{fill:#FFFFFF;}
	.st1{fill:#0E6E39;}
	.st2{fill:#0C6E39;}
	.st3{fill:#4F497B;}
	.st4{fill:#216885;}
	.st5{fill:#F0492D;}
	.st6{fill:#EF3F25;}
	.st7{fill:#236886;}
	.st8{fill:#256887;}
	.st9{fill:#D2BF2D;}
	.st10{display:none;}
	.st11{display:inline;fill:none;stroke:#000000;stroke-width:0.25;stroke-miterlimit:10;}
	.st12{display:inline;fill:none;stroke:#FFFFFF;stroke-width:0.25;stroke-miterlimit:10;}
	.st13{display:inline;fill:none;stroke:#FFFFFF;stroke-width:0.25;stroke-linecap:round;stroke-miterlimit:10;}
	.st14{display:inline;fill:none;stroke:#000000;stroke-width:0.25;stroke-linecap:round;stroke-miterlimit:10;}
	.st15{fill:#4F4A7C;}
	.st16{fill:none;stroke:#FFFFFF;stroke-miterlimit:10;}
	.st17{stroke:#FFFFFF;stroke-miterlimit:10;}
	.st18{fill:none;stroke:#FFFFFF;stroke-width:3;stroke-miterlimit:10;}
	.st19{fill:none;stroke:#FFFFFF;stroke-linecap:round;stroke-miterlimit:10;}
	.st20{fill:none;stroke:#236886;stroke-width:5;stroke-miterlimit:10;}
	.st21{fill:none;stroke:#236886;stroke-width:5;stroke-linecap:round;stroke-miterlimit:10;}
	.st22{fill:none;stroke:#FFFFFF;stroke-width:5;stroke-miterlimit:10;}
	.st23{fill:none;stroke:#FFFFFF;stroke-width:5;stroke-linecap:round;stroke-miterlimit:10;}
	.st24{fill:none;stroke:#4F497B;stroke-width:3;stroke-miterlimit:10;}
	.st25{fill:none;stroke:#4F497B;stroke-miterlimit:10;}
	.st26{fill:#FFFFFF;stroke:#4F497B;stroke-miterlimit:10;}
	.st27{fill:#FFFFFF;stroke:#4F497B;stroke-width:2;stroke-miterlimit:10;}
	.st28{fill:none;stroke:#4F497B;stroke-width:2;stroke-linecap:round;stroke-miterlimit:10;}
	.st29{stroke:#FFFFFF;stroke-width:2;stroke-miterlimit:10;}
	.st30{fill:none;stroke:#FFFFFF;stroke-width:2;stroke-linecap:round;stroke-miterlimit:10;}
	.st31{fill:none;stroke:#0C6E39;stroke-width:3;stroke-miterlimit:10;}
	.st32{fill:none;stroke:#EF3F25;stroke-miterlimit:10;}
	.st33{fill:none;stroke:#EF3F25;stroke-width:3;stroke-miterlimit:10;}
	.st34{fill:none;stroke:#4F4A7C;stroke-width:3;stroke-miterlimit:10;}
	.st35{fill:none;stroke:#4F4A7C;stroke-width:5;stroke-linecap:round;stroke-miterlimit:10;}
	.st36{fill:none;stroke:#EF3F25;stroke-width:3;stroke-linecap:round;stroke-miterlimit:10;}
	.st37{fill:none;stroke:#EF3F25;stroke-width:5;stroke-linecap:round;stroke-miterlimit:10;}
	.st38{fill:none;stroke:#FFFFFF;stroke-width:3;stroke-linecap:round;stroke-miterlimit:10;}
	.st39{fill:none;stroke:#4F497B;stroke-width:5;stroke-linecap:round;stroke-miterlimit:10;}
	.st40{fill:#FFFFFF;stroke:#0E6E39;stroke-width:3;stroke-linejoin:round;stroke-miterlimit:10;}
	.st41{fill:none;stroke:#0E6E39;stroke-width:3;stroke-linejoin:round;stroke-miterlimit:10;}
	.st42{stroke:#FFFFFF;stroke-width:3;stroke-linejoin:round;stroke-miterlimit:10;}
	.st43{fill:none;stroke:#FFFFFF;stroke-width:3;stroke-linejoin:round;stroke-miterlimit:10;}
	.st44{fill:none;stroke:#0C6E39;stroke-width:5;stroke-linecap:round;stroke-miterlimit:10;}
	.st45{fill:none;stroke:#0C6E39;stroke-width:3;stroke-linecap:round;stroke-miterlimit:10;}
	.st46{fill:none;stroke:#0C6E39;stroke-linecap:round;stroke-linejoin:round;stroke-miterlimit:10;}
	.st47{fill:#0C6E39;stroke:#0C6E39;stroke-width:0;stroke-miterlimit:10;}
	.st48{fill:none;stroke:#0C6E39;stroke-width:3;stroke-linecap:round;stroke-linejoin:round;stroke-miterlimit:10;}
	.st49{fill:none;stroke:#0C6E39;stroke-linecap:round;stroke-miterlimit:10;}
	.st50{fill:none;stroke:#FFFFFF;stroke-linecap:round;stroke-linejoin:round;stroke-miterlimit:10;}
	.st51{fill:none;stroke:#FFFFFF;stroke-width:3;stroke-linecap:round;stroke-linejoin:round;stroke-miterlimit:10;}
	.st52{fill:none;stroke:#4F4A7C;stroke-miterlimit:10;}
	.st53{fill:#FFFFFF;stroke:#4F4A7C;stroke-width:2;stroke-miterlimit:10;}
	.st54{fill:#FFFFFF;stroke:#4F497B;stroke-width:5;stroke-miterlimit:10;}
	.st55{stroke:#FFFFFF;stroke-width:5;stroke-miterlimit:10;}
	.st56{fill:none;stroke:#EF3F25;stroke-width:2;stroke-linecap:round;stroke-miterlimit:10;}
	.st57{fill:none;stroke:#FFFFFF;stroke-width:1.5;stroke-miterlimit:10;}
	.st58{fill:none;stroke:#FFFFFF;stroke-width:1.5;stroke-linecap:round;stroke-miterlimit:10;}
	.st59{fill:none;stroke:#0E6E39;stroke-width:3;stroke-miterlimit:10;}
	.st60{fill:none;stroke:#0E6E39;stroke-width:1.5;stroke-miterlimit:10;}
	.st61{fill:none;stroke:#0E6E39;stroke-width:1.5;stroke-linecap:round;stroke-miterlimit:10;}
	.st62{fill:none;stroke:#EF3F25;stroke-width:0.7099;stroke-miterlimit:10;}
	.st63{fill:none;stroke:#FFFFFF;stroke-width:0.7099;stroke-miterlimit:10;}
	.st64{fill:#EF4025;}
	.st65{fill:#505050;stroke:#4F4A7C;stroke-width:2.9281;stroke-miterlimit:10;}
	.st66{fill:#FFFFFF;stroke:#FFFFFF;stroke-width:2.9281;stroke-miterlimit:10;}
	.st67{fill:none;stroke:#FFFFFF;stroke-width:3.2577;stroke-miterlimit:10;}
	.st68{fill:none;stroke:#FFFFFF;stroke-width:3.2577;stroke-linecap:round;stroke-linejoin:round;stroke-miterlimit:10;}
	.st69{fill:none;stroke:#256887;stroke-width:3.2577;stroke-miterlimit:10;}
	.st70{fill:none;stroke:#256887;stroke-width:3.2577;stroke-linecap:round;stroke-linejoin:round;stroke-miterlimit:10;}
	.st71{fill:#FFFFFF;stroke:#FFFFFF;stroke-width:2;stroke-miterlimit:10;}
	.st72{fill:#D2BF2D;stroke:#D2BF2D;stroke-width:2;stroke-miterlimit:10;}
	.st73{fill:#086E38;}
	.st74{fill:#256887;stroke:#256887;stroke-width:4;stroke-miterlimit:10;}
	.st75{fill:#FFFFFF;stroke:#FFFFFF;stroke-width:4;stroke-miterlimit:10;}
	.st76{fill:#4F4B7D;}
	.st77{fill:#256887;stroke:#256887;stroke-width:2.8997;stroke-miterlimit:10;}
	.st78{fill:#FFFFFF;stroke:#FFFFFF;stroke-width:2.8997;stroke-miterlimit:10;}
	.st79{fill:none;stroke:#FFFFFF;stroke-width:2.2399;stroke-miterlimit:10;}
	.st80{fill:none;stroke:#FFFFFF;stroke-width:2;stroke-miterlimit:10;}
	.st81{fill:none;stroke:#FFFFFF;stroke-width:1.4254;stroke-miterlimit:10;}
	.st82{fill:none;stroke:#EF4025;stroke-width:2.2399;stroke-miterlimit:10;}
	.st83{fill:none;stroke:#EF4025;stroke-width:2;stroke-miterlimit:10;}
	.st84{fill:none;stroke:#EF4025;stroke-width:1.4254;stroke-miterlimit:10;}
	.st85{fill:none;stroke:#4F497B;stroke-linecap:round;stroke-miterlimit:10;}
</style>
<g id="White">
</g>
<g id="BACKGROUND">
	<rect x="0" y="0" width="360" height="360"/>
</g>
<g id="REF" class="st10">
	<rect x="-360" y="90.33" class="st11" width="360" height="108"/>
	<rect y="90.33" class="st12" width="360" height="108"/>
	<line class="st13" x1="180" y1="0.19" x2="180" y2="360.06"/>
</g>
<g id="LINE_ONE">
	<g>
		<path class="st0" d="M102.91,248.16h-3.1l-1.12-3.24h-5.02l-1.12,3.24h-2.94l5.04-14h3.22L102.91,248.16z M96.15,237.44
			c-0.03,0.11-0.07,0.26-0.14,0.47s-0.14,0.44-0.22,0.7s-0.17,0.54-0.27,0.84c-0.1,0.3-0.2,0.59-0.29,0.87
			c-0.23,0.69-0.47,1.43-0.74,2.22h3.38c-0.27-0.79-0.51-1.53-0.74-2.22c-0.15-0.4-0.26-0.73-0.35-0.99s-0.17-0.51-0.24-0.75
			s-0.14-0.46-0.21-0.67s-0.11-0.36-0.14-0.47H96.15z"/>
		<path class="st0" d="M107.05,234.16h5.22c1.07,0,2.03,0.16,2.88,0.47c0.85,0.31,1.57,0.77,2.16,1.36
			c0.59,0.59,1.04,1.32,1.35,2.19c0.31,0.87,0.47,1.86,0.47,2.98s-0.16,2.11-0.47,2.98c-0.31,0.87-0.76,1.6-1.35,2.19
			c-0.59,0.59-1.31,1.05-2.16,1.36c-0.85,0.31-1.81,0.47-2.88,0.47h-5.22V234.16z M116.03,241.16c0-0.68-0.08-1.3-0.23-1.85
			c-0.15-0.55-0.39-1.03-0.7-1.43c-0.31-0.4-0.71-0.71-1.19-0.92c-0.48-0.21-1.05-0.32-1.72-0.32h-2.12v9.04h2.12
			c0.67,0,1.24-0.11,1.72-0.32c0.48-0.21,0.88-0.52,1.19-0.92c0.31-0.4,0.55-0.88,0.7-1.43
			C115.95,242.46,116.03,241.84,116.03,241.16z"/>
		<path class="st0" d="M135.29,248.16h-3.1l-1.12-3.24h-5.02l-1.12,3.24h-2.94l5.04-14h3.22L135.29,248.16z M128.53,237.44
			c-0.03,0.11-0.07,0.26-0.14,0.47c-0.07,0.21-0.14,0.44-0.22,0.7s-0.17,0.54-0.27,0.84c-0.1,0.3-0.2,0.59-0.29,0.87
			c-0.23,0.69-0.47,1.43-0.74,2.22h3.38c-0.27-0.79-0.51-1.53-0.74-2.22c-0.15-0.4-0.26-0.73-0.35-0.99
			c-0.09-0.26-0.17-0.51-0.24-0.75s-0.14-0.46-0.21-0.67c-0.07-0.21-0.11-0.36-0.14-0.47H128.53z"/>
		<path class="st0" d="M142.41,243.24v4.92h-2.98v-14h5.32c0.84,0,1.6,0.09,2.28,0.26c0.68,0.17,1.26,0.44,1.74,0.8
			c0.48,0.36,0.85,0.82,1.12,1.38c0.27,0.56,0.4,1.23,0.4,2.02c0,0.8-0.14,1.49-0.41,2.07c-0.27,0.58-0.65,1.06-1.14,1.44
			s-1.07,0.66-1.75,0.84c-0.68,0.18-1.43,0.27-2.24,0.27H142.41z M147.23,238.62c0-0.76-0.23-1.28-0.69-1.56
			c-0.46-0.28-1.16-0.42-2.09-0.42h-2.04v4.12h2.04c0.93,0,1.63-0.17,2.09-0.5C147,239.93,147.23,239.38,147.23,238.62z"/>
		<path class="st0" d="M153.63,234.16h11.1v2.5h-4.04v11.5h-3.02v-11.5h-4.04V234.16z"/>
		<path class="st0" d="M168.95,234.16h3v14h-3V234.16z"/>
		<path class="st0" d="M177.23,234.16h6.08c0.65,0,1.24,0.09,1.75,0.28s0.95,0.44,1.3,0.77c0.35,0.33,0.62,0.71,0.81,1.16
			c0.19,0.45,0.28,0.93,0.28,1.45c0,0.43-0.06,0.81-0.18,1.14c-0.12,0.33-0.28,0.62-0.47,0.87c-0.19,0.25-0.41,0.45-0.66,0.62
			s-0.5,0.3-0.77,0.39c0.31,0.04,0.62,0.13,0.93,0.26c0.31,0.13,0.6,0.32,0.87,0.57c0.27,0.25,0.48,0.56,0.65,0.93
			c0.17,0.37,0.25,0.83,0.25,1.38c0,0.6-0.11,1.16-0.34,1.67s-0.54,0.95-0.94,1.32c-0.4,0.37-0.87,0.66-1.42,0.87
			c-0.55,0.21-1.15,0.32-1.8,0.32h-6.34V234.16z M180.15,236.6v3.24h2.1c0.72,0,1.25-0.12,1.6-0.36c0.35-0.24,0.52-0.67,0.52-1.3
			c0-0.57-0.15-0.98-0.45-1.22c-0.3-0.24-0.8-0.36-1.51-0.36H180.15z M180.15,245.72h2.4c0.95,0,1.59-0.15,1.93-0.45
			c0.34-0.3,0.51-0.74,0.51-1.31c0-0.68-0.21-1.14-0.62-1.37c-0.41-0.23-1.03-0.35-1.86-0.35h-2.36V245.72z"/>
		<path class="st0" d="M192.73,234.16h3v14h-3V234.16z"/>
		<path class="st0" d="M201.01,234.16h3v11.5h6.12v2.5h-9.12V234.16z"/>
		<path class="st0" d="M214.33,234.16h3v14h-3V234.16z"/>
		<path class="st0" d="M221.55,234.16h11.1v2.5h-4.04v11.5h-3.02v-11.5h-4.04V234.16z"/>
		<path class="st0" d="M241.11,242.3l-5.3-8.14h3.44l3.42,5.36l3.4-5.36h3.34l-5.3,8.14v5.86h-3V242.3z"/>
		<path class="st0" d="M259.69,240.5h3.86v-3.88h2.28v3.88h3.86v2.28h-3.86v3.98h-2.28v-3.98h-3.86V240.5z"/>
	</g>
</g>
<g id="LINE_TWO">
	<g>
		<path class="st0" d="M111.2,265.95v-14h9.58v2.48h-6.62v3.08h6.1v2.48h-6.1v5.96H111.2z"/>
		<path class="st0" d="M125.26,251.95h3v11.5h6.12v2.5h-9.12V251.95z"/>
		<path class="st0" d="M138.58,265.95v-14h9.54v2.48h-6.58v3.08h6.12v2.48h-6.12v3.48h6.68v2.48H138.58z"/>
		<path class="st0" d="M160.3,258.61l5.18,7.34h-3.6l-3.38-4.86l-3.44,4.86h-3.36l5.14-7.2l-4.74-6.8h3.62l2.94,4.32l3.04-4.32h3.38
			L160.3,258.61z"/>
		<path class="st0" d="M169.6,251.95h3v14h-3V251.95z"/>
		<path class="st0" d="M177.88,251.95h6.08c0.65,0,1.24,0.09,1.75,0.28c0.51,0.19,0.95,0.44,1.3,0.77c0.35,0.33,0.62,0.71,0.81,1.16
			c0.19,0.45,0.28,0.93,0.28,1.45c0,0.43-0.06,0.81-0.18,1.14c-0.12,0.33-0.28,0.62-0.47,0.87c-0.19,0.25-0.41,0.45-0.66,0.62
			c-0.25,0.17-0.5,0.3-0.77,0.39c0.31,0.04,0.62,0.13,0.93,0.26c0.31,0.13,0.6,0.32,0.87,0.57c0.27,0.25,0.48,0.56,0.65,0.93
			c0.17,0.37,0.25,0.83,0.25,1.38c0,0.6-0.11,1.16-0.34,1.67c-0.23,0.51-0.54,0.95-0.94,1.32c-0.4,0.37-0.87,0.66-1.42,0.87
			c-0.55,0.21-1.15,0.32-1.8,0.32h-6.34V251.95z M180.8,254.39v3.24h2.1c0.72,0,1.25-0.12,1.6-0.36c0.35-0.24,0.52-0.67,0.52-1.3
			c0-0.57-0.15-0.98-0.45-1.22c-0.3-0.24-0.8-0.36-1.51-0.36H180.8z M180.8,263.51h2.4c0.95,0,1.59-0.15,1.93-0.45
			c0.34-0.3,0.51-0.74,0.51-1.31c0-0.68-0.21-1.14-0.62-1.37c-0.41-0.23-1.03-0.35-1.86-0.35h-2.36V263.51z"/>
		<path class="st0" d="M193.38,251.95h3v14h-3V251.95z"/>
		<path class="st0" d="M201.66,251.95h3v11.5h6.12v2.5h-9.12V251.95z"/>
		<path class="st0" d="M214.98,251.95h3v14h-3V251.95z"/>
		<path class="st0" d="M222.2,251.95h11.1v2.5h-4.04v11.5h-3.02v-11.5h-4.04V251.95z"/>
		<path class="st0" d="M241.76,260.09l-5.3-8.14h3.44l3.42,5.36l3.4-5.36h3.34l-5.3,8.14v5.86h-3V260.09z"/>
	</g>
</g>
<g id="ICON">
	<g>
		<g>
			
				<rect x="84.95" y="164" transform="matrix(-1 1.501760e-07 -1.501760e-07 -1 224.211 361.4327)" class="st42" width="54.32" height="33.42"/>
			<rect x="89.82" y="158.08" class="st43" width="16.71" height="5.92"/>
			<rect x="117.68" y="158.08" class="st43" width="16.71" height="5.92"/>
		</g>
		<g>
			
				<rect x="166.42" y="164" transform="matrix(-1 1.501828e-07 -1.501828e-07 -1 441.4734 361.4326)" class="st42" width="108.63" height="33.42"/>
			<rect x="171.3" y="158.08" class="st43" width="16.71" height="5.92"/>
			<rect x="199.15" y="158.08" class="st43" width="16.71" height="5.92"/>
			<rect x="225.61" y="158.08" class="st43" width="16.71" height="5.92"/>
			<rect x="253.47" y="158.08" class="st43" width="16.71" height="5.92"/>
		</g>
		<g>
			
				<rect x="112.11" y="130.58" transform="matrix(-1 1.501828e-07 -1.501828e-07 -1 332.8422 294.5827)" class="st42" width="108.63" height="33.42"/>
			<rect x="116.98" y="124.66" class="st43" width="16.71" height="5.92"/>
			<rect x="144.83" y="124.66" class="st43" width="16.71" height="5.92"/>
			<rect x="171.3" y="124.66" class="st43" width="16.71" height="5.92"/>
			<rect x="199.15" y="124.66" class="st43" width="16.71" height="5.92"/>
		</g>
		<g>
			
				<rect x="166.42" y="97.15" transform="matrix(-1 1.501760e-07 -1.501760e-07 -1 387.1578 227.7328)" class="st42" width="54.32" height="33.42"/>
			<rect x="171.3" y="91.23" class="st43" width="16.71" height="5.92"/>
			<rect x="199.15" y="91.23" class="st43" width="16.71" height="5.92"/>
		</g>
	</g>
</g>
</svg>
