<?xml version="1.0" encoding="utf-8"?>
<!-- Generator: Adobe Illustrator 23.1.0, SVG Export Plug-In . SVG Version: 6.00 Build 0)  -->
<svg version="1.1" xmlns="http://www.w3.org/2000/svg" xmlns:xlink="http://www.w3.org/1999/xlink" x="0px" y="0px"
	 viewBox="0 0 360 360" style="enable-background:new 0 0 360 360;" xml:space="preserve">
<style type="text/css">
	.st0{fill:#FFFFFF;}
	.st1{fill:#0E6E39;}
	.st2{fill:#0C6E39;}
	.st3{fill:#4F497B;}
	.st4{fill:#216885;}
	.st5{fill:#F0492D;}
	.st6{fill:#EF3F25;}
	.st7{fill:#236886;}
	.st8{fill:#256887;}
	.st9{fill:#D2BF2D;}
	.st10{display:none;}
	.st11{display:inline;fill:none;stroke:#000000;stroke-width:0.25;stroke-miterlimit:10;}
	.st12{display:inline;fill:none;stroke:#FFFFFF;stroke-width:0.25;stroke-miterlimit:10;}
	.st13{display:inline;fill:none;stroke:#FFFFFF;stroke-width:0.25;stroke-linecap:round;stroke-miterlimit:10;}
	.st14{display:inline;fill:none;stroke:#000000;stroke-width:0.25;stroke-linecap:round;stroke-miterlimit:10;}
	.st15{fill:#4F4A7C;}
	.st16{fill:none;stroke:#FFFFFF;stroke-miterlimit:10;}
	.st17{stroke:#FFFFFF;stroke-miterlimit:10;}
	.st18{fill:none;stroke:#FFFFFF;stroke-width:3;stroke-miterlimit:10;}
	.st19{fill:none;stroke:#FFFFFF;stroke-linecap:round;stroke-miterlimit:10;}
	.st20{fill:none;stroke:#236886;stroke-width:5;stroke-miterlimit:10;}
	.st21{fill:none;stroke:#236886;stroke-width:5;stroke-linecap:round;stroke-miterlimit:10;}
	.st22{fill:none;stroke:#FFFFFF;stroke-width:5;stroke-miterlimit:10;}
	.st23{fill:none;stroke:#FFFFFF;stroke-width:5;stroke-linecap:round;stroke-miterlimit:10;}
	.st24{fill:none;stroke:#4F497B;stroke-width:3;stroke-miterlimit:10;}
	.st25{fill:none;stroke:#4F497B;stroke-miterlimit:10;}
	.st26{fill:#FFFFFF;stroke:#4F497B;stroke-miterlimit:10;}
	.st27{fill:#FFFFFF;stroke:#4F497B;stroke-width:2;stroke-miterlimit:10;}
	.st28{fill:none;stroke:#4F497B;stroke-width:2;stroke-linecap:round;stroke-miterlimit:10;}
	.st29{stroke:#FFFFFF;stroke-width:2;stroke-miterlimit:10;}
	.st30{fill:none;stroke:#FFFFFF;stroke-width:2;stroke-linecap:round;stroke-miterlimit:10;}
	.st31{fill:none;stroke:#0C6E39;stroke-width:3;stroke-miterlimit:10;}
	.st32{fill:none;stroke:#EF3F25;stroke-miterlimit:10;}
	.st33{fill:none;stroke:#EF3F25;stroke-width:3;stroke-miterlimit:10;}
	.st34{fill:none;stroke:#4F4A7C;stroke-width:3;stroke-miterlimit:10;}
	.st35{fill:none;stroke:#4F4A7C;stroke-width:5;stroke-linecap:round;stroke-miterlimit:10;}
	.st36{fill:none;stroke:#EF3F25;stroke-width:3;stroke-linecap:round;stroke-miterlimit:10;}
	.st37{fill:none;stroke:#EF3F25;stroke-width:5;stroke-linecap:round;stroke-miterlimit:10;}
	.st38{fill:none;stroke:#FFFFFF;stroke-width:3;stroke-linecap:round;stroke-miterlimit:10;}
	.st39{fill:none;stroke:#4F497B;stroke-width:5;stroke-linecap:round;stroke-miterlimit:10;}
	.st40{fill:#FFFFFF;stroke:#0E6E39;stroke-width:3;stroke-linejoin:round;stroke-miterlimit:10;}
	.st41{fill:none;stroke:#0E6E39;stroke-width:3;stroke-linejoin:round;stroke-miterlimit:10;}
	.st42{stroke:#FFFFFF;stroke-width:3;stroke-linejoin:round;stroke-miterlimit:10;}
	.st43{fill:none;stroke:#FFFFFF;stroke-width:3;stroke-linejoin:round;stroke-miterlimit:10;}
	.st44{fill:none;stroke:#0C6E39;stroke-width:5;stroke-linecap:round;stroke-miterlimit:10;}
	.st45{fill:none;stroke:#0C6E39;stroke-width:3;stroke-linecap:round;stroke-miterlimit:10;}
	.st46{fill:none;stroke:#0C6E39;stroke-linecap:round;stroke-linejoin:round;stroke-miterlimit:10;}
	.st47{fill:#0C6E39;stroke:#0C6E39;stroke-width:0;stroke-miterlimit:10;}
	.st48{fill:none;stroke:#0C6E39;stroke-width:3;stroke-linecap:round;stroke-linejoin:round;stroke-miterlimit:10;}
	.st49{fill:none;stroke:#0C6E39;stroke-linecap:round;stroke-miterlimit:10;}
	.st50{fill:none;stroke:#FFFFFF;stroke-linecap:round;stroke-linejoin:round;stroke-miterlimit:10;}
	.st51{fill:none;stroke:#FFFFFF;stroke-width:3;stroke-linecap:round;stroke-linejoin:round;stroke-miterlimit:10;}
	.st52{fill:none;stroke:#4F4A7C;stroke-miterlimit:10;}
	.st53{fill:#FFFFFF;stroke:#4F4A7C;stroke-width:2;stroke-miterlimit:10;}
	.st54{fill:#FFFFFF;stroke:#4F497B;stroke-width:5;stroke-miterlimit:10;}
	.st55{stroke:#FFFFFF;stroke-width:5;stroke-miterlimit:10;}
	.st56{fill:none;stroke:#EF3F25;stroke-width:2;stroke-linecap:round;stroke-miterlimit:10;}
	.st57{fill:none;stroke:#FFFFFF;stroke-width:1.5;stroke-miterlimit:10;}
	.st58{fill:none;stroke:#FFFFFF;stroke-width:1.5;stroke-linecap:round;stroke-miterlimit:10;}
	.st59{fill:none;stroke:#0E6E39;stroke-width:3;stroke-miterlimit:10;}
	.st60{fill:none;stroke:#0E6E39;stroke-width:1.5;stroke-miterlimit:10;}
	.st61{fill:none;stroke:#0E6E39;stroke-width:1.5;stroke-linecap:round;stroke-miterlimit:10;}
	.st62{fill:none;stroke:#EF3F25;stroke-width:0.7099;stroke-miterlimit:10;}
	.st63{fill:none;stroke:#FFFFFF;stroke-width:0.7099;stroke-miterlimit:10;}
	.st64{fill:#EF4025;}
	.st65{fill:#505050;stroke:#4F4A7C;stroke-width:2.9281;stroke-miterlimit:10;}
	.st66{fill:#FFFFFF;stroke:#FFFFFF;stroke-width:2.9281;stroke-miterlimit:10;}
	.st67{fill:none;stroke:#FFFFFF;stroke-width:3.2577;stroke-miterlimit:10;}
	.st68{fill:none;stroke:#FFFFFF;stroke-width:3.2577;stroke-linecap:round;stroke-linejoin:round;stroke-miterlimit:10;}
	.st69{fill:none;stroke:#256887;stroke-width:3.2577;stroke-miterlimit:10;}
	.st70{fill:none;stroke:#256887;stroke-width:3.2577;stroke-linecap:round;stroke-linejoin:round;stroke-miterlimit:10;}
	.st71{fill:#FFFFFF;stroke:#FFFFFF;stroke-width:2;stroke-miterlimit:10;}
	.st72{fill:#D2BF2D;stroke:#D2BF2D;stroke-width:2;stroke-miterlimit:10;}
	.st73{fill:#086E38;}
	.st74{fill:#256887;stroke:#256887;stroke-width:4;stroke-miterlimit:10;}
	.st75{fill:#FFFFFF;stroke:#FFFFFF;stroke-width:4;stroke-miterlimit:10;}
	.st76{fill:#4F4B7D;}
	.st77{fill:#256887;stroke:#256887;stroke-width:2.8997;stroke-miterlimit:10;}
	.st78{fill:#FFFFFF;stroke:#FFFFFF;stroke-width:2.8997;stroke-miterlimit:10;}
	.st79{fill:none;stroke:#FFFFFF;stroke-width:2.2399;stroke-miterlimit:10;}
	.st80{fill:none;stroke:#FFFFFF;stroke-width:2;stroke-miterlimit:10;}
	.st81{fill:none;stroke:#FFFFFF;stroke-width:1.4254;stroke-miterlimit:10;}
	.st82{fill:none;stroke:#EF4025;stroke-width:2.2399;stroke-miterlimit:10;}
	.st83{fill:none;stroke:#EF4025;stroke-width:2;stroke-miterlimit:10;}
	.st84{fill:none;stroke:#EF4025;stroke-width:1.4254;stroke-miterlimit:10;}
	.st85{fill:none;stroke:#4F497B;stroke-linecap:round;stroke-miterlimit:10;}
</style>
<g id="White">
</g>
<g id="BACKGROUND">
	<rect y="-0.06" width="360" height="360"/>
</g>
<g id="REF" class="st10">
	<rect x="-360" y="90.27" class="st11" width="360" height="108"/>
	<rect y="90.27" class="st12" width="360" height="108"/>
	<line class="st13" x1="180" y1="0.13" x2="180" y2="360"/>
</g>
<g id="LINE_ONE">
	<g>
		<path class="st0" d="M137.16,243.18v4.92h-2.98v-14h5.32c0.84,0,1.6,0.09,2.28,0.26c0.68,0.17,1.26,0.44,1.74,0.8
			c0.48,0.36,0.85,0.82,1.12,1.38c0.27,0.56,0.4,1.23,0.4,2.02c0,0.8-0.14,1.49-0.41,2.07s-0.65,1.06-1.14,1.44
			c-0.49,0.38-1.07,0.66-1.75,0.84c-0.68,0.18-1.43,0.27-2.24,0.27H137.16z M141.98,238.56c0-0.76-0.23-1.28-0.69-1.56
			c-0.46-0.28-1.16-0.42-2.09-0.42h-2.04v4.12h2.04c0.93,0,1.63-0.17,2.09-0.5C141.75,239.86,141.98,239.32,141.98,238.56z"/>
		<path class="st0" d="M160.5,248.1h-3.1l-1.12-3.24h-5.02l-1.12,3.24h-2.94l5.04-14h3.22L160.5,248.1z M153.74,237.38
			c-0.03,0.11-0.07,0.26-0.14,0.47c-0.07,0.21-0.14,0.44-0.22,0.7s-0.17,0.54-0.27,0.84c-0.1,0.3-0.2,0.59-0.29,0.87
			c-0.23,0.69-0.47,1.43-0.74,2.22h3.38c-0.27-0.79-0.51-1.53-0.74-2.22c-0.15-0.4-0.26-0.73-0.35-0.99s-0.17-0.51-0.24-0.75
			s-0.14-0.46-0.21-0.67s-0.11-0.36-0.14-0.47H153.74z"/>
		<path class="st0" d="M161.98,234.1h11.1v2.5h-4.04v11.5h-3.02v-11.5h-4.04V234.1z"/>
		<path class="st0" d="M177.3,234.1h3v14h-3V234.1z"/>
		<path class="st0" d="M185.58,248.1v-14h9.54v2.48h-6.58v3.08h6.12v2.48h-6.12v3.48h6.68v2.48H185.58z"/>
		<path class="st0" d="M199.86,234.1h3.12c0.81,1.32,1.59,2.57,2.32,3.76c0.44,0.71,0.8,1.29,1.08,1.75s0.56,0.92,0.84,1.37
			s0.55,0.88,0.8,1.29c0.25,0.41,0.47,0.75,0.64,1.03h0.06v-9.2h2.84v14h-3.12c-0.8-1.29-1.56-2.53-2.28-3.7
			c-0.43-0.69-0.78-1.27-1.07-1.73s-0.57-0.92-0.85-1.38c-0.28-0.46-0.55-0.9-0.81-1.32s-0.48-0.78-0.67-1.07h-0.06v9.2h-2.84V234.1
			z"/>
		<path class="st0" d="M215.78,234.1h11.1v2.5h-4.04v11.5h-3.02v-11.5h-4.04V234.1z"/>
	</g>
</g>
<g id="LINE_TWO">
	<g>
		<path class="st0" d="M139.89,255.56c0,0.6,0.26,1.03,0.78,1.29c0.52,0.26,1.35,0.48,2.48,0.67c1.67,0.28,2.89,0.74,3.67,1.38
			c0.78,0.64,1.17,1.59,1.17,2.86c0,0.68-0.14,1.29-0.42,1.83s-0.67,1-1.17,1.38s-1.1,0.67-1.79,0.88
			c-0.69,0.21-1.45,0.31-2.26,0.31c-0.88,0-1.67-0.12-2.38-0.35c-0.71-0.23-1.31-0.54-1.8-0.93s-0.88-0.84-1.16-1.36
			c-0.28-0.52-0.43-1.06-0.46-1.62l3-0.48c0.07,0.68,0.33,1.24,0.79,1.67c0.46,0.43,1.13,0.65,2.01,0.65c0.36,0,0.7-0.03,1.01-0.1
			c0.31-0.07,0.59-0.18,0.82-0.33c0.23-0.15,0.42-0.34,0.55-0.57c0.13-0.23,0.2-0.5,0.2-0.82c0-0.52-0.22-0.92-0.65-1.2
			c-0.43-0.28-1.2-0.51-2.29-0.68c-0.73-0.12-1.41-0.27-2.04-0.46s-1.17-0.44-1.63-0.77c-0.46-0.33-0.82-0.73-1.08-1.22
			c-0.26-0.49-0.39-1.08-0.39-1.79c0-0.71,0.13-1.32,0.4-1.84c0.27-0.52,0.64-0.96,1.12-1.31c0.48-0.35,1.05-0.62,1.7-0.79
			c0.65-0.17,1.37-0.26,2.14-0.26c0.72,0,1.39,0.08,2.02,0.25c0.63,0.17,1.18,0.41,1.67,0.74c0.49,0.33,0.89,0.73,1.21,1.21
			c0.32,0.48,0.54,1.03,0.66,1.64l-3.04,0.66c-0.11-0.64-0.38-1.15-0.82-1.52c-0.44-0.37-1.03-0.56-1.78-0.56
			c-0.76,0-1.32,0.14-1.69,0.42C140.07,254.72,139.89,255.1,139.89,255.56z"/>
		<path class="st0" d="M164.81,265.88h-3.1l-1.12-3.24h-5.02l-1.12,3.24h-2.94l5.04-14h3.22L164.81,265.88z M158.05,255.16
			c-0.03,0.11-0.07,0.26-0.14,0.47c-0.07,0.21-0.14,0.44-0.22,0.7s-0.17,0.54-0.27,0.84c-0.1,0.3-0.2,0.59-0.29,0.87
			c-0.23,0.69-0.47,1.43-0.74,2.22h3.38c-0.27-0.79-0.51-1.53-0.74-2.22c-0.15-0.4-0.26-0.73-0.35-0.99s-0.17-0.51-0.24-0.75
			s-0.14-0.46-0.21-0.67s-0.11-0.36-0.14-0.47H158.05z"/>
		<path class="st0" d="M168.95,265.88v-14h9.58v2.48h-6.62v3.08h6.1v2.48h-6.1v5.96H168.95z"/>
		<path class="st0" d="M183.01,265.88v-14h9.54v2.48h-6.58v3.08h6.12v2.48h-6.12v3.48h6.68v2.48H183.01z"/>
		<path class="st0" d="M196.23,251.88h11.1v2.5h-4.04v11.5h-3.02v-11.5h-4.04V251.88z"/>
		<path class="st0" d="M215.79,260.02l-5.3-8.14h3.44l3.42,5.36l3.4-5.36h3.34l-5.3,8.14v5.86h-3V260.02z"/>
	</g>
</g>
<g id="ICON">
	<g>
		<path class="st75" d="M124,185.7c4.64-9.28,9.12-18.63,13.94-27.81c10.44-19.89,21.05-39.69,31.61-59.52
			c0.66-1.24,1.36-2.49,2.22-3.61c4.96-6.45,12.27-6.38,16.73,0.44c2.86,4.37,5.13,9.13,7.59,13.76
			c12.24,22.98,24.48,45.97,36.65,68.98c1.31,2.47,2.19,5.17,3.26,7.77c0,1.17,0,2.33,0,3.5c-1.98,7.31-7.23,9.36-14.21,9.33
			c-27.86-0.11-55.73-0.11-83.59,0c-6.97,0.03-12.24-1.99-14.2-9.33C124,188.04,124,186.87,124,185.7z M179.79,193.51
			c0,0.01,0,0.02,0,0.03c12.75,0,25.5,0.01,38.24-0.01c2.58,0,5.18,0.05,7.73-0.26c4.1-0.5,6.18-3.46,5.18-7.47
			c-0.54-2.15-1.54-4.22-2.58-6.19c-13.95-26.33-27.94-52.65-41.94-78.96c-1.42-2.67-2.88-5.55-6.44-5.53
			c-3.56,0.03-4.96,2.95-6.38,5.61c-11.89,22.33-23.78,44.67-35.65,67.02c-2.81,5.29-5.74,10.54-8.26,15.97
			c-2.51,5.43,0.17,9.46,6.12,9.78c0.58,0.03,1.17,0.01,1.75,0.01C151.62,193.51,165.7,193.51,179.79,193.51z"/>
		<path d="M179.79,193.51c-14.08,0-28.16,0-42.24,0c-0.58,0-1.17,0.02-1.75-0.01c-5.95-0.33-8.63-4.36-6.12-9.78
			c2.52-5.43,5.45-10.68,8.26-15.97c11.87-22.35,23.76-44.68,35.65-67.02c1.42-2.66,2.83-5.58,6.38-5.61
			c3.56-0.03,5.02,2.86,6.44,5.53c14,26.31,27.99,52.62,41.94,78.96c1.05,1.97,2.05,4.05,2.58,6.19c1.01,4.01-1.07,6.97-5.18,7.47
			c-2.55,0.31-5.15,0.26-7.73,0.26c-12.75,0.02-25.5,0.01-38.24,0.01C179.79,193.53,179.79,193.52,179.79,193.51z M180.81,153.9
			c0.21,0.02,0.41,0.04,0.62,0.06c0.5,1.4,1,2.8,1.48,4.21c1.84,5.35,3.69,10.69,5.52,16.04c0.57,1.67,1.78,2.79,3.35,1.9
			c0.91-0.52,1.32-2.17,1.65-3.39c0.17-0.62-0.32-1.43-0.57-2.14c-1.86-5.43-3.69-10.87-5.63-16.27c-1.31-3.67-2.72-7.29-0.9-11.19
			c2.89,1.93,3.22,2.7,3.7,6.37c0.12,0.95,0.96,2.02,1.77,2.57c0.39,0.26,2.19-0.54,2.2-0.91c0.09-2.46,0.73-5.49-0.43-7.27
			c-2.15-3.27-5.37-5.86-8.24-8.63c-1.75-1.68-5.86-1.47-7.44,0.3c-3.27,3.66-6.48,7.38-9.72,11.06c-1.13,1.28-1.56,2.7-0.23,3.98
			c1.46,1.41,2.69,0.5,3.8-0.73c1.46-1.61,2.98-3.16,4.48-4.74c0.2,0.1,0.4,0.19,0.6,0.29c0,1.52,0.42,3.2-0.08,4.54
			c-1.3,3.5-3.02,6.84-4.53,10.26c-1.68,3.8-3.38,7.6-4.97,11.44c-0.7,1.7-0.56,3.41,1.37,4.21c1.77,0.73,2.78-0.4,3.44-1.94
			c0.89-2.06,1.8-4.11,2.7-6.17C176.77,163.14,178.79,158.52,180.81,153.9z M217.3,183.22c-2.99-4.37-5.66-8.25-8.31-12.15
			c-2.48-3.65-3.25-3.95-8.06-2.88c2.5,4.82,4.95,9.59,7.48,14.31c0.2,0.38,0.92,0.67,1.41,0.69
			C212.13,183.26,214.44,183.22,217.3,183.22z M159.11,168.11c-4.08-1.05-6.88-0.17-8.53,3.51c-0.6,1.34-1.64,2.49-2.48,3.72
			c-1.71,2.5-3.41,4.99-5.39,7.88c2.84,0,5.14,0.04,7.44-0.03c0.5-0.02,1.23-0.29,1.43-0.67
			C154.11,177.79,156.56,173.02,159.11,168.11z M176.91,183.02c2.47,0,4.91,0,7.51,0c-0.47-4.99-0.92-9.77-1.38-14.65
			c-2.06,0-3.93,0-6.14,0C176.91,173.31,176.91,178.09,176.91,183.02z M201.13,183.22c-1.61-4.82-3.14-9.2-4.5-13.63
			c-0.55-1.81-1.47-2.14-3.18-1.49c0.15,0.48,0.25,0.87,0.39,1.25c1.16,3.23,1.83,6.34-1.87,8.53c-0.3,0.18-0.46,0.84-0.45,1.27
			c0.05,3.5,0.67,4.08,4.2,4.07C197.36,183.22,199.01,183.22,201.13,183.22z M159.66,183.23c1.97,0,3.29,0,4.61,0
			c4.67,0.01,4.67,0.01,5.06-4.15c-1.54-2.07-3.32-3.51-3.72-5.27c-0.41-1.81,0.52-3.93,0.89-6.07c-0.63,0.13-1.44,0.11-1.52,0.35
			C163.22,172.97,161.53,177.87,159.66,183.23z M178.51,125.13c-2,0.05-3.61,1.87-3.57,4.03c0.04,2.19,1.72,3.91,3.74,3.85
			c1.96-0.06,3.45-1.91,3.37-4.18C181.98,126.66,180.46,125.08,178.51,125.13z"/>
		<path class="st0" d="M180.81,153.9c-2.02,4.62-4.04,9.24-6.06,13.86c-0.9,2.06-1.81,4.11-2.7,6.17c-0.66,1.54-1.67,2.67-3.44,1.94
			c-1.93-0.8-2.07-2.51-1.37-4.21c1.59-3.84,3.29-7.64,4.97-11.44c1.52-3.42,3.23-6.76,4.53-10.26c0.5-1.34,0.08-3.01,0.08-4.54
			c-0.2-0.1-0.4-0.19-0.6-0.29c-1.5,1.58-3.02,3.13-4.48,4.74c-1.11,1.23-2.34,2.14-3.8,0.73c-1.33-1.28-0.9-2.7,0.23-3.98
			c3.24-3.69,6.45-7.4,9.72-11.06c1.58-1.77,5.69-1.98,7.44-0.3c2.88,2.76,6.09,5.36,8.24,8.63c1.17,1.78,0.52,4.81,0.43,7.27
			c-0.01,0.36-1.81,1.17-2.2,0.91c-0.82-0.55-1.65-1.62-1.77-2.57c-0.48-3.66-0.81-4.44-3.7-6.37c-1.82,3.9-0.41,7.52,0.9,11.19
			c1.93,5.4,3.76,10.84,5.63,16.27c0.24,0.71,0.73,1.52,0.57,2.14c-0.33,1.22-0.73,2.87-1.65,3.39c-1.57,0.89-2.78-0.23-3.35-1.9
			c-1.83-5.35-3.67-10.7-5.52-16.04c-0.49-1.41-0.99-2.81-1.48-4.21C181.22,153.94,181.01,153.92,180.81,153.9z"/>
		<path class="st0" d="M217.3,183.22c-2.86,0-5.17,0.04-7.48-0.03c-0.49-0.02-1.21-0.3-1.41-0.69c-2.53-4.73-4.97-9.49-7.48-14.31
			c4.82-1.07,5.59-0.77,8.06,2.88C211.64,174.97,214.31,178.85,217.3,183.22z"/>
		<path class="st0" d="M159.11,168.11c-2.55,4.91-5,9.68-7.53,14.41c-0.2,0.38-0.94,0.66-1.43,0.67c-2.3,0.07-4.6,0.03-7.44,0.03
			c1.97-2.89,3.68-5.38,5.39-7.88c0.84-1.23,1.88-2.38,2.48-3.72C152.23,167.94,155.03,167.06,159.11,168.11z"/>
		<path class="st0" d="M176.91,183.02c0-4.93,0-9.71,0-14.65c2.21,0,4.07,0,6.14,0c0.46,4.88,0.91,9.65,1.38,14.65
			C181.82,183.02,179.38,183.02,176.91,183.02z"/>
		<path class="st0" d="M201.13,183.22c-2.11,0-3.77-0.01-5.43,0c-3.52,0.01-4.14-0.57-4.2-4.07c-0.01-0.43,0.15-1.09,0.45-1.27
			c3.7-2.2,3.03-5.3,1.87-8.53c-0.14-0.38-0.24-0.77-0.39-1.25c1.71-0.65,2.63-0.32,3.18,1.49
			C197.98,174.03,199.52,178.4,201.13,183.22z"/>
		<path class="st0" d="M159.66,183.23c1.86-5.35,3.55-10.26,5.32-15.14c0.09-0.24,0.89-0.22,1.52-0.35
			c-0.37,2.14-1.31,4.26-0.89,6.07c0.4,1.76,2.18,3.2,3.72,5.27c-0.39,4.16-0.39,4.15-5.06,4.15
			C162.95,183.22,161.63,183.23,159.66,183.23z"/>
		<path class="st0" d="M178.51,125.13c1.95-0.05,3.47,1.53,3.55,3.7c0.08,2.27-1.41,4.12-3.37,4.18c-2.03,0.07-3.7-1.66-3.74-3.85
			C174.9,127.01,176.51,125.18,178.51,125.13z"/>
	</g>
</g>
</svg>
