<?xml version="1.0" encoding="utf-8"?>
<!-- Generator: Adobe Illustrator 23.1.0, SVG Export Plug-In . SVG Version: 6.00 Build 0)  -->
<svg version="1.1" xmlns="http://www.w3.org/2000/svg" xmlns:xlink="http://www.w3.org/1999/xlink" x="0px" y="0px"
	 viewBox="0 0 360 360" style="enable-background:new 0 0 360 360;" xml:space="preserve">
<style type="text/css">
	.st0{fill:#FFFFFF;}
	.st1{fill:#0E6E39;}
	.st2{fill:#0C6E39;}
	.st3{fill:#4F497B;}
	.st4{fill:#216885;}
	.st5{fill:#F0492D;}
	.st6{fill:#EF3F25;}
	.st7{fill:#236886;}
	.st8{fill:#256887;}
	.st9{fill:#D2BF2D;}
	.st10{display:none;}
	.st11{display:inline;fill:none;stroke:#000000;stroke-width:0.25;stroke-miterlimit:10;}
	.st12{display:inline;fill:none;stroke:#FFFFFF;stroke-width:0.25;stroke-miterlimit:10;}
	.st13{display:inline;fill:none;stroke:#FFFFFF;stroke-width:0.25;stroke-linecap:round;stroke-miterlimit:10;}
	.st14{display:inline;fill:none;stroke:#000000;stroke-width:0.25;stroke-linecap:round;stroke-miterlimit:10;}
	.st15{fill:#4F4A7C;}
	.st16{fill:none;stroke:#FFFFFF;stroke-miterlimit:10;}
	.st17{stroke:#FFFFFF;stroke-miterlimit:10;}
	.st18{fill:none;stroke:#FFFFFF;stroke-width:3;stroke-miterlimit:10;}
	.st19{fill:none;stroke:#FFFFFF;stroke-linecap:round;stroke-miterlimit:10;}
	.st20{fill:none;stroke:#236886;stroke-width:5;stroke-miterlimit:10;}
	.st21{fill:none;stroke:#236886;stroke-width:5;stroke-linecap:round;stroke-miterlimit:10;}
	.st22{fill:none;stroke:#FFFFFF;stroke-width:5;stroke-miterlimit:10;}
	.st23{fill:none;stroke:#FFFFFF;stroke-width:5;stroke-linecap:round;stroke-miterlimit:10;}
	.st24{fill:none;stroke:#4F497B;stroke-width:3;stroke-miterlimit:10;}
	.st25{fill:none;stroke:#4F497B;stroke-miterlimit:10;}
	.st26{fill:#FFFFFF;stroke:#4F497B;stroke-miterlimit:10;}
	.st27{fill:#FFFFFF;stroke:#4F497B;stroke-width:2;stroke-miterlimit:10;}
	.st28{fill:none;stroke:#4F497B;stroke-width:2;stroke-linecap:round;stroke-miterlimit:10;}
	.st29{stroke:#FFFFFF;stroke-width:2;stroke-miterlimit:10;}
	.st30{fill:none;stroke:#FFFFFF;stroke-width:2;stroke-linecap:round;stroke-miterlimit:10;}
	.st31{fill:none;stroke:#0C6E39;stroke-width:3;stroke-miterlimit:10;}
	.st32{fill:none;stroke:#EF3F25;stroke-miterlimit:10;}
	.st33{fill:none;stroke:#EF3F25;stroke-width:3;stroke-miterlimit:10;}
	.st34{fill:none;stroke:#4F4A7C;stroke-width:3;stroke-miterlimit:10;}
	.st35{fill:none;stroke:#4F4A7C;stroke-width:5;stroke-linecap:round;stroke-miterlimit:10;}
	.st36{fill:none;stroke:#EF3F25;stroke-width:3;stroke-linecap:round;stroke-miterlimit:10;}
	.st37{fill:none;stroke:#EF3F25;stroke-width:5;stroke-linecap:round;stroke-miterlimit:10;}
	.st38{fill:none;stroke:#FFFFFF;stroke-width:3;stroke-linecap:round;stroke-miterlimit:10;}
	.st39{fill:none;stroke:#4F497B;stroke-width:5;stroke-linecap:round;stroke-miterlimit:10;}
	.st40{fill:#FFFFFF;stroke:#0E6E39;stroke-width:3;stroke-linejoin:round;stroke-miterlimit:10;}
	.st41{fill:none;stroke:#0E6E39;stroke-width:3;stroke-linejoin:round;stroke-miterlimit:10;}
	.st42{stroke:#FFFFFF;stroke-width:3;stroke-linejoin:round;stroke-miterlimit:10;}
	.st43{fill:none;stroke:#FFFFFF;stroke-width:3;stroke-linejoin:round;stroke-miterlimit:10;}
	.st44{fill:none;stroke:#0C6E39;stroke-width:5;stroke-linecap:round;stroke-miterlimit:10;}
	.st45{fill:none;stroke:#0C6E39;stroke-width:3;stroke-linecap:round;stroke-miterlimit:10;}
	.st46{fill:none;stroke:#0C6E39;stroke-linecap:round;stroke-linejoin:round;stroke-miterlimit:10;}
	.st47{fill:#0C6E39;stroke:#0C6E39;stroke-width:0;stroke-miterlimit:10;}
	.st48{fill:none;stroke:#0C6E39;stroke-width:3;stroke-linecap:round;stroke-linejoin:round;stroke-miterlimit:10;}
	.st49{fill:none;stroke:#0C6E39;stroke-linecap:round;stroke-miterlimit:10;}
	.st50{fill:none;stroke:#FFFFFF;stroke-linecap:round;stroke-linejoin:round;stroke-miterlimit:10;}
	.st51{fill:none;stroke:#FFFFFF;stroke-width:3;stroke-linecap:round;stroke-linejoin:round;stroke-miterlimit:10;}
	.st52{fill:none;stroke:#4F4A7C;stroke-miterlimit:10;}
	.st53{fill:#FFFFFF;stroke:#4F4A7C;stroke-width:2;stroke-miterlimit:10;}
	.st54{fill:#FFFFFF;stroke:#4F497B;stroke-width:5;stroke-miterlimit:10;}
	.st55{stroke:#FFFFFF;stroke-width:5;stroke-miterlimit:10;}
	.st56{fill:none;stroke:#EF3F25;stroke-width:2;stroke-linecap:round;stroke-miterlimit:10;}
	.st57{fill:none;stroke:#FFFFFF;stroke-width:1.5;stroke-miterlimit:10;}
	.st58{fill:none;stroke:#FFFFFF;stroke-width:1.5;stroke-linecap:round;stroke-miterlimit:10;}
	.st59{fill:none;stroke:#0E6E39;stroke-width:3;stroke-miterlimit:10;}
	.st60{fill:none;stroke:#0E6E39;stroke-width:1.5;stroke-miterlimit:10;}
	.st61{fill:none;stroke:#0E6E39;stroke-width:1.5;stroke-linecap:round;stroke-miterlimit:10;}
	.st62{fill:none;stroke:#EF3F25;stroke-width:0.7099;stroke-miterlimit:10;}
	.st63{fill:none;stroke:#FFFFFF;stroke-width:0.7099;stroke-miterlimit:10;}
	.st64{fill:#EF4025;}
	.st65{fill:#505050;stroke:#4F4A7C;stroke-width:2.9281;stroke-miterlimit:10;}
	.st66{fill:#FFFFFF;stroke:#FFFFFF;stroke-width:2.9281;stroke-miterlimit:10;}
	.st67{fill:none;stroke:#FFFFFF;stroke-width:3.2577;stroke-miterlimit:10;}
	.st68{fill:none;stroke:#FFFFFF;stroke-width:3.2577;stroke-linecap:round;stroke-linejoin:round;stroke-miterlimit:10;}
	.st69{fill:none;stroke:#256887;stroke-width:3.2577;stroke-miterlimit:10;}
	.st70{fill:none;stroke:#256887;stroke-width:3.2577;stroke-linecap:round;stroke-linejoin:round;stroke-miterlimit:10;}
	.st71{fill:#FFFFFF;stroke:#FFFFFF;stroke-width:2;stroke-miterlimit:10;}
	.st72{fill:#D2BF2D;stroke:#D2BF2D;stroke-width:2;stroke-miterlimit:10;}
	.st73{fill:#086E38;}
	.st74{fill:#256887;stroke:#256887;stroke-width:4;stroke-miterlimit:10;}
	.st75{fill:#FFFFFF;stroke:#FFFFFF;stroke-width:4;stroke-miterlimit:10;}
	.st76{fill:#4F4B7D;}
	.st77{fill:#256887;stroke:#256887;stroke-width:2.8997;stroke-miterlimit:10;}
	.st78{fill:#FFFFFF;stroke:#FFFFFF;stroke-width:2.8997;stroke-miterlimit:10;}
	.st79{fill:none;stroke:#FFFFFF;stroke-width:2.2399;stroke-miterlimit:10;}
	.st80{fill:none;stroke:#FFFFFF;stroke-width:2;stroke-miterlimit:10;}
	.st81{fill:none;stroke:#FFFFFF;stroke-width:1.4254;stroke-miterlimit:10;}
	.st82{fill:none;stroke:#EF4025;stroke-width:2.2399;stroke-miterlimit:10;}
	.st83{fill:none;stroke:#EF4025;stroke-width:2;stroke-miterlimit:10;}
	.st84{fill:none;stroke:#EF4025;stroke-width:1.4254;stroke-miterlimit:10;}
	.st85{fill:none;stroke:#4F497B;stroke-linecap:round;stroke-miterlimit:10;}
</style>
<g id="White">
</g>
<g id="BACKGROUND">
	<rect width="360" height="360"/>
</g>
<g id="REF" class="st10">
	<rect x="-360" y="90.33" class="st11" width="360" height="108"/>
	<rect y="90.33" class="st12" width="360" height="108"/>
	<line class="st13" x1="180" y1="0.19" x2="180" y2="360.06"/>
</g>
<g id="LINE_ONE">
	<g>
		<path class="st0" d="M107.75,248.16v-14h9.54v2.48h-6.58v3.08h6.12v2.48h-6.12v3.48h6.68v2.48H107.75z"/>
		<path class="st0" d="M129.47,240.82l5.18,7.34h-3.6l-3.38-4.86l-3.44,4.86h-3.36l5.14-7.2l-4.74-6.8h3.62l2.94,4.32l3.04-4.32
			h3.38L129.47,240.82z"/>
		<path class="st0" d="M137.29,241.16c0-1.15,0.16-2.17,0.48-3.07c0.32-0.9,0.78-1.66,1.37-2.29c0.59-0.63,1.31-1.1,2.16-1.43
			c0.85-0.33,1.8-0.49,2.85-0.49c1.49,0,2.75,0.33,3.76,0.98c1.01,0.65,1.73,1.65,2.16,2.98l-2.92,1.02
			c-0.24-0.79-0.6-1.4-1.08-1.83c-0.48-0.43-1.14-0.65-1.98-0.65c-0.61,0-1.15,0.12-1.62,0.36c-0.47,0.24-0.85,0.57-1.16,0.99
			s-0.54,0.92-0.69,1.51s-0.23,1.23-0.23,1.92s0.08,1.33,0.23,1.91s0.38,1.08,0.69,1.51s0.69,0.76,1.16,1
			c0.47,0.24,1.01,0.36,1.64,0.36c0.77,0,1.4-0.19,1.89-0.58c0.49-0.39,0.86-0.97,1.11-1.76l2.88,1.02
			c-0.47,1.19-1.19,2.12-2.16,2.8c-0.97,0.68-2.23,1.02-3.76,1.02c-1.03,0-1.96-0.16-2.79-0.49s-1.55-0.8-2.14-1.42
			c-0.59-0.62-1.05-1.38-1.37-2.29C137.45,243.33,137.29,242.3,137.29,241.16z"/>
		<path class="st0" d="M154.47,248.16v-14h9.54v2.48h-6.58v3.08h6.12v2.48h-6.12v3.48h6.68v2.48H154.47z"/>
		<path class="st0" d="M168.75,234.16h3v11.5h6.12v2.5h-9.12V234.16z"/>
		<path class="st0" d="M182.07,234.16h3v11.5h6.12v2.5h-9.12V234.16z"/>
		<path class="st0" d="M195.39,248.16v-14h9.54v2.48h-6.58v3.08h6.12v2.48h-6.12v3.48h6.68v2.48H195.39z"/>
		<path class="st0" d="M209.67,234.16h3.12c0.81,1.32,1.59,2.57,2.32,3.76c0.44,0.71,0.8,1.29,1.08,1.75s0.56,0.92,0.84,1.37
			s0.55,0.88,0.8,1.29c0.25,0.41,0.47,0.75,0.64,1.03h0.06v-9.2h2.84v14h-3.12c-0.8-1.29-1.56-2.53-2.28-3.7
			c-0.43-0.69-0.78-1.27-1.07-1.73s-0.57-0.92-0.85-1.38c-0.28-0.46-0.55-0.9-0.81-1.32s-0.48-0.78-0.67-1.07h-0.06v9.2h-2.84
			V234.16z"/>
		<path class="st0" d="M226.07,241.16c0-1.15,0.16-2.17,0.48-3.07c0.32-0.9,0.78-1.66,1.37-2.29c0.59-0.63,1.31-1.1,2.16-1.43
			c0.85-0.33,1.8-0.49,2.85-0.49c1.49,0,2.75,0.33,3.76,0.98c1.01,0.65,1.73,1.65,2.16,2.98l-2.92,1.02
			c-0.24-0.79-0.6-1.4-1.08-1.83c-0.48-0.43-1.14-0.65-1.98-0.65c-0.61,0-1.15,0.12-1.62,0.36s-0.85,0.57-1.16,0.99
			s-0.54,0.92-0.69,1.51c-0.15,0.59-0.23,1.23-0.23,1.92s0.08,1.33,0.23,1.91c0.15,0.58,0.38,1.08,0.69,1.51s0.69,0.76,1.16,1
			s1.01,0.36,1.64,0.36c0.77,0,1.4-0.19,1.89-0.58c0.49-0.39,0.86-0.97,1.11-1.76l2.88,1.02c-0.47,1.19-1.19,2.12-2.16,2.8
			c-0.97,0.68-2.23,1.02-3.76,1.02c-1.03,0-1.96-0.16-2.79-0.49c-0.83-0.33-1.55-0.8-2.14-1.42c-0.59-0.62-1.05-1.38-1.37-2.29
			C226.23,243.33,226.07,242.3,226.07,241.16z"/>
		<path class="st0" d="M243.25,248.16v-14h9.54v2.48h-6.58v3.08h6.12v2.48h-6.12v3.48h6.68v2.48H243.25z"/>
	</g>
</g>
<g id="LINE_TWO">
</g>
<g id="ICON">
	<g>
		<path class="st18" d="M202.68,138.98c0-5.01,0-10.03-0.01-15.04c0-1.57-0.7-2.27-2.29-2.27c-6.8-0.01-13.59,0-20.39,0c0,0,0,0,0,0
			c-0.86,0-1.71,0-2.57,0c-5.96,0-11.92,0-17.88,0.01c-1.54,0-2.22,0.71-2.22,2.26c0,5.77,0.05,11.53-0.02,17.3
			c-0.05,3.92,0.24,7.75,1.66,11.46c1.49,3.9,3.74,7.24,6.92,9.94c2.88,2.44,6.05,4.03,9.52,4.76c0,0.42-0.01,0.83,0,1.25
			c0.09,3.42,0.21,6.85,0.28,10.27c0.05,2.11-0.27,4.18-0.98,6.19c-0.48,1.35-1.03,2.67-1.56,4.03c4.55,0,9.09,0,13.71,0
			c-0.12-0.28-0.21-0.49-0.31-0.69c-1.17-2.45-2.1-4.98-2.19-7.66c-0.11-3.11,0.05-6.23,0.08-9.35c0.01-1.36,0-2.72,0-4
			c3.63-0.73,6.89-2.38,9.78-4.88c3.57-3.08,6-6.92,7.34-11.43c0.61-2.06,1.09-4.16,1.12-6.32
			C202.71,142.85,202.68,140.91,202.68,138.98z"/>
		<path class="st18" d="M192.45,192.54c-8.35,0-16.58,0-24.88,0c0-0.79-0.05-1.56,0.02-2.31c0.07-0.73,0.52-1.12,1.17-1.12
			c7.49-0.01,14.97-0.01,22.46,0c0.76,0,1.21,0.5,1.23,1.37C192.46,191.15,192.45,191.82,192.45,192.54z"/>
		<path class="st18" d="M196.76,198.33c-11.24,0-22.33,0-33.5,0c0-1.33-0.07-2.62,0.02-3.89c0.09-1.23,0.7-1.89,1.58-1.89
			c10.08-0.01,20.16-0.01,30.24,0c1.03,0,1.62,0.85,1.66,2.32C196.78,195.99,196.76,197.12,196.76,198.33z"/>
		<path class="st0" d="M186.86,152.28c-0.14-0.08-0.26-0.16-0.38-0.23c-2.12-1.3-4.24-2.59-6.36-3.89c-0.1-0.06-0.16-0.06-0.26,0
			c-2.19,1.34-4.39,2.68-6.58,4.02c-0.04,0.03-0.08,0.05-0.15,0.09c0.02-0.08,0.03-0.14,0.04-0.2c0.6-2.5,1.19-5,1.79-7.5
			c0.02-0.08,0.01-0.13-0.06-0.19c-1.97-1.68-3.93-3.36-5.89-5.04c-0.04-0.03-0.07-0.06-0.13-0.11c0.3-0.02,0.57-0.05,0.84-0.07
			c0.63-0.05,1.26-0.1,1.89-0.15c0.51-0.04,1.03-0.08,1.54-0.12c0.61-0.05,1.22-0.1,1.83-0.15c0.5-0.04,1-0.08,1.51-0.12
			c0.06-0.01,0.13-0.02,0.19-0.01c0.18,0.02,0.24-0.07,0.31-0.23c0.98-2.36,1.96-4.72,2.94-7.08c0.02-0.04,0.03-0.07,0.06-0.13
			c0.14,0.33,0.27,0.65,0.4,0.96c0.88,2.12,1.77,4.24,2.65,6.37c0.03,0.08,0.07,0.1,0.16,0.11c0.62,0.05,1.24,0.1,1.85,0.15
			c0.51,0.04,1.01,0.08,1.52,0.12c0.62,0.05,1.24,0.1,1.85,0.15c0.51,0.04,1.02,0.08,1.53,0.12c0.37,0.03,0.75,0.06,1.15,0.09
			c-0.09,0.08-0.16,0.14-0.23,0.2c-1.93,1.65-3.86,3.31-5.79,4.96c-0.06,0.05-0.08,0.1-0.06,0.18c0.56,2.35,1.12,4.7,1.69,7.05
			C186.76,151.83,186.81,152.04,186.86,152.28z"/>
		<path class="st18" d="M156.95,137.58c-4.58,0.11-7.97,2.62-8.34,6.57c-0.55,5.79,5.39,14.89,14.14,17.95
			c2.39,0.84,4.2,1.47,4.2,1.47"/>
		<path class="st18" d="M203.5,137.25c4.58,0.11,7.97,2.62,8.34,6.57c0.55,5.79-5.39,14.89-14.14,17.95
			c-2.39,0.84-4.2,1.47-4.2,1.47"/>
		<line class="st30" x1="185.33" y1="103.59" x2="186.79" y2="90.33"/>
		<line class="st30" x1="198.47" y1="106.97" x2="203.3" y2="94.54"/>
		<line class="st30" x1="209.52" y1="113.44" x2="217.54" y2="102.78"/>
		<line class="st30" x1="217.88" y1="122.37" x2="228.25" y2="113.97"/>
		<line class="st30" x1="224.22" y1="133.81" x2="236.51" y2="128.62"/>
		<line class="st30" x1="226.95" y1="145.79" x2="240.25" y2="144.73"/>
		<line class="st30" x1="226.45" y1="158.36" x2="239.64" y2="160.31"/>
		<line class="st30" x1="223.51" y1="170.61" x2="235.68" y2="176.07"/>
		<line class="st30" x1="216.84" y1="181.02" x2="227.4" y2="189.18"/>
		<line class="st30" x1="174.67" y1="103.62" x2="173.21" y2="90.36"/>
		<line class="st30" x1="161.53" y1="107" x2="156.7" y2="94.56"/>
		<line class="st30" x1="150.48" y1="113.47" x2="142.46" y2="102.81"/>
		<line class="st30" x1="142.12" y1="122.4" x2="131.75" y2="114"/>
		<line class="st30" x1="135.78" y1="133.84" x2="123.49" y2="128.65"/>
		<line class="st30" x1="133.05" y1="145.82" x2="119.75" y2="144.76"/>
		<line class="st30" x1="133.55" y1="158.39" x2="120.36" y2="160.34"/>
		<line class="st30" x1="136.49" y1="170.64" x2="124.32" y2="176.1"/>
		<line class="st30" x1="143.16" y1="181.05" x2="132.6" y2="189.21"/>
	</g>
</g>
</svg>
