<?xml version="1.0" encoding="utf-8"?>
<!-- Generator: Adobe Illustrator 23.1.0, SVG Export Plug-In . SVG Version: 6.00 Build 0)  -->
<svg version="1.1" xmlns="http://www.w3.org/2000/svg" xmlns:xlink="http://www.w3.org/1999/xlink" x="0px" y="0px"
	 viewBox="0 0 360 360" style="enable-background:new 0 0 360 360;" xml:space="preserve">
<style type="text/css">
	.st0{fill:#FFFFFF;}
	.st1{fill:#0E6E39;}
	.st2{fill:#0C6E39;}
	.st3{fill:#4F497B;}
	.st4{fill:#216885;}
	.st5{fill:#F0492D;}
	.st6{fill:#EF3F25;}
	.st7{fill:#236886;}
	.st8{fill:#256887;}
	.st9{fill:#D2BF2D;}
	.st10{display:none;}
	.st11{display:inline;fill:none;stroke:#000000;stroke-width:0.25;stroke-miterlimit:10;}
	.st12{display:inline;fill:none;stroke:#FFFFFF;stroke-width:0.25;stroke-miterlimit:10;}
	.st13{display:inline;fill:none;stroke:#FFFFFF;stroke-width:0.25;stroke-linecap:round;stroke-miterlimit:10;}
	.st14{display:inline;fill:none;stroke:#000000;stroke-width:0.25;stroke-linecap:round;stroke-miterlimit:10;}
	.st15{fill:#4F4A7C;}
	.st16{fill:none;stroke:#FFFFFF;stroke-miterlimit:10;}
	.st17{stroke:#FFFFFF;stroke-miterlimit:10;}
	.st18{fill:none;stroke:#FFFFFF;stroke-width:3;stroke-miterlimit:10;}
	.st19{fill:none;stroke:#FFFFFF;stroke-linecap:round;stroke-miterlimit:10;}
	.st20{fill:none;stroke:#236886;stroke-width:5;stroke-miterlimit:10;}
	.st21{fill:none;stroke:#236886;stroke-width:5;stroke-linecap:round;stroke-miterlimit:10;}
	.st22{fill:none;stroke:#FFFFFF;stroke-width:5;stroke-miterlimit:10;}
	.st23{fill:none;stroke:#FFFFFF;stroke-width:5;stroke-linecap:round;stroke-miterlimit:10;}
	.st24{fill:none;stroke:#4F497B;stroke-width:3;stroke-miterlimit:10;}
	.st25{fill:none;stroke:#4F497B;stroke-miterlimit:10;}
	.st26{fill:#FFFFFF;stroke:#4F497B;stroke-miterlimit:10;}
	.st27{fill:#FFFFFF;stroke:#4F497B;stroke-width:2;stroke-miterlimit:10;}
	.st28{fill:none;stroke:#4F497B;stroke-width:2;stroke-linecap:round;stroke-miterlimit:10;}
	.st29{stroke:#FFFFFF;stroke-width:2;stroke-miterlimit:10;}
	.st30{fill:none;stroke:#FFFFFF;stroke-width:2;stroke-linecap:round;stroke-miterlimit:10;}
	.st31{fill:none;stroke:#0C6E39;stroke-width:3;stroke-miterlimit:10;}
	.st32{fill:none;stroke:#EF3F25;stroke-miterlimit:10;}
	.st33{fill:none;stroke:#EF3F25;stroke-width:3;stroke-miterlimit:10;}
	.st34{fill:none;stroke:#4F4A7C;stroke-width:3;stroke-miterlimit:10;}
	.st35{fill:none;stroke:#4F4A7C;stroke-width:5;stroke-linecap:round;stroke-miterlimit:10;}
	.st36{fill:none;stroke:#EF3F25;stroke-width:3;stroke-linecap:round;stroke-miterlimit:10;}
	.st37{fill:none;stroke:#EF3F25;stroke-width:5;stroke-linecap:round;stroke-miterlimit:10;}
	.st38{fill:none;stroke:#FFFFFF;stroke-width:3;stroke-linecap:round;stroke-miterlimit:10;}
	.st39{fill:none;stroke:#4F497B;stroke-width:5;stroke-linecap:round;stroke-miterlimit:10;}
	.st40{fill:#FFFFFF;stroke:#0E6E39;stroke-width:3;stroke-linejoin:round;stroke-miterlimit:10;}
	.st41{fill:none;stroke:#0E6E39;stroke-width:3;stroke-linejoin:round;stroke-miterlimit:10;}
	.st42{stroke:#FFFFFF;stroke-width:3;stroke-linejoin:round;stroke-miterlimit:10;}
	.st43{fill:none;stroke:#FFFFFF;stroke-width:3;stroke-linejoin:round;stroke-miterlimit:10;}
	.st44{fill:none;stroke:#0C6E39;stroke-width:5;stroke-linecap:round;stroke-miterlimit:10;}
	.st45{fill:none;stroke:#0C6E39;stroke-width:3;stroke-linecap:round;stroke-miterlimit:10;}
	.st46{fill:none;stroke:#0C6E39;stroke-linecap:round;stroke-linejoin:round;stroke-miterlimit:10;}
	.st47{fill:#0C6E39;stroke:#0C6E39;stroke-width:0;stroke-miterlimit:10;}
	.st48{fill:none;stroke:#0C6E39;stroke-width:3;stroke-linecap:round;stroke-linejoin:round;stroke-miterlimit:10;}
	.st49{fill:none;stroke:#0C6E39;stroke-linecap:round;stroke-miterlimit:10;}
	.st50{fill:none;stroke:#FFFFFF;stroke-linecap:round;stroke-linejoin:round;stroke-miterlimit:10;}
	.st51{fill:none;stroke:#FFFFFF;stroke-width:3;stroke-linecap:round;stroke-linejoin:round;stroke-miterlimit:10;}
	.st52{fill:none;stroke:#4F4A7C;stroke-miterlimit:10;}
	.st53{fill:#FFFFFF;stroke:#4F4A7C;stroke-width:2;stroke-miterlimit:10;}
	.st54{fill:#FFFFFF;stroke:#4F497B;stroke-width:5;stroke-miterlimit:10;}
	.st55{stroke:#FFFFFF;stroke-width:5;stroke-miterlimit:10;}
	.st56{fill:none;stroke:#EF3F25;stroke-width:2;stroke-linecap:round;stroke-miterlimit:10;}
	.st57{fill:none;stroke:#FFFFFF;stroke-width:1.5;stroke-miterlimit:10;}
	.st58{fill:none;stroke:#FFFFFF;stroke-width:1.5;stroke-linecap:round;stroke-miterlimit:10;}
	.st59{fill:none;stroke:#0E6E39;stroke-width:3;stroke-miterlimit:10;}
	.st60{fill:none;stroke:#0E6E39;stroke-width:1.5;stroke-miterlimit:10;}
	.st61{fill:none;stroke:#0E6E39;stroke-width:1.5;stroke-linecap:round;stroke-miterlimit:10;}
	.st62{fill:none;stroke:#EF3F25;stroke-width:0.7099;stroke-miterlimit:10;}
	.st63{fill:none;stroke:#FFFFFF;stroke-width:0.7099;stroke-miterlimit:10;}
	.st64{fill:#EF4025;}
	.st65{fill:#505050;stroke:#4F4A7C;stroke-width:2.9281;stroke-miterlimit:10;}
	.st66{fill:#FFFFFF;stroke:#FFFFFF;stroke-width:2.9281;stroke-miterlimit:10;}
	.st67{fill:none;stroke:#FFFFFF;stroke-width:3.2577;stroke-miterlimit:10;}
	.st68{fill:none;stroke:#FFFFFF;stroke-width:3.2577;stroke-linecap:round;stroke-linejoin:round;stroke-miterlimit:10;}
	.st69{fill:none;stroke:#256887;stroke-width:3.2577;stroke-miterlimit:10;}
	.st70{fill:none;stroke:#256887;stroke-width:3.2577;stroke-linecap:round;stroke-linejoin:round;stroke-miterlimit:10;}
	.st71{fill:#FFFFFF;stroke:#FFFFFF;stroke-width:2;stroke-miterlimit:10;}
	.st72{fill:#D2BF2D;stroke:#D2BF2D;stroke-width:2;stroke-miterlimit:10;}
	.st73{fill:#086E38;}
	.st74{fill:#256887;stroke:#256887;stroke-width:4;stroke-miterlimit:10;}
	.st75{fill:#FFFFFF;stroke:#FFFFFF;stroke-width:4;stroke-miterlimit:10;}
	.st76{fill:#4F4B7D;}
	.st77{fill:#256887;stroke:#256887;stroke-width:2.8997;stroke-miterlimit:10;}
	.st78{fill:#FFFFFF;stroke:#FFFFFF;stroke-width:2.8997;stroke-miterlimit:10;}
	.st79{fill:none;stroke:#FFFFFF;stroke-width:2.2399;stroke-miterlimit:10;}
	.st80{fill:none;stroke:#FFFFFF;stroke-width:2;stroke-miterlimit:10;}
	.st81{fill:none;stroke:#FFFFFF;stroke-width:1.4254;stroke-miterlimit:10;}
	.st82{fill:none;stroke:#EF4025;stroke-width:2.2399;stroke-miterlimit:10;}
	.st83{fill:none;stroke:#EF4025;stroke-width:2;stroke-miterlimit:10;}
	.st84{fill:none;stroke:#EF4025;stroke-width:1.4254;stroke-miterlimit:10;}
	.st85{fill:none;stroke:#4F497B;stroke-linecap:round;stroke-miterlimit:10;}
</style>
<g id="White">
	<rect x="0" class="st0" width="360.29" height="360.29"/>
</g>
<g id="BACKGROUND">
	<rect y="336.06" class="st6" width="360" height="23.94"/>
	<g>
		<path class="st0" d="M208.83,344.09h1.8v3.32h3.18v-3.32h1.8v8.4h-1.8v-3.56h-3.18v3.56h-1.8V344.09z"/>
		<path class="st0" d="M218.78,352.49v-8.4h5.72v1.49h-3.95v1.85h3.67v1.49h-3.67V351h4.01v1.49H218.78z"/>
		<path class="st0" d="M234.64,352.49h-1.86l-0.67-1.94h-3.01l-0.67,1.94h-1.76l3.02-8.4h1.93L234.64,352.49z M230.59,346.06
			c-0.02,0.06-0.04,0.16-0.08,0.28c-0.04,0.13-0.08,0.26-0.13,0.42c-0.05,0.16-0.1,0.32-0.16,0.5c-0.06,0.18-0.12,0.35-0.17,0.52
			c-0.14,0.42-0.28,0.86-0.44,1.33h2.03c-0.16-0.47-0.31-0.92-0.44-1.33c-0.09-0.24-0.16-0.44-0.21-0.59
			c-0.05-0.16-0.1-0.31-0.14-0.45c-0.04-0.14-0.09-0.28-0.13-0.4c-0.04-0.12-0.07-0.22-0.08-0.28H230.59z"/>
		<path class="st0" d="M237.13,344.09h1.8v6.9h3.67v1.5h-5.47V344.09z"/>
		<path class="st0" d="M243.34,344.09H250v1.5h-2.42v6.9h-1.81v-6.9h-2.42V344.09z"/>
		<path class="st0" d="M252.54,344.09h1.8v3.32h3.18v-3.32h1.8v8.4h-1.8v-3.56h-3.18v3.56h-1.8V344.09z"/>
		<path class="st0" d="M262.13,348.29c0-0.69,0.1-1.3,0.29-1.84c0.19-0.54,0.47-1,0.82-1.37c0.36-0.38,0.79-0.66,1.3-0.86
			c0.51-0.2,1.08-0.29,1.71-0.29c0.9,0,1.65,0.2,2.26,0.59c0.61,0.39,1.04,0.99,1.3,1.79l-1.75,0.61c-0.14-0.47-0.36-0.84-0.65-1.1
			s-0.68-0.39-1.19-0.39c-0.37,0-0.69,0.07-0.97,0.22c-0.28,0.14-0.51,0.34-0.7,0.59c-0.18,0.25-0.32,0.55-0.41,0.91
			c-0.09,0.35-0.14,0.74-0.14,1.15s0.05,0.8,0.14,1.15c0.09,0.35,0.23,0.65,0.41,0.91c0.18,0.26,0.42,0.46,0.7,0.6
			c0.28,0.14,0.61,0.22,0.98,0.22c0.46,0,0.84-0.12,1.13-0.35c0.29-0.23,0.51-0.58,0.67-1.06l1.73,0.61
			c-0.28,0.71-0.71,1.27-1.3,1.68c-0.58,0.41-1.34,0.61-2.26,0.61c-0.62,0-1.17-0.1-1.67-0.29s-0.93-0.48-1.28-0.85
			c-0.36-0.37-0.63-0.83-0.82-1.37C262.23,349.59,262.13,348.98,262.13,348.29z"/>
		<path class="st0" d="M279.74,352.49h-1.86l-0.67-1.94h-3.01l-0.67,1.94h-1.76l3.02-8.4h1.93L279.74,352.49z M275.68,346.06
			c-0.02,0.06-0.04,0.16-0.08,0.28c-0.04,0.13-0.08,0.26-0.13,0.42c-0.05,0.16-0.1,0.32-0.16,0.5c-0.06,0.18-0.12,0.35-0.17,0.52
			c-0.14,0.42-0.28,0.86-0.44,1.33h2.03c-0.16-0.47-0.31-0.92-0.44-1.33c-0.09-0.24-0.16-0.44-0.21-0.59
			c-0.05-0.16-0.1-0.31-0.14-0.45c-0.04-0.14-0.09-0.28-0.13-0.4c-0.04-0.12-0.07-0.22-0.08-0.28H275.68z"/>
		<path class="st0" d="M288.51,346.64c0,0.62-0.14,1.13-0.43,1.52c-0.28,0.39-0.67,0.68-1.17,0.88l1.93,3.44h-1.98l-1.74-3.18h-1.12
			v3.18h-1.79v-8.4h3.07c0.49,0,0.93,0.05,1.33,0.15c0.4,0.1,0.73,0.25,1.01,0.46c0.28,0.21,0.5,0.47,0.65,0.79
			C288.43,345.81,288.51,346.2,288.51,346.64z M286.66,346.66c0-0.41-0.13-0.69-0.39-0.85c-0.26-0.16-0.65-0.23-1.18-0.23h-1.08
			v2.27h1.08c0.53,0,0.92-0.09,1.18-0.27S286.66,347.09,286.66,346.66z"/>
		<path class="st0" d="M291.53,352.49v-8.4h5.72v1.49h-3.95v1.85h3.67v1.49h-3.67V351h4.01v1.49H291.53z"/>
		<path class="st0" d="M307.82,352.49c-0.12-0.33-0.27-0.76-0.45-1.29c-0.18-0.53-0.37-1.09-0.56-1.66
			c-0.19-0.58-0.38-1.14-0.56-1.69c-0.18-0.55-0.33-1.02-0.44-1.39h-0.04v6.04h-1.66v-8.4h2.52c0.34,1.02,0.66,1.96,0.94,2.82
			c0.17,0.51,0.31,0.93,0.41,1.24c0.11,0.32,0.21,0.62,0.3,0.91s0.18,0.55,0.25,0.78c0.08,0.23,0.13,0.4,0.16,0.5
			c0.03-0.1,0.08-0.27,0.16-0.5c0.07-0.23,0.16-0.51,0.26-0.82c0.1-0.32,0.21-0.66,0.32-1.02c0.12-0.36,0.23-0.73,0.35-1.09
			c0.27-0.86,0.57-1.8,0.9-2.82h2.51v8.4h-1.66v-6.04h-0.04c-0.08,0.25-0.18,0.55-0.29,0.89c-0.11,0.35-0.23,0.72-0.37,1.11
			c-0.13,0.39-0.27,0.79-0.4,1.19c-0.14,0.4-0.26,0.79-0.38,1.15c-0.12,0.36-0.23,0.69-0.33,0.99c-0.1,0.3-0.18,0.53-0.25,0.7
			H307.82z"/>
		<path class="st0" d="M316.03,348.29c0-0.68,0.1-1.29,0.29-1.83c0.2-0.54,0.47-1,0.83-1.37c0.36-0.38,0.79-0.66,1.29-0.86
			c0.5-0.2,1.06-0.3,1.68-0.3c0.62,0,1.18,0.1,1.68,0.3c0.5,0.2,0.93,0.49,1.29,0.86c0.36,0.38,0.63,0.83,0.83,1.37
			c0.2,0.54,0.29,1.15,0.29,1.83c0,0.68-0.1,1.29-0.29,1.83c-0.2,0.54-0.47,1-0.83,1.37c-0.36,0.38-0.79,0.66-1.29,0.86
			s-1.06,0.3-1.68,0.3c-0.62,0-1.18-0.1-1.68-0.3s-0.93-0.49-1.29-0.86c-0.36-0.38-0.63-0.83-0.83-1.37
			C316.12,349.58,316.03,348.97,316.03,348.29z M317.89,348.29c0,0.42,0.05,0.81,0.14,1.17c0.09,0.36,0.23,0.66,0.41,0.91
			c0.18,0.25,0.42,0.45,0.7,0.59c0.28,0.14,0.61,0.21,0.98,0.21c0.38,0,0.7-0.07,0.98-0.21c0.28-0.14,0.51-0.34,0.7-0.59
			c0.18-0.25,0.32-0.56,0.41-0.91c0.09-0.36,0.14-0.75,0.14-1.17c0-0.42-0.05-0.81-0.14-1.17c-0.09-0.36-0.23-0.66-0.41-0.91
			c-0.18-0.25-0.42-0.45-0.7-0.59c-0.28-0.14-0.61-0.21-0.98-0.21c-0.38,0-0.7,0.07-0.98,0.21c-0.28,0.14-0.51,0.34-0.7,0.59
			c-0.18,0.25-0.32,0.56-0.41,0.91C317.93,347.47,317.89,347.86,317.89,348.29z"/>
		<path class="st0" d="M327.03,344.09h3.13c0.64,0,1.22,0.09,1.73,0.28c0.51,0.19,0.94,0.46,1.3,0.82c0.35,0.36,0.62,0.79,0.81,1.31
			c0.19,0.52,0.28,1.12,0.28,1.79s-0.09,1.27-0.28,1.79c-0.19,0.52-0.46,0.96-0.81,1.31c-0.35,0.36-0.78,0.63-1.3,0.82
			c-0.51,0.19-1.09,0.28-1.73,0.28h-3.13V344.09z M332.42,348.29c0-0.41-0.05-0.78-0.14-1.11c-0.09-0.33-0.23-0.62-0.42-0.86
			c-0.19-0.24-0.43-0.42-0.71-0.55c-0.29-0.13-0.63-0.19-1.03-0.19h-1.27V351h1.27c0.4,0,0.74-0.06,1.03-0.19
			c0.29-0.13,0.53-0.31,0.71-0.55c0.19-0.24,0.33-0.53,0.42-0.86C332.37,349.07,332.42,348.7,332.42,348.29z"/>
		<path class="st0" d="M337.1,352.49v-8.4h5.72v1.49h-3.95v1.85h3.67v1.49h-3.67V351h4.01v1.49H337.1z"/>
		<path class="st0" d="M345.67,344.09h1.8v6.9h3.67v1.5h-5.47V344.09z"/>
	</g>
</g>
<g id="REF" class="st10">
	<rect x="10" y="90.33" class="st11" width="360" height="108"/>
	<line class="st14" x1="190" y1="0.19" x2="190" y2="360.06"/>
</g>
<g id="LINE_ONE">
	<g>
		<path class="st6" d="M83.67,234.16h3v14h-3V234.16z"/>
		<path class="st6" d="M91.95,234.16h3.12c0.81,1.32,1.59,2.57,2.32,3.76c0.44,0.71,0.8,1.29,1.08,1.75s0.56,0.92,0.84,1.37
			s0.55,0.88,0.8,1.29c0.25,0.41,0.47,0.75,0.64,1.03h0.06v-9.2h2.84v14h-3.12c-0.8-1.29-1.56-2.53-2.28-3.7
			c-0.43-0.69-0.78-1.27-1.07-1.73s-0.57-0.92-0.85-1.38c-0.28-0.46-0.55-0.9-0.81-1.32s-0.48-0.78-0.67-1.07h-0.06v9.2h-2.84
			V234.16z"/>
		<path class="st6" d="M107.87,234.16h11.1v2.5h-4.04v11.5h-3.02v-11.5h-4.04V234.16z"/>
		<path class="st6" d="M123.19,248.16v-14h9.54v2.48h-6.58v3.08h6.12v2.48h-6.12v3.48h6.68v2.48H123.19z"/>
		<path class="st6" d="M143.19,240.4h6.44v7.76h-2.72v-1.44c-0.31,0.48-0.76,0.89-1.36,1.22c-0.6,0.33-1.38,0.5-2.34,0.5
			c-1.04,0-1.96-0.19-2.75-0.57s-1.45-0.9-1.98-1.55s-0.92-1.42-1.19-2.3s-0.4-1.82-0.4-2.82c0-1.08,0.16-2.07,0.47-2.96
			c0.31-0.89,0.77-1.66,1.37-2.31c0.6-0.65,1.33-1.15,2.19-1.51c0.86-0.36,1.84-0.54,2.93-0.54c1.41,0,2.62,0.31,3.62,0.93
			c1,0.62,1.75,1.54,2.26,2.75l-2.78,1.14c-0.27-0.75-0.67-1.32-1.22-1.73c-0.55-0.41-1.21-0.61-2-0.61c-1.13,0-2.04,0.42-2.72,1.25
			c-0.68,0.83-1.02,2.06-1.02,3.69c0,3.12,1.23,4.68,3.7,4.68c0.36,0,0.72-0.05,1.08-0.15c0.36-0.1,0.69-0.25,0.99-0.46
			c0.3-0.21,0.54-0.47,0.73-0.79s0.28-0.71,0.28-1.16v-0.64h-3.58V240.4z"/>
		<path class="st6" d="M165.33,238.42c0,1.04-0.24,1.89-0.71,2.54c-0.47,0.65-1.12,1.14-1.95,1.46l3.22,5.74h-3.3l-2.9-5.3h-1.86
			v5.3h-2.98v-14h5.12c0.81,0,1.55,0.08,2.21,0.25s1.22,0.42,1.69,0.77c0.47,0.35,0.83,0.79,1.08,1.32
			C165.2,237.03,165.33,237.67,165.33,238.42z M162.25,238.44c0-0.68-0.22-1.15-0.65-1.41c-0.43-0.26-1.09-0.39-1.97-0.39h-1.8v3.78
			h1.8c0.88,0,1.54-0.15,1.97-0.45C162.03,239.67,162.25,239.16,162.25,238.44z"/>
		<path class="st6" d="M182.53,248.16h-3.1l-1.12-3.24h-5.02l-1.12,3.24h-2.94l5.04-14h3.22L182.53,248.16z M175.77,237.44
			c-0.03,0.11-0.07,0.26-0.14,0.47s-0.14,0.44-0.22,0.7s-0.17,0.54-0.27,0.84s-0.2,0.59-0.29,0.87c-0.23,0.69-0.47,1.43-0.74,2.22
			h3.38c-0.27-0.79-0.51-1.53-0.74-2.22c-0.15-0.4-0.26-0.73-0.35-0.99c-0.09-0.26-0.17-0.51-0.24-0.75
			c-0.07-0.24-0.14-0.46-0.21-0.67c-0.07-0.21-0.11-0.36-0.14-0.47H175.77z"/>
		<path class="st6" d="M184.01,234.16h11.1v2.5h-4.04v11.5h-3.02v-11.5h-4.04V234.16z"/>
		<path class="st6" d="M199.33,234.16h3v14h-3V234.16z"/>
		<path class="st6" d="M207.03,241.16c0-1.13,0.16-2.15,0.49-3.05c0.33-0.9,0.79-1.66,1.38-2.29s1.31-1.11,2.15-1.44
			c0.84-0.33,1.77-0.5,2.8-0.5c1.03,0,1.96,0.17,2.8,0.5c0.84,0.33,1.56,0.81,2.15,1.44c0.59,0.63,1.05,1.39,1.38,2.29
			c0.33,0.9,0.49,1.92,0.49,3.05c0,1.13-0.16,2.15-0.49,3.05c-0.33,0.9-0.79,1.66-1.38,2.29c-0.59,0.63-1.31,1.11-2.15,1.44
			s-1.77,0.5-2.8,0.5c-1.03,0-1.96-0.17-2.8-0.5s-1.56-0.81-2.15-1.44c-0.59-0.63-1.05-1.39-1.38-2.29
			C207.19,243.31,207.03,242.29,207.03,241.16z M210.13,241.16c0,0.71,0.08,1.36,0.23,1.95c0.15,0.59,0.38,1.1,0.69,1.52
			s0.69,0.75,1.16,0.98s1.01,0.35,1.64,0.35s1.17-0.12,1.64-0.35s0.85-0.56,1.16-0.98s0.54-0.93,0.69-1.52
			c0.15-0.59,0.23-1.24,0.23-1.95s-0.08-1.36-0.23-1.95c-0.15-0.59-0.38-1.1-0.69-1.52s-0.69-0.75-1.16-0.98s-1.01-0.35-1.64-0.35
			s-1.17,0.12-1.64,0.35s-0.85,0.56-1.16,0.98s-0.54,0.93-0.69,1.52C210.2,239.8,210.13,240.45,210.13,241.16z"/>
		<path class="st6" d="M225.37,234.16h3.12c0.81,1.32,1.59,2.57,2.32,3.76c0.44,0.71,0.8,1.29,1.08,1.75
			c0.28,0.46,0.56,0.92,0.84,1.37c0.28,0.45,0.55,0.88,0.8,1.29c0.25,0.41,0.47,0.75,0.64,1.03h0.06v-9.2h2.84v14h-3.12
			c-0.8-1.29-1.56-2.53-2.28-3.7c-0.43-0.69-0.78-1.27-1.07-1.73s-0.57-0.92-0.85-1.38s-0.55-0.9-0.81-1.32s-0.48-0.78-0.67-1.07
			h-0.06v9.2h-2.84V234.16z"/>
		<path class="st6" d="M248.47,241.16c0-1.13,0.16-2.15,0.49-3.05c0.33-0.9,0.79-1.66,1.38-2.29s1.31-1.11,2.15-1.44
			c0.84-0.33,1.77-0.5,2.8-0.5c1.03,0,1.96,0.17,2.8,0.5c0.84,0.33,1.56,0.81,2.15,1.44c0.59,0.63,1.05,1.39,1.38,2.29
			c0.33,0.9,0.49,1.92,0.49,3.05c0,1.13-0.16,2.15-0.49,3.05c-0.33,0.9-0.79,1.66-1.38,2.29c-0.59,0.63-1.31,1.11-2.15,1.44
			s-1.77,0.5-2.8,0.5c-1.03,0-1.96-0.17-2.8-0.5s-1.56-0.81-2.15-1.44c-0.59-0.63-1.05-1.39-1.38-2.29
			C248.63,243.31,248.47,242.29,248.47,241.16z M251.57,241.16c0,0.71,0.08,1.36,0.23,1.95c0.15,0.59,0.38,1.1,0.69,1.52
			s0.69,0.75,1.16,0.98s1.01,0.35,1.64,0.35s1.17-0.12,1.64-0.35s0.85-0.56,1.16-0.98s0.54-0.93,0.69-1.52
			c0.15-0.59,0.23-1.24,0.23-1.95s-0.08-1.36-0.23-1.95c-0.15-0.59-0.38-1.1-0.69-1.52s-0.69-0.75-1.16-0.98s-1.01-0.35-1.64-0.35
			s-1.17,0.12-1.64,0.35s-0.85,0.56-1.16,0.98s-0.54,0.93-0.69,1.52C251.64,239.8,251.57,240.45,251.57,241.16z"/>
		<path class="st6" d="M266.81,248.16v-14h9.58v2.48h-6.62v3.08h6.1v2.48h-6.1v5.96H266.81z"/>
	</g>
</g>
<g id="LINE_TWO">
	<g>
		<path class="st6" d="M114.29,265.94v-14h9.54v2.48h-6.58v3.08h6.12v2.48h-6.12v3.48h6.68v2.48H114.29z"/>
		<path class="st6" d="M128.57,251.94h5.22c1.07,0,2.03,0.16,2.88,0.47c0.85,0.31,1.57,0.77,2.16,1.36
			c0.59,0.59,1.04,1.32,1.35,2.19c0.31,0.87,0.47,1.86,0.47,2.98s-0.16,2.11-0.47,2.98c-0.31,0.87-0.76,1.6-1.35,2.19
			c-0.59,0.59-1.31,1.05-2.16,1.36c-0.85,0.31-1.81,0.47-2.88,0.47h-5.22V251.94z M137.55,258.94c0-0.68-0.08-1.3-0.23-1.85
			c-0.15-0.55-0.39-1.03-0.7-1.43c-0.31-0.4-0.71-0.71-1.19-0.92c-0.48-0.21-1.05-0.32-1.72-0.32h-2.12v9.04h2.12
			c0.67,0,1.24-0.11,1.72-0.32s0.88-0.52,1.19-0.92c0.31-0.4,0.55-0.88,0.7-1.43C137.47,260.24,137.55,259.62,137.55,258.94z"/>
		<path class="st6" d="M150.87,266.23c-1.95,0-3.37-0.48-4.26-1.44c-0.89-0.96-1.34-2.29-1.34-4v-8.84h3v8.86
			c0,0.85,0.21,1.56,0.64,2.11c0.43,0.55,1.08,0.83,1.96,0.83c0.88,0,1.53-0.28,1.96-0.83c0.43-0.55,0.64-1.26,0.64-2.11v-8.86h3
			v8.84c0,1.71-0.45,3.04-1.34,4C154.23,265.74,152.81,266.23,150.87,266.23z"/>
		<path class="st6" d="M161.09,258.94c0-1.15,0.16-2.17,0.48-3.07c0.32-0.9,0.78-1.66,1.37-2.29c0.59-0.63,1.31-1.1,2.16-1.43
			c0.85-0.33,1.8-0.49,2.85-0.49c1.49,0,2.75,0.33,3.76,0.98s1.73,1.65,2.16,2.98l-2.92,1.02c-0.24-0.79-0.6-1.4-1.08-1.83
			s-1.14-0.65-1.98-0.65c-0.61,0-1.15,0.12-1.62,0.36c-0.47,0.24-0.85,0.57-1.16,0.99s-0.54,0.92-0.69,1.51s-0.23,1.23-0.23,1.92
			s0.08,1.33,0.23,1.91s0.38,1.08,0.69,1.51s0.69,0.76,1.16,1c0.47,0.24,1.01,0.36,1.64,0.36c0.77,0,1.4-0.19,1.89-0.58
			s0.86-0.97,1.11-1.76l2.88,1.02c-0.47,1.19-1.19,2.12-2.16,2.8c-0.97,0.68-2.23,1.02-3.76,1.02c-1.03,0-1.96-0.16-2.79-0.49
			s-1.55-0.8-2.14-1.42c-0.59-0.62-1.05-1.38-1.37-2.29C161.25,261.12,161.09,260.09,161.09,258.94z"/>
		<path class="st6" d="M190.43,265.94h-3.1l-1.12-3.24h-5.02l-1.12,3.24h-2.94l5.04-14h3.22L190.43,265.94z M183.67,255.23
			c-0.03,0.11-0.07,0.26-0.14,0.47c-0.07,0.21-0.14,0.44-0.22,0.7s-0.17,0.54-0.27,0.84s-0.2,0.59-0.29,0.87
			c-0.23,0.69-0.47,1.43-0.74,2.22h3.38c-0.27-0.79-0.51-1.53-0.74-2.22c-0.15-0.4-0.26-0.73-0.35-0.99
			c-0.09-0.26-0.17-0.51-0.24-0.75c-0.07-0.24-0.14-0.46-0.21-0.67c-0.07-0.21-0.11-0.36-0.14-0.47H183.67z"/>
		<path class="st6" d="M191.91,251.94h11.1v2.5h-4.04v11.5h-3.02v-11.5h-4.04V251.94z"/>
		<path class="st6" d="M207.23,251.94h3v14h-3V251.94z"/>
		<path class="st6" d="M214.93,258.94c0-1.13,0.16-2.15,0.49-3.05c0.33-0.9,0.79-1.66,1.38-2.29c0.59-0.63,1.31-1.11,2.15-1.44
			c0.84-0.33,1.77-0.5,2.8-0.5s1.96,0.17,2.8,0.5c0.84,0.33,1.55,0.81,2.15,1.44s1.05,1.39,1.38,2.29c0.33,0.9,0.49,1.92,0.49,3.05
			c0,1.13-0.16,2.15-0.49,3.05c-0.33,0.9-0.79,1.66-1.38,2.29c-0.59,0.63-1.31,1.11-2.15,1.44c-0.84,0.33-1.77,0.5-2.8,0.5
			s-1.96-0.17-2.8-0.5s-1.56-0.81-2.15-1.44c-0.59-0.63-1.05-1.39-1.38-2.29C215.09,261.1,214.93,260.08,214.93,258.94z
			 M218.02,258.94c0,0.71,0.08,1.36,0.23,1.95c0.15,0.59,0.38,1.1,0.69,1.52s0.69,0.75,1.16,0.98s1.01,0.35,1.64,0.35
			s1.17-0.12,1.64-0.35c0.46-0.23,0.85-0.56,1.16-0.98c0.3-0.42,0.54-0.93,0.69-1.52c0.15-0.59,0.23-1.24,0.23-1.95
			s-0.08-1.36-0.23-1.95c-0.15-0.59-0.38-1.1-0.69-1.52c-0.31-0.42-0.7-0.75-1.16-0.98c-0.47-0.23-1.01-0.35-1.64-0.35
			s-1.17,0.12-1.64,0.35s-0.85,0.56-1.16,0.98s-0.54,0.93-0.69,1.52C218.1,257.59,218.02,258.24,218.02,258.94z"/>
		<path class="st6" d="M233.27,251.94h3.12c0.81,1.32,1.59,2.57,2.32,3.76c0.44,0.71,0.8,1.29,1.08,1.75
			c0.28,0.46,0.56,0.92,0.84,1.37c0.28,0.45,0.55,0.88,0.8,1.29c0.25,0.41,0.47,0.75,0.64,1.03h0.06v-9.2h2.84v14h-3.12
			c-0.8-1.29-1.56-2.53-2.28-3.7c-0.43-0.69-0.78-1.27-1.07-1.73s-0.57-0.92-0.85-1.38c-0.28-0.46-0.55-0.9-0.81-1.32
			s-0.48-0.78-0.67-1.07h-0.06v9.2h-2.84V251.94z"/>
	</g>
</g>
<g id="ICON">
	<g>
		<path class="st64" d="M195.51,190.72c11.42-7.85,24.2-10.71,37.82-11.06c7.34-0.19,12.37-6.17,12.39-13.94
			c0.05-15.59,0.02-31.17,0.02-46.76c0-1.75,0-3.5,0-5.36c3.99-1.28,5.49-0.16,5.47,3.95c-0.11,21.76-0.01,43.52-0.05,65.28
			c-0.02,7.52-3.51,11.18-11,11.25c-13.82,0.14-27.64-0.03-41.46,0.17c-2.1,0.03-4.17,1.4-6.27,2.11c-1.9,0.65-3.78,1.68-5.72,1.79
			c-4.54,0.27-9.11,0.18-13.67,0.03c-1.55-0.05-3.68-0.22-4.52-1.2c-2.72-3.22-6.16-2.8-9.67-2.8c-12.64,0.03-25.29,0.01-37.93-0.01
			c-8.41-0.01-12.05-3.65-12.05-12.06c-0.01-21.47,0.05-42.93-0.05-64.4c-0.02-3.54,0.9-5.42,5.49-4.32c0,1.37,0,2.92,0,4.46
			c0,15.73-0.01,31.47,0.01,47.2c0.01,9.14,5.25,14.48,14.37,14.72c13.43,0.35,22.04,2.91,36.74,10.03
			c-0.87-1.2-1.51-2.72-2.65-3.55c-7.54-5.5-16.23-7.99-25.36-9.11c-3.64-0.44-7.32-0.55-10.98-0.83c-4.95-0.38-8.63-3.78-8.66-8.81
			c-0.15-22.2-0.12-44.4-0.02-66.6c0-1.03,1.35-2.05,2.07-3.07c0.52,1.19,1.5,2.38,1.51,3.58c0.09,20.58,0.07,41.17,0.07,61.75
			c0,7.69,1.65,9.39,9.17,9.54c12.9,0.26,24.91,3.31,35.66,10.82c1.29,0.9,3.58,0.36,5.5-0.07c-7.25-7.34-16.17-11.09-25.74-13.27
			c-4.97-1.13-10.14-1.64-15.24-1.82c-3.88-0.13-5.05-1.57-5.03-5.32c0.12-22.5,0.18-44.99-0.05-67.49
			c-0.05-4.69,1.99-5.39,5.84-5.21c17.89,0.81,33.98,6.05,47.2,18.64c0.41,0.39,0.91,0.67,1.46,1.07
			c13.53-13.3,30.02-19.03,48.62-19.71c4.15-0.15,5.64,0.98,5.59,5.41c-0.21,22.35-0.19,44.7-0.01,67.05
			c0.03,4.37-1.63,5.44-5.71,5.54c-15.06,0.36-28.8,4.74-40.71,14.38c2.68,2.27,4.8,1.88,7.48-0.06c9.59-6.95,20.67-9.49,32.29-9.93
			c9.91-0.38,10.93-1.33,10.93-11.39c0-19.56,0-39.11,0.01-58.67c0-1.17-0.06-2.38,0.2-3.5c0.12-0.54,1-1.35,1.41-1.28
			c0.7,0.12,1.62,0.71,1.85,1.33c0.34,0.91,0.2,2.02,0.2,3.04c0.01,21.03,0.03,42.05,0.02,63.08c-0.01,7.62-3.29,10.71-11.01,11.04
			c-12.15,0.52-23.95,2.48-34.12,9.85c-1.17,0.85-1.96,2.24-2.92,3.38C194.68,189.99,195.09,190.36,195.51,190.72z M228.71,95.81
			c-16.4,0.89-31.09,5.27-42.95,16.75c-1.65,1.59-2.83,4.5-2.86,6.81c-0.23,18.51-0.13,37.03-0.11,55.55c0,1.35,0.19,2.69,0.34,4.69
			c13.5-11.58,28.87-16.05,45.58-16.98C228.71,140.26,228.71,118.29,228.71,95.81z M131.22,161.71c8.43,1.9,16.51,2.92,23.98,5.64
			c7.57,2.76,14.53,7.19,21.79,10.91c-0.01,0.07,0.17-0.46,0.17-0.99c0.01-19.84,0.06-39.68-0.08-59.51
			c-0.01-1.53-0.95-3.38-2.05-4.51c-6.56-6.8-14.59-11.25-23.59-13.96c-6.53-1.97-13.11-3.75-20.23-3.22
			C131.22,118.39,131.22,140.24,131.22,161.71z"/>
		<path class="st0" d="M228.71,95.81c0,22.48,0,44.45,0,66.82c-16.71,0.93-32.07,5.4-45.58,16.98c-0.15-2-0.34-3.35-0.34-4.69
			c-0.02-18.52-0.11-37.03,0.11-55.55c0.03-2.31,1.21-5.22,2.86-6.81C197.62,101.08,212.32,96.7,228.71,95.81z M219.19,111.68
			c-11.73,1.72-21.92,4.99-30.7,11.8c-0.72,0.56-0.85,1.87-1.25,2.83c1.13,0.09,2.64,0.7,3.32,0.2c8.44-6.26,18.1-9.27,28.27-11.08
			c1.06-0.19,1.96-1.21,2.94-1.85C220.75,112.82,219.73,112.08,219.19,111.68z M223.09,128.41c-2.16-0.77-3.28-1.6-4.28-1.47
			c-11.08,1.42-21.32,5.17-30.43,11.7c-0.68,0.48-0.7,1.88-1.03,2.85c1,0.11,2.32,0.68,2.95,0.25c8.89-6.1,18.78-9.5,29.3-11.34
			C220.45,130.26,221.2,129.52,223.09,128.41z M185.73,156.06c2.12,0.48,3.47,1.27,4.3,0.9c7.02-3.11,13.96-6.4,20.87-9.75
			c0.68-0.33,0.96-1.47,1.42-2.24c-0.81-0.42-1.76-1.36-2.4-1.18C201.48,146.13,193.43,149.29,185.73,156.06z"/>
		<path class="st0" d="M131.22,161.71c0-21.47,0-43.33,0-65.65c7.12-0.52,13.7,1.26,20.23,3.22c8.99,2.71,17.03,7.16,23.59,13.96
			c1.09,1.13,2.03,2.99,2.05,4.51c0.14,19.84,0.09,39.67,0.08,59.51c0,0.53-0.18,1.06-0.17,0.99c-7.26-3.72-14.22-8.15-21.79-10.91
			C147.73,164.64,139.65,163.62,131.22,161.71z M140.84,111.69c-0.53,0.38-1.56,1.12-2.58,1.85c0.96,0.65,1.85,1.71,2.89,1.89
			c10.18,1.77,19.83,4.77,28.27,11.02c0.69,0.51,2.02,0.14,3.05,0.19c-0.29-1.08-0.22-2.64-0.93-3.18
			C162.74,116.71,152.56,113.4,140.84,111.69z M140.41,141.73c-0.48,0.36-1.31,0.99-2.14,1.61c1.01,0.8,1.93,2.14,3.05,2.33
			c10.21,1.75,19.7,5.2,28.28,11.11c0.65,0.45,1.96-0.04,2.96-0.1c-0.25-0.98-0.18-2.41-0.81-2.87
			C162.61,147.09,152.18,143.62,140.41,141.73z M140.71,126.67c-0.63,0.49-1.55,1.19-2.46,1.9c0.83,0.64,1.58,1.68,2.5,1.85
			c10.31,1.99,20.12,5.18,28.83,11.29c0.65,0.46,1.98-0.06,3-0.13c-0.28-0.97-0.23-2.38-0.88-2.86
			C162.65,132.08,152.34,128.57,140.71,126.67z"/>
		<path class="st64" d="M219.19,111.68c0.54,0.4,1.56,1.14,2.58,1.89c-0.98,0.64-1.88,1.66-2.94,1.85
			c-10.17,1.81-19.83,4.82-28.27,11.08c-0.68,0.51-2.19-0.1-3.32-0.2c0.4-0.96,0.54-2.27,1.25-2.83
			C197.27,116.67,207.46,113.4,219.19,111.68z"/>
		<path class="st64" d="M223.09,128.41c-1.89,1.11-2.64,1.85-3.49,2c-10.52,1.84-20.41,5.24-29.3,11.34
			c-0.63,0.43-1.95-0.14-2.95-0.25c0.33-0.97,0.35-2.37,1.03-2.85c9.12-6.53,19.35-10.28,30.43-11.7
			C219.82,126.81,220.94,127.63,223.09,128.41z"/>
		<path class="st64" d="M185.73,156.06c7.7-6.77,15.75-9.93,24.19-12.28c0.64-0.18,1.6,0.76,2.4,1.18
			c-0.47,0.76-0.75,1.91-1.42,2.24c-6.91,3.36-13.85,6.64-20.87,9.75C189.19,157.33,187.84,156.54,185.73,156.06z"/>
		<path class="st64" d="M140.84,111.69c11.73,1.72,21.9,5.02,30.69,11.77c0.71,0.54,0.64,2.1,0.93,3.18
			c-1.03-0.04-2.37,0.32-3.05-0.19c-8.44-6.25-18.09-9.25-28.27-11.02c-1.04-0.18-1.93-1.24-2.89-1.89
			C139.28,112.81,140.3,112.07,140.84,111.69z"/>
		<path class="st64" d="M140.41,141.73c11.77,1.89,22.21,5.37,31.34,12.08c0.63,0.46,0.55,1.89,0.81,2.87
			c-1,0.05-2.31,0.55-2.96,0.1c-8.57-5.92-18.07-9.36-28.28-11.11c-1.12-0.19-2.04-1.52-3.05-2.33
			C139.1,142.71,139.93,142.09,140.41,141.73z"/>
		<path class="st64" d="M140.71,126.67c11.62,1.9,21.93,5.41,30.98,12.06c0.64,0.47,0.6,1.88,0.88,2.86c-1.02,0.07-2.35,0.59-3,0.13
			c-8.71-6.12-18.51-9.3-28.83-11.29c-0.92-0.18-1.67-1.22-2.5-1.85C139.17,127.86,140.08,127.16,140.71,126.67z"/>
	</g>
</g>
</svg>
