<svg xmlns="http://www.w3.org/2000/svg" viewBox="0 0 360 360"><defs><style>.cls-1{fill:#fff;}.cls-2{fill:#0b6e3a;}.cls-3{fill:#0c6e39;}</style></defs><title>CARD</title><g id="Layer_6" data-name="Layer 6"><rect class="cls-1" x="0.42" y="-0.41" width="360" height="360"/></g><g id="BACKGROUND"><rect class="cls-2" y="336.06" width="360" height="23.94"/><path class="cls-1" d="M207,344.09h3.64a2.91,2.91,0,0,1,1.06.17,2.19,2.19,0,0,1,.77.46,1.86,1.86,0,0,1,.49.69,2.29,2.29,0,0,1,.17.87,2.08,2.08,0,0,1-.11.69,1.73,1.73,0,0,1-.68.89,2,2,0,0,1-.46.24,2,2,0,0,1,.56.15,1.94,1.94,0,0,1,.52.34,1.76,1.76,0,0,1,.39.56,2.05,2.05,0,0,1,.15.83,2.55,2.55,0,0,1-.2,1,2.39,2.39,0,0,1-.57.79,2.72,2.72,0,0,1-.85.53,3.14,3.14,0,0,1-1.08.19H207Zm1.75,1.46v1.95H210a1.74,1.74,0,0,0,1-.22.87.87,0,0,0,.31-.78.88.88,0,0,0-.27-.73,1.42,1.42,0,0,0-.9-.22Zm0,5.47h1.44a1.82,1.82,0,0,0,1.16-.27,1,1,0,0,0,.3-.78.85.85,0,0,0-.37-.82,2.33,2.33,0,0,0-1.11-.21h-1.42Z"/><path class="cls-1" d="M219.57,352.66a3.34,3.34,0,0,1-2.56-.87,3.39,3.39,0,0,1-.8-2.4v-5.3H218v5.31a2,2,0,0,0,.38,1.27,1.64,1.64,0,0,0,2.36,0,2,2,0,0,0,.38-1.27v-5.31h1.8v5.3a3.39,3.39,0,0,1-.8,2.4A3.34,3.34,0,0,1,219.57,352.66Z"/><path class="cls-1" d="M226.05,344.09h1.8v8.4h-1.8Z"/><path class="cls-1" d="M231,344.09h1.8V351h3.67v1.5H231Z"/><path class="cls-1" d="M237.23,344.09h6.66v1.5h-2.42v6.9h-1.81v-6.9h-2.43Z"/><path class="cls-1" d="M250.45,352.49v-8.4h5.72v1.49h-4v1.84h3.67v1.49h-3.67V351h4v1.49Z"/><path class="cls-1" d="M259,344.09h1.88c.48.79.95,1.54,1.39,2.25l.65,1.05.5.83.48.77.38.62h0v-5.52H266v8.4h-1.87c-.48-.78-.93-1.52-1.37-2.22-.25-.42-.47-.76-.64-1l-.51-.83-.48-.79c-.16-.25-.29-.47-.41-.64h0v5.52H259Z"/><path class="cls-1" d="M270.44,344.09l.84,2.43c.16.46.29.84.39,1.16s.21.62.32.94l.3.92.25.79h0c.07-.23.16-.5.25-.8l.31-.95.34-1,.35-1q.39-1.17.84-2.43h1.85l-3.1,8.4h-1.83l-3.06-8.4Z"/><path class="cls-1" d="M279,344.09h1.8v8.4H279Z"/><path class="cls-1" d="M290.23,346.64a2.36,2.36,0,0,1-1.6,2.4l1.93,3.45h-2l-1.74-3.18h-1.11v3.18h-1.79v-8.4H287a5.47,5.47,0,0,1,1.33.15,2.84,2.84,0,0,1,1,.46,2.08,2.08,0,0,1,.65.79A2.71,2.71,0,0,1,290.23,346.64Zm-1.85,0a.91.91,0,0,0-.39-.85,2.3,2.3,0,0,0-1.18-.23h-1.08v2.26h1.08a2.08,2.08,0,0,0,1.18-.27A1,1,0,0,0,288.38,346.66Z"/><path class="cls-1" d="M292.9,348.29a5.24,5.24,0,0,1,.3-1.83,4,4,0,0,1,.82-1.38,3.7,3.7,0,0,1,1.29-.86,4.88,4.88,0,0,1,3.37,0,3.57,3.57,0,0,1,1.28.86,3.83,3.83,0,0,1,.83,1.38,5.73,5.73,0,0,1,0,3.66,3.7,3.7,0,0,1-.83,1.37,3.47,3.47,0,0,1-1.28.87,4.88,4.88,0,0,1-3.37,0,3.59,3.59,0,0,1-1.29-.87,3.82,3.82,0,0,1-.82-1.37A5.24,5.24,0,0,1,292.9,348.29Zm1.86,0a4.81,4.81,0,0,0,.14,1.17,2.72,2.72,0,0,0,.41.91,2,2,0,0,0,.7.59,2.42,2.42,0,0,0,2,0,2,2,0,0,0,.7-.59,2.72,2.72,0,0,0,.41-.91,4.81,4.81,0,0,0,.14-1.17,4.69,4.69,0,0,0-.14-1.17,2.63,2.63,0,0,0-.41-.91,1.89,1.89,0,0,0-.7-.59,2.42,2.42,0,0,0-2,0,1.89,1.89,0,0,0-.7.59,2.63,2.63,0,0,0-.41.91A4.69,4.69,0,0,0,294.76,348.29Z"/><path class="cls-1" d="M303.91,344.09h1.87l1.39,2.25.65,1.05c.17.28.34.55.5.83l.48.77.39.62h0v-5.52h1.71v8.4h-1.88c-.47-.78-.93-1.52-1.36-2.22l-.65-1-.51-.83-.48-.79-.4-.64h0v5.52h-1.7Z"/><path class="cls-1" d="M317.79,352.49q-.18-.5-.45-1.29l-.56-1.66c-.19-.58-.38-1.14-.56-1.7s-.32-1-.43-1.39h0v6H314.1v-8.4h2.51c.35,1,.66,2,.94,2.82.17.51.31.92.41,1.24s.21.62.3.91.18.54.26.78.13.4.16.5l.15-.5c.08-.24.16-.51.26-.83l.33-1c.11-.36.23-.72.35-1.08q.41-1.29.9-2.82h2.51v8.4h-1.66v-6h0l-.29.9-.37,1.11c-.13.39-.26.79-.4,1.19s-.26.79-.38,1.15l-.33,1c-.1.3-.19.53-.25.7Z"/><path class="cls-1" d="M326.35,352.49v-8.4h5.72v1.49h-3.95v1.84h3.67v1.49h-3.67V351h4v1.49Z"/><path class="cls-1" d="M334.91,344.09h1.88c.48.79.95,1.54,1.39,2.25l.65,1.05c.16.28.33.55.5.83l.48.77.38.62h0v-5.52h1.7v8.4h-1.87c-.48-.78-.93-1.52-1.37-2.22-.25-.42-.47-.76-.64-1l-.51-.83-.48-.79-.41-.64h0v5.52h-1.71Z"/><path class="cls-1" d="M344.47,344.09h6.66v1.5H348.7v6.9h-1.81v-6.9h-2.42Z"/></g><g id="LINE_ONE" data-name="LINE ONE"><path class="cls-3" d="M112.08,234.16h5.22a8.36,8.36,0,0,1,2.88.47,5.66,5.66,0,0,1,3.51,3.55,9.68,9.68,0,0,1,0,6,5.66,5.66,0,0,1-3.51,3.55,8.36,8.36,0,0,1-2.88.47h-5.22Zm9,7a7,7,0,0,0-.23-1.85,4.07,4.07,0,0,0-.7-1.43,3,3,0,0,0-1.19-.92,4.26,4.26,0,0,0-1.72-.32H115.1v9h2.12a4.26,4.26,0,0,0,1.72-.32,3,3,0,0,0,1.19-.92,4.07,4.07,0,0,0,.7-1.43A7,7,0,0,0,121.06,241.16Z"/><path class="cls-3" d="M134.38,248.44a5.56,5.56,0,0,1-4.26-1.44,5.65,5.65,0,0,1-1.34-4v-8.84h3V243a3.33,3.33,0,0,0,.64,2.11,2.73,2.73,0,0,0,3.92,0A3.33,3.33,0,0,0,137,243v-8.86h3V243a5.65,5.65,0,0,1-1.34,4A5.56,5.56,0,0,1,134.38,248.44Z"/><path class="cls-3" d="M155.66,238.42a3.94,3.94,0,0,1-2.66,4l3.22,5.74h-3.3l-2.9-5.3h-1.86v5.3h-3v-14h5.12a8.89,8.89,0,0,1,2.21.25,4.78,4.78,0,0,1,1.69.77,3.46,3.46,0,0,1,1.08,1.32A4.47,4.47,0,0,1,155.66,238.42Zm-3.08,0a1.51,1.51,0,0,0-.65-1.41,3.91,3.91,0,0,0-2-.39h-1.8v3.78H150a3.48,3.48,0,0,0,2-.45A1.74,1.74,0,0,0,152.58,238.44Z"/><path class="cls-3" d="M172.86,248.16h-3.1l-1.12-3.24h-5l-1.12,3.24h-2.94l5-14h3.22Zm-6.76-10.72c0,.11-.07.26-.14.47s-.14.44-.22.7-.17.54-.27.84l-.29.87c-.23.69-.47,1.43-.74,2.22h3.38c-.27-.79-.51-1.53-.74-2.22-.15-.4-.26-.73-.35-1s-.17-.51-.24-.75-.14-.46-.21-.67-.11-.36-.14-.47Z"/><path class="cls-3" d="M177,234.16h6.08a5,5,0,0,1,1.75.28,3.8,3.8,0,0,1,1.3.77,3.38,3.38,0,0,1,.81,1.16,3.67,3.67,0,0,1,.28,1.45A3.33,3.33,0,0,1,187,239a3.29,3.29,0,0,1-.47.87,2.77,2.77,0,0,1-.66.62,3.1,3.1,0,0,1-.77.39,3.6,3.6,0,0,1,.93.26,3,3,0,0,1,.87.57,2.87,2.87,0,0,1,.65.93,3.31,3.31,0,0,1,.25,1.38,4,4,0,0,1-1.28,3,4.34,4.34,0,0,1-1.42.87,5,5,0,0,1-1.8.32H177Zm2.92,2.44v3.24H182a2.85,2.85,0,0,0,1.6-.36,1.46,1.46,0,0,0,.52-1.3,1.48,1.48,0,0,0-.45-1.22,2.44,2.44,0,0,0-1.51-.36Zm0,9.12h2.4a3,3,0,0,0,1.93-.45,1.66,1.66,0,0,0,.51-1.31,1.44,1.44,0,0,0-.62-1.37,3.91,3.91,0,0,0-1.86-.35h-2.36Z"/><path class="cls-3" d="M192.5,234.16h3v14h-3Z"/><path class="cls-3" d="M200.78,234.16h3v11.5h6.12v2.5h-9.12Z"/><path class="cls-3" d="M214.1,234.16h3v14h-3Z"/><path class="cls-3" d="M221.32,234.16h11.1v2.5h-4v11.5h-3v-11.5h-4Z"/><path class="cls-3" d="M240.88,242.3l-5.3-8.14H239l3.42,5.36,3.4-5.36h3.34l-5.3,8.14v5.86h-3Z"/></g><g id="LINE_TWO" data-name="LINE TWO"><path class="cls-2" d="M178.12,89.57c14.16,0,28.33.08,42.49-.07a6.26,6.26,0,0,1,5.73,2.9c6.57,9,13.13,18,19.93,26.86,2.28,2.95,2.14,4.61-.53,7.43-10.75,11.37-21.13,23.1-31.65,34.7S193,184.55,182.58,196.21c-1.83,2-3,2.12-5,.1q-33.48-35.13-67.12-70.11c-1.93-2-2-3.39-.38-5.58q10.07-14,19.8-28.24a6,6,0,0,1,5.7-2.87C149.79,89.64,164,89.57,178.12,89.57Zm1.79,100.66c6.64-22.18,13-43.29,19.35-64.66h-44C163.44,147,171.49,168.13,179.91,190.23Zm4.88-3,.68.16,56.06-61.94c-12.26,0-23.54.09-34.82-.07-2.61,0-3.74.65-4.49,3.27-3.9,13.54-8.06,27-12.1,40.5C188.32,175.15,186.57,181.18,184.79,187.21Zm-10.87-.35a7.8,7.8,0,0,0,0-1.78c-7.33-19.28-14.65-38.56-22.13-57.78-.36-.93-2.21-1.77-3.38-1.79-8.75-.15-17.5-.08-26.25-.08h-7.09Zm27.66-66c6-9.15,11.87-18,17.89-27.11H180.18C187.43,103,194.36,111.74,201.58,120.89Zm-25.1-25.65-20,26.06h40.54ZM243,121.31,223.34,94.86c-5.9,8.9-11.58,17.46-17.53,26.45ZM136.5,93.78l16.15,26.35c6.8-8.89,13.33-17.43,20.14-26.35ZM132.81,95l-18.47,26.28h34.55Z"/><path class="cls-1" d="M179.91,190.23c-8.42-22.1-16.47-43.25-24.63-64.66h44C192.86,146.94,186.55,168.05,179.91,190.23Z"/><path class="cls-1" d="M184.79,187.21c1.78-6,3.53-12.06,5.33-18.08,4-13.49,8.2-27,12.1-40.5.75-2.62,1.88-3.3,4.49-3.27,11.28.16,22.56.07,34.82.07l-56.06,61.94Z"/><path class="cls-1" d="M173.92,186.86l-58.87-61.43h7.09c8.75,0,17.5-.07,26.25.08,1.17,0,3,.86,3.38,1.79,7.48,19.22,14.8,38.5,22.13,57.78A7.8,7.8,0,0,1,173.92,186.86Z"/><path class="cls-1" d="M201.58,120.89c-7.22-9.15-14.15-17.94-21.4-27.11h39.29C213.45,102.89,207.62,111.74,201.58,120.89Z"/><path class="cls-1" d="M176.48,95.24l20.58,26.06H156.52Z"/><path class="cls-1" d="M243,121.31H205.81c5.95-9,11.63-17.55,17.53-26.45Z"/><path class="cls-1" d="M132.81,95l16.08,26.28H114.34Z"/></g></svg>