<?xml version="1.0" encoding="utf-8"?>
<!-- Generator: Adobe Illustrator 23.1.0, SVG Export Plug-In . SVG Version: 6.00 Build 0)  -->
<svg version="1.1" xmlns="http://www.w3.org/2000/svg" xmlns:xlink="http://www.w3.org/1999/xlink" x="0px" y="0px"
	 viewBox="0 0 360 360" enable-background="new 0 0 360 360" xml:space="preserve">
<g id="BACKGROUND">
	<rect x="0" y="0" width="360" height="360"/>
</g>
<g id="REF" display="none">
	
		<rect x="-360" y="90.27" display="inline" fill="none" stroke="#000000" stroke-width="0.25" stroke-miterlimit="10" width="360" height="108"/>
	
		<rect y="90.27" display="inline" fill="none" stroke="#FFFFFF" stroke-width="0.25" stroke-miterlimit="10" width="360" height="108"/>
	
		<line display="inline" fill="none" stroke="#FFFFFF" stroke-width="0.25" stroke-linecap="round" stroke-miterlimit="10" x1="180" y1="0.27" x2="180" y2="360.14"/>
</g>
<g id="LINE_ONE">
	<g>
		<path fill="#FFFFFF" d="M131.61,248.16c-0.2-0.55-0.45-1.26-0.75-2.15c-0.3-0.89-0.61-1.81-0.93-2.77s-0.63-1.9-0.93-2.82
			c-0.3-0.92-0.54-1.69-0.73-2.32h-0.06v10.06h-2.76v-14h4.2c0.57,1.71,1.09,3.27,1.56,4.7c0.28,0.85,0.51,1.54,0.69,2.07
			c0.18,0.53,0.35,1.03,0.5,1.51c0.15,0.48,0.29,0.91,0.42,1.3s0.22,0.67,0.27,0.84c0.05-0.17,0.14-0.45,0.26-0.84
			s0.26-0.84,0.43-1.37c0.17-0.53,0.35-1.09,0.54-1.7c0.19-0.61,0.39-1.21,0.59-1.81c0.45-1.43,0.95-2.99,1.5-4.7h4.18v14h-2.76
			V238.1h-0.06c-0.13,0.41-0.29,0.91-0.48,1.49c-0.19,0.58-0.39,1.2-0.61,1.85s-0.44,1.32-0.67,1.99c-0.23,0.67-0.44,1.31-0.64,1.92
			c-0.2,0.61-0.38,1.16-0.55,1.65s-0.3,0.88-0.41,1.16H131.61z"/>
		<path fill="#FFFFFF" d="M145.29,241.16c0-1.13,0.16-2.15,0.49-3.05c0.33-0.9,0.79-1.66,1.38-2.29c0.59-0.63,1.31-1.11,2.15-1.44
			c0.84-0.33,1.77-0.5,2.8-0.5c1.03,0,1.96,0.17,2.8,0.5c0.84,0.33,1.56,0.81,2.15,1.44c0.59,0.63,1.05,1.39,1.38,2.29
			c0.33,0.9,0.49,1.92,0.49,3.05c0,1.13-0.16,2.15-0.49,3.05c-0.33,0.9-0.79,1.66-1.38,2.29c-0.59,0.63-1.31,1.11-2.15,1.44
			s-1.77,0.5-2.8,0.5c-1.03,0-1.96-0.17-2.8-0.5c-0.84-0.33-1.56-0.81-2.15-1.44c-0.59-0.63-1.05-1.39-1.38-2.29
			C145.45,243.31,145.29,242.29,145.29,241.16z M148.39,241.16c0,0.71,0.08,1.36,0.23,1.95c0.15,0.59,0.38,1.1,0.69,1.52
			s0.69,0.75,1.16,0.98s1.01,0.35,1.64,0.35c0.63,0,1.17-0.12,1.64-0.35s0.85-0.56,1.16-0.98s0.54-0.93,0.69-1.52
			c0.15-0.59,0.23-1.24,0.23-1.95s-0.08-1.36-0.23-1.95c-0.15-0.59-0.38-1.1-0.69-1.52s-0.69-0.75-1.16-0.98s-1.01-0.35-1.64-0.35
			c-0.63,0-1.17,0.12-1.64,0.35s-0.85,0.56-1.16,0.98s-0.54,0.93-0.69,1.52C148.47,239.8,148.39,240.45,148.39,241.16z"/>
		<path fill="#FFFFFF" d="M163.63,234.16h6.08c0.65,0,1.24,0.09,1.75,0.28c0.51,0.19,0.95,0.44,1.3,0.77
			c0.35,0.33,0.62,0.71,0.81,1.16c0.19,0.45,0.28,0.93,0.28,1.45c0,0.43-0.06,0.81-0.18,1.14c-0.12,0.33-0.28,0.62-0.47,0.87
			c-0.19,0.25-0.41,0.45-0.66,0.62c-0.25,0.17-0.5,0.3-0.77,0.39c0.31,0.04,0.62,0.13,0.93,0.26c0.31,0.13,0.6,0.32,0.87,0.57
			c0.27,0.25,0.48,0.56,0.65,0.93c0.17,0.37,0.25,0.83,0.25,1.38c0,0.6-0.11,1.16-0.34,1.67c-0.23,0.51-0.54,0.95-0.94,1.32
			c-0.4,0.37-0.87,0.66-1.42,0.87c-0.55,0.21-1.15,0.32-1.8,0.32h-6.34V234.16z M166.55,236.6v3.24h2.1c0.72,0,1.25-0.12,1.6-0.36
			c0.35-0.24,0.52-0.67,0.52-1.3c0-0.57-0.15-0.98-0.45-1.22c-0.3-0.24-0.8-0.36-1.51-0.36H166.55z M166.55,245.72h2.4
			c0.95,0,1.59-0.15,1.93-0.45c0.34-0.3,0.51-0.74,0.51-1.31c0-0.68-0.21-1.14-0.62-1.37c-0.41-0.23-1.03-0.35-1.86-0.35h-2.36
			V245.72z"/>
		<path fill="#FFFFFF" d="M179.13,234.16h3v14h-3V234.16z"/>
		<path fill="#FFFFFF" d="M187.41,234.16h3v11.5h6.12v2.5h-9.12V234.16z"/>
		<path fill="#FFFFFF" d="M200.73,234.16h3v14h-3V234.16z"/>
		<path fill="#FFFFFF" d="M207.95,234.16h11.1v2.5h-4.04v11.5h-3.02v-11.5h-4.04V234.16z"/>
		<path fill="#FFFFFF" d="M227.51,242.3l-5.3-8.14h3.44l3.42,5.36l3.4-5.36h3.34l-5.3,8.14v5.86h-3V242.3z"/>
	</g>
</g>
<g id="LINE_TWO">
</g>
<g id="ICON">
	<g>
		<circle fill="none" stroke="#FFFFFF" stroke-width="5" stroke-miterlimit="10" cx="180.06" cy="181.65" r="13.94"/>
		<path fill="none" stroke="#FFFFFF" stroke-width="5" stroke-linecap="round" stroke-miterlimit="10" d="M140.92,164.6
			c1.34-1.84,15.2-20.13,39.59-20c24.62,0.13,38.31,18.89,39.59,20.71"/>
		<path fill="none" stroke="#FFFFFF" stroke-width="5" stroke-linecap="round" stroke-miterlimit="10" d="M122.19,146.42
			c1.98-2.63,22.34-28.78,58.2-28.6c36.19,0.18,56.33,27.02,58.2,29.61"/>
		<path fill="none" stroke="#FFFFFF" stroke-width="5" stroke-linecap="round" stroke-miterlimit="10" d="M100.96,130.73
			c2.69-3.48,30.34-38.01,79.04-37.78c49.15,0.24,76.5,35.69,79.04,39.11"/>
	</g>
</g>
</svg>
