<?xml version="1.0" encoding="utf-8"?>
<!-- Generator: Adobe Illustrator 23.1.0, SVG Export Plug-In . SVG Version: 6.00 Build 0)  -->
<svg version="1.1" xmlns="http://www.w3.org/2000/svg" xmlns:xlink="http://www.w3.org/1999/xlink" x="0px" y="0px"
	 viewBox="0 0 360 360" enable-background="new 0 0 360 360" xml:space="preserve">
<g id="BACKGROUND">
	<rect x="0" y="0" fill="#FFFFFF" width="360" height="360"/>
</g>
<g id="REF" display="none">
	
		<rect y="90.33" display="inline" fill="none" stroke="#000000" stroke-width="0.25" stroke-miterlimit="10" width="360" height="108"/>
	
		<rect x="360" y="90.33" display="inline" fill="none" stroke="#FFFFFF" stroke-width="0.25" stroke-miterlimit="10" width="360" height="108"/>
	
		<line display="inline" fill="none" stroke="#000000" stroke-width="0.25" stroke-linecap="round" stroke-miterlimit="10" x1="180" y1="0.19" x2="180" y2="360.06"/>
</g>
<g id="LINE_ONE">
	<g>
		<path d="M156.05,243.24v4.92h-2.98v-14h5.32c0.84,0,1.6,0.09,2.28,0.26c0.68,0.17,1.26,0.44,1.74,0.8
			c0.48,0.36,0.85,0.82,1.12,1.38c0.27,0.56,0.4,1.23,0.4,2.02c0,0.8-0.14,1.49-0.41,2.07c-0.27,0.58-0.65,1.06-1.14,1.44
			s-1.07,0.66-1.75,0.84c-0.68,0.18-1.43,0.27-2.24,0.27H156.05z M160.87,238.62c0-0.76-0.23-1.28-0.69-1.56
			c-0.46-0.28-1.16-0.42-2.09-0.42h-2.04v4.12h2.04c0.93,0,1.63-0.17,2.09-0.5C160.64,239.92,160.87,239.38,160.87,238.62z"/>
		<path d="M168.33,234.16h3v11.5h6.12v2.5h-9.12V234.16z"/>
		<path d="M193.81,248.16h-3.1l-1.12-3.24h-5.02l-1.12,3.24h-2.94l5.04-14h3.22L193.81,248.16z M187.05,237.44
			c-0.03,0.11-0.07,0.26-0.14,0.47c-0.07,0.21-0.14,0.44-0.22,0.7c-0.08,0.26-0.17,0.54-0.27,0.84s-0.2,0.59-0.29,0.87
			c-0.23,0.69-0.47,1.43-0.74,2.22h3.38c-0.27-0.79-0.51-1.53-0.74-2.22c-0.15-0.4-0.26-0.73-0.35-0.99s-0.17-0.51-0.24-0.75
			c-0.07-0.24-0.14-0.46-0.21-0.67c-0.07-0.21-0.11-0.36-0.14-0.47H187.05z"/>
		<path d="M199.89,242.3l-5.3-8.14h3.44l3.42,5.36l3.4-5.36h3.34l-5.3,8.14v5.86h-3V242.3z"/>
	</g>
</g>
<g id="LINE_TWO">
</g>
<g id="ICON">
	<g>
		<g>
			<path fill="none" stroke="#000000" stroke-width="3" stroke-miterlimit="10" d="M191.28,113.72
				c16.06-8.56,35.39,1.43,37.87,19.85c1.71,12.68-3.02,22.78-13.69,29.96c-0.69,0.47-1.9,0.64-2.7,0.4
				c-10.83-3.2-21.65-6.48-32.44-9.81c-0.74-0.23-1.57-0.92-1.91-1.61C171.66,138.79,177.58,121.02,191.28,113.72z"/>
			<path d="M179.58,158.46c10.55,3.18,20.46,6.16,30.96,9.32c-2.52,0.57-4.6,1.19-6.72,1.49c-3.75,0.54-6.08,2.5-7.15,6.16
				c-2,6.83-4.17,13.61-6.13,20.45c-0.68,2.37-1.84,2.89-4.11,2.15c-7.25-2.39-6.95-1.07-4.62-8.75c1.71-5.62,3.35-11.25,5.11-16.85
				c1.1-3.52,0.33-6.4-2.4-8.88C182.9,162.05,181.45,160.39,179.58,158.46z"/>
		</g>
		<g>
			<path fill="#FFFFFF" stroke="#000000" stroke-width="3" stroke-miterlimit="10" d="M163.91,106.82
				c-16.06-8.56-35.39,1.43-37.87,19.85c-1.71,12.68,3.02,22.78,13.69,29.96c0.69,0.47,1.9,0.64,2.7,0.4
				c10.83-3.2,21.65-6.48,32.44-9.81c0.74-0.23,1.57-0.92,1.91-1.61C183.53,131.89,177.61,114.13,163.91,106.82z"/>
			<path d="M175.61,151.56c-10.55,3.18-20.46,6.16-30.96,9.32c2.52,0.57,4.6,1.19,6.72,1.49c3.75,0.54,6.08,2.5,7.15,6.16
				c2,6.83,4.17,13.61,6.13,20.45c0.68,2.37,1.84,2.89,4.11,2.15c7.25-2.39,6.95-1.07,4.62-8.75c-1.71-5.62-3.35-11.25-5.11-16.85
				c-1.1-3.52-0.33-6.4,2.4-8.88C172.29,155.16,173.74,153.49,175.61,151.56z"/>
		</g>
		<path fill="none" stroke="#000000" stroke-miterlimit="10" d="M179.38,90.33c3.78-0.04,6.92,2.99,6.91,6.64
			c-0.01,3.44-3.16,6.63-6.66,6.74c-3.62,0.11-6.76-3.03-6.77-6.76C172.86,93.23,175.67,90.37,179.38,90.33z"/>
	</g>
</g>
</svg>
