<svg xmlns="http://www.w3.org/2000/svg" viewBox="0 0 360 360"><defs><style>.cls-1{fill:#231f20;}.cls-2{fill:#fff;}</style></defs><title>CARD</title><g id="BACKGROUND"><rect class="cls-1" y="-0.06" width="360" height="360"/></g><g id="LINE_ONE" data-name="LINE ONE"><path class="cls-2" d="M131.43,237.78a1.32,1.32,0,0,0,.78,1.28,8.75,8.75,0,0,0,2.48.67,7.86,7.86,0,0,1,3.67,1.39,3.47,3.47,0,0,1,1.17,2.85,3.89,3.89,0,0,1-.42,1.83,4.11,4.11,0,0,1-1.17,1.39,5.63,5.63,0,0,1-1.79.87,7.76,7.76,0,0,1-2.26.32,7.68,7.68,0,0,1-2.38-.35,6.1,6.1,0,0,1-1.8-.93,4.33,4.33,0,0,1-1.16-1.37,3.73,3.73,0,0,1-.46-1.61l3-.49a2.56,2.56,0,0,0,.79,1.67,2.8,2.8,0,0,0,2,.66,5.32,5.32,0,0,0,1-.1,2.52,2.52,0,0,0,.82-.33,1.86,1.86,0,0,0,.55-.57,1.64,1.64,0,0,0,.2-.83,1.35,1.35,0,0,0-.65-1.19,6.12,6.12,0,0,0-2.29-.68,20.59,20.59,0,0,1-2-.46,5.72,5.72,0,0,1-1.63-.77,3.54,3.54,0,0,1-1.08-1.23,3.72,3.72,0,0,1-.39-1.78,3.93,3.93,0,0,1,.4-1.84,3.63,3.63,0,0,1,1.12-1.31,4.84,4.84,0,0,1,1.7-.79,8,8,0,0,1,2.14-.27,8.16,8.16,0,0,1,2,.25,5.77,5.77,0,0,1,1.67.74,4.39,4.39,0,0,1,1.21,1.22,4.44,4.44,0,0,1,.66,1.63l-3,.66a2.45,2.45,0,0,0-.82-1.51,2.62,2.62,0,0,0-1.78-.57,2.86,2.86,0,0,0-1.69.42A1.36,1.36,0,0,0,131.43,237.78Z"/><path class="cls-2" d="M142.63,234.1h11.1v2.5h-4v11.5h-3V236.6h-4Z"/><path class="cls-2" d="M163.47,248.38a5.6,5.6,0,0,1-4.26-1.44,5.69,5.69,0,0,1-1.34-4V234.1h3V243a3.31,3.31,0,0,0,.64,2.1,2.73,2.73,0,0,0,3.92,0,3.31,3.31,0,0,0,.64-2.1V234.1h3v8.84a5.69,5.69,0,0,1-1.34,4A5.6,5.6,0,0,1,163.47,248.38Z"/><path class="cls-2" d="M174.27,234.1h5.22a8.37,8.37,0,0,1,2.88.46,5.87,5.87,0,0,1,2.16,1.37,5.79,5.79,0,0,1,1.35,2.19,9.68,9.68,0,0,1,0,6,5.66,5.66,0,0,1-3.51,3.55,8.36,8.36,0,0,1-2.88.47h-5.22Zm9,7a7,7,0,0,0-.23-1.85,4.11,4.11,0,0,0-.7-1.44,3.21,3.21,0,0,0-1.19-.92,4.26,4.26,0,0,0-1.72-.31h-2.12v9h2.12a4.26,4.26,0,0,0,1.72-.32,3.11,3.11,0,0,0,1.19-.92A4.15,4.15,0,0,0,183,243,7.1,7.1,0,0,0,183.25,241.1Z"/><path class="cls-2" d="M191.05,248.1v-14h9.54v2.48H194v3.07h6.12v2.48H194v3.49h6.68v2.48Z"/><path class="cls-2" d="M205.33,234.1h3.12l2.32,3.76c.44.7.8,1.28,1.08,1.75l.84,1.36.8,1.3.64,1h.06v-9.2H217v14h-3.12l-2.28-3.71-1.07-1.72c-.29-.46-.57-.92-.85-1.38s-.55-.91-.81-1.32l-.67-1.08h-.06v9.21h-2.84Z"/><path class="cls-2" d="M221.25,234.1h11.1v2.5h-4v11.5h-3V236.6h-4Z"/></g><g id="LINE_TWO" data-name="LINE TWO"><path class="cls-2" d="M90.37,265.88v-14h9.54v2.48H93.33v3.08h6.12v2.48H93.33v3.48H100v2.48Z"/><path class="cls-2" d="M110.81,265.88c-.2-.55-.45-1.26-.75-2.15l-.93-2.77q-.48-1.44-.93-2.82c-.3-.92-.54-1.69-.73-2.32h-.06v10.06h-2.76v-14h4.2c.57,1.71,1.09,3.27,1.56,4.7q.42,1.28.69,2.07c.18.53.35,1,.5,1.51s.29.91.42,1.3.22.67.27.84l.26-.84c.12-.39.26-.84.43-1.37s.35-1.09.54-1.7.39-1.21.59-1.81c.45-1.43,1-3,1.5-4.7h4.18v14H117V255.82H117l-.48,1.49c-.19.58-.39,1.2-.61,1.85s-.44,1.32-.67,2-.44,1.31-.64,1.92-.38,1.16-.55,1.65-.3.88-.41,1.16Z"/><path class="cls-2" d="M128.05,261v4.92h-3v-14h5.32a9.4,9.4,0,0,1,2.28.26,4.81,4.81,0,0,1,1.74.8,3.7,3.7,0,0,1,1.12,1.38,4.61,4.61,0,0,1,.4,2,4.87,4.87,0,0,1-.41,2.07,3.85,3.85,0,0,1-1.14,1.44,4.83,4.83,0,0,1-1.75.84,8.76,8.76,0,0,1-2.24.27Zm4.82-4.62a1.68,1.68,0,0,0-.69-1.56,4.11,4.11,0,0,0-2.09-.42h-2v4.12h2a3.6,3.6,0,0,0,2.09-.5A1.88,1.88,0,0,0,132.87,256.34Z"/><path class="cls-2" d="M139.75,258.88a8.83,8.83,0,0,1,.49-3,6.64,6.64,0,0,1,1.38-2.29,5.82,5.82,0,0,1,2.15-1.44,8.09,8.09,0,0,1,5.6,0,5.82,5.82,0,0,1,2.15,1.44,6.64,6.64,0,0,1,1.38,2.29,9.74,9.74,0,0,1,0,6.1,6.64,6.64,0,0,1-1.38,2.29,5.82,5.82,0,0,1-2.15,1.44,8.09,8.09,0,0,1-5.6,0,5.82,5.82,0,0,1-2.15-1.44,6.64,6.64,0,0,1-1.38-2.29A8.83,8.83,0,0,1,139.75,258.88Zm3.1,0a7.9,7.9,0,0,0,.23,1.95,4.33,4.33,0,0,0,.69,1.52,3.14,3.14,0,0,0,1.16,1,4,4,0,0,0,3.28,0,3.14,3.14,0,0,0,1.16-1,4.33,4.33,0,0,0,.69-1.52,8.38,8.38,0,0,0,0-3.9,4.33,4.33,0,0,0-.69-1.52,3.14,3.14,0,0,0-1.16-1,4,4,0,0,0-3.28,0,3.14,3.14,0,0,0-1.16,1,4.33,4.33,0,0,0-.69,1.52A7.9,7.9,0,0,0,142.85,258.88Z"/><path class="cls-2" d="M175.05,251.88l-3.5,14h-3.48c-.29-1.29-.57-2.53-.84-3.7l-.4-1.74c-.11-.47-.21-.93-.31-1.4s-.2-.91-.3-1.34l-.25-1.1h-.06q-.1.47-.24,1.11c-.09.43-.2.9-.32,1.39s-.24,1-.36,1.53-.24,1-.36,1.55c-.28,1.17-.58,2.41-.9,3.7h-3.48l-3.52-14h3c.35,1.49.67,2.91,1,4.26.17.8.32,1.46.44,2s.23,1,.34,1.56l.31,1.48c.1.47.18.86.23,1.18h.06c.07-.32.15-.72.25-1.19s.21-1,.34-1.53l.4-1.72c.14-.6.28-1.19.41-1.76q.48-2,1-4.26h2.82q.54,2.24,1,4.26c.19.8.34,1.46.47,2s.25,1,.37,1.56.23,1,.33,1.48.18.86.25,1.18h.06c.07-.32.15-.72.25-1.19l.33-1.53c.12-.55.25-1.12.38-1.72s.27-1.19.4-1.76c.32-1.35.65-2.77,1-4.26Z"/><path class="cls-2" d="M179.17,265.88v-14h9.54v2.48h-6.58v3.08h6.12v2.48h-6.12v3.48h6.68v2.48Z"/><path class="cls-2" d="M203.93,256.14a3.94,3.94,0,0,1-2.66,4l3.22,5.74h-3.3l-2.9-5.3h-1.86v5.3h-3v-14h5.12a8.89,8.89,0,0,1,2.21.25,4.78,4.78,0,0,1,1.69.77,3.46,3.46,0,0,1,1.08,1.32A4.47,4.47,0,0,1,203.93,256.14Zm-3.08,0a1.51,1.51,0,0,0-.65-1.41,3.91,3.91,0,0,0-2-.39h-1.8v3.78h1.8a3.48,3.48,0,0,0,2-.45A1.74,1.74,0,0,0,200.85,256.16Z"/><path class="cls-2" d="M215.13,265.88c-.2-.55-.45-1.26-.75-2.15l-.93-2.77q-.48-1.44-.93-2.82c-.3-.92-.54-1.69-.73-2.32h-.06v10.06H209v-14h4.2c.57,1.71,1.09,3.27,1.56,4.7q.42,1.28.69,2.07c.18.53.35,1,.5,1.51s.29.91.42,1.3.22.67.27.84l.26-.84c.12-.39.26-.84.43-1.37s.34-1.09.54-1.7.39-1.21.59-1.81c.45-1.43.95-3,1.5-4.7h4.18v14h-2.76V255.82h-.06l-.48,1.49c-.19.58-.39,1.2-.61,1.85s-.44,1.32-.67,2-.44,1.31-.64,1.92-.38,1.16-.55,1.65-.3.88-.41,1.16Z"/><path class="cls-2" d="M229.39,265.88v-14h9.54v2.48h-6.58v3.08h6.12v2.48h-6.12v3.48H239v2.48Z"/><path class="cls-2" d="M243.67,251.88h3.12l2.32,3.76,1.08,1.75.84,1.37.8,1.29.64,1h.06v-9.2h2.84v14h-3.12l-2.28-3.7-1.07-1.73c-.29-.46-.57-.92-.85-1.38l-.81-1.32-.67-1.07h-.06v9.2h-2.84Z"/><path class="cls-2" d="M259.59,251.88h11.1v2.5h-4v11.5h-3v-11.5h-4Z"/></g><g id="ICON"><path class="cls-2" d="M180.3,90.19c29.81.08,53.79,24.45,53.7,54.56-.09,29.51-24.57,53.52-54.49,53.44-29.7-.08-53.62-24.55-53.51-54.76C126.11,114.14,150.62,90.11,180.3,90.19Zm17,26.19c8.88-1.82,14,2.31,14,11.11q0,19.37,0,38.73c0,4.76-1.51,9.23-5.47,11.73-3.72,2.35-3,5.14-3,8.5,17-8.37,30.15-30.37,24-54.45-5.71-22.38-27.48-37.9-50.58-36.06a48.74,48.74,0,0,0-44.49,44.49c-1.77,22.47,13,40.92,25.19,45.59,1.39-4.49-.09-8-3.88-10.67a31.09,31.09,0,0,1-2.58-2.44,13.38,13.38,0,0,1-4.61-10.69c.12-5.44-.05-10.89.07-16.34,0-1.86.05-4,1-5.5,2.18-3.51,1.79-7.24,1.83-11,0-2.37-.11-4.75,0-7.11a9.93,9.93,0,0,1,12.24-9c.78.19,1.55.41,2.25.59,4.88-7.37,9.46-8.4,16.75-3.92C188.13,104.88,193.94,107,197.26,116.38Zm-17.09,56.09c-1-7.64-5-12.22-12.3-14.05-6.65-1.66-8.25-4.1-7.78-10.8.17-2.34,1.27-3.43,3.58-3.42,2.72,0,5.45,0,8.17,0,2.88.07,4.91-1,5.27-4,.29-2.5-2-4.44-5.25-4.51-3.43-.07-6.87-.08-10.3,0-5.87.15-9.89,4.27-10,10.22-.07,4.74.2,9.49-.08,14.21-.25,4.14.81,7.49,4.2,9.92,5.75,4.13,8.63,9.47,7.23,16.67-.44,2.25.82,3.06,2.74,3.64a50.59,50.59,0,0,0,26.61.67c3.75-.86,5.52-2.46,4.84-6.41-.24-1.38.06-2.85-.06-4.26-.23-2.52.84-3.84,3-5.37,2.3-1.66,4.91-4.43,5.22-7,.76-6.13.25-12.42.25-17.64l-12.27-2.52c-3.76,3-8.52,3-12,.2l-15.29,2.51a11.32,11.32,0,0,0,5,2.88c8.85,2.54,15.3,10.94,14.4,19.07Zm11.21-43.93V117.92c0-2.9-1.28-4.94-4.29-4.92s-4.27,2.06-4.26,5q0,10.61,0,21.23c0,2.9,1.28,4.94,4.29,4.92s4.28-2.06,4.26-5C191.37,135.61,191.38,132.07,191.38,128.54Zm14.2,4.22c0-2.35.12-4.71,0-7.06-.16-2.58-1.65-4.24-4.28-4.2a4,4,0,0,0-4.19,4.3c-.09,4.71-.11,9.43,0,14.13a4,4,0,0,0,4.27,4.2c2.62,0,4.06-1.71,4.19-4.3C205.67,137.48,205.58,135.12,205.58,132.76Zm-36.94-3,8.51.78c0-4.67.11-9,0-13.39a4,4,0,0,0-4.33-4.16,3.92,3.92,0,0,0-4.1,4C168.52,121.21,168.64,125.44,168.64,129.74Zm-5.72-.16c0-2.32.17-4.68,0-7a4.21,4.21,0,0,0-8.4,0c-.22,2.87,0,5.76,0,8.62Z"/><path d="M197.26,116.38c-3.32-9.39-9.13-11.5-17.24-6.46-7.29-4.48-11.87-3.45-16.75,3.92-.7-.18-1.47-.4-2.25-.59a9.93,9.93,0,0,0-12.24,9c-.15,2.36,0,4.74,0,7.11,0,3.74.35,7.47-1.83,11-.92,1.47-.93,3.64-1,5.5-.12,5.45.05,10.9-.07,16.34a13.38,13.38,0,0,0,4.61,10.69,31.09,31.09,0,0,0,2.58,2.44c3.79,2.68,5.27,6.18,3.88,10.67-12.21-4.67-27-23.12-25.19-45.59a48.74,48.74,0,0,1,44.49-44.49c23.1-1.84,44.87,13.68,50.58,36.06,6.14,24.08-7,46.08-24,54.45,0-3.36-.75-6.15,3-8.5,4-2.5,5.47-7,5.47-11.73q0-19.36,0-38.73C211.24,118.69,206.14,114.56,197.26,116.38Z"/><path d="M180.17,172.47h5.12c.9-8.13-5.55-16.53-14.4-19.07a11.32,11.32,0,0,1-5-2.88L181.22,148c3.48,2.84,8.24,2.77,12-.2l12.27,2.52c0,5.22.51,11.51-.25,17.64-.31,2.56-2.92,5.33-5.22,7-2.13,1.53-3.2,2.85-3,5.37.12,1.41-.18,2.88.06,4.26.68,3.95-1.09,5.55-4.84,6.41a50.59,50.59,0,0,1-26.61-.67c-1.92-.58-3.18-1.39-2.74-3.64,1.4-7.2-1.48-12.54-7.23-16.67-3.39-2.43-4.45-5.78-4.2-9.92.28-4.72,0-9.47.08-14.21.1-5.95,4.12-10.07,10-10.22,3.43-.09,6.87-.08,10.3,0,3.24.07,5.54,2,5.25,4.51-.36,3-2.39,4.11-5.27,4-2.72-.06-5.45,0-8.17,0-2.31,0-3.41,1.08-3.58,3.42-.47,6.7,1.13,9.14,7.78,10.8C175.18,160.25,179.2,164.83,180.17,172.47Z"/><path d="M191.38,128.54c0,3.53,0,7.07,0,10.61,0,2.9-1.26,4.94-4.26,5s-4.29-2-4.29-4.92q0-10.62,0-21.23c0-2.9,1.24-4.95,4.26-5s4.29,2,4.29,4.92Z"/><path d="M205.58,132.76c0,2.36.09,4.72,0,7.07-.13,2.59-1.57,4.27-4.19,4.3a4,4,0,0,1-4.27-4.2c-.13-4.7-.11-9.42,0-14.13a4,4,0,0,1,4.19-4.3c2.63,0,4.12,1.62,4.28,4.2C205.7,128.05,205.58,130.41,205.58,132.76Z"/><path d="M168.64,129.74c0-4.3-.12-8.53,0-12.74a3.92,3.92,0,0,1,4.1-4,4,4,0,0,1,4.33,4.16c.15,4.36,0,8.72,0,13.39Z"/><path d="M162.92,129.58l-8.49,1.6c0-2.86-.17-5.75,0-8.62a4.21,4.21,0,0,1,8.4,0C163.09,124.9,162.92,127.26,162.92,129.58Z"/></g></svg>