<svg xmlns="http://www.w3.org/2000/svg" viewBox="0 0 360 360"><defs><style>.cls-1{fill:#231f20;}.cls-2,.cls-3{fill:#fff;}.cls-3{stroke:#fff;stroke-miterlimit:10;stroke-width:2px;}</style></defs><title>CARD</title><g id="BACKGROUND"><rect class="cls-1" width="360" height="360"/></g><g id="LINE_ONE" data-name="LINE ONE"><path class="cls-2" d="M124.47,238.42a3.94,3.94,0,0,1-2.66,4l3.22,5.74h-3.3l-2.9-5.3H117v5.3h-3v-14h5.12a8.89,8.89,0,0,1,2.21.25,4.78,4.78,0,0,1,1.69.77,3.46,3.46,0,0,1,1.08,1.32A4.47,4.47,0,0,1,124.47,238.42Zm-3.08,0a1.51,1.51,0,0,0-.65-1.41,3.91,3.91,0,0,0-2-.39H117v3.78h1.8a3.48,3.48,0,0,0,2-.45A1.74,1.74,0,0,0,121.39,238.44Z"/><path class="cls-2" d="M129.51,248.16v-14h9.54v2.48h-6.58v3.08h6.12v2.48h-6.12v3.48h6.68v2.48Z"/><path class="cls-2" d="M146.51,237.84a1.34,1.34,0,0,0,.78,1.29,9.48,9.48,0,0,0,2.48.67,7.91,7.91,0,0,1,3.67,1.38,3.48,3.48,0,0,1,1.17,2.86,3.92,3.92,0,0,1-.42,1.83,4.07,4.07,0,0,1-1.17,1.38,5.65,5.65,0,0,1-1.79.88,7.77,7.77,0,0,1-2.26.31,7.68,7.68,0,0,1-2.38-.35,5.66,5.66,0,0,1-1.8-.93,4.41,4.41,0,0,1-1.16-1.36,3.81,3.81,0,0,1-.46-1.62l3-.48a2.56,2.56,0,0,0,.79,1.67,2.84,2.84,0,0,0,2,.65,4.68,4.68,0,0,0,1-.1,2.52,2.52,0,0,0,.82-.33,1.66,1.66,0,0,0,.55-.57,1.63,1.63,0,0,0,.2-.82,1.35,1.35,0,0,0-.65-1.2,6.31,6.31,0,0,0-2.29-.68,15.76,15.76,0,0,1-2-.46,5.47,5.47,0,0,1-1.63-.77,3.51,3.51,0,0,1-1.08-1.22,3.76,3.76,0,0,1-.39-1.79,3.93,3.93,0,0,1,.4-1.84,3.72,3.72,0,0,1,1.12-1.31,5,5,0,0,1,1.7-.79,8.48,8.48,0,0,1,2.14-.26,7.71,7.71,0,0,1,2,.25,5.62,5.62,0,0,1,1.67.74,4.36,4.36,0,0,1,1.21,1.21,4.49,4.49,0,0,1,.66,1.64l-3,.66a2.45,2.45,0,0,0-.82-1.52,2.69,2.69,0,0,0-1.78-.56,2.78,2.78,0,0,0-1.69.42A1.33,1.33,0,0,0,146.51,237.84Z"/><path class="cls-2" d="M159.27,234.16h3v14h-3Z"/><path class="cls-2" d="M167.55,234.16h3v11.5h6.12v2.5h-9.12Z"/><path class="cls-2" d="M180.87,234.16h3v14h-3Z"/><path class="cls-2" d="M189.15,248.16v-14h9.54v2.48h-6.58v3.08h6.12v2.48h-6.12v3.48h6.68v2.48Z"/><path class="cls-2" d="M203.43,234.16h3.12l2.32,3.76,1.08,1.75.84,1.37.8,1.29.64,1h.06v-9.2h2.84v14H212l-2.28-3.7-1.07-1.73c-.29-.46-.57-.92-.85-1.38L207,240l-.67-1.07h-.06v9.2h-2.84Z"/><path class="cls-2" d="M219.83,241.16a9.12,9.12,0,0,1,.48-3.07,6.33,6.33,0,0,1,1.37-2.29,5.75,5.75,0,0,1,2.16-1.43,7.78,7.78,0,0,1,2.85-.49,6.85,6.85,0,0,1,3.76,1,5.35,5.35,0,0,1,2.16,3l-2.92,1a3.92,3.92,0,0,0-1.08-1.83,2.86,2.86,0,0,0-2-.65,3.48,3.48,0,0,0-1.62.36,3.18,3.18,0,0,0-1.16,1,4.28,4.28,0,0,0-.69,1.51,7.32,7.32,0,0,0-.23,1.92,7.2,7.2,0,0,0,.23,1.91,4.45,4.45,0,0,0,.69,1.51,3.12,3.12,0,0,0,1.16,1,3.51,3.51,0,0,0,1.64.36,2.94,2.94,0,0,0,1.89-.58,3.67,3.67,0,0,0,1.11-1.76l2.88,1a6,6,0,0,1-2.16,2.8,6.44,6.44,0,0,1-3.76,1,7.5,7.5,0,0,1-2.79-.49,5.86,5.86,0,0,1-2.14-1.42,6.17,6.17,0,0,1-1.37-2.29A9.22,9.22,0,0,1,219.83,241.16Z"/><path class="cls-2" d="M237,248.16v-14h9.54v2.48H240v3.08h6.12v2.48H240v3.48h6.68v2.48Z"/></g><g id="LINE_TWO" data-name="LINE TWO"><path class="cls-2" d="M244.23,140.65h2c10.42,0,20.84,0,31.26,0,3,0,4.8,2.18,4,4.72-.62,1.95-2.05,2.69-4.06,2.68-10.29,0-20.57,0-30.85,0h-2.63a12.41,12.41,0,0,0,1,1.44c2,2,4,3.93,5.9,5.93s2,4,.43,5.62-3.67,1.65-5.59-.23c-5-4.92-9.92-9.91-14.88-14.86-1.13-1.14-1.1-2.19.06-3.33,5-4.94,9.91-9.92,14.89-14.86,1.75-1.73,3.86-1.76,5.43-.21s1.56,3.7-.17,5.45c-2.33,2.36-4.79,4.6-7.2,6.88Z"/><path class="cls-2" d="M115.51,140.09l-7-6.72c-1.42-1.36-2-3-1-4.79,1.2-2.35,4-2.67,6.19-.58,4.25,4.12,8.39,8.36,12.6,12.53,4.39,4.35,4,3.84,0,7.84-4.16,4.21-8.37,8.38-12.57,12.55-1.81,1.8-4,1.92-5.61.34s-1.53-3.67.22-5.47c2.31-2.37,4.74-4.64,7.12-6.95l-.25-.53c-1-.05-2-.13-2.94-.13q-14.82,0-29.64,0a6.59,6.59,0,0,1-2.79-.38,3.41,3.41,0,0,1-2-4c.38-1.93,1.77-3,4-3,7.15,0,14.31,0,21.46,0h11.82Z"/><path class="cls-3" d="M210.75,141.33c0-15,3.95-32.22,11.54-48.64a11.6,11.6,0,0,1,.66-1.26c.64-1.06,1.67-1.77,2.67-.93a3.1,3.1,0,0,1,.85,2.7c-1,2.76-2.33,5.36-3.41,8.08a116.77,116.77,0,0,0,2.95,93c.14.31.32.61.45.92.5,1.18.55,2.35-.73,3s-2.42,0-3-1.28c-1.71-4-3.53-8-5-12.06C213.11,171.8,210.77,158.32,210.75,141.33Z"/><path class="cls-3" d="M197.32,144.42a303.06,303.06,0,0,1,3.32-50.89c.22-1.47.74-2.85,2.5-2.56s1.77,1.67,1.55,3.18a327.48,327.48,0,0,0-3.27,67.23c.68,11.2,2.13,22.36,3.31,33.52.16,1.47.1,2.72-1.5,3-1.79.36-2.42-1-2.57-2.44-1.13-11.17-2.42-22.33-3.26-33.52C197,156.16,197.32,150.28,197.32,144.42Z"/><path class="cls-3" d="M188.28,144.38v50.3c0,.61.19,1.34-.08,1.81-.4.74-1.17,1.85-1.71,1.8a3.87,3.87,0,0,1-2.17-1.61c-.3-.39-.08-1.19-.08-1.8q0-50.61,0-101.21c0-.61-.2-1.39.1-1.8.51-.69,1.35-1.59,2-1.57s1.43,1,1.81,1.77a5.43,5.43,0,0,1,.1,2.22q0,25,0,50.09Z"/><path class="cls-3" d="M148.75,141.32c0-15-3.94-32.22-11.54-48.63a12.75,12.75,0,0,0-.66-1.27c-.64-1-1.67-1.77-2.67-.92a3.1,3.1,0,0,0-.85,2.7c1,2.75,2.34,5.36,3.41,8.07a115.55,115.55,0,0,1,8.19,46.7,116.9,116.9,0,0,1-11.13,46.3c-.15.31-.32.6-.46.92-.5,1.18-.55,2.35.74,3s2.41,0,3-1.28c1.71-4,3.54-8,5-12.06C146.39,171.8,148.73,158.31,148.75,141.32Z"/><path class="cls-3" d="M162.18,144.42a302,302,0,0,0-3.32-50.89c-.21-1.48-.73-2.85-2.5-2.56s-1.76,1.67-1.54,3.18a328.12,328.12,0,0,1,3.27,67.23c-.69,11.2-2.14,22.35-3.32,33.52-.15,1.47-.1,2.72,1.5,3,1.79.37,2.42-1,2.57-2.43,1.14-11.17,2.42-22.33,3.27-33.52C162.55,156.16,162.18,150.27,162.18,144.42Z"/><path class="cls-3" d="M171.23,144.38v50.3c0,.61-.19,1.34.07,1.81.41.73,1.17,1.84,1.71,1.8a3.82,3.82,0,0,0,2.17-1.62c.3-.38.09-1.18.09-1.8V93.67c0-.61.2-1.4-.1-1.8-.51-.69-1.36-1.59-2-1.57s-1.43,1-1.81,1.77a5.42,5.42,0,0,0-.1,2.22v50.09Z"/></g></svg>