<svg xmlns="http://www.w3.org/2000/svg" viewBox="0 0 360 360"><defs><style>.cls-1{fill:#fff;}.cls-2{fill:#0c6e39;}.cls-3{fill:none;stroke:#0c6e39;stroke-linecap:round;stroke-miterlimit:10;stroke-width:5px;}</style></defs><title>CARD</title><g id="Layer_6" data-name="Layer 6"><rect class="cls-1" x="0.42" y="-0.27" width="360" height="360"/></g><g id="BACKGROUND"><rect class="cls-2" y="336.29" width="360" height="23.94"/><path class="cls-1" d="M207,344.32h3.65a3.13,3.13,0,0,1,1,.16,2.54,2.54,0,0,1,.78.47,2,2,0,0,1,.48.69,2.29,2.29,0,0,1,.17.87,2.08,2.08,0,0,1-.11.69,1.73,1.73,0,0,1-.68.89,2,2,0,0,1-.46.24,1.9,1.9,0,0,1,1.08.49,1.76,1.76,0,0,1,.39.56,2.05,2.05,0,0,1,.15.83,2.55,2.55,0,0,1-.2,1,2.39,2.39,0,0,1-.57.79,2.72,2.72,0,0,1-.85.53,3.14,3.14,0,0,1-1.08.19H207Zm1.75,1.46v2H210a1.74,1.74,0,0,0,1-.22.87.87,0,0,0,.31-.78A.88.88,0,0,0,211,346a1.42,1.42,0,0,0-.9-.22Zm0,5.47h1.44a1.82,1.82,0,0,0,1.16-.27,1,1,0,0,0,.3-.78.85.85,0,0,0-.37-.82,2.33,2.33,0,0,0-1.11-.21h-1.42Z"/><path class="cls-1" d="M219.57,352.89A3.34,3.34,0,0,1,217,352a3.41,3.41,0,0,1-.8-2.4v-5.3H218v5.31a2,2,0,0,0,.38,1.27,1.64,1.64,0,0,0,2.36,0,2,2,0,0,0,.38-1.27v-5.31h1.8v5.3a3.41,3.41,0,0,1-.8,2.4A3.34,3.34,0,0,1,219.57,352.89Z"/><path class="cls-1" d="M226.05,344.32h1.8v8.4h-1.8Z"/><path class="cls-1" d="M231,344.32h1.8v6.9h3.67v1.5H231Z"/><path class="cls-1" d="M237.23,344.32h6.66v1.5h-2.42v6.9h-1.81v-6.9h-2.43Z"/><path class="cls-1" d="M250.45,352.72v-8.4h5.72v1.49h-4v1.84h3.67v1.49h-3.67v2.09h4v1.49Z"/><path class="cls-1" d="M259,344.32h1.88c.48.79.95,1.54,1.39,2.25l.65,1.05c.16.28.33.55.5.82l.48.78.38.62h0v-5.52H266v8.4h-1.87c-.48-.78-.93-1.52-1.37-2.22-.25-.42-.47-.77-.64-1l-.51-.83-.48-.79c-.16-.25-.29-.47-.41-.64h0v5.52H259Z"/><path class="cls-1" d="M270.44,344.32l.84,2.43c.16.46.29.84.39,1.16s.21.62.32.94l.3.92.25.79h0c.07-.23.16-.5.25-.8l.31-.95.34-1,.35-1q.39-1.17.84-2.43h1.85l-3.1,8.4h-1.83l-3.06-8.4Z"/><path class="cls-1" d="M279,344.32h1.8v8.4H279Z"/><path class="cls-1" d="M290.23,346.87a2.36,2.36,0,0,1-1.6,2.4l1.93,3.45h-2l-1.74-3.18h-1.11v3.18h-1.79v-8.4H287a5.47,5.47,0,0,1,1.33.15,2.84,2.84,0,0,1,1,.46,2.08,2.08,0,0,1,.65.79A2.71,2.71,0,0,1,290.23,346.87Zm-1.85,0A.9.9,0,0,0,288,346a2.3,2.3,0,0,0-1.18-.23h-1.08v2.26h1.08a2.08,2.08,0,0,0,1.18-.27A1,1,0,0,0,288.38,346.89Z"/><path class="cls-1" d="M292.9,348.52a5.24,5.24,0,0,1,.3-1.83,4,4,0,0,1,.82-1.38,3.7,3.7,0,0,1,1.29-.86,4.58,4.58,0,0,1,1.69-.3,4.47,4.47,0,0,1,1.67.3,3.52,3.52,0,0,1,1.29.86,3.83,3.83,0,0,1,.83,1.38,5.73,5.73,0,0,1,0,3.66,3.7,3.7,0,0,1-.83,1.37,3.42,3.42,0,0,1-1.29.87,4.47,4.47,0,0,1-1.67.3,4.58,4.58,0,0,1-1.69-.3,3.59,3.59,0,0,1-1.29-.87,3.82,3.82,0,0,1-.82-1.37A5.24,5.24,0,0,1,292.9,348.52Zm1.86,0a4.81,4.81,0,0,0,.14,1.17,2.72,2.72,0,0,0,.41.91,2,2,0,0,0,.7.59,2.42,2.42,0,0,0,2,0,1.88,1.88,0,0,0,.69-.59,2.54,2.54,0,0,0,.42-.91,4.81,4.81,0,0,0,.14-1.17,4.69,4.69,0,0,0-.14-1.17,2.47,2.47,0,0,0-.42-.91,1.79,1.79,0,0,0-.69-.59,2.42,2.42,0,0,0-2,0,1.89,1.89,0,0,0-.7.59,2.63,2.63,0,0,0-.41.91A4.69,4.69,0,0,0,294.76,348.52Z"/><path class="cls-1" d="M303.91,344.32h1.87l1.39,2.25.65,1.05.5.82.48.78c.16.24.28.45.39.62h0v-5.52h1.71v8.4h-1.88c-.47-.78-.93-1.52-1.36-2.22-.26-.42-.47-.77-.65-1s-.34-.55-.5-.83l-.49-.79-.4-.64h0v5.52h-1.7Z"/><path class="cls-1" d="M317.79,352.72q-.18-.5-.45-1.29l-.56-1.66c-.19-.58-.38-1.14-.56-1.7s-.32-1-.43-1.39h0v6h-1.66v-8.4h2.52c.35,1,.66,2,.94,2.82.17.51.31.92.41,1.24s.21.62.3.91.18.54.26.78.13.4.16.5l.15-.5c.08-.24.16-.51.26-.83l.33-1c.11-.36.23-.72.35-1.08q.41-1.29.9-2.82h2.51v8.4h-1.66v-6h0l-.29.9-.37,1.11c-.13.39-.26.79-.4,1.19s-.26.79-.38,1.15l-.33,1c-.1.3-.19.53-.25.7Z"/><path class="cls-1" d="M326.35,352.72v-8.4h5.72v1.49h-3.95v1.84h3.67v1.49h-3.67v2.09h4v1.49Z"/><path class="cls-1" d="M334.91,344.32h1.88c.48.79.95,1.54,1.39,2.25l.65,1.05c.16.28.33.55.5.82l.48.78.38.62h0v-5.52h1.7v8.4h-1.87c-.48-.78-.93-1.52-1.37-2.22-.25-.42-.47-.77-.64-1l-.51-.83-.48-.79c-.16-.25-.29-.47-.41-.64h0v5.52h-1.71Z"/><path class="cls-1" d="M344.47,344.32h6.66v1.5H348.7v6.9h-1.81v-6.9h-2.42Z"/></g><g id="LINE_ONE" data-name="LINE ONE"><path class="cls-2" d="M126.86,248.3h-3.1l-1.12-3.24h-5l-1.12,3.24h-2.94l5-14h3.22Zm-6.76-10.72c0,.11-.07.26-.14.47s-.14.44-.22.7-.17.54-.27.84-.2.59-.29.87c-.23.69-.47,1.44-.74,2.22h3.38c-.27-.78-.51-1.53-.74-2.22-.15-.4-.26-.73-.35-1s-.17-.51-.24-.75-.14-.46-.21-.67-.11-.36-.14-.47Z"/><path class="cls-2" d="M129.72,241.3a9.12,9.12,0,0,1,.48-3.07,6.47,6.47,0,0,1,1.37-2.29,5.88,5.88,0,0,1,2.16-1.43,8,8,0,0,1,2.85-.49,6.83,6.83,0,0,1,3.76,1,5.35,5.35,0,0,1,2.16,3l-2.92,1a4,4,0,0,0-1.08-1.83,2.86,2.86,0,0,0-2-.65,3.51,3.51,0,0,0-1.62.36,3.26,3.26,0,0,0-1.16,1,4.28,4.28,0,0,0-.69,1.51,7.77,7.77,0,0,0-.23,1.92,7.63,7.63,0,0,0,.23,1.91,4.45,4.45,0,0,0,.69,1.51,3.19,3.19,0,0,0,1.16,1,3.54,3.54,0,0,0,1.64.36,2.94,2.94,0,0,0,1.89-.58,3.53,3.53,0,0,0,1.11-1.76l2.88,1a6,6,0,0,1-2.16,2.8,6.42,6.42,0,0,1-3.76,1,7.5,7.5,0,0,1-2.79-.49,5.82,5.82,0,0,1-2.14-1.42,6.3,6.3,0,0,1-1.37-2.29A9.18,9.18,0,0,1,129.72,241.3Z"/><path class="cls-2" d="M146.32,241.3a8.83,8.83,0,0,1,.49-3.05,6.64,6.64,0,0,1,1.38-2.29,5.94,5.94,0,0,1,2.15-1.44,8.09,8.09,0,0,1,5.6,0,5.94,5.94,0,0,1,2.15,1.44,6.64,6.64,0,0,1,1.38,2.29,9.74,9.74,0,0,1,0,6.1,6.55,6.55,0,0,1-1.38,2.29,5.82,5.82,0,0,1-2.15,1.44,8.09,8.09,0,0,1-5.6,0,5.82,5.82,0,0,1-2.15-1.44,6.55,6.55,0,0,1-1.38-2.29A8.79,8.79,0,0,1,146.32,241.3Zm3.1,0a7.9,7.9,0,0,0,.23,1.95,4.33,4.33,0,0,0,.69,1.52,3.14,3.14,0,0,0,1.16,1,4,4,0,0,0,3.28,0,3.14,3.14,0,0,0,1.16-1,4.33,4.33,0,0,0,.69-1.52,8.38,8.38,0,0,0,0-3.9,4.33,4.33,0,0,0-.69-1.52,3.14,3.14,0,0,0-1.16-1,4,4,0,0,0-3.28,0,3.14,3.14,0,0,0-1.16,1,4.33,4.33,0,0,0-.69,1.52A7.9,7.9,0,0,0,149.42,241.3Z"/><path class="cls-2" d="M170.18,248.58a5.56,5.56,0,0,1-4.26-1.44,5.65,5.65,0,0,1-1.34-4V234.3h3v8.86a3.32,3.32,0,0,0,.64,2.11,2.73,2.73,0,0,0,3.92,0,3.32,3.32,0,0,0,.64-2.11V234.3h3v8.84a5.65,5.65,0,0,1-1.34,4A5.56,5.56,0,0,1,170.18,248.58Z"/><path class="cls-2" d="M183.7,238a1.34,1.34,0,0,0,.78,1.29,9.48,9.48,0,0,0,2.48.67,7.86,7.86,0,0,1,3.67,1.38,3.48,3.48,0,0,1,1.17,2.86,3.92,3.92,0,0,1-.42,1.83,4.07,4.07,0,0,1-1.17,1.38,5.44,5.44,0,0,1-1.79.88,7.77,7.77,0,0,1-2.26.31,7.68,7.68,0,0,1-2.38-.35,5.66,5.66,0,0,1-1.8-.93,4.41,4.41,0,0,1-1.16-1.36,3.81,3.81,0,0,1-.46-1.62l3-.48a2.56,2.56,0,0,0,.79,1.67,2.84,2.84,0,0,0,2,.65,4.61,4.61,0,0,0,1-.1,2.52,2.52,0,0,0,.82-.33,1.66,1.66,0,0,0,.55-.57,1.61,1.61,0,0,0,.2-.82,1.35,1.35,0,0,0-.65-1.2,6.31,6.31,0,0,0-2.29-.68,16.15,16.15,0,0,1-2-.46,5.23,5.23,0,0,1-1.63-.77,3.51,3.51,0,0,1-1.08-1.22,3.73,3.73,0,0,1-.39-1.79,4,4,0,0,1,.4-1.84,3.72,3.72,0,0,1,1.12-1.31,5,5,0,0,1,1.7-.79A8.48,8.48,0,0,1,186,234a8.16,8.16,0,0,1,2,.25,5.77,5.77,0,0,1,1.67.74,4.36,4.36,0,0,1,1.21,1.21,4.49,4.49,0,0,1,.66,1.64l-3,.66a2.45,2.45,0,0,0-.82-1.52,2.67,2.67,0,0,0-1.78-.56,2.78,2.78,0,0,0-1.69.42A1.34,1.34,0,0,0,183.7,238Z"/><path class="cls-2" d="M194.9,234.3H206v2.5h-4v11.5h-3V236.8h-4Z"/><path class="cls-2" d="M210.22,234.3h3v14h-3Z"/><path class="cls-2" d="M217.92,241.3a9.12,9.12,0,0,1,.48-3.07,6.47,6.47,0,0,1,1.37-2.29,5.88,5.88,0,0,1,2.16-1.43,8,8,0,0,1,2.85-.49,6.83,6.83,0,0,1,3.76,1,5.35,5.35,0,0,1,2.16,3l-2.92,1a4,4,0,0,0-1.08-1.83,2.86,2.86,0,0,0-2-.65,3.51,3.51,0,0,0-1.62.36,3.26,3.26,0,0,0-1.16,1,4.28,4.28,0,0,0-.69,1.51,7.77,7.77,0,0,0-.23,1.92,7.63,7.63,0,0,0,.23,1.91,4.45,4.45,0,0,0,.69,1.51,3.19,3.19,0,0,0,1.16,1,3.54,3.54,0,0,0,1.64.36,2.94,2.94,0,0,0,1.89-.58,3.53,3.53,0,0,0,1.11-1.76l2.88,1a6,6,0,0,1-2.16,2.8,6.42,6.42,0,0,1-3.76,1,7.5,7.5,0,0,1-2.79-.49,5.82,5.82,0,0,1-2.14-1.42,6.3,6.3,0,0,1-1.37-2.29A9.18,9.18,0,0,1,217.92,241.3Z"/><path class="cls-2" d="M237.82,238a1.34,1.34,0,0,0,.78,1.29,9.48,9.48,0,0,0,2.48.67,7.86,7.86,0,0,1,3.67,1.38,3.48,3.48,0,0,1,1.17,2.86,3.92,3.92,0,0,1-.42,1.83,4.07,4.07,0,0,1-1.17,1.38,5.44,5.44,0,0,1-1.79.88,7.77,7.77,0,0,1-2.26.31,7.68,7.68,0,0,1-2.38-.35,5.66,5.66,0,0,1-1.8-.93,4.41,4.41,0,0,1-1.16-1.36,3.81,3.81,0,0,1-.46-1.62l3-.48a2.56,2.56,0,0,0,.79,1.67,2.84,2.84,0,0,0,2,.65,4.61,4.61,0,0,0,1-.1,2.52,2.52,0,0,0,.82-.33,1.66,1.66,0,0,0,.55-.57,1.61,1.61,0,0,0,.2-.82,1.35,1.35,0,0,0-.65-1.2,6.31,6.31,0,0,0-2.29-.68,16.15,16.15,0,0,1-2-.46,5.23,5.23,0,0,1-1.63-.77,3.51,3.51,0,0,1-1.08-1.22,3.73,3.73,0,0,1-.39-1.79,4,4,0,0,1,.4-1.84,3.72,3.72,0,0,1,1.12-1.31,5,5,0,0,1,1.7-.79,8.48,8.48,0,0,1,2.14-.26,8.16,8.16,0,0,1,2,.25,5.77,5.77,0,0,1,1.67.74,4.36,4.36,0,0,1,1.21,1.21,4.49,4.49,0,0,1,.66,1.64l-3,.66a2.45,2.45,0,0,0-.82-1.52,2.67,2.67,0,0,0-1.78-.56,2.78,2.78,0,0,0-1.69.42A1.34,1.34,0,0,0,237.82,238Z"/></g><g id="ICON"><line class="cls-3" x1="203.85" y1="90.06" x2="203.85" y2="198.06"/><line class="cls-3" x1="214.18" y1="108.67" x2="214.18" y2="179.46"/><line class="cls-3" x1="223.82" y1="126.01" x2="223.82" y2="165.62"/><line class="cls-3" x1="233.45" y1="137.64" x2="233.45" y2="153.99"/><line class="cls-3" x1="193.2" y1="108.67" x2="193.2" y2="179.46"/><line class="cls-3" x1="183.56" y1="126.01" x2="183.56" y2="165.62"/><line class="cls-3" x1="173.92" y1="137.64" x2="173.92" y2="153.99"/><line class="cls-3" x1="156.6" y1="139.37" x2="156.6" y2="152.61"/><line class="cls-3" x1="147.73" y1="131.75" x2="147.73" y2="156.37"/><line class="cls-3" x1="126.87" y1="131.75" x2="126.87" y2="156.37"/><line class="cls-3" x1="137.51" y1="118.19" x2="137.51" y2="169.94"/><line class="cls-3" x1="165.03" y1="141.32" x2="165.03" y2="150.66"/><line class="cls-3" x1="117.51" y1="139.37" x2="117.51" y2="152.61"/><line class="cls-3" x1="108.08" y1="141.32" x2="108.08" y2="150.66"/><line class="cls-3" x1="252.71" y1="137.06" x2="252.71" y2="153.4"/><line class="cls-3" x1="243.06" y1="133.34" x2="243.06" y2="158.29"/></g></svg>