<svg xmlns="http://www.w3.org/2000/svg" viewBox="0 0 360 360"><defs><style>.cls-1{fill:#231f20;}.cls-2{fill:#fff;}.cls-3,.cls-4,.cls-5{fill:none;stroke:#fff;stroke-miterlimit:10;}.cls-3{stroke-width:3px;}.cls-4,.cls-5{stroke-width:1.5px;}.cls-5{stroke-linecap:round;}</style></defs><title>CARD</title><g id="BACKGROUND"><rect class="cls-1" y="0.21" width="360" height="360"/></g><g id="LINE_ONE" data-name="LINE ONE"><path class="cls-2" d="M128.72,248.36h-3.1l-1.12-3.24h-5l-1.12,3.24h-2.94l5-14h3.22ZM122,237.64c0,.11-.07.27-.14.47s-.14.44-.22.7-.17.54-.27.84-.2.59-.29.87c-.23.7-.47,1.44-.74,2.22h3.38c-.27-.78-.51-1.52-.74-2.22-.15-.4-.26-.73-.35-1s-.17-.51-.24-.75-.14-.46-.21-.67-.11-.36-.14-.47Z"/><path class="cls-2" d="M131.58,241.36a9.16,9.16,0,0,1,.48-3.07,6.47,6.47,0,0,1,1.37-2.29,5.88,5.88,0,0,1,2.16-1.43,8,8,0,0,1,2.85-.49,6.83,6.83,0,0,1,3.76,1,5.39,5.39,0,0,1,2.16,3l-2.92,1a4,4,0,0,0-1.08-1.83,2.86,2.86,0,0,0-2-.65,3.51,3.51,0,0,0-1.62.36,3.26,3.26,0,0,0-1.16,1,4.37,4.37,0,0,0-.69,1.51,7.77,7.77,0,0,0-.23,1.92,7.57,7.57,0,0,0,.23,1.91,4.37,4.37,0,0,0,.69,1.51,3.19,3.19,0,0,0,1.16,1,3.54,3.54,0,0,0,1.64.36,2.94,2.94,0,0,0,1.89-.58,3.48,3.48,0,0,0,1.11-1.76l2.88,1a6,6,0,0,1-2.16,2.8,6.42,6.42,0,0,1-3.76,1,7.5,7.5,0,0,1-2.79-.49,5.82,5.82,0,0,1-2.14-1.42,6.3,6.3,0,0,1-1.37-2.29A9.18,9.18,0,0,1,131.58,241.36Z"/><path class="cls-2" d="M148.18,241.36a9.16,9.16,0,0,1,.48-3.07A6.47,6.47,0,0,1,150,236a5.88,5.88,0,0,1,2.16-1.43,8,8,0,0,1,2.85-.49,6.83,6.83,0,0,1,3.76,1,5.39,5.39,0,0,1,2.16,3l-2.92,1a4,4,0,0,0-1.08-1.83,2.86,2.86,0,0,0-2-.65,3.51,3.51,0,0,0-1.62.36,3.26,3.26,0,0,0-1.16,1,4.37,4.37,0,0,0-.69,1.51,7.77,7.77,0,0,0-.23,1.92,7.57,7.57,0,0,0,.23,1.91,4.37,4.37,0,0,0,.69,1.51,3.19,3.19,0,0,0,1.16,1,3.54,3.54,0,0,0,1.64.36,2.94,2.94,0,0,0,1.89-.58A3.48,3.48,0,0,0,158,243.8l2.88,1a6,6,0,0,1-2.16,2.8,6.42,6.42,0,0,1-3.76,1,7.5,7.5,0,0,1-2.79-.49,5.82,5.82,0,0,1-2.14-1.42,6.3,6.3,0,0,1-1.37-2.29A9.18,9.18,0,0,1,148.18,241.36Z"/><path class="cls-2" d="M165.36,248.36v-14h9.54v2.48h-6.58v3.08h6.12v2.48h-6.12v3.48H175v2.48Z"/><path class="cls-2" d="M182.36,238a1.34,1.34,0,0,0,.78,1.29,9.1,9.1,0,0,0,2.48.67,7.86,7.86,0,0,1,3.67,1.38,3.49,3.49,0,0,1,1.17,2.86,3.92,3.92,0,0,1-.42,1.83,4.07,4.07,0,0,1-1.17,1.38,5.44,5.44,0,0,1-1.79.88,7.77,7.77,0,0,1-2.26.31,7.39,7.39,0,0,1-2.38-.35,5.66,5.66,0,0,1-1.8-.93,4.3,4.3,0,0,1-1.16-1.36,3.81,3.81,0,0,1-.46-1.62l3-.48a2.56,2.56,0,0,0,.79,1.67,2.8,2.8,0,0,0,2,.65,4.61,4.61,0,0,0,1-.1,2.14,2.14,0,0,0,.82-.33,1.66,1.66,0,0,0,.55-.57,1.61,1.61,0,0,0,.2-.82,1.35,1.35,0,0,0-.65-1.2,6.52,6.52,0,0,0-2.29-.68,16.15,16.15,0,0,1-2-.46,5.23,5.23,0,0,1-1.63-.77,3.42,3.42,0,0,1-1.08-1.22,3.73,3.73,0,0,1-.39-1.79,4,4,0,0,1,.4-1.84,3.81,3.81,0,0,1,1.12-1.31,5.22,5.22,0,0,1,1.7-.79,8.48,8.48,0,0,1,2.14-.26,8.16,8.16,0,0,1,2,.25,5.77,5.77,0,0,1,1.67.74,4.36,4.36,0,0,1,1.21,1.21,4.49,4.49,0,0,1,.66,1.64l-3,.66a2.48,2.48,0,0,0-.82-1.52,2.67,2.67,0,0,0-1.78-.56,2.78,2.78,0,0,0-1.69.42A1.34,1.34,0,0,0,182.36,238Z"/><path class="cls-2" d="M197.84,238a1.34,1.34,0,0,0,.78,1.29,9.1,9.1,0,0,0,2.48.67,7.86,7.86,0,0,1,3.67,1.38,3.49,3.49,0,0,1,1.17,2.86,3.92,3.92,0,0,1-.42,1.83,4.07,4.07,0,0,1-1.17,1.38,5.44,5.44,0,0,1-1.79.88,7.77,7.77,0,0,1-2.26.31,7.39,7.39,0,0,1-2.38-.35,5.66,5.66,0,0,1-1.8-.93A4.3,4.3,0,0,1,195,246a3.81,3.81,0,0,1-.46-1.62l3-.48a2.56,2.56,0,0,0,.79,1.67,2.8,2.8,0,0,0,2,.65,4.61,4.61,0,0,0,1-.1,2.14,2.14,0,0,0,.82-.33,1.66,1.66,0,0,0,.55-.57,1.61,1.61,0,0,0,.2-.82,1.35,1.35,0,0,0-.65-1.2,6.52,6.52,0,0,0-2.29-.68,16.15,16.15,0,0,1-2-.46,5.23,5.23,0,0,1-1.63-.77,3.42,3.42,0,0,1-1.08-1.22,3.73,3.73,0,0,1-.39-1.79,4,4,0,0,1,.4-1.84,3.81,3.81,0,0,1,1.12-1.31,5.22,5.22,0,0,1,1.7-.79,8.48,8.48,0,0,1,2.14-.26,8.16,8.16,0,0,1,2,.25,5.77,5.77,0,0,1,1.67.74,4.36,4.36,0,0,1,1.21,1.21,4.49,4.49,0,0,1,.66,1.64l-3,.66a2.48,2.48,0,0,0-.82-1.52,2.67,2.67,0,0,0-1.78-.56,2.78,2.78,0,0,0-1.69.42A1.34,1.34,0,0,0,197.84,238Z"/><path class="cls-2" d="M216.24,234.36h11.1v2.5h-4v11.5h-3v-11.5h-4Z"/><path class="cls-2" d="M230.38,241.36a8.83,8.83,0,0,1,.49-3.05,6.64,6.64,0,0,1,1.38-2.29,6.07,6.07,0,0,1,2.15-1.44,8.09,8.09,0,0,1,5.6,0,6.07,6.07,0,0,1,2.15,1.44,6.64,6.64,0,0,1,1.38,2.29,9.74,9.74,0,0,1,0,6.1,6.55,6.55,0,0,1-1.38,2.29,5.82,5.82,0,0,1-2.15,1.44,8.09,8.09,0,0,1-5.6,0,5.82,5.82,0,0,1-2.15-1.44,6.55,6.55,0,0,1-1.38-2.29A8.79,8.79,0,0,1,230.38,241.36Zm3.1,0a7.9,7.9,0,0,0,.23,1.95,4.25,4.25,0,0,0,.69,1.52,3.14,3.14,0,0,0,1.16,1,4,4,0,0,0,3.28,0,3.14,3.14,0,0,0,1.16-1,4.25,4.25,0,0,0,.69-1.52,7.9,7.9,0,0,0,.23-1.95,8,8,0,0,0-.23-2,4.33,4.33,0,0,0-.69-1.52,3.24,3.24,0,0,0-1.16-1,4,4,0,0,0-3.28,0,3.24,3.24,0,0,0-1.16,1,4.33,4.33,0,0,0-.69,1.52A8,8,0,0,0,233.48,241.36Z"/></g><g id="LINE_TWO" data-name="LINE TWO"><path class="cls-2" d="M74.87,252.15c.49,1.4,1,2.75,1.4,4.06q.41,1.14.66,1.92c.17.52.35,1,.52,1.57l.5,1.53q.24.74.42,1.32h0l.42-1.33.51-1.59c.18-.56.37-1.13.57-1.72l.58-1.7c.44-1.31.91-2.66,1.4-4.06H85l-5.16,14H76.75l-5.1-14Z"/><path class="cls-2" d="M89.09,252.15h3v14h-3Z"/><path class="cls-2" d="M97.37,266.15v-14h9.54v2.48h-6.58v3.08h6.12v2.48h-6.12v3.48H107v2.48Z"/><path class="cls-2" d="M128.81,252.15l-3.5,14h-3.48c-.29-1.29-.57-2.53-.84-3.7l-.4-1.74c-.11-.47-.21-.93-.31-1.4s-.2-.91-.3-1.34-.18-.79-.25-1.1h-.06q-.11.47-.24,1.11c-.09.43-.2.9-.32,1.39s-.24,1-.36,1.53-.24,1-.36,1.55c-.28,1.17-.58,2.41-.9,3.7H114l-3.52-14h3c.35,1.49.67,2.91,1,4.26.17.8.32,1.46.44,2s.23,1,.34,1.56l.31,1.48c.1.47.18.86.23,1.18h.06c.07-.32.15-.72.25-1.19s.21-1,.34-1.53l.4-1.72c.14-.6.28-1.19.41-1.76q.48-2,1-4.26h2.82q.54,2.23,1,4.26c.19.8.34,1.46.47,2s.25,1,.37,1.56.23,1,.33,1.48.18.86.25,1.18h.06c.07-.32.15-.72.25-1.19l.33-1.53c.12-.55.25-1.12.38-1.72s.27-1.19.4-1.76c.32-1.35.65-2.77,1-4.26Z"/><path class="cls-2" d="M135.45,255.83a1.34,1.34,0,0,0,.78,1.29,9.48,9.48,0,0,0,2.48.67,7.86,7.86,0,0,1,3.67,1.38,3.48,3.48,0,0,1,1.17,2.86,3.92,3.92,0,0,1-.42,1.83,4.07,4.07,0,0,1-1.17,1.38,5.65,5.65,0,0,1-1.79.88,7.77,7.77,0,0,1-2.26.31,7.68,7.68,0,0,1-2.38-.35,5.66,5.66,0,0,1-1.8-.93,4.41,4.41,0,0,1-1.16-1.36,3.81,3.81,0,0,1-.46-1.62l3-.48a2.56,2.56,0,0,0,.79,1.67,2.84,2.84,0,0,0,2,.65,4.61,4.61,0,0,0,1-.1,2.52,2.52,0,0,0,.82-.33,1.66,1.66,0,0,0,.55-.57,1.63,1.63,0,0,0,.2-.82,1.35,1.35,0,0,0-.65-1.2,6.31,6.31,0,0,0-2.29-.68,16.15,16.15,0,0,1-2-.46,5.47,5.47,0,0,1-1.63-.77,3.51,3.51,0,0,1-1.08-1.22,3.76,3.76,0,0,1-.39-1.79,3.93,3.93,0,0,1,.4-1.84,3.72,3.72,0,0,1,1.12-1.31,5,5,0,0,1,1.7-.79,8.48,8.48,0,0,1,2.14-.26,7.71,7.71,0,0,1,2,.25,5.51,5.51,0,0,1,1.67.74,4.36,4.36,0,0,1,1.21,1.21,4.49,4.49,0,0,1,.66,1.64l-3,.66a2.45,2.45,0,0,0-.82-1.52,2.67,2.67,0,0,0-1.78-.56,2.78,2.78,0,0,0-1.69.42A1.33,1.33,0,0,0,135.45,255.83Z"/><path class="cls-2" d="M154.47,258.49h3.86v-3.88h2.28v3.88h3.86v2.28h-3.86v4h-2.28v-4h-3.86Z"/><path class="cls-2" d="M176,252.15h5.22a8.36,8.36,0,0,1,2.88.47,5.66,5.66,0,0,1,3.51,3.55,9.68,9.68,0,0,1,0,6,5.66,5.66,0,0,1-3.51,3.55,8.36,8.36,0,0,1-2.88.47H176Zm9,7a7,7,0,0,0-.23-1.85,4.07,4.07,0,0,0-.7-1.43,3,3,0,0,0-1.19-.92,4.26,4.26,0,0,0-1.72-.32H179v9h2.12a4.26,4.26,0,0,0,1.72-.32,3,3,0,0,0,1.19-.92,4.07,4.07,0,0,0,.7-1.43A7,7,0,0,0,185,259.15Z"/><path class="cls-2" d="M204.25,266.15h-3.1L200,262.91h-5l-1.12,3.24H191l5-14h3.22Zm-6.76-10.72c0,.11-.07.26-.14.47s-.14.44-.22.7-.17.54-.27.84-.2.59-.29.87c-.23.69-.47,1.43-.74,2.22h3.38c-.27-.79-.51-1.53-.74-2.22-.15-.4-.26-.73-.35-1s-.17-.51-.24-.75-.14-.46-.21-.67-.11-.36-.14-.47Z"/><path class="cls-2" d="M210.33,260.29l-5.3-8.14h3.44l3.42,5.36,3.4-5.36h3.34l-5.3,8.14v5.86h-3Z"/><path class="cls-2" d="M222.65,252.15h3v11.5h6.12v2.5h-9.12Z"/><path class="cls-2" d="M236,252.15h3v14h-3Z"/><path class="cls-2" d="M250,258.39h6.44v7.76h-2.72v-1.44a3.69,3.69,0,0,1-1.36,1.22,4.83,4.83,0,0,1-2.34.5,6.29,6.29,0,0,1-2.75-.57,5.72,5.72,0,0,1-2-1.55,6.7,6.7,0,0,1-1.19-2.3,9.56,9.56,0,0,1-.4-2.82,9,9,0,0,1,.47-3,6.53,6.53,0,0,1,1.37-2.31,6.18,6.18,0,0,1,2.19-1.51,7.54,7.54,0,0,1,2.93-.54,6.74,6.74,0,0,1,3.62.93,5.74,5.74,0,0,1,2.26,2.75l-2.78,1.14a3.59,3.59,0,0,0-1.22-1.73,3.24,3.24,0,0,0-2-.61,3.35,3.35,0,0,0-2.72,1.25,5.72,5.72,0,0,0-1,3.69q0,4.68,3.7,4.68a4,4,0,0,0,1.08-.15,3.2,3.2,0,0,0,1-.46,2.51,2.51,0,0,0,.73-.79,2.24,2.24,0,0,0,.28-1.16v-.64H250Z"/><path class="cls-2" d="M261.63,252.15h3v5.54h5.3v-5.54h3v14h-3v-5.94h-5.3v5.94h-3Z"/><path class="cls-2" d="M277.15,252.15h11.1v2.5h-4v11.5h-3v-11.5h-4Z"/></g><g id="ICON"><rect class="cls-3" x="125.81" y="90.47" width="108" height="108"/><rect class="cls-3" x="132.87" y="97.53" width="93.88" height="93.88"/><line class="cls-3" x1="179.81" y1="96.5" x2="179.81" y2="191.42"/><line class="cls-3" x1="132.87" y1="143.96" x2="226.75" y2="143.96"/><circle class="cls-4" cx="203.86" cy="121.42" r="8.44"/><line class="cls-5" x1="203.86" y1="110.35" x2="203.86" y2="102.81"/><line class="cls-5" x1="203.86" y1="140.04" x2="203.86" y2="132.5"/><line class="cls-5" x1="214.93" y1="121.42" x2="222.47" y2="121.42"/><line class="cls-5" x1="185.24" y1="121.42" x2="192.78" y2="121.42"/><line class="cls-5" x1="211.69" y1="113.59" x2="217.02" y2="108.26"/><line class="cls-5" x1="190.7" y1="134.59" x2="196.03" y2="129.26"/><line class="cls-5" x1="211.69" y1="129.26" x2="217.02" y2="134.59"/><line class="cls-5" x1="190.7" y1="108.26" x2="196.03" y2="113.59"/></g></svg>