<svg xmlns="http://www.w3.org/2000/svg" viewBox="0 0 360 360"><defs><style>.cls-1{fill:#fff;}.cls-2,.cls-3{fill:none;stroke:#fff;stroke-miterlimit:10;}.cls-2{stroke-width:3px;}.cls-3{stroke-linecap:round;stroke-width:2px;}</style></defs><title>CARD</title><g id="Layer_6" data-name="Layer 6"><rect width="360" height="360"/></g><g id="LINE_ONE" data-name="LINE ONE"><path class="cls-1" d="M107.75,248.16v-14h9.54v2.48h-6.58v3.08h6.12v2.48h-6.12v3.48h6.68v2.48Z"/><path class="cls-1" d="M129.47,240.82l5.18,7.34h-3.6l-3.38-4.86-3.44,4.86h-3.36L126,241l-4.74-6.8h3.62l2.94,4.32,3-4.32h3.38Z"/><path class="cls-1" d="M137.29,241.16a9.12,9.12,0,0,1,.48-3.07,6.39,6.39,0,0,1,1.37-2.29,5.64,5.64,0,0,1,2.16-1.43,7.82,7.82,0,0,1,2.85-.49,6.75,6.75,0,0,1,3.76,1,5.32,5.32,0,0,1,2.16,3l-2.92,1a3.92,3.92,0,0,0-1.08-1.83,2.82,2.82,0,0,0-2-.65,3.51,3.51,0,0,0-1.62.36,3.26,3.26,0,0,0-1.16,1,4.28,4.28,0,0,0-.69,1.51,8.09,8.09,0,0,0,0,3.83,4.45,4.45,0,0,0,.69,1.51,3.29,3.29,0,0,0,1.16,1,3.54,3.54,0,0,0,1.64.36,3,3,0,0,0,1.89-.58,3.57,3.57,0,0,0,1.11-1.76l2.88,1a6.07,6.07,0,0,1-2.16,2.8,6.42,6.42,0,0,1-3.76,1,7.7,7.7,0,0,1-2.79-.49,5.94,5.94,0,0,1-2.14-1.42,6.39,6.39,0,0,1-1.37-2.29A9.26,9.26,0,0,1,137.29,241.16Z"/><path class="cls-1" d="M154.47,248.16v-14H164v2.48h-6.58v3.08h6.12v2.48h-6.12v3.48h6.68v2.48Z"/><path class="cls-1" d="M168.75,234.16h3v11.5h6.12v2.5h-9.12Z"/><path class="cls-1" d="M182.07,234.16h3v11.5h6.12v2.5h-9.12Z"/><path class="cls-1" d="M195.39,248.16v-14h9.54v2.48h-6.58v3.08h6.12v2.48h-6.12v3.48H205v2.48Z"/><path class="cls-1" d="M209.67,234.16h3.12l2.32,3.76c.44.7.8,1.29,1.08,1.75L217,241l.8,1.29.64,1h.06v-9.2h2.84v14h-3.12l-2.28-3.7-1.07-1.73c-.29-.46-.57-.92-.85-1.38l-.81-1.32c-.26-.42-.48-.78-.67-1.07h-.06v9.2h-2.84Z"/><path class="cls-1" d="M226.07,241.16a9.12,9.12,0,0,1,.48-3.07,6.39,6.39,0,0,1,1.37-2.29,5.64,5.64,0,0,1,2.16-1.43,7.82,7.82,0,0,1,2.85-.49,6.75,6.75,0,0,1,3.76,1,5.32,5.32,0,0,1,2.16,3l-2.92,1a3.92,3.92,0,0,0-1.08-1.83,2.82,2.82,0,0,0-2-.65,3.51,3.51,0,0,0-1.62.36,3.26,3.26,0,0,0-1.16,1,4.28,4.28,0,0,0-.69,1.51,8.09,8.09,0,0,0,0,3.83,4.45,4.45,0,0,0,.69,1.51,3.29,3.29,0,0,0,1.16,1,3.54,3.54,0,0,0,1.64.36,3,3,0,0,0,1.89-.58,3.57,3.57,0,0,0,1.11-1.76l2.88,1a6.07,6.07,0,0,1-2.16,2.8,6.42,6.42,0,0,1-3.76,1,7.7,7.7,0,0,1-2.79-.49,5.94,5.94,0,0,1-2.14-1.42,6.39,6.39,0,0,1-1.37-2.29A9.26,9.26,0,0,1,226.07,241.16Z"/><path class="cls-1" d="M243.25,248.16v-14h9.54v2.48h-6.58v3.08h6.12v2.48h-6.12v3.48h6.68v2.48Z"/></g><g id="ICON"><path class="cls-2" d="M202.68,139v-15c0-1.57-.7-2.27-2.29-2.27q-10.2,0-20.39,0H159.55c-1.53,0-2.22.71-2.22,2.26,0,5.77,0,11.54,0,17.3A30.38,30.38,0,0,0,159,152.69a24,24,0,0,0,6.92,9.93,21.3,21.3,0,0,0,9.51,4.76c0,.42,0,.83,0,1.25.09,3.42.21,6.84.28,10.27a17.15,17.15,0,0,1-1,6.18c-.47,1.35-1,2.68-1.56,4h13.72l-.31-.69a19.41,19.41,0,0,1-2.19-7.66c-.11-3.11,0-6.23.07-9.35,0-1.36,0-2.72,0-4a21.26,21.26,0,0,0,9.78-4.88,23.79,23.79,0,0,0,7.34-11.43,23.06,23.06,0,0,0,1.12-6.32C202.71,142.85,202.68,140.91,202.68,139Z"/><path class="cls-2" d="M192.45,192.54H167.57c0-.79-.06-1.55,0-2.3a1.12,1.12,0,0,1,1.17-1.12h22.46c.76,0,1.21.5,1.23,1.37C192.46,191.15,192.45,191.82,192.45,192.54Z"/><path class="cls-2" d="M196.76,198.33h-33.5c0-1.33-.08-2.62,0-3.89s.7-1.89,1.57-1.89q15.12,0,30.24,0c1,0,1.63.85,1.67,2.32C196.78,196,196.76,197.12,196.76,198.33Z"/><path class="cls-1" d="M186.86,152.28l-.37-.23-6.36-3.89a.21.21,0,0,0-.26,0l-6.58,4-.15.08c0-.08,0-.14,0-.19l1.8-7.51a.16.16,0,0,0-.06-.19l-5.89-5s-.07-.07-.13-.11l.84-.07,1.89-.16,1.54-.12,1.83-.15,1.5-.12a1.28,1.28,0,0,1,.19,0c.18,0,.25-.07.31-.23l2.94-7.08a.81.81,0,0,0,.06-.13l.4,1,2.65,6.36a.14.14,0,0,0,.15.11l1.86.15,1.51.12,1.86.15,1.52.12,1.15.09-.23.21-5.79,4.95a.16.16,0,0,0-.06.18c.56,2.36,1.13,4.71,1.69,7.06C186.76,151.83,186.81,152,186.86,152.28Z"/><path class="cls-2" d="M157,137.58c-4.58.1-8,2.61-8.35,6.57-.54,5.79,5.4,14.89,14.14,17.95l4.19,1.47"/><path class="cls-2" d="M203.5,137.25c4.57.1,8,2.61,8.34,6.57.55,5.79-5.39,14.89-14.13,18l-4.2,1.46"/><line class="cls-3" x1="185.33" y1="103.59" x2="186.79" y2="90.33"/><line class="cls-3" x1="198.47" y1="106.97" x2="203.3" y2="94.54"/><line class="cls-3" x1="209.52" y1="113.44" x2="217.54" y2="102.78"/><line class="cls-3" x1="217.88" y1="122.37" x2="228.25" y2="113.97"/><line class="cls-3" x1="224.22" y1="133.81" x2="236.51" y2="128.62"/><line class="cls-3" x1="226.95" y1="145.79" x2="240.25" y2="144.73"/><line class="cls-3" x1="226.45" y1="158.36" x2="239.64" y2="160.31"/><line class="cls-3" x1="223.51" y1="170.61" x2="235.68" y2="176.07"/><line class="cls-3" x1="216.84" y1="181.02" x2="227.4" y2="189.18"/><line class="cls-3" x1="174.67" y1="103.62" x2="173.21" y2="90.36"/><line class="cls-3" x1="161.53" y1="107" x2="156.7" y2="94.56"/><line class="cls-3" x1="150.48" y1="113.47" x2="142.46" y2="102.81"/><line class="cls-3" x1="142.12" y1="122.4" x2="131.75" y2="114"/><line class="cls-3" x1="135.78" y1="133.84" x2="123.49" y2="128.65"/><line class="cls-3" x1="133.05" y1="145.82" x2="119.75" y2="144.76"/><line class="cls-3" x1="133.55" y1="158.39" x2="120.36" y2="160.34"/><line class="cls-3" x1="136.49" y1="170.64" x2="124.32" y2="176.1"/><line class="cls-3" x1="143.16" y1="181.05" x2="132.6" y2="189.21"/></g></svg>