<svg xmlns="http://www.w3.org/2000/svg" viewBox="0 0 360 360"><defs><style>.cls-1,.cls-5,.cls-6{fill:#fff;}.cls-2{fill:#4f497b;}.cls-3,.cls-4,.cls-7{fill:none;}.cls-3,.cls-4,.cls-5,.cls-6,.cls-7{stroke:#4f497b;stroke-miterlimit:10;}.cls-4{stroke-width:3px;}.cls-6,.cls-7{stroke-width:2px;}.cls-7{stroke-linecap:round;}</style></defs><title>CARD</title><g id="Layer_6" data-name="Layer 6"><rect class="cls-1" x="0.42" y="-0.41" width="360" height="360"/></g><g id="BACKGROUND"><rect class="cls-2" y="336.06" width="360" height="23.94"/><path class="cls-1" d="M312.05,346.29a.82.82,0,0,0,.47.78,5.38,5.38,0,0,0,1.49.4,4.68,4.68,0,0,1,2.2.83,2.07,2.07,0,0,1,.7,1.72,2.3,2.3,0,0,1-.25,1.09,2.43,2.43,0,0,1-.7.83,3.21,3.21,0,0,1-1.08.53,4.84,4.84,0,0,1-1.35.18,4.53,4.53,0,0,1-1.43-.21,3.23,3.23,0,0,1-1.08-.55,2.71,2.71,0,0,1-.7-.82,2.11,2.11,0,0,1-.27-1l1.8-.29a1.5,1.5,0,0,0,.47,1,1.71,1.71,0,0,0,1.21.39,2.91,2.91,0,0,0,.6-.06,1.27,1.27,0,0,0,.49-.2,1,1,0,0,0,.33-.34.94.94,0,0,0,.12-.49.81.81,0,0,0-.39-.72,3.85,3.85,0,0,0-1.37-.41,9.6,9.6,0,0,1-1.22-.27,3.08,3.08,0,0,1-1-.47,2,2,0,0,1-.65-.73,2.2,2.2,0,0,1-.23-1.07,2.45,2.45,0,0,1,.24-1.11,2.18,2.18,0,0,1,.67-.78,3.21,3.21,0,0,1,1-.48,5.17,5.17,0,0,1,1.28-.15,4.66,4.66,0,0,1,1.21.15,3.55,3.55,0,0,1,1,.44,2.63,2.63,0,0,1,.72.73,2.67,2.67,0,0,1,.4,1l-1.83.4a1.39,1.39,0,0,0-.49-.91,1.56,1.56,0,0,0-1.07-.34,1.65,1.65,0,0,0-1,.25A.82.82,0,0,0,312.05,346.29Z"/><path class="cls-1" d="M318.77,344.09h6.66v1.5H323v6.9h-1.82v-6.9h-2.42Z"/><path class="cls-1" d="M334.3,352.49h-1.86l-.67-1.95h-3l-.67,1.95h-1.76l3-8.4h1.93Zm-4.06-6.43a2.83,2.83,0,0,1-.08.28c0,.12-.09.26-.13.42l-.17.5c-.06.18-.12.35-.17.52-.14.42-.28.86-.44,1.33h2c-.16-.47-.3-.91-.44-1.33-.09-.24-.16-.43-.21-.59s-.1-.31-.14-.45-.09-.28-.13-.4a2.83,2.83,0,0,1-.08-.28Z"/><path class="cls-1" d="M336.78,352.49v-8.4h5.75v1.48h-4v1.85h3.66v1.49h-3.66v3.58Z"/><path class="cls-1" d="M345.22,352.49v-8.4H351v1.48h-4v1.85h3.66v1.49H347v3.58Z"/></g><g id="LINE_ONE" data-name="LINE ONE"><path class="cls-2" d="M149.33,237.84a1.34,1.34,0,0,0,.78,1.29,9.36,9.36,0,0,0,2.48.67,7.91,7.91,0,0,1,3.67,1.38,3.48,3.48,0,0,1,1.17,2.86,3.92,3.92,0,0,1-.42,1.83,4.07,4.07,0,0,1-1.17,1.38,5.65,5.65,0,0,1-1.79.88,7.81,7.81,0,0,1-2.26.31,7.63,7.63,0,0,1-2.38-.35,5.66,5.66,0,0,1-1.8-.93,4.28,4.28,0,0,1-1.16-1.36,3.67,3.67,0,0,1-.46-1.62l3-.48a2.52,2.52,0,0,0,.79,1.67,2.84,2.84,0,0,0,2,.65,4.68,4.68,0,0,0,1-.1,2.61,2.61,0,0,0,.82-.33,1.76,1.76,0,0,0,.55-.57,1.63,1.63,0,0,0,.2-.82,1.35,1.35,0,0,0-.65-1.2,6.38,6.38,0,0,0-2.29-.68,15.39,15.39,0,0,1-2-.46,5.47,5.47,0,0,1-1.63-.77,3.51,3.51,0,0,1-1.08-1.22,3.76,3.76,0,0,1-.39-1.79,3.93,3.93,0,0,1,.4-1.84,3.62,3.62,0,0,1,1.12-1.31,4.94,4.94,0,0,1,1.7-.79,8.42,8.42,0,0,1,2.14-.26,7.71,7.71,0,0,1,2,.25,5.62,5.62,0,0,1,1.67.74,4.35,4.35,0,0,1,1.87,2.85l-3,.66a2.45,2.45,0,0,0-.82-1.52,2.69,2.69,0,0,0-1.78-.56,2.76,2.76,0,0,0-1.69.42A1.33,1.33,0,0,0,149.33,237.84Z"/><path class="cls-2" d="M160.53,234.16h11.1v2.5h-4v11.5h-3v-11.5h-4Z"/><path class="cls-2" d="M186.41,248.16h-3.1l-1.12-3.24h-5l-1.12,3.24h-2.94l5-14h3.22Zm-6.76-10.72-.14.47c-.07.21-.14.44-.22.7s-.17.54-.27.84-.2.59-.29.87l-.74,2.22h3.38c-.27-.79-.52-1.53-.74-2.22-.15-.4-.27-.73-.35-1s-.17-.51-.24-.75-.15-.46-.21-.67a4,4,0,0,1-.14-.47Z"/><path class="cls-2" d="M190.55,248.16v-14h9.58v2.48h-6.62v3.08h6.1v2.48h-6.1v6Z"/><path class="cls-2" d="M204.61,248.16v-14h9.58v2.48h-6.62v3.08h6.1v2.48h-6.1v6Z"/></g><g id="LINE_TWO" data-name="LINE TWO"><path class="cls-2" d="M109.39,266V252h9.54v2.48h-6.58v3.08h6.12V260h-6.12v3.48H119V266Z"/><path class="cls-2" d="M131.11,258.61l5.18,7.34h-3.6l-3.38-4.86L125.87,266h-3.36l5.14-7.2-4.74-6.8h3.62l2.94,4.32,3-4.32h3.38Z"/><path class="cls-2" d="M143.39,261V266h-3V252h5.32a8.93,8.93,0,0,1,2.28.26,4.81,4.81,0,0,1,1.74.8,3.7,3.7,0,0,1,1.12,1.38,4.75,4.75,0,0,1,.4,2,4.87,4.87,0,0,1-.41,2.07,4.05,4.05,0,0,1-1.14,1.44,4.83,4.83,0,0,1-1.75.84,8.76,8.76,0,0,1-2.24.27Zm4.82-4.62a1.68,1.68,0,0,0-.69-1.56,4.11,4.11,0,0,0-2.09-.42h-2v4.12h2a3.6,3.6,0,0,0,2.09-.5A1.9,1.9,0,0,0,148.21,256.41Z"/><path class="cls-2" d="M155.67,266V252h9.54v2.48h-6.58v3.08h6.12V260h-6.12v3.48h6.68V266Z"/><path class="cls-2" d="M180.43,256.21a4.26,4.26,0,0,1-.71,2.54,4.31,4.31,0,0,1-1.95,1.46L181,266h-3.3l-2.9-5.3h-1.86V266h-3V252h5.12a8.89,8.89,0,0,1,2.21.25A4.61,4.61,0,0,1,179,253a3.5,3.5,0,0,1,1.08,1.32A4.47,4.47,0,0,1,180.43,256.21Zm-3.08,0a1.51,1.51,0,0,0-.65-1.41,3.93,3.93,0,0,0-2-.39h-1.8v3.78h1.8a3.5,3.5,0,0,0,2-.45A1.74,1.74,0,0,0,177.35,256.23Z"/><path class="cls-2" d="M185.47,252h3v14h-3Z"/><path class="cls-2" d="M193.75,266V252h9.54v2.48h-6.58v3.08h6.12V260h-6.12v3.48h6.68V266Z"/><path class="cls-2" d="M208,252h3.12l2.32,3.76c.44.7.8,1.29,1.08,1.75l.84,1.37.8,1.29.64,1h.06V252h2.84v14h-3.12l-2.28-3.7-1.07-1.73c-.29-.46-.57-.92-.85-1.38l-.81-1.32-.67-1.07h-.06V266H208Z"/><path class="cls-2" d="M224.43,259a9.12,9.12,0,0,1,.48-3.07,6.25,6.25,0,0,1,1.37-2.29,5.64,5.64,0,0,1,2.16-1.43,7.74,7.74,0,0,1,2.85-.49,6.77,6.77,0,0,1,3.76,1,5.32,5.32,0,0,1,2.16,3l-2.92,1a3.92,3.92,0,0,0-1.08-1.83,2.82,2.82,0,0,0-2-.65,3.46,3.46,0,0,0-1.62.36,3.18,3.18,0,0,0-1.16,1,4.28,4.28,0,0,0-.69,1.51,8.09,8.09,0,0,0,0,3.83,4.45,4.45,0,0,0,.69,1.51,3.21,3.21,0,0,0,1.16,1,3.51,3.51,0,0,0,1.64.36,3,3,0,0,0,1.89-.58,3.72,3.72,0,0,0,1.11-1.76l2.88,1a6.07,6.07,0,0,1-2.16,2.8,6.44,6.44,0,0,1-3.76,1,7.7,7.7,0,0,1-2.79-.49,5.86,5.86,0,0,1-2.14-1.42,6.25,6.25,0,0,1-1.37-2.29A9.26,9.26,0,0,1,224.43,259Z"/><path class="cls-2" d="M241.61,266V252h9.54v2.48h-6.58v3.08h6.12V260h-6.12v3.48h6.68V266Z"/></g><g id="ICON"><rect class="cls-3" x="154.31" y="124.37" width="51.33" height="39" rx="10.01"/><circle class="cls-4" cx="179.9" cy="143.64" r="39.02"/><polygon class="cls-5" points="173.93 158.28 172.63 159.04 171.75 159.97 171.59 160.38 171.59 163.37 160.96 163.37 160.96 167.48 161.39 168.21 161.88 168.7 162.29 169.22 162.48 169.46 162.48 171.8 171.32 171.8 171.32 170.88 171.97 170.2 173.03 169.41 174.39 168.27 174.83 167.5 175.05 166.8 175.05 158.28 175.05 158.01 174.56 158.01 173.93 158.28"/><rect class="cls-6" x="161.2" y="171.8" width="11.91" height="25.98"/><polygon class="cls-5" points="186.06 158.28 187.37 159.04 188.24 159.97 188.4 160.38 188.4 163.37 199.04 163.37 199.04 167.48 198.6 168.21 198.11 168.7 197.7 169.22 197.51 169.46 197.51 171.8 188.67 171.8 188.67 170.88 188.02 170.2 186.96 169.41 185.6 168.27 185.16 167.5 184.95 166.8 184.95 158.28 184.95 158.01 185.44 158.01 186.06 158.28"/><rect class="cls-6" x="186.88" y="171.8" width="11.91" height="25.98" transform="translate(385.67 369.58) rotate(-180)"/><path class="cls-2" d="M169.76,137v5.24h-.89l-.24-1a1.6,1.6,0,0,1-1.51,1.12,2.38,2.38,0,0,1-.93-.19,2,2,0,0,1-.84-.81,5.47,5.47,0,0,1-.61-1.77,19.14,19.14,0,0,1,0-6,5.56,5.56,0,0,1,.61-1.78,2.18,2.18,0,0,1,.91-.88,2.56,2.56,0,0,1,1.1-.24,2.46,2.46,0,0,1,1,.19,1.9,1.9,0,0,1,.78.67,3.71,3.71,0,0,1,.51,1.28,9.36,9.36,0,0,1,.18,2h-1.42a7.47,7.47,0,0,0-.24-2.22c-.16-.46-.42-.69-.8-.69a1,1,0,0,0-.59.19,1.45,1.45,0,0,0-.45.71,6.38,6.38,0,0,0-.29,1.41q-.09.9-.09,2.28a21.09,21.09,0,0,0,.1,2.33,6.7,6.7,0,0,0,.28,1.4,1.39,1.39,0,0,0,.4.68.79.79,0,0,0,.51.19.88.88,0,0,0,.49-.15,1.08,1.08,0,0,0,.41-.49,3.78,3.78,0,0,0,.27-.92,9.4,9.4,0,0,0,.09-1.42h-1.15V137Z"/><path class="cls-2" d="M174.34,137.21h-1.15v5.07h-1.31V131h2.41a3.31,3.31,0,0,1,1,.14,1.65,1.65,0,0,1,.76.48,2.37,2.37,0,0,1,.49,1,5.85,5.85,0,0,1,.17,1.52,5.23,5.23,0,0,1-.27,1.79,2,2,0,0,1-.85,1.09l1.38,5.36h-1.39Zm-1.15-1.13h1.15a.78.78,0,0,0,.79-.48,4.55,4.55,0,0,0,.2-1.56,6.32,6.32,0,0,0-.06-.95,1.37,1.37,0,0,0-.2-.6.79.79,0,0,0-.38-.32,1.66,1.66,0,0,0-.59-.09h-.91Z"/><path class="cls-2" d="M178.71,131h3.77v1.2H180v3.9h2.22v1.2H180v3.83h2.46v1.2h-3.77Z"/><path class="cls-2" d="M187.74,139.41h-2.18l-.44,2.87h-1.34L185.85,131h1.65l2.05,11.33H188.2Zm-2-1.19h1.81l-.9-5.89Z"/><path class="cls-2" d="M195,131v1.2h-2v10.13h-1.31V132.15h-2V131Z"/><path class="cls-2" d="M171,144.24h1.18l-1.13,11.32H169.6l-1.49-9.3-1.33,9.3h-1.55l-1.41-11.32h1.31l.92,9.32,1.41-9.32h1.28l1.57,9.32Z"/><path class="cls-2" d="M176.3,144.07a2.79,2.79,0,0,1,1,.2,1.77,1.77,0,0,1,.86.82,5.54,5.54,0,0,1,.58,1.77,21.11,21.11,0,0,1,0,6.08,5.7,5.7,0,0,1-.58,1.78,1.79,1.79,0,0,1-.86.81,2.79,2.79,0,0,1-1,.2,2.75,2.75,0,0,1-1-.2,1.79,1.79,0,0,1-.86-.81,5.7,5.7,0,0,1-.58-1.78,21.11,21.11,0,0,1,0-6.08,5.54,5.54,0,0,1,.58-1.77,1.77,1.77,0,0,1,.86-.82A2.75,2.75,0,0,1,176.3,144.07Zm0,1.23a1,1,0,0,0-.56.15,1.16,1.16,0,0,0-.4.63,7.48,7.48,0,0,0-.24,1.39c0,.61-.08,1.42-.08,2.43s0,1.82.08,2.43a7.48,7.48,0,0,0,.24,1.39,1.16,1.16,0,0,0,.4.63,1,1,0,0,0,.56.15,1.29,1.29,0,0,0,.57-.13,1.07,1.07,0,0,0,.4-.59,5.8,5.8,0,0,0,.24-1.38c.06-.61.08-1.44.08-2.5s0-1.88-.08-2.49a6.47,6.47,0,0,0-.23-1.39,1,1,0,0,0-.4-.59A1.27,1.27,0,0,0,176.3,145.3Z"/><path class="cls-2" d="M183.42,150.5h-1.15v5.06H181V144.24h2.41a3.37,3.37,0,0,1,1,.13,1.75,1.75,0,0,1,.76.49,2.43,2.43,0,0,1,.49.95,5.79,5.79,0,0,1,.17,1.52,5.27,5.27,0,0,1-.27,1.79,2.05,2.05,0,0,1-.85,1.09l1.38,5.35h-1.4Zm-1.15-1.13h1.15a.77.77,0,0,0,.78-.49,4.17,4.17,0,0,0,.21-1.55,6.22,6.22,0,0,0-.06-1,1.82,1.82,0,0,0-.2-.61.81.81,0,0,0-.38-.31,1.7,1.7,0,0,0-.59-.09h-.91Z"/><path class="cls-2" d="M187.79,144.24h1.31v5h.58l1.52-5h1.4l-1.86,5.56,2.1,5.76h-1.43l-1.78-5.12h-.53v5.12h-1.31Z"/><path class="cls-2" d="M194.15,144.24h1.39l-.24,8.4h-.91Zm.08,9.74h1.23v1.58h-1.23Z"/><line class="cls-7" x1="185.62" y1="99.27" x2="186.97" y2="86.93"/><line class="cls-7" x1="197.84" y1="102.42" x2="202.34" y2="90.84"/><line class="cls-7" x1="208.14" y1="108.44" x2="215.6" y2="98.51"/><line class="cls-7" x1="215.92" y1="116.75" x2="225.56" y2="108.93"/><line class="cls-7" x1="221.82" y1="127.4" x2="233.26" y2="122.57"/><line class="cls-7" x1="224.36" y1="138.55" x2="236.74" y2="137.57"/><line class="cls-7" x1="223.89" y1="150.25" x2="236.17" y2="152.07"/><line class="cls-7" x1="221.15" y1="161.66" x2="232.48" y2="166.75"/><line class="cls-7" x1="214.95" y1="171.35" x2="224.77" y2="178.95"/><line class="cls-7" x1="207.06" y1="179.91" x2="214.74" y2="189.67"/><line class="cls-7" x1="175.69" y1="99.3" x2="174.33" y2="86.95"/><line class="cls-7" x1="163.46" y1="102.44" x2="158.96" y2="90.87"/><line class="cls-7" x1="153.17" y1="108.46" x2="145.7" y2="98.54"/><line class="cls-7" x1="145.39" y1="116.78" x2="135.74" y2="108.96"/><line class="cls-7" x1="139.48" y1="127.43" x2="128.04" y2="122.6"/><line class="cls-7" x1="136.94" y1="138.58" x2="124.57" y2="137.6"/><line class="cls-7" x1="137.41" y1="150.28" x2="125.13" y2="152.1"/><line class="cls-7" x1="140.15" y1="161.68" x2="128.82" y2="166.77"/><line class="cls-7" x1="146.35" y1="171.38" x2="136.53" y2="178.98"/><line class="cls-7" x1="154.24" y1="179.94" x2="146.57" y2="189.7"/></g></svg>