<svg xmlns="http://www.w3.org/2000/svg" viewBox="0 0 360 360"><defs><style>.cls-1{fill:#fff;}</style></defs><title>CARD</title><g id="Layer_6" data-name="Layer 6"><rect width="360" height="360"/></g><g id="LINE_ONE" data-name="LINE ONE"><path class="cls-1" d="M112.08,234.16h5.22a8.36,8.36,0,0,1,2.88.47,5.66,5.66,0,0,1,3.51,3.55,9.68,9.68,0,0,1,0,6,5.66,5.66,0,0,1-3.51,3.55,8.36,8.36,0,0,1-2.88.47h-5.22Zm9,7a7,7,0,0,0-.23-1.85,4.07,4.07,0,0,0-.7-1.43,3,3,0,0,0-1.19-.92,4.26,4.26,0,0,0-1.72-.32H115.1v9h2.12a4.26,4.26,0,0,0,1.72-.32,3,3,0,0,0,1.19-.92,4.07,4.07,0,0,0,.7-1.43A7,7,0,0,0,121.06,241.16Z"/><path class="cls-1" d="M134.38,248.44a5.56,5.56,0,0,1-4.26-1.44,5.65,5.65,0,0,1-1.34-4v-8.84h3V243a3.33,3.33,0,0,0,.64,2.11,2.73,2.73,0,0,0,3.92,0A3.33,3.33,0,0,0,137,243v-8.86h3V243a5.65,5.65,0,0,1-1.34,4A5.56,5.56,0,0,1,134.38,248.44Z"/><path class="cls-1" d="M155.66,238.42a3.94,3.94,0,0,1-2.66,4l3.22,5.74h-3.3l-2.9-5.3h-1.86v5.3h-3v-14h5.12a8.89,8.89,0,0,1,2.21.25,4.78,4.78,0,0,1,1.69.77,3.46,3.46,0,0,1,1.08,1.32A4.47,4.47,0,0,1,155.66,238.42Zm-3.08,0a1.51,1.51,0,0,0-.65-1.41,3.91,3.91,0,0,0-2-.39h-1.8v3.78H150a3.48,3.48,0,0,0,2-.45A1.74,1.74,0,0,0,152.58,238.44Z"/><path class="cls-1" d="M172.86,248.16h-3.1l-1.12-3.24h-5l-1.12,3.24h-2.94l5-14h3.22Zm-6.76-10.72c0,.11-.07.26-.14.47s-.14.44-.22.7-.17.54-.27.84l-.29.87c-.23.69-.47,1.43-.74,2.22h3.38c-.27-.79-.51-1.53-.74-2.22-.15-.4-.26-.73-.35-1s-.17-.51-.24-.75-.14-.46-.21-.67-.11-.36-.14-.47Z"/><path class="cls-1" d="M177,234.16h6.08a5,5,0,0,1,1.75.28,3.8,3.8,0,0,1,1.3.77,3.38,3.38,0,0,1,.81,1.16,3.67,3.67,0,0,1,.28,1.45A3.33,3.33,0,0,1,187,239a3.29,3.29,0,0,1-.47.87,2.77,2.77,0,0,1-.66.62,3.1,3.1,0,0,1-.77.39,3.6,3.6,0,0,1,.93.26,3,3,0,0,1,.87.57,2.87,2.87,0,0,1,.65.93,3.31,3.31,0,0,1,.25,1.38,4,4,0,0,1-1.28,3,4.34,4.34,0,0,1-1.42.87,5,5,0,0,1-1.8.32H177Zm2.92,2.44v3.24H182a2.85,2.85,0,0,0,1.6-.36,1.46,1.46,0,0,0,.52-1.3,1.48,1.48,0,0,0-.45-1.22,2.44,2.44,0,0,0-1.51-.36Zm0,9.12h2.4a3,3,0,0,0,1.93-.45,1.66,1.66,0,0,0,.51-1.31,1.44,1.44,0,0,0-.62-1.37,3.91,3.91,0,0,0-1.86-.35h-2.36Z"/><path class="cls-1" d="M192.5,234.16h3v14h-3Z"/><path class="cls-1" d="M200.78,234.16h3v11.5h6.12v2.5h-9.12Z"/><path class="cls-1" d="M214.1,234.16h3v14h-3Z"/><path class="cls-1" d="M221.32,234.16h11.1v2.5h-4v11.5h-3v-11.5h-4Z"/><path class="cls-1" d="M240.88,242.3l-5.3-8.14H239l3.42,5.36,3.4-5.36h3.34l-5.3,8.14v5.86h-3Z"/></g><g id="LINE_TWO" data-name="LINE TWO"><path class="cls-1" d="M179.68,89.37c14.16,0,28.33.07,42.49-.08a6.3,6.3,0,0,1,5.73,2.9c6.57,9,13.13,18,19.93,26.86,2.28,3,2.14,4.62-.52,7.44-10.76,11.37-21.14,23.1-31.65,34.69S194.59,184.35,184.14,196c-1.82,2-3,2.12-4.95.1Q145.71,161,112.07,126c-1.92-2-1.94-3.39-.37-5.58q10-14,19.79-28.24a6,6,0,0,1,5.7-2.87C151.35,89.43,165.52,89.37,179.68,89.37ZM181.47,190c6.64-22.17,12.95-43.29,19.35-64.66h-44C165,146.77,173.06,167.93,181.47,190Zm4.89-3,.67.16,56.06-61.94c-12.26,0-23.54.09-34.82-.06-2.61,0-3.74.64-4.49,3.26-3.9,13.54-8.05,27-12.1,40.51C189.88,175,188.13,181,186.36,187Zm-10.88-.34a8.08,8.08,0,0,0,0-1.78c-7.34-19.28-14.66-38.57-22.14-57.79-.36-.92-2.21-1.77-3.38-1.79-8.75-.15-17.5-.08-26.25-.08h-7.09Zm27.66-66c6-9.15,11.88-18,17.89-27.11H181.74ZM178,95l-20,26.06h40.54Zm66.48,26.07L224.9,94.66,207.37,121.1ZM138.07,93.58l16.15,26.35c6.79-8.9,13.32-17.43,20.14-26.35Zm-3.7,1.22-18.46,26.29h34.54Z"/><path d="M181.47,190c-8.41-22.09-16.47-43.25-24.63-64.66h44C194.42,146.73,188.11,167.85,181.47,190Z"/><path d="M186.36,187c1.77-6,3.52-12.05,5.32-18.07,4-13.5,8.2-27,12.1-40.51.75-2.62,1.88-3.3,4.49-3.26,11.28.15,22.56.06,34.82.06L187,187.16Z"/><path d="M175.48,186.66l-58.87-61.44h7.09c8.75,0,17.5-.07,26.25.08,1.17,0,3,.87,3.38,1.79,7.48,19.22,14.8,38.51,22.14,57.79A8.08,8.08,0,0,1,175.48,186.66Z"/><path d="M203.14,120.68l-21.4-27.11H221C215,102.69,209.18,111.53,203.14,120.68Z"/><path d="M178,95l20.58,26.06H158.08Z"/><path d="M244.52,121.1H207.37L224.9,94.66Z"/><path d="M134.37,94.8l16.08,26.29H115.91Z"/></g></svg>