<svg xmlns="http://www.w3.org/2000/svg" viewBox="0 0 360 360"><defs><style>.cls-1{fill:#0e6e39;}.cls-2{fill:#fff;}.cls-3{fill:#0c6e39;}</style></defs><title>CARD</title><g id="BACKGROUND"><rect class="cls-1" y="336.06" width="360" height="23.94"/><path class="cls-2" d="M207,344.09h3.65a2.89,2.89,0,0,1,1,.17,2.33,2.33,0,0,1,.78.46,2,2,0,0,1,.48.69,2.29,2.29,0,0,1,.17.87,2.08,2.08,0,0,1-.11.69,1.73,1.73,0,0,1-.68.89,2,2,0,0,1-.46.24,1.9,1.9,0,0,1,1.08.49,1.76,1.76,0,0,1,.39.56,2.05,2.05,0,0,1,.15.83,2.55,2.55,0,0,1-.2,1,2.39,2.39,0,0,1-.57.79,2.72,2.72,0,0,1-.85.53,3.14,3.14,0,0,1-1.08.19H207Zm1.75,1.46v1.95H210a1.74,1.74,0,0,0,1-.22.87.87,0,0,0,.31-.78.88.88,0,0,0-.27-.73,1.42,1.42,0,0,0-.9-.22Zm0,5.47h1.44a1.82,1.82,0,0,0,1.16-.27,1,1,0,0,0,.3-.78.85.85,0,0,0-.37-.82,2.33,2.33,0,0,0-1.11-.21h-1.42Z"/><path class="cls-2" d="M219.57,352.66a3.34,3.34,0,0,1-2.56-.87,3.39,3.39,0,0,1-.8-2.4v-5.3H218v5.31a2,2,0,0,0,.38,1.27,1.64,1.64,0,0,0,2.36,0,2,2,0,0,0,.38-1.27v-5.31h1.8v5.3a3.39,3.39,0,0,1-.8,2.4A3.34,3.34,0,0,1,219.57,352.66Z"/><path class="cls-2" d="M226.05,344.09h1.8v8.4h-1.8Z"/><path class="cls-2" d="M231,344.09h1.8V351h3.67v1.5H231Z"/><path class="cls-2" d="M237.23,344.09h6.66v1.5h-2.42v6.9h-1.81v-6.9h-2.43Z"/><path class="cls-2" d="M250.45,352.49v-8.4h5.72v1.49h-4v1.84h3.67v1.49h-3.67V351h4v1.49Z"/><path class="cls-2" d="M259,344.09h1.88c.48.79.95,1.54,1.39,2.25l.65,1.05c.16.28.33.55.5.83l.48.77.38.62h0v-5.52H266v8.4h-1.87c-.48-.78-.93-1.52-1.37-2.22-.25-.42-.47-.76-.64-1l-.51-.83-.48-.79c-.16-.25-.29-.47-.41-.64h0v5.52H259Z"/><path class="cls-2" d="M270.44,344.09l.84,2.43c.16.46.29.84.39,1.16s.21.62.32.94l.3.92.25.79h0c.07-.23.16-.5.25-.8l.31-.95.34-1,.35-1q.39-1.17.84-2.43h1.85l-3.1,8.4h-1.83l-3.06-8.4Z"/><path class="cls-2" d="M279,344.09h1.8v8.4H279Z"/><path class="cls-2" d="M290.23,346.64a2.57,2.57,0,0,1-.43,1.53,2.48,2.48,0,0,1-1.17.87l1.93,3.45h-2l-1.74-3.18h-1.11v3.18h-1.79v-8.4H287a5.47,5.47,0,0,1,1.33.15,2.84,2.84,0,0,1,1,.46,2.08,2.08,0,0,1,.65.79A2.71,2.71,0,0,1,290.23,346.64Zm-1.85,0a.91.91,0,0,0-.39-.85,2.32,2.32,0,0,0-1.18-.23h-1.08v2.26h1.08a2.1,2.1,0,0,0,1.18-.27A1,1,0,0,0,288.38,346.66Z"/><path class="cls-2" d="M292.9,348.29a5.24,5.24,0,0,1,.3-1.83,4,4,0,0,1,.82-1.38,3.7,3.7,0,0,1,1.29-.86,4.58,4.58,0,0,1,1.69-.3,4.47,4.47,0,0,1,1.67.3,3.52,3.52,0,0,1,1.29.86,3.83,3.83,0,0,1,.83,1.38,5.73,5.73,0,0,1,0,3.66,3.7,3.7,0,0,1-.83,1.37,3.42,3.42,0,0,1-1.29.87,4.47,4.47,0,0,1-1.67.3,4.58,4.58,0,0,1-1.69-.3,3.59,3.59,0,0,1-1.29-.87,3.82,3.82,0,0,1-.82-1.37A5.24,5.24,0,0,1,292.9,348.29Zm1.86,0a4.81,4.81,0,0,0,.14,1.17,2.72,2.72,0,0,0,.41.91,2,2,0,0,0,.7.59,2.42,2.42,0,0,0,2,0,1.88,1.88,0,0,0,.69-.59,2.54,2.54,0,0,0,.42-.91,4.81,4.81,0,0,0,.14-1.17,4.69,4.69,0,0,0-.14-1.17,2.47,2.47,0,0,0-.42-.91,1.79,1.79,0,0,0-.69-.59,2.42,2.42,0,0,0-2,0,1.89,1.89,0,0,0-.7.59,2.63,2.63,0,0,0-.41.91A4.69,4.69,0,0,0,294.76,348.29Z"/><path class="cls-2" d="M303.91,344.09h1.87l1.39,2.25.65,1.05c.17.28.34.55.5.83l.48.77c.16.24.28.45.39.62h0v-5.52h1.71v8.4h-1.88c-.47-.78-.93-1.52-1.36-2.22l-.65-1c-.17-.28-.34-.55-.5-.83l-.49-.79-.4-.64h0v5.52h-1.7Z"/><path class="cls-2" d="M317.79,352.49q-.18-.5-.45-1.29l-.56-1.66c-.19-.58-.38-1.14-.56-1.7s-.32-1-.43-1.39h0v6h-1.66v-8.4h2.52c.35,1,.66,2,.94,2.82.17.51.31.92.41,1.24s.21.62.3.91.18.54.26.78.13.4.16.5l.15-.5c.08-.24.16-.51.26-.83l.33-1c.11-.36.23-.72.35-1.08q.41-1.29.9-2.82h2.51v8.4h-1.66v-6h0l-.29.9-.37,1.11c-.13.39-.26.79-.4,1.19s-.26.79-.38,1.15l-.33,1c-.1.3-.19.53-.25.7Z"/><path class="cls-2" d="M326.35,352.49v-8.4h5.72v1.49h-3.95v1.84h3.67v1.49h-3.67V351h4v1.49Z"/><path class="cls-2" d="M334.91,344.09h1.88c.48.79.95,1.54,1.39,2.25l.65,1.05c.16.28.33.55.5.83l.48.77.38.62h0v-5.52h1.7v8.4h-1.87c-.48-.78-.93-1.52-1.37-2.22-.25-.42-.47-.76-.64-1l-.51-.83-.48-.79c-.16-.25-.29-.47-.41-.64h0v5.52h-1.71Z"/><path class="cls-2" d="M344.47,344.09h6.66v1.5H348.7v6.9h-1.81v-6.9h-2.42Z"/></g><g id="LINE_ONE" data-name="LINE ONE"><path class="cls-3" d="M128.94,234.16h3.12l2.32,3.76,1.08,1.75.84,1.37.8,1.29.64,1h.06v-9.2h2.84v14h-3.12l-2.28-3.7-1.07-1.73c-.29-.46-.57-.92-.85-1.38l-.81-1.32c-.26-.42-.48-.78-.67-1.07h-.06v9.2h-2.84Z"/><path class="cls-3" d="M158.08,248.16H155l-1.12-3.24h-5l-1.12,3.24h-2.94l5-14H153Zm-6.76-10.72c0,.11-.07.26-.14.47s-.14.44-.22.7-.17.54-.27.84l-.29.87c-.23.69-.47,1.43-.74,2.22H153c-.27-.79-.51-1.53-.74-2.22-.15-.4-.26-.73-.35-1s-.17-.51-.24-.75-.14-.46-.21-.67-.11-.36-.14-.47Z"/><path class="cls-3" d="M159.56,234.16h11.1v2.5h-4v11.5h-3v-11.5h-4Z"/><path class="cls-3" d="M180.4,248.44a5.56,5.56,0,0,1-4.26-1.44,5.65,5.65,0,0,1-1.34-4v-8.84h3V243a3.33,3.33,0,0,0,.64,2.11,2.73,2.73,0,0,0,3.92,0A3.33,3.33,0,0,0,183,243v-8.86h3V243a5.65,5.65,0,0,1-1.34,4A5.56,5.56,0,0,1,180.4,248.44Z"/><path class="cls-3" d="M201.68,238.42a3.94,3.94,0,0,1-2.66,4l3.22,5.74h-3.3l-2.9-5.3h-1.86v5.3h-3v-14h5.12a8.89,8.89,0,0,1,2.21.25,4.78,4.78,0,0,1,1.69.77,3.46,3.46,0,0,1,1.08,1.32A4.47,4.47,0,0,1,201.68,238.42Zm-3.08,0A1.51,1.51,0,0,0,198,237a3.91,3.91,0,0,0-2-.39h-1.8v3.78H196a3.48,3.48,0,0,0,2-.45A1.74,1.74,0,0,0,198.6,238.44Z"/><path class="cls-3" d="M218.88,248.16h-3.1l-1.12-3.24h-5l-1.12,3.24h-2.94l5-14h3.22Zm-6.76-10.72c0,.11-.07.26-.14.47s-.14.44-.22.7-.17.54-.27.84-.2.59-.29.87c-.23.69-.47,1.43-.74,2.22h3.38c-.27-.79-.51-1.53-.74-2.22-.15-.4-.26-.73-.35-1s-.17-.51-.24-.75-.14-.46-.21-.67-.11-.36-.14-.47Z"/><path class="cls-3" d="M223,234.16h3v11.5h6.12v2.5H223Z"/></g><g id="LINE_TWO" data-name="LINE TWO"><path class="cls-3" d="M107,252c.49,1.4,1,2.75,1.4,4.06q.41,1.14.66,1.92c.17.52.35,1,.52,1.57s.34,1,.5,1.53.3.93.42,1.32h0L111,261l.51-1.59c.18-.56.37-1.14.57-1.72s.39-1.16.58-1.7c.44-1.31.91-2.66,1.4-4.06h3.08L112,266h-3.06l-5.1-14Z"/><path class="cls-3" d="M121.23,266V252h9.54v2.48h-6.58v3.08h6.12V260h-6.12v3.48h6.68V266Z"/><path class="cls-3" d="M135.51,252h3.12l2.32,3.76c.44.7.8,1.29,1.08,1.75l.84,1.37.8,1.29.64,1h.06V252h2.84v14h-3.12l-2.28-3.7-1.07-1.73c-.29-.46-.57-.92-.85-1.38l-.81-1.32c-.26-.42-.48-.78-.67-1.07h-.06V266h-2.84Z"/><path class="cls-3" d="M151.43,252h11.1v2.5h-4V266h-3v-11.5h-4Z"/><path class="cls-3" d="M166.75,252h3v14h-3Z"/><path class="cls-3" d="M175,252h3v11.5h6.12V266H175Z"/><path class="cls-3" d="M200.51,266h-3.1l-1.12-3.24h-5L190.15,266h-2.94l5-14h3.22Zm-6.76-10.72c0,.1-.07.26-.14.47s-.14.44-.22.7-.17.54-.27.84-.2.59-.29.87c-.23.69-.47,1.43-.74,2.22h3.38c-.27-.79-.51-1.53-.74-2.22-.15-.4-.26-.73-.35-1s-.17-.51-.24-.75-.14-.47-.21-.67-.11-.37-.14-.47Z"/><path class="cls-3" d="M202,252h11.1v2.5h-4V266h-3v-11.5h-4Z"/><path class="cls-3" d="M217.31,252h3v14h-3Z"/><path class="cls-3" d="M225,259a8.79,8.79,0,0,1,.49-3,6.55,6.55,0,0,1,1.38-2.29,5.82,5.82,0,0,1,2.15-1.44,8.09,8.09,0,0,1,5.6,0,5.82,5.82,0,0,1,2.15,1.44,6.55,6.55,0,0,1,1.38,2.29,9.74,9.74,0,0,1,0,6.1,6.64,6.64,0,0,1-1.38,2.29,6.07,6.07,0,0,1-2.15,1.44,8.09,8.09,0,0,1-5.6,0,6.07,6.07,0,0,1-2.15-1.44A6.64,6.64,0,0,1,225.5,262,8.83,8.83,0,0,1,225,259Zm3.1,0a8,8,0,0,0,.23,1.95,4.33,4.33,0,0,0,.69,1.52,3.24,3.24,0,0,0,1.16,1,4,4,0,0,0,3.28,0,3.24,3.24,0,0,0,1.16-1,4.33,4.33,0,0,0,.69-1.52,8,8,0,0,0,.23-1.95,7.9,7.9,0,0,0-.23-1.95,4.25,4.25,0,0,0-.69-1.52,3.14,3.14,0,0,0-1.16-1,4,4,0,0,0-3.28,0,3.14,3.14,0,0,0-1.16,1,4.25,4.25,0,0,0-.69,1.52A7.9,7.9,0,0,0,228.11,259Z"/><path class="cls-3" d="M243.35,252h3.12l2.32,3.76c.44.7.8,1.29,1.08,1.75l.84,1.37.8,1.29.64,1h.06V252h2.84v14h-3.12l-2.28-3.7-1.07-1.73c-.29-.46-.57-.92-.85-1.38l-.81-1.32c-.26-.42-.48-.78-.67-1.07h-.06V266h-2.84Z"/></g><g id="ICON"><path class="cls-1" d="M170.72,154.58H89.14c-2.67,0-4.34-1.06-5-3.13a4.26,4.26,0,0,1,3.88-5.56c.63,0,1.26,0,1.88,0H251.19a17.42,17.42,0,0,0,17.52-14c1.83-8.84-4.66-16.72-13.34-16.21a9.43,9.43,0,0,0-8.67,8.17c-.06.48-.09,1-.14,1.45a4.28,4.28,0,0,1-4.64,4.13,4.38,4.38,0,0,1-4.08-4.74,18.33,18.33,0,0,1,13-17c11.25-3.33,23.79,4.37,26.35,16.16,3.06,14.14-7.5,28.88-21.9,30.5a47.68,47.68,0,0,1-5.06.29Z"/><path class="cls-1" d="M150.24,138.38H102.49a9,9,0,0,1-2.44-.2A4.28,4.28,0,0,1,97,133.49a4.36,4.36,0,0,1,4-3.79c.57,0,1.16,0,1.74,0q47.1,0,94.2,0a17.5,17.5,0,0,0,17.47-14.44A13.3,13.3,0,0,0,202.07,99a9.73,9.73,0,0,0-10.17,10.35c.32,3.41,3.06,5.89,6.77,6.13a4.41,4.41,0,0,1,4.42,4.45,4.31,4.31,0,0,1-4.7,4.24,16,16,0,0,1-3.72-.51c-9.89-2.67-14.42-13.67-9.6-23.21,4.69-9.28,15.71-12.78,25.66-8.15,10.62,4.94,15.32,17,11.17,28.6a26.06,26.06,0,0,1-24.63,17.48c-15.67.07-31.35,0-47,0Z"/><path class="cls-1" d="M168.57,164.51h55.72c12.16,0,21.11,12.43,16.74,23.36-2.38,5.94-7,9.07-13.34,9.61a4.36,4.36,0,1,1-.71-8.69c5.17-.64,7.66-4.77,5.8-9.66a9.28,9.28,0,0,0-8.39-5.91h-112c-2.82,0-4.5-1.17-5-3.44a4.31,4.31,0,0,1,3.87-5.24,14,14,0,0,1,1.45,0h55.88Z"/></g></svg>