<svg xmlns="http://www.w3.org/2000/svg" viewBox="0 0 360 360"><defs><style>.cls-1{fill:#fff;}.cls-2{fill:#0c6e39;}.cls-3{fill:#0b6e3a;}.cls-4,.cls-5,.cls-6{fill:none;stroke:#0b6e3a;stroke-miterlimit:10;}.cls-4{stroke-width:4px;}.cls-6{stroke-width:2px;}</style></defs><title>CARD</title><g id="Layer_6" data-name="Layer 6"><rect class="cls-1" x="0.42" y="-0.27" width="360" height="360"/></g><g id="BACKGROUND"><rect class="cls-2" y="336.29" width="360" height="23.94"/><path class="cls-1" d="M207,344.32h3.65a3,3,0,0,1,1,.16,2.47,2.47,0,0,1,.79.47,2,2,0,0,1,.48.69,2.29,2.29,0,0,1,.17.87,2.08,2.08,0,0,1-.11.69,1.73,1.73,0,0,1-.68.89,2.25,2.25,0,0,1-.46.24,1.9,1.9,0,0,1,1.08.49,1.76,1.76,0,0,1,.39.56,2.05,2.05,0,0,1,.15.83,2.55,2.55,0,0,1-.2,1,2.39,2.39,0,0,1-.57.79,2.72,2.72,0,0,1-.85.53,3.14,3.14,0,0,1-1.08.19H207Zm1.75,1.46v2H210a1.74,1.74,0,0,0,1-.22.87.87,0,0,0,.31-.78A.88.88,0,0,0,211,346a1.42,1.42,0,0,0-.9-.22Zm0,5.47h1.44a1.82,1.82,0,0,0,1.16-.27,1,1,0,0,0,.3-.78.85.85,0,0,0-.37-.82,2.33,2.33,0,0,0-1.11-.21h-1.42Z"/><path class="cls-1" d="M219.57,352.89A3.34,3.34,0,0,1,217,352a3.41,3.41,0,0,1-.8-2.4v-5.3H218v5.31a2,2,0,0,0,.38,1.27,1.64,1.64,0,0,0,2.36,0,2,2,0,0,0,.38-1.27v-5.31h1.8v5.3a3.41,3.41,0,0,1-.8,2.4A3.34,3.34,0,0,1,219.57,352.89Z"/><path class="cls-1" d="M226.05,344.32h1.8v8.4h-1.8Z"/><path class="cls-1" d="M231,344.32h1.8v6.9h3.67v1.5H231Z"/><path class="cls-1" d="M237.23,344.32h6.66v1.5h-2.42v6.9h-1.81v-6.9h-2.43Z"/><path class="cls-1" d="M250.45,352.72v-8.4h5.72v1.49h-4v1.84h3.67v1.49h-3.67v2.09h4v1.49Z"/><path class="cls-1" d="M259,344.32h1.88c.48.79.95,1.54,1.39,2.25l.65,1.05c.16.28.33.55.5.82l.48.78.38.62h0v-5.52H266v8.4h-1.87c-.48-.78-.93-1.52-1.37-2.22-.25-.42-.47-.77-.64-1l-.51-.83-.48-.79c-.16-.25-.29-.47-.41-.64h0v5.52H259Z"/><path class="cls-1" d="M270.44,344.32l.84,2.43c.16.46.29.84.39,1.16s.21.62.32.94l.3.92.25.79h0c.07-.23.16-.5.25-.8l.31-.95.34-1,.35-1q.39-1.17.84-2.43h1.85l-3.1,8.4h-1.83l-3.06-8.4Z"/><path class="cls-1" d="M279,344.32h1.8v8.4H279Z"/><path class="cls-1" d="M290.23,346.87a2.57,2.57,0,0,1-.43,1.53,2.48,2.48,0,0,1-1.17.87l1.93,3.45h-2l-1.74-3.18h-1.11v3.18h-1.79v-8.4H287a5.47,5.47,0,0,1,1.33.15,2.84,2.84,0,0,1,1,.46,2.08,2.08,0,0,1,.65.79A2.71,2.71,0,0,1,290.23,346.87Zm-1.85,0A.9.9,0,0,0,288,346a2.32,2.32,0,0,0-1.18-.23h-1.08v2.26h1.08a2.1,2.1,0,0,0,1.18-.27A1,1,0,0,0,288.38,346.89Z"/><path class="cls-1" d="M292.9,348.52a5.24,5.24,0,0,1,.3-1.83,4,4,0,0,1,.82-1.38,3.7,3.7,0,0,1,1.29-.86,4.56,4.56,0,0,1,1.68-.3,4.49,4.49,0,0,1,1.68.3,3.52,3.52,0,0,1,1.29.86,3.83,3.83,0,0,1,.83,1.38,5.73,5.73,0,0,1,0,3.66,3.7,3.7,0,0,1-.83,1.37,3.42,3.42,0,0,1-1.29.87,4.49,4.49,0,0,1-1.68.3,4.56,4.56,0,0,1-1.68-.3,3.59,3.59,0,0,1-1.29-.87,3.82,3.82,0,0,1-.82-1.37A5.24,5.24,0,0,1,292.9,348.52Zm1.86,0a4.81,4.81,0,0,0,.14,1.17,2.72,2.72,0,0,0,.41.91,2,2,0,0,0,.7.59,2.42,2.42,0,0,0,2,0,1.88,1.88,0,0,0,.69-.59,2.54,2.54,0,0,0,.42-.91,4.81,4.81,0,0,0,.14-1.17,4.69,4.69,0,0,0-.14-1.17,2.47,2.47,0,0,0-.42-.91,1.79,1.79,0,0,0-.69-.59,2.42,2.42,0,0,0-2,0,1.89,1.89,0,0,0-.7.59,2.63,2.63,0,0,0-.41.91A4.69,4.69,0,0,0,294.76,348.52Z"/><path class="cls-1" d="M303.91,344.32h1.87l1.39,2.25.65,1.05.5.82.48.78.39.62h0v-5.52h1.71v8.4h-1.88l-1.36-2.22c-.26-.42-.47-.77-.65-1l-.51-.83-.48-.79-.4-.64h0v5.52h-1.7Z"/><path class="cls-1" d="M317.79,352.72q-.18-.5-.45-1.29l-.56-1.66c-.19-.58-.38-1.14-.56-1.7s-.32-1-.43-1.39h0v6h-1.66v-8.4h2.52c.35,1,.66,2,.94,2.82.17.51.31.92.41,1.24s.21.62.3.91.18.54.26.78.13.4.16.5l.15-.5c.08-.24.16-.51.26-.83l.33-1c.11-.36.23-.72.35-1.08q.41-1.29.9-2.82h2.51v8.4h-1.66v-6h0l-.29.9-.37,1.11c-.13.39-.26.79-.4,1.19s-.26.79-.38,1.15l-.33,1c-.1.3-.19.53-.25.7Z"/><path class="cls-1" d="M326.35,352.72v-8.4h5.72v1.49h-3.95v1.84h3.67v1.49h-3.67v2.09h4v1.49Z"/><path class="cls-1" d="M334.91,344.32h1.88c.48.79.95,1.54,1.39,2.25l.65,1.05c.16.28.33.55.5.82l.48.78.38.62h0v-5.52h1.7v8.4h-1.87c-.48-.78-.93-1.52-1.37-2.22-.25-.42-.47-.77-.64-1l-.51-.83-.48-.79c-.16-.25-.29-.47-.41-.64h0v5.52h-1.71Z"/><path class="cls-1" d="M344.47,344.32h6.66v1.5H348.7v6.9h-1.81v-6.9h-2.42Z"/></g><g id="LINE_ONE" data-name="LINE ONE"><path class="cls-3" d="M130.8,234.16h3v11.5h6.12v2.5H130.8Z"/><path class="cls-3" d="M143,241.16a8.83,8.83,0,0,1,.49-3,6.27,6.27,0,0,1,1.38-2.29,5.82,5.82,0,0,1,2.15-1.44,8.09,8.09,0,0,1,5.6,0,5.9,5.9,0,0,1,2.15,1.44,6.55,6.55,0,0,1,1.38,2.29,9.74,9.74,0,0,1,0,6.1,6.64,6.64,0,0,1-1.38,2.29,6,6,0,0,1-2.15,1.44,8.09,8.09,0,0,1-5.6,0,5.94,5.94,0,0,1-2.15-1.44,6.35,6.35,0,0,1-1.38-2.29A8.83,8.83,0,0,1,143,241.16Zm3.1,0a7.56,7.56,0,0,0,.23,2,4.33,4.33,0,0,0,.69,1.52,3.16,3.16,0,0,0,1.16,1,3.64,3.64,0,0,0,1.64.35,3.7,3.7,0,0,0,1.64-.35,3.32,3.32,0,0,0,1.16-1,4.73,4.73,0,0,0,.69-1.52,8,8,0,0,0,.23-2,7.9,7.9,0,0,0-.23-1.95,4.63,4.63,0,0,0-.69-1.52,3.22,3.22,0,0,0-1.16-1,3.57,3.57,0,0,0-1.64-.35,3.51,3.51,0,0,0-1.64.35,3.06,3.06,0,0,0-1.16,1,4.25,4.25,0,0,0-.69,1.52A7.45,7.45,0,0,0,146.14,241.16Z"/><path class="cls-3" d="M161,241.16a9.12,9.12,0,0,1,.48-3.07,6.25,6.25,0,0,1,1.37-2.29,5.64,5.64,0,0,1,2.16-1.43,7.74,7.74,0,0,1,2.85-.49,6.77,6.77,0,0,1,3.76,1,5.32,5.32,0,0,1,2.16,3l-2.92,1a3.92,3.92,0,0,0-1.08-1.83,2.82,2.82,0,0,0-2-.65,3.46,3.46,0,0,0-1.62.36,3.18,3.18,0,0,0-1.16,1,4.28,4.28,0,0,0-.69,1.51,8.09,8.09,0,0,0,0,3.83,4.45,4.45,0,0,0,.69,1.51,3.21,3.21,0,0,0,1.16,1,3.51,3.51,0,0,0,1.64.36,3,3,0,0,0,1.89-.58,3.72,3.72,0,0,0,1.11-1.76l2.88,1a6.07,6.07,0,0,1-2.16,2.8,6.44,6.44,0,0,1-3.76,1A7.7,7.7,0,0,1,165,248a5.86,5.86,0,0,1-2.14-1.42,6.17,6.17,0,0,1-1.37-2.29A9.26,9.26,0,0,1,161,241.16Z"/><path class="cls-3" d="M190.34,248.16h-3.1l-1.12-3.24h-5L180,248.16H177l5-14h3.22Zm-6.76-10.72-.14.47c-.07.2-.14.44-.22.7s-.17.54-.27.84l-.29.87-.74,2.22h3.38c-.27-.79-.52-1.53-.74-2.22-.15-.4-.27-.73-.35-1s-.17-.51-.24-.75-.15-.47-.21-.67a4.69,4.69,0,0,1-.14-.47Z"/><path class="cls-3" d="M194.48,234.16h3v11.5h6.11v2.5h-9.11Z"/><path class="cls-3" d="M207.8,234.16h3v11.5h6.12v2.5H207.8Z"/><path class="cls-3" d="M223,242.3l-5.3-8.14h3.44l3.42,5.36,3.4-5.36h3.34L226,242.3v5.86h-3Z"/></g><g id="LINE_TWO" data-name="LINE TWO"><path class="cls-3" d="M129.39,255.62a1.33,1.33,0,0,0,.78,1.29,8.65,8.65,0,0,0,2.48.67,7.91,7.91,0,0,1,3.67,1.38,3.51,3.51,0,0,1,1.17,2.86,3.92,3.92,0,0,1-.42,1.83A4.07,4.07,0,0,1,135.9,265a5.44,5.44,0,0,1-1.79.88,7.81,7.81,0,0,1-2.26.32,7.34,7.34,0,0,1-2.38-.36,5.66,5.66,0,0,1-1.8-.93,4.07,4.07,0,0,1-1.16-1.36,3.6,3.6,0,0,1-.46-1.62l3-.48a2.52,2.52,0,0,0,.79,1.67,2.8,2.8,0,0,0,2,.66,4.67,4.67,0,0,0,1-.11,2.21,2.21,0,0,0,.82-.33,1.83,1.83,0,0,0,.55-.56,1.64,1.64,0,0,0,.2-.83,1.36,1.36,0,0,0-.65-1.2,6.42,6.42,0,0,0-2.29-.67,19.38,19.38,0,0,1-2-.46,5.48,5.48,0,0,1-1.63-.78,3.42,3.42,0,0,1-1.08-1.22,3.73,3.73,0,0,1-.39-1.79,3.89,3.89,0,0,1,.4-1.83,3.65,3.65,0,0,1,1.12-1.32,4.92,4.92,0,0,1,1.7-.78,8,8,0,0,1,2.14-.27,8.16,8.16,0,0,1,2,.25,5.89,5.89,0,0,1,1.67.74,4.64,4.64,0,0,1,1.21,1.21,4.56,4.56,0,0,1,.66,1.64l-3,.66a2.45,2.45,0,0,0-.82-1.51,2.64,2.64,0,0,0-1.78-.57,2.83,2.83,0,0,0-1.69.42A1.34,1.34,0,0,0,129.39,255.62Z"/><path class="cls-3" d="M141.57,258.94a8.73,8.73,0,0,1,.49-3,6.19,6.19,0,0,1,1.38-2.29,6,6,0,0,1,2.15-1.45,8.09,8.09,0,0,1,5.6,0,6.05,6.05,0,0,1,2.15,1.45,6.46,6.46,0,0,1,1.38,2.29,9.71,9.71,0,0,1,0,6.09,6.46,6.46,0,0,1-1.38,2.29,6.05,6.05,0,0,1-2.15,1.45,8.09,8.09,0,0,1-5.6,0,6,6,0,0,1-2.15-1.45,6.19,6.19,0,0,1-1.38-2.29A8.75,8.75,0,0,1,141.57,258.94Zm3.1,0a7.58,7.58,0,0,0,.23,2,4.28,4.28,0,0,0,.69,1.51,3.18,3.18,0,0,0,1.16,1,3.64,3.64,0,0,0,1.64.34,3.7,3.7,0,0,0,1.64-.34,3.35,3.35,0,0,0,1.16-1,4.67,4.67,0,0,0,.69-1.51,8.42,8.42,0,0,0,0-3.91,4.67,4.67,0,0,0-.69-1.51,3.35,3.35,0,0,0-1.16-1,3.7,3.7,0,0,0-1.64-.34,3.64,3.64,0,0,0-1.64.34,3.18,3.18,0,0,0-1.16,1,4.28,4.28,0,0,0-.69,1.51A7.56,7.56,0,0,0,144.67,258.94Z"/><path class="cls-3" d="M165.43,266.23a4.91,4.91,0,0,1-5.6-5.45v-8.84h3v8.87a3.31,3.31,0,0,0,.64,2.1,2.73,2.73,0,0,0,3.92,0,3.37,3.37,0,0,0,.64-2.1v-8.87h3v8.84a5.65,5.65,0,0,1-1.34,4A5.6,5.6,0,0,1,165.43,266.23Z"/><path class="cls-3" d="M186.71,256.2a4.24,4.24,0,0,1-.71,2.54,4.18,4.18,0,0,1-1.95,1.46l3.22,5.74H184l-2.9-5.29h-1.86v5.29h-3v-14h5.12a9.39,9.39,0,0,1,2.21.25,5,5,0,0,1,1.69.77,3.66,3.66,0,0,1,1.08,1.32A4.53,4.53,0,0,1,186.71,256.2Zm-3.08,0a1.49,1.49,0,0,0-.65-1.41,3.93,3.93,0,0,0-2-.39h-1.8v3.77H181a3.42,3.42,0,0,0,2-.45A1.73,1.73,0,0,0,183.63,256.23Z"/><path class="cls-3" d="M191.17,258.94a9.21,9.21,0,0,1,.47-3.07,6.72,6.72,0,0,1,1.37-2.29,6,6,0,0,1,2.16-1.43,8,8,0,0,1,2.85-.49,6.78,6.78,0,0,1,3.77,1,5.27,5.27,0,0,1,2.15,3l-2.92,1a3.84,3.84,0,0,0-1.08-1.83,2.79,2.79,0,0,0-2-.66,3.41,3.41,0,0,0-1.63.37,3.35,3.35,0,0,0-1.16,1,4.46,4.46,0,0,0-.68,1.51,7.76,7.76,0,0,0,0,3.83,4.49,4.49,0,0,0,.68,1.5,3.28,3.28,0,0,0,1.16,1,3.45,3.45,0,0,0,1.64.37,3,3,0,0,0,1.9-.58,3.63,3.63,0,0,0,1.1-1.76l2.88,1a5.89,5.89,0,0,1-2.15,2.8,6.39,6.39,0,0,1-3.77,1,7.57,7.57,0,0,1-2.79-.5,5.88,5.88,0,0,1-2.14-1.41,6.62,6.62,0,0,1-1.37-2.29A9.29,9.29,0,0,1,191.17,258.94Z"/><path class="cls-3" d="M208.35,265.94v-14h9.54v2.49h-6.58v3.07h6.11V260h-6.11v3.48H218v2.48Z"/><path class="cls-3" d="M222.63,251.94h5.22a8.45,8.45,0,0,1,2.88.47,5.87,5.87,0,0,1,2.16,1.37,6.1,6.1,0,0,1,1.35,2.18,9.71,9.71,0,0,1,0,6,6.1,6.1,0,0,1-1.35,2.18,5.87,5.87,0,0,1-2.16,1.37,8.45,8.45,0,0,1-2.88.46h-5.22Zm9,7a7,7,0,0,0-.23-1.84,4.3,4.3,0,0,0-.7-1.44,3.29,3.29,0,0,0-1.19-.92,4.3,4.3,0,0,0-1.72-.31h-2.12v9h2.12a4.3,4.3,0,0,0,1.72-.31,3.29,3.29,0,0,0,1.19-.92,4.3,4.3,0,0,0,.7-1.44A7,7,0,0,0,231.61,258.94Z"/></g><g id="ICON"><path class="cls-4" d="M180.33,198c-1.9-2.9-3.74-5.68-5.54-8.49-5.9-9.17-11.61-18.45-16.93-28A205.42,205.42,0,0,1,147.43,141a35.57,35.57,0,0,1,10.93-42,34,34,0,0,1,25-7.39C197.84,93,208,100.64,213.55,114c3.92,9.45,3.35,19-.86,28.34A285.4,285.4,0,0,1,198.54,169c-5.66,9.68-11.66,19.16-17.87,28.51Zm0-3.45c.19-.26.3-.4.4-.55,6.08-9.26,12-18.64,17.52-28.24a268.2,268.2,0,0,0,12.88-24.57,33.86,33.86,0,0,0-29.5-47.91c-10.08-.3-18.83,3.09-25.69,10.49-9.39,10.13-11.85,22-7.28,35,2.51,7.19,6.39,13.8,10.07,20.45,5.49,9.9,11.4,19.55,17.53,29.06Z"/><path class="cls-5" d="M154.38,126.17a25.65,25.65,0,1,1,25.75,25.59A25.74,25.74,0,0,1,154.38,126.17Z"/><path class="cls-6" d="M193.31,132.33c-7.31,1.79-12.45,7-12.22,12.3C184.93,145.13,191.32,139.87,193.31,132.33Zm-14,12.34c0-5.5-5.91-11.36-12.21-12.23C168.3,138.53,174.29,144.59,179.32,144.67Zm.85-36.81c-3.58,5.13-3.54,11.31,0,14.24C184,118.69,184,113.07,180.17,107.86Zm10.74,14.21c-6.39.68-11.23,5.8-9.63,10.06C186.23,132.31,190,127,190.91,122.07Zm-21.49,0c1.31,6.17,5.25,10.14,9.79,10C180.62,127.55,175.13,122.53,169.42,122.08Zm10.76,0v30.28"/></g></svg>