<svg xmlns="http://www.w3.org/2000/svg" viewBox="0 0 360 360"><defs><style>.cls-1{fill:#236886;}.cls-2,.cls-5{fill:#fff;}.cls-3,.cls-6{fill:none;}.cls-3,.cls-5,.cls-6{stroke:#256887;stroke-miterlimit:10;}.cls-3,.cls-5{stroke-width:3px;}.cls-4{fill:#256887;}.cls-6{stroke-width:2px;}</style></defs><title>CARD</title><g id="BACKGROUND"><rect class="cls-1" y="336.06" width="360" height="23.94"/><path class="cls-2" d="M290.57,346.29a.82.82,0,0,0,.47.78,5.75,5.75,0,0,0,1.49.4,4.68,4.68,0,0,1,2.2.83,2.07,2.07,0,0,1,.7,1.71,2.32,2.32,0,0,1-.25,1.1,2.43,2.43,0,0,1-.7.83,3.4,3.4,0,0,1-1.08.53,4.79,4.79,0,0,1-1.35.18,4.53,4.53,0,0,1-1.43-.21,3.66,3.66,0,0,1-1.08-.55,2.71,2.71,0,0,1-.7-.82,2.28,2.28,0,0,1-.27-1l1.8-.29a1.55,1.55,0,0,0,.47,1,1.71,1.71,0,0,0,1.21.39,2.84,2.84,0,0,0,.6-.06,1.31,1.31,0,0,0,.5-.2,1,1,0,0,0,.33-.34.94.94,0,0,0,.12-.49.81.81,0,0,0-.39-.72,3.92,3.92,0,0,0-1.38-.41,9.6,9.6,0,0,1-1.22-.27,3.43,3.43,0,0,1-1-.47,2.07,2.07,0,0,1-.65-.73,2.32,2.32,0,0,1-.23-1.07,2.42,2.42,0,0,1,.24-1.11,2.18,2.18,0,0,1,.67-.78,3.21,3.21,0,0,1,1-.48,5.17,5.17,0,0,1,1.28-.15,4.74,4.74,0,0,1,1.22.15,3.49,3.49,0,0,1,1,.44,2.63,2.63,0,0,1,.72.73,2.51,2.51,0,0,1,.4,1l-1.82.4a1.44,1.44,0,0,0-.5-.91,1.55,1.55,0,0,0-1.06-.34,1.67,1.67,0,0,0-1,.25A.8.8,0,0,0,290.57,346.29Z"/><path class="cls-2" d="M297.29,344.09H304v1.5h-2.42v6.9h-1.81v-6.9h-2.43Z"/><path class="cls-2" d="M309.8,352.65a3.34,3.34,0,0,1-2.56-.86,3.38,3.38,0,0,1-.8-2.4v-5.3h1.8v5.31a2,2,0,0,0,.38,1.27,1.41,1.41,0,0,0,1.18.5,1.39,1.39,0,0,0,1.17-.5,2,2,0,0,0,.39-1.27v-5.31h1.8v5.3a3.38,3.38,0,0,1-.81,2.4A3.32,3.32,0,0,1,309.8,352.65Z"/><path class="cls-2" d="M316.28,344.09h3.13a5,5,0,0,1,1.73.28,3.55,3.55,0,0,1,1.29.81,3.67,3.67,0,0,1,.81,1.32,5.83,5.83,0,0,1,0,3.57,3.67,3.67,0,0,1-.81,1.32,3.42,3.42,0,0,1-1.29.81,5,5,0,0,1-1.73.29h-3.13Zm5.38,4.2a4.23,4.23,0,0,0-.13-1.11,2.65,2.65,0,0,0-.42-.86,1.78,1.78,0,0,0-.72-.55,2.49,2.49,0,0,0-1-.2h-1.27V351h1.27a2.67,2.67,0,0,0,1-.19,1.9,1.9,0,0,0,.72-.56,2.7,2.7,0,0,0,.42-.85A4.33,4.33,0,0,0,321.66,348.29Z"/><path class="cls-2" d="M326.34,352.49v-8.4h5.73v1.48h-3.95v1.85h3.67v1.49h-3.67V351h4v1.49Z"/><path class="cls-2" d="M334.91,344.09h1.87l1.4,2.25.64,1.05.51.82.48.78.38.62h0v-5.52h1.7v8.4h-1.87l-1.37-2.22c-.25-.42-.47-.77-.64-1l-.51-.83-.49-.79-.4-.64h0v5.52h-1.71Z"/><path class="cls-2" d="M344.46,344.09h6.66v1.5H348.7v6.9h-1.81v-6.9h-2.43Z"/></g><g id="LINE_ONE" data-name="LINE ONE"><path class="cls-1" d="M156.05,243.24v4.92h-3v-14h5.32a8.93,8.93,0,0,1,2.28.26,4.81,4.81,0,0,1,1.74.8,3.7,3.7,0,0,1,1.12,1.38,4.61,4.61,0,0,1,.4,2,4.87,4.87,0,0,1-.41,2.07,3.85,3.85,0,0,1-1.14,1.44,4.83,4.83,0,0,1-1.75.84,8.76,8.76,0,0,1-2.24.27Zm4.82-4.62a1.68,1.68,0,0,0-.69-1.56,4.11,4.11,0,0,0-2.09-.42h-2v4.12h2a3.6,3.6,0,0,0,2.09-.5A1.9,1.9,0,0,0,160.87,238.62Z"/><path class="cls-1" d="M168.33,234.16h3v11.5h6.12v2.5h-9.12Z"/><path class="cls-1" d="M193.81,248.16h-3.1l-1.12-3.24h-5l-1.12,3.24h-2.94l5-14h3.22Zm-6.76-10.72c0,.1-.07.26-.14.47s-.14.44-.22.7-.17.54-.27.84l-.29.87c-.23.69-.47,1.43-.74,2.22h3.38c-.27-.79-.51-1.53-.74-2.22-.15-.4-.26-.73-.35-1s-.17-.51-.24-.75-.14-.47-.21-.67-.11-.37-.14-.47Z"/><path class="cls-1" d="M199.89,242.3l-5.3-8.14H198l3.42,5.36,3.4-5.36h3.34l-5.3,8.14v5.86h-3Z"/></g><g id="ICON"><path class="cls-3" d="M193.68,113.59c16.06-8.56,35.4,1.43,37.88,19.85,1.7,12.68-3,22.79-13.7,30a3.58,3.58,0,0,1-2.7.4Q198.92,159,182.72,154a3.51,3.51,0,0,1-1.9-1.61C174.06,138.66,180,120.9,193.68,113.59Z"/><path class="cls-4" d="M182,158.33l31,9.32c-2.53.57-4.6,1.19-6.72,1.49a8,8,0,0,0-7.15,6.16c-2,6.83-4.17,13.6-6.13,20.44-.68,2.37-1.85,2.9-4.12,2.15-7.24-2.39-7-1.07-4.61-8.75,1.7-5.62,3.35-11.26,5.11-16.86a7.84,7.84,0,0,0-2.41-8.88C185.3,161.93,183.85,160.26,182,158.33Z"/><path class="cls-5" d="M166.32,106.7c-16.06-8.57-35.4,1.42-37.88,19.85-1.7,12.68,3,22.78,13.7,30a3.68,3.68,0,0,0,2.7.4q16.24-4.8,32.44-9.81a3.48,3.48,0,0,0,1.9-1.62C185.94,131.77,180,114,166.32,106.7Z"/><path class="cls-4" d="M178,151.44l-31,9.31c2.53.57,4.6,1.19,6.72,1.5a8,8,0,0,1,7.15,6.15c2,6.83,4.17,13.61,6.13,20.45.68,2.37,1.84,2.89,4.11,2.14,7.25-2.39,7-1.06,4.62-8.75-1.71-5.62-3.35-11.25-5.11-16.85a7.85,7.85,0,0,1,2.4-8.88C174.7,155,176.15,153.37,178,151.44Z"/><path class="cls-6" d="M181.78,90.21a6.78,6.78,0,0,1,6.92,6.64,7.13,7.13,0,0,1-6.66,6.74,6.78,6.78,0,0,1-6.77-6.76A6.47,6.47,0,0,1,181.78,90.21Z"/></g></svg>