<?xml version="1.0" encoding="utf-8"?>
<!-- Generator: Adobe Illustrator 23.1.0, SVG Export Plug-In . SVG Version: 6.00 Build 0)  -->
<svg version="1.1" xmlns="http://www.w3.org/2000/svg" xmlns:xlink="http://www.w3.org/1999/xlink" x="0px" y="0px"
	 viewBox="0 0 360 360" enable-background="new 0 0 360 360" xml:space="preserve">
<g id="BACKGROUND">
	<rect x="0" y="0" width="360" height="360"/>
</g>
<g id="REF" display="none">
	
		<rect x="-360" y="90.33" display="inline" fill="none" stroke="#000000" stroke-width="0.25" stroke-miterlimit="10" width="360" height="108"/>
	
		<rect y="90.33" display="inline" fill="none" stroke="#FFFFFF" stroke-width="0.25" stroke-miterlimit="10" width="360" height="108"/>
	
		<line display="inline" fill="none" stroke="#FFFFFF" stroke-width="0.25" stroke-linecap="round" stroke-miterlimit="10" x1="180" y1="0.19" x2="180" y2="360.06"/>
</g>
<g id="LINE_ONE">
	<g>
		<path fill="#FFFFFF" d="M137.93,234.16h3v5.54h5.3v-5.54h3v14h-3v-5.94h-5.3v5.94h-3V234.16z"/>
		<path fill="#FFFFFF" d="M154.51,248.16v-14h9.54v2.48h-6.58v3.08h6.12v2.48h-6.12v3.48h6.68v2.48H154.51z"/>
		<path fill="#FFFFFF" d="M180.95,248.16h-3.1l-1.12-3.24h-5.02l-1.12,3.24h-2.94l5.04-14h3.22L180.95,248.16z M174.19,237.44
			c-0.03,0.11-0.07,0.26-0.14,0.47c-0.07,0.21-0.14,0.44-0.22,0.7s-0.17,0.54-0.27,0.84s-0.2,0.59-0.29,0.87
			c-0.23,0.69-0.47,1.43-0.74,2.22h3.38c-0.27-0.79-0.51-1.53-0.74-2.22c-0.15-0.4-0.26-0.73-0.35-0.99
			c-0.09-0.26-0.17-0.51-0.24-0.75c-0.07-0.24-0.14-0.46-0.21-0.67s-0.11-0.36-0.14-0.47H174.19z"/>
		<path fill="#FFFFFF" d="M185.09,234.16h3v11.5h6.12v2.5h-9.12V234.16z"/>
		<path fill="#FFFFFF" d="M195.45,234.16h11.1v2.5h-4.04v11.5h-3.02v-11.5h-4.04V234.16z"/>
		<path fill="#FFFFFF" d="M210.77,234.16h3v5.54h5.3v-5.54h3v14h-3v-5.94h-5.3v5.94h-3V234.16z"/>
	</g>
</g>
<g id="LINE_TWO">
</g>
<g id="ICON">
	<g>
		<path fill="#FFFFFF" d="M118.12,189.08c0-1.37,0-2.52,0-3.68c0-4.72,0.03-9.45,0-14.17c-0.01-0.98,0.29-1.38,1.26-1.76
			c2.24-0.88,4.51-1.83,6.52-3.14c2.46-1.6,4.69-3.55,6.97-5.41c5.63-4.6,11.55-5.73,18.32-2.34c5.92,2.96,12.09,5.42,18.15,8.12
			c1.15,0.51,2.28,1.08,3.37,1.71c2.6,1.51,3.59,4.78,2.34,7.59c-1.25,2.82-4.07,4.05-7.1,3.03c-3.23-1.09-6.44-2.24-9.65-3.35
			c-0.46-0.16-0.94-0.29-1.52-0.12c1.35,0.55,2.72,1.04,4.04,1.65c5.87,2.74,11.99,4.19,18.49,3.46c4.03-0.46,8.06-1.05,12.06-1.75
			c5.75-1,11.47-2.14,17.21-3.21c2.55-0.48,4.5,1.07,4.78,3.66c0.34,3.18-2.56,6.97-5.24,7.78c-8.97,2.73-17.91,5.59-26.75,8.71
			c-6.17,2.18-12,1.86-17.96-0.7c-6.56-2.81-13.25-5.32-19.9-7.92c-5.81-2.27-11.67-2.7-17.64-0.48
			C123.4,187.67,120.85,188.27,118.12,189.08z"/>
		<path fill="#FFFFFF" d="M193,132.77L193,132.77c-2.62-2.62-6.86-2.62-9.48,0l-2.02,2.02l-2.02-2.02c-2.62-2.62-6.86-2.62-9.48,0
			l0,0c-2.62,2.62-2.62,6.86,0,9.48l2.02,2.02l0,0l9.48,9.48l0,0l0,0l9.48-9.48l0,0l2.02-2.02
			C195.61,139.63,195.61,135.38,193,132.77z"/>
		<g>
			<path fill="none" stroke="#FFFFFF" stroke-width="3" stroke-linecap="round" stroke-miterlimit="10" d="M180.74,171.57
				c-0.09-4.11-2.23-7.36-6.02-9.16c-3.53-1.67-7.25-3.32-10.53-4.78l-0.45-0.2c-1.59-0.71-3.18-1.41-4.76-2.13
				c-0.74-0.33-1.46-0.68-2.19-1.04c-1.43-0.69-2.9-1.4-4.46-1.98c-1.59-0.59-3.15-1.05-4.74-1.5l-1.61-0.46l-0.18-1.66
				c-0.44-3.97-0.42-7.59,0.05-11.06c0.99-7.32,3.5-13.27,7.65-18.21c2.7-3.2,6.11-5.75,10.15-7.56c0.89-0.4,1.87-0.59,3-0.59
				c1.26,0,2.6,0.24,3.73,0.48c1.72,0.36,3.41,0.76,5.19,1.18l0.29,0.07c0.71,0.17,1.43,0.34,2.16,0.51
				c0.42,0.09,0.87,0.14,1.46,0.14c2.1,0,5.41-0.56,8.61-1.14c0,0,0.79-0.14,1-0.18c1.52-0.26,2.96-0.5,4.39-0.63
				c0.27-0.03,0.55-0.04,0.83-0.04c2.06,0,4.13,0.73,6.53,2.29c7.06,4.6,11.39,11.2,13.24,20.17c1.66,8.04,1.43,14.5-0.74,20.34
				c-1.05,2.83-2.71,5.56-4.33,8.21c-1.23,2.01-2.58,3.89-4.02,5.88l-1.33,1.85l-0.98,0.18c-1.81,0.33-3.62,0.68-5.38,1.02
				l-0.17,0.03c-4.44,0.86-9.02,1.75-13.58,2.35l-2.74,0.36L180.74,171.57z"/>
		</g>
		<path fill="none" stroke="#FFFFFF" stroke-width="3" stroke-linecap="round" stroke-linejoin="round" stroke-miterlimit="10" d="
			M180.58,105.02c-23.73,4.49-22.62-14.05-22.62-14.05S172.78,82.17,180.58,105.02z"/>
		<path fill="none" stroke="#FFFFFF" stroke-width="3" stroke-linecap="round" stroke-miterlimit="10" d="M179.85,113.58
			c0,0-1.16-10.9,5.85-20.98"/>
	</g>
</g>
</svg>
