<svg xmlns="http://www.w3.org/2000/svg" viewBox="0 0 360 360"><defs><style>.cls-1{fill:#231f20;}.cls-2{fill:#fff;}.cls-3,.cls-4,.cls-5{fill:none;stroke:#fff;stroke-miterlimit:10;}.cls-3,.cls-5{stroke-linecap:round;}.cls-3{stroke-width:5px;}.cls-4,.cls-5{stroke-width:2.5px;}</style></defs><title>CARD</title><g id="BACKGROUND"><rect class="cls-1" x="-3" width="360" height="360"/></g><g id="LINE_ONE" data-name="LINE ONE"><path class="cls-2" d="M74.92,234.16H78l2.32,3.76,1.08,1.75.84,1.37.8,1.29.64,1h.06v-9.2h2.84v14H83.5l-2.28-3.7-1.07-1.73c-.29-.46-.57-.92-.85-1.38L78.49,240c-.26-.42-.48-.78-.67-1.07h-.06v9.2H74.92Z"/><path class="cls-2" d="M91.9,248.16v-14h9.54v2.48H94.86v3.08H101v2.48H94.86v3.48h6.68v2.48Z"/><path class="cls-2" d="M105.12,234.16h11.1v2.5h-4v11.5h-3v-11.5h-4Z"/><path class="cls-2" d="M126.66,234.16h10.88v2.3l-7.34,9.2h7.28v2.5H126.42v-2.28l7.38-9.22h-7.14Z"/><path class="cls-2" d="M142.1,248.16v-14h9.54v2.48h-6.58v3.08h6.12v2.48h-6.12v3.48h6.68v2.48Z"/><path class="cls-2" d="M166.86,238.42a3.94,3.94,0,0,1-2.66,4l3.22,5.74h-3.3l-2.9-5.3h-1.86v5.3h-3v-14h5.12a8.89,8.89,0,0,1,2.21.25,4.78,4.78,0,0,1,1.69.77,3.46,3.46,0,0,1,1.08,1.32A4.47,4.47,0,0,1,166.86,238.42Zm-3.08,0a1.51,1.51,0,0,0-.65-1.41,3.91,3.91,0,0,0-2-.39h-1.8v3.78h1.8a3.48,3.48,0,0,0,2-.45A1.74,1.74,0,0,0,163.78,238.44Z"/><path class="cls-2" d="M171.32,241.16a8.83,8.83,0,0,1,.49-3,6.64,6.64,0,0,1,1.38-2.29,5.82,5.82,0,0,1,2.15-1.44,8.09,8.09,0,0,1,5.6,0,5.82,5.82,0,0,1,2.15,1.44,6.64,6.64,0,0,1,1.38,2.29,9.74,9.74,0,0,1,0,6.1,6.64,6.64,0,0,1-1.38,2.29,5.82,5.82,0,0,1-2.15,1.44,8.09,8.09,0,0,1-5.6,0,5.82,5.82,0,0,1-2.15-1.44,6.64,6.64,0,0,1-1.38-2.29A8.83,8.83,0,0,1,171.32,241.16Zm3.1,0a7.9,7.9,0,0,0,.23,2,4.33,4.33,0,0,0,.69,1.52,3.14,3.14,0,0,0,1.16,1,4,4,0,0,0,3.28,0,3.14,3.14,0,0,0,1.16-1,4.33,4.33,0,0,0,.69-1.52,8.38,8.38,0,0,0,0-3.9,4.33,4.33,0,0,0-.69-1.52,3.14,3.14,0,0,0-1.16-1,4,4,0,0,0-3.28,0,3.14,3.14,0,0,0-1.16,1,4.33,4.33,0,0,0-.69,1.52A7.9,7.9,0,0,0,174.42,241.16Z"/><path class="cls-2" d="M196.36,248.16v-14h9.54v2.48h-6.58v3.08h6.12v2.48h-6.12v3.48H206v2.48Z"/><path class="cls-2" d="M210.64,234.16h3.12l2.32,3.76,1.08,1.75L218,241l.8,1.29.64,1h.06v-9.2h2.84v14h-3.12l-2.28-3.7-1.07-1.73c-.29-.46-.57-.92-.85-1.38l-.81-1.32c-.26-.42-.48-.78-.67-1.07h-.06v9.2h-2.84Z"/><path class="cls-2" d="M227.62,248.16v-14h9.54v2.48h-6.58v3.08h6.12v2.48h-6.12v3.48h6.68v2.48Z"/><path class="cls-2" d="M252.38,238.42a3.94,3.94,0,0,1-2.66,4l3.22,5.74h-3.3l-2.9-5.3h-1.86v5.3h-3v-14H247a8.89,8.89,0,0,1,2.21.25,4.78,4.78,0,0,1,1.69.77A3.56,3.56,0,0,1,252,236.5,4.47,4.47,0,0,1,252.38,238.42Zm-3.08,0a1.51,1.51,0,0,0-.65-1.41,3.91,3.91,0,0,0-2-.39h-1.8v3.78h1.8a3.48,3.48,0,0,0,2-.45A1.74,1.74,0,0,0,249.3,238.44Z"/><path class="cls-2" d="M263.14,240.4h6.44v7.76h-2.72v-1.44a3.69,3.69,0,0,1-1.36,1.22,4.83,4.83,0,0,1-2.34.5,6.29,6.29,0,0,1-2.75-.57,5.72,5.72,0,0,1-2-1.55,6.7,6.7,0,0,1-1.19-2.3,9.56,9.56,0,0,1-.4-2.82,9,9,0,0,1,.47-3,6.53,6.53,0,0,1,1.37-2.31,6.18,6.18,0,0,1,2.19-1.51,7.54,7.54,0,0,1,2.93-.54,6.74,6.74,0,0,1,3.62.93,5.74,5.74,0,0,1,2.26,2.75l-2.78,1.14a3.59,3.59,0,0,0-1.22-1.73,3.24,3.24,0,0,0-2-.61,3.35,3.35,0,0,0-2.72,1.25,5.72,5.72,0,0,0-1,3.69q0,4.68,3.7,4.68a4,4,0,0,0,1.08-.15,3.2,3.2,0,0,0,1-.46,2.51,2.51,0,0,0,.73-.79,2.24,2.24,0,0,0,.28-1.16v-.64h-3.58Z"/><path class="cls-2" d="M278,242.3l-5.3-8.14h3.44l3.42,5.36,3.4-5.36h3.34L281,242.3v5.86h-3Z"/></g><g id="ICON"><line class="cls-3" x1="123.44" y1="195.43" x2="236.56" y2="195.43"/><line class="cls-3" x1="145.82" y1="195.43" x2="145.82" y2="166.09"/><line class="cls-3" x1="131.51" y1="176.76" x2="160.13" y2="152.66"/><line class="cls-3" x1="180" y1="195.43" x2="180" y2="166.09"/><line class="cls-3" x1="165.69" y1="176.76" x2="194.31" y2="152.66"/><line class="cls-3" x1="213.12" y1="195.43" x2="213.12" y2="166.09"/><line class="cls-3" x1="198.81" y1="176.76" x2="227.43" y2="152.66"/><circle class="cls-4" cx="127.21" cy="112.73" r="10.55"/><line class="cls-5" x1="127.21" y1="98.88" x2="127.21" y2="89.46"/><line class="cls-5" x1="127.21" y1="135.99" x2="127.21" y2="126.57"/><line class="cls-5" x1="141.05" y1="112.73" x2="150.48" y2="112.73"/><line class="cls-5" x1="103.95" y1="112.73" x2="113.37" y2="112.73"/><line class="cls-5" x1="137" y1="102.94" x2="143.66" y2="96.28"/><line class="cls-5" x1="110.76" y1="129.18" x2="117.42" y2="122.51"/><line class="cls-5" x1="137" y1="122.51" x2="143.66" y2="129.18"/><line class="cls-5" x1="110.76" y1="96.28" x2="117.42" y2="102.94"/></g></svg>