<svg xmlns="http://www.w3.org/2000/svg" viewBox="0 0 360 360"><defs><style>.cls-1{fill:#fff;}.cls-2{fill:#0b6e3a;}.cls-3{fill:#0c6e39;}</style></defs><title>CARD</title><g id="Layer_6" data-name="Layer 6"><rect class="cls-1" x="0.42" y="-0.41" width="360" height="360"/></g><g id="BACKGROUND"><rect class="cls-2" y="336.06" width="360" height="23.94"/><path class="cls-1" d="M207,344.09h3.64a2.91,2.91,0,0,1,1.06.17,2.19,2.19,0,0,1,.77.46,1.86,1.86,0,0,1,.49.69,2.29,2.29,0,0,1,.17.87,2.08,2.08,0,0,1-.11.69,1.73,1.73,0,0,1-.68.89,2,2,0,0,1-.46.24,2,2,0,0,1,.56.15,1.94,1.94,0,0,1,.52.34,1.76,1.76,0,0,1,.39.56,2.05,2.05,0,0,1,.15.83,2.55,2.55,0,0,1-.2,1,2.39,2.39,0,0,1-.57.79,2.72,2.72,0,0,1-.85.53,3.14,3.14,0,0,1-1.08.19H207Zm1.75,1.46v1.95H210a1.74,1.74,0,0,0,1-.22.87.87,0,0,0,.31-.78.88.88,0,0,0-.27-.73,1.42,1.42,0,0,0-.9-.22Zm0,5.47h1.44a1.82,1.82,0,0,0,1.16-.27,1,1,0,0,0,.3-.78.85.85,0,0,0-.37-.82,2.33,2.33,0,0,0-1.11-.21h-1.42Z"/><path class="cls-1" d="M219.57,352.66a3.34,3.34,0,0,1-2.56-.87,3.39,3.39,0,0,1-.8-2.4v-5.3H218v5.31a2,2,0,0,0,.38,1.27,1.64,1.64,0,0,0,2.36,0,2,2,0,0,0,.38-1.27v-5.31h1.8v5.3a3.39,3.39,0,0,1-.8,2.4A3.34,3.34,0,0,1,219.57,352.66Z"/><path class="cls-1" d="M226.05,344.09h1.8v8.4h-1.8Z"/><path class="cls-1" d="M231,344.09h1.8V351h3.67v1.5H231Z"/><path class="cls-1" d="M237.23,344.09h6.66v1.5h-2.42v6.9h-1.81v-6.9h-2.43Z"/><path class="cls-1" d="M250.45,352.49v-8.4h5.72v1.49h-4v1.84h3.67v1.49h-3.67V351h4v1.49Z"/><path class="cls-1" d="M259,344.09h1.88c.48.79.95,1.54,1.39,2.25l.65,1.05.5.83.48.77.38.62h0v-5.52H266v8.4h-1.87c-.48-.78-.93-1.52-1.37-2.22-.25-.42-.47-.76-.64-1l-.51-.83-.48-.79c-.16-.25-.29-.47-.41-.64h0v5.52H259Z"/><path class="cls-1" d="M270.44,344.09l.84,2.43c.16.46.29.84.39,1.16s.21.62.32.94l.3.92.25.79h0c.07-.23.16-.5.25-.8l.31-.95.34-1,.35-1q.39-1.17.84-2.43h1.85l-3.1,8.4h-1.83l-3.06-8.4Z"/><path class="cls-1" d="M279,344.09h1.8v8.4H279Z"/><path class="cls-1" d="M290.23,346.64a2.36,2.36,0,0,1-1.6,2.4l1.93,3.45h-2l-1.74-3.18h-1.11v3.18h-1.79v-8.4H287a5.47,5.47,0,0,1,1.33.15,2.84,2.84,0,0,1,1,.46,2.08,2.08,0,0,1,.65.79A2.71,2.71,0,0,1,290.23,346.64Zm-1.85,0a.91.91,0,0,0-.39-.85,2.3,2.3,0,0,0-1.18-.23h-1.08v2.26h1.08a2.08,2.08,0,0,0,1.18-.27A1,1,0,0,0,288.38,346.66Z"/><path class="cls-1" d="M292.9,348.29a5.24,5.24,0,0,1,.3-1.83,4,4,0,0,1,.82-1.38,3.7,3.7,0,0,1,1.29-.86,4.88,4.88,0,0,1,3.37,0,3.57,3.57,0,0,1,1.28.86,3.83,3.83,0,0,1,.83,1.38,5.73,5.73,0,0,1,0,3.66,3.7,3.7,0,0,1-.83,1.37,3.47,3.47,0,0,1-1.28.87,4.88,4.88,0,0,1-3.37,0,3.59,3.59,0,0,1-1.29-.87,3.82,3.82,0,0,1-.82-1.37A5.24,5.24,0,0,1,292.9,348.29Zm1.86,0a4.81,4.81,0,0,0,.14,1.17,2.72,2.72,0,0,0,.41.91,2,2,0,0,0,.7.59,2.42,2.42,0,0,0,2,0,2,2,0,0,0,.7-.59,2.72,2.72,0,0,0,.41-.91,4.81,4.81,0,0,0,.14-1.17,4.69,4.69,0,0,0-.14-1.17,2.63,2.63,0,0,0-.41-.91,1.89,1.89,0,0,0-.7-.59,2.42,2.42,0,0,0-2,0,1.89,1.89,0,0,0-.7.59,2.63,2.63,0,0,0-.41.91A4.69,4.69,0,0,0,294.76,348.29Z"/><path class="cls-1" d="M303.91,344.09h1.87l1.39,2.25.65,1.05c.17.28.34.55.5.83l.48.77.39.62h0v-5.52h1.71v8.4h-1.88c-.47-.78-.93-1.52-1.36-2.22l-.65-1-.51-.83-.48-.79-.4-.64h0v5.52h-1.7Z"/><path class="cls-1" d="M317.79,352.49q-.18-.5-.45-1.29l-.56-1.66c-.19-.58-.38-1.14-.56-1.7s-.32-1-.43-1.39h0v6H314.1v-8.4h2.51c.35,1,.66,2,.94,2.82.17.51.31.92.41,1.24s.21.62.3.91.18.54.26.78.13.4.16.5l.15-.5c.08-.24.16-.51.26-.83l.33-1c.11-.36.23-.72.35-1.08q.41-1.29.9-2.82h2.51v8.4h-1.66v-6h0l-.29.9-.37,1.11c-.13.39-.26.79-.4,1.19s-.26.79-.38,1.15l-.33,1c-.1.3-.19.53-.25.7Z"/><path class="cls-1" d="M326.35,352.49v-8.4h5.72v1.49h-3.95v1.84h3.67v1.49h-3.67V351h4v1.49Z"/><path class="cls-1" d="M334.91,344.09h1.88c.48.79.95,1.54,1.39,2.25l.65,1.05c.16.28.33.55.5.83l.48.77.38.62h0v-5.52h1.7v8.4h-1.87c-.48-.78-.93-1.52-1.37-2.22-.25-.42-.47-.76-.64-1l-.51-.83-.48-.79-.41-.64h0v5.52h-1.71Z"/><path class="cls-1" d="M344.47,344.09h6.66v1.5H348.7v6.9h-1.81v-6.9h-2.42Z"/></g><g id="LINE_ONE" data-name="LINE ONE"><path class="cls-3" d="M141.83,241.16a9.12,9.12,0,0,1,.48-3.07,6.47,6.47,0,0,1,1.37-2.29,5.75,5.75,0,0,1,2.16-1.43,7.82,7.82,0,0,1,2.85-.49,6.83,6.83,0,0,1,3.76,1,5.35,5.35,0,0,1,2.16,3l-2.92,1a3.92,3.92,0,0,0-1.08-1.83,2.86,2.86,0,0,0-2-.65,3.51,3.51,0,0,0-1.62.36,3.26,3.26,0,0,0-1.16,1,4.28,4.28,0,0,0-.69,1.51,7.77,7.77,0,0,0-.23,1.92,7.63,7.63,0,0,0,.23,1.91,4.45,4.45,0,0,0,.69,1.51,3.19,3.19,0,0,0,1.16,1,3.54,3.54,0,0,0,1.64.36,2.94,2.94,0,0,0,1.89-.58,3.53,3.53,0,0,0,1.11-1.76l2.88,1a6,6,0,0,1-2.16,2.8,6.42,6.42,0,0,1-3.76,1,7.5,7.5,0,0,1-2.79-.49,5.94,5.94,0,0,1-2.14-1.42,6.3,6.3,0,0,1-1.37-2.29A9.22,9.22,0,0,1,141.83,241.16Z"/><path class="cls-3" d="M158.43,241.16a8.83,8.83,0,0,1,.49-3,6.64,6.64,0,0,1,1.38-2.29,5.82,5.82,0,0,1,2.15-1.44,8.09,8.09,0,0,1,5.6,0,5.82,5.82,0,0,1,2.15,1.44,6.64,6.64,0,0,1,1.38,2.29,9.74,9.74,0,0,1,0,6.1,6.64,6.64,0,0,1-1.38,2.29,5.82,5.82,0,0,1-2.15,1.44,8.09,8.09,0,0,1-5.6,0,5.82,5.82,0,0,1-2.15-1.44,6.64,6.64,0,0,1-1.38-2.29A8.83,8.83,0,0,1,158.43,241.16Zm3.1,0a7.9,7.9,0,0,0,.23,2,4.33,4.33,0,0,0,.69,1.52,3.14,3.14,0,0,0,1.16,1,4,4,0,0,0,3.28,0,3.14,3.14,0,0,0,1.16-1,4.33,4.33,0,0,0,.69-1.52,8.38,8.38,0,0,0,0-3.9,4.33,4.33,0,0,0-.69-1.52,3.14,3.14,0,0,0-1.16-1,4,4,0,0,0-3.28,0,3.14,3.14,0,0,0-1.16,1,4.33,4.33,0,0,0-.69,1.52A7.9,7.9,0,0,0,161.53,241.16Z"/><path class="cls-3" d="M176.77,234.16h3v11.5h6.12v2.5h-9.12Z"/><path class="cls-3" d="M189,241.16a8.83,8.83,0,0,1,.49-3,6.64,6.64,0,0,1,1.38-2.29,5.82,5.82,0,0,1,2.15-1.44,8.09,8.09,0,0,1,5.6,0,5.9,5.9,0,0,1,2.15,1.44,6.64,6.64,0,0,1,1.38,2.29,9.74,9.74,0,0,1,0,6.1,6.64,6.64,0,0,1-1.38,2.29,5.9,5.9,0,0,1-2.15,1.44,8.09,8.09,0,0,1-5.6,0,5.82,5.82,0,0,1-2.15-1.44,6.64,6.64,0,0,1-1.38-2.29A8.83,8.83,0,0,1,189,241.16Zm3.1,0a7.45,7.45,0,0,0,.23,2,4.33,4.33,0,0,0,.69,1.52,3.14,3.14,0,0,0,1.16,1,4,4,0,0,0,3.28,0,3.22,3.22,0,0,0,1.16-1,4.52,4.52,0,0,0,.69-1.52,8.38,8.38,0,0,0,0-3.9,4.52,4.52,0,0,0-.69-1.52,3.22,3.22,0,0,0-1.16-1,4,4,0,0,0-3.28,0,3.14,3.14,0,0,0-1.16,1,4.33,4.33,0,0,0-.69,1.52A7.45,7.45,0,0,0,192.11,241.16Z"/><path class="cls-3" d="M217.83,238.42a4.24,4.24,0,0,1-.71,2.54,4.31,4.31,0,0,1-2,1.46l3.22,5.74h-3.3l-2.9-5.3h-1.86v5.3h-3v-14h5.12a8.89,8.89,0,0,1,2.21.25,4.78,4.78,0,0,1,1.69.77,3.66,3.66,0,0,1,1.08,1.32A4.47,4.47,0,0,1,217.83,238.42Zm-3.08,0a1.51,1.51,0,0,0-.65-1.41,3.93,3.93,0,0,0-2-.39h-1.8v3.78h1.8a3.5,3.5,0,0,0,2-.45A1.74,1.74,0,0,0,214.75,238.44Z"/></g><g id="LINE_TWO" data-name="LINE TWO"><path class="cls-2" d="M210.94,124.66c6.29-4.87,12.24-9.59,18.32-14.13a30.26,30.26,0,0,1,6.61-3.66c2.74-1.12,5,.87,4.18,3.69a19.23,19.23,0,0,1-3.12,6c-6.5,8.38-13.25,16.58-19.71,25-1.44,1.87-2.82,4.33-2.95,6.6-1.36,23.28-19.87,44.49-42.93,48.85-16.53,3.13-31.39-.41-44.08-11.58-6.21-5.48-8.91-12.46-6.74-20.84,1.16-4.46,4.16-7.52,7.61-10.26,1.51-1.21,3.14-2.28,4.56-3.58,4.28-3.92,4.32-9.33.05-13.29-1.77-1.63-3.81-3-5.66-4.52-8.82-7.41-9.87-18.75-2.38-27.52,7.77-9.08,18.13-13.71,29.66-14.88C179,88.08,199.63,100.39,210,123,210.27,123.48,210.58,124,210.94,124.66Zm-13.51,12.22c2.35-2.06,4.58-4.29,7.09-6.14s2.74-3.58,1.49-6.34c-8.61-19.19-29.19-32.53-51.54-29.5-9.61,1.3-18.4,5-25.3,12.07-7.51,7.75-6.65,17.16,1.91,23.62a56.43,56.43,0,0,1,4.53,3.61c6.17,5.73,6.25,14,.14,19.73-1.66,1.57-3.82,2.64-5.34,4.31-2.06,2.26-4.37,4.63-5.44,7.4-2.41,6.28.35,13.22,7,18.24,11.57,8.74,24.48,11.84,38.83,8.86,20-4.15,36.5-21.91,38.68-42.35l-9.13,9.9c-3.62,4-7.93,7.3-9.29,13-.52,2.2-2.26,4.24-3.8,6-7.64,8.92-21.87,7.29-30.28,3.84-.68-.28-1.54-1.67-1.35-2.16a3.52,3.52,0,0,1,2.23-2c3-.5,4.25-2.44,4.86-5.1.43-1.87.95-3.73,1.31-5.62,1.48-7.67,5.89-12.43,13.64-14a6.12,6.12,0,0,0,2.82-1.31c5.73-5.36,11.38-10.81,17.05-16.22Zm-6.37,26.54c13.25-12.49,39.25-43.22,42.77-50.87-18.43,13.32-34.37,28.28-50.12,43.41Zm-26,17.57a40.13,40.13,0,0,0,4.11.6c6.75.29,12.67-1.36,16.59-7.41,3.34-5.13,3.22-6.23-1.07-10.58l-1.79-1.79c-3.76-3.77-7.21-3.95-10.85,0a19.7,19.7,0,0,0-3.6,6.9C167.13,172.68,166.22,176.76,165.08,181Z"/><path class="cls-1" d="M197.53,136.79c-5.67,5.41-11.32,10.86-17.05,16.22a6.12,6.12,0,0,1-2.82,1.31c-7.75,1.59-12.16,6.35-13.64,14-.36,1.89-.88,3.75-1.31,5.62-.61,2.66-1.86,4.6-4.86,5.1a3.52,3.52,0,0,0-2.23,2c-.19.49.67,1.88,1.35,2.16,8.41,3.45,22.64,5.08,30.28-3.84,1.54-1.8,3.28-3.84,3.8-6,1.36-5.71,5.67-9.06,9.29-13l9.13-9.9c-2.18,20.44-18.71,38.2-38.68,42.35-14.35,3-27.26-.12-38.83-8.86-6.64-5-9.4-12-7-18.24,1.07-2.77,3.38-5.14,5.44-7.4,1.52-1.67,3.68-2.74,5.34-4.31,6.11-5.73,6-14-.14-19.73a56.43,56.43,0,0,0-4.53-3.61c-8.56-6.46-9.42-15.87-1.91-23.62,6.9-7.11,15.69-10.77,25.3-12.07,22.35-3,42.93,10.31,51.54,29.5,1.25,2.76,1,4.53-1.49,6.34s-4.74,4.08-7.09,6.15c.49-.94,1-1.87,1.49-2.81a9.81,9.81,0,0,0-1.72-11.3,10.15,10.15,0,0,0-12-1.37A9.84,9.84,0,0,0,180.87,132a9.13,9.13,0,0,0,9.28,7C192.65,138.85,195.07,137.57,197.53,136.79ZM177.89,114a9.62,9.62,0,1,0-9.66,9.86A9.45,9.45,0,0,0,177.89,114Zm-25.95,7.63a9.58,9.58,0,1,0-9.62,9.53A9.25,9.25,0,0,0,151.94,121.59Zm2.79,48a9.34,9.34,0,0,0-9.63-9.54,9.59,9.59,0,1,0,.08,19.17A9.37,9.37,0,0,0,154.73,169.63Z"/><path class="cls-1" d="M191.06,163.42,183.71,156c15.75-15.13,31.69-30.09,50.12-43.41C230.31,120.2,204.31,150.93,191.06,163.42Z"/><path class="cls-1" d="M165.08,181c1.14-4.23,2-8.31,3.39-12.24a19.7,19.7,0,0,1,3.6-6.9c3.64-4,7.09-3.81,10.85,0l1.79,1.79c4.29,4.35,4.41,5.45,1.07,10.58-3.92,6-9.84,7.7-16.59,7.41A40.13,40.13,0,0,1,165.08,181Z"/><path class="cls-2" d="M177.89,114a9.45,9.45,0,0,1-9.66,9.86,9.7,9.7,0,1,1,9.66-9.86Zm-9.69-5.22a5.79,5.79,0,0,0-5.29,5.4,5.54,5.54,0,0,0,5.65,5.31,5.41,5.41,0,0,0,5-5.51A5.51,5.51,0,0,0,168.2,108.74Z"/><path class="cls-2" d="M151.94,121.59A9.58,9.58,0,1,1,142.4,112,9.33,9.33,0,0,1,151.94,121.59Zm-4.26-.06a5.24,5.24,0,0,0-5.33-5.19,5.21,5.21,0,1,0,.05,10.41A5.15,5.15,0,0,0,147.68,121.53Z"/><path class="cls-2" d="M197.53,136.79c-2.46.78-4.88,2.06-7.38,2.25a9.13,9.13,0,0,1-9.28-7,9.84,9.84,0,0,1,4.34-10.61,10.15,10.15,0,0,1,12,1.37,9.81,9.81,0,0,1,1.72,11.3c-.49.94-1,1.87-1.49,2.81Zm-7-12.35a5,5,0,0,0-5.44,5,5.08,5.08,0,0,0,5.09,5.36,5.18,5.18,0,1,0,.35-10.35Z"/><path class="cls-2" d="M154.73,169.63a9.62,9.62,0,0,1-19.24.09,9.49,9.49,0,0,1,9.61-9.63A9.34,9.34,0,0,1,154.73,169.63Zm-4.34.14a5.29,5.29,0,0,0-10.57-.17,5.47,5.47,0,0,0,5.24,5.41A5.29,5.29,0,0,0,150.39,169.77Z"/><path class="cls-1" d="M168.2,108.74a5.51,5.51,0,0,1,5.35,5.2,5.41,5.41,0,0,1-5,5.51,5.54,5.54,0,0,1-5.65-5.31A5.79,5.79,0,0,1,168.2,108.74Z"/><path class="cls-1" d="M147.68,121.53a5.15,5.15,0,0,1-5.28,5.22,5.21,5.21,0,1,1-.05-10.41A5.24,5.24,0,0,1,147.68,121.53Z"/><path class="cls-1" d="M190.5,124.44a5.18,5.18,0,1,1-.35,10.35,5.08,5.08,0,0,1-5.09-5.36A5,5,0,0,1,190.5,124.44Z"/><path class="cls-1" d="M150.39,169.77a5.29,5.29,0,0,1-5.33,5.24,5.47,5.47,0,0,1-5.24-5.41,5.29,5.29,0,0,1,10.57.17Z"/></g></svg>