<svg xmlns="http://www.w3.org/2000/svg" viewBox="0 0 360 360"><defs><style>.cls-1{fill:#fff;}.cls-2{fill:none;stroke:#fff;stroke-linecap:round;stroke-miterlimit:10;stroke-width:5px;}</style></defs><title>CARD</title><g id="Layer_6" data-name="Layer 6"><rect y="0.14" width="360" height="360"/></g><g id="LINE_ONE" data-name="LINE ONE"><path class="cls-1" d="M126.86,248.3h-3.1l-1.12-3.24h-5l-1.12,3.24h-2.94l5-14h3.22Zm-6.76-10.72c0,.11-.07.26-.14.47s-.14.44-.22.7-.17.54-.27.84-.2.59-.29.87c-.23.69-.47,1.44-.74,2.22h3.38c-.27-.78-.51-1.53-.74-2.22-.15-.4-.26-.73-.35-1s-.17-.51-.24-.75-.14-.46-.21-.67-.11-.36-.14-.47Z"/><path class="cls-1" d="M129.72,241.3a9.12,9.12,0,0,1,.48-3.07,6.47,6.47,0,0,1,1.37-2.29,5.88,5.88,0,0,1,2.16-1.43,8,8,0,0,1,2.85-.49,6.83,6.83,0,0,1,3.76,1,5.35,5.35,0,0,1,2.16,3l-2.92,1a4,4,0,0,0-1.08-1.83,2.86,2.86,0,0,0-2-.65,3.51,3.51,0,0,0-1.62.36,3.26,3.26,0,0,0-1.16,1,4.28,4.28,0,0,0-.69,1.51,7.77,7.77,0,0,0-.23,1.92,7.63,7.63,0,0,0,.23,1.91,4.45,4.45,0,0,0,.69,1.51,3.19,3.19,0,0,0,1.16,1,3.54,3.54,0,0,0,1.64.36,2.94,2.94,0,0,0,1.89-.58,3.53,3.53,0,0,0,1.11-1.76l2.88,1a6,6,0,0,1-2.16,2.8,6.42,6.42,0,0,1-3.76,1,7.5,7.5,0,0,1-2.79-.49,5.82,5.82,0,0,1-2.14-1.42,6.3,6.3,0,0,1-1.37-2.29A9.18,9.18,0,0,1,129.72,241.3Z"/><path class="cls-1" d="M146.32,241.3a8.83,8.83,0,0,1,.49-3.05,6.64,6.64,0,0,1,1.38-2.29,5.94,5.94,0,0,1,2.15-1.44,8.09,8.09,0,0,1,5.6,0,5.94,5.94,0,0,1,2.15,1.44,6.64,6.64,0,0,1,1.38,2.29,9.74,9.74,0,0,1,0,6.1,6.55,6.55,0,0,1-1.38,2.29,5.82,5.82,0,0,1-2.15,1.44,8.09,8.09,0,0,1-5.6,0,5.82,5.82,0,0,1-2.15-1.44,6.55,6.55,0,0,1-1.38-2.29A8.79,8.79,0,0,1,146.32,241.3Zm3.1,0a7.9,7.9,0,0,0,.23,1.95,4.33,4.33,0,0,0,.69,1.52,3.14,3.14,0,0,0,1.16,1,4,4,0,0,0,3.28,0,3.14,3.14,0,0,0,1.16-1,4.33,4.33,0,0,0,.69-1.52,8.38,8.38,0,0,0,0-3.9,4.33,4.33,0,0,0-.69-1.52,3.14,3.14,0,0,0-1.16-1,4,4,0,0,0-3.28,0,3.14,3.14,0,0,0-1.16,1,4.33,4.33,0,0,0-.69,1.52A7.9,7.9,0,0,0,149.42,241.3Z"/><path class="cls-1" d="M170.18,248.58a5.56,5.56,0,0,1-4.26-1.44,5.65,5.65,0,0,1-1.34-4V234.3h3v8.86a3.32,3.32,0,0,0,.64,2.11,2.73,2.73,0,0,0,3.92,0,3.32,3.32,0,0,0,.64-2.11V234.3h3v8.84a5.65,5.65,0,0,1-1.34,4A5.56,5.56,0,0,1,170.18,248.58Z"/><path class="cls-1" d="M183.7,238a1.34,1.34,0,0,0,.78,1.29,9.48,9.48,0,0,0,2.48.67,7.86,7.86,0,0,1,3.67,1.38,3.48,3.48,0,0,1,1.17,2.86,3.92,3.92,0,0,1-.42,1.83,4.07,4.07,0,0,1-1.17,1.38,5.44,5.44,0,0,1-1.79.88,7.77,7.77,0,0,1-2.26.31,7.68,7.68,0,0,1-2.38-.35,5.66,5.66,0,0,1-1.8-.93,4.41,4.41,0,0,1-1.16-1.36,3.81,3.81,0,0,1-.46-1.62l3-.48a2.56,2.56,0,0,0,.79,1.67,2.84,2.84,0,0,0,2,.65,4.61,4.61,0,0,0,1-.1,2.52,2.52,0,0,0,.82-.33,1.66,1.66,0,0,0,.55-.57,1.61,1.61,0,0,0,.2-.82,1.35,1.35,0,0,0-.65-1.2,6.31,6.31,0,0,0-2.29-.68,16.15,16.15,0,0,1-2-.46,5.23,5.23,0,0,1-1.63-.77,3.51,3.51,0,0,1-1.08-1.22,3.73,3.73,0,0,1-.39-1.79,4,4,0,0,1,.4-1.84,3.72,3.72,0,0,1,1.12-1.31,5,5,0,0,1,1.7-.79A8.48,8.48,0,0,1,186,234a8.16,8.16,0,0,1,2,.25,5.77,5.77,0,0,1,1.67.74,4.36,4.36,0,0,1,1.21,1.21,4.49,4.49,0,0,1,.66,1.64l-3,.66a2.45,2.45,0,0,0-.82-1.52,2.67,2.67,0,0,0-1.78-.56,2.78,2.78,0,0,0-1.69.42A1.34,1.34,0,0,0,183.7,238Z"/><path class="cls-1" d="M194.9,234.3H206v2.5h-4v11.5h-3V236.8h-4Z"/><path class="cls-1" d="M210.22,234.3h3v14h-3Z"/><path class="cls-1" d="M217.92,241.3a9.12,9.12,0,0,1,.48-3.07,6.33,6.33,0,0,1,1.37-2.29,5.88,5.88,0,0,1,2.16-1.43,8,8,0,0,1,2.85-.49,6.83,6.83,0,0,1,3.76,1,5.35,5.35,0,0,1,2.16,3l-2.92,1a4,4,0,0,0-1.08-1.83,2.86,2.86,0,0,0-2-.65,3.51,3.51,0,0,0-1.62.36,3.26,3.26,0,0,0-1.16,1,4.28,4.28,0,0,0-.69,1.51,7.32,7.32,0,0,0-.23,1.92,7.2,7.2,0,0,0,.23,1.91,4.45,4.45,0,0,0,.69,1.51,3.19,3.19,0,0,0,1.16,1,3.54,3.54,0,0,0,1.64.36,2.94,2.94,0,0,0,1.89-.58,3.53,3.53,0,0,0,1.11-1.76l2.88,1a6,6,0,0,1-2.16,2.8,6.42,6.42,0,0,1-3.76,1,7.5,7.5,0,0,1-2.79-.49,5.82,5.82,0,0,1-2.14-1.42,6.17,6.17,0,0,1-1.37-2.29A9.18,9.18,0,0,1,217.92,241.3Z"/><path class="cls-1" d="M237.82,238a1.34,1.34,0,0,0,.78,1.29,9.48,9.48,0,0,0,2.48.67,7.86,7.86,0,0,1,3.67,1.38,3.48,3.48,0,0,1,1.17,2.86,3.92,3.92,0,0,1-.42,1.83,4.07,4.07,0,0,1-1.17,1.38,5.44,5.44,0,0,1-1.79.88,7.77,7.77,0,0,1-2.26.31,7.68,7.68,0,0,1-2.38-.35,5.66,5.66,0,0,1-1.8-.93,4.41,4.41,0,0,1-1.16-1.36,3.81,3.81,0,0,1-.46-1.62l3-.48a2.56,2.56,0,0,0,.79,1.67,2.84,2.84,0,0,0,2,.65,4.61,4.61,0,0,0,1-.1,2.52,2.52,0,0,0,.82-.33,1.66,1.66,0,0,0,.55-.57,1.61,1.61,0,0,0,.2-.82,1.35,1.35,0,0,0-.65-1.2,6.31,6.31,0,0,0-2.29-.68,16.15,16.15,0,0,1-2-.46,5.23,5.23,0,0,1-1.63-.77,3.51,3.51,0,0,1-1.08-1.22,3.73,3.73,0,0,1-.39-1.79,4,4,0,0,1,.4-1.84,3.72,3.72,0,0,1,1.12-1.31,5,5,0,0,1,1.7-.79,8.48,8.48,0,0,1,2.14-.26,8.16,8.16,0,0,1,2,.25,5.77,5.77,0,0,1,1.67.74,4.36,4.36,0,0,1,1.21,1.21,4.49,4.49,0,0,1,.66,1.64l-3,.66a2.45,2.45,0,0,0-.82-1.52,2.67,2.67,0,0,0-1.78-.56,2.78,2.78,0,0,0-1.69.42A1.34,1.34,0,0,0,237.82,238Z"/></g><g id="ICON"><line class="cls-2" x1="203.85" y1="90.06" x2="203.85" y2="198.06"/><line class="cls-2" x1="214.18" y1="108.67" x2="214.18" y2="179.46"/><line class="cls-2" x1="223.82" y1="126.01" x2="223.82" y2="165.62"/><line class="cls-2" x1="233.45" y1="137.64" x2="233.45" y2="153.99"/><line class="cls-2" x1="193.2" y1="108.67" x2="193.2" y2="179.46"/><line class="cls-2" x1="183.56" y1="126.01" x2="183.56" y2="165.62"/><line class="cls-2" x1="173.92" y1="137.64" x2="173.92" y2="153.99"/><line class="cls-2" x1="156.6" y1="139.37" x2="156.6" y2="152.61"/><line class="cls-2" x1="147.73" y1="131.75" x2="147.73" y2="156.37"/><line class="cls-2" x1="126.87" y1="131.75" x2="126.87" y2="156.37"/><line class="cls-2" x1="137.51" y1="118.19" x2="137.51" y2="169.94"/><line class="cls-2" x1="165.03" y1="141.32" x2="165.03" y2="150.66"/><line class="cls-2" x1="117.51" y1="139.37" x2="117.51" y2="152.61"/><line class="cls-2" x1="108.08" y1="141.32" x2="108.08" y2="150.66"/><line class="cls-2" x1="252.71" y1="137.06" x2="252.71" y2="153.4"/><line class="cls-2" x1="243.06" y1="133.34" x2="243.06" y2="158.29"/></g></svg>