<svg xmlns="http://www.w3.org/2000/svg" viewBox="0 0 360 360"><defs><style>.cls-1{fill:#fff;}.cls-2{fill:#ee3e25;}.cls-3{fill:#ee3f24;}</style></defs><title>CARD</title><g id="Layer_6" data-name="Layer 6"><rect class="cls-1" x="0.42" y="-0.41" width="360" height="360"/></g><g id="BACKGROUND"><rect class="cls-2" y="336.06" width="360" height="23.94"/><path class="cls-1" d="M162.39,352.49v-8.4h5.72v1.49h-3.94v1.84h3.67v1.49h-3.67V351h4v1.49Z"/><path class="cls-1" d="M171,344.09h3.13a4.94,4.94,0,0,1,1.73.28,3.55,3.55,0,0,1,1.29.81,3.42,3.42,0,0,1,.81,1.32,5.67,5.67,0,0,1,0,3.58,3.45,3.45,0,0,1-.81,1.31,3.3,3.3,0,0,1-1.29.81,4.94,4.94,0,0,1-1.73.29H171Zm5.39,4.2a4.21,4.21,0,0,0-.14-1.11,2.31,2.31,0,0,0-.42-.86,1.87,1.87,0,0,0-.72-.55,2.46,2.46,0,0,0-1-.19h-1.27V351H174a2.63,2.63,0,0,0,1-.19,1.87,1.87,0,0,0,.72-.55,2.47,2.47,0,0,0,.42-.86A4.27,4.27,0,0,0,176.35,348.29Z"/><path class="cls-1" d="M184.34,352.66a3.34,3.34,0,0,1-2.56-.87,3.41,3.41,0,0,1-.8-2.4v-5.3h1.8v5.31a2,2,0,0,0,.38,1.27,1.41,1.41,0,0,0,1.18.5,1.38,1.38,0,0,0,1.17-.5,2,2,0,0,0,.39-1.27v-5.31h1.8v5.3a3.37,3.37,0,0,1-.81,2.4A3.3,3.3,0,0,1,184.34,352.66Z"/><path class="cls-1" d="M190.47,348.29a5.61,5.61,0,0,1,.29-1.85,3.85,3.85,0,0,1,.82-1.37,3.52,3.52,0,0,1,1.3-.86,4.79,4.79,0,0,1,1.71-.29,4,4,0,0,1,2.25.59,3.22,3.22,0,0,1,1.3,1.78l-1.75.62a2.37,2.37,0,0,0-.65-1.1,1.72,1.72,0,0,0-1.19-.39,2,2,0,0,0-1.67.81,2.63,2.63,0,0,0-.41.91,4.59,4.59,0,0,0-.14,1.15,4.51,4.51,0,0,0,.14,1.14,2.81,2.81,0,0,0,.41.91,2.13,2.13,0,0,0,.7.6,2.18,2.18,0,0,0,1,.22,1.8,1.8,0,0,0,1.14-.35,2.15,2.15,0,0,0,.66-1.06l1.73.61a3.49,3.49,0,0,1-1.3,1.68,3.81,3.81,0,0,1-2.25.62,4.49,4.49,0,0,1-1.68-.3,3.5,3.5,0,0,1-1.28-.85,3.69,3.69,0,0,1-.82-1.37A5.61,5.61,0,0,1,190.47,348.29Z"/><path class="cls-1" d="M208.07,352.49h-1.86l-.67-1.95h-3l-.67,1.95h-1.77l3-8.4h1.93Zm-4-6.43-.09.28-.13.42-.16.5-.18.52c-.13.42-.28.86-.44,1.33h2c-.16-.47-.31-.91-.44-1.33-.09-.24-.16-.44-.21-.59s-.1-.31-.15-.45-.08-.28-.12-.4l-.09-.28Z"/><path class="cls-1" d="M209,344.09h6.66v1.5H213.2v6.9h-1.81v-6.9H209Z"/><path class="cls-1" d="M218.15,344.09H220v8.4h-1.8Z"/><path class="cls-1" d="M222.77,348.29a5.24,5.24,0,0,1,.3-1.83,3.83,3.83,0,0,1,.83-1.38,3.52,3.52,0,0,1,1.29-.86,4.49,4.49,0,0,1,1.68-.3,4.56,4.56,0,0,1,1.68.3,3.7,3.7,0,0,1,1.29.86,4,4,0,0,1,.82,1.38,5.73,5.73,0,0,1,0,3.66,3.91,3.91,0,0,1-.82,1.37,3.44,3.44,0,0,1-1.29.86,4.37,4.37,0,0,1-1.68.31,4.3,4.3,0,0,1-1.68-.31,3.29,3.29,0,0,1-1.29-.86,3.79,3.79,0,0,1-.83-1.37A5.24,5.24,0,0,1,222.77,348.29Zm1.86,0a4.81,4.81,0,0,0,.14,1.17,2.54,2.54,0,0,0,.42.91,1.88,1.88,0,0,0,.69.59,2.42,2.42,0,0,0,2,0,2,2,0,0,0,.7-.59,2.72,2.72,0,0,0,.41-.91,4.81,4.81,0,0,0,.14-1.17,4.69,4.69,0,0,0-.14-1.17,2.77,2.77,0,0,0-.41-.92,2,2,0,0,0-.7-.58,2.42,2.42,0,0,0-2,0,1.85,1.85,0,0,0-.69.58,2.59,2.59,0,0,0-.42.92A4.69,4.69,0,0,0,224.63,348.29Z"/><path class="cls-1" d="M233.78,344.09h1.87l1.39,2.25.65,1.05.5.82.48.78c.16.24.28.45.39.62h0v-5.52h1.71v8.4h-1.88c-.47-.78-.93-1.52-1.36-2.22l-.64-1c-.18-.28-.35-.55-.51-.83l-.49-.79-.4-.64h0v5.52h-1.7Z"/><path class="cls-1" d="M251.26,352.49H249.4l-.67-1.95h-3l-.67,1.95h-1.77l3-8.4h1.93Zm-4-6.43-.09.28-.13.42-.16.5-.18.52c-.13.42-.28.86-.44,1.33h2l-.45-1.33c-.08-.24-.15-.44-.21-.59s-.1-.31-.14-.45-.09-.28-.13-.4l-.08-.28Z"/><path class="cls-1" d="M253.75,344.09h1.8V351h3.67v1.5h-5.47Z"/><path class="cls-1" d="M265.76,352.49v-8.4h5.72v1.49h-4v1.84h3.68v1.49h-3.68V351h4v1.49Z"/><path class="cls-1" d="M278.79,348.08l3.11,4.41h-2.16l-2-2.92-2.07,2.92h-2l3.08-4.32-2.84-4.08H276l1.76,2.59,1.83-2.59h2Z"/><path class="cls-1" d="M286.16,349.53v3h-1.79v-8.4h3.19a5.81,5.81,0,0,1,1.37.15,3.12,3.12,0,0,1,1,.48,2.18,2.18,0,0,1,.67.83,2.81,2.81,0,0,1,.24,1.21,3,3,0,0,1-.24,1.25,2.5,2.5,0,0,1-.68.86,3,3,0,0,1-1,.5,5.21,5.21,0,0,1-1.35.16Zm2.89-2.77a1,1,0,0,0-.42-.93,2.41,2.41,0,0,0-1.25-.25h-1.22v2.47h1.22a2.11,2.11,0,0,0,1.25-.3A1.13,1.13,0,0,0,289.05,346.76Z"/><path class="cls-1" d="M293.52,352.49v-8.4h5.73v1.49H295.3v1.84H299v1.49H295.3V351h4v1.49Z"/><path class="cls-1" d="M308.38,346.64a2.52,2.52,0,0,1-.43,1.53,2.48,2.48,0,0,1-1.17.87l1.94,3.45h-2L305,349.31h-1.12v3.18h-1.79v-8.4h3.07a5.47,5.47,0,0,1,1.33.15,2.76,2.76,0,0,1,1,.46,2.08,2.08,0,0,1,.65.79A2.68,2.68,0,0,1,308.38,346.64Zm-1.85,0a.9.9,0,0,0-.39-.85,2.3,2.3,0,0,0-1.18-.23h-1.08v2.26H305a2.08,2.08,0,0,0,1.18-.27A1,1,0,0,0,306.53,346.66Z"/><path class="cls-1" d="M311.41,344.09h1.8v8.4h-1.8Z"/><path class="cls-1" d="M316.37,352.49v-8.4h5.73v1.49h-4v1.84h3.67v1.49h-3.67V351h4v1.49Z"/><path class="cls-1" d="M324.94,344.09h1.87c.49.79.95,1.54,1.4,2.25l.64,1.05.51.82.48.78.38.62h0v-5.52H332v8.4h-1.87l-1.37-2.22-.64-1-.51-.83-.49-.79c-.15-.25-.29-.47-.4-.64h0v5.52h-1.71Z"/><path class="cls-1" d="M334.78,348.29a5.61,5.61,0,0,1,.29-1.85,3.85,3.85,0,0,1,.82-1.37,3.52,3.52,0,0,1,1.3-.86,4.79,4.79,0,0,1,1.71-.29,4,4,0,0,1,2.25.59,3.22,3.22,0,0,1,1.3,1.78l-1.75.62a2.37,2.37,0,0,0-.65-1.1,1.72,1.72,0,0,0-1.19-.39,2,2,0,0,0-1.67.81,2.63,2.63,0,0,0-.41.91,4.59,4.59,0,0,0-.14,1.15,4.51,4.51,0,0,0,.14,1.14,2.81,2.81,0,0,0,.41.91,2.13,2.13,0,0,0,.7.6,2.18,2.18,0,0,0,1,.22,1.8,1.8,0,0,0,1.14-.35,2.15,2.15,0,0,0,.66-1.06l1.73.61a3.49,3.49,0,0,1-1.3,1.68,3.81,3.81,0,0,1-2.25.62,4.49,4.49,0,0,1-1.68-.3,3.5,3.5,0,0,1-1.28-.85,3.69,3.69,0,0,1-.82-1.37A5.61,5.61,0,0,1,334.78,348.29Z"/><path class="cls-1" d="M345.09,352.49v-8.4h5.72v1.49h-3.95v1.84h3.68v1.49h-3.68V351h4v1.49Z"/></g><g id="LINE_ONE" data-name="LINE ONE"><path class="cls-2" d="M137.61,234.16h3v14h-3Z"/><path class="cls-2" d="M152.05,248.16c-.2-.55-.45-1.26-.75-2.15l-.93-2.77q-.48-1.44-.93-2.82c-.3-.92-.55-1.7-.73-2.32h-.06v10.06h-2.76v-14h4.2c.57,1.71,1.09,3.27,1.56,4.7q.42,1.27.69,2.07c.18.53.34,1,.5,1.51s.29.91.42,1.3.21.67.27.84l.26-.84c.12-.39.26-.84.43-1.37s.34-1.09.54-1.7.39-1.21.59-1.81c.45-1.43,1-3,1.5-4.7H161v14h-2.76V238.1h-.06c-.14.41-.3.91-.48,1.49s-.39,1.2-.61,1.85-.45,1.32-.67,2-.44,1.31-.64,1.92-.39,1.16-.55,1.65l-.41,1.16Z"/><path class="cls-2" d="M169.29,243.24v4.92h-3v-14h5.32a9.4,9.4,0,0,1,2.28.26,4.81,4.81,0,0,1,1.74.8,3.7,3.7,0,0,1,1.12,1.38,4.75,4.75,0,0,1,.4,2,4.87,4.87,0,0,1-.41,2.07,4.05,4.05,0,0,1-1.14,1.44,4.83,4.83,0,0,1-1.75.84,8.76,8.76,0,0,1-2.24.27Zm4.82-4.62a1.68,1.68,0,0,0-.69-1.56,4.11,4.11,0,0,0-2.09-.42h-2v4.12h2a3.6,3.6,0,0,0,2.09-.5A1.9,1.9,0,0,0,174.11,238.62Z"/><path class="cls-2" d="M192.63,248.16h-3.1l-1.12-3.24h-5l-1.12,3.24h-2.94l5-14h3.22Zm-6.76-10.72-.14.47c-.07.21-.14.44-.22.7s-.17.54-.27.84-.2.59-.29.87l-.74,2.22h3.38c-.27-.79-.52-1.53-.74-2.22-.15-.4-.27-.73-.35-1s-.17-.51-.24-.75-.15-.46-.21-.67a4,4,0,0,1-.14-.47Z"/><path class="cls-2" d="M195.49,241.16a9.12,9.12,0,0,1,.48-3.07,6.25,6.25,0,0,1,1.37-2.29,5.75,5.75,0,0,1,2.16-1.43,7.74,7.74,0,0,1,2.85-.49,6.85,6.85,0,0,1,3.76,1,5.35,5.35,0,0,1,2.16,3l-2.92,1a3.92,3.92,0,0,0-1.08-1.83,2.82,2.82,0,0,0-2-.65,3.46,3.46,0,0,0-1.62.36,3.18,3.18,0,0,0-1.16,1,4.28,4.28,0,0,0-.69,1.51,7.27,7.27,0,0,0-.23,1.92,7.2,7.2,0,0,0,.23,1.91,4.45,4.45,0,0,0,.69,1.51,3.12,3.12,0,0,0,1.16,1,3.51,3.51,0,0,0,1.64.36,2.94,2.94,0,0,0,1.89-.58,3.72,3.72,0,0,0,1.11-1.76l2.88,1a6.07,6.07,0,0,1-2.16,2.8,6.44,6.44,0,0,1-3.76,1,7.7,7.7,0,0,1-2.79-.49,5.86,5.86,0,0,1-2.14-1.42,6.17,6.17,0,0,1-1.37-2.29A9.26,9.26,0,0,1,195.49,241.16Z"/><path class="cls-2" d="M211.61,234.16h11.1v2.5h-4v11.5h-3v-11.5h-4Z"/></g><g id="ICON"><path class="cls-3" d="M197.65,91.93m-26.06,3.22,16.11,7.66a1.77,1.77,0,0,0,1.39,2.06,4.11,4.11,0,0,1,3.06,3.8,16.35,16.35,0,0,0,1.21,3.36c.47,1.41,1.47,1.67,2.82,1.66a8.19,8.19,0,0,1,3.1.56,1.73,1.73,0,0,1,.66,1.56c-.14.41-1,.65-1.52.82-.27.08-.62-.2-.95-.24-5.2-.66-6.87-2.14-8-7.11a2.61,2.61,0,0,0-4.18-1.72,20,20,0,0,0-3.89,4.22,6.26,6.26,0,0,1-3.71,2.79c-1.19.31-2.25,1.06-3.41,1.47-.55.2-1.45.31-1.76,0s-.4-1.52-.13-1.72a12.42,12.42,0,0,1,3.85-2.21,5,5,0,0,0,2.93-2.07,49.61,49.61,0,0,1,4.67-4.85c.42-.44,1.1-.92,1.12-1.4.11-2.54,0-5.09,0-7.64v-2.1l-.12-3.32v-3.1a50.72,50.72,0,0,1-5.23,0,7.87,7.87,0,0,1-7.44-6.53,60.26,60.26,0,0,1-.83-9.33,1.68,1.68,0,0,1,.94-1.29,1.64,1.64,0,0,1,1.47.57c1.89,2.92,4.69,4.4,7.81,5.65,1.79.73,3.29,2.16,5,3.34,1.28-2.08,3.63-2.92,5.95-4s4-3,6-4.48a17.3,17.3,0,0,1,1.86-1.12c.35.65,1,1.32,1,2a46.08,46.08,0,0,1-.89,8.73c-1.26,5-5.45,7.41-10.6,6.5-.65-.12-1.32-.18-2.11-.28l-.15,15.52M173.93,75.26c-.54,6.54,3.3,10.89,7.86,9.3a5.6,5.6,0,0,1-1.66-1.12,7.25,7.25,0,0,1-.62-2,6.23,6.23,0,0,1,2-.15,17.23,17.23,0,0,1,2.83,1.42C182,78.09,176.68,79,173.93,75.26Zm24.63.63A38.56,38.56,0,0,1,195.18,78c-1.19.59-2.59.79-3.72,1.45a28,28,0,0,0-3.34,2.66l.4.5a17.09,17.09,0,0,1,2.82-1.38,1.79,1.79,0,0,1,1.62.6,1.91,1.91,0,0,1-.36,1.7,9,9,0,0,1-2.07,1.35C195.79,85.63,199,82,198.56,75.89Z"/><path class="cls-3" d="M180.09,95.24c10.5.2,18.9,1.64,26.4,6.58,8.4,5.54,12.48,13.55,13.08,23.38.66,11-2.72,21-8.58,30.19-1.61,2.53-3.32,5.24-4,8.1-1,4.31.43,8.49,2.78,12.24a51.89,51.89,0,0,0,3.32,4.62c.83,1,.9,1.7-.33,2.47a143.25,143.25,0,0,1-32.57,15.1c-1.72.54-1.91.29-2.37-1.53-1.46-5.78-2.9-11.56-4.58-17.27-1.12-3.8-3.53-6.79-7.58-7.55-2.44-.47-5.05-.06-7.59,0-2.32,0-4.65.28-7,.12s-3.13-1.34-3.26-3.56c-.08-1.24,0-2.5-.05-3.74a3.2,3.2,0,0,0-.36-1.71,3.32,3.32,0,0,1-.54-4c.1-.19-.48-1-.9-1.18-2.26-1-2.27-1-1.72-3.2.69-2.75.17-3.64-2.55-4.4a8.09,8.09,0,0,1-1.82-.67,1.5,1.5,0,0,1-.58-2.34c2-3,3.91-6.14,6.08-9.05a7.64,7.64,0,0,0,1.61-6.71,12.92,12.92,0,0,1,.42-7.34c.63-2,1.1-4.08,1.55-6.14a27.33,27.33,0,0,1,21.8-21.21C174.46,95.74,178.14,95.48,180.09,95.24Zm1.88,5.18a59.48,59.48,0,0,0-8.45,1.57c-10,3.13-17.19,9.11-18.92,20-1,6.53,1.26,11,8.23,12.26a28.33,28.33,0,0,0,5.49.62,25.58,25.58,0,0,1,18.41,6.79c3.13,2.86,7,5,10.58,7.27a6.24,6.24,0,0,0,7.62-.58,22.18,22.18,0,0,0,4.69-5.31c2.73-4.42,3.71-9.43,4.29-14.56.63-5.54-.38-10.64-3.79-15.08C203.32,104.54,194,101,182,100.42Z"/><path class="cls-3" d="M193.28,123.88a9.31,9.31,0,0,1,.56,1.58,2.78,2.78,0,0,1-1.13,2.87,2.83,2.83,0,0,1-3.17.24c-2.11-1.17-4.22-2.36-6.3-3.58-.24-.14-.32-.56-.47-.86.3,0,.67-.1.91,0,2,1.1,4,2.29,6.07,3.34a2.58,2.58,0,0,0,1.95.2,2.25,2.25,0,0,0,1.11-1.57,2.15,2.15,0,0,0-.83-1.73c-3.37-2-6.76-4-10.26-5.76a5.9,5.9,0,0,0-3.65-.33c-3,.68-5.87,1.63-8.78,2.51a1.45,1.45,0,0,0-1.09,2q.62,2.22,1.29,4.44a1.54,1.54,0,0,0,2.11,1.15,16.67,16.67,0,0,0,2.41-.71,4.35,4.35,0,0,1,3.63.23c3.08,1.35,6.2,2.61,9.29,3.92a3.66,3.66,0,0,0,3.51-.27c4.27-2.52,8.56-5,12.85-7.52a3.42,3.42,0,0,0,.78-.52,1.89,1.89,0,0,0,.42-2.39,1.63,1.63,0,0,0-2.11-.92C199.34,121.41,196.35,122.65,193.28,123.88Z"/></g></svg>