<svg xmlns="http://www.w3.org/2000/svg" viewBox="0 0 360 360"><defs><style>.cls-1{fill:#fff;}.cls-2,.cls-3{fill:none;stroke:#fff;stroke-miterlimit:10;}.cls-2{stroke-width:3px;}</style></defs><title>CARD</title><g id="Layer_6" data-name="Layer 6"><rect x="-1" width="363.46" height="360"/></g><g id="LINE_ONE" data-name="LINE ONE"><path class="cls-1" d="M143.49,241.16a9.12,9.12,0,0,1,.48-3.07,6.47,6.47,0,0,1,1.37-2.29,5.75,5.75,0,0,1,2.16-1.43,7.82,7.82,0,0,1,2.85-.49,6.83,6.83,0,0,1,3.76,1,5.35,5.35,0,0,1,2.16,3l-2.92,1a3.92,3.92,0,0,0-1.08-1.83,2.86,2.86,0,0,0-2-.65,3.51,3.51,0,0,0-1.62.36,3.26,3.26,0,0,0-1.16,1,4.28,4.28,0,0,0-.69,1.51,7.77,7.77,0,0,0-.23,1.92,7.63,7.63,0,0,0,.23,1.91,4.45,4.45,0,0,0,.69,1.51,3.19,3.19,0,0,0,1.16,1,3.54,3.54,0,0,0,1.64.36,2.94,2.94,0,0,0,1.89-.58,3.53,3.53,0,0,0,1.11-1.76l2.88,1a6,6,0,0,1-2.16,2.8,6.42,6.42,0,0,1-3.76,1,7.5,7.5,0,0,1-2.79-.49,5.94,5.94,0,0,1-2.14-1.42,6.3,6.3,0,0,1-1.37-2.29A9.22,9.22,0,0,1,143.49,241.16Z"/><path class="cls-1" d="M171.15,238.42a3.94,3.94,0,0,1-2.66,4l3.22,5.74h-3.3l-2.9-5.3h-1.86v5.3h-3v-14h5.12a8.89,8.89,0,0,1,2.21.25,4.78,4.78,0,0,1,1.69.77,3.46,3.46,0,0,1,1.08,1.32A4.47,4.47,0,0,1,171.15,238.42Zm-3.08,0a1.51,1.51,0,0,0-.65-1.41,3.91,3.91,0,0,0-2-.39h-1.8v3.78h1.8a3.48,3.48,0,0,0,2-.45A1.74,1.74,0,0,0,168.07,238.44Z"/><path class="cls-1" d="M188.35,248.16h-3.1l-1.12-3.24h-5L178,248.16h-2.94l5-14h3.22Zm-6.76-10.72c0,.11-.07.26-.14.47s-.14.44-.22.7-.17.54-.27.84-.2.59-.29.87c-.23.69-.47,1.43-.74,2.22h3.38c-.27-.79-.51-1.53-.74-2.22-.15-.4-.26-.73-.35-1s-.17-.51-.24-.75-.14-.46-.21-.67-.11-.36-.14-.47Z"/><path class="cls-1" d="M192.49,248.16v-14h9.58v2.48h-6.62v3.08h6.1v2.48h-6.1v6Z"/><path class="cls-1" d="M205.89,234.16H217v2.5h-4v11.5h-3v-11.5h-4Z"/></g><g id="LINE_TWO" data-name="LINE TWO"><path class="cls-2" d="M198.59,197.29c-8.44.38-16.2-7.16-16.81-15.21a17.49,17.49,0,0,1,1.51-8.71,7.67,7.67,0,0,0-1-8.68,49.85,49.85,0,0,0-7.69-7.33c-2.14-1.74-4.24-3.55-5.28-6.2-.79-2-1.45-4-2.09-6.1-3.93-12.68-7.91-25.36-11.73-38.08-1.63-5.43-.39-10.52,2.72-15.18a5.58,5.58,0,0,1,.94-1.06c.85-.77,1.58-.63,2.06.41,2.28,5,4.58,10,6.81,15q11.81,26.5,23.57,53a7,7,0,0,0,6.25,4.43,23.32,23.32,0,0,1,7,1.32,16.84,16.84,0,0,1-3,32.09A30.38,30.38,0,0,1,198.59,197.29ZM189,180.49c-.7,4.8,4.83,10.19,9.43,9.61,5.33.53,9.86-4.74,9.92-9.29a10.07,10.07,0,0,0-9.85-10.05C193.1,170.73,188.33,176,189,180.49Z"/><path class="cls-2" d="M165.53,156.09a42.78,42.78,0,0,0,8.45,7.82c-.36.49-.69.92-1,1.36a6.87,6.87,0,0,0-.85,7.3,17.62,17.62,0,0,1,1.53,11.06A16,16,0,0,1,163.71,196a16.71,16.71,0,0,1-22.94-11.8c-2.1-9.9,4-17.59,12.1-19.9a24.27,24.27,0,0,1,4.76-.67,7.21,7.21,0,0,0,6.42-4.32C164.53,158.28,165,157.27,165.53,156.09Zm-8.43,34c4.85.55,9.77-4.29,9.79-9.55a10,10,0,0,0-9.95-9.77c-4.83,0-9.6,4.77-9.43,9.59C147.72,186,151.55,190.06,157.1,190.09Z"/><path class="cls-2" d="M189.73,140.86c-.63-1.36-1.18-2.51-1.7-3.67-2.2-4.94-4.39-9.89-6.61-14.83a1.88,1.88,0,0,1-.06-1.62c1.51-3.53,2.94-7.07,4.5-10.57,2.69-6.1,5.46-12.16,8.2-18.24a3.39,3.39,0,0,1,.18-.39c.76-1.57,1.59-1.74,2.69-.33a17.91,17.91,0,0,1,3.87,10.31c.16,3.15-.73,6-1.62,8.94q-4.55,14.73-9.1,29.46C190,140.16,189.9,140.4,189.73,140.86Z"/><circle class="cls-3" cx="177.95" cy="149.54" r="3.97"/><path class="cls-2" d="M123.45,142.59a.72.72,0,0,1-.72.72H77.62a.72.72,0,0,1-.72-.72V91.41a.72.72,0,0,1,.72-.72h45.11a.72.72,0,0,1,.72.72Z"/><path class="cls-2" d="M79.4,143.63H121c.15.52-.34.53-.73.62-2.16.46-4.36.83-6.47,1.42a27.33,27.33,0,0,0-4.92,1.87,9.5,9.5,0,0,0-5.44,7.72,26.59,26.59,0,0,0,.35,6.78c.31,2.54.64,5.07,1,7.61.42,3.35.86,6.71,1.26,10.06a42.5,42.5,0,0,1,.64,8.71,11,11,0,0,1-1.43,4.87,8.53,8.53,0,0,1-4.61,3.52,1.48,1.48,0,0,1-.86,0,8.21,8.21,0,0,1-5.57-6,19,19,0,0,1-.23-7.28c.36-2.94.74-5.88,1.11-8.81.42-3.35.87-6.7,1.26-10.06.3-2.61.62-5.23.76-7.85a9.56,9.56,0,0,0-1.51-5.7c-1.62-2.59-4.4-4.15-7.77-5.09-2.49-.69-5.09-1.18-7.64-1.75C79.72,144.16,79.27,144.12,79.4,143.63Z"/><path class="cls-1" d="M77.87,95.89V91.52h46v4.37c-1.55,0-3,0-4.53,0-3.36,0-5.36,1.62-5.43,4.34,0,.7,0,1.4,0,2.1a1.32,1.32,0,0,1-1.49,1.42,1.28,1.28,0,0,1-1.38-1.39c0-.77,0-1.55,0-2.32-.05-2.3-2.17-4.11-4.85-4.15s-5,1.68-5.08,4c-.07,2.66,0,5.32,0,8,0,.88-.24,1.66-1.45,1.67s-1.46-.82-1.46-1.66c0-2.59,0-5.17,0-7.76s-2.08-4.25-5.23-4.26c-4.47,0-8.94,0-13.42,0Z"/><line class="cls-3" x1="77.87" y1="131.57" x2="122.87" y2="131.57"/><circle class="cls-3" cx="100.18" cy="188.04" r="1.76"/><rect class="cls-2" x="230.43" y="97.37" width="52.67" height="29.12" rx="0.72"/><rect class="cls-2" x="249.23" y="89.92" width="15.07" height="5.83"/><rect class="cls-2" x="249.23" y="126.9" width="15.07" height="5.43"/><rect class="cls-2" x="250.52" y="132.33" width="12.39" height="64.37"/><line class="cls-3" x1="233.92" y1="97.37" x2="233.92" y2="126.49"/><line class="cls-3" x1="279.51" y1="97.37" x2="279.51" y2="126.49"/></g></svg>