<svg xmlns="http://www.w3.org/2000/svg" viewBox="0 0 360 360"><defs><style>.cls-1{fill:#fff;}.cls-2{fill:#226985;}.cls-3{fill:#256885;}.cls-4,.cls-5{stroke:#256885;stroke-linecap:round;stroke-miterlimit:10;stroke-width:3px;}.cls-5{fill:none;}</style></defs><title>CARD</title><g id="Layer_6" data-name="Layer 6"><rect class="cls-1" y="-0.47" width="360" height="360"/></g><g id="BACKGROUND"><rect class="cls-2" y="336" width="360" height="23.94"/><path class="cls-1" d="M290.57,346.23a.82.82,0,0,0,.47.78,5.75,5.75,0,0,0,1.49.4,4.68,4.68,0,0,1,2.2.83,2.07,2.07,0,0,1,.7,1.71,2.32,2.32,0,0,1-.25,1.1,2.53,2.53,0,0,1-.7.83,3.4,3.4,0,0,1-1.08.53,4.79,4.79,0,0,1-1.35.18,4.53,4.53,0,0,1-1.43-.21,3.45,3.45,0,0,1-1.08-.56,2.56,2.56,0,0,1-.7-.81,2.28,2.28,0,0,1-.27-1l1.8-.29a1.55,1.55,0,0,0,.47,1,1.71,1.71,0,0,0,1.21.39,2.84,2.84,0,0,0,.6-.06,1.5,1.5,0,0,0,.5-.2,1,1,0,0,0,.33-.34,1,1,0,0,0,.12-.49.81.81,0,0,0-.39-.72,3.72,3.72,0,0,0-1.38-.41,8.11,8.11,0,0,1-1.22-.28,3.17,3.17,0,0,1-1-.46,2.07,2.07,0,0,1-.65-.73,2.32,2.32,0,0,1-.23-1.07,2.39,2.39,0,0,1,.24-1.11,2.18,2.18,0,0,1,.67-.78,3,3,0,0,1,1-.48,5.17,5.17,0,0,1,1.28-.15,4.74,4.74,0,0,1,1.22.15,3.24,3.24,0,0,1,1,.44,2.63,2.63,0,0,1,.72.73,2.45,2.45,0,0,1,.4,1l-1.82.4a1.5,1.5,0,0,0-.5-.92,1.6,1.6,0,0,0-1.06-.33,1.67,1.67,0,0,0-1,.25A.8.8,0,0,0,290.57,346.23Z"/><path class="cls-1" d="M297.29,344H304v1.5h-2.42v6.9h-1.81v-6.9h-2.43Z"/><path class="cls-1" d="M309.8,352.59a2.93,2.93,0,0,1-3.36-3.26V344h1.8v5.32a2,2,0,0,0,.38,1.27,1.4,1.4,0,0,0,1.18.49,1.38,1.38,0,0,0,1.17-.49,2,2,0,0,0,.39-1.27V344h1.8v5.31a2.94,2.94,0,0,1-3.36,3.26Z"/><path class="cls-1" d="M316.28,344h3.13a5,5,0,0,1,1.73.29,3.42,3.42,0,0,1,1.29.81,3.67,3.67,0,0,1,.81,1.32,5.83,5.83,0,0,1,0,3.57,3.67,3.67,0,0,1-.81,1.32,3.55,3.55,0,0,1-1.29.81,5,5,0,0,1-1.73.28h-3.13Zm5.38,4.2a4.33,4.33,0,0,0-.13-1.11,2.7,2.7,0,0,0-.42-.85,1.9,1.9,0,0,0-.72-.56,2.67,2.67,0,0,0-1-.19h-1.27v5.43h1.27a2.49,2.49,0,0,0,1-.2,1.78,1.78,0,0,0,.72-.55,2.65,2.65,0,0,0,.42-.86A4.23,4.23,0,0,0,321.66,348.22Z"/><path class="cls-1" d="M326.34,352.42V344h5.73v1.49h-3.95v1.85h3.67v1.49h-3.67v2.09h4v1.48Z"/><path class="cls-1" d="M334.91,344h1.87l1.4,2.26c.26.42.48.77.64,1.05l.51.82.48.78.38.61h0V344h1.7v8.4h-1.87c-.48-.77-.94-1.51-1.37-2.22l-.64-1-.51-.83-.49-.79c-.15-.26-.29-.47-.4-.65h0v5.52h-1.71Z"/><path class="cls-1" d="M344.46,344h6.66v1.5H348.7v6.9h-1.81v-6.9h-2.43Z"/></g><g id="LINE_ONE" data-name="LINE ONE"><path class="cls-2" d="M133.23,248.09v-14h9.58v2.49h-6.62v3.07h6.1v2.48h-6.1v6Z"/><path class="cls-2" d="M147.29,234.09h3v14h-3Z"/><path class="cls-2" d="M154.51,234.09h11.1v2.5h-4v11.5h-3v-11.5h-4Z"/><path class="cls-2" d="M169.83,234.09H173c.81,1.33,1.59,2.58,2.32,3.76l1.08,1.75.84,1.37.8,1.29c.25.41.47.75.64,1h.06v-9.21h2.84v14h-3.12c-.8-1.29-1.56-2.52-2.28-3.7l-1.07-1.72c-.29-.46-.57-.92-.85-1.38s-.55-.91-.81-1.32l-.67-1.08h-.06v9.2h-2.84Z"/><path class="cls-2" d="M186.81,248.09v-14h9.54v2.49h-6.58v3.07h6.12v2.48h-6.12v3.48h6.68v2.48Z"/><path class="cls-2" d="M203.81,237.77a1.33,1.33,0,0,0,.78,1.29,8.75,8.75,0,0,0,2.48.67,7.86,7.86,0,0,1,3.67,1.38,3.51,3.51,0,0,1,1.17,2.86,3.92,3.92,0,0,1-.42,1.83,4.07,4.07,0,0,1-1.17,1.38,5.44,5.44,0,0,1-1.79.88,7.76,7.76,0,0,1-2.26.32,7.39,7.39,0,0,1-2.38-.36,5.66,5.66,0,0,1-1.8-.93,4.19,4.19,0,0,1-1.16-1.36,3.77,3.77,0,0,1-.46-1.62l3-.48a2.56,2.56,0,0,0,.79,1.67,2.8,2.8,0,0,0,2,.66,4.6,4.6,0,0,0,1-.11,2.14,2.14,0,0,0,.82-.33,1.73,1.73,0,0,0,.55-.56,1.64,1.64,0,0,0,.2-.83,1.36,1.36,0,0,0-.65-1.2,6.35,6.35,0,0,0-2.29-.67,20.59,20.59,0,0,1-2-.46,5.48,5.48,0,0,1-1.63-.78,3.42,3.42,0,0,1-1.08-1.22,3.73,3.73,0,0,1-.39-1.79,4,4,0,0,1,.4-1.84,3.81,3.81,0,0,1,1.12-1.31,5,5,0,0,1,1.7-.78,8,8,0,0,1,2.14-.27,8.16,8.16,0,0,1,2,.25,5.77,5.77,0,0,1,1.67.74A4.49,4.49,0,0,1,211,236a4.56,4.56,0,0,1,.66,1.64l-3,.66a2.43,2.43,0,0,0-.82-1.51,2.62,2.62,0,0,0-1.78-.57,2.86,2.86,0,0,0-1.69.42A1.34,1.34,0,0,0,203.81,237.77Z"/><path class="cls-2" d="M219.29,237.77a1.33,1.33,0,0,0,.78,1.29,8.75,8.75,0,0,0,2.48.67,7.86,7.86,0,0,1,3.67,1.38,3.51,3.51,0,0,1,1.17,2.86,3.92,3.92,0,0,1-.42,1.83,4.07,4.07,0,0,1-1.17,1.38,5.44,5.44,0,0,1-1.79.88,7.76,7.76,0,0,1-2.26.32,7.39,7.39,0,0,1-2.38-.36,5.66,5.66,0,0,1-1.8-.93,4.19,4.19,0,0,1-1.16-1.36,3.77,3.77,0,0,1-.46-1.62l3-.48a2.56,2.56,0,0,0,.79,1.67,2.8,2.8,0,0,0,2,.66,4.6,4.6,0,0,0,1-.11,2.14,2.14,0,0,0,.82-.33,1.73,1.73,0,0,0,.55-.56,1.64,1.64,0,0,0,.2-.83,1.36,1.36,0,0,0-.65-1.2,6.35,6.35,0,0,0-2.29-.67,20.59,20.59,0,0,1-2-.46,5.48,5.48,0,0,1-1.63-.78,3.42,3.42,0,0,1-1.08-1.22,3.73,3.73,0,0,1-.39-1.79,4,4,0,0,1,.4-1.84,3.81,3.81,0,0,1,1.12-1.31,5,5,0,0,1,1.7-.78,8,8,0,0,1,2.14-.27,8.16,8.16,0,0,1,2,.25,5.77,5.77,0,0,1,1.67.74,4.49,4.49,0,0,1,1.21,1.21,4.56,4.56,0,0,1,.66,1.64l-3,.66a2.43,2.43,0,0,0-.82-1.51,2.62,2.62,0,0,0-1.78-.57,2.86,2.86,0,0,0-1.69.42A1.34,1.34,0,0,0,219.29,237.77Z"/></g><g id="ICON"><path class="cls-3" d="M224.76,197.07c-6.68.24-13.66-2.17-20.58-4.74A254.72,254.72,0,0,1,169.11,176a144.47,144.47,0,0,0-35-14,94.17,94.17,0,0,1-21.83-8.2,40.59,40.59,0,0,1-6.55-4.37c-6.38-5.27-7.82-11.84-4.51-19.47,1.71-4,4.43-7.2,7.22-10.38a31.22,31.22,0,0,0,6.41-10.82,44.7,44.7,0,0,1,7.35-13.89c4.8-6,9.56-6.73,15.69-2.08a91.64,91.64,0,0,1,8.94,7.77c4,4,8.9,5.25,14.24,6a9,9,0,0,0,8.62-3.12,63.84,63.84,0,0,1,9.19-7.66,23.61,23.61,0,0,1,6.07-2.85,5.49,5.49,0,0,1,6.77,2.37,39.09,39.09,0,0,1,3.55,6.38c1.75,4.05,3.42,8.15,4.81,12.33a89,89,0,0,0,16.37,29c3.88,4.67,7.65,9.43,12.42,13.26a18.22,18.22,0,0,0,10.93,4.22A23.74,23.74,0,0,1,257,168.9c5.78,6.59,3.77,14.2-.9,19.08-3.67,3.83-8.41,5.74-13.43,7A75.35,75.35,0,0,1,224.76,197.07Zm-15.9-54.42c-2.84,1.89-5.76,3.86-8.7,5.79a2.85,2.85,0,1,1-3.11-4.75c2.49-1.69,5-3.35,7.5-5,.33-.23.63-.49.86-.66l-4.78-7.69c-.4.24-.8.46-1.18.72-1.73,1.14-3.44,2.31-5.18,3.42a2.66,2.66,0,0,1-3.17-.07,2.44,2.44,0,0,1-1.11-2.82,4.34,4.34,0,0,1,1.54-2c2.19-1.6,4.49-3.06,6.75-4.57l-3.45-8.71-5.7,3.78c-1.81,1.18-3.48,1-4.44-.53s-.47-3,1.25-4.18c2.26-1.53,4.53-3,6.85-4.58-.51-1.33-.94-2.61-1.49-3.85-1.09-2.44-2.26-4.85-3.37-7.28a1.77,1.77,0,0,0-2.83-.93,35.27,35.27,0,0,0-5.14,3.17c-3.54,3-6.94,6.2-10.31,9.41a3.29,3.29,0,0,1-2.71,1.08c-2.39-.16-4.8-.12-7.18-.34-6-.58-11.56-2.34-16.08-6.67q-4.08-3.9-8.47-7.46c-4.3-3.49-5.86-3.23-9.13,1.22a47.83,47.83,0,0,0-6.5,13.07,25.89,25.89,0,0,1-4.26,7.89c-1.47,1.84-3,3.63-4.55,5.53a9.78,9.78,0,0,0,1.45,1.88c2,1.61,3.92,3.49,6.19,4.59A118.16,118.16,0,0,0,132,137.71c17.77,6,13.95,3.46,33,16.21,10.2,6.82,20.44,13.58,31.3,19.33,10.36,5.48,21,10.3,32.73,12.07,8.92,1.34,17.33.2,24.87-5.12a1.92,1.92,0,0,0,.62-1c.77-2.48-.21-4.53-1.75-6.36A18.74,18.74,0,0,0,238.52,166a19.66,19.66,0,0,1-9.84-3,47.76,47.76,0,0,1-11.07-9.77C214.62,149.81,211.8,146.23,208.86,142.65Zm-101.56-12c-3.52,6.07-2.57,10.69,1.85,14.18a34.11,34.11,0,0,0,8.12,5,173.24,173.24,0,0,0,19.87,7.06,145.83,145.83,0,0,1,33.34,13.39,276.38,276.38,0,0,0,34.22,16.2c5.61,2.18,11.27,4.24,17.31,4.8,2.06.2,4.16,0,6.24,0-3.65-1.05-7.32-1.81-10.88-2.88A139.89,139.89,0,0,1,184.53,173c-10.76-6.64-21.3-13.64-31.89-20.54a53.48,53.48,0,0,0-13.95-6.62c-3.77-1.13-7.53-2.34-11.23-3.67C120.09,139.57,112.81,136.74,107.3,130.61Z"/><line class="cls-4" x1="154.47" y1="191.34" x2="99.46" y2="191.34"/><line class="cls-4" x1="145.74" y1="181.46" x2="99.46" y2="181.46"/><line class="cls-4" x1="137" y1="171.58" x2="99.46" y2="171.58"/><path class="cls-5" d="M122.29,99.05s15.77,6,15.77,19.16c0,8.48-15.77,17.9-15.77,17.9"/><path class="cls-5" d="M144.06,120.34s31.53-9.41,43.06,27.06c4.13,13.07,5.56,18.64,5.56,18.64"/></g></svg>