<svg xmlns="http://www.w3.org/2000/svg" viewBox="0 0 360 360"><defs><style>.cls-1,.cls-5{fill:#231f20;}.cls-2{fill:#fff;}.cls-3,.cls-4{fill:none;}.cls-3,.cls-4,.cls-5{stroke:#fff;stroke-miterlimit:10;}.cls-3{stroke-width:3px;}.cls-5{stroke-width:2px;}</style></defs><title>CARD</title><g id="BACKGROUND"><rect class="cls-1" x="-2" width="360" height="360"/></g><g id="LINE_ONE" data-name="LINE ONE"><path class="cls-2" d="M83,241.16a9.12,9.12,0,0,1,.48-3.07,6.39,6.39,0,0,1,1.37-2.29A5.79,5.79,0,0,1,87,234.37a7.82,7.82,0,0,1,2.85-.49,6.72,6.72,0,0,1,3.76,1,5.23,5.23,0,0,1,2.16,3l-2.92,1A3.92,3.92,0,0,0,91.81,237a2.82,2.82,0,0,0-2-.65,3.51,3.51,0,0,0-1.62.36,3.35,3.35,0,0,0-1.16,1,4.67,4.67,0,0,0-.69,1.51,8.09,8.09,0,0,0,0,3.83,4.87,4.87,0,0,0,.69,1.51,3.38,3.38,0,0,0,1.16,1,3.57,3.57,0,0,0,1.64.36,3,3,0,0,0,1.89-.58,3.57,3.57,0,0,0,1.11-1.76l2.88,1a6,6,0,0,1-2.16,2.8,6.4,6.4,0,0,1-3.76,1A7.78,7.78,0,0,1,87,248a6,6,0,0,1-2.14-1.42,6.3,6.3,0,0,1-1.37-2.29A9.26,9.26,0,0,1,83,241.16Z"/><path class="cls-2" d="M99.63,241.16a9,9,0,0,1,.49-3,6.55,6.55,0,0,1,1.38-2.29,5.9,5.9,0,0,1,2.15-1.44,8.09,8.09,0,0,1,5.6,0,5.82,5.82,0,0,1,2.15,1.44,6.27,6.27,0,0,1,1.38,2.29,9.74,9.74,0,0,1,0,6.1,6.35,6.35,0,0,1-1.38,2.29,6.07,6.07,0,0,1-2.15,1.44,8.09,8.09,0,0,1-5.6,0,6.16,6.16,0,0,1-2.15-1.44,6.64,6.64,0,0,1-1.38-2.29A9.08,9.08,0,0,1,99.63,241.16Zm3.1,0a8,8,0,0,0,.23,2,4.73,4.73,0,0,0,.69,1.52,3.32,3.32,0,0,0,1.16,1,3.7,3.7,0,0,0,1.64.35,3.64,3.64,0,0,0,1.64-.35,3.16,3.16,0,0,0,1.16-1,4.33,4.33,0,0,0,.69-1.52,7.56,7.56,0,0,0,.23-2,7.45,7.45,0,0,0-.23-1.95,4.25,4.25,0,0,0-.69-1.52,3.06,3.06,0,0,0-1.16-1,3.51,3.51,0,0,0-1.64-.35,3.57,3.57,0,0,0-1.64.35,3.22,3.22,0,0,0-1.16,1,4.63,4.63,0,0,0-.69,1.52A7.9,7.9,0,0,0,102.73,241.16Z"/><path class="cls-2" d="M118,234.16h3v11.5h6.12v2.5H118Z"/><path class="cls-2" d="M131.29,234.16h3v11.5h6.12v2.5h-9.12Z"/><path class="cls-2" d="M156.77,248.16h-3.1l-1.12-3.24h-5l-1.12,3.24h-2.94l5-14h3.22ZM150,237.44a4.69,4.69,0,0,1-.14.47l-.22.7q-.12.39-.27.84c-.1.3-.19.59-.29.87-.22.69-.47,1.43-.74,2.22h3.38l-.74-2.22-.35-1q-.12-.39-.24-.75c-.07-.24-.14-.47-.21-.67l-.14-.47Z"/><path class="cls-2" d="M160.91,234.16H167a5,5,0,0,1,1.75.28,3.56,3.56,0,0,1,1.3.77,3,3,0,0,1,.81,1.16,3.64,3.64,0,0,1,.28,1.45A3.41,3.41,0,0,1,171,239a3,3,0,0,1-.47.87,3,3,0,0,1-.66.62,3.71,3.71,0,0,1-.77.39,3.24,3.24,0,0,1,.93.26,2.73,2.73,0,0,1,.87.57,2.55,2.55,0,0,1,.65.93,3.31,3.31,0,0,1,.25,1.38,4.06,4.06,0,0,1-.34,1.67,3.88,3.88,0,0,1-.94,1.32,4.71,4.71,0,0,1-1.42.87,4.93,4.93,0,0,1-1.8.32h-6.34Zm2.92,2.44v3.24h2.1a2.83,2.83,0,0,0,1.6-.36,1.88,1.88,0,0,0,.07-2.52,2.44,2.44,0,0,0-1.51-.36Zm0,9.12h2.4a3,3,0,0,0,1.93-.45,1.66,1.66,0,0,0,.51-1.31,1.42,1.42,0,0,0-.62-1.37,3.79,3.79,0,0,0-1.86-.35h-2.36Z"/><path class="cls-2" d="M175.83,241.16a9,9,0,0,1,.49-3,6.55,6.55,0,0,1,1.38-2.29,5.9,5.9,0,0,1,2.15-1.44,8.09,8.09,0,0,1,5.6,0,5.82,5.82,0,0,1,2.15,1.44,6.27,6.27,0,0,1,1.38,2.29,9.74,9.74,0,0,1,0,6.1,6.35,6.35,0,0,1-1.38,2.29,6.07,6.07,0,0,1-2.15,1.44,8.09,8.09,0,0,1-5.6,0,6.16,6.16,0,0,1-2.15-1.44,6.64,6.64,0,0,1-1.38-2.29A9.08,9.08,0,0,1,175.83,241.16Zm3.1,0a8,8,0,0,0,.23,2,4.73,4.73,0,0,0,.69,1.52,3.32,3.32,0,0,0,1.16,1,3.7,3.7,0,0,0,1.64.35,3.64,3.64,0,0,0,1.64-.35,3.16,3.16,0,0,0,1.16-1,4.33,4.33,0,0,0,.69-1.52,7.56,7.56,0,0,0,.23-2,7.45,7.45,0,0,0-.23-1.95,4.25,4.25,0,0,0-.69-1.52,3.06,3.06,0,0,0-1.16-1,3.51,3.51,0,0,0-1.64-.35,3.57,3.57,0,0,0-1.64.35,3.22,3.22,0,0,0-1.16,1,4.63,4.63,0,0,0-.69,1.52A7.9,7.9,0,0,0,178.93,241.16Z"/><path class="cls-2" d="M204.65,238.42a3.94,3.94,0,0,1-2.66,4l3.22,5.74h-3.3l-2.9-5.3h-1.86v5.3h-3v-14h5.12a8.84,8.84,0,0,1,2.21.25,4.53,4.53,0,0,1,1.69.77,3.32,3.32,0,0,1,1.08,1.32A4.33,4.33,0,0,1,204.65,238.42Zm-3.08,0a1.49,1.49,0,0,0-.65-1.41,3.91,3.91,0,0,0-2-.39h-1.8v3.78H199a3.48,3.48,0,0,0,2-.45A1.71,1.71,0,0,0,201.57,238.44Z"/><path class="cls-2" d="M221.85,248.16h-3.1l-1.12-3.24h-5l-1.12,3.24h-2.94l5-14h3.22Zm-6.76-10.72a4.69,4.69,0,0,1-.14.47l-.22.7q-.12.39-.27.84c-.1.3-.19.59-.29.87-.22.69-.47,1.43-.74,2.22h3.38c-.26-.79-.51-1.53-.74-2.22l-.35-1q-.12-.39-.24-.75c-.07-.24-.14-.47-.21-.67l-.14-.47Z"/><path class="cls-2" d="M223.33,234.16h11.1v2.5h-4v11.5h-3v-11.5h-4Z"/><path class="cls-2" d="M238.65,234.16h3v14h-3Z"/><path class="cls-2" d="M246.35,241.16a9,9,0,0,1,.49-3,6.55,6.55,0,0,1,1.38-2.29,5.9,5.9,0,0,1,2.15-1.44,8.09,8.09,0,0,1,5.6,0,5.82,5.82,0,0,1,2.15,1.44,6.27,6.27,0,0,1,1.38,2.29,9.74,9.74,0,0,1,0,6.1,6.35,6.35,0,0,1-1.38,2.29,6.07,6.07,0,0,1-2.15,1.44,8.09,8.09,0,0,1-5.6,0,6.16,6.16,0,0,1-2.15-1.44,6.64,6.64,0,0,1-1.38-2.29A9.08,9.08,0,0,1,246.35,241.16Zm3.1,0a8,8,0,0,0,.23,2,4.73,4.73,0,0,0,.69,1.52,3.32,3.32,0,0,0,1.16,1,3.7,3.7,0,0,0,1.64.35,3.64,3.64,0,0,0,1.64-.35,3.16,3.16,0,0,0,1.16-1,4.33,4.33,0,0,0,.69-1.52,7.56,7.56,0,0,0,.23-2,7.45,7.45,0,0,0-.23-1.95,4.25,4.25,0,0,0-.69-1.52,3.06,3.06,0,0,0-1.16-1,3.51,3.51,0,0,0-1.64-.35,3.57,3.57,0,0,0-1.64.35,3.22,3.22,0,0,0-1.16,1,4.63,4.63,0,0,0-.69,1.52A7.9,7.9,0,0,0,249.45,241.16Z"/><path class="cls-2" d="M264.69,234.16h3.12l2.32,3.76c.44.7.8,1.29,1.08,1.75l.84,1.37.8,1.29.64,1h.06v-9.2h2.84v14h-3.12l-2.28-3.7-1.07-1.73c-.29-.46-.57-.92-.85-1.38l-.81-1.32c-.26-.42-.48-.78-.67-1.07h-.06v9.2h-2.84Z"/></g><g id="ICON"><polygon class="cls-3" points="69.18 144.97 66.81 143.89 67.99 142.17 70.47 141.09 115.96 128.16 122.86 127.08 238 127.08 248.78 129.23 259.56 132.25 275.94 136.99 288.02 140.44 293.19 142.6 293.19 144.97 291.25 146.27 282.2 148.64 266.03 153.16 255.46 156.83 246.41 158.77 234.55 160.93 128.69 160.93 114.24 159.2 101.73 155.97 90.95 152.73 79.1 149.28 69.18 144.97"/><rect class="cls-4" x="128.69" y="132.25" width="106.08" height="22.71" rx="3.6"/><polyline class="cls-4" points="146.31 140.73 177.21 110.11 177.21 105.52 180.95 101.06 191.58 90.57 193.31 89.85 197.48 94.16 197.48 95.89 181.81 110.11 177.21 110.11"/><polyline class="cls-4" points="178.13 140.73 209.03 110.11 209.03 105.52 212.77 101.06 223.41 90.57 225.13 89.85 229.3 94.16 229.3 95.89 213.63 110.11 209.03 110.11"/><polyline class="cls-4" points="209.85 140.73 240.76 110.11 240.76 105.52 244.5 101.06 255.13 90.57 256.86 89.85 261.02 94.16 261.02 95.89 245.36 110.11 240.76 110.11"/><polyline class="cls-4" points="146.46 146.97 177.36 177.58 177.36 182.18 181.1 186.64 191.74 197.13 193.46 197.85 197.63 193.54 197.63 191.81 181.96 177.58 177.36 177.58"/><polyline class="cls-4" points="178.28 146.97 209.19 177.58 209.19 182.18 212.92 186.64 223.56 197.13 225.28 197.85 229.45 193.54 229.45 191.81 213.79 177.58 209.19 177.58"/><polyline class="cls-4" points="210.01 146.97 240.91 177.58 240.91 182.18 244.65 186.64 255.28 197.13 257.01 197.85 261.18 193.54 261.18 191.81 245.51 177.58 240.91 177.58"/><rect class="cls-5" x="210" y="134.69" width="6.89" height="18.36" rx="2.5"/><circle class="cls-5" cx="210.5" cy="143.87" r="4.97"/><rect class="cls-5" x="175.68" y="134.69" width="6.89" height="18.36" rx="2.5"/><circle class="cls-5" cx="176.18" cy="143.87" r="4.97"/><rect class="cls-5" x="144.26" y="134.69" width="6.89" height="18.36" rx="2.5"/><circle class="cls-5" cx="144.76" cy="143.87" r="4.97"/></g></svg>