<?xml version="1.0" encoding="utf-8"?>
<!-- Generator: Adobe Illustrator 23.1.0, SVG Export Plug-In . SVG Version: 6.00 Build 0)  -->
<svg version="1.1" xmlns="http://www.w3.org/2000/svg" xmlns:xlink="http://www.w3.org/1999/xlink" x="0px" y="0px"
	 viewBox="0 0 360 360" enable-background="new 0 0 360 360" xml:space="preserve">
<g id="BACKGROUND">
	<rect x="0" y="0" fill="#FFFFFF" width="360" height="360"/>
</g>
<g id="REF" display="none">
	
		<rect y="90.33" display="inline" fill="none" stroke="#000000" stroke-width="0.25" stroke-miterlimit="10" width="360" height="108"/>
	
		<rect x="360" y="90.33" display="inline" fill="none" stroke="#FFFFFF" stroke-width="0.25" stroke-miterlimit="10" width="360" height="108"/>
	
		<line display="inline" fill="none" stroke="#000000" stroke-width="0.25" stroke-linecap="round" stroke-miterlimit="10" x1="180" y1="0.19" x2="180" y2="360.06"/>
</g>
<g id="LINE_ONE">
	<g>
		<path d="M120.46,248.16v-14H130v2.48h-6.58v3.08h6.12v2.48h-6.12v3.48h6.68v2.48H120.46z"/>
		<path d="M140.9,248.16c-0.2-0.55-0.45-1.26-0.75-2.15c-0.3-0.89-0.61-1.81-0.93-2.77s-0.63-1.9-0.93-2.82
			c-0.3-0.92-0.54-1.69-0.73-2.32h-0.06v10.06h-2.76v-14h4.2c0.57,1.71,1.09,3.27,1.56,4.7c0.28,0.85,0.51,1.54,0.69,2.07
			c0.18,0.53,0.35,1.03,0.5,1.51c0.15,0.48,0.29,0.91,0.42,1.3c0.13,0.39,0.22,0.67,0.27,0.84c0.05-0.17,0.14-0.45,0.26-0.84
			c0.12-0.39,0.26-0.84,0.43-1.37c0.17-0.53,0.35-1.09,0.54-1.7c0.19-0.61,0.39-1.21,0.59-1.81c0.45-1.43,0.95-2.99,1.5-4.7h4.18v14
			h-2.76V238.1h-0.06c-0.13,0.41-0.29,0.91-0.48,1.49c-0.19,0.58-0.39,1.2-0.61,1.85c-0.22,0.65-0.44,1.32-0.67,1.99
			c-0.23,0.67-0.44,1.31-0.64,1.92c-0.2,0.61-0.38,1.16-0.55,1.65c-0.17,0.49-0.3,0.88-0.41,1.16H140.9z"/>
		<path d="M158.14,243.24v4.92h-2.98v-14h5.32c0.84,0,1.6,0.09,2.28,0.26c0.68,0.17,1.26,0.44,1.74,0.8
			c0.48,0.36,0.85,0.82,1.12,1.38c0.27,0.56,0.4,1.23,0.4,2.02c0,0.8-0.14,1.49-0.41,2.07c-0.27,0.58-0.65,1.06-1.14,1.44
			c-0.49,0.38-1.07,0.66-1.75,0.84c-0.68,0.18-1.43,0.27-2.24,0.27H158.14z M162.96,238.62c0-0.76-0.23-1.28-0.69-1.56
			c-0.46-0.28-1.16-0.42-2.09-0.42h-2.04v4.12h2.04c0.93,0,1.63-0.17,2.09-0.5C162.73,239.92,162.96,239.38,162.96,238.62z"/>
		<path d="M170.42,234.16h3v11.5h6.12v2.5h-9.12V234.16z"/>
		<path d="M182.66,241.16c0-1.13,0.16-2.15,0.49-3.05c0.33-0.9,0.79-1.66,1.38-2.29c0.59-0.63,1.31-1.11,2.15-1.44
			c0.84-0.33,1.77-0.5,2.8-0.5s1.96,0.17,2.8,0.5c0.84,0.33,1.55,0.81,2.15,1.44s1.05,1.39,1.38,2.29c0.33,0.9,0.49,1.92,0.49,3.05
			c0,1.13-0.16,2.15-0.49,3.05c-0.33,0.9-0.79,1.66-1.38,2.29c-0.59,0.63-1.31,1.11-2.15,1.44c-0.84,0.33-1.77,0.5-2.8,0.5
			s-1.96-0.17-2.8-0.5s-1.56-0.81-2.15-1.44c-0.59-0.63-1.05-1.39-1.38-2.29C182.82,243.31,182.66,242.29,182.66,241.16z
			 M185.76,241.16c0,0.71,0.08,1.36,0.23,1.95c0.15,0.59,0.38,1.1,0.69,1.52s0.69,0.75,1.16,0.98s1.01,0.35,1.64,0.35
			s1.17-0.12,1.64-0.35c0.46-0.23,0.85-0.56,1.16-0.98c0.3-0.42,0.54-0.93,0.69-1.52c0.15-0.59,0.23-1.24,0.23-1.95
			s-0.08-1.36-0.23-1.95c-0.15-0.59-0.38-1.1-0.69-1.52c-0.31-0.42-0.7-0.75-1.16-0.98c-0.47-0.23-1.01-0.35-1.64-0.35
			s-1.17,0.12-1.64,0.35s-0.85,0.56-1.16,0.98s-0.54,0.93-0.69,1.52C185.84,239.8,185.76,240.45,185.76,241.16z"/>
		<path d="M203.94,242.3l-5.3-8.14h3.44l3.42,5.36l3.4-5.36h3.34l-5.3,8.14v5.86h-3V242.3z"/>
		<path d="M216.26,248.16v-14h9.54v2.48h-6.58v3.08h6.12v2.48h-6.12v3.48h6.68v2.48H216.26z"/>
		<path d="M230.54,248.16v-14h9.54v2.48h-6.58v3.08h6.12v2.48h-6.12v3.48h6.68v2.48H230.54z"/>
	</g>
</g>
<g id="LINE_TWO">
	<g>
		<path d="M132.49,255.94l-3.5,14h-3.48c-0.29-1.29-0.57-2.53-0.84-3.7c-0.16-0.69-0.29-1.27-0.4-1.74
			c-0.11-0.47-0.21-0.93-0.31-1.4s-0.2-0.91-0.3-1.34s-0.18-0.79-0.25-1.1h-0.06c-0.07,0.31-0.15,0.68-0.24,1.11
			c-0.09,0.43-0.2,0.9-0.32,1.39c-0.12,0.49-0.24,1-0.36,1.53c-0.12,0.53-0.24,1.04-0.36,1.55c-0.28,1.17-0.58,2.41-0.9,3.7h-3.48
			l-3.52-14h3.04c0.35,1.49,0.67,2.91,0.98,4.26c0.17,0.8,0.32,1.46,0.44,1.98c0.12,0.52,0.23,1.04,0.34,1.56
			c0.11,0.52,0.21,1.01,0.31,1.48s0.18,0.86,0.23,1.18h0.06c0.07-0.32,0.15-0.72,0.25-1.19c0.1-0.47,0.21-0.98,0.34-1.53
			c0.13-0.55,0.26-1.12,0.4-1.72c0.14-0.6,0.28-1.19,0.41-1.76c0.32-1.35,0.66-2.77,1.02-4.26h2.82c0.36,1.49,0.7,2.91,1.02,4.26
			c0.19,0.8,0.34,1.46,0.47,1.98c0.13,0.52,0.25,1.04,0.37,1.56c0.12,0.52,0.23,1.01,0.33,1.48s0.18,0.86,0.25,1.18h0.06
			c0.07-0.32,0.15-0.72,0.25-1.19c0.1-0.47,0.21-0.98,0.33-1.53c0.12-0.55,0.25-1.12,0.38-1.72c0.13-0.6,0.27-1.19,0.4-1.76
			c0.32-1.35,0.65-2.77,1-4.26H132.49z"/>
		<path d="M136.61,269.94v-14h9.54v2.48h-6.58v3.08h6.12v2.48h-6.12v3.48h6.68v2.48H136.61z"/>
		<path d="M150.89,255.94h3v11.5h6.12v2.5h-9.12V255.94z"/>
		<path d="M164.21,255.94h3v11.5h6.12v2.5h-9.12V255.94z"/>
		<path d="M177.53,255.94h6.08c0.65,0,1.24,0.09,1.75,0.28c0.51,0.19,0.95,0.44,1.3,0.77c0.35,0.33,0.62,0.71,0.81,1.16
			c0.19,0.45,0.28,0.93,0.28,1.45c0,0.43-0.06,0.81-0.18,1.14c-0.12,0.33-0.28,0.62-0.47,0.87c-0.19,0.25-0.41,0.45-0.66,0.62
			c-0.25,0.17-0.5,0.3-0.77,0.39c0.31,0.04,0.62,0.13,0.93,0.26c0.31,0.13,0.6,0.32,0.87,0.57c0.27,0.25,0.48,0.56,0.65,0.93
			c0.17,0.37,0.25,0.83,0.25,1.38c0,0.6-0.11,1.16-0.34,1.67c-0.23,0.51-0.54,0.95-0.94,1.32c-0.4,0.37-0.87,0.66-1.42,0.87
			c-0.55,0.21-1.15,0.32-1.8,0.32h-6.34V255.94z M180.45,258.38v3.24h2.1c0.72,0,1.25-0.12,1.6-0.36c0.35-0.24,0.52-0.67,0.52-1.3
			c0-0.57-0.15-0.98-0.45-1.22c-0.3-0.24-0.8-0.36-1.51-0.36H180.45z M180.45,267.5h2.4c0.95,0,1.59-0.15,1.93-0.45
			c0.34-0.3,0.51-0.74,0.51-1.31c0-0.68-0.21-1.14-0.62-1.37c-0.41-0.23-1.03-0.35-1.86-0.35h-2.36V267.5z"/>
		<path d="M193.03,269.94v-14h9.54v2.48h-6.58v3.08h6.12v2.48h-6.12v3.48h6.68v2.48H193.03z"/>
		<path d="M207.31,255.94h3v14h-3V255.94z"/>
		<path d="M215.59,255.94h3.12c0.81,1.32,1.59,2.57,2.32,3.76c0.44,0.71,0.8,1.29,1.08,1.75c0.28,0.46,0.56,0.92,0.84,1.37
			c0.28,0.45,0.55,0.88,0.8,1.29c0.25,0.41,0.47,0.75,0.64,1.03h0.06v-9.2h2.84v14h-3.12c-0.8-1.29-1.56-2.53-2.28-3.7
			c-0.43-0.69-0.78-1.27-1.07-1.73s-0.57-0.92-0.85-1.38s-0.55-0.9-0.81-1.32s-0.48-0.78-0.67-1.07h-0.06v9.2h-2.84V255.94z"/>
		<path d="M238.29,262.18h6.44v7.76h-2.72v-1.44c-0.31,0.48-0.76,0.89-1.36,1.22c-0.6,0.33-1.38,0.5-2.34,0.5
			c-1.04,0-1.96-0.19-2.75-0.57s-1.45-0.9-1.98-1.55c-0.53-0.65-0.92-1.42-1.19-2.3c-0.27-0.88-0.4-1.82-0.4-2.82
			c0-1.08,0.16-2.07,0.47-2.96c0.31-0.89,0.77-1.66,1.37-2.31c0.6-0.65,1.33-1.15,2.19-1.51c0.86-0.36,1.84-0.54,2.93-0.54
			c1.41,0,2.62,0.31,3.62,0.93c1,0.62,1.75,1.54,2.26,2.75l-2.78,1.14c-0.27-0.75-0.67-1.32-1.22-1.73c-0.55-0.41-1.21-0.61-2-0.61
			c-1.13,0-2.04,0.42-2.72,1.25s-1.02,2.06-1.02,3.69c0,3.12,1.23,4.68,3.7,4.68c0.36,0,0.72-0.05,1.08-0.15s0.69-0.25,0.99-0.46
			c0.3-0.21,0.54-0.47,0.73-0.79c0.19-0.32,0.28-0.71,0.28-1.16v-0.64h-3.58V262.18z"/>
	</g>
</g>
<g id="ICON">
	<g>
		<g>
			<path d="M180,95.33c27.02,0,49,21.98,49,49s-21.98,49-49,49s-49-21.98-49-49S152.98,95.33,180,95.33 M180,90.33
				c-29.82,0-54,24.18-54,54s24.18,54,54,54s54-24.18,54-54S209.82,90.33,180,90.33L180,90.33z"/>
		</g>
		<path fill="none" stroke="#000000" stroke-width="5" stroke-linecap="round" stroke-miterlimit="10" d="M180,171.15
			c-15.62,0-23.74-9.18-23.74-9.18"/>
		<path fill="none" stroke="#000000" stroke-width="5" stroke-linecap="round" stroke-miterlimit="10" d="M169.4,130.95
			c-0.39,3.65-3.67,6.49-7.64,6.49c-3.98,0-7.25-2.84-7.64-6.49"/>
		<path fill="none" stroke="#000000" stroke-width="5" stroke-linecap="round" stroke-miterlimit="10" d="M180,171.15
			c15.62,0,23.74-9.18,23.74-9.18"/>
		<path fill="none" stroke="#000000" stroke-width="5" stroke-linecap="round" stroke-miterlimit="10" d="M190.6,130.95
			c0.39,3.65,3.67,6.49,7.64,6.49c3.98,0,7.25-2.84,7.64-6.49"/>
	</g>
</g>
</svg>
