<svg xmlns="http://www.w3.org/2000/svg" viewBox="0 0 360 360"><defs><style>.cls-1{fill:#fff;}.cls-2,.cls-3,.cls-4{fill:none;stroke:#fff;stroke-miterlimit:10;}.cls-2{stroke-width:2.24px;}.cls-3{stroke-width:2px;}.cls-4{stroke-width:1.43px;}</style></defs><title>CARD</title><g id="Layer_6" data-name="Layer 6"><rect width="360" height="360"/></g><g id="LINE_ONE" data-name="LINE ONE"><path class="cls-1" d="M66,243.24v4.92H63v-14h5.32a9.4,9.4,0,0,1,2.28.26,4.81,4.81,0,0,1,1.74.8,3.7,3.7,0,0,1,1.12,1.38,4.61,4.61,0,0,1,.4,2,4.87,4.87,0,0,1-.41,2.07,3.85,3.85,0,0,1-1.14,1.44,4.83,4.83,0,0,1-1.75.84,8.76,8.76,0,0,1-2.24.27Zm4.82-4.62a1.68,1.68,0,0,0-.69-1.56,4.11,4.11,0,0,0-2.09-.42H66v4.12h2a3.6,3.6,0,0,0,2.09-.5A1.9,1.9,0,0,0,70.77,238.62Z"/><path class="cls-1" d="M78.23,234.16h3v5.54h5.3v-5.54h3v14h-3v-5.94h-5.3v5.94h-3Z"/><path class="cls-1" d="M98.85,242.3l-5.3-8.14H97l3.42,5.36,3.4-5.36h3.34l-5.3,8.14v5.86h-3Z"/><path class="cls-1" d="M113.29,237.84a1.34,1.34,0,0,0,.78,1.29,9.48,9.48,0,0,0,2.48.67,7.86,7.86,0,0,1,3.67,1.38,3.48,3.48,0,0,1,1.17,2.86,3.92,3.92,0,0,1-.42,1.83,4.07,4.07,0,0,1-1.17,1.38,5.65,5.65,0,0,1-1.79.88,7.77,7.77,0,0,1-2.26.31,7.68,7.68,0,0,1-2.38-.35,5.66,5.66,0,0,1-1.8-.93,4.41,4.41,0,0,1-1.16-1.36,3.81,3.81,0,0,1-.46-1.62l3-.48a2.56,2.56,0,0,0,.79,1.67,2.84,2.84,0,0,0,2,.65,4.61,4.61,0,0,0,1-.1,2.52,2.52,0,0,0,.82-.33,1.66,1.66,0,0,0,.55-.57,1.54,1.54,0,0,0,.2-.82,1.35,1.35,0,0,0-.65-1.2,6.31,6.31,0,0,0-2.29-.68,16.15,16.15,0,0,1-2-.46,5.59,5.59,0,0,1-1.63-.77,3.51,3.51,0,0,1-1.08-1.22,3.76,3.76,0,0,1-.39-1.79,3.93,3.93,0,0,1,.4-1.84,3.72,3.72,0,0,1,1.12-1.31,5,5,0,0,1,1.7-.79,8,8,0,0,1,2.14-.26,7.71,7.71,0,0,1,2,.25,5.51,5.51,0,0,1,1.67.74,4.36,4.36,0,0,1,1.21,1.21,4.49,4.49,0,0,1,.66,1.64l-3,.66a2.45,2.45,0,0,0-.82-1.52,2.67,2.67,0,0,0-1.78-.56,2.78,2.78,0,0,0-1.69.42A1.35,1.35,0,0,0,113.29,237.84Z"/><path class="cls-1" d="M126.05,234.16h3v14h-3Z"/><path class="cls-1" d="M133.75,241.16a9.12,9.12,0,0,1,.48-3.07,6.39,6.39,0,0,1,1.37-2.29,5.75,5.75,0,0,1,2.16-1.43,7.82,7.82,0,0,1,2.85-.49,6.83,6.83,0,0,1,3.76,1,5.35,5.35,0,0,1,2.16,3l-2.92,1a3.92,3.92,0,0,0-1.08-1.83,2.82,2.82,0,0,0-2-.65,3.51,3.51,0,0,0-1.62.36,3.26,3.26,0,0,0-1.16,1,4.28,4.28,0,0,0-.69,1.51,7.71,7.71,0,0,0-.23,1.92,7.63,7.63,0,0,0,.23,1.91,4.45,4.45,0,0,0,.69,1.51,3.19,3.19,0,0,0,1.16,1,3.54,3.54,0,0,0,1.64.36,2.94,2.94,0,0,0,1.89-.58,3.57,3.57,0,0,0,1.11-1.76l2.88,1a6.07,6.07,0,0,1-2.16,2.8,6.42,6.42,0,0,1-3.76,1,7.7,7.7,0,0,1-2.79-.49,5.94,5.94,0,0,1-2.14-1.42,6.3,6.3,0,0,1-1.37-2.29A9.26,9.26,0,0,1,133.75,241.16Z"/><path class="cls-1" d="M163.09,248.16H160l-1.12-3.24h-5l-1.12,3.24h-2.94l5-14h3.22Zm-6.76-10.72c0,.11-.07.26-.14.47s-.14.44-.22.7-.17.54-.27.84l-.29.87c-.23.69-.47,1.43-.74,2.22h3.38c-.27-.79-.51-1.53-.74-2.22-.15-.4-.26-.73-.35-1s-.17-.51-.24-.75-.14-.46-.21-.67-.11-.36-.14-.47Z"/><path class="cls-1" d="M167.23,234.16h3v11.5h6.12v2.5h-9.12Z"/><path class="cls-1" d="M186.81,240.5h3.86v-3.88H193v3.88h3.86v2.28H193v4h-2.28v-4h-3.86Z"/><path class="cls-1" d="M214.51,248.16c-.2-.55-.45-1.26-.75-2.15l-.93-2.77q-.48-1.44-.93-2.82c-.3-.92-.54-1.7-.73-2.32h-.06v10.06h-2.76v-14h4.2c.57,1.71,1.09,3.27,1.56,4.7q.42,1.27.69,2.07c.18.53.35,1,.5,1.51s.29.91.42,1.3.22.67.27.84l.26-.84c.12-.39.26-.84.43-1.37s.35-1.09.54-1.7.39-1.21.59-1.81c.45-1.43.95-3,1.5-4.7h4.18v14h-2.76V238.1h-.06l-.48,1.49c-.19.58-.39,1.2-.61,1.85s-.44,1.32-.67,2-.44,1.31-.64,1.92-.38,1.16-.55,1.65-.3.88-.41,1.16Z"/><path class="cls-1" d="M228.77,248.16v-14h9.54v2.48h-6.58v3.08h6.12v2.48h-6.12v3.48h6.68v2.48Z"/><path class="cls-1" d="M243.05,234.16h3.12l2.32,3.76,1.08,1.75.84,1.37.8,1.29.64,1h.06v-9.2h2.84v14h-3.12l-2.28-3.7-1.07-1.73c-.29-.46-.57-.92-.85-1.38l-.81-1.32c-.26-.42-.48-.78-.67-1.07h-.06v9.2h-2.84Z"/><path class="cls-1" d="M259,234.16h11.1v2.5h-4v11.5h-3v-11.5h-4Z"/><path class="cls-1" d="M284.85,248.16h-3.1l-1.12-3.24h-5l-1.12,3.24h-2.94l5-14h3.22Zm-6.76-10.72c0,.11-.07.26-.14.47s-.14.44-.22.7-.17.54-.27.84-.2.59-.29.87c-.23.69-.47,1.43-.74,2.22h3.38c-.27-.79-.51-1.53-.74-2.22-.15-.4-.26-.73-.35-1s-.17-.51-.24-.75-.14-.46-.21-.67-.11-.36-.14-.47Z"/><path class="cls-1" d="M289,234.16h3v11.5h6.12v2.5H289Z"/></g><g id="LINE_TWO" data-name="LINE TWO"><path class="cls-1" d="M55.24,252h3v5.54h5.3V252h3v14h-3V260h-5.3V266h-3Z"/><path class="cls-1" d="M71.82,266V252h9.54v2.48H74.78v3.08H80.9V260H74.78v3.47h6.68V266Z"/><path class="cls-1" d="M98.26,266h-3.1L94,262.71H89L87.9,266H85l5-14h3.22ZM91.5,255.23c0,.1-.07.26-.14.47s-.14.44-.22.7-.17.54-.27.84-.2.59-.29.87c-.23.69-.47,1.43-.74,2.22h3.38c-.27-.79-.51-1.53-.74-2.22-.15-.4-.26-.73-.35-1s-.17-.51-.24-.75-.14-.47-.21-.67-.11-.37-.14-.47Z"/><path class="cls-1" d="M102.4,252h3v11.5h6.12V266H102.4Z"/><path class="cls-1" d="M112.76,252h11.1v2.5h-4V266h-3v-11.5h-4Z"/><path class="cls-1" d="M128.08,252h3v5.54h5.3V252h3v14h-3V260h-5.3V266h-3Z"/><path class="cls-1" d="M151.36,252h3v14h-3Z"/><path class="cls-1" d="M159.64,252h3.12l2.32,3.76c.44.7.8,1.29,1.08,1.75l.84,1.37.8,1.29.64,1h.06V252h2.84v14h-3.12l-2.28-3.7-1.07-1.73c-.29-.46-.57-.92-.85-1.38l-.81-1.32c-.26-.42-.48-.78-.67-1.07h-.06V266h-2.84Z"/><path class="cls-1" d="M175.56,252h11.1v2.5h-4V266h-3v-11.5h-4Z"/><path class="cls-1" d="M190.88,266V252h9.54v2.48h-6.58v3.08H200V260h-6.12v3.47h6.68V266Z"/><path class="cls-1" d="M210.88,258.19h6.44V266H214.6v-1.44a3.78,3.78,0,0,1-1.36,1.22,4.83,4.83,0,0,1-2.34.5,6.29,6.29,0,0,1-2.75-.57,5.72,5.72,0,0,1-2-1.55,6.79,6.79,0,0,1-1.19-2.3,9.56,9.56,0,0,1-.4-2.82,9,9,0,0,1,.47-3,6.49,6.49,0,0,1,1.37-2.32,6.28,6.28,0,0,1,2.19-1.5,7.54,7.54,0,0,1,2.93-.54,6.74,6.74,0,0,1,3.62.93,5.65,5.65,0,0,1,2.26,2.75l-2.78,1.14a3.54,3.54,0,0,0-1.22-1.73,3.24,3.24,0,0,0-2-.61,3.32,3.32,0,0,0-2.72,1.25,5.72,5.72,0,0,0-1,3.69q0,4.68,3.7,4.68a4.46,4.46,0,0,0,1.08-.15,3.45,3.45,0,0,0,1-.46,2.51,2.51,0,0,0,.73-.79,2.24,2.24,0,0,0,.28-1.16v-.64h-3.58Z"/><path class="cls-1" d="M233,256.21a4.26,4.26,0,0,1-.71,2.54,4.21,4.21,0,0,1-1.95,1.46l3.22,5.74h-3.3l-2.9-5.3h-1.86V266h-3V252h5.12a8.89,8.89,0,0,1,2.21.25,4.77,4.77,0,0,1,1.69.76,3.42,3.42,0,0,1,1.08,1.33A4.47,4.47,0,0,1,233,256.21Zm-3.08,0a1.51,1.51,0,0,0-.65-1.41,3.91,3.91,0,0,0-2-.39h-1.8v3.78h1.8a3.48,3.48,0,0,0,2-.45A1.74,1.74,0,0,0,229.94,256.23Z"/><path class="cls-1" d="M250.22,266h-3.1L246,262.71h-5L239.86,266h-2.94l5-14h3.22Zm-6.76-10.72c0,.1-.07.26-.14.47s-.14.44-.22.7-.17.54-.27.84-.2.59-.29.87c-.23.69-.47,1.43-.74,2.22h3.38c-.27-.79-.51-1.53-.74-2.22-.15-.4-.26-.73-.35-1s-.17-.51-.24-.75-.14-.47-.21-.67-.11-.37-.14-.47Z"/><path class="cls-1" d="M251.7,252h11.1v2.5h-4V266h-3v-11.5h-4Z"/><path class="cls-1" d="M267,252h3v14h-3Z"/><path class="cls-1" d="M274.72,259a8.79,8.79,0,0,1,.49-3,6.55,6.55,0,0,1,1.38-2.29,5.82,5.82,0,0,1,2.15-1.44,8.09,8.09,0,0,1,5.6,0,5.82,5.82,0,0,1,2.15,1.44,6.55,6.55,0,0,1,1.38,2.29,9.74,9.74,0,0,1,0,6.1,6.64,6.64,0,0,1-1.38,2.29,6.07,6.07,0,0,1-2.15,1.44,8.09,8.09,0,0,1-5.6,0,6.07,6.07,0,0,1-2.15-1.44,6.64,6.64,0,0,1-1.38-2.29A8.83,8.83,0,0,1,274.72,259Zm3.1,0a8,8,0,0,0,.23,1.95,4.33,4.33,0,0,0,.69,1.52,3.24,3.24,0,0,0,1.16,1,4,4,0,0,0,3.28,0,3.24,3.24,0,0,0,1.16-1,4.33,4.33,0,0,0,.69-1.52,8,8,0,0,0,.23-1.95A7.9,7.9,0,0,0,285,257a4.25,4.25,0,0,0-.69-1.52,3.14,3.14,0,0,0-1.16-1,4,4,0,0,0-3.28,0,3.14,3.14,0,0,0-1.16,1,4.25,4.25,0,0,0-.69,1.52A7.9,7.9,0,0,0,277.82,259Z"/><path class="cls-1" d="M293.06,252h3.12l2.32,3.76c.44.7.8,1.29,1.08,1.75l.84,1.37.8,1.29.64,1h.06V252h2.84v14h-3.12l-2.28-3.7-1.07-1.73c-.29-.46-.57-.92-.85-1.38l-.81-1.32c-.26-.42-.48-.78-.67-1.07h-.06V266h-2.84Z"/></g><g id="ICON"><path class="cls-1" d="M230.71,104.33c-6.17,0-12.35,0-18.52,0H182.06v88.56c.36,0,.72.05,1.08.05h38.78c1.62,0,2.72.84,2.87,2.14a2.48,2.48,0,0,1-2.68,2.93H137.3A6.32,6.32,0,0,1,136,198a2.57,2.57,0,0,1-2-2.64,2.52,2.52,0,0,1,2.6-2.35c1.66,0,3.32,0,5,0h35.26V104.41h-49.1l.17-5.14c6.58,0,13.16,0,19.75,0h29.21c0-2.21,0-4.3,0-6.4a2.48,2.48,0,0,1,3.49-2.31,2.52,2.52,0,0,1,1.59,2.5c0,2,0,4.06,0,6.16.42,0,.75,0,1.07,0h30.85c5.67,0,11.16,0,16.83,0"/><circle class="cls-2" cx="234.08" cy="101.53" r="3.93"/><line class="cls-3" x1="234.08" y1="105.47" x2="216.62" y2="149.25"/><rect class="cls-4" x="214.19" y="149.25" width="40.68" height="1.94"/><line class="cls-3" x1="234.73" y1="105.47" x2="252.19" y2="149.25"/><circle class="cls-2" cx="124.83" cy="101.53" r="3.93"/><line class="cls-3" x1="124.83" y1="105.47" x2="107.37" y2="149.25"/><rect class="cls-4" x="105.14" y="149.25" width="40.68" height="1.94"/><line class="cls-3" x1="125.48" y1="105.47" x2="142.94" y2="149.25"/></g></svg>