<svg xmlns="http://www.w3.org/2000/svg" viewBox="0 0 360 360"><defs><style>.cls-1,.cls-5,.cls-6{fill:#231f20;}.cls-2{fill:#fff;}.cls-3,.cls-4,.cls-7{fill:none;}.cls-3,.cls-4,.cls-5,.cls-6,.cls-7{stroke:#fff;stroke-miterlimit:10;}.cls-4{stroke-width:3px;}.cls-6,.cls-7{stroke-width:2px;}.cls-7{stroke-linecap:round;}</style></defs><title>CARD</title><g id="BACKGROUND"><rect class="cls-1" width="360" height="360"/></g><g id="LINE_ONE" data-name="LINE ONE"><path class="cls-2" d="M149.33,237.84a1.34,1.34,0,0,0,.78,1.29,9.48,9.48,0,0,0,2.48.67,7.86,7.86,0,0,1,3.67,1.38,3.48,3.48,0,0,1,1.17,2.86,3.92,3.92,0,0,1-.42,1.83,4.07,4.07,0,0,1-1.17,1.38,5.65,5.65,0,0,1-1.79.88,7.77,7.77,0,0,1-2.26.31,7.68,7.68,0,0,1-2.38-.35,5.66,5.66,0,0,1-1.8-.93,4.41,4.41,0,0,1-1.16-1.36,3.81,3.81,0,0,1-.46-1.62l3-.48a2.56,2.56,0,0,0,.79,1.67,2.84,2.84,0,0,0,2,.65,4.61,4.61,0,0,0,1-.1,2.52,2.52,0,0,0,.82-.33,1.66,1.66,0,0,0,.55-.57,1.63,1.63,0,0,0,.2-.82,1.35,1.35,0,0,0-.65-1.2,6.31,6.31,0,0,0-2.29-.68,16.15,16.15,0,0,1-2-.46,5.47,5.47,0,0,1-1.63-.77,3.51,3.51,0,0,1-1.08-1.22,3.76,3.76,0,0,1-.39-1.79,3.93,3.93,0,0,1,.4-1.84,3.72,3.72,0,0,1,1.12-1.31,5,5,0,0,1,1.7-.79,8.48,8.48,0,0,1,2.14-.26,7.71,7.71,0,0,1,2,.25,5.51,5.51,0,0,1,1.67.74,4.36,4.36,0,0,1,1.21,1.21,4.49,4.49,0,0,1,.66,1.64l-3,.66a2.45,2.45,0,0,0-.82-1.52,2.67,2.67,0,0,0-1.78-.56,2.78,2.78,0,0,0-1.69.42A1.33,1.33,0,0,0,149.33,237.84Z"/><path class="cls-2" d="M160.53,234.16h11.1v2.5h-4v11.5h-3v-11.5h-4Z"/><path class="cls-2" d="M186.41,248.16h-3.1l-1.12-3.24h-5l-1.12,3.24h-2.94l5-14h3.22Zm-6.76-10.72c0,.11-.07.26-.14.47s-.14.44-.22.7-.17.54-.27.84-.2.59-.29.87c-.23.69-.47,1.43-.74,2.22h3.38c-.27-.79-.51-1.53-.74-2.22-.15-.4-.26-.73-.35-1s-.17-.51-.24-.75-.14-.46-.21-.67-.11-.36-.14-.47Z"/><path class="cls-2" d="M190.55,248.16v-14h9.58v2.48h-6.62v3.08h6.1v2.48h-6.1v6Z"/><path class="cls-2" d="M204.61,248.16v-14h9.58v2.48h-6.62v3.08h6.1v2.48h-6.1v6Z"/></g><g id="LINE_TWO" data-name="LINE TWO"><path class="cls-2" d="M109.39,266V252h9.54v2.48h-6.58v3.08h6.12V260h-6.12v3.48H119V266Z"/><path class="cls-2" d="M131.11,258.61l5.18,7.34h-3.6l-3.38-4.86L125.87,266h-3.36l5.14-7.2-4.74-6.8h3.62l2.94,4.32,3-4.32h3.38Z"/><path class="cls-2" d="M143.39,261V266h-3V252h5.32a8.93,8.93,0,0,1,2.28.26,4.81,4.81,0,0,1,1.74.8,3.7,3.7,0,0,1,1.12,1.38,4.61,4.61,0,0,1,.4,2,4.87,4.87,0,0,1-.41,2.07,3.85,3.85,0,0,1-1.14,1.44,4.83,4.83,0,0,1-1.75.84,8.76,8.76,0,0,1-2.24.27Zm4.82-4.62a1.68,1.68,0,0,0-.69-1.56,4.11,4.11,0,0,0-2.09-.42h-2v4.12h2a3.6,3.6,0,0,0,2.09-.5A1.9,1.9,0,0,0,148.21,256.41Z"/><path class="cls-2" d="M155.67,266V252h9.54v2.48h-6.58v3.08h6.12V260h-6.12v3.48h6.68V266Z"/><path class="cls-2" d="M180.43,256.21a4.26,4.26,0,0,1-.71,2.54,4.21,4.21,0,0,1-1.95,1.46L181,266h-3.3l-2.9-5.3h-1.86V266h-3V252h5.12a8.89,8.89,0,0,1,2.21.25A4.61,4.61,0,0,1,179,253a3.32,3.32,0,0,1,1.08,1.32A4.47,4.47,0,0,1,180.43,256.21Zm-3.08,0a1.51,1.51,0,0,0-.65-1.41,3.91,3.91,0,0,0-2-.39h-1.8v3.78h1.8a3.48,3.48,0,0,0,2-.45A1.74,1.74,0,0,0,177.35,256.23Z"/><path class="cls-2" d="M185.47,252h3v14h-3Z"/><path class="cls-2" d="M193.75,266V252h9.54v2.48h-6.58v3.08h6.12V260h-6.12v3.48h6.68V266Z"/><path class="cls-2" d="M208,252h3.12l2.32,3.76c.44.7.8,1.29,1.08,1.75l.84,1.37.8,1.29.64,1h.06V252h2.84v14h-3.12l-2.28-3.7-1.07-1.73c-.29-.46-.57-.92-.85-1.38l-.81-1.32c-.26-.42-.48-.78-.67-1.07h-.06V266H208Z"/><path class="cls-2" d="M224.43,259a9.12,9.12,0,0,1,.48-3.07,6.39,6.39,0,0,1,1.37-2.29,5.64,5.64,0,0,1,2.16-1.43,7.82,7.82,0,0,1,2.85-.49,6.75,6.75,0,0,1,3.76,1,5.32,5.32,0,0,1,2.16,3l-2.92,1a3.92,3.92,0,0,0-1.08-1.83,2.82,2.82,0,0,0-2-.65,3.51,3.51,0,0,0-1.62.36,3.26,3.26,0,0,0-1.16,1,4.28,4.28,0,0,0-.69,1.51,8.09,8.09,0,0,0,0,3.83,4.45,4.45,0,0,0,.69,1.51,3.29,3.29,0,0,0,1.16,1,3.54,3.54,0,0,0,1.64.36,3,3,0,0,0,1.89-.58,3.57,3.57,0,0,0,1.11-1.76l2.88,1a6.07,6.07,0,0,1-2.16,2.8,6.42,6.42,0,0,1-3.76,1,7.7,7.7,0,0,1-2.79-.49,5.94,5.94,0,0,1-2.14-1.42,6.39,6.39,0,0,1-1.37-2.29A9.26,9.26,0,0,1,224.43,259Z"/><path class="cls-2" d="M241.61,266V252h9.54v2.48h-6.58v3.08h6.12V260h-6.12v3.48h6.68V266Z"/></g><g id="ICON"><rect class="cls-3" x="153.65" y="126.28" width="51.33" height="39" rx="10.01"/><circle class="cls-4" cx="179.24" cy="145.55" r="39.02"/><polygon class="cls-5" points="173.28 160.2 171.97 160.96 171.1 161.89 170.94 162.29 170.94 165.29 160.31 165.29 160.31 169.39 160.74 170.13 161.23 170.62 161.64 171.13 161.83 171.38 161.83 173.72 170.67 173.72 170.67 172.79 171.32 172.11 172.38 171.32 173.74 170.18 174.18 169.42 174.39 168.71 174.39 160.2 174.39 159.93 173.9 159.93 173.28 160.2"/><rect class="cls-6" x="160.55" y="173.72" width="11.91" height="25.98"/><polygon class="cls-5" points="185.41 160.2 186.72 160.96 187.59 161.89 187.75 162.29 187.75 165.29 198.38 165.29 198.38 169.39 197.95 170.13 197.46 170.62 197.05 171.13 196.86 171.38 196.86 173.72 188.02 173.72 188.02 172.79 187.37 172.11 186.31 171.32 184.95 170.18 184.51 169.42 184.29 168.71 184.29 160.2 184.29 159.93 184.78 159.93 185.41 160.2"/><rect class="cls-6" x="186.23" y="173.72" width="11.91" height="25.98" transform="translate(384.37 373.41) rotate(-180)"/><path class="cls-2" d="M169.11,139v5.24h-.89l-.24-.95a1.75,1.75,0,0,1-.7.88,1.63,1.63,0,0,1-.81.24,2.4,2.4,0,0,1-.93-.2,1.9,1.9,0,0,1-.84-.81,5.49,5.49,0,0,1-.61-1.76,19.2,19.2,0,0,1,0-6,5.59,5.59,0,0,1,.61-1.77,2.12,2.12,0,0,1,.91-.88,2.57,2.57,0,0,1,1.1-.25,2.5,2.5,0,0,1,1,.2,1.83,1.83,0,0,1,.78.67,3.63,3.63,0,0,1,.51,1.28,9.29,9.29,0,0,1,.18,2h-1.42a7.37,7.37,0,0,0-.24-2.22c-.16-.46-.42-.7-.8-.7a1,1,0,0,0-.59.2,1.45,1.45,0,0,0-.45.71,6.38,6.38,0,0,0-.29,1.41q-.09.88-.09,2.28a20.9,20.9,0,0,0,.1,2.32,6.56,6.56,0,0,0,.28,1.4,1.38,1.38,0,0,0,.4.69.85.85,0,0,0,.51.19.88.88,0,0,0,.49-.15,1.21,1.21,0,0,0,.41-.49,3.74,3.74,0,0,0,.27-.93,9.26,9.26,0,0,0,.09-1.41h-1.15V139Z"/><path class="cls-2" d="M173.69,139.13h-1.15v5.06h-1.31V132.87h2.41a3.37,3.37,0,0,1,1,.13,1.75,1.75,0,0,1,.76.49,2.43,2.43,0,0,1,.49.95A5.79,5.79,0,0,1,176,136a5.27,5.27,0,0,1-.27,1.79,2.05,2.05,0,0,1-.85,1.09l1.38,5.35h-1.4ZM172.54,138h1.15a.79.79,0,0,0,.79-.49,4.44,4.44,0,0,0,.2-1.55,6.22,6.22,0,0,0-.06-1,1.62,1.62,0,0,0-.2-.61.76.76,0,0,0-.38-.31,1.66,1.66,0,0,0-.59-.09h-.91Z"/><path class="cls-2" d="M178.06,132.87h3.77v1.19h-2.46V138h2.22v1.2h-2.22V143h2.46v1.19h-3.77Z"/><path class="cls-2" d="M187.09,141.33h-2.18l-.44,2.86h-1.34l2.07-11.32h1.65l2.05,11.32h-1.36Zm-2-1.2h1.81l-.9-5.89Z"/><path class="cls-2" d="M194.37,132.87v1.19h-2v10.13H191V134.06h-2v-1.19Z"/><path class="cls-2" d="M170.39,146.15h1.18l-1.13,11.33H169l-1.49-9.3-1.33,9.3h-1.55l-1.41-11.33h1.31l.92,9.32,1.41-9.32h1.28l1.57,9.32Z"/><path class="cls-2" d="M175.65,146a2.79,2.79,0,0,1,1,.2,1.74,1.74,0,0,1,.86.81,5.72,5.72,0,0,1,.58,1.77,21.18,21.18,0,0,1,0,6.09,5.54,5.54,0,0,1-.58,1.77,1.77,1.77,0,0,1-.86.82,2.78,2.78,0,0,1-1,.19,2.84,2.84,0,0,1-1.05-.19,1.8,1.8,0,0,1-.85-.82,5.51,5.51,0,0,1-.59-1.77,22.18,22.18,0,0,1,0-6.09,5.69,5.69,0,0,1,.59-1.77,1.77,1.77,0,0,1,.85-.81A2.84,2.84,0,0,1,175.65,146Zm0,1.23a1,1,0,0,0-.56.15,1.09,1.09,0,0,0-.4.63,7.33,7.33,0,0,0-.24,1.39c0,.6-.08,1.41-.08,2.43s0,1.82.08,2.42a7.61,7.61,0,0,0,.24,1.4,1.16,1.16,0,0,0,.4.63,1.11,1.11,0,0,0,.56.14,1.2,1.2,0,0,0,.57-.13,1,1,0,0,0,.4-.59,5.6,5.6,0,0,0,.24-1.37c.06-.61.08-1.45.08-2.5s0-1.88-.08-2.5a6.48,6.48,0,0,0-.23-1.38,1,1,0,0,0-.4-.59A1.16,1.16,0,0,0,175.65,147.22Z"/><path class="cls-2" d="M182.77,152.42h-1.15v5.06h-1.31V146.15h2.41a3.36,3.36,0,0,1,1,.14,1.65,1.65,0,0,1,.76.48,2.36,2.36,0,0,1,.48.95,5.45,5.45,0,0,1,.17,1.52,5.24,5.24,0,0,1-.26,1.79,2,2,0,0,1-.85,1.09l1.37,5.36H184Zm-1.15-1.14h1.15a.76.76,0,0,0,.78-.48,4.23,4.23,0,0,0,.21-1.56,6.17,6.17,0,0,0-.06-.94,1.68,1.68,0,0,0-.2-.61.83.83,0,0,0-.38-.32,1.7,1.7,0,0,0-.59-.09h-.91Z"/><path class="cls-2" d="M187.14,146.15h1.31v5H189l1.52-5h1.39l-1.86,5.57,2.11,5.76h-1.43L189,152.35h-.53v5.13h-1.31Z"/><path class="cls-2" d="M193.5,146.15h1.39l-.24,8.4h-.91Zm.08,9.75h1.23v1.58h-1.23Z"/><line class="cls-7" x1="184.97" y1="101.19" x2="186.32" y2="88.84"/><line class="cls-7" x1="197.19" y1="104.33" x2="201.69" y2="92.76"/><line class="cls-7" x1="207.49" y1="110.35" x2="214.95" y2="100.43"/><line class="cls-7" x1="215.27" y1="118.67" x2="224.91" y2="110.85"/><line class="cls-7" x1="221.17" y1="129.32" x2="232.61" y2="124.49"/><line class="cls-7" x1="223.71" y1="140.47" x2="236.09" y2="139.49"/><line class="cls-7" x1="223.24" y1="152.17" x2="235.52" y2="153.99"/><line class="cls-7" x1="220.5" y1="163.57" x2="231.83" y2="168.66"/><line class="cls-7" x1="214.3" y1="173.27" x2="224.12" y2="180.87"/><line class="cls-7" x1="206.41" y1="181.83" x2="214.09" y2="191.59"/><line class="cls-7" x1="175.03" y1="101.21" x2="173.68" y2="88.87"/><line class="cls-7" x1="162.81" y1="104.36" x2="158.31" y2="92.78"/><line class="cls-7" x1="152.51" y1="110.38" x2="145.05" y2="100.46"/><line class="cls-7" x1="144.73" y1="118.69" x2="135.09" y2="110.87"/><line class="cls-7" x1="138.83" y1="129.35" x2="127.39" y2="124.52"/><line class="cls-7" x1="136.29" y1="140.5" x2="123.91" y2="139.51"/><line class="cls-7" x1="136.76" y1="152.2" x2="124.48" y2="154.02"/><line class="cls-7" x1="139.5" y1="163.6" x2="128.17" y2="168.69"/><line class="cls-7" x1="145.7" y1="173.29" x2="135.88" y2="180.89"/><line class="cls-7" x1="153.59" y1="181.85" x2="145.91" y2="191.61"/></g></svg>