<svg xmlns="http://www.w3.org/2000/svg" viewBox="0 0 360 360"><defs><style>.cls-1{fill:#fff;}.cls-2{fill:#0b6e3a;}.cls-3{fill:#0c6e39;}</style></defs><title>CARD</title><g id="Layer_6" data-name="Layer 6"><rect class="cls-1" x="0.42" y="-0.41" width="360" height="360"/></g><g id="BACKGROUND"><rect class="cls-2" y="336.06" width="360" height="23.94"/><path class="cls-1" d="M207,344.09h3.65a2.89,2.89,0,0,1,1,.17,2.33,2.33,0,0,1,.78.46,2,2,0,0,1,.48.69,2.29,2.29,0,0,1,.17.87,2.08,2.08,0,0,1-.11.69,1.73,1.73,0,0,1-.68.89,2,2,0,0,1-.46.24,1.9,1.9,0,0,1,1.08.49,1.76,1.76,0,0,1,.39.56,2.05,2.05,0,0,1,.15.83,2.55,2.55,0,0,1-.2,1,2.39,2.39,0,0,1-.57.79,2.72,2.72,0,0,1-.85.53,3.14,3.14,0,0,1-1.08.19H207Zm1.75,1.46v1.95H210a1.74,1.74,0,0,0,1-.22.87.87,0,0,0,.31-.78.88.88,0,0,0-.27-.73,1.42,1.42,0,0,0-.9-.22Zm0,5.47h1.44a1.82,1.82,0,0,0,1.16-.27,1,1,0,0,0,.3-.78.85.85,0,0,0-.37-.82,2.33,2.33,0,0,0-1.11-.21h-1.42Z"/><path class="cls-1" d="M219.57,352.66a3.34,3.34,0,0,1-2.56-.87,3.39,3.39,0,0,1-.8-2.4v-5.3H218v5.31a2,2,0,0,0,.38,1.27,1.64,1.64,0,0,0,2.36,0,2,2,0,0,0,.38-1.27v-5.31h1.8v5.3a3.39,3.39,0,0,1-.8,2.4A3.34,3.34,0,0,1,219.57,352.66Z"/><path class="cls-1" d="M226.05,344.09h1.8v8.4h-1.8Z"/><path class="cls-1" d="M231,344.09h1.8V351h3.67v1.5H231Z"/><path class="cls-1" d="M237.23,344.09h6.66v1.5h-2.42v6.9h-1.81v-6.9h-2.43Z"/><path class="cls-1" d="M250.45,352.49v-8.4h5.72v1.49h-4v1.84h3.67v1.49h-3.67V351h4v1.49Z"/><path class="cls-1" d="M259,344.09h1.88c.48.79.95,1.54,1.39,2.25l.65,1.05.5.83.48.77.38.62h0v-5.52H266v8.4h-1.87c-.48-.78-.93-1.52-1.37-2.22-.25-.42-.47-.76-.64-1l-.51-.83-.48-.79c-.16-.25-.29-.47-.41-.64h0v5.52H259Z"/><path class="cls-1" d="M270.44,344.09l.84,2.43c.16.46.29.84.39,1.16s.21.62.32.94l.3.92.25.79h0c.07-.23.16-.5.25-.8l.31-.95.34-1,.35-1q.39-1.17.84-2.43h1.85l-3.1,8.4h-1.83l-3.06-8.4Z"/><path class="cls-1" d="M279,344.09h1.8v8.4H279Z"/><path class="cls-1" d="M290.23,346.64a2.36,2.36,0,0,1-1.6,2.4l1.93,3.45h-2l-1.74-3.18h-1.11v3.18h-1.79v-8.4H287a5.47,5.47,0,0,1,1.33.15,2.84,2.84,0,0,1,1,.46,2.08,2.08,0,0,1,.65.79A2.71,2.71,0,0,1,290.23,346.64Zm-1.85,0a.91.91,0,0,0-.39-.85,2.3,2.3,0,0,0-1.18-.23h-1.08v2.26h1.08a2.08,2.08,0,0,0,1.18-.27A1,1,0,0,0,288.38,346.66Z"/><path class="cls-1" d="M292.9,348.29a5.24,5.24,0,0,1,.3-1.83,4,4,0,0,1,.82-1.38,3.7,3.7,0,0,1,1.29-.86,4.88,4.88,0,0,1,3.37,0,3.7,3.7,0,0,1,1.29.86,4,4,0,0,1,.82,1.38,5.73,5.73,0,0,1,0,3.66,3.82,3.82,0,0,1-.82,1.37,3.59,3.59,0,0,1-1.29.87,4.88,4.88,0,0,1-3.37,0,3.59,3.59,0,0,1-1.29-.87,3.82,3.82,0,0,1-.82-1.37A5.24,5.24,0,0,1,292.9,348.29Zm1.86,0a4.81,4.81,0,0,0,.14,1.17,2.72,2.72,0,0,0,.41.91,2,2,0,0,0,.7.59,2.42,2.42,0,0,0,2,0,2,2,0,0,0,.7-.59,2.72,2.72,0,0,0,.41-.91,4.81,4.81,0,0,0,.14-1.17,4.69,4.69,0,0,0-.14-1.17,2.63,2.63,0,0,0-.41-.91,1.89,1.89,0,0,0-.7-.59,2.42,2.42,0,0,0-2,0,1.89,1.89,0,0,0-.7.59,2.63,2.63,0,0,0-.41.91A4.69,4.69,0,0,0,294.76,348.29Z"/><path class="cls-1" d="M303.91,344.09h1.87l1.39,2.25.65,1.05c.17.28.34.55.5.83l.48.77c.16.24.28.45.39.62h0v-5.52h1.71v8.4h-1.87l-1.37-2.22-.64-1c-.18-.28-.35-.55-.51-.83l-.49-.79-.4-.64h0v5.52h-1.7Z"/><path class="cls-1" d="M317.79,352.49q-.18-.5-.45-1.29l-.56-1.66c-.19-.58-.38-1.14-.56-1.7s-.32-1-.43-1.39h0v6H314.1v-8.4h2.51c.35,1,.66,2,.94,2.82l.42,1.24.29.91c.1.28.18.54.26.78s.13.4.16.5l.15-.5c.08-.24.16-.51.26-.83l.33-1c.11-.36.23-.72.35-1.08q.41-1.29.9-2.82h2.51v8.4h-1.66v-6h0l-.29.9c-.11.34-.23.71-.37,1.11s-.26.79-.4,1.19-.26.79-.38,1.15l-.33,1c-.1.3-.19.53-.25.7Z"/><path class="cls-1" d="M326.35,352.49v-8.4h5.72v1.49h-3.95v1.84h3.67v1.49h-3.67V351h4v1.49Z"/><path class="cls-1" d="M334.91,344.09h1.88c.48.79.95,1.54,1.39,2.25l.65,1.05c.16.28.33.55.5.83l.48.77.38.62h0v-5.52h1.7v8.4h-1.87c-.48-.78-.93-1.52-1.37-2.22-.25-.42-.47-.76-.64-1l-.51-.83-.48-.79c-.16-.25-.29-.47-.41-.64h0v5.52h-1.71Z"/><path class="cls-1" d="M344.47,344.09h6.66v1.5H348.7v6.9h-1.81v-6.9h-2.42Z"/></g><g id="LINE_ONE" data-name="LINE ONE"><path class="cls-3" d="M87.31,234.16h11.1v2.5h-4v11.5h-3v-11.5h-4Z"/><path class="cls-3" d="M113.11,238.42a3.94,3.94,0,0,1-2.66,4l3.22,5.74h-3.3l-2.9-5.3h-1.86v5.3h-3v-14h5.12a8.89,8.89,0,0,1,2.21.25,4.78,4.78,0,0,1,1.69.77,3.46,3.46,0,0,1,1.08,1.32A4.47,4.47,0,0,1,113.11,238.42Zm-3.08,0a1.51,1.51,0,0,0-.65-1.41,3.91,3.91,0,0,0-2-.39h-1.8v3.78h1.8a3.48,3.48,0,0,0,2-.45A1.74,1.74,0,0,0,110,238.44Z"/><path class="cls-3" d="M130.31,248.16h-3.1l-1.12-3.24h-5L120,248.16H117l5-14h3.22Zm-6.76-10.72c0,.11-.07.26-.14.47s-.14.44-.22.7-.17.54-.27.84l-.29.87c-.23.69-.47,1.43-.74,2.22h3.38c-.27-.79-.51-1.53-.74-2.22-.15-.4-.26-.73-.35-1s-.17-.51-.24-.75-.14-.46-.21-.67-.11-.36-.14-.47Z"/><path class="cls-3" d="M134.45,234.16h3.12l2.32,3.76,1.08,1.75.84,1.37.8,1.29.64,1h.06v-9.2h2.84v14H143l-2.28-3.7-1.07-1.73c-.29-.46-.57-.92-.85-1.38L138,240c-.26-.42-.48-.78-.67-1.07h-.06v9.2h-2.84Z"/><path class="cls-3" d="M154.15,237.84a1.34,1.34,0,0,0,.78,1.29,9.48,9.48,0,0,0,2.48.67,7.86,7.86,0,0,1,3.67,1.38,3.48,3.48,0,0,1,1.17,2.86,3.92,3.92,0,0,1-.42,1.83,4.07,4.07,0,0,1-1.17,1.38,5.65,5.65,0,0,1-1.79.88,7.77,7.77,0,0,1-2.26.31,7.68,7.68,0,0,1-2.38-.35,5.66,5.66,0,0,1-1.8-.93,4.41,4.41,0,0,1-1.16-1.36,3.81,3.81,0,0,1-.46-1.62l3-.48a2.56,2.56,0,0,0,.79,1.67,2.84,2.84,0,0,0,2,.65,4.61,4.61,0,0,0,1-.1,2.52,2.52,0,0,0,.82-.33A1.66,1.66,0,0,0,159,245a1.63,1.63,0,0,0,.2-.82,1.35,1.35,0,0,0-.65-1.2,6.31,6.31,0,0,0-2.29-.68,16.15,16.15,0,0,1-2-.46,5.47,5.47,0,0,1-1.63-.77,3.51,3.51,0,0,1-1.08-1.22,3.76,3.76,0,0,1-.39-1.79,3.93,3.93,0,0,1,.4-1.84,3.72,3.72,0,0,1,1.12-1.31,5,5,0,0,1,1.7-.79,8.48,8.48,0,0,1,2.14-.26,7.71,7.71,0,0,1,2,.25,5.51,5.51,0,0,1,1.67.74,4.36,4.36,0,0,1,1.21,1.21,4.49,4.49,0,0,1,.66,1.64l-3,.66a2.45,2.45,0,0,0-.82-1.52,2.67,2.67,0,0,0-1.78-.56,2.78,2.78,0,0,0-1.69.42A1.33,1.33,0,0,0,154.15,237.84Z"/><path class="cls-3" d="M169.89,243.24v4.92h-3v-14h5.32a9.4,9.4,0,0,1,2.28.26,4.81,4.81,0,0,1,1.74.8,3.7,3.7,0,0,1,1.12,1.38,4.61,4.61,0,0,1,.4,2,4.87,4.87,0,0,1-.41,2.07,3.85,3.85,0,0,1-1.14,1.44,4.83,4.83,0,0,1-1.75.84,8.76,8.76,0,0,1-2.24.27Zm4.82-4.62a1.68,1.68,0,0,0-.69-1.56,4.11,4.11,0,0,0-2.09-.42h-2v4.12h2a3.6,3.6,0,0,0,2.09-.5A1.88,1.88,0,0,0,174.71,238.62Z"/><path class="cls-3" d="M193.23,248.16h-3.1L189,244.92h-5l-1.12,3.24h-2.94l5-14h3.22Zm-6.76-10.72c0,.11-.07.26-.14.47s-.14.44-.22.7-.17.54-.27.84-.2.59-.29.87c-.23.69-.47,1.43-.74,2.22h3.38c-.27-.79-.51-1.53-.74-2.22-.15-.4-.26-.73-.35-1s-.17-.51-.24-.75-.14-.46-.21-.67-.11-.36-.14-.47Z"/><path class="cls-3" d="M207.85,238.42a3.94,3.94,0,0,1-2.66,4l3.22,5.74h-3.3l-2.9-5.3h-1.86v5.3h-3v-14h5.12a8.89,8.89,0,0,1,2.21.25,4.78,4.78,0,0,1,1.69.77,3.46,3.46,0,0,1,1.08,1.32A4.47,4.47,0,0,1,207.85,238.42Zm-3.08,0a1.51,1.51,0,0,0-.65-1.41,3.91,3.91,0,0,0-2-.39h-1.8v3.78h1.8a3.48,3.48,0,0,0,2-.45A1.74,1.74,0,0,0,204.77,238.44Z"/><path class="cls-3" d="M212.89,248.16v-14h9.54v2.48h-6.58v3.08H222v2.48h-6.12v3.48h6.68v2.48Z"/><path class="cls-3" d="M227.17,234.16h3.12l2.32,3.76,1.08,1.75.84,1.37.8,1.29.64,1H236v-9.2h2.84v14h-3.12l-2.28-3.7-1.07-1.73c-.29-.46-.57-.92-.85-1.38l-.81-1.32c-.26-.42-.48-.78-.67-1.07H230v9.2h-2.84Z"/><path class="cls-3" d="M243.57,241.16a9.12,9.12,0,0,1,.48-3.07,6.47,6.47,0,0,1,1.37-2.29,5.75,5.75,0,0,1,2.16-1.43,7.82,7.82,0,0,1,2.85-.49,6.83,6.83,0,0,1,3.76,1,5.35,5.35,0,0,1,2.16,3l-2.92,1a3.92,3.92,0,0,0-1.08-1.83,2.86,2.86,0,0,0-2-.65,3.51,3.51,0,0,0-1.62.36,3.26,3.26,0,0,0-1.16,1,4.28,4.28,0,0,0-.69,1.51,7.77,7.77,0,0,0-.23,1.92,7.63,7.63,0,0,0,.23,1.91,4.45,4.45,0,0,0,.69,1.51,3.19,3.19,0,0,0,1.16,1,3.54,3.54,0,0,0,1.64.36,2.94,2.94,0,0,0,1.89-.58,3.53,3.53,0,0,0,1.11-1.76l2.88,1a6,6,0,0,1-2.16,2.8,6.42,6.42,0,0,1-3.76,1,7.5,7.5,0,0,1-2.79-.49,5.94,5.94,0,0,1-2.14-1.42,6.3,6.3,0,0,1-1.37-2.29A9.22,9.22,0,0,1,243.57,241.16Z"/><path class="cls-3" d="M264.59,242.3l-5.3-8.14h3.44l3.42,5.36,3.4-5.36h3.34l-5.3,8.14v5.86h-3Z"/></g><g id="ICON"><path class="cls-2" d="M98.92,143.38c0-25.76,18.76-48.3,44-52.92a53.2,53.2,0,0,1,36.32,5.91,1.82,1.82,0,0,0,2.05-.05,52.86,52.86,0,0,1,29-6.74A54,54,0,0,1,218,196.4a52.46,52.46,0,0,1-36.37-5.59,2.49,2.49,0,0,0-2.79,0c-31.12,17.27-70.79-.58-78.46-35.32-.87-4-1.17-8-1.74-12.06Zm85.41,44.11a49.68,49.68,0,1,0,0-88c14.46,11.07,22.48,25.58,22.51,43.91S198.86,176.33,184.33,187.49Zm16.92-55.92H159.08c-.32,1.68-.65,3.34-1,5.11h44.15C201.9,134.93,201.58,133.26,201.25,131.57Zm.95,18.93h-44c.25,1.35.51,2.64.71,3.93.14.93.52,1.29,1.55,1.28,6.48-.06,13,0,19.43,0,6.75,0,13.51,0,20.26,0,.77,0,1.16-.16,1.29-1C201.59,153.33,201.91,152,202.2,150.5Zm-44.46-4.39h44.83v-5H157.74ZM160.42,160c.68,1.62,1.25,3.06,1.92,4.45a1.44,1.44,0,0,0,1.06.65q16.77,0,33.54,0c.31,0,.8-.14.91-.36.71-1.52,1.34-3.08,2.05-4.75Zm-.07-32.77H200c-.69-1.64-1.29-3.15-2-4.61a1.22,1.22,0,0,0-1-.45q-16.89,0-33.77,0c-.31,0-.79.14-.89.36C161.68,124,161.05,125.53,160.35,127.19Zm35.21-9.42c-1.24-1.74-2.31-3.3-3.46-4.81a1.44,1.44,0,0,0-1-.35q-10.91,0-21.8,0c-.33,0-.81.06-1,.28-1.17,1.55-2.27,3.14-3.51,4.89Zm-30.65,51.65c1.2,1.68,2.2,3.17,3.3,4.57a1.86,1.86,0,0,0,1.31.56q10.65,0,21.31,0c.34,0,.83,0,1-.23,1.19-1.56,2.32-3.17,3.59-4.92ZM172.36,108l.2.34h15.21L188,108c-2.44-1.91-4.88-3.83-7.34-5.71a.86.86,0,0,0-.82-.06C177.3,104.09,174.83,106,172.36,108Zm.4,70.9c0,.14,0,.25,0,.28,2.28,1.87,4.54,3.75,6.87,5.55a1.31,1.31,0,0,0,1.21-.14c1.67-1.23,3.29-2.51,4.9-3.81.66-.52,1.24-1.14,2.05-1.88Z"/><path class="cls-1" d="M184.33,187.49c14.53-11.16,22.56-25.71,22.53-44.08s-8.05-32.84-22.51-43.91a49.68,49.68,0,1,1,0,88Z"/><path class="cls-1" d="M201.25,131.57c.33,1.69.65,3.36,1,5.11H158.09c.34-1.77.67-3.43,1-5.11Z"/><path class="cls-1" d="M202.2,150.5c-.29,1.47-.61,2.83-.81,4.2-.13.83-.52,1-1.29,1-6.75,0-13.51,0-20.26,0-6.48,0-13,0-19.43,0-1,0-1.41-.35-1.55-1.28-.2-1.29-.46-2.58-.71-3.93Z"/><path class="cls-1" d="M157.74,146.11v-5h44.83v5Z"/><path class="cls-1" d="M160.42,160H199.9c-.71,1.67-1.34,3.23-2.05,4.75-.11.22-.6.36-.91.36q-16.77,0-33.54,0a1.44,1.44,0,0,1-1.06-.65C161.67,163,161.1,161.58,160.42,160Z"/><path class="cls-1" d="M160.35,127.19c.7-1.66,1.33-3.2,2-4.7.1-.22.58-.36.89-.36q16.89,0,33.77,0a1.22,1.22,0,0,1,1,.45c.69,1.46,1.29,3,2,4.61Z"/><path class="cls-1" d="M195.56,117.77H164.77c1.24-1.75,2.34-3.34,3.51-4.89.16-.22.64-.28,1-.28q10.91,0,21.8,0a1.44,1.44,0,0,1,1,.35C193.25,114.47,194.32,116,195.56,117.77Z"/><path class="cls-1" d="M164.91,169.42h30.51c-1.27,1.75-2.4,3.36-3.59,4.92-.17.21-.66.23-1,.23q-10.67,0-21.31,0a1.86,1.86,0,0,1-1.31-.56C167.11,172.59,166.11,171.1,164.91,169.42Z"/><path class="cls-1" d="M172.36,108c2.47-1.93,4.94-3.86,7.44-5.76a.86.86,0,0,1,.82.06c2.46,1.88,4.9,3.8,7.34,5.71l-.19.33H172.56Z"/><path class="cls-1" d="M172.76,178.85h15.07c-.81.74-1.39,1.36-2.05,1.88-1.61,1.3-3.23,2.58-4.9,3.81a1.31,1.31,0,0,1-1.21.14c-2.33-1.8-4.59-3.68-6.87-5.55C172.76,179.1,172.78,179,172.76,178.85Z"/></g></svg>