<svg xmlns="http://www.w3.org/2000/svg" viewBox="0 0 360 360"><defs><style>.cls-1{fill:#231f20;}.cls-2{fill:#fff;}</style></defs><title>CARD</title><g id="BACKGROUND"><rect class="cls-1" width="360" height="360"/></g><g id="LINE_ONE" data-name="LINE ONE"><path class="cls-2" d="M128.94,234.16h3.12l2.32,3.76,1.08,1.75.84,1.37.8,1.29.64,1h.06v-9.2h2.84v14h-3.12l-2.28-3.7-1.07-1.73c-.29-.46-.57-.92-.85-1.38l-.81-1.32c-.26-.42-.48-.78-.67-1.07h-.06v9.2h-2.84Z"/><path class="cls-2" d="M158.08,248.16H155l-1.12-3.24h-5l-1.12,3.24h-2.94l5-14H153Zm-6.76-10.72c0,.11-.07.26-.14.47s-.14.44-.22.7-.17.54-.27.84l-.29.87c-.23.69-.47,1.43-.74,2.22H153c-.27-.79-.51-1.53-.74-2.22-.15-.4-.26-.73-.35-1s-.17-.51-.24-.75-.14-.46-.21-.67-.11-.36-.14-.47Z"/><path class="cls-2" d="M159.56,234.16h11.1v2.5h-4v11.5h-3v-11.5h-4Z"/><path class="cls-2" d="M180.4,248.44a5.56,5.56,0,0,1-4.26-1.44,5.65,5.65,0,0,1-1.34-4v-8.84h3V243a3.33,3.33,0,0,0,.64,2.11,2.73,2.73,0,0,0,3.92,0A3.33,3.33,0,0,0,183,243v-8.86h3V243a5.65,5.65,0,0,1-1.34,4A5.56,5.56,0,0,1,180.4,248.44Z"/><path class="cls-2" d="M201.68,238.42a3.94,3.94,0,0,1-2.66,4l3.22,5.74h-3.3l-2.9-5.3h-1.86v5.3h-3v-14h5.12a8.89,8.89,0,0,1,2.21.25,4.78,4.78,0,0,1,1.69.77,3.46,3.46,0,0,1,1.08,1.32A4.47,4.47,0,0,1,201.68,238.42Zm-3.08,0A1.51,1.51,0,0,0,198,237a3.91,3.91,0,0,0-2-.39h-1.8v3.78H196a3.48,3.48,0,0,0,2-.45A1.74,1.74,0,0,0,198.6,238.44Z"/><path class="cls-2" d="M218.88,248.16h-3.1l-1.12-3.24h-5l-1.12,3.24h-2.94l5-14h3.22Zm-6.76-10.72c0,.11-.07.26-.14.47s-.14.44-.22.7-.17.54-.27.84-.2.59-.29.87c-.23.69-.47,1.43-.74,2.22h3.38c-.27-.79-.51-1.53-.74-2.22-.15-.4-.26-.73-.35-1s-.17-.51-.24-.75-.14-.46-.21-.67-.11-.36-.14-.47Z"/><path class="cls-2" d="M223,234.16h3v11.5h6.12v2.5H223Z"/></g><g id="LINE_TWO" data-name="LINE TWO"><path class="cls-2" d="M107,252c.49,1.4,1,2.75,1.4,4.06q.41,1.14.66,1.92c.17.52.35,1,.52,1.57s.34,1,.5,1.53.3.93.42,1.32h0L111,261l.51-1.59c.18-.56.37-1.14.57-1.72s.39-1.16.58-1.7c.44-1.31.91-2.66,1.4-4.06h3.08L112,266h-3.06l-5.1-14Z"/><path class="cls-2" d="M121.23,266V252h9.54v2.48h-6.58v3.08h6.12V260h-6.12v3.48h6.68V266Z"/><path class="cls-2" d="M135.51,252h3.12l2.32,3.76c.44.7.8,1.29,1.08,1.75l.84,1.37.8,1.29.64,1h.06V252h2.84v14h-3.12l-2.28-3.7-1.07-1.73c-.29-.46-.57-.92-.85-1.38l-.81-1.32c-.26-.42-.48-.78-.67-1.07h-.06V266h-2.84Z"/><path class="cls-2" d="M151.43,252h11.1v2.5h-4V266h-3v-11.5h-4Z"/><path class="cls-2" d="M166.75,252h3v14h-3Z"/><path class="cls-2" d="M175,252h3v11.5h6.12V266H175Z"/><path class="cls-2" d="M200.51,266h-3.1l-1.12-3.24h-5L190.15,266h-2.94l5-14h3.22Zm-6.76-10.72c0,.1-.07.26-.14.47s-.14.44-.22.7-.17.54-.27.84-.2.59-.29.87c-.23.69-.47,1.43-.74,2.22h3.38c-.27-.79-.51-1.53-.74-2.22-.15-.4-.26-.73-.35-1s-.17-.51-.24-.75-.14-.47-.21-.67-.11-.37-.14-.47Z"/><path class="cls-2" d="M202,252h11.1v2.5h-4V266h-3v-11.5h-4Z"/><path class="cls-2" d="M217.31,252h3v14h-3Z"/><path class="cls-2" d="M225,259a8.79,8.79,0,0,1,.49-3,6.55,6.55,0,0,1,1.38-2.29,5.82,5.82,0,0,1,2.15-1.44,8.09,8.09,0,0,1,5.6,0,5.82,5.82,0,0,1,2.15,1.44,6.55,6.55,0,0,1,1.38,2.29,9.74,9.74,0,0,1,0,6.1,6.64,6.64,0,0,1-1.38,2.29,6.07,6.07,0,0,1-2.15,1.44,8.09,8.09,0,0,1-5.6,0,6.07,6.07,0,0,1-2.15-1.44A6.64,6.64,0,0,1,225.5,262,8.83,8.83,0,0,1,225,259Zm3.1,0a8,8,0,0,0,.23,1.95,4.33,4.33,0,0,0,.69,1.52,3.24,3.24,0,0,0,1.16,1,4,4,0,0,0,3.28,0,3.24,3.24,0,0,0,1.16-1,4.33,4.33,0,0,0,.69-1.52,8,8,0,0,0,.23-1.95,7.9,7.9,0,0,0-.23-1.95,4.25,4.25,0,0,0-.69-1.52,3.14,3.14,0,0,0-1.16-1,4,4,0,0,0-3.28,0,3.14,3.14,0,0,0-1.16,1,4.25,4.25,0,0,0-.69,1.52A7.9,7.9,0,0,0,228.11,259Z"/><path class="cls-2" d="M243.35,252h3.12l2.32,3.76c.44.7.8,1.29,1.08,1.75l.84,1.37.8,1.29.64,1h.06V252h2.84v14h-3.12l-2.28-3.7-1.07-1.73c-.29-.46-.57-.92-.85-1.38l-.81-1.32c-.26-.42-.48-.78-.67-1.07h-.06V266h-2.84Z"/></g><g id="ICON"><path class="cls-2" d="M169.85,154.21H88.28c-2.68,0-4.35-1.06-5-3.14a4.26,4.26,0,0,1,3.87-5.55c.63,0,1.26,0,1.89,0H250.33a17.41,17.41,0,0,0,17.51-14c1.84-8.84-4.65-16.72-13.34-16.21a9.42,9.42,0,0,0-8.66,8.17c-.06.48-.09,1-.14,1.44a4.28,4.28,0,0,1-4.65,4.14,4.38,4.38,0,0,1-4.07-4.74,18.33,18.33,0,0,1,13-17c11.24-3.33,23.79,4.37,26.34,16.16,3.07,14.14-7.5,28.88-21.9,30.5a44.9,44.9,0,0,1-5.06.28Q209.63,154.22,169.85,154.21Z"/><path class="cls-2" d="M149.38,138H101.62a9.47,9.47,0,0,1-2.44-.2,4.27,4.27,0,0,1-3.05-4.69,4.35,4.35,0,0,1,4-3.78c.58-.05,1.16,0,1.74,0h94.2a17.51,17.51,0,0,0,17.48-14.45A13.3,13.3,0,0,0,201.2,98.61,9.73,9.73,0,0,0,191,109c.32,3.42,3.06,5.9,6.78,6.14a4.4,4.4,0,0,1,4.41,4.45,4.31,4.31,0,0,1-4.7,4.24,16.59,16.59,0,0,1-3.72-.51c-9.88-2.67-14.42-13.67-9.6-23.21,4.7-9.29,15.71-12.78,25.66-8.15,10.62,4.94,15.33,17,11.17,28.6A26.07,26.07,0,0,1,196.41,138c-15.68.06-31.36,0-47,0Z"/><path class="cls-2" d="M167.7,164.14h55.73c12.16,0,21.1,12.43,16.73,23.35-2.38,5.95-7,9.08-13.34,9.62a4.36,4.36,0,1,1-.71-8.69c5.17-.64,7.66-4.78,5.8-9.66a9.26,9.26,0,0,0-8.39-5.91c-.43,0-.87,0-1.3,0H111.48c-2.81,0-4.49-1.16-5-3.43a4.32,4.32,0,0,1,3.88-5.25c.48,0,1,0,1.45,0Z"/></g></svg>