<svg xmlns="http://www.w3.org/2000/svg" viewBox="0 0 360 360"><defs><style>.cls-1{fill:#fff;}</style></defs><title>CARD</title><g id="Layer_6" data-name="Layer 6"><rect width="360" height="360"/></g><g id="LINE_ONE" data-name="LINE ONE"><path class="cls-1" d="M108.26,241.16a9.12,9.12,0,0,1,.48-3.07,6.47,6.47,0,0,1,1.37-2.29,5.75,5.75,0,0,1,2.16-1.43,7.82,7.82,0,0,1,2.85-.49,6.83,6.83,0,0,1,3.76,1,5.35,5.35,0,0,1,2.16,3l-2.92,1A3.92,3.92,0,0,0,117,237a2.86,2.86,0,0,0-2-.65,3.51,3.51,0,0,0-1.62.36,3.26,3.26,0,0,0-1.16,1,4.28,4.28,0,0,0-.69,1.51,7.77,7.77,0,0,0-.23,1.92,7.63,7.63,0,0,0,.23,1.91,4.45,4.45,0,0,0,.69,1.51,3.19,3.19,0,0,0,1.16,1,3.54,3.54,0,0,0,1.64.36,2.94,2.94,0,0,0,1.89-.58,3.53,3.53,0,0,0,1.11-1.76l2.88,1a6,6,0,0,1-2.16,2.8,6.42,6.42,0,0,1-3.76,1,7.7,7.7,0,0,1-2.79-.49,5.94,5.94,0,0,1-2.14-1.42,6.3,6.3,0,0,1-1.37-2.29A9.22,9.22,0,0,1,108.26,241.16Z"/><path class="cls-1" d="M124.86,241.16a8.83,8.83,0,0,1,.49-3,6.64,6.64,0,0,1,1.38-2.29,5.82,5.82,0,0,1,2.15-1.44,8.09,8.09,0,0,1,5.6,0,5.82,5.82,0,0,1,2.15,1.44,6.64,6.64,0,0,1,1.38,2.29,9.74,9.74,0,0,1,0,6.1,6.64,6.64,0,0,1-1.38,2.29,5.82,5.82,0,0,1-2.15,1.44,8.09,8.09,0,0,1-5.6,0,5.82,5.82,0,0,1-2.15-1.44,6.64,6.64,0,0,1-1.38-2.29A8.83,8.83,0,0,1,124.86,241.16Zm3.1,0a7.9,7.9,0,0,0,.23,2,4.33,4.33,0,0,0,.69,1.52,3.14,3.14,0,0,0,1.16,1,4,4,0,0,0,3.28,0,3.14,3.14,0,0,0,1.16-1,4.33,4.33,0,0,0,.69-1.52,8.38,8.38,0,0,0,0-3.9,4.33,4.33,0,0,0-.69-1.52,3.14,3.14,0,0,0-1.16-1,4,4,0,0,0-3.28,0,3.14,3.14,0,0,0-1.16,1,4.33,4.33,0,0,0-.69,1.52A7.9,7.9,0,0,0,128,241.16Z"/><path class="cls-1" d="M149.36,248.16c-.2-.55-.45-1.26-.75-2.15l-.93-2.77q-.48-1.44-.93-2.82c-.3-.92-.54-1.69-.73-2.32H146v10.06H143.2v-14h4.2c.57,1.71,1.09,3.27,1.56,4.7q.42,1.27.69,2.07c.18.53.35,1,.5,1.51s.29.91.42,1.3.22.67.27.84l.26-.84c.12-.39.26-.84.43-1.37s.35-1.09.54-1.7.39-1.21.59-1.81c.45-1.43,1-3,1.5-4.7h4.18v14h-2.76V238.1h-.06l-.48,1.49c-.19.58-.39,1.2-.61,1.85s-.44,1.32-.67,2-.44,1.31-.64,1.92-.38,1.16-.55,1.65-.3.88-.41,1.16Z"/><path class="cls-1" d="M169.78,248.16c-.2-.55-.45-1.26-.75-2.15l-.93-2.77q-.48-1.44-.93-2.82c-.3-.92-.54-1.69-.73-2.32h-.06v10.06h-2.76v-14h4.2c.57,1.71,1.09,3.27,1.56,4.7q.42,1.27.69,2.07c.18.53.35,1,.5,1.51s.29.91.42,1.3.22.67.27.84l.26-.84c.12-.39.26-.84.43-1.37s.35-1.09.54-1.7.39-1.21.59-1.81c.45-1.43.95-3,1.5-4.7h4.18v14H176V238.1h-.06l-.48,1.49c-.19.58-.39,1.2-.61,1.85s-.44,1.32-.67,2-.44,1.31-.64,1.92-.38,1.16-.55,1.65-.3.88-.41,1.16Z"/><path class="cls-1" d="M189.56,248.44A5.56,5.56,0,0,1,185.3,247a5.65,5.65,0,0,1-1.34-4v-8.84h3V243a3.33,3.33,0,0,0,.64,2.11,2.73,2.73,0,0,0,3.92,0,3.33,3.33,0,0,0,.64-2.11v-8.86h3V243a5.65,5.65,0,0,1-1.34,4A5.59,5.59,0,0,1,189.56,248.44Z"/><path class="cls-1" d="M200.36,234.16h3.12l2.32,3.76,1.08,1.75.84,1.37.8,1.29.64,1h.06v-9.2h2.84v14h-3.12l-2.28-3.7-1.07-1.73c-.29-.46-.57-.92-.85-1.38l-.81-1.32c-.26-.42-.48-.78-.67-1.07h-.06v9.2h-2.84Z"/><path class="cls-1" d="M217.34,234.16h3v14h-3Z"/><path class="cls-1" d="M224.56,234.16h11.1v2.5h-4v11.5h-3v-11.5h-4Z"/><path class="cls-1" d="M244.12,242.3l-5.3-8.14h3.44l3.42,5.36,3.4-5.36h3.34l-5.3,8.14v5.86h-3Z"/><path class="cls-1" d="M101.72,265.94v-14h9.54v2.49h-6.58v3.07h6.12V260h-6.12v3.48h6.68v2.48Z"/><path class="cls-1" d="M116,251.94h3.12c.81,1.33,1.59,2.58,2.32,3.76l1.08,1.75.84,1.37.8,1.29c.25.41.47.75.64,1h.06v-9.21h2.84v14h-3.12c-.8-1.29-1.56-2.52-2.28-3.7l-1.07-1.72c-.29-.46-.57-.92-.85-1.38l-.81-1.33-.67-1.07h-.06v9.2H116Z"/><path class="cls-1" d="M138.7,258.19h6.44v7.75h-2.72V264.5a3.8,3.8,0,0,1-1.36,1.23,4.83,4.83,0,0,1-2.34.5,6.29,6.29,0,0,1-2.75-.58,5.7,5.7,0,0,1-2-1.54,6.79,6.79,0,0,1-1.19-2.3,9.63,9.63,0,0,1-.4-2.83,9,9,0,0,1,.47-3,6.53,6.53,0,0,1,1.37-2.31,6.31,6.31,0,0,1,2.19-1.51,7.73,7.73,0,0,1,2.93-.54,6.75,6.75,0,0,1,3.62.94,5.65,5.65,0,0,1,2.26,2.75l-2.78,1.13a3.64,3.64,0,0,0-1.22-1.73,3.6,3.6,0,0,0-4.72.65,5.7,5.7,0,0,0-1,3.68c0,3.12,1.23,4.69,3.7,4.69a4,4,0,0,0,1.08-.16,3,3,0,0,0,1-.46,2.31,2.31,0,0,0,.73-.79,2.22,2.22,0,0,0,.28-1.16v-.64H138.7Z"/><path class="cls-1" d="M162.52,265.94h-3.1l-1.12-3.24h-5l-1.12,3.24h-2.94l5-14h3.22Zm-6.76-10.71c0,.1-.07.26-.14.46s-.14.45-.22.71-.17.54-.27.83-.2.59-.29.88c-.23.69-.47,1.43-.74,2.21h3.38c-.27-.78-.51-1.52-.74-2.21-.15-.41-.26-.74-.35-1s-.17-.5-.24-.75-.14-.46-.21-.67-.11-.36-.14-.46Z"/><path class="cls-1" d="M171.68,258.19h6.44v7.75H175.4V264.5a3.8,3.8,0,0,1-1.36,1.23,4.83,4.83,0,0,1-2.34.5,6.29,6.29,0,0,1-2.75-.58,5.7,5.7,0,0,1-2-1.54,6.79,6.79,0,0,1-1.19-2.3,9.63,9.63,0,0,1-.4-2.83,9,9,0,0,1,.47-3,6.53,6.53,0,0,1,1.37-2.31,6.31,6.31,0,0,1,2.19-1.51,7.73,7.73,0,0,1,2.93-.54,6.75,6.75,0,0,1,3.62.94,5.65,5.65,0,0,1,2.26,2.75l-2.78,1.13a3.64,3.64,0,0,0-1.22-1.73,3.6,3.6,0,0,0-4.72.65,5.7,5.7,0,0,0-1,3.68c0,3.12,1.23,4.69,3.7,4.69a4,4,0,0,0,1.08-.16,3,3,0,0,0,1-.46,2.31,2.31,0,0,0,.73-.79,2.22,2.22,0,0,0,.28-1.16v-.64h-3.58Z"/><path class="cls-1" d="M183.34,265.94v-14h9.54v2.49H186.3v3.07h6.12V260H186.3v3.48H193v2.48Z"/><path class="cls-1" d="M203.78,265.94c-.2-.54-.45-1.26-.75-2.15s-.61-1.81-.93-2.77-.63-1.9-.93-2.82-.54-1.69-.73-2.31h-.06v10.05h-2.76v-14h4.2q.85,2.56,1.56,4.71c.28.85.51,1.54.69,2.06s.35,1,.5,1.52.29.91.42,1.29.22.67.27.84l.26-.84c.12-.38.26-.84.43-1.37s.35-1.09.54-1.7.39-1.21.59-1.8q.67-2.14,1.5-4.71h4.18v14H210V255.89h-.06l-.48,1.48c-.19.58-.39,1.2-.61,1.86l-.67,2c-.23.68-.44,1.32-.64,1.93s-.38,1.15-.55,1.64-.3.88-.41,1.16Z"/><path class="cls-1" d="M218,265.94v-14h9.54v2.49H221v3.07h6.12V260H221v3.48h6.68v2.48Z"/><path class="cls-1" d="M232.32,251.94h3.12c.81,1.33,1.59,2.58,2.32,3.76l1.08,1.75.84,1.37.8,1.29c.25.41.47.75.64,1h.06v-9.21H244v14H240.9c-.8-1.29-1.56-2.52-2.28-3.7l-1.07-1.72c-.29-.46-.57-.92-.85-1.38l-.81-1.33-.67-1.07h-.06v9.2h-2.84Z"/><path class="cls-1" d="M248.24,251.94h11.1v2.5h-4v11.5h-3v-11.5h-4Z"/></g><g id="ICON"><path class="cls-1" d="M180.09,104.64c1.19-1.24,2.38-2.45,3.55-3.68a33.53,33.53,0,0,1,18.51-10.11A33.85,33.85,0,0,1,241.89,119,33.14,33.14,0,0,1,239.37,138a36,36,0,0,1-8.15,11.34c-3.57,3.47-7.05,7-10.57,10.53-1.69,1.69-3.39,3.37-5.05,5.08a2.59,2.59,0,0,0-.66,1.2c-.88,4.29-3.59,6.68-8,7a1.55,1.55,0,0,0-.23.07,8.4,8.4,0,0,1-8.35,8.39c-1.11,5.73-3.1,7.73-8.34,8.33-.1.6-.16,1.22-.29,1.82a8.25,8.25,0,0,1-10.84,6,15.85,15.85,0,0,1-5.9-4.22q-5.36-5.38-10.72-10.75l-13.69-13.67c-5.54-5.55-11.11-11.07-16.62-16.65a73.2,73.2,0,0,1-7.77-8.36,33.89,33.89,0,0,1,7.52-47.44,33.09,33.09,0,0,1,22.48-6.31,32.54,32.54,0,0,1,19.72,8.31C176,100.53,177.92,102.54,180.09,104.64Zm-13.45,58,2.12,2.09,12.9,12.9c1.85,1.85,3.69,3.71,5.58,5.51a3.56,3.56,0,0,0,4.52.61,3.06,3.06,0,0,0,.34-4.35,53.74,53.74,0,0,0-3.72-4c-3.88-3.91-7.79-7.81-11.69-11.7-1.85-1.84-3.72-3.66-5.6-5.51l3.91-3.88a3.79,3.79,0,0,1,.38.32c2.21,2.21,4.4,4.43,6.61,6.64,4,4,8.06,8.08,12.14,12.08a14.93,14.93,0,0,0,3,2.29,2.55,2.55,0,0,0,3.15-.43,2.82,2.82,0,0,0,.69-3.06,8,8,0,0,0-2.44-3.32l-13-13c-2-2-4-4-6-6l4-4,9.2,9.33q5.25,5.28,10.5,10.56a5.71,5.71,0,0,0,3.12,1.8,2.71,2.71,0,0,0,3.22-2.65,4.45,4.45,0,0,0-1.48-3.25c-3.73-3.78-7.5-7.53-11.26-11.29l-14-14c-1.32-1.32-2.61-2.67-3.92-4a4.16,4.16,0,0,0-.38.3L167,144.2a9.65,9.65,0,0,1-7,3.08,9.53,9.53,0,0,1-8.6-5.82,8.86,8.86,0,0,1,1.89-10.08c2.94-3.15,6.08-6.13,9.13-9.18,3.66-3.66,7.3-7.32,11-11,.89-.9,1.83-1.75,2.66-2.53-1.84-1.91-3.44-3.77-5.24-5.4-7.35-6.63-15.95-8.87-25.6-6.81a27,27,0,0,0-15.58,9.61,27.61,27.61,0,0,0-6.39,16.62,26.8,26.8,0,0,0,5.78,18.6,118.26,118.26,0,0,0,8.38,8.83c4.64,4.68,9.33,9.31,14,14s9.22,9.26,13.84,13.88c4,4,8,8.1,12.13,12.1a15,15,0,0,0,3.08,2.35,2.55,2.55,0,0,0,3.09-.42,2.66,2.66,0,0,0,.72-3,6.43,6.43,0,0,0-1.11-2c-1.12-1.24-2.35-2.39-3.53-3.58q-6.57-6.57-13.15-13.15c-1.23-1.24-2.48-2.46-3.69-3.66ZM184,129.81l29.52,29.55c1.57-1.61,3.19-3.28,4.83-4.93q4.83-4.87,9.69-9.71a29.85,29.85,0,0,0,4.84-6.13A28.1,28.1,0,0,0,236.68,122a28.25,28.25,0,0,0-25.29-26,28.07,28.07,0,0,0-18.86,4.64c-2.84,1.86-5.08,4.37-7.45,6.73-4.68,4.65-9.32,9.33-14,14s-9.1,9.06-13.63,13.61a3.72,3.72,0,0,0-1.1,4.19,3.9,3.9,0,0,0,3.52,2.67,4.19,4.19,0,0,0,3.3-1.51l11.68-11.69c2.29-2.3,4.56-4.6,6.76-6.83,11.54,8.12,23.21,9.6,35.29,1.4l3.2,4.39C208.47,135.75,196.44,135.77,184,129.81Z"/><path d="M166.64,162.68l-3.86,3.94c1.21,1.2,2.46,2.42,3.69,3.66q6.59,6.57,13.15,13.15c1.18,1.19,2.41,2.34,3.53,3.58a6.43,6.43,0,0,1,1.11,2,2.66,2.66,0,0,1-.72,3,2.55,2.55,0,0,1-3.09.42,15,15,0,0,1-3.08-2.35c-4.08-4-8.1-8.06-12.13-12.1q-6.93-6.93-13.84-13.88c-4.66-4.66-9.35-9.29-14-14a118.26,118.26,0,0,1-8.38-8.83,26.8,26.8,0,0,1-5.78-18.6,27.61,27.61,0,0,1,6.39-16.62,27,27,0,0,1,15.58-9.61c9.65-2.06,18.25.18,25.6,6.81,1.8,1.63,3.4,3.49,5.24,5.4-.83.78-1.77,1.63-2.66,2.53-3.67,3.65-7.31,7.31-11,11-3.05,3-6.19,6-9.13,9.18a8.86,8.86,0,0,0-1.89,10.08,9.53,9.53,0,0,0,8.6,5.82,9.65,9.65,0,0,0,7-3.08l11.51-11.51a4.16,4.16,0,0,1,.38-.3c1.31,1.34,2.6,2.69,3.92,4l14,14c3.76,3.76,7.53,7.51,11.26,11.29a4.45,4.45,0,0,1,1.48,3.25,2.71,2.71,0,0,1-3.22,2.65,5.71,5.71,0,0,1-3.12-1.8q-5.26-5.26-10.5-10.56l-9.2-9.33-4,4c2,1.94,4,3.94,6,6l13,13a8,8,0,0,1,2.44,3.32,2.82,2.82,0,0,1-.69,3.06,2.55,2.55,0,0,1-3.15.43,14.93,14.93,0,0,1-3-2.29c-4.08-4-8.1-8-12.14-12.08-2.21-2.21-4.4-4.43-6.61-6.64a3.79,3.79,0,0,0-.38-.32l-3.91,3.88c1.88,1.85,3.75,3.67,5.6,5.51,3.9,3.89,7.81,7.79,11.69,11.7a53.74,53.74,0,0,1,3.72,4,3.06,3.06,0,0,1-.34,4.35,3.56,3.56,0,0,1-4.52-.61c-1.89-1.8-3.73-3.66-5.58-5.51l-12.9-12.9Z"/><path d="M184,129.81c12.46,6,24.49,5.94,36.14-2.29l-3.2-4.39c-12.08,8.2-23.75,6.72-35.29-1.4-2.2,2.23-4.47,4.53-6.76,6.83l-11.68,11.69a4.19,4.19,0,0,1-3.3,1.51,3.9,3.9,0,0,1-3.52-2.67,3.72,3.72,0,0,1,1.1-4.19c4.53-4.55,9.09-9.07,13.63-13.61s9.3-9.34,14-14c2.37-2.36,4.61-4.87,7.45-6.73a28.07,28.07,0,0,1,18.86-4.64,28.25,28.25,0,0,1,25.29,26,28.1,28.1,0,0,1-3.82,16.64,29.85,29.85,0,0,1-4.84,6.13q-4.86,4.84-9.69,9.71c-1.64,1.65-3.26,3.32-4.83,4.93Z"/></g></svg>