<svg xmlns="http://www.w3.org/2000/svg" viewBox="0 0 360 360"><defs><style>.cls-1{fill:#256887;}.cls-2{fill:#fff;}.cls-3,.cls-4{fill:none;stroke:#256887;stroke-miterlimit:10;}.cls-3{stroke-width:3px;}.cls-4{stroke-linecap:round;stroke-width:5px;}</style></defs><title>CARD</title><g id="BACKGROUND"><rect class="cls-1" y="336.06" width="360" height="23.94"/><path class="cls-2" d="M290.57,346.3a.8.8,0,0,0,.47.77,5.38,5.38,0,0,0,1.49.4,4.79,4.79,0,0,1,2.2.83,2.09,2.09,0,0,1,.7,1.72,2.3,2.3,0,0,1-.25,1.09,2.43,2.43,0,0,1-.7.83,3.25,3.25,0,0,1-1.07.53,4.91,4.91,0,0,1-1.36.19,4.53,4.53,0,0,1-1.43-.21,3.67,3.67,0,0,1-1.08-.56,2.6,2.6,0,0,1-.7-.82,2.24,2.24,0,0,1-.27-1l1.8-.29a1.55,1.55,0,0,0,.47,1,1.71,1.71,0,0,0,1.21.39,2.93,2.93,0,0,0,.61-.06,1.52,1.52,0,0,0,.49-.19,1.1,1.1,0,0,0,.33-.35.94.94,0,0,0,.12-.49.81.81,0,0,0-.39-.72,3.92,3.92,0,0,0-1.38-.41,10,10,0,0,1-1.22-.27,3.42,3.42,0,0,1-1-.46,2.2,2.2,0,0,1-.65-.74,2.32,2.32,0,0,1-.23-1.07,2.38,2.38,0,0,1,.24-1.1,2.13,2.13,0,0,1,.67-.79,3,3,0,0,1,1-.47,5.12,5.12,0,0,1,2.5,0,3.49,3.49,0,0,1,1,.44,2.82,2.82,0,0,1,.73.73,2.72,2.72,0,0,1,.39,1l-1.82.4a1.51,1.51,0,0,0-.49-.91,1.58,1.58,0,0,0-1.07-.34,1.74,1.74,0,0,0-1,.25A.82.82,0,0,0,290.57,346.3Z"/><path class="cls-2" d="M297.29,344.09H304v1.5h-2.42v6.9h-1.81v-6.9h-2.43Z"/><path class="cls-2" d="M309.8,352.66a2.94,2.94,0,0,1-3.36-3.27v-5.3h1.8v5.31a2,2,0,0,0,.38,1.27,1.41,1.41,0,0,0,1.18.5,1.39,1.39,0,0,0,1.17-.5,2,2,0,0,0,.39-1.27v-5.31h1.8v5.3a3,3,0,0,1-3.36,3.27Z"/><path class="cls-2" d="M316.28,344.09h3.13a5,5,0,0,1,1.73.28,3.44,3.44,0,0,1,1.29.82,3.55,3.55,0,0,1,.81,1.31,5.67,5.67,0,0,1,0,3.58,3.63,3.63,0,0,1-.81,1.31,3.44,3.44,0,0,1-1.29.82,5.23,5.23,0,0,1-1.73.28h-3.13Zm5.38,4.2a4.23,4.23,0,0,0-.13-1.11,2.76,2.76,0,0,0-.42-.86,1.87,1.87,0,0,0-.72-.55,2.46,2.46,0,0,0-1-.19h-1.27V351h1.27a2.46,2.46,0,0,0,1-.19,1.87,1.87,0,0,0,.72-.55,2.76,2.76,0,0,0,.42-.86A4.23,4.23,0,0,0,321.66,348.29Z"/><path class="cls-2" d="M326.34,352.49v-8.4h5.73v1.49h-3.95v1.84h3.67v1.49h-3.67V351h4v1.49Z"/><path class="cls-2" d="M334.91,344.09h1.87l1.4,2.25.64,1.05.51.83.48.77.38.62h0v-5.52h1.7v8.4h-1.87l-1.37-2.22c-.25-.42-.47-.76-.64-1l-.51-.83-.49-.79-.4-.64h0v5.52h-1.71Z"/><path class="cls-2" d="M344.46,344.09h6.66v1.5H348.7v6.9h-1.81v-6.9h-2.43Z"/></g><g id="LINE_ONE" data-name="LINE ONE"><path class="cls-1" d="M59.16,234.16h5.22a8.13,8.13,0,0,1,2.88.47A5.73,5.73,0,0,1,69.42,236a5.79,5.79,0,0,1,1.35,2.19,9.68,9.68,0,0,1,0,6,5.66,5.66,0,0,1-3.51,3.55,8.36,8.36,0,0,1-2.88.47H59.16Zm9,7a6.65,6.65,0,0,0-.23-1.85,4,4,0,0,0-.7-1.43A3,3,0,0,0,66,237a4.1,4.1,0,0,0-1.72-.32H62.18v9H64.3a4.26,4.26,0,0,0,1.72-.32,3.11,3.11,0,0,0,1.19-.92,4.07,4.07,0,0,0,.7-1.43A6.7,6.7,0,0,0,68.14,241.16Z"/><path class="cls-1" d="M75.94,234.16h3v14h-3Z"/><path class="cls-1" d="M86.28,234.16c.49,1.4,1,2.75,1.4,4.06q.41,1.14.66,1.92c.17.52.35,1,.52,1.57s.34,1,.5,1.53.3.93.42,1.32h0l.42-1.33.51-1.59c.18-.56.37-1.14.57-1.72s.39-1.16.58-1.7c.44-1.31.91-2.66,1.4-4.06h3.08l-5.16,14H88.16l-5.1-14Z"/><path class="cls-1" d="M100.5,248.16v-14H110v2.48h-6.58v3.08h6.12v2.48h-6.12v3.48h6.68v2.48Z"/><path class="cls-1" d="M125.26,238.42a4.26,4.26,0,0,1-.71,2.54,4.21,4.21,0,0,1-2,1.46l3.22,5.74h-3.3l-2.9-5.3h-1.86v5.3h-3v-14h5.12a8.89,8.89,0,0,1,2.21.25,4.61,4.61,0,0,1,1.69.77,3.32,3.32,0,0,1,1.08,1.32A4.47,4.47,0,0,1,125.26,238.42Zm-3.08,0a1.51,1.51,0,0,0-.65-1.41,3.91,3.91,0,0,0-2-.39h-1.8v3.78h1.8a3.48,3.48,0,0,0,2-.45A1.74,1.74,0,0,0,122.18,238.44Z"/><path class="cls-1" d="M133,237.84a1.34,1.34,0,0,0,.78,1.29,9.48,9.48,0,0,0,2.48.67,7.86,7.86,0,0,1,3.67,1.38,3.48,3.48,0,0,1,1.17,2.86,3.92,3.92,0,0,1-.42,1.83,4.07,4.07,0,0,1-1.17,1.38,5.65,5.65,0,0,1-1.79.88,8.12,8.12,0,0,1-2.26.31,7.68,7.68,0,0,1-2.38-.35,6.1,6.1,0,0,1-1.8-.93,4.41,4.41,0,0,1-1.16-1.36,3.81,3.81,0,0,1-.46-1.62l3-.48a2.58,2.58,0,0,0,.79,1.67,2.84,2.84,0,0,0,2,.65,5.32,5.32,0,0,0,1-.1,2.52,2.52,0,0,0,.82-.33,1.86,1.86,0,0,0,.55-.57,1.63,1.63,0,0,0,.2-.82,1.35,1.35,0,0,0-.65-1.2,6.31,6.31,0,0,0-2.29-.68,18.1,18.1,0,0,1-2-.46,5.72,5.72,0,0,1-1.63-.77,3.6,3.6,0,0,1-1.08-1.22,3.79,3.79,0,0,1-.39-1.79,3.93,3.93,0,0,1,.4-1.84,3.72,3.72,0,0,1,1.12-1.31,4.84,4.84,0,0,1,1.7-.79,8,8,0,0,1,2.14-.26,7.71,7.71,0,0,1,2,.25,5.28,5.28,0,0,1,1.67.74,4.23,4.23,0,0,1,1.21,1.21,4.42,4.42,0,0,1,.66,1.64l-3,.66a2.45,2.45,0,0,0-.82-1.52,2.62,2.62,0,0,0-1.78-.56,2.78,2.78,0,0,0-1.69.42A1.33,1.33,0,0,0,133,237.84Z"/><path class="cls-1" d="M145.78,234.16h3v14h-3Z"/><path class="cls-1" d="M153,234.16h11.1v2.5h-4v11.5h-3v-11.5h-4Z"/><path class="cls-1" d="M172.56,242.3l-5.3-8.14h3.44l3.42,5.36,3.4-5.36h3.34l-5.3,8.14v5.86h-3Z"/><path class="cls-1" d="M185.94,247.34a5,5,0,0,1-.12,1,3.14,3.14,0,0,1-.46,1.09,3.73,3.73,0,0,1-.93.93,3.46,3.46,0,0,1-1.55.53l-.46-1.24a1.78,1.78,0,0,0,.53-.09,2,2,0,0,0,.55-.27,2,2,0,0,0,.44-.42.88.88,0,0,0,.18-.54v-.12a1.21,1.21,0,0,1-.38.06,1.58,1.58,0,0,1-1.13-.49,1.67,1.67,0,0,1-.49-1.23,1.86,1.86,0,0,1,.1-.61,1.45,1.45,0,0,1,.32-.55,1.67,1.67,0,0,1,.56-.4,1.81,1.81,0,0,1,.8-.16,1.94,1.94,0,0,1,.93.21,1.7,1.7,0,0,1,.63.56,2.54,2.54,0,0,1,.36.8A3.59,3.59,0,0,1,185.94,247.34Z"/><path class="cls-1" d="M197.56,248.16v-14h9.54v2.48h-6.58v3.08h6.12v2.48h-6.12v3.48h6.68v2.48Z"/><path class="cls-1" d="M220.86,247.94a8,8,0,0,1-5.58,0,6.07,6.07,0,0,1-2.15-1.44,6.64,6.64,0,0,1-1.38-2.29,9.74,9.74,0,0,1,0-6.1,6.55,6.55,0,0,1,1.38-2.29,5.82,5.82,0,0,1,2.15-1.44,8.09,8.09,0,0,1,5.6,0,5.82,5.82,0,0,1,2.15,1.44,6.55,6.55,0,0,1,1.38,2.29,9.75,9.75,0,0,1-.06,6.28,6.27,6.27,0,0,1-1.57,2.35l1.28,1.4-1.68,1.48Zm-6.5-6.78a8,8,0,0,0,.23,2,4.33,4.33,0,0,0,.69,1.52,3.24,3.24,0,0,0,1.16,1,3.67,3.67,0,0,0,1.64.35,4.77,4.77,0,0,0,.9-.1l-1.3-1.44,1.64-1.48,1.54,1.7a4.35,4.35,0,0,0,.71-1.52,8.42,8.42,0,0,0,0-3.91,4.25,4.25,0,0,0-.69-1.52,3.14,3.14,0,0,0-1.16-1,4,4,0,0,0-3.28,0,3.14,3.14,0,0,0-1.16,1,4.25,4.25,0,0,0-.69,1.52A7.9,7.9,0,0,0,214.36,241.16Z"/><path class="cls-1" d="M235.12,248.44a5.56,5.56,0,0,1-4.26-1.44,5.67,5.67,0,0,1-1.34-4v-8.84h3V243a3.35,3.35,0,0,0,.64,2.11,2.73,2.73,0,0,0,3.92,0,3.35,3.35,0,0,0,.64-2.11v-8.86h3V243a5.67,5.67,0,0,1-1.34,4A5.56,5.56,0,0,1,235.12,248.44Z"/><path class="cls-1" d="M245.92,234.16h3v14h-3Z"/><path class="cls-1" d="M253.14,234.16h11.1v2.5h-4v11.5h-3v-11.5h-4Z"/><path class="cls-1" d="M272.7,242.3l-5.3-8.14h3.44l3.42,5.36,3.4-5.36H281l-5.3,8.14v5.86h-3Z"/><path class="cls-1" d="M291.28,240.5h3.86v-3.88h2.28v3.88h3.86v2.28h-3.86v4h-2.28v-4h-3.86Z"/></g><g id="LINE_TWO" data-name="LINE TWO"><path class="cls-1" d="M117.79,251.94h3v14h-3Z"/><path class="cls-1" d="M126.07,251.94h3.12l2.32,3.76,1.08,1.75.84,1.37.8,1.29.64,1h.06v-9.2h2.84v14h-3.12c-.8-1.29-1.56-2.52-2.28-3.7l-1.07-1.73c-.29-.46-.57-.92-.85-1.38l-.81-1.32-.67-1.07h-.06v9.2h-2.84Z"/><path class="cls-1" d="M142.47,258.94a9.16,9.16,0,0,1,.48-3.07,6.47,6.47,0,0,1,1.37-2.29,5.88,5.88,0,0,1,2.16-1.43,8,8,0,0,1,2.85-.49,6.83,6.83,0,0,1,3.76,1,5.39,5.39,0,0,1,2.16,3l-2.92,1a4,4,0,0,0-1.08-1.83,2.86,2.86,0,0,0-2-.65,3.51,3.51,0,0,0-1.62.36,3.26,3.26,0,0,0-1.16,1,4.37,4.37,0,0,0-.69,1.51,7.77,7.77,0,0,0-.23,1.92,7.57,7.57,0,0,0,.23,1.91,4.37,4.37,0,0,0,.69,1.51,3.19,3.19,0,0,0,1.16,1,3.54,3.54,0,0,0,1.64.36,2.94,2.94,0,0,0,1.89-.58,3.48,3.48,0,0,0,1.11-1.76l2.88,1a6,6,0,0,1-2.16,2.8,6.42,6.42,0,0,1-3.76,1,7.5,7.5,0,0,1-2.79-.49,5.82,5.82,0,0,1-2.14-1.42A6.3,6.3,0,0,1,143,262,9.18,9.18,0,0,1,142.47,258.94Z"/><path class="cls-1" d="M159.65,251.94h3v11.5h6.12v2.5h-9.12Z"/><path class="cls-1" d="M178.19,266.22a5.56,5.56,0,0,1-4.26-1.44,5.65,5.65,0,0,1-1.34-4v-8.84h3v8.86a3.32,3.32,0,0,0,.64,2.11,2.73,2.73,0,0,0,3.92,0,3.32,3.32,0,0,0,.64-2.11v-8.86h3v8.84a5.65,5.65,0,0,1-1.34,4A5.56,5.56,0,0,1,178.19,266.22Z"/><path class="cls-1" d="M191.71,255.62a1.34,1.34,0,0,0,.78,1.29,9.1,9.1,0,0,0,2.48.67,7.86,7.86,0,0,1,3.67,1.38,3.49,3.49,0,0,1,1.17,2.86,3.92,3.92,0,0,1-.42,1.83,4.07,4.07,0,0,1-1.17,1.38,5.44,5.44,0,0,1-1.79.88,7.77,7.77,0,0,1-2.26.31,7.39,7.39,0,0,1-2.38-.35,5.66,5.66,0,0,1-1.8-.93,4.3,4.3,0,0,1-1.16-1.36,3.81,3.81,0,0,1-.46-1.62l3-.48a2.56,2.56,0,0,0,.79,1.67,2.8,2.8,0,0,0,2,.65,4.61,4.61,0,0,0,1-.1,2.14,2.14,0,0,0,.82-.33,1.66,1.66,0,0,0,.55-.57,1.61,1.61,0,0,0,.2-.82,1.35,1.35,0,0,0-.65-1.2,6.52,6.52,0,0,0-2.29-.68,16.15,16.15,0,0,1-2-.46,5.23,5.23,0,0,1-1.63-.77,3.42,3.42,0,0,1-1.08-1.22,3.73,3.73,0,0,1-.39-1.79,4,4,0,0,1,.4-1.84,3.81,3.81,0,0,1,1.12-1.31,5.22,5.22,0,0,1,1.7-.79,8.48,8.48,0,0,1,2.14-.26,8.16,8.16,0,0,1,2,.25,5.77,5.77,0,0,1,1.67.74,4.36,4.36,0,0,1,1.21,1.21,4.49,4.49,0,0,1,.66,1.64l-3,.66a2.48,2.48,0,0,0-.82-1.52,2.67,2.67,0,0,0-1.78-.56,2.78,2.78,0,0,0-1.69.42A1.34,1.34,0,0,0,191.71,255.62Z"/><path class="cls-1" d="M204.47,251.94h3v14h-3Z"/><path class="cls-1" d="M212.17,258.94a8.83,8.83,0,0,1,.49-3.05A6.64,6.64,0,0,1,214,253.6a6.07,6.07,0,0,1,2.15-1.44,8.09,8.09,0,0,1,5.6,0,6.07,6.07,0,0,1,2.15,1.44,6.64,6.64,0,0,1,1.38,2.29,9.74,9.74,0,0,1,0,6.1,6.55,6.55,0,0,1-1.38,2.29,5.82,5.82,0,0,1-2.15,1.44,8.09,8.09,0,0,1-5.6,0,5.82,5.82,0,0,1-2.15-1.44,6.55,6.55,0,0,1-1.38-2.29A8.79,8.79,0,0,1,212.17,258.94Zm3.1,0a7.9,7.9,0,0,0,.23,1.95,4.25,4.25,0,0,0,.69,1.52,3.14,3.14,0,0,0,1.16,1,4,4,0,0,0,3.28,0,3.14,3.14,0,0,0,1.16-1,4.25,4.25,0,0,0,.69-1.52,7.9,7.9,0,0,0,.23-1.95,8,8,0,0,0-.23-1.95,4.33,4.33,0,0,0-.69-1.52,3.24,3.24,0,0,0-1.16-1,4,4,0,0,0-3.28,0,3.24,3.24,0,0,0-1.16,1,4.33,4.33,0,0,0-.69,1.52A8,8,0,0,0,215.27,258.94Z"/><path class="cls-1" d="M230.51,251.94h3.12L236,255.7l1.08,1.75.84,1.37.8,1.29.64,1h.06v-9.2h2.84v14h-3.12c-.8-1.29-1.56-2.52-2.28-3.7l-1.07-1.73c-.29-.46-.57-.92-.85-1.38l-.81-1.32-.67-1.07h-.06v9.2h-2.84Z"/></g><g id="ICON"><rect class="cls-3" x="208.4" y="173.14" width="31.24" height="24.53" rx="1.44"/><line class="cls-4" x1="102.13" y1="197.67" x2="257.9" y2="197.67"/><path class="cls-3" d="M148.62,155.12c-1.61,0-3.09-.05-4.56,0-.2,0-.52.75-.52,1.15,0,5.55,0,11.09,0,16.64,0,6.38-.12,12.76,0,19.14a5,5,0,0,1-4.34,5.42,7.07,7.07,0,0,1-5.71-1,4.18,4.18,0,0,1-1.89-3.69q0-26.64,0-53.29c0-5.11,0-10.22,0-15.33a2,2,0,0,0-.92-1.79q-13.29-10-26.55-20l-.09-.06c-1.12-.87-2.18-1.83-2-3.39a4.2,4.2,0,0,1,3.19-3.49A6.91,6.91,0,0,1,112,96.64c3.83,2.92,7.69,5.81,11.54,8.71,4.68,3.54,9.36,7.09,14.07,10.59a3.23,3.23,0,0,0,1.77.59c4.46,0,8.92,0,13.38,0a3.71,3.71,0,0,0,2.47-.84q12.62-9.63,25.28-19.2A6.6,6.6,0,0,1,188,95.9c2.67,1.62,2.84,4.27.36,6.18-3.07,2.36-6.17,4.69-9.27,7q-8.76,6.62-17.54,13.22a2.19,2.19,0,0,0-1,2q.08,30.45.1,60.9c0,2.18-.11,4.36,0,6.53.27,4.06-2.44,5.8-5.64,5.9a9.25,9.25,0,0,1-3.08-.46c-2.33-.76-3.25-2.19-3.26-4.78l-.09-35.78Z"/><path class="cls-3" d="M145.93,90.83a10.39,10.39,0,0,1,10.6,10.36c0,5.6-4.84,10.11-10.76,10.08a10.22,10.22,0,1,1,.16-20.44Z"/><path class="cls-3" d="M226,140.34c-1.24,0-2.38,0-3.52,0-.15,0-.39.58-.4.89q0,6.4,0,12.81c0,4.91-.09,9.83,0,14.74a3.82,3.82,0,0,1-3.35,4.17,5.47,5.47,0,0,1-4.4-.8,3.23,3.23,0,0,1-1.45-2.84q0-20.52,0-41c0-3.94,0-7.88,0-11.81a1.53,1.53,0,0,0-.71-1.39q-10.23-7.7-20.44-15.43l-.07,0c-.86-.67-1.68-1.41-1.52-2.61a3.24,3.24,0,0,1,2.46-2.69,5.32,5.32,0,0,1,5.11,1c2.95,2.25,5.92,4.48,8.89,6.72,3.61,2.72,7.21,5.45,10.84,8.15a2.43,2.43,0,0,0,1.36.45c3.43,0,6.87,0,10.3,0A2.89,2.89,0,0,0,231,110q9.71-7.42,19.46-14.79a5.09,5.09,0,0,1,5.79-.5c2.05,1.25,2.19,3.3.28,4.76-2.37,1.82-4.76,3.61-7.14,5.41q-6.75,5.1-13.51,10.18a1.68,1.68,0,0,0-.75,1.54q.06,23.44.08,46.9c0,1.67-.09,3.35,0,5,.21,3.13-1.88,4.47-4.34,4.55a7.07,7.07,0,0,1-2.37-.36c-1.8-.59-2.51-1.68-2.51-3.68q0-13.78-.07-27.55Z"/><path class="cls-3" d="M223.88,90.83a7.88,7.88,0,1,1-.12,15.74,7.87,7.87,0,1,1,.12-15.74Z"/></g></svg>