<svg xmlns="http://www.w3.org/2000/svg" viewBox="0 0 360 360"><defs><style>.cls-1{fill:#fff;}.cls-2{fill:#0c6e39;}.cls-3,.cls-4{fill:none;stroke:#0c6e39;stroke-linecap:round;stroke-miterlimit:10;}.cls-3{stroke-width:5px;}.cls-4{stroke-width:3px;}</style></defs><title>CARD</title><g id="Layer_6" data-name="Layer 6"><rect class="cls-1" x="0.42" y="-0.41" width="360" height="360"/></g><g id="BACKGROUND"><rect class="cls-2" y="336.06" width="360" height="23.94"/><path class="cls-1" d="M207,344.09h3.65a2.89,2.89,0,0,1,1,.17,2.33,2.33,0,0,1,.78.46,2,2,0,0,1,.48.69,2.29,2.29,0,0,1,.17.87,2.08,2.08,0,0,1-.11.69,1.73,1.73,0,0,1-.68.89,2,2,0,0,1-.46.24,1.9,1.9,0,0,1,1.08.49,1.76,1.76,0,0,1,.39.56,2.05,2.05,0,0,1,.15.83,2.55,2.55,0,0,1-.2,1,2.39,2.39,0,0,1-.57.79,2.72,2.72,0,0,1-.85.53,3.14,3.14,0,0,1-1.08.19H207Zm1.75,1.46v1.95H210a1.74,1.74,0,0,0,1-.22.87.87,0,0,0,.31-.78.88.88,0,0,0-.27-.73,1.42,1.42,0,0,0-.9-.22Zm0,5.47h1.44a1.82,1.82,0,0,0,1.16-.27,1,1,0,0,0,.3-.78.85.85,0,0,0-.37-.82,2.33,2.33,0,0,0-1.11-.21h-1.42Z"/><path class="cls-1" d="M219.57,352.66a3.34,3.34,0,0,1-2.56-.87,3.39,3.39,0,0,1-.8-2.4v-5.3H218v5.31a2,2,0,0,0,.38,1.27,1.64,1.64,0,0,0,2.36,0,2,2,0,0,0,.38-1.27v-5.31h1.8v5.3a3.39,3.39,0,0,1-.8,2.4A3.34,3.34,0,0,1,219.57,352.66Z"/><path class="cls-1" d="M226.05,344.09h1.8v8.4h-1.8Z"/><path class="cls-1" d="M231,344.09h1.8V351h3.67v1.5H231Z"/><path class="cls-1" d="M237.23,344.09h6.66v1.5h-2.42v6.9h-1.81v-6.9h-2.43Z"/><path class="cls-1" d="M250.45,352.49v-8.4h5.72v1.49h-4v1.84h3.67v1.49h-3.67V351h4v1.49Z"/><path class="cls-1" d="M259,344.09h1.88c.48.79.95,1.54,1.39,2.25l.65,1.05c.16.28.33.55.5.83l.48.77.38.62h0v-5.52H266v8.4h-1.87c-.48-.78-.93-1.52-1.37-2.22-.25-.42-.47-.76-.64-1l-.51-.83-.48-.79c-.16-.25-.29-.47-.41-.64h0v5.52H259Z"/><path class="cls-1" d="M270.44,344.09l.84,2.43c.16.46.29.84.39,1.16s.21.62.32.94l.3.92.25.79h0c.07-.23.16-.5.25-.8l.31-.95.34-1,.35-1q.39-1.17.84-2.43h1.85l-3.1,8.4h-1.83l-3.06-8.4Z"/><path class="cls-1" d="M279,344.09h1.8v8.4H279Z"/><path class="cls-1" d="M290.23,346.64a2.57,2.57,0,0,1-.43,1.53,2.48,2.48,0,0,1-1.17.87l1.93,3.45h-2l-1.74-3.18h-1.11v3.18h-1.79v-8.4H287a5.47,5.47,0,0,1,1.33.15,2.84,2.84,0,0,1,1,.46,2.08,2.08,0,0,1,.65.79A2.71,2.71,0,0,1,290.23,346.64Zm-1.85,0a.91.91,0,0,0-.39-.85,2.32,2.32,0,0,0-1.18-.23h-1.08v2.26h1.08a2.1,2.1,0,0,0,1.18-.27A1,1,0,0,0,288.38,346.66Z"/><path class="cls-1" d="M292.9,348.29a5.24,5.24,0,0,1,.3-1.83,4,4,0,0,1,.82-1.38,3.7,3.7,0,0,1,1.29-.86,4.58,4.58,0,0,1,1.69-.3,4.47,4.47,0,0,1,1.67.3,3.52,3.52,0,0,1,1.29.86,3.83,3.83,0,0,1,.83,1.38,5.73,5.73,0,0,1,0,3.66,3.7,3.7,0,0,1-.83,1.37,3.42,3.42,0,0,1-1.29.87,4.47,4.47,0,0,1-1.67.3,4.58,4.58,0,0,1-1.69-.3,3.59,3.59,0,0,1-1.29-.87,3.82,3.82,0,0,1-.82-1.37A5.24,5.24,0,0,1,292.9,348.29Zm1.86,0a4.81,4.81,0,0,0,.14,1.17,2.72,2.72,0,0,0,.41.91,2,2,0,0,0,.7.59,2.42,2.42,0,0,0,2,0,1.88,1.88,0,0,0,.69-.59,2.54,2.54,0,0,0,.42-.91,4.81,4.81,0,0,0,.14-1.17,4.69,4.69,0,0,0-.14-1.17,2.47,2.47,0,0,0-.42-.91,1.79,1.79,0,0,0-.69-.59,2.42,2.42,0,0,0-2,0,1.89,1.89,0,0,0-.7.59,2.63,2.63,0,0,0-.41.91A4.69,4.69,0,0,0,294.76,348.29Z"/><path class="cls-1" d="M303.91,344.09h1.87l1.39,2.25.65,1.05c.17.28.34.55.5.83l.48.77c.16.24.28.45.39.62h0v-5.52h1.71v8.4h-1.88c-.47-.78-.93-1.52-1.36-2.22l-.65-1c-.17-.28-.34-.55-.5-.83l-.49-.79-.4-.64h0v5.52h-1.7Z"/><path class="cls-1" d="M317.79,352.49q-.18-.5-.45-1.29l-.56-1.66c-.19-.58-.38-1.14-.56-1.7s-.32-1-.43-1.39h0v6h-1.66v-8.4h2.52c.35,1,.66,2,.94,2.82.17.51.31.92.41,1.24s.21.62.3.91.18.54.26.78.13.4.16.5l.15-.5c.08-.24.16-.51.26-.83l.33-1c.11-.36.23-.72.35-1.08q.41-1.29.9-2.82h2.51v8.4h-1.66v-6h0l-.29.9-.37,1.11c-.13.39-.26.79-.4,1.19s-.26.79-.38,1.15l-.33,1c-.1.3-.19.53-.25.7Z"/><path class="cls-1" d="M326.35,352.49v-8.4h5.72v1.49h-3.95v1.84h3.67v1.49h-3.67V351h4v1.49Z"/><path class="cls-1" d="M334.91,344.09h1.88c.48.79.95,1.54,1.39,2.25l.65,1.05c.16.28.33.55.5.83l.48.77.38.62h0v-5.52h1.7v8.4h-1.87c-.48-.78-.93-1.52-1.37-2.22-.25-.42-.47-.76-.64-1l-.51-.83-.48-.79c-.16-.25-.29-.47-.41-.64h0v5.52h-1.71Z"/><path class="cls-1" d="M344.47,344.09h6.66v1.5H348.7v6.9h-1.81v-6.9h-2.42Z"/></g><g id="LINE_ONE" data-name="LINE ONE"><path class="cls-2" d="M126.24,234.16h11.1v2.5h-4v11.5h-3v-11.5h-4Z"/><path class="cls-2" d="M141.56,234.16h3v5.54h5.3v-5.54h3v14h-3v-5.94h-5.3v5.94h-3Z"/><path class="cls-2" d="M158.14,248.16v-14h9.54v2.48H161.1v3.08h6.12v2.48H161.1v3.48h6.68v2.48Z"/><path class="cls-2" d="M182.9,238.42a3.94,3.94,0,0,1-2.66,4l3.22,5.74h-3.3l-2.9-5.3H175.4v5.3h-3v-14h5.12a8.89,8.89,0,0,1,2.21.25,4.78,4.78,0,0,1,1.69.77,3.46,3.46,0,0,1,1.08,1.32A4.47,4.47,0,0,1,182.9,238.42Zm-3.08,0a1.51,1.51,0,0,0-.65-1.41,3.91,3.91,0,0,0-2-.39h-1.8v3.78h1.8a3.48,3.48,0,0,0,2-.45A1.74,1.74,0,0,0,179.82,238.44Z"/><path class="cls-2" d="M194.1,248.16c-.2-.55-.45-1.26-.75-2.15l-.93-2.77q-.48-1.44-.93-2.82c-.3-.92-.54-1.69-.73-2.32h-.06v10.06h-2.76v-14h4.2c.57,1.71,1.09,3.27,1.56,4.7l.69,2.07c.18.53.35,1,.5,1.51s.29.91.42,1.3.22.67.27.84l.26-.84c.12-.39.26-.84.43-1.37s.35-1.09.54-1.7.39-1.21.59-1.81c.45-1.43.95-3,1.5-4.7h4.18v14h-2.76V238.1h-.06l-.48,1.49c-.19.58-.39,1.2-.61,1.85s-.44,1.32-.67,2-.44,1.31-.64,1.92-.38,1.16-.55,1.65-.3.88-.41,1.16Z"/><path class="cls-2" d="M220.52,248.16h-3.1l-1.12-3.24h-5l-1.12,3.24h-2.94l5-14h3.22Zm-6.76-10.72c0,.11-.07.26-.14.47s-.14.44-.22.7-.17.54-.27.84l-.29.87c-.23.69-.47,1.43-.74,2.22h3.38c-.27-.79-.51-1.53-.74-2.22-.15-.4-.26-.73-.35-1s-.17-.51-.24-.75-.14-.46-.21-.67-.11-.36-.14-.47Z"/><path class="cls-2" d="M224.66,234.16h3v11.5h6.12v2.5h-9.12Z"/></g><g id="LINE_TWO" data-name="LINE TWO"><path class="cls-2" d="M124,259a9.12,9.12,0,0,1,.48-3.07,6.39,6.39,0,0,1,1.37-2.29,5.64,5.64,0,0,1,2.16-1.43,7.82,7.82,0,0,1,2.85-.49,6.75,6.75,0,0,1,3.76,1,5.32,5.32,0,0,1,2.16,3l-2.92,1a3.92,3.92,0,0,0-1.08-1.83,2.82,2.82,0,0,0-2-.65,3.51,3.51,0,0,0-1.62.36,3.26,3.26,0,0,0-1.16,1,4.28,4.28,0,0,0-.69,1.51,8.09,8.09,0,0,0,0,3.83,4.45,4.45,0,0,0,.69,1.51,3.29,3.29,0,0,0,1.16,1,3.54,3.54,0,0,0,1.64.36,3,3,0,0,0,1.89-.58,3.57,3.57,0,0,0,1.11-1.76l2.88,1a6.07,6.07,0,0,1-2.16,2.8,6.42,6.42,0,0,1-3.76,1,7.7,7.7,0,0,1-2.79-.49,5.94,5.94,0,0,1-2.14-1.42A6.39,6.39,0,0,1,124.5,262,9.26,9.26,0,0,1,124,259Z"/><path class="cls-2" d="M140.62,259a8.79,8.79,0,0,1,.49-3,6.55,6.55,0,0,1,1.38-2.29,5.82,5.82,0,0,1,2.15-1.44,8.09,8.09,0,0,1,5.6,0,5.82,5.82,0,0,1,2.15,1.44,6.55,6.55,0,0,1,1.38,2.29,9.74,9.74,0,0,1,0,6.1,6.64,6.64,0,0,1-1.38,2.29,6.07,6.07,0,0,1-2.15,1.44,8.09,8.09,0,0,1-5.6,0,6.07,6.07,0,0,1-2.15-1.44,6.64,6.64,0,0,1-1.38-2.29A8.83,8.83,0,0,1,140.62,259Zm3.1,0a8,8,0,0,0,.23,1.95,4.33,4.33,0,0,0,.69,1.52,3.24,3.24,0,0,0,1.16,1,4,4,0,0,0,3.28,0,3.24,3.24,0,0,0,1.16-1,4.33,4.33,0,0,0,.69-1.52,8,8,0,0,0,.23-1.95,7.9,7.9,0,0,0-.23-1.95,4.25,4.25,0,0,0-.69-1.52,3.14,3.14,0,0,0-1.16-1,4,4,0,0,0-3.28,0,3.14,3.14,0,0,0-1.16,1A4.25,4.25,0,0,0,144,257,7.9,7.9,0,0,0,143.72,259Z"/><path class="cls-2" d="M165.12,266c-.2-.55-.45-1.27-.75-2.15l-.93-2.77q-.48-1.44-.93-2.82c-.3-.92-.54-1.7-.73-2.32h-.06V266H159V252h4.2q.85,2.55,1.56,4.7l.69,2.07c.18.52.35,1,.5,1.51s.29.91.42,1.3.22.66.27.84c.05-.18.14-.46.26-.84s.26-.85.43-1.37l.54-1.7c.19-.61.39-1.21.59-1.81q.68-2.14,1.5-4.7h4.18v14h-2.76V255.89h-.06l-.48,1.49-.61,1.85-.67,2c-.23.67-.44,1.31-.64,1.92l-.55,1.65c-.17.49-.3.88-.41,1.16Z"/><path class="cls-2" d="M179.38,266V252H189v2.48h-6.62v3.08h6.1V260h-6.1v6Z"/><path class="cls-2" d="M192.86,259a8.79,8.79,0,0,1,.49-3,6.55,6.55,0,0,1,1.38-2.29,5.82,5.82,0,0,1,2.15-1.44,8.09,8.09,0,0,1,5.6,0,5.82,5.82,0,0,1,2.15,1.44A6.55,6.55,0,0,1,206,255.9a9.74,9.74,0,0,1,0,6.1,6.64,6.64,0,0,1-1.38,2.29,6.07,6.07,0,0,1-2.15,1.44,8.09,8.09,0,0,1-5.6,0,6.07,6.07,0,0,1-2.15-1.44,6.64,6.64,0,0,1-1.38-2.29A8.83,8.83,0,0,1,192.86,259Zm3.1,0a8,8,0,0,0,.23,1.95,4.33,4.33,0,0,0,.69,1.52,3.24,3.24,0,0,0,1.16,1,4,4,0,0,0,3.28,0,3.24,3.24,0,0,0,1.16-1,4.33,4.33,0,0,0,.69-1.52,8,8,0,0,0,.23-1.95,7.9,7.9,0,0,0-.23-1.95,4.25,4.25,0,0,0-.69-1.52,3.14,3.14,0,0,0-1.16-1,4,4,0,0,0-3.28,0,3.14,3.14,0,0,0-1.16,1,4.25,4.25,0,0,0-.69,1.52A7.9,7.9,0,0,0,196,259Z"/><path class="cls-2" d="M221.68,256.21a4.26,4.26,0,0,1-.71,2.54,4.21,4.21,0,0,1-1.95,1.46l3.22,5.74h-3.3l-2.9-5.3h-1.86V266h-3V252h5.12a8.89,8.89,0,0,1,2.21.25,4.61,4.61,0,0,1,1.69.77,3.32,3.32,0,0,1,1.08,1.32A4.47,4.47,0,0,1,221.68,256.21Zm-3.08,0a1.51,1.51,0,0,0-.65-1.41,3.91,3.91,0,0,0-2-.39h-1.8v3.78H216a3.48,3.48,0,0,0,2-.45A1.74,1.74,0,0,0,218.6,256.23Z"/><path class="cls-2" d="M225.36,252h11.1v2.5h-4V266h-3v-11.5h-4Z"/></g><g id="ICON"><path class="cls-3" d="M189.94,165.18V100.29a10,10,0,0,0-10-10h0a10,10,0,0,0-10,10v64.89a18.08,18.08,0,1,0,19.92,0Z"/><path class="cls-2" d="M182.18,172.27v-45h-4.39v45a8.3,8.3,0,1,0,4.39,0Z"/><line class="cls-4" x1="196.29" y1="102.76" x2="210.59" y2="102.76"/><line class="cls-4" x1="196.29" y1="159.24" x2="210.59" y2="159.24"/><line class="cls-4" x1="196.29" y1="140.41" x2="210.59" y2="140.41"/><line class="cls-4" x1="196.29" y1="149.82" x2="207.94" y2="149.82"/><line class="cls-4" x1="196.29" y1="131" x2="207.94" y2="131"/><line class="cls-4" x1="196.29" y1="121.59" x2="210.59" y2="121.59"/><line class="cls-4" x1="196.29" y1="112.18" x2="207.94" y2="112.18"/></g></svg>