<svg xmlns="http://www.w3.org/2000/svg" viewBox="0 0 360 360"><defs><style>.cls-1{fill:#256887;}.cls-2,.cls-3{fill:#fff;}.cls-3{stroke:#256887;stroke-miterlimit:10;stroke-width:5px;}</style></defs><title>CARD</title><g id="BACKGROUND"><rect class="cls-1" y="336.06" width="360" height="23.94"/><path class="cls-2" d="M290.57,346.3a.8.8,0,0,0,.47.77,5.38,5.38,0,0,0,1.49.4,4.79,4.79,0,0,1,2.2.83,2.09,2.09,0,0,1,.7,1.72,2.3,2.3,0,0,1-.25,1.09,2.43,2.43,0,0,1-.7.83,3.25,3.25,0,0,1-1.07.53,4.91,4.91,0,0,1-1.36.19,4.53,4.53,0,0,1-1.43-.21,3.67,3.67,0,0,1-1.08-.56,2.73,2.73,0,0,1-.7-.82,2.24,2.24,0,0,1-.27-1l1.8-.29a1.55,1.55,0,0,0,.47,1,1.71,1.71,0,0,0,1.21.39,2.93,2.93,0,0,0,.61-.06,1.52,1.52,0,0,0,.49-.19,1.1,1.1,0,0,0,.33-.35.94.94,0,0,0,.12-.49.81.81,0,0,0-.39-.72,3.92,3.92,0,0,0-1.38-.41,10,10,0,0,1-1.22-.27,3.42,3.42,0,0,1-1-.46,2.2,2.2,0,0,1-.65-.74,2.32,2.32,0,0,1-.23-1.07,2.38,2.38,0,0,1,.24-1.1,2.13,2.13,0,0,1,.67-.79,3,3,0,0,1,1-.47,5.12,5.12,0,0,1,2.5,0,3.49,3.49,0,0,1,1,.44,2.82,2.82,0,0,1,.73.73,2.72,2.72,0,0,1,.39,1l-1.82.4a1.51,1.51,0,0,0-.49-.91,1.58,1.58,0,0,0-1.07-.34,1.74,1.74,0,0,0-1,.25A.82.82,0,0,0,290.57,346.3Z"/><path class="cls-2" d="M297.29,344.09H304v1.5h-2.42v6.9h-1.81v-6.9h-2.43Z"/><path class="cls-2" d="M309.8,352.66a3.34,3.34,0,0,1-2.56-.87,3.39,3.39,0,0,1-.8-2.4v-5.3h1.8v5.31a2,2,0,0,0,.38,1.27,1.41,1.41,0,0,0,1.18.5,1.38,1.38,0,0,0,1.17-.5,2,2,0,0,0,.39-1.27v-5.31h1.8v5.3a3,3,0,0,1-3.36,3.27Z"/><path class="cls-2" d="M316.28,344.09h3.13a5,5,0,0,1,1.73.28,3.43,3.43,0,0,1,2.1,2.13,5.67,5.67,0,0,1,0,3.58,3.5,3.5,0,0,1-.81,1.31,3.44,3.44,0,0,1-1.29.82,5.23,5.23,0,0,1-1.73.28h-3.13Zm5.38,4.2a4.23,4.23,0,0,0-.13-1.11,2.76,2.76,0,0,0-.42-.86,1.87,1.87,0,0,0-.72-.55,2.46,2.46,0,0,0-1-.19h-1.27V351h1.27a2.46,2.46,0,0,0,1-.19,1.87,1.87,0,0,0,.72-.55,2.76,2.76,0,0,0,.42-.86A4.23,4.23,0,0,0,321.66,348.29Z"/><path class="cls-2" d="M326.34,352.49v-8.4h5.73v1.49h-3.95v1.84h3.67v1.49h-3.67V351h4v1.49Z"/><path class="cls-2" d="M334.91,344.09h1.88c.48.79.95,1.54,1.39,2.25l.65,1.05c.16.28.33.55.5.83l.48.77.38.62h0v-5.52h1.7v8.4h-1.87l-1.37-2.22c-.25-.42-.47-.76-.64-1l-.51-.83-.49-.79-.4-.64h0v5.52h-1.71Z"/><path class="cls-2" d="M344.46,344.09h6.66v1.5H348.7v6.9h-1.81v-6.9h-2.43Z"/></g><g id="LINE_ONE" data-name="LINE ONE"><path class="cls-1" d="M139.87,239v4.92h-3v-14h5.32a9.4,9.4,0,0,1,2.28.26,5,5,0,0,1,1.74.8,3.7,3.7,0,0,1,1.12,1.38,4.64,4.64,0,0,1,.4,2,4.87,4.87,0,0,1-.41,2.07,3.85,3.85,0,0,1-1.14,1.44,4.83,4.83,0,0,1-1.75.84,8.76,8.76,0,0,1-2.24.27Zm4.82-4.62a1.68,1.68,0,0,0-.69-1.56,4.11,4.11,0,0,0-2.09-.42h-2v4.12h2A3.52,3.52,0,0,0,144,236,1.88,1.88,0,0,0,144.69,234.38Z"/><path class="cls-1" d="M163.21,243.92h-3.1L159,240.68h-5l-1.12,3.24h-2.94l5-14h3.22Zm-6.76-10.72c0,.11-.07.27-.14.47s-.14.44-.22.7-.17.54-.27.84l-.29.87c-.23.7-.47,1.44-.74,2.22h3.38c-.27-.78-.51-1.52-.74-2.22-.15-.4-.26-.73-.35-1s-.17-.51-.24-.75-.14-.46-.21-.67-.11-.36-.14-.47Z"/><path class="cls-1" d="M177.83,234.18a4.24,4.24,0,0,1-.71,2.54,4.14,4.14,0,0,1-2,1.46l3.22,5.74h-3.3l-2.9-5.3h-1.86v5.3h-3v-14h5.12a9.39,9.39,0,0,1,2.21.25,5,5,0,0,1,1.69.77,3.46,3.46,0,0,1,1.08,1.32A4.53,4.53,0,0,1,177.83,234.18Zm-3.08,0a1.51,1.51,0,0,0-.65-1.41,3.91,3.91,0,0,0-2-.39h-1.8v3.78h1.8a3.48,3.48,0,0,0,2-.45A1.74,1.74,0,0,0,174.75,234.2Z"/><path class="cls-1" d="M182.87,243.92v-14h9.54v2.48h-6.58v3.08H192V238h-6.12v3.48h6.68v2.48Z"/><path class="cls-1" d="M197.15,229.92h3.12l2.32,3.76,1.08,1.75.84,1.37.8,1.29.64,1H206v-9.2h2.84v14h-3.12c-.8-1.29-1.56-2.52-2.28-3.7l-1.07-1.73c-.29-.46-.57-.92-.85-1.38l-.81-1.32-.67-1.07H200v9.2h-2.84Z"/><path class="cls-1" d="M213.07,229.92h11.1v2.5h-4v11.5h-3v-11.5h-4Z"/></g><g id="LINE_TWO" data-name="LINE TWO"><path class="cls-1" d="M101.72,261.71v-14h9.54v2.48h-6.58v3.08h6.12v2.48h-6.12v3.48h6.68v2.48Z"/><path class="cls-1" d="M116,247.71h3.12l2.32,3.76c.44.7.8,1.29,1.08,1.75l.84,1.37.8,1.29.64,1h.06v-9.2h2.84v14h-3.12L122.3,258l-1.07-1.73c-.29-.46-.57-.92-.85-1.38l-.81-1.32c-.26-.42-.48-.78-.67-1.07h-.06v9.2H116Z"/><path class="cls-1" d="M138.7,254h6.44v7.76h-2.72v-1.44a3.69,3.69,0,0,1-1.36,1.22,4.83,4.83,0,0,1-2.34.5,6.29,6.29,0,0,1-2.75-.57,5.72,5.72,0,0,1-2-1.55,6.7,6.7,0,0,1-1.19-2.3,9.56,9.56,0,0,1-.4-2.82,9,9,0,0,1,.47-3,6.45,6.45,0,0,1,1.37-2.31,6.18,6.18,0,0,1,2.19-1.51,7.54,7.54,0,0,1,2.93-.54,6.74,6.74,0,0,1,3.62.93,5.7,5.7,0,0,1,2.26,2.75l-2.78,1.14a3.54,3.54,0,0,0-1.22-1.73,3.24,3.24,0,0,0-2-.61,3.35,3.35,0,0,0-2.72,1.25,5.72,5.72,0,0,0-1,3.69q0,4.68,3.7,4.68a4,4,0,0,0,1.08-.15,3.2,3.2,0,0,0,1-.46,2.51,2.51,0,0,0,.73-.79,2.24,2.24,0,0,0,.28-1.16v-.64H138.7Z"/><path class="cls-1" d="M162.52,261.71h-3.1l-1.12-3.24h-5l-1.12,3.24h-2.94l5-14h3.22ZM155.76,251c0,.1-.07.26-.14.47s-.14.44-.22.7-.17.54-.27.84l-.29.87c-.23.69-.47,1.43-.74,2.22h3.38c-.27-.79-.51-1.53-.74-2.22-.15-.4-.26-.73-.35-1s-.17-.51-.24-.75-.14-.46-.21-.67-.11-.37-.14-.47Z"/><path class="cls-1" d="M171.68,254h6.44v7.76H175.4v-1.44a3.69,3.69,0,0,1-1.36,1.22,4.83,4.83,0,0,1-2.34.5,6.29,6.29,0,0,1-2.75-.57,5.72,5.72,0,0,1-2-1.55,6.7,6.7,0,0,1-1.19-2.3,9.56,9.56,0,0,1-.4-2.82,9,9,0,0,1,.47-3,6.45,6.45,0,0,1,1.37-2.31,6.18,6.18,0,0,1,2.19-1.51,7.54,7.54,0,0,1,2.93-.54,6.74,6.74,0,0,1,3.62.93,5.7,5.7,0,0,1,2.26,2.75l-2.78,1.14a3.54,3.54,0,0,0-1.22-1.73,3.24,3.24,0,0,0-2-.61,3.35,3.35,0,0,0-2.72,1.25,5.72,5.72,0,0,0-1,3.69q0,4.68,3.7,4.68a4,4,0,0,0,1.08-.15,3.2,3.2,0,0,0,1-.46,2.51,2.51,0,0,0,.73-.79,2.24,2.24,0,0,0,.28-1.16v-.64h-3.58Z"/><path class="cls-1" d="M183.34,261.71v-14h9.54v2.48H186.3v3.08h6.12v2.48H186.3v3.48H193v2.48Z"/><path class="cls-1" d="M203.78,261.71c-.2-.55-.45-1.26-.75-2.15l-.93-2.77q-.48-1.44-.93-2.82c-.3-.92-.54-1.7-.73-2.32h-.06v10.06h-2.76v-14h4.2c.57,1.71,1.09,3.27,1.56,4.7q.42,1.28.69,2.07c.18.53.35,1,.5,1.51s.29.91.42,1.3.22.67.27.84l.26-.84c.12-.39.26-.84.43-1.37s.35-1.09.54-1.7.39-1.21.59-1.81c.45-1.43.95-3,1.5-4.7h4.18v14H210V251.65h-.06l-.48,1.49c-.19.58-.39,1.2-.61,1.85l-.67,2c-.23.67-.44,1.31-.64,1.92l-.55,1.65c-.17.49-.3.88-.41,1.16Z"/><path class="cls-1" d="M218,261.71v-14h9.54v2.48H221v3.08h6.12v2.48H221v3.48h6.68v2.48Z"/><path class="cls-1" d="M232.32,247.71h3.12l2.32,3.76c.44.7.8,1.29,1.08,1.75l.84,1.37.8,1.29.64,1h.06v-9.2H244v14H240.9l-2.28-3.7-1.07-1.73c-.29-.46-.57-.92-.85-1.38l-.81-1.32c-.26-.42-.48-.78-.67-1.07h-.06v9.2h-2.84Z"/><path class="cls-1" d="M248.24,247.71h11.1v2.5h-4v11.5h-3v-11.5h-4Z"/></g><g id="ICON"><path class="cls-1" d="M123.18,160.56a17.23,17.23,0,1,1,17.37-17A17.3,17.3,0,0,1,123.18,160.56Z"/><rect class="cls-1" x="97.84" y="164.58" width="52.71" height="27.22" rx="10.01"/><path class="cls-1" d="M235.78,160.56a17.23,17.23,0,1,1,17.38-17A17.29,17.29,0,0,1,235.78,160.56Z"/><rect class="cls-1" x="197.72" y="164.58" width="65.43" height="27.22" rx="10.01"/><path class="cls-3" d="M175.52,197.4H143.91c-3.79,0-4.58-.75-4.6-4.55,0-5.33-.05-10.65,0-16,.12-10.19,6.92-17,17.12-17.07q18.69-.11,37.38,0c2.39,0,3.64-.62,4.46-3,2.1-6.08,4.6-12,6.73-18.09a20.83,20.83,0,0,0,1.19-6.58c.14-11.21,0-22.43.16-33.64.09-5.24,3.9-8.77,9.11-9.13a9.56,9.56,0,0,1,10.4,7.76,16.57,16.57,0,0,1,.3,3.37c0,11.9.38,23.81-.18,35.68-.23,4.68-2.33,9.34-4,13.88-2.93,8.18-6.18,16.25-9.2,24.41a14.6,14.6,0,0,0-.83,4.59c-.11,4.64-.1,9.29,0,13.93.05,3.16-1.32,4.43-4.52,4.4-10.65-.11-21.29,0-31.94,0Z"/><path class="cls-3" d="M175.59,152a21.94,21.94,0,1,1,22.13-21.69A22,22,0,0,1,175.59,152Z"/></g></svg>