<svg xmlns="http://www.w3.org/2000/svg" viewBox="0 0 360 360"><defs><style>.cls-1{fill:#fff;}.cls-2{fill:#d1be2d;}</style></defs><title>CARD</title><g id="Layer_6" data-name="Layer 6"><rect class="cls-1" x="0.42" y="-0.53" width="360" height="360"/></g><g id="LINE_ONE" data-name="LINE ONE"><path class="cls-2" d="M94.62,237.71A1.34,1.34,0,0,0,95.4,239a9.48,9.48,0,0,0,2.48.67,7.86,7.86,0,0,1,3.67,1.38,3.49,3.49,0,0,1,1.17,2.86,3.92,3.92,0,0,1-.42,1.83,4.07,4.07,0,0,1-1.17,1.38,5.35,5.35,0,0,1-1.79.88,8.33,8.33,0,0,1-4.64,0,5.88,5.88,0,0,1-1.8-.93,4.3,4.3,0,0,1-1.16-1.36,3.81,3.81,0,0,1-.46-1.62l3-.48a2.56,2.56,0,0,0,.79,1.67,2.8,2.8,0,0,0,2,.65,4.61,4.61,0,0,0,1-.1,2.24,2.24,0,0,0,.82-.33,1.58,1.58,0,0,0,.55-.57,1.51,1.51,0,0,0,.2-.82,1.35,1.35,0,0,0-.65-1.2,6.25,6.25,0,0,0-2.29-.68,16.15,16.15,0,0,1-2-.46,5.34,5.34,0,0,1-1.63-.77A3.42,3.42,0,0,1,92,239.74a3.73,3.73,0,0,1-.39-1.79,4,4,0,0,1,.4-1.84,3.72,3.72,0,0,1,1.12-1.31,5.22,5.22,0,0,1,1.7-.79,8.54,8.54,0,0,1,2.14-.26,8.1,8.1,0,0,1,2,.25,5.65,5.65,0,0,1,1.67.74,4.36,4.36,0,0,1,1.21,1.21,4.49,4.49,0,0,1,.66,1.64l-3,.66a2.43,2.43,0,0,0-.82-1.52,2.67,2.67,0,0,0-1.78-.56,2.78,2.78,0,0,0-1.69.42A1.36,1.36,0,0,0,94.62,237.71Z"/><path class="cls-2" d="M106.8,241a9.16,9.16,0,0,1,.48-3.07,6.47,6.47,0,0,1,1.37-2.29,6,6,0,0,1,2.16-1.43,8,8,0,0,1,2.85-.49,6.83,6.83,0,0,1,3.76,1,5.34,5.34,0,0,1,2.16,3l-2.92,1a4,4,0,0,0-1.08-1.83,2.86,2.86,0,0,0-2-.65,3.51,3.51,0,0,0-1.62.36,3.35,3.35,0,0,0-1.16,1,4.67,4.67,0,0,0-.69,1.51,7.77,7.77,0,0,0-.23,1.92,7.57,7.57,0,0,0,.23,1.91,4.87,4.87,0,0,0,.69,1.51,3.28,3.28,0,0,0,1.16,1,3.57,3.57,0,0,0,1.64.36,2.9,2.9,0,0,0,1.89-.58,3.48,3.48,0,0,0,1.11-1.76l2.88,1a5.9,5.9,0,0,1-2.16,2.8,6.4,6.4,0,0,1-3.76,1,7.57,7.57,0,0,1-2.79-.49,5.9,5.9,0,0,1-2.14-1.42,6.3,6.3,0,0,1-1.37-2.29A9.18,9.18,0,0,1,106.8,241Z"/><path class="cls-2" d="M124,234h3v5.54h5.3V234h3v14h-3v-5.94H127V248h-3Z"/><path class="cls-2" d="M140,241a9.08,9.08,0,0,1,.49-3.05,6.64,6.64,0,0,1,1.38-2.29,6,6,0,0,1,2.15-1.44,8.09,8.09,0,0,1,5.6,0,5.94,5.94,0,0,1,2.15,1.44,6.35,6.35,0,0,1,1.38,2.29,9.74,9.74,0,0,1,0,6.1,6.27,6.27,0,0,1-1.38,2.29,5.82,5.82,0,0,1-2.15,1.44,8.09,8.09,0,0,1-5.6,0,5.9,5.9,0,0,1-2.15-1.44,6.55,6.55,0,0,1-1.38-2.29A9,9,0,0,1,140,241Zm3.1,0a7.9,7.9,0,0,0,.23,1.95,4.73,4.73,0,0,0,.69,1.52,3.22,3.22,0,0,0,1.16,1,3.57,3.57,0,0,0,1.64.35,3.51,3.51,0,0,0,1.64-.35,3.06,3.06,0,0,0,1.16-1,4.33,4.33,0,0,0,.69-1.52,8.38,8.38,0,0,0,0-3.9,4.33,4.33,0,0,0-.69-1.52,3.06,3.06,0,0,0-1.16-1,3.64,3.64,0,0,0-1.64-.35,3.7,3.7,0,0,0-1.64.35,3.22,3.22,0,0,0-1.16,1,4.73,4.73,0,0,0-.69,1.52A8,8,0,0,0,143.08,241Z"/><path class="cls-2" d="M157.94,241a8.83,8.83,0,0,1,.49-3.05,6.64,6.64,0,0,1,1.38-2.29,5.94,5.94,0,0,1,2.15-1.44,8.09,8.09,0,0,1,5.6,0,5.94,5.94,0,0,1,2.15,1.44,6.64,6.64,0,0,1,1.38,2.29,9.74,9.74,0,0,1,0,6.1,6.55,6.55,0,0,1-1.38,2.29,5.82,5.82,0,0,1-2.15,1.44,8.09,8.09,0,0,1-5.6,0,5.82,5.82,0,0,1-2.15-1.44,6.55,6.55,0,0,1-1.38-2.29A8.79,8.79,0,0,1,157.94,241Zm3.1,0a7.9,7.9,0,0,0,.23,1.95,4.33,4.33,0,0,0,.69,1.52,3.14,3.14,0,0,0,1.16,1,4,4,0,0,0,3.28,0,3.14,3.14,0,0,0,1.16-1,4.33,4.33,0,0,0,.69-1.52,8.38,8.38,0,0,0,0-3.9,4.33,4.33,0,0,0-.69-1.52,3.14,3.14,0,0,0-1.16-1,4,4,0,0,0-3.28,0,3.14,3.14,0,0,0-1.16,1,4.33,4.33,0,0,0-.69,1.52A8,8,0,0,0,161,241Z"/><path class="cls-2" d="M176.28,234h3v11.5h6.12V248h-9.12Z"/><path class="cls-2" d="M199,237.71a1.34,1.34,0,0,0,.78,1.29,9.48,9.48,0,0,0,2.48.67,7.86,7.86,0,0,1,3.67,1.38,3.49,3.49,0,0,1,1.17,2.86,3.92,3.92,0,0,1-.42,1.83,4.07,4.07,0,0,1-1.17,1.38,5.44,5.44,0,0,1-1.79.88,8.33,8.33,0,0,1-4.64,0,5.77,5.77,0,0,1-1.8-.93,4.3,4.3,0,0,1-1.16-1.36,3.81,3.81,0,0,1-.46-1.62l3-.48a2.56,2.56,0,0,0,.79,1.67,2.8,2.8,0,0,0,2,.65,4.61,4.61,0,0,0,1-.1,2.32,2.32,0,0,0,.82-.33,1.58,1.58,0,0,0,.55-.57,1.61,1.61,0,0,0,.2-.82,1.35,1.35,0,0,0-.65-1.2,6.31,6.31,0,0,0-2.29-.68,16.15,16.15,0,0,1-2-.46,5.23,5.23,0,0,1-1.63-.77,3.42,3.42,0,0,1-1.08-1.22A3.73,3.73,0,0,1,196,238a4,4,0,0,1,.4-1.84,3.72,3.72,0,0,1,1.12-1.31,5.22,5.22,0,0,1,1.7-.79,8.48,8.48,0,0,1,2.14-.26,8.16,8.16,0,0,1,2,.25,5.65,5.65,0,0,1,1.67.74,4.36,4.36,0,0,1,1.21,1.21,4.49,4.49,0,0,1,.66,1.64l-3,.66a2.48,2.48,0,0,0-.82-1.52,2.67,2.67,0,0,0-1.78-.56,2.78,2.78,0,0,0-1.69.42A1.34,1.34,0,0,0,199,237.71Z"/><path class="cls-2" d="M214.76,243.11V248h-3V234h5.32a9.4,9.4,0,0,1,2.28.26,5,5,0,0,1,1.74.8,3.7,3.7,0,0,1,1.12,1.38,4.64,4.64,0,0,1,.4,2,4.87,4.87,0,0,1-.41,2.07,3.85,3.85,0,0,1-1.14,1.44,4.83,4.83,0,0,1-1.75.84,8.7,8.7,0,0,1-2.24.27Zm4.82-4.62a1.68,1.68,0,0,0-.69-1.56,4.09,4.09,0,0,0-2.09-.42h-2v4.12h2a3.5,3.5,0,0,0,2.09-.5A1.88,1.88,0,0,0,219.58,238.49Z"/><path class="cls-2" d="M227,234h3v14h-3Z"/><path class="cls-2" d="M245.8,238.29a3.94,3.94,0,0,1-2.66,4l3.22,5.74h-3.3l-2.9-5.3H238.3V248h-3V234h5.12a8.89,8.89,0,0,1,2.21.25,5,5,0,0,1,1.69.77,3.46,3.46,0,0,1,1.08,1.32A4.5,4.5,0,0,1,245.8,238.29Zm-3.08,0a1.51,1.51,0,0,0-.65-1.41,3.91,3.91,0,0,0-2-.39h-1.8v3.78h1.8a3.48,3.48,0,0,0,2-.45A1.74,1.74,0,0,0,242.72,238.31Z"/><path class="cls-2" d="M250.84,234h3v14h-3Z"/><path class="cls-2" d="M258.06,234h11.1v2.5h-4V248h-3v-11.5h-4Z"/><rect class="cls-2" y="335.97" width="360" height="23.94"/><path class="cls-1" d="M264.75,348.2a5.55,5.55,0,0,1,.29-1.84,3.69,3.69,0,0,1,.82-1.37,3.4,3.4,0,0,1,1.3-.86,4.57,4.57,0,0,1,1.71-.3,4.1,4.1,0,0,1,2.25.59,3.21,3.21,0,0,1,1.3,1.79l-1.75.61a2.34,2.34,0,0,0-.65-1.09,1.73,1.73,0,0,0-1.19-.4,2.13,2.13,0,0,0-1,.22,1.92,1.92,0,0,0-.7.6,2.66,2.66,0,0,0-.41.9,4.65,4.65,0,0,0-.14,1.15,4.59,4.59,0,0,0,.14,1.15,2.66,2.66,0,0,0,.41.9,2,2,0,0,0,.7.61,2.17,2.17,0,0,0,1,.21,1.8,1.8,0,0,0,1.14-.35,2.12,2.12,0,0,0,.66-1.05l1.73.61a3.59,3.59,0,0,1-1.3,1.68,3.81,3.81,0,0,1-2.25.61,4.7,4.7,0,0,1-1.68-.29,3.63,3.63,0,0,1-1.28-.85,3.73,3.73,0,0,1-.82-1.38A5.57,5.57,0,0,1,264.75,348.2Z"/><path class="cls-1" d="M274.71,348.2a5.49,5.49,0,0,1,.29-1.83,4,4,0,0,1,.83-1.37,3.44,3.44,0,0,1,1.29-.86,4.57,4.57,0,0,1,1.68-.31,4.49,4.49,0,0,1,1.68.31,3.29,3.29,0,0,1,1.29.86,3.84,3.84,0,0,1,.83,1.37,5.92,5.92,0,0,1,0,3.66,4,4,0,0,1-.83,1.38,3.52,3.52,0,0,1-1.29.86,4.49,4.49,0,0,1-1.68.3,4.56,4.56,0,0,1-1.68-.3,3.7,3.7,0,0,1-1.29-.86A4.13,4.13,0,0,1,275,350,5.49,5.49,0,0,1,274.71,348.2Zm1.86,0a4.69,4.69,0,0,0,.14,1.17,2.63,2.63,0,0,0,.41.91,1.89,1.89,0,0,0,.7.59,2.42,2.42,0,0,0,2,0,1.79,1.79,0,0,0,.69-.59,2.64,2.64,0,0,0,.42-.91,4.71,4.71,0,0,0,.13-1.17,4.82,4.82,0,0,0-.13-1.17,2.73,2.73,0,0,0-.42-.91,1.88,1.88,0,0,0-.69-.59,2.42,2.42,0,0,0-2,0,2,2,0,0,0-.7.59,2.72,2.72,0,0,0-.41.91A4.81,4.81,0,0,0,276.57,348.2Z"/><path class="cls-1" d="M289.41,352.4c-.12-.33-.27-.75-.45-1.29s-.37-1.08-.56-1.66l-.56-1.69c-.18-.55-.32-1-.44-1.39h0v6h-1.66V344h2.52c.35,1,.66,2,.94,2.82l.41,1.24c.11.32.21.62.3.91s.18.55.26.78.13.4.16.5l.15-.5c.08-.23.16-.51.26-.82l.32-1,.36-1.09.9-2.82h2.51v8.4h-1.66v-6h0c-.08.24-.18.54-.29.89l-.37,1.11c-.13.39-.26.79-.4,1.19s-.27.79-.38,1.16l-.33,1c-.11.29-.19.52-.25.69Z"/><path class="cls-1" d="M301.66,352.4c-.12-.33-.27-.75-.45-1.29s-.36-1.08-.56-1.66l-.55-1.69c-.18-.55-.33-1-.44-1.39h0v6H298V344h2.51c.35,1,.66,2,.94,2.82.17.51.31.93.42,1.24s.2.62.3.91.17.55.25.78.13.4.16.5l.15-.5c.08-.23.16-.51.26-.82s.21-.66.33-1,.23-.73.35-1.09l.9-2.82h2.51v8.4h-1.66v-6h0c-.08.24-.18.54-.29.89s-.23.72-.37,1.11-.26.79-.4,1.19-.26.79-.38,1.16l-.33,1c-.1.29-.19.52-.25.69Z"/><path class="cls-1" d="M313.53,352.57a3.38,3.38,0,0,1-2.56-.86,3.43,3.43,0,0,1-.8-2.4V344H312v5.32a2,2,0,0,0,.38,1.26,1.38,1.38,0,0,0,1.18.5,1.35,1.35,0,0,0,1.17-.5,2,2,0,0,0,.39-1.26V344h1.8v5.31a3.38,3.38,0,0,1-.81,2.4A3.34,3.34,0,0,1,313.53,352.57Z"/><path class="cls-1" d="M320,344h1.87l1.39,2.26c.27.42.48.77.65,1.05l.5.82.48.77c.16.25.28.46.39.62h0V344H327v8.4h-1.87c-.48-.77-.94-1.51-1.37-2.22l-.64-1c-.18-.28-.35-.56-.51-.83l-.49-.8-.4-.64h0v5.52H320Z"/><path class="cls-1" d="M330.2,344H332v8.4h-1.8Z"/><path class="cls-1" d="M334.53,344h6.66v1.5h-2.43v6.9H337v-6.9h-2.42Z"/><path class="cls-1" d="M346.26,348.89,343.08,344h2.07l2.05,3.22,2-3.22h2l-3.18,4.89v3.51h-1.8Z"/></g><g id="ICON"><path class="cls-2" d="M125.54,160.18l6.4-6.86a11.59,11.59,0,0,0-.62-1.12c-1.11-1.79-.79-3.08,1.11-4.16q9-5.11,17.95-10.41a9.54,9.54,0,0,0,2.8-2.53q11.41-15.59,22.73-31.25c1.78-2.44,3.24-2.43,4.75.17Q194,127.09,207.31,150.2c1.46,2.53.61,3.9-2.23,4.19-10,1-20,2.16-30,3.23-2.48.26-5,.38-7.46.67-1.47.18-2.92.57-4.84,1l4.12,7.16c2.25-1.3,4.36-2.47,6.41-3.72,1.86-1.13,3.3-.94,4.4,1.07,1.39,2.53,2.89,5,4.3,7.54,1.28,2.29,1,3.08-1.32,4.45l-6.27,3.64c1.84,3.23,3.65,6.41,5.45,9.59,1.56,2.74,1.39,3.39-1.34,5-1.95,1.13-3.9,2.26-5.86,3.35-2.3,1.28-3.15,1.06-4.5-1.26q-8-13.89-16-27.8c-.32-.55-.7-1.06-1.12-1.69l-5.25,3c-3,1.71-3.4,1.61-5.17-1.24-.22-.34-.45-.66-.78-1.15-.79.42-1.56.8-2.3,1.22-5,2.85-8.67,1.69-11.18-3.56l-.8-1.71Zm52.59-51.84c-7.14,9.79-14.09,19.27-20.95,28.81a2.86,2.86,0,0,0-.16,2.5q3.63,6.67,7.57,13.18A2.85,2.85,0,0,0,166.8,154c5.53-.44,11.06-1,16.58-1.59,1.85-.2,3.69-.53,5.79-.83l-10.56-18.32a20.6,20.6,0,0,1-2.16-4,2.87,2.87,0,0,1,.86-2.59c.63-.35,1.91.14,2.72.59.55.31.81,1.17,1.17,1.8,3.89,6.76,7.76,13.54,11.7,20.27.43.72,1.32,1.65,2,1.65,2.35,0,4.71-.39,7.43-.66Zm-17,47.3-8.28-14.35-17.1,9.89c2.85,4.92,5.58,9.61,8.33,14.35Zm14.63,34.8c-5.53-9.59-11-19-16.54-28.65l-4.32,2.54c5.59,9.68,11,19.1,16.56,28.67Zm-6.66-20.27,3.19,5.42,5.38-3.17-3.15-5.36Zm-34.82-12.79c-1.58,1.6-3.3,2.82-4.17,4.48-.33.64,1.29,3.3,2,3.3,1.86,0,3.72-1,5.76-1.59Z"/><path class="cls-2" d="M234.46,132.1a11.4,11.4,0,0,1-3.26,1.06c-7.33.1-14.65.05-22,.06-1.43,0-2.87,0-2.94-2s1.41-2.24,2.95-2.24c7.33,0,14.65-.05,22,.05,1.09,0,2.17.73,3.25,1.12Z"/><path class="cls-2" d="M224.38,111.23a5.56,5.56,0,0,1-1.36,1.56c-6.64,3.91-13.29,7.81-20,11.53a3.26,3.26,0,0,1-3.06-.52c-1-1.1-.42-2.42.92-3.19,6.68-3.85,13.34-7.73,20.05-11.52C222.76,108,224.4,108.9,224.38,111.23Z"/><path class="cls-2" d="M212,91.67c-.43,1-.66,1.64-1,2.25-3.67,6.41-7.38,12.79-11,19.2-.79,1.39-1.88,2.19-3.33,1.39s-1.21-2.25-.45-3.57c3.77-6.53,7.49-13.1,11.37-19.56a3.75,3.75,0,0,1,2.68-1.3C210.79,90,211.41,91.08,212,91.67Z"/><path class="cls-1" d="M178.13,108.34l24.2,41.91c-2.72.27-5.08.65-7.43.66-.68,0-1.57-.93-2-1.65-3.94-6.73-7.81-13.51-11.7-20.27-.36-.63-.62-1.49-1.17-1.8-.81-.45-2.09-.94-2.72-.59a2.87,2.87,0,0,0-.86,2.59,20.6,20.6,0,0,0,2.16,4l10.56,18.32c-2.1.3-3.94.63-5.79.83-5.52.58-11,1.15-16.58,1.59a2.85,2.85,0,0,1-2.21-1.12q-3.93-6.51-7.57-13.18a2.86,2.86,0,0,1,.16-2.5C164,127.61,171,118.13,178.13,108.34Z"/><path class="cls-1" d="M161.11,155.64l-17.05,9.89c-2.75-4.74-5.48-9.43-8.33-14.35l17.1-9.89Z"/><path class="cls-1" d="M175.74,190.44l-4.3,2.56c-5.52-9.57-11-19-16.56-28.67l4.32-2.54C164.75,171.41,170.21,180.85,175.74,190.44Z"/><path class="cls-1" d="M169.08,170.17l5.42-3.11,3.15,5.36-5.38,3.17Z"/><path class="cls-1" d="M134.26,157.38l3.63,6.19c-2,.63-3.9,1.61-5.76,1.59-.75,0-2.37-2.66-2-3.3C131,160.2,132.68,159,134.26,157.38Z"/></g></svg>