<svg xmlns="http://www.w3.org/2000/svg" viewBox="0 0 360 360"><defs><style>.cls-1,.cls-3{fill:#231f20;}.cls-2{fill:#fff;}.cls-3,.cls-4{stroke:#fff;stroke-linejoin:round;stroke-width:3px;}.cls-4{fill:none;}</style></defs><title>CARD</title><g id="BACKGROUND"><rect class="cls-1" width="360" height="360"/></g><g id="LINE_ONE" data-name="LINE ONE"><path class="cls-2" d="M102.91,248.16h-3.1l-1.12-3.24h-5l-1.12,3.24H89.61l5-14h3.22Zm-6.76-10.72c0,.11-.07.26-.14.47s-.14.44-.22.7-.17.54-.27.84-.2.59-.29.87c-.23.69-.47,1.43-.74,2.22h3.38c-.27-.79-.51-1.53-.74-2.22-.15-.4-.26-.73-.35-1s-.17-.51-.24-.75-.14-.46-.21-.67-.11-.36-.14-.47Z"/><path class="cls-2" d="M107.05,234.16h5.22a8.36,8.36,0,0,1,2.88.47,5.66,5.66,0,0,1,3.51,3.55,9.68,9.68,0,0,1,0,6,5.66,5.66,0,0,1-3.51,3.55,8.36,8.36,0,0,1-2.88.47h-5.22Zm9,7a7,7,0,0,0-.23-1.85,4.07,4.07,0,0,0-.7-1.43,3,3,0,0,0-1.19-.92,4.26,4.26,0,0,0-1.72-.32h-2.12v9h2.12a4.26,4.26,0,0,0,1.72-.32,3,3,0,0,0,1.19-.92,4.07,4.07,0,0,0,.7-1.43A7,7,0,0,0,116,241.16Z"/><path class="cls-2" d="M135.29,248.16h-3.1l-1.12-3.24h-5l-1.12,3.24H122l5-14h3.22Zm-6.76-10.72c0,.11-.07.26-.14.47s-.14.44-.22.7-.17.54-.27.84l-.29.87c-.23.69-.47,1.43-.74,2.22h3.38c-.27-.79-.51-1.53-.74-2.22-.15-.4-.26-.73-.35-1s-.17-.51-.24-.75-.14-.46-.21-.67-.11-.36-.14-.47Z"/><path class="cls-2" d="M142.41,243.24v4.92h-3v-14h5.32a9.4,9.4,0,0,1,2.28.26,4.81,4.81,0,0,1,1.74.8,3.7,3.7,0,0,1,1.12,1.38,4.61,4.61,0,0,1,.4,2,4.87,4.87,0,0,1-.41,2.07,3.85,3.85,0,0,1-1.14,1.44A4.83,4.83,0,0,1,147,243a8.76,8.76,0,0,1-2.24.27Zm4.82-4.62a1.68,1.68,0,0,0-.69-1.56,4.11,4.11,0,0,0-2.09-.42h-2v4.12h2a3.6,3.6,0,0,0,2.09-.5A1.88,1.88,0,0,0,147.23,238.62Z"/><path class="cls-2" d="M153.63,234.16h11.1v2.5h-4v11.5h-3v-11.5h-4Z"/><path class="cls-2" d="M169,234.16h3v14h-3Z"/><path class="cls-2" d="M177.23,234.16h6.08a5,5,0,0,1,1.75.28,3.8,3.8,0,0,1,1.3.77,3.38,3.38,0,0,1,.81,1.16,3.67,3.67,0,0,1,.28,1.45,3.33,3.33,0,0,1-.18,1.14,3.29,3.29,0,0,1-.47.87,2.77,2.77,0,0,1-.66.62,3.1,3.1,0,0,1-.77.39,3.6,3.6,0,0,1,.93.26,3,3,0,0,1,.87.57,2.87,2.87,0,0,1,.65.93,3.31,3.31,0,0,1,.25,1.38,4,4,0,0,1-1.28,3,4.34,4.34,0,0,1-1.42.87,5,5,0,0,1-1.8.32h-6.34Zm2.92,2.44v3.24h2.1a2.85,2.85,0,0,0,1.6-.36,1.46,1.46,0,0,0,.52-1.3,1.48,1.48,0,0,0-.45-1.22,2.44,2.44,0,0,0-1.51-.36Zm0,9.12h2.4a3,3,0,0,0,1.93-.45A1.66,1.66,0,0,0,185,244a1.44,1.44,0,0,0-.62-1.37,3.91,3.91,0,0,0-1.86-.35h-2.36Z"/><path class="cls-2" d="M192.73,234.16h3v14h-3Z"/><path class="cls-2" d="M201,234.16h3v11.5h6.12v2.5H201Z"/><path class="cls-2" d="M214.33,234.16h3v14h-3Z"/><path class="cls-2" d="M221.55,234.16h11.1v2.5h-4v11.5h-3v-11.5h-4Z"/><path class="cls-2" d="M241.11,242.3l-5.3-8.14h3.44l3.42,5.36,3.4-5.36h3.34l-5.3,8.14v5.86h-3Z"/><path class="cls-2" d="M259.69,240.5h3.86v-3.88h2.28v3.88h3.86v2.28h-3.86v4h-2.28v-4h-3.86Z"/></g><g id="LINE_TWO" data-name="LINE TWO"><path class="cls-2" d="M111.2,266V252h9.58v2.48h-6.62v3.08h6.1V260h-6.1v6Z"/><path class="cls-2" d="M125.26,252h3v11.5h6.12V266h-9.12Z"/><path class="cls-2" d="M138.58,266V252h9.54v2.48h-6.58v3.08h6.12V260h-6.12v3.48h6.68V266Z"/><path class="cls-2" d="M160.3,258.61l5.18,7.34h-3.6l-3.38-4.86L155.06,266H151.7l5.14-7.2L152.1,252h3.62l2.94,4.32,3-4.32h3.38Z"/><path class="cls-2" d="M169.6,252h3v14h-3Z"/><path class="cls-2" d="M177.88,252H184a5,5,0,0,1,1.75.28,3.65,3.65,0,0,1,1.3.77,3.28,3.28,0,0,1,.81,1.16,3.82,3.82,0,0,1,.28,1.45,3.41,3.41,0,0,1-.18,1.14,3.29,3.29,0,0,1-.47.87,3.22,3.22,0,0,1-.66.62,4,4,0,0,1-.77.39,3.34,3.34,0,0,1,.93.26,3,3,0,0,1,.87.57,2.81,2.81,0,0,1,.65.93,3.31,3.31,0,0,1,.25,1.38,4,4,0,0,1-1.28,3,4.71,4.71,0,0,1-1.42.87,5,5,0,0,1-1.8.32h-6.34Zm2.92,2.44v3.24h2.1a2.85,2.85,0,0,0,1.6-.36A1.5,1.5,0,0,0,185,256a1.47,1.47,0,0,0-.45-1.22,2.46,2.46,0,0,0-1.51-.36Zm0,9.12h2.4a3,3,0,0,0,1.93-.45,1.66,1.66,0,0,0,.51-1.31,1.44,1.44,0,0,0-.62-1.37,3.79,3.79,0,0,0-1.86-.35H180.8Z"/><path class="cls-2" d="M193.38,252h3v14h-3Z"/><path class="cls-2" d="M201.66,252h3v11.5h6.12V266h-9.12Z"/><path class="cls-2" d="M215,252h3v14h-3Z"/><path class="cls-2" d="M222.2,252h11.1v2.5h-4V266h-3v-11.5h-4Z"/><path class="cls-2" d="M241.76,260.09l-5.3-8.14h3.44l3.42,5.36,3.4-5.36h3.34l-5.3,8.14V266h-3Z"/></g><g id="ICON"><rect class="cls-3" x="84.95" y="164" width="54.32" height="33.42" transform="matrix(-1, 0, 0, -1, 224.21, 361.43)"/><rect class="cls-4" x="89.82" y="158.08" width="16.71" height="5.92"/><rect class="cls-4" x="117.68" y="158.08" width="16.71" height="5.92"/><rect class="cls-3" x="166.42" y="164" width="108.63" height="33.42" transform="matrix(-1, 0, 0, -1, 441.47, 361.43)"/><rect class="cls-4" x="171.3" y="158.08" width="16.71" height="5.92"/><rect class="cls-4" x="199.15" y="158.08" width="16.71" height="5.92"/><rect class="cls-4" x="225.61" y="158.08" width="16.71" height="5.92"/><rect class="cls-4" x="253.47" y="158.08" width="16.71" height="5.92"/><rect class="cls-3" x="112.11" y="130.58" width="108.63" height="33.42" transform="matrix(-1, 0, 0, -1, 332.84, 294.58)"/><rect class="cls-4" x="116.98" y="124.66" width="16.71" height="5.92"/><rect class="cls-4" x="144.83" y="124.66" width="16.71" height="5.92"/><rect class="cls-4" x="171.3" y="124.66" width="16.71" height="5.92"/><rect class="cls-4" x="199.15" y="124.66" width="16.71" height="5.92"/><rect class="cls-3" x="166.42" y="97.15" width="54.32" height="33.42" transform="matrix(-1, 0, 0, -1, 387.16, 227.73)"/><rect class="cls-4" x="171.3" y="91.23" width="16.71" height="5.92"/><rect class="cls-4" x="199.15" y="91.23" width="16.71" height="5.92"/></g></svg>