<svg xmlns="http://www.w3.org/2000/svg" viewBox="0 0 360 360"><defs><style>.cls-1{fill:#0c6e39;}.cls-2{fill:#fff;}.cls-3,.cls-4{fill:none;stroke:#0e6e39;stroke-miterlimit:10;}.cls-3{stroke-width:3px;}.cls-5{fill:#0e6e39;}</style></defs><title>CARD</title><g id="BACKGROUND"><rect class="cls-1" y="336.06" width="360" height="23.94"/><path class="cls-2" d="M207,344.09h3.65a2.89,2.89,0,0,1,1,.17,2.33,2.33,0,0,1,.78.46,2,2,0,0,1,.48.69,2.29,2.29,0,0,1,.17.87,2.08,2.08,0,0,1-.11.69,1.73,1.73,0,0,1-.68.89,2,2,0,0,1-.46.24,1.9,1.9,0,0,1,1.08.49,1.76,1.76,0,0,1,.39.56,2.05,2.05,0,0,1,.15.83,2.55,2.55,0,0,1-.2,1,2.39,2.39,0,0,1-.57.79,2.72,2.72,0,0,1-.85.53,3.14,3.14,0,0,1-1.08.19H207Zm1.75,1.46v1.95H210a1.74,1.74,0,0,0,1-.22.87.87,0,0,0,.31-.78.88.88,0,0,0-.27-.73,1.42,1.42,0,0,0-.9-.22Zm0,5.47h1.44a1.82,1.82,0,0,0,1.16-.27,1,1,0,0,0,.3-.78.85.85,0,0,0-.37-.82,2.33,2.33,0,0,0-1.11-.21h-1.42Z"/><path class="cls-2" d="M219.57,352.66a3.3,3.3,0,0,1-2.55-.87,3.35,3.35,0,0,1-.81-2.4v-5.3H218v5.31a2,2,0,0,0,.39,1.27,1.38,1.38,0,0,0,1.17.5,1.41,1.41,0,0,0,1.18-.5,2,2,0,0,0,.38-1.27v-5.31h1.8v5.3a3.39,3.39,0,0,1-.8,2.4A3.34,3.34,0,0,1,219.57,352.66Z"/><path class="cls-2" d="M226.05,344.09h1.8v8.4h-1.8Z"/><path class="cls-2" d="M231,344.09h1.8V351h3.67v1.5H231Z"/><path class="cls-2" d="M237.23,344.09h6.66v1.5h-2.42v6.9h-1.81v-6.9h-2.43Z"/><path class="cls-2" d="M250.45,352.49v-8.4h5.72v1.49h-4v1.84h3.67v1.49h-3.67V351h4v1.49Z"/><path class="cls-2" d="M259,344.09h1.87c.48.79.95,1.54,1.39,2.25l.65,1.05.5.83.48.77.38.62h0v-5.52H266v8.4h-1.87c-.48-.78-.93-1.52-1.37-2.22-.25-.42-.47-.76-.64-1l-.51-.83-.48-.79c-.16-.25-.29-.47-.41-.64h0v5.52H259Z"/><path class="cls-2" d="M270.44,344.09l.84,2.43c.16.46.29.84.39,1.16s.21.62.32.94l.3.92.25.79h0c.07-.23.16-.5.25-.8l.31-.95.34-1,.35-1q.39-1.17.84-2.43h1.85l-3.1,8.4h-1.83l-3.06-8.4Z"/><path class="cls-2" d="M279,344.09h1.8v8.4H279Z"/><path class="cls-2" d="M290.23,346.64a2.36,2.36,0,0,1-1.6,2.4l1.93,3.45h-2l-1.74-3.18h-1.11v3.18h-1.79v-8.4H287a5.47,5.47,0,0,1,1.33.15,2.84,2.84,0,0,1,1,.46,2.08,2.08,0,0,1,.65.79A2.71,2.71,0,0,1,290.23,346.64Zm-1.85,0a.91.91,0,0,0-.39-.85,2.3,2.3,0,0,0-1.18-.23h-1.08v2.26h1.08a2.08,2.08,0,0,0,1.18-.27A1,1,0,0,0,288.38,346.66Z"/><path class="cls-2" d="M292.9,348.29a5.24,5.24,0,0,1,.3-1.83,4,4,0,0,1,.82-1.38,3.7,3.7,0,0,1,1.29-.86,4.88,4.88,0,0,1,3.37,0,3.7,3.7,0,0,1,1.29.86,4,4,0,0,1,.82,1.38,5.73,5.73,0,0,1,0,3.66,3.82,3.82,0,0,1-.82,1.37,3.59,3.59,0,0,1-1.29.87,4.88,4.88,0,0,1-3.37,0,3.59,3.59,0,0,1-1.29-.87,3.82,3.82,0,0,1-.82-1.37A5.24,5.24,0,0,1,292.9,348.29Zm1.86,0a4.81,4.81,0,0,0,.14,1.17,2.72,2.72,0,0,0,.41.91,2,2,0,0,0,.7.59,2.42,2.42,0,0,0,2,0,2,2,0,0,0,.7-.59,2.72,2.72,0,0,0,.41-.91,4.81,4.81,0,0,0,.14-1.17,4.69,4.69,0,0,0-.14-1.17,2.63,2.63,0,0,0-.41-.91,1.89,1.89,0,0,0-.7-.59,2.42,2.42,0,0,0-2,0,1.89,1.89,0,0,0-.7.59,2.63,2.63,0,0,0-.41.91A4.69,4.69,0,0,0,294.76,348.29Z"/><path class="cls-2" d="M303.91,344.09h1.87l1.39,2.25.65,1.05c.17.28.34.55.5.83l.48.77c.16.24.28.45.39.62h0v-5.52h1.71v8.4h-1.87l-1.37-2.22-.64-1c-.18-.28-.35-.55-.51-.83l-.49-.79-.4-.64h0v5.52h-1.7Z"/><path class="cls-2" d="M317.79,352.49q-.18-.5-.45-1.29c-.18-.53-.36-1.09-.56-1.66s-.38-1.14-.55-1.7-.33-1-.44-1.39h0v6H314.1v-8.4h2.51c.35,1,.66,2,.94,2.82l.42,1.24c.1.32.2.62.3.91l.25.78c.07.23.13.4.16.5l.15-.5c.08-.24.16-.51.26-.83l.33-1c.11-.36.23-.72.35-1.08q.41-1.29.9-2.82h2.51v8.4h-1.66v-6h0l-.29.9c-.11.34-.23.71-.37,1.11s-.26.79-.4,1.19-.26.79-.38,1.15l-.33,1c-.1.3-.19.53-.25.7Z"/><path class="cls-2" d="M326.35,352.49v-8.4h5.72v1.49h-3.95v1.84h3.67v1.49h-3.67V351h4v1.49Z"/><path class="cls-2" d="M334.91,344.09h1.88c.48.79.95,1.54,1.39,2.25l.65,1.05c.16.28.33.55.5.83l.48.77.38.62h0v-5.52h1.7v8.4h-1.87c-.48-.78-.93-1.52-1.37-2.22-.25-.42-.47-.76-.64-1l-.51-.83-.48-.79c-.16-.25-.29-.47-.41-.64h0v5.52h-1.71Z"/><path class="cls-2" d="M344.47,344.09h6.66v1.5H348.7v6.9h-1.81v-6.9h-2.42Z"/></g><g id="LINE_ONE" data-name="LINE ONE"><path class="cls-1" d="M143.49,241.16a9.12,9.12,0,0,1,.48-3.07,6.47,6.47,0,0,1,1.37-2.29,5.75,5.75,0,0,1,2.16-1.43,7.82,7.82,0,0,1,2.85-.49,6.83,6.83,0,0,1,3.76,1,5.35,5.35,0,0,1,2.16,3l-2.92,1a3.92,3.92,0,0,0-1.08-1.83,2.86,2.86,0,0,0-2-.65,3.51,3.51,0,0,0-1.62.36,3.26,3.26,0,0,0-1.16,1,4.28,4.28,0,0,0-.69,1.51,7.77,7.77,0,0,0-.23,1.92,7.63,7.63,0,0,0,.23,1.91,4.45,4.45,0,0,0,.69,1.51,3.19,3.19,0,0,0,1.16,1,3.54,3.54,0,0,0,1.64.36,2.94,2.94,0,0,0,1.89-.58,3.53,3.53,0,0,0,1.11-1.76l2.88,1a6,6,0,0,1-2.16,2.8,6.42,6.42,0,0,1-3.76,1,7.5,7.5,0,0,1-2.79-.49,5.94,5.94,0,0,1-2.14-1.42,6.3,6.3,0,0,1-1.37-2.29A9.22,9.22,0,0,1,143.49,241.16Z"/><path class="cls-1" d="M171.15,238.42a3.94,3.94,0,0,1-2.66,4l3.22,5.74h-3.3l-2.9-5.3h-1.86v5.3h-3v-14h5.12a8.89,8.89,0,0,1,2.21.25,4.78,4.78,0,0,1,1.69.77,3.46,3.46,0,0,1,1.08,1.32A4.47,4.47,0,0,1,171.15,238.42Zm-3.08,0a1.51,1.51,0,0,0-.65-1.41,3.91,3.91,0,0,0-2-.39h-1.8v3.78h1.8a3.48,3.48,0,0,0,2-.45A1.74,1.74,0,0,0,168.07,238.44Z"/><path class="cls-1" d="M188.35,248.16h-3.1l-1.12-3.24h-5L178,248.16h-2.94l5-14h3.22Zm-6.76-10.72-.14.47c-.07.21-.14.44-.22.7s-.17.54-.27.84-.2.59-.29.87c-.23.69-.47,1.43-.74,2.22h3.38c-.27-.79-.51-1.53-.74-2.22-.15-.4-.26-.73-.35-1s-.17-.51-.24-.75-.15-.46-.21-.67-.11-.36-.14-.47Z"/><path class="cls-1" d="M192.49,248.16v-14h9.58v2.48h-6.62v3.08h6.1v2.48h-6.1v6Z"/><path class="cls-1" d="M205.89,234.16H217v2.5h-4v11.5h-3v-11.5h-4Z"/></g><g id="LINE_TWO" data-name="LINE TWO"><path class="cls-3" d="M198.59,197.8c-8.44.38-16.2-7.16-16.81-15.21a17.51,17.51,0,0,1,1.51-8.71,7.67,7.67,0,0,0-1-8.68,49.85,49.85,0,0,0-7.69-7.33c-2.14-1.74-4.24-3.55-5.28-6.19-.79-2-1.45-4.05-2.09-6.11-3.93-12.68-7.91-25.35-11.73-38.07-1.63-5.44-.39-10.53,2.72-15.19a5.9,5.9,0,0,1,.94-1.06c.86-.77,1.58-.63,2.06.42,2.28,5,4.58,10,6.81,15q11.81,26.49,23.57,53a7,7,0,0,0,6.25,4.42,23,23,0,0,1,7,1.33,16.83,16.83,0,0,1-3,32.08A30.38,30.38,0,0,1,198.59,197.8ZM189,181c-.7,4.81,4.83,10.19,9.43,9.61,5.33.53,9.86-4.74,9.92-9.29a10.07,10.07,0,0,0-9.85-10C193.1,171.24,188.33,176.55,189,181Z"/><path class="cls-3" d="M165.53,156.6a43.13,43.13,0,0,0,8.45,7.83c-.36.48-.69.91-1,1.35a6.87,6.87,0,0,0-.85,7.3,17.65,17.65,0,0,1,1.53,11.07,16,16,0,0,1-9.95,12.32,16.71,16.71,0,0,1-22.94-11.8c-2.1-9.89,4-17.59,12.1-19.9a24.27,24.27,0,0,1,4.76-.67,7.21,7.21,0,0,0,6.42-4.32C164.53,158.79,165,157.78,165.53,156.6Zm-8.43,34c4.85.55,9.77-4.29,9.79-9.55a10,10,0,0,0-9.95-9.77c-4.83,0-9.6,4.77-9.43,9.59C147.72,186.46,151.55,190.57,157.1,190.6Z"/><path class="cls-3" d="M189.73,141.37c-.63-1.36-1.18-2.51-1.7-3.67-2.2-4.94-4.39-9.89-6.61-14.83a1.88,1.88,0,0,1-.06-1.62c1.51-3.52,2.94-7.07,4.5-10.57,2.69-6.1,5.46-12.16,8.2-18.24a3.39,3.39,0,0,1,.18-.39c.76-1.57,1.59-1.74,2.69-.33A17.94,17.94,0,0,1,200.8,102c.16,3.15-.73,6-1.62,8.94q-4.55,14.73-9.1,29.46C190,140.67,189.9,140.91,189.73,141.37Z"/><circle class="cls-4" cx="177.95" cy="150.05" r="3.97"/><path class="cls-3" d="M123.45,143.1a.72.72,0,0,1-.72.72H77.62a.72.72,0,0,1-.72-.72V91.93a.72.72,0,0,1,.72-.72h45.11a.72.72,0,0,1,.72.72Z"/><path class="cls-3" d="M79.4,144.14H121c.15.52-.34.54-.73.62-2.16.47-4.36.84-6.47,1.42a27.33,27.33,0,0,0-4.92,1.87,9.51,9.51,0,0,0-5.44,7.72,26.56,26.56,0,0,0,.35,6.78c.31,2.54.64,5.08,1,7.61.42,3.36.86,6.71,1.26,10.06a42.5,42.5,0,0,1,.64,8.71,11,11,0,0,1-1.43,4.87,8.48,8.48,0,0,1-4.61,3.52,1.48,1.48,0,0,1-.86,0,8.19,8.19,0,0,1-5.57-6,19,19,0,0,1-.23-7.28c.36-2.94.74-5.87,1.11-8.81.42-3.35.87-6.7,1.26-10.06.3-2.61.62-5.23.76-7.85a9.56,9.56,0,0,0-1.51-5.7c-1.62-2.59-4.4-4.15-7.77-5.08-2.49-.7-5.09-1.18-7.64-1.76C79.72,144.67,79.27,144.64,79.4,144.14Z"/><path class="cls-5" d="M77.87,96.41V92h46V96.4c-1.55,0-3,0-4.53,0-3.36,0-5.36,1.62-5.43,4.34,0,.7,0,1.4,0,2.1a1.32,1.32,0,0,1-1.49,1.42,1.27,1.27,0,0,1-1.38-1.38c0-.78,0-1.56,0-2.33-.05-2.3-2.17-4.11-4.85-4.14s-5,1.67-5.08,4c-.07,2.66,0,5.33,0,8,0,.87-.24,1.65-1.45,1.67s-1.46-.83-1.46-1.67c0-2.58,0-5.17,0-7.76s-2.08-4.24-5.23-4.26c-4.47,0-8.94,0-13.42,0Z"/><line class="cls-4" x1="77.87" y1="132.08" x2="122.87" y2="132.08"/><circle class="cls-4" cx="100.18" cy="188.55" r="1.76"/><rect class="cls-3" x="230.43" y="97.89" width="52.67" height="29.12" rx="0.72"/><rect class="cls-3" x="249.23" y="90.43" width="15.07" height="5.83"/><rect class="cls-3" x="249.23" y="127.41" width="15.07" height="5.43"/><rect class="cls-3" x="250.52" y="132.84" width="12.39" height="64.37"/><line class="cls-4" x1="233.92" y1="97.89" x2="233.92" y2="127.01"/><line class="cls-4" x1="279.51" y1="97.89" x2="279.51" y2="127.01"/></g></svg>