<svg xmlns="http://www.w3.org/2000/svg" viewBox="0 0 360 360"><defs><style>.cls-1{fill:#fff;}</style></defs><title>CARD</title><g id="Layer_6" data-name="Layer 6"><rect y="-0.04" width="360" height="360"/></g><g id="BACKGROUND"><path class="cls-1" d="M126,144.27a54,54,0,1,1,54,54A54,54,0,0,1,126,144.27Zm100.74,0A46.74,46.74,0,1,0,179.89,191,46.83,46.83,0,0,0,226.74,144.32Z"/><path d="M226.74,144.32a46.74,46.74,0,1,1-46.5-46.78A46.83,46.83,0,0,1,226.74,144.32ZM180,103.19a41.08,41.08,0,1,0,41.1,41.06A41,41,0,0,0,180,103.19Z"/><path class="cls-1" d="M180,103.19a41.08,41.08,0,1,1-41.06,40.86A41,41,0,0,1,180,103.19Zm-.1,48.67h.26c.11.26.23.53.32.8,2.29,6.78,4.56,13.56,6.86,20.33a3.85,3.85,0,1,0,7.29-2.48c-.59-1.77-1.16-3.55-1.8-5.31a84.32,84.32,0,0,1-5.12-28c0-1.52.42-1.84,1.89-1.4,4.37,1.34,8.75,2.69,13.13,4a3.5,3.5,0,1,0,2.24-6.63c-3.23-1.18-6.51-2.23-9.73-3.46a40.37,40.37,0,0,0-14.72-2.61,40.44,40.44,0,0,0-13.08,1.71c-4.13,1.4-8.23,2.87-12.34,4.35a3.51,3.51,0,1,0,2.27,6.63l13.13-4c1.39-.43,1.86-.09,1.84,1.37a80.9,80.9,0,0,1-3.51,23.08c-1.08,3.49-2.31,6.94-3.45,10.42a3.83,3.83,0,0,0,4.06,5.11A3.71,3.71,0,0,0,172.7,173l6.83-20.25C179.63,152.43,179.76,152.15,179.88,151.86Zm.15-26.47a6.49,6.49,0,1,0-6.52-6.43A6.54,6.54,0,0,0,180,125.39Z"/><path d="M179.88,151.86c-.12.29-.25.57-.35.86L172.7,173a3.71,3.71,0,0,1-3.28,2.77,3.83,3.83,0,0,1-4.06-5.11c1.14-3.48,2.37-6.93,3.45-10.42a80.9,80.9,0,0,0,3.51-23.08c0-1.46-.45-1.8-1.84-1.37l-13.13,4a3.51,3.51,0,1,1-2.27-6.63c4.11-1.48,8.21-2.95,12.34-4.35a40.44,40.44,0,0,1,13.08-1.71,40.37,40.37,0,0,1,14.72,2.61c3.22,1.23,6.5,2.28,9.73,3.46a3.5,3.5,0,1,1-2.24,6.63c-4.38-1.33-8.76-2.68-13.13-4-1.47-.44-1.9-.12-1.89,1.4a84.32,84.32,0,0,0,5.12,28c.64,1.76,1.21,3.54,1.8,5.31a3.85,3.85,0,1,1-7.29,2.48c-2.3-6.77-4.57-13.55-6.86-20.33-.09-.27-.21-.54-.32-.8Z"/><path d="M180,125.39a6.49,6.49,0,1,1,6.47-6.49A6.54,6.54,0,0,1,180,125.39Z"/></g><g id="LINE_ONE" data-name="LINE ONE"><path class="cls-1" d="M105.54,248.12h-3.1l-1.12-3.24h-5l-1.12,3.24H92.24l5-14h3.22ZM98.78,237.4a4,4,0,0,1-.14.47c-.06.21-.14.44-.22.7s-.17.54-.27.84l-.29.87c-.22.69-.47,1.43-.74,2.22h3.38l-.74-2.22c-.15-.4-.26-.73-.35-1l-.24-.75c-.07-.24-.14-.46-.21-.67l-.14-.47Z"/><path class="cls-1" d="M108.4,241.12a9.12,9.12,0,0,1,.48-3.07,6.47,6.47,0,0,1,1.37-2.29,5.92,5.92,0,0,1,2.16-1.43,7.82,7.82,0,0,1,2.85-.49,6.81,6.81,0,0,1,3.76,1,5.31,5.31,0,0,1,2.16,3l-2.92,1a3.92,3.92,0,0,0-1.08-1.83,2.86,2.86,0,0,0-2-.65,3.51,3.51,0,0,0-1.62.36,3.26,3.26,0,0,0-1.16,1,4.47,4.47,0,0,0-.69,1.51,7.77,7.77,0,0,0-.23,1.92,7.63,7.63,0,0,0,.23,1.91,4.65,4.65,0,0,0,.69,1.51,3.19,3.19,0,0,0,1.16,1,3.57,3.57,0,0,0,1.64.36,2.92,2.92,0,0,0,1.89-.58,3.53,3.53,0,0,0,1.11-1.76l2.88,1a5.9,5.9,0,0,1-2.16,2.8,6.4,6.4,0,0,1-3.76,1,7.78,7.78,0,0,1-2.79-.49,6,6,0,0,1-2.14-1.42,6.3,6.3,0,0,1-1.37-2.29A9.22,9.22,0,0,1,108.4,241.12Z"/><path class="cls-1" d="M125,241.12a9.12,9.12,0,0,1,.48-3.07,6.47,6.47,0,0,1,1.37-2.29,5.83,5.83,0,0,1,2.16-1.43,7.82,7.82,0,0,1,2.85-.49,6.81,6.81,0,0,1,3.76,1,5.31,5.31,0,0,1,2.16,3l-2.92,1a3.92,3.92,0,0,0-1.08-1.83,2.86,2.86,0,0,0-2-.65,3.51,3.51,0,0,0-1.62.36,3.26,3.26,0,0,0-1.16,1,4.47,4.47,0,0,0-.69,1.51,7.77,7.77,0,0,0-.23,1.92,7.63,7.63,0,0,0,.23,1.91,4.65,4.65,0,0,0,.69,1.51,3.19,3.19,0,0,0,1.16,1,3.57,3.57,0,0,0,1.64.36,2.92,2.92,0,0,0,1.89-.58,3.53,3.53,0,0,0,1.11-1.76l2.88,1a5.9,5.9,0,0,1-2.16,2.8,6.4,6.4,0,0,1-3.76,1,7.74,7.74,0,0,1-2.79-.49,6,6,0,0,1-2.14-1.42,6.3,6.3,0,0,1-1.37-2.29A9.22,9.22,0,0,1,125,241.12Z"/><path class="cls-1" d="M142.18,248.12v-14h9.54v2.48h-6.58v3.08h6.12v2.48h-6.12v3.48h6.68v2.48Z"/><path class="cls-1" d="M159.18,237.8a1.34,1.34,0,0,0,.78,1.29,9.48,9.48,0,0,0,2.48.67,7.86,7.86,0,0,1,3.67,1.38,3.48,3.48,0,0,1,1.17,2.86,3.92,3.92,0,0,1-.42,1.83,4.07,4.07,0,0,1-1.17,1.38,5.54,5.54,0,0,1-1.79.88,7.77,7.77,0,0,1-2.26.31,7.68,7.68,0,0,1-2.38-.35,5.66,5.66,0,0,1-1.8-.93,4.41,4.41,0,0,1-1.16-1.36,3.81,3.81,0,0,1-.46-1.62l3-.48a2.56,2.56,0,0,0,.79,1.67,2.84,2.84,0,0,0,2,.65,4.61,4.61,0,0,0,1-.1,2.52,2.52,0,0,0,.82-.33A1.66,1.66,0,0,0,164,245a1.63,1.63,0,0,0,.2-.82,1.35,1.35,0,0,0-.65-1.2,6.31,6.31,0,0,0-2.29-.68,16.15,16.15,0,0,1-2-.46,5.47,5.47,0,0,1-1.63-.77,3.51,3.51,0,0,1-1.08-1.22,3.76,3.76,0,0,1-.39-1.79,4.06,4.06,0,0,1,.4-1.84,3.72,3.72,0,0,1,1.12-1.31,5,5,0,0,1,1.7-.79,8.54,8.54,0,0,1,2.14-.26,7.71,7.71,0,0,1,2,.25,5.51,5.51,0,0,1,1.67.74A4.36,4.36,0,0,1,166.4,236a4.49,4.49,0,0,1,.66,1.64l-3,.66a2.45,2.45,0,0,0-.82-1.52,2.67,2.67,0,0,0-1.78-.56,2.78,2.78,0,0,0-1.69.42A1.33,1.33,0,0,0,159.18,237.8Z"/><path class="cls-1" d="M174.66,237.8a1.34,1.34,0,0,0,.78,1.29,9.48,9.48,0,0,0,2.48.67,7.86,7.86,0,0,1,3.67,1.38,3.48,3.48,0,0,1,1.17,2.86,3.92,3.92,0,0,1-.42,1.83,4.07,4.07,0,0,1-1.17,1.38,5.65,5.65,0,0,1-1.79.88,8.33,8.33,0,0,1-4.64,0,5.77,5.77,0,0,1-1.8-.93,4.41,4.41,0,0,1-1.16-1.36,3.81,3.81,0,0,1-.46-1.62l3-.48a2.56,2.56,0,0,0,.79,1.67,2.84,2.84,0,0,0,2,.65,4.61,4.61,0,0,0,1-.1,2.43,2.43,0,0,0,.82-.33,1.58,1.58,0,0,0,.55-.57,1.63,1.63,0,0,0,.2-.82,1.35,1.35,0,0,0-.65-1.2,6.25,6.25,0,0,0-2.29-.68,16.15,16.15,0,0,1-2-.46,5.59,5.59,0,0,1-1.63-.77,3.51,3.51,0,0,1-1.08-1.22,3.76,3.76,0,0,1-.39-1.79,3.93,3.93,0,0,1,.4-1.84,3.72,3.72,0,0,1,1.12-1.31,5,5,0,0,1,1.7-.79,8.48,8.48,0,0,1,2.14-.26,7.71,7.71,0,0,1,2,.25,5.41,5.41,0,0,1,1.67.74,4.36,4.36,0,0,1,1.21,1.21,4.49,4.49,0,0,1,.66,1.64l-3,.66a2.45,2.45,0,0,0-.82-1.52,2.67,2.67,0,0,0-1.78-.56,2.78,2.78,0,0,0-1.69.42A1.35,1.35,0,0,0,174.66,237.8Z"/><path class="cls-1" d="M187.42,234.12h3v14h-3Z"/><path class="cls-1" d="M195.7,234.12h6.08a5,5,0,0,1,1.75.28,3.8,3.8,0,0,1,1.3.77,3.25,3.25,0,0,1,.81,1.16,3.67,3.67,0,0,1,.28,1.45,3.33,3.33,0,0,1-.18,1.14,3.29,3.29,0,0,1-.47.87,2.77,2.77,0,0,1-.66.62,3.1,3.1,0,0,1-.77.39,3.6,3.6,0,0,1,.93.26,2.87,2.87,0,0,1,1.52,1.5,3.31,3.31,0,0,1,.25,1.38,4,4,0,0,1-1.28,3,4.34,4.34,0,0,1-1.42.87,5,5,0,0,1-1.8.32H195.7Zm2.92,2.44v3.24h2.1a2.85,2.85,0,0,0,1.6-.36,1.46,1.46,0,0,0,.52-1.3,1.48,1.48,0,0,0-.45-1.22,2.44,2.44,0,0,0-1.51-.36Zm0,9.12H201a3,3,0,0,0,1.93-.45,1.66,1.66,0,0,0,.51-1.31,1.42,1.42,0,0,0-.62-1.37,3.91,3.91,0,0,0-1.86-.35h-2.36Z"/><path class="cls-1" d="M211.2,234.12h3v14h-3Z"/><path class="cls-1" d="M219.48,234.12h3v11.5h6.12v2.5h-9.12Z"/><path class="cls-1" d="M232.8,234.12h3v14h-3Z"/><path class="cls-1" d="M240,234.12h11.1v2.5h-4v11.5h-3v-11.5h-4Z"/><path class="cls-1" d="M259.58,242.26l-5.3-8.14h3.44l3.42,5.36,3.4-5.36h3.34l-5.3,8.14v5.86h-3Z"/></g></svg>