<svg xmlns="http://www.w3.org/2000/svg" viewBox="0 0 360 360"><defs><style>.cls-1{fill:#fff;}</style></defs><title>CARD</title><g id="Layer_6" data-name="Layer 6"><rect y="-0.13" width="360" height="360"/></g><g id="LINE_ONE" data-name="LINE ONE"><path class="cls-1" d="M94.62,237.71A1.34,1.34,0,0,0,95.4,239a9.48,9.48,0,0,0,2.48.67,7.86,7.86,0,0,1,3.67,1.38,3.49,3.49,0,0,1,1.17,2.86,3.92,3.92,0,0,1-.42,1.83,4.07,4.07,0,0,1-1.17,1.38,5.35,5.35,0,0,1-1.79.88,8.33,8.33,0,0,1-4.64,0,5.88,5.88,0,0,1-1.8-.93,4.3,4.3,0,0,1-1.16-1.36,3.81,3.81,0,0,1-.46-1.62l3-.48a2.56,2.56,0,0,0,.79,1.67,2.8,2.8,0,0,0,2,.65,4.61,4.61,0,0,0,1-.1,2.24,2.24,0,0,0,.82-.33,1.58,1.58,0,0,0,.55-.57,1.51,1.51,0,0,0,.2-.82,1.35,1.35,0,0,0-.65-1.2,6.25,6.25,0,0,0-2.29-.68,16.15,16.15,0,0,1-2-.46,5.34,5.34,0,0,1-1.63-.77A3.42,3.42,0,0,1,92,239.74a3.73,3.73,0,0,1-.39-1.79,4.09,4.09,0,0,1,.4-1.84,3.72,3.72,0,0,1,1.12-1.31,5.22,5.22,0,0,1,1.7-.79,8.54,8.54,0,0,1,2.14-.26,8.1,8.1,0,0,1,2,.25,5.65,5.65,0,0,1,1.67.74,4.36,4.36,0,0,1,1.21,1.21,4.49,4.49,0,0,1,.66,1.64l-3,.66a2.43,2.43,0,0,0-.82-1.52,2.67,2.67,0,0,0-1.78-.56,2.78,2.78,0,0,0-1.69.42A1.36,1.36,0,0,0,94.62,237.71Z"/><path class="cls-1" d="M106.8,241a9.16,9.16,0,0,1,.48-3.07,6.47,6.47,0,0,1,1.37-2.29,6,6,0,0,1,2.16-1.43,8,8,0,0,1,2.85-.49,6.83,6.83,0,0,1,3.76,1,5.34,5.34,0,0,1,2.16,3l-2.92,1a4,4,0,0,0-1.08-1.83,2.86,2.86,0,0,0-2-.65,3.51,3.51,0,0,0-1.62.36,3.35,3.35,0,0,0-1.16,1,4.67,4.67,0,0,0-.69,1.51,7.77,7.77,0,0,0-.23,1.92,7.57,7.57,0,0,0,.23,1.91,4.87,4.87,0,0,0,.69,1.51,3.28,3.28,0,0,0,1.16,1,3.57,3.57,0,0,0,1.64.36,2.9,2.9,0,0,0,1.89-.58,3.48,3.48,0,0,0,1.11-1.76l2.88,1a5.9,5.9,0,0,1-2.16,2.8,6.4,6.4,0,0,1-3.76,1,7.57,7.57,0,0,1-2.79-.49,5.9,5.9,0,0,1-2.14-1.42,6.3,6.3,0,0,1-1.37-2.29A9.18,9.18,0,0,1,106.8,241Z"/><path class="cls-1" d="M124,234h3v5.54h5.3V234h3v14h-3v-5.94H127V248h-3Z"/><path class="cls-1" d="M140,241a9.08,9.08,0,0,1,.49-3.05,6.64,6.64,0,0,1,1.38-2.29,6,6,0,0,1,2.15-1.44,8.09,8.09,0,0,1,5.6,0,5.94,5.94,0,0,1,2.15,1.44,6.35,6.35,0,0,1,1.38,2.29,9.74,9.74,0,0,1,0,6.1,6.27,6.27,0,0,1-1.38,2.29,5.82,5.82,0,0,1-2.15,1.44,8.09,8.09,0,0,1-5.6,0,5.9,5.9,0,0,1-2.15-1.44,6.55,6.55,0,0,1-1.38-2.29A9,9,0,0,1,140,241Zm3.1,0a7.9,7.9,0,0,0,.23,1.95,4.73,4.73,0,0,0,.69,1.52,3.22,3.22,0,0,0,1.16,1,3.57,3.57,0,0,0,1.64.35,3.51,3.51,0,0,0,1.64-.35,3.06,3.06,0,0,0,1.16-1,4.33,4.33,0,0,0,.69-1.52,8.38,8.38,0,0,0,0-3.9,4.33,4.33,0,0,0-.69-1.52,3.06,3.06,0,0,0-1.16-1,3.64,3.64,0,0,0-1.64-.35,3.7,3.7,0,0,0-1.64.35,3.22,3.22,0,0,0-1.16,1,4.73,4.73,0,0,0-.69,1.52A8,8,0,0,0,143.08,241Z"/><path class="cls-1" d="M157.94,241a9.08,9.08,0,0,1,.49-3.05,6.64,6.64,0,0,1,1.38-2.29,5.94,5.94,0,0,1,2.15-1.44,8.09,8.09,0,0,1,5.6,0,5.94,5.94,0,0,1,2.15,1.44,6.35,6.35,0,0,1,1.38,2.29,9.74,9.74,0,0,1,0,6.1,6.27,6.27,0,0,1-1.38,2.29,5.82,5.82,0,0,1-2.15,1.44,8.09,8.09,0,0,1-5.6,0,5.82,5.82,0,0,1-2.15-1.44,6.55,6.55,0,0,1-1.38-2.29A9,9,0,0,1,157.94,241Zm3.1,0a7.9,7.9,0,0,0,.23,1.95,4.52,4.52,0,0,0,.69,1.52,3.14,3.14,0,0,0,1.16,1,3.57,3.57,0,0,0,1.64.35,3.51,3.51,0,0,0,1.64-.35,3.06,3.06,0,0,0,1.16-1,4.33,4.33,0,0,0,.69-1.52,8.38,8.38,0,0,0,0-3.9,4.33,4.33,0,0,0-.69-1.52,3.06,3.06,0,0,0-1.16-1,3.64,3.64,0,0,0-1.64-.35,3.7,3.7,0,0,0-1.64.35,3.14,3.14,0,0,0-1.16,1,4.52,4.52,0,0,0-.69,1.52A8,8,0,0,0,161,241Z"/><path class="cls-1" d="M176.28,234h3v11.5h6.12V248h-9.12Z"/><path class="cls-1" d="M199,237.71a1.34,1.34,0,0,0,.78,1.29,9.48,9.48,0,0,0,2.48.67,7.86,7.86,0,0,1,3.67,1.38,3.49,3.49,0,0,1,1.17,2.86,3.92,3.92,0,0,1-.42,1.83,4.07,4.07,0,0,1-1.17,1.38,5.35,5.35,0,0,1-1.79.88,8.33,8.33,0,0,1-4.64,0,5.88,5.88,0,0,1-1.8-.93,4.3,4.3,0,0,1-1.16-1.36,3.81,3.81,0,0,1-.46-1.62l3-.48a2.56,2.56,0,0,0,.79,1.67,2.8,2.8,0,0,0,2,.65,4.61,4.61,0,0,0,1-.1,2.24,2.24,0,0,0,.82-.33,1.58,1.58,0,0,0,.55-.57,1.61,1.61,0,0,0,.2-.82,1.33,1.33,0,0,0-.65-1.2,6.25,6.25,0,0,0-2.29-.68,16.15,16.15,0,0,1-2-.46,5.23,5.23,0,0,1-1.63-.77,3.42,3.42,0,0,1-1.08-1.22A3.73,3.73,0,0,1,196,238a4,4,0,0,1,.4-1.84,3.72,3.72,0,0,1,1.12-1.31,5.22,5.22,0,0,1,1.7-.79,8.54,8.54,0,0,1,2.14-.26,8.16,8.16,0,0,1,2,.25,5.65,5.65,0,0,1,1.67.74,4.36,4.36,0,0,1,1.21,1.21,4.49,4.49,0,0,1,.66,1.64l-3,.66a2.43,2.43,0,0,0-.82-1.52,2.67,2.67,0,0,0-1.78-.56,2.78,2.78,0,0,0-1.69.42A1.34,1.34,0,0,0,199,237.71Z"/><path class="cls-1" d="M214.76,243.11V248h-3V234h5.32a9.4,9.4,0,0,1,2.28.26,5,5,0,0,1,1.74.8,3.6,3.6,0,0,1,1.12,1.38,4.64,4.64,0,0,1,.4,2,4.72,4.72,0,0,1-.41,2.07,3.85,3.85,0,0,1-1.14,1.44,4.75,4.75,0,0,1-1.75.84,8.7,8.7,0,0,1-2.24.27Zm4.82-4.62a1.68,1.68,0,0,0-.69-1.56,4.09,4.09,0,0,0-2.09-.42h-2v4.12h2a3.5,3.5,0,0,0,2.09-.5A1.88,1.88,0,0,0,219.58,238.49Z"/><path class="cls-1" d="M227,234h3v14h-3Z"/><path class="cls-1" d="M245.8,238.29a3.94,3.94,0,0,1-2.66,4l3.22,5.74h-3.3l-2.9-5.3H238.3V248h-3V234h5.12a8.89,8.89,0,0,1,2.21.25,5,5,0,0,1,1.69.77,3.46,3.46,0,0,1,1.08,1.32A4.5,4.5,0,0,1,245.8,238.29Zm-3.08,0a1.51,1.51,0,0,0-.65-1.41,3.91,3.91,0,0,0-2-.39h-1.8v3.78h1.8a3.48,3.48,0,0,0,2-.45A1.74,1.74,0,0,0,242.72,238.31Z"/><path class="cls-1" d="M250.84,234h3v14h-3Z"/><path class="cls-1" d="M258.06,234h11.1v2.5h-4V248h-3v-11.5h-4Z"/></g><g id="ICON"><path class="cls-1" d="M126.16,160.18l6.4-6.86s-.28-.58-.61-1.12c-1.11-1.79-.8-3.08,1.11-4.16q9-5.11,17.95-10.41a9.63,9.63,0,0,0,2.79-2.53c7.62-10.39,15.16-20.83,22.74-31.25,1.77-2.44,3.24-2.43,4.74.17q13.36,23.07,26.66,46.18c1.45,2.53.6,3.9-2.23,4.19-10,1-20,2.16-30,3.23-2.48.26-5,.38-7.45.67-1.48.18-2.92.57-4.84,1l4.11,7.16c2.25-1.3,4.36-2.47,6.42-3.72,1.86-1.13,3.29-.94,4.39,1.07,1.4,2.53,2.89,5,4.3,7.54,1.28,2.29,1,3.08-1.32,4.45L175,179.38,180.5,189c1.55,2.74,1.38,3.39-1.35,5-1.94,1.13-3.89,2.26-5.86,3.35-2.29,1.28-3.15,1.06-4.49-1.26q-8-13.89-16-27.8c-.32-.55-.7-1.06-1.11-1.69l-5.26,3c-3,1.71-3.4,1.61-5.17-1.24-.21-.34-.45-.66-.78-1.15-.79.42-1.56.8-2.3,1.22-5,2.85-8.67,1.69-11.17-3.56-.28-.57-.54-1.14-.81-1.71Zm52.6-51.84c-7.15,9.79-14.1,19.27-21,28.81a2.85,2.85,0,0,0-.15,2.5q3.61,6.67,7.56,13.18a2.85,2.85,0,0,0,2.21,1.12c5.54-.44,11.06-1,16.58-1.59,1.86-.2,3.7-.53,5.8-.83l-10.57-18.32a20.55,20.55,0,0,1-2.15-4,2.82,2.82,0,0,1,.86-2.59c.62-.35,1.9.14,2.72.59.55.31.8,1.17,1.16,1.8,3.89,6.76,7.76,13.54,11.71,20.27.42.72,1.32,1.65,2,1.65,2.36,0,4.71-.39,7.43-.66C194.8,136.14,186.86,122.37,178.76,108.34Zm-17,47.3-8.28-14.35-17.09,9.89,8.32,14.35Zm14.64,34.8c-5.54-9.59-11-19-16.55-28.65l-4.31,2.54L172.07,193Zm-6.66-20.27,3.19,5.42,5.38-3.17-3.15-5.36Zm-34.82-12.79c-1.58,1.6-3.31,2.82-4.17,4.48-.34.64,1.29,3.3,2,3.3,1.86,0,3.72-1,5.76-1.59Z"/><path class="cls-1" d="M235.09,132.1a11.56,11.56,0,0,1-3.27,1.06c-7.32.1-14.65.05-22,.06-1.44,0-2.87,0-2.94-2s1.4-2.24,3-2.24c7.32,0,14.65-.05,22,.05,1.09,0,2.17.73,3.26,1.12Z"/><path class="cls-1" d="M225,111.23a5.5,5.5,0,0,1-1.35,1.56c-6.64,3.91-13.29,7.81-20,11.53a3.26,3.26,0,0,1-3.06-.52c-1-1.1-.41-2.42.93-3.19,6.67-3.85,13.33-7.73,20-11.52C223.39,108,225,108.9,225,111.23Z"/><path class="cls-1" d="M212.65,91.67a22.65,22.65,0,0,1-1,2.25c-3.67,6.41-7.37,12.79-11,19.2-.79,1.39-1.88,2.19-3.34,1.39s-1.21-2.25-.45-3.57c3.77-6.53,7.49-13.1,11.37-19.56a3.75,3.75,0,0,1,2.69-1.3C211.42,90,212,91.08,212.65,91.67Z"/><path d="M178.76,108.34c8.1,14,16,27.8,24.19,41.91-2.72.27-5.07.65-7.43.66-.67,0-1.57-.93-2-1.65-3.95-6.73-7.82-13.51-11.71-20.27-.36-.63-.61-1.49-1.16-1.8-.82-.45-2.1-.94-2.72-.59a2.82,2.82,0,0,0-.86,2.59,20.55,20.55,0,0,0,2.15,4l10.57,18.32c-2.1.3-3.94.63-5.8.83-5.52.58-11,1.15-16.58,1.59a2.85,2.85,0,0,1-2.21-1.12q-3.93-6.51-7.56-13.18a2.85,2.85,0,0,1,.15-2.5C164.66,127.61,171.61,118.13,178.76,108.34Z"/><path d="M161.73,155.64l-17,9.89-8.32-14.35,17.09-9.89Z"/><path d="M176.37,190.44l-4.3,2.56-16.56-28.67,4.31-2.54C165.37,171.41,170.83,180.85,176.37,190.44Z"/><path d="M169.71,170.17l5.42-3.11,3.15,5.36-5.38,3.17Z"/><path d="M134.89,157.38l3.62,6.19c-2,.63-3.9,1.61-5.76,1.59-.74,0-2.37-2.66-2-3.3C131.58,160.2,133.31,159,134.89,157.38Z"/></g></svg>