<svg xmlns="http://www.w3.org/2000/svg" viewBox="0 0 360 360"><defs><style>.cls-1{fill:#216885;}.cls-2{fill:#fff;}.cls-3{fill:#236886;}.cls-4,.cls-5{fill:none;stroke:#236886;stroke-miterlimit:10;stroke-width:5px;}.cls-5{stroke-linecap:round;}</style></defs><title>CARD</title><g id="BACKGROUND"><rect class="cls-1" y="336.06" width="360" height="23.94"/><path class="cls-2" d="M290.57,346.29a.82.82,0,0,0,.47.78,5.75,5.75,0,0,0,1.49.4,4.68,4.68,0,0,1,2.2.83,2.07,2.07,0,0,1,.7,1.71,2.32,2.32,0,0,1-.25,1.1,2.43,2.43,0,0,1-.7.83,3.4,3.4,0,0,1-1.08.53,4.79,4.79,0,0,1-1.35.18,4.53,4.53,0,0,1-1.43-.21,3.54,3.54,0,0,1-1.08-.55,2.71,2.71,0,0,1-.7-.82,2.15,2.15,0,0,1-.27-1l1.8-.29a1.55,1.55,0,0,0,.47,1,1.71,1.71,0,0,0,1.21.39,2.91,2.91,0,0,0,.6-.06,1.38,1.38,0,0,0,.5-.2,1,1,0,0,0,.33-.34,1,1,0,0,0,.11-.49.82.82,0,0,0-.38-.72,3.92,3.92,0,0,0-1.38-.41,9.6,9.6,0,0,1-1.22-.27,3.43,3.43,0,0,1-1-.47,2.07,2.07,0,0,1-.65-.73,2.32,2.32,0,0,1-.23-1.07,2.42,2.42,0,0,1,.24-1.11,2.18,2.18,0,0,1,.67-.78,3.21,3.21,0,0,1,1-.48,5.17,5.17,0,0,1,1.28-.15,4.61,4.61,0,0,1,1.21.15,3.55,3.55,0,0,1,1,.44,2.63,2.63,0,0,1,.72.73,2.67,2.67,0,0,1,.4,1l-1.82.4a1.44,1.44,0,0,0-.5-.91,1.55,1.55,0,0,0-1.06-.34,1.67,1.67,0,0,0-1,.25A.8.8,0,0,0,290.57,346.29Z"/><path class="cls-2" d="M297.29,344.09H304v1.5h-2.42v6.9h-1.81v-6.9h-2.43Z"/><path class="cls-2" d="M309.79,352.65a3.33,3.33,0,0,1-2.55-.86,3.38,3.38,0,0,1-.8-2.4v-5.3h1.8v5.31a2,2,0,0,0,.38,1.27,1.63,1.63,0,0,0,2.35,0,2,2,0,0,0,.39-1.27v-5.31h1.8v5.3a3.38,3.38,0,0,1-.81,2.4A3.33,3.33,0,0,1,309.79,352.65Z"/><path class="cls-2" d="M316.28,344.09h3.13a4.89,4.89,0,0,1,1.72.28,3.5,3.5,0,0,1,1.3.81,3.67,3.67,0,0,1,.81,1.32,5.83,5.83,0,0,1,0,3.57,3.67,3.67,0,0,1-.81,1.32,3.38,3.38,0,0,1-1.3.81,4.88,4.88,0,0,1-1.72.29h-3.13Zm5.38,4.2a4.23,4.23,0,0,0-.13-1.11,2.65,2.65,0,0,0-.42-.86,1.78,1.78,0,0,0-.72-.55,2.49,2.49,0,0,0-1-.2h-1.27V351h1.27a2.67,2.67,0,0,0,1-.19,1.9,1.9,0,0,0,.72-.56,2.7,2.7,0,0,0,.42-.85A4.33,4.33,0,0,0,321.66,348.29Z"/><path class="cls-2" d="M326.34,352.49v-8.4h5.73v1.48h-3.95v1.85h3.67v1.49h-3.67V351h4v1.49Z"/><path class="cls-2" d="M334.91,344.09h1.87l1.39,2.25c.27.43.49.78.65,1.05l.51.82.48.78.38.62h0v-5.52h1.7v8.4h-1.87l-1.37-2.22-.64-1-.51-.83-.49-.79-.4-.64h0v5.52h-1.71Z"/><path class="cls-2" d="M344.46,344.09h6.66v1.5H348.7v6.9h-1.81v-6.9h-2.43Z"/></g><g id="LINE_ONE" data-name="LINE ONE"><path class="cls-3" d="M79.34,248.16h-3.1l-1.12-3.24h-5L69,248.16H66l5-14H74.3Zm-6.76-10.72c0,.11-.07.26-.14.47s-.14.44-.22.7-.17.54-.27.84l-.29.87c-.23.69-.47,1.43-.74,2.22H74.3c-.27-.79-.51-1.53-.74-2.22-.15-.4-.26-.73-.35-1s-.17-.51-.24-.75-.14-.46-.21-.67-.11-.36-.14-.47Z"/><path class="cls-3" d="M82.2,241.16a9.12,9.12,0,0,1,.48-3.07,6.47,6.47,0,0,1,1.37-2.29,5.75,5.75,0,0,1,2.16-1.43,7.82,7.82,0,0,1,2.85-.49,6.83,6.83,0,0,1,3.76,1,5.35,5.35,0,0,1,2.16,3l-2.92,1A3.92,3.92,0,0,0,91,237a2.86,2.86,0,0,0-2-.65,3.51,3.51,0,0,0-1.62.36,3.26,3.26,0,0,0-1.16,1,4.28,4.28,0,0,0-.69,1.51,7.77,7.77,0,0,0-.23,1.92,7.63,7.63,0,0,0,.23,1.91,4.45,4.45,0,0,0,.69,1.51,3.19,3.19,0,0,0,1.16,1,3.54,3.54,0,0,0,1.64.36,2.94,2.94,0,0,0,1.89-.58A3.53,3.53,0,0,0,92,243.6l2.88,1a6,6,0,0,1-2.16,2.8,6.42,6.42,0,0,1-3.76,1,7.5,7.5,0,0,1-2.79-.49,5.94,5.94,0,0,1-2.14-1.42,6.3,6.3,0,0,1-1.37-2.29A9.22,9.22,0,0,1,82.2,241.16Z"/><path class="cls-3" d="M98.8,241.16a9.12,9.12,0,0,1,.48-3.07,6.47,6.47,0,0,1,1.37-2.29,5.75,5.75,0,0,1,2.16-1.43,7.82,7.82,0,0,1,2.85-.49,6.83,6.83,0,0,1,3.76,1,5.35,5.35,0,0,1,2.16,3l-2.92,1a3.92,3.92,0,0,0-1.08-1.83,2.86,2.86,0,0,0-2-.65,3.51,3.51,0,0,0-1.62.36,3.26,3.26,0,0,0-1.16,1,4.28,4.28,0,0,0-.69,1.51,7.77,7.77,0,0,0-.23,1.92,7.63,7.63,0,0,0,.23,1.91,4.45,4.45,0,0,0,.69,1.51,3.19,3.19,0,0,0,1.16,1,3.54,3.54,0,0,0,1.64.36,2.94,2.94,0,0,0,1.89-.58,3.53,3.53,0,0,0,1.11-1.76l2.88,1a6,6,0,0,1-2.16,2.8,6.42,6.42,0,0,1-3.76,1,7.5,7.5,0,0,1-2.79-.49,5.94,5.94,0,0,1-2.14-1.42,6.3,6.3,0,0,1-1.37-2.29A9.22,9.22,0,0,1,98.8,241.16Z"/><path class="cls-3" d="M116,248.16v-14h9.54v2.48h-6.58v3.08h6.12v2.48h-6.12v3.48h6.68v2.48Z"/><path class="cls-3" d="M133,237.84a1.34,1.34,0,0,0,.78,1.29,9.48,9.48,0,0,0,2.48.67,7.86,7.86,0,0,1,3.67,1.38,3.48,3.48,0,0,1,1.17,2.86,3.92,3.92,0,0,1-.42,1.83,4.07,4.07,0,0,1-1.17,1.38,5.65,5.65,0,0,1-1.79.88,7.77,7.77,0,0,1-2.26.31,7.68,7.68,0,0,1-2.38-.35,5.66,5.66,0,0,1-1.8-.93,4.41,4.41,0,0,1-1.16-1.36,3.81,3.81,0,0,1-.46-1.62l3-.48a2.56,2.56,0,0,0,.79,1.67,2.84,2.84,0,0,0,2,.65,4.61,4.61,0,0,0,1-.1,2.52,2.52,0,0,0,.82-.33,1.66,1.66,0,0,0,.55-.57,1.63,1.63,0,0,0,.2-.82,1.35,1.35,0,0,0-.65-1.2,6.31,6.31,0,0,0-2.29-.68,16.15,16.15,0,0,1-2-.46,5.47,5.47,0,0,1-1.63-.77,3.51,3.51,0,0,1-1.08-1.22,3.76,3.76,0,0,1-.39-1.79,3.93,3.93,0,0,1,.4-1.84,3.72,3.72,0,0,1,1.12-1.31,5,5,0,0,1,1.7-.79,8.48,8.48,0,0,1,2.14-.26,7.71,7.71,0,0,1,2,.25,5.51,5.51,0,0,1,1.67.74,4.36,4.36,0,0,1,1.21,1.21,4.49,4.49,0,0,1,.66,1.64l-3,.66a2.45,2.45,0,0,0-.82-1.52,2.67,2.67,0,0,0-1.78-.56,2.78,2.78,0,0,0-1.69.42A1.33,1.33,0,0,0,133,237.84Z"/><path class="cls-3" d="M148.46,237.84a1.34,1.34,0,0,0,.78,1.29,9.48,9.48,0,0,0,2.48.67,7.86,7.86,0,0,1,3.67,1.38,3.48,3.48,0,0,1,1.17,2.86,3.92,3.92,0,0,1-.42,1.83,4.07,4.07,0,0,1-1.17,1.38,5.65,5.65,0,0,1-1.79.88,7.77,7.77,0,0,1-2.26.31,7.68,7.68,0,0,1-2.38-.35,5.66,5.66,0,0,1-1.8-.93,4.41,4.41,0,0,1-1.16-1.36,3.81,3.81,0,0,1-.46-1.62l3-.48a2.56,2.56,0,0,0,.79,1.67,2.84,2.84,0,0,0,2,.65,4.61,4.61,0,0,0,1-.1,2.52,2.52,0,0,0,.82-.33,1.66,1.66,0,0,0,.55-.57,1.63,1.63,0,0,0,.2-.82,1.35,1.35,0,0,0-.65-1.2,6.31,6.31,0,0,0-2.29-.68,16.15,16.15,0,0,1-2-.46,5.47,5.47,0,0,1-1.63-.77,3.51,3.51,0,0,1-1.08-1.22,3.76,3.76,0,0,1-.39-1.79,3.93,3.93,0,0,1,.4-1.84,3.72,3.72,0,0,1,1.12-1.31,5,5,0,0,1,1.7-.79,8.48,8.48,0,0,1,2.14-.26,7.71,7.71,0,0,1,2,.25,5.51,5.51,0,0,1,1.67.74,4.36,4.36,0,0,1,1.21,1.21,4.49,4.49,0,0,1,.66,1.64l-3,.66a2.45,2.45,0,0,0-.82-1.52,2.67,2.67,0,0,0-1.78-.56,2.78,2.78,0,0,0-1.69.42A1.33,1.33,0,0,0,148.46,237.84Z"/><path class="cls-3" d="M166.86,234.16H178v2.5h-4v11.5h-3v-11.5h-4Z"/><path class="cls-3" d="M181,241.16a8.83,8.83,0,0,1,.49-3,6.64,6.64,0,0,1,1.38-2.29,5.82,5.82,0,0,1,2.15-1.44,8.09,8.09,0,0,1,5.6,0,5.9,5.9,0,0,1,2.15,1.44,6.64,6.64,0,0,1,1.38,2.29,9.74,9.74,0,0,1,0,6.1,6.64,6.64,0,0,1-1.38,2.29,5.9,5.9,0,0,1-2.15,1.44,8.09,8.09,0,0,1-5.6,0,5.82,5.82,0,0,1-2.15-1.44,6.64,6.64,0,0,1-1.38-2.29A8.83,8.83,0,0,1,181,241.16Zm3.1,0a7.45,7.45,0,0,0,.23,2,4.33,4.33,0,0,0,.69,1.52,3.14,3.14,0,0,0,1.16,1,4,4,0,0,0,3.28,0,3.22,3.22,0,0,0,1.16-1,4.52,4.52,0,0,0,.69-1.52,8.38,8.38,0,0,0,0-3.9,4.52,4.52,0,0,0-.69-1.52,3.22,3.22,0,0,0-1.16-1,4,4,0,0,0-3.28,0,3.14,3.14,0,0,0-1.16,1,4.33,4.33,0,0,0-.69,1.52A7.45,7.45,0,0,0,184.1,241.16Z"/><path class="cls-3" d="M206,234.16h3.12l2.32,3.76,1.08,1.75.84,1.37.8,1.29.64,1h.06v-9.2h2.84v14h-3.12l-2.28-3.7-1.07-1.73c-.29-.46-.57-.92-.85-1.38l-.81-1.32c-.26-.42-.48-.78-.67-1.07h-.06v9.2H206Z"/><path class="cls-3" d="M235.18,248.16h-3.1L231,244.92h-5l-1.12,3.24h-2.94l5-14h3.22Zm-6.76-10.72c0,.11-.07.26-.14.47s-.14.44-.22.7-.17.54-.27.84l-.29.87c-.23.69-.47,1.43-.74,2.22h3.38c-.27-.79-.51-1.53-.74-2.22-.15-.4-.26-.73-.35-1s-.17-.51-.24-.75-.14-.46-.21-.67-.11-.36-.14-.47Z"/><path class="cls-3" d="M236.66,234.16h11.1v2.5h-4v11.5h-3v-11.5h-4Z"/><path class="cls-3" d="M257.5,248.44a4.9,4.9,0,0,1-5.6-5.44v-8.84h3V243a3.33,3.33,0,0,0,.64,2.11,2.73,2.73,0,0,0,3.92,0,3.4,3.4,0,0,0,.64-2.11v-8.86h3V243a5.65,5.65,0,0,1-1.34,4A5.59,5.59,0,0,1,257.5,248.44Z"/><path class="cls-3" d="M278.78,238.42a4.24,4.24,0,0,1-.71,2.54,4.31,4.31,0,0,1-1.95,1.46l3.22,5.74H276l-2.9-5.3h-1.86v5.3h-3v-14h5.12a8.89,8.89,0,0,1,2.21.25,4.78,4.78,0,0,1,1.69.77,3.66,3.66,0,0,1,1.08,1.32A4.47,4.47,0,0,1,278.78,238.42Zm-3.08,0a1.51,1.51,0,0,0-.65-1.41,3.93,3.93,0,0,0-2-.39h-1.8v3.78h1.8a3.5,3.5,0,0,0,2-.45A1.74,1.74,0,0,0,275.7,238.44Z"/><path class="cls-3" d="M283.82,248.16v-14h9.54v2.48h-6.58v3.08h6.12v2.48h-6.12v3.48h6.68v2.48Z"/></g><g id="ICON"><line class="cls-4" x1="128.86" y1="90.48" x2="128.86" y2="196.27"/><polyline class="cls-5" points="109.07 110.36 128.95 90.48 148.65 110.19"/><polyline class="cls-5" points="109.07 127.3 128.95 107.42 148.65 127.12"/><polyline class="cls-5" points="109.07 144.23 128.95 124.36 148.65 144.06"/><polyline class="cls-5" points="109.07 161.17 128.95 141.29 148.65 161"/><line class="cls-4" x1="231.08" y1="90.48" x2="231.08" y2="196.27"/><polyline class="cls-5" points="211.29 110.36 231.17 90.48 250.87 110.19"/><polyline class="cls-5" points="211.29 127.3 231.17 107.42 250.87 127.12"/><polyline class="cls-5" points="211.29 144.23 231.17 124.36 250.87 144.06"/><polyline class="cls-5" points="211.29 161.17 231.17 141.29 250.87 161"/><line class="cls-4" x1="179.97" y1="90.48" x2="179.97" y2="196.27"/><polyline class="cls-5" points="160.18 110.36 180.06 90.48 199.76 110.19"/><polyline class="cls-5" points="160.18 127.3 180.06 107.42 199.76 127.12"/><polyline class="cls-5" points="160.18 144.23 180.06 124.36 199.76 144.06"/><polyline class="cls-5" points="160.18 161.17 180.06 141.29 199.76 161"/><line class="cls-5" x1="91.26" y1="196.27" x2="272.39" y2="196.27"/></g></svg>