<svg xmlns="http://www.w3.org/2000/svg" viewBox="0 0 360 360"><defs><style>.cls-1{fill:#fff;}.cls-2{fill:#ee3f24;}.cls-3{fill:#ee3e25;}.cls-4,.cls-5{fill:none;stroke:#ee3e25;stroke-miterlimit:10;}.cls-5{stroke-width:3px;}</style></defs><title>CARD</title><g id="Layer_6" data-name="Layer 6"><rect class="cls-1" x="0.42" y="-0.41" width="360" height="360"/></g><g id="BACKGROUND"><rect class="cls-2" y="336.06" width="360" height="23.94"/><path class="cls-1" d="M162.39,352.49v-8.4h5.72v1.49h-3.94v1.84h3.67v1.49h-3.67V351h4v1.49Z"/><path class="cls-1" d="M171,344.09h3.13a4.94,4.94,0,0,1,1.73.28,3.55,3.55,0,0,1,1.29.81,3.42,3.42,0,0,1,.81,1.32,5.67,5.67,0,0,1,0,3.58,3.45,3.45,0,0,1-.81,1.31,3.3,3.3,0,0,1-1.29.81,4.94,4.94,0,0,1-1.73.29H171Zm5.39,4.2a4.21,4.21,0,0,0-.14-1.11,2.31,2.31,0,0,0-.42-.86,1.87,1.87,0,0,0-.72-.55,2.46,2.46,0,0,0-1-.19h-1.27V351H174a2.63,2.63,0,0,0,1-.19,1.87,1.87,0,0,0,.72-.55,2.47,2.47,0,0,0,.42-.86A4.27,4.27,0,0,0,176.35,348.29Z"/><path class="cls-1" d="M184.34,352.66a3.34,3.34,0,0,1-2.56-.87,3.41,3.41,0,0,1-.8-2.4v-5.3h1.8v5.31a2,2,0,0,0,.38,1.27,1.41,1.41,0,0,0,1.18.5,1.38,1.38,0,0,0,1.17-.5,2,2,0,0,0,.39-1.27v-5.31h1.8v5.3a3.37,3.37,0,0,1-.81,2.4A3.3,3.3,0,0,1,184.34,352.66Z"/><path class="cls-1" d="M190.47,348.29a5.61,5.61,0,0,1,.29-1.85,3.85,3.85,0,0,1,.82-1.37,3.52,3.52,0,0,1,1.3-.86,4.79,4.79,0,0,1,1.71-.29,4,4,0,0,1,2.25.59,3.22,3.22,0,0,1,1.3,1.78l-1.75.62a2.37,2.37,0,0,0-.65-1.1,1.72,1.72,0,0,0-1.19-.39,2,2,0,0,0-1.67.81,2.63,2.63,0,0,0-.41.91,4.59,4.59,0,0,0-.14,1.15,4.51,4.51,0,0,0,.14,1.14,2.81,2.81,0,0,0,.41.91,2.13,2.13,0,0,0,.7.6,2.18,2.18,0,0,0,1,.22,1.8,1.8,0,0,0,1.14-.35,2.15,2.15,0,0,0,.66-1.06l1.73.61a3.49,3.49,0,0,1-1.3,1.68,3.81,3.81,0,0,1-2.25.62,4.49,4.49,0,0,1-1.68-.3,3.5,3.5,0,0,1-1.28-.85,3.69,3.69,0,0,1-.82-1.37A5.61,5.61,0,0,1,190.47,348.29Z"/><path class="cls-1" d="M208.07,352.49h-1.86l-.67-1.95h-3l-.67,1.95h-1.77l3-8.4h1.93Zm-4-6.43-.09.28-.13.42-.16.5-.18.52c-.13.42-.28.86-.44,1.33h2c-.16-.47-.31-.91-.44-1.33-.09-.24-.16-.44-.21-.59s-.11-.31-.15-.45-.08-.28-.12-.4-.07-.22-.09-.28Z"/><path class="cls-1" d="M209,344.09h6.66v1.5H213.2v6.9h-1.81v-6.9H209Z"/><path class="cls-1" d="M218.15,344.09H220v8.4h-1.8Z"/><path class="cls-1" d="M222.77,348.29a5.24,5.24,0,0,1,.3-1.83,3.83,3.83,0,0,1,.83-1.38,3.52,3.52,0,0,1,1.29-.86,4.49,4.49,0,0,1,1.68-.3,4.56,4.56,0,0,1,1.68.3,3.7,3.7,0,0,1,1.29.86,4,4,0,0,1,.82,1.38,5.73,5.73,0,0,1,0,3.66,3.91,3.91,0,0,1-.82,1.37,3.44,3.44,0,0,1-1.29.86,4.37,4.37,0,0,1-1.68.31,4.3,4.3,0,0,1-1.68-.31,3.29,3.29,0,0,1-1.29-.86,3.79,3.79,0,0,1-.83-1.37A5.24,5.24,0,0,1,222.77,348.29Zm1.86,0a4.81,4.81,0,0,0,.14,1.17,2.54,2.54,0,0,0,.42.91,1.88,1.88,0,0,0,.69.59,2.42,2.42,0,0,0,2,0,2,2,0,0,0,.7-.59,2.72,2.72,0,0,0,.41-.91,4.81,4.81,0,0,0,.14-1.17,4.69,4.69,0,0,0-.14-1.17,2.77,2.77,0,0,0-.41-.92,2,2,0,0,0-.7-.58,2.42,2.42,0,0,0-2,0,1.85,1.85,0,0,0-.69.58,2.59,2.59,0,0,0-.42.92A4.69,4.69,0,0,0,224.63,348.29Z"/><path class="cls-1" d="M233.78,344.09h1.87l1.39,2.25.65,1.05.5.82.48.78c.16.24.28.45.39.62h0v-5.52h1.71v8.4h-1.88c-.47-.78-.93-1.52-1.36-2.22l-.64-1c-.18-.28-.35-.55-.51-.83l-.49-.79-.4-.64h0v5.52h-1.7Z"/><path class="cls-1" d="M251.26,352.49H249.4l-.67-1.95h-3l-.67,1.95h-1.77l3-8.4h1.93Zm-4-6.43-.09.28-.13.42-.16.5-.18.52c-.13.42-.28.86-.44,1.33h2l-.45-1.33c-.08-.24-.15-.44-.21-.59s-.1-.31-.14-.45-.09-.28-.13-.4l-.08-.28Z"/><path class="cls-1" d="M253.75,344.09h1.8V351h3.67v1.5h-5.47Z"/><path class="cls-1" d="M265.76,352.49v-8.4h5.72v1.49h-4v1.84h3.68v1.49h-3.68V351h4v1.49Z"/><path class="cls-1" d="M278.79,348.08l3.11,4.41h-2.16l-2-2.92-2.07,2.92h-2l3.08-4.32-2.84-4.08H276l1.76,2.59,1.83-2.59h2Z"/><path class="cls-1" d="M286.16,349.53v3h-1.79v-8.4h3.19a5.81,5.81,0,0,1,1.37.15,3.12,3.12,0,0,1,1,.48,2.18,2.18,0,0,1,.67.83,2.81,2.81,0,0,1,.24,1.21,3,3,0,0,1-.24,1.25,2.5,2.5,0,0,1-.68.86,3,3,0,0,1-1,.5,5.21,5.21,0,0,1-1.35.16Zm2.89-2.77a1,1,0,0,0-.42-.93,2.41,2.41,0,0,0-1.25-.25h-1.22v2.47h1.22a2.11,2.11,0,0,0,1.25-.3A1.13,1.13,0,0,0,289.05,346.76Z"/><path class="cls-1" d="M293.52,352.49v-8.4h5.73v1.49H295.3v1.84H299v1.49H295.3V351h4v1.49Z"/><path class="cls-1" d="M308.38,346.64a2.52,2.52,0,0,1-.43,1.53,2.48,2.48,0,0,1-1.17.87l1.94,3.45h-2L305,349.31h-1.12v3.18h-1.79v-8.4h3.07a5.47,5.47,0,0,1,1.33.15,2.76,2.76,0,0,1,1,.46,2.08,2.08,0,0,1,.65.79A2.68,2.68,0,0,1,308.38,346.64Zm-1.85,0a.9.9,0,0,0-.39-.85,2.3,2.3,0,0,0-1.18-.23h-1.08v2.26H305a2.08,2.08,0,0,0,1.18-.27A1,1,0,0,0,306.53,346.66Z"/><path class="cls-1" d="M311.41,344.09h1.8v8.4h-1.8Z"/><path class="cls-1" d="M316.37,352.49v-8.4h5.73v1.49h-4v1.84h3.67v1.49h-3.67V351h4v1.49Z"/><path class="cls-1" d="M324.94,344.09h1.87c.49.79.95,1.54,1.4,2.25l.64,1.05.51.82.48.78.38.62h0v-5.52H332v8.4h-1.87l-1.37-2.22-.64-1-.51-.83-.49-.79c-.15-.25-.29-.47-.4-.64h0v5.52h-1.71Z"/><path class="cls-1" d="M334.78,348.29a5.61,5.61,0,0,1,.29-1.85,3.85,3.85,0,0,1,.82-1.37,3.52,3.52,0,0,1,1.3-.86,4.79,4.79,0,0,1,1.71-.29,4,4,0,0,1,2.25.59,3.22,3.22,0,0,1,1.3,1.78l-1.75.62a2.37,2.37,0,0,0-.65-1.1,1.72,1.72,0,0,0-1.19-.39,2,2,0,0,0-1.67.81,2.63,2.63,0,0,0-.41.91,4.59,4.59,0,0,0-.14,1.15,4.51,4.51,0,0,0,.14,1.14,2.81,2.81,0,0,0,.41.91,2.13,2.13,0,0,0,.7.6,2.18,2.18,0,0,0,1,.22,1.8,1.8,0,0,0,1.14-.35,2.15,2.15,0,0,0,.66-1.06l1.73.61a3.49,3.49,0,0,1-1.3,1.68,3.81,3.81,0,0,1-2.25.62,4.49,4.49,0,0,1-1.68-.3,3.5,3.5,0,0,1-1.28-.85,3.69,3.69,0,0,1-.82-1.37A5.61,5.61,0,0,1,334.78,348.29Z"/><path class="cls-1" d="M345.09,352.49v-8.4h5.72v1.49h-3.95v1.84h3.68v1.49h-3.68V351h4v1.49Z"/></g><g id="LINE_ONE" data-name="LINE ONE"><path class="cls-3" d="M109.61,234.16h3v14h-3Z"/><path class="cls-3" d="M117.89,234.16H121l2.32,3.76,1.08,1.75.84,1.37.8,1.29.64,1h.06v-9.2h2.84v14h-3.12l-2.28-3.7-1.07-1.73c-.29-.46-.57-.92-.85-1.38l-.81-1.32c-.26-.42-.48-.78-.67-1.07h-.06v9.2h-2.84Z"/><path class="cls-3" d="M134.87,234.16H138l2.32,3.76,1.08,1.75.84,1.37.8,1.29.64,1h.06v-9.2h2.84v14h-3.12l-2.28-3.7-1.07-1.73c-.29-.46-.57-.92-.85-1.38l-.81-1.32c-.26-.42-.48-.78-.67-1.07h-.06v9.2h-2.84Z"/><path class="cls-3" d="M151.27,241.16a8.83,8.83,0,0,1,.49-3,6.64,6.64,0,0,1,1.38-2.29,5.82,5.82,0,0,1,2.15-1.44,8.09,8.09,0,0,1,5.6,0,5.82,5.82,0,0,1,2.15,1.44,6.64,6.64,0,0,1,1.38,2.29,9.74,9.74,0,0,1,0,6.1A6.64,6.64,0,0,1,163,246.5a5.82,5.82,0,0,1-2.15,1.44,8.09,8.09,0,0,1-5.6,0,5.82,5.82,0,0,1-2.15-1.44,6.64,6.64,0,0,1-1.38-2.29A8.83,8.83,0,0,1,151.27,241.16Zm3.1,0a7.9,7.9,0,0,0,.23,2,4.33,4.33,0,0,0,.69,1.52,3.14,3.14,0,0,0,1.16,1,4,4,0,0,0,3.28,0,3.14,3.14,0,0,0,1.16-1,4.33,4.33,0,0,0,.69-1.52,8.38,8.38,0,0,0,0-3.9,4.33,4.33,0,0,0-.69-1.52,3.14,3.14,0,0,0-1.16-1,4,4,0,0,0-3.28,0,3.14,3.14,0,0,0-1.16,1,4.33,4.33,0,0,0-.69,1.52A7.9,7.9,0,0,0,154.37,241.16Z"/><path class="cls-3" d="M171.17,234.16c.49,1.4,1,2.75,1.4,4.06.26.76.49,1.4.66,1.92s.35,1,.52,1.57l.5,1.53q.24.73.42,1.32h0l.42-1.33.51-1.59c.18-.56.37-1.13.57-1.72l.58-1.7c.44-1.31.9-2.66,1.4-4.06h3.08l-5.16,14h-3.06l-5.1-14Z"/><path class="cls-3" d="M195.85,248.16h-3.1l-1.12-3.24h-5l-1.12,3.24h-2.94l5-14h3.22Zm-6.76-10.72c0,.11-.07.26-.14.47s-.14.44-.22.7-.17.54-.27.84-.2.59-.29.87l-.74,2.22h3.38c-.27-.79-.51-1.53-.74-2.22-.15-.4-.26-.73-.35-1s-.17-.51-.24-.75-.14-.46-.21-.67a4,4,0,0,1-.14-.47Z"/><path class="cls-3" d="M197.33,234.16h11.1v2.5h-4v11.5h-3v-11.5h-4Z"/><path class="cls-3" d="M212.65,234.16h3v14h-3Z"/><path class="cls-3" d="M220.35,241.16a8.83,8.83,0,0,1,.49-3,6.35,6.35,0,0,1,1.38-2.29,5.82,5.82,0,0,1,2.15-1.44,8.09,8.09,0,0,1,5.6,0,5.9,5.9,0,0,1,2.15,1.44,6.64,6.64,0,0,1,1.38,2.29,9.74,9.74,0,0,1,0,6.1,6.64,6.64,0,0,1-1.38,2.29,5.9,5.9,0,0,1-2.15,1.44,8.09,8.09,0,0,1-5.6,0,5.82,5.82,0,0,1-2.15-1.44,6.35,6.35,0,0,1-1.38-2.29A8.83,8.83,0,0,1,220.35,241.16Zm3.1,0a7.45,7.45,0,0,0,.23,2,4.33,4.33,0,0,0,.69,1.52,3.06,3.06,0,0,0,1.16,1,3.64,3.64,0,0,0,1.64.35,3.7,3.7,0,0,0,1.64-.35,3.22,3.22,0,0,0,1.16-1,4.73,4.73,0,0,0,.69-1.52,8.38,8.38,0,0,0,0-3.9,4.73,4.73,0,0,0-.69-1.52,3.22,3.22,0,0,0-1.16-1,3.7,3.7,0,0,0-1.64-.35,3.64,3.64,0,0,0-1.64.35,3.06,3.06,0,0,0-1.16,1,4.33,4.33,0,0,0-.69,1.52A7.45,7.45,0,0,0,223.45,241.16Z"/><path class="cls-3" d="M238.69,234.16h3.12l2.32,3.76,1.08,1.75.84,1.37.8,1.29.64,1h.06v-9.2h2.84v14h-3.12l-2.28-3.7-1.07-1.73c-.29-.46-.57-.92-.85-1.38l-.81-1.32-.67-1.07h-.06v9.2h-2.84Z"/></g><g id="ICON"><path class="cls-4" d="M182,177.86h-5.37V144.35H182Z"/><path class="cls-4" d="M182,144.23c.33-1.58.61-3,.91-4.35.44-2,2-2.36,3.7-2.38a3.23,3.23,0,0,1,2.94,2.14,3.36,3.36,0,0,1-2.78,4.56A39.26,39.26,0,0,1,182,144.23Z"/><path class="cls-4" d="M176.65,144.35c-2,0-3.41.1-4.81,0a3.45,3.45,0,0,1-3-3.14,3.6,3.6,0,0,1,2-3.52,3.3,3.3,0,0,1,4.28,1.49A35.27,35.27,0,0,1,176.65,144.35Z"/><path class="cls-5" d="M179.31,179.16h-10c-1.59,0-2.11-.49-2.21-2-.44-6.63-2.8-12.67-5.93-18.5a106.61,106.61,0,0,1-6.06-12.15c-5.72-14.91,2.7-29.93,18.52-33.43,14.7-3.26,29.31,6.31,31.49,20.71.87,5.78-.53,11.25-3.15,16.43-2.09,4.15-4.38,8.22-6.47,12.38a38.26,38.26,0,0,0-4,14.76c-.09,1.29-.66,1.81-2,1.81C186.07,179.17,182.69,179.16,179.31,179.16Z"/><path class="cls-3" d="M179.14,186.29c-3.16,0-6.33,0-9.5,0-1.43,0-2.23-.62-2.19-1.68s.81-1.64,2.15-1.64H189c1.32,0,2.11.64,2.13,1.66s-.77,1.65-2.09,1.66C185.73,186.3,182.44,186.29,179.14,186.29Z"/><path class="cls-3" d="M179.31,189.06h8.88c1.37,0,2.08.59,2.06,1.66s-.75,1.64-2.11,1.64H170.51c-1.36,0-2.1-.58-2.12-1.63s.7-1.67,2.17-1.67Z"/><path class="cls-3" d="M177.6,97.67c0-1.78,0-3.56,0-5.34,0-1.38.62-2.07,1.69-2.06S181,91,181,92.38c0,3.55,0,7.11,0,10.66,0,1.39-.62,2.09-1.7,2.07s-1.63-.71-1.65-2.11C177.58,101.23,177.6,99.45,177.6,97.67Z"/><path class="cls-3" d="M161.5,109.85a4.37,4.37,0,0,1-1.17-1c-1.92-3.23-3.78-6.49-5.64-9.76a1.6,1.6,0,0,1,.57-2.4,1.53,1.53,0,0,1,2.25.69c2,3.32,3.88,6.64,5.75,10C163.89,108.52,163.07,109.83,161.5,109.85Z"/><path class="cls-3" d="M194.87,108.36c.29-.63.44-1,.65-1.39q2.64-4.6,5.31-9.21c.72-1.24,1.52-1.58,2.44-1.09s1.16,1.44.43,2.72q-2.7,4.73-5.43,9.44c-.44.76-1.12,1.3-2,.89A6.52,6.52,0,0,1,194.87,108.36Z"/><path class="cls-3" d="M150.67,120.6c0,1.7-1.3,2.45-2.59,1.73-2.14-1.2-4.24-2.45-6.35-3.67-1.14-.66-2.28-1.29-3.4-2a1.66,1.66,0,1,1,1.61-2.9c3.3,1.88,6.59,3.77,9.84,5.72A3.56,3.56,0,0,1,150.67,120.6Z"/><path class="cls-3" d="M209.28,122.82c-.42-.42-1.17-.81-1.23-1.3a2.42,2.42,0,0,1,.67-1.93,29.07,29.07,0,0,1,3.57-2.14c2-1.19,4.08-2.38,6.14-3.54,1.1-.63,2-.45,2.52.44s.23,1.78-.86,2.42q-4.74,2.78-9.52,5.51A13.42,13.42,0,0,1,209.28,122.82Z"/><path class="cls-3" d="M221.18,161.43c0,1.59-1.28,2.4-2.44,1.76-3.38-1.89-6.73-3.85-10.06-5.82a1.54,1.54,0,0,1-.59-2.2,1.49,1.49,0,0,1,2.17-.67q5.12,2.88,10.16,5.9C220.83,160.64,221,161.23,221.18,161.43Z"/><path class="cls-3" d="M138.84,163.55c-.41-.36-1.08-.66-1.25-1.14a2.69,2.69,0,0,1,.25-1.73c.11-.29.57-.47.89-.66l9.07-5.26c1.16-.67,2.14-.53,2.66.35s.18,1.85-1,2.5q-4.63,2.71-9.29,5.38C139.86,163.19,139.45,163.3,138.84,163.55Z"/><path class="cls-3" d="M138.64,136.84c1.82,0,3.64,0,5.46,0,1.09,0,1.81.42,1.91,1.56s-.68,1.74-1.89,1.75q-5.52,0-11,0c-1.21,0-2-.72-1.92-1.71a1.63,1.63,0,0,1,1.89-1.6C134.91,136.86,136.78,136.84,138.64,136.84Z"/><path class="cls-3" d="M220,136.84c1.82,0,3.64,0,5.46,0a1.65,1.65,0,0,1,1.91,1.58c.11,1-.7,1.72-1.9,1.73q-5.52,0-11,0c-1.21,0-2-.72-1.91-1.73s.8-1.59,1.9-1.58C216.31,136.85,218.17,136.84,220,136.84Z"/><path class="cls-3" d="M179.22,197.9c-1.56,0-3.13,0-4.69,0-1.19,0-1.85-.62-1.85-1.62a1.67,1.67,0,0,1,1.84-1.68c3.17,0,6.34,0,9.51,0a1.66,1.66,0,0,1,1.85,1.65c0,1-.65,1.62-1.84,1.64C182.44,197.92,180.83,197.9,179.22,197.9Z"/></g></svg>