<svg xmlns="http://www.w3.org/2000/svg" viewBox="0 0 360 360"><defs><style>.cls-1{fill:#231f20;}.cls-2{fill:#fff;}</style></defs><title>CARD</title><g id="BACKGROUND"><rect class="cls-1" width="360" height="360"/></g><g id="LINE_ONE" data-name="LINE ONE"><path class="cls-2" d="M138,234.16h3v14h-3Z"/><path class="cls-2" d="M152.42,248.16c-.2-.55-.45-1.26-.75-2.15l-.93-2.77q-.48-1.44-.93-2.82c-.3-.92-.54-1.7-.73-2.32H149v10.06h-2.76v-14h4.2c.57,1.71,1.09,3.27,1.56,4.7q.42,1.27.69,2.07c.18.53.35,1,.5,1.51s.29.91.42,1.3.22.67.27.84l.26-.84c.12-.39.26-.84.43-1.37s.35-1.09.54-1.7.39-1.21.59-1.81c.45-1.43.95-3,1.5-4.7h4.18v14h-2.76V238.1h-.06l-.48,1.49c-.19.58-.39,1.2-.61,1.85s-.44,1.32-.67,2-.44,1.31-.64,1.92-.38,1.16-.55,1.65-.3.88-.41,1.16Z"/><path class="cls-2" d="M169.66,243.24v4.92h-3v-14H172a9.4,9.4,0,0,1,2.28.26,4.81,4.81,0,0,1,1.74.8,3.7,3.7,0,0,1,1.12,1.38,4.61,4.61,0,0,1,.4,2,4.87,4.87,0,0,1-.41,2.07,3.85,3.85,0,0,1-1.14,1.44,4.83,4.83,0,0,1-1.75.84,8.76,8.76,0,0,1-2.24.27Zm4.82-4.62a1.68,1.68,0,0,0-.69-1.56,4.11,4.11,0,0,0-2.09-.42h-2v4.12h2a3.6,3.6,0,0,0,2.09-.5A1.9,1.9,0,0,0,174.48,238.62Z"/><path class="cls-2" d="M193,248.16h-3.1l-1.12-3.24h-5l-1.12,3.24H179.7l5-14H188Zm-6.76-10.72c0,.11-.07.26-.14.47s-.14.44-.22.7-.17.54-.27.84-.2.59-.29.87c-.23.69-.47,1.43-.74,2.22H188c-.27-.79-.51-1.53-.74-2.22-.15-.4-.26-.73-.35-1s-.17-.51-.24-.75-.14-.46-.21-.67-.11-.36-.14-.47Z"/><path class="cls-2" d="M195.86,241.16a9.12,9.12,0,0,1,.48-3.07,6.39,6.39,0,0,1,1.37-2.29,5.75,5.75,0,0,1,2.16-1.43,7.82,7.82,0,0,1,2.85-.49,6.83,6.83,0,0,1,3.76,1,5.35,5.35,0,0,1,2.16,3l-2.92,1a3.92,3.92,0,0,0-1.08-1.83,2.82,2.82,0,0,0-2-.65,3.51,3.51,0,0,0-1.62.36,3.26,3.26,0,0,0-1.16,1,4.28,4.28,0,0,0-.69,1.51,7.71,7.71,0,0,0-.23,1.92,7.63,7.63,0,0,0,.23,1.91,4.45,4.45,0,0,0,.69,1.51,3.19,3.19,0,0,0,1.16,1,3.54,3.54,0,0,0,1.64.36,2.94,2.94,0,0,0,1.89-.58,3.57,3.57,0,0,0,1.11-1.76l2.88,1a6.07,6.07,0,0,1-2.16,2.8,6.42,6.42,0,0,1-3.76,1,7.7,7.7,0,0,1-2.79-.49,5.94,5.94,0,0,1-2.14-1.42,6.3,6.3,0,0,1-1.37-2.29A9.26,9.26,0,0,1,195.86,241.16Z"/><path class="cls-2" d="M212,234.16h11.1v2.5h-4v11.5h-3v-11.5h-4Z"/></g><g id="ICON"><path class="cls-2" d="M198.31,92.52m-26.06,3.21,16.11,7.67a1.77,1.77,0,0,0,1.39,2,4.13,4.13,0,0,1,3.06,3.8,16.64,16.64,0,0,0,1.21,3.37c.47,1.4,1.47,1.67,2.82,1.65a8.39,8.39,0,0,1,3.1.57,1.72,1.72,0,0,1,.66,1.56c-.14.4-1,.64-1.52.82-.26.08-.62-.2-1-.24-5.2-.66-6.87-2.15-8-7.11a2.61,2.61,0,0,0-4.18-1.72,19.77,19.77,0,0,0-3.89,4.22,6.24,6.24,0,0,1-3.71,2.78c-1.19.31-2.25,1.06-3.41,1.48-.55.19-1.45.3-1.76,0s-.4-1.51-.12-1.72a12.5,12.5,0,0,1,3.85-2.21,4.91,4.91,0,0,0,2.92-2.07,49.61,49.61,0,0,1,4.67-4.85c.42-.43,1.1-.91,1.12-1.4.11-2.54,0-5.09,0-7.64V94.65l-.12-3.32v-3.1c-1.72,0-3.49.14-5.23,0a7.88,7.88,0,0,1-7.44-6.54,60.24,60.24,0,0,1-.83-9.32A1.69,1.69,0,0,1,173,71a1.68,1.68,0,0,1,1.47.58c1.89,2.91,4.69,4.39,7.81,5.65,1.79.72,3.29,2.16,5,3.34,1.28-2.09,3.63-2.93,5.95-4s4-3,6-4.48A20.29,20.29,0,0,1,201.1,71c.35.65,1,1.31,1,1.94a46.08,46.08,0,0,1-.89,8.73c-1.26,5-5.45,7.42-10.6,6.5-.65-.12-1.32-.17-2.11-.27l-.15,15.52M174.59,75.85c-.54,6.53,3.3,10.88,7.86,9.3-.62-.4-1.32-.63-1.66-1.12a7.25,7.25,0,0,1-.62-2,5.71,5.71,0,0,1,2-.15A17,17,0,0,1,185,83.25C182.65,78.67,177.34,79.61,174.59,75.85Zm24.63.62a38.56,38.56,0,0,1-3.38,2.12c-1.19.59-2.59.79-3.72,1.45a28,28,0,0,0-3.34,2.66l.4.5A16.28,16.28,0,0,1,192,81.83a1.77,1.77,0,0,1,1.62.6,1.91,1.91,0,0,1-.36,1.7,9,9,0,0,1-2.07,1.35C196.45,86.21,199.62,82.55,199.22,76.47Z"/><path class="cls-2" d="M180.75,95.83c10.5.19,18.91,1.63,26.4,6.57,8.4,5.55,12.49,13.55,13.08,23.39.66,11-2.72,21-8.58,30.18-1.61,2.54-3.32,5.25-4,8.11-1,4.3.43,8.49,2.78,12.23a52,52,0,0,0,3.32,4.63c.83,1,.9,1.69-.33,2.46a142.82,142.82,0,0,1-32.57,15.1c-1.72.55-1.91.29-2.37-1.53-1.46-5.77-2.9-11.56-4.58-17.27-1.12-3.79-3.53-6.79-7.58-7.55-2.44-.46-5.05-.06-7.59,0-2.32,0-4.65.28-7,.12s-3.13-1.34-3.26-3.55c-.08-1.25,0-2.5-.05-3.75a3.25,3.25,0,0,0-.36-1.71,3.3,3.3,0,0,1-.54-4c.1-.19-.48-1-.9-1.19-2.26-1-2.27-1-1.72-3.2.69-2.75.17-3.63-2.55-4.4a7.63,7.63,0,0,1-1.82-.67,1.48,1.48,0,0,1-.58-2.33c2-3,3.91-6.14,6.08-9.06a7.62,7.62,0,0,0,1.61-6.7,13,13,0,0,1,.42-7.35c.63-2,1.1-4.08,1.55-6.14A27.33,27.33,0,0,1,171.5,97C175.12,96.33,178.8,96.06,180.75,95.83Zm1.88,5.17a60.93,60.93,0,0,0-8.45,1.57c-10,3.13-17.19,9.11-18.92,20-1,6.52,1.26,10.95,8.23,12.25a28.33,28.33,0,0,0,5.49.62,25.54,25.54,0,0,1,18.41,6.8c3.13,2.86,7,5,10.58,7.27a6.26,6.26,0,0,0,7.62-.59,21.81,21.81,0,0,0,4.69-5.31c2.74-4.42,3.71-9.43,4.29-14.55.63-5.54-.37-10.64-3.79-15.08C204,105.13,194.61,101.59,182.63,101Z"/><path class="cls-2" d="M193.94,124.47a9,9,0,0,1,.56,1.58,2.94,2.94,0,0,1-4.29,3.1c-2.12-1.17-4.23-2.35-6.31-3.57-.24-.15-.32-.57-.47-.86.31,0,.67-.11.91,0,2,1.11,4,2.3,6.07,3.35a2.63,2.63,0,0,0,2,.19,2.23,2.23,0,0,0,1.11-1.57,2.16,2.16,0,0,0-.83-1.73c-3.37-2-6.75-4-10.25-5.75a5.86,5.86,0,0,0-3.66-.33c-3,.67-5.87,1.63-8.78,2.5a1.45,1.45,0,0,0-1.09,2q.62,2.23,1.29,4.44a1.55,1.55,0,0,0,2.11,1.16,18,18,0,0,0,2.41-.71,4.38,4.38,0,0,1,3.64.22c3.07,1.35,6.19,2.62,9.28,3.92a3.69,3.69,0,0,0,3.51-.26c4.27-2.53,8.56-5,12.85-7.52a4.24,4.24,0,0,0,.78-.52,1.9,1.9,0,0,0,.42-2.4,1.63,1.63,0,0,0-2.11-.91C200,122,197,123.23,193.94,124.47Z"/></g></svg>