<?xml version="1.0" encoding="utf-8"?>
<!-- Generator: Adobe Illustrator 23.1.0, SVG Export Plug-In . SVG Version: 6.00 Build 0)  -->
<svg version="1.1" xmlns="http://www.w3.org/2000/svg" xmlns:xlink="http://www.w3.org/1999/xlink" x="0px" y="0px"
	 viewBox="0 0 360 360" enable-background="new 0 0 360 360" xml:space="preserve">
<g id="BACKGROUND">
	<rect x="0" y="0" fill="#FFFFFF" width="360" height="360"/>
</g>
<g id="REF" display="none">
	
		<rect y="90.33" display="inline" fill="none" stroke="#000000" stroke-width="0.25" stroke-miterlimit="10" width="360" height="108"/>
	
		<rect x="360" y="90.33" display="inline" fill="none" stroke="#FFFFFF" stroke-width="0.25" stroke-miterlimit="10" width="360" height="108"/>
	
		<line display="inline" fill="none" stroke="#000000" stroke-width="0.25" stroke-linecap="round" stroke-miterlimit="10" x1="180" y1="0.19" x2="180" y2="360.06"/>
</g>
<g id="LINE_ONE">
	<g>
		<path d="M57.96,234.16h3v14h-3V234.16z"/>
		<path d="M66.24,234.16h3.12c0.81,1.32,1.59,2.57,2.32,3.76c0.44,0.71,0.8,1.29,1.08,1.75c0.28,0.46,0.56,0.92,0.84,1.37
			c0.28,0.45,0.55,0.88,0.8,1.29c0.25,0.41,0.47,0.75,0.64,1.03h0.06v-9.2h2.84v14h-3.12c-0.8-1.29-1.56-2.53-2.28-3.7
			c-0.43-0.69-0.78-1.27-1.07-1.73c-0.29-0.46-0.57-0.92-0.85-1.38s-0.55-0.9-0.81-1.32c-0.26-0.42-0.48-0.78-0.67-1.07h-0.06v9.2
			h-2.84V234.16z"/>
		<path d="M82.16,234.16h11.1v2.5h-4.04v11.5H86.2v-11.5h-4.04V234.16z"/>
		<path d="M97.48,248.16v-14h9.54v2.48h-6.58v3.08h6.12v2.48h-6.12v3.48h6.68v2.48H97.48z"/>
		<path d="M122.24,238.42c0,1.04-0.24,1.89-0.71,2.54s-1.12,1.14-1.95,1.46l3.22,5.74h-3.3l-2.9-5.3h-1.86v5.3h-2.98v-14h5.12
			c0.81,0,1.55,0.08,2.21,0.25s1.22,0.42,1.69,0.77c0.47,0.35,0.83,0.79,1.08,1.32S122.24,237.67,122.24,238.42z M119.16,238.44
			c0-0.68-0.22-1.15-0.65-1.41c-0.43-0.26-1.09-0.39-1.97-0.39h-1.8v3.78h1.8c0.88,0,1.54-0.15,1.97-0.45
			C118.94,239.67,119.16,239.16,119.16,238.44z"/>
		<path d="M133,240.4h6.44v7.76h-2.72v-1.44c-0.31,0.48-0.76,0.89-1.36,1.22c-0.6,0.33-1.38,0.5-2.34,0.5
			c-1.04,0-1.96-0.19-2.75-0.57c-0.79-0.38-1.45-0.9-1.98-1.55c-0.53-0.65-0.92-1.42-1.19-2.3s-0.4-1.82-0.4-2.82
			c0-1.08,0.16-2.07,0.47-2.96s0.77-1.66,1.37-2.31c0.6-0.65,1.33-1.15,2.19-1.51c0.86-0.36,1.84-0.54,2.93-0.54
			c1.41,0,2.62,0.31,3.62,0.93c1,0.62,1.75,1.54,2.26,2.75l-2.78,1.14c-0.27-0.75-0.67-1.32-1.22-1.73c-0.55-0.41-1.21-0.61-2-0.61
			c-1.13,0-2.04,0.42-2.72,1.25c-0.68,0.83-1.02,2.06-1.02,3.69c0,3.12,1.23,4.68,3.7,4.68c0.36,0,0.72-0.05,1.08-0.15
			s0.69-0.25,0.99-0.46c0.3-0.21,0.54-0.47,0.73-0.79s0.28-0.71,0.28-1.16v-0.64H133V240.4z"/>
		<path d="M144.66,248.16v-14h9.54v2.48h-6.58v3.08h6.12v2.48h-6.12v3.48h6.68v2.48H144.66z"/>
		<path d="M158.94,234.16h3.12c0.81,1.32,1.59,2.57,2.32,3.76c0.44,0.71,0.8,1.29,1.08,1.75s0.56,0.92,0.84,1.37s0.55,0.88,0.8,1.29
			c0.25,0.41,0.47,0.75,0.64,1.03h0.06v-9.2h2.84v14h-3.12c-0.8-1.29-1.56-2.53-2.28-3.7c-0.43-0.69-0.78-1.27-1.07-1.73
			c-0.29-0.46-0.57-0.92-0.85-1.38c-0.28-0.46-0.55-0.9-0.81-1.32s-0.48-0.78-0.67-1.07h-0.06v9.2h-2.84V234.16z"/>
		<path d="M175.92,248.16v-14h9.54v2.48h-6.58v3.08H185v2.48h-6.12v3.48h6.68v2.48H175.92z"/>
		<path d="M200.68,238.42c0,1.04-0.24,1.89-0.71,2.54s-1.12,1.14-1.95,1.46l3.22,5.74h-3.3l-2.9-5.3h-1.86v5.3h-2.98v-14h5.12
			c0.81,0,1.55,0.08,2.21,0.25c0.66,0.17,1.22,0.42,1.69,0.77c0.47,0.35,0.83,0.79,1.08,1.32
			C200.55,237.03,200.68,237.67,200.68,238.42z M197.6,238.44c0-0.68-0.22-1.15-0.65-1.41c-0.43-0.26-1.09-0.39-1.97-0.39h-1.8v3.78
			h1.8c0.88,0,1.54-0.15,1.97-0.45C197.38,239.67,197.6,239.16,197.6,238.44z"/>
		<path d="M217.88,248.16h-3.1l-1.12-3.24h-5.02l-1.12,3.24h-2.94l5.04-14h3.22L217.88,248.16z M211.12,237.44
			c-0.03,0.11-0.07,0.26-0.14,0.47c-0.07,0.21-0.14,0.44-0.22,0.7c-0.08,0.26-0.17,0.54-0.27,0.84s-0.2,0.59-0.29,0.87
			c-0.23,0.69-0.47,1.43-0.74,2.22h3.38c-0.27-0.79-0.51-1.53-0.74-2.22c-0.15-0.4-0.26-0.73-0.35-0.99s-0.17-0.51-0.24-0.75
			c-0.07-0.24-0.14-0.46-0.21-0.67c-0.07-0.21-0.11-0.36-0.14-0.47H211.12z"/>
		<path d="M219.36,234.16h11.1v2.5h-4.04v11.5h-3.02v-11.5h-4.04V234.16z"/>
		<path d="M234.68,234.16h3v14h-3V234.16z"/>
		<path d="M242.38,241.16c0-1.13,0.16-2.15,0.49-3.05c0.33-0.9,0.79-1.66,1.38-2.29c0.59-0.63,1.31-1.11,2.15-1.44
			c0.84-0.33,1.77-0.5,2.8-0.5c1.03,0,1.96,0.17,2.8,0.5c0.84,0.33,1.56,0.81,2.15,1.44c0.59,0.63,1.05,1.39,1.38,2.29
			c0.33,0.9,0.49,1.92,0.49,3.05c0,1.13-0.16,2.15-0.49,3.05c-0.33,0.9-0.79,1.66-1.38,2.29c-0.59,0.63-1.31,1.11-2.15,1.44
			c-0.84,0.33-1.77,0.5-2.8,0.5c-1.03,0-1.96-0.17-2.8-0.5s-1.56-0.81-2.15-1.44c-0.59-0.63-1.05-1.39-1.38-2.29
			C242.54,243.31,242.38,242.29,242.38,241.16z M245.48,241.16c0,0.71,0.08,1.36,0.23,1.95c0.15,0.59,0.38,1.1,0.69,1.52
			s0.69,0.75,1.16,0.98s1.01,0.35,1.64,0.35s1.17-0.12,1.64-0.35c0.47-0.23,0.85-0.56,1.16-0.98c0.31-0.42,0.54-0.93,0.69-1.52
			c0.15-0.59,0.23-1.24,0.23-1.95s-0.08-1.36-0.23-1.95c-0.15-0.59-0.38-1.1-0.69-1.52c-0.31-0.42-0.69-0.75-1.16-0.98
			c-0.47-0.23-1.01-0.35-1.64-0.35s-1.17,0.12-1.64,0.35s-0.85,0.56-1.16,0.98s-0.54,0.93-0.69,1.52
			C245.56,239.8,245.48,240.45,245.48,241.16z"/>
		<path d="M260.72,234.16h3.12c0.81,1.32,1.59,2.57,2.32,3.76c0.44,0.71,0.8,1.29,1.08,1.75s0.56,0.92,0.84,1.37s0.55,0.88,0.8,1.29
			c0.25,0.41,0.47,0.75,0.64,1.03h0.06v-9.2h2.84v14h-3.12c-0.8-1.29-1.56-2.53-2.28-3.7c-0.43-0.69-0.78-1.27-1.07-1.73
			s-0.57-0.92-0.85-1.38c-0.28-0.46-0.55-0.9-0.81-1.32s-0.48-0.78-0.67-1.07h-0.06v9.2h-2.84V234.16z"/>
		<path d="M289.86,248.16h-3.1l-1.12-3.24h-5.02l-1.12,3.24h-2.94l5.04-14h3.22L289.86,248.16z M283.1,237.44
			c-0.03,0.11-0.07,0.26-0.14,0.47c-0.07,0.21-0.14,0.44-0.22,0.7c-0.08,0.26-0.17,0.54-0.27,0.84s-0.2,0.59-0.29,0.87
			c-0.23,0.69-0.47,1.43-0.74,2.22h3.38c-0.27-0.79-0.51-1.53-0.74-2.22c-0.15-0.4-0.26-0.73-0.35-0.99s-0.17-0.51-0.24-0.75
			c-0.07-0.24-0.14-0.46-0.21-0.67c-0.07-0.21-0.11-0.36-0.14-0.47H283.1z"/>
		<path d="M294,234.16h3v11.5h6.12v2.5H294V234.16z"/>
	</g>
</g>
<g id="LINE_TWO">
</g>
<g id="ICON">
	<g>
		<g>
			<path fill="none" stroke="#000000" stroke-width="3" stroke-miterlimit="10" d="M203.47,151.8l8.16,35.01
				c0.31,1.31-0.51,2.62-1.82,2.92l-4.09,0.95c-1.31,0.31-2.62-0.51-2.92-1.82l-8.75-37.56c0,0-2.46-21.26,11.77-21.83
				c0,0,8.78,0.51,10.61,3.3c1.83,2.79,3.46,9.49,3.11,11.08C219.17,145.45,213.46,155.24,203.47,151.8z"/>
			<ellipse transform="matrix(0.9663 -0.2573 0.2573 0.9663 -28.4678 60.1268)" cx="215.55" cy="138.86" rx="0.96" ry="4.81"/>
			<circle cx="209.22" cy="140.29" r="1.34"/>
			<path d="M198.87,138.86l1.9-3.21c0.2-0.33,0.09-0.76-0.25-0.96l-0.49-0.29c-0.33-0.2-0.76-0.09-0.96,0.25l-1.9,3.21
				c-0.2,0.33-0.09,0.76,0.25,0.96l0.49,0.29C198.25,139.3,198.67,139.19,198.87,138.86z"/>
			<circle cx="197.08" cy="149.22" r="0.96"/>
			<line fill="none" stroke="#000000" stroke-miterlimit="10" x1="202.6" y1="188" x2="211.43" y2="185.93"/>
			<path fill="none" stroke="#000000" stroke-width="3" stroke-miterlimit="10" d="M246.12,160.87l-18.59,30.77
				c-0.7,1.15-0.33,2.65,0.82,3.34l3.59,2.17c1.15,0.7,2.65,0.33,3.34-0.82l19.95-33.01c0,0,8.92-19.46-4.44-24.4
				c0,0-8.5-2.23-11.11-0.14c-2.6,2.08-6.22,7.95-6.38,9.57S235.56,161.05,246.12,160.87z"/>
			<ellipse transform="matrix(0.5437 -0.8393 0.8393 0.5437 -12.6536 266.38)" cx="238.64" cy="144.83" rx="4.81" ry="0.96"/>
			<circle cx="244.22" cy="148.15" r="1.34"/>
			<path d="M254.5,149.99l-0.81-3.64c-0.08-0.38,0.15-0.75,0.53-0.83l0.56-0.12c0.38-0.08,0.75,0.15,0.83,0.53l0.81,3.64
				c0.08,0.38-0.15,0.75-0.53,0.83l-0.56,0.12C254.96,150.6,254.59,150.36,254.5,149.99z"/>
			<circle cx="252.99" cy="160.39" r="0.96"/>
			<line fill="none" stroke="#000000" stroke-miterlimit="10" x1="235.75" y1="195.56" x2="227.99" y2="190.87"/>
		</g>
		<g>
			<circle cx="138.22" cy="160.82" r="29.95"/>
			<path stroke="#FFFFFF" stroke-miterlimit="10" d="M162.52,138.29c-0.02,0.11-0.03,0.19-0.06,0.26
				c-2.82,6.31-4.64,12.91-5.93,19.68c-0.69,3.6-1.59,7.15-3.36,10.42c-1.22,2.27-2.71,4.35-4.57,6.48
				c-0.24-0.32-0.41-0.62-0.64-0.84c-0.53-0.52-0.99-0.52-1.52,0c-2.01,1.99-4,3.99-6,5.99c-0.48,0.48-0.49,0.99-0.01,1.47
				c0.97,0.98,1.94,1.95,2.92,2.91c0.48,0.48,0.99,0.5,1.47,0.02c2.02-2.01,4.04-4.03,6.05-6.05c0.48-0.48,0.45-1.01-0.03-1.47
				c-0.27-0.26-0.6-0.47-0.9-0.69c0.19-0.28,0.26-0.39,0.34-0.48c4.18-4.75,6.67-10.28,7.83-16.48c0.98-5.23,2.17-10.41,4.07-15.4
				c0.64-1.68,1.32-3.34,1.97-4.98c4.22,0.62,7.25-1.03,8.24-4.41c0.91-3.13-0.58-6.41-3.54-7.78c-2.92-1.35-6.44-0.31-8.19,2.43
				C159.08,131.87,159.17,135.75,162.52,138.29z"/>
			<path fill="#FFFFFF" stroke="#000000" stroke-miterlimit="10" d="M138.27,172.9c6.7-0.04,12.06-5.45,12.03-12.14
				c-0.03-6.7-5.45-12.06-12.14-12.03c-6.7,0.04-12.06,5.45-12.03,12.14C126.17,167.57,131.59,172.94,138.27,172.9z"/>
			<path fill="#FFFFFF" stroke="#000000" stroke-miterlimit="10" d="M134.64,187.56c0.18-0.19,0.64-0.46,0.69-0.8
				c0.05-0.3-0.32-0.7-0.58-0.99c-0.12-0.14-0.43-0.11-0.66-0.14c-5.34-0.88-9.93-3.26-13.73-7.1c-3.79-3.82-6.11-8.4-6.97-13.72
				c-0.15-0.9-0.5-1.26-1.1-1.16c-0.6,0.09-0.85,0.59-0.7,1.43c1.66,9.37,6.83,16.1,15.36,20.25
				C129.3,186.48,131.8,187.15,134.64,187.56z"/>
			<path fill="#FFFFFF" stroke="#000000" stroke-miterlimit="10" d="M141.85,133.96c-0.27,0.32-0.68,0.6-0.77,0.96
				c-0.13,0.48,0.18,0.87,0.72,0.98c1.07,0.22,2.15,0.39,3.21,0.69c4.5,1.25,8.34,3.58,11.54,6.98c0.05,0.06,0.1,0.11,0.16,0.17
				c0.56,0.58,1.11,0.68,1.51,0.23c0.47-0.53,0.28-1.01-0.16-1.48c-3.21-3.44-7.03-5.93-11.52-7.34
				C145.05,134.69,143.53,134.39,141.85,133.96z"/>
			<path stroke="#FFFFFF" stroke-miterlimit="10" d="M163.35,136.49c-1.86-1.26-2.39-3.92-1.23-5.94c1.21-2.1,3.85-2.95,6.03-1.93
				c2.22,1.04,3.28,3.65,2.4,5.92c-0.86,2.21-3.26,3.46-5.52,2.79c0.52-1.08,1.04-2.15,1.55-3.22c0.13-0.27,0.28-0.54,0.41-0.82
				c0.23-0.52,0.1-0.96-0.41-1.22c-0.52-0.27-0.96-0.08-1.22,0.42c-0.59,1.15-1.15,2.32-1.73,3.49
				C163.54,136.14,163.44,136.31,163.35,136.49z"/>
			<path fill="#FFFFFF" stroke="#000000" stroke-miterlimit="10" d="M148.48,160.87c-0.01,5.64-4.62,10.22-10.27,10.22
				c-5.68,0-10.27-4.62-10.25-10.31c0.01-5.67,4.65-10.24,10.35-10.22C143.93,150.58,148.5,155.2,148.48,160.87z M138.21,163.58
				c1.55,0,2.75-1.19,2.76-2.74c0.01-1.55-1.18-2.77-2.72-2.78c-1.59-0.02-2.81,1.19-2.8,2.77
				C135.46,162.38,136.67,163.58,138.21,163.58z"/>
			<path fill="#FFFFFF" d="M139.17,160.83c-0.07,0.55-0.35,0.89-0.92,0.93c-0.53,0.04-0.97-0.41-0.97-0.94
				c0-0.53,0.46-0.97,0.98-0.93C138.82,159.93,139.11,160.27,139.17,160.83z"/>
			<path fill="none" stroke="#000000" stroke-width="3" stroke-miterlimit="10" d="M174.59,160.81c0,11,0,22,0,33.01
				c0,2.28-1.08,3.37-3.37,3.37c-21.98,0-43.96,0-65.94,0c-2.4,0-3.45-1.05-3.45-3.44c0-21.95,0-43.91,0-65.86
				c0-2.39,1.05-3.44,3.44-3.44c21.95,0,43.91,0,65.86,0c2.39,0,3.45,1.05,3.45,3.44C174.59,138.86,174.59,149.84,174.59,160.81z"/>
		</g>
	</g>
</g>
</svg>
