<?xml version="1.0" encoding="utf-8"?>
<!-- Generator: Adobe Illustrator 23.1.0, SVG Export Plug-In . SVG Version: 6.00 Build 0)  -->
<svg version="1.1" xmlns="http://www.w3.org/2000/svg" xmlns:xlink="http://www.w3.org/1999/xlink" x="0px" y="0px"
	 viewBox="0 0 360 360" enable-background="new 0 0 360 360" xml:space="preserve">
<g id="BACKGROUND">
	<rect x="360" y="0" width="360" height="360"/>
	<rect y="0" fill="#FFFFFF" width="360" height="360"/>
</g>
<g id="REF" display="none">
	
		<rect y="90.27" display="inline" fill="none" stroke="#000000" stroke-width="0.25" stroke-miterlimit="10" width="360" height="108"/>
	
		<rect x="360" y="90.27" display="inline" fill="none" stroke="#FFFFFF" stroke-width="0.25" stroke-miterlimit="10" width="360" height="108"/>
	
		<line display="inline" fill="none" stroke="#000000" stroke-width="0.25" stroke-linecap="round" stroke-miterlimit="10" x1="180" y1="0.21" x2="180" y2="360.08"/>
</g>
<g id="LINE_ONE">
	<g>
		<path d="M138.83,243.24v4.92h-2.98v-14h5.32c0.84,0,1.6,0.09,2.28,0.26c0.68,0.17,1.26,0.44,1.74,0.8
			c0.48,0.36,0.85,0.82,1.12,1.38c0.27,0.56,0.4,1.23,0.4,2.02c0,0.8-0.14,1.49-0.41,2.07s-0.65,1.06-1.14,1.44
			c-0.49,0.38-1.07,0.66-1.75,0.84c-0.68,0.18-1.43,0.27-2.24,0.27H138.83z M143.65,238.62c0-0.76-0.23-1.28-0.69-1.56
			c-0.46-0.28-1.16-0.42-2.09-0.42h-2.04v4.12h2.04c0.93,0,1.63-0.17,2.09-0.5C143.42,239.93,143.65,239.38,143.65,238.62z"/>
		<path d="M162.17,248.16h-3.1l-1.12-3.24h-5.02l-1.12,3.24h-2.94l5.04-14h3.22L162.17,248.16z M155.41,237.44
			c-0.03,0.11-0.07,0.26-0.14,0.47c-0.07,0.21-0.14,0.44-0.22,0.7s-0.17,0.54-0.27,0.84c-0.1,0.3-0.2,0.59-0.29,0.87
			c-0.23,0.69-0.47,1.43-0.74,2.22h3.38c-0.27-0.79-0.51-1.53-0.74-2.22c-0.15-0.4-0.26-0.73-0.35-0.99s-0.17-0.51-0.24-0.75
			s-0.14-0.46-0.21-0.67s-0.11-0.36-0.14-0.47H155.41z"/>
		<path d="M165.03,241.16c0-1.15,0.16-2.17,0.48-3.07c0.32-0.9,0.78-1.66,1.37-2.29c0.59-0.63,1.31-1.1,2.16-1.43
			c0.85-0.33,1.8-0.49,2.85-0.49c1.49,0,2.75,0.33,3.76,0.98c1.01,0.65,1.73,1.65,2.16,2.98l-2.92,1.02
			c-0.24-0.79-0.6-1.4-1.08-1.83c-0.48-0.43-1.14-0.65-1.98-0.65c-0.61,0-1.15,0.12-1.62,0.36c-0.47,0.24-0.85,0.57-1.16,0.99
			s-0.54,0.92-0.69,1.51s-0.23,1.23-0.23,1.92s0.08,1.33,0.23,1.91s0.38,1.08,0.69,1.51s0.69,0.76,1.16,1
			c0.47,0.24,1.01,0.36,1.64,0.36c0.77,0,1.4-0.19,1.89-0.58c0.49-0.39,0.86-0.97,1.11-1.76l2.88,1.02
			c-0.47,1.19-1.19,2.12-2.16,2.8c-0.97,0.68-2.23,1.02-3.76,1.02c-1.03,0-1.96-0.16-2.79-0.49s-1.55-0.8-2.14-1.42
			c-0.59-0.62-1.05-1.38-1.37-2.29C165.19,243.33,165.03,242.3,165.03,241.16z"/>
		<path d="M182.21,234.16h3v14h-3V234.16z"/>
		<path d="M190.49,248.16v-14h9.58v2.48h-6.62v3.08h6.1v2.48h-6.1v5.96H190.49z"/>
		<path d="M204.55,234.16h3v14h-3V234.16z"/>
		<path d="M212.25,241.16c0-1.15,0.16-2.17,0.48-3.07c0.32-0.9,0.78-1.66,1.37-2.29c0.59-0.63,1.31-1.1,2.16-1.43
			c0.85-0.33,1.8-0.49,2.85-0.49c1.49,0,2.75,0.33,3.76,0.98c1.01,0.65,1.73,1.65,2.16,2.98l-2.92,1.02
			c-0.24-0.79-0.6-1.4-1.08-1.83c-0.48-0.43-1.14-0.65-1.98-0.65c-0.61,0-1.15,0.12-1.62,0.36s-0.85,0.57-1.16,0.99
			s-0.54,0.92-0.69,1.51c-0.15,0.59-0.23,1.23-0.23,1.92s0.08,1.33,0.23,1.91c0.15,0.58,0.38,1.08,0.69,1.51s0.69,0.76,1.16,1
			s1.01,0.36,1.64,0.36c0.77,0,1.4-0.19,1.89-0.58c0.49-0.39,0.86-0.97,1.11-1.76l2.88,1.02c-0.47,1.19-1.19,2.12-2.16,2.8
			c-0.97,0.68-2.23,1.02-3.76,1.02c-1.03,0-1.96-0.16-2.79-0.49c-0.83-0.33-1.55-0.8-2.14-1.42c-0.59-0.62-1.05-1.38-1.37-2.29
			C212.41,243.33,212.25,242.3,212.25,241.16z"/>
	</g>
</g>
<g id="LINE_TWO">
	<g>
		<path d="M109.84,255.95h3.12c0.81,1.32,1.59,2.57,2.32,3.76c0.44,0.71,0.8,1.29,1.08,1.75s0.56,0.92,0.84,1.37s0.55,0.88,0.8,1.29
			c0.25,0.41,0.47,0.75,0.64,1.03h0.06v-9.2h2.84v14h-3.12c-0.8-1.29-1.56-2.53-2.28-3.7c-0.43-0.69-0.78-1.27-1.07-1.73
			c-0.29-0.46-0.57-0.92-0.85-1.38c-0.28-0.46-0.55-0.9-0.81-1.32s-0.48-0.78-0.67-1.07h-0.06v9.2h-2.84V255.95z"/>
		<path d="M126.24,262.95c0-1.13,0.16-2.15,0.49-3.05c0.33-0.9,0.79-1.66,1.38-2.29c0.59-0.63,1.31-1.11,2.15-1.44
			c0.84-0.33,1.77-0.5,2.8-0.5s1.96,0.17,2.8,0.5c0.84,0.33,1.56,0.81,2.15,1.44c0.59,0.63,1.05,1.39,1.38,2.29
			c0.33,0.9,0.49,1.92,0.49,3.05c0,1.13-0.16,2.15-0.49,3.05c-0.33,0.9-0.79,1.66-1.38,2.29c-0.59,0.63-1.31,1.11-2.15,1.44
			s-1.77,0.5-2.8,0.5s-1.96-0.17-2.8-0.5s-1.56-0.81-2.15-1.44c-0.59-0.63-1.05-1.39-1.38-2.29
			C126.4,265.1,126.24,264.08,126.24,262.95z M129.34,262.95c0,0.71,0.08,1.36,0.23,1.95c0.15,0.59,0.38,1.1,0.69,1.52
			s0.69,0.75,1.16,0.98c0.47,0.23,1.01,0.35,1.64,0.35s1.17-0.12,1.64-0.35s0.85-0.56,1.16-0.98s0.54-0.93,0.69-1.52
			c0.15-0.59,0.23-1.24,0.23-1.95s-0.08-1.36-0.23-1.95c-0.15-0.59-0.38-1.1-0.69-1.52s-0.69-0.75-1.16-0.98s-1.01-0.35-1.64-0.35
			s-1.17,0.12-1.64,0.35c-0.47,0.23-0.85,0.56-1.16,0.98s-0.54,0.93-0.69,1.52C129.42,261.59,129.34,262.24,129.34,262.95z"/>
		<path d="M155.06,260.21c0,1.04-0.24,1.89-0.71,2.54c-0.47,0.65-1.12,1.14-1.95,1.46l3.22,5.74h-3.3l-2.9-5.3h-1.86v5.3h-2.98v-14
			h5.12c0.81,0,1.55,0.08,2.21,0.25s1.22,0.42,1.69,0.77c0.47,0.35,0.83,0.79,1.08,1.32C154.93,258.82,155.06,259.46,155.06,260.21z
			 M151.98,260.23c0-0.68-0.22-1.15-0.65-1.41s-1.09-0.39-1.97-0.39h-1.8v3.78h1.8c0.88,0,1.54-0.15,1.97-0.45
			C151.76,261.46,151.98,260.95,151.98,260.23z"/>
		<path d="M158.74,255.95h11.1v2.5h-4.04v11.5h-3.02v-11.5h-4.04V255.95z"/>
		<path d="M174.06,255.95h3v5.54h5.3v-5.54h3v14h-3v-5.94h-5.3v5.94h-3V255.95z"/>
		<path d="M207.8,255.95l-3.5,14h-3.48c-0.29-1.29-0.57-2.53-0.84-3.7c-0.16-0.69-0.29-1.27-0.4-1.74c-0.11-0.47-0.21-0.93-0.31-1.4
			c-0.1-0.47-0.2-0.91-0.3-1.34c-0.1-0.43-0.18-0.79-0.25-1.1h-0.06c-0.07,0.31-0.15,0.68-0.24,1.11c-0.09,0.43-0.2,0.9-0.32,1.39
			c-0.12,0.49-0.24,1-0.36,1.53c-0.12,0.53-0.24,1.04-0.36,1.55c-0.28,1.17-0.58,2.41-0.9,3.7H193l-3.52-14h3.04
			c0.35,1.49,0.67,2.91,0.98,4.26c0.17,0.8,0.32,1.46,0.44,1.98c0.12,0.52,0.23,1.04,0.34,1.56c0.11,0.52,0.21,1.01,0.31,1.48
			c0.1,0.47,0.18,0.86,0.23,1.18h0.06c0.07-0.32,0.15-0.72,0.25-1.19c0.1-0.47,0.21-0.98,0.34-1.53c0.13-0.55,0.26-1.12,0.4-1.72
			c0.14-0.6,0.28-1.19,0.41-1.76c0.32-1.35,0.66-2.77,1.02-4.26h2.82c0.36,1.49,0.7,2.91,1.02,4.26c0.19,0.8,0.34,1.46,0.47,1.98
			c0.13,0.52,0.25,1.04,0.37,1.56c0.12,0.52,0.23,1.01,0.33,1.48c0.1,0.47,0.18,0.86,0.25,1.18h0.06c0.07-0.32,0.15-0.72,0.25-1.19
			c0.1-0.47,0.21-0.98,0.33-1.53s0.25-1.12,0.38-1.72c0.13-0.6,0.27-1.19,0.4-1.76c0.32-1.35,0.65-2.77,1-4.26H207.8z"/>
		<path d="M211.92,269.95v-14h9.54v2.48h-6.58v3.08H221v2.48h-6.12v3.48h6.68v2.48H211.92z"/>
		<path d="M228.92,259.63c0,0.6,0.26,1.03,0.78,1.29c0.52,0.26,1.35,0.48,2.48,0.67c1.67,0.28,2.89,0.74,3.67,1.38
			c0.78,0.64,1.17,1.59,1.17,2.86c0,0.68-0.14,1.29-0.42,1.83s-0.67,1-1.17,1.38s-1.1,0.67-1.79,0.88
			c-0.69,0.21-1.45,0.31-2.26,0.31c-0.88,0-1.67-0.12-2.38-0.35c-0.71-0.23-1.31-0.54-1.8-0.93c-0.49-0.39-0.88-0.84-1.16-1.36
			c-0.28-0.52-0.43-1.06-0.46-1.62l3-0.48c0.07,0.68,0.33,1.24,0.79,1.67c0.46,0.43,1.13,0.65,2.01,0.65c0.36,0,0.7-0.03,1.01-0.1
			c0.31-0.07,0.59-0.18,0.82-0.33c0.23-0.15,0.42-0.34,0.55-0.57c0.13-0.23,0.2-0.5,0.2-0.82c0-0.52-0.22-0.92-0.65-1.2
			s-1.2-0.51-2.29-0.68c-0.73-0.12-1.41-0.27-2.04-0.46s-1.17-0.44-1.63-0.77c-0.46-0.33-0.82-0.73-1.08-1.22
			c-0.26-0.49-0.39-1.08-0.39-1.79c0-0.71,0.13-1.32,0.4-1.84c0.27-0.52,0.64-0.96,1.12-1.31c0.48-0.35,1.05-0.62,1.7-0.79
			c0.65-0.17,1.37-0.26,2.14-0.26c0.72,0,1.39,0.08,2.02,0.25c0.63,0.17,1.18,0.41,1.67,0.74c0.49,0.33,0.89,0.73,1.21,1.21
			c0.32,0.48,0.54,1.03,0.66,1.64l-3.04,0.66c-0.11-0.64-0.38-1.15-0.82-1.52c-0.44-0.37-1.03-0.56-1.78-0.56
			c-0.76,0-1.32,0.14-1.69,0.42C229.1,258.79,228.92,259.16,228.92,259.63z"/>
		<path d="M240.12,255.95h11.1v2.5h-4.04v11.5h-3.02v-11.5h-4.04V255.95z"/>
	</g>
</g>
<g id="ICON">
	<g>
		<g>
			<path fill="none" stroke="#000000" stroke-width="3" stroke-linecap="round" stroke-miterlimit="10" d="M165.52,111l-10.3,8.53
				c-0.03,0.03-0.08,0.03-0.11,0l-10.21-8.45"/>
		</g>
		<g>
			<path fill="none" stroke="#000000" stroke-width="3" stroke-linecap="round" stroke-miterlimit="10" d="M185.76,111l-10.11,8.53
				c-0.03,0.03-0.08,0.03-0.11,0l-10.02-8.45"/>
		</g>
		<g>
			<line fill="none" stroke="#000000" stroke-width="4" stroke-miterlimit="10" x1="124.27" y1="107.23" x2="124.27" y2="196.8"/>
			<polyline fill="none" stroke="#000000" stroke-width="4" stroke-linecap="round" stroke-miterlimit="10" points="107.52,124.06 
				124.35,107.23 141.03,123.92 			"/>
			<polyline fill="none" stroke="#000000" stroke-width="4" stroke-linecap="round" stroke-miterlimit="10" points="107.52,138.4 
				124.35,121.57 141.03,138.26 			"/>
			<polyline fill="none" stroke="#000000" stroke-width="4" stroke-linecap="round" stroke-miterlimit="10" points="107.52,152.74 
				124.35,135.91 141.03,152.6 			"/>
			<polyline fill="none" stroke="#000000" stroke-width="4" stroke-linecap="round" stroke-miterlimit="10" points="107.52,167.08 
				124.35,150.25 141.03,166.93 			"/>
		</g>
		<g>
			<line fill="none" stroke="#000000" stroke-width="3" stroke-miterlimit="10" x1="91.76" y1="137.18" x2="91.76" y2="194.82"/>
			<polyline fill="none" stroke="#000000" stroke-width="3" stroke-linecap="round" stroke-miterlimit="10" points="80.97,148.01 
				91.8,137.18 102.54,147.92 			"/>
			<polyline fill="none" stroke="#000000" stroke-width="3" stroke-linecap="round" stroke-miterlimit="10" points="80.97,157.24 
				91.8,146.41 102.54,157.15 			"/>
			<polyline fill="none" stroke="#000000" stroke-width="3" stroke-linecap="round" stroke-miterlimit="10" points="80.97,166.47 
				91.8,155.64 102.54,166.37 			"/>
			<polyline fill="none" stroke="#000000" stroke-width="3" stroke-linecap="round" stroke-miterlimit="10" points="80.97,175.7 
				91.8,164.87 102.54,175.6 			"/>
		</g>
		<g>
			<path fill="none" stroke="#000000" stroke-width="5" stroke-miterlimit="10" d="M70.24,195.88h219.46c0.04,0,0.05-0.03,0.03-0.06
				l-50.62-61.62c-0.03-0.03-0.07-0.03-0.09,0l-17.86,21.34c-0.03,0.03-0.07,0.03-0.09,0L166.97,89.8c-0.03-0.03-0.07-0.03-0.1,0
				l-29.02,29.3"/>
		</g>
	</g>
</g>
</svg>
