<svg xmlns="http://www.w3.org/2000/svg" viewBox="0 0 360 360"><defs><style>.cls-1{fill:#231f20;}.cls-2{fill:#fff;}.cls-3{stroke:#fff;stroke-miterlimit:10;stroke-width:5px;}</style></defs><title>CARD</title><g id="BACKGROUND"><rect class="cls-1" width="360" height="360"/></g><g id="LINE_ONE" data-name="LINE ONE"><path class="cls-2" d="M139.87,243.24v4.92h-3v-14h5.32a8.93,8.93,0,0,1,2.28.26,4.81,4.81,0,0,1,1.74.8,3.7,3.7,0,0,1,1.12,1.38,4.61,4.61,0,0,1,.4,2,4.87,4.87,0,0,1-.41,2.07,3.85,3.85,0,0,1-1.14,1.44,4.83,4.83,0,0,1-1.75.84,8.76,8.76,0,0,1-2.24.27Zm4.82-4.62a1.68,1.68,0,0,0-.69-1.56,4.11,4.11,0,0,0-2.09-.42h-2v4.12h2a3.6,3.6,0,0,0,2.09-.5A1.9,1.9,0,0,0,144.69,238.62Z"/><path class="cls-2" d="M163.21,248.16h-3.1L159,244.92h-5l-1.12,3.24h-2.94l5-14h3.22Zm-6.76-10.72c0,.1-.07.26-.14.47s-.14.44-.22.7-.17.54-.27.84l-.29.87c-.23.69-.47,1.43-.74,2.22h3.38c-.27-.79-.51-1.53-.74-2.22-.15-.4-.26-.73-.35-1s-.17-.51-.24-.75-.14-.47-.21-.67-.11-.37-.14-.47Z"/><path class="cls-2" d="M177.83,238.42a4.26,4.26,0,0,1-.71,2.54,4.21,4.21,0,0,1-2,1.46l3.22,5.74h-3.3l-2.9-5.3h-1.86v5.3h-3v-14h5.12a8.89,8.89,0,0,1,2.21.25,4.61,4.61,0,0,1,1.69.77,3.32,3.32,0,0,1,1.08,1.32A4.47,4.47,0,0,1,177.83,238.42Zm-3.08,0a1.51,1.51,0,0,0-.65-1.41,3.91,3.91,0,0,0-2-.39h-1.8v3.78h1.8a3.48,3.48,0,0,0,2-.45A1.74,1.74,0,0,0,174.75,238.44Z"/><path class="cls-2" d="M182.87,248.16v-14h9.54v2.48h-6.58v3.08H192v2.48h-6.12v3.48h6.68v2.48Z"/><path class="cls-2" d="M197.15,234.16h3.12l2.32,3.76c.44.7.8,1.29,1.08,1.75l.84,1.37.8,1.29.64,1H206v-9.2h2.84v14h-3.12l-2.28-3.7-1.07-1.73c-.29-.46-.57-.92-.85-1.38l-.81-1.32c-.26-.42-.48-.78-.67-1.07H200v9.2h-2.84Z"/><path class="cls-2" d="M213.07,234.16h11.1v2.5h-4v11.5h-3v-11.5h-4Z"/></g><g id="LINE_TWO" data-name="LINE TWO"><path class="cls-2" d="M101.72,265.94v-14h9.54v2.48h-6.58v3.08h6.12V260h-6.12v3.48h6.68v2.48Z"/><path class="cls-2" d="M116,251.94h3.12l2.32,3.76,1.08,1.75.84,1.37.8,1.29.64,1h.06v-9.2h2.84v14h-3.12c-.8-1.29-1.56-2.52-2.28-3.7l-1.07-1.73c-.29-.46-.57-.92-.85-1.38l-.81-1.32-.67-1.07h-.06v9.2H116Z"/><path class="cls-2" d="M138.7,258.18h6.44v7.76h-2.72V264.5a3.69,3.69,0,0,1-1.36,1.22,4.72,4.72,0,0,1-2.34.5,6.29,6.29,0,0,1-2.75-.57,5.61,5.61,0,0,1-2-1.55,6.7,6.7,0,0,1-1.19-2.3,9.56,9.56,0,0,1-.4-2.82,9,9,0,0,1,.47-3,6.53,6.53,0,0,1,1.37-2.31,6.31,6.31,0,0,1,2.19-1.51,7.54,7.54,0,0,1,2.93-.54,6.74,6.74,0,0,1,3.62.93,5.74,5.74,0,0,1,2.26,2.75l-2.78,1.14a3.64,3.64,0,0,0-1.22-1.73,3.3,3.3,0,0,0-2-.61,3.35,3.35,0,0,0-2.72,1.25,5.75,5.75,0,0,0-1,3.69q0,4.68,3.7,4.68a4,4,0,0,0,1.08-.15,3.2,3.2,0,0,0,1-.46,2.41,2.41,0,0,0,.73-.79,2.22,2.22,0,0,0,.28-1.16v-.64H138.7Z"/><path class="cls-2" d="M162.52,265.94h-3.1l-1.12-3.24h-5l-1.12,3.24h-2.94l5-14h3.22Zm-6.76-10.72c0,.11-.07.27-.14.47s-.14.44-.22.7-.17.54-.27.84l-.29.87c-.23.7-.47,1.44-.74,2.22h3.38c-.27-.78-.51-1.52-.74-2.22-.15-.4-.26-.73-.35-1s-.17-.51-.24-.75-.14-.46-.21-.67-.11-.36-.14-.47Z"/><path class="cls-2" d="M171.68,258.18h6.44v7.76H175.4V264.5a3.69,3.69,0,0,1-1.36,1.22,4.72,4.72,0,0,1-2.34.5,6.29,6.29,0,0,1-2.75-.57,5.61,5.61,0,0,1-2-1.55,6.7,6.7,0,0,1-1.19-2.3,9.56,9.56,0,0,1-.4-2.82,9,9,0,0,1,.47-3,6.53,6.53,0,0,1,1.37-2.31,6.31,6.31,0,0,1,2.19-1.51,7.54,7.54,0,0,1,2.93-.54,6.74,6.74,0,0,1,3.62.93,5.74,5.74,0,0,1,2.26,2.75l-2.78,1.14a3.64,3.64,0,0,0-1.22-1.73,3.3,3.3,0,0,0-2-.61,3.35,3.35,0,0,0-2.72,1.25,5.75,5.75,0,0,0-1,3.69q0,4.68,3.7,4.68a4,4,0,0,0,1.08-.15,3.2,3.2,0,0,0,1-.46,2.41,2.41,0,0,0,.73-.79,2.22,2.22,0,0,0,.28-1.16v-.64h-3.58Z"/><path class="cls-2" d="M183.34,265.94v-14h9.54v2.48H186.3v3.08h6.12V260H186.3v3.48H193v2.48Z"/><path class="cls-2" d="M203.78,265.94c-.2-.54-.45-1.26-.75-2.15s-.61-1.81-.93-2.77-.63-1.9-.93-2.82-.54-1.69-.73-2.32h-.06v10.06h-2.76v-14h4.2l1.56,4.7q.42,1.29.69,2.07c.18.53.35,1,.5,1.51s.29.92.42,1.3.22.67.27.84l.26-.84c.12-.38.26-.84.43-1.37s.35-1.09.54-1.7.39-1.21.59-1.81q.67-2.13,1.5-4.7h4.18v14H210V255.88h-.06c-.13.42-.29.91-.48,1.49s-.39,1.2-.61,1.85-.44,1.32-.67,2-.44,1.32-.64,1.92-.38,1.16-.55,1.65-.3.88-.41,1.16Z"/><path class="cls-2" d="M218,265.94v-14h9.54v2.48H221v3.08h6.12V260H221v3.48h6.68v2.48Z"/><path class="cls-2" d="M232.32,251.94h3.12l2.32,3.76,1.08,1.75.84,1.37.8,1.29.64,1h.06v-9.2H244v14H240.9c-.8-1.29-1.56-2.52-2.28-3.7l-1.07-1.73c-.29-.46-.57-.92-.85-1.38l-.81-1.32-.67-1.07h-.06v9.2h-2.84Z"/><path class="cls-2" d="M248.24,251.94h11.1v2.5h-4v11.5h-3v-11.5h-4Z"/></g><g id="ICON"><path class="cls-2" d="M125.25,160.5a17.22,17.22,0,1,1,17.37-17A17.29,17.29,0,0,1,125.25,160.5Z"/><rect class="cls-2" x="99.91" y="164.52" width="52.71" height="27.22" rx="10.01"/><path class="cls-2" d="M237.85,160.5a17.22,17.22,0,1,1,17.38-17A17.28,17.28,0,0,1,237.85,160.5Z"/><rect class="cls-2" x="199.79" y="164.52" width="65.43" height="27.22" rx="10.01"/><path class="cls-3" d="M177.59,197.34H146c-3.79,0-4.58-.75-4.61-4.55,0-5.33,0-10.65,0-16,.12-10.2,6.92-17,17.12-17.08q18.69-.11,37.38,0c2.39,0,3.64-.62,4.45-3,2.11-6.07,4.61-12,6.74-18.09a20.78,20.78,0,0,0,1.19-6.58c.14-11.21,0-22.43.16-33.64.09-5.24,3.9-8.77,9.11-9.13a9.56,9.56,0,0,1,10.4,7.76,16.57,16.57,0,0,1,.3,3.37c0,11.9.38,23.81-.18,35.68-.23,4.68-2.33,9.34-4,13.88-2.93,8.19-6.18,16.25-9.2,24.41a14.6,14.6,0,0,0-.83,4.59c-.11,4.64-.1,9.29,0,13.93,0,3.17-1.32,4.43-4.52,4.4-10.65-.11-21.29,0-31.94,0Z"/><path class="cls-3" d="M177.66,151.94a21.94,21.94,0,1,1,22.13-21.69A22,22,0,0,1,177.66,151.94Z"/></g></svg>