<svg xmlns="http://www.w3.org/2000/svg" viewBox="0 0 360 360"><defs><style>.cls-1{fill:#fff;}.cls-2{fill:#226985;}</style></defs><title>CARD</title><g id="Layer_6" data-name="Layer 6"><rect class="cls-1" x="0.42" y="-0.41" width="360" height="360"/></g><g id="BACKGROUND"><rect class="cls-2" y="336.06" width="360" height="23.94"/><path class="cls-1" d="M290.57,346.29a.82.82,0,0,0,.47.78,5.75,5.75,0,0,0,1.49.4,4.68,4.68,0,0,1,2.2.83,2.07,2.07,0,0,1,.7,1.71,2.32,2.32,0,0,1-.25,1.1,2.43,2.43,0,0,1-.7.83,3.4,3.4,0,0,1-1.08.53,4.79,4.79,0,0,1-1.35.18,4.53,4.53,0,0,1-1.43-.21,3.66,3.66,0,0,1-1.08-.55,2.71,2.71,0,0,1-.7-.82,2.28,2.28,0,0,1-.27-1l1.8-.29a1.55,1.55,0,0,0,.47,1,1.71,1.71,0,0,0,1.21.39,2.84,2.84,0,0,0,.6-.06,1.31,1.31,0,0,0,.5-.2,1,1,0,0,0,.33-.34.94.94,0,0,0,.12-.49.81.81,0,0,0-.39-.72,3.92,3.92,0,0,0-1.38-.41,9.6,9.6,0,0,1-1.22-.27,3.43,3.43,0,0,1-1-.47,2.07,2.07,0,0,1-.65-.73,2.32,2.32,0,0,1-.23-1.07,2.42,2.42,0,0,1,.24-1.11,2.18,2.18,0,0,1,.67-.78,3.21,3.21,0,0,1,1-.48,5.17,5.17,0,0,1,1.28-.15,4.74,4.74,0,0,1,1.22.15,3.49,3.49,0,0,1,1,.44,2.63,2.63,0,0,1,.72.73,2.51,2.51,0,0,1,.4,1l-1.82.4a1.44,1.44,0,0,0-.5-.91,1.55,1.55,0,0,0-1.06-.34,1.67,1.67,0,0,0-1,.25A.8.8,0,0,0,290.57,346.29Z"/><path class="cls-1" d="M297.29,344.09H304v1.5h-2.42v6.9h-1.81v-6.9h-2.43Z"/><path class="cls-1" d="M309.8,352.65a3.34,3.34,0,0,1-2.56-.86,3.38,3.38,0,0,1-.8-2.4v-5.3h1.8v5.31a2,2,0,0,0,.38,1.27,1.41,1.41,0,0,0,1.18.5,1.39,1.39,0,0,0,1.17-.5,2,2,0,0,0,.39-1.27v-5.31h1.8v5.3a3.38,3.38,0,0,1-.81,2.4A3.32,3.32,0,0,1,309.8,352.65Z"/><path class="cls-1" d="M316.28,344.09h3.13a5,5,0,0,1,1.73.28,3.55,3.55,0,0,1,1.29.81,3.67,3.67,0,0,1,.81,1.32,5.83,5.83,0,0,1,0,3.57,3.67,3.67,0,0,1-.81,1.32,3.42,3.42,0,0,1-1.29.81,5,5,0,0,1-1.73.29h-3.13Zm5.38,4.2a4.23,4.23,0,0,0-.13-1.11,2.65,2.65,0,0,0-.42-.86,1.78,1.78,0,0,0-.72-.55,2.49,2.49,0,0,0-1-.2h-1.27V351h1.27a2.67,2.67,0,0,0,1-.19,1.9,1.9,0,0,0,.72-.56,2.7,2.7,0,0,0,.42-.85A4.33,4.33,0,0,0,321.66,348.29Z"/><path class="cls-1" d="M326.34,352.49v-8.4h5.73v1.48h-3.95v1.85h3.67v1.49h-3.67V351h4v1.49Z"/><path class="cls-1" d="M334.91,344.09h1.87l1.4,2.25.64,1.05.51.82.48.78.38.62h0v-5.52h1.7v8.4h-1.87l-1.37-2.22c-.25-.42-.47-.77-.64-1l-.51-.83-.49-.79-.4-.64h0v5.52h-1.71Z"/><path class="cls-1" d="M344.46,344.09h6.66v1.5H348.7v6.9h-1.81v-6.9h-2.43Z"/></g><g id="LINE_ONE" data-name="LINE ONE"><path class="cls-2" d="M131.43,237.84a1.34,1.34,0,0,0,.78,1.29,9.48,9.48,0,0,0,2.48.67,7.86,7.86,0,0,1,3.67,1.38,3.48,3.48,0,0,1,1.17,2.86,3.92,3.92,0,0,1-.42,1.83,4.07,4.07,0,0,1-1.17,1.38,5.65,5.65,0,0,1-1.79.88,7.77,7.77,0,0,1-2.26.31,7.68,7.68,0,0,1-2.38-.35,5.66,5.66,0,0,1-1.8-.93,4.41,4.41,0,0,1-1.16-1.36,3.81,3.81,0,0,1-.46-1.62l3-.48a2.56,2.56,0,0,0,.79,1.67,2.84,2.84,0,0,0,2,.65,4.61,4.61,0,0,0,1-.1,2.52,2.52,0,0,0,.82-.33,1.66,1.66,0,0,0,.55-.57,1.63,1.63,0,0,0,.2-.82,1.35,1.35,0,0,0-.65-1.2,6.31,6.31,0,0,0-2.29-.68,16.15,16.15,0,0,1-2-.46,5.47,5.47,0,0,1-1.63-.77,3.51,3.51,0,0,1-1.08-1.22,3.76,3.76,0,0,1-.39-1.79,3.93,3.93,0,0,1,.4-1.84,3.72,3.72,0,0,1,1.12-1.31,5,5,0,0,1,1.7-.79,8.48,8.48,0,0,1,2.14-.26,7.71,7.71,0,0,1,2,.25,5.51,5.51,0,0,1,1.67.74,4.36,4.36,0,0,1,1.21,1.21,4.49,4.49,0,0,1,.66,1.64l-3,.66a2.45,2.45,0,0,0-.82-1.52,2.67,2.67,0,0,0-1.78-.56,2.78,2.78,0,0,0-1.69.42A1.33,1.33,0,0,0,131.43,237.84Z"/><path class="cls-2" d="M142.63,234.16h11.1v2.5h-4v11.5h-3v-11.5h-4Z"/><path class="cls-2" d="M163.47,248.44a5.56,5.56,0,0,1-4.26-1.44,5.65,5.65,0,0,1-1.34-4v-8.84h3V243a3.33,3.33,0,0,0,.64,2.11,2.73,2.73,0,0,0,3.92,0,3.33,3.33,0,0,0,.64-2.11v-8.86h3V243a5.65,5.65,0,0,1-1.34,4A5.56,5.56,0,0,1,163.47,248.44Z"/><path class="cls-2" d="M174.27,234.16h5.22a8.36,8.36,0,0,1,2.88.47,5.66,5.66,0,0,1,3.51,3.55,9.68,9.68,0,0,1,0,6,5.66,5.66,0,0,1-3.51,3.55,8.36,8.36,0,0,1-2.88.47h-5.22Zm9,7a7,7,0,0,0-.23-1.85,4.07,4.07,0,0,0-.7-1.43,3,3,0,0,0-1.19-.92,4.26,4.26,0,0,0-1.72-.32h-2.12v9h2.12a4.26,4.26,0,0,0,1.72-.32,3,3,0,0,0,1.19-.92A4.07,4.07,0,0,0,183,243,7,7,0,0,0,183.25,241.16Z"/><path class="cls-2" d="M191.05,248.16v-14h9.54v2.48H194v3.08h6.12v2.48H194v3.48h6.68v2.48Z"/><path class="cls-2" d="M205.33,234.16h3.12l2.32,3.76,1.08,1.75.84,1.37.8,1.29.64,1h.06v-9.2H217v14h-3.12l-2.28-3.7-1.07-1.73c-.29-.46-.57-.92-.85-1.38L208.9,240c-.26-.42-.48-.78-.67-1.07h-.06v9.2h-2.84Z"/><path class="cls-2" d="M221.25,234.16h11.1v2.5h-4v11.5h-3v-11.5h-4Z"/></g><g id="LINE_TWO" data-name="LINE TWO"><path class="cls-2" d="M132.49,252,129,266h-3.48c-.29-1.3-.57-2.53-.84-3.71l-.4-1.74c-.11-.46-.21-.93-.31-1.39s-.2-.92-.3-1.34-.18-.8-.25-1.11h-.06c-.07.31-.15.68-.24,1.12s-.2.89-.32,1.38-.24,1-.36,1.54-.24,1-.36,1.54c-.28,1.18-.58,2.41-.9,3.71h-3.48l-3.52-14h3c.35,1.49.67,2.91,1,4.26.17.79.32,1.45.44,2s.23,1,.34,1.55.21,1,.31,1.48.18.86.23,1.18h.06c.07-.32.15-.71.25-1.18s.21-1,.34-1.53.26-1.13.4-1.72.28-1.19.41-1.76q.48-2,1-4.26h2.82q.54,2.24,1,4.26c.19.79.34,1.45.47,2s.25,1,.37,1.55.23,1,.33,1.48.18.86.25,1.18h.06c.07-.32.15-.71.25-1.18s.21-1,.33-1.53l.38-1.72c.13-.6.27-1.19.4-1.76.32-1.35.65-2.77,1-4.26Z"/><path class="cls-2" d="M136.61,266V252h9.54v2.48h-6.58v3.07h6.12V260h-6.12v3.49h6.68V266Z"/><path class="cls-2" d="M150.89,252h3v11.5H160V266h-9.12Z"/><path class="cls-2" d="M164.21,252h3v11.5h6.12V266h-9.12Z"/><path class="cls-2" d="M177.53,252h6.08a5.27,5.27,0,0,1,1.75.27,4,4,0,0,1,1.3.77,3.47,3.47,0,0,1,.81,1.16,3.69,3.69,0,0,1,.28,1.46,3.31,3.31,0,0,1-.18,1.13,3.2,3.2,0,0,1-.47.88,2.73,2.73,0,0,1-.66.61,3.53,3.53,0,0,1-.77.4,3.1,3.1,0,0,1,1.8.83,2.73,2.73,0,0,1,.65.92,3.39,3.39,0,0,1,.25,1.39,4.06,4.06,0,0,1-.34,1.67,3.88,3.88,0,0,1-.94,1.31,4.54,4.54,0,0,1-1.42.88,5,5,0,0,1-1.8.32h-6.34Zm2.92,2.43v3.25h2.1a2.93,2.93,0,0,0,1.6-.36,1.47,1.47,0,0,0,.52-1.3,1.49,1.49,0,0,0-.45-1.23,2.44,2.44,0,0,0-1.51-.36Zm0,9.12h2.4a2.94,2.94,0,0,0,1.93-.45,1.65,1.65,0,0,0,.51-1.31,1.42,1.42,0,0,0-.62-1.36,3.79,3.79,0,0,0-1.86-.35h-2.36Z"/><path class="cls-2" d="M193,266V252h9.54v2.48H196v3.07h6.12V260H196v3.49h6.68V266Z"/><path class="cls-2" d="M207.31,252h3v14h-3Z"/><path class="cls-2" d="M215.59,252h3.12l2.32,3.76c.44.7.8,1.28,1.08,1.75l.84,1.36.8,1.3.64,1h.06V252h2.84v14h-3.12l-2.28-3.71c-.43-.69-.78-1.27-1.07-1.72s-.57-.92-.85-1.39l-.81-1.32-.67-1.07h-.06V266h-2.84Z"/><path class="cls-2" d="M238.29,258.19h6.44V266H242V264.5a3.69,3.69,0,0,1-1.36,1.22,4.72,4.72,0,0,1-2.34.5,6.15,6.15,0,0,1-2.75-.57,5.58,5.58,0,0,1-2-1.54,6.75,6.75,0,0,1-1.19-2.31A9.52,9.52,0,0,1,232,259a8.9,8.9,0,0,1,.47-3,6.36,6.36,0,0,1,1.37-2.31,6.05,6.05,0,0,1,2.19-1.51,7.54,7.54,0,0,1,2.93-.55,6.66,6.66,0,0,1,3.62.94,5.7,5.7,0,0,1,2.26,2.75l-2.78,1.13a3.64,3.64,0,0,0-1.22-1.73,3.3,3.3,0,0,0-2-.61,3.35,3.35,0,0,0-2.72,1.25,5.75,5.75,0,0,0-1,3.69q0,4.69,3.7,4.69a4,4,0,0,0,1.08-.15,3.22,3.22,0,0,0,1-.47,2.37,2.37,0,0,0,.73-.78,2.24,2.24,0,0,0,.28-1.16v-.65h-3.58Z"/></g><g id="ICON"><path class="cls-2" d="M180.79,90.33c11,.2,19.83,1.72,27.7,6.9,8.81,5.82,13.1,14.22,13.72,24.54.69,11.56-2.85,22-9,31.67-1.69,2.66-3.48,5.5-4.15,8.5-1,4.52.46,8.91,2.92,12.84a53.64,53.64,0,0,0,3.49,4.85c.87,1.09.94,1.78-.35,2.59A150.27,150.27,0,0,1,181,198.06c-1.81.58-2,.31-2.49-1.6-1.53-6.06-3-12.13-4.81-18.12-1.18-4-3.7-7.12-8-7.93-2.56-.48-5.3-.06-8,0-2.44,0-4.89.29-7.31.12s-3.28-1.4-3.42-3.73c-.08-1.3,0-2.62-.06-3.93a3.24,3.24,0,0,0-.37-1.79,3.48,3.48,0,0,1-.57-4.22c.11-.21-.5-1-.94-1.25-2.37-1.06-2.38-1-1.8-3.35.72-2.89.18-3.82-2.68-4.62a8.42,8.42,0,0,1-1.91-.71,1.56,1.56,0,0,1-.61-2.45c2.1-3.18,4.1-6.44,6.38-9.5a8,8,0,0,0,1.69-7,13.58,13.58,0,0,1,.44-7.71c.66-2.11,1.15-4.28,1.62-6.44a28.7,28.7,0,0,1,22.89-22.25C174.88,90.86,178.74,90.58,180.79,90.33Zm2,5.43a63.94,63.94,0,0,0-8.87,1.65c-10.43,3.28-18,9.56-19.84,21-1.09,6.85,1.32,11.5,8.62,12.86a30.45,30.45,0,0,0,5.77.65c7.36-.07,13.74,2,19.32,7.13,3.28,3,7.28,5.24,11.09,7.62a6.56,6.56,0,0,0,8-.61,23.12,23.12,0,0,0,4.92-5.57c2.87-4.64,3.89-9.9,4.5-15.27.66-5.81-.39-11.17-4-15.83C205.16,100.09,195.33,96.38,182.76,95.76Z"/><path class="cls-2" d="M194.28,109.07h0a5.32,5.32,0,0,0-7.54,0l-1.61,1.6-1.61-1.6a5.33,5.33,0,0,0-7.55,0h0a5.34,5.34,0,0,0,0,7.54l1.61,1.61h0l7.55,7.55h0l7.54-7.55h0l1.61-1.61A5.32,5.32,0,0,0,194.28,109.07Z"/></g></svg>