<svg xmlns="http://www.w3.org/2000/svg" viewBox="0 0 360 360"><defs><style>.cls-1{fill:#231f20;}.cls-2{fill:#fff;}.cls-3{fill:none;stroke:#fff;stroke-linecap:round;stroke-miterlimit:10;stroke-width:5px;}</style></defs><title>CARD</title><g id="BACKGROUND"><rect class="cls-1" width="360" height="360"/></g><g id="LINE_ONE" data-name="LINE ONE"><path class="cls-2" d="M149.33,237.84a1.34,1.34,0,0,0,.78,1.29,9.48,9.48,0,0,0,2.48.67,7.86,7.86,0,0,1,3.67,1.38,3.48,3.48,0,0,1,1.17,2.86,3.92,3.92,0,0,1-.42,1.83,4.07,4.07,0,0,1-1.17,1.38,5.65,5.65,0,0,1-1.79.88,8.12,8.12,0,0,1-2.26.31,7.68,7.68,0,0,1-2.38-.35,6.1,6.1,0,0,1-1.8-.93,4.41,4.41,0,0,1-1.16-1.36,3.81,3.81,0,0,1-.46-1.62l3-.48a2.56,2.56,0,0,0,.79,1.67,2.84,2.84,0,0,0,2,.65,5.32,5.32,0,0,0,1-.1,2.52,2.52,0,0,0,.82-.33,1.76,1.76,0,0,0,.55-.57,1.63,1.63,0,0,0,.2-.82,1.35,1.35,0,0,0-.65-1.2,6.31,6.31,0,0,0-2.29-.68,18.1,18.1,0,0,1-2-.46,5.72,5.72,0,0,1-1.63-.77,3.6,3.6,0,0,1-1.08-1.22,3.79,3.79,0,0,1-.39-1.79,3.93,3.93,0,0,1,.4-1.84,3.72,3.72,0,0,1,1.12-1.31,4.84,4.84,0,0,1,1.7-.79,8,8,0,0,1,2.14-.26,7.71,7.71,0,0,1,2,.25,5.28,5.28,0,0,1,1.67.74,4.23,4.23,0,0,1,1.21,1.21,4.42,4.42,0,0,1,.66,1.64l-3,.66a2.45,2.45,0,0,0-.82-1.52,2.62,2.62,0,0,0-1.78-.56,2.78,2.78,0,0,0-1.69.42A1.33,1.33,0,0,0,149.33,237.84Z"/><path class="cls-2" d="M160.53,234.16h11.1v2.5h-4v11.5h-3v-11.5h-4Z"/><path class="cls-2" d="M186.41,248.16h-3.1l-1.12-3.24h-5l-1.12,3.24h-2.94l5-14h3.22Zm-6.76-10.72c0,.1-.07.26-.14.47s-.14.44-.22.7-.17.54-.27.84-.2.59-.29.87c-.23.69-.47,1.43-.74,2.22h3.38c-.27-.79-.51-1.53-.74-2.22-.15-.4-.26-.73-.35-1s-.17-.51-.24-.75-.14-.47-.21-.67-.11-.37-.14-.47Z"/><path class="cls-2" d="M190.55,248.16v-14h9.58v2.48h-6.62v3.08h6.1v2.48h-6.1v6Z"/><path class="cls-2" d="M204.61,248.16v-14h9.58v2.48h-6.62v3.08h6.1v2.48h-6.1v6Z"/></g><g id="LINE_TWO" data-name="LINE TWO"><path class="cls-2" d="M132.49,251.94l-3.5,14h-3.48c-.29-1.29-.57-2.52-.84-3.7l-.4-1.74c-.11-.46-.21-.93-.31-1.4s-.2-.91-.3-1.34-.18-.79-.25-1.1h-.06q-.1.46-.24,1.11c-.09.44-.2.9-.32,1.39s-.24,1-.36,1.53-.24,1.05-.36,1.55c-.28,1.18-.58,2.41-.9,3.7h-3.48l-3.52-14h3c.35,1.5.67,2.92,1,4.26.17.8.32,1.46.44,2s.23,1,.34,1.56.21,1,.31,1.48.18.86.23,1.18h.06c.07-.32.15-.71.25-1.19s.21-1,.34-1.53.26-1.12.4-1.72.28-1.18.41-1.76l1-4.26h2.82l1,4.26c.19.8.34,1.46.47,2s.25,1,.37,1.56.23,1,.33,1.48.18.86.25,1.18h.06c.07-.32.15-.71.25-1.19l.33-1.53c.12-.54.25-1.12.38-1.72s.27-1.18.4-1.76c.32-1.34.65-2.76,1-4.26Z"/><path class="cls-2" d="M136.61,265.94v-14h9.54v2.48h-6.58v3.08h6.12V260h-6.12v3.48h6.68v2.48Z"/><path class="cls-2" d="M150.89,251.94h3v11.5H160v2.5h-9.12Z"/><path class="cls-2" d="M164.21,251.94h3v11.5h6.12v2.5h-9.12Z"/><path class="cls-2" d="M177.53,251.94h6.08a5.26,5.26,0,0,1,1.75.28,4,4,0,0,1,1.3.77,3.47,3.47,0,0,1,.81,1.16,3.67,3.67,0,0,1,.28,1.45,3.33,3.33,0,0,1-.18,1.14,3,3,0,0,1-.47.87,2.58,2.58,0,0,1-.66.62,3.1,3.1,0,0,1-.77.39,3.6,3.6,0,0,1,.93.26,3.43,3.43,0,0,1,.87.57,2.87,2.87,0,0,1,.65.93,3.37,3.37,0,0,1,.25,1.38,4,4,0,0,1-.34,1.67,3.83,3.83,0,0,1-.94,1.32,4.34,4.34,0,0,1-1.42.87,4.8,4.8,0,0,1-1.8.32h-6.34Zm2.92,2.44v3.24h2.1a2.85,2.85,0,0,0,1.6-.36,1.46,1.46,0,0,0,.52-1.3,1.48,1.48,0,0,0-.45-1.22,2.44,2.44,0,0,0-1.51-.36Zm0,9.12h2.4a3,3,0,0,0,1.93-.45,1.65,1.65,0,0,0,.51-1.31,1.45,1.45,0,0,0-.62-1.37,3.91,3.91,0,0,0-1.86-.35h-2.36Z"/><path class="cls-2" d="M193,265.94v-14h9.54v2.48H196v3.08h6.12V260H196v3.48h6.68v2.48Z"/><path class="cls-2" d="M207.31,251.94h3v14h-3Z"/><path class="cls-2" d="M215.59,251.94h3.12L221,255.7l1.08,1.75.84,1.37.8,1.29.64,1h.06v-9.2h2.84v14h-3.12c-.8-1.29-1.56-2.52-2.28-3.7l-1.07-1.73c-.29-.46-.57-.92-.85-1.38l-.81-1.32-.67-1.07h-.06v9.2h-2.84Z"/><path class="cls-2" d="M238.29,258.18h6.44v7.76H242V264.5a3.69,3.69,0,0,1-1.36,1.22,4.72,4.72,0,0,1-2.34.5,6.29,6.29,0,0,1-2.75-.57,5.61,5.61,0,0,1-2-1.55,6.7,6.7,0,0,1-1.19-2.3A9.56,9.56,0,0,1,232,259a9,9,0,0,1,.47-3,6.53,6.53,0,0,1,1.37-2.31A6.31,6.31,0,0,1,236,252.2a7.54,7.54,0,0,1,2.93-.54,6.74,6.74,0,0,1,3.62.93,5.74,5.74,0,0,1,2.26,2.75l-2.78,1.14a3.64,3.64,0,0,0-1.22-1.73,3.3,3.3,0,0,0-2-.61,3.35,3.35,0,0,0-2.72,1.25,5.75,5.75,0,0,0-1,3.69q0,4.68,3.7,4.68a4,4,0,0,0,1.08-.15,3.2,3.2,0,0,0,1-.46,2.41,2.41,0,0,0,.73-.79,2.22,2.22,0,0,0,.28-1.16v-.64h-3.58Z"/></g><g id="ICON"><path class="cls-2" d="M180,95.33a49,49,0,1,1-49,49,49.05,49.05,0,0,1,49-49m0-5a54,54,0,1,0,54,54,54,54,0,0,0-54-54Z"/><path class="cls-3" d="M180,171.15c-15.62,0-23.74-9.18-23.74-9.18"/><path class="cls-3" d="M169.4,131a7.75,7.75,0,0,1-15.29,0"/><path class="cls-3" d="M180,171.15c15.62,0,23.74-9.18,23.74-9.18"/><path class="cls-3" d="M190.6,131a7.75,7.75,0,0,0,15.29,0"/></g></svg>