<svg xmlns="http://www.w3.org/2000/svg" viewBox="0 0 360 360"><defs><style>.cls-1{fill:#fff;}.cls-2{fill:#0c6e39;}.cls-3{fill:none;stroke:#0c6e39;stroke-miterlimit:10;stroke-width:3px;}</style></defs><title>CARD</title><g id="Layer_6" data-name="Layer 6"><rect class="cls-1" x="0.42" y="-0.41" width="360" height="360"/></g><g id="BACKGROUND"><rect class="cls-2" y="336.06" width="360" height="23.94"/><path class="cls-1" d="M207,344.09h3.65a2.89,2.89,0,0,1,1,.17,2.33,2.33,0,0,1,.78.46,2,2,0,0,1,.48.69,2.29,2.29,0,0,1,.17.87,2.08,2.08,0,0,1-.11.69,1.73,1.73,0,0,1-.68.89,2,2,0,0,1-.46.24,1.9,1.9,0,0,1,1.08.49,1.76,1.76,0,0,1,.39.56,2.05,2.05,0,0,1,.15.83,2.55,2.55,0,0,1-.2,1,2.39,2.39,0,0,1-.57.79,2.72,2.72,0,0,1-.85.53,3.14,3.14,0,0,1-1.08.19H207Zm1.75,1.46v1.95H210a1.74,1.74,0,0,0,1-.22.87.87,0,0,0,.31-.78.88.88,0,0,0-.27-.73,1.42,1.42,0,0,0-.9-.22Zm0,5.47h1.44a1.82,1.82,0,0,0,1.16-.27,1,1,0,0,0,.3-.78.85.85,0,0,0-.37-.82,2.33,2.33,0,0,0-1.11-.21h-1.42Z"/><path class="cls-1" d="M219.57,352.66a3.34,3.34,0,0,1-2.56-.87,3.39,3.39,0,0,1-.8-2.4v-5.3H218v5.31a2,2,0,0,0,.38,1.27,1.64,1.64,0,0,0,2.36,0,2,2,0,0,0,.38-1.27v-5.31h1.8v5.3a3.39,3.39,0,0,1-.8,2.4A3.34,3.34,0,0,1,219.57,352.66Z"/><path class="cls-1" d="M226.05,344.09h1.8v8.4h-1.8Z"/><path class="cls-1" d="M231,344.09h1.8V351h3.67v1.5H231Z"/><path class="cls-1" d="M237.23,344.09h6.66v1.5h-2.42v6.9h-1.81v-6.9h-2.43Z"/><path class="cls-1" d="M250.45,352.49v-8.4h5.72v1.49h-4v1.84h3.67v1.49h-3.67V351h4v1.49Z"/><path class="cls-1" d="M259,344.09h1.88c.48.79.95,1.54,1.39,2.25l.65,1.05c.16.28.33.55.5.83l.48.77.38.62h0v-5.52H266v8.4h-1.87c-.48-.78-.93-1.52-1.37-2.22-.25-.42-.47-.76-.64-1l-.51-.83-.48-.79c-.16-.25-.29-.47-.41-.64h0v5.52H259Z"/><path class="cls-1" d="M270.44,344.09l.84,2.43c.16.46.29.84.39,1.16s.21.62.32.94l.3.92.25.79h0c.07-.23.16-.5.25-.8l.31-.95.34-1,.35-1q.39-1.17.84-2.43h1.85l-3.1,8.4h-1.83l-3.06-8.4Z"/><path class="cls-1" d="M279,344.09h1.8v8.4H279Z"/><path class="cls-1" d="M290.23,346.64a2.57,2.57,0,0,1-.43,1.53,2.48,2.48,0,0,1-1.17.87l1.93,3.45h-2l-1.74-3.18h-1.11v3.18h-1.79v-8.4H287a5.47,5.47,0,0,1,1.33.15,2.84,2.84,0,0,1,1,.46,2.08,2.08,0,0,1,.65.79A2.71,2.71,0,0,1,290.23,346.64Zm-1.85,0a.91.91,0,0,0-.39-.85,2.32,2.32,0,0,0-1.18-.23h-1.08v2.26h1.08a2.1,2.1,0,0,0,1.18-.27A1,1,0,0,0,288.38,346.66Z"/><path class="cls-1" d="M292.9,348.29a5.24,5.24,0,0,1,.3-1.83,4,4,0,0,1,.82-1.38,3.7,3.7,0,0,1,1.29-.86,4.56,4.56,0,0,1,1.68-.3,4.49,4.49,0,0,1,1.68.3,3.52,3.52,0,0,1,1.29.86,3.83,3.83,0,0,1,.83,1.38,5.73,5.73,0,0,1,0,3.66,3.7,3.7,0,0,1-.83,1.37,3.42,3.42,0,0,1-1.29.87,4.49,4.49,0,0,1-1.68.3,4.56,4.56,0,0,1-1.68-.3,3.59,3.59,0,0,1-1.29-.87,3.82,3.82,0,0,1-.82-1.37A5.24,5.24,0,0,1,292.9,348.29Zm1.86,0a4.81,4.81,0,0,0,.14,1.17,2.72,2.72,0,0,0,.41.91,2,2,0,0,0,.7.59,2.42,2.42,0,0,0,2,0,1.88,1.88,0,0,0,.69-.59,2.54,2.54,0,0,0,.42-.91,4.81,4.81,0,0,0,.14-1.17,4.69,4.69,0,0,0-.14-1.17,2.47,2.47,0,0,0-.42-.91,1.79,1.79,0,0,0-.69-.59,2.42,2.42,0,0,0-2,0,1.89,1.89,0,0,0-.7.59,2.63,2.63,0,0,0-.41.91A4.69,4.69,0,0,0,294.76,348.29Z"/><path class="cls-1" d="M303.91,344.09h1.87l1.39,2.25.65,1.05c.17.28.34.55.5.83l.48.77.39.62h0v-5.52h1.71v8.4h-1.88l-1.36-2.22-.65-1-.51-.83-.48-.79-.4-.64h0v5.52h-1.7Z"/><path class="cls-1" d="M317.79,352.49q-.18-.5-.45-1.29l-.56-1.66c-.19-.58-.38-1.14-.56-1.7s-.32-1-.43-1.39h0v6h-1.66v-8.4h2.52c.35,1,.66,2,.94,2.82.17.51.31.92.41,1.24s.21.62.3.91.18.54.26.78.13.4.16.5l.15-.5c.08-.24.16-.51.26-.83l.33-1c.11-.36.23-.72.35-1.08q.41-1.29.9-2.82h2.51v8.4h-1.66v-6h0l-.29.9-.37,1.11c-.13.39-.26.79-.4,1.19s-.26.79-.38,1.15l-.33,1c-.1.3-.19.53-.25.7Z"/><path class="cls-1" d="M326.35,352.49v-8.4h5.72v1.49h-3.95v1.84h3.67v1.49h-3.67V351h4v1.49Z"/><path class="cls-1" d="M334.91,344.09h1.88c.48.79.95,1.54,1.39,2.25l.65,1.05c.16.28.33.55.5.83l.48.77.38.62h0v-5.52h1.7v8.4h-1.87c-.48-.78-.93-1.52-1.37-2.22-.25-.42-.47-.76-.64-1l-.51-.83-.48-.79c-.16-.25-.29-.47-.41-.64h0v5.52h-1.71Z"/><path class="cls-1" d="M344.47,344.09h6.66v1.5H348.7v6.9h-1.81v-6.9h-2.42Z"/></g><g id="LINE_ONE" data-name="LINE ONE"><path class="cls-2" d="M84,234.16h3v14H84Z"/><path class="cls-2" d="M92.32,234.16h3.12l2.32,3.76c.44.7.8,1.29,1.08,1.75l.84,1.37.8,1.29.64,1h.06v-9.2H104v14H100.9l-2.28-3.7-1.07-1.73c-.29-.46-.57-.92-.85-1.38L95.89,240c-.26-.42-.48-.78-.67-1.07h-.06v9.2H92.32Z"/><path class="cls-2" d="M108.24,234.16h11.1v2.5h-4v11.5h-3v-11.5h-4Z"/><path class="cls-2" d="M123.56,248.16v-14h9.54v2.48h-6.58v3.08h6.12v2.48h-6.12v3.48h6.68v2.48Z"/><path class="cls-2" d="M143.56,240.4H150v7.76h-2.72v-1.44a3.69,3.69,0,0,1-1.36,1.22,4.83,4.83,0,0,1-2.34.5,6.29,6.29,0,0,1-2.75-.57,5.72,5.72,0,0,1-2-1.55,6.79,6.79,0,0,1-1.19-2.3,9.56,9.56,0,0,1-.4-2.82,9,9,0,0,1,.47-3,6.36,6.36,0,0,1,1.37-2.31,6.18,6.18,0,0,1,2.19-1.51,7.54,7.54,0,0,1,2.93-.54,6.74,6.74,0,0,1,3.62.93,5.7,5.7,0,0,1,2.26,2.75l-2.78,1.14A3.54,3.54,0,0,0,146.1,237a3.24,3.24,0,0,0-2-.61,3.35,3.35,0,0,0-2.72,1.25,5.72,5.72,0,0,0-1,3.69q0,4.68,3.7,4.68a4,4,0,0,0,1.08-.15,3.45,3.45,0,0,0,1-.46,2.51,2.51,0,0,0,.73-.79,2.24,2.24,0,0,0,.28-1.16v-.64h-3.58Z"/><path class="cls-2" d="M165.7,238.42A4.26,4.26,0,0,1,165,241a4.21,4.21,0,0,1-2,1.46l3.22,5.74H163l-2.9-5.3H158.2v5.3h-3v-14h5.12a8.89,8.89,0,0,1,2.21.25,4.61,4.61,0,0,1,1.69.77,3.39,3.39,0,0,1,1.08,1.32A4.47,4.47,0,0,1,165.7,238.42Zm-3.08,0A1.51,1.51,0,0,0,162,237a3.91,3.91,0,0,0-2-.39h-1.8v3.78H160a3.48,3.48,0,0,0,2-.45A1.74,1.74,0,0,0,162.62,238.44Z"/><path class="cls-2" d="M182.9,248.16h-3.1l-1.12-3.24h-5l-1.12,3.24H169.6l5-14h3.22Zm-6.76-10.72c0,.1-.07.26-.14.47s-.14.44-.22.7-.17.54-.27.84l-.29.87c-.23.69-.47,1.43-.74,2.22h3.38c-.27-.79-.51-1.53-.74-2.22-.15-.4-.26-.73-.35-1s-.17-.51-.24-.75-.14-.47-.21-.67-.11-.37-.14-.47Z"/><path class="cls-2" d="M184.38,234.16h11.1v2.5h-4v11.5h-3v-11.5h-4Z"/><path class="cls-2" d="M199.7,234.16h3v14h-3Z"/><path class="cls-2" d="M207.4,241.16a8.83,8.83,0,0,1,.49-3,6.55,6.55,0,0,1,1.38-2.29,5.82,5.82,0,0,1,2.15-1.44,8.09,8.09,0,0,1,5.6,0,5.9,5.9,0,0,1,2.15,1.44,6.55,6.55,0,0,1,1.38,2.29,9.74,9.74,0,0,1,0,6.1,6.64,6.64,0,0,1-1.38,2.29,6,6,0,0,1-2.15,1.44,8.09,8.09,0,0,1-5.6,0,5.94,5.94,0,0,1-2.15-1.44,6.64,6.64,0,0,1-1.38-2.29A8.83,8.83,0,0,1,207.4,241.16Zm3.1,0a7.56,7.56,0,0,0,.23,2,4.33,4.33,0,0,0,.69,1.52,3.24,3.24,0,0,0,1.16,1,4,4,0,0,0,3.28,0,3.32,3.32,0,0,0,1.16-1,4.52,4.52,0,0,0,.69-1.52,8,8,0,0,0,.23-2,7.9,7.9,0,0,0-.23-1.95,4.43,4.43,0,0,0-.69-1.52,3.22,3.22,0,0,0-1.16-1,4,4,0,0,0-3.28,0,3.14,3.14,0,0,0-1.16,1,4.25,4.25,0,0,0-.69,1.52A7.45,7.45,0,0,0,210.5,241.16Z"/><path class="cls-2" d="M225.74,234.16h3.12l2.32,3.76c.44.7.8,1.29,1.08,1.75l.84,1.37.8,1.29.64,1h.06v-9.2h2.84v14h-3.12l-2.28-3.7L231,242.73c-.29-.46-.57-.92-.85-1.38l-.81-1.32-.67-1.07h-.06v9.2h-2.84Z"/><path class="cls-2" d="M248.84,241.16a8.83,8.83,0,0,1,.49-3,6.55,6.55,0,0,1,1.38-2.29,5.82,5.82,0,0,1,2.15-1.44,8.09,8.09,0,0,1,5.6,0,5.9,5.9,0,0,1,2.15,1.44,6.55,6.55,0,0,1,1.38,2.29,9.74,9.74,0,0,1,0,6.1,6.64,6.64,0,0,1-1.38,2.29,6,6,0,0,1-2.15,1.44,8.09,8.09,0,0,1-5.6,0,5.94,5.94,0,0,1-2.15-1.44,6.64,6.64,0,0,1-1.38-2.29A8.83,8.83,0,0,1,248.84,241.16Zm3.1,0a7.56,7.56,0,0,0,.23,2,4.33,4.33,0,0,0,.69,1.52,3.16,3.16,0,0,0,1.16,1,4,4,0,0,0,3.28,0,3.32,3.32,0,0,0,1.16-1,4.73,4.73,0,0,0,.69-1.52,8,8,0,0,0,.23-2,7.9,7.9,0,0,0-.23-1.95,4.63,4.63,0,0,0-.69-1.52,3.22,3.22,0,0,0-1.16-1,4,4,0,0,0-3.28,0,3.06,3.06,0,0,0-1.16,1,4.25,4.25,0,0,0-.69,1.52A7.45,7.45,0,0,0,251.94,241.16Z"/><path class="cls-2" d="M267.18,248.16v-14h9.58v2.48h-6.62v3.08h6.1v2.48h-6.1v6Z"/></g><g id="LINE_TWO" data-name="LINE TWO"><path class="cls-2" d="M101.49,251.94h11.1v2.5h-4v11.5h-3v-11.5h-4Z"/><path class="cls-2" d="M116.81,265.94v-14h9.54v2.48h-6.58v3.08h6.12V260h-6.12v3.48h6.68v2.48Z"/><path class="cls-2" d="M130.51,258.94a9.16,9.16,0,0,1,.48-3.07,6.47,6.47,0,0,1,1.37-2.29,5.88,5.88,0,0,1,2.16-1.43,8,8,0,0,1,2.85-.49,6.83,6.83,0,0,1,3.76,1,5.39,5.39,0,0,1,2.16,3l-2.92,1a4,4,0,0,0-1.08-1.83,2.86,2.86,0,0,0-2-.65,3.51,3.51,0,0,0-1.62.36,3.26,3.26,0,0,0-1.16,1,4.37,4.37,0,0,0-.69,1.51,7.77,7.77,0,0,0-.23,1.92,7.57,7.57,0,0,0,.23,1.91,4.37,4.37,0,0,0,.69,1.51,3.19,3.19,0,0,0,1.16,1,3.54,3.54,0,0,0,1.64.36,2.94,2.94,0,0,0,1.89-.58,3.48,3.48,0,0,0,1.11-1.76l2.88,1a6,6,0,0,1-2.16,2.8,6.42,6.42,0,0,1-3.76,1,7.5,7.5,0,0,1-2.79-.49,5.82,5.82,0,0,1-2.14-1.42A6.3,6.3,0,0,1,131,262,9.18,9.18,0,0,1,130.51,258.94Z"/><path class="cls-2" d="M147.69,251.94h3v5.54H156v-5.54h3v14h-3V260h-5.3v5.94h-3Z"/><path class="cls-2" d="M164.27,251.94h3.12l2.32,3.76,1.08,1.75.84,1.37.8,1.29.64,1h.06v-9.2H176v14h-3.12c-.8-1.29-1.56-2.52-2.28-3.7l-1.07-1.73c-.29-.46-.57-.92-.85-1.38l-.81-1.32-.67-1.07h-.06v9.2h-2.84Z"/><path class="cls-2" d="M180.67,258.94a8.83,8.83,0,0,1,.49-3.05,6.64,6.64,0,0,1,1.38-2.29,6.07,6.07,0,0,1,2.15-1.44,8.09,8.09,0,0,1,5.6,0,6.07,6.07,0,0,1,2.15,1.44,6.64,6.64,0,0,1,1.38,2.29,9.74,9.74,0,0,1,0,6.1,6.55,6.55,0,0,1-1.38,2.29,5.82,5.82,0,0,1-2.15,1.44,8.09,8.09,0,0,1-5.6,0,5.82,5.82,0,0,1-2.15-1.44,6.55,6.55,0,0,1-1.38-2.29A8.79,8.79,0,0,1,180.67,258.94Zm3.1,0a7.9,7.9,0,0,0,.23,1.95,4.25,4.25,0,0,0,.69,1.52,3.14,3.14,0,0,0,1.16,1,4,4,0,0,0,3.28,0,3.14,3.14,0,0,0,1.16-1,4.25,4.25,0,0,0,.69-1.52,7.9,7.9,0,0,0,.23-1.95A8,8,0,0,0,191,257a4.33,4.33,0,0,0-.69-1.52,3.24,3.24,0,0,0-1.16-1,4,4,0,0,0-3.28,0,3.24,3.24,0,0,0-1.16,1A4.33,4.33,0,0,0,184,257,8,8,0,0,0,183.77,258.94Z"/><path class="cls-2" d="M199,251.94h3v11.5h6.12v2.5H199Z"/><path class="cls-2" d="M211.25,258.94a8.83,8.83,0,0,1,.49-3.05,6.64,6.64,0,0,1,1.38-2.29,6.07,6.07,0,0,1,2.15-1.44,8.09,8.09,0,0,1,5.6,0A6.07,6.07,0,0,1,223,253.6a6.64,6.64,0,0,1,1.38,2.29,9.74,9.74,0,0,1,0,6.1,6.55,6.55,0,0,1-1.38,2.29,5.82,5.82,0,0,1-2.15,1.44,8.09,8.09,0,0,1-5.6,0,5.82,5.82,0,0,1-2.15-1.44,6.55,6.55,0,0,1-1.38-2.29A8.79,8.79,0,0,1,211.25,258.94Zm3.1,0a7.9,7.9,0,0,0,.23,1.95,4.25,4.25,0,0,0,.69,1.52,3.14,3.14,0,0,0,1.16,1,4,4,0,0,0,3.28,0,3.14,3.14,0,0,0,1.16-1,4.25,4.25,0,0,0,.69-1.52,7.9,7.9,0,0,0,.23-1.95,8,8,0,0,0-.23-1.95,4.33,4.33,0,0,0-.69-1.52,3.24,3.24,0,0,0-1.16-1,4,4,0,0,0-3.28,0,3.24,3.24,0,0,0-1.16,1,4.33,4.33,0,0,0-.69,1.52A8,8,0,0,0,214.35,258.94Z"/><path class="cls-2" d="M235.51,258.18H242v7.76h-2.72V264.5a3.69,3.69,0,0,1-1.36,1.22,4.72,4.72,0,0,1-2.34.5,6.29,6.29,0,0,1-2.75-.57,5.61,5.61,0,0,1-2-1.55,6.7,6.7,0,0,1-1.19-2.3,9.56,9.56,0,0,1-.4-2.82,9,9,0,0,1,.47-3,6.53,6.53,0,0,1,1.37-2.31,6.31,6.31,0,0,1,2.19-1.51,7.54,7.54,0,0,1,2.93-.54,6.74,6.74,0,0,1,3.62.93,5.74,5.74,0,0,1,2.26,2.75l-2.78,1.14a3.64,3.64,0,0,0-1.22-1.73,3.3,3.3,0,0,0-2-.61,3.35,3.35,0,0,0-2.72,1.25,5.75,5.75,0,0,0-1,3.69q0,4.68,3.7,4.68a4,4,0,0,0,1.08-.15,3.2,3.2,0,0,0,1-.46,2.41,2.41,0,0,0,.73-.79,2.22,2.22,0,0,0,.28-1.16v-.64h-3.58Z"/><path class="cls-2" d="M250.41,260.08l-5.3-8.14h3.44L252,257.3l3.4-5.36h3.34l-5.3,8.14v5.86h-3Z"/></g><g id="ICON"><circle class="cls-3" cx="209.9" cy="126.32" r="36.05"/><line class="cls-3" x1="173.84" y1="126.32" x2="245.95" y2="126.32"/><line class="cls-3" x1="209.9" y1="90.27" x2="209.9" y2="162.38"/><path class="cls-3" d="M209.64,90.27c-1.86,1.46-18.2,14.78-17.61,37.15.56,21.13,15.77,33.34,17.87,35"/><path class="cls-3" d="M210.16,90.27c1.85,1.46,18.19,14.78,17.6,37.15-.55,21.13-15.77,33.34-17.86,35"/><path class="cls-3" d="M184.24,151.22a35.2,35.2,0,0,1,26.57-11.45,34.74,34.74,0,0,1,25,11.62"/><path class="cls-3" d="M184.11,101.37a35.21,35.21,0,0,0,26.57,11.46,34.77,34.77,0,0,0,25-11.63"/><path class="cls-2" d="M163.61,181.58H124.47c-1.55,0-1.55,0-1.55-1.54q0-22.29,0-44.58c0-2.68.87-3.53,3.53-3.53h74.3c2.67,0,3.54.85,3.54,3.52V180c0,1.55,0,1.55-1.55,1.55Zm-37.18-45.91c0,.49-.06.86-.06,1.24q0,19.85,0,39.71c0,1.12.36,1.35,1.41,1.35q35.85,0,71.71,0c1,0,1.41-.23,1.4-1.35,0-13.24,0-26.48,0-39.72,0-.39,0-.79-.07-1.23Zm37.25-.73c.32-.6.65-.93.62-1.23s-.45-.47-.69-.71c-.25.27-.68.52-.7.81S163.28,134.39,163.68,134.94Z"/><path class="cls-2" d="M114.05,183.7h1.88q16.27,0,32.56,0a6.16,6.16,0,0,1,1.82.63,3.86,3.86,0,0,0,1.1.4q12.19,0,24.4,0a1.3,1.3,0,0,0,.92-.27,2.52,2.52,0,0,1,2.34-.8h34c.35,2.78-2.05,5.81-5,6.41a10.55,10.55,0,0,1-2,.19H121.17C117,190.3,114.09,187.63,114.05,183.7Z"/><path class="cls-1" d="M126.43,135.67h74.34c0,.44.07.84.07,1.23,0,13.24,0,26.48,0,39.72,0,1.12-.35,1.35-1.4,1.35q-35.85,0-71.71,0c-1,0-1.41-.23-1.41-1.35q.06-19.86,0-39.71C126.37,136.53,126.41,136.16,126.43,135.67Z"/><path class="cls-1" d="M163.68,134.94c-.4-.55-.8-.86-.77-1.13s.45-.54.7-.81c.24.24.67.46.69.71S164,134.34,163.68,134.94Z"/><path class="cls-2" d="M197.36,175.7V155.9c0-1.88.88-2.76,2.76-2.76h20.56a2.36,2.36,0,0,1,2.58,2.58v40a2.36,2.36,0,0,1-2.58,2.59H200a2.38,2.38,0,0,1-2.61-2.62Zm24.5,16.78V158.94H198.78v33.54Zm-11.54,3.67h4.49c.51,0,.79-.24.82-.64s-.28-.73-.82-.74h-3.94c-1.67,0-3.34,0-5,0a1.09,1.09,0,0,0-.78.4c-.3.46.1.95.74,1Zm0-39.47h2.84c.5,0,.79-.25.8-.65s-.29-.69-.81-.69c-1.87,0-3.74,0-5.62,0-.52,0-.83.26-.82.68s.29.66.83.66Z"/><path class="cls-2" d="M221.86,192.48H198.78V158.94h23.08Zm-1.37-1.39V160.32H200.13v30.77Z"/><path class="cls-1" d="M210.32,196.15h-4.5c-.64,0-1-.5-.74-1a1.09,1.09,0,0,1,.78-.4c1.67,0,3.34,0,5,0h3.94c.54,0,.85.3.82.74s-.31.64-.82.64Z"/><path class="cls-1" d="M210.3,156.68h-2.78c-.54,0-.83-.24-.83-.66s.3-.68.82-.68c1.88,0,3.75,0,5.62,0,.52,0,.82.27.81.69s-.3.65-.8.65Z"/><path class="cls-1" d="M220.49,191.09H200.13V160.32h20.36Z"/></g></svg>