<svg xmlns="http://www.w3.org/2000/svg" viewBox="0 0 360 360"><defs><style>.cls-1{fill:#fff;}</style></defs><title>CARD</title><g id="Layer_6" data-name="Layer 6"><rect y="0.06" width="360" height="360"/></g><g id="LINE_ONE" data-name="LINE ONE"><path class="cls-1" d="M139.92,248.16v-14h9.58v2.48h-6.62v3.08H149v2.48h-6.1v6Z"/><path class="cls-1" d="M165,248.16h-3.1l-1.12-3.24h-5l-1.12,3.24h-2.94l5-14H160Zm-6.76-10.72c0,.11-.07.26-.14.47s-.14.44-.22.7-.17.54-.27.84-.2.59-.29.87c-.23.69-.47,1.43-.74,2.22H160c-.27-.79-.51-1.53-.74-2.22-.15-.4-.26-.73-.35-1s-.17-.51-.24-.75-.14-.46-.21-.67-.11-.36-.14-.47Z"/><path class="cls-1" d="M175.34,248.16c-.2-.55-.45-1.26-.75-2.15l-.93-2.77q-.48-1.44-.93-2.82c-.3-.92-.54-1.69-.73-2.32h-.06v10.06h-2.76v-14h4.2c.57,1.71,1.09,3.27,1.56,4.7q.42,1.27.69,2.07c.18.53.35,1,.5,1.51s.29.91.42,1.3.22.67.27.84l.26-.84c.12-.39.26-.84.43-1.37s.35-1.09.54-1.7.39-1.21.59-1.81c.45-1.43,1-3,1.5-4.7h4.18v14h-2.76V238.1h-.06l-.48,1.49c-.19.58-.39,1.2-.61,1.85s-.44,1.32-.67,2-.44,1.31-.64,1.92-.38,1.16-.55,1.65-.3.88-.41,1.16Z"/><path class="cls-1" d="M189.6,234.16h3v14h-3Z"/><path class="cls-1" d="M197.88,234.16h3v11.5H207v2.5h-9.12Z"/><path class="cls-1" d="M213,242.3l-5.3-8.14h3.44l3.42,5.36,3.4-5.36h3.34L216,242.3v5.86h-3Z"/></g><g id="LINE_TWO" data-name="LINE TWO"><path class="cls-1" d="M130.58,255.62a1.34,1.34,0,0,0,.78,1.29,9.1,9.1,0,0,0,2.48.67,7.86,7.86,0,0,1,3.67,1.38,3.49,3.49,0,0,1,1.17,2.86,3.92,3.92,0,0,1-.42,1.83,4.07,4.07,0,0,1-1.17,1.38,5.44,5.44,0,0,1-1.79.88,7.77,7.77,0,0,1-2.26.31,7.39,7.39,0,0,1-2.38-.35,5.66,5.66,0,0,1-1.8-.93,4.3,4.3,0,0,1-1.16-1.36,3.81,3.81,0,0,1-.46-1.62l3-.48a2.56,2.56,0,0,0,.79,1.67,2.8,2.8,0,0,0,2,.65,4.61,4.61,0,0,0,1-.1,2.14,2.14,0,0,0,.82-.33,1.66,1.66,0,0,0,.55-.57,1.61,1.61,0,0,0,.2-.82,1.35,1.35,0,0,0-.65-1.2,6.52,6.52,0,0,0-2.29-.68,16.15,16.15,0,0,1-2-.46,5.23,5.23,0,0,1-1.63-.77,3.42,3.42,0,0,1-1.08-1.22,3.73,3.73,0,0,1-.39-1.79,4,4,0,0,1,.4-1.84,3.81,3.81,0,0,1,1.12-1.31,5.22,5.22,0,0,1,1.7-.79,8.48,8.48,0,0,1,2.14-.26,8.16,8.16,0,0,1,2,.25,5.77,5.77,0,0,1,1.67.74,4.36,4.36,0,0,1,1.21,1.21,4.49,4.49,0,0,1,.66,1.64l-3,.66a2.48,2.48,0,0,0-.82-1.52,2.67,2.67,0,0,0-1.78-.56,2.78,2.78,0,0,0-1.69.42A1.34,1.34,0,0,0,130.58,255.62Z"/><path class="cls-1" d="M148.86,266.22a5.56,5.56,0,0,1-4.26-1.44,5.65,5.65,0,0,1-1.34-4v-8.84h3v8.86a3.32,3.32,0,0,0,.64,2.11,2.73,2.73,0,0,0,3.92,0,3.32,3.32,0,0,0,.64-2.11v-8.86h3v8.84a5.65,5.65,0,0,1-1.34,4A5.56,5.56,0,0,1,148.86,266.22Z"/><path class="cls-1" d="M162.64,261v4.92h-3v-14H165a9.4,9.4,0,0,1,2.28.26,5,5,0,0,1,1.74.8,3.7,3.7,0,0,1,1.12,1.38,4.64,4.64,0,0,1,.4,2,4.87,4.87,0,0,1-.41,2.07,3.85,3.85,0,0,1-1.14,1.44,4.83,4.83,0,0,1-1.75.84A8.76,8.76,0,0,1,165,261Zm4.82-4.62a1.68,1.68,0,0,0-.69-1.56,4.11,4.11,0,0,0-2.09-.42h-2v4.12h2a3.52,3.52,0,0,0,2.09-.5A1.88,1.88,0,0,0,167.46,256.4Z"/><path class="cls-1" d="M177.9,261v4.92h-3v-14h5.32a9.4,9.4,0,0,1,2.28.26,5,5,0,0,1,1.74.8,3.7,3.7,0,0,1,1.12,1.38,4.64,4.64,0,0,1,.4,2,4.87,4.87,0,0,1-.41,2.07,3.85,3.85,0,0,1-1.14,1.44,4.83,4.83,0,0,1-1.75.84,8.76,8.76,0,0,1-2.24.27Zm4.82-4.62a1.68,1.68,0,0,0-.69-1.56,4.11,4.11,0,0,0-2.09-.42h-2v4.12h2A3.52,3.52,0,0,0,182,258,1.88,1.88,0,0,0,182.72,256.4Z"/><path class="cls-1" d="M189.6,258.94a8.83,8.83,0,0,1,.49-3.05,6.64,6.64,0,0,1,1.38-2.29,6.07,6.07,0,0,1,2.15-1.44,8.09,8.09,0,0,1,5.6,0,6.07,6.07,0,0,1,2.15,1.44,6.64,6.64,0,0,1,1.38,2.29,9.74,9.74,0,0,1,0,6.1,6.55,6.55,0,0,1-1.38,2.29,5.82,5.82,0,0,1-2.15,1.44,8.09,8.09,0,0,1-5.6,0,5.82,5.82,0,0,1-2.15-1.44,6.55,6.55,0,0,1-1.38-2.29A8.79,8.79,0,0,1,189.6,258.94Zm3.1,0a7.9,7.9,0,0,0,.23,1.95,4.25,4.25,0,0,0,.69,1.52,3.14,3.14,0,0,0,1.16,1,4,4,0,0,0,3.28,0,3.14,3.14,0,0,0,1.16-1,4.25,4.25,0,0,0,.69-1.52,7.9,7.9,0,0,0,.23-1.95,8,8,0,0,0-.23-1.95,4.33,4.33,0,0,0-.69-1.52,3.24,3.24,0,0,0-1.16-1,4,4,0,0,0-3.28,0,3.24,3.24,0,0,0-1.16,1,4.33,4.33,0,0,0-.69,1.52A8,8,0,0,0,192.7,258.94Z"/><path class="cls-1" d="M218.42,256.2a4.24,4.24,0,0,1-.71,2.54,4.14,4.14,0,0,1-2,1.46l3.22,5.74h-3.3l-2.9-5.3h-1.86v5.3h-3v-14h5.12a9.39,9.39,0,0,1,2.21.25A5,5,0,0,1,217,253a3.46,3.46,0,0,1,1.08,1.32A4.53,4.53,0,0,1,218.42,256.2Zm-3.08,0a1.51,1.51,0,0,0-.65-1.41,3.91,3.91,0,0,0-2-.39h-1.8v3.78h1.8a3.48,3.48,0,0,0,2-.45A1.74,1.74,0,0,0,215.34,256.22Z"/><path class="cls-1" d="M222.1,251.94h11.1v2.5h-4v11.5h-3v-11.5h-4Z"/></g><g id="ICON"><path class="cls-1" d="M220.65,158.77a21.72,21.72,0,0,1,3.15,2,6.6,6.6,0,0,1-3.37,11.36c-5.34.82-10.69,1.59-16.05,2.27-.62.08-1.34-.57-2-.88.55-.41,1-1.1,1.65-1.19,5.1-.82,10.24-1.42,15.32-2.36a5.83,5.83,0,0,0,3.71-2.32,5,5,0,0,0-.17-4.3,4.92,4.92,0,0,0-3.83-1.94c-8.7,1.05-17.42,2.15-26,3.81a13.13,13.13,0,0,0-6.92,4.4c-4.33,5.24-8.17,10.89-12.14,16.43-1.4,1.94-1.09,3.62.83,5.06q4.13,3.11,8.35,6.09c2,1.43,3.73,1.16,5.3-.82a38.64,38.64,0,0,0,3.31-4.56c1.54-2.66,3.86-3.84,6.74-4.55,7.29-1.81,14.53-3.81,21.8-5.73a8.19,8.19,0,0,0,5.84-5.25c4.12-10.3,8.33-20.57,12.5-30.85a9.15,9.15,0,0,0,.67-2,4.25,4.25,0,0,0-2.52-4.82,3.65,3.65,0,0,0-5,1.27C228,146.11,224.4,152.4,220.65,158.77Z"/><path class="cls-1" d="M139.35,158.77a21.72,21.72,0,0,0-3.15,2,6.6,6.6,0,0,0,3.37,11.36c5.34.82,10.69,1.59,16.05,2.27.62.08,1.34-.57,2-.88-.55-.41-1-1.1-1.65-1.19-5.1-.82-10.24-1.42-15.32-2.36a5.83,5.83,0,0,1-3.71-2.32,5,5,0,0,1,.17-4.3,4.92,4.92,0,0,1,3.83-1.94c8.7,1.05,17.42,2.15,26,3.81a13.13,13.13,0,0,1,6.92,4.4c4.33,5.24,8.17,10.89,12.14,16.43,1.4,1.94,1.09,3.62-.83,5.06q-4.12,3.11-8.35,6.09c-2,1.43-3.73,1.16-5.3-.82a38.64,38.64,0,0,1-3.31-4.56c-1.54-2.66-3.86-3.84-6.74-4.55-7.29-1.81-14.54-3.81-21.8-5.73a8.22,8.22,0,0,1-5.85-5.25c-4.11-10.3-8.32-20.57-12.49-30.85a8.64,8.64,0,0,1-.67-2,4.25,4.25,0,0,1,2.52-4.82,3.65,3.65,0,0,1,5,1.27C132,146.11,135.6,152.4,139.35,158.77Z"/><path class="cls-1" d="M180,116.07a7.2,7.2,0,0,1,7-3.88c8,0,16.07,0,24.1,0,4.47,0,7,2.55,7,7q0,16.77,0,33.52c0,2.81-1,3.9-3.41,3.91-2.6,0-3.7-1.1-3.71-3.91,0-8.38,0-16.76,0-25.14v-2.27c-1.58-.14-1.62-.14-1.62,1.38,0,6.35-.06,20.63-.05,27m0,0H150.79l-.17-7.92c0-6.35,0-12.71,0-19.06,0-1.52,0-1.52-1.62-1.38v2.27q0,12.57,0,25.14c0,2.81-1.11,3.94-3.71,3.91-2.45,0-3.41-1.1-3.41-3.91q0-16.76,0-33.52c0-4.46,2.53-7,7-7,8,0,16.06,0,24.1,0a7.2,7.2,0,0,1,7,3.88"/><path class="cls-1" d="M209,100.48a10.15,10.15,0,1,1-10.07-10.15A10.18,10.18,0,0,1,209,100.48Z"/><path class="cls-1" d="M171.08,100.48A10.15,10.15,0,1,1,161,90.33,10.18,10.18,0,0,1,171.08,100.48Z"/><path d="M189.78,146.32c3.24-4.63,6.6-9.17,9.92-13.74.87-1.21,1.74-2.4.81-4-1.15-2-3.3-2.26-4.81-.37-2.2,2.78-4.24,5.7-6.34,8.57a5.35,5.35,0,0,0-.7,1c-1.83,4.19-5.3,4.32-9.26,4.34-3.54,0-5.94-.67-7.82-4-2-3.48-4.68-6.58-7.13-9.79-1.23-1.61-2.81-1.86-4.18-.85a2.87,2.87,0,0,0-.5,4.26c3.42,4.83,6.95,9.59,10.36,14.44a5.44,5.44,0,0,1,1.06,2.82h17.66a5.34,5.34,0,0,1,1.05-2.82c3.41-4.85,6.94-9.61,10.36-14.44a2.87,2.87,0,0,0-.49-4.26c-1.38-1-3-.76-4.18.85a92.31,92.31,0,0,0-7.14,9.79c-1.88,3.28-4.28,4-7.81,4-4,0-7.43-.15-9.27-4.34a5.79,5.79,0,0,0-.69-1c-2.11-2.87-4.14-5.79-6.35-8.57-1.5-1.89-3.66-1.61-4.8.37-.93,1.6-.06,2.79.81,4,3.31,4.57,6.67,9.11,9.91,13.74"/><path d="M179.89,125.72a7.52,7.52,0,0,0-7.5,7.16,7.37,7.37,0,0,0,7.24,7.4,7.29,7.29,0,0,0,7.46-7.34A7.41,7.41,0,0,0,179.89,125.72Z"/><polyline points="188.85 146.98 188.85 160.64 171.19 160.64 171.19 146.98"/><polygon class="cls-1" points="150.79 153.69 150.79 156.66 168.36 159.36 171.19 160.64 171.19 149.08 150.79 153.69"/><polygon class="cls-1" points="209.26 153.69 209.26 156.66 191.69 159.36 188.87 160.64 188.85 149.08 209.26 153.69"/></g></svg>