<?xml version="1.0" encoding="utf-8"?>
<!-- Generator: Adobe Illustrator 23.1.0, SVG Export Plug-In . SVG Version: 6.00 Build 0)  -->
<svg version="1.1" xmlns="http://www.w3.org/2000/svg" xmlns:xlink="http://www.w3.org/1999/xlink" x="0px" y="0px"
	 viewBox="0 0 360 360" enable-background="new 0 0 360 360" xml:space="preserve">
<g id="BACKGROUND">
	<rect x="0" y="0" width="360" height="360"/>
</g>
<g id="REF" display="none">
	
		<rect x="-360" y="90.27" display="inline" fill="none" stroke="#000000" stroke-width="0.25" stroke-miterlimit="10" width="360" height="108"/>
	
		<rect y="90.27" display="inline" fill="none" stroke="#FFFFFF" stroke-width="0.25" stroke-miterlimit="10" width="360" height="108"/>
	
		<line display="inline" fill="none" stroke="#FFFFFF" stroke-width="0.25" stroke-linecap="round" stroke-miterlimit="10" x1="180" y1="0" x2="180" y2="359.87"/>
</g>
<g id="LINE_ONE">
	<g>
		<path fill="#FFFFFF" d="M84.54,241.16c0-1.15,0.16-2.17,0.48-3.07c0.32-0.9,0.78-1.66,1.37-2.29c0.59-0.63,1.31-1.1,2.16-1.43
			c0.85-0.33,1.8-0.49,2.85-0.49c1.49,0,2.75,0.33,3.76,0.98s1.73,1.65,2.16,2.98l-2.92,1.02c-0.24-0.79-0.6-1.4-1.08-1.83
			s-1.14-0.65-1.98-0.65c-0.61,0-1.15,0.12-1.62,0.36c-0.47,0.24-0.85,0.57-1.16,0.99s-0.54,0.92-0.69,1.51s-0.23,1.23-0.23,1.92
			s0.08,1.33,0.23,1.91s0.38,1.08,0.69,1.51s0.69,0.76,1.16,1c0.47,0.24,1.01,0.36,1.64,0.36c0.77,0,1.4-0.19,1.89-0.58
			s0.86-0.97,1.11-1.76l2.88,1.02c-0.47,1.19-1.19,2.12-2.16,2.8c-0.97,0.68-2.23,1.02-3.76,1.02c-1.03,0-1.96-0.16-2.79-0.49
			s-1.55-0.8-2.14-1.42c-0.59-0.62-1.05-1.38-1.37-2.29C84.7,243.33,84.54,242.31,84.54,241.16z"/>
		<path fill="#FFFFFF" d="M101.72,248.16v-14h9.54v2.48h-6.58v3.08h6.12v2.48h-6.12v3.48h6.68v2.48H101.72z"/>
		<path fill="#FFFFFF" d="M126.48,238.42c0,1.04-0.24,1.89-0.71,2.54c-0.47,0.65-1.12,1.14-1.95,1.46l3.22,5.74h-3.3l-2.9-5.3h-1.86
			v5.3H116v-14h5.12c0.81,0,1.55,0.08,2.21,0.25s1.22,0.42,1.69,0.77c0.47,0.35,0.83,0.79,1.08,1.32
			C126.35,237.03,126.48,237.67,126.48,238.42z M123.4,238.44c0-0.68-0.22-1.15-0.65-1.41c-0.43-0.26-1.09-0.39-1.97-0.39h-1.8v3.78
			h1.8c0.88,0,1.54-0.15,1.97-0.45C123.18,239.67,123.4,239.16,123.4,238.44z"/>
		<path fill="#FFFFFF" d="M130.16,234.16h11.1v2.5h-4.04v11.5h-3.02v-11.5h-4.04V234.16z"/>
		<path fill="#FFFFFF" d="M145.48,234.16h3v14h-3V234.16z"/>
		<path fill="#FFFFFF" d="M153.76,248.16v-14h9.58v2.48h-6.62v3.08h6.1v2.48h-6.1v5.96H153.76z"/>
		<path fill="#FFFFFF" d="M167.82,234.16h3v14h-3V234.16z"/>
		<path fill="#FFFFFF" d="M175.52,241.16c0-1.15,0.16-2.17,0.48-3.07c0.32-0.9,0.78-1.66,1.37-2.29c0.59-0.63,1.31-1.1,2.16-1.43
			c0.85-0.33,1.8-0.49,2.85-0.49c1.49,0,2.75,0.33,3.76,0.98c1.01,0.65,1.73,1.65,2.16,2.98l-2.92,1.02
			c-0.24-0.79-0.6-1.4-1.08-1.83c-0.48-0.43-1.14-0.65-1.98-0.65c-0.61,0-1.15,0.12-1.62,0.36c-0.47,0.24-0.85,0.57-1.16,0.99
			s-0.54,0.92-0.69,1.51s-0.23,1.23-0.23,1.92s0.08,1.33,0.23,1.91s0.38,1.08,0.69,1.51s0.69,0.76,1.16,1
			c0.47,0.24,1.01,0.36,1.64,0.36c0.77,0,1.4-0.19,1.89-0.58c0.49-0.39,0.86-0.97,1.11-1.76l2.88,1.02
			c-0.47,1.19-1.19,2.12-2.16,2.8c-0.97,0.68-2.23,1.02-3.76,1.02c-1.03,0-1.96-0.16-2.79-0.49s-1.55-0.8-2.14-1.42
			c-0.59-0.62-1.05-1.38-1.37-2.29C175.68,243.33,175.52,242.31,175.52,241.16z"/>
		<path fill="#FFFFFF" d="M204.86,248.16h-3.1l-1.12-3.24h-5.02l-1.12,3.24h-2.94l5.04-14h3.22L204.86,248.16z M198.1,237.44
			c-0.03,0.11-0.07,0.26-0.14,0.47c-0.07,0.21-0.14,0.44-0.22,0.7c-0.08,0.26-0.17,0.54-0.27,0.84s-0.2,0.59-0.29,0.87
			c-0.23,0.69-0.47,1.43-0.74,2.22h3.38c-0.27-0.79-0.51-1.53-0.74-2.22c-0.15-0.4-0.26-0.73-0.35-0.99s-0.17-0.51-0.24-0.75
			c-0.07-0.24-0.14-0.46-0.21-0.67c-0.07-0.21-0.11-0.36-0.14-0.47H198.1z"/>
		<path fill="#FFFFFF" d="M206.34,234.16h11.1v2.5h-4.04v11.5h-3.02v-11.5h-4.04V234.16z"/>
		<path fill="#FFFFFF" d="M221.66,234.16h3v14h-3V234.16z"/>
		<path fill="#FFFFFF" d="M229.36,241.16c0-1.13,0.16-2.15,0.49-3.05c0.33-0.9,0.79-1.66,1.38-2.29c0.59-0.63,1.31-1.11,2.15-1.44
			c0.84-0.33,1.77-0.5,2.8-0.5c1.03,0,1.96,0.17,2.8,0.5c0.84,0.33,1.56,0.81,2.15,1.44c0.59,0.63,1.05,1.39,1.38,2.29
			c0.33,0.9,0.49,1.92,0.49,3.05c0,1.13-0.16,2.15-0.49,3.05c-0.33,0.9-0.79,1.66-1.38,2.29c-0.59,0.63-1.31,1.11-2.15,1.44
			c-0.84,0.33-1.77,0.5-2.8,0.5c-1.03,0-1.96-0.17-2.8-0.5s-1.56-0.81-2.15-1.44c-0.59-0.63-1.05-1.39-1.38-2.29
			C229.52,243.31,229.36,242.29,229.36,241.16z M232.46,241.16c0,0.71,0.08,1.36,0.23,1.95c0.15,0.59,0.38,1.1,0.69,1.52
			s0.69,0.75,1.16,0.98s1.01,0.35,1.64,0.35s1.17-0.12,1.64-0.35c0.47-0.23,0.85-0.56,1.16-0.98c0.31-0.42,0.54-0.93,0.69-1.52
			c0.15-0.59,0.23-1.24,0.23-1.95s-0.08-1.36-0.23-1.95c-0.15-0.59-0.38-1.1-0.69-1.52c-0.31-0.42-0.69-0.75-1.16-0.98
			c-0.47-0.23-1.01-0.35-1.64-0.35s-1.17,0.12-1.64,0.35s-0.85,0.56-1.16,0.98s-0.54,0.93-0.69,1.52
			C232.54,239.8,232.46,240.45,232.46,241.16z"/>
		<path fill="#FFFFFF" d="M247.7,234.16h3.12c0.81,1.32,1.59,2.57,2.32,3.76c0.44,0.71,0.8,1.29,1.08,1.75s0.56,0.92,0.84,1.37
			s0.55,0.88,0.8,1.29c0.25,0.41,0.47,0.75,0.64,1.03h0.06v-9.2h2.84v14h-3.12c-0.8-1.29-1.56-2.53-2.28-3.7
			c-0.43-0.69-0.78-1.27-1.07-1.73s-0.57-0.92-0.85-1.38c-0.28-0.46-0.55-0.9-0.81-1.32s-0.48-0.78-0.67-1.07h-0.06v9.2h-2.84
			V234.16z"/>
		<path fill="#FFFFFF" d="M267.4,237.84c0,0.6,0.26,1.03,0.78,1.29c0.52,0.26,1.35,0.48,2.48,0.67c1.67,0.28,2.89,0.74,3.67,1.38
			c0.78,0.64,1.17,1.59,1.17,2.86c0,0.68-0.14,1.29-0.42,1.83s-0.67,1-1.17,1.38s-1.1,0.67-1.79,0.88
			c-0.69,0.21-1.45,0.31-2.26,0.31c-0.88,0-1.67-0.12-2.38-0.35c-0.71-0.23-1.31-0.54-1.8-0.93c-0.49-0.39-0.88-0.84-1.16-1.36
			c-0.28-0.52-0.43-1.06-0.46-1.62l3-0.48c0.07,0.68,0.33,1.24,0.79,1.67c0.46,0.43,1.13,0.65,2.01,0.65c0.36,0,0.7-0.03,1.01-0.1
			c0.31-0.07,0.59-0.18,0.82-0.33c0.23-0.15,0.42-0.34,0.55-0.57c0.13-0.23,0.2-0.5,0.2-0.82c0-0.52-0.22-0.92-0.65-1.2
			s-1.2-0.51-2.29-0.68c-0.73-0.12-1.41-0.27-2.04-0.46s-1.17-0.44-1.63-0.77c-0.46-0.33-0.82-0.73-1.08-1.22
			c-0.26-0.49-0.39-1.08-0.39-1.79c0-0.71,0.13-1.32,0.4-1.84c0.27-0.52,0.64-0.96,1.12-1.31c0.48-0.35,1.05-0.62,1.7-0.79
			c0.65-0.17,1.37-0.26,2.14-0.26c0.72,0,1.39,0.08,2.02,0.25c0.63,0.17,1.18,0.41,1.67,0.74c0.49,0.33,0.89,0.73,1.21,1.21
			c0.32,0.48,0.54,1.03,0.66,1.64l-3.04,0.66c-0.11-0.64-0.38-1.15-0.82-1.52c-0.44-0.37-1.03-0.56-1.78-0.56
			c-0.76,0-1.32,0.14-1.69,0.42C267.58,237,267.4,237.37,267.4,237.84z"/>
	</g>
</g>
<g id="LINE_TWO">
</g>
<g id="ICON">
	<path stroke="#FFFFFF" stroke-width="3" stroke-miterlimit="10" d="M143.67,141.69c-0.02-19.67,16.21-35.93,35.57-36.25
		c20.36-0.34,37.22,16.42,37.15,36.38c-0.07,20-16.28,36.39-36.19,36.41C159.85,178.26,143.69,162.1,143.67,141.69z"/>
	<path fill="none" stroke="#FFFFFF" stroke-miterlimit="10" d="M131.08,143.23c-0.02-26.46,21.81-48.33,47.86-48.77
		c27.4-0.46,50.07,22.09,49.97,48.94c-0.1,26.9-21.9,48.95-48.68,48.98C152.84,192.42,131.11,170.68,131.08,143.23z"/>
	<path fill="none" stroke="#FFFFFF" stroke-width="3" stroke-miterlimit="10" d="M127.29,143.21c-0.03-28.51,23.5-52.08,51.57-52.55
		c29.52-0.49,53.96,23.8,53.85,52.74c-0.11,28.99-23.6,52.75-52.46,52.78C150.74,196.22,127.32,172.8,127.29,143.21z"/>
	<g>
		<path fill="#FFFFFF" d="M167.93,144c-0.7-0.54-1.35-1.06-2.02-1.55c-2.02-1.47-3.04-3.47-2.73-5.94c0.34-2.63,1.86-4.48,4.34-5.49
			c0.1-0.04,0.2-0.07,0.3-0.11c0.02-0.01,0.02-0.04,0.06-0.15c-0.64-0.49-1.29-0.99-1.95-1.49c-2.97-2.24-3.67-5.87-1.71-8.78
			c2.1-3.11,5.63-3.86,8.93-1.89c0.07,0.04,0.14,0.07,0.39,0.19c0-0.57,0.01-1.06,0-1.54c-0.08-3.61,2.03-6.32,5.38-6.93
			c3.78-0.68,7.38,2.25,7.48,6.09c0.02,0.75,0,1.5,0,2.35c0.25-0.11,0.41-0.17,0.56-0.26c3.09-1.87,6.68-1.08,8.75,1.93
			c1.94,2.82,1.34,6.49-1.43,8.65c-0.74,0.57-1.48,1.14-2.3,1.77c2.39,0.82,3.94,2.35,4.6,4.65c0.76,2.62-0.03,4.84-2.07,6.61
			c-0.77,0.67-1.61,1.24-2.5,1.91c1.53,0.56,2.75,1.34,3.59,2.66c1.85,2.91,1.16,6.66-1.72,8.58c-4.03,2.7-8.11,5.33-12.19,7.97
			c-0.49,0.32-0.69,0.65-0.67,1.23c0.04,1.59,0.02,3.18,0.01,4.78c0,0.89-0.36,1.36-1.02,1.38c-0.69,0.02-1.07-0.47-1.07-1.4
			c0-1.57-0.03-3.13,0.01-4.69c0.02-0.6-0.16-0.97-0.69-1.31c-3.99-2.57-7.96-5.17-11.93-7.77c-2.22-1.45-3.24-3.51-2.92-6.14
			c0.3-2.49,1.71-4.18,4.05-5.1C167.61,144.16,167.73,144.09,167.93,144z M181.04,152.26c1.26-1.01,2.33-1.87,3.41-2.72
			c0.72-0.57,1.37-0.57,1.77-0.03c0.38,0.51,0.23,1.13-0.44,1.66c-1.37,1.1-2.73,2.21-4.12,3.28c-0.45,0.34-0.65,0.7-0.64,1.28
			c0.04,1.56,0.01,3.13,0.02,4.69c0,0.19,0.05,0.39,0.08,0.67c3.66-2.38,7.23-4.7,10.8-7.02c0.32-0.21,0.64-0.41,0.93-0.64
			c1.53-1.19,2.07-3.12,1.38-4.85c-0.74-1.84-2.47-2.88-4.47-2.56c-0.69,0.11-1.34,0.5-2,0.8c-0.55,0.25-1.03,0.19-1.36-0.3
			c-0.35-0.51-0.27-1.03,0.22-1.44c0.16-0.14,0.36-0.24,0.53-0.36c1.92-1.34,3.86-2.66,5.76-4.04c1.75-1.28,2.28-3.38,1.41-5.25
			c-0.97-2.06-2.95-3.07-5.04-2.52c-0.48,0.13-0.93,0.41-1.38,0.65c-0.57,0.32-1.08,0.34-1.5-0.21c-0.37-0.5-0.22-1.09,0.36-1.54
			c0.15-0.12,0.31-0.21,0.47-0.32c1.91-1.36,3.85-2.69,5.74-4.07c2.02-1.48,2.37-4.01,0.89-5.99c-1.53-2.06-4.03-2.46-6.06-0.97
			c-0.52,0.38-1,0.85-1.56,1.15c-0.38,0.21-0.97,0.4-1.29,0.23c-0.32-0.16-0.57-0.76-0.59-1.18c-0.08-1.26-0.03-2.53-0.03-3.8
			c0-2.56-1.84-4.51-4.27-4.54c-2.48-0.03-4.38,1.91-4.4,4.5c-0.01,1.32,0.04,2.65-0.04,3.96c-0.02,0.39-0.3,0.91-0.62,1.09
			c-0.27,0.15-0.83,0-1.16-0.18c-0.58-0.33-1.08-0.8-1.62-1.2c-1.98-1.49-4.48-1.14-6.02,0.85c-1.53,1.98-1.24,4.5,0.71,6.03
			c0.55,0.43,1.11,0.86,1.68,1.27c1.55,1.08,3.13,2.11,4.64,3.24c0.29,0.22,0.52,0.8,0.45,1.15c-0.06,0.31-0.54,0.67-0.89,0.75
			c-0.29,0.06-0.69-0.21-1.01-0.4c-1.98-1.2-4.41-0.6-5.79,1.46c-1.27,1.88-0.9,4.42,0.88,5.72c1.87,1.36,3.79,2.67,5.68,4
			c0.29,0.2,0.61,0.36,0.87,0.59c0.45,0.4,0.5,0.89,0.16,1.38c-0.32,0.46-0.77,0.56-1.28,0.34c-0.17-0.08-0.33-0.18-0.49-0.28
			c-2.01-1.19-4.46-0.64-5.69,1.27c-1.25,1.94-0.72,4.47,1.25,5.76c3.65,2.4,7.32,4.78,10.98,7.16c0.16,0.11,0.35,0.17,0.61,0.29
			c0-1.98,0.02-3.84-0.02-5.7c-0.01-0.26-0.25-0.58-0.47-0.76c-1.46-1.2-2.95-2.36-4.41-3.55c-0.56-0.46-0.66-1.11-0.26-1.56
			c0.45-0.5,0.99-0.51,1.51-0.11c0.6,0.46,1.18,0.94,1.78,1.41c0.58,0.45,1.16,0.9,1.87,1.46c0-1.96-0.14-3.72,0.04-5.46
			c0.19-1.93-0.4-3.27-2.07-4.27c-1.01-0.61-1.88-1.45-2.79-2.2c-0.62-0.51-0.73-1.11-0.35-1.62c0.39-0.52,0.98-0.54,1.64-0.04
			c0.37,0.28,0.72,0.57,1.08,0.86c0.77,0.61,1.53,1.21,2.46,1.95c0-2.57-0.02-4.91,0.01-7.25c0.01-0.6-0.17-0.99-0.65-1.36
			c-1.44-1.1-2.84-2.24-4.24-3.38c-0.74-0.6-0.66-1.68,0.15-1.86c0.38-0.08,0.91,0.08,1.24,0.31c1.14,0.83,2.23,1.74,3.48,2.74
			c0-0.46,0-0.72,0-0.98c0-1.67,0-3.35,0-5.02c0-1.03,0.34-1.49,1.06-1.48c0.72,0.01,1.03,0.48,1.03,1.53c0,1.73,0,3.45,0,5.18
			c0,0.2,0.04,0.39,0.07,0.7c1.17-0.93,2.24-1.78,3.31-2.63c0.72-0.57,1.36-0.59,1.78-0.07c0.41,0.52,0.25,1.13-0.47,1.71
			c-1.37,1.1-2.73,2.2-4.11,3.28c-0.42,0.33-0.6,0.67-0.59,1.22c0.03,2.08,0,4.16,0,6.23c0,0.31,0.03,0.62,0.05,1.04
			c0.32-0.24,0.53-0.39,0.74-0.55c0.97-0.77,1.93-1.56,2.91-2.32c0.51-0.39,1.04-0.33,1.44,0.14c0.4,0.47,0.35,1-0.09,1.45
			c-0.13,0.13-0.28,0.25-0.43,0.37c-1.39,1.11-2.78,2.22-4.16,3.34c-0.19,0.16-0.42,0.41-0.43,0.62
			C181.03,146.98,181.04,149.51,181.04,152.26z"/>
		<path d="M181.04,152.26c0-2.76-0.01-5.28,0.02-7.81c0-0.21,0.24-0.46,0.43-0.62c1.38-1.13,2.77-2.23,4.16-3.34
			c0.15-0.12,0.3-0.23,0.43-0.37c0.44-0.45,0.5-0.98,0.09-1.45c-0.4-0.47-0.94-0.53-1.44-0.14c-0.98,0.76-1.94,1.55-2.91,2.32
			c-0.2,0.16-0.42,0.31-0.74,0.55c-0.02-0.43-0.05-0.74-0.05-1.04c0-2.08,0.03-4.16,0-6.23c-0.01-0.55,0.17-0.89,0.59-1.22
			c1.39-1.07,2.75-2.18,4.11-3.28c0.72-0.58,0.88-1.19,0.47-1.71c-0.42-0.52-1.06-0.5-1.78,0.07c-1.07,0.85-2.14,1.7-3.31,2.63
			c-0.03-0.31-0.07-0.51-0.07-0.7c0-1.73,0-3.45,0-5.18c0-1.05-0.31-1.51-1.03-1.53c-0.72-0.01-1.06,0.45-1.06,1.48
			c0,1.67,0,3.35,0,5.02c0,0.26,0,0.52,0,0.98c-1.26-1-2.34-1.91-3.48-2.74c-0.33-0.24-0.86-0.4-1.24-0.31
			c-0.81,0.18-0.89,1.25-0.15,1.86c1.4,1.14,2.8,2.28,4.24,3.38c0.48,0.37,0.66,0.75,0.65,1.36c-0.03,2.34-0.01,4.68-0.01,7.25
			c-0.92-0.73-1.69-1.34-2.46-1.95c-0.36-0.29-0.71-0.58-1.08-0.86c-0.66-0.5-1.25-0.48-1.64,0.04c-0.39,0.51-0.27,1.11,0.35,1.62
			c0.92,0.75,1.78,1.6,2.79,2.2c1.67,1,2.26,2.34,2.07,4.27c-0.17,1.73-0.04,3.49-0.04,5.46c-0.72-0.56-1.3-1.01-1.87-1.46
			c-0.59-0.47-1.18-0.95-1.78-1.41c-0.53-0.41-1.06-0.4-1.51,0.11c-0.41,0.45-0.3,1.1,0.26,1.56c1.46,1.19,2.95,2.35,4.41,3.55
			c0.22,0.18,0.47,0.5,0.47,0.76c0.04,1.86,0.02,3.72,0.02,5.7c-0.26-0.12-0.45-0.19-0.61-0.29c-3.66-2.38-7.33-4.76-10.98-7.16
			c-1.97-1.29-2.5-3.82-1.25-5.76c1.23-1.91,3.68-2.46,5.69-1.27c0.16,0.1,0.32,0.2,0.49,0.28c0.51,0.22,0.96,0.12,1.28-0.34
			c0.34-0.49,0.29-0.98-0.16-1.38c-0.26-0.23-0.58-0.39-0.87-0.59c-1.9-1.33-3.81-2.64-5.68-4c-1.78-1.3-2.15-3.84-0.88-5.72
			c1.39-2.05,3.82-2.66,5.79-1.46c0.31,0.19,0.71,0.47,1.01,0.4c0.35-0.08,0.83-0.44,0.89-0.75c0.07-0.35-0.16-0.93-0.45-1.15
			c-1.51-1.12-3.1-2.16-4.64-3.24c-0.57-0.4-1.13-0.83-1.68-1.27c-1.95-1.53-2.24-4.05-0.71-6.03c1.53-1.99,4.04-2.34,6.02-0.85
			c0.54,0.41,1.04,0.87,1.62,1.2c0.33,0.19,0.89,0.34,1.16,0.18c0.32-0.18,0.6-0.7,0.62-1.09c0.08-1.32,0.03-2.64,0.04-3.96
			c0.02-2.58,1.92-4.52,4.4-4.5c2.44,0.03,4.27,1.98,4.27,4.54c0,1.27-0.04,2.54,0.03,3.8c0.03,0.42,0.27,1.01,0.59,1.18
			c0.32,0.16,0.91-0.03,1.29-0.23c0.56-0.31,1.04-0.77,1.56-1.15c2.03-1.49,4.53-1.09,6.06,0.97c1.48,1.99,1.12,4.51-0.89,5.99
			c-1.89,1.39-3.82,2.72-5.74,4.07c-0.15,0.11-0.32,0.21-0.47,0.32c-0.58,0.45-0.73,1.04-0.36,1.54c0.42,0.55,0.93,0.53,1.5,0.21
			c0.44-0.25,0.89-0.53,1.38-0.65c2.09-0.55,4.08,0.46,5.04,2.52c0.88,1.86,0.34,3.97-1.41,5.25c-1.89,1.38-3.84,2.7-5.76,4.04
			c-0.18,0.12-0.37,0.23-0.53,0.36c-0.49,0.41-0.57,0.93-0.22,1.44c0.33,0.48,0.82,0.54,1.36,0.3c0.65-0.3,1.31-0.69,2-0.8
			c1.99-0.32,3.72,0.73,4.47,2.56c0.7,1.73,0.15,3.66-1.38,4.85c-0.3,0.23-0.62,0.43-0.93,0.64c-3.57,2.32-7.14,4.64-10.8,7.02
			c-0.03-0.28-0.08-0.47-0.08-0.67c-0.01-1.57,0.02-3.13-0.02-4.69c-0.02-0.58,0.19-0.94,0.64-1.28c1.39-1.07,2.75-2.18,4.12-3.28
			c0.67-0.54,0.82-1.15,0.44-1.66c-0.4-0.54-1.05-0.54-1.77,0.03C183.38,150.39,182.31,151.25,181.04,152.26z"/>
	</g>
	<g>
		<path d="M209.5,181.88c-19.47-3.71-39.47-3.71-58.94,0c-0.75-3.95-1.51-7.89-2.26-11.84c20.96-4,42.49-4,63.46,0
			C211.01,173.98,210.26,177.93,209.5,181.88z"/>
		<path fill="none" stroke="#FFFFFF" stroke-miterlimit="10" d="M209.5,181.88c-19.47-3.71-39.47-3.71-58.94,0
			c-0.75-3.95-1.51-7.89-2.26-11.84c20.96-4,42.49-4,63.46,0C211.01,173.98,210.26,177.93,209.5,181.88z"/>
	</g>
</g>
</svg>
