<svg xmlns="http://www.w3.org/2000/svg" viewBox="0 0 360 360"><defs><style>.cls-1{fill:#fff;}</style></defs><title>CARD</title><g id="Layer_6" data-name="Layer 6"><rect width="360" height="360"/></g><g id="LINE_ONE" data-name="LINE ONE"><path class="cls-1" d="M141.83,241.16a9.12,9.12,0,0,1,.48-3.07,6.47,6.47,0,0,1,1.37-2.29,5.75,5.75,0,0,1,2.16-1.43,7.82,7.82,0,0,1,2.85-.49,6.83,6.83,0,0,1,3.76,1,5.35,5.35,0,0,1,2.16,3l-2.92,1a3.92,3.92,0,0,0-1.08-1.83,2.86,2.86,0,0,0-2-.65,3.48,3.48,0,0,0-1.62.36,3.26,3.26,0,0,0-1.16,1,4.28,4.28,0,0,0-.69,1.51,7.77,7.77,0,0,0-.23,1.92,7.63,7.63,0,0,0,.23,1.91,4.45,4.45,0,0,0,.69,1.51,3.19,3.19,0,0,0,1.16,1,3.54,3.54,0,0,0,1.64.36,2.94,2.94,0,0,0,1.89-.58,3.53,3.53,0,0,0,1.11-1.76l2.88,1a6,6,0,0,1-2.16,2.8,6.42,6.42,0,0,1-3.76,1,7.5,7.5,0,0,1-2.79-.49,5.94,5.94,0,0,1-2.14-1.42,6.3,6.3,0,0,1-1.37-2.29A9.22,9.22,0,0,1,141.83,241.16Z"/><path class="cls-1" d="M158.43,241.16a8.83,8.83,0,0,1,.49-3,6.64,6.64,0,0,1,1.38-2.29,5.82,5.82,0,0,1,2.15-1.44,8.09,8.09,0,0,1,5.6,0,5.9,5.9,0,0,1,2.15,1.44,6.64,6.64,0,0,1,1.38,2.29,9.74,9.74,0,0,1,0,6.1,6.64,6.64,0,0,1-1.38,2.29,5.9,5.9,0,0,1-2.15,1.44,8.09,8.09,0,0,1-5.6,0,5.82,5.82,0,0,1-2.15-1.44,6.64,6.64,0,0,1-1.38-2.29A8.83,8.83,0,0,1,158.43,241.16Zm3.1,0a7.45,7.45,0,0,0,.23,2,4.33,4.33,0,0,0,.69,1.52,3.14,3.14,0,0,0,1.16,1,4,4,0,0,0,3.28,0,3.22,3.22,0,0,0,1.16-1,4.52,4.52,0,0,0,.69-1.52,8.38,8.38,0,0,0,0-3.9,4.52,4.52,0,0,0-.69-1.52,3.22,3.22,0,0,0-1.16-1,4,4,0,0,0-3.28,0,3.14,3.14,0,0,0-1.16,1,4.33,4.33,0,0,0-.69,1.52A7.45,7.45,0,0,0,161.53,241.16Z"/><path class="cls-1" d="M176.77,234.16h3v11.5h6.12v2.5h-9.12Z"/><path class="cls-1" d="M189,241.16a8.83,8.83,0,0,1,.49-3,6.49,6.49,0,0,1,1.38-2.29,5.82,5.82,0,0,1,2.15-1.44,8.09,8.09,0,0,1,5.6,0,5.9,5.9,0,0,1,2.15,1.44,6.64,6.64,0,0,1,1.38,2.29,9.74,9.74,0,0,1,0,6.1,6.64,6.64,0,0,1-1.38,2.29,5.9,5.9,0,0,1-2.15,1.44,8.09,8.09,0,0,1-5.6,0,5.82,5.82,0,0,1-2.15-1.44,6.49,6.49,0,0,1-1.38-2.29A8.83,8.83,0,0,1,189,241.16Zm3.1,0a7.45,7.45,0,0,0,.23,2,4.33,4.33,0,0,0,.69,1.52,3.14,3.14,0,0,0,1.16,1,4,4,0,0,0,3.28,0,3.22,3.22,0,0,0,1.16-1,4.52,4.52,0,0,0,.69-1.52,8.38,8.38,0,0,0,0-3.9,4.52,4.52,0,0,0-.69-1.52,3.22,3.22,0,0,0-1.16-1,4,4,0,0,0-3.28,0,3.14,3.14,0,0,0-1.16,1,4.33,4.33,0,0,0-.69,1.52A7.45,7.45,0,0,0,192.11,241.16Z"/><path class="cls-1" d="M217.83,238.42a4.24,4.24,0,0,1-.71,2.54,4.31,4.31,0,0,1-2,1.46l3.22,5.74h-3.3l-2.9-5.3h-1.86v5.3h-3v-14h5.12a8.89,8.89,0,0,1,2.21.25,4.78,4.78,0,0,1,1.69.77,3.66,3.66,0,0,1,1.08,1.32A4.47,4.47,0,0,1,217.83,238.42Zm-3.08,0a1.51,1.51,0,0,0-.65-1.41,3.93,3.93,0,0,0-2-.39h-1.8v3.78h1.8a3.5,3.5,0,0,0,2-.45A1.74,1.74,0,0,0,214.75,238.44Z"/></g><g id="LINE_TWO" data-name="LINE TWO"><path class="cls-1" d="M210.87,124.72c6.29-4.87,12.24-9.6,18.32-14.13a30.26,30.26,0,0,1,6.61-3.66c2.74-1.12,5,.87,4.18,3.69a19.08,19.08,0,0,1-3.12,6c-6.5,8.39-13.25,16.59-19.71,25-1.44,1.88-2.82,4.34-3,6.61-1.36,23.28-19.87,44.49-42.93,48.85-16.53,3.13-31.39-.41-44.08-11.59-6.21-5.47-8.91-12.45-6.74-20.83,1.16-4.46,4.16-7.52,7.61-10.27,1.51-1.2,3.14-2.27,4.56-3.57,4.29-3.92,4.32-9.33,0-13.29-1.77-1.63-3.81-3-5.66-4.52-8.82-7.42-9.87-18.75-2.38-27.52,7.77-9.08,18.13-13.71,29.66-14.88,24.63-2.51,45.27,9.8,55.67,32.36C210.2,123.54,210.51,124.05,210.87,124.72Zm-13.51,12.22c2.35-2.06,4.58-4.29,7.09-6.14s2.74-3.58,1.49-6.35C197.33,105.27,176.75,91.93,154.4,95c-9.61,1.3-18.4,5-25.3,12.07-7.51,7.75-6.65,17.16,1.91,23.62a56.43,56.43,0,0,1,4.53,3.61c6.18,5.72,6.25,14,.14,19.73-1.66,1.56-3.82,2.64-5.34,4.31-2.06,2.26-4.37,4.63-5.44,7.39-2.41,6.29.36,13.23,7,18.25,11.57,8.74,24.48,11.84,38.83,8.86,20-4.15,36.5-21.91,38.68-42.35l-9.13,9.9c-3.62,4-7.93,7.29-9.29,13-.52,2.19-2.26,4.24-3.8,6-7.64,8.92-21.87,7.29-30.27,3.84-.69-.28-1.55-1.67-1.36-2.16a3.52,3.52,0,0,1,2.23-2c3-.5,4.25-2.44,4.86-5.1.43-1.88,1-3.73,1.31-5.62,1.48-7.67,5.89-12.43,13.64-14a6,6,0,0,0,2.82-1.3c5.73-5.36,11.38-10.81,17.05-16.23ZM191,163.47c13.25-12.48,39.25-43.22,42.77-50.86-18.43,13.32-34.37,28.27-50.12,43.41Zm-26,17.58a37.6,37.6,0,0,0,4.11.59c6.75.3,12.67-1.35,16.59-7.4,3.34-5.13,3.22-6.23-1.07-10.58l-1.79-1.79c-3.76-3.77-7.21-4-10.85,0a19.61,19.61,0,0,0-3.6,6.9C167.06,172.74,166.16,176.82,165,181.05Z"/><path d="M197.46,136.84c-5.67,5.42-11.32,10.87-17.05,16.23a6,6,0,0,1-2.82,1.3c-7.75,1.6-12.16,6.36-13.64,14-.36,1.89-.88,3.74-1.31,5.62-.61,2.66-1.86,4.6-4.86,5.1a3.52,3.52,0,0,0-2.23,2c-.19.49.67,1.88,1.36,2.16,8.4,3.45,22.63,5.08,30.27-3.84,1.54-1.8,3.28-3.85,3.8-6,1.36-5.72,5.67-9.06,9.29-13l9.13-9.9c-2.18,20.44-18.71,38.2-38.68,42.35-14.35,3-27.26-.12-38.83-8.86-6.63-5-9.4-12-7-18.25,1.07-2.76,3.38-5.13,5.44-7.39,1.52-1.67,3.68-2.75,5.34-4.31,6.11-5.73,6-14-.14-19.73a56.43,56.43,0,0,0-4.53-3.61c-8.56-6.46-9.42-15.87-1.91-23.62C136,99.91,144.79,96.26,154.4,95c22.35-3,42.93,10.31,51.54,29.49,1.25,2.77,1,4.54-1.49,6.35s-4.74,4.08-7.09,6.15c.49-.94,1-1.87,1.49-2.81a9.81,9.81,0,0,0-1.72-11.3,10.15,10.15,0,0,0-12-1.37,9.84,9.84,0,0,0-4.34,10.61,9.13,9.13,0,0,0,9.28,7C192.58,138.91,195,137.63,197.46,136.84ZM177.82,114a9.62,9.62,0,1,0-9.66,9.86A9.45,9.45,0,0,0,177.82,114Zm-25.95,7.63a9.58,9.58,0,1,0-9.62,9.53A9.25,9.25,0,0,0,151.87,121.65Zm2.79,48a9.33,9.33,0,0,0-9.63-9.54,9.59,9.59,0,1,0,.08,19.17A9.37,9.37,0,0,0,154.66,169.69Z"/><path d="M191,163.47,183.64,156c15.75-15.14,31.69-30.09,50.12-43.41C230.24,120.25,204.24,151,191,163.47Z"/><path d="M165,181.05c1.15-4.23,2.05-8.31,3.39-12.24a19.61,19.61,0,0,1,3.6-6.9c3.64-4,7.09-3.81,10.85,0l1.79,1.79c4.29,4.35,4.41,5.45,1.07,10.58-3.92,6-9.84,7.7-16.59,7.4A37.6,37.6,0,0,1,165,181.05Z"/><path class="cls-1" d="M177.82,114a9.45,9.45,0,0,1-9.66,9.86,9.71,9.71,0,1,1,9.66-9.86Zm-9.69-5.22a5.79,5.79,0,0,0-5.29,5.4,5.54,5.54,0,0,0,5.65,5.31,5.41,5.41,0,0,0,5-5.51A5.5,5.5,0,0,0,168.13,108.8Z"/><path class="cls-1" d="M151.87,121.65a9.58,9.58,0,1,1-9.54-9.57A9.33,9.33,0,0,1,151.87,121.65Zm-4.26-.06a5.23,5.23,0,0,0-5.33-5.19,5.21,5.21,0,1,0,.05,10.41A5.16,5.16,0,0,0,147.61,121.59Z"/><path class="cls-1" d="M197.46,136.84c-2.46.79-4.88,2.07-7.38,2.26a9.13,9.13,0,0,1-9.28-7,9.84,9.84,0,0,1,4.34-10.61,10.15,10.15,0,0,1,12,1.37,9.81,9.81,0,0,1,1.72,11.3c-.49.94-1,1.87-1.49,2.81Zm-7-12.35a5.18,5.18,0,1,0-.35,10.36,5.19,5.19,0,1,0,.35-10.36Z"/><path class="cls-1" d="M154.66,169.69a9.62,9.62,0,0,1-19.24.09,9.48,9.48,0,0,1,9.61-9.63A9.33,9.33,0,0,1,154.66,169.69Zm-4.34.14a5.29,5.29,0,0,0-10.57-.17,5.47,5.47,0,0,0,5.24,5.41A5.29,5.29,0,0,0,150.32,169.83Z"/><path d="M168.13,108.8a5.5,5.5,0,0,1,5.35,5.2,5.41,5.41,0,0,1-5,5.51,5.54,5.54,0,0,1-5.65-5.31A5.79,5.79,0,0,1,168.13,108.8Z"/><path d="M147.61,121.59a5.16,5.16,0,0,1-5.28,5.22,5.21,5.21,0,1,1-.05-10.41A5.23,5.23,0,0,1,147.61,121.59Z"/><path d="M190.43,124.49a5.19,5.19,0,1,1-.35,10.36,5.18,5.18,0,1,1,.35-10.36Z"/><path d="M150.32,169.83a5.29,5.29,0,0,1-5.33,5.24,5.47,5.47,0,0,1-5.24-5.41,5.29,5.29,0,0,1,10.57.17Z"/></g></svg>