<svg xmlns="http://www.w3.org/2000/svg" viewBox="0 0 360 360"><defs><style>.cls-1{fill:#ef3f25;}.cls-2{fill:#fff;}.cls-3,.cls-4{fill:none;stroke:#ef3f25;stroke-miterlimit:10;}.cls-3{stroke-width:3px;}.cls-4{stroke-linecap:round;stroke-width:2px;}</style></defs><title>CARD</title><g id="BACKGROUND"><rect class="cls-1" y="336.06" width="360" height="23.94"/><path class="cls-2" d="M162.39,352.49v-8.4h5.72v1.49h-3.94v1.84h3.67v1.49h-3.67V351h4v1.49Z"/><path class="cls-2" d="M171,344.09h3.13a4.94,4.94,0,0,1,1.73.28,3.55,3.55,0,0,1,1.29.81,3.42,3.42,0,0,1,.81,1.32,5.67,5.67,0,0,1,0,3.58,3.45,3.45,0,0,1-.81,1.31,3.3,3.3,0,0,1-1.29.81,4.94,4.94,0,0,1-1.73.29H171Zm5.39,4.2a4.21,4.21,0,0,0-.14-1.11,2.31,2.31,0,0,0-.42-.86,1.87,1.87,0,0,0-.72-.55,2.46,2.46,0,0,0-1-.19h-1.27V351H174a2.63,2.63,0,0,0,1-.19,1.87,1.87,0,0,0,.72-.55,2.47,2.47,0,0,0,.42-.86A4.27,4.27,0,0,0,176.35,348.29Z"/><path class="cls-2" d="M184.34,352.66a3.34,3.34,0,0,1-2.56-.87,3.41,3.41,0,0,1-.8-2.4v-5.3h1.8v5.31a2,2,0,0,0,.38,1.27,1.41,1.41,0,0,0,1.18.5,1.38,1.38,0,0,0,1.17-.5,2,2,0,0,0,.39-1.27v-5.31h1.8v5.3a3.37,3.37,0,0,1-.81,2.4A3.3,3.3,0,0,1,184.34,352.66Z"/><path class="cls-2" d="M190.47,348.29a5.61,5.61,0,0,1,.29-1.85,3.85,3.85,0,0,1,.82-1.37,3.52,3.52,0,0,1,1.3-.86,4.79,4.79,0,0,1,1.71-.29,4,4,0,0,1,2.25.59,3.22,3.22,0,0,1,1.3,1.78l-1.75.62a2.37,2.37,0,0,0-.65-1.1,1.72,1.72,0,0,0-1.19-.39,2,2,0,0,0-1.67.81,2.63,2.63,0,0,0-.41.91,4.59,4.59,0,0,0-.14,1.15,4.51,4.51,0,0,0,.14,1.14,2.81,2.81,0,0,0,.41.91,2.13,2.13,0,0,0,.7.6,2.18,2.18,0,0,0,1,.22,1.8,1.8,0,0,0,1.14-.35,2.15,2.15,0,0,0,.66-1.06l1.73.61a3.49,3.49,0,0,1-1.3,1.68,3.81,3.81,0,0,1-2.25.62,4.49,4.49,0,0,1-1.68-.3,3.5,3.5,0,0,1-1.28-.85,3.69,3.69,0,0,1-.82-1.37A5.61,5.61,0,0,1,190.47,348.29Z"/><path class="cls-2" d="M208.07,352.49h-1.86l-.67-1.95h-3l-.67,1.95h-1.77l3-8.4h1.93Zm-4-6.43-.09.28-.13.42-.16.5-.18.52c-.13.42-.28.86-.44,1.33h2c-.16-.47-.31-.91-.44-1.33-.09-.24-.16-.44-.21-.59s-.11-.31-.15-.45-.09-.28-.13-.4l-.08-.28Z"/><path class="cls-2" d="M209,344.09h6.66v1.5H213.2v6.9h-1.81v-6.9H209Z"/><path class="cls-2" d="M218.15,344.09H220v8.4h-1.8Z"/><path class="cls-2" d="M222.77,348.29a5.24,5.24,0,0,1,.3-1.83,3.83,3.83,0,0,1,.83-1.38,3.52,3.52,0,0,1,1.29-.86,4.49,4.49,0,0,1,1.68-.3,4.56,4.56,0,0,1,1.68.3,3.7,3.7,0,0,1,1.29.86,4,4,0,0,1,.82,1.38,5.73,5.73,0,0,1,0,3.66,3.91,3.91,0,0,1-.82,1.37,3.44,3.44,0,0,1-1.29.86,4.37,4.37,0,0,1-1.68.31,4.3,4.3,0,0,1-1.68-.31,3.29,3.29,0,0,1-1.29-.86,3.79,3.79,0,0,1-.83-1.37A5.24,5.24,0,0,1,222.77,348.29Zm1.86,0a4.81,4.81,0,0,0,.14,1.17,2.54,2.54,0,0,0,.42.91,1.88,1.88,0,0,0,.69.59,2.42,2.42,0,0,0,2,0,2,2,0,0,0,.7-.59,2.72,2.72,0,0,0,.41-.91,4.81,4.81,0,0,0,.14-1.17,4.69,4.69,0,0,0-.14-1.17,2.77,2.77,0,0,0-.41-.92,2,2,0,0,0-.7-.58,2.42,2.42,0,0,0-2,0,1.85,1.85,0,0,0-.69.58,2.59,2.59,0,0,0-.42.92A4.69,4.69,0,0,0,224.63,348.29Z"/><path class="cls-2" d="M233.78,344.09h1.87l1.39,2.25.65,1.05.5.82.48.78.39.62h0v-5.52h1.71v8.4h-1.88l-1.36-2.22-.65-1-.51-.83c-.16-.28-.33-.54-.48-.79l-.4-.64h0v5.52h-1.7Z"/><path class="cls-2" d="M251.26,352.49H249.4l-.67-1.95h-3l-.67,1.95h-1.77l3-8.4h1.93Zm-4.06-6.43a2.83,2.83,0,0,1-.08.28l-.13.42-.16.5-.18.52c-.13.42-.28.86-.44,1.33h2l-.45-1.33c-.09-.24-.15-.44-.21-.59s-.1-.31-.14-.45-.09-.28-.13-.4a2.83,2.83,0,0,1-.08-.28Z"/><path class="cls-2" d="M253.75,344.09h1.8V351h3.67v1.5h-5.47Z"/><path class="cls-2" d="M265.76,352.49v-8.4h5.72v1.49h-4v1.84h3.67v1.49h-3.67V351h4v1.49Z"/><path class="cls-2" d="M278.79,348.08l3.11,4.41h-2.16l-2-2.92-2.07,2.92h-2l3.08-4.32-2.84-4.08H276l1.76,2.59,1.83-2.59h2Z"/><path class="cls-2" d="M286.16,349.53v3h-1.79v-8.4h3.19a5.81,5.81,0,0,1,1.37.15,3.12,3.12,0,0,1,1,.48,2.18,2.18,0,0,1,.67.83,2.81,2.81,0,0,1,.24,1.21,3,3,0,0,1-.24,1.25,2.41,2.41,0,0,1-.69.86,2.85,2.85,0,0,1-1.05.5,5.08,5.08,0,0,1-1.34.16Zm2.89-2.77a1,1,0,0,0-.42-.93,2.41,2.41,0,0,0-1.25-.25h-1.22v2.47h1.22a2.11,2.11,0,0,0,1.25-.3A1.13,1.13,0,0,0,289.05,346.76Z"/><path class="cls-2" d="M293.52,352.49v-8.4h5.73v1.49H295.3v1.84H299v1.49H295.3V351h4v1.49Z"/><path class="cls-2" d="M308.38,346.64a2.52,2.52,0,0,1-.43,1.53,2.48,2.48,0,0,1-1.17.87l1.94,3.45h-2L305,349.31h-1.12v3.18h-1.79v-8.4h3.07a5.47,5.47,0,0,1,1.33.15,2.76,2.76,0,0,1,1,.46,2.08,2.08,0,0,1,.65.79A2.68,2.68,0,0,1,308.38,346.64Zm-1.85,0a.9.9,0,0,0-.39-.85,2.3,2.3,0,0,0-1.18-.23h-1.08v2.26H305a2.08,2.08,0,0,0,1.18-.27A1,1,0,0,0,306.53,346.66Z"/><path class="cls-2" d="M311.4,344.09h1.8v8.4h-1.8Z"/><path class="cls-2" d="M316.37,352.49v-8.4h5.73v1.49h-4v1.84h3.67v1.49h-3.67V351h4v1.49Z"/><path class="cls-2" d="M324.94,344.09h1.87l1.39,2.25c.27.43.49.78.65,1.05l.51.82c.16.28.33.54.48.78l.38.62h0v-5.52H332v8.4h-1.87l-1.37-2.22-.64-1-.51-.83-.49-.79c-.15-.25-.29-.47-.4-.64h0v5.52h-1.71Z"/><path class="cls-2" d="M334.78,348.29a5.61,5.61,0,0,1,.29-1.85,3.85,3.85,0,0,1,.82-1.37,3.52,3.52,0,0,1,1.3-.86,4.79,4.79,0,0,1,1.71-.29,4,4,0,0,1,2.25.59,3.22,3.22,0,0,1,1.3,1.78l-1.75.62a2.37,2.37,0,0,0-.65-1.1,1.72,1.72,0,0,0-1.19-.39,2,2,0,0,0-1.67.81,2.63,2.63,0,0,0-.41.91,4.59,4.59,0,0,0-.14,1.15,4.51,4.51,0,0,0,.14,1.14,2.81,2.81,0,0,0,.41.91,2.13,2.13,0,0,0,.7.6,2.18,2.18,0,0,0,1,.22,1.8,1.8,0,0,0,1.14-.35,2.15,2.15,0,0,0,.66-1.06l1.73.61a3.49,3.49,0,0,1-1.3,1.68,3.81,3.81,0,0,1-2.25.62,4.49,4.49,0,0,1-1.68-.3,3.5,3.5,0,0,1-1.28-.85,3.69,3.69,0,0,1-.82-1.37A5.61,5.61,0,0,1,334.78,348.29Z"/><path class="cls-2" d="M345.09,352.49v-8.4h5.72v1.49h-3.95v1.84h3.68v1.49h-3.68V351h4v1.49Z"/></g><g id="LINE_ONE" data-name="LINE ONE"><path class="cls-1" d="M107.75,248.16v-14h9.54v2.48h-6.58v3.08h6.12v2.48h-6.12v3.48h6.68v2.48Z"/><path class="cls-1" d="M129.47,240.82l5.18,7.34h-3.6l-3.38-4.86-3.44,4.86h-3.36L126,241l-4.74-6.8h3.62l2.94,4.32,3-4.32h3.38Z"/><path class="cls-1" d="M137.29,241.16a9.12,9.12,0,0,1,.48-3.07,6.39,6.39,0,0,1,1.37-2.29,5.64,5.64,0,0,1,2.16-1.43,7.82,7.82,0,0,1,2.85-.49,6.75,6.75,0,0,1,3.76,1,5.32,5.32,0,0,1,2.16,3l-2.92,1a3.92,3.92,0,0,0-1.08-1.83,2.82,2.82,0,0,0-2-.65,3.51,3.51,0,0,0-1.62.36,3.26,3.26,0,0,0-1.16,1,4.28,4.28,0,0,0-.69,1.51,8.09,8.09,0,0,0,0,3.83,4.45,4.45,0,0,0,.69,1.51,3.29,3.29,0,0,0,1.16,1,3.54,3.54,0,0,0,1.64.36,3,3,0,0,0,1.89-.58,3.57,3.57,0,0,0,1.11-1.76l2.88,1a6.07,6.07,0,0,1-2.16,2.8,6.4,6.4,0,0,1-3.76,1,7.7,7.7,0,0,1-2.79-.49,5.94,5.94,0,0,1-2.14-1.42,6.39,6.39,0,0,1-1.37-2.29A9.26,9.26,0,0,1,137.29,241.16Z"/><path class="cls-1" d="M154.47,248.16v-14H164v2.48h-6.58v3.08h6.12v2.48h-6.12v3.48h6.68v2.48Z"/><path class="cls-1" d="M168.75,234.16h3v11.5h6.12v2.5h-9.12Z"/><path class="cls-1" d="M182.07,234.16h3v11.5h6.12v2.5h-9.12Z"/><path class="cls-1" d="M195.39,248.16v-14h9.54v2.48h-6.58v3.08h6.12v2.48h-6.12v3.48H205v2.48Z"/><path class="cls-1" d="M209.67,234.16h3.12l2.32,3.76c.44.7.8,1.29,1.08,1.75L217,241l.8,1.29.64,1h.06v-9.2h2.84v14h-3.12l-2.28-3.7-1.07-1.73c-.29-.46-.57-.92-.85-1.38l-.81-1.32c-.26-.42-.48-.78-.67-1.07h-.06v9.2h-2.84Z"/><path class="cls-1" d="M226.07,241.16a9.12,9.12,0,0,1,.48-3.07,6.39,6.39,0,0,1,1.37-2.29,5.64,5.64,0,0,1,2.16-1.43,7.82,7.82,0,0,1,2.85-.49,6.75,6.75,0,0,1,3.76,1,5.32,5.32,0,0,1,2.16,3l-2.92,1a3.92,3.92,0,0,0-1.08-1.83,2.82,2.82,0,0,0-2-.65,3.51,3.51,0,0,0-1.62.36,3.26,3.26,0,0,0-1.16,1,4.28,4.28,0,0,0-.69,1.51,8.09,8.09,0,0,0,0,3.83,4.45,4.45,0,0,0,.69,1.51,3.29,3.29,0,0,0,1.16,1,3.54,3.54,0,0,0,1.64.36,3,3,0,0,0,1.89-.58,3.57,3.57,0,0,0,1.11-1.76l2.88,1a6.07,6.07,0,0,1-2.16,2.8,6.42,6.42,0,0,1-3.76,1,7.74,7.74,0,0,1-2.79-.49,5.94,5.94,0,0,1-2.14-1.42,6.39,6.39,0,0,1-1.37-2.29A9.26,9.26,0,0,1,226.07,241.16Z"/><path class="cls-1" d="M243.25,248.16v-14h9.54v2.48h-6.58v3.08h6.12v2.48h-6.12v3.48h6.68v2.48Z"/></g><g id="ICON"><path class="cls-3" d="M202.42,139v-15c0-1.57-.7-2.27-2.29-2.27q-10.2,0-20.39,0H159.29c-1.53,0-2.22.71-2.22,2.26,0,5.77.05,11.54,0,17.3a30.38,30.38,0,0,0,1.66,11.46,24,24,0,0,0,6.92,9.93,21.3,21.3,0,0,0,9.51,4.76c0,.42,0,.83,0,1.25.09,3.42.2,6.84.28,10.27a17.15,17.15,0,0,1-1,6.18c-.47,1.35-1,2.68-1.56,4H186.6c-.13-.28-.22-.49-.32-.69a19.75,19.75,0,0,1-2.19-7.66c-.1-3.11,0-6.23.08-9.35,0-1.36,0-2.72,0-4a21.26,21.26,0,0,0,9.78-4.88,23.79,23.79,0,0,0,7.34-11.43,23.44,23.44,0,0,0,1.12-6.32C202.45,142.85,202.42,140.91,202.42,139Z"/><path class="cls-3" d="M192.19,192.54H167.31c0-.79-.06-1.55,0-2.3a1.11,1.11,0,0,1,1.17-1.12H191c.76,0,1.2.5,1.23,1.37C192.2,191.15,192.19,191.82,192.19,192.54Z"/><path class="cls-3" d="M196.5,198.33H163c0-1.33-.08-2.62,0-3.89s.7-1.89,1.57-1.89q15.12,0,30.24,0c1,0,1.63.85,1.66,2.32C196.52,196,196.5,197.12,196.5,198.33Z"/><path class="cls-1" d="M186.6,152.28l-.38-.23-6.35-3.89a.21.21,0,0,0-.26,0l-6.58,4-.15.08c0-.08,0-.14,0-.19l1.8-7.51a.16.16,0,0,0-.06-.19l-5.89-5-.13-.11.84-.07,1.89-.16,1.54-.12,1.83-.15,1.5-.12a1.21,1.21,0,0,1,.19,0c.18,0,.25-.07.31-.23l2.94-7.08a.81.81,0,0,0,.06-.13l.4,1q1.32,3.18,2.65,6.36a.14.14,0,0,0,.15.11l1.85.15,1.52.12,1.85.15,1.53.12,1.15.09-.23.21-5.79,4.95a.16.16,0,0,0-.06.18q.84,3.54,1.69,7.06C186.5,151.83,186.54,152,186.6,152.28Z"/><path class="cls-3" d="M156.69,137.58c-4.58.1-8,2.61-8.35,6.57-.55,5.79,5.39,14.89,14.14,17.95l4.19,1.47"/><path class="cls-3" d="M203.24,137.25c4.57.1,8,2.61,8.34,6.57.55,5.79-5.39,14.89-14.13,18l-4.2,1.46"/><line class="cls-4" x1="185.07" y1="103.59" x2="186.53" y2="90.33"/><line class="cls-4" x1="198.21" y1="106.97" x2="203.04" y2="94.54"/><line class="cls-4" x1="209.26" y1="113.44" x2="217.28" y2="102.78"/><line class="cls-4" x1="217.62" y1="122.37" x2="227.98" y2="113.97"/><line class="cls-4" x1="223.96" y1="133.81" x2="236.25" y2="128.62"/><line class="cls-4" x1="226.69" y1="145.79" x2="239.99" y2="144.73"/><line class="cls-4" x1="226.19" y1="158.36" x2="239.38" y2="160.31"/><line class="cls-4" x1="223.25" y1="170.61" x2="235.41" y2="176.07"/><line class="cls-4" x1="216.58" y1="181.02" x2="227.13" y2="189.18"/><line class="cls-4" x1="174.41" y1="103.62" x2="172.95" y2="90.36"/><line class="cls-4" x1="161.27" y1="107" x2="156.44" y2="94.56"/><line class="cls-4" x1="150.21" y1="113.47" x2="142.2" y2="102.81"/><line class="cls-4" x1="141.86" y1="122.4" x2="131.49" y2="114"/><line class="cls-4" x1="135.51" y1="133.84" x2="123.23" y2="128.65"/><line class="cls-4" x1="132.79" y1="145.82" x2="119.49" y2="144.76"/><line class="cls-4" x1="133.29" y1="158.39" x2="120.1" y2="160.34"/><line class="cls-4" x1="136.23" y1="170.64" x2="124.06" y2="176.1"/><line class="cls-4" x1="142.89" y1="181.05" x2="132.34" y2="189.21"/></g></svg>