<svg xmlns="http://www.w3.org/2000/svg" viewBox="0 0 360 360"><defs><style>.cls-1{fill:#fff;}.cls-2{fill:#0b6e3a;}.cls-3{fill:#0c6e39;}.cls-4{fill:none;stroke:#0b6e3a;stroke-linecap:round;stroke-miterlimit:10;stroke-width:4px;}</style></defs><title>CARD</title><g id="Layer_6" data-name="Layer 6"><rect class="cls-1" x="-2.58" y="-0.41" width="360" height="360"/></g><g id="BACKGROUND"><rect class="cls-2" y="336.06" width="360" height="23.94"/><path class="cls-1" d="M207,344.09h3.65a2.89,2.89,0,0,1,1,.17,2.33,2.33,0,0,1,.78.46,2,2,0,0,1,.48.69,2.29,2.29,0,0,1,.17.87,2.08,2.08,0,0,1-.11.69,1.73,1.73,0,0,1-.68.89,2,2,0,0,1-.46.24,1.9,1.9,0,0,1,1.08.49,1.76,1.76,0,0,1,.39.56,2.05,2.05,0,0,1,.15.83,2.55,2.55,0,0,1-.2,1,2.39,2.39,0,0,1-.57.79,2.72,2.72,0,0,1-.85.53,3.14,3.14,0,0,1-1.08.19H207Zm1.75,1.46v1.95H210a1.74,1.74,0,0,0,1-.22.87.87,0,0,0,.31-.78.88.88,0,0,0-.27-.73,1.42,1.42,0,0,0-.9-.22Zm0,5.47h1.44a1.82,1.82,0,0,0,1.16-.27,1,1,0,0,0,.3-.78.85.85,0,0,0-.37-.82,2.33,2.33,0,0,0-1.11-.21h-1.42Z"/><path class="cls-1" d="M219.57,352.66a3.34,3.34,0,0,1-2.56-.87,3.39,3.39,0,0,1-.8-2.4v-5.3H218v5.31a2,2,0,0,0,.38,1.27,1.64,1.64,0,0,0,2.36,0,2,2,0,0,0,.38-1.27v-5.31h1.8v5.3a3.39,3.39,0,0,1-.8,2.4A3.34,3.34,0,0,1,219.57,352.66Z"/><path class="cls-1" d="M226.05,344.09h1.8v8.4h-1.8Z"/><path class="cls-1" d="M231,344.09h1.8V351h3.67v1.5H231Z"/><path class="cls-1" d="M237.23,344.09h6.66v1.5h-2.42v6.9h-1.81v-6.9h-2.43Z"/><path class="cls-1" d="M250.45,352.49v-8.4h5.72v1.49h-4v1.84h3.67v1.49h-3.67V351h4v1.49Z"/><path class="cls-1" d="M259,344.09h1.88c.48.79.95,1.54,1.39,2.25l.65,1.05c.16.28.33.55.5.83l.48.77.38.62h0v-5.52H266v8.4h-1.87c-.48-.78-.93-1.52-1.37-2.22-.25-.42-.47-.76-.64-1l-.51-.83-.48-.79c-.16-.25-.29-.47-.41-.64h0v5.52H259Z"/><path class="cls-1" d="M270.44,344.09l.84,2.43c.16.46.29.84.39,1.16s.21.62.32.94l.3.92.25.79h0c.07-.23.16-.5.25-.8l.31-.95.34-1,.35-1q.39-1.17.84-2.43h1.85l-3.1,8.4h-1.83l-3.06-8.4Z"/><path class="cls-1" d="M279,344.09h1.8v8.4H279Z"/><path class="cls-1" d="M290.23,346.64a2.36,2.36,0,0,1-1.6,2.4l1.93,3.45h-2l-1.74-3.18h-1.11v3.18h-1.79v-8.4H287a5.47,5.47,0,0,1,1.33.15,2.84,2.84,0,0,1,1,.46,2.08,2.08,0,0,1,.65.79A2.71,2.71,0,0,1,290.23,346.64Zm-1.85,0a.91.91,0,0,0-.39-.85,2.3,2.3,0,0,0-1.18-.23h-1.08v2.26h1.08a2.08,2.08,0,0,0,1.18-.27A1,1,0,0,0,288.38,346.66Z"/><path class="cls-1" d="M292.9,348.29a5.24,5.24,0,0,1,.3-1.83,4,4,0,0,1,.82-1.38,3.7,3.7,0,0,1,1.29-.86,4.58,4.58,0,0,1,1.69-.3,4.47,4.47,0,0,1,1.67.3,3.65,3.65,0,0,1,1.3.86,4,4,0,0,1,.82,1.38,5.73,5.73,0,0,1,0,3.66,3.82,3.82,0,0,1-.82,1.37,3.54,3.54,0,0,1-1.3.87,4.47,4.47,0,0,1-1.67.3,4.58,4.58,0,0,1-1.69-.3,3.59,3.59,0,0,1-1.29-.87,3.82,3.82,0,0,1-.82-1.37A5.24,5.24,0,0,1,292.9,348.29Zm1.86,0a4.81,4.81,0,0,0,.14,1.17,2.72,2.72,0,0,0,.41.91,2,2,0,0,0,.7.59,2.42,2.42,0,0,0,2,0,1.88,1.88,0,0,0,.69-.59,2.54,2.54,0,0,0,.42-.91,4.81,4.81,0,0,0,.14-1.17,4.69,4.69,0,0,0-.14-1.17,2.47,2.47,0,0,0-.42-.91,1.79,1.79,0,0,0-.69-.59,2.42,2.42,0,0,0-2,0,1.89,1.89,0,0,0-.7.59,2.63,2.63,0,0,0-.41.91A4.69,4.69,0,0,0,294.76,348.29Z"/><path class="cls-1" d="M303.91,344.09h1.87l1.39,2.25.65,1.05c.17.28.34.55.5.83l.48.77c.16.24.28.45.39.62h0v-5.52h1.71v8.4h-1.88c-.47-.78-.93-1.52-1.36-2.22l-.64-1c-.18-.28-.35-.55-.51-.83l-.49-.79-.4-.64h0v5.52h-1.7Z"/><path class="cls-1" d="M317.79,352.49q-.18-.5-.45-1.29l-.56-1.66c-.19-.58-.38-1.14-.56-1.7s-.32-1-.43-1.39h0v6h-1.66v-8.4h2.52c.35,1,.66,2,.94,2.82l.42,1.24.29.91c.1.28.18.54.26.78s.13.4.16.5l.15-.5c.08-.24.16-.51.26-.83l.33-1c.11-.36.23-.72.35-1.08q.41-1.29.9-2.82h2.51v8.4h-1.66v-6h0l-.29.9c-.11.34-.23.71-.37,1.11s-.26.79-.4,1.19-.26.79-.38,1.15l-.33,1c-.1.3-.19.53-.25.7Z"/><path class="cls-1" d="M326.35,352.49v-8.4h5.72v1.49h-3.95v1.84h3.67v1.49h-3.67V351h4v1.49Z"/><path class="cls-1" d="M334.91,344.09h1.88c.48.79.95,1.54,1.39,2.25l.65,1.05c.16.28.33.55.5.83l.48.77.38.62h0v-5.52h1.7v8.4h-1.87c-.48-.78-.93-1.52-1.37-2.22-.25-.42-.47-.76-.64-1l-.51-.83-.48-.79c-.16-.25-.29-.47-.41-.64h0v5.52h-1.71Z"/><path class="cls-1" d="M344.47,344.09h6.66v1.5H348.7v6.9h-1.81v-6.9h-2.42Z"/></g><g id="LINE_ONE" data-name="LINE ONE"><path class="cls-3" d="M126.71,237.84a1.34,1.34,0,0,0,.78,1.29,9.48,9.48,0,0,0,2.48.67,7.86,7.86,0,0,1,3.67,1.38,3.48,3.48,0,0,1,1.17,2.86,3.92,3.92,0,0,1-.42,1.83,4.07,4.07,0,0,1-1.17,1.38,5.54,5.54,0,0,1-1.79.88,8.33,8.33,0,0,1-4.64,0,5.88,5.88,0,0,1-1.8-.93,4.41,4.41,0,0,1-1.16-1.36,3.81,3.81,0,0,1-.46-1.62l3-.48a2.56,2.56,0,0,0,.79,1.67,2.84,2.84,0,0,0,2,.65,4.61,4.61,0,0,0,1-.1,2.43,2.43,0,0,0,.82-.33,1.58,1.58,0,0,0,.55-.57,1.54,1.54,0,0,0,.2-.82,1.33,1.33,0,0,0-.65-1.2,6.25,6.25,0,0,0-2.29-.68,16.15,16.15,0,0,1-2-.46,5.59,5.59,0,0,1-1.63-.77,3.51,3.51,0,0,1-1.08-1.22,3.76,3.76,0,0,1-.39-1.79,3.93,3.93,0,0,1,.4-1.84,3.72,3.72,0,0,1,1.12-1.31,5,5,0,0,1,1.7-.79,8.54,8.54,0,0,1,2.14-.26,7.66,7.66,0,0,1,2,.25,5.41,5.41,0,0,1,1.67.74,4.36,4.36,0,0,1,1.21,1.21,4.49,4.49,0,0,1,.66,1.64l-3,.66a2.4,2.4,0,0,0-.82-1.52,2.67,2.67,0,0,0-1.78-.56,2.78,2.78,0,0,0-1.69.42A1.35,1.35,0,0,0,126.71,237.84Z"/><path class="cls-3" d="M139.47,248.16v-14H149v2.48h-6.58v3.08h6.12v2.48h-6.12v3.48h6.68v2.48Z"/><path class="cls-3" d="M153.17,241.16a9.12,9.12,0,0,1,.48-3.07A6.47,6.47,0,0,1,155,235.8a5.92,5.92,0,0,1,2.16-1.43,7.82,7.82,0,0,1,2.85-.49,6.81,6.81,0,0,1,3.76,1,5.31,5.31,0,0,1,2.16,3l-2.92,1A3.92,3.92,0,0,0,162,237a2.86,2.86,0,0,0-2-.65,3.51,3.51,0,0,0-1.62.36,3.26,3.26,0,0,0-1.16,1,4.47,4.47,0,0,0-.69,1.51,7.77,7.77,0,0,0-.23,1.92,7.63,7.63,0,0,0,.23,1.91,4.65,4.65,0,0,0,.69,1.51,3.19,3.19,0,0,0,1.16,1,3.57,3.57,0,0,0,1.64.36,2.92,2.92,0,0,0,1.89-.58A3.53,3.53,0,0,0,163,243.6l2.88,1a5.9,5.9,0,0,1-2.16,2.8,6.4,6.4,0,0,1-3.76,1,7.57,7.57,0,0,1-2.79-.49,6,6,0,0,1-2.14-1.42,6.3,6.3,0,0,1-1.37-2.29A9.22,9.22,0,0,1,153.17,241.16Z"/><path class="cls-3" d="M175.87,248.44a5.59,5.59,0,0,1-4.26-1.44,5.65,5.65,0,0,1-1.34-4v-8.84h3V243a3.4,3.4,0,0,0,.64,2.11,2.73,2.73,0,0,0,3.92,0,3.33,3.33,0,0,0,.64-2.11v-8.86h3V243a4.9,4.9,0,0,1-5.6,5.44Z"/><path class="cls-3" d="M197.15,238.42a3.94,3.94,0,0,1-2.66,4l3.22,5.74h-3.3l-2.9-5.3h-1.86v5.3h-3v-14h5.12a8.84,8.84,0,0,1,2.21.25,4.78,4.78,0,0,1,1.69.77,3.46,3.46,0,0,1,1.08,1.32A4.33,4.33,0,0,1,197.15,238.42Zm-3.08,0a1.49,1.49,0,0,0-.65-1.41,3.91,3.91,0,0,0-2-.39h-1.8v3.78h1.8a3.48,3.48,0,0,0,2-.45A1.71,1.71,0,0,0,194.07,238.44Z"/><path class="cls-3" d="M202.19,234.16h3v14h-3Z"/><path class="cls-3" d="M209.41,234.16h11.1v2.5h-4v11.5h-3v-11.5h-4Z"/><path class="cls-3" d="M229,242.3l-5.3-8.14h3.44l3.42,5.36,3.4-5.36h3.34L232,242.3v5.86h-3Z"/></g><g id="ICON"><path class="cls-2" d="M141.77,142.94c-10.21,0-20.12-.05-30,.06-1.16,0-2.31.94-3.47,1.44l-.1,1c1.58.49,3.16,1.4,4.75,1.43q12.38.21,24.74,0c1.89,0,2.67.68,3.09,2.31.66,2.51,1.36,5,2.24,8.22-9.83,0-19.37,0-28.9,0-2.55,0-5.1-.39-7.65-.46-3.48-.08-5.8-2.25-7.38-4.79-3.48-5.61-2.73-14.11,3.75-17.82a9.73,9.73,0,0,1,4.37-1.33c11.21-.27,22.43-.48,33.64-.52,6.22,0,12.44.13,18.65.52a10.93,10.93,0,0,1,9.9,10.39c.08,3.34,0,6.61-2.48,9.25-1.94,2-4,2.53-6.42,1a16.83,16.83,0,0,1-4-3.61c-1.83-2.21.58-3.71,1.33-5.76a18,18,0,0,1-2.3-.59c-1.91-.77-2.28.33-2.1,1.79.73,6,4.37,10.65,11.21,10.49,10.91-.25,21.83-.06,32.74-.07a9.86,9.86,0,0,0,10-8.61c.18-1.19.38-2.38.67-4.18l-4.62,1.34a3.07,3.07,0,0,0,.06.7c.64,1.43,2.81,2.38,1.39,4.46-1.76,2.59-3.7,5.07-7.23,4.71a6.21,6.21,0,0,1-5.66-4.76,14.1,14.1,0,0,1,2-12.38,9.61,9.61,0,0,1,7.7-4.24c11.37-.26,22.76-.46,34.14-.5,6.21,0,12.43.26,18.65.48,4,.14,8.77,4.62,9.31,9.13.63,5.3-.17,10.37-5.3,13.32a14.46,14.46,0,0,1-6.7,1.93c-10.82.19-21.66.08-32.49.07a6.82,6.82,0,0,1-1.08-.22c.95-3.43,1.9-6.81,2.85-10.25,8.42,0,16.67.1,24.91-.06,2.16,0,4.3-.87,6.46-1.34l0-1.14c-1.9-.49-3.79-1.37-5.7-1.41-8.41-.15-16.82,0-25.24-.11-2.08,0-2.69.61-2.71,2.7-.07,11.39-9,20.83-19.69,21.28-11.37.48-22.76.6-34.14.49-6.38-.06-12.22-2-16.63-7.15-3.49-4.08-4.93-8.91-6-14C142.16,145.2,142,144.16,141.77,142.94Z"/><path class="cls-2" d="M211.1,130c-3.66.46-7.14.59-10.46,1.42-2.37.59-4.49,2.15-6.76,3.19a9.81,9.81,0,0,1-3.58,1.24c-5.25.13-10.5.19-15.74,0a23.67,23.67,0,0,1-10.71-3c-2.41-1.33-5.38-1.71-8.13-2.4-1.39-.34-2.84-.42-4.27-.63l-.24-.75c1.76-.82,3.45-2,5.29-2.38,5-.94,10-1.56,15-2.23a34.48,34.48,0,0,1,6.4-.47c5.91.34,11.81.87,17.71,1.36a35.34,35.34,0,0,1,14.73,4.11A5.93,5.93,0,0,1,211.1,130Z"/><line class="cls-4" x1="185.82" y1="102.98" x2="187.28" y2="89.73"/><line class="cls-4" x1="198.95" y1="106.36" x2="203.79" y2="93.93"/><line class="cls-4" x1="210.01" y1="112.83" x2="218.03" y2="102.17"/><line class="cls-4" x1="218.37" y1="121.76" x2="228.73" y2="113.36"/><line class="cls-4" x1="175.15" y1="103.01" x2="173.7" y2="89.75"/><line class="cls-4" x1="162.02" y1="106.39" x2="157.19" y2="93.96"/><line class="cls-4" x1="150.96" y1="112.86" x2="142.94" y2="102.2"/><line class="cls-4" x1="142.6" y1="121.79" x2="132.24" y2="113.39"/><line class="cls-4" x1="175.15" y1="184.01" x2="173.7" y2="197.27"/><line class="cls-4" x1="162.02" y1="180.63" x2="157.19" y2="193.07"/><line class="cls-4" x1="150.96" y1="174.17" x2="142.94" y2="184.83"/><line class="cls-4" x1="142.6" y1="165.24" x2="132.24" y2="173.63"/><line class="cls-4" x1="185.82" y1="183.99" x2="187.28" y2="197.24"/><line class="cls-4" x1="198.95" y1="180.61" x2="203.79" y2="193.04"/><line class="cls-4" x1="210.01" y1="174.14" x2="218.03" y2="184.8"/><line class="cls-4" x1="218.37" y1="165.21" x2="228.73" y2="173.61"/></g></svg>