<svg xmlns="http://www.w3.org/2000/svg" viewBox="0 0 360 360"><defs><style>.cls-1{fill:#fff;}</style></defs><title>CARD</title><g id="Layer_6" data-name="Layer 6"><rect y="-0.09" width="360" height="360"/></g><g id="LINE_ONE" data-name="LINE ONE"><path class="cls-1" d="M108.26,241.06a9.16,9.16,0,0,1,.48-3.07,6.47,6.47,0,0,1,1.37-2.29,6,6,0,0,1,2.16-1.43,8,8,0,0,1,2.85-.49,6.81,6.81,0,0,1,3.76,1,5.29,5.29,0,0,1,2.16,3l-2.92,1a4,4,0,0,0-1.08-1.83,2.86,2.86,0,0,0-2-.65,3.51,3.51,0,0,0-1.62.36,3.35,3.35,0,0,0-1.16,1,4.77,4.77,0,0,0-.69,1.51,7.77,7.77,0,0,0-.23,1.92,7.57,7.57,0,0,0,.23,1.91,4.77,4.77,0,0,0,.69,1.51,3.28,3.28,0,0,0,1.16,1,3.57,3.57,0,0,0,1.64.36,2.9,2.9,0,0,0,1.89-.58,3.48,3.48,0,0,0,1.11-1.76l2.88,1a5.9,5.9,0,0,1-2.16,2.8,6.4,6.4,0,0,1-3.76,1,7.57,7.57,0,0,1-2.79-.49,5.9,5.9,0,0,1-2.14-1.42,6.3,6.3,0,0,1-1.37-2.29A9.18,9.18,0,0,1,108.26,241.06Z"/><path class="cls-1" d="M124.86,241.06a8.83,8.83,0,0,1,.49-3.05,6.64,6.64,0,0,1,1.38-2.29,6.16,6.16,0,0,1,2.15-1.44,8.09,8.09,0,0,1,5.6,0,6.07,6.07,0,0,1,2.15,1.44A6.49,6.49,0,0,1,138,238a9.74,9.74,0,0,1,0,6.1,6.41,6.41,0,0,1-1.38,2.29,5.82,5.82,0,0,1-2.15,1.44,8.09,8.09,0,0,1-5.6,0,5.9,5.9,0,0,1-2.15-1.44,6.55,6.55,0,0,1-1.38-2.29A8.79,8.79,0,0,1,124.86,241.06Zm3.1,0a7.9,7.9,0,0,0,.23,1.95,4.63,4.63,0,0,0,.69,1.52,3.22,3.22,0,0,0,1.16,1,4,4,0,0,0,3.28,0,3.06,3.06,0,0,0,1.16-1,4.25,4.25,0,0,0,.69-1.52,7.45,7.45,0,0,0,.23-1.95,7.56,7.56,0,0,0-.23-1.95,4.33,4.33,0,0,0-.69-1.52,3.16,3.16,0,0,0-1.16-1,4,4,0,0,0-3.28,0,3.32,3.32,0,0,0-1.16,1,4.73,4.73,0,0,0-.69,1.52A8,8,0,0,0,128,241.06Z"/><path class="cls-1" d="M149.36,248.06c-.2-.54-.45-1.26-.75-2.15s-.61-1.81-.93-2.77-.63-1.9-.93-2.82-.54-1.69-.73-2.32H146v10.06H143.2v-14h4.2l1.56,4.7q.42,1.29.69,2.07c.18.53.35,1,.5,1.51s.29.92.42,1.3.22.67.27.84l.26-.84c.12-.38.26-.84.43-1.37s.35-1.09.54-1.7.39-1.21.59-1.81q.68-2.13,1.5-4.7h4.18v14h-2.76V238h-.06c-.13.42-.29.91-.48,1.49s-.39,1.2-.61,1.85-.44,1.32-.67,2l-.64,1.92c-.2.61-.38,1.16-.55,1.65s-.3.88-.41,1.16Z"/><path class="cls-1" d="M169.78,248.06c-.2-.54-.45-1.26-.75-2.15s-.61-1.81-.93-2.77-.63-1.9-.93-2.82-.54-1.69-.73-2.32h-.06v10.06h-2.76v-14h4.2l1.56,4.7q.42,1.29.69,2.07c.18.53.35,1,.5,1.51s.29.92.42,1.3.22.67.27.84l.26-.84c.12-.38.26-.84.43-1.37s.35-1.09.54-1.7.39-1.21.59-1.81q.67-2.13,1.5-4.7h4.18v14H176V238h-.06c-.13.42-.29.91-.48,1.49s-.39,1.2-.61,1.85-.44,1.32-.67,2-.44,1.32-.64,1.92-.38,1.16-.55,1.65-.3.88-.41,1.16Z"/><path class="cls-1" d="M189.56,248.34a5.56,5.56,0,0,1-4.26-1.44,5.65,5.65,0,0,1-1.34-4v-8.84h3v8.86a3.32,3.32,0,0,0,.64,2.11,2.73,2.73,0,0,0,3.92,0,3.32,3.32,0,0,0,.64-2.11v-8.86h3v8.84a5.65,5.65,0,0,1-1.34,4A5.56,5.56,0,0,1,189.56,248.34Z"/><path class="cls-1" d="M200.36,234.06h3.12l2.32,3.76,1.08,1.75.84,1.37.8,1.29.64,1h.06v-9.2h2.84v14h-3.12c-.8-1.29-1.56-2.52-2.28-3.7l-1.07-1.73c-.29-.46-.57-.92-.85-1.38l-.81-1.32-.67-1.07h-.06v9.2h-2.84Z"/><path class="cls-1" d="M217.34,234.06h3v14h-3Z"/><path class="cls-1" d="M224.56,234.06h11.1v2.5h-4v11.5h-3v-11.5h-4Z"/><path class="cls-1" d="M244.12,242.2l-5.3-8.14h3.44l3.42,5.36,3.4-5.36h3.34l-5.3,8.14v5.86h-3Z"/></g><g id="LINE_TWO" data-name="LINE TWO"><path class="cls-1" d="M114.66,265.85v-14h9.54v2.48h-6.58v3.08h6.12v2.48h-6.12v3.48h6.68v2.48Z"/><path class="cls-1" d="M128.94,251.85h5.22a8.36,8.36,0,0,1,2.88.47,5.66,5.66,0,0,1,3.51,3.55,9.68,9.68,0,0,1,0,6,5.66,5.66,0,0,1-3.51,3.55,8.36,8.36,0,0,1-2.88.47h-5.22Zm9,7a6.65,6.65,0,0,0-.23-1.85,3.9,3.9,0,0,0-.7-1.43,3,3,0,0,0-1.19-.92,4.26,4.26,0,0,0-1.72-.32H132v9h2.12a4.26,4.26,0,0,0,1.72-.32,3,3,0,0,0,1.19-.92,3.9,3.9,0,0,0,.7-1.43A6.65,6.65,0,0,0,137.92,258.85Z"/><path class="cls-1" d="M151.24,266.13a5.56,5.56,0,0,1-4.26-1.44,5.65,5.65,0,0,1-1.34-4v-8.84h3v8.86a3.33,3.33,0,0,0,.64,2.11,2.73,2.73,0,0,0,3.92,0,3.33,3.33,0,0,0,.64-2.11v-8.86h3v8.84a5.65,5.65,0,0,1-1.34,4A5.56,5.56,0,0,1,151.24,266.13Z"/><path class="cls-1" d="M161.46,258.85a9.12,9.12,0,0,1,.48-3.07,6.47,6.47,0,0,1,1.37-2.29,5.83,5.83,0,0,1,2.16-1.43,7.82,7.82,0,0,1,2.85-.49,6.83,6.83,0,0,1,3.76,1,5.31,5.31,0,0,1,2.16,3l-2.92,1a3.92,3.92,0,0,0-1.08-1.83,2.86,2.86,0,0,0-2-.65,3.51,3.51,0,0,0-1.62.36,3.35,3.35,0,0,0-1.16,1,4.67,4.67,0,0,0-.69,1.51,7.77,7.77,0,0,0-.23,1.92,7.63,7.63,0,0,0,.23,1.91,4.87,4.87,0,0,0,.69,1.51,3.28,3.28,0,0,0,1.16,1,3.57,3.57,0,0,0,1.64.36,2.92,2.92,0,0,0,1.89-.58,3.53,3.53,0,0,0,1.11-1.76l2.88,1a5.9,5.9,0,0,1-2.16,2.8,6.4,6.4,0,0,1-3.76,1,7.57,7.57,0,0,1-2.79-.49,6,6,0,0,1-2.14-1.42,6.3,6.3,0,0,1-1.37-2.29A9.22,9.22,0,0,1,161.46,258.85Z"/><path class="cls-1" d="M190.8,265.85h-3.1l-1.12-3.24h-5l-1.12,3.24H177.5l5-14h3.22ZM184,255.13a4,4,0,0,1-.14.47c-.07.21-.14.44-.22.7s-.17.54-.27.84l-.29.87c-.23.69-.47,1.43-.74,2.22h3.38c-.27-.79-.51-1.53-.74-2.22-.15-.4-.26-.73-.35-1s-.17-.51-.24-.75-.14-.46-.21-.67-.11-.36-.14-.47Z"/><path class="cls-1" d="M192.28,251.85h11.1v2.5h-4v11.5h-3v-11.5h-4Z"/><path class="cls-1" d="M207.6,251.85h3v14h-3Z"/><path class="cls-1" d="M215.3,258.85a8.83,8.83,0,0,1,.49-3.05,6.64,6.64,0,0,1,1.38-2.29,5.82,5.82,0,0,1,2.15-1.44,8.09,8.09,0,0,1,5.6,0,5.82,5.82,0,0,1,2.15,1.44,6.64,6.64,0,0,1,1.38,2.29,9.74,9.74,0,0,1,0,6.1,6.64,6.64,0,0,1-1.38,2.29,5.82,5.82,0,0,1-2.15,1.44,8.09,8.09,0,0,1-5.6,0,5.82,5.82,0,0,1-2.15-1.44,6.64,6.64,0,0,1-1.38-2.29A8.83,8.83,0,0,1,215.3,258.85Zm3.1,0a7.9,7.9,0,0,0,.23,1.95,4.33,4.33,0,0,0,.69,1.52,3.14,3.14,0,0,0,1.16,1,4,4,0,0,0,3.28,0,3.14,3.14,0,0,0,1.16-1,4.33,4.33,0,0,0,.69-1.52,8.38,8.38,0,0,0,0-3.9,4.33,4.33,0,0,0-.69-1.52,3.14,3.14,0,0,0-1.16-1,4,4,0,0,0-3.28,0,3.14,3.14,0,0,0-1.16,1,4.33,4.33,0,0,0-.69,1.52A7.9,7.9,0,0,0,218.4,258.85Z"/><path class="cls-1" d="M233.64,251.85h3.12l2.32,3.76,1.08,1.75.84,1.37.8,1.29.64,1h.06v-9.2h2.84v14h-3.12l-2.28-3.7-1.07-1.73c-.29-.46-.57-.92-.85-1.38l-.81-1.32c-.26-.42-.48-.78-.67-1.07h-.06v9.2h-2.84Z"/></g><g id="ICON"><path class="cls-1" d="M159.48,197.85h-41c0-.65,0-1.27.1-1.89a20.37,20.37,0,0,1,4.86-11.43,20.65,20.65,0,0,1,6.27-4.94.49.49,0,0,1,.65.1,12.58,12.58,0,0,0,9.85,3.27,12.29,12.29,0,0,0,7.27-3.16.7.7,0,0,1,1-.12,20.41,20.41,0,0,1,10.77,14.94c.17.95.19,1.92.27,2.87A2.36,2.36,0,0,1,159.48,197.85Z"/><path class="cls-1" d="M129,170.14A10.06,10.06,0,1,1,139,180.21,10.07,10.07,0,0,1,129,170.14Z"/><path class="cls-1" d="M241.48,197.85h-41c0-.65,0-1.27.1-1.89a20.59,20.59,0,0,1,11.13-16.37.49.49,0,0,1,.65.1,12.6,12.6,0,0,0,9.86,3.27,12.29,12.29,0,0,0,7.26-3.16.71.71,0,0,1,1-.12,20.41,20.41,0,0,1,10.77,14.94c.17.95.19,1.92.27,2.87A2.36,2.36,0,0,1,241.48,197.85Z"/><path class="cls-1" d="M211,170.14A10.06,10.06,0,1,1,221,180.21,10.08,10.08,0,0,1,211,170.14Z"/><path class="cls-1" d="M200.48,197.85h-41c0-.65,0-1.27.1-1.89a20.59,20.59,0,0,1,11.13-16.37.49.49,0,0,1,.65.1,12.58,12.58,0,0,0,9.85,3.27,12.29,12.29,0,0,0,7.27-3.16.7.7,0,0,1,1-.12,20.41,20.41,0,0,1,10.77,14.94c.17.95.19,1.92.27,2.87A2.36,2.36,0,0,1,200.48,197.85Z"/><path class="cls-1" d="M170,170.14A10.06,10.06,0,1,1,180,180.21,10.08,10.08,0,0,1,170,170.14Z"/><path class="cls-1" d="M159.07,140c3.59-6,8.83-7.45,14.73-8.83,6.36-1.5,12.33-4.8,18.37-7.52,3.26-1.48,5.63-1.27,7.34,1.27s1.23,5.57-1.73,7.71a82.82,82.82,0,0,1-22,11.21c-2.25.77-3.63,1.77-3.06,4.35a9.64,9.64,0,0,1,0,1.08c.41,3.74-.14,6.41-4.28,8.45-5.34,2.61-7.52,8-7.84,14h-3.16c-1-10.15-6.65-15.9-16.7-17.22,0-3.64-.35-7.26.09-10.78.71-5.75,4.46-9,10-10.32a3.57,3.57,0,0,1,2.76.77C155.33,135.79,156.9,137.66,159.07,140Z"/><path class="cls-1" d="M190.09,145.83c4-2.83,7.95-4.42,12.87-4.2,8.63.38,17.28.11,25.92.11h3V95.17H168.79v12.48c-3.39-.82-5-2.33-4.53-5.72.33-2.2,0-4.5.09-6.74.13-2.93,1.69-4.53,4.59-4.53q31.59-.06,63.19,0c2.91,0,4.35,1.73,4.37,5,0,9.9,0,19.81,0,29.71,0,5.13,0,10.26,0,15.39,0,3.76-1.54,5.41-5.19,5.42-13.5.05-27,0-40.5,0C190.67,146.14,190.52,146,190.09,145.83Z"/><path class="cls-1" d="M170.31,120.44A10.91,10.91,0,0,1,159,131.35a11.09,11.09,0,0,1-11-11.24,11.21,11.21,0,0,1,11.35-11A11,11,0,0,1,170.31,120.44Z"/></g></svg>