<?xml version="1.0" encoding="utf-8"?>
<!-- Generator: Adobe Illustrator 23.1.0, SVG Export Plug-In . SVG Version: 6.00 Build 0)  -->
<svg version="1.1" xmlns="http://www.w3.org/2000/svg" xmlns:xlink="http://www.w3.org/1999/xlink" x="0px" y="0px"
	 viewBox="0 0 360 360" enable-background="new 0 0 360 360" xml:space="preserve">
<g id="BACKGROUND">
	<rect x="0" y="0" fill="#FFFFFF" width="360" height="360"/>
</g>
<g id="REF" display="none">
	
		<rect y="90.33" display="inline" fill="none" stroke="#000000" stroke-width="0.25" stroke-miterlimit="10" width="360" height="108"/>
	
		<rect x="360" y="90.33" display="inline" fill="none" stroke="#FFFFFF" stroke-width="0.25" stroke-miterlimit="10" width="360" height="108"/>
	
		<line display="inline" fill="none" stroke="#000000" stroke-width="0.25" stroke-linecap="round" stroke-miterlimit="10" x1="180" y1="0.19" x2="180" y2="360.06"/>
</g>
<g id="LINE_ONE">
	<g>
		<path d="M110.98,238.42c0,1.04-0.24,1.89-0.71,2.54c-0.47,0.65-1.12,1.14-1.95,1.46l3.22,5.74h-3.3l-2.9-5.3h-1.86v5.3h-2.98v-14
			h5.12c0.81,0,1.55,0.08,2.21,0.25s1.22,0.42,1.69,0.77c0.47,0.35,0.83,0.79,1.08,1.32C110.85,237.03,110.98,237.67,110.98,238.42z
			 M107.9,238.44c0-0.68-0.22-1.15-0.65-1.41c-0.43-0.26-1.09-0.39-1.97-0.39h-1.8v3.78h1.8c0.88,0,1.54-0.15,1.97-0.45
			C107.68,239.67,107.9,239.16,107.9,238.44z"/>
		<path d="M116.02,248.16v-14h9.54v2.48h-6.58v3.08h6.12v2.48h-6.12v3.48h6.68v2.48H116.02z"/>
		<path d="M129.72,241.16c0-1.15,0.16-2.17,0.48-3.07c0.32-0.9,0.78-1.66,1.37-2.29c0.59-0.63,1.31-1.1,2.16-1.43
			c0.85-0.33,1.8-0.49,2.85-0.49c1.49,0,2.75,0.33,3.76,0.98c1.01,0.65,1.73,1.65,2.16,2.98l-2.92,1.02
			c-0.24-0.79-0.6-1.4-1.08-1.83c-0.48-0.43-1.14-0.65-1.98-0.65c-0.61,0-1.15,0.12-1.62,0.36s-0.85,0.57-1.16,0.99
			s-0.54,0.92-0.69,1.51c-0.15,0.59-0.23,1.23-0.23,1.92s0.08,1.33,0.23,1.91c0.15,0.58,0.38,1.08,0.69,1.51s0.69,0.76,1.16,1
			s1.01,0.36,1.64,0.36c0.77,0,1.4-0.19,1.89-0.58c0.49-0.39,0.86-0.97,1.11-1.76l2.88,1.02c-0.47,1.19-1.19,2.12-2.16,2.8
			c-0.97,0.68-2.23,1.02-3.76,1.02c-1.03,0-1.96-0.16-2.79-0.49c-0.83-0.33-1.55-0.8-2.14-1.42s-1.05-1.38-1.37-2.29
			C129.88,243.33,129.72,242.3,129.72,241.16z"/>
		<path d="M146.32,241.16c0-1.13,0.16-2.15,0.49-3.05c0.33-0.9,0.79-1.66,1.38-2.29s1.31-1.11,2.15-1.44c0.84-0.33,1.77-0.5,2.8-0.5
			c1.03,0,1.96,0.17,2.8,0.5c0.84,0.33,1.56,0.81,2.15,1.44c0.59,0.63,1.05,1.39,1.38,2.29c0.33,0.9,0.49,1.92,0.49,3.05
			c0,1.13-0.16,2.15-0.49,3.05c-0.33,0.9-0.79,1.66-1.38,2.29c-0.59,0.63-1.31,1.11-2.15,1.44s-1.77,0.5-2.8,0.5
			c-1.03,0-1.96-0.17-2.8-0.5c-0.84-0.33-1.56-0.81-2.15-1.44c-0.59-0.63-1.05-1.39-1.38-2.29
			C146.48,243.31,146.32,242.29,146.32,241.16z M149.42,241.16c0,0.71,0.08,1.36,0.23,1.95c0.15,0.59,0.38,1.1,0.69,1.52
			s0.69,0.75,1.16,0.98s1.01,0.35,1.64,0.35s1.17-0.12,1.64-0.35s0.85-0.56,1.16-0.98s0.54-0.93,0.69-1.52
			c0.15-0.59,0.23-1.24,0.23-1.95s-0.08-1.36-0.23-1.95c-0.15-0.59-0.38-1.1-0.69-1.52s-0.69-0.75-1.16-0.98s-1.01-0.35-1.64-0.35
			s-1.17,0.12-1.64,0.35s-0.85,0.56-1.16,0.98s-0.54,0.93-0.69,1.52C149.5,239.8,149.42,240.45,149.42,241.16z"/>
		<path d="M170.58,240.4h6.44v7.76h-2.72v-1.44c-0.31,0.48-0.76,0.89-1.36,1.22c-0.6,0.33-1.38,0.5-2.34,0.5
			c-1.04,0-1.96-0.19-2.75-0.57s-1.45-0.9-1.98-1.55s-0.92-1.42-1.19-2.3s-0.4-1.82-0.4-2.82c0-1.08,0.16-2.07,0.47-2.96
			c0.31-0.89,0.77-1.66,1.37-2.31c0.6-0.65,1.33-1.15,2.19-1.51c0.86-0.36,1.84-0.54,2.93-0.54c1.41,0,2.62,0.31,3.62,0.93
			c1,0.62,1.75,1.54,2.26,2.75l-2.78,1.14c-0.27-0.75-0.67-1.32-1.22-1.73c-0.55-0.41-1.21-0.61-2-0.61c-1.13,0-2.04,0.42-2.72,1.25
			c-0.68,0.83-1.02,2.06-1.02,3.69c0,3.12,1.23,4.68,3.7,4.68c0.36,0,0.72-0.05,1.08-0.15c0.36-0.1,0.69-0.25,0.99-0.46
			c0.3-0.21,0.54-0.47,0.73-0.79s0.28-0.71,0.28-1.16v-0.64h-3.58V240.4z"/>
		<path d="M182.24,234.16h3.12c0.81,1.32,1.59,2.57,2.32,3.76c0.44,0.71,0.8,1.29,1.08,1.75s0.56,0.92,0.84,1.37s0.55,0.88,0.8,1.29
			c0.25,0.41,0.47,0.75,0.64,1.03h0.06v-9.2h2.84v14h-3.12c-0.8-1.29-1.56-2.53-2.28-3.7c-0.43-0.69-0.78-1.27-1.07-1.73
			s-0.57-0.92-0.85-1.38c-0.28-0.46-0.55-0.9-0.81-1.32s-0.48-0.78-0.67-1.07h-0.06v9.2h-2.84V234.16z"/>
		<path d="M199.22,234.16h3v14h-3V234.16z"/>
		<path d="M206.44,234.16h11.1v2.5h-4.04v11.5h-3.02v-11.5h-4.04V234.16z"/>
		<path d="M221.76,234.16h3v14h-3V234.16z"/>
		<path d="M229.46,241.16c0-1.13,0.16-2.15,0.49-3.05c0.33-0.9,0.79-1.66,1.38-2.29c0.59-0.63,1.31-1.11,2.15-1.44
			c0.84-0.33,1.77-0.5,2.8-0.5c1.03,0,1.96,0.17,2.8,0.5c0.84,0.33,1.56,0.81,2.15,1.44c0.59,0.63,1.05,1.39,1.38,2.29
			c0.33,0.9,0.49,1.92,0.49,3.05c0,1.13-0.16,2.15-0.49,3.05c-0.33,0.9-0.79,1.66-1.38,2.29c-0.59,0.63-1.31,1.11-2.15,1.44
			c-0.84,0.33-1.77,0.5-2.8,0.5c-1.03,0-1.96-0.17-2.8-0.5s-1.56-0.81-2.15-1.44c-0.59-0.63-1.05-1.39-1.38-2.29
			C229.62,243.31,229.46,242.29,229.46,241.16z M232.56,241.16c0,0.71,0.08,1.36,0.23,1.95c0.15,0.59,0.38,1.1,0.69,1.52
			s0.69,0.75,1.16,0.98s1.01,0.35,1.64,0.35s1.17-0.12,1.64-0.35c0.47-0.23,0.85-0.56,1.16-0.98c0.31-0.42,0.54-0.93,0.69-1.52
			c0.15-0.59,0.23-1.24,0.23-1.95s-0.08-1.36-0.23-1.95c-0.15-0.59-0.38-1.1-0.69-1.52c-0.31-0.42-0.69-0.75-1.16-0.98
			c-0.47-0.23-1.01-0.35-1.64-0.35s-1.17,0.12-1.64,0.35s-0.85,0.56-1.16,0.98s-0.54,0.93-0.69,1.52
			C232.64,239.8,232.56,240.45,232.56,241.16z"/>
		<path d="M247.8,234.16h3.12c0.81,1.32,1.59,2.57,2.32,3.76c0.44,0.71,0.8,1.29,1.08,1.75s0.56,0.92,0.84,1.37s0.55,0.88,0.8,1.29
			c0.25,0.41,0.47,0.75,0.64,1.03h0.06v-9.2h2.84v14h-3.12c-0.8-1.29-1.56-2.53-2.28-3.7c-0.43-0.69-0.78-1.27-1.07-1.73
			s-0.57-0.92-0.85-1.38c-0.28-0.46-0.55-0.9-0.81-1.32s-0.48-0.78-0.67-1.07h-0.06v9.2h-2.84V234.16z"/>
	</g>
</g>
<g id="LINE_TWO">
</g>
<g id="ICON">
	<g>
		<path fill="none" stroke="#000000" stroke-width="3" stroke-miterlimit="10" d="M202.42,138.98c0-5.01,0-10.03-0.01-15.04
			c0-1.57-0.7-2.27-2.29-2.27c-6.8-0.01-13.59,0-20.39,0c0,0,0,0,0,0c-0.86,0-1.71,0-2.57,0c-5.96,0-11.92,0-17.88,0.01
			c-1.54,0-2.22,0.71-2.22,2.26c0,5.77,0.05,11.53-0.02,17.3c-0.05,3.92,0.24,7.75,1.66,11.46c1.49,3.9,3.74,7.24,6.92,9.94
			c2.88,2.44,6.05,4.03,9.52,4.76c0,0.42-0.01,0.83,0,1.25c0.09,3.42,0.21,6.85,0.28,10.27c0.05,2.11-0.27,4.18-0.98,6.19
			c-0.48,1.35-1.03,2.67-1.56,4.03c4.55,0,9.09,0,13.71,0c-0.12-0.28-0.21-0.49-0.31-0.69c-1.17-2.45-2.1-4.98-2.19-7.66
			c-0.11-3.11,0.05-6.23,0.08-9.35c0.01-1.36,0-2.72,0-4c3.63-0.73,6.89-2.38,9.78-4.88c3.57-3.08,6-6.92,7.34-11.43
			c0.61-2.06,1.09-4.16,1.12-6.32C202.45,142.85,202.42,140.91,202.42,138.98z"/>
		<path fill="none" stroke="#000000" stroke-width="3" stroke-miterlimit="10" d="M192.19,192.54c-8.35,0-16.58,0-24.88,0
			c0-0.79-0.05-1.56,0.02-2.31c0.07-0.73,0.52-1.12,1.17-1.12c7.49-0.01,14.97-0.01,22.46,0c0.76,0,1.21,0.5,1.23,1.37
			C192.2,191.15,192.19,191.82,192.19,192.54z"/>
		<path fill="none" stroke="#000000" stroke-width="3" stroke-miterlimit="10" d="M196.5,198.33c-11.24,0-22.33,0-33.5,0
			c0-1.33-0.07-2.62,0.02-3.89c0.09-1.23,0.7-1.89,1.58-1.89c10.08-0.01,20.16-0.01,30.24,0c1.03,0,1.62,0.85,1.66,2.32
			C196.52,195.99,196.5,197.12,196.5,198.33z"/>
		<path d="M186.6,152.28c-0.14-0.08-0.26-0.16-0.38-0.23c-2.12-1.3-4.24-2.59-6.36-3.89c-0.1-0.06-0.16-0.06-0.26,0
			c-2.19,1.34-4.39,2.68-6.58,4.02c-0.04,0.03-0.08,0.05-0.15,0.09c0.02-0.08,0.03-0.14,0.04-0.2c0.6-2.5,1.19-5,1.79-7.5
			c0.02-0.08,0.01-0.13-0.06-0.19c-1.97-1.68-3.93-3.36-5.89-5.04c-0.04-0.03-0.07-0.06-0.13-0.11c0.3-0.02,0.57-0.05,0.84-0.07
			c0.63-0.05,1.26-0.1,1.89-0.15c0.51-0.04,1.03-0.08,1.54-0.12c0.61-0.05,1.22-0.1,1.83-0.15c0.5-0.04,1-0.08,1.51-0.12
			c0.06-0.01,0.13-0.02,0.19-0.01c0.18,0.02,0.24-0.07,0.31-0.23c0.98-2.36,1.96-4.72,2.94-7.08c0.02-0.04,0.03-0.07,0.06-0.13
			c0.14,0.33,0.27,0.65,0.4,0.96c0.88,2.12,1.77,4.24,2.65,6.37c0.03,0.08,0.07,0.1,0.16,0.11c0.62,0.05,1.24,0.1,1.85,0.15
			c0.51,0.04,1.01,0.08,1.52,0.12c0.62,0.05,1.24,0.1,1.85,0.15c0.51,0.04,1.02,0.08,1.53,0.12c0.37,0.03,0.75,0.06,1.15,0.09
			c-0.09,0.08-0.16,0.14-0.23,0.2c-1.93,1.65-3.86,3.31-5.79,4.96c-0.06,0.05-0.08,0.1-0.06,0.18c0.56,2.35,1.12,4.7,1.69,7.05
			C186.5,151.83,186.54,152.04,186.6,152.28z"/>
		<path fill="none" stroke="#000000" stroke-width="3" stroke-miterlimit="10" d="M156.69,137.58c-4.58,0.11-7.97,2.62-8.34,6.57
			c-0.55,5.79,5.39,14.89,14.14,17.95c2.39,0.84,4.2,1.47,4.2,1.47"/>
		<path fill="none" stroke="#000000" stroke-width="3" stroke-miterlimit="10" d="M203.24,137.25c4.58,0.11,7.97,2.62,8.34,6.57
			c0.55,5.79-5.39,14.89-14.14,17.95c-2.39,0.84-4.2,1.47-4.2,1.47"/>
		
			<line fill="none" stroke="#000000" stroke-width="2" stroke-linecap="round" stroke-miterlimit="10" x1="185.07" y1="103.59" x2="186.53" y2="90.33"/>
		
			<line fill="none" stroke="#000000" stroke-width="2" stroke-linecap="round" stroke-miterlimit="10" x1="198.21" y1="106.97" x2="203.04" y2="94.54"/>
		
			<line fill="none" stroke="#000000" stroke-width="2" stroke-linecap="round" stroke-miterlimit="10" x1="209.26" y1="113.44" x2="217.28" y2="102.78"/>
		
			<line fill="none" stroke="#000000" stroke-width="2" stroke-linecap="round" stroke-miterlimit="10" x1="217.62" y1="122.37" x2="227.98" y2="113.97"/>
		
			<line fill="none" stroke="#000000" stroke-width="2" stroke-linecap="round" stroke-miterlimit="10" x1="223.96" y1="133.81" x2="236.25" y2="128.62"/>
		
			<line fill="none" stroke="#000000" stroke-width="2" stroke-linecap="round" stroke-miterlimit="10" x1="226.69" y1="145.79" x2="239.99" y2="144.73"/>
		
			<line fill="none" stroke="#000000" stroke-width="2" stroke-linecap="round" stroke-miterlimit="10" x1="226.19" y1="158.36" x2="239.38" y2="160.31"/>
		
			<line fill="none" stroke="#000000" stroke-width="2" stroke-linecap="round" stroke-miterlimit="10" x1="223.25" y1="170.61" x2="235.41" y2="176.07"/>
		
			<line fill="none" stroke="#000000" stroke-width="2" stroke-linecap="round" stroke-miterlimit="10" x1="216.58" y1="181.02" x2="227.13" y2="189.18"/>
		
			<line fill="none" stroke="#000000" stroke-width="2" stroke-linecap="round" stroke-miterlimit="10" x1="174.41" y1="103.62" x2="172.95" y2="90.36"/>
		
			<line fill="none" stroke="#000000" stroke-width="2" stroke-linecap="round" stroke-miterlimit="10" x1="161.27" y1="107" x2="156.44" y2="94.56"/>
		
			<line fill="none" stroke="#000000" stroke-width="2" stroke-linecap="round" stroke-miterlimit="10" x1="150.21" y1="113.47" x2="142.2" y2="102.81"/>
		
			<line fill="none" stroke="#000000" stroke-width="2" stroke-linecap="round" stroke-miterlimit="10" x1="141.86" y1="122.4" x2="131.49" y2="114"/>
		
			<line fill="none" stroke="#000000" stroke-width="2" stroke-linecap="round" stroke-miterlimit="10" x1="135.51" y1="133.84" x2="123.23" y2="128.65"/>
		
			<line fill="none" stroke="#000000" stroke-width="2" stroke-linecap="round" stroke-miterlimit="10" x1="132.79" y1="145.82" x2="119.49" y2="144.76"/>
		
			<line fill="none" stroke="#000000" stroke-width="2" stroke-linecap="round" stroke-miterlimit="10" x1="133.29" y1="158.39" x2="120.1" y2="160.34"/>
		
			<line fill="none" stroke="#000000" stroke-width="2" stroke-linecap="round" stroke-miterlimit="10" x1="136.23" y1="170.64" x2="124.06" y2="176.1"/>
		
			<line fill="none" stroke="#000000" stroke-width="2" stroke-linecap="round" stroke-miterlimit="10" x1="142.89" y1="181.05" x2="132.34" y2="189.21"/>
	</g>
</g>
</svg>
