<svg xmlns="http://www.w3.org/2000/svg" viewBox="0 0 360 360"><defs><style>.cls-1{fill:#d2bf2d;}.cls-2{fill:#fff;}</style></defs><title>CARD</title><g id="LINE_ONE" data-name="LINE ONE"><path class="cls-1" d="M108.26,241.06a9.16,9.16,0,0,1,.48-3.07,6.47,6.47,0,0,1,1.37-2.29,6,6,0,0,1,2.16-1.43,8,8,0,0,1,2.85-.49,6.81,6.81,0,0,1,3.76,1,5.29,5.29,0,0,1,2.16,3l-2.92,1a4,4,0,0,0-1.08-1.83,2.86,2.86,0,0,0-2-.65,3.51,3.51,0,0,0-1.62.36,3.35,3.35,0,0,0-1.16,1,4.77,4.77,0,0,0-.69,1.51,7.77,7.77,0,0,0-.23,1.92,7.57,7.57,0,0,0,.23,1.91,4.77,4.77,0,0,0,.69,1.51,3.28,3.28,0,0,0,1.16,1,3.57,3.57,0,0,0,1.64.36,2.9,2.9,0,0,0,1.89-.58,3.48,3.48,0,0,0,1.11-1.76l2.88,1a5.9,5.9,0,0,1-2.16,2.8,6.4,6.4,0,0,1-3.76,1,7.57,7.57,0,0,1-2.79-.49,5.9,5.9,0,0,1-2.14-1.42,6.3,6.3,0,0,1-1.37-2.29A9.18,9.18,0,0,1,108.26,241.06Z"/><path class="cls-1" d="M124.86,241.06a8.83,8.83,0,0,1,.49-3.05,6.64,6.64,0,0,1,1.38-2.29,6.16,6.16,0,0,1,2.15-1.44,8.09,8.09,0,0,1,5.6,0,6.07,6.07,0,0,1,2.15,1.44A6.49,6.49,0,0,1,138,238a9.74,9.74,0,0,1,0,6.1,6.41,6.41,0,0,1-1.38,2.29,5.82,5.82,0,0,1-2.15,1.44,8.09,8.09,0,0,1-5.6,0,5.9,5.9,0,0,1-2.15-1.44,6.55,6.55,0,0,1-1.38-2.29A8.79,8.79,0,0,1,124.86,241.06Zm3.1,0a7.9,7.9,0,0,0,.23,1.95,4.63,4.63,0,0,0,.69,1.52,3.22,3.22,0,0,0,1.16,1,4,4,0,0,0,3.28,0,3.06,3.06,0,0,0,1.16-1,4.25,4.25,0,0,0,.69-1.52,7.45,7.45,0,0,0,.23-1.95,7.56,7.56,0,0,0-.23-1.95,4.33,4.33,0,0,0-.69-1.52,3.16,3.16,0,0,0-1.16-1,4,4,0,0,0-3.28,0,3.32,3.32,0,0,0-1.16,1,4.73,4.73,0,0,0-.69,1.52A8,8,0,0,0,128,241.06Z"/><path class="cls-1" d="M149.36,248.06c-.2-.54-.45-1.26-.75-2.15s-.61-1.81-.93-2.77-.63-1.9-.93-2.82-.54-1.69-.73-2.32H146v10.06H143.2v-14h4.2l1.56,4.7q.42,1.29.69,2.07c.18.53.35,1,.5,1.51s.29.92.42,1.3.22.67.27.84l.26-.84c.12-.38.26-.84.43-1.37s.35-1.09.54-1.7.39-1.21.59-1.81q.68-2.13,1.5-4.7h4.18v14h-2.76V238h-.06c-.13.42-.29.91-.48,1.49s-.39,1.2-.61,1.85-.44,1.32-.67,2l-.64,1.92c-.2.61-.38,1.16-.55,1.65s-.3.88-.41,1.16Z"/><path class="cls-1" d="M169.78,248.06c-.2-.54-.45-1.26-.75-2.15s-.61-1.81-.93-2.77-.63-1.9-.93-2.82-.54-1.69-.73-2.32h-.06v10.06h-2.76v-14h4.2l1.56,4.7q.42,1.29.69,2.07c.18.53.35,1,.5,1.51s.29.92.42,1.3.22.67.27.84l.26-.84c.12-.38.26-.84.43-1.37s.35-1.09.54-1.7.39-1.21.59-1.81q.67-2.13,1.5-4.7h4.18v14H176V238h-.06c-.13.42-.29.91-.48,1.49s-.39,1.2-.61,1.85-.44,1.32-.67,2-.44,1.32-.64,1.92-.38,1.16-.55,1.65-.3.88-.41,1.16Z"/><path class="cls-1" d="M189.56,248.34a5.56,5.56,0,0,1-4.26-1.44,5.65,5.65,0,0,1-1.34-4v-8.84h3v8.86a3.32,3.32,0,0,0,.64,2.11,2.73,2.73,0,0,0,3.92,0,3.32,3.32,0,0,0,.64-2.11v-8.86h3v8.84a5.65,5.65,0,0,1-1.34,4A5.56,5.56,0,0,1,189.56,248.34Z"/><path class="cls-1" d="M200.36,234.06h3.12l2.32,3.76,1.08,1.75.84,1.37.8,1.29.64,1h.06v-9.2h2.84v14h-3.12c-.8-1.29-1.56-2.52-2.28-3.7l-1.07-1.73c-.29-.46-.57-.92-.85-1.38l-.81-1.32-.67-1.07h-.06v9.2h-2.84Z"/><path class="cls-1" d="M217.34,234.06h3v14h-3Z"/><path class="cls-1" d="M224.56,234.06h11.1v2.5h-4v11.5h-3v-11.5h-4Z"/><path class="cls-1" d="M244.12,242.2l-5.3-8.14h3.44l3.42,5.36,3.4-5.36h3.34l-5.3,8.14v5.86h-3Z"/><rect class="cls-1" y="336" width="360" height="23.94"/><path class="cls-2" d="M264.75,348.23a5.55,5.55,0,0,1,.29-1.84,3.69,3.69,0,0,1,.82-1.37,3.52,3.52,0,0,1,1.3-.86,4.58,4.58,0,0,1,1.71-.29,4.09,4.09,0,0,1,2.25.58,3.24,3.24,0,0,1,1.3,1.79l-1.75.61a2.39,2.39,0,0,0-.65-1.09,1.72,1.72,0,0,0-1.19-.39,2.13,2.13,0,0,0-1,.21,2,2,0,0,0-.7.6,2.66,2.66,0,0,0-.41.9,4.65,4.65,0,0,0-.14,1.15,4.59,4.59,0,0,0,.14,1.15,2.81,2.81,0,0,0,.41.91,2.13,2.13,0,0,0,.7.6,2.17,2.17,0,0,0,1,.21,1.74,1.74,0,0,0,1.14-.35,2.12,2.12,0,0,0,.66-1.05l1.73.61a3.59,3.59,0,0,1-1.3,1.68,3.81,3.81,0,0,1-2.25.61,4.7,4.7,0,0,1-1.68-.29,3.63,3.63,0,0,1-1.28-.85,3.73,3.73,0,0,1-.82-1.38A5.57,5.57,0,0,1,264.75,348.23Z"/><path class="cls-2" d="M274.71,348.23a5.49,5.49,0,0,1,.29-1.83,4.09,4.09,0,0,1,.83-1.37,3.57,3.57,0,0,1,1.29-.86,4.56,4.56,0,0,1,1.68-.3,4.49,4.49,0,0,1,1.68.3,3.4,3.4,0,0,1,1.29.86,3.93,3.93,0,0,1,.83,1.37,5.92,5.92,0,0,1,0,3.66,4,4,0,0,1-.83,1.38,3.52,3.52,0,0,1-1.29.86,4.49,4.49,0,0,1-1.68.3,4.56,4.56,0,0,1-1.68-.3,3.7,3.7,0,0,1-1.29-.86,4.13,4.13,0,0,1-.83-1.38A5.49,5.49,0,0,1,274.71,348.23Zm1.86,0a4.69,4.69,0,0,0,.14,1.17,2.77,2.77,0,0,0,.41.92,2,2,0,0,0,.7.58,2.42,2.42,0,0,0,2,0,1.85,1.85,0,0,0,.69-.58,2.78,2.78,0,0,0,.42-.92,4.71,4.71,0,0,0,.13-1.17,4.82,4.82,0,0,0-.13-1.17,2.73,2.73,0,0,0-.42-.91,1.88,1.88,0,0,0-.69-.59,2.42,2.42,0,0,0-2,0,2,2,0,0,0-.7.59,2.72,2.72,0,0,0-.41.91A4.81,4.81,0,0,0,276.57,348.23Z"/><path class="cls-2" d="M289.41,352.43q-.18-.48-.45-1.29c-.18-.53-.37-1.08-.56-1.66l-.56-1.69c-.18-.55-.32-1-.44-1.39h0v6h-1.66V344h2.52c.35,1,.66,2,.94,2.82.17.52.31.93.41,1.25s.21.61.3.9.18.55.26.78.13.4.16.51l.15-.51.26-.82.32-1,.36-1.09.9-2.82h2.51v8.4h-1.66v-6h0l-.28.89c-.12.35-.24.72-.37,1.11s-.27.79-.4,1.2-.27.78-.38,1.15-.24.69-.33,1-.19.53-.25.69Z"/><path class="cls-2" d="M301.66,352.43q-.18-.48-.45-1.29c-.18-.53-.36-1.08-.56-1.66s-.38-1.14-.55-1.69-.33-1-.44-1.39h0v6H298V344h2.51c.35,1,.66,2,.94,2.82.17.52.31.93.42,1.25l.3.9c.09.29.17.55.25.78s.13.4.16.51l.15-.51c.08-.23.16-.5.26-.82s.21-.66.33-1,.23-.73.35-1.09l.9-2.82h2.51v8.4h-1.66v-6h0c-.08.25-.18.54-.29.89s-.23.72-.37,1.11l-.4,1.2c-.14.4-.26.78-.38,1.15l-.33,1c-.1.29-.19.53-.25.69Z"/><path class="cls-2" d="M313.53,352.6a3.38,3.38,0,0,1-2.56-.86,3.43,3.43,0,0,1-.8-2.4V344H312v5.32a2.08,2.08,0,0,0,.38,1.27,1.4,1.4,0,0,0,1.18.49,1.37,1.37,0,0,0,1.17-.49,2,2,0,0,0,.39-1.27V344h1.8v5.31a3.38,3.38,0,0,1-.81,2.4A3.34,3.34,0,0,1,313.53,352.6Z"/><path class="cls-2" d="M320,344h1.87l1.39,2.26c.27.42.48.77.65,1l.5.82.48.78c.16.24.28.45.39.61h0V344H327v8.4h-1.87c-.48-.77-.94-1.51-1.37-2.22l-.64-1c-.18-.28-.35-.56-.51-.83l-.49-.79-.4-.65h0v5.52H320Z"/><path class="cls-2" d="M330.2,344H332v8.4h-1.8Z"/><path class="cls-2" d="M334.53,344h6.66v1.5h-2.43v6.9H337v-6.9h-2.42Z"/><path class="cls-2" d="M346.26,348.92,343.08,344h2.07l2.05,3.22,2-3.22h2l-3.18,4.89v3.51h-1.8Z"/></g><g id="LINE_TWO" data-name="LINE TWO"><path class="cls-1" d="M114.66,265.85v-14h9.54v2.48h-6.58v3.08h6.12v2.48h-6.12v3.48h6.68v2.48Z"/><path class="cls-1" d="M128.94,251.85h5.22a8.36,8.36,0,0,1,2.88.47,5.66,5.66,0,0,1,3.51,3.55,9.68,9.68,0,0,1,0,6,5.66,5.66,0,0,1-3.51,3.55,8.36,8.36,0,0,1-2.88.47h-5.22Zm9,7a6.65,6.65,0,0,0-.23-1.85,3.9,3.9,0,0,0-.7-1.43,3,3,0,0,0-1.19-.92,4.26,4.26,0,0,0-1.72-.32H132v9h2.12a4.26,4.26,0,0,0,1.72-.32,3,3,0,0,0,1.19-.92,3.9,3.9,0,0,0,.7-1.43A6.65,6.65,0,0,0,137.92,258.85Z"/><path class="cls-1" d="M151.24,266.13a5.56,5.56,0,0,1-4.26-1.44,5.65,5.65,0,0,1-1.34-4v-8.84h3v8.86a3.33,3.33,0,0,0,.64,2.11,2.73,2.73,0,0,0,3.92,0,3.33,3.33,0,0,0,.64-2.11v-8.86h3v8.84a5.65,5.65,0,0,1-1.34,4A5.56,5.56,0,0,1,151.24,266.13Z"/><path class="cls-1" d="M161.46,258.85a9.12,9.12,0,0,1,.48-3.07,6.47,6.47,0,0,1,1.37-2.29,5.83,5.83,0,0,1,2.16-1.43,7.82,7.82,0,0,1,2.85-.49,6.83,6.83,0,0,1,3.76,1,5.31,5.31,0,0,1,2.16,3l-2.92,1a3.92,3.92,0,0,0-1.08-1.83,2.86,2.86,0,0,0-2-.65,3.51,3.51,0,0,0-1.62.36,3.35,3.35,0,0,0-1.16,1,4.67,4.67,0,0,0-.69,1.51,7.77,7.77,0,0,0-.23,1.92,7.63,7.63,0,0,0,.23,1.91,4.87,4.87,0,0,0,.69,1.51,3.28,3.28,0,0,0,1.16,1,3.57,3.57,0,0,0,1.64.36,2.92,2.92,0,0,0,1.89-.58,3.53,3.53,0,0,0,1.11-1.76l2.88,1a5.9,5.9,0,0,1-2.16,2.8,6.4,6.4,0,0,1-3.76,1,7.57,7.57,0,0,1-2.79-.49,6,6,0,0,1-2.14-1.42,6.3,6.3,0,0,1-1.37-2.29A9.22,9.22,0,0,1,161.46,258.85Z"/><path class="cls-1" d="M190.8,265.85h-3.1l-1.12-3.24h-5l-1.12,3.24H177.5l5-14h3.22ZM184,255.13a4,4,0,0,1-.14.47c-.07.21-.14.44-.22.7s-.17.54-.27.84l-.29.87c-.23.69-.47,1.43-.74,2.22h3.38c-.27-.79-.51-1.53-.74-2.22-.15-.4-.26-.73-.35-1s-.17-.51-.24-.75-.14-.46-.21-.67-.11-.36-.14-.47Z"/><path class="cls-1" d="M192.28,251.85h11.1v2.5h-4v11.5h-3v-11.5h-4Z"/><path class="cls-1" d="M207.6,251.85h3v14h-3Z"/><path class="cls-1" d="M215.3,258.85a8.83,8.83,0,0,1,.49-3.05,6.64,6.64,0,0,1,1.38-2.29,5.82,5.82,0,0,1,2.15-1.44,8.09,8.09,0,0,1,5.6,0,5.82,5.82,0,0,1,2.15,1.44,6.64,6.64,0,0,1,1.38,2.29,9.74,9.74,0,0,1,0,6.1,6.64,6.64,0,0,1-1.38,2.29,5.82,5.82,0,0,1-2.15,1.44,8.09,8.09,0,0,1-5.6,0,5.82,5.82,0,0,1-2.15-1.44,6.64,6.64,0,0,1-1.38-2.29A8.83,8.83,0,0,1,215.3,258.85Zm3.1,0a7.9,7.9,0,0,0,.23,1.95,4.33,4.33,0,0,0,.69,1.52,3.14,3.14,0,0,0,1.16,1,4,4,0,0,0,3.28,0,3.14,3.14,0,0,0,1.16-1,4.33,4.33,0,0,0,.69-1.52,8.38,8.38,0,0,0,0-3.9,4.33,4.33,0,0,0-.69-1.52,3.14,3.14,0,0,0-1.16-1,4,4,0,0,0-3.28,0,3.14,3.14,0,0,0-1.16,1,4.33,4.33,0,0,0-.69,1.52A7.9,7.9,0,0,0,218.4,258.85Z"/><path class="cls-1" d="M233.64,251.85h3.12l2.32,3.76,1.08,1.75.84,1.37.8,1.29.64,1h.06v-9.2h2.84v14h-3.12l-2.28-3.7-1.07-1.73c-.29-.46-.57-.92-.85-1.38l-.81-1.32c-.26-.42-.48-.78-.67-1.07h-.06v9.2h-2.84Z"/></g><g id="ICON"><path class="cls-1" d="M153.48,197.55h-41c0-.64,0-1.27.1-1.89a20.59,20.59,0,0,1,11.13-16.36.49.49,0,0,1,.65.09,12.58,12.58,0,0,0,9.85,3.28,12.35,12.35,0,0,0,7.27-3.16.69.69,0,0,1,1-.12,20.39,20.39,0,0,1,10.77,14.94c.17.94.19,1.91.27,2.87A2.18,2.18,0,0,1,153.48,197.55Z"/><path class="cls-1" d="M123,169.85A10.06,10.06,0,1,1,133,179.92,10.08,10.08,0,0,1,123,169.85Z"/><path class="cls-1" d="M235.48,197.55h-41c0-.64,0-1.27.1-1.89a20.65,20.65,0,0,1,11.13-16.36.49.49,0,0,1,.65.09,12.6,12.6,0,0,0,9.86,3.28,12.35,12.35,0,0,0,7.26-3.16.7.7,0,0,1,1-.12,20.4,20.4,0,0,1,10.78,14.94c.17.94.18,1.91.26,2.87A2.18,2.18,0,0,1,235.48,197.55Z"/><path class="cls-1" d="M205,169.85A10.06,10.06,0,1,1,215,179.92,10.08,10.08,0,0,1,205,169.85Z"/><path class="cls-1" d="M194.48,197.55h-41c0-.64,0-1.27.1-1.89a20.59,20.59,0,0,1,11.13-16.36.49.49,0,0,1,.65.09,12.6,12.6,0,0,0,9.86,3.28,12.35,12.35,0,0,0,7.26-3.16.7.7,0,0,1,1-.12,20.39,20.39,0,0,1,10.77,14.94c.17.94.19,1.91.27,2.87A2.18,2.18,0,0,1,194.48,197.55Z"/><path class="cls-1" d="M164,169.85A10.06,10.06,0,1,1,174,179.92,10.08,10.08,0,0,1,164,169.85Z"/><path class="cls-1" d="M153.07,139.68c3.59-6,8.84-7.45,14.73-8.84,6.36-1.49,12.33-4.79,18.37-7.52,3.26-1.47,5.63-1.26,7.34,1.27,1.82,2.7,1.23,5.57-1.73,7.71a82.85,82.85,0,0,1-22,11.22c-2.24.76-3.63,1.76-3.06,4.34a9.73,9.73,0,0,1,0,1.08c.41,3.75-.14,6.42-4.28,8.45-5.33,2.62-7.52,8-7.84,14.05h-3.16c-1-10.15-6.65-15.91-16.69-17.22,0-3.65-.36-7.26.08-10.78.71-5.75,4.46-9,10-10.32a3.57,3.57,0,0,1,2.76.76C149.34,135.5,150.9,137.37,153.07,139.68Z"/><path class="cls-1" d="M184.09,145.54c4-2.83,7.95-4.42,12.87-4.2,8.63.38,17.28.11,25.92.11h3V94.88H162.8v12.48c-3.4-.82-5-2.33-4.54-5.73.33-2.2,0-4.49.09-6.74.14-2.92,1.69-4.52,4.59-4.53q31.59-.06,63.19,0c2.91,0,4.35,1.73,4.37,5,0,9.9,0,19.8,0,29.7,0,5.13,0,10.27,0,15.4,0,3.75-1.54,5.41-5.19,5.42-13.5,0-27,0-40.5,0C184.67,145.85,184.52,145.72,184.09,145.54Z"/><path class="cls-1" d="M164.31,120.14A10.91,10.91,0,0,1,153,131.06a11.11,11.11,0,0,1-11-11.25,11.23,11.23,0,0,1,11.35-11A11,11,0,0,1,164.31,120.14Z"/></g></svg>