<svg xmlns="http://www.w3.org/2000/svg" viewBox="0 0 360 360"><defs><style>.cls-1{fill:#fff;}.cls-2{fill:#226985;}.cls-3{fill:#256885;}</style></defs><title>CARD</title><g id="Layer_6" data-name="Layer 6"><rect class="cls-1" x="0.42" y="-0.47" width="360" height="360"/></g><g id="BACKGROUND"><rect class="cls-2" y="336" width="360" height="23.94"/><path class="cls-1" d="M290.57,346.23a.82.82,0,0,0,.47.78,5.75,5.75,0,0,0,1.49.4,4.68,4.68,0,0,1,2.2.83,2.07,2.07,0,0,1,.7,1.71,2.32,2.32,0,0,1-.25,1.1,2.53,2.53,0,0,1-.7.83,3.4,3.4,0,0,1-1.08.53,4.79,4.79,0,0,1-1.35.18,4.53,4.53,0,0,1-1.43-.21,3.45,3.45,0,0,1-1.08-.56,2.56,2.56,0,0,1-.7-.81,2.28,2.28,0,0,1-.27-1l1.8-.29a1.55,1.55,0,0,0,.47,1,1.71,1.71,0,0,0,1.21.39,2.77,2.77,0,0,0,.6-.06,1.5,1.5,0,0,0,.5-.2,1,1,0,0,0,.33-.34,1,1,0,0,0,.12-.49.81.81,0,0,0-.39-.72,3.72,3.72,0,0,0-1.38-.41,8.11,8.11,0,0,1-1.22-.28,3.17,3.17,0,0,1-1-.46,2.07,2.07,0,0,1-.65-.73,2.32,2.32,0,0,1-.23-1.07,2.39,2.39,0,0,1,.24-1.11,2.18,2.18,0,0,1,.67-.78,3,3,0,0,1,1-.48,5.17,5.17,0,0,1,1.28-.15,4.74,4.74,0,0,1,1.22.15,3.24,3.24,0,0,1,1,.44,2.63,2.63,0,0,1,.72.73,2.45,2.45,0,0,1,.4,1l-1.82.4a1.5,1.5,0,0,0-.5-.92,1.6,1.6,0,0,0-1.06-.33,1.67,1.67,0,0,0-1,.25A.8.8,0,0,0,290.57,346.23Z"/><path class="cls-1" d="M297.29,344H304v1.5h-2.42v6.9h-1.81v-6.9h-2.43Z"/><path class="cls-1" d="M309.8,352.59a2.93,2.93,0,0,1-3.36-3.26V344h1.8v5.32a2,2,0,0,0,.38,1.27,1.4,1.4,0,0,0,1.18.49,1.38,1.38,0,0,0,1.17-.49,2,2,0,0,0,.39-1.27V344h1.8v5.31a2.94,2.94,0,0,1-3.36,3.26Z"/><path class="cls-1" d="M316.28,344h3.13a5,5,0,0,1,1.73.29,3.42,3.42,0,0,1,1.29.81,3.67,3.67,0,0,1,.81,1.32,5.83,5.83,0,0,1,0,3.57,3.67,3.67,0,0,1-.81,1.32,3.55,3.55,0,0,1-1.29.81,5,5,0,0,1-1.73.28h-3.13Zm5.38,4.2a4.33,4.33,0,0,0-.13-1.11,2.7,2.7,0,0,0-.42-.85,1.9,1.9,0,0,0-.72-.56,2.67,2.67,0,0,0-1-.19h-1.27v5.43h1.27a2.49,2.49,0,0,0,1-.2,1.78,1.78,0,0,0,.72-.55,2.65,2.65,0,0,0,.42-.86A4.23,4.23,0,0,0,321.66,348.22Z"/><path class="cls-1" d="M326.34,352.42V344h5.73v1.49h-3.95v1.85h3.67v1.49h-3.67v2.09h4v1.48Z"/><path class="cls-1" d="M334.91,344h1.87l1.4,2.26c.26.42.48.77.64,1.05l.51.82.48.78.38.61h0V344h1.7v8.4h-1.87c-.48-.77-.94-1.51-1.37-2.22l-.64-1-.51-.83-.49-.79c-.15-.26-.29-.47-.4-.65h0v5.52h-1.71Z"/><path class="cls-1" d="M344.46,344h6.66v1.5H348.7v6.9h-1.81v-6.9h-2.43Z"/></g><g id="LINE_ONE" data-name="LINE ONE"><path class="cls-2" d="M131.43,237.77a1.33,1.33,0,0,0,.78,1.29,8.75,8.75,0,0,0,2.48.67,7.86,7.86,0,0,1,3.67,1.38,3.51,3.51,0,0,1,1.17,2.86,3.92,3.92,0,0,1-.42,1.83,4.07,4.07,0,0,1-1.17,1.38,5.44,5.44,0,0,1-1.79.88,7.76,7.76,0,0,1-2.26.32,7.39,7.39,0,0,1-2.38-.36,5.66,5.66,0,0,1-1.8-.93,4.19,4.19,0,0,1-1.16-1.36,3.77,3.77,0,0,1-.46-1.62l3-.48a2.56,2.56,0,0,0,.79,1.67,2.8,2.8,0,0,0,2,.66,4.6,4.6,0,0,0,1-.11,2.14,2.14,0,0,0,.82-.33,1.73,1.73,0,0,0,.55-.56,1.64,1.64,0,0,0,.2-.83,1.36,1.36,0,0,0-.65-1.2,6.35,6.35,0,0,0-2.29-.67,20.59,20.59,0,0,1-2-.46,5.48,5.48,0,0,1-1.63-.78,3.42,3.42,0,0,1-1.08-1.22,3.73,3.73,0,0,1-.39-1.79,4,4,0,0,1,.4-1.84,3.81,3.81,0,0,1,1.12-1.31,5,5,0,0,1,1.7-.78,8,8,0,0,1,2.14-.27,8.16,8.16,0,0,1,2,.25,5.77,5.77,0,0,1,1.67.74,4.49,4.49,0,0,1,1.21,1.21,4.56,4.56,0,0,1,.66,1.64l-3,.66a2.43,2.43,0,0,0-.82-1.51,2.62,2.62,0,0,0-1.78-.57,2.86,2.86,0,0,0-1.69.42A1.34,1.34,0,0,0,131.43,237.77Z"/><path class="cls-2" d="M142.63,234.09h11.1v2.5h-4v11.5h-3v-11.5h-4Z"/><path class="cls-2" d="M163.47,248.38a5.57,5.57,0,0,1-4.26-1.45,5.65,5.65,0,0,1-1.34-4v-8.84h3V243a3.31,3.31,0,0,0,.64,2.1,2.73,2.73,0,0,0,3.92,0,3.31,3.31,0,0,0,.64-2.1v-8.87h3v8.84a5.65,5.65,0,0,1-1.34,4A5.57,5.57,0,0,1,163.47,248.38Z"/><path class="cls-2" d="M174.27,234.09h5.22a8.36,8.36,0,0,1,2.88.47,5.66,5.66,0,0,1,3.51,3.55,9.71,9.71,0,0,1,0,6,5.73,5.73,0,0,1-3.51,3.55,8.37,8.37,0,0,1-2.88.46h-5.22Zm9,7a7,7,0,0,0-.23-1.84,4.11,4.11,0,0,0-.7-1.44,3.21,3.21,0,0,0-1.19-.92,4.26,4.26,0,0,0-1.72-.31h-2.12v9h2.12a4.26,4.26,0,0,0,1.72-.31,3.21,3.21,0,0,0,1.19-.92,4.11,4.11,0,0,0,.7-1.44A7,7,0,0,0,183.25,241.09Z"/><path class="cls-2" d="M191.05,248.09v-14h9.54v2.49H194v3.07h6.12v2.48H194v3.48h6.68v2.48Z"/><path class="cls-2" d="M205.33,234.09h3.12c.81,1.33,1.59,2.58,2.32,3.76l1.08,1.75.84,1.37.8,1.29c.25.41.47.75.64,1h.06v-9.21H217v14h-3.12c-.8-1.29-1.56-2.52-2.28-3.7l-1.07-1.72c-.29-.46-.57-.92-.85-1.38s-.55-.91-.81-1.32l-.67-1.08h-.06v9.2h-2.84Z"/><path class="cls-2" d="M221.25,234.09h11.1v2.5h-4v11.5h-3v-11.5h-4Z"/></g><g id="LINE_TWO" data-name="LINE TWO"><path class="cls-2" d="M90.37,265.88v-14h9.54v2.48H93.33v3.08h6.12v2.48H93.33v3.48H100v2.48Z"/><path class="cls-2" d="M110.81,265.88c-.2-.54-.45-1.26-.75-2.15s-.61-1.81-.93-2.77-.63-1.9-.93-2.82-.54-1.69-.73-2.32h-.06v10.06h-2.76v-14h4.2l1.56,4.7q.42,1.29.69,2.07c.18.53.35,1,.5,1.51s.29.92.42,1.3.22.67.27.84l.26-.84c.12-.38.26-.84.43-1.37s.35-1.09.54-1.7.39-1.21.59-1.81q.67-2.13,1.5-4.7h4.18v14H117V255.82H117c-.13.42-.29.91-.48,1.49s-.39,1.2-.61,1.85-.44,1.32-.67,2l-.64,1.92c-.2.61-.38,1.16-.55,1.65s-.3.88-.41,1.16Z"/><path class="cls-2" d="M128.05,261v4.92h-3v-14h5.32a9.4,9.4,0,0,1,2.28.26,5,5,0,0,1,1.74.8,3.7,3.7,0,0,1,1.12,1.38,4.64,4.64,0,0,1,.4,2,4.87,4.87,0,0,1-.41,2.07,3.85,3.85,0,0,1-1.14,1.44,4.83,4.83,0,0,1-1.75.84,8.76,8.76,0,0,1-2.24.27Zm4.82-4.62a1.68,1.68,0,0,0-.69-1.56,4.11,4.11,0,0,0-2.09-.42h-2v4.12h2a3.52,3.52,0,0,0,2.09-.5A1.88,1.88,0,0,0,132.87,256.34Z"/><path class="cls-2" d="M139.75,258.88a8.83,8.83,0,0,1,.49-3,6.64,6.64,0,0,1,1.38-2.29,6.07,6.07,0,0,1,2.15-1.44,8.09,8.09,0,0,1,5.6,0,6.07,6.07,0,0,1,2.15,1.44,6.64,6.64,0,0,1,1.38,2.29,9.74,9.74,0,0,1,0,6.1,6.55,6.55,0,0,1-1.38,2.29,5.82,5.82,0,0,1-2.15,1.44,8.09,8.09,0,0,1-5.6,0,5.82,5.82,0,0,1-2.15-1.44,6.55,6.55,0,0,1-1.38-2.29A8.79,8.79,0,0,1,139.75,258.88Zm3.1,0a7.9,7.9,0,0,0,.23,1.95,4.33,4.33,0,0,0,.69,1.52,3.14,3.14,0,0,0,1.16,1,4,4,0,0,0,3.28,0,3.14,3.14,0,0,0,1.16-1,4.33,4.33,0,0,0,.69-1.52,8.38,8.38,0,0,0,0-3.9,4.33,4.33,0,0,0-.69-1.52,3.24,3.24,0,0,0-1.16-1,4,4,0,0,0-3.28,0,3.24,3.24,0,0,0-1.16,1,4.33,4.33,0,0,0-.69,1.52A8,8,0,0,0,142.85,258.88Z"/><path class="cls-2" d="M175.05,251.88l-3.5,14h-3.48c-.29-1.29-.57-2.52-.84-3.7l-.4-1.74c-.11-.46-.21-.93-.31-1.4s-.2-.91-.3-1.34-.18-.79-.25-1.1h-.06q-.1.47-.24,1.11c-.09.44-.2.9-.32,1.39s-.24,1-.36,1.53-.24,1-.36,1.55c-.28,1.18-.58,2.41-.9,3.7h-3.48l-3.52-14h3c.35,1.5.67,2.92,1,4.26.17.8.32,1.46.44,2s.23,1,.34,1.56.21,1,.31,1.48.18.86.23,1.18h.06c.07-.32.15-.71.25-1.19s.21-1,.34-1.53.26-1.12.4-1.72.28-1.18.41-1.76l1-4.26h2.82l1,4.26c.19.8.34,1.46.47,2s.25,1,.37,1.56.23,1,.33,1.48.18.86.25,1.18h.06c.07-.32.15-.71.25-1.19l.33-1.53c.12-.54.25-1.12.38-1.72s.27-1.18.4-1.76c.32-1.34.65-2.76,1-4.26Z"/><path class="cls-2" d="M179.17,265.88v-14h9.54v2.48h-6.58v3.08h6.12v2.48h-6.12v3.48h6.68v2.48Z"/><path class="cls-2" d="M203.93,256.14a4.24,4.24,0,0,1-.71,2.54,4.14,4.14,0,0,1-1.95,1.46l3.22,5.74h-3.3l-2.9-5.3h-1.86v5.3h-3v-14h5.12a9.39,9.39,0,0,1,2.21.25,5,5,0,0,1,1.69.77,3.46,3.46,0,0,1,1.08,1.32A4.53,4.53,0,0,1,203.93,256.14Zm-3.08,0a1.51,1.51,0,0,0-.65-1.41,3.91,3.91,0,0,0-2-.39h-1.8v3.78h1.8a3.48,3.48,0,0,0,2-.45A1.74,1.74,0,0,0,200.85,256.16Z"/><path class="cls-2" d="M215.13,265.88c-.2-.54-.45-1.26-.75-2.15s-.61-1.81-.93-2.77-.63-1.9-.93-2.82-.54-1.69-.73-2.32h-.06v10.06H209v-14h4.2l1.56,4.7q.42,1.29.69,2.07c.18.53.35,1,.5,1.51s.29.92.42,1.3.22.67.27.84l.26-.84c.12-.38.26-.84.43-1.37s.34-1.09.54-1.7.39-1.21.59-1.81q.67-2.13,1.5-4.7h4.18v14h-2.76V255.82h-.06c-.13.42-.29.91-.48,1.49s-.39,1.2-.61,1.85-.44,1.32-.67,2l-.64,1.92c-.2.61-.38,1.16-.55,1.65s-.3.88-.41,1.16Z"/><path class="cls-2" d="M229.39,265.88v-14h9.54v2.48h-6.58v3.08h6.12v2.48h-6.12v3.48H239v2.48Z"/><path class="cls-2" d="M243.67,251.88h3.12c.81,1.32,1.58,2.58,2.32,3.76l1.08,1.75.84,1.37c.28.46.54.89.8,1.29l.64,1h.06v-9.2h2.84v14h-3.12c-.8-1.29-1.56-2.52-2.28-3.7l-1.07-1.73c-.29-.46-.57-.92-.85-1.38l-.81-1.32c-.26-.42-.49-.77-.67-1.07h-.06v9.2h-2.84Z"/><path class="cls-2" d="M259.59,251.88h11.1v2.5h-4v11.5h-3v-11.5h-4Z"/></g><g id="ICON"><path class="cls-3" d="M180.72,90.27c29.82.08,53.79,24.44,53.7,54.56-.09,29.51-24.56,53.52-54.49,53.44-29.7-.08-53.62-24.55-53.51-54.76C126.53,114.21,151,90.19,180.72,90.27Zm17,26.19c8.88-1.82,14,2.31,14,11.11q0,19.37,0,38.73c0,4.76-1.51,9.23-5.47,11.73-3.72,2.35-3,5.14-3,8.49,17-8.36,30.15-30.36,24-54.44-5.71-22.38-27.48-37.9-50.58-36.07a48.76,48.76,0,0,0-44.49,44.5c-1.77,22.47,13,40.92,25.2,45.59,1.38-4.49-.09-8-3.89-10.67A31.09,31.09,0,0,1,150.9,173a13.38,13.38,0,0,1-4.61-10.69c.12-5.44,0-10.89.07-16.34,0-1.86,0-4,1-5.5,2.18-3.51,1.8-7.24,1.83-11,0-2.36-.11-4.74.05-7.1a9.92,9.92,0,0,1,12.23-9c.78.19,1.56.41,2.26.59,4.87-7.37,9.45-8.4,16.74-3.92C188.55,105,194.36,107.07,197.69,116.46Zm-17.1,56.09c-1-7.64-5-12.22-12.29-14.05-6.66-1.67-8.26-4.11-7.79-10.8.17-2.35,1.27-3.44,3.58-3.42,2.73,0,5.45-.05,8.17,0,2.88.07,4.91-1,5.27-4,.3-2.5-2-4.44-5.24-4.51-3.44-.07-6.88-.08-10.31,0-5.87.15-9.89,4.27-10,10.22-.08,4.74.2,9.49-.09,14.21-.24,4.13.82,7.49,4.21,9.92,5.75,4.13,8.62,9.47,7.22,16.67-.44,2.25.82,3,2.74,3.64a50.73,50.73,0,0,0,26.62.67c3.74-.86,5.52-2.46,4.83-6.41-.24-1.38.07-2.85-.06-4.26-.23-2.52.84-3.84,3-5.37,2.3-1.66,4.91-4.43,5.23-7,.75-6.13.24-12.42.24-17.65l-12.27-2.51a9.36,9.36,0,0,1-12,.2l-15.28,2.51a11.23,11.23,0,0,0,4.95,2.87c8.86,2.55,15.3,10.95,14.41,19.08Zm11.21-43.94V118c0-2.9-1.28-4.94-4.29-4.93s-4.26,2.07-4.26,5q0,10.6,0,21.22c0,2.91,1.28,5,4.29,4.93s4.28-2.06,4.27-5C191.79,135.69,191.8,132.15,191.8,128.61Zm14.2,4.23c0-2.35.12-4.72,0-7.06-.16-2.58-1.65-4.25-4.28-4.2s-4.13,1.68-4.18,4.3c-.1,4.71-.11,9.42,0,14.13a4,4,0,0,0,4.27,4.2c2.63,0,4.06-1.71,4.19-4.3C206.1,137.56,206,135.2,206,132.84Zm-36.94-3,8.51.78c0-4.67.11-9,0-13.39a4,4,0,0,0-4.33-4.16,3.92,3.92,0,0,0-4.1,4C168.94,121.29,169.06,125.52,169.06,129.82Zm-5.71-.17c0-2.31.16-4.67,0-7a4.21,4.21,0,0,0-8.4,0c-.21,2.87-.05,5.76-.05,8.62Z"/><path class="cls-1" d="M197.69,116.46c-3.33-9.39-9.14-11.5-17.25-6.46-7.29-4.48-11.87-3.45-16.74,3.92-.7-.18-1.48-.4-2.26-.59a9.92,9.92,0,0,0-12.23,9c-.16,2.36,0,4.74-.05,7.1,0,3.75.35,7.48-1.83,11-.92,1.47-.93,3.64-1,5.5-.11,5.45,0,10.9-.07,16.34A13.38,13.38,0,0,0,150.9,173a31.09,31.09,0,0,0,2.58,2.44c3.8,2.68,5.27,6.18,3.89,10.67-12.21-4.67-27-23.12-25.2-45.59A48.76,48.76,0,0,1,176.66,96c23.1-1.83,44.87,13.69,50.58,36.07,6.14,24.08-7,46.08-24,54.44,0-3.35-.75-6.14,3-8.49,4-2.5,5.47-7,5.47-11.73q0-19.37,0-38.73C211.66,118.77,206.57,114.64,197.69,116.46Z"/><path class="cls-1" d="M180.59,172.55h5.13c.89-8.13-5.55-16.53-14.41-19.08a11.23,11.23,0,0,1-4.95-2.87l15.28-2.51a9.36,9.36,0,0,0,12-.2l12.27,2.51c0,5.23.51,11.52-.24,17.65-.32,2.56-2.93,5.33-5.23,7-2.13,1.53-3.2,2.85-3,5.37.13,1.41-.18,2.88.06,4.26.69,4-1.09,5.55-4.83,6.41a50.73,50.73,0,0,1-26.62-.67c-1.92-.59-3.18-1.39-2.74-3.64,1.4-7.2-1.47-12.54-7.22-16.67-3.39-2.43-4.45-5.79-4.21-9.92.29-4.72,0-9.47.09-14.21.09-5.95,4.11-10.07,10-10.22,3.43-.09,6.87-.08,10.31,0,3.23.07,5.54,2,5.24,4.51-.36,3-2.39,4.11-5.27,4-2.72-.06-5.44,0-8.17,0-2.31,0-3.41,1.07-3.58,3.42-.47,6.69,1.13,9.13,7.79,10.8C175.6,160.33,179.63,164.91,180.59,172.55Z"/><path class="cls-1" d="M191.8,128.61c0,3.54,0,7.08,0,10.62,0,2.9-1.27,4.94-4.27,5s-4.29-2-4.29-4.93q0-10.6,0-21.22c0-2.9,1.24-5,4.26-5s4.3,2,4.29,4.93Z"/><path class="cls-1" d="M206,132.84c0,2.36.1,4.72,0,7.07-.13,2.59-1.56,4.27-4.19,4.3a4,4,0,0,1-4.27-4.2c-.12-4.71-.11-9.42,0-14.13.05-2.62,1.57-4.25,4.18-4.3s4.12,1.62,4.28,4.2C206.12,128.12,206,130.49,206,132.84Z"/><path class="cls-1" d="M169.06,129.82c0-4.3-.12-8.53,0-12.74a3.92,3.92,0,0,1,4.1-4,4,4,0,0,1,4.33,4.16c.15,4.35,0,8.72,0,13.39Z"/><path class="cls-1" d="M163.35,129.65l-8.5,1.61c0-2.86-.16-5.75.05-8.62a4.21,4.21,0,0,1,8.4,0C163.51,125,163.35,127.34,163.35,129.65Z"/></g></svg>