<?xml version="1.0" encoding="utf-8"?>
<!-- Generator: Adobe Illustrator 23.1.0, SVG Export Plug-In . SVG Version: 6.00 Build 0)  -->
<svg version="1.1" xmlns="http://www.w3.org/2000/svg" xmlns:xlink="http://www.w3.org/1999/xlink" x="0px" y="0px"
	 viewBox="0 0 360 360" enable-background="new 0 0 360 360" xml:space="preserve">
<g id="BACKGROUND">
	<rect x="0" y="0" width="360" height="360"/>
</g>
<g id="REF" display="none">
	
		<rect x="-360" y="90.27" display="inline" fill="none" stroke="#000000" stroke-width="0.25" stroke-miterlimit="10" width="360" height="108"/>
	
		<rect y="90.27" display="inline" fill="none" stroke="#FFFFFF" stroke-width="0.25" stroke-miterlimit="10" width="360" height="108"/>
	
		<line display="inline" fill="none" stroke="#FFFFFF" stroke-width="0.25" stroke-linecap="round" stroke-miterlimit="10" x1="180" y1="0.21" x2="180" y2="360.08"/>
</g>
<g id="LINE_ONE">
	<g>
		<path fill="#FFFFFF" d="M142,248.16h-3.1l-1.12-3.24h-5.02l-1.12,3.24h-2.94l5.04-14h3.22L142,248.16z M135.24,237.44
			c-0.03,0.11-0.07,0.26-0.14,0.47c-0.07,0.21-0.14,0.44-0.22,0.7s-0.17,0.54-0.27,0.84c-0.1,0.3-0.2,0.59-0.29,0.87
			c-0.23,0.69-0.47,1.43-0.74,2.22h3.38c-0.27-0.79-0.51-1.53-0.74-2.22c-0.15-0.4-0.26-0.73-0.35-0.99s-0.17-0.51-0.24-0.75
			s-0.14-0.46-0.21-0.67s-0.11-0.36-0.14-0.47H135.24z"/>
		<path fill="#FFFFFF" d="M143.48,234.16h11.1v2.5h-4.04v11.5h-3.02v-11.5h-4.04V234.16z"/>
		<path fill="#FFFFFF" d="M158.14,234.16h11.1v2.5h-4.04v11.5h-3.02v-11.5h-4.04V234.16z"/>
		<path fill="#FFFFFF" d="M183.94,238.42c0,1.04-0.24,1.89-0.71,2.54s-1.12,1.14-1.95,1.46l3.22,5.74h-3.3l-2.9-5.3h-1.86v5.3h-2.98
			v-14h5.12c0.81,0,1.55,0.08,2.21,0.25s1.22,0.42,1.69,0.77c0.47,0.35,0.83,0.79,1.08,1.32
			C183.81,237.03,183.94,237.67,183.94,238.42z M180.86,238.44c0-0.68-0.22-1.15-0.65-1.41s-1.09-0.39-1.97-0.39h-1.8v3.78h1.8
			c0.88,0,1.54-0.15,1.97-0.45C180.64,239.67,180.86,239.16,180.86,238.44z"/>
		<path fill="#FFFFFF" d="M201.14,248.16h-3.1l-1.12-3.24h-5.02l-1.12,3.24h-2.94l5.04-14h3.22L201.14,248.16z M194.38,237.44
			c-0.03,0.11-0.07,0.26-0.14,0.47c-0.07,0.21-0.14,0.44-0.22,0.7c-0.08,0.26-0.17,0.54-0.27,0.84s-0.2,0.59-0.29,0.87
			c-0.23,0.69-0.47,1.43-0.74,2.22h3.38c-0.27-0.79-0.51-1.53-0.74-2.22c-0.15-0.4-0.26-0.73-0.35-0.99s-0.17-0.51-0.24-0.75
			c-0.07-0.24-0.14-0.46-0.21-0.67c-0.07-0.21-0.11-0.36-0.14-0.47H194.38z"/>
		<path fill="#FFFFFF" d="M204,241.16c0-1.15,0.16-2.17,0.48-3.07c0.32-0.9,0.78-1.66,1.37-2.29c0.59-0.63,1.31-1.1,2.16-1.43
			c0.85-0.33,1.8-0.49,2.85-0.49c1.49,0,2.75,0.33,3.76,0.98c1.01,0.65,1.73,1.65,2.16,2.98l-2.92,1.02
			c-0.24-0.79-0.6-1.4-1.08-1.83c-0.48-0.43-1.14-0.65-1.98-0.65c-0.61,0-1.15,0.12-1.62,0.36s-0.85,0.57-1.16,0.99
			s-0.54,0.92-0.69,1.51c-0.15,0.59-0.23,1.23-0.23,1.92s0.08,1.33,0.23,1.91c0.15,0.58,0.38,1.08,0.69,1.51s0.69,0.76,1.16,1
			s1.01,0.36,1.64,0.36c0.77,0,1.4-0.19,1.89-0.58c0.49-0.39,0.86-0.97,1.11-1.76l2.88,1.02c-0.47,1.19-1.19,2.12-2.16,2.8
			c-0.97,0.68-2.23,1.02-3.76,1.02c-1.03,0-1.96-0.16-2.79-0.49c-0.83-0.33-1.55-0.8-2.14-1.42c-0.59-0.62-1.05-1.38-1.37-2.29
			C204.16,243.33,204,242.31,204,241.16z"/>
		<path fill="#FFFFFF" d="M220.12,234.16h11.1v2.5h-4.04v11.5h-3.02v-11.5h-4.04V234.16z"/>
	</g>
</g>
<g id="LINE_TWO">
	<g>
		<path fill="#FFFFFF" d="M137.68,255.95h11.1v2.5h-4.04v11.5h-3.02v-11.5h-4.04V255.95z"/>
		<path fill="#FFFFFF" d="M163.56,269.95h-3.1l-1.12-3.24h-5.02l-1.12,3.24h-2.94l5.04-14h3.22L163.56,269.95z M156.8,259.23
			c-0.03,0.11-0.07,0.26-0.14,0.47s-0.14,0.44-0.22,0.7s-0.17,0.54-0.27,0.84c-0.1,0.3-0.2,0.59-0.29,0.87
			c-0.23,0.69-0.47,1.43-0.74,2.22h3.38c-0.27-0.79-0.51-1.53-0.74-2.22c-0.15-0.4-0.26-0.73-0.35-0.99
			c-0.09-0.26-0.17-0.51-0.24-0.75s-0.14-0.46-0.21-0.67c-0.07-0.21-0.11-0.36-0.14-0.47H156.8z"/>
		<path fill="#FFFFFF" d="M167.7,255.95h3v11.5h6.12v2.5h-9.12V255.95z"/>
		<path fill="#FFFFFF" d="M181.02,269.95v-14h9.54v2.48h-6.58v3.08h6.12v2.48h-6.12v3.48h6.68v2.48H181.02z"/>
		<path fill="#FFFFFF" d="M195.3,255.95h3.12c0.81,1.32,1.59,2.57,2.32,3.76c0.44,0.71,0.8,1.29,1.08,1.75s0.56,0.92,0.84,1.37
			s0.55,0.88,0.8,1.29c0.25,0.41,0.47,0.75,0.64,1.03h0.06v-9.2H207v14h-3.12c-0.8-1.29-1.56-2.53-2.28-3.7
			c-0.43-0.69-0.78-1.27-1.07-1.73s-0.57-0.92-0.85-1.38c-0.28-0.46-0.55-0.9-0.81-1.32s-0.48-0.78-0.67-1.07h-0.06v9.2h-2.84
			V255.95z"/>
		<path fill="#FFFFFF" d="M211.22,255.95h11.1v2.5h-4.04v11.5h-3.02v-11.5h-4.04V255.95z"/>
	</g>
</g>
<g id="ICON">
	<g>
		<g>
			<path fill="none" stroke="#FFFFFF" stroke-miterlimit="10" d="M204.98,155.28c0,5.5-4.5,10.01-10.01,10.01h-31.31
				c-5.5,0-10.01-4.5-10.01-10.01v-18.99c0-5.5,4.5-10.01,10.01-10.01h31.31c5.5,0,10.01,4.5,10.01,10.01V155.28z"/>
		</g>
		<circle fill="none" stroke="#FFFFFF" stroke-width="3" stroke-miterlimit="10" cx="179.24" cy="145.55" r="39.02"/>
		<polygon stroke="#FFFFFF" stroke-miterlimit="10" points="173.28,160.2 171.97,160.96 171.1,161.89 170.94,162.29 170.94,165.29 
			160.3,165.29 160.3,169.39 160.74,170.13 161.23,170.62 161.64,171.13 161.83,171.38 161.83,173.72 170.67,173.72 170.67,172.79 
			171.32,172.11 172.38,171.32 173.74,170.18 174.18,169.42 174.39,168.71 174.39,160.2 174.39,159.93 173.9,159.93 		"/>
		<rect x="160.55" y="173.72" stroke="#FFFFFF" stroke-width="2" stroke-miterlimit="10" width="11.91" height="25.98"/>
		<polygon stroke="#FFFFFF" stroke-miterlimit="10" points="185.41,160.2 186.72,160.96 187.59,161.89 187.75,162.29 187.75,165.29 
			198.38,165.29 198.38,169.39 197.95,170.13 197.46,170.62 197.05,171.13 196.86,171.38 196.86,173.72 188.02,173.72 
			188.02,172.79 187.37,172.11 186.31,171.32 184.95,170.18 184.51,169.42 184.29,168.71 184.29,160.2 184.29,159.93 184.78,159.93 
					"/>
		
			<rect x="186.23" y="173.72" transform="matrix(-1 -4.443080e-11 4.443080e-11 -1 384.3659 373.4129)" stroke="#FFFFFF" stroke-width="2" stroke-miterlimit="10" width="11.91" height="25.98"/>
		<g>
			<path fill="#FFFFFF" d="M170.85,132.87h1.18l-1.13,11.33h-1.49l-1.49-9.31l-1.33,9.31h-1.55l-1.41-11.33h1.31l0.92,9.32
				l1.41-9.32h1.28l1.57,9.32L170.85,132.87z"/>
			<path fill="#FFFFFF" d="M173.81,132.87h3.77v1.2h-2.46v3.9h2.22v1.2h-2.22V143h2.46v1.2h-3.77V132.87z"/>
			<path fill="#FFFFFF" d="M179.59,132.7h1.31l-0.99,3.4h-0.81L179.59,132.7z"/>
			<path fill="#FFFFFF" d="M185.04,139.13h-1.15v5.07h-1.31v-11.33h2.41c0.36,0,0.68,0.05,0.98,0.14s0.55,0.25,0.76,0.49
				c0.21,0.23,0.37,0.55,0.49,0.95s0.17,0.91,0.17,1.52c0,0.7-0.09,1.3-0.27,1.79s-0.46,0.86-0.85,1.09l1.38,5.36h-1.39
				L185.04,139.13z M183.89,138h1.15c0.39,0,0.65-0.16,0.79-0.49c0.13-0.32,0.2-0.84,0.2-1.55c0-0.38-0.02-0.69-0.06-0.95
				c-0.04-0.25-0.1-0.46-0.2-0.61c-0.1-0.15-0.22-0.26-0.38-0.32c-0.16-0.06-0.35-0.09-0.59-0.09h-0.91V138z"/>
			<path fill="#FFFFFF" d="M189.41,132.87h3.77v1.2h-2.46v3.9h2.22v1.2h-2.22V143h2.46v1.2h-3.77V132.87z"/>
		</g>
		<g>
			<path fill="#FFFFFF" d="M164.33,152.42h-2.4v5.07h-1.31v-11.33h1.31v5.07h2.4v-5.07h1.31v11.33h-1.31V152.42z"/>
			<path fill="#FFFFFF" d="M168.01,146.15h1.31v11.33h-1.31V146.15z"/>
			<path fill="#FFFFFF" d="M174.14,152.42h-1.15v5.07h-1.31v-11.33h2.41c0.36,0,0.68,0.05,0.98,0.14s0.55,0.25,0.76,0.49
				c0.21,0.23,0.37,0.55,0.49,0.95s0.17,0.91,0.17,1.52c0,0.7-0.09,1.3-0.27,1.79s-0.46,0.86-0.85,1.09l1.38,5.36h-1.39
				L174.14,152.42z M172.99,151.28h1.15c0.39,0,0.65-0.16,0.79-0.49c0.13-0.32,0.2-0.84,0.2-1.55c0-0.38-0.02-0.69-0.06-0.95
				c-0.04-0.25-0.1-0.46-0.2-0.61c-0.1-0.15-0.22-0.26-0.38-0.32c-0.16-0.06-0.35-0.09-0.59-0.09h-0.91V151.28z"/>
			<path fill="#FFFFFF" d="M178.51,146.15h1.31v11.33h-1.31V146.15z"/>
			<path fill="#FFFFFF" d="M183.48,146.15l2.69,8.67c-0.06-0.88-0.1-1.63-0.1-2.25v-6.43h1.18v11.33h-1.21l-2.77-8.71
				c0.01,0.15,0.02,0.33,0.04,0.54c0.02,0.21,0.03,0.43,0.04,0.65c0.01,0.22,0.02,0.43,0.02,0.63c0,0.2,0.01,0.35,0.01,0.46v6.42
				h-1.2v-11.33H183.48z"/>
			<path fill="#FFFFFF" d="M194.47,152.24v5.24h-0.89l-0.24-0.96c-0.18,0.43-0.42,0.73-0.7,0.88c-0.28,0.16-0.55,0.24-0.81,0.24
				c-0.31,0-0.62-0.07-0.93-0.19c-0.31-0.13-0.59-0.4-0.84-0.81c-0.25-0.41-0.46-1-0.62-1.76c-0.16-0.77-0.23-1.79-0.23-3.06
				c0-1.2,0.08-2.17,0.23-2.93c0.15-0.75,0.36-1.35,0.62-1.77c0.26-0.43,0.56-0.72,0.91-0.88c0.34-0.16,0.71-0.24,1.1-0.24
				c0.36,0,0.68,0.06,0.99,0.19c0.3,0.13,0.56,0.35,0.79,0.67c0.22,0.32,0.39,0.75,0.51,1.28c0.12,0.53,0.18,1.2,0.18,2h-1.42
				c0-1.01-0.08-1.75-0.24-2.22s-0.42-0.7-0.8-0.7c-0.22,0-0.41,0.06-0.59,0.19s-0.33,0.37-0.45,0.71
				c-0.12,0.35-0.22,0.82-0.28,1.41c-0.06,0.59-0.1,1.35-0.1,2.28c0,0.95,0.03,1.72,0.1,2.32s0.16,1.07,0.28,1.4
				c0.11,0.33,0.25,0.56,0.4,0.69s0.33,0.19,0.51,0.19c0.17,0,0.34-0.05,0.49-0.15c0.16-0.1,0.29-0.26,0.4-0.49
				c0.11-0.23,0.2-0.54,0.27-0.92c0.06-0.38,0.1-0.85,0.1-1.42h-1.15v-1.2H194.47z"/>
			<path fill="#FFFFFF" d="M196.52,146.15h1.39l-0.24,8.4h-0.91L196.52,146.15z M196.6,155.9h1.23v1.59h-1.23V155.9z"/>
		</g>
		
			<line fill="none" stroke="#FFFFFF" stroke-width="2" stroke-linecap="round" stroke-miterlimit="10" x1="184.97" y1="101.19" x2="186.32" y2="88.84"/>
		
			<line fill="none" stroke="#FFFFFF" stroke-width="2" stroke-linecap="round" stroke-miterlimit="10" x1="197.19" y1="104.33" x2="201.69" y2="92.76"/>
		
			<line fill="none" stroke="#FFFFFF" stroke-width="2" stroke-linecap="round" stroke-miterlimit="10" x1="207.49" y1="110.35" x2="214.95" y2="100.43"/>
		
			<line fill="none" stroke="#FFFFFF" stroke-width="2" stroke-linecap="round" stroke-miterlimit="10" x1="215.27" y1="118.67" x2="224.91" y2="110.85"/>
		
			<line fill="none" stroke="#FFFFFF" stroke-width="2" stroke-linecap="round" stroke-miterlimit="10" x1="221.17" y1="129.32" x2="232.61" y2="124.49"/>
		
			<line fill="none" stroke="#FFFFFF" stroke-width="2" stroke-linecap="round" stroke-miterlimit="10" x1="223.71" y1="140.47" x2="236.09" y2="139.49"/>
		
			<line fill="none" stroke="#FFFFFF" stroke-width="2" stroke-linecap="round" stroke-miterlimit="10" x1="223.24" y1="152.17" x2="235.52" y2="153.99"/>
		
			<line fill="none" stroke="#FFFFFF" stroke-width="2" stroke-linecap="round" stroke-miterlimit="10" x1="220.5" y1="163.57" x2="231.83" y2="168.66"/>
		
			<line fill="none" stroke="#FFFFFF" stroke-width="2" stroke-linecap="round" stroke-miterlimit="10" x1="214.3" y1="173.27" x2="224.12" y2="180.87"/>
		
			<line fill="none" stroke="#FFFFFF" stroke-width="2" stroke-linecap="round" stroke-miterlimit="10" x1="206.41" y1="181.83" x2="214.09" y2="191.59"/>
		
			<line fill="none" stroke="#FFFFFF" stroke-width="2" stroke-linecap="round" stroke-miterlimit="10" x1="175.03" y1="101.21" x2="173.68" y2="88.87"/>
		
			<line fill="none" stroke="#FFFFFF" stroke-width="2" stroke-linecap="round" stroke-miterlimit="10" x1="162.81" y1="104.36" x2="158.31" y2="92.78"/>
		
			<line fill="none" stroke="#FFFFFF" stroke-width="2" stroke-linecap="round" stroke-miterlimit="10" x1="152.51" y1="110.38" x2="145.05" y2="100.46"/>
		
			<line fill="none" stroke="#FFFFFF" stroke-width="2" stroke-linecap="round" stroke-miterlimit="10" x1="144.73" y1="118.69" x2="135.09" y2="110.87"/>
		
			<line fill="none" stroke="#FFFFFF" stroke-width="2" stroke-linecap="round" stroke-miterlimit="10" x1="138.83" y1="129.35" x2="127.39" y2="124.52"/>
		
			<line fill="none" stroke="#FFFFFF" stroke-width="2" stroke-linecap="round" stroke-miterlimit="10" x1="136.29" y1="140.5" x2="123.91" y2="139.51"/>
		
			<line fill="none" stroke="#FFFFFF" stroke-width="2" stroke-linecap="round" stroke-miterlimit="10" x1="136.76" y1="152.2" x2="124.48" y2="154.02"/>
		
			<line fill="none" stroke="#FFFFFF" stroke-width="2" stroke-linecap="round" stroke-miterlimit="10" x1="139.5" y1="163.6" x2="128.17" y2="168.69"/>
		
			<line fill="none" stroke="#FFFFFF" stroke-width="2" stroke-linecap="round" stroke-miterlimit="10" x1="145.7" y1="173.29" x2="135.88" y2="180.89"/>
		
			<line fill="none" stroke="#FFFFFF" stroke-width="2" stroke-linecap="round" stroke-miterlimit="10" x1="153.59" y1="181.85" x2="145.91" y2="191.61"/>
	</g>
</g>
</svg>
