<svg xmlns="http://www.w3.org/2000/svg" viewBox="0 0 360 360"><defs><style>.cls-1{fill:#231f20;}.cls-2{fill:#fff;}.cls-3{fill:none;stroke:#fff;stroke-miterlimit:10;stroke-width:3px;}</style></defs><title>CARD</title><g id="BACKGROUND"><rect class="cls-1" width="360" height="360"/></g><g id="LINE_ONE" data-name="LINE ONE"><path class="cls-2" d="M84,234.16h3v14H84Z"/><path class="cls-2" d="M92.32,234.16h3.12l2.32,3.76c.44.7.8,1.29,1.08,1.75l.84,1.37.8,1.29.64,1h.06v-9.2H104v14H100.9l-2.28-3.7-1.07-1.73c-.29-.46-.57-.92-.85-1.38L95.89,240c-.26-.42-.48-.78-.67-1.07h-.06v9.2H92.32Z"/><path class="cls-2" d="M108.24,234.16h11.1v2.5h-4v11.5h-3v-11.5h-4Z"/><path class="cls-2" d="M123.56,248.16v-14h9.54v2.48h-6.58v3.08h6.12v2.48h-6.12v3.48h6.68v2.48Z"/><path class="cls-2" d="M143.56,240.4H150v7.76h-2.72v-1.44a3.69,3.69,0,0,1-1.36,1.22,4.83,4.83,0,0,1-2.34.5,6.29,6.29,0,0,1-2.75-.57,5.72,5.72,0,0,1-2-1.55,6.79,6.79,0,0,1-1.19-2.3,9.56,9.56,0,0,1-.4-2.82,9,9,0,0,1,.47-3,6.36,6.36,0,0,1,1.37-2.31,6.18,6.18,0,0,1,2.19-1.51,7.54,7.54,0,0,1,2.93-.54,6.74,6.74,0,0,1,3.62.93,5.7,5.7,0,0,1,2.26,2.75l-2.78,1.14A3.54,3.54,0,0,0,146.1,237a3.24,3.24,0,0,0-2-.61,3.35,3.35,0,0,0-2.72,1.25,5.72,5.72,0,0,0-1,3.69q0,4.68,3.7,4.68a4,4,0,0,0,1.08-.15,3.45,3.45,0,0,0,1-.46,2.51,2.51,0,0,0,.73-.79,2.24,2.24,0,0,0,.28-1.16v-.64h-3.58Z"/><path class="cls-2" d="M165.7,238.42A4.26,4.26,0,0,1,165,241a4.21,4.21,0,0,1-2,1.46l3.22,5.74H163l-2.9-5.3H158.2v5.3h-3v-14h5.12a8.89,8.89,0,0,1,2.21.25,4.61,4.61,0,0,1,1.69.77,3.39,3.39,0,0,1,1.08,1.32A4.47,4.47,0,0,1,165.7,238.42Zm-3.08,0A1.51,1.51,0,0,0,162,237a3.91,3.91,0,0,0-2-.39h-1.8v3.78H160a3.48,3.48,0,0,0,2-.45A1.74,1.74,0,0,0,162.62,238.44Z"/><path class="cls-2" d="M182.9,248.16h-3.1l-1.12-3.24h-5l-1.12,3.24H169.6l5-14h3.22Zm-6.76-10.72c0,.1-.07.26-.14.47s-.14.44-.22.7-.17.54-.27.84l-.29.87c-.23.69-.47,1.43-.74,2.22h3.38c-.27-.79-.51-1.53-.74-2.22-.15-.4-.26-.73-.35-1s-.17-.51-.24-.75-.14-.47-.21-.67-.11-.37-.14-.47Z"/><path class="cls-2" d="M184.38,234.16h11.1v2.5h-4v11.5h-3v-11.5h-4Z"/><path class="cls-2" d="M199.7,234.16h3v14h-3Z"/><path class="cls-2" d="M207.4,241.16a8.83,8.83,0,0,1,.49-3,6.27,6.27,0,0,1,1.38-2.29,5.82,5.82,0,0,1,2.15-1.44,8.09,8.09,0,0,1,5.6,0,5.9,5.9,0,0,1,2.15,1.44,6.55,6.55,0,0,1,1.38,2.29,9.74,9.74,0,0,1,0,6.1,6.64,6.64,0,0,1-1.38,2.29,6,6,0,0,1-2.15,1.44,8.09,8.09,0,0,1-5.6,0,5.94,5.94,0,0,1-2.15-1.44,6.35,6.35,0,0,1-1.38-2.29A8.83,8.83,0,0,1,207.4,241.16Zm3.1,0a7.56,7.56,0,0,0,.23,2,4.33,4.33,0,0,0,.69,1.52,3.16,3.16,0,0,0,1.16,1,3.64,3.64,0,0,0,1.64.35,3.7,3.7,0,0,0,1.64-.35,3.32,3.32,0,0,0,1.16-1,4.73,4.73,0,0,0,.69-1.52,8,8,0,0,0,.23-2,7.9,7.9,0,0,0-.23-1.95,4.63,4.63,0,0,0-.69-1.52,3.22,3.22,0,0,0-1.16-1,3.57,3.57,0,0,0-1.64-.35,3.51,3.51,0,0,0-1.64.35,3.06,3.06,0,0,0-1.16,1,4.25,4.25,0,0,0-.69,1.52A7.45,7.45,0,0,0,210.5,241.16Z"/><path class="cls-2" d="M225.74,234.16h3.12l2.32,3.76c.44.7.8,1.29,1.08,1.75l.84,1.37.8,1.29.64,1h.06v-9.2h2.84v14h-3.12l-2.28-3.7L231,242.73c-.29-.46-.57-.92-.85-1.38l-.81-1.32-.67-1.07h-.06v9.2h-2.84Z"/><path class="cls-2" d="M248.84,241.16a8.83,8.83,0,0,1,.49-3,6.27,6.27,0,0,1,1.38-2.29,5.82,5.82,0,0,1,2.15-1.44,8.09,8.09,0,0,1,5.6,0,5.9,5.9,0,0,1,2.15,1.44,6.55,6.55,0,0,1,1.38,2.29,9.74,9.74,0,0,1,0,6.1,6.64,6.64,0,0,1-1.38,2.29,6,6,0,0,1-2.15,1.44,8.09,8.09,0,0,1-5.6,0,5.94,5.94,0,0,1-2.15-1.44,6.35,6.35,0,0,1-1.38-2.29A8.83,8.83,0,0,1,248.84,241.16Zm3.1,0a7.56,7.56,0,0,0,.23,2,4.33,4.33,0,0,0,.69,1.52,3.16,3.16,0,0,0,1.16,1,3.64,3.64,0,0,0,1.64.35,3.7,3.7,0,0,0,1.64-.35,3.32,3.32,0,0,0,1.16-1,4.73,4.73,0,0,0,.69-1.52,8,8,0,0,0,.23-2,7.9,7.9,0,0,0-.23-1.95,4.63,4.63,0,0,0-.69-1.52,3.22,3.22,0,0,0-1.16-1,3.57,3.57,0,0,0-1.64-.35,3.51,3.51,0,0,0-1.64.35,3.06,3.06,0,0,0-1.16,1,4.25,4.25,0,0,0-.69,1.52A7.45,7.45,0,0,0,251.94,241.16Z"/><path class="cls-2" d="M267.18,248.16v-14h9.58v2.48h-6.62v3.08h6.1v2.48h-6.1v6Z"/></g><g id="LINE_TWO" data-name="LINE TWO"><path class="cls-2" d="M101.49,251.94h11.1v2.5h-4v11.5h-3v-11.5h-4Z"/><path class="cls-2" d="M116.81,265.94v-14h9.54v2.48h-6.58v3.08h6.12V260h-6.12v3.48h6.68v2.48Z"/><path class="cls-2" d="M130.51,258.94a9.16,9.16,0,0,1,.48-3.07,6.47,6.47,0,0,1,1.37-2.29,5.88,5.88,0,0,1,2.16-1.43,8,8,0,0,1,2.85-.49,6.83,6.83,0,0,1,3.76,1,5.39,5.39,0,0,1,2.16,3l-2.92,1a4,4,0,0,0-1.08-1.83,2.86,2.86,0,0,0-2-.65,3.51,3.51,0,0,0-1.62.36,3.26,3.26,0,0,0-1.16,1,4.37,4.37,0,0,0-.69,1.51,7.77,7.77,0,0,0-.23,1.92,7.57,7.57,0,0,0,.23,1.91,4.37,4.37,0,0,0,.69,1.51,3.19,3.19,0,0,0,1.16,1,3.54,3.54,0,0,0,1.64.36,2.94,2.94,0,0,0,1.89-.58,3.48,3.48,0,0,0,1.11-1.76l2.88,1a6,6,0,0,1-2.16,2.8,6.42,6.42,0,0,1-3.76,1,7.5,7.5,0,0,1-2.79-.49,5.82,5.82,0,0,1-2.14-1.42A6.3,6.3,0,0,1,131,262,9.18,9.18,0,0,1,130.51,258.94Z"/><path class="cls-2" d="M147.69,251.94h3v5.54H156v-5.54h3v14h-3V260h-5.3v5.94h-3Z"/><path class="cls-2" d="M164.27,251.94h3.12l2.32,3.76,1.08,1.75.84,1.37.8,1.29.64,1h.06v-9.2H176v14h-3.12c-.8-1.29-1.56-2.52-2.28-3.7l-1.07-1.73c-.29-.46-.57-.92-.85-1.38l-.81-1.32-.67-1.07h-.06v9.2h-2.84Z"/><path class="cls-2" d="M180.67,258.94a8.83,8.83,0,0,1,.49-3.05,6.64,6.64,0,0,1,1.38-2.29,6.07,6.07,0,0,1,2.15-1.44,8.09,8.09,0,0,1,5.6,0,6.07,6.07,0,0,1,2.15,1.44,6.64,6.64,0,0,1,1.38,2.29,9.74,9.74,0,0,1,0,6.1,6.55,6.55,0,0,1-1.38,2.29,5.82,5.82,0,0,1-2.15,1.44,8.09,8.09,0,0,1-5.6,0,5.82,5.82,0,0,1-2.15-1.44,6.55,6.55,0,0,1-1.38-2.29A8.79,8.79,0,0,1,180.67,258.94Zm3.1,0a7.9,7.9,0,0,0,.23,1.95,4.25,4.25,0,0,0,.69,1.52,3.14,3.14,0,0,0,1.16,1,4,4,0,0,0,3.28,0,3.14,3.14,0,0,0,1.16-1,4.25,4.25,0,0,0,.69-1.52,7.9,7.9,0,0,0,.23-1.95A8,8,0,0,0,191,257a4.33,4.33,0,0,0-.69-1.52,3.24,3.24,0,0,0-1.16-1,4,4,0,0,0-3.28,0,3.24,3.24,0,0,0-1.16,1A4.33,4.33,0,0,0,184,257,8,8,0,0,0,183.77,258.94Z"/><path class="cls-2" d="M199,251.94h3v11.5h6.12v2.5H199Z"/><path class="cls-2" d="M211.25,258.94a8.83,8.83,0,0,1,.49-3.05,6.64,6.64,0,0,1,1.38-2.29,6.07,6.07,0,0,1,2.15-1.44,8.09,8.09,0,0,1,5.6,0A6.07,6.07,0,0,1,223,253.6a6.64,6.64,0,0,1,1.38,2.29,9.74,9.74,0,0,1,0,6.1,6.55,6.55,0,0,1-1.38,2.29,5.82,5.82,0,0,1-2.15,1.44,8.09,8.09,0,0,1-5.6,0,5.82,5.82,0,0,1-2.15-1.44,6.55,6.55,0,0,1-1.38-2.29A8.79,8.79,0,0,1,211.25,258.94Zm3.1,0a7.9,7.9,0,0,0,.23,1.95,4.25,4.25,0,0,0,.69,1.52,3.14,3.14,0,0,0,1.16,1,4,4,0,0,0,3.28,0,3.14,3.14,0,0,0,1.16-1,4.25,4.25,0,0,0,.69-1.52,7.9,7.9,0,0,0,.23-1.95,8,8,0,0,0-.23-1.95,4.33,4.33,0,0,0-.69-1.52,3.24,3.24,0,0,0-1.16-1,4,4,0,0,0-3.28,0,3.24,3.24,0,0,0-1.16,1,4.33,4.33,0,0,0-.69,1.52A8,8,0,0,0,214.35,258.94Z"/><path class="cls-2" d="M235.51,258.18H242v7.76h-2.72V264.5a3.69,3.69,0,0,1-1.36,1.22,4.72,4.72,0,0,1-2.34.5,6.29,6.29,0,0,1-2.75-.57,5.61,5.61,0,0,1-2-1.55,6.7,6.7,0,0,1-1.19-2.3,9.56,9.56,0,0,1-.4-2.82,9,9,0,0,1,.47-3,6.53,6.53,0,0,1,1.37-2.31,6.31,6.31,0,0,1,2.19-1.51,7.54,7.54,0,0,1,2.93-.54,6.74,6.74,0,0,1,3.62.93,5.74,5.74,0,0,1,2.26,2.75l-2.78,1.14a3.64,3.64,0,0,0-1.22-1.73,3.3,3.3,0,0,0-2-.61,3.35,3.35,0,0,0-2.72,1.25,5.75,5.75,0,0,0-1,3.69q0,4.68,3.7,4.68a4,4,0,0,0,1.08-.15,3.2,3.2,0,0,0,1-.46,2.41,2.41,0,0,0,.73-.79,2.22,2.22,0,0,0,.28-1.16v-.64h-3.58Z"/><path class="cls-2" d="M250.41,260.08l-5.3-8.14h3.44L252,257.3l3.4-5.36h3.34l-5.3,8.14v5.86h-3Z"/></g><g id="ICON"><circle class="cls-3" cx="209.9" cy="126.32" r="36.05"/><line class="cls-3" x1="173.84" y1="126.32" x2="245.95" y2="126.32"/><line class="cls-3" x1="209.9" y1="90.27" x2="209.9" y2="162.38"/><path class="cls-3" d="M209.64,90.27c-1.86,1.46-18.2,14.78-17.61,37.15.56,21.13,15.77,33.34,17.87,35"/><path class="cls-3" d="M210.16,90.27c1.85,1.46,18.19,14.78,17.6,37.15-.55,21.13-15.77,33.34-17.86,35"/><path class="cls-3" d="M184.24,151.22a35.2,35.2,0,0,1,26.57-11.45,34.74,34.74,0,0,1,25,11.62"/><path class="cls-3" d="M184.11,101.37a35.21,35.21,0,0,0,26.57,11.46,34.77,34.77,0,0,0,25-11.63"/><path class="cls-2" d="M163.61,181.58H124.47c-1.55,0-1.55,0-1.55-1.54q0-22.29,0-44.58c0-2.68.87-3.53,3.53-3.53h74.3c2.67,0,3.54.85,3.54,3.52V180c0,1.55,0,1.55-1.55,1.55Zm-37.18-45.91c0,.49-.06.86-.06,1.24q0,19.85,0,39.71c0,1.12.36,1.35,1.41,1.35q35.85,0,71.71,0c1,0,1.41-.23,1.4-1.35,0-13.24,0-26.48,0-39.72,0-.39,0-.79-.07-1.23Zm37.25-.73c.32-.6.65-.93.62-1.23s-.45-.47-.69-.71c-.25.27-.68.52-.7.81S163.28,134.39,163.68,134.94Z"/><path class="cls-2" d="M114.05,183.7h1.88q16.27,0,32.56,0a6.16,6.16,0,0,1,1.82.63,3.86,3.86,0,0,0,1.1.4q12.19,0,24.4,0a1.3,1.3,0,0,0,.92-.27,2.52,2.52,0,0,1,2.34-.8h34c.35,2.78-2.05,5.81-5,6.41a10.55,10.55,0,0,1-2,.19H121.17C117,190.3,114.09,187.63,114.05,183.7Z"/><path d="M126.43,135.67h74.34c0,.44.07.84.07,1.23,0,13.24,0,26.48,0,39.72,0,1.12-.35,1.35-1.4,1.35q-35.85,0-71.71,0c-1,0-1.41-.23-1.41-1.35q.06-19.86,0-39.71C126.37,136.53,126.41,136.16,126.43,135.67Z"/><path d="M163.68,134.94c-.4-.55-.8-.86-.77-1.13s.45-.54.7-.81c.24.24.67.46.69.71S164,134.34,163.68,134.94Z"/><path class="cls-2" d="M197.36,175.7V155.9c0-1.88.88-2.76,2.76-2.76h20.56a2.36,2.36,0,0,1,2.58,2.58v40a2.36,2.36,0,0,1-2.58,2.59H200a2.38,2.38,0,0,1-2.61-2.62Zm24.5,16.78V158.94H198.78v33.54Zm-11.54,3.67h4.49c.51,0,.79-.24.82-.64s-.28-.73-.82-.74h-3.94c-1.67,0-3.34,0-5,0a1.09,1.09,0,0,0-.78.4c-.3.46.1.95.74,1Zm0-39.47h2.84c.5,0,.79-.25.8-.65s-.29-.69-.81-.69c-1.87,0-3.74,0-5.62,0-.52,0-.83.26-.82.68s.29.66.83.66Z"/><path class="cls-2" d="M221.86,192.48H198.78V158.94h23.08Zm-1.37-1.39V160.32H200.13v30.77Z"/><path d="M210.32,196.15h-4.5c-.64,0-1-.5-.74-1a1.09,1.09,0,0,1,.78-.4c1.67,0,3.34,0,5,0h3.94c.54,0,.85.3.82.74s-.31.64-.82.64Z"/><path d="M210.3,156.68h-2.78c-.54,0-.83-.24-.83-.66s.3-.68.82-.68c1.88,0,3.75,0,5.62,0,.52,0,.82.27.81.69s-.3.65-.8.65Z"/><path d="M220.49,191.09H200.13V160.32h20.36Z"/></g></svg>