<svg xmlns="http://www.w3.org/2000/svg" viewBox="0 0 360 360"><defs><style>.cls-1{fill:#231f20;}.cls-2{fill:#fff;}.cls-3,.cls-4{stroke:#fff;stroke-linecap:round;stroke-miterlimit:10;stroke-width:3px;}.cls-4{fill:none;}</style></defs><title>CARD</title><g id="BACKGROUND"><rect class="cls-1" x="-3" y="-0.06" width="360" height="360"/></g><g id="LINE_ONE" data-name="LINE ONE"><path class="cls-2" d="M133.23,248.1v-14h9.58v2.48h-6.62v3.07h6.1v2.48h-6.1v6Z"/><path class="cls-2" d="M147.29,234.1h3v14h-3Z"/><path class="cls-2" d="M154.51,234.1h11.1v2.5h-4v11.5h-3V236.6h-4Z"/><path class="cls-2" d="M169.83,234.1H173l2.32,3.76c.44.7.8,1.28,1.08,1.75l.84,1.36.8,1.3.64,1h.06v-9.2h2.84v14h-3.12l-2.28-3.71-1.07-1.72c-.29-.46-.57-.92-.85-1.38s-.55-.91-.81-1.32l-.67-1.08h-.06v9.21h-2.84Z"/><path class="cls-2" d="M186.81,248.1v-14h9.54v2.48h-6.58v3.07h6.12v2.48h-6.12v3.49h6.68v2.48Z"/><path class="cls-2" d="M203.81,237.78a1.32,1.32,0,0,0,.78,1.28,8.75,8.75,0,0,0,2.48.67,7.86,7.86,0,0,1,3.67,1.39,3.47,3.47,0,0,1,1.17,2.85,3.89,3.89,0,0,1-.42,1.83,4.11,4.11,0,0,1-1.17,1.39,5.63,5.63,0,0,1-1.79.87,7.76,7.76,0,0,1-2.26.32,7.68,7.68,0,0,1-2.38-.35,6.1,6.1,0,0,1-1.8-.93,4.33,4.33,0,0,1-1.16-1.37,3.73,3.73,0,0,1-.46-1.61l3-.49a2.56,2.56,0,0,0,.79,1.67,2.8,2.8,0,0,0,2,.66,5.32,5.32,0,0,0,1-.1,2.52,2.52,0,0,0,.82-.33,1.86,1.86,0,0,0,.55-.57,1.64,1.64,0,0,0,.2-.83,1.35,1.35,0,0,0-.65-1.19,6.12,6.12,0,0,0-2.29-.68,20.59,20.59,0,0,1-2-.46,5.72,5.72,0,0,1-1.63-.77,3.54,3.54,0,0,1-1.08-1.23,3.72,3.72,0,0,1-.39-1.78,3.93,3.93,0,0,1,.4-1.84,3.63,3.63,0,0,1,1.12-1.31,4.84,4.84,0,0,1,1.7-.79,8,8,0,0,1,2.14-.27,8.16,8.16,0,0,1,2,.25,5.77,5.77,0,0,1,1.67.74A4.39,4.39,0,0,1,211,236a4.44,4.44,0,0,1,.66,1.63l-3,.66a2.45,2.45,0,0,0-.82-1.51,2.62,2.62,0,0,0-1.78-.57,2.86,2.86,0,0,0-1.69.42A1.36,1.36,0,0,0,203.81,237.78Z"/><path class="cls-2" d="M219.29,237.78a1.32,1.32,0,0,0,.78,1.28,8.75,8.75,0,0,0,2.48.67,7.86,7.86,0,0,1,3.67,1.39,3.47,3.47,0,0,1,1.17,2.85,3.89,3.89,0,0,1-.42,1.83,4.11,4.11,0,0,1-1.17,1.39,5.63,5.63,0,0,1-1.79.87,7.76,7.76,0,0,1-2.26.32,7.68,7.68,0,0,1-2.38-.35,6.1,6.1,0,0,1-1.8-.93,4.33,4.33,0,0,1-1.16-1.37,3.73,3.73,0,0,1-.46-1.61l3-.49a2.56,2.56,0,0,0,.79,1.67,2.8,2.8,0,0,0,2,.66,5.32,5.32,0,0,0,1-.1,2.52,2.52,0,0,0,.82-.33,1.86,1.86,0,0,0,.55-.57,1.64,1.64,0,0,0,.2-.83,1.35,1.35,0,0,0-.65-1.19,6.12,6.12,0,0,0-2.29-.68,20.59,20.59,0,0,1-2-.46,5.72,5.72,0,0,1-1.63-.77,3.54,3.54,0,0,1-1.08-1.23,3.72,3.72,0,0,1-.39-1.78,3.93,3.93,0,0,1,.4-1.84,3.63,3.63,0,0,1,1.12-1.31,4.84,4.84,0,0,1,1.7-.79,8,8,0,0,1,2.14-.27,8.16,8.16,0,0,1,2,.25,5.77,5.77,0,0,1,1.67.74,4.39,4.39,0,0,1,1.21,1.22,4.44,4.44,0,0,1,.66,1.63l-3,.66a2.45,2.45,0,0,0-.82-1.51,2.62,2.62,0,0,0-1.78-.57,2.86,2.86,0,0,0-1.69.42A1.36,1.36,0,0,0,219.29,237.78Z"/></g><g id="ICON"><path class="cls-2" d="M224.76,197.82c-6.68.24-13.66-2.17-20.58-4.74a254.72,254.72,0,0,1-35.07-16.38,144.07,144.07,0,0,0-35-14,94.62,94.62,0,0,1-21.83-8.2,40.59,40.59,0,0,1-6.55-4.37c-6.38-5.27-7.82-11.84-4.51-19.47,1.71-4,4.43-7.2,7.22-10.39a31.18,31.18,0,0,0,6.41-10.81,44.7,44.7,0,0,1,7.35-13.89c4.8-6,9.56-6.73,15.69-2.08a91.64,91.64,0,0,1,8.94,7.77c4,4,8.9,5.25,14.24,6a9,9,0,0,0,8.62-3.12,63.84,63.84,0,0,1,9.19-7.66,23.61,23.61,0,0,1,6.07-2.85A5.49,5.49,0,0,1,191.68,96a39.09,39.09,0,0,1,3.55,6.38c1.75,4.05,3.42,8.15,4.81,12.33a89,89,0,0,0,16.37,29c3.88,4.67,7.65,9.43,12.42,13.26a18.22,18.22,0,0,0,10.93,4.22A23.74,23.74,0,0,1,257,169.65c5.78,6.59,3.77,14.19-.9,19.07-3.67,3.84-8.41,5.75-13.43,7.05A75.35,75.35,0,0,1,224.76,197.82Zm-15.9-54.42c-2.84,1.89-5.76,3.86-8.7,5.79a2.85,2.85,0,1,1-3.11-4.75c2.49-1.69,5-3.35,7.5-5,.33-.23.63-.49.86-.66l-4.78-7.69c-.4.23-.8.46-1.18.72-1.73,1.14-3.44,2.31-5.18,3.42a2.67,2.67,0,0,1-3.17-.07,2.44,2.44,0,0,1-1.11-2.82,4.34,4.34,0,0,1,1.54-2c2.19-1.6,4.49-3.06,6.75-4.57L194.83,117l-5.7,3.78c-1.81,1.18-3.48,1-4.44-.53s-.47-3,1.25-4.19c2.26-1.52,4.53-3,6.85-4.57-.51-1.33-.94-2.62-1.49-3.85-1.09-2.44-2.26-4.85-3.37-7.28a1.77,1.77,0,0,0-2.83-.93,35.27,35.27,0,0,0-5.14,3.17c-3.54,3-6.94,6.2-10.31,9.41a3.32,3.32,0,0,1-2.71,1.08c-2.39-.16-4.8-.12-7.18-.35-6-.57-11.56-2.33-16.08-6.66q-4.08-3.9-8.47-7.46c-4.3-3.49-5.86-3.23-9.13,1.22a47.69,47.69,0,0,0-6.5,13.07,25.89,25.89,0,0,1-4.26,7.89c-1.47,1.84-3,3.63-4.55,5.53a9.78,9.78,0,0,0,1.45,1.88c2,1.61,3.92,3.49,6.19,4.59A118.16,118.16,0,0,0,132,138.46c17.77,6,13.95,3.46,33,16.21,10.2,6.81,20.44,13.57,31.3,19.32,10.36,5.49,21,10.31,32.73,12.08,8.92,1.34,17.33.19,24.87-5.12a2,2,0,0,0,.62-1c.77-2.48-.21-4.54-1.75-6.36a18.71,18.71,0,0,0-14.32-6.81,19.66,19.66,0,0,1-9.84-3A48.23,48.23,0,0,1,217.61,154C214.62,150.56,211.8,147,208.86,143.4Zm-101.56-12c-3.52,6.07-2.57,10.69,1.85,14.18a34.11,34.11,0,0,0,8.12,5,175.16,175.16,0,0,0,19.87,7.06A145.83,145.83,0,0,1,170.48,171a276.38,276.38,0,0,0,34.22,16.2c5.61,2.18,11.27,4.24,17.31,4.8,2.06.19,4.16,0,6.24,0-3.65-1.05-7.32-1.81-10.88-2.88a139.89,139.89,0,0,1-32.84-15.35c-10.76-6.64-21.3-13.64-31.89-20.54a53.48,53.48,0,0,0-13.95-6.62c-3.77-1.13-7.53-2.34-11.23-3.67C120.09,140.32,112.81,137.49,107.3,131.36Z"/><line class="cls-3" x1="154.47" y1="192.09" x2="99.46" y2="192.09"/><line class="cls-3" x1="145.74" y1="182.21" x2="99.46" y2="182.21"/><line class="cls-3" x1="137" y1="172.33" x2="99.46" y2="172.33"/><path class="cls-4" d="M122.29,99.8s15.77,6,15.77,19.16c0,8.48-15.77,17.9-15.77,17.9"/><path class="cls-4" d="M144.06,121.09s31.53-9.41,43.06,27.06c4.13,13.07,5.56,18.64,5.56,18.64"/></g></svg>