<svg xmlns="http://www.w3.org/2000/svg" viewBox="0 0 360 360"><defs><style>.cls-1{fill:#fff;}.cls-2,.cls-3{fill:none;stroke:#fff;stroke-miterlimit:10;}.cls-3{stroke-width:3px;}</style></defs><title>CARD</title><g id="Layer_6" data-name="Layer 6"><rect width="360" height="360"/></g><g id="LINE_ONE" data-name="LINE ONE"><path class="cls-1" d="M109.61,234.16h3v14h-3Z"/><path class="cls-1" d="M117.89,234.16H121l2.32,3.76,1.08,1.75.84,1.37.8,1.29.64,1h.06v-9.2h2.84v14h-3.12l-2.28-3.7-1.07-1.73c-.29-.46-.57-.92-.85-1.38l-.81-1.32c-.26-.42-.48-.78-.67-1.07h-.06v9.2h-2.84Z"/><path class="cls-1" d="M134.87,234.16H138l2.32,3.76,1.08,1.75.84,1.37.8,1.29.64,1h.06v-9.2h2.84v14h-3.12l-2.28-3.7-1.07-1.73c-.29-.46-.57-.92-.85-1.38l-.81-1.32c-.26-.42-.48-.78-.67-1.07h-.06v9.2h-2.84Z"/><path class="cls-1" d="M151.27,241.16a8.83,8.83,0,0,1,.49-3,6.64,6.64,0,0,1,1.38-2.29,5.82,5.82,0,0,1,2.15-1.44,8.09,8.09,0,0,1,5.6,0,5.82,5.82,0,0,1,2.15,1.44,6.64,6.64,0,0,1,1.38,2.29,9.74,9.74,0,0,1,0,6.1A6.64,6.64,0,0,1,163,246.5a5.82,5.82,0,0,1-2.15,1.44,8.09,8.09,0,0,1-5.6,0,5.82,5.82,0,0,1-2.15-1.44,6.64,6.64,0,0,1-1.38-2.29A8.83,8.83,0,0,1,151.27,241.16Zm3.1,0a7.9,7.9,0,0,0,.23,2,4.33,4.33,0,0,0,.69,1.52,3.14,3.14,0,0,0,1.16,1,4,4,0,0,0,3.28,0,3.14,3.14,0,0,0,1.16-1,4.33,4.33,0,0,0,.69-1.52,8.38,8.38,0,0,0,0-3.9,4.33,4.33,0,0,0-.69-1.52,3.14,3.14,0,0,0-1.16-1,4,4,0,0,0-3.28,0,3.14,3.14,0,0,0-1.16,1,4.33,4.33,0,0,0-.69,1.52A7.9,7.9,0,0,0,154.37,241.16Z"/><path class="cls-1" d="M171.17,234.16c.49,1.4,1,2.75,1.4,4.06.26.76.49,1.4.66,1.92s.35,1,.52,1.57l.5,1.53q.24.73.42,1.32h0l.42-1.33.51-1.59c.18-.56.37-1.13.57-1.72l.58-1.7c.44-1.31.9-2.66,1.4-4.06h3.08l-5.16,14h-3.06l-5.1-14Z"/><path class="cls-1" d="M195.85,248.16h-3.1l-1.12-3.24h-5l-1.12,3.24h-2.94l5-14h3.22Zm-6.76-10.72c0,.11-.07.26-.14.47s-.14.44-.22.7-.17.54-.27.84-.2.59-.29.87l-.74,2.22h3.38c-.27-.79-.51-1.53-.74-2.22-.15-.4-.26-.73-.35-1s-.17-.51-.24-.75-.14-.46-.21-.67a4,4,0,0,1-.14-.47Z"/><path class="cls-1" d="M197.33,234.16h11.1v2.5h-4v11.5h-3v-11.5h-4Z"/><path class="cls-1" d="M212.65,234.16h3v14h-3Z"/><path class="cls-1" d="M220.35,241.16a8.83,8.83,0,0,1,.49-3,6.35,6.35,0,0,1,1.38-2.29,5.82,5.82,0,0,1,2.15-1.44,8.09,8.09,0,0,1,5.6,0,5.9,5.9,0,0,1,2.15,1.44,6.64,6.64,0,0,1,1.38,2.29,9.74,9.74,0,0,1,0,6.1,6.64,6.64,0,0,1-1.38,2.29,5.9,5.9,0,0,1-2.15,1.44,8.09,8.09,0,0,1-5.6,0,5.82,5.82,0,0,1-2.15-1.44,6.35,6.35,0,0,1-1.38-2.29A8.83,8.83,0,0,1,220.35,241.16Zm3.1,0a7.45,7.45,0,0,0,.23,2,4.33,4.33,0,0,0,.69,1.52,3.06,3.06,0,0,0,1.16,1,3.64,3.64,0,0,0,1.64.35,3.7,3.7,0,0,0,1.64-.35,3.22,3.22,0,0,0,1.16-1,4.73,4.73,0,0,0,.69-1.52,8.38,8.38,0,0,0,0-3.9,4.73,4.73,0,0,0-.69-1.52,3.22,3.22,0,0,0-1.16-1,3.7,3.7,0,0,0-1.64-.35,3.64,3.64,0,0,0-1.64.35,3.06,3.06,0,0,0-1.16,1,4.33,4.33,0,0,0-.69,1.52A7.45,7.45,0,0,0,223.45,241.16Z"/><path class="cls-1" d="M238.69,234.16h3.12l2.32,3.76,1.08,1.75.84,1.37.8,1.29.64,1h.06v-9.2h2.84v14h-3.12l-2.28-3.7-1.07-1.73c-.29-.46-.57-.92-.85-1.38l-.81-1.32-.67-1.07h-.06v9.2h-2.84Z"/></g><g id="ICON"><path class="cls-2" d="M182.73,178h-5.36V144.53h5.36Z"/><path class="cls-2" d="M182.73,144.41c.34-1.58.62-3,.92-4.35.44-2,2-2.36,3.69-2.37a3.18,3.18,0,0,1,2.94,2.13,3.35,3.35,0,0,1-2.77,4.56A39.43,39.43,0,0,1,182.73,144.41Z"/><path class="cls-2" d="M177.37,144.53c-2,0-3.41.1-4.82,0a3.44,3.44,0,0,1-3-3.14,3.6,3.6,0,0,1,2-3.52,3.31,3.31,0,0,1,4.29,1.49A36.52,36.52,0,0,1,177.37,144.53Z"/><path class="cls-3" d="M180,179.34H170c-1.6,0-2.12-.49-2.22-2-.43-6.63-2.79-12.67-5.93-18.5a108.21,108.21,0,0,1-6-12.15c-5.72-14.91,2.7-29.93,18.51-33.43,14.7-3.26,29.32,6.31,31.5,20.71.87,5.78-.53,11.25-3.15,16.43-2.1,4.16-4.38,8.22-6.47,12.38a38.27,38.27,0,0,0-4,14.76c-.08,1.29-.65,1.81-2,1.82Z"/><path class="cls-1" d="M179.86,186.47h-9.5c-1.44,0-2.23-.62-2.2-1.68s.81-1.64,2.16-1.64q9.69,0,19.38,0c1.33,0,2.12.64,2.14,1.66s-.77,1.66-2.1,1.66Z"/><path class="cls-1" d="M180,189.24h8.87c1.37,0,2.09.59,2.07,1.66s-.76,1.64-2.12,1.64H171.23c-1.37,0-2.1-.58-2.13-1.63s.7-1.67,2.18-1.67Z"/><path class="cls-1" d="M178.32,97.85c0-1.78,0-3.56,0-5.34,0-1.37.63-2.07,1.7-2.06s1.65.71,1.65,2.11c0,3.55,0,7.11,0,10.67,0,1.38-.62,2.08-1.69,2.06s-1.64-.7-1.66-2.11C178.3,101.41,178.32,99.63,178.32,97.85Z"/><path class="cls-1" d="M162.21,110a4.34,4.34,0,0,1-1.16-1c-1.92-3.23-3.79-6.49-5.64-9.76a1.6,1.6,0,0,1,.56-2.4,1.54,1.54,0,0,1,2.26.69c1.94,3.32,3.87,6.64,5.74,10C164.61,108.7,163.78,110,162.21,110Z"/><path class="cls-1" d="M195.59,108.54c.29-.63.44-1,.64-1.38q2.66-4.62,5.32-9.22c.72-1.24,1.52-1.58,2.44-1.09s1.15,1.44.43,2.72q-2.7,4.73-5.44,9.44c-.43.76-1.11,1.3-2,.89A6.52,6.52,0,0,1,195.59,108.54Z"/><path class="cls-1" d="M151.38,120.78c.05,1.71-1.29,2.45-2.59,1.73-2.13-1.19-4.23-2.45-6.35-3.67-1.13-.66-2.27-1.29-3.39-2a1.66,1.66,0,1,1,1.61-2.9c3.3,1.88,6.58,3.77,9.84,5.72A3.51,3.51,0,0,1,151.38,120.78Z"/><path class="cls-1" d="M210,123c-.42-.42-1.17-.81-1.24-1.3a2.43,2.43,0,0,1,.68-1.93,28.34,28.34,0,0,1,3.57-2.14c2-1.19,4.08-2.38,6.13-3.54,1.1-.63,2-.45,2.52.44s.24,1.78-.85,2.42q-4.74,2.77-9.52,5.51C211,122.64,210.6,122.75,210,123Z"/><path class="cls-1" d="M221.89,161.61c0,1.59-1.27,2.41-2.43,1.76-3.39-1.89-6.73-3.85-10.07-5.82a1.53,1.53,0,0,1-.58-2.2,1.48,1.48,0,0,1,2.16-.67q5.13,2.88,10.16,5.9C221.54,160.82,221.75,161.41,221.89,161.61Z"/><path class="cls-1" d="M139.56,163.73c-.42-.35-1.08-.66-1.26-1.14a2.82,2.82,0,0,1,.25-1.73c.12-.29.57-.47.9-.66l9.07-5.26c1.16-.67,2.14-.53,2.65.35s.18,1.85-.94,2.5q-4.64,2.72-9.3,5.38A13.78,13.78,0,0,1,139.56,163.73Z"/><path class="cls-1" d="M139.35,137c1.82,0,3.64,0,5.46,0,1.09,0,1.81.42,1.92,1.56s-.69,1.74-1.89,1.75q-5.52,0-11,0c-1.21,0-2-.72-1.92-1.71a1.63,1.63,0,0,1,1.89-1.6C135.63,137,137.49,137,139.35,137Z"/><path class="cls-1" d="M220.75,137c1.82,0,3.64,0,5.46,0a1.65,1.65,0,0,1,1.91,1.58c.1,1-.7,1.73-1.91,1.73q-5.52,0-11,0c-1.21,0-2-.72-1.9-1.73s.8-1.59,1.89-1.58C217,137,218.89,137,220.75,137Z"/><path class="cls-1" d="M179.94,198.08c-1.57,0-3.13,0-4.69,0-1.2,0-1.85-.62-1.85-1.62a1.67,1.67,0,0,1,1.83-1.68q4.77,0,9.52,0a1.67,1.67,0,0,1,1.85,1.66c0,1-.65,1.61-1.84,1.63C183.15,198.1,181.55,198.08,179.94,198.08Z"/></g></svg>