<svg xmlns="http://www.w3.org/2000/svg" viewBox="0 0 360 360"><defs><style>.cls-1{fill:#fff;}.cls-2,.cls-3,.cls-4{fill:none;stroke:#fff;stroke-miterlimit:10;}.cls-2{stroke-width:4px;}.cls-4{stroke-width:2px;}</style></defs><title>CARD</title><g id="Layer_6" data-name="Layer 6"><rect y="0.14" width="360" height="360"/></g><g id="LINE_ONE" data-name="LINE ONE"><path class="cls-1" d="M130.8,234.16h3v11.5h6.12v2.5H130.8Z"/><path class="cls-1" d="M143,241.16a8.83,8.83,0,0,1,.49-3,6.35,6.35,0,0,1,1.38-2.29,5.86,5.86,0,0,1,2.14-1.44,8.12,8.12,0,0,1,5.61,0,5.78,5.78,0,0,1,2.14,1.44,6.35,6.35,0,0,1,1.38,2.29,9.74,9.74,0,0,1,0,6.1,6.35,6.35,0,0,1-1.38,2.29,5.78,5.78,0,0,1-2.14,1.44,8.12,8.12,0,0,1-5.61,0,5.86,5.86,0,0,1-2.14-1.44,6.35,6.35,0,0,1-1.38-2.29A8.83,8.83,0,0,1,143,241.16Zm3.09,0a7.44,7.44,0,0,0,.24,2,4.51,4.51,0,0,0,.68,1.52,3.17,3.17,0,0,0,1.17,1,3.64,3.64,0,0,0,1.64.35,3.7,3.7,0,0,0,1.64-.35,3.22,3.22,0,0,0,1.16-1,4.51,4.51,0,0,0,.68-1.52,8,8,0,0,0,0-3.9,4.51,4.51,0,0,0-.68-1.52,3.22,3.22,0,0,0-1.16-1,3.7,3.7,0,0,0-1.64-.35,3.64,3.64,0,0,0-1.64.35,3.17,3.17,0,0,0-1.17,1,4.51,4.51,0,0,0-.68,1.52A7.44,7.44,0,0,0,146.13,241.16Z"/><path class="cls-1" d="M161,241.16a9.38,9.38,0,0,1,.47-3.07,6.62,6.62,0,0,1,1.37-2.29,5.87,5.87,0,0,1,2.17-1.43,7.74,7.74,0,0,1,2.85-.49,6.85,6.85,0,0,1,3.76,1,5.35,5.35,0,0,1,2.16,3l-2.92,1a3.92,3.92,0,0,0-1.08-1.83,2.88,2.88,0,0,0-2-.65,3.53,3.53,0,0,0-1.63.36,3.35,3.35,0,0,0-1.16,1,4.46,4.46,0,0,0-.68,1.51,7.32,7.32,0,0,0-.24,1.92,7.19,7.19,0,0,0,.24,1.91,4.64,4.64,0,0,0,.68,1.51,3.28,3.28,0,0,0,1.16,1,3.58,3.58,0,0,0,1.65.36,2.94,2.94,0,0,0,1.89-.58,3.67,3.67,0,0,0,1.11-1.76l2.88,1a6,6,0,0,1-2.16,2.8,6.44,6.44,0,0,1-3.76,1A7.5,7.5,0,0,1,165,248a6,6,0,0,1-2.15-1.42,6.44,6.44,0,0,1-1.37-2.29A9.49,9.49,0,0,1,161,241.16Z"/><path class="cls-1" d="M190.33,248.16h-3.1l-1.11-3.24h-5L180,248.16H177l5-14h3.23Zm-6.76-10.72c0,.11-.07.26-.13.47s-.14.44-.22.7-.17.54-.27.84-.2.59-.3.87c-.22.69-.47,1.43-.74,2.22h3.39l-.75-2.22c-.14-.4-.26-.73-.34-1s-.17-.51-.24-.75l-.22-.67c-.06-.21-.11-.36-.13-.47Z"/><path class="cls-1" d="M194.47,234.16h3v11.5h6.12v2.5h-9.12Z"/><path class="cls-1" d="M207.8,234.16h3v11.5h6.11v2.5H207.8Z"/><path class="cls-1" d="M223,242.3l-5.31-8.14h3.44l3.42,5.36,3.41-5.36h3.34L226,242.3v5.86h-3Z"/></g><g id="LINE_TWO" data-name="LINE TWO"><path class="cls-1" d="M129.39,255.62a1.33,1.33,0,0,0,.78,1.29,8.65,8.65,0,0,0,2.48.67,7.91,7.91,0,0,1,3.67,1.38,3.51,3.51,0,0,1,1.17,2.86,3.92,3.92,0,0,1-.42,1.83A4.07,4.07,0,0,1,135.9,265a5.44,5.44,0,0,1-1.79.88,7.81,7.81,0,0,1-2.26.32,7.34,7.34,0,0,1-2.38-.36,5.66,5.66,0,0,1-1.8-.93,4.07,4.07,0,0,1-1.16-1.36,3.6,3.6,0,0,1-.46-1.62l3-.48a2.52,2.52,0,0,0,.79,1.67,2.8,2.8,0,0,0,2,.66,4.67,4.67,0,0,0,1-.11,2.21,2.21,0,0,0,.82-.33,1.83,1.83,0,0,0,.55-.56,1.64,1.64,0,0,0,.2-.83,1.36,1.36,0,0,0-.65-1.2,6.42,6.42,0,0,0-2.29-.67,19.38,19.38,0,0,1-2-.46,5.48,5.48,0,0,1-1.63-.78,3.42,3.42,0,0,1-1.08-1.22,3.73,3.73,0,0,1-.39-1.79,3.89,3.89,0,0,1,.4-1.83,3.65,3.65,0,0,1,1.12-1.32,4.92,4.92,0,0,1,1.7-.78,8,8,0,0,1,2.14-.27,8.16,8.16,0,0,1,2,.25,5.89,5.89,0,0,1,1.67.74,4.64,4.64,0,0,1,1.21,1.21,4.56,4.56,0,0,1,.66,1.64l-3,.66a2.45,2.45,0,0,0-.82-1.51,2.64,2.64,0,0,0-1.78-.57,2.83,2.83,0,0,0-1.69.42A1.34,1.34,0,0,0,129.39,255.62Z"/><path class="cls-1" d="M141.57,258.94a8.73,8.73,0,0,1,.49-3,6.19,6.19,0,0,1,1.38-2.29,6,6,0,0,1,2.15-1.45,8.09,8.09,0,0,1,5.6,0,6.05,6.05,0,0,1,2.15,1.45,6.46,6.46,0,0,1,1.38,2.29,9.71,9.71,0,0,1,0,6.09,6.46,6.46,0,0,1-1.38,2.29,6.05,6.05,0,0,1-2.15,1.45,8.09,8.09,0,0,1-5.6,0,6,6,0,0,1-2.15-1.45,6.19,6.19,0,0,1-1.38-2.29A8.75,8.75,0,0,1,141.57,258.94Zm3.1,0a7.58,7.58,0,0,0,.23,2,4.28,4.28,0,0,0,.69,1.51,3.18,3.18,0,0,0,1.16,1,3.64,3.64,0,0,0,1.64.34,3.7,3.7,0,0,0,1.64-.34,3.35,3.35,0,0,0,1.16-1,4.67,4.67,0,0,0,.69-1.51,8.42,8.42,0,0,0,0-3.91,4.67,4.67,0,0,0-.69-1.51,3.35,3.35,0,0,0-1.16-1,3.7,3.7,0,0,0-1.64-.34,3.64,3.64,0,0,0-1.64.34,3.18,3.18,0,0,0-1.16,1,4.28,4.28,0,0,0-.69,1.51A7.56,7.56,0,0,0,144.67,258.94Z"/><path class="cls-1" d="M165.42,266.23a5.56,5.56,0,0,1-4.25-1.45,5.61,5.61,0,0,1-1.35-4v-8.84h3v8.87a3.31,3.31,0,0,0,.65,2.1,2.72,2.72,0,0,0,3.91,0,3.31,3.31,0,0,0,.65-2.1v-8.87h3v8.84a4.91,4.91,0,0,1-5.61,5.45Z"/><path class="cls-1" d="M186.71,256.2a4.18,4.18,0,0,1-.72,2.54,4.1,4.1,0,0,1-1.94,1.46l3.22,5.74H184l-2.9-5.29h-1.86v5.29h-3v-14h5.12a9.39,9.39,0,0,1,2.21.25,4.82,4.82,0,0,1,1.68.77,3.46,3.46,0,0,1,1.08,1.32A4.39,4.39,0,0,1,186.71,256.2Zm-3.08,0a1.49,1.49,0,0,0-.65-1.41,3.93,3.93,0,0,0-2-.39h-1.8v3.77H181a3.42,3.42,0,0,0,2-.45A1.73,1.73,0,0,0,183.63,256.23Z"/><path class="cls-1" d="M191.16,258.94a9.2,9.2,0,0,1,.48-3.07,6.56,6.56,0,0,1,1.37-2.29,6,6,0,0,1,2.16-1.43,8,8,0,0,1,2.85-.49,6.73,6.73,0,0,1,3.76,1,5.24,5.24,0,0,1,2.16,3l-2.92,1a3.92,3.92,0,0,0-1.08-1.83,2.82,2.82,0,0,0-2-.66,3.4,3.4,0,0,0-1.62.37,3.35,3.35,0,0,0-1.16,1,4.67,4.67,0,0,0-.69,1.51,8.09,8.09,0,0,0,0,3.83,4.71,4.71,0,0,0,.69,1.5,3.28,3.28,0,0,0,1.16,1,3.45,3.45,0,0,0,1.64.37,3,3,0,0,0,1.89-.58,3.57,3.57,0,0,0,1.11-1.76l2.88,1a5.85,5.85,0,0,1-2.16,2.8,6.33,6.33,0,0,1-3.76,1,7.57,7.57,0,0,1-2.79-.5,5.88,5.88,0,0,1-2.14-1.41,6.47,6.47,0,0,1-1.37-2.29A9.28,9.28,0,0,1,191.16,258.94Z"/><path class="cls-1" d="M208.35,265.94v-14h9.54v2.49h-6.58v3.07h6.11V260h-6.11v3.48H218v2.48Z"/><path class="cls-1" d="M222.63,251.94h5.22a8.45,8.45,0,0,1,2.88.47,5.87,5.87,0,0,1,2.16,1.37,6.1,6.1,0,0,1,1.35,2.18,9.92,9.92,0,0,1,0,6,6.1,6.1,0,0,1-1.35,2.18,5.87,5.87,0,0,1-2.16,1.37,8.45,8.45,0,0,1-2.88.46h-5.22Zm9,7a7,7,0,0,0-.23-1.84,4.3,4.3,0,0,0-.7-1.44,3.29,3.29,0,0,0-1.19-.92,4.3,4.3,0,0,0-1.72-.31h-2.12v9h2.12a4.3,4.3,0,0,0,1.72-.31,3.29,3.29,0,0,0,1.19-.92,4.3,4.3,0,0,0,.7-1.44A7,7,0,0,0,231.61,258.94Z"/></g><g id="ICON"><path class="cls-2" d="M177.74,198c-1.89-2.9-3.74-5.68-5.54-8.49-5.9-9.17-11.61-18.45-16.92-28A207.64,207.64,0,0,1,144.84,141a35.56,35.56,0,0,1,10.94-42,33.93,33.93,0,0,1,25-7.39C195.25,93,205.43,100.64,211,114c3.91,9.45,3.35,19-.87,28.34A287.7,287.7,0,0,1,196,169c-5.67,9.68-11.67,19.16-17.87,28.51Zm0-3.45c.19-.26.3-.4.4-.55,6.08-9.26,12-18.64,17.52-28.24a265.74,265.74,0,0,0,12.88-24.57,33.86,33.86,0,0,0-29.49-47.91c-10.08-.3-18.84,3.09-25.69,10.49-9.4,10.13-11.85,22-7.29,35,2.52,7.19,6.39,13.8,10.08,20.45,5.48,9.9,11.39,19.55,17.53,29.06C175,190.34,176.34,192.39,177.74,194.54Z"/><path class="cls-3" d="M151.79,126.17a25.65,25.65,0,1,1,25.76,25.59A25.75,25.75,0,0,1,151.79,126.17Z"/><path class="cls-4" d="M190.73,132.33c-7.31,1.79-12.45,7-12.23,12.3C182.35,145.13,188.73,139.87,190.73,132.33Zm-14,12.34c0-5.5-5.91-11.36-12.21-12.23C165.71,138.53,171.7,144.59,176.73,144.67Zm.85-36.81c-3.58,5.13-3.53,11.31,0,14.24C181.43,118.69,181.45,113.07,177.58,107.86Zm10.75,14.21c-6.4.68-11.23,5.8-9.63,10.06C183.64,132.31,187.41,127,188.33,122.07Zm-21.5,0c1.31,6.17,5.25,10.14,9.79,10C178,127.55,172.54,122.53,166.83,122.08Zm10.77,0v30.28"/></g></svg>