<svg xmlns="http://www.w3.org/2000/svg" viewBox="0 0 360 360"><defs><style>.cls-1{fill:#0c6e39;}.cls-2{fill:#fff;}.cls-3,.cls-4{fill:#0e6e39;}.cls-4{stroke:#0e6e39;stroke-miterlimit:10;stroke-width:2px;}</style></defs><title>CARD</title><g id="BACKGROUND"><rect class="cls-1" y="336.06" width="360" height="23.94"/><path class="cls-2" d="M207,344.09h3.65a2.89,2.89,0,0,1,1,.17,2.33,2.33,0,0,1,.78.46,2,2,0,0,1,.48.69,2.29,2.29,0,0,1,.17.87,2.08,2.08,0,0,1-.11.69,1.73,1.73,0,0,1-.68.89,2,2,0,0,1-.46.24,1.9,1.9,0,0,1,1.08.49,1.76,1.76,0,0,1,.39.56,2.05,2.05,0,0,1,.15.83,2.55,2.55,0,0,1-.2,1,2.39,2.39,0,0,1-.57.79,2.72,2.72,0,0,1-.85.53,3.14,3.14,0,0,1-1.08.19H207Zm1.75,1.46v1.95H210a1.74,1.74,0,0,0,1-.22.87.87,0,0,0,.31-.78.88.88,0,0,0-.27-.73,1.42,1.42,0,0,0-.9-.22Zm0,5.47h1.44a1.82,1.82,0,0,0,1.16-.27,1,1,0,0,0,.3-.78.85.85,0,0,0-.37-.82,2.33,2.33,0,0,0-1.11-.21h-1.42Z"/><path class="cls-2" d="M219.57,352.66a3.3,3.3,0,0,1-2.55-.87,3.35,3.35,0,0,1-.81-2.4v-5.3H218v5.31a2,2,0,0,0,.38,1.27,1.64,1.64,0,0,0,2.36,0,2,2,0,0,0,.38-1.27v-5.31h1.8v5.3a3.39,3.39,0,0,1-.8,2.4A3.34,3.34,0,0,1,219.57,352.66Z"/><path class="cls-2" d="M226.05,344.09h1.8v8.4h-1.8Z"/><path class="cls-2" d="M231,344.09h1.8V351h3.67v1.5H231Z"/><path class="cls-2" d="M237.23,344.09h6.66v1.5h-2.42v6.9h-1.81v-6.9h-2.43Z"/><path class="cls-2" d="M250.45,352.49v-8.4h5.72v1.49h-4v1.84h3.67v1.49h-3.67V351h4v1.49Z"/><path class="cls-2" d="M259,344.09h1.87c.48.79.95,1.54,1.39,2.25l.65,1.05.5.83.48.77.38.62h0v-5.52H266v8.4h-1.87c-.48-.78-.93-1.52-1.37-2.22-.25-.42-.47-.76-.64-1l-.51-.83-.48-.79c-.16-.25-.29-.47-.41-.64h0v5.52H259Z"/><path class="cls-2" d="M270.44,344.09l.84,2.43c.16.46.29.84.39,1.16s.21.62.32.94l.3.92.25.79h0c.07-.23.16-.5.25-.8l.31-.95.34-1,.35-1q.39-1.17.84-2.43h1.85l-3.1,8.4h-1.83l-3.06-8.4Z"/><path class="cls-2" d="M279,344.09h1.8v8.4H279Z"/><path class="cls-2" d="M290.23,346.64a2.36,2.36,0,0,1-1.6,2.4l1.93,3.45h-2l-1.74-3.18h-1.11v3.18h-1.79v-8.4H287a5.47,5.47,0,0,1,1.33.15,2.84,2.84,0,0,1,1,.46,2.08,2.08,0,0,1,.65.79A2.71,2.71,0,0,1,290.23,346.64Zm-1.85,0a.91.91,0,0,0-.39-.85,2.3,2.3,0,0,0-1.18-.23h-1.08v2.26h1.08a2.08,2.08,0,0,0,1.18-.27A1,1,0,0,0,288.38,346.66Z"/><path class="cls-2" d="M292.9,348.29a5.24,5.24,0,0,1,.3-1.83,4,4,0,0,1,.82-1.38,3.7,3.7,0,0,1,1.29-.86,4.88,4.88,0,0,1,3.37,0,3.7,3.7,0,0,1,1.29.86,4,4,0,0,1,.82,1.38,5.73,5.73,0,0,1,0,3.66,3.82,3.82,0,0,1-.82,1.37,3.59,3.59,0,0,1-1.29.87,4.88,4.88,0,0,1-3.37,0,3.59,3.59,0,0,1-1.29-.87,3.82,3.82,0,0,1-.82-1.37A5.24,5.24,0,0,1,292.9,348.29Zm1.86,0a4.81,4.81,0,0,0,.14,1.17,2.72,2.72,0,0,0,.41.91,2,2,0,0,0,.7.59,2.42,2.42,0,0,0,2,0,2,2,0,0,0,.7-.59,2.72,2.72,0,0,0,.41-.91,4.81,4.81,0,0,0,.14-1.17,4.69,4.69,0,0,0-.14-1.17,2.63,2.63,0,0,0-.41-.91,1.89,1.89,0,0,0-.7-.59,2.42,2.42,0,0,0-2,0,1.89,1.89,0,0,0-.7.59,2.63,2.63,0,0,0-.41.91A4.69,4.69,0,0,0,294.76,348.29Z"/><path class="cls-2" d="M303.91,344.09h1.87l1.39,2.25.65,1.05c.17.28.34.55.5.83l.48.77c.16.24.28.45.39.62h0v-5.52h1.71v8.4h-1.87l-1.37-2.22-.64-1c-.18-.28-.35-.55-.51-.83l-.49-.79-.4-.64h0v5.52h-1.7Z"/><path class="cls-2" d="M317.79,352.49q-.18-.5-.45-1.29l-.56-1.66c-.19-.58-.38-1.14-.56-1.7s-.32-1-.43-1.39h0v6H314.1v-8.4h2.51c.35,1,.66,2,.94,2.82l.42,1.24c.1.32.2.62.3.91l.25.78c.07.23.13.4.16.5l.15-.5c.08-.24.16-.51.26-.83l.33-1c.11-.36.23-.72.35-1.08q.41-1.29.9-2.82h2.51v8.4h-1.66v-6h0l-.29.9c-.11.34-.23.71-.37,1.11s-.26.79-.4,1.19-.26.79-.38,1.15l-.33,1c-.1.3-.19.53-.25.7Z"/><path class="cls-2" d="M326.35,352.49v-8.4h5.72v1.49h-3.95v1.84h3.67v1.49h-3.67V351h4v1.49Z"/><path class="cls-2" d="M334.91,344.09h1.88c.48.79.95,1.54,1.39,2.25l.65,1.05c.16.28.33.55.5.83l.48.77.38.62h0v-5.52h1.7v8.4h-1.87c-.48-.78-.93-1.52-1.37-2.22-.25-.42-.47-.76-.64-1l-.51-.83-.48-.79c-.16-.25-.29-.47-.41-.64h0v5.52h-1.71Z"/><path class="cls-2" d="M344.47,344.09h6.66v1.5H348.7v6.9h-1.81v-6.9h-2.42Z"/></g><g id="LINE_ONE" data-name="LINE ONE"><path class="cls-1" d="M124.47,238.42a3.94,3.94,0,0,1-2.66,4l3.22,5.74h-3.3l-2.9-5.3H117v5.3h-3v-14h5.12a8.89,8.89,0,0,1,2.21.25,4.78,4.78,0,0,1,1.69.77,3.46,3.46,0,0,1,1.08,1.32A4.47,4.47,0,0,1,124.47,238.42Zm-3.08,0a1.51,1.51,0,0,0-.65-1.41,3.91,3.91,0,0,0-2-.39H117v3.78h1.8a3.48,3.48,0,0,0,2-.45A1.74,1.74,0,0,0,121.39,238.44Z"/><path class="cls-1" d="M129.51,248.16v-14h9.54v2.48h-6.58v3.08h6.12v2.48h-6.12v3.48h6.68v2.48Z"/><path class="cls-1" d="M146.51,237.84a1.34,1.34,0,0,0,.78,1.29,9.36,9.36,0,0,0,2.48.67,7.91,7.91,0,0,1,3.67,1.38,3.48,3.48,0,0,1,1.17,2.86,3.92,3.92,0,0,1-.42,1.83,4.07,4.07,0,0,1-1.17,1.38,5.65,5.65,0,0,1-1.79.88,7.81,7.81,0,0,1-2.26.31,7.63,7.63,0,0,1-2.38-.35,5.66,5.66,0,0,1-1.8-.93,4.28,4.28,0,0,1-1.16-1.36,3.67,3.67,0,0,1-.46-1.62l3-.48a2.52,2.52,0,0,0,.79,1.67,2.84,2.84,0,0,0,2,.65,4.68,4.68,0,0,0,1-.1,2.61,2.61,0,0,0,.82-.33,1.76,1.76,0,0,0,.55-.57,1.63,1.63,0,0,0,.2-.82,1.35,1.35,0,0,0-.65-1.2,6.38,6.38,0,0,0-2.29-.68,15.39,15.39,0,0,1-2-.46,5.47,5.47,0,0,1-1.63-.77,3.51,3.51,0,0,1-1.08-1.22,3.76,3.76,0,0,1-.39-1.79,3.93,3.93,0,0,1,.4-1.84,3.62,3.62,0,0,1,1.12-1.31,4.94,4.94,0,0,1,1.7-.79,8.42,8.42,0,0,1,2.14-.26,7.71,7.71,0,0,1,2,.25,5.62,5.62,0,0,1,1.67.74,4.35,4.35,0,0,1,1.87,2.85l-3,.66a2.45,2.45,0,0,0-.82-1.52,2.69,2.69,0,0,0-1.78-.56,2.76,2.76,0,0,0-1.69.42A1.33,1.33,0,0,0,146.51,237.84Z"/><path class="cls-1" d="M159.27,234.16h3v14h-3Z"/><path class="cls-1" d="M167.55,234.16h3v11.5h6.12v2.5h-9.12Z"/><path class="cls-1" d="M180.87,234.16h3v14h-3Z"/><path class="cls-1" d="M189.15,248.16v-14h9.54v2.48h-6.58v3.08h6.12v2.48h-6.12v3.48h6.68v2.48Z"/><path class="cls-1" d="M203.43,234.16h3.12l2.32,3.76,1.08,1.75.84,1.37.8,1.29.64,1h.06v-9.2h2.84v14H212l-2.28-3.7-1.07-1.73c-.29-.46-.57-.92-.85-1.38L207,240l-.67-1.07h-.06v9.2h-2.84Z"/><path class="cls-1" d="M219.83,241.16a9.12,9.12,0,0,1,.48-3.07,6.33,6.33,0,0,1,1.37-2.29,5.75,5.75,0,0,1,2.16-1.43,7.74,7.74,0,0,1,2.85-.49,6.85,6.85,0,0,1,3.76,1,5.35,5.35,0,0,1,2.16,3l-2.92,1a3.92,3.92,0,0,0-1.08-1.83,2.86,2.86,0,0,0-2-.65,3.46,3.46,0,0,0-1.62.36,3.18,3.18,0,0,0-1.16,1,4.28,4.28,0,0,0-.69,1.51,7.32,7.32,0,0,0-.23,1.92,7.2,7.2,0,0,0,.23,1.91,4.45,4.45,0,0,0,.69,1.51,3.12,3.12,0,0,0,1.16,1,3.51,3.51,0,0,0,1.64.36,2.94,2.94,0,0,0,1.89-.58,3.67,3.67,0,0,0,1.11-1.76l2.88,1a6,6,0,0,1-2.16,2.8,6.44,6.44,0,0,1-3.76,1,7.5,7.5,0,0,1-2.79-.49,5.86,5.86,0,0,1-2.14-1.42,6.17,6.17,0,0,1-1.37-2.29A9.22,9.22,0,0,1,219.83,241.16Z"/><path class="cls-1" d="M237,248.16v-14h9.54v2.48H240v3.08h6.12v2.48H240v3.48h6.68v2.48Z"/></g><g id="LINE_TWO" data-name="LINE TWO"><path class="cls-3" d="M244.56,140.83h2c10.43,0,20.85,0,31.27,0,3,0,4.8,2.18,4,4.72-.62,2-2,2.69-4.06,2.69-10.29,0-20.57,0-30.86,0h-2.62a12.14,12.14,0,0,0,1,1.43c1.95,2,4,3.94,5.9,5.94s2,4,.42,5.61-3.66,1.65-5.58-.23c-5-4.91-9.92-9.9-14.88-14.86-1.14-1.13-1.1-2.18.06-3.33,5-4.93,9.91-9.92,14.89-14.85,1.74-1.73,3.86-1.77,5.43-.22s1.56,3.7-.17,5.46c-2.33,2.36-4.8,4.59-7.2,6.88Z"/><path class="cls-3" d="M115.84,140.27l-7-6.71c-1.42-1.37-2-3-1-4.8,1.2-2.35,4-2.67,6.19-.58,4.25,4.13,8.39,8.36,12.6,12.53,4.39,4.35,4,3.85,0,7.85-4.17,4.21-8.38,8.37-12.58,12.55-1.81,1.8-4,1.92-5.61.34s-1.52-3.68.22-5.47c2.32-2.38,4.75-4.64,7.13-6.95l-.25-.54c-1,0-2-.12-2.94-.12-9.88,0-19.76,0-29.64,0a6.66,6.66,0,0,1-2.8-.37,3.45,3.45,0,0,1-2-4c.38-1.93,1.78-3,4-3,7.15,0,14.31,0,21.46,0h11.82Z"/><path class="cls-4" d="M211.08,141.51c0-15,3.94-32.22,11.54-48.63a12.75,12.75,0,0,1,.66-1.27c.64-1,1.67-1.77,2.67-.92a3.09,3.09,0,0,1,.85,2.7c-1,2.75-2.34,5.36-3.41,8.07a115.55,115.55,0,0,0-8.19,46.7,116.74,116.74,0,0,0,11.14,46.3c.14.31.31.6.45.91.5,1.19.55,2.36-.74,3s-2.41,0-3-1.28c-1.71-4-3.54-8-5-12.06C213.44,172,211.1,158.5,211.08,141.51Z"/><path class="cls-4" d="M197.65,144.61A302.13,302.13,0,0,1,201,93.71c.21-1.47.73-2.84,2.5-2.55s1.77,1.67,1.55,3.18a327.41,327.41,0,0,0-3.27,67.23c.68,11.2,2.13,22.35,3.31,33.52.15,1.47.1,2.71-1.5,3-1.79.37-2.42-1-2.57-2.43-1.14-11.17-2.42-22.33-3.27-33.53C197.29,156.35,197.65,150.46,197.65,144.61Z"/><path class="cls-4" d="M188.6,144.57v50.29c0,.62.2,1.35-.07,1.82-.41.73-1.17,1.84-1.71,1.8-.78-.06-1.61-.91-2.17-1.62-.3-.38-.09-1.18-.09-1.8q0-50.59,0-101.2c0-.61-.2-1.4.09-1.8.51-.69,1.36-1.6,2-1.57s1.43,1,1.81,1.77a5.42,5.42,0,0,1,.1,2.22v50.09Z"/><path class="cls-4" d="M149.08,141.51c0-15-3.94-32.22-11.54-48.64a11.6,11.6,0,0,0-.66-1.26c-.64-1-1.67-1.77-2.67-.93a3.1,3.1,0,0,0-.85,2.7c1,2.76,2.33,5.36,3.41,8.08A115.7,115.7,0,0,1,145,148.15a116.7,116.7,0,0,1-11.14,46.3c-.14.31-.31.61-.45.92-.5,1.19-.55,2.35.74,3s2.41,0,3-1.28c1.71-4,3.53-8,5-12.06C146.72,172,149.06,158.5,149.08,141.51Z"/><path class="cls-4" d="M162.51,144.6a303.13,303.13,0,0,0-3.32-50.89c-.21-1.47-.74-2.84-2.5-2.56s-1.77,1.67-1.55,3.18a327.48,327.48,0,0,1,3.27,67.23c-.68,11.2-2.13,22.36-3.31,33.52-.15,1.47-.1,2.72,1.5,3,1.79.36,2.42-1,2.57-2.43,1.13-11.18,2.42-22.34,3.26-33.53C162.87,156.34,162.51,150.46,162.51,144.6Z"/><path class="cls-4" d="M171.55,144.56q0,25.16,0,50.3c0,.61-.2,1.34.07,1.81.41.74,1.17,1.85,1.71,1.8a3.84,3.84,0,0,0,2.17-1.61c.3-.39.09-1.19.09-1.8q0-50.61,0-101.21c0-.61.2-1.39-.1-1.8-.51-.69-1.35-1.59-2-1.57s-1.43,1-1.81,1.78a5.37,5.37,0,0,0-.1,2.21q0,25.05,0,50.09Z"/></g></svg>