<svg xmlns="http://www.w3.org/2000/svg" viewBox="0 0 360 360"><defs><style>.cls-1{fill:#fff;}.cls-2{fill:none;stroke:#fff;stroke-linecap:round;stroke-miterlimit:10;stroke-width:4px;}</style></defs><title>CARD</title><g id="Layer_6" data-name="Layer 6"><rect x="-3" width="360" height="360"/></g><g id="LINE_ONE" data-name="LINE ONE"><path class="cls-1" d="M126.71,237.84a1.34,1.34,0,0,0,.78,1.29,9.48,9.48,0,0,0,2.48.67,7.86,7.86,0,0,1,3.67,1.38,3.48,3.48,0,0,1,1.17,2.86,3.92,3.92,0,0,1-.42,1.83,4.07,4.07,0,0,1-1.17,1.38,5.54,5.54,0,0,1-1.79.88,7.77,7.77,0,0,1-2.26.31,7.68,7.68,0,0,1-2.38-.35,5.66,5.66,0,0,1-1.8-.93,4.41,4.41,0,0,1-1.16-1.36,3.81,3.81,0,0,1-.46-1.62l3-.48a2.56,2.56,0,0,0,.79,1.67,2.84,2.84,0,0,0,2,.65,4.61,4.61,0,0,0,1-.1,2.52,2.52,0,0,0,.82-.33,1.66,1.66,0,0,0,.55-.57,1.63,1.63,0,0,0,.2-.82,1.35,1.35,0,0,0-.65-1.2,6.31,6.31,0,0,0-2.29-.68,16.15,16.15,0,0,1-2-.46,5.47,5.47,0,0,1-1.63-.77,3.51,3.51,0,0,1-1.08-1.22,3.76,3.76,0,0,1-.39-1.79,3.93,3.93,0,0,1,.4-1.84,3.72,3.72,0,0,1,1.12-1.31,5,5,0,0,1,1.7-.79,8.54,8.54,0,0,1,2.14-.26,7.71,7.71,0,0,1,2,.25,5.51,5.51,0,0,1,1.67.74,4.36,4.36,0,0,1,1.21,1.21,4.49,4.49,0,0,1,.66,1.64l-3,.66a2.45,2.45,0,0,0-.82-1.52,2.67,2.67,0,0,0-1.78-.56,2.78,2.78,0,0,0-1.69.42A1.33,1.33,0,0,0,126.71,237.84Z"/><path class="cls-1" d="M139.47,248.16v-14H149v2.48h-6.58v3.08h6.12v2.48h-6.12v3.48h6.68v2.48Z"/><path class="cls-1" d="M153.17,241.16a9.12,9.12,0,0,1,.48-3.07A6.47,6.47,0,0,1,155,235.8a5.75,5.75,0,0,1,2.16-1.43,7.82,7.82,0,0,1,2.85-.49,6.83,6.83,0,0,1,3.76,1,5.35,5.35,0,0,1,2.16,3l-2.92,1A3.92,3.92,0,0,0,162,237a2.86,2.86,0,0,0-2-.65,3.51,3.51,0,0,0-1.62.36,3.26,3.26,0,0,0-1.16,1,4.28,4.28,0,0,0-.69,1.51,7.77,7.77,0,0,0-.23,1.92,7.63,7.63,0,0,0,.23,1.91,4.45,4.45,0,0,0,.69,1.51,3.19,3.19,0,0,0,1.16,1,3.54,3.54,0,0,0,1.64.36,2.94,2.94,0,0,0,1.89-.58A3.53,3.53,0,0,0,163,243.6l2.88,1a6,6,0,0,1-2.16,2.8,6.42,6.42,0,0,1-3.76,1,7.5,7.5,0,0,1-2.79-.49,5.94,5.94,0,0,1-2.14-1.42,6.3,6.3,0,0,1-1.37-2.29A9.22,9.22,0,0,1,153.17,241.16Z"/><path class="cls-1" d="M175.87,248.44a5.56,5.56,0,0,1-4.26-1.44,5.65,5.65,0,0,1-1.34-4v-8.84h3V243a3.33,3.33,0,0,0,.64,2.11,2.73,2.73,0,0,0,3.92,0,3.33,3.33,0,0,0,.64-2.11v-8.86h3V243a5.65,5.65,0,0,1-1.34,4A5.56,5.56,0,0,1,175.87,248.44Z"/><path class="cls-1" d="M197.15,238.42a3.94,3.94,0,0,1-2.66,4l3.22,5.74h-3.3l-2.9-5.3h-1.86v5.3h-3v-14h5.12a8.89,8.89,0,0,1,2.21.25,4.78,4.78,0,0,1,1.69.77,3.46,3.46,0,0,1,1.08,1.32A4.47,4.47,0,0,1,197.15,238.42Zm-3.08,0a1.51,1.51,0,0,0-.65-1.41,3.91,3.91,0,0,0-2-.39h-1.8v3.78h1.8a3.48,3.48,0,0,0,2-.45A1.74,1.74,0,0,0,194.07,238.44Z"/><path class="cls-1" d="M202.19,234.16h3v14h-3Z"/><path class="cls-1" d="M209.41,234.16h11.1v2.5h-4v11.5h-3v-11.5h-4Z"/><path class="cls-1" d="M229,242.3l-5.3-8.14h3.44l3.42,5.36,3.4-5.36h3.34L232,242.3v5.86h-3Z"/></g><g id="ICON"><path class="cls-1" d="M141.29,142.94c-10.22,0-20.13-.05-30,.06-1.16,0-2.31.94-3.46,1.44l-.11,1c1.58.49,3.16,1.4,4.75,1.43q12.38.21,24.74,0a2.67,2.67,0,0,1,3.1,2.31c.65,2.51,1.35,5,2.23,8.22-9.83,0-19.37,0-28.9,0-2.55,0-5.1-.39-7.65-.46-3.48-.08-5.8-2.25-7.37-4.79-3.49-5.61-2.73-14.11,3.74-17.82a9.81,9.81,0,0,1,4.37-1.33c11.21-.27,22.43-.48,33.64-.52,6.22,0,12.45.13,18.65.52a10.92,10.92,0,0,1,9.9,10.39c.08,3.34,0,6.61-2.47,9.25-1.95,2-4,2.53-6.43,1a16.83,16.83,0,0,1-4-3.61c-1.83-2.21.59-3.71,1.33-5.76a17.83,17.83,0,0,1-2.29-.59c-1.92-.77-2.29.33-2.11,1.79.73,6,4.37,10.65,11.22,10.49,10.9-.25,21.82-.06,32.74-.07a9.85,9.85,0,0,0,10-8.61c.18-1.19.38-2.38.67-4.18l-4.62,1.34a3.07,3.07,0,0,0,.06.7c.65,1.43,2.81,2.38,1.39,4.46-1.76,2.59-3.69,5.07-7.22,4.71a6.21,6.21,0,0,1-5.67-4.76,14.07,14.07,0,0,1,2-12.38,9.61,9.61,0,0,1,7.69-4.24c11.38-.26,22.76-.46,34.14-.5,6.22,0,12.44.26,18.65.48,4,.14,8.78,4.62,9.31,9.13.63,5.3-.16,10.37-5.3,13.32a14.42,14.42,0,0,1-6.69,1.93c-10.83.19-21.66.08-32.49.07a7.09,7.09,0,0,1-1.09-.22c1-3.43,1.9-6.81,2.86-10.25,8.41,0,16.66.1,24.9-.06,2.16,0,4.31-.87,6.46-1.34l0-1.14c-1.9-.49-3.79-1.37-5.69-1.41-8.41-.15-16.83,0-25.24-.11-2.08,0-2.7.61-2.71,2.7-.08,11.39-9,20.83-19.7,21.28-11.37.48-22.76.6-34.14.49-6.37-.06-12.22-2-16.63-7.15-3.48-4.08-4.93-8.91-6-14C141.68,145.2,141.51,144.16,141.29,142.94Z"/><path class="cls-1" d="M210.62,130c-3.66.46-7.15.59-10.47,1.42-2.37.59-4.49,2.15-6.76,3.19a9.75,9.75,0,0,1-3.58,1.24c-5.24.13-10.5.19-15.74,0a23.63,23.63,0,0,1-10.7-3c-2.42-1.33-5.38-1.71-8.13-2.4-1.39-.34-2.85-.42-4.27-.63l-.25-.75c1.76-.82,3.45-2,5.3-2.38,5-.94,10-1.56,15-2.23a34.44,34.44,0,0,1,6.39-.47c5.91.34,11.81.87,17.72,1.36a35.34,35.34,0,0,1,14.73,4.11A8,8,0,0,1,210.62,130Z"/><line class="cls-2" x1="185.33" y1="102.98" x2="186.79" y2="89.73"/><line class="cls-2" x1="198.47" y1="106.36" x2="203.3" y2="93.93"/><line class="cls-2" x1="209.52" y1="112.83" x2="217.54" y2="102.17"/><line class="cls-2" x1="217.88" y1="121.76" x2="228.25" y2="113.36"/><line class="cls-2" x1="174.67" y1="103.01" x2="173.21" y2="89.75"/><line class="cls-2" x1="161.53" y1="106.39" x2="156.7" y2="93.96"/><line class="cls-2" x1="150.48" y1="112.86" x2="142.46" y2="102.2"/><line class="cls-2" x1="142.12" y1="121.79" x2="131.75" y2="113.39"/><line class="cls-2" x1="174.67" y1="184.01" x2="173.21" y2="197.27"/><line class="cls-2" x1="161.53" y1="180.63" x2="156.7" y2="193.07"/><line class="cls-2" x1="150.48" y1="174.17" x2="142.46" y2="184.83"/><line class="cls-2" x1="142.12" y1="165.24" x2="131.75" y2="173.63"/><line class="cls-2" x1="185.33" y1="183.99" x2="186.79" y2="197.24"/><line class="cls-2" x1="198.47" y1="180.61" x2="203.3" y2="193.04"/><line class="cls-2" x1="209.52" y1="174.14" x2="217.54" y2="184.8"/><line class="cls-2" x1="217.88" y1="165.21" x2="228.25" y2="173.61"/></g></svg>