<?xml version="1.0" encoding="utf-8"?>
<!-- Generator: Adobe Illustrator 23.1.0, SVG Export Plug-In . SVG Version: 6.00 Build 0)  -->
<svg version="1.1" xmlns="http://www.w3.org/2000/svg" xmlns:xlink="http://www.w3.org/1999/xlink" x="0px" y="0px"
	 viewBox="0 0 360 360" enable-background="new 0 0 360 360" xml:space="preserve">
<g id="BACKGROUND">
	<rect width="360" height="360"/>
</g>
<g id="REF" display="none">
	
		<rect x="-360" y="90.33" display="inline" fill="none" stroke="#000000" stroke-width="0.25" stroke-miterlimit="10" width="360" height="108"/>
	
		<rect y="90.33" display="inline" fill="none" stroke="#FFFFFF" stroke-width="0.25" stroke-miterlimit="10" width="360" height="108"/>
	
		<line display="inline" fill="none" stroke="#FFFFFF" stroke-width="0.25" stroke-linecap="round" stroke-miterlimit="10" x1="180" y1="0.19" x2="180" y2="360.06"/>
</g>
<g id="LINE_ONE">
	<g>
		<path fill="#FFFFFF" d="M111.2,248.16v-14h9.58v2.48h-6.62v3.08h6.1v2.48h-6.1v5.96H111.2z"/>
		<path fill="#FFFFFF" d="M125.26,234.16h3v11.5h6.12v2.5h-9.12V234.16z"/>
		<path fill="#FFFFFF" d="M138.58,248.16v-14h9.54v2.48h-6.58v3.08h6.12v2.48h-6.12v3.48h6.68v2.48H138.58z"/>
		<path fill="#FFFFFF" d="M160.3,240.82l5.18,7.34h-3.6l-3.38-4.86l-3.44,4.86h-3.36l5.14-7.2l-4.74-6.8h3.62l2.94,4.32l3.04-4.32
			h3.38L160.3,240.82z"/>
		<path fill="#FFFFFF" d="M169.6,234.16h3v14h-3V234.16z"/>
		<path fill="#FFFFFF" d="M177.88,234.16h6.08c0.65,0,1.24,0.09,1.75,0.28c0.51,0.19,0.95,0.44,1.3,0.77
			c0.35,0.33,0.62,0.71,0.81,1.16c0.19,0.45,0.28,0.93,0.28,1.45c0,0.43-0.06,0.81-0.18,1.14c-0.12,0.33-0.28,0.62-0.47,0.87
			c-0.19,0.25-0.41,0.45-0.66,0.62c-0.25,0.17-0.5,0.3-0.77,0.39c0.31,0.04,0.62,0.13,0.93,0.26c0.31,0.13,0.6,0.32,0.87,0.57
			c0.27,0.25,0.48,0.56,0.65,0.93c0.17,0.37,0.25,0.83,0.25,1.38c0,0.6-0.11,1.16-0.34,1.67c-0.23,0.51-0.54,0.95-0.94,1.32
			c-0.4,0.37-0.87,0.66-1.42,0.87c-0.55,0.21-1.15,0.32-1.8,0.32h-6.34V234.16z M180.8,236.6v3.24h2.1c0.72,0,1.25-0.12,1.6-0.36
			c0.35-0.24,0.52-0.67,0.52-1.3c0-0.57-0.15-0.98-0.45-1.22c-0.3-0.24-0.8-0.36-1.51-0.36H180.8z M180.8,245.72h2.4
			c0.95,0,1.59-0.15,1.93-0.45c0.34-0.3,0.51-0.74,0.51-1.31c0-0.68-0.21-1.14-0.62-1.37c-0.41-0.23-1.03-0.35-1.86-0.35h-2.36
			V245.72z"/>
		<path fill="#FFFFFF" d="M193.38,234.16h3v14h-3V234.16z"/>
		<path fill="#FFFFFF" d="M201.66,234.16h3v11.5h6.12v2.5h-9.12V234.16z"/>
		<path fill="#FFFFFF" d="M214.98,234.16h3v14h-3V234.16z"/>
		<path fill="#FFFFFF" d="M222.2,234.16h11.1v2.5h-4.04v11.5h-3.02v-11.5h-4.04V234.16z"/>
		<path fill="#FFFFFF" d="M241.76,242.3l-5.3-8.14h3.44l3.42,5.36l3.4-5.36h3.34l-5.3,8.14v5.86h-3V242.3z"/>
	</g>
	<g>
		<path stroke="#FFFFFF" stroke-width="3" stroke-miterlimit="10" d="M232.78,144.72c0,0-3.33-49.74-12.73-56.27
			c0,0-10.61,7.35-3.32,54.81"/>
		<path stroke="#FFFFFF" stroke-miterlimit="10" d="M215.42,145.08c0,0-5.01-7.74-9.87-12.65c-4.86-4.91-11.86-5.65-11.86-5.65
			c-13.94-10.97-10.63-19.16-10.63-19.16l14.01,15.19c4.51,0.32,6.71,3.15,6.71,3.15l16.6,17.08L215.42,145.08z"/>
		<path stroke="#FFFFFF" stroke-linejoin="round" stroke-miterlimit="10" d="M118.88,167l5.14,12.42l20.56,4.11l2.96-7.79
			L135.66,169l-0.14-0.08l-4.6,1.9l0.8,1.94l3.05-1.26c0,0,5.9,2.74-0.84,5.37c0,0-6.72,1.27-7.32-3.22L118.88,167z"/>
		<path stroke="#FFFFFF" stroke-miterlimit="10" d="M149.13,172.51l-25.32-27.89c0,0-2.2-6.56,5.74-4.18l0.24,3.38l3.37,0.6
			l0.22,3.64l3.41,0.46l0.23,3.44l3.3,0.66l0.24,3.54l3.49,0.42l0.22,3.48l3.35,0.55l0.24,3.54l3.38,0.63l0.18,3.31l2.25,2.55
			L149.13,172.51z"/>
		<path stroke="#FFFFFF" stroke-width="2" stroke-miterlimit="10" d="M156.56,169.76l-8.9-43.44c0,0-0.92-3.93,2.75-4.87
			c3.67-0.94,4.72,3,4.72,3l8.91,42.41L156.56,169.76z"/>
		<path fill="none" stroke="#FFFFFF" stroke-miterlimit="10" d="M200.95,144.5c0,0,0.2-2.45-0.94-9.27
			c-1.14-6.82,3.76-13.62,3.76-13.62c-0.75-17.72-9.33-19.83-9.33-19.83l4.13,20.25c-2.38,3.85-2.38,8.02-2.38,8.02l1.39,12.23
			C197.59,142.28,197.3,144.14,200.95,144.5z"/>
		<g>
			<path fill="#FFFFFF" d="M224.5,145.23c4.33,0,8.2,2.59,9.86,6.59c2.25,5.43-0.34,11.68-5.77,13.93l-66.89,27.68
				c-1.31,0.54-2.68,0.81-4.07,0.81c-4.33,0-8.2-2.59-9.86-6.59c-2.25-5.43,0.34-11.68,5.77-13.93l66.89-27.68
				C221.73,145.51,223.1,145.23,224.5,145.23 M224.5,141.23c-1.87,0-3.77,0.36-5.6,1.12L152,170.03
				c-7.48,3.1-11.04,11.67-7.94,19.16c2.34,5.65,7.8,9.06,13.55,9.06c1.87,0,3.77-0.36,5.6-1.12l66.89-27.68
				c7.48-3.1,11.04-11.67,7.94-19.16C235.71,144.64,230.25,141.23,224.5,141.23L224.5,141.23z"/>
		</g>
		<g>
			<circle fill="#FFFFFF" cx="224.08" cy="156.08" r="4.35"/>
		</g>
		<path fill="none" stroke="#FFFFFF" stroke-width="3" stroke-miterlimit="10" d="M235.1,146.8c2.22-0.92,4.76,0.14,5.68,2.36
			c0.92,2.22-0.14,4.76-2.36,5.68"/>
		<g>
			<circle fill="#FFFFFF" cx="199.36" cy="125.72" r="0.77"/>
		</g>
		<polyline fill="none" stroke="#FFFFFF" stroke-linejoin="round" stroke-miterlimit="10" points="166.33,128.34 163.87,131.97 
			167.86,132.05 166.13,136.41 170.61,136.52 168.22,140.37 172.53,140.52 170.57,144.58 174.78,144.58 172.79,148.55 
			177.11,148.64 175.41,152.2 		"/>
		<line fill="none" stroke="#FFFFFF" stroke-miterlimit="10" x1="148.51" y1="130.47" x2="155.36" y2="125.58"/>
		<line fill="none" stroke="#FFFFFF" stroke-miterlimit="10" x1="149.24" y1="134.04" x2="156.09" y2="129.14"/>
		<line fill="none" stroke="#FFFFFF" stroke-miterlimit="10" x1="149.97" y1="137.6" x2="156.82" y2="132.7"/>
		<line fill="none" stroke="#FFFFFF" stroke-miterlimit="10" x1="150.7" y1="141.16" x2="157.55" y2="136.26"/>
		<line fill="none" stroke="#FFFFFF" stroke-miterlimit="10" x1="151.43" y1="144.72" x2="158.28" y2="139.83"/>
		<line fill="none" stroke="#FFFFFF" stroke-miterlimit="10" x1="152.16" y1="148.28" x2="159.01" y2="143.39"/>
		<line fill="none" stroke="#FFFFFF" stroke-miterlimit="10" x1="152.89" y1="151.84" x2="159.74" y2="146.95"/>
		<line fill="none" stroke="#FFFFFF" stroke-miterlimit="10" x1="153.62" y1="155.4" x2="160.47" y2="150.51"/>
		<line fill="none" stroke="#FFFFFF" stroke-miterlimit="10" x1="154.35" y1="158.96" x2="161.2" y2="154.07"/>
		<line fill="none" stroke="#FFFFFF" stroke-miterlimit="10" x1="155.08" y1="162.52" x2="161.93" y2="157.63"/>
		<path stroke="#FFFFFF" stroke-width="3" stroke-miterlimit="10" d="M178.75,160.77l-4.52-8.46c0,0,5.37-3.93,8.75,6.2
			L178.75,160.77z"/>
		<path stroke="#FFFFFF" stroke-miterlimit="10" d="M222.5,91.29c0,0-9.53,8.97-2.13,51.74"/>
	</g>
</g>
<g id="LINE_TWO">
</g>
<g id="ICON">
</g>
</svg>
