<svg xmlns="http://www.w3.org/2000/svg" viewBox="0 0 360 360"><defs><style>.cls-1{fill:#ef3f25;}.cls-2{fill:#fff;}.cls-3{fill:#ef4025;}.cls-4,.cls-5,.cls-6{fill:none;stroke:#ef4025;stroke-miterlimit:10;}.cls-4{stroke-width:2.24px;}.cls-5{stroke-width:2px;}.cls-6{stroke-width:1.43px;}</style></defs><title>CARD</title><g id="BACKGROUND"><rect class="cls-1" y="336.06" width="360" height="23.94"/><path class="cls-2" d="M162.39,352.49v-8.4h5.72v1.49h-3.94v1.84h3.67v1.49h-3.67V351h4v1.49Z"/><path class="cls-2" d="M171,344.09h3.13a4.94,4.94,0,0,1,1.73.28,3.55,3.55,0,0,1,1.29.81,3.42,3.42,0,0,1,.81,1.32,5.67,5.67,0,0,1,0,3.58,3.45,3.45,0,0,1-.81,1.31,3.3,3.3,0,0,1-1.29.81,4.94,4.94,0,0,1-1.73.29H171Zm5.39,4.2a4.21,4.21,0,0,0-.14-1.11,2.31,2.31,0,0,0-.42-.86,1.87,1.87,0,0,0-.72-.55,2.46,2.46,0,0,0-1-.19h-1.27V351H174a2.63,2.63,0,0,0,1-.19,1.87,1.87,0,0,0,.72-.55,2.47,2.47,0,0,0,.42-.86A4.27,4.27,0,0,0,176.35,348.29Z"/><path class="cls-2" d="M184.34,352.66a3.34,3.34,0,0,1-2.56-.87,3.41,3.41,0,0,1-.8-2.4v-5.3h1.8v5.31a2,2,0,0,0,.38,1.27,1.41,1.41,0,0,0,1.18.5,1.38,1.38,0,0,0,1.17-.5,2,2,0,0,0,.39-1.27v-5.31h1.8v5.3a3.37,3.37,0,0,1-.81,2.4A3.3,3.3,0,0,1,184.34,352.66Z"/><path class="cls-2" d="M190.47,348.29a5.61,5.61,0,0,1,.29-1.85,3.85,3.85,0,0,1,.82-1.37,3.52,3.52,0,0,1,1.3-.86,4.79,4.79,0,0,1,1.71-.29,4,4,0,0,1,2.25.59,3.22,3.22,0,0,1,1.3,1.78l-1.75.62a2.37,2.37,0,0,0-.65-1.1,1.72,1.72,0,0,0-1.19-.39,2,2,0,0,0-1.67.81,2.63,2.63,0,0,0-.41.91,4.59,4.59,0,0,0-.14,1.15,4.51,4.51,0,0,0,.14,1.14,2.81,2.81,0,0,0,.41.91,2.13,2.13,0,0,0,.7.6,2.18,2.18,0,0,0,1,.22,1.8,1.8,0,0,0,1.14-.35,2.15,2.15,0,0,0,.66-1.06l1.73.61a3.49,3.49,0,0,1-1.3,1.68,3.81,3.81,0,0,1-2.25.62,4.49,4.49,0,0,1-1.68-.3,3.5,3.5,0,0,1-1.28-.85,3.69,3.69,0,0,1-.82-1.37A5.61,5.61,0,0,1,190.47,348.29Z"/><path class="cls-2" d="M208.07,352.49h-1.86l-.67-1.95h-3l-.67,1.95h-1.77l3-8.4h1.93Zm-4-6.43-.09.28-.13.42-.16.5c-.06.18-.12.35-.17.52l-.45,1.33h2c-.16-.47-.31-.91-.44-1.33-.09-.24-.16-.44-.21-.59s-.1-.31-.15-.45-.08-.28-.12-.4l-.09-.28Z"/><path class="cls-2" d="M209,344.09h6.66v1.5H213.2v6.9h-1.81v-6.9H209Z"/><path class="cls-2" d="M218.15,344.09H220v8.4h-1.8Z"/><path class="cls-2" d="M222.77,348.29a5.24,5.24,0,0,1,.3-1.83,3.83,3.83,0,0,1,.83-1.38,3.52,3.52,0,0,1,1.29-.86,4.49,4.49,0,0,1,1.68-.3,4.56,4.56,0,0,1,1.68.3,3.7,3.7,0,0,1,1.29.86,4,4,0,0,1,.82,1.38,5.73,5.73,0,0,1,0,3.66,3.91,3.91,0,0,1-.82,1.37,3.44,3.44,0,0,1-1.29.86,4.37,4.37,0,0,1-1.68.31,4.3,4.3,0,0,1-1.68-.31,3.29,3.29,0,0,1-1.29-.86,3.79,3.79,0,0,1-.83-1.37A5.24,5.24,0,0,1,222.77,348.29Zm1.86,0a4.81,4.81,0,0,0,.14,1.17,2.54,2.54,0,0,0,.42.91,1.88,1.88,0,0,0,.69.59,2.42,2.42,0,0,0,2,0,2,2,0,0,0,.7-.59,2.72,2.72,0,0,0,.41-.91,4.81,4.81,0,0,0,.14-1.17,4.69,4.69,0,0,0-.14-1.17,2.77,2.77,0,0,0-.41-.92,2,2,0,0,0-.7-.58,2.42,2.42,0,0,0-2,0,1.85,1.85,0,0,0-.69.58,2.59,2.59,0,0,0-.42.92A4.69,4.69,0,0,0,224.63,348.29Z"/><path class="cls-2" d="M233.78,344.09h1.87l1.39,2.25.65,1.05.5.82.48.78c.16.24.28.45.39.62h0v-5.52h1.71v8.4h-1.87l-1.37-2.22-.64-1c-.18-.28-.35-.55-.51-.83l-.49-.79-.4-.64h0v5.52h-1.7Z"/><path class="cls-2" d="M251.26,352.49H249.4l-.67-1.95h-3l-.67,1.95h-1.77l3-8.4h1.93Zm-4-6.43-.09.28-.13.42-.16.5-.18.52c-.13.42-.28.86-.44,1.33h2l-.45-1.33c-.08-.24-.15-.44-.21-.59s-.1-.31-.14-.45-.09-.28-.13-.4l-.08-.28Z"/><path class="cls-2" d="M253.75,344.09h1.8V351h3.67v1.5h-5.47Z"/><path class="cls-2" d="M265.76,352.49v-8.4h5.72v1.49h-4v1.84h3.68v1.49h-3.68V351h4v1.49Z"/><path class="cls-2" d="M278.79,348.08l3.11,4.41h-2.16l-2-2.92-2.07,2.92h-2l3.08-4.32-2.84-4.08H276l1.77,2.59,1.82-2.59h2Z"/><path class="cls-2" d="M286.16,349.53v3h-1.79v-8.4h3.19a5.81,5.81,0,0,1,1.37.15,3.12,3.12,0,0,1,1,.48,2.18,2.18,0,0,1,.67.83,2.67,2.67,0,0,1,.25,1.21,3,3,0,0,1-.25,1.25,2.39,2.39,0,0,1-.68.86,3,3,0,0,1-1,.5,5.21,5.21,0,0,1-1.35.16Zm2.89-2.77a1,1,0,0,0-.41-.93,2.48,2.48,0,0,0-1.26-.25h-1.22v2.47h1.22a2.17,2.17,0,0,0,1.26-.3A1.15,1.15,0,0,0,289.05,346.76Z"/><path class="cls-2" d="M293.52,352.49v-8.4h5.73v1.49H295.3v1.84H299v1.49H295.3V351h4v1.49Z"/><path class="cls-2" d="M308.38,346.64a2.52,2.52,0,0,1-.43,1.53,2.48,2.48,0,0,1-1.17.87l1.94,3.45h-2L305,349.31h-1.12v3.18h-1.79v-8.4h3.07a5.41,5.41,0,0,1,1.33.15,2.81,2.81,0,0,1,1,.46,2.15,2.15,0,0,1,.64.79A2.54,2.54,0,0,1,308.38,346.64Zm-1.85,0a.9.9,0,0,0-.39-.85,2.3,2.3,0,0,0-1.18-.23h-1.08v2.26H305a2.08,2.08,0,0,0,1.18-.27A1,1,0,0,0,306.53,346.66Z"/><path class="cls-2" d="M311.41,344.09h1.8v8.4h-1.8Z"/><path class="cls-2" d="M316.37,352.49v-8.4h5.73v1.49h-4v1.84h3.67v1.49h-3.67V351h4v1.49Z"/><path class="cls-2" d="M324.94,344.09h1.87l1.4,2.25.64,1.05.51.82.48.78.38.62h0v-5.52H332v8.4h-1.87l-1.37-2.22c-.25-.42-.47-.76-.64-1l-.51-.83-.49-.79c-.15-.25-.29-.47-.4-.64h0v5.52h-1.71Z"/><path class="cls-2" d="M334.78,348.29a5.61,5.61,0,0,1,.29-1.85,3.85,3.85,0,0,1,.82-1.37,3.52,3.52,0,0,1,1.3-.86,4.83,4.83,0,0,1,1.71-.29,4,4,0,0,1,2.25.59,3.22,3.22,0,0,1,1.3,1.78l-1.75.62a2.37,2.37,0,0,0-.65-1.1,1.72,1.72,0,0,0-1.19-.39,2,2,0,0,0-1.67.81,2.63,2.63,0,0,0-.41.91,4.59,4.59,0,0,0-.14,1.15,4.51,4.51,0,0,0,.14,1.14,2.81,2.81,0,0,0,.41.91,2.13,2.13,0,0,0,.7.6,2.18,2.18,0,0,0,1,.22,1.78,1.78,0,0,0,1.14-.35,2.15,2.15,0,0,0,.66-1.06l1.73.61a3.49,3.49,0,0,1-1.3,1.68,3.81,3.81,0,0,1-2.25.62,4.44,4.44,0,0,1-1.67-.3,3.54,3.54,0,0,1-1.29-.85,3.69,3.69,0,0,1-.82-1.37A5.61,5.61,0,0,1,334.78,348.29Z"/><path class="cls-2" d="M345.09,352.49v-8.4h5.72v1.49h-3.95v1.84h3.68v1.49h-3.68V351h4v1.49Z"/></g><g id="LINE_ONE" data-name="LINE ONE"><path class="cls-1" d="M65.58,243.24v4.92h-3v-14h5.32a9.4,9.4,0,0,1,2.28.26,4.81,4.81,0,0,1,1.74.8,3.7,3.7,0,0,1,1.12,1.38,4.75,4.75,0,0,1,.4,2,4.87,4.87,0,0,1-.41,2.07,4.05,4.05,0,0,1-1.14,1.44,4.83,4.83,0,0,1-1.75.84,8.76,8.76,0,0,1-2.24.27Zm4.82-4.62a1.68,1.68,0,0,0-.69-1.56,4.11,4.11,0,0,0-2.09-.42h-2v4.12h2a3.6,3.6,0,0,0,2.09-.5A1.9,1.9,0,0,0,70.4,238.62Z"/><path class="cls-1" d="M77.86,234.16h3v5.54h5.3v-5.54h3v14h-3v-5.94h-5.3v5.94h-3Z"/><path class="cls-1" d="M98.48,242.3l-5.3-8.14h3.44l3.42,5.36,3.4-5.36h3.34l-5.3,8.14v5.86h-3Z"/><path class="cls-1" d="M112.92,237.84a1.34,1.34,0,0,0,.78,1.29,9.36,9.36,0,0,0,2.48.67,7.91,7.91,0,0,1,3.67,1.38A3.48,3.48,0,0,1,121,244a3.92,3.92,0,0,1-.42,1.83,4.07,4.07,0,0,1-1.17,1.38,5.65,5.65,0,0,1-1.79.88,7.81,7.81,0,0,1-2.26.31,7.63,7.63,0,0,1-2.38-.35,5.66,5.66,0,0,1-1.8-.93A4.28,4.28,0,0,1,110,245.8a3.67,3.67,0,0,1-.46-1.62l3-.48a2.52,2.52,0,0,0,.79,1.67,2.84,2.84,0,0,0,2,.65,4.68,4.68,0,0,0,1-.1,2.61,2.61,0,0,0,.82-.33,1.76,1.76,0,0,0,.55-.57,1.63,1.63,0,0,0,.2-.82,1.35,1.35,0,0,0-.65-1.2,6.38,6.38,0,0,0-2.29-.68,15.39,15.39,0,0,1-2-.46,5.47,5.47,0,0,1-1.63-.77,3.51,3.51,0,0,1-1.08-1.22,3.76,3.76,0,0,1-.39-1.79,3.93,3.93,0,0,1,.4-1.84,3.62,3.62,0,0,1,1.12-1.31,4.94,4.94,0,0,1,1.7-.79,8,8,0,0,1,2.14-.26,7.71,7.71,0,0,1,2,.25,5.62,5.62,0,0,1,1.67.74,4.35,4.35,0,0,1,1.87,2.85l-3,.66a2.45,2.45,0,0,0-.82-1.52,2.69,2.69,0,0,0-1.78-.56,2.76,2.76,0,0,0-1.69.42A1.33,1.33,0,0,0,112.92,237.84Z"/><path class="cls-1" d="M125.68,234.16h3v14h-3Z"/><path class="cls-1" d="M133.38,241.16a9.12,9.12,0,0,1,.48-3.07,6.25,6.25,0,0,1,1.37-2.29,5.75,5.75,0,0,1,2.16-1.43,7.74,7.74,0,0,1,2.85-.49,6.85,6.85,0,0,1,3.76,1,5.35,5.35,0,0,1,2.16,3l-2.92,1a3.92,3.92,0,0,0-1.08-1.83,2.82,2.82,0,0,0-2-.65,3.46,3.46,0,0,0-1.62.36,3.18,3.18,0,0,0-1.16,1,4.28,4.28,0,0,0-.69,1.51,7.27,7.27,0,0,0-.23,1.92,7.2,7.2,0,0,0,.23,1.91,4.45,4.45,0,0,0,.69,1.51,3.12,3.12,0,0,0,1.16,1,3.51,3.51,0,0,0,1.64.36,2.94,2.94,0,0,0,1.89-.58,3.72,3.72,0,0,0,1.11-1.76l2.88,1a6.07,6.07,0,0,1-2.16,2.8,6.44,6.44,0,0,1-3.76,1,7.7,7.7,0,0,1-2.79-.49,5.86,5.86,0,0,1-2.14-1.42,6.17,6.17,0,0,1-1.37-2.29A9.26,9.26,0,0,1,133.38,241.16Z"/><path class="cls-1" d="M162.72,248.16h-3.1l-1.12-3.24h-5l-1.12,3.24h-2.94l5-14h3.22ZM156,237.44l-.14.47c-.07.21-.14.44-.22.7s-.17.54-.27.84-.2.59-.29.87l-.74,2.22h3.38c-.27-.79-.52-1.53-.74-2.22-.15-.4-.27-.73-.35-1s-.17-.51-.24-.75-.15-.46-.21-.67a4,4,0,0,1-.14-.47Z"/><path class="cls-1" d="M166.86,234.16h3v11.5H176v2.5h-9.12Z"/><path class="cls-1" d="M186.44,240.5h3.86v-3.88h2.28v3.88h3.86v2.28h-3.86v4H190.3v-4h-3.86Z"/><path class="cls-1" d="M214.13,248.16l-.75-2.15c-.3-.89-.6-1.81-.92-2.77s-.63-1.9-.93-2.82-.55-1.7-.74-2.32h0v10.06H208v-14h4.19c.58,1.71,1.1,3.27,1.57,4.7.28.85.51,1.54.68,2.07s.35,1,.5,1.51.3.91.42,1.3l.28.84c0-.17.13-.45.25-.84s.27-.84.43-1.37.35-1.09.54-1.7l.6-1.81c.45-1.43.95-3,1.5-4.7h4.18v14h-2.76V238.1h-.07l-.47,1.49c-.19.58-.4,1.2-.61,1.85s-.45,1.32-.67,2-.45,1.31-.64,1.92-.39,1.16-.56,1.65-.3.88-.4,1.16Z"/><path class="cls-1" d="M228.4,248.16v-14h9.54v2.48h-6.58v3.08h6.11v2.48h-6.11v3.48H238v2.48Z"/><path class="cls-1" d="M242.68,234.16h3.11l2.33,3.76,1.08,1.75c.28.46.55.92.84,1.37l.79,1.29.65,1h.06v-9.2h2.83v14h-3.12l-2.27-3.7-1.07-1.73c-.29-.46-.58-.92-.85-1.38s-.56-.9-.81-1.32l-.67-1.07h-.06v9.2h-2.84Z"/><path class="cls-1" d="M258.59,234.16H269.7v2.5h-4v11.5h-3v-11.5h-4Z"/><path class="cls-1" d="M284.47,248.16h-3.1l-1.12-3.24h-5l-1.12,3.24h-2.95l5-14h3.22Zm-6.76-10.72c0,.11-.07.26-.13.47s-.15.44-.22.7-.18.54-.28.84-.19.59-.29.87c-.22.69-.47,1.43-.74,2.22h3.38c-.26-.79-.51-1.53-.73-2.22q-.22-.6-.36-1c-.08-.26-.16-.51-.23-.75l-.22-.67-.14-.47Z"/><path class="cls-1" d="M288.61,234.16h3v11.5h6.12v2.5h-9.12Z"/></g><g id="LINE_TWO" data-name="LINE TWO"><path class="cls-1" d="M54.87,252h3v5.54h5.3V252h3v14h-3V260h-5.3V266h-3Z"/><path class="cls-1" d="M71.45,266V252H81v2.48H74.41v3.08h6.12V260H74.41v3.47h6.68V266Z"/><path class="cls-1" d="M97.89,266h-3.1l-1.12-3.24h-5L87.53,266H84.59l5-14h3.22Zm-6.76-10.72-.14.47c-.07.2-.14.44-.22.7s-.17.54-.27.84-.2.59-.29.87l-.74,2.22h3.38c-.27-.79-.52-1.53-.74-2.22-.15-.4-.27-.73-.35-1s-.17-.51-.24-.75-.15-.47-.21-.67a4.69,4.69,0,0,1-.14-.47Z"/><path class="cls-1" d="M102,252h3v11.5h6.12V266H102Z"/><path class="cls-1" d="M112.39,252h11.1v2.5h-4V266h-3v-11.5h-4Z"/><path class="cls-1" d="M127.71,252h3v5.54H136V252h3v14h-3V260h-5.3V266h-3Z"/><path class="cls-1" d="M151,252h3v14h-3Z"/><path class="cls-1" d="M159.27,252h3.12l2.32,3.76c.44.7.8,1.29,1.08,1.75l.84,1.37.8,1.29.64,1h.06V252H171v14h-3.12l-2.28-3.7-1.07-1.73c-.29-.46-.57-.92-.85-1.38l-.81-1.32-.67-1.07h-.06V266h-2.84Z"/><path class="cls-1" d="M175.19,252h11.1v2.5h-4V266h-3v-11.5h-4Z"/><path class="cls-1" d="M190.51,266V252h9.54v2.48h-6.58v3.08h6.11V260h-6.11v3.47h6.68V266Z"/><path class="cls-1" d="M210.51,258.19H217V266h-2.72v-1.44a3.78,3.78,0,0,1-1.36,1.22,4.83,4.83,0,0,1-2.34.5,6.29,6.29,0,0,1-2.75-.57,5.54,5.54,0,0,1-2-1.55,6.62,6.62,0,0,1-1.19-2.3,9.56,9.56,0,0,1-.4-2.82,8.71,8.71,0,0,1,.47-3,6.49,6.49,0,0,1,1.37-2.32,6.28,6.28,0,0,1,2.19-1.5,7.5,7.5,0,0,1,2.93-.54,6.74,6.74,0,0,1,3.62.93,5.65,5.65,0,0,1,2.26,2.75l-2.78,1.14a3.61,3.61,0,0,0-1.22-1.73,3.26,3.26,0,0,0-2-.61,3.3,3.3,0,0,0-2.72,1.25,5.72,5.72,0,0,0-1,3.69q0,4.68,3.7,4.68a4.46,4.46,0,0,0,1.08-.15,3.45,3.45,0,0,0,1-.46,2.51,2.51,0,0,0,.73-.79,2.34,2.34,0,0,0,.28-1.16v-.64h-3.58Z"/><path class="cls-1" d="M232.65,256.21a4.26,4.26,0,0,1-.71,2.54,4.31,4.31,0,0,1-1.95,1.46l3.22,5.74h-3.3l-2.9-5.3h-1.86V266h-3V252h5.12a8.89,8.89,0,0,1,2.21.25,4.77,4.77,0,0,1,1.69.76,3.61,3.61,0,0,1,1.08,1.33A4.47,4.47,0,0,1,232.65,256.21Zm-3.08,0a1.51,1.51,0,0,0-.65-1.41,3.93,3.93,0,0,0-2-.39h-1.8v3.78H227a3.5,3.5,0,0,0,2-.45A1.74,1.74,0,0,0,229.57,256.23Z"/><path class="cls-1" d="M249.85,266h-3.1l-1.12-3.24h-5L239.49,266h-2.94l5-14h3.22Zm-6.76-10.72-.14.47c-.07.2-.14.44-.22.7s-.17.54-.27.84-.2.59-.29.87l-.74,2.22h3.38c-.27-.79-.52-1.53-.74-2.22-.15-.4-.27-.73-.35-1s-.17-.51-.24-.75-.15-.47-.21-.67a4.69,4.69,0,0,1-.14-.47Z"/><path class="cls-1" d="M251.33,252h11.1v2.5h-4V266h-3v-11.5h-4Z"/><path class="cls-1" d="M266.65,252h3v14h-3Z"/><path class="cls-1" d="M274.35,259a9,9,0,0,1,.48-3,6.43,6.43,0,0,1,1.39-2.29,5.82,5.82,0,0,1,2.15-1.44,7.37,7.37,0,0,1,2.79-.5,7.48,7.48,0,0,1,2.81.5,5.9,5.9,0,0,1,2.15,1.44,6.55,6.55,0,0,1,1.38,2.29,9.74,9.74,0,0,1,0,6.1,6.64,6.64,0,0,1-1.38,2.29,6.16,6.16,0,0,1-2.15,1.44,7.68,7.68,0,0,1-2.81.5,7.57,7.57,0,0,1-2.79-.5,6.07,6.07,0,0,1-2.15-1.44,6.51,6.51,0,0,1-1.39-2.29A9.08,9.08,0,0,1,274.35,259Zm3.1,0a7.56,7.56,0,0,0,.23,1.95,4.33,4.33,0,0,0,.69,1.52,3.16,3.16,0,0,0,1.16,1,3.62,3.62,0,0,0,1.63.35,3.71,3.71,0,0,0,1.65-.35,3.32,3.32,0,0,0,1.16-1,4.73,4.73,0,0,0,.69-1.52,8,8,0,0,0,.23-1.95,7.9,7.9,0,0,0-.23-1.95,4.63,4.63,0,0,0-.69-1.52,3.22,3.22,0,0,0-1.16-1,3.58,3.58,0,0,0-1.65-.35,3.5,3.5,0,0,0-1.63.35,3.06,3.06,0,0,0-1.16,1,4.25,4.25,0,0,0-.69,1.52A7.45,7.45,0,0,0,277.45,259Z"/><path class="cls-1" d="M292.68,252h3.12l2.32,3.76c.44.7.8,1.29,1.08,1.75l.84,1.37.8,1.29c.26.4.47.75.64,1h.06V252h2.84v14h-3.12l-2.28-3.7c-.42-.7-.78-1.27-1.07-1.73l-.85-1.38-.81-1.32c-.26-.42-.48-.78-.67-1.07h-.06V266h-2.84Z"/></g><g id="ICON"><path class="cls-3" d="M230.86,104.89c-6.17,0-12.35,0-18.52,0H182.21v88.57c.37,0,.72,0,1.08,0h38.78c1.62,0,2.72.84,2.87,2.15a2.47,2.47,0,0,1-2.68,2.92h-84.8a6.42,6.42,0,0,1-1.32-.07,2.57,2.57,0,0,1-1.95-2.63,2.52,2.52,0,0,1,2.6-2.36c1.66,0,3.33,0,5,0H177V105h-49.1l.17-5.14c6.58,0,13.17,0,19.75,0h29.21c0-2.21,0-4.3,0-6.39a2.47,2.47,0,0,1,3.49-2.31,2.51,2.51,0,0,1,1.59,2.49c0,2,0,4.06,0,6.16.42,0,.75,0,1.08,0h30.84c5.67,0,11.16,0,16.83,0"/><circle class="cls-4" cx="234.23" cy="102.08" r="3.93"/><line class="cls-5" x1="234.23" y1="106.02" x2="216.77" y2="149.8"/><rect class="cls-6" x="214.34" y="149.8" width="40.68" height="1.94"/><line class="cls-5" x1="234.88" y1="106.02" x2="252.34" y2="149.8"/><circle class="cls-4" cx="124.98" cy="102.08" r="3.93"/><line class="cls-5" x1="124.98" y1="106.02" x2="107.52" y2="149.8"/><rect class="cls-6" x="105.29" y="149.8" width="40.68" height="1.94"/><line class="cls-5" x1="125.63" y1="106.02" x2="143.09" y2="149.8"/></g></svg>