<svg xmlns="http://www.w3.org/2000/svg" viewBox="0 0 360 360"><defs><style>.cls-1{fill:#231f20;}.cls-2{fill:#fff;}.cls-3,.cls-5{fill:none;}.cls-3,.cls-4,.cls-5{stroke:#fff;stroke-miterlimit:10;}.cls-3,.cls-4{stroke-width:3px;}.cls-5{stroke-width:2px;}</style></defs><title>CARD</title><g id="BACKGROUND"><rect class="cls-1" width="360" height="360"/></g><g id="LINE_ONE" data-name="LINE ONE"><path class="cls-2" d="M156.05,243.24v4.92h-3v-14h5.32a8.93,8.93,0,0,1,2.28.26,4.81,4.81,0,0,1,1.74.8,3.7,3.7,0,0,1,1.12,1.38,4.61,4.61,0,0,1,.4,2,4.87,4.87,0,0,1-.41,2.07,3.85,3.85,0,0,1-1.14,1.44,4.83,4.83,0,0,1-1.75.84,8.76,8.76,0,0,1-2.24.27Zm4.82-4.62a1.68,1.68,0,0,0-.69-1.56,4.11,4.11,0,0,0-2.09-.42h-2v4.12h2a3.6,3.6,0,0,0,2.09-.5A1.9,1.9,0,0,0,160.87,238.62Z"/><path class="cls-2" d="M168.33,234.16h3v11.5h6.12v2.5h-9.12Z"/><path class="cls-2" d="M193.81,248.16h-3.1l-1.12-3.24h-5l-1.12,3.24h-2.94l5-14h3.22Zm-6.76-10.72c0,.1-.07.26-.14.47s-.14.44-.22.7-.17.54-.27.84l-.29.87c-.23.69-.47,1.43-.74,2.22h3.38c-.27-.79-.51-1.53-.74-2.22-.15-.4-.26-.73-.35-1s-.17-.51-.24-.75-.14-.47-.21-.67-.11-.37-.14-.47Z"/><path class="cls-2" d="M199.89,242.3l-5.3-8.14H198l3.42,5.36,3.4-5.36h3.34l-5.3,8.14v5.86h-3Z"/></g><g id="ICON"><path class="cls-3" d="M193.68,113.72c16.06-8.57,35.4,1.42,37.88,19.85,1.7,12.68-3,22.79-13.7,30a3.68,3.68,0,0,1-2.7.4q-16.24-4.8-32.44-9.81a3.48,3.48,0,0,1-1.9-1.62C174.06,138.79,180,121,193.68,113.72Z"/><path class="cls-2" d="M182,158.46l31,9.31c-2.53.58-4.6,1.19-6.72,1.5a8,8,0,0,0-7.15,6.15c-2,6.83-4.17,13.61-6.13,20.45-.68,2.37-1.85,2.89-4.12,2.15-7.24-2.39-7-1.07-4.61-8.76,1.7-5.61,3.35-11.25,5.11-16.85a7.84,7.84,0,0,0-2.41-8.88C185.3,162.05,183.85,160.39,182,158.46Z"/><path class="cls-4" d="M166.32,106.82c-16.06-8.56-35.4,1.43-37.88,19.86-1.7,12.67,3,22.78,13.7,29.95a3.58,3.58,0,0,0,2.7.4q16.24-4.8,32.44-9.81a3.51,3.51,0,0,0,1.9-1.61C185.94,131.89,180,114.13,166.32,106.82Z"/><path class="cls-2" d="M178,151.56l-31,9.32c2.53.57,4.6,1.19,6.72,1.49a8,8,0,0,1,7.15,6.16c2,6.83,4.17,13.6,6.13,20.44.68,2.37,1.84,2.9,4.11,2.15,7.25-2.39,7-1.07,4.62-8.75-1.71-5.62-3.35-11.26-5.11-16.86a7.86,7.86,0,0,1,2.4-8.88C174.7,155.16,176.15,153.49,178,151.56Z"/><path class="cls-5" d="M181.78,90.33A6.8,6.8,0,0,1,188.7,97a7.13,7.13,0,0,1-6.66,6.75A6.78,6.78,0,0,1,175.27,97,6.49,6.49,0,0,1,181.78,90.33Z"/></g></svg>