<svg xmlns="http://www.w3.org/2000/svg" viewBox="0 0 360 360"><defs><style>.cls-1,.cls-3{fill:#d2bf2d;}.cls-2{fill:#fff;}.cls-3{stroke:#d2bf2d;stroke-miterlimit:10;stroke-width:2px;}</style></defs><title>CARD</title><g id="LINE_ONE" data-name="LINE ONE"><path class="cls-1" d="M137.07,234.16c.5,1.4,1,2.75,1.4,4.06q.41,1.14.66,1.92c.17.52.35,1,.52,1.57s.34,1,.5,1.53.3.93.42,1.32h0c.12-.39.26-.83.42-1.33l.51-1.59c.18-.56.37-1.14.57-1.72s.4-1.16.58-1.7c.44-1.31.91-2.66,1.4-4.06h3.08l-5.16,14H139l-5.1-14Z"/><path class="cls-1" d="M151.29,234.16h3v14h-3Z"/><path class="cls-1" d="M162.29,237.84a1.34,1.34,0,0,0,.78,1.29,9.48,9.48,0,0,0,2.48.67,7.86,7.86,0,0,1,3.67,1.38,3.48,3.48,0,0,1,1.17,2.86,3.92,3.92,0,0,1-.42,1.83,4.07,4.07,0,0,1-1.17,1.38,5.54,5.54,0,0,1-1.79.88,8.12,8.12,0,0,1-2.26.31,7.68,7.68,0,0,1-2.38-.35,6,6,0,0,1-1.8-.93,4.41,4.41,0,0,1-1.16-1.36,3.81,3.81,0,0,1-.46-1.62l3-.48a2.56,2.56,0,0,0,.79,1.67,2.84,2.84,0,0,0,2,.65,5.32,5.32,0,0,0,1-.1,2.43,2.43,0,0,0,.82-.33,1.76,1.76,0,0,0,.55-.57,1.63,1.63,0,0,0,.2-.82,1.35,1.35,0,0,0-.65-1.2,6.31,6.31,0,0,0-2.29-.68,18.1,18.1,0,0,1-2-.46,5.72,5.72,0,0,1-1.63-.77,3.51,3.51,0,0,1-1.08-1.22,3.79,3.79,0,0,1-.39-1.79,3.93,3.93,0,0,1,.4-1.84,3.72,3.72,0,0,1,1.12-1.31,4.84,4.84,0,0,1,1.7-.79,8.1,8.1,0,0,1,2.14-.26,7.66,7.66,0,0,1,2,.25,5.28,5.28,0,0,1,1.67.74,4.23,4.23,0,0,1,1.21,1.21,4.49,4.49,0,0,1,.66,1.64l-3,.66a2.45,2.45,0,0,0-.82-1.52,2.62,2.62,0,0,0-1.78-.56,2.78,2.78,0,0,0-1.69.42A1.33,1.33,0,0,0,162.29,237.84Z"/><path class="cls-1" d="M175.05,234.16h3v14h-3Z"/><path class="cls-1" d="M182.27,234.16h11.1v2.5h-4v11.5h-3v-11.5h-4Z"/><path class="cls-1" d="M196.41,241.16a8.79,8.79,0,0,1,.49-3,6.55,6.55,0,0,1,1.38-2.29,5.82,5.82,0,0,1,2.15-1.44,8.09,8.09,0,0,1,5.6,0,5.82,5.82,0,0,1,2.15,1.44,6.55,6.55,0,0,1,1.38,2.29,9.74,9.74,0,0,1,0,6.1,6.64,6.64,0,0,1-1.38,2.29,5.94,5.94,0,0,1-2.15,1.44,8.09,8.09,0,0,1-5.6,0,5.94,5.94,0,0,1-2.15-1.44,6.64,6.64,0,0,1-1.38-2.29A8.83,8.83,0,0,1,196.41,241.16Zm3.1,0a8,8,0,0,0,.23,2,4.33,4.33,0,0,0,.69,1.52,3.24,3.24,0,0,0,1.16,1,4,4,0,0,0,3.28,0,3.24,3.24,0,0,0,1.16-1,4.33,4.33,0,0,0,.69-1.52,8,8,0,0,0,.23-2,7.9,7.9,0,0,0-.23-1.95,4.25,4.25,0,0,0-.69-1.52,3.14,3.14,0,0,0-1.16-1,4,4,0,0,0-3.28,0,3.14,3.14,0,0,0-1.16,1,4.25,4.25,0,0,0-.69,1.52A7.9,7.9,0,0,0,199.51,241.16Z"/><path class="cls-1" d="M225.23,238.42a4.26,4.26,0,0,1-.71,2.54,4.21,4.21,0,0,1-2,1.46l3.22,5.74h-3.3l-2.9-5.3h-1.86v5.3h-3v-14h5.12a8.89,8.89,0,0,1,2.21.25,4.61,4.61,0,0,1,1.69.77,3.32,3.32,0,0,1,1.08,1.32A4.47,4.47,0,0,1,225.23,238.42Zm-3.08,0a1.51,1.51,0,0,0-.65-1.41,3.91,3.91,0,0,0-2-.39h-1.8v3.78h1.8a3.48,3.48,0,0,0,2-.45A1.74,1.74,0,0,0,222.15,238.44Z"/><rect class="cls-1" y="336.1" width="360" height="23.94"/><path class="cls-2" d="M264.75,348.33a5.51,5.51,0,0,1,.29-1.84,3.81,3.81,0,0,1,.82-1.38,3.65,3.65,0,0,1,1.3-.86,4.79,4.79,0,0,1,1.71-.29,4.1,4.1,0,0,1,2.25.59,3.21,3.21,0,0,1,1.3,1.79l-1.75.61a2.43,2.43,0,0,0-.65-1.1,1.72,1.72,0,0,0-1.19-.39,2,2,0,0,0-1.67.81,2.63,2.63,0,0,0-.41.91,4.59,4.59,0,0,0-.14,1.15,4.65,4.65,0,0,0,.14,1.15,2.85,2.85,0,0,0,.41.9,1.92,1.92,0,0,0,.7.6,2.18,2.18,0,0,0,1,.22,1.8,1.8,0,0,0,1.14-.35,2.1,2.1,0,0,0,.66-1.06l1.73.61a3.49,3.49,0,0,1-1.3,1.68,3.81,3.81,0,0,1-2.25.62,4.49,4.49,0,0,1-1.68-.3,3.5,3.5,0,0,1-1.28-.85,3.69,3.69,0,0,1-.82-1.37A5.61,5.61,0,0,1,264.75,348.33Z"/><path class="cls-2" d="M274.71,348.33a5.49,5.49,0,0,1,.29-1.83,4.13,4.13,0,0,1,.83-1.38,3.7,3.7,0,0,1,1.29-.86,4.56,4.56,0,0,1,1.68-.3,4.49,4.49,0,0,1,1.68.3,3.52,3.52,0,0,1,1.29.86,4,4,0,0,1,.83,1.38,5.92,5.92,0,0,1,0,3.66,3.84,3.84,0,0,1-.83,1.37,3.42,3.42,0,0,1-1.29.87,4.49,4.49,0,0,1-1.68.3,4.56,4.56,0,0,1-1.68-.3,3.59,3.59,0,0,1-1.29-.87,4,4,0,0,1-.83-1.37A5.49,5.49,0,0,1,274.71,348.33Zm1.86,0a4.81,4.81,0,0,0,.14,1.17,2.63,2.63,0,0,0,.41.91,2,2,0,0,0,.7.59,2.42,2.42,0,0,0,2,0,1.88,1.88,0,0,0,.69-.59,2.64,2.64,0,0,0,.42-.91,4.82,4.82,0,0,0,.13-1.17,4.76,4.76,0,0,0-.13-1.17,2.64,2.64,0,0,0-.42-.91,1.79,1.79,0,0,0-.69-.59,2.42,2.42,0,0,0-2,0,1.89,1.89,0,0,0-.7.59,2.63,2.63,0,0,0-.41.91A4.75,4.75,0,0,0,276.57,348.33Z"/><path class="cls-2" d="M289.41,352.53q-.18-.5-.45-1.29l-.56-1.66-.56-1.69c-.18-.56-.32-1-.44-1.4h0v6h-1.66v-8.4h2.52c.35,1,.66,2,.94,2.82.17.51.31.92.41,1.24s.21.62.3.91.18.55.26.78.13.4.16.5l.15-.5c.08-.23.16-.51.26-.82s.21-.66.32-1l.36-1.08q.41-1.29.9-2.82h2.51v8.4h-1.66v-6h0l-.29.9c-.12.34-.24.72-.37,1.11s-.26.79-.4,1.19-.27.79-.38,1.15-.23.7-.33,1-.19.53-.25.7Z"/><path class="cls-2" d="M301.66,352.53q-.18-.5-.45-1.29c-.18-.53-.36-1.09-.56-1.66l-.55-1.69c-.18-.56-.33-1-.44-1.4h0v6H298v-8.4h2.52q.51,1.53.93,2.82l.42,1.24c.1.32.2.62.3.91s.17.55.25.78.13.4.16.5l.15-.5c.08-.23.16-.51.26-.82l.33-1c.11-.36.23-.72.35-1.08q.41-1.29.9-2.82h2.51v8.4h-1.66v-6h0l-.29.9c-.11.34-.23.72-.37,1.11s-.26.79-.4,1.19-.26.79-.38,1.15-.23.7-.33,1-.19.53-.25.7Z"/><path class="cls-2" d="M313.53,352.7a3.34,3.34,0,0,1-2.56-.87,3.39,3.39,0,0,1-.8-2.4v-5.3H312v5.31a2,2,0,0,0,.38,1.27,1.41,1.41,0,0,0,1.18.5,1.38,1.38,0,0,0,1.17-.5,2,2,0,0,0,.39-1.27v-5.31h1.8v5.3a3.35,3.35,0,0,1-.81,2.4A3.3,3.3,0,0,1,313.53,352.7Z"/><path class="cls-2" d="M320,344.13h1.87l1.39,2.26c.27.42.48.77.65,1.05s.34.54.5.82l.48.77c.16.24.28.45.39.62h0v-5.52H327v8.4h-1.87l-1.37-2.22-.64-1c-.18-.28-.35-.55-.51-.83l-.49-.79-.4-.64h0v5.52H320Z"/><path class="cls-2" d="M330.2,344.13H332v8.4h-1.8Z"/><path class="cls-2" d="M334.53,344.13h6.66v1.5h-2.43v6.9H337v-6.9h-2.42Z"/><path class="cls-2" d="M346.26,349l-3.18-4.88h2.07l2.05,3.22,2-3.22h2L348.06,349v3.52h-1.8Z"/></g><g id="LINE_TWO" data-name="LINE TWO"><path class="cls-1" d="M109.39,265.94v-14h9.54v2.48h-6.58v3.08h6.12V260h-6.12v3.48H119v2.48Z"/><path class="cls-1" d="M131.11,258.6l5.18,7.34h-3.6l-3.38-4.86-3.44,4.86h-3.36l5.14-7.2-4.74-6.8h3.62l2.94,4.32,3-4.32h3.38Z"/><path class="cls-1" d="M143.39,261v4.92h-3v-14h5.32a9.4,9.4,0,0,1,2.28.26,5,5,0,0,1,1.74.8,3.7,3.7,0,0,1,1.12,1.38,4.64,4.64,0,0,1,.4,2,4.87,4.87,0,0,1-.41,2.07,3.85,3.85,0,0,1-1.14,1.44,4.83,4.83,0,0,1-1.75.84,8.7,8.7,0,0,1-2.24.27Zm4.82-4.62a1.68,1.68,0,0,0-.69-1.56,4.11,4.11,0,0,0-2.09-.42h-2v4.12h2a3.52,3.52,0,0,0,2.09-.5A1.88,1.88,0,0,0,148.21,256.4Z"/><path class="cls-1" d="M155.67,265.94v-14h9.54v2.48h-6.58v3.08h6.12V260h-6.12v3.48h6.68v2.48Z"/><path class="cls-1" d="M180.43,256.2a4.24,4.24,0,0,1-.71,2.54,4.14,4.14,0,0,1-1.95,1.46l3.22,5.74h-3.3l-2.9-5.3h-1.86v5.3h-3v-14h5.12a9.39,9.39,0,0,1,2.21.25A4.87,4.87,0,0,1,179,253a3.46,3.46,0,0,1,1.08,1.32A4.53,4.53,0,0,1,180.43,256.2Zm-3.08,0a1.51,1.51,0,0,0-.65-1.41,3.91,3.91,0,0,0-2-.39h-1.8v3.78h1.8a3.48,3.48,0,0,0,2-.45A1.74,1.74,0,0,0,177.35,256.22Z"/><path class="cls-1" d="M185.47,251.94h3v14h-3Z"/><path class="cls-1" d="M193.75,265.94v-14h9.54v2.48h-6.58v3.08h6.12V260h-6.12v3.48h6.68v2.48Z"/><path class="cls-1" d="M208,251.94h3.12l2.32,3.76,1.08,1.75.84,1.37.8,1.29.64,1h.06v-9.2h2.84v14h-3.12c-.8-1.29-1.56-2.52-2.28-3.7l-1.07-1.73c-.29-.46-.57-.92-.85-1.38l-.81-1.32-.67-1.07h-.06v9.2H208Z"/><path class="cls-1" d="M224.43,258.94a9.16,9.16,0,0,1,.48-3.07,6.47,6.47,0,0,1,1.37-2.29,5.88,5.88,0,0,1,2.16-1.43,8,8,0,0,1,2.85-.49,6.83,6.83,0,0,1,3.76,1,5.39,5.39,0,0,1,2.16,3l-2.92,1a4,4,0,0,0-1.08-1.83,2.86,2.86,0,0,0-2-.65,3.51,3.51,0,0,0-1.62.36,3.26,3.26,0,0,0-1.16,1,4.37,4.37,0,0,0-.69,1.51,7.77,7.77,0,0,0-.23,1.92,7.57,7.57,0,0,0,.23,1.91,4.37,4.37,0,0,0,.69,1.51,3.19,3.19,0,0,0,1.16,1,3.54,3.54,0,0,0,1.64.36,2.94,2.94,0,0,0,1.89-.58,3.48,3.48,0,0,0,1.11-1.76l2.88,1a6,6,0,0,1-2.16,2.8,6.42,6.42,0,0,1-3.76,1,7.5,7.5,0,0,1-2.79-.49,5.82,5.82,0,0,1-2.14-1.42,6.3,6.3,0,0,1-1.37-2.29A9.18,9.18,0,0,1,224.43,258.94Z"/><path class="cls-1" d="M241.61,265.94v-14h9.54v2.48h-6.58v3.08h6.12V260h-6.12v3.48h6.68v2.48Z"/></g><g id="ICON"><path class="cls-3" d="M131.1,121.36c-3.58-10.39-3.12-12,4.9-17.3-.94-4.41-.82-8.51,3.93-11,4.57-2.44,6.79-2.14,11.9,2,7-6.91,11.67-6.29,18,1.66,7.92,9.88,16.2,19.47,24.35,29.17a1.08,1.08,0,0,0,.55.36c2.2-3.24,4-6.71,6.54-9.4a9.88,9.88,0,0,1,10.46-2.49c3.85,1.26,4.41,4.87,4.45,8.24.1,9-.28,18.07-.06,27.1a184.48,184.48,0,0,0,1.57,20.74c1.07,7.77-2.5,13.24-7.93,17.78a45,45,0,0,1-24.37,10.07c-4.79.53-8.86-1.29-12-5.33-2.81-3.61-5.74-7.3-9.28-10.12-11.32-9-19.73-20.38-27.11-32.6-2.93-4.87-5.69-9.86-8.28-14.92S125.69,125.11,131.1,121.36Zm2.8,3.09c-3.87,2.17-3.72,4.85-2.37,7.84A146.76,146.76,0,0,0,155.29,169c6.58,7.52,14.21,14.1,21,21.44,2.63,2.84,5.3,4.54,9,4.06,9.22-1.2,17.56-4.5,24.15-11.24,3-3.12,5.14-6.71,4.76-11.56-.74-9.4-1.15-18.83-1.48-28.25-.24-7,.08-13.94-.23-20.89-.22-4.92-2.57-6.15-6.92-4-5,2.53-6.39,7.1-6.22,12.28.07,2.36.72,4.71.7,7a4.64,4.64,0,0,1-1.52,3.41c-7,4.64-9.83,11.07-9.23,19.31.07.94-.83,2-1.28,2.94-.76-.92-2.09-1.78-2.19-2.78-.85-8.28,1.32-15.65,8.18-20.75,3.39-2.52,2.25-4.88,1-7.48-.58-1.2-1.82-2.08-2.74-3.14-7.2-8.31-14.44-16.61-21.58-25-2.26-2.65-4.09-5.67-6.42-8.24-2-2.23-4.43-3.24-7.3-.82s-1.65,4.4.11,6.71q10.51,13.81,20.79,27.79c.71,1,.44,2.64.63,4-1.24-.59-2.84-.88-3.66-1.83-2.35-2.74-4.34-5.78-6.55-8.65-6.7-8.72-13.36-17.46-20.2-26.08-2.12-2.66-5.23-2.57-7.49-.13-2.46,2.63-1.22,5.27.48,7.57,3,4,6.23,7.86,9.34,11.8,5.61,7.11,11.27,14.19,16.73,21.42.68.9.29,2.61.4,3.94-1.1-.59-2.48-.93-3.26-1.81-2.48-2.81-4.76-5.82-7.1-8.76l-18.81-23.7c-6.51,3.11-7.36,5.66-3.76,11.2,1.74,2.68,3.87,5.12,5.84,7.64,6.1,7.8,12.26,15.54,18.25,23.42.62.81.32,2.34.45,3.53a20.66,20.66,0,0,1-3.42-1.31c-.66-.39-1-1.28-1.56-1.94Z"/><path class="cls-1" d="M128.72,156l1.66-2c.67.81,1.81,1.56,2,2.46,2.47,15.7,11.33,25.84,26.34,30.83,1,.34,1.74,1.71,2.6,2.6-1.05.39-2.26,1.34-3.13,1.09C141.32,186.18,130.5,173.21,128.72,156Z"/><path class="cls-1" d="M228.61,133.77a1.47,1.47,0,0,1,0,.42c-.52,1.67-1.11,4.8-1.58,4.79-3.46-.14-1.81-3-1.93-4.78-1-14.61-7.39-25.72-20.57-32.65-1.12-.58-1.79-2-2.67-3.06,1.45-.11,3.2-.79,4.31-.22C220.64,105.63,227.82,117.7,228.61,133.77Z"/><path class="cls-1" d="M213.68,93c1.37.31,2.91.33,4.09,1A39.21,39.21,0,0,1,237,119.06c.28,1-.45,2.34-.72,3.52-.94-.93-2.38-1.69-2.74-2.8-3.13-9.83-8.83-17.55-17.87-22.74-1.1-.63-1.8-2-2.69-3Z"/><path class="cls-1" d="M151.47,195.58c-1.54.58-2.54,1.33-3.48,1.26-9.09-.68-23.1-13.18-25-22.33-.18-.84.47-1.85.74-2.78,1,.73,2.38,1.25,2.83,2.23,3.94,8.62,10.1,14.87,19,18.28,1.16.45,2.43.64,3.55,1.16C149.77,193.71,150.25,194.43,151.47,195.58Z"/><path class="cls-2" d="M133.9,124.45l20.29,25.72c.52.66.9,1.55,1.56,1.94a20.66,20.66,0,0,0,3.42,1.31c-.13-1.19.17-2.72-.45-3.53-6-7.88-12.15-15.62-18.25-23.42-2-2.52-4.1-5-5.84-7.64-3.6-5.54-2.75-8.09,3.76-11.2l18.81,23.7c2.34,2.94,4.62,5.95,7.1,8.76.78.88,2.16,1.22,3.26,1.81-.11-1.33.28-3-.4-3.94-5.46-7.23-11.12-14.31-16.73-21.42-3.11-3.94-6.36-7.77-9.34-11.8-1.7-2.3-2.94-4.94-.48-7.57,2.26-2.44,5.37-2.53,7.49.13,6.84,8.62,13.5,17.36,20.2,26.08,2.21,2.87,4.2,5.91,6.55,8.65.82.95,2.42,1.24,3.66,1.83-.19-1.34.08-3-.63-4q-10.24-14-20.79-27.79c-1.76-2.31-3-4.27-.11-6.71s5.28-1.41,7.3.82c2.33,2.57,4.16,5.59,6.42,8.24,7.14,8.37,14.38,16.67,21.58,25,.92,1.06,2.16,1.94,2.74,3.14,1.26,2.6,2.4,5-1,7.48-6.86,5.1-9,12.47-8.18,20.75.1,1,1.43,1.86,2.19,2.78.45-1,1.35-2,1.28-2.94-.6-8.24,2.28-14.67,9.23-19.31a4.64,4.64,0,0,0,1.52-3.41c0-2.34-.63-4.69-.7-7-.17-5.18,1.22-9.75,6.22-12.28,4.35-2.2,6.7-1,6.92,4,.31,6.95,0,13.93.23,20.89.33,9.42.74,18.85,1.48,28.25.38,4.85-1.72,8.44-4.76,11.56-6.59,6.74-14.93,10-24.15,11.24-3.72.48-6.39-1.22-9-4.06-6.79-7.34-14.42-13.92-21-21.44a146.76,146.76,0,0,1-23.76-36.68C130.18,129.3,130,126.62,133.9,124.45Z"/></g></svg>