<?xml version="1.0" encoding="utf-8"?>
<!-- Generator: Adobe Illustrator 23.1.0, SVG Export Plug-In . SVG Version: 6.00 Build 0)  -->
<svg version="1.1" xmlns="http://www.w3.org/2000/svg" xmlns:xlink="http://www.w3.org/1999/xlink" x="0px" y="0px"
	 viewBox="0 0 360 360" enable-background="new 0 0 360 360" xml:space="preserve">
<g id="BACKGROUND">
	<rect x="0" y="0" fill="#FFFFFF" width="360" height="360"/>
</g>
<g id="REF" display="none">
	
		<rect y="90.33" display="inline" fill="none" stroke="#000000" stroke-width="0.25" stroke-miterlimit="10" width="360" height="108"/>
	
		<rect x="360" y="90.33" display="inline" fill="none" stroke="#FFFFFF" stroke-width="0.25" stroke-miterlimit="10" width="360" height="108"/>
	
		<line display="inline" fill="none" stroke="#000000" stroke-width="0.25" stroke-linecap="round" stroke-miterlimit="10" x1="180" y1="0.19" x2="180" y2="360.06"/>
</g>
<g id="LINE_ONE">
	<g>
		<path d="M138.91,248.16v-14h9.54v2.48h-6.58v3.08h6.12v2.48h-6.12v3.48h6.68v2.48H138.91z"/>
		<path d="M162.21,247.94c-0.85,0.33-1.78,0.5-2.78,0.5c-1.03,0-1.96-0.17-2.8-0.5c-0.84-0.33-1.56-0.81-2.15-1.44
			c-0.59-0.63-1.05-1.39-1.38-2.29c-0.33-0.9-0.49-1.92-0.49-3.05c0-1.13,0.16-2.15,0.49-3.05c0.33-0.9,0.79-1.66,1.38-2.29
			c0.59-0.63,1.31-1.11,2.15-1.44c0.84-0.33,1.77-0.5,2.8-0.5c1.03,0,1.96,0.17,2.8,0.5c0.84,0.33,1.56,0.81,2.15,1.44
			s1.05,1.39,1.38,2.29c0.33,0.9,0.49,1.92,0.49,3.05c0,1.21-0.18,2.29-0.55,3.23c-0.37,0.94-0.89,1.72-1.57,2.35l1.28,1.4
			l-1.68,1.48L162.21,247.94z M155.71,241.16c0,0.71,0.08,1.36,0.23,1.95c0.15,0.59,0.38,1.1,0.69,1.52s0.69,0.75,1.16,0.98
			c0.47,0.23,1.01,0.35,1.64,0.35c0.29,0,0.59-0.03,0.9-0.1l-1.3-1.44l1.64-1.48l1.54,1.7c0.32-0.43,0.56-0.93,0.71-1.52
			s0.23-1.24,0.23-1.96c0-0.71-0.08-1.36-0.23-1.95c-0.15-0.59-0.38-1.1-0.69-1.52s-0.69-0.75-1.16-0.98s-1.01-0.35-1.64-0.35
			s-1.17,0.12-1.64,0.35c-0.47,0.23-0.85,0.56-1.16,0.98s-0.54,0.93-0.69,1.52C155.79,239.8,155.71,240.45,155.71,241.16z"/>
		<path d="M176.47,248.44c-1.95,0-3.37-0.48-4.26-1.44s-1.34-2.29-1.34-4v-8.84h3v8.86c0,0.85,0.21,1.56,0.64,2.11
			c0.43,0.55,1.08,0.83,1.96,0.83s1.53-0.28,1.96-0.83c0.43-0.55,0.64-1.26,0.64-2.11v-8.86h3V243c0,1.71-0.45,3.04-1.34,4
			C179.84,247.96,178.42,248.44,176.47,248.44z"/>
		<path d="M187.27,234.16h3v14h-3V234.16z"/>
		<path d="M194.49,234.16h11.1v2.5h-4.04v11.5h-3.02v-11.5h-4.04V234.16z"/>
		<path d="M214.05,242.3l-5.3-8.14h3.44l3.42,5.36l3.4-5.36h3.34l-5.3,8.14v5.86h-3V242.3z"/>
	</g>
</g>
<g id="LINE_TWO">
</g>
<g id="ICON">
	<g>
		<g>
			<path fill="none" stroke="#000000" stroke-width="3" stroke-miterlimit="10" d="M208.4,196.23c0,0.79,0.65,1.44,1.44,1.44h28.36
				c0.79,0,1.44-0.65,1.44-1.44v-21.65c0-0.79-0.65-1.44-1.44-1.44h-28.36c-0.79,0-1.44,0.65-1.44,1.44V196.23z"/>
		</g>
		
			<line fill="none" stroke="#000000" stroke-width="5" stroke-linecap="round" stroke-miterlimit="10" x1="102.13" y1="197.67" x2="257.9" y2="197.67"/>
		<g>
			<path fill="none" stroke="#000000" stroke-width="3" stroke-miterlimit="10" d="M148.62,155.12c-1.61,0-3.09-0.05-4.56,0.05
				c-0.21,0.01-0.52,0.75-0.52,1.15c-0.03,5.55-0.03,11.09-0.02,16.64c0,6.38-0.12,12.76,0.06,19.14c0.09,3.42-1.98,4.94-4.35,5.42
				c-2.01,0.4-3.97,0.2-5.71-1.03c-1.27-0.9-1.89-2.09-1.89-3.69c0.02-17.76,0.01-35.53,0.01-53.29c0-5.11-0.02-10.22,0.02-15.33
				c0.01-0.82-0.28-1.31-0.92-1.8c-8.86-6.67-17.7-13.36-26.55-20.04c-0.03-0.02-0.06-0.04-0.09-0.06
				c-1.12-0.87-2.18-1.83-1.97-3.39c0.25-1.84,1.49-2.93,3.19-3.48c2.42-0.79,4.62-0.3,6.64,1.25c3.83,2.92,7.69,5.81,11.54,8.72
				c4.69,3.54,9.36,7.09,14.07,10.59c0.48,0.36,1.17,0.58,1.77,0.59c4.46,0.05,8.92,0.01,13.38,0.05c0.96,0.01,1.71-0.25,2.47-0.84
				c8.41-6.42,16.84-12.82,25.28-19.21c2.36-1.79,5.25-2.01,7.51-0.64c2.67,1.62,2.84,4.28,0.36,6.18
				c-3.07,2.36-6.18,4.69-9.27,7.02c-5.84,4.41-11.68,8.83-17.54,13.21c-0.72,0.54-0.98,1.11-0.97,2c0.05,20.3,0.08,40.6,0.1,60.9
				c0,2.18-0.12,4.36,0.03,6.52c0.27,4.06-2.44,5.81-5.64,5.9c-1.02,0.03-2.1-0.14-3.08-0.46c-2.33-0.76-3.25-2.19-3.26-4.78
				c-0.04-11.93-0.06-23.85-0.09-35.78C148.62,156.19,148.62,155.76,148.62,155.12z"/>
			<path fill="none" stroke="#000000" stroke-width="3" stroke-miterlimit="10" d="M145.93,90.83c5.95,0.02,10.63,4.59,10.6,10.36
				c-0.03,5.6-4.85,10.11-10.77,10.08c-5.89-0.03-10.48-4.58-10.45-10.35C135.35,95.28,140.04,90.82,145.93,90.83z"/>
		</g>
		<g>
			<path fill="none" stroke="#000000" stroke-width="3" stroke-miterlimit="10" d="M225.96,140.34c-1.24,0-2.38-0.04-3.51,0.04
				c-0.16,0.01-0.4,0.58-0.4,0.89c-0.03,4.27-0.02,8.54-0.02,12.81c0,4.91-0.09,9.83,0.04,14.74c0.07,2.64-1.53,3.8-3.35,4.17
				c-1.55,0.31-3.06,0.15-4.4-0.8c-0.98-0.69-1.46-1.61-1.46-2.84c0.02-13.68,0.01-27.36,0.01-41.04c0-3.94-0.02-7.87,0.01-11.81
				c0-0.63-0.22-1.01-0.71-1.38c-6.82-5.13-13.63-10.29-20.45-15.43c-0.02-0.02-0.05-0.03-0.07-0.05c-0.86-0.67-1.68-1.41-1.52-2.61
				c0.19-1.42,1.15-2.26,2.46-2.68c1.87-0.61,3.56-0.23,5.11,0.96c2.95,2.25,5.92,4.48,8.88,6.71c3.61,2.72,7.21,5.46,10.84,8.15
				c0.37,0.27,0.9,0.45,1.37,0.45c3.43,0.04,6.87,0.01,10.3,0.04c0.74,0.01,1.32-0.2,1.91-0.64c6.48-4.95,12.97-9.87,19.46-14.79
				c1.82-1.38,4.04-1.55,5.79-0.49c2.05,1.25,2.19,3.29,0.28,4.76c-2.37,1.82-4.76,3.61-7.14,5.41c-4.5,3.4-8.99,6.8-13.51,10.18
				c-0.55,0.41-0.75,0.86-0.75,1.54c0.04,15.63,0.06,31.27,0.08,46.9c0,1.68-0.09,3.36,0.02,5.02c0.21,3.13-1.88,4.47-4.34,4.55
				c-0.79,0.02-1.62-0.11-2.37-0.35c-1.8-0.59-2.5-1.68-2.51-3.68c-0.03-9.18-0.05-18.37-0.07-27.55
				C225.96,141.16,225.96,140.83,225.96,140.34z"/>
			<path fill="none" stroke="#000000" stroke-width="3" stroke-miterlimit="10" d="M223.88,90.83c4.58,0.01,8.19,3.53,8.17,7.98
				c-0.02,4.31-3.73,7.78-8.29,7.76c-4.54-0.02-8.07-3.52-8.05-7.97C215.74,94.26,219.35,90.82,223.88,90.83z"/>
		</g>
	</g>
</g>
</svg>
