<svg xmlns="http://www.w3.org/2000/svg" viewBox="0 0 360 360"><defs><style>.cls-1{fill:#231f20;}.cls-2{fill:#fff;}</style></defs><title>CARD</title><g id="BACKGROUND"><rect class="cls-1" width="360" height="360"/></g><g id="LINE_ONE" data-name="LINE ONE"><path class="cls-2" d="M143,243.24v4.92h-3v-14h5.32a8.93,8.93,0,0,1,2.28.26,4.81,4.81,0,0,1,1.74.8,3.6,3.6,0,0,1,1.12,1.38,4.61,4.61,0,0,1,.4,2,4.87,4.87,0,0,1-.41,2.07,3.85,3.85,0,0,1-1.14,1.44,4.75,4.75,0,0,1-1.75.84,8.76,8.76,0,0,1-2.24.27Zm4.82-4.62a1.68,1.68,0,0,0-.69-1.56,4.09,4.09,0,0,0-2.09-.42h-2v4.12h2a3.58,3.58,0,0,0,2.09-.5A1.9,1.9,0,0,0,147.8,238.62Z"/><path class="cls-2" d="M160.78,248.44a5.59,5.59,0,0,1-4.26-1.44,5.67,5.67,0,0,1-1.34-4v-8.84h3V243a3.35,3.35,0,0,0,.64,2.11,2.73,2.73,0,0,0,3.92,0,3.35,3.35,0,0,0,.64-2.11v-8.86h3V243a5.67,5.67,0,0,1-1.34,4A5.56,5.56,0,0,1,160.78,248.44Z"/><path class="cls-2" d="M171.58,234.16h6.08a5,5,0,0,1,1.75.28,3.65,3.65,0,0,1,1.3.77,3.16,3.16,0,0,1,.81,1.16,3.64,3.64,0,0,1,.28,1.45,3.41,3.41,0,0,1-.18,1.14,3.29,3.29,0,0,1-.47.87,3,3,0,0,1-.66.62,4,4,0,0,1-.77.39,3.24,3.24,0,0,1,.93.26,3,3,0,0,1,.87.57,2.67,2.67,0,0,1,.65.93,3.31,3.31,0,0,1,.25,1.38,4,4,0,0,1-1.28,3,4.71,4.71,0,0,1-1.42.87,5,5,0,0,1-1.8.32h-6.34Zm2.92,2.44v3.24h2.1a2.85,2.85,0,0,0,1.6-.36,1.88,1.88,0,0,0,.07-2.52,2.44,2.44,0,0,0-1.51-.36Zm0,9.12h2.4a3,3,0,0,0,1.93-.45,1.66,1.66,0,0,0,.51-1.31,1.44,1.44,0,0,0-.62-1.37,3.91,3.91,0,0,0-1.86-.35H174.5Z"/><path class="cls-2" d="M187.08,234.16h3v11.5h6.12v2.5h-9.12Z"/><path class="cls-2" d="M200.4,234.16h3v14h-3Z"/><path class="cls-2" d="M208.1,241.16a9.12,9.12,0,0,1,.48-3.07A6.39,6.39,0,0,1,210,235.8a5.64,5.64,0,0,1,2.16-1.43,7.82,7.82,0,0,1,2.85-.49,6.75,6.75,0,0,1,3.76,1,5.32,5.32,0,0,1,2.16,3l-2.92,1a3.92,3.92,0,0,0-1.08-1.83,2.82,2.82,0,0,0-2-.65,3.51,3.51,0,0,0-1.62.36,3.26,3.26,0,0,0-1.16,1,4.28,4.28,0,0,0-.69,1.51,8.09,8.09,0,0,0,0,3.83,4.45,4.45,0,0,0,.69,1.51,3.29,3.29,0,0,0,1.16,1,3.54,3.54,0,0,0,1.64.36,3,3,0,0,0,1.89-.58,3.57,3.57,0,0,0,1.11-1.76l2.88,1a6.07,6.07,0,0,1-2.16,2.8,6.42,6.42,0,0,1-3.76,1,7.7,7.7,0,0,1-2.79-.49,5.94,5.94,0,0,1-2.14-1.42,6.3,6.3,0,0,1-1.37-2.29A9.26,9.26,0,0,1,208.1,241.16Z"/></g><g id="LINE_TWO" data-name="LINE TWO"><path class="cls-2" d="M130.58,255.62a1.34,1.34,0,0,0,.78,1.29,9.1,9.1,0,0,0,2.48.67,7.86,7.86,0,0,1,3.67,1.38,3.49,3.49,0,0,1,1.17,2.86,3.92,3.92,0,0,1-.42,1.83,4.07,4.07,0,0,1-1.17,1.38,5.35,5.35,0,0,1-1.79.88,7.77,7.77,0,0,1-2.26.31,7.39,7.39,0,0,1-2.38-.35,5.77,5.77,0,0,1-1.8-.93,4.3,4.3,0,0,1-1.16-1.36,3.81,3.81,0,0,1-.46-1.62l3-.48a2.56,2.56,0,0,0,.79,1.67,2.8,2.8,0,0,0,2,.65,4.61,4.61,0,0,0,1-.1,2.08,2.08,0,0,0,.82-.33,1.66,1.66,0,0,0,.55-.57,1.61,1.61,0,0,0,.2-.82,1.35,1.35,0,0,0-.65-1.2,6.52,6.52,0,0,0-2.29-.68,16.15,16.15,0,0,1-2-.46,5.23,5.23,0,0,1-1.63-.77,3.42,3.42,0,0,1-1.08-1.22,3.73,3.73,0,0,1-.39-1.79,4,4,0,0,1,.4-1.84,3.81,3.81,0,0,1,1.12-1.31,5.22,5.22,0,0,1,1.7-.79,8.54,8.54,0,0,1,2.14-.26,8.16,8.16,0,0,1,2,.25,5.77,5.77,0,0,1,1.67.74,4.36,4.36,0,0,1,1.21,1.21,4.49,4.49,0,0,1,.66,1.64l-3,.66a2.48,2.48,0,0,0-.82-1.52,2.67,2.67,0,0,0-1.78-.56,2.78,2.78,0,0,0-1.69.42A1.34,1.34,0,0,0,130.58,255.62Z"/><path class="cls-2" d="M148.86,266.22a5.56,5.56,0,0,1-4.26-1.44,5.65,5.65,0,0,1-1.34-4v-8.84h3v8.86a3.32,3.32,0,0,0,.64,2.11,2.73,2.73,0,0,0,3.92,0,3.32,3.32,0,0,0,.64-2.11v-8.86h3v8.84a5.65,5.65,0,0,1-1.34,4A5.56,5.56,0,0,1,148.86,266.22Z"/><path class="cls-2" d="M162.64,261v4.92h-3v-14H165a9.4,9.4,0,0,1,2.28.26,5,5,0,0,1,1.74.8,3.7,3.7,0,0,1,1.12,1.38,4.64,4.64,0,0,1,.4,2,4.87,4.87,0,0,1-.41,2.07,3.85,3.85,0,0,1-1.14,1.44,4.83,4.83,0,0,1-1.75.84A8.76,8.76,0,0,1,165,261Zm4.82-4.62a1.68,1.68,0,0,0-.69-1.56,4.11,4.11,0,0,0-2.09-.42h-2v4.12h2a3.52,3.52,0,0,0,2.09-.5A1.88,1.88,0,0,0,167.46,256.4Z"/><path class="cls-2" d="M177.9,261v4.92h-3v-14h5.32a9.4,9.4,0,0,1,2.28.26,5,5,0,0,1,1.74.8,3.7,3.7,0,0,1,1.12,1.38,4.64,4.64,0,0,1,.4,2,4.87,4.87,0,0,1-.41,2.07,3.85,3.85,0,0,1-1.14,1.44,4.83,4.83,0,0,1-1.75.84,8.76,8.76,0,0,1-2.24.27Zm4.82-4.62a1.68,1.68,0,0,0-.69-1.56,4.11,4.11,0,0,0-2.09-.42h-2v4.12h2A3.52,3.52,0,0,0,182,258,1.88,1.88,0,0,0,182.72,256.4Z"/><path class="cls-2" d="M189.6,258.94a8.83,8.83,0,0,1,.49-3.05,6.64,6.64,0,0,1,1.38-2.29,6.07,6.07,0,0,1,2.15-1.44,8.09,8.09,0,0,1,5.6,0,6.07,6.07,0,0,1,2.15,1.44,6.64,6.64,0,0,1,1.38,2.29,9.74,9.74,0,0,1,0,6.1,6.55,6.55,0,0,1-1.38,2.29,5.82,5.82,0,0,1-2.15,1.44,8.09,8.09,0,0,1-5.6,0,5.82,5.82,0,0,1-2.15-1.44,6.55,6.55,0,0,1-1.38-2.29A8.79,8.79,0,0,1,189.6,258.94Zm3.1,0a7.9,7.9,0,0,0,.23,1.95,4.25,4.25,0,0,0,.69,1.52,3.14,3.14,0,0,0,1.16,1,4,4,0,0,0,3.28,0,3.14,3.14,0,0,0,1.16-1,4.25,4.25,0,0,0,.69-1.52,7.9,7.9,0,0,0,.23-1.95,8,8,0,0,0-.23-1.95,4.33,4.33,0,0,0-.69-1.52,3.24,3.24,0,0,0-1.16-1,4,4,0,0,0-3.28,0,3.24,3.24,0,0,0-1.16,1,4.33,4.33,0,0,0-.69,1.52A8,8,0,0,0,192.7,258.94Z"/><path class="cls-2" d="M218.42,256.2a4.24,4.24,0,0,1-.71,2.54,4.14,4.14,0,0,1-2,1.46l3.22,5.74h-3.3l-2.9-5.3h-1.86v5.3h-3v-14h5.12a9.39,9.39,0,0,1,2.21.25A5,5,0,0,1,217,253a3.46,3.46,0,0,1,1.08,1.32A4.53,4.53,0,0,1,218.42,256.2Zm-3.08,0a1.51,1.51,0,0,0-.65-1.41,3.91,3.91,0,0,0-2-.39h-1.8v3.78h1.8a3.48,3.48,0,0,0,2-.45A1.74,1.74,0,0,0,215.34,256.22Z"/><path class="cls-2" d="M222.1,251.94h11.1v2.5h-4v11.5h-3v-11.5h-4Z"/><path class="cls-2" d="M155.13,189.38c0,1,0,1.76,0,2.54a2.63,2.63,0,0,1-2.88,2.84H121a2.7,2.7,0,0,1-3-3q0-26.19,0-52.37a2.67,2.67,0,0,1,3-3h31.21a2.68,2.68,0,0,1,3,3v2.31a10.06,10.06,0,0,0,5.8-1.44,22.1,22.1,0,0,0,2.67-2.18c1.44-1.25,2.86-2.52,4.3-3.78A45.34,45.34,0,0,0,179,120.59a53.13,53.13,0,0,0,2.3-5.63,8.15,8.15,0,0,0,.39-2.56c0-3.92,0-7.83,0-11.75a4,4,0,0,1,.63-2,10.64,10.64,0,0,1,16.43-1.53,17.19,17.19,0,0,1,4.6,8.38,34.76,34.76,0,0,1,.61,12.93c-.26,2.25-.73,4.47-1.1,6.7,0,.18-.05.36-.08.65h1.87c8.3,0,16.61,0,24.91.05a19.55,19.55,0,0,1,4.82.63,9.43,9.43,0,0,1,7.32,8,16.33,16.33,0,0,1-.15,7.23,15.16,15.16,0,0,1-1.46,3.11c-.17.31-.3.5-.08.86a13.21,13.21,0,0,1-1.69,15.1,1.05,1.05,0,0,0-.14.86,15.52,15.52,0,0,1-1.73,12.26,12.06,12.06,0,0,1-3.54,3.61,1.14,1.14,0,0,0-.44.76A15.78,15.78,0,0,1,219,194.41a44.07,44.07,0,0,1-6.9.35c-13.36,0-26.71,0-40.06,0a10.92,10.92,0,0,1-7.89-3.09,7,7,0,0,0-3.92-2C158.56,189.48,156.91,189.48,155.13,189.38Zm72-10.53h-1.07c-4.11,0-8.21,0-12.32,0a2.67,2.67,0,1,1,0-5.32c4.72,0,9.44,0,14.16,0a3.79,3.79,0,0,0,2.75-1,8,8,0,0,0,1.39-1.67,10.23,10.23,0,0,0,1.11-7.31c-.09-.51-.35-.61-.83-.61-4.56,0-9.11,0-13.66,0-1.75,0-3.5,0-5.24,0a2.62,2.62,0,0,1-2.39-3.56,2.7,2.7,0,0,1,2.73-1.73q9.66,0,19.32,0a1.63,1.63,0,0,0,1.39-.64,7.49,7.49,0,0,0,1.65-3.48,7,7,0,0,0-1.11-5.72,1.82,1.82,0,0,0-1.62-.81c-2.24.05-4.48,0-6.73,0h-13a2.65,2.65,0,0,1-2.53-3.77,2.7,2.7,0,0,1,2.7-1.57h20.74c1.4,0,1.77-.21,1.9-1.61a20.59,20.59,0,0,0,0-4.44c-.31-2.5-1.6-3.76-4.08-4.19a22.73,22.73,0,0,0-3.58-.35c-4.46-.05-8.92,0-13.38,0h-16a2.5,2.5,0,0,1-2.67-1.95,4.77,4.77,0,0,1,.14-2,63.39,63.39,0,0,0,2-10.84,28.11,28.11,0,0,0-.78-10.17,10.49,10.49,0,0,0-3.55-5.66,5.28,5.28,0,0,0-7,.13,1.57,1.57,0,0,0-.57,1.29q0,5.31,0,10.61a11.51,11.51,0,0,1-.15,2.12,30.92,30.92,0,0,1-2.9,8,51.65,51.65,0,0,1-12.89,16,37.17,37.17,0,0,0-3.4,3,16.13,16.13,0,0,1-10.76,5.33c-.56.05-1.12.08-1.68.12v37.11c1.16,0,2.26,0,3.37,0a13.32,13.32,0,0,1,9,3.53,6.56,6.56,0,0,0,4.75,1.79h31.14c4.11,0,8.21,0,12.32,0a11.21,11.21,0,0,0,8.81-3.8A10.26,10.26,0,0,0,227.14,178.85Zm-77.36-37.13H123.34v47.69h26.44Z"/></g></svg>