<svg xmlns="http://www.w3.org/2000/svg" viewBox="0 0 360 360"><defs><style>.cls-1,.cls-2{fill:#fff;}.cls-2{stroke:#fff;stroke-miterlimit:10;stroke-width:2px;}</style></defs><title>CARD</title><g id="Layer_6" data-name="Layer 6"><rect width="360" height="360"/></g><g id="LINE_ONE" data-name="LINE ONE"><path class="cls-1" d="M137.07,234.16c.5,1.4,1,2.75,1.4,4.06q.41,1.14.66,1.92c.17.52.35,1,.52,1.57s.34,1,.5,1.53.3.93.42,1.32h0c.12-.39.26-.83.42-1.33l.51-1.59c.18-.56.37-1.14.57-1.72s.4-1.16.58-1.7c.44-1.31.91-2.66,1.4-4.06h3.08l-5.16,14H139l-5.1-14Z"/><path class="cls-1" d="M151.29,234.16h3v14h-3Z"/><path class="cls-1" d="M162.29,237.84a1.34,1.34,0,0,0,.78,1.29,9.48,9.48,0,0,0,2.48.67,7.86,7.86,0,0,1,3.67,1.38,3.48,3.48,0,0,1,1.17,2.86,3.92,3.92,0,0,1-.42,1.83,4.07,4.07,0,0,1-1.17,1.38,5.54,5.54,0,0,1-1.79.88,8.12,8.12,0,0,1-2.26.31,7.68,7.68,0,0,1-2.38-.35,6,6,0,0,1-1.8-.93,4.41,4.41,0,0,1-1.16-1.36,3.81,3.81,0,0,1-.46-1.62l3-.48a2.56,2.56,0,0,0,.79,1.67,2.84,2.84,0,0,0,2,.65,5.32,5.32,0,0,0,1-.1,2.43,2.43,0,0,0,.82-.33,1.76,1.76,0,0,0,.55-.57,1.63,1.63,0,0,0,.2-.82,1.35,1.35,0,0,0-.65-1.2,6.31,6.31,0,0,0-2.29-.68,18.1,18.1,0,0,1-2-.46,5.72,5.72,0,0,1-1.63-.77,3.51,3.51,0,0,1-1.08-1.22,3.79,3.79,0,0,1-.39-1.79,3.93,3.93,0,0,1,.4-1.84,3.72,3.72,0,0,1,1.12-1.31,4.84,4.84,0,0,1,1.7-.79,8.1,8.1,0,0,1,2.14-.26,7.66,7.66,0,0,1,2,.25,5.28,5.28,0,0,1,1.67.74,4.23,4.23,0,0,1,1.21,1.21,4.49,4.49,0,0,1,.66,1.64l-3,.66a2.45,2.45,0,0,0-.82-1.52,2.62,2.62,0,0,0-1.78-.56,2.78,2.78,0,0,0-1.69.42A1.33,1.33,0,0,0,162.29,237.84Z"/><path class="cls-1" d="M175.05,234.16h3v14h-3Z"/><path class="cls-1" d="M182.27,234.16h11.1v2.5h-4v11.5h-3v-11.5h-4Z"/><path class="cls-1" d="M196.41,241.16a8.79,8.79,0,0,1,.49-3,6.55,6.55,0,0,1,1.38-2.29,5.82,5.82,0,0,1,2.15-1.44,8.09,8.09,0,0,1,5.6,0,5.82,5.82,0,0,1,2.15,1.44,6.55,6.55,0,0,1,1.38,2.29,9.74,9.74,0,0,1,0,6.1,6.64,6.64,0,0,1-1.38,2.29,5.94,5.94,0,0,1-2.15,1.44,8.09,8.09,0,0,1-5.6,0,5.94,5.94,0,0,1-2.15-1.44,6.64,6.64,0,0,1-1.38-2.29A8.83,8.83,0,0,1,196.41,241.16Zm3.1,0a8,8,0,0,0,.23,2,4.33,4.33,0,0,0,.69,1.52,3.24,3.24,0,0,0,1.16,1,4,4,0,0,0,3.28,0,3.24,3.24,0,0,0,1.16-1,4.33,4.33,0,0,0,.69-1.52,8,8,0,0,0,.23-2,7.9,7.9,0,0,0-.23-1.95,4.25,4.25,0,0,0-.69-1.52,3.14,3.14,0,0,0-1.16-1,4,4,0,0,0-3.28,0,3.14,3.14,0,0,0-1.16,1,4.25,4.25,0,0,0-.69,1.52A7.9,7.9,0,0,0,199.51,241.16Z"/><path class="cls-1" d="M225.23,238.42a4.26,4.26,0,0,1-.71,2.54,4.21,4.21,0,0,1-2,1.46l3.22,5.74h-3.3l-2.9-5.3h-1.86v5.3h-3v-14h5.12a8.89,8.89,0,0,1,2.21.25,4.61,4.61,0,0,1,1.69.77,3.32,3.32,0,0,1,1.08,1.32A4.47,4.47,0,0,1,225.23,238.42Zm-3.08,0a1.51,1.51,0,0,0-.65-1.41,3.91,3.91,0,0,0-2-.39h-1.8v3.78h1.8a3.48,3.48,0,0,0,2-.45A1.74,1.74,0,0,0,222.15,238.44Z"/></g><g id="LINE_TWO" data-name="LINE TWO"><path class="cls-1" d="M109.39,265.94v-14h9.54v2.48h-6.58v3.08h6.12V260h-6.12v3.48H119v2.48Z"/><path class="cls-1" d="M131.11,258.6l5.18,7.34h-3.6l-3.38-4.86-3.44,4.86h-3.36l5.14-7.2-4.74-6.8h3.62l2.94,4.32,3-4.32h3.38Z"/><path class="cls-1" d="M143.39,261v4.92h-3v-14h5.32a9.4,9.4,0,0,1,2.28.26,5,5,0,0,1,1.74.8,3.7,3.7,0,0,1,1.12,1.38,4.64,4.64,0,0,1,.4,2,4.87,4.87,0,0,1-.41,2.07,3.85,3.85,0,0,1-1.14,1.44,4.83,4.83,0,0,1-1.75.84,8.7,8.7,0,0,1-2.24.27Zm4.82-4.62a1.68,1.68,0,0,0-.69-1.56,4.11,4.11,0,0,0-2.09-.42h-2v4.12h2a3.52,3.52,0,0,0,2.09-.5A1.88,1.88,0,0,0,148.21,256.4Z"/><path class="cls-1" d="M155.67,265.94v-14h9.54v2.48h-6.58v3.08h6.12V260h-6.12v3.48h6.68v2.48Z"/><path class="cls-1" d="M180.43,256.2a4.24,4.24,0,0,1-.71,2.54,4.14,4.14,0,0,1-1.95,1.46l3.22,5.74h-3.3l-2.9-5.3h-1.86v5.3h-3v-14h5.12a9.39,9.39,0,0,1,2.21.25A4.87,4.87,0,0,1,179,253a3.46,3.46,0,0,1,1.08,1.32A4.53,4.53,0,0,1,180.43,256.2Zm-3.08,0a1.51,1.51,0,0,0-.65-1.41,3.91,3.91,0,0,0-2-.39h-1.8v3.78h1.8a3.48,3.48,0,0,0,2-.45A1.74,1.74,0,0,0,177.35,256.22Z"/><path class="cls-1" d="M185.47,251.94h3v14h-3Z"/><path class="cls-1" d="M193.75,265.94v-14h9.54v2.48h-6.58v3.08h6.12V260h-6.12v3.48h6.68v2.48Z"/><path class="cls-1" d="M208,251.94h3.12l2.32,3.76,1.08,1.75.84,1.37.8,1.29.64,1h.06v-9.2h2.84v14h-3.12c-.8-1.29-1.56-2.52-2.28-3.7l-1.07-1.73c-.29-.46-.57-.92-.85-1.38l-.81-1.32-.67-1.07h-.06v9.2H208Z"/><path class="cls-1" d="M224.43,258.94a9.16,9.16,0,0,1,.48-3.07,6.47,6.47,0,0,1,1.37-2.29,5.88,5.88,0,0,1,2.16-1.43,8,8,0,0,1,2.85-.49,6.83,6.83,0,0,1,3.76,1,5.39,5.39,0,0,1,2.16,3l-2.92,1a4,4,0,0,0-1.08-1.83,2.86,2.86,0,0,0-2-.65,3.51,3.51,0,0,0-1.62.36,3.26,3.26,0,0,0-1.16,1,4.37,4.37,0,0,0-.69,1.51,7.77,7.77,0,0,0-.23,1.92,7.57,7.57,0,0,0,.23,1.91,4.37,4.37,0,0,0,.69,1.51,3.19,3.19,0,0,0,1.16,1,3.54,3.54,0,0,0,1.64.36,2.94,2.94,0,0,0,1.89-.58,3.48,3.48,0,0,0,1.11-1.76l2.88,1a6,6,0,0,1-2.16,2.8,6.42,6.42,0,0,1-3.76,1,7.5,7.5,0,0,1-2.79-.49,5.82,5.82,0,0,1-2.14-1.42,6.3,6.3,0,0,1-1.37-2.29A9.18,9.18,0,0,1,224.43,258.94Z"/><path class="cls-1" d="M241.61,265.94v-14h9.54v2.48h-6.58v3.08h6.12V260h-6.12v3.48h6.68v2.48Z"/></g><g id="ICON"><path class="cls-2" d="M133.18,121.25c-3.59-10.4-3.13-12,4.89-17.3-.94-4.42-.82-8.51,3.93-11,4.57-2.45,6.8-2.14,11.9,2,7-6.91,11.68-6.28,18,1.66,7.92,9.89,16.2,19.47,24.35,29.17a1.06,1.06,0,0,0,.55.37c2.2-3.24,4-6.72,6.54-9.4a9.88,9.88,0,0,1,10.46-2.49c3.85,1.26,4.41,4.86,4.45,8.23.1,9-.28,18.08-.06,27.11a184.13,184.13,0,0,0,1.57,20.73c1.07,7.78-2.5,13.25-7.93,17.79a44.94,44.94,0,0,1-24.37,10.06c-4.79.54-8.86-1.28-12-5.32a59.26,59.26,0,0,0-9.28-10.13c-11.31-9-19.73-20.37-27.1-32.6q-4.41-7.31-8.29-14.92C128.18,130,127.76,125,133.18,121.25Zm2.79,3.09c-3.87,2.17-3.72,4.84-2.37,7.83a147.1,147.1,0,0,0,23.76,36.69c6.58,7.52,14.22,14.1,21,21.44,2.63,2.84,5.3,4.54,9,4,9.21-1.19,17.55-4.49,24.14-11.24,3.05-3.11,5.14-6.71,4.76-11.55-.74-9.4-1.15-18.83-1.48-28.25-.24-7,.09-13.94-.23-20.89-.22-4.93-2.56-6.16-6.92-4-5,2.53-6.39,7.09-6.22,12.28.08,2.36.72,4.7.7,7.05a4.63,4.63,0,0,1-1.52,3.4c-7,4.65-9.83,11.07-9.23,19.31.07,1-.82,2-1.27,3-.77-.93-2.1-1.79-2.2-2.78-.85-8.28,1.32-15.66,8.18-20.75,3.39-2.52,2.25-4.89,1-7.48-.58-1.21-1.82-2.09-2.74-3.14-7.2-8.32-14.44-16.61-21.58-25-2.26-2.64-4.09-5.67-6.42-8.24-2-2.22-4.43-3.23-7.3-.82s-1.65,4.4.11,6.72q10.51,13.8,20.79,27.78c.71,1,.45,2.64.63,4-1.24-.59-2.84-.88-3.65-1.83-2.35-2.74-4.35-5.79-6.56-8.65-6.7-8.72-13.36-17.47-20.2-26.08-2.12-2.67-5.23-2.57-7.49-.14-2.46,2.64-1.22,5.28.48,7.57,3,4,6.23,7.86,9.34,11.8,5.61,7.12,11.27,14.2,16.73,21.43.68.9.29,2.6.4,3.93-1.1-.58-2.48-.92-3.25-1.8-2.49-2.81-4.77-5.82-7.11-8.77l-18.81-23.7c-6.5,3.12-7.36,5.66-3.76,11.21,1.74,2.68,3.87,5.11,5.84,7.64,6.1,7.79,12.26,15.54,18.25,23.41.63.82.32,2.34.45,3.54a20.66,20.66,0,0,1-3.42-1.31c-.66-.4-1-1.29-1.55-1.94Z"/><path class="cls-1" d="M130.79,155.9l1.66-2.06c.67.82,1.81,1.56,2,2.46,2.47,15.71,11.33,25.84,26.34,30.83,1,.35,1.74,1.71,2.6,2.61-1.05.39-2.25,1.33-3.13,1.09C143.4,186.07,132.57,173.1,130.79,155.9Z"/><path class="cls-1" d="M230.68,133.66a1.39,1.39,0,0,1,0,.41c-.52,1.68-1.11,4.81-1.57,4.79-3.47-.13-1.82-3-1.94-4.77-1-14.62-7.38-25.72-20.57-32.65-1.12-.59-1.79-2-2.67-3.07,1.45-.1,3.2-.78,4.31-.22C222.71,105.52,229.89,117.59,230.68,133.66Z"/><path class="cls-1" d="M215.75,92.83c1.37.32,2.91.34,4.09,1A39.26,39.26,0,0,1,239.07,119c.28,1-.45,2.34-.72,3.51-.94-.92-2.38-1.68-2.74-2.79-3.13-9.84-8.83-17.55-17.87-22.74-1.1-.64-1.8-2-2.69-3Z"/><path class="cls-1" d="M153.54,195.46c-1.54.59-2.54,1.34-3.48,1.27-9.09-.68-23.1-13.19-25-22.33-.18-.84.47-1.86.74-2.79,1,.73,2.38,1.26,2.83,2.23,3.94,8.63,10.1,14.87,19,18.29,1.16.44,2.43.64,3.55,1.16C151.84,193.6,152.32,194.32,153.54,195.46Z"/><path d="M136,124.34l20.3,25.72c.51.65.89,1.54,1.55,1.94a20.66,20.66,0,0,0,3.42,1.31c-.13-1.2.18-2.72-.45-3.54-6-7.87-12.15-15.62-18.25-23.41-2-2.53-4.1-5-5.84-7.64-3.6-5.55-2.74-8.09,3.76-11.21l18.81,23.7c2.34,2.95,4.62,6,7.11,8.77.77.88,2.15,1.22,3.25,1.8-.11-1.33.28-3-.4-3.93-5.46-7.23-11.12-14.31-16.73-21.43-3.11-3.94-6.36-7.77-9.34-11.8-1.7-2.29-2.94-4.93-.48-7.57,2.26-2.43,5.37-2.53,7.49.14,6.84,8.61,13.5,17.36,20.2,26.08,2.21,2.86,4.21,5.91,6.56,8.65.81,1,2.41,1.24,3.65,1.83-.18-1.35.08-3-.63-4q-10.24-14-20.79-27.78c-1.76-2.32-3-4.28-.11-6.72s5.28-1.4,7.3.82c2.33,2.57,4.16,5.6,6.42,8.24,7.14,8.38,14.38,16.67,21.58,25,.92,1.05,2.16,1.93,2.74,3.14,1.26,2.59,2.4,5-1,7.48-6.86,5.09-9,12.47-8.18,20.75.1,1,1.43,1.85,2.2,2.78.45-1,1.34-2,1.27-3-.6-8.24,2.28-14.66,9.23-19.31a4.63,4.63,0,0,0,1.52-3.4c0-2.35-.62-4.69-.7-7.05-.17-5.19,1.22-9.75,6.22-12.28,4.36-2.21,6.7-1,6.92,4,.32,7,0,13.93.23,20.89.33,9.42.74,18.85,1.48,28.25.38,4.84-1.71,8.44-4.76,11.55-6.59,6.75-14.93,10-24.14,11.24-3.73.49-6.4-1.21-9-4-6.78-7.34-14.42-13.92-21-21.44a147.1,147.1,0,0,1-23.76-36.69C132.25,129.18,132.1,126.51,136,124.34Z"/></g></svg>