<svg xmlns="http://www.w3.org/2000/svg" viewBox="0 0 360 360"><defs><style>.cls-1{fill:#0e6e39;}.cls-2{fill:#fff;}.cls-3,.cls-4,.cls-5,.cls-6,.cls-7{fill:none;stroke:#0e6e39;stroke-miterlimit:10;}.cls-3,.cls-5{stroke-linecap:round;}.cls-3,.cls-6{stroke-width:3px;}.cls-4,.cls-5{stroke-width:4px;}.cls-7{stroke-width:5px;}</style></defs><title>CARD</title><g id="BACKGROUND"><rect class="cls-1" y="336.35" width="360" height="23.94"/><path class="cls-2" d="M207,344.38h3.65a3.12,3.12,0,0,1,1,.17,2.51,2.51,0,0,1,.78.46,2,2,0,0,1,.48.7,2.29,2.29,0,0,1,.17.87,2.06,2.06,0,0,1-.11.68,1.62,1.62,0,0,1-.28.52,1.55,1.55,0,0,1-.4.37,1.68,1.68,0,0,1-.46.24,2.33,2.33,0,0,1,.56.15,1.76,1.76,0,0,1,.52.35,1.61,1.61,0,0,1,.39.55,2.05,2.05,0,0,1,.15.83,2.6,2.6,0,0,1-.2,1,2.5,2.5,0,0,1-.57.79,2.7,2.7,0,0,1-.85.52,2.92,2.92,0,0,1-1.08.19H207Zm1.75,1.47v1.94H210a1.66,1.66,0,0,0,1-.22.87.87,0,0,0,.31-.78.88.88,0,0,0-.27-.73,1.49,1.49,0,0,0-.9-.21Zm0,5.47h1.44a1.82,1.82,0,0,0,1.16-.27,1,1,0,0,0,.3-.79.85.85,0,0,0-.37-.82,2.33,2.33,0,0,0-1.11-.21h-1.42Z"/><path class="cls-2" d="M219.57,353a3.3,3.3,0,0,1-2.55-.87,3.34,3.34,0,0,1-.81-2.39v-5.31H218v5.32a2,2,0,0,0,.39,1.26,1.38,1.38,0,0,0,1.17.5,1.41,1.41,0,0,0,1.18-.5,2,2,0,0,0,.38-1.26v-5.32h1.8v5.31a3.38,3.38,0,0,1-.8,2.39A3.34,3.34,0,0,1,219.57,353Z"/><path class="cls-2" d="M226.05,344.38h1.8v8.4h-1.8Z"/><path class="cls-2" d="M231,344.38h1.8v6.9h3.67v1.5H231Z"/><path class="cls-2" d="M237.23,344.38h6.66v1.5h-2.42v6.9h-1.81v-6.9h-2.43Z"/><path class="cls-2" d="M250.45,352.78v-8.4h5.72v1.49h-4v1.85h3.67v1.48h-3.67v2.09h4v1.49Z"/><path class="cls-2" d="M259,344.38h1.87l1.39,2.26.65,1.05.5.82.48.77.38.62h0v-5.52H266v8.4h-1.87l-1.37-2.22-.64-1-.51-.83-.48-.79-.41-.64h0v5.52H259Z"/><path class="cls-2" d="M270.44,344.38l.84,2.44c.16.45.29.84.39,1.15s.21.63.32.94.2.62.3.92l.25.79h0c.07-.23.16-.5.25-.8l.31-.95c.11-.34.22-.68.34-1s.24-.69.35-1c.26-.79.54-1.6.84-2.44h1.85l-3.1,8.4h-1.83l-3.06-8.4Z"/><path class="cls-2" d="M279,344.38h1.8v8.4H279Z"/><path class="cls-2" d="M290.23,346.94a2.38,2.38,0,0,1-1.6,2.4l1.93,3.44h-2l-1.74-3.18h-1.11v3.18h-1.79v-8.4H287a5.47,5.47,0,0,1,1.33.15,2.84,2.84,0,0,1,1,.46,2.16,2.16,0,0,1,.65.79A2.76,2.76,0,0,1,290.23,346.94Zm-1.85,0a.91.91,0,0,0-.39-.85,2.41,2.41,0,0,0-1.18-.23h-1.08v2.27h1.08a2.08,2.08,0,0,0,1.18-.27A1,1,0,0,0,288.38,347Z"/><path class="cls-2" d="M292.9,348.58a5.24,5.24,0,0,1,.3-1.83,3.82,3.82,0,0,1,.82-1.37,3.54,3.54,0,0,1,1.3-.87,4.49,4.49,0,0,1,1.68-.3,4.56,4.56,0,0,1,1.68.3,3.59,3.59,0,0,1,1.29.87,3.82,3.82,0,0,1,.82,1.37,5.73,5.73,0,0,1,0,3.66,3.82,3.82,0,0,1-.82,1.37,3.59,3.59,0,0,1-1.29.87,4.56,4.56,0,0,1-1.68.3,4.49,4.49,0,0,1-1.68-.3,3.54,3.54,0,0,1-1.3-.87,3.82,3.82,0,0,1-.82-1.37A5.24,5.24,0,0,1,292.9,348.58Zm1.86,0a4.69,4.69,0,0,0,.14,1.17,2.47,2.47,0,0,0,.42.91,1.88,1.88,0,0,0,.69.59,2.42,2.42,0,0,0,2,0,2,2,0,0,0,.7-.59,2.63,2.63,0,0,0,.41-.91,4.69,4.69,0,0,0,.14-1.17,4.81,4.81,0,0,0-.14-1.17,2.72,2.72,0,0,0-.41-.91,2,2,0,0,0-.7-.59,2.42,2.42,0,0,0-2,0,1.88,1.88,0,0,0-.69.59,2.54,2.54,0,0,0-.42.91A4.81,4.81,0,0,0,294.76,348.58Z"/><path class="cls-2" d="M303.91,344.38h1.87l1.39,2.26c.27.42.48.77.65,1.05l.5.82.48.77.39.62h0v-5.52h1.71v8.4h-1.87c-.48-.77-.94-1.51-1.37-2.22-.26-.41-.47-.76-.64-1s-.35-.55-.51-.83l-.49-.79-.4-.64h0v5.52h-1.7Z"/><path class="cls-2" d="M317.79,352.78q-.18-.5-.45-1.29c-.18-.53-.36-1.09-.56-1.66s-.38-1.14-.55-1.69-.33-1-.44-1.4h0v6H314.1v-8.4h2.51c.35,1,.66,2,.94,2.82.17.51.31.93.42,1.24s.2.62.3.91.17.55.25.78.13.4.16.5l.15-.5c.08-.23.16-.51.26-.82s.21-.66.33-1,.23-.73.35-1.09c.27-.85.57-1.8.9-2.82h2.51v8.4h-1.66v-6h0l-.29.9c-.11.35-.23.72-.37,1.11s-.26.79-.4,1.19-.26.79-.38,1.16l-.33,1c-.1.3-.19.53-.25.7Z"/><path class="cls-2" d="M326.35,352.78v-8.4h5.72v1.49h-3.95v1.85h3.67v1.48h-3.67v2.09h4v1.49Z"/><path class="cls-2" d="M334.91,344.38h1.88l1.39,2.26.65,1.05.5.82.48.77.38.62h0v-5.52h1.7v8.4h-1.87l-1.37-2.22-.64-1-.51-.83-.48-.79-.41-.64h0v5.52h-1.71Z"/><path class="cls-2" d="M344.47,344.38h6.66v1.5H348.7v6.9h-1.81v-6.9h-2.42Z"/></g><g id="LINE_ONE" data-name="LINE ONE"><path class="cls-1" d="M138.83,243.44v4.92h-3v-14h5.32a9.4,9.4,0,0,1,2.28.26,5,5,0,0,1,1.74.8,3.7,3.7,0,0,1,1.12,1.38,4.64,4.64,0,0,1,.4,2,4.87,4.87,0,0,1-.41,2.07,3.85,3.85,0,0,1-1.14,1.44,4.83,4.83,0,0,1-1.75.84,8.76,8.76,0,0,1-2.24.27Zm4.82-4.62a1.68,1.68,0,0,0-.69-1.56,4.11,4.11,0,0,0-2.09-.42h-2V241h2a3.52,3.52,0,0,0,2.09-.5A1.88,1.88,0,0,0,143.65,238.82Z"/><path class="cls-1" d="M162.17,248.36h-3.1L158,245.12h-5l-1.12,3.24h-2.94l5-14h3.22Zm-6.76-10.72c0,.11-.07.27-.14.47s-.14.44-.22.7-.17.54-.27.84l-.29.87c-.23.7-.47,1.44-.74,2.22h3.38c-.27-.78-.51-1.52-.74-2.22-.15-.4-.26-.73-.35-1s-.17-.51-.24-.75-.14-.46-.21-.67-.11-.36-.14-.47Z"/><path class="cls-1" d="M165,241.36a9.16,9.16,0,0,1,.48-3.07,6.47,6.47,0,0,1,1.37-2.29,5.88,5.88,0,0,1,2.16-1.43,8,8,0,0,1,2.85-.49,6.83,6.83,0,0,1,3.76,1,5.39,5.39,0,0,1,2.16,3l-2.92,1a4,4,0,0,0-1.08-1.83,2.86,2.86,0,0,0-2-.65,3.51,3.51,0,0,0-1.62.36,3.26,3.26,0,0,0-1.16,1,4.37,4.37,0,0,0-.69,1.51,7.77,7.77,0,0,0-.23,1.92,7.57,7.57,0,0,0,.23,1.91,4.37,4.37,0,0,0,.69,1.51,3.19,3.19,0,0,0,1.16,1,3.54,3.54,0,0,0,1.64.36,2.94,2.94,0,0,0,1.89-.58,3.48,3.48,0,0,0,1.11-1.76l2.88,1a6,6,0,0,1-2.16,2.8,6.42,6.42,0,0,1-3.76,1,7.5,7.5,0,0,1-2.79-.49,5.82,5.82,0,0,1-2.14-1.42,6.3,6.3,0,0,1-1.37-2.29A9.18,9.18,0,0,1,165,241.36Z"/><path class="cls-1" d="M182.21,234.36h3v14h-3Z"/><path class="cls-1" d="M190.49,248.36v-14h9.58v2.48h-6.62v3.08h6.1v2.48h-6.1v6Z"/><path class="cls-1" d="M204.55,234.36h3v14h-3Z"/><path class="cls-1" d="M212.25,241.36a9.16,9.16,0,0,1,.48-3.07A6.47,6.47,0,0,1,214.1,236a5.88,5.88,0,0,1,2.16-1.43,8,8,0,0,1,2.85-.49,6.83,6.83,0,0,1,3.76,1,5.39,5.39,0,0,1,2.16,3l-2.92,1a4,4,0,0,0-1.08-1.83,2.86,2.86,0,0,0-2-.65,3.51,3.51,0,0,0-1.62.36,3.26,3.26,0,0,0-1.16,1,4.37,4.37,0,0,0-.69,1.51,7.77,7.77,0,0,0-.23,1.92,7.57,7.57,0,0,0,.23,1.91,4.37,4.37,0,0,0,.69,1.51,3.19,3.19,0,0,0,1.16,1,3.54,3.54,0,0,0,1.64.36,2.94,2.94,0,0,0,1.89-.58,3.48,3.48,0,0,0,1.11-1.76l2.88,1a6,6,0,0,1-2.16,2.8,6.42,6.42,0,0,1-3.76,1,7.5,7.5,0,0,1-2.79-.49,5.82,5.82,0,0,1-2.14-1.42,6.3,6.3,0,0,1-1.37-2.29A9.18,9.18,0,0,1,212.25,241.36Z"/></g><g id="LINE_TWO" data-name="LINE TWO"><path class="cls-1" d="M109.84,252.15H113l2.32,3.76,1.08,1.75.84,1.37.8,1.29.64,1h.06v-9.2h2.84v14h-3.12l-2.28-3.7-1.07-1.73c-.29-.46-.57-.92-.85-1.38l-.81-1.32c-.26-.42-.48-.78-.67-1.07h-.06v9.2h-2.84Z"/><path class="cls-1" d="M126.24,259.15a8.83,8.83,0,0,1,.49-3,6.64,6.64,0,0,1,1.38-2.29,5.82,5.82,0,0,1,2.15-1.44,8.09,8.09,0,0,1,5.6,0,5.82,5.82,0,0,1,2.15,1.44,6.64,6.64,0,0,1,1.38,2.29,9.74,9.74,0,0,1,0,6.1,6.64,6.64,0,0,1-1.38,2.29,5.82,5.82,0,0,1-2.15,1.44,8.09,8.09,0,0,1-5.6,0,5.82,5.82,0,0,1-2.15-1.44,6.64,6.64,0,0,1-1.38-2.29A8.83,8.83,0,0,1,126.24,259.15Zm3.1,0a7.9,7.9,0,0,0,.23,2,4.33,4.33,0,0,0,.69,1.52,3.14,3.14,0,0,0,1.16,1,4,4,0,0,0,3.28,0,3.14,3.14,0,0,0,1.16-1,4.33,4.33,0,0,0,.69-1.52,8.38,8.38,0,0,0,0-3.9,4.33,4.33,0,0,0-.69-1.52,3.14,3.14,0,0,0-1.16-1,4,4,0,0,0-3.28,0,3.14,3.14,0,0,0-1.16,1,4.33,4.33,0,0,0-.69,1.52A7.9,7.9,0,0,0,129.34,259.15Z"/><path class="cls-1" d="M155.06,256.41a3.94,3.94,0,0,1-2.66,4l3.22,5.74h-3.3l-2.9-5.3h-1.86v5.3h-3v-14h5.12a8.89,8.89,0,0,1,2.21.25,4.78,4.78,0,0,1,1.69.77,3.46,3.46,0,0,1,1.08,1.32A4.47,4.47,0,0,1,155.06,256.41Zm-3.08,0a1.51,1.51,0,0,0-.65-1.41,3.91,3.91,0,0,0-2-.39h-1.8v3.78h1.8a3.48,3.48,0,0,0,2-.45A1.74,1.74,0,0,0,152,256.43Z"/><path class="cls-1" d="M158.74,252.15h11.1v2.5h-4v11.5h-3v-11.5h-4Z"/><path class="cls-1" d="M174.06,252.15h3v5.54h5.3v-5.54h3v14h-3v-5.94h-5.3v5.94h-3Z"/><path class="cls-1" d="M207.8,252.15l-3.5,14h-3.48c-.29-1.29-.57-2.53-.84-3.7l-.4-1.74c-.11-.47-.21-.93-.31-1.4s-.2-.91-.3-1.34l-.25-1.1h-.06q-.1.47-.24,1.11c-.09.43-.2.9-.32,1.39s-.24,1-.36,1.53-.24,1-.36,1.55c-.28,1.17-.58,2.41-.9,3.7H193l-3.52-14h3c.35,1.49.67,2.91,1,4.26.17.8.32,1.46.44,2s.23,1,.34,1.56l.31,1.48c.1.47.18.86.23,1.18h.06c.07-.32.15-.72.25-1.19s.21-1,.34-1.53l.4-1.72c.14-.6.28-1.19.41-1.76q.48-2,1-4.26h2.82q.54,2.23,1,4.26c.19.8.34,1.46.47,2s.25,1,.37,1.56.23,1,.33,1.48.18.86.25,1.18h.06c.07-.32.15-.72.25-1.19l.33-1.53c.12-.55.25-1.12.38-1.72s.27-1.19.4-1.76c.32-1.35.65-2.77,1-4.26Z"/><path class="cls-1" d="M211.92,266.15v-14h9.54v2.48h-6.58v3.08H221v2.48h-6.12v3.48h6.68v2.48Z"/><path class="cls-1" d="M228.92,255.83a1.34,1.34,0,0,0,.78,1.29,9.48,9.48,0,0,0,2.48.67,7.86,7.86,0,0,1,3.67,1.38A3.48,3.48,0,0,1,237,262a3.92,3.92,0,0,1-.42,1.83,4.07,4.07,0,0,1-1.17,1.38,5.65,5.65,0,0,1-1.79.88,7.77,7.77,0,0,1-2.26.31,7.68,7.68,0,0,1-2.38-.35,5.66,5.66,0,0,1-1.8-.93,4.41,4.41,0,0,1-1.16-1.36,3.81,3.81,0,0,1-.46-1.62l3-.48a2.56,2.56,0,0,0,.79,1.67,2.84,2.84,0,0,0,2,.65,4.61,4.61,0,0,0,1-.1,2.52,2.52,0,0,0,.82-.33,1.66,1.66,0,0,0,.55-.57,1.63,1.63,0,0,0,.2-.82,1.35,1.35,0,0,0-.65-1.2,6.31,6.31,0,0,0-2.29-.68,16.15,16.15,0,0,1-2-.46,5.47,5.47,0,0,1-1.63-.77,3.51,3.51,0,0,1-1.08-1.22,3.76,3.76,0,0,1-.39-1.79,3.93,3.93,0,0,1,.4-1.84,3.72,3.72,0,0,1,1.12-1.31,5,5,0,0,1,1.7-.79,8.48,8.48,0,0,1,2.14-.26,7.71,7.71,0,0,1,2,.25,5.51,5.51,0,0,1,1.67.74,4.36,4.36,0,0,1,1.21,1.21,4.49,4.49,0,0,1,.66,1.64l-3,.66a2.45,2.45,0,0,0-.82-1.52,2.67,2.67,0,0,0-1.78-.56,2.78,2.78,0,0,0-1.69.42A1.33,1.33,0,0,0,228.92,255.83Z"/><path class="cls-1" d="M240.12,252.15h11.1v2.5h-4v11.5h-3v-11.5h-4Z"/></g><g id="ICON"><path class="cls-3" d="M165.92,112.24l-10.31,8.53a.08.08,0,0,1-.11,0l-10.21-8.45"/><path class="cls-3" d="M186.16,112.24l-10.11,8.53a.08.08,0,0,1-.11,0l-10-8.45"/><line class="cls-4" x1="124.67" y1="108.48" x2="124.67" y2="198.04"/><polyline class="cls-5" points="107.91 125.31 124.74 108.48 141.43 125.16"/><polyline class="cls-5" points="107.91 139.65 124.74 122.82 141.43 139.5"/><polyline class="cls-5" points="107.91 153.99 124.74 137.16 141.43 153.84"/><polyline class="cls-5" points="107.91 168.32 124.74 151.5 141.43 168.18"/><line class="cls-6" x1="92.15" y1="138.43" x2="92.15" y2="196.06"/><polyline class="cls-3" points="81.37 149.26 92.2 138.43 102.94 149.16"/><polyline class="cls-3" points="81.37 158.48 92.2 147.65 102.94 158.39"/><polyline class="cls-3" points="81.37 167.71 92.2 156.88 102.94 167.62"/><polyline class="cls-3" points="81.37 176.94 92.2 166.11 102.94 176.85"/><path class="cls-7" d="M70.63,197.13H290.09s.05,0,0-.06L239.5,135.45a.06.06,0,0,0-.09,0L221.55,156.8a.06.06,0,0,1-.1,0L167.37,91a.07.07,0,0,0-.1,0l-29,29.29"/></g></svg>