<svg xmlns="http://www.w3.org/2000/svg" viewBox="0 0 360 360"><defs><style>.cls-1,.cls-6{fill:#fff;}.cls-2{fill:#4f497b;}.cls-3{fill:#4f4a7c;}.cls-4,.cls-5{fill:none;}.cls-4,.cls-5,.cls-6{stroke:#4f4a7c;stroke-miterlimit:10;}.cls-4{stroke-width:3px;}.cls-6{stroke-width:2px;}</style></defs><title>CARD</title><g id="Layer_6" data-name="Layer 6"><rect class="cls-1" x="-1.58" y="-0.41" width="362" height="360"/></g><g id="BACKGROUND"><rect class="cls-2" y="336.06" width="360" height="23.94"/><path class="cls-1" d="M312.05,346.29a.82.82,0,0,0,.47.78,5.38,5.38,0,0,0,1.49.4,4.68,4.68,0,0,1,2.2.83,2.07,2.07,0,0,1,.7,1.72,2.3,2.3,0,0,1-.25,1.09,2.43,2.43,0,0,1-.7.83,3.21,3.21,0,0,1-1.08.53,4.79,4.79,0,0,1-1.35.18,4.53,4.53,0,0,1-1.43-.21,3.43,3.43,0,0,1-1.08-.55,2.71,2.71,0,0,1-.7-.82,2.24,2.24,0,0,1-.27-1l1.8-.29a1.55,1.55,0,0,0,.47,1,1.71,1.71,0,0,0,1.21.39,2.84,2.84,0,0,0,.6-.06,1.31,1.31,0,0,0,.5-.2,1,1,0,0,0,.33-.34.94.94,0,0,0,.12-.49.81.81,0,0,0-.39-.72,3.92,3.92,0,0,0-1.38-.41,9.6,9.6,0,0,1-1.22-.27,3.18,3.18,0,0,1-1-.47,2,2,0,0,1-.65-.73,2.32,2.32,0,0,1-.23-1.07,2.45,2.45,0,0,1,.24-1.11,2.18,2.18,0,0,1,.67-.78,3.21,3.21,0,0,1,1-.48,5.17,5.17,0,0,1,1.28-.15,4.74,4.74,0,0,1,1.22.15,3.49,3.49,0,0,1,1,.44,2.63,2.63,0,0,1,.72.73,2.51,2.51,0,0,1,.4,1l-1.82.4a1.44,1.44,0,0,0-.5-.91,1.55,1.55,0,0,0-1.06-.34,1.67,1.67,0,0,0-1,.25A.82.82,0,0,0,312.05,346.29Z"/><path class="cls-1" d="M318.77,344.09h6.66v1.5H323v6.9H321.2v-6.9h-2.43Z"/><path class="cls-1" d="M334.3,352.49h-1.86l-.67-1.95h-3l-.68,1.95h-1.76l3-8.4h1.94Zm-4.06-6.43a2.83,2.83,0,0,1-.08.28l-.13.42-.16.5-.18.52c-.13.42-.28.86-.44,1.33h2l-.45-1.33c-.09-.24-.16-.43-.21-.59s-.1-.31-.14-.45-.09-.28-.13-.4a2.83,2.83,0,0,1-.08-.28Z"/><path class="cls-1" d="M336.78,352.49v-8.4h5.75v1.48h-4v1.85h3.66v1.49h-3.66v3.58Z"/><path class="cls-1" d="M345.22,352.49v-8.4H351v1.48h-4v1.85h3.66v1.49H347v3.58Z"/></g><g id="LINE_ONE" data-name="LINE ONE"><path class="cls-3" d="M83,236.92a9.16,9.16,0,0,1,.48-3.07,6.47,6.47,0,0,1,1.37-2.29A6,6,0,0,1,87,230.13a8,8,0,0,1,2.85-.49,6.81,6.81,0,0,1,3.76,1,5.29,5.29,0,0,1,2.16,3l-2.92,1a4,4,0,0,0-1.08-1.83,2.86,2.86,0,0,0-2-.65,3.51,3.51,0,0,0-1.62.36,3.35,3.35,0,0,0-1.16,1,4.77,4.77,0,0,0-.69,1.51,7.77,7.77,0,0,0-.23,1.92,7.57,7.57,0,0,0,.23,1.91,4.77,4.77,0,0,0,.69,1.51,3.28,3.28,0,0,0,1.16,1,3.57,3.57,0,0,0,1.64.36,2.9,2.9,0,0,0,1.89-.58,3.48,3.48,0,0,0,1.11-1.76l2.88,1a5.9,5.9,0,0,1-2.16,2.8,6.4,6.4,0,0,1-3.76,1,7.57,7.57,0,0,1-2.79-.49,5.9,5.9,0,0,1-2.14-1.42A6.3,6.3,0,0,1,83.51,240,9.18,9.18,0,0,1,83,236.92Z"/><path class="cls-3" d="M99.63,236.92a9.08,9.08,0,0,1,.49-3,6.64,6.64,0,0,1,1.38-2.29,6.16,6.16,0,0,1,2.15-1.44,8.09,8.09,0,0,1,5.6,0,6.07,6.07,0,0,1,2.15,1.44,6.35,6.35,0,0,1,1.38,2.29,9.74,9.74,0,0,1,0,6.1,6.27,6.27,0,0,1-1.38,2.29,5.82,5.82,0,0,1-2.15,1.44,8.09,8.09,0,0,1-5.6,0,5.9,5.9,0,0,1-2.15-1.44,6.55,6.55,0,0,1-1.38-2.29A9,9,0,0,1,99.63,236.92Zm3.1,0a7.9,7.9,0,0,0,.23,2,4.63,4.63,0,0,0,.69,1.52,3.22,3.22,0,0,0,1.16,1,3.57,3.57,0,0,0,1.64.35,3.51,3.51,0,0,0,1.64-.35,3.06,3.06,0,0,0,1.16-1,4.25,4.25,0,0,0,.69-1.52,7.45,7.45,0,0,0,.23-2,7.56,7.56,0,0,0-.23-1.95,4.33,4.33,0,0,0-.69-1.52,3.16,3.16,0,0,0-1.16-1,3.64,3.64,0,0,0-1.64-.35,3.7,3.7,0,0,0-1.64.35,3.32,3.32,0,0,0-1.16,1A4.73,4.73,0,0,0,103,235,8,8,0,0,0,102.73,236.92Z"/><path class="cls-3" d="M118,229.92h3v11.5h6.12v2.5H118Z"/><path class="cls-3" d="M131.29,229.92h3v11.5h6.12v2.5h-9.12Z"/><path class="cls-3" d="M156.77,243.92h-3.1l-1.12-3.24h-5l-1.12,3.24h-2.94l5-14h3.22ZM150,233.2a3.53,3.53,0,0,1-.14.47c-.06.21-.14.44-.22.7s-.17.54-.27.84-.19.59-.29.87c-.22.7-.47,1.44-.74,2.22h3.38l-.74-2.22-.35-1q-.12-.39-.24-.75c-.07-.24-.14-.46-.21-.67l-.14-.47Z"/><path class="cls-3" d="M160.91,229.92H167a5.22,5.22,0,0,1,1.75.28,3.87,3.87,0,0,1,1.3.77,3.21,3.21,0,0,1,.81,1.16,3.67,3.67,0,0,1,.28,1.45,3.33,3.33,0,0,1-.18,1.14,2.78,2.78,0,0,1-.47.87,2.58,2.58,0,0,1-.66.62,2.94,2.94,0,0,1-.77.39,3.6,3.6,0,0,1,.93.26,3.12,3.12,0,0,1,.87.57,2.73,2.73,0,0,1,.65.93,3.37,3.37,0,0,1,.25,1.38,4,4,0,0,1-.34,1.67,3.7,3.7,0,0,1-.94,1.32,4.34,4.34,0,0,1-1.42.87,4.73,4.73,0,0,1-1.8.32h-6.34Zm2.92,2.44v3.24h2.1a2.83,2.83,0,0,0,1.6-.36,1.46,1.46,0,0,0,.52-1.3,1.48,1.48,0,0,0-.45-1.22,2.44,2.44,0,0,0-1.51-.36Zm0,9.12h2.4a3,3,0,0,0,1.93-.45,1.65,1.65,0,0,0,.51-1.31,1.43,1.43,0,0,0-.62-1.37,3.91,3.91,0,0,0-1.86-.35h-2.36Z"/><path class="cls-3" d="M175.83,236.92a9.08,9.08,0,0,1,.49-3,6.64,6.64,0,0,1,1.38-2.29,6.16,6.16,0,0,1,2.15-1.44,8.09,8.09,0,0,1,5.6,0,6.07,6.07,0,0,1,2.15,1.44,6.35,6.35,0,0,1,1.38,2.29,9.74,9.74,0,0,1,0,6.1,6.27,6.27,0,0,1-1.38,2.29,5.82,5.82,0,0,1-2.15,1.44,8.09,8.09,0,0,1-5.6,0,5.9,5.9,0,0,1-2.15-1.44,6.55,6.55,0,0,1-1.38-2.29A9,9,0,0,1,175.83,236.92Zm3.1,0a7.9,7.9,0,0,0,.23,2,4.63,4.63,0,0,0,.69,1.52,3.22,3.22,0,0,0,1.16,1,3.57,3.57,0,0,0,1.64.35,3.51,3.51,0,0,0,1.64-.35,3.14,3.14,0,0,0,1.16-1,4.25,4.25,0,0,0,.69-1.52,7.45,7.45,0,0,0,.23-2,7.56,7.56,0,0,0-.23-1.95,4.33,4.33,0,0,0-.69-1.52,3.24,3.24,0,0,0-1.16-1,3.64,3.64,0,0,0-1.64-.35,3.7,3.7,0,0,0-1.64.35,3.32,3.32,0,0,0-1.16,1,4.73,4.73,0,0,0-.69,1.52A8,8,0,0,0,178.93,236.92Z"/><path class="cls-3" d="M204.65,234.18a3.94,3.94,0,0,1-2.66,4l3.22,5.74h-3.3l-2.9-5.3h-1.86v5.3h-3v-14h5.12a9.33,9.33,0,0,1,2.21.25,4.87,4.87,0,0,1,1.69.77,3.46,3.46,0,0,1,1.08,1.32A4.39,4.39,0,0,1,204.65,234.18Zm-3.08,0a1.49,1.49,0,0,0-.65-1.41,3.91,3.91,0,0,0-2-.39h-1.8v3.78H199a3.48,3.48,0,0,0,2-.45A1.71,1.71,0,0,0,201.57,234.2Z"/><path class="cls-3" d="M221.85,243.92h-3.1l-1.12-3.24h-5l-1.12,3.24h-2.94l5-14h3.22Zm-6.76-10.72a3.53,3.53,0,0,1-.14.47c-.07.21-.14.44-.22.7s-.17.54-.27.84-.2.59-.29.87c-.22.7-.47,1.44-.74,2.22h3.38l-.74-2.22c-.15-.4-.26-.73-.35-1s-.17-.51-.24-.75-.14-.46-.21-.67l-.14-.47Z"/><path class="cls-3" d="M223.33,229.92h11.1v2.5h-4v11.5h-3v-11.5h-4Z"/><path class="cls-3" d="M238.65,229.92h3v14h-3Z"/><path class="cls-3" d="M246.35,236.92a8.83,8.83,0,0,1,.49-3,6.64,6.64,0,0,1,1.38-2.29,6.07,6.07,0,0,1,2.15-1.44,8.09,8.09,0,0,1,5.6,0,6.07,6.07,0,0,1,2.15,1.44,6.64,6.64,0,0,1,1.38,2.29,9.74,9.74,0,0,1,0,6.1,6.55,6.55,0,0,1-1.38,2.29A5.82,5.82,0,0,1,256,243.7a8.09,8.09,0,0,1-5.6,0,5.82,5.82,0,0,1-2.15-1.44,6.55,6.55,0,0,1-1.38-2.29A8.79,8.79,0,0,1,246.35,236.92Zm3.1,0a7.9,7.9,0,0,0,.23,2,4.25,4.25,0,0,0,.69,1.52,3.14,3.14,0,0,0,1.16,1,4,4,0,0,0,3.28,0,3.14,3.14,0,0,0,1.16-1,4.25,4.25,0,0,0,.69-1.52,7.9,7.9,0,0,0,.23-2,8,8,0,0,0-.23-1.95,4.33,4.33,0,0,0-.69-1.52,3.24,3.24,0,0,0-1.16-1,4,4,0,0,0-3.28,0,3.24,3.24,0,0,0-1.16,1,4.33,4.33,0,0,0-.69,1.52A8,8,0,0,0,249.45,236.92Z"/><path class="cls-3" d="M264.69,229.92h3.12l2.32,3.76,1.08,1.75.84,1.37.8,1.29.64,1h.06v-9.2h2.84v14h-3.12c-.8-1.29-1.56-2.52-2.28-3.7l-1.07-1.73c-.29-.46-.57-.92-.85-1.38l-.81-1.32-.67-1.07h-.06v9.2h-2.84Z"/></g><g id="ICON"><polygon class="cls-4" points="69.51 145.21 67.14 144.14 68.32 142.41 70.8 141.33 116.29 128.4 123.19 127.32 238.33 127.32 249.11 129.47 259.89 132.49 276.27 137.24 288.35 140.69 293.52 142.84 293.52 145.21 291.58 146.51 282.53 148.88 266.36 153.41 255.79 157.07 246.74 159.01 234.88 161.17 129.01 161.17 114.57 159.44 102.06 156.21 91.28 152.98 79.42 149.53 69.51 145.21"/><rect class="cls-5" x="129.01" y="132.49" width="106.08" height="22.71" rx="3.6"/><polyline class="cls-5" points="146.64 140.97 177.54 110.36 177.54 105.76 181.28 101.3 191.91 90.81 193.64 90.09 197.81 94.4 197.81 96.13 182.14 110.36 177.54 110.36"/><polyline class="cls-5" points="178.46 140.97 209.36 110.36 209.36 105.76 213.1 101.3 223.74 90.81 225.46 90.09 229.63 94.4 229.63 96.13 213.96 110.36 209.36 110.36"/><polyline class="cls-5" points="210.18 140.97 241.09 110.36 241.09 105.76 244.82 101.3 255.46 90.81 257.19 90.09 261.35 94.4 261.35 96.13 245.69 110.36 241.09 110.36"/><polyline class="cls-5" points="146.79 147.21 177.69 177.82 177.69 182.42 181.43 186.88 192.06 197.37 193.79 198.09 197.96 193.78 197.96 192.05 182.29 177.82 177.69 177.82"/><polyline class="cls-5" points="178.61 147.21 209.51 177.82 209.51 182.42 213.25 186.88 223.89 197.37 225.61 198.09 229.78 193.78 229.78 192.05 214.12 177.82 209.51 177.82"/><polyline class="cls-5" points="210.33 147.21 241.24 177.82 241.24 182.42 244.97 186.88 255.61 197.37 257.34 198.09 261.5 193.78 261.5 192.05 245.84 177.82 241.24 177.82"/><rect class="cls-6" x="210.33" y="134.94" width="6.89" height="18.36" rx="2.5"/><circle class="cls-6" cx="210.83" cy="144.11" r="4.97"/><rect class="cls-6" x="176.01" y="134.94" width="6.89" height="18.36" rx="2.5"/><circle class="cls-6" cx="176.51" cy="144.11" r="4.97"/><rect class="cls-6" x="144.59" y="134.94" width="6.89" height="18.36" rx="2.5"/><circle class="cls-6" cx="145.09" cy="144.11" r="4.97"/></g></svg>