<svg xmlns="http://www.w3.org/2000/svg" viewBox="0 0 360 360"><defs><style>.cls-1{fill:#fff;}.cls-2{fill:#0b6e3a;}</style></defs><title>CARD</title><g id="Layer_6" data-name="Layer 6"><rect class="cls-1" x="0.42" y="-0.45" width="360" height="360"/></g><g id="BACKGROUND"><rect class="cls-2" y="336.02" width="360" height="23.94"/><path class="cls-1" d="M207,344.05h3.65a2.8,2.8,0,0,1,1,.17,2.29,2.29,0,0,1,.79.46,2,2,0,0,1,.48.69,2.29,2.29,0,0,1,.17.87,2.08,2.08,0,0,1-.11.69,1.73,1.73,0,0,1-.68.89,2.25,2.25,0,0,1-.46.24,1.9,1.9,0,0,1,1.08.49,1.76,1.76,0,0,1,.39.56,2.05,2.05,0,0,1,.15.83,2.55,2.55,0,0,1-.2,1,2.39,2.39,0,0,1-.57.79,2.72,2.72,0,0,1-.85.53,3.14,3.14,0,0,1-1.08.19H207Zm1.75,1.46v1.95H210a1.74,1.74,0,0,0,1-.22.87.87,0,0,0,.31-.78.88.88,0,0,0-.27-.73,1.42,1.42,0,0,0-.9-.22Zm0,5.47h1.44a1.82,1.82,0,0,0,1.16-.27,1,1,0,0,0,.3-.78.85.85,0,0,0-.37-.82,2.33,2.33,0,0,0-1.11-.21h-1.42Z"/><path class="cls-1" d="M219.57,352.62a3.34,3.34,0,0,1-2.56-.87,3.39,3.39,0,0,1-.8-2.4v-5.3H218v5.31a2,2,0,0,0,.38,1.27,1.64,1.64,0,0,0,2.36,0,2,2,0,0,0,.38-1.27v-5.31h1.8v5.3a3.39,3.39,0,0,1-.8,2.4A3.34,3.34,0,0,1,219.57,352.62Z"/><path class="cls-1" d="M226.05,344.05h1.8v8.4h-1.8Z"/><path class="cls-1" d="M231,344.05h1.8V351h3.67v1.5H231Z"/><path class="cls-1" d="M237.23,344.05h6.66v1.5h-2.42v6.9h-1.81v-6.9h-2.43Z"/><path class="cls-1" d="M250.45,352.45v-8.4h5.72v1.49h-4v1.84h3.67v1.49h-3.67V351h4v1.49Z"/><path class="cls-1" d="M259,344.05h1.88c.48.79.95,1.54,1.39,2.25l.65,1.05c.16.28.33.55.5.83l.48.77.38.62h0v-5.52H266v8.4h-1.87c-.48-.78-.93-1.52-1.37-2.22-.25-.42-.47-.76-.64-1l-.51-.83-.48-.79c-.16-.25-.29-.47-.41-.64h0v5.52H259Z"/><path class="cls-1" d="M270.44,344.05l.84,2.43c.16.46.29.84.39,1.16s.21.62.32.94l.3.92.25.79h0c.07-.23.16-.5.25-.8l.31-.95.34-1,.35-1q.39-1.17.84-2.43h1.85l-3.1,8.4h-1.83l-3.06-8.4Z"/><path class="cls-1" d="M279,344.05h1.8v8.4H279Z"/><path class="cls-1" d="M290.23,346.6a2.57,2.57,0,0,1-.43,1.53,2.48,2.48,0,0,1-1.17.87l1.93,3.45h-2l-1.74-3.18h-1.11v3.18h-1.79v-8.4H287a5.47,5.47,0,0,1,1.33.15,2.84,2.84,0,0,1,1,.46,2.08,2.08,0,0,1,.65.79A2.71,2.71,0,0,1,290.23,346.6Zm-1.85,0a.91.91,0,0,0-.39-.85,2.32,2.32,0,0,0-1.18-.23h-1.08v2.26h1.08a2.1,2.1,0,0,0,1.18-.27A1,1,0,0,0,288.38,346.62Z"/><path class="cls-1" d="M292.9,348.25a5.24,5.24,0,0,1,.3-1.83A4,4,0,0,1,294,345a3.7,3.7,0,0,1,1.29-.86,4.56,4.56,0,0,1,1.68-.3,4.49,4.49,0,0,1,1.68.3A3.52,3.52,0,0,1,300,345a3.83,3.83,0,0,1,.83,1.38,5.73,5.73,0,0,1,0,3.66,3.7,3.7,0,0,1-.83,1.37,3.42,3.42,0,0,1-1.29.87,4.49,4.49,0,0,1-1.68.3,4.56,4.56,0,0,1-1.68-.3,3.59,3.59,0,0,1-1.29-.87,3.82,3.82,0,0,1-.82-1.37A5.24,5.24,0,0,1,292.9,348.25Zm1.86,0a4.81,4.81,0,0,0,.14,1.17,2.72,2.72,0,0,0,.41.91,2,2,0,0,0,.7.59,2.42,2.42,0,0,0,2,0,1.88,1.88,0,0,0,.69-.59,2.54,2.54,0,0,0,.42-.91,4.81,4.81,0,0,0,.14-1.17,4.69,4.69,0,0,0-.14-1.17,2.47,2.47,0,0,0-.42-.91,1.79,1.79,0,0,0-.69-.59,2.42,2.42,0,0,0-2,0,1.89,1.89,0,0,0-.7.59,2.63,2.63,0,0,0-.41.91A4.69,4.69,0,0,0,294.76,348.25Z"/><path class="cls-1" d="M303.91,344.05h1.87l1.39,2.25.65,1.05.5.83.48.77.39.62h0v-5.52h1.71v8.4h-1.88l-1.36-2.22-.65-1-.51-.83-.48-.79-.4-.64h0v5.52h-1.7Z"/><path class="cls-1" d="M317.79,352.45q-.18-.49-.45-1.29l-.56-1.66c-.19-.58-.38-1.14-.56-1.7s-.32-1-.43-1.39h0v6h-1.66v-8.4h2.52c.35,1,.66,2,.94,2.82.17.51.31.92.41,1.24s.21.62.3.91.18.54.26.78.13.4.16.5l.15-.5c.08-.24.16-.51.26-.83l.33-1c.11-.36.23-.72.35-1.08q.41-1.29.9-2.82h2.51v8.4h-1.66v-6h0l-.29.9c-.11.34-.24.71-.37,1.11s-.26.79-.4,1.19-.26.79-.38,1.15l-.33,1c-.1.3-.19.53-.25.7Z"/><path class="cls-1" d="M326.35,352.45v-8.4h5.72v1.49h-3.95v1.84h3.67v1.49h-3.67V351h4v1.49Z"/><path class="cls-1" d="M334.91,344.05h1.88c.48.79.95,1.54,1.39,2.25l.65,1.05c.16.28.33.55.5.83l.48.77.38.62h0v-5.52h1.7v8.4h-1.87c-.48-.78-.93-1.52-1.37-2.22-.25-.42-.47-.76-.64-1l-.51-.83-.48-.79c-.16-.25-.29-.47-.41-.64h0v5.52h-1.71Z"/><path class="cls-1" d="M344.47,344.05h6.66v1.5H348.7v6.9h-1.81v-6.9h-2.42Z"/><path class="cls-2" d="M126,144.33a54,54,0,1,1,54,54A54,54,0,0,1,126,144.33Zm100.74,0a46.74,46.74,0,1,0-46.85,46.69A46.83,46.83,0,0,0,226.74,144.38Z"/><path class="cls-1" d="M226.74,144.38a46.74,46.74,0,1,1-46.5-46.78A46.83,46.83,0,0,1,226.74,144.38ZM180,103.26a41.08,41.08,0,1,0,41.1,41.05A41,41,0,0,0,180,103.26Z"/><path class="cls-2" d="M180,103.26a41.08,41.08,0,1,1-41.06,40.85A41,41,0,0,1,180,103.26Zm-.1,48.66h.26c.11.27.23.53.32.8,2.29,6.78,4.56,13.56,6.86,20.33a3.85,3.85,0,1,0,7.29-2.48c-.59-1.77-1.16-3.55-1.8-5.31a84.27,84.27,0,0,1-5.12-28c0-1.52.42-1.84,1.89-1.39l13.13,4a3.5,3.5,0,1,0,2.24-6.63c-3.24-1.18-6.51-2.24-9.73-3.46a40.17,40.17,0,0,0-14.72-2.62c-4.44,0-8.84.26-13.08,1.71s-8.23,2.88-12.34,4.36a3.5,3.5,0,1,0,2.27,6.62l13.13-4c1.39-.43,1.86-.1,1.84,1.37a80.89,80.89,0,0,1-3.51,23.07c-1.08,3.5-2.31,6.94-3.45,10.42a3.82,3.82,0,0,0,4.06,5.11A3.71,3.71,0,0,0,172.7,173q3.42-10.12,6.83-20.26C179.63,152.49,179.76,152.21,179.88,151.92Zm.15-26.47a6.48,6.48,0,1,0-6.52-6.43A6.54,6.54,0,0,0,180,125.45Z"/><path class="cls-1" d="M179.88,151.92c-.12.29-.25.57-.35.86q-3.42,10.13-6.83,20.26a3.71,3.71,0,0,1-3.28,2.76,3.82,3.82,0,0,1-4.06-5.11c1.14-3.48,2.37-6.92,3.45-10.42a80.89,80.89,0,0,0,3.51-23.07c0-1.47-.45-1.8-1.84-1.37l-13.13,4a3.5,3.5,0,1,1-2.27-6.62c4.11-1.48,8.21-3,12.34-4.36s8.64-1.68,13.08-1.71a40.17,40.17,0,0,1,14.72,2.62c3.22,1.22,6.49,2.28,9.73,3.46a3.5,3.5,0,1,1-2.24,6.63l-13.13-4c-1.47-.45-1.9-.13-1.89,1.39a84.27,84.27,0,0,0,5.12,28c.64,1.76,1.21,3.54,1.8,5.31a3.85,3.85,0,1,1-7.29,2.48c-2.3-6.77-4.57-13.55-6.86-20.33-.09-.27-.21-.53-.32-.8Z"/><path class="cls-1" d="M180,125.45A6.48,6.48,0,1,1,186.5,119,6.53,6.53,0,0,1,180,125.45Z"/></g><g id="LINE_ONE" data-name="LINE ONE"><path class="cls-2" d="M105.54,248.12h-3.1l-1.12-3.24h-5l-1.12,3.24H92.24l5-14h3.22ZM98.78,237.4c0,.11-.07.26-.14.47s-.14.44-.22.7-.17.54-.27.84l-.29.87c-.23.69-.47,1.43-.74,2.22h3.38c-.27-.79-.51-1.53-.74-2.22-.15-.4-.26-.73-.35-1s-.17-.51-.24-.75-.14-.46-.21-.67-.11-.36-.14-.47Z"/><path class="cls-2" d="M108.4,241.12a9.12,9.12,0,0,1,.48-3.07,6.47,6.47,0,0,1,1.37-2.29,5.83,5.83,0,0,1,2.16-1.43,7.82,7.82,0,0,1,2.85-.49,6.83,6.83,0,0,1,3.76,1,5.35,5.35,0,0,1,2.16,3l-2.92,1a3.92,3.92,0,0,0-1.08-1.83,2.86,2.86,0,0,0-2-.65,3.51,3.51,0,0,0-1.62.36,3.26,3.26,0,0,0-1.16,1,4.28,4.28,0,0,0-.69,1.51,7.77,7.77,0,0,0-.23,1.92,7.63,7.63,0,0,0,.23,1.91,4.45,4.45,0,0,0,.69,1.51,3.19,3.19,0,0,0,1.16,1,3.57,3.57,0,0,0,1.64.36,2.94,2.94,0,0,0,1.89-.58,3.53,3.53,0,0,0,1.11-1.76l2.88,1a6,6,0,0,1-2.16,2.8,6.42,6.42,0,0,1-3.76,1,7.7,7.7,0,0,1-2.79-.49,6,6,0,0,1-2.14-1.42,6.3,6.3,0,0,1-1.37-2.29A9.22,9.22,0,0,1,108.4,241.12Z"/><path class="cls-2" d="M125,241.12a9.12,9.12,0,0,1,.48-3.07,6.47,6.47,0,0,1,1.37-2.29,5.83,5.83,0,0,1,2.16-1.43,7.82,7.82,0,0,1,2.85-.49,6.83,6.83,0,0,1,3.76,1,5.35,5.35,0,0,1,2.16,3l-2.92,1a3.92,3.92,0,0,0-1.08-1.83,2.86,2.86,0,0,0-2-.65,3.51,3.51,0,0,0-1.62.36,3.26,3.26,0,0,0-1.16,1,4.28,4.28,0,0,0-.69,1.51,7.77,7.77,0,0,0-.23,1.92,7.63,7.63,0,0,0,.23,1.91,4.45,4.45,0,0,0,.69,1.51,3.19,3.19,0,0,0,1.16,1,3.57,3.57,0,0,0,1.64.36,2.94,2.94,0,0,0,1.89-.58,3.53,3.53,0,0,0,1.11-1.76l2.88,1a6,6,0,0,1-2.16,2.8,6.42,6.42,0,0,1-3.76,1,7.7,7.7,0,0,1-2.79-.49,6,6,0,0,1-2.14-1.42,6.3,6.3,0,0,1-1.37-2.29A9.22,9.22,0,0,1,125,241.12Z"/><path class="cls-2" d="M142.18,248.12v-14h9.54v2.48h-6.58v3.08h6.12v2.48h-6.12v3.48h6.68v2.48Z"/><path class="cls-2" d="M159.18,237.8a1.34,1.34,0,0,0,.78,1.29,9.48,9.48,0,0,0,2.48.67,7.86,7.86,0,0,1,3.67,1.38,3.48,3.48,0,0,1,1.17,2.86,3.92,3.92,0,0,1-.42,1.83,4.07,4.07,0,0,1-1.17,1.38,5.65,5.65,0,0,1-1.79.88,7.77,7.77,0,0,1-2.26.31,7.68,7.68,0,0,1-2.38-.35,5.66,5.66,0,0,1-1.8-.93,4.41,4.41,0,0,1-1.16-1.36,3.81,3.81,0,0,1-.46-1.62l3-.48a2.56,2.56,0,0,0,.79,1.67,2.84,2.84,0,0,0,2,.65,4.61,4.61,0,0,0,1-.1,2.52,2.52,0,0,0,.82-.33A1.66,1.66,0,0,0,164,245a1.63,1.63,0,0,0,.2-.82,1.35,1.35,0,0,0-.65-1.2,6.31,6.31,0,0,0-2.29-.68,16.15,16.15,0,0,1-2-.46,5.47,5.47,0,0,1-1.63-.77,3.51,3.51,0,0,1-1.08-1.22,3.76,3.76,0,0,1-.39-1.79,3.93,3.93,0,0,1,.4-1.84,3.72,3.72,0,0,1,1.12-1.31,5,5,0,0,1,1.7-.79,8.48,8.48,0,0,1,2.14-.26,7.71,7.71,0,0,1,2,.25,5.51,5.51,0,0,1,1.67.74A4.36,4.36,0,0,1,166.4,236a4.49,4.49,0,0,1,.66,1.64l-3,.66a2.45,2.45,0,0,0-.82-1.52,2.67,2.67,0,0,0-1.78-.56,2.78,2.78,0,0,0-1.69.42A1.33,1.33,0,0,0,159.18,237.8Z"/><path class="cls-2" d="M174.66,237.8a1.34,1.34,0,0,0,.78,1.29,9.48,9.48,0,0,0,2.48.67,7.86,7.86,0,0,1,3.67,1.38,3.48,3.48,0,0,1,1.17,2.86,3.92,3.92,0,0,1-.42,1.83,4.07,4.07,0,0,1-1.17,1.38,5.65,5.65,0,0,1-1.79.88,7.77,7.77,0,0,1-2.26.31,7.68,7.68,0,0,1-2.38-.35,5.66,5.66,0,0,1-1.8-.93,4.41,4.41,0,0,1-1.16-1.36,3.81,3.81,0,0,1-.46-1.62l3-.48a2.56,2.56,0,0,0,.79,1.67,2.84,2.84,0,0,0,2,.65,4.61,4.61,0,0,0,1-.1,2.43,2.43,0,0,0,.82-.33,1.66,1.66,0,0,0,.55-.57,1.63,1.63,0,0,0,.2-.82,1.35,1.35,0,0,0-.65-1.2,6.31,6.31,0,0,0-2.29-.68,16.15,16.15,0,0,1-2-.46,5.47,5.47,0,0,1-1.63-.77,3.51,3.51,0,0,1-1.08-1.22,3.76,3.76,0,0,1-.39-1.79,3.93,3.93,0,0,1,.4-1.84,3.72,3.72,0,0,1,1.12-1.31,5,5,0,0,1,1.7-.79,8.48,8.48,0,0,1,2.14-.26,7.71,7.71,0,0,1,2,.25,5.51,5.51,0,0,1,1.67.74,4.36,4.36,0,0,1,1.21,1.21,4.49,4.49,0,0,1,.66,1.64l-3,.66a2.45,2.45,0,0,0-.82-1.52,2.67,2.67,0,0,0-1.78-.56,2.78,2.78,0,0,0-1.69.42A1.33,1.33,0,0,0,174.66,237.8Z"/><path class="cls-2" d="M187.42,234.12h3v14h-3Z"/><path class="cls-2" d="M195.7,234.12h6.08a5,5,0,0,1,1.75.28,3.8,3.8,0,0,1,1.3.77,3.38,3.38,0,0,1,.81,1.16,3.67,3.67,0,0,1,.28,1.45,3.33,3.33,0,0,1-.18,1.14,3.29,3.29,0,0,1-.47.87,2.77,2.77,0,0,1-.66.62,3.1,3.1,0,0,1-.77.39,3.6,3.6,0,0,1,.93.26,3,3,0,0,1,.87.57,2.87,2.87,0,0,1,.65.93,3.31,3.31,0,0,1,.25,1.38,4,4,0,0,1-1.28,3,4.34,4.34,0,0,1-1.42.87,5,5,0,0,1-1.8.32H195.7Zm2.92,2.44v3.24h2.1a2.85,2.85,0,0,0,1.6-.36,1.46,1.46,0,0,0,.52-1.3,1.48,1.48,0,0,0-.45-1.22,2.44,2.44,0,0,0-1.51-.36Zm0,9.12H201a3,3,0,0,0,1.93-.45,1.66,1.66,0,0,0,.51-1.31,1.44,1.44,0,0,0-.62-1.37,3.91,3.91,0,0,0-1.86-.35h-2.36Z"/><path class="cls-2" d="M211.2,234.12h3v14h-3Z"/><path class="cls-2" d="M219.48,234.12h3v11.5h6.12v2.5h-9.12Z"/><path class="cls-2" d="M232.8,234.12h3v14h-3Z"/><path class="cls-2" d="M240,234.12h11.1v2.5h-4v11.5h-3v-11.5h-4Z"/><path class="cls-2" d="M259.58,242.26l-5.3-8.14h3.44l3.42,5.36,3.4-5.36h3.34l-5.3,8.14v5.86h-3Z"/></g></svg>