<svg xmlns="http://www.w3.org/2000/svg" viewBox="0 0 360 360"><defs><style>.cls-1{fill:#0e6e39;}.cls-2,.cls-4{fill:#fff;}.cls-3{fill:#0c6e39;}.cls-4,.cls-5{stroke:#0e6e39;stroke-linejoin:round;stroke-width:3px;}.cls-5{fill:none;}</style></defs><title>CARD</title><g id="BACKGROUND"><rect class="cls-1" y="336.06" width="360" height="23.94"/><path class="cls-2" d="M207,344.09h3.64a2.91,2.91,0,0,1,1.06.17,2.19,2.19,0,0,1,.77.46,1.86,1.86,0,0,1,.49.69,2.29,2.29,0,0,1,.17.87,2.08,2.08,0,0,1-.11.69,1.73,1.73,0,0,1-.68.89,2,2,0,0,1-.46.24,2,2,0,0,1,.56.15,1.94,1.94,0,0,1,.52.34,1.76,1.76,0,0,1,.39.56,2.05,2.05,0,0,1,.15.83,2.55,2.55,0,0,1-.2,1,2.39,2.39,0,0,1-.57.79,2.72,2.72,0,0,1-.85.53,3.14,3.14,0,0,1-1.08.19H207Zm1.75,1.46v1.95H210a1.74,1.74,0,0,0,1-.22.87.87,0,0,0,.31-.78.88.88,0,0,0-.27-.73,1.42,1.42,0,0,0-.9-.22Zm0,5.47h1.44a1.82,1.82,0,0,0,1.16-.27,1,1,0,0,0,.3-.78.85.85,0,0,0-.37-.82,2.33,2.33,0,0,0-1.11-.21h-1.42Z"/><path class="cls-2" d="M219.57,352.66a3.34,3.34,0,0,1-2.56-.87,3.39,3.39,0,0,1-.8-2.4v-5.3H218v5.31a2,2,0,0,0,.38,1.27,1.41,1.41,0,0,0,1.18.5,1.38,1.38,0,0,0,1.17-.5,2,2,0,0,0,.39-1.27v-5.31h1.8v5.3a3.39,3.39,0,0,1-.8,2.4A3.34,3.34,0,0,1,219.57,352.66Z"/><path class="cls-2" d="M226.05,344.09h1.8v8.4h-1.8Z"/><path class="cls-2" d="M231,344.09h1.8V351h3.67v1.5H231Z"/><path class="cls-2" d="M237.23,344.09h6.66v1.5h-2.42v6.9h-1.81v-6.9h-2.43Z"/><path class="cls-2" d="M250.45,352.49v-8.4h5.72v1.49h-4v1.84h3.67v1.49h-3.67V351h4v1.49Z"/><path class="cls-2" d="M259,344.09h1.88c.48.79.95,1.54,1.39,2.25l.65,1.05c.16.28.33.55.5.83l.48.77.38.62h0v-5.52H266v8.4h-1.87c-.48-.78-.93-1.52-1.37-2.22-.25-.42-.47-.76-.64-1l-.51-.83-.48-.79c-.16-.25-.29-.47-.41-.64h0v5.52H259Z"/><path class="cls-2" d="M270.44,344.09l.84,2.43c.16.46.29.84.39,1.16s.21.62.32.94l.3.92.25.79h0c.07-.23.16-.5.25-.8l.31-.95.34-1,.35-1q.39-1.17.84-2.43h1.85l-3.1,8.4h-1.83l-3.07-8.4Z"/><path class="cls-2" d="M279,344.09h1.8v8.4H279Z"/><path class="cls-2" d="M290.23,346.64a2.57,2.57,0,0,1-.43,1.53,2.48,2.48,0,0,1-1.17.87l1.93,3.45h-2l-1.74-3.18h-1.11v3.18h-1.79v-8.4H287a5.47,5.47,0,0,1,1.33.15,2.84,2.84,0,0,1,1,.46,2.08,2.08,0,0,1,.65.79A2.71,2.71,0,0,1,290.23,346.64Zm-1.85,0a.91.91,0,0,0-.39-.85,2.32,2.32,0,0,0-1.18-.23h-1.08v2.26h1.08a2.1,2.1,0,0,0,1.18-.27A1,1,0,0,0,288.38,346.66Z"/><path class="cls-2" d="M292.9,348.29a5.24,5.24,0,0,1,.3-1.83,4,4,0,0,1,.82-1.38,3.7,3.7,0,0,1,1.29-.86,4.56,4.56,0,0,1,1.68-.3,4.49,4.49,0,0,1,1.68.3,3.52,3.52,0,0,1,1.29.86,3.83,3.83,0,0,1,.83,1.38,5.73,5.73,0,0,1,0,3.66,3.7,3.7,0,0,1-.83,1.37,3.42,3.42,0,0,1-1.29.87,4.49,4.49,0,0,1-1.68.3,4.56,4.56,0,0,1-1.68-.3,3.59,3.59,0,0,1-1.29-.87,3.82,3.82,0,0,1-.82-1.37A5.24,5.24,0,0,1,292.9,348.29Zm1.86,0a4.81,4.81,0,0,0,.14,1.17,2.72,2.72,0,0,0,.41.91,2,2,0,0,0,.7.59,2.42,2.42,0,0,0,2,0,1.88,1.88,0,0,0,.69-.59,2.54,2.54,0,0,0,.42-.91,4.81,4.81,0,0,0,.14-1.17,4.69,4.69,0,0,0-.14-1.17,2.47,2.47,0,0,0-.42-.91,1.79,1.79,0,0,0-.69-.59,2.42,2.42,0,0,0-2,0,1.89,1.89,0,0,0-.7.59,2.63,2.63,0,0,0-.41.91A4.69,4.69,0,0,0,294.76,348.29Z"/><path class="cls-2" d="M303.91,344.09h1.87l1.39,2.25.65,1.05c.17.28.34.55.5.83l.48.77.39.62h0v-5.52h1.71v8.4h-1.88l-1.36-2.22-.65-1-.51-.83-.48-.79-.4-.64h0v5.52h-1.7Z"/><path class="cls-2" d="M317.79,352.49q-.18-.5-.45-1.29l-.56-1.66c-.19-.58-.38-1.14-.56-1.7s-.32-1-.43-1.39h0v6h-1.66v-8.4h2.52c.35,1,.66,2,.94,2.82.17.51.31.92.41,1.24s.21.62.3.91.18.54.26.78.13.4.16.5l.15-.5c.08-.24.16-.51.26-.83s.21-.65.32-1l.36-1.08q.41-1.29.9-2.82h2.51v8.4h-1.66v-6h0l-.29.9c-.12.34-.24.71-.37,1.11s-.26.79-.4,1.19-.27.79-.38,1.15l-.33,1c-.1.3-.19.53-.25.7Z"/><path class="cls-2" d="M326.35,352.49v-8.4h5.72v1.49h-3.95v1.84h3.67v1.49h-3.67V351h4v1.49Z"/><path class="cls-2" d="M334.91,344.09h1.88c.48.79.95,1.54,1.39,2.25l.64,1.05.51.83.48.77.38.62h0v-5.52h1.7v8.4h-1.87c-.48-.78-.93-1.52-1.37-2.22-.25-.42-.47-.76-.64-1l-.51-.83-.48-.79-.41-.64h0v5.52h-1.71Z"/><path class="cls-2" d="M344.47,344.09h6.66v1.5H348.7v6.9h-1.81v-6.9h-2.42Z"/></g><g id="LINE_ONE" data-name="LINE ONE"><path class="cls-3" d="M102.91,248.16h-3.1l-1.12-3.24h-5l-1.12,3.24H89.61l5-14h3.22Zm-6.76-10.72c0,.11-.07.26-.14.47s-.14.44-.22.7-.17.54-.27.84-.2.59-.29.87c-.23.69-.47,1.43-.74,2.22h3.38c-.27-.79-.51-1.53-.74-2.22-.15-.4-.26-.73-.35-1s-.17-.51-.24-.75-.14-.46-.21-.67-.11-.36-.14-.47Z"/><path class="cls-3" d="M107.05,234.16h5.22a8.36,8.36,0,0,1,2.88.47,5.66,5.66,0,0,1,3.51,3.55,9.68,9.68,0,0,1,0,6,5.66,5.66,0,0,1-3.51,3.55,8.36,8.36,0,0,1-2.88.47h-5.22Zm9,7a7,7,0,0,0-.23-1.85,4.07,4.07,0,0,0-.7-1.43,3,3,0,0,0-1.19-.92,4.26,4.26,0,0,0-1.72-.32h-2.12v9h2.12a4.26,4.26,0,0,0,1.72-.32,3,3,0,0,0,1.19-.92,4.07,4.07,0,0,0,.7-1.43A7,7,0,0,0,116,241.16Z"/><path class="cls-3" d="M135.29,248.16h-3.1l-1.12-3.24h-5l-1.12,3.24H122l5-14h3.22Zm-6.76-10.72c0,.11-.07.26-.14.47s-.14.44-.22.7-.17.54-.27.84l-.29.87c-.23.69-.47,1.43-.74,2.22h3.38c-.27-.79-.51-1.53-.74-2.22-.15-.4-.26-.73-.35-1s-.17-.51-.24-.75-.14-.46-.21-.67-.11-.36-.14-.47Z"/><path class="cls-3" d="M142.41,243.24v4.92h-3v-14h5.32a9.4,9.4,0,0,1,2.28.26,4.81,4.81,0,0,1,1.74.8,3.7,3.7,0,0,1,1.12,1.38,4.61,4.61,0,0,1,.4,2,4.87,4.87,0,0,1-.41,2.07,3.85,3.85,0,0,1-1.14,1.44A4.83,4.83,0,0,1,147,243a8.76,8.76,0,0,1-2.24.27Zm4.82-4.62a1.68,1.68,0,0,0-.69-1.56,4.11,4.11,0,0,0-2.09-.42h-2v4.12h2a3.6,3.6,0,0,0,2.09-.5A1.88,1.88,0,0,0,147.23,238.62Z"/><path class="cls-3" d="M153.63,234.16h11.1v2.5h-4v11.5h-3v-11.5h-4Z"/><path class="cls-3" d="M169,234.16h3v14h-3Z"/><path class="cls-3" d="M177.23,234.16h6.08a5,5,0,0,1,1.75.28,3.8,3.8,0,0,1,1.3.77,3.38,3.38,0,0,1,.81,1.16,3.67,3.67,0,0,1,.28,1.45,3.33,3.33,0,0,1-.18,1.14,3.29,3.29,0,0,1-.47.87,2.77,2.77,0,0,1-.66.62,3.1,3.1,0,0,1-.77.39,3.6,3.6,0,0,1,.93.26,3,3,0,0,1,.87.57,2.87,2.87,0,0,1,.65.93,3.31,3.31,0,0,1,.25,1.38,4,4,0,0,1-1.28,3,4.34,4.34,0,0,1-1.42.87,5,5,0,0,1-1.8.32h-6.34Zm2.92,2.44v3.24h2.1a2.85,2.85,0,0,0,1.6-.36,1.46,1.46,0,0,0,.52-1.3,1.48,1.48,0,0,0-.45-1.22,2.44,2.44,0,0,0-1.51-.36Zm0,9.12h2.4a3,3,0,0,0,1.93-.45A1.66,1.66,0,0,0,185,244a1.44,1.44,0,0,0-.62-1.37,3.91,3.91,0,0,0-1.86-.35h-2.36Z"/><path class="cls-3" d="M192.73,234.16h3v14h-3Z"/><path class="cls-3" d="M201,234.16h3v11.5h6.12v2.5H201Z"/><path class="cls-3" d="M214.33,234.16h3v14h-3Z"/><path class="cls-3" d="M221.55,234.16h11.1v2.5h-4v11.5h-3v-11.5h-4Z"/><path class="cls-3" d="M241.11,242.3l-5.3-8.14h3.44l3.42,5.36,3.4-5.36h3.34l-5.3,8.14v5.86h-3Z"/><path class="cls-3" d="M259.69,240.5h3.86v-3.88h2.28v3.88h3.86v2.28h-3.86v4h-2.28v-4h-3.86Z"/></g><g id="LINE_TWO" data-name="LINE TWO"><path class="cls-3" d="M111.2,266V252h9.58v2.48h-6.62v3.08h6.1V260h-6.1v6Z"/><path class="cls-3" d="M125.26,252h3v11.5h6.12V266h-9.12Z"/><path class="cls-3" d="M138.58,266V252h9.54v2.48h-6.58v3.08h6.12V260h-6.12v3.48h6.68V266Z"/><path class="cls-3" d="M160.3,258.61l5.18,7.34h-3.6l-3.38-4.86L155.06,266H151.7l5.14-7.2L152.1,252h3.62l2.94,4.32,3-4.32h3.38Z"/><path class="cls-3" d="M169.6,252h3v14h-3Z"/><path class="cls-3" d="M177.88,252H184a5,5,0,0,1,1.75.28,3.65,3.65,0,0,1,1.3.77,3.28,3.28,0,0,1,.81,1.16,3.82,3.82,0,0,1,.28,1.45,3.41,3.41,0,0,1-.18,1.14,3.29,3.29,0,0,1-.47.87,3.22,3.22,0,0,1-.66.62,4,4,0,0,1-.77.39,3.34,3.34,0,0,1,.93.26,3,3,0,0,1,.87.57,2.81,2.81,0,0,1,.65.93,3.31,3.31,0,0,1,.25,1.38,4,4,0,0,1-1.28,3,4.71,4.71,0,0,1-1.42.87,5,5,0,0,1-1.8.32h-6.34Zm2.92,2.44v3.24h2.1a2.85,2.85,0,0,0,1.6-.36A1.5,1.5,0,0,0,185,256a1.47,1.47,0,0,0-.45-1.22,2.46,2.46,0,0,0-1.51-.36Zm0,9.12h2.4a3,3,0,0,0,1.93-.45,1.66,1.66,0,0,0,.51-1.31,1.44,1.44,0,0,0-.62-1.37,3.79,3.79,0,0,0-1.86-.35H180.8Z"/><path class="cls-3" d="M193.38,252h3v14h-3Z"/><path class="cls-3" d="M201.66,252h3v11.5h6.12V266h-9.12Z"/><path class="cls-3" d="M215,252h3v14h-3Z"/><path class="cls-3" d="M222.2,252h11.1v2.5h-4V266h-3v-11.5h-4Z"/><path class="cls-3" d="M241.76,260.09l-5.3-8.14h3.44l3.42,5.36,3.4-5.36h3.34l-5.3,8.14V266h-3Z"/></g><g id="ICON"><rect class="cls-4" x="83.89" y="164.59" width="54.32" height="33.42" transform="matrix(-1, 0, 0, -1, 222.1, 362.61)"/><rect class="cls-5" x="88.77" y="158.67" width="16.71" height="5.92"/><rect class="cls-5" x="116.62" y="158.67" width="16.71" height="5.92"/><rect class="cls-4" x="165.37" y="164.59" width="108.63" height="33.42" transform="matrix(-1, 0, 0, -1, 439.37, 362.61)"/><rect class="cls-5" x="170.24" y="158.67" width="16.71" height="5.92"/><rect class="cls-5" x="198.1" y="158.67" width="16.71" height="5.92"/><rect class="cls-5" x="224.56" y="158.67" width="16.71" height="5.92"/><rect class="cls-5" x="252.41" y="158.67" width="16.71" height="5.92"/><rect class="cls-4" x="111.05" y="131.17" width="108.63" height="33.42" transform="matrix(-1, 0, 0, -1, 330.73, 295.76)"/><rect class="cls-5" x="115.93" y="125.25" width="16.71" height="5.92"/><rect class="cls-5" x="143.78" y="125.25" width="16.71" height="5.92"/><rect class="cls-5" x="170.24" y="125.25" width="16.71" height="5.92"/><rect class="cls-5" x="198.1" y="125.25" width="16.71" height="5.92"/><rect class="cls-4" x="165.37" y="97.74" width="54.32" height="33.42" transform="matrix(-1, 0, 0, -1, 385.05, 228.91)"/><rect class="cls-5" x="170.24" y="91.82" width="16.71" height="5.92"/><rect class="cls-5" x="198.1" y="91.82" width="16.71" height="5.92"/></g></svg>