<svg xmlns="http://www.w3.org/2000/svg" viewBox="0 0 360 360"><defs><style>.cls-1{fill:#231f20;}.cls-2{fill:#fff;}.cls-3,.cls-4{fill:none;stroke:#fff;stroke-miterlimit:10;}.cls-3{stroke-width:3px;}</style></defs><title>CARD</title><g id="BACKGROUND"><rect class="cls-1" width="360" height="360"/></g><g id="LINE_ONE" data-name="LINE ONE"><path class="cls-2" d="M142.43,248.16v-14H152v2.48h-6.62v3.08h6.1v2.48h-6.1v6Z"/><path class="cls-2" d="M155.91,241.16a8.83,8.83,0,0,1,.49-3,6.64,6.64,0,0,1,1.38-2.29,5.82,5.82,0,0,1,2.15-1.44,8.09,8.09,0,0,1,5.6,0,5.82,5.82,0,0,1,2.15,1.44,6.64,6.64,0,0,1,1.38,2.29,9.74,9.74,0,0,1,0,6.1,6.64,6.64,0,0,1-1.38,2.29,5.82,5.82,0,0,1-2.15,1.44,8.09,8.09,0,0,1-5.6,0,5.82,5.82,0,0,1-2.15-1.44,6.64,6.64,0,0,1-1.38-2.29A8.83,8.83,0,0,1,155.91,241.16Zm3.1,0a8,8,0,0,0,.23,2,4.33,4.33,0,0,0,.69,1.52,3.14,3.14,0,0,0,1.16,1,4,4,0,0,0,3.28,0,3.14,3.14,0,0,0,1.16-1,4.33,4.33,0,0,0,.69-1.52,8.38,8.38,0,0,0,0-3.9,4.33,4.33,0,0,0-.69-1.52,3.14,3.14,0,0,0-1.16-1,4,4,0,0,0-3.28,0,3.14,3.14,0,0,0-1.16,1,4.33,4.33,0,0,0-.69,1.52A7.9,7.9,0,0,0,159,241.16Z"/><path class="cls-2" d="M173.87,241.16a9.12,9.12,0,0,1,.48-3.07,6.39,6.39,0,0,1,1.37-2.29,5.75,5.75,0,0,1,2.16-1.43,7.82,7.82,0,0,1,2.85-.49,6.83,6.83,0,0,1,3.76,1,5.35,5.35,0,0,1,2.16,3l-2.92,1a3.92,3.92,0,0,0-1.08-1.83,2.82,2.82,0,0,0-2-.65,3.51,3.51,0,0,0-1.62.36,3.26,3.26,0,0,0-1.16,1,4.28,4.28,0,0,0-.69,1.51,7.77,7.77,0,0,0-.23,1.92,7.63,7.63,0,0,0,.23,1.91,4.45,4.45,0,0,0,.69,1.51,3.19,3.19,0,0,0,1.16,1,3.54,3.54,0,0,0,1.64.36,2.94,2.94,0,0,0,1.89-.58,3.57,3.57,0,0,0,1.11-1.76l2.88,1a6.07,6.07,0,0,1-2.16,2.8,6.42,6.42,0,0,1-3.76,1,7.7,7.7,0,0,1-2.79-.49,5.94,5.94,0,0,1-2.14-1.42,6.3,6.3,0,0,1-1.37-2.29A9.26,9.26,0,0,1,173.87,241.16Z"/><path class="cls-2" d="M196.57,248.44a5.56,5.56,0,0,1-4.26-1.44,5.65,5.65,0,0,1-1.34-4v-8.84h3V243a3.33,3.33,0,0,0,.64,2.11,2.73,2.73,0,0,0,3.92,0,3.33,3.33,0,0,0,.64-2.11v-8.86h3V243a5.65,5.65,0,0,1-1.34,4A5.56,5.56,0,0,1,196.57,248.44Z"/><path class="cls-2" d="M210.09,237.84a1.34,1.34,0,0,0,.78,1.29,9.48,9.48,0,0,0,2.48.67,7.86,7.86,0,0,1,3.67,1.38,3.48,3.48,0,0,1,1.17,2.86,3.92,3.92,0,0,1-.42,1.83,4.07,4.07,0,0,1-1.17,1.38,5.65,5.65,0,0,1-1.79.88,7.77,7.77,0,0,1-2.26.31,7.68,7.68,0,0,1-2.38-.35,5.66,5.66,0,0,1-1.8-.93,4.41,4.41,0,0,1-1.16-1.36,3.81,3.81,0,0,1-.46-1.62l3-.48a2.56,2.56,0,0,0,.79,1.67,2.84,2.84,0,0,0,2,.65,4.61,4.61,0,0,0,1-.1,2.52,2.52,0,0,0,.82-.33,1.66,1.66,0,0,0,.55-.57,1.63,1.63,0,0,0,.2-.82,1.35,1.35,0,0,0-.65-1.2,6.31,6.31,0,0,0-2.29-.68,16.15,16.15,0,0,1-2-.46,5.47,5.47,0,0,1-1.63-.77,3.51,3.51,0,0,1-1.08-1.22,3.76,3.76,0,0,1-.39-1.79,3.93,3.93,0,0,1,.4-1.84,3.72,3.72,0,0,1,1.12-1.31,5,5,0,0,1,1.7-.79,8.48,8.48,0,0,1,2.14-.26,7.71,7.71,0,0,1,2,.25,5.51,5.51,0,0,1,1.67.74,4.36,4.36,0,0,1,1.21,1.21,4.49,4.49,0,0,1,.66,1.64l-3,.66a2.45,2.45,0,0,0-.82-1.52,2.67,2.67,0,0,0-1.78-.56,2.78,2.78,0,0,0-1.69.42A1.33,1.33,0,0,0,210.09,237.84Z"/></g><g id="ICON"><path class="cls-3" d="M220.75,149.1c.68-10-.18-19.64-5.57-28.4a1.91,1.91,0,0,0-1.13-.81,7,7,0,0,1-4.43-2.64c-6.48-7.84-14.76-12.64-24.86-13.78-13.74-1.55-25.19,3.09-34.2,13.59a7.42,7.42,0,0,1-4.78,2.86,1.92,1.92,0,0,0-1.06.9,39.9,39.9,0,0,0-5.58,19.82c0,2.81,0,5.62,0,8.47a18.09,18.09,0,0,1,2.63-.94,6.52,6.52,0,0,1,7.92,6.61c0,3.31,0,6.62,0,9.94q0,13.13,0,26.25c0,3.63-2,6.24-5.29,6.92a6.44,6.44,0,0,1-7.42-4.15,1.26,1.26,0,0,0-1.44-1c-2.74,0-4.28-1.53-4.23-4.3a3.29,3.29,0,0,0-1.16-2.82,37.93,37.93,0,0,1-3.35-3.36,3,3,0,0,1-.76-1.78q-.09-7.46,0-14.91a2.88,2.88,0,0,1,.72-1.69c1.21-1.33,2.5-2.59,3.8-3.83a2.24,2.24,0,0,0,.76-1.79c0-6.41-.12-12.82.07-19.23a46.27,46.27,0,0,1,6.86-22.69,2.62,2.62,0,0,0,.39-2,6.33,6.33,0,0,1,1.59-5.4c7.76-9.38,17.52-15.63,29.52-17.81,20-3.62,36.72,2.33,50,17.76a6.57,6.57,0,0,1,1.57,5.92,1.79,1.79,0,0,0,.26,1.2,48.87,48.87,0,0,1,7.14,26.42c-.07,5.29,0,10.59,0,15.88a2.8,2.8,0,0,0,.69,1.67c1.24,1.36,2.62,2.59,3.85,4a2.82,2.82,0,0,1,.69,1.69q.08,7.41,0,14.8a3.14,3.14,0,0,1-.79,1.87c-1.12,1.27-2.34,2.45-3.57,3.61a2.48,2.48,0,0,0-.91,2.16,5.89,5.89,0,0,1-.22,2.13c-.52,1.67-2,2.56-4.05,2.58-.58,0-1-.06-1.31.74A6.48,6.48,0,0,1,216,198a6.6,6.6,0,0,1-5.67-6.5V191q0-18,0-36.09a6.58,6.58,0,0,1,4.25-6.52,6.47,6.47,0,0,1,5.24.26l.86.43S220.74,149.11,220.75,149.1Z"/><path class="cls-4" d="M222.11,173.13q0-9.91,0-19.83a5.75,5.75,0,0,0-.16-1.66c-.65-2.12-3.24-3.58-5.87-3.38-3,.23-5.16,2-5.22,4.5-.06,2.74,0,5.49,0,8.24q0,15.94,0,31.9a4.68,4.68,0,0,0,3.74,4.72c3.74,1,7.5-1.07,7.52-4.3C222.13,186.59,222.11,179.86,222.11,173.13Z"/><path class="cls-4" d="M222.29,192.1c4,.5,5.28-.07,5.28-2.29q0-17,0-34c0-2.16-1.53-2.79-5.28-2.16Z"/><path class="cls-4" d="M137.8,193.64c0,3.23,3.77,5.35,7.51,4.3a4.68,4.68,0,0,0,3.74-4.72q0-16,0-31.9c0-2.75.05-5.5,0-8.24-.06-2.47-2.21-4.27-5.22-4.5-2.63-.2-5.22,1.26-5.87,3.38a5.75,5.75,0,0,0-.16,1.66q0,9.91,0,19.83C137.78,180.18,137.76,186.91,137.8,193.64Z"/><path class="cls-4" d="M137.61,153.93c-3.73-.63-5.23,0-5.24,2.16q0,17,0,34c0,2.22,1.29,2.79,5.24,2.29Z"/><path class="cls-4" d="M220.51,113.43c0,3.23-2.89,5.85-6.46,5.85"/><path class="cls-4" d="M139.4,113.37c0,3.23,2.89,5.85,6.46,5.85"/></g></svg>