<svg xmlns="http://www.w3.org/2000/svg" viewBox="0 0 360 360.06"><defs><style>.cls-1{fill:#236886;}.cls-2{fill:#fff;}.cls-3{fill:#256887;}</style></defs><title>CARD</title><g id="BACKGROUND"><rect class="cls-1" y="336.06" width="360" height="23.94"/><path class="cls-2" d="M290.57,346.29a.81.81,0,0,0,.47.78,5.38,5.38,0,0,0,1.49.4,4.68,4.68,0,0,1,2.2.83,2.07,2.07,0,0,1,.7,1.72,2.3,2.3,0,0,1-.25,1.09,2.43,2.43,0,0,1-.7.83,3.21,3.21,0,0,1-1.08.53,4.93,4.93,0,0,1-2.78,0,3.67,3.67,0,0,1-1.08-.56,2.6,2.6,0,0,1-.7-.82,2.24,2.24,0,0,1-.27-1l1.8-.29a1.55,1.55,0,0,0,.47,1,1.71,1.71,0,0,0,1.21.39,2.84,2.84,0,0,0,.6-.06,1.49,1.49,0,0,0,.5-.19,1.1,1.1,0,0,0,.33-.35.94.94,0,0,0,.12-.49.81.81,0,0,0-.39-.72,3.92,3.92,0,0,0-1.38-.41,9.6,9.6,0,0,1-1.22-.27,3.18,3.18,0,0,1-1-.47,2,2,0,0,1-.65-.73,2.32,2.32,0,0,1-.23-1.07,2.45,2.45,0,0,1,.24-1.11,2.18,2.18,0,0,1,.67-.78,3.21,3.21,0,0,1,1-.48,5.17,5.17,0,0,1,1.28-.15,4.74,4.74,0,0,1,1.22.15,3.49,3.49,0,0,1,1,.44,2.63,2.63,0,0,1,.72.73,2.57,2.57,0,0,1,.4,1l-1.82.4a1.47,1.47,0,0,0-.5-.91,1.55,1.55,0,0,0-1.06-.34,1.67,1.67,0,0,0-1,.25A.82.82,0,0,0,290.57,346.29Z"/><path class="cls-2" d="M297.29,344.09H304v1.5h-2.42v6.9h-1.81v-6.9h-2.43Z"/><path class="cls-2" d="M309.8,352.66a3.34,3.34,0,0,1-2.56-.87,3.38,3.38,0,0,1-.8-2.4v-5.3h1.8v5.31a2,2,0,0,0,.38,1.27,1.41,1.41,0,0,0,1.18.5,1.39,1.39,0,0,0,1.17-.5,2,2,0,0,0,.39-1.27v-5.31h1.8v5.3a3.38,3.38,0,0,1-.81,2.4A3.32,3.32,0,0,1,309.8,352.66Z"/><path class="cls-2" d="M316.28,344.09h3.13a5,5,0,0,1,1.73.28,3.44,3.44,0,0,1,1.29.82,3.55,3.55,0,0,1,.81,1.31,5.22,5.22,0,0,1,.28,1.79,5.12,5.12,0,0,1-.28,1.78,3.59,3.59,0,0,1-.81,1.32,3.42,3.42,0,0,1-1.29.81,5,5,0,0,1-1.73.29h-3.13Zm5.38,4.2a4.23,4.23,0,0,0-.13-1.11,2.76,2.76,0,0,0-.42-.86,1.87,1.87,0,0,0-.72-.55,2.49,2.49,0,0,0-1-.2h-1.27V351h1.27a2.49,2.49,0,0,0,1-.19,1.9,1.9,0,0,0,.72-.56,2.6,2.6,0,0,0,.42-.85A4.23,4.23,0,0,0,321.66,348.29Z"/><path class="cls-2" d="M326.34,352.49v-8.4h5.73v1.48h-3.95v1.85h3.67v1.49h-3.67V351h4v1.49Z"/><path class="cls-2" d="M334.91,344.09h1.87l1.4,2.25.64,1.05.51.82.48.78.38.62h0v-5.52h1.7v8.4h-1.87l-1.37-2.22c-.25-.42-.47-.77-.64-1l-.51-.83-.49-.79-.4-.64h0v5.52h-1.71Z"/><path class="cls-2" d="M344.46,344.09h6.66v1.5H348.7v6.9h-1.81v-6.9h-2.43Z"/></g><g id="LINE_ONE" data-name="LINE ONE"><path class="cls-1" d="M139.92,248.16v-14h9.58v2.48h-6.62v3.08H149v2.48h-6.1v6Z"/><path class="cls-1" d="M165,248.16h-3.1l-1.12-3.24h-5l-1.12,3.24h-2.94l5-14H160Zm-6.76-10.72c0,.1-.07.26-.14.47s-.14.44-.22.7-.17.54-.27.84-.2.59-.29.87c-.23.69-.47,1.43-.74,2.22H160c-.27-.79-.51-1.53-.74-2.22-.15-.4-.26-.73-.35-1s-.17-.51-.24-.75-.14-.46-.21-.67-.11-.37-.14-.47Z"/><path class="cls-1" d="M175.34,248.16c-.2-.55-.45-1.26-.75-2.15l-.93-2.77q-.48-1.44-.93-2.82c-.3-.92-.54-1.7-.73-2.32h-.06v10.06h-2.76v-14h4.2c.57,1.71,1.09,3.27,1.56,4.7q.42,1.27.69,2.07c.18.52.35,1,.5,1.51s.29.91.42,1.3.22.67.27.84l.26-.84c.12-.39.26-.84.43-1.37s.35-1.09.54-1.7.39-1.21.59-1.81c.45-1.43,1-3,1.5-4.7h4.18v14h-2.76V238.1h-.06l-.48,1.49-.61,1.85-.67,2c-.23.67-.44,1.31-.64,1.92l-.55,1.65c-.17.49-.3.88-.41,1.16Z"/><path class="cls-1" d="M189.6,234.16h3v14h-3Z"/><path class="cls-1" d="M197.88,234.16h3v11.5H207v2.5h-9.12Z"/><path class="cls-1" d="M213,242.3l-5.3-8.14h3.44l3.42,5.36,3.4-5.36h3.34L216,242.3v5.86h-3Z"/></g><g id="LINE_TWO" data-name="LINE TWO"><path class="cls-1" d="M130.58,255.62a1.32,1.32,0,0,0,.78,1.29,8.75,8.75,0,0,0,2.48.67,8,8,0,0,1,3.67,1.38,3.51,3.51,0,0,1,1.17,2.86,3.86,3.86,0,0,1-1.59,3.21,5.44,5.44,0,0,1-1.79.88,7.76,7.76,0,0,1-2.26.32,7.39,7.39,0,0,1-2.38-.36,5.86,5.86,0,0,1-1.8-.92,4.33,4.33,0,0,1-1.16-1.37,3.73,3.73,0,0,1-.46-1.62l3-.47a2.61,2.61,0,0,0,.79,1.67,2.84,2.84,0,0,0,2,.65,4.6,4.6,0,0,0,1-.11,2.14,2.14,0,0,0,.82-.33,1.73,1.73,0,0,0,.55-.56,1.63,1.63,0,0,0,.2-.82,1.37,1.37,0,0,0-.65-1.21,6.35,6.35,0,0,0-2.29-.67,18.1,18.1,0,0,1-2-.46,5.48,5.48,0,0,1-1.63-.78,3.48,3.48,0,0,1-1.08-1.21,3.79,3.79,0,0,1-.39-1.79,3.9,3.9,0,0,1,.4-1.84,3.75,3.75,0,0,1,1.12-1.32,5,5,0,0,1,1.7-.78,8,8,0,0,1,2.14-.27,8.16,8.16,0,0,1,2,.25,5.53,5.53,0,0,1,1.67.75,4.23,4.23,0,0,1,1.21,1.21,4.44,4.44,0,0,1,.66,1.63l-3,.66a2.45,2.45,0,0,0-.82-1.51,2.62,2.62,0,0,0-1.78-.57,2.86,2.86,0,0,0-1.69.42A1.34,1.34,0,0,0,130.58,255.62Z"/><path class="cls-1" d="M148.86,266.23a5.57,5.57,0,0,1-4.26-1.45,5.65,5.65,0,0,1-1.34-4V252h3v8.86a3.31,3.31,0,0,0,.64,2.1,2.73,2.73,0,0,0,3.92,0,3.31,3.31,0,0,0,.64-2.1V252h3v8.83a5.65,5.65,0,0,1-1.34,4A5.57,5.57,0,0,1,148.86,266.23Z"/><path class="cls-1" d="M162.64,261V266h-3V252H165a9.42,9.42,0,0,1,2.28.25,5.17,5.17,0,0,1,1.74.8,3.73,3.73,0,0,1,1.12,1.39,4.61,4.61,0,0,1,.4,2,4.9,4.9,0,0,1-.41,2.07,3.81,3.81,0,0,1-1.14,1.43,4.83,4.83,0,0,1-1.75.84A8.33,8.33,0,0,1,165,261Zm4.82-4.62a1.67,1.67,0,0,0-.69-1.56,4.11,4.11,0,0,0-2.09-.42h-2v4.11h2a3.52,3.52,0,0,0,2.09-.5A1.88,1.88,0,0,0,167.46,256.41Z"/><path class="cls-1" d="M177.9,261V266h-3V252h5.32a9.42,9.42,0,0,1,2.28.25,5.17,5.17,0,0,1,1.74.8,3.73,3.73,0,0,1,1.12,1.39,4.61,4.61,0,0,1,.4,2,4.9,4.9,0,0,1-.41,2.07,3.81,3.81,0,0,1-1.14,1.43,4.83,4.83,0,0,1-1.75.84,8.33,8.33,0,0,1-2.24.28Zm4.82-4.62a1.67,1.67,0,0,0-.69-1.56,4.11,4.11,0,0,0-2.09-.42h-2v4.11h2A3.52,3.52,0,0,0,182,258,1.88,1.88,0,0,0,182.72,256.41Z"/><path class="cls-1" d="M189.6,259a8.75,8.75,0,0,1,.49-3,6.46,6.46,0,0,1,1.38-2.29,6,6,0,0,1,2.15-1.45,8.09,8.09,0,0,1,5.6,0,6,6,0,0,1,2.15,1.45,6.46,6.46,0,0,1,1.38,2.29,9.71,9.71,0,0,1,0,6.09,6.46,6.46,0,0,1-1.38,2.29,6,6,0,0,1-2.15,1.45,8.09,8.09,0,0,1-5.6,0,6,6,0,0,1-2.15-1.45,6.46,6.46,0,0,1-1.38-2.29A8.73,8.73,0,0,1,189.6,259Zm3.1,0a8,8,0,0,0,.23,1.95,4.28,4.28,0,0,0,.69,1.51,3.26,3.26,0,0,0,1.16,1,4.13,4.13,0,0,0,3.28,0,3.26,3.26,0,0,0,1.16-1,4.28,4.28,0,0,0,.69-1.51,8.42,8.42,0,0,0,0-3.91,4.28,4.28,0,0,0-.69-1.51,3.26,3.26,0,0,0-1.16-1,4.13,4.13,0,0,0-3.28,0,3.26,3.26,0,0,0-1.16,1,4.28,4.28,0,0,0-.69,1.51A8,8,0,0,0,192.7,259Z"/><path class="cls-1" d="M218.42,256.2a4.24,4.24,0,0,1-.71,2.54,4.08,4.08,0,0,1-2,1.46L219,266h-3.3l-2.9-5.3h-1.86V266h-3V252h5.12a8.89,8.89,0,0,1,2.21.25A4.77,4.77,0,0,1,217,253a3.56,3.56,0,0,1,1.08,1.32A4.53,4.53,0,0,1,218.42,256.2Zm-3.08,0a1.49,1.49,0,0,0-.65-1.41,3.91,3.91,0,0,0-2-.39h-1.8v3.77h1.8a3.4,3.4,0,0,0,2-.45A1.72,1.72,0,0,0,215.34,256.23Z"/><path class="cls-1" d="M222.1,252h11.1v2.5h-4V266h-3v-11.5h-4Z"/></g><g id="ICON"><path class="cls-3" d="M220.93,159.68a22.2,22.2,0,0,1,3.18,2,6.65,6.65,0,0,1-3.4,11.45c-5.38.81-10.77,1.59-16.16,2.27-.63.08-1.35-.57-2-.88.55-.41,1.05-1.1,1.66-1.2,5.13-.83,10.31-1.43,15.42-2.38a5.82,5.82,0,0,0,3.74-2.33,5,5,0,0,0-.18-4.33,4.89,4.89,0,0,0-3.85-1.95c-8.76,1-17.54,2.17-26.2,3.83a13.19,13.19,0,0,0-7,4.43c-4.37,5.28-8.23,11-12.23,16.54-1.41,2-1.1,3.65.83,5.1q4.17,3.14,8.41,6.14c2,1.43,3.76,1.16,5.34-.83a39.14,39.14,0,0,0,3.33-4.59c1.55-2.68,3.89-3.87,6.79-4.59,7.34-1.82,14.63-3.83,22-5.77a8.25,8.25,0,0,0,5.89-5.28c4.14-10.37,8.38-20.71,12.58-31.06a9.34,9.34,0,0,0,.68-2,4.29,4.29,0,0,0-2.54-4.85,3.69,3.69,0,0,0-5,1.27C228.34,146.93,224.7,153.26,220.93,159.68Z"/><path class="cls-3" d="M139.07,159.68a22.2,22.2,0,0,0-3.18,2,6.65,6.65,0,0,0,3.4,11.45c5.38.81,10.77,1.59,16.16,2.27.63.08,1.35-.57,2-.88-.55-.41-1.05-1.1-1.66-1.2-5.13-.83-10.31-1.43-15.42-2.38a5.82,5.82,0,0,1-3.74-2.33,5,5,0,0,1,.18-4.33,4.89,4.89,0,0,1,3.85-1.95c8.76,1,17.54,2.17,26.2,3.83a13.19,13.19,0,0,1,7,4.43c4.37,5.28,8.23,11,12.23,16.54,1.41,2,1.1,3.65-.83,5.1q-4.17,3.14-8.41,6.14c-2,1.43-3.76,1.16-5.34-.83a39.14,39.14,0,0,1-3.33-4.59c-1.55-2.68-3.89-3.87-6.79-4.59-7.34-1.82-14.63-3.83-22-5.77a8.25,8.25,0,0,1-5.89-5.28c-4.14-10.37-8.38-20.71-12.58-31.06a9.34,9.34,0,0,1-.68-2,4.29,4.29,0,0,1,2.54-4.85,3.69,3.69,0,0,1,5,1.27C131.66,146.93,135.3,153.26,139.07,159.68Z"/><path class="cls-3" d="M180,116.69a7.25,7.25,0,0,1,7-3.92c8.09,0,16.18,0,24.27,0,4.49,0,7,2.57,7,7.07q0,16.88,0,33.75c0,2.83-1,3.92-3.44,3.94-2.62,0-3.73-1.11-3.73-3.94q0-12.66,0-25.31V126c-1.59-.14-1.62-.14-1.62,1.39,0,6.4-.07,20.76-.06,27.16m0,0H150.59l-.17-8q0-9.6,0-19.19c0-1.53,0-1.53-1.62-1.39v2.29q0,12.64,0,25.31c0,2.83-1.11,4-3.73,3.94-2.47,0-3.44-1.11-3.44-3.94q0-16.87,0-33.75c0-4.5,2.54-7.06,7-7.07,8.09,0,16.18,0,24.27,0a7.25,7.25,0,0,1,7,3.92"/><path class="cls-3" d="M209.2,101a10.21,10.21,0,1,1-10.14-10.21A10.27,10.27,0,0,1,209.2,101Z"/><path class="cls-3" d="M171,101a10.22,10.22,0,1,1-10.14-10.21A10.27,10.27,0,0,1,171,101Z"/><path class="cls-2" d="M189.85,147.15c3.26-4.67,6.65-9.24,10-13.85.88-1.21,1.75-2.41.82-4-1.16-2-3.32-2.27-4.84-.37-2.22,2.8-4.27,5.74-6.39,8.62a6.61,6.61,0,0,0-.7,1.05c-1.84,4.21-5.34,4.34-9.33,4.36-3.56,0-6-.67-7.87-4-2-3.51-4.71-6.63-7.18-9.86-1.23-1.62-2.82-1.87-4.21-.86a2.89,2.89,0,0,0-.5,4.29c3.45,4.87,7,9.66,10.43,14.54a5.43,5.43,0,0,1,1.07,2.84h17.78a5.33,5.33,0,0,1,1.06-2.84c3.44-4.88,7-9.67,10.43-14.54a2.88,2.88,0,0,0-.5-4.29c-1.38-1-3-.76-4.21.86-2.46,3.23-5.17,6.35-7.18,9.86-1.89,3.3-4.31,4-7.87,4-4,0-7.48-.15-9.33-4.36a5.49,5.49,0,0,0-.7-1.05c-2.12-2.88-4.17-5.82-6.39-8.62-1.51-1.9-3.68-1.63-4.83.37-.94,1.61-.07,2.81.81,4,3.34,4.61,6.72,9.18,10,13.85"/><path class="cls-2" d="M179.89,126.4a7.55,7.55,0,0,0-7.55,7.21,7.41,7.41,0,0,0,7.29,7.45,7.34,7.34,0,0,0,7.51-7.39A7.46,7.46,0,0,0,179.89,126.4Z"/><polyline class="cls-2" points="188.91 147.81 188.91 161.56 171.13 161.56 171.13 147.81"/><polygon class="cls-3" points="150.59 154.56 150.59 157.55 168.28 160.27 171.13 161.56 171.13 149.92 150.59 154.56"/><polygon class="cls-3" points="209.46 154.56 209.46 157.55 191.77 160.27 188.93 161.56 188.91 149.92 209.46 154.56"/></g></svg>