<svg xmlns="http://www.w3.org/2000/svg" viewBox="0 0 360 360"><defs><style>.cls-1{fill:#231f20;}.cls-2{fill:#fff;}</style></defs><title>CARD</title><g id="BACKGROUND"><rect class="cls-1" width="360" height="360"/></g><g id="LINE_ONE" data-name="LINE ONE"><path class="cls-2" d="M87.31,234.16h11.1v2.5h-4v11.5h-3v-11.5h-4Z"/><path class="cls-2" d="M113.11,238.42a3.94,3.94,0,0,1-2.66,4l3.22,5.74h-3.3l-2.9-5.3h-1.86v5.3h-3v-14h5.12a8.89,8.89,0,0,1,2.21.25,4.78,4.78,0,0,1,1.69.77,3.46,3.46,0,0,1,1.08,1.32A4.47,4.47,0,0,1,113.11,238.42Zm-3.08,0a1.51,1.51,0,0,0-.65-1.41,3.91,3.91,0,0,0-2-.39h-1.8v3.78h1.8a3.48,3.48,0,0,0,2-.45A1.74,1.74,0,0,0,110,238.44Z"/><path class="cls-2" d="M130.31,248.16h-3.1l-1.12-3.24h-5L120,248.16H117l5-14h3.22Zm-6.76-10.72c0,.11-.07.26-.14.47s-.14.44-.22.7-.17.54-.27.84l-.29.87c-.23.69-.47,1.43-.74,2.22h3.38c-.27-.79-.51-1.53-.74-2.22-.15-.4-.26-.73-.35-1s-.17-.51-.24-.75-.14-.46-.21-.67-.11-.36-.14-.47Z"/><path class="cls-2" d="M134.45,234.16h3.12l2.32,3.76,1.08,1.75.84,1.37.8,1.29.64,1h.06v-9.2h2.84v14H143l-2.28-3.7-1.07-1.73c-.29-.46-.57-.92-.85-1.38L138,240c-.26-.42-.48-.78-.67-1.07h-.06v9.2h-2.84Z"/><path class="cls-2" d="M154.15,237.84a1.34,1.34,0,0,0,.78,1.29,9.48,9.48,0,0,0,2.48.67,7.86,7.86,0,0,1,3.67,1.38,3.48,3.48,0,0,1,1.17,2.86,3.92,3.92,0,0,1-.42,1.83,4.07,4.07,0,0,1-1.17,1.38,5.65,5.65,0,0,1-1.79.88,7.77,7.77,0,0,1-2.26.31,7.68,7.68,0,0,1-2.38-.35,5.66,5.66,0,0,1-1.8-.93,4.41,4.41,0,0,1-1.16-1.36,3.81,3.81,0,0,1-.46-1.62l3-.48a2.56,2.56,0,0,0,.79,1.67,2.84,2.84,0,0,0,2,.65,4.61,4.61,0,0,0,1-.1,2.52,2.52,0,0,0,.82-.33A1.66,1.66,0,0,0,159,245a1.63,1.63,0,0,0,.2-.82,1.35,1.35,0,0,0-.65-1.2,6.31,6.31,0,0,0-2.29-.68,16.15,16.15,0,0,1-2-.46,5.47,5.47,0,0,1-1.63-.77,3.51,3.51,0,0,1-1.08-1.22,3.76,3.76,0,0,1-.39-1.79,3.93,3.93,0,0,1,.4-1.84,3.72,3.72,0,0,1,1.12-1.31,5,5,0,0,1,1.7-.79,8.48,8.48,0,0,1,2.14-.26,7.71,7.71,0,0,1,2,.25,5.51,5.51,0,0,1,1.67.74,4.36,4.36,0,0,1,1.21,1.21,4.49,4.49,0,0,1,.66,1.64l-3,.66a2.45,2.45,0,0,0-.82-1.52,2.67,2.67,0,0,0-1.78-.56,2.78,2.78,0,0,0-1.69.42A1.33,1.33,0,0,0,154.15,237.84Z"/><path class="cls-2" d="M169.89,243.24v4.92h-3v-14h5.32a9.4,9.4,0,0,1,2.28.26,4.81,4.81,0,0,1,1.74.8,3.7,3.7,0,0,1,1.12,1.38,4.61,4.61,0,0,1,.4,2,4.87,4.87,0,0,1-.41,2.07,3.85,3.85,0,0,1-1.14,1.44,4.83,4.83,0,0,1-1.75.84,8.76,8.76,0,0,1-2.24.27Zm4.82-4.62a1.68,1.68,0,0,0-.69-1.56,4.11,4.11,0,0,0-2.09-.42h-2v4.12h2a3.6,3.6,0,0,0,2.09-.5A1.88,1.88,0,0,0,174.71,238.62Z"/><path class="cls-2" d="M193.23,248.16h-3.1L189,244.92h-5l-1.12,3.24h-2.94l5-14h3.22Zm-6.76-10.72c0,.11-.07.26-.14.47s-.14.44-.22.7-.17.54-.27.84-.2.59-.29.87c-.23.69-.47,1.43-.74,2.22h3.38c-.27-.79-.51-1.53-.74-2.22-.15-.4-.26-.73-.35-1s-.17-.51-.24-.75-.14-.46-.21-.67-.11-.36-.14-.47Z"/><path class="cls-2" d="M207.85,238.42a3.94,3.94,0,0,1-2.66,4l3.22,5.74h-3.3l-2.9-5.3h-1.86v5.3h-3v-14h5.12a8.89,8.89,0,0,1,2.21.25,4.78,4.78,0,0,1,1.69.77,3.46,3.46,0,0,1,1.08,1.32A4.47,4.47,0,0,1,207.85,238.42Zm-3.08,0a1.51,1.51,0,0,0-.65-1.41,3.91,3.91,0,0,0-2-.39h-1.8v3.78h1.8a3.48,3.48,0,0,0,2-.45A1.74,1.74,0,0,0,204.77,238.44Z"/><path class="cls-2" d="M212.89,248.16v-14h9.54v2.48h-6.58v3.08H222v2.48h-6.12v3.48h6.68v2.48Z"/><path class="cls-2" d="M227.17,234.16h3.12l2.32,3.76,1.08,1.75.84,1.37.8,1.29.64,1H236v-9.2h2.84v14h-3.12l-2.28-3.7-1.07-1.73c-.29-.46-.57-.92-.85-1.38l-.81-1.32c-.26-.42-.48-.78-.67-1.07H230v9.2h-2.84Z"/><path class="cls-2" d="M243.57,241.16a9.12,9.12,0,0,1,.48-3.07,6.47,6.47,0,0,1,1.37-2.29,5.75,5.75,0,0,1,2.16-1.43,7.82,7.82,0,0,1,2.85-.49,6.83,6.83,0,0,1,3.76,1,5.35,5.35,0,0,1,2.16,3l-2.92,1a3.92,3.92,0,0,0-1.08-1.83,2.86,2.86,0,0,0-2-.65,3.51,3.51,0,0,0-1.62.36,3.26,3.26,0,0,0-1.16,1,4.28,4.28,0,0,0-.69,1.51,7.77,7.77,0,0,0-.23,1.92,7.63,7.63,0,0,0,.23,1.91,4.45,4.45,0,0,0,.69,1.51,3.19,3.19,0,0,0,1.16,1,3.54,3.54,0,0,0,1.64.36,2.94,2.94,0,0,0,1.89-.58,3.53,3.53,0,0,0,1.11-1.76l2.88,1a6,6,0,0,1-2.16,2.8,6.42,6.42,0,0,1-3.76,1,7.5,7.5,0,0,1-2.79-.49,5.94,5.94,0,0,1-2.14-1.42,6.3,6.3,0,0,1-1.37-2.29A9.22,9.22,0,0,1,243.57,241.16Z"/><path class="cls-2" d="M264.59,242.3l-5.3-8.14h3.44l3.42,5.36,3.4-5.36h3.34l-5.3,8.14v5.86h-3Z"/></g><g id="ICON"><path class="cls-2" d="M98.92,143.31a54.18,54.18,0,0,1,44-52.92A53.26,53.26,0,0,1,179.2,96.3a1.82,1.82,0,0,0,2.05,0,53,53,0,0,1,29-6.75A54,54,0,0,1,218,196.33a52.46,52.46,0,0,1-36.37-5.58,2.49,2.49,0,0,0-2.79,0c-31.12,17.26-70.79-.58-78.46-35.33-.87-3.95-1.17-8-1.74-12Zm85.41,44.11a49.68,49.68,0,1,0,0-88c14.46,11.08,22.48,25.59,22.51,43.91S198.86,176.26,184.33,187.42Zm16.92-55.91H159.08c-.32,1.68-.65,3.34-1,5.1h44.15C201.9,134.86,201.58,133.2,201.25,131.51Zm.95,18.92h-44c.25,1.36.51,2.64.71,3.94.14.93.52,1.29,1.55,1.28,6.48-.06,13,0,19.43,0,6.75,0,13.51,0,20.26,0,.77,0,1.16-.16,1.29-1C201.59,153.26,201.91,151.91,202.2,150.43Zm-44.46-4.38h44.83v-5H157.74Zm2.68,13.85c.68,1.61,1.25,3.06,1.92,4.45a1.44,1.44,0,0,0,1.06.65q16.77,0,33.54,0c.31,0,.8-.14.91-.36.71-1.52,1.34-3.09,2.05-4.75Zm-.07-32.78H200c-.69-1.63-1.29-3.14-2-4.61a1.25,1.25,0,0,0-1-.44q-16.89,0-33.77,0c-.31,0-.79.14-.89.36C161.68,123.93,161.05,125.46,160.35,127.12Zm35.21-9.41c-1.24-1.74-2.31-3.31-3.46-4.82a1.48,1.48,0,0,0-1-.35q-10.91,0-21.8,0c-.33,0-.81.06-1,.28-1.17,1.54-2.27,3.14-3.51,4.89Zm-30.65,51.65c1.2,1.68,2.2,3.16,3.3,4.57a1.9,1.9,0,0,0,1.31.56q10.65,0,21.31,0c.34,0,.83,0,1-.23,1.19-1.55,2.32-3.16,3.59-4.91Zm7.45-61.48.2.35h15.21l.19-.33c-2.44-1.91-4.88-3.83-7.34-5.72a.89.89,0,0,0-.82-.05C177.3,104,174.83,106,172.36,107.88Zm.4,70.9c0,.14,0,.26,0,.29,2.28,1.86,4.54,3.74,6.87,5.55a1.37,1.37,0,0,0,1.21-.14c1.67-1.23,3.29-2.51,4.9-3.81.66-.53,1.24-1.14,2.05-1.89Z"/><path d="M184.33,187.42c14.53-11.16,22.56-25.7,22.53-44.08s-8.05-32.83-22.51-43.91a49.68,49.68,0,1,1,0,88Z"/><path d="M201.25,131.51c.33,1.69.65,3.35,1,5.1H158.09c.34-1.76.67-3.42,1-5.1Z"/><path d="M202.2,150.43c-.29,1.48-.61,2.83-.81,4.21-.13.83-.52,1-1.29,1-6.75,0-13.51,0-20.26,0-6.48,0-13,0-19.43,0-1,0-1.41-.35-1.55-1.28-.2-1.3-.46-2.58-.71-3.94Z"/><path d="M157.74,146.05v-5h44.83v5Z"/><path d="M160.42,159.9H199.9c-.71,1.66-1.34,3.23-2.05,4.75-.11.22-.6.36-.91.36q-16.77,0-33.54,0a1.44,1.44,0,0,1-1.06-.65C161.67,163,161.1,161.51,160.42,159.9Z"/><path d="M160.35,127.12c.7-1.66,1.33-3.19,2-4.69.1-.22.58-.36.89-.36q16.89,0,33.77,0a1.25,1.25,0,0,1,1,.44c.69,1.47,1.29,3,2,4.61Z"/><path d="M195.56,117.71H164.77c1.24-1.75,2.34-3.35,3.51-4.89.16-.22.64-.28,1-.28q10.91,0,21.8,0a1.48,1.48,0,0,1,1,.35C193.25,114.4,194.32,116,195.56,117.71Z"/><path d="M164.91,169.36h30.51c-1.27,1.75-2.4,3.36-3.59,4.91-.17.21-.66.23-1,.23q-10.67,0-21.31,0a1.9,1.9,0,0,1-1.31-.56C167.11,172.52,166.11,171,164.91,169.36Z"/><path d="M172.36,107.88c2.47-1.92,4.94-3.85,7.44-5.75a.89.89,0,0,1,.82.05c2.46,1.89,4.9,3.81,7.34,5.72l-.19.33H172.56Z"/><path d="M172.76,178.78h15.07c-.81.75-1.39,1.36-2.05,1.89-1.61,1.3-3.23,2.58-4.9,3.81a1.37,1.37,0,0,1-1.21.14c-2.33-1.81-4.59-3.69-6.87-5.55C172.76,179,172.78,178.92,172.76,178.78Z"/></g></svg>