<svg xmlns="http://www.w3.org/2000/svg" viewBox="0 0 360 360"><defs><style>.cls-1{fill:#fff;}.cls-2{fill:#226985;}.cls-3,.cls-4{fill:#256885;}.cls-3{stroke:#256885;stroke-miterlimit:10;stroke-width:4px;}</style></defs><title>CARD</title><g id="Layer_6" data-name="Layer 6"><rect class="cls-1" x="0.42" y="-0.47" width="360" height="360"/></g><g id="BACKGROUND"><rect class="cls-2" y="336" width="360" height="23.94"/><path class="cls-1" d="M290.57,346.23a.82.82,0,0,0,.47.78,5.75,5.75,0,0,0,1.49.4,4.68,4.68,0,0,1,2.2.83,2.07,2.07,0,0,1,.7,1.71,2.32,2.32,0,0,1-.25,1.1,2.53,2.53,0,0,1-.7.83,3.4,3.4,0,0,1-1.08.53,4.79,4.79,0,0,1-1.35.18,4.53,4.53,0,0,1-1.43-.21,3.45,3.45,0,0,1-1.08-.56,2.56,2.56,0,0,1-.7-.81,2.28,2.28,0,0,1-.27-1l1.8-.29a1.55,1.55,0,0,0,.47,1,1.71,1.71,0,0,0,1.21.39,2.84,2.84,0,0,0,.6-.06,1.5,1.5,0,0,0,.5-.2,1,1,0,0,0,.33-.34,1,1,0,0,0,.12-.49.81.81,0,0,0-.39-.72,3.72,3.72,0,0,0-1.38-.41,8.11,8.11,0,0,1-1.22-.28,3.17,3.17,0,0,1-1-.46,2.07,2.07,0,0,1-.65-.73,2.32,2.32,0,0,1-.23-1.07,2.39,2.39,0,0,1,.24-1.11,2.18,2.18,0,0,1,.67-.78,3,3,0,0,1,1-.48,5.17,5.17,0,0,1,1.28-.15,4.74,4.74,0,0,1,1.22.15,3.24,3.24,0,0,1,1,.44,2.63,2.63,0,0,1,.72.73,2.45,2.45,0,0,1,.4,1l-1.82.4a1.5,1.5,0,0,0-.5-.92,1.6,1.6,0,0,0-1.06-.33,1.67,1.67,0,0,0-1,.25A.8.8,0,0,0,290.57,346.23Z"/><path class="cls-1" d="M297.29,344H304v1.5h-2.42v6.9h-1.81v-6.9h-2.43Z"/><path class="cls-1" d="M309.8,352.59a2.93,2.93,0,0,1-3.36-3.26V344h1.8v5.32a2,2,0,0,0,.38,1.27,1.4,1.4,0,0,0,1.18.49,1.38,1.38,0,0,0,1.17-.49,2,2,0,0,0,.39-1.27V344h1.8v5.31a2.94,2.94,0,0,1-3.36,3.26Z"/><path class="cls-1" d="M316.28,344h3.13a5,5,0,0,1,1.73.29,3.42,3.42,0,0,1,1.29.81,3.67,3.67,0,0,1,.81,1.32,5.83,5.83,0,0,1,0,3.57,3.67,3.67,0,0,1-.81,1.32,3.55,3.55,0,0,1-1.29.81,5,5,0,0,1-1.73.28h-3.13Zm5.38,4.2a4.33,4.33,0,0,0-.13-1.11,2.7,2.7,0,0,0-.42-.85,1.9,1.9,0,0,0-.72-.56,2.67,2.67,0,0,0-1-.19h-1.27v5.43h1.27a2.49,2.49,0,0,0,1-.2,1.78,1.78,0,0,0,.72-.55,2.65,2.65,0,0,0,.42-.86A4.23,4.23,0,0,0,321.66,348.22Z"/><path class="cls-1" d="M326.34,352.42V344h5.73v1.49h-3.95v1.85h3.67v1.49h-3.67v2.09h4v1.48Z"/><path class="cls-1" d="M334.91,344h1.87l1.4,2.26c.26.42.48.77.64,1.05l.51.82.48.78.38.61h0V344h1.7v8.4h-1.87c-.48-.77-.94-1.51-1.37-2.22l-.64-1-.51-.83-.49-.79c-.15-.26-.29-.47-.4-.65h0v5.52h-1.71Z"/><path class="cls-1" d="M344.46,344h6.66v1.5H348.7v6.9h-1.81v-6.9h-2.43Z"/></g><g id="LINE_ONE" data-name="LINE ONE"><path class="cls-2" d="M131.43,237.77a1.33,1.33,0,0,0,.78,1.29,8.75,8.75,0,0,0,2.48.67,7.86,7.86,0,0,1,3.67,1.38,3.51,3.51,0,0,1,1.17,2.86,3.92,3.92,0,0,1-.42,1.83,4.07,4.07,0,0,1-1.17,1.38,5.44,5.44,0,0,1-1.79.88,7.76,7.76,0,0,1-2.26.32,7.39,7.39,0,0,1-2.38-.36,5.66,5.66,0,0,1-1.8-.93,4.19,4.19,0,0,1-1.16-1.36,3.77,3.77,0,0,1-.46-1.62l3-.48a2.56,2.56,0,0,0,.79,1.67,2.8,2.8,0,0,0,2,.66,4.6,4.6,0,0,0,1-.11,2.14,2.14,0,0,0,.82-.33,1.73,1.73,0,0,0,.55-.56,1.64,1.64,0,0,0,.2-.83,1.36,1.36,0,0,0-.65-1.2,6.35,6.35,0,0,0-2.29-.67,20.59,20.59,0,0,1-2-.46,5.48,5.48,0,0,1-1.63-.78,3.42,3.42,0,0,1-1.08-1.22,3.73,3.73,0,0,1-.39-1.79,4,4,0,0,1,.4-1.84,3.81,3.81,0,0,1,1.12-1.31,5,5,0,0,1,1.7-.78,8,8,0,0,1,2.14-.27,8.16,8.16,0,0,1,2,.25,5.77,5.77,0,0,1,1.67.74,4.49,4.49,0,0,1,1.21,1.21,4.56,4.56,0,0,1,.66,1.64l-3,.66a2.43,2.43,0,0,0-.82-1.51,2.62,2.62,0,0,0-1.78-.57,2.86,2.86,0,0,0-1.69.42A1.34,1.34,0,0,0,131.43,237.77Z"/><path class="cls-2" d="M142.63,234.09h11.1v2.5h-4v11.5h-3v-11.5h-4Z"/><path class="cls-2" d="M163.47,248.38a5.57,5.57,0,0,1-4.26-1.45,5.65,5.65,0,0,1-1.34-4v-8.84h3V243a3.31,3.31,0,0,0,.64,2.1,2.73,2.73,0,0,0,3.92,0,3.31,3.31,0,0,0,.64-2.1v-8.87h3v8.84a5.65,5.65,0,0,1-1.34,4A5.57,5.57,0,0,1,163.47,248.38Z"/><path class="cls-2" d="M174.27,234.09h5.22a8.36,8.36,0,0,1,2.88.47,5.66,5.66,0,0,1,3.51,3.55,9.71,9.71,0,0,1,0,6,5.73,5.73,0,0,1-3.51,3.55,8.37,8.37,0,0,1-2.88.46h-5.22Zm9,7a7,7,0,0,0-.23-1.84,4.11,4.11,0,0,0-.7-1.44,3.21,3.21,0,0,0-1.19-.92,4.26,4.26,0,0,0-1.72-.31h-2.12v9h2.12a4.26,4.26,0,0,0,1.72-.31,3.21,3.21,0,0,0,1.19-.92,4.11,4.11,0,0,0,.7-1.44A7,7,0,0,0,183.25,241.09Z"/><path class="cls-2" d="M191.05,248.09v-14h9.54v2.49H194v3.07h6.12v2.48H194v3.48h6.68v2.48Z"/><path class="cls-2" d="M205.33,234.09h3.12c.81,1.33,1.59,2.58,2.32,3.76l1.08,1.75.84,1.37.8,1.29c.25.41.47.75.64,1h.06v-9.21H217v14h-3.12c-.8-1.29-1.56-2.52-2.28-3.7l-1.07-1.72c-.29-.46-.57-.92-.85-1.38s-.55-.91-.81-1.32l-.67-1.08h-.06v9.2h-2.84Z"/><path class="cls-2" d="M221.25,234.09h11.1v2.5h-4v11.5h-3v-11.5h-4Z"/></g><g id="LINE_TWO" data-name="LINE TWO"><path class="cls-2" d="M139.89,255.56a1.34,1.34,0,0,0,.78,1.29,9.1,9.1,0,0,0,2.48.67,7.86,7.86,0,0,1,3.67,1.38,3.49,3.49,0,0,1,1.17,2.86,3.92,3.92,0,0,1-.42,1.83A4.07,4.07,0,0,1,146.4,265a5.44,5.44,0,0,1-1.79.88,7.77,7.77,0,0,1-2.26.31,7.39,7.39,0,0,1-2.38-.35,5.66,5.66,0,0,1-1.8-.93,4.3,4.3,0,0,1-1.16-1.36,3.81,3.81,0,0,1-.46-1.62l3-.48a2.56,2.56,0,0,0,.79,1.67,2.8,2.8,0,0,0,2,.65,4.61,4.61,0,0,0,1-.1,2.14,2.14,0,0,0,.82-.33,1.66,1.66,0,0,0,.55-.57,1.61,1.61,0,0,0,.2-.82,1.35,1.35,0,0,0-.65-1.2A6.52,6.52,0,0,0,142,260a16.15,16.15,0,0,1-2-.46,5.23,5.23,0,0,1-1.63-.77,3.42,3.42,0,0,1-1.08-1.22,3.73,3.73,0,0,1-.39-1.79,4,4,0,0,1,.4-1.84,3.81,3.81,0,0,1,1.12-1.31,5.22,5.22,0,0,1,1.7-.79,8.48,8.48,0,0,1,2.14-.26,8.16,8.16,0,0,1,2,.25,5.77,5.77,0,0,1,1.67.74,4.36,4.36,0,0,1,1.21,1.21,4.49,4.49,0,0,1,.66,1.64l-3,.66a2.48,2.48,0,0,0-.82-1.52,2.67,2.67,0,0,0-1.78-.56,2.78,2.78,0,0,0-1.69.42A1.34,1.34,0,0,0,139.89,255.56Z"/><path class="cls-2" d="M164.81,265.88h-3.1l-1.12-3.24h-5l-1.12,3.24h-2.94l5-14h3.22Zm-6.76-10.72c0,.11-.07.26-.14.47s-.14.44-.22.7-.17.54-.27.84l-.29.87c-.23.7-.47,1.44-.74,2.22h3.38c-.27-.78-.51-1.52-.74-2.22-.15-.4-.26-.73-.35-1s-.17-.51-.24-.75-.14-.46-.21-.67-.11-.36-.14-.47Z"/><path class="cls-2" d="M169,265.88v-14h9.58v2.48h-6.62v3.08H178v2.48h-6.1v6Z"/><path class="cls-2" d="M183,265.88v-14h9.54v2.48H186v3.08h6.12v2.48H186v3.48h6.68v2.48Z"/><path class="cls-2" d="M196.23,251.88h11.1v2.5h-4v11.5h-3v-11.5h-4Z"/><path class="cls-2" d="M215.79,260l-5.3-8.14h3.44l3.42,5.36,3.4-5.36h3.34l-5.3,8.14v5.86h-3Z"/></g><g id="ICON"><path class="cls-3" d="M124.62,185.77c4.64-9.28,9.13-18.64,13.95-27.82,10.44-19.89,21.05-39.69,31.6-59.51a25.5,25.5,0,0,1,2.22-3.61c5-6.45,12.27-6.39,16.73.43,2.85,4.37,5.13,9.13,7.59,13.76q18.36,34.47,36.65,69c1.31,2.47,2.19,5.17,3.26,7.77v3.5c-2,7.31-7.23,9.35-14.21,9.33q-41.79-.16-83.59,0c-7,0-12.24-2-14.2-9.32Zm55.79,7.81v0q19.13,0,38.24,0a64.14,64.14,0,0,0,7.73-.26c4.11-.5,6.19-3.46,5.18-7.47a28.63,28.63,0,0,0-2.58-6.2Q208,140.17,187,100.71c-1.42-2.67-2.88-5.56-6.44-5.53s-5,2.95-6.38,5.61q-17.85,33.51-35.65,67c-2.81,5.29-5.75,10.54-8.26,16s.16,9.46,6.12,9.78c.58,0,1.16,0,1.75,0Z"/><path class="cls-1" d="M180.41,193.58H138.17c-.59,0-1.17,0-1.75,0-6-.32-8.64-4.35-6.12-9.78s5.45-10.68,8.26-16q17.81-33.52,35.65-67c1.42-2.66,2.83-5.58,6.38-5.61s5,2.86,6.44,5.53q21,39.47,41.95,79a28.63,28.63,0,0,1,2.58,6.2c1,4-1.07,7-5.18,7.47a64.14,64.14,0,0,1-7.73.26q-19.11,0-38.24,0Zm1-39.62.62.07c.49,1.4,1,2.8,1.48,4.2q2.78,8,5.52,16.05c.57,1.67,1.78,2.78,3.35,1.9.91-.52,1.32-2.17,1.65-3.39.16-.62-.33-1.44-.57-2.14-1.86-5.43-3.69-10.87-5.62-16.28-1.32-3.67-2.72-7.29-.91-11.19,2.9,1.93,3.23,2.71,3.71,6.37a4.19,4.19,0,0,0,1.77,2.57c.4.26,2.19-.55,2.2-.91.09-2.46.74-5.49-.43-7.27-2.15-3.27-5.36-5.86-8.24-8.63-1.75-1.68-5.86-1.46-7.45.31-3.27,3.66-6.47,7.37-9.72,11.06-1.13,1.28-1.56,2.7-.23,4s2.69.5,3.81-.73c1.46-1.61,3-3.16,4.47-4.74l.6.29c0,1.52.42,3.2-.08,4.54-1.3,3.5-3,6.84-4.53,10.26-1.68,3.8-3.38,7.6-5,11.44-.7,1.7-.56,3.42,1.37,4.22,1.77.73,2.78-.4,3.44-1.94.89-2.07,1.8-4.12,2.7-6.17Zm36.5,29.32c-3-4.37-5.66-8.25-8.31-12.15-2.48-3.65-3.25-3.95-8.06-2.88,2.5,4.82,4.95,9.59,7.47,14.31a1.87,1.87,0,0,0,1.42.69C212.75,183.32,215.06,183.28,217.93,183.28Zm-58.19-15.11c-4.09-1-6.88-.17-8.54,3.51a25.69,25.69,0,0,1-2.48,3.73c-1.71,2.49-3.41,5-5.39,7.87,2.84,0,5.14,0,7.44,0a1.88,1.88,0,0,0,1.43-.67C154.73,177.85,157.19,173.08,159.74,168.17Zm17.8,14.91h7.51l-1.38-14.64h-6.13Zm24.21.21c-1.6-4.82-3.14-9.2-4.5-13.63-.55-1.81-1.47-2.14-3.18-1.49.14.48.25.87.38,1.25,1.17,3.24,1.84,6.34-1.87,8.54a1.65,1.65,0,0,0-.45,1.26c.05,3.5.67,4.08,4.2,4.07Zm-41.46,0h4.61c4.67,0,4.67,0,5.06-4.15-1.54-2.07-3.32-3.51-3.72-5.27s.52-3.93.89-6.07c-.63.14-1.43.12-1.52.35C163.84,173,162.15,177.94,160.29,183.29Zm18.84-58.09a3.86,3.86,0,0,0-3.57,4,3.59,3.59,0,1,0,7.12-.34A3.56,3.56,0,0,0,179.13,125.2Z"/><path class="cls-4" d="M181.43,154l-6.06,13.87c-.9,2-1.81,4.1-2.7,6.17-.66,1.54-1.67,2.67-3.44,1.94-1.93-.8-2.07-2.52-1.37-4.22,1.59-3.84,3.29-7.64,5-11.44,1.52-3.42,3.23-6.76,4.53-10.26.5-1.34.08-3,.08-4.54l-.6-.29c-1.49,1.58-3,3.13-4.47,4.74-1.12,1.23-2.35,2.15-3.81.73s-.9-2.7.23-4c3.25-3.69,6.45-7.4,9.72-11.06,1.59-1.77,5.7-2,7.45-.31,2.88,2.77,6.09,5.36,8.24,8.63,1.17,1.78.52,4.81.43,7.27,0,.36-1.8,1.17-2.2.91a4.19,4.19,0,0,1-1.77-2.57c-.48-3.66-.81-4.44-3.71-6.37-1.81,3.9-.41,7.52.91,11.19,1.93,5.41,3.76,10.85,5.62,16.28.24.7.73,1.52.57,2.14-.33,1.22-.74,2.87-1.65,3.39-1.57.88-2.78-.23-3.35-1.9q-2.75-8-5.52-16.05c-.48-1.4-1-2.8-1.48-4.2Z"/><path class="cls-4" d="M217.93,183.28c-2.87,0-5.18,0-7.48,0a1.87,1.87,0,0,1-1.42-.69c-2.52-4.72-5-9.49-7.47-14.31,4.81-1.07,5.58-.77,8.06,2.88C212.27,175,214.94,178.91,217.93,183.28Z"/><path class="cls-4" d="M159.74,168.17c-2.55,4.91-5,9.68-7.54,14.41a1.88,1.88,0,0,1-1.43.67c-2.3.07-4.6,0-7.44,0,2-2.88,3.68-5.38,5.39-7.87a25.69,25.69,0,0,0,2.48-3.73C152.86,168,155.65,167.12,159.74,168.17Z"/><path class="cls-4" d="M177.54,183.08V168.44h6.13l1.38,14.64Z"/><path class="cls-4" d="M201.75,183.29h-5.42c-3.53,0-4.15-.57-4.2-4.07a1.65,1.65,0,0,1,.45-1.26c3.71-2.2,3-5.3,1.87-8.54-.13-.38-.24-.77-.38-1.25,1.71-.65,2.63-.32,3.18,1.49C198.61,174.09,200.15,178.47,201.75,183.29Z"/><path class="cls-4" d="M160.29,183.29c1.86-5.35,3.55-10.26,5.32-15.14.09-.23.89-.21,1.52-.35-.37,2.14-1.3,4.26-.89,6.07s2.18,3.2,3.72,5.27c-.39,4.16-.39,4.16-5.06,4.15Z"/><path class="cls-4" d="M179.13,125.2a3.56,3.56,0,0,1,3.55,3.69,3.59,3.59,0,1,1-7.12.34A3.86,3.86,0,0,1,179.13,125.2Z"/></g></svg>