<svg xmlns="http://www.w3.org/2000/svg" viewBox="0 0 360 360"><defs><style>.cls-1{fill:#fff;}.cls-2,.cls-3,.cls-4{fill:none;stroke:#fff;stroke-miterlimit:10;}.cls-2,.cls-4{stroke-linecap:round;}.cls-2{stroke-width:5px;}.cls-3,.cls-4{stroke-width:2.5px;}</style></defs><g id="BACKGROUND"><rect x="-1" width="360" height="360"/></g><g id="LINE_ONE" data-name="LINE ONE"><path class="cls-1" d="M73.92,234.16H77l2.32,3.76,1.08,1.75.84,1.37.8,1.29.64,1h.06v-9.2h2.84v14H82.5l-2.28-3.7-1.07-1.73c-.29-.46-.57-.92-.85-1.38L77.49,240,76.82,239h-.06v9.2H73.92Z"/><path class="cls-1" d="M90.9,248.16v-14h9.54v2.48H93.86v3.08H100v2.48H93.86v3.48h6.68v2.48Z"/><path class="cls-1" d="M104.12,234.16h11.1v2.5h-4v11.5h-3v-11.5h-4Z"/><path class="cls-1" d="M125.66,234.16h10.88v2.3l-7.34,9.2h7.28v2.5H125.42v-2.28l7.38-9.22h-7.14Z"/><path class="cls-1" d="M141.1,248.16v-14h9.54v2.48h-6.58v3.08h6.12v2.48h-6.12v3.48h6.68v2.48Z"/><path class="cls-1" d="M165.86,238.42a4.24,4.24,0,0,1-.71,2.54,4.31,4.31,0,0,1-2,1.46l3.22,5.74h-3.3l-2.9-5.3h-1.86v5.3h-3v-14h5.12a8.89,8.89,0,0,1,2.21.25,4.78,4.78,0,0,1,1.69.77,3.66,3.66,0,0,1,1.08,1.32A4.47,4.47,0,0,1,165.86,238.42Zm-3.08,0a1.51,1.51,0,0,0-.65-1.41,3.93,3.93,0,0,0-2-.39h-1.8v3.78h1.8a3.5,3.5,0,0,0,2-.45A1.74,1.74,0,0,0,162.78,238.44Z"/><path class="cls-1" d="M170.32,241.16a8.83,8.83,0,0,1,.49-3,6.35,6.35,0,0,1,1.38-2.29,5.82,5.82,0,0,1,2.15-1.44,8.09,8.09,0,0,1,5.6,0,5.9,5.9,0,0,1,2.15,1.44,6.64,6.64,0,0,1,1.38,2.29,9.74,9.74,0,0,1,0,6.1,6.64,6.64,0,0,1-1.38,2.29,5.9,5.9,0,0,1-2.15,1.44,8.09,8.09,0,0,1-5.6,0,5.82,5.82,0,0,1-2.15-1.44,6.35,6.35,0,0,1-1.38-2.29A8.83,8.83,0,0,1,170.32,241.16Zm3.1,0a7.45,7.45,0,0,0,.23,2,4.33,4.33,0,0,0,.69,1.52,3.06,3.06,0,0,0,1.16,1,3.64,3.64,0,0,0,1.64.35,3.7,3.7,0,0,0,1.64-.35,3.22,3.22,0,0,0,1.16-1,4.73,4.73,0,0,0,.69-1.52,8.38,8.38,0,0,0,0-3.9,4.73,4.73,0,0,0-.69-1.52,3.22,3.22,0,0,0-1.16-1,3.7,3.7,0,0,0-1.64-.35,3.64,3.64,0,0,0-1.64.35,3.06,3.06,0,0,0-1.16,1,4.33,4.33,0,0,0-.69,1.52A7.45,7.45,0,0,0,173.42,241.16Z"/><path class="cls-1" d="M195.36,248.16v-14h9.54v2.48h-6.58v3.08h6.12v2.48h-6.12v3.48H205v2.48Z"/><path class="cls-1" d="M209.64,234.16h3.12l2.32,3.76,1.08,1.75L217,241l.8,1.29.64,1h.06v-9.2h2.84v14h-3.12l-2.28-3.7-1.07-1.73c-.29-.46-.57-.92-.85-1.38l-.81-1.32-.67-1.07h-.06v9.2h-2.84Z"/><path class="cls-1" d="M226.62,248.16v-14h9.54v2.48h-6.58v3.08h6.12v2.48h-6.12v3.48h6.68v2.48Z"/><path class="cls-1" d="M251.38,238.42a4.24,4.24,0,0,1-.71,2.54,4.31,4.31,0,0,1-1.95,1.46l3.22,5.74h-3.3l-2.9-5.3h-1.86v5.3h-3v-14H246a8.89,8.89,0,0,1,2.21.25,4.78,4.78,0,0,1,1.69.77A3.66,3.66,0,0,1,251,236.5,4.47,4.47,0,0,1,251.38,238.42Zm-3.08,0a1.51,1.51,0,0,0-.65-1.41,3.93,3.93,0,0,0-2-.39h-1.8v3.78h1.8a3.5,3.5,0,0,0,2-.45A1.74,1.74,0,0,0,248.3,238.44Z"/><path class="cls-1" d="M262.14,240.4h6.44v7.76h-2.72v-1.44a3.69,3.69,0,0,1-1.36,1.22,4.83,4.83,0,0,1-2.34.5,6.29,6.29,0,0,1-2.75-.57,5.54,5.54,0,0,1-2-1.55,6.53,6.53,0,0,1-1.19-2.3,9.56,9.56,0,0,1-.4-2.82,8.71,8.71,0,0,1,.47-3,6.53,6.53,0,0,1,1.37-2.31,6.18,6.18,0,0,1,2.19-1.51,7.5,7.5,0,0,1,2.93-.54,6.74,6.74,0,0,1,3.62.93,5.74,5.74,0,0,1,2.26,2.75l-2.78,1.14a3.66,3.66,0,0,0-1.22-1.73,3.26,3.26,0,0,0-2-.61,3.33,3.33,0,0,0-2.72,1.25,5.72,5.72,0,0,0-1,3.69q0,4.68,3.7,4.68a4,4,0,0,0,1.08-.15,3.2,3.2,0,0,0,1-.46,2.51,2.51,0,0,0,.73-.79,2.34,2.34,0,0,0,.28-1.16v-.64h-3.58Z"/><path class="cls-1" d="M277,242.3l-5.3-8.14h3.44l3.42,5.36,3.4-5.36h3.34L280,242.3v5.86h-3Z"/></g><g id="ICON"><line class="cls-2" x1="133.18" y1="197.25" x2="246.31" y2="197.25"/><line class="cls-2" x1="155.57" y1="197.25" x2="155.57" y2="167.91"/><line class="cls-2" x1="141.26" y1="178.58" x2="169.88" y2="154.48"/><line class="cls-2" x1="189.75" y1="197.25" x2="189.75" y2="167.91"/><line class="cls-2" x1="175.44" y1="178.58" x2="204.05" y2="154.48"/><line class="cls-2" x1="222.86" y1="197.25" x2="222.86" y2="167.91"/><line class="cls-2" x1="208.55" y1="178.58" x2="237.17" y2="154.48"/><circle class="cls-3" cx="136.96" cy="114.55" r="10.55"/><line class="cls-4" x1="136.96" y1="100.71" x2="136.96" y2="91.28"/><line class="cls-4" x1="136.96" y1="137.82" x2="136.96" y2="128.39"/><line class="cls-4" x1="150.8" y1="114.55" x2="160.22" y2="114.55"/><line class="cls-4" x1="113.69" y1="114.55" x2="123.11" y2="114.55"/><line class="cls-4" x1="146.75" y1="104.76" x2="153.41" y2="98.1"/><line class="cls-4" x1="120.51" y1="131" x2="127.17" y2="124.34"/><line class="cls-4" x1="146.75" y1="124.34" x2="153.41" y2="131"/><line class="cls-4" x1="120.51" y1="98.1" x2="127.17" y2="104.76"/></g></svg>