<svg xmlns="http://www.w3.org/2000/svg" viewBox="0 0 360 360"><defs><style>.cls-1{fill:#f1f2f2;}.cls-2{fill:#0e6e39;}.cls-3{fill:#fff;}.cls-4{fill:#0c6e39;}</style></defs><g id="BACKGROUND"><rect class="cls-1" y="-0.34" width="360" height="360"/></g><g id="LINE_ONE" data-name="LINE ONE"><path class="cls-2" d="M87.31,234.16h11.1v2.5h-4v11.5h-3v-11.5h-4Z"/><path class="cls-2" d="M113.11,238.42a3.94,3.94,0,0,1-2.66,4l3.22,5.74h-3.3l-2.9-5.3h-1.86v5.3h-3v-14h5.12a8.84,8.84,0,0,1,2.21.25,4.53,4.53,0,0,1,1.69.77,3.32,3.32,0,0,1,1.08,1.32A4.33,4.33,0,0,1,113.11,238.42Zm-3.08,0a1.49,1.49,0,0,0-.65-1.41,3.91,3.91,0,0,0-2-.39h-1.8v3.78h1.8a3.48,3.48,0,0,0,2-.45A1.71,1.71,0,0,0,110,238.44Z"/><path class="cls-2" d="M130.31,248.16h-3.1l-1.12-3.24h-5L120,248.16H117l5-14h3.22Zm-6.76-10.72a4.69,4.69,0,0,1-.14.47l-.22.7q-.12.39-.27.84c-.1.3-.19.59-.29.87-.22.69-.47,1.43-.74,2.22h3.38c-.26-.79-.51-1.53-.74-2.22l-.35-1-.24-.75c-.07-.24-.14-.47-.21-.67l-.14-.47Z"/><path class="cls-2" d="M134.45,234.16h3.12l2.32,3.76c.44.7.8,1.29,1.08,1.75l.84,1.37.8,1.29c.26.4.47.75.64,1h.06v-9.2h2.84v14H143l-2.28-3.7c-.42-.7-.78-1.27-1.07-1.73l-.85-1.38L138,240c-.26-.42-.48-.78-.67-1.07h-.06v9.2h-2.84Z"/><path class="cls-2" d="M154.15,237.84a1.34,1.34,0,0,0,.78,1.29,9.48,9.48,0,0,0,2.48.67,7.86,7.86,0,0,1,3.67,1.38,3.48,3.48,0,0,1,1.17,2.86,3.92,3.92,0,0,1-.42,1.83,4.07,4.07,0,0,1-1.17,1.38,5.54,5.54,0,0,1-1.79.88,8.07,8.07,0,0,1-2.26.31,7.68,7.68,0,0,1-2.38-.35,6.36,6.36,0,0,1-1.8-.93,4.41,4.41,0,0,1-1.16-1.36,3.81,3.81,0,0,1-.46-1.62l3-.48a2.58,2.58,0,0,0,.79,1.67,2.84,2.84,0,0,0,2,.65,5.32,5.32,0,0,0,1-.1,2.43,2.43,0,0,0,.82-.33A1.75,1.75,0,0,0,159,245a1.54,1.54,0,0,0,.2-.82,1.35,1.35,0,0,0-.65-1.2,6.25,6.25,0,0,0-2.29-.68,18.1,18.1,0,0,1-2-.46,5.85,5.85,0,0,1-1.63-.77,3.6,3.6,0,0,1-1.08-1.22,3.79,3.79,0,0,1-.39-1.79,3.93,3.93,0,0,1,.4-1.84,3.72,3.72,0,0,1,1.12-1.31,4.84,4.84,0,0,1,1.7-.79,8.1,8.1,0,0,1,2.14-.26,7.66,7.66,0,0,1,2,.25,5.18,5.18,0,0,1,1.67.74,4.23,4.23,0,0,1,1.21,1.21,4.42,4.42,0,0,1,.66,1.64l-3,.66a2.4,2.4,0,0,0-.82-1.52,2.62,2.62,0,0,0-1.78-.56,2.78,2.78,0,0,0-1.69.42A1.35,1.35,0,0,0,154.15,237.84Z"/><path class="cls-2" d="M169.89,243.24v4.92h-3v-14h5.32a8.93,8.93,0,0,1,2.28.26,4.81,4.81,0,0,1,1.74.8,3.7,3.7,0,0,1,1.12,1.38,4.61,4.61,0,0,1,.4,2,4.87,4.87,0,0,1-.41,2.07,3.85,3.85,0,0,1-1.14,1.44,4.83,4.83,0,0,1-1.75.84,8.76,8.76,0,0,1-2.24.27Zm4.82-4.62a1.68,1.68,0,0,0-.69-1.56,4.11,4.11,0,0,0-2.09-.42h-2v4.12h2a3.6,3.6,0,0,0,2.09-.5A1.9,1.9,0,0,0,174.71,238.62Z"/><path class="cls-2" d="M193.23,248.16h-3.1L189,244.92h-5l-1.12,3.24h-2.94l5-14h3.22Zm-6.76-10.72a4.69,4.69,0,0,1-.14.47c-.07.2-.14.44-.22.7s-.17.54-.27.84-.2.59-.29.87c-.23.69-.47,1.43-.74,2.22h3.38c-.27-.79-.51-1.53-.74-2.22-.15-.4-.26-.73-.35-1s-.17-.51-.24-.75-.14-.47-.21-.67-.11-.37-.14-.47Z"/><path class="cls-2" d="M207.85,238.42a3.94,3.94,0,0,1-2.66,4l3.22,5.74h-3.3l-2.9-5.3h-1.86v5.3h-3v-14h5.12a8.89,8.89,0,0,1,2.21.25,4.61,4.61,0,0,1,1.69.77,3.32,3.32,0,0,1,1.08,1.32A4.47,4.47,0,0,1,207.85,238.42Zm-3.08,0a1.51,1.51,0,0,0-.65-1.41,3.91,3.91,0,0,0-2-.39h-1.8v3.78h1.8a3.48,3.48,0,0,0,2-.45A1.74,1.74,0,0,0,204.77,238.44Z"/><path class="cls-2" d="M212.89,248.16v-14h9.54v2.48h-6.58v3.08H222v2.48h-6.12v3.48h6.68v2.48Z"/><path class="cls-2" d="M227.17,234.16h3.12l2.32,3.76c.44.7.8,1.29,1.08,1.75l.84,1.37.8,1.29.64,1H236v-9.2h2.84v14h-3.12l-2.28-3.7-1.07-1.73c-.29-.46-.57-.92-.85-1.38l-.81-1.32c-.26-.42-.48-.78-.67-1.07H230v9.2h-2.84Z"/><path class="cls-2" d="M243.57,241.16a9.12,9.12,0,0,1,.48-3.07,6.39,6.39,0,0,1,1.37-2.29,5.72,5.72,0,0,1,2.16-1.43,7.82,7.82,0,0,1,2.85-.49,6.75,6.75,0,0,1,3.76,1,5.32,5.32,0,0,1,2.16,3l-2.92,1a3.92,3.92,0,0,0-1.08-1.83,2.82,2.82,0,0,0-2-.65,3.51,3.51,0,0,0-1.62.36,3.26,3.26,0,0,0-1.16,1,4.28,4.28,0,0,0-.69,1.51,8.09,8.09,0,0,0,0,3.83,4.45,4.45,0,0,0,.69,1.51,3.29,3.29,0,0,0,1.16,1,3.54,3.54,0,0,0,1.64.36,3,3,0,0,0,1.89-.58,3.57,3.57,0,0,0,1.11-1.76l2.88,1a6.07,6.07,0,0,1-2.16,2.8,6.42,6.42,0,0,1-3.76,1,7.74,7.74,0,0,1-2.79-.49,5.94,5.94,0,0,1-2.14-1.42,6.39,6.39,0,0,1-1.37-2.29A9.26,9.26,0,0,1,243.57,241.16Z"/><path class="cls-2" d="M264.59,242.3l-5.3-8.14h3.44l3.42,5.36,3.4-5.36h3.34l-5.3,8.14v5.86h-3Z"/></g><g id="ICON"><path class="cls-2" d="M98.92,144.18c0-25.75,18.76-48.29,44-52.91a53.25,53.25,0,0,1,36.32,5.9,1.81,1.81,0,0,0,2.05,0,53,53,0,0,1,29-6.75A54,54,0,0,1,218,197.2a52.46,52.46,0,0,1-36.37-5.58,2.49,2.49,0,0,0-2.79,0c-31.12,17.27-70.79-.58-78.46-35.33-.87-3.95-1.17-8-1.74-12.05Zm85.41,44.11a49.68,49.68,0,1,0,0-88c14.46,11.08,22.48,25.59,22.51,43.91S198.86,177.14,184.33,188.29Zm16.92-55.91H159.08c-.32,1.68-.65,3.34-1,5.1h44.15C201.9,135.73,201.58,134.07,201.25,132.38Zm.95,18.92h-44c.25,1.36.51,2.64.71,3.94.14.93.52,1.29,1.55,1.28,6.48-.06,13,0,19.43,0,6.75,0,13.51,0,20.26,0,.77,0,1.16-.16,1.29-1C201.59,154.13,201.91,152.78,202.2,151.3Zm-44.46-4.38h44.83v-5H157.74Zm2.68,13.85c.68,1.61,1.25,3.06,1.92,4.45a1.44,1.44,0,0,0,1.06.65q16.77,0,33.54,0c.31,0,.8-.14.91-.36.71-1.52,1.34-3.09,2.05-4.75ZM160.35,128H200c-.69-1.63-1.29-3.14-2-4.61a1.25,1.25,0,0,0-1-.44q-16.89,0-33.77,0c-.31,0-.79.14-.89.36C161.68,124.8,161.05,126.33,160.35,128Zm35.21-9.41c-1.24-1.74-2.31-3.3-3.46-4.82a1.48,1.48,0,0,0-1-.35q-10.91,0-21.8,0c-.33,0-.81.06-1,.28-1.17,1.54-2.27,3.14-3.51,4.89Zm-30.65,51.65c1.2,1.68,2.2,3.16,3.3,4.57a1.9,1.9,0,0,0,1.31.56q10.65,0,21.31,0c.34,0,.83,0,1-.23,1.19-1.55,2.32-3.16,3.59-4.91Zm7.45-61.47.2.34h15.21l.19-.33c-2.44-1.91-4.88-3.83-7.34-5.71a.86.86,0,0,0-.82-.06C177.3,104.9,174.83,106.83,172.36,108.76Zm.4,70.9c0,.14,0,.25,0,.28,2.28,1.86,4.54,3.74,6.87,5.55a1.37,1.37,0,0,0,1.21-.14c1.67-1.23,3.29-2.51,4.9-3.81.66-.53,1.24-1.14,2.05-1.88Z"/><path class="cls-3" d="M184.33,188.29c14.53-11.15,22.56-25.7,22.53-44.08s-8.05-32.83-22.51-43.91a49.68,49.68,0,1,1,0,88Z"/><path class="cls-3" d="M201.25,132.38c.33,1.69.65,3.35,1,5.1H158.09c.34-1.76.67-3.42,1-5.1Z"/><path class="cls-3" d="M202.2,151.3c-.29,1.48-.61,2.83-.81,4.21-.13.83-.52,1-1.29,1-6.75,0-13.51,0-20.26,0-6.48,0-13,0-19.43,0-1,0-1.41-.35-1.55-1.28-.2-1.3-.46-2.58-.71-3.94Z"/><path class="cls-3" d="M157.74,146.92v-5h44.83v5Z"/><path class="cls-3" d="M160.42,160.77H199.9c-.71,1.66-1.34,3.23-2.05,4.75-.11.22-.6.36-.91.36q-16.77,0-33.54,0a1.44,1.44,0,0,1-1.06-.65C161.67,163.83,161.1,162.38,160.42,160.77Z"/><path class="cls-3" d="M160.35,128c.7-1.66,1.33-3.19,2-4.69.1-.22.58-.36.89-.36q16.89,0,33.77,0a1.25,1.25,0,0,1,1,.44c.69,1.47,1.29,3,2,4.61Z"/><path class="cls-3" d="M195.56,118.58H164.77c1.24-1.75,2.34-3.35,3.51-4.89.16-.22.64-.28,1-.28q10.91,0,21.8,0a1.48,1.48,0,0,1,1,.35C193.25,115.28,194.32,116.84,195.56,118.58Z"/><path class="cls-3" d="M164.91,170.23h30.51c-1.27,1.75-2.4,3.36-3.59,4.91-.17.21-.66.23-1,.23q-10.67,0-21.31,0a1.9,1.9,0,0,1-1.31-.56C167.11,173.39,166.11,171.91,164.91,170.23Z"/><path class="cls-3" d="M172.36,108.76c2.47-1.93,4.94-3.86,7.44-5.76a.86.86,0,0,1,.82.06c2.46,1.88,4.9,3.8,7.34,5.71l-.19.33H172.56Z"/><path class="cls-3" d="M172.76,179.66h15.07c-.81.74-1.39,1.35-2.05,1.88-1.61,1.3-3.23,2.58-4.9,3.81a1.37,1.37,0,0,1-1.21.14c-2.33-1.81-4.59-3.69-6.87-5.55C172.76,179.91,172.78,179.8,172.76,179.66Z"/><rect class="cls-4" y="336.06" width="360" height="23.94"/><path class="cls-3" d="M250.45,352.49v-8.4h5.72v1.49h-4v1.84h3.68v1.49h-3.68V351h4v1.49Z"/><path class="cls-3" d="M259,344.09h1.87l1.39,2.25.65,1.05.5.83.48.77.39.62h0v-5.52H266v8.4h-1.88l-1.36-2.22-.65-1-.51-.83-.48-.79-.4-.64h0v5.52H259Z"/><path class="cls-3" d="M270.44,344.09q.45,1.26.84,2.43l.4,1.16c.1.31.2.62.31.94l.3.92.25.79h0c.08-.23.16-.5.26-.8s.19-.62.3-.95l.34-1,.35-1,.84-2.43h1.85l-3.1,8.4h-1.83l-3.06-8.4Z"/><path class="cls-3" d="M279,344.09h1.8v8.4H279Z"/><path class="cls-3" d="M290.23,346.64a2.36,2.36,0,0,1-1.6,2.4l1.93,3.45h-2l-1.74-3.18h-1.11v3.18h-1.79v-8.4H287a5.47,5.47,0,0,1,1.33.15,2.84,2.84,0,0,1,1,.46,2.08,2.08,0,0,1,.65.79A2.71,2.71,0,0,1,290.23,346.64Zm-1.85,0a.91.91,0,0,0-.39-.85,2.3,2.3,0,0,0-1.18-.23h-1.08v2.26h1.08a2.08,2.08,0,0,0,1.18-.27A1,1,0,0,0,288.38,346.66Z"/><path class="cls-3" d="M292.9,348.29a5.24,5.24,0,0,1,.3-1.83,3.83,3.83,0,0,1,.83-1.38,3.52,3.52,0,0,1,1.29-.86,4.49,4.49,0,0,1,1.68-.3,4.56,4.56,0,0,1,1.68.3,3.7,3.7,0,0,1,1.29.86,4,4,0,0,1,.82,1.38,5.73,5.73,0,0,1,0,3.66,3.82,3.82,0,0,1-.82,1.37,3.59,3.59,0,0,1-1.29.87,4.56,4.56,0,0,1-1.68.3,4.49,4.49,0,0,1-1.68-.3,3.42,3.42,0,0,1-1.29-.87,3.7,3.7,0,0,1-.83-1.37A5.24,5.24,0,0,1,292.9,348.29Zm1.86,0a4.81,4.81,0,0,0,.14,1.17,2.54,2.54,0,0,0,.42.91,1.88,1.88,0,0,0,.69.59,2.42,2.42,0,0,0,2,0,2,2,0,0,0,.7-.59,2.72,2.72,0,0,0,.41-.91,4.81,4.81,0,0,0,.14-1.17,4.69,4.69,0,0,0-.14-1.17,2.63,2.63,0,0,0-.41-.91,1.89,1.89,0,0,0-.7-.59,2.42,2.42,0,0,0-2,0,1.79,1.79,0,0,0-.69.59,2.47,2.47,0,0,0-.42.91A4.69,4.69,0,0,0,294.76,348.29Z"/><path class="cls-3" d="M303.91,344.09h1.87l1.39,2.25.65,1.05c.17.28.34.55.5.83l.48.77c.16.24.28.45.39.62h0v-5.52h1.71v8.4h-1.87l-1.37-2.22-.64-1c-.18-.28-.35-.55-.51-.83l-.49-.79-.4-.64h0v5.52h-1.7Z"/><path class="cls-3" d="M317.79,352.49q-.18-.5-.45-1.29c-.18-.53-.36-1.09-.56-1.66l-.55-1.7c-.18-.55-.33-1-.44-1.39h0v6H314.1v-8.4h2.52q.51,1.53.93,2.82l.42,1.24c.1.32.2.62.3.91l.25.78c.07.23.13.4.16.5,0-.1.08-.27.16-.5s.15-.51.25-.83l.33-1c.11-.36.23-.72.35-1.08q.41-1.29.9-2.82h2.51v8.4h-1.66v-6h0l-.29.9c-.11.34-.23.71-.37,1.11s-.26.79-.4,1.19l-.38,1.15-.33,1c-.1.3-.18.53-.25.7Z"/><path class="cls-3" d="M326.35,352.49v-8.4h5.72v1.49h-3.95v1.84h3.67v1.49h-3.67V351h4v1.49Z"/><path class="cls-3" d="M334.92,344.09h1.87l1.39,2.25.65,1.05.5.83.48.77.39.62h0v-5.52h1.71v8.4h-1.88l-1.36-2.22-.65-1-.51-.83-.48-.79-.4-.64h0v5.52h-1.7Z"/><path class="cls-3" d="M344.47,344.09h6.66v1.5H348.7v6.9h-1.81v-6.9h-2.42Z"/></g></svg>