<svg xmlns="http://www.w3.org/2000/svg" viewBox="0 0 360 360"><defs><style>.cls-1{fill:#f1f2f2;}.cls-2{fill:#d2bf2d;}.cls-3{fill:#fff;}</style></defs><g id="BACKGROUND"><rect class="cls-1" width="360" height="360"/></g><g id="LINE_ONE" data-name="LINE ONE"><path class="cls-2" d="M108.27,241.16a9.12,9.12,0,0,1,.48-3.07,6.25,6.25,0,0,1,1.37-2.29,5.64,5.64,0,0,1,2.16-1.43,7.74,7.74,0,0,1,2.85-.49,6.77,6.77,0,0,1,3.76,1,5.32,5.32,0,0,1,2.16,3l-2.92,1a3.92,3.92,0,0,0-1.08-1.83,2.82,2.82,0,0,0-2-.65,3.46,3.46,0,0,0-1.62.36,3.18,3.18,0,0,0-1.16,1,4.28,4.28,0,0,0-.69,1.51,8.09,8.09,0,0,0,0,3.83,4.45,4.45,0,0,0,.69,1.51,3.21,3.21,0,0,0,1.16,1,3.51,3.51,0,0,0,1.64.36,3,3,0,0,0,1.89-.58,3.72,3.72,0,0,0,1.11-1.76l2.88,1a6.07,6.07,0,0,1-2.16,2.8,6.44,6.44,0,0,1-3.76,1,7.7,7.7,0,0,1-2.79-.49,5.86,5.86,0,0,1-2.14-1.42,6.25,6.25,0,0,1-1.37-2.29A9.26,9.26,0,0,1,108.27,241.16Z"/><path class="cls-2" d="M124.87,241.16a8.79,8.79,0,0,1,.49-3,6.27,6.27,0,0,1,1.38-2.29,5.82,5.82,0,0,1,2.15-1.44,8.09,8.09,0,0,1,5.6,0,5.9,5.9,0,0,1,2.15,1.44,6.55,6.55,0,0,1,1.38,2.29,9.74,9.74,0,0,1,0,6.1,6.64,6.64,0,0,1-1.38,2.29,6.16,6.16,0,0,1-2.15,1.44,8.09,8.09,0,0,1-5.6,0,6.07,6.07,0,0,1-2.15-1.44,6.35,6.35,0,0,1-1.38-2.29A8.83,8.83,0,0,1,124.87,241.16Zm3.1,0a7.56,7.56,0,0,0,.23,2,4.33,4.33,0,0,0,.69,1.52,3.16,3.16,0,0,0,1.16,1,3.64,3.64,0,0,0,1.64.35,3.7,3.7,0,0,0,1.64-.35,3.32,3.32,0,0,0,1.16-1,4.73,4.73,0,0,0,.69-1.52,8,8,0,0,0,.23-2,7.9,7.9,0,0,0-.23-1.95,4.63,4.63,0,0,0-.69-1.52,3.22,3.22,0,0,0-1.16-1,3.57,3.57,0,0,0-1.64-.35,3.51,3.51,0,0,0-1.64.35,3.06,3.06,0,0,0-1.16,1,4.25,4.25,0,0,0-.69,1.52A7.45,7.45,0,0,0,128,241.16Z"/><path class="cls-2" d="M149.37,248.16c-.2-.55-.45-1.27-.75-2.15l-.93-2.77q-.48-1.44-.93-2.82c-.3-.92-.55-1.7-.73-2.32H146v10.06h-2.76v-14h4.2q.85,2.55,1.56,4.7.42,1.27.69,2.07c.18.52.34,1,.5,1.51s.29.91.42,1.3l.27.84c.05-.18.14-.46.26-.84s.26-.85.43-1.37.34-1.1.54-1.7.39-1.21.59-1.81q.68-2.15,1.5-4.7h4.18v14h-2.76V238.1h-.06c-.14.41-.3.91-.48,1.49l-.61,1.85c-.22.65-.45,1.31-.67,2s-.44,1.31-.64,1.92-.39,1.15-.55,1.65l-.41,1.16Z"/><path class="cls-2" d="M169.79,248.16c-.2-.55-.45-1.27-.75-2.15l-.93-2.77q-.48-1.44-.93-2.82c-.3-.92-.55-1.7-.73-2.32h-.06v10.06h-2.76v-14h4.2q.85,2.55,1.56,4.7.42,1.27.69,2.07c.18.52.34,1,.5,1.51s.29.91.42,1.3l.27.84c0-.18.14-.46.26-.84s.26-.85.43-1.37.34-1.1.54-1.7.39-1.21.59-1.81q.67-2.15,1.5-4.7h4.18v14H176V238.1H176c-.14.41-.3.91-.48,1.49l-.61,1.85c-.22.65-.45,1.31-.67,2s-.44,1.31-.64,1.92-.39,1.15-.55,1.65l-.41,1.16Z"/><path class="cls-2" d="M189.57,248.44a5.56,5.56,0,0,1-4.26-1.44,5.63,5.63,0,0,1-1.34-4v-8.84h3V243a3.35,3.35,0,0,0,.64,2.11,2.73,2.73,0,0,0,3.92,0,3.42,3.42,0,0,0,.64-2.11v-8.86h3V243a5.67,5.67,0,0,1-1.34,4A5.59,5.59,0,0,1,189.57,248.44Z"/><path class="cls-2" d="M200.37,234.16h3.12l2.32,3.76c.44.7.8,1.29,1.08,1.75l.84,1.37.8,1.29.64,1h.06v-9.2h2.84v14H209l-2.28-3.7-1.07-1.73c-.29-.46-.57-.92-.85-1.38l-.81-1.32-.67-1.07h-.06v9.2h-2.84Z"/><path class="cls-2" d="M217.35,234.16h3v14h-3Z"/><path class="cls-2" d="M224.57,234.16h11.1v2.5h-4v11.5h-3v-11.5h-4Z"/><path class="cls-2" d="M244.13,242.3l-5.3-8.14h3.44l3.42,5.36,3.4-5.36h3.34l-5.3,8.14v5.86h-3Z"/></g><g id="LINE_TWO" data-name="LINE TWO"><path class="cls-2" d="M96.73,261v4.92h-3v-14h5.32a9.4,9.4,0,0,1,2.28.26,5,5,0,0,1,1.74.8,3.7,3.7,0,0,1,1.12,1.38,4.79,4.79,0,0,1,.4,2,4.87,4.87,0,0,1-.41,2.07,4.05,4.05,0,0,1-1.14,1.44,4.83,4.83,0,0,1-1.75.84,8.76,8.76,0,0,1-2.24.27Zm4.82-4.62a1.68,1.68,0,0,0-.69-1.56,4.11,4.11,0,0,0-2.09-.42h-2v4.12h2a3.52,3.52,0,0,0,2.09-.5A1.88,1.88,0,0,0,101.55,256.4Z"/><path class="cls-2" d="M120.07,265.94H117l-1.12-3.24h-5l-1.12,3.24h-2.94l5-14H115Zm-6.76-10.72-.14.47c-.07.21-.14.44-.22.7s-.17.54-.27.84-.2.59-.29.87l-.74,2.22H115c-.27-.78-.52-1.52-.74-2.22-.15-.4-.27-.73-.35-1s-.17-.51-.24-.75-.15-.46-.21-.67a3.53,3.53,0,0,1-.14-.47Z"/><path class="cls-2" d="M134.69,256.2a3.94,3.94,0,0,1-2.66,4l3.22,5.74H132l-2.9-5.3h-1.86v5.3h-3v-14h5.12a9.39,9.39,0,0,1,2.21.25,5,5,0,0,1,1.69.77,3.66,3.66,0,0,1,1.08,1.32A4.53,4.53,0,0,1,134.69,256.2Zm-3.08,0a1.51,1.51,0,0,0-.65-1.41,3.93,3.93,0,0,0-2-.39h-1.8v3.78H129a3.5,3.5,0,0,0,2-.45A1.74,1.74,0,0,0,131.61,256.22Z"/><path class="cls-2" d="M138.37,251.94h11.1v2.5h-4v11.5h-3v-11.5h-4Z"/><path class="cls-2" d="M153.69,251.94h3.12c.81,1.32,1.58,2.58,2.32,3.76l1.08,1.75.84,1.37c.28.46.54.89.8,1.29l.64,1h.06v-9.2h2.84v14h-3.12c-.8-1.29-1.56-2.52-2.28-3.7l-1.07-1.73c-.29-.46-.57-.92-.85-1.38l-.81-1.32c-.26-.42-.49-.77-.67-1.07h-.06v9.2h-2.84Z"/><path class="cls-2" d="M170.67,265.94v-14h9.54v2.48h-6.59v3.08h6.13V260h-6.13v3.48h6.69v2.48Z"/><path class="cls-2" d="M195.43,256.2a3.94,3.94,0,0,1-2.66,4l3.22,5.74h-3.3l-2.9-5.3h-1.86v5.3h-3v-14h5.12a9.39,9.39,0,0,1,2.21.25A5,5,0,0,1,194,253a3.66,3.66,0,0,1,1.08,1.32A4.53,4.53,0,0,1,195.43,256.2Zm-3.08,0a1.51,1.51,0,0,0-.65-1.41,3.93,3.93,0,0,0-2-.39h-1.8v3.78h1.8a3.5,3.5,0,0,0,2-.45A1.74,1.74,0,0,0,192.35,256.22Z"/><path class="cls-2" d="M203.19,255.62a1.34,1.34,0,0,0,.78,1.29,9,9,0,0,0,2.48.67,8,8,0,0,1,3.67,1.38,3.49,3.49,0,0,1,1.17,2.86,3.92,3.92,0,0,1-.42,1.83A4.19,4.19,0,0,1,209.7,265a5.44,5.44,0,0,1-1.79.88,7.81,7.81,0,0,1-2.26.31,7.35,7.35,0,0,1-2.38-.35,5.66,5.66,0,0,1-1.8-.93,4.05,4.05,0,0,1-1.16-1.36,3.67,3.67,0,0,1-.46-1.62l3-.48a2.52,2.52,0,0,0,.79,1.67,2.8,2.8,0,0,0,2,.65,4.68,4.68,0,0,0,1-.1,2.21,2.21,0,0,0,.82-.33,1.76,1.76,0,0,0,.55-.57,1.61,1.61,0,0,0,.2-.82,1.35,1.35,0,0,0-.65-1.2,6.59,6.59,0,0,0-2.29-.68,15.39,15.39,0,0,1-2-.46,5.23,5.23,0,0,1-1.63-.77,3.33,3.33,0,0,1-1.08-1.22,3.73,3.73,0,0,1-.39-1.79,4.09,4.09,0,0,1,.39-1.84,3.84,3.84,0,0,1,1.13-1.31,5.13,5.13,0,0,1,1.7-.79,8.42,8.42,0,0,1,2.14-.26,8.16,8.16,0,0,1,2,.25,5.89,5.89,0,0,1,1.67.74,4.64,4.64,0,0,1,1.21,1.21,4.49,4.49,0,0,1,.66,1.64l-3,.66a2.48,2.48,0,0,0-.82-1.52,2.69,2.69,0,0,0-1.78-.56,2.76,2.76,0,0,0-1.69.42A1.34,1.34,0,0,0,203.19,255.62Z"/><path class="cls-2" d="M216,251.94h3v5.54h5.3v-5.54h3v14h-3V260H219v5.94h-3Z"/><path class="cls-2" d="M232.53,251.94h3v14h-3Z"/><path class="cls-2" d="M243.79,261v4.92h-3v-14h5.31a9.49,9.49,0,0,1,2.29.26,5.07,5.07,0,0,1,1.74.8,3.79,3.79,0,0,1,1.12,1.38,4.79,4.79,0,0,1,.4,2,4.72,4.72,0,0,1-.42,2.07,3.92,3.92,0,0,1-1.13,1.44,4.91,4.91,0,0,1-1.75.84,8.78,8.78,0,0,1-2.25.27Zm4.82-4.62a1.7,1.7,0,0,0-.69-1.56,4.11,4.11,0,0,0-2.09-.42h-2v4.12h2a3.52,3.52,0,0,0,2.09-.5A1.91,1.91,0,0,0,248.61,256.4Z"/><path class="cls-2" d="M258.79,255.62a1.32,1.32,0,0,0,.78,1.29,8.9,8.9,0,0,0,2.47.67,7.86,7.86,0,0,1,3.67,1.38,3.46,3.46,0,0,1,1.17,2.86,3.8,3.8,0,0,1-.42,1.83,4.07,4.07,0,0,1-1.17,1.38,5.35,5.35,0,0,1-1.79.88,7.7,7.7,0,0,1-2.25.31,7.35,7.35,0,0,1-2.38-.35,5.66,5.66,0,0,1-1.8-.93,4.05,4.05,0,0,1-1.16-1.36,3.54,3.54,0,0,1-.46-1.62l3-.48a2.52,2.52,0,0,0,.79,1.67,2.8,2.8,0,0,0,2,.65,4.52,4.52,0,0,0,1-.1,2.19,2.19,0,0,0,.83-.33,1.63,1.63,0,0,0,.54-.57,1.51,1.51,0,0,0,.21-.82,1.34,1.34,0,0,0-.66-1.2,6.45,6.45,0,0,0-2.29-.68,16.15,16.15,0,0,1-2-.46,5.34,5.34,0,0,1-1.63-.77,3.42,3.42,0,0,1-1.08-1.22,3.73,3.73,0,0,1-.38-1.79,4.09,4.09,0,0,1,.39-1.84,3.92,3.92,0,0,1,1.12-1.31,5.32,5.32,0,0,1,1.7-.79,8.56,8.56,0,0,1,2.15-.26,8,8,0,0,1,2,.25,5.65,5.65,0,0,1,1.67.74,4.36,4.36,0,0,1,1.21,1.21,4.51,4.51,0,0,1,.67,1.64l-3.05.66a2.38,2.38,0,0,0-.82-1.52,2.64,2.64,0,0,0-1.77-.56,2.8,2.8,0,0,0-1.7.42A1.36,1.36,0,0,0,258.79,255.62Z"/></g><g id="ICON"><path class="cls-2" d="M143.55,186.28c-7,3.71-15.69-.59-15.83-9.58-7.24-1.35-10.69-8.42-7.57-15.09l-8.42-3.93c-.45,1-.84,2-1.27,2.93-1,2.25-2.59,2.92-4.9,2q-11.16-4.26-22.31-8.56c-.71-.27-1.43-.53-2.12-.83a3.34,3.34,0,0,1-2-4.69q3.09-8.16,6.24-16.29L100,94.2c.15-.38.28-.76.43-1.13,1-2.54,2.52-3.27,5.09-2.37q11.19,4,22.37,8c1.14.4,2.28.8,3.41,1.23a3.31,3.31,0,0,1,2,4.57c-.4,1.08-.86,2.14-1.36,3.37,5.71.8,11.2,2.16,16.86-.07,7.7-3,15.53-5.73,23.32-8.54a14.5,14.5,0,0,1,10.87.32c2.28.94,4.56,1.86,6.86,2.74a2.32,2.32,0,0,0,1.38,0,22,22,0,0,1,13.48.06c5.89,1.83,11.79,3.67,17.74,5.28,4.36,1.18,8.6.11,12.91-1.34-.26-1.06-.52-2.09-.78-3.11A3.3,3.3,0,0,1,237,99q12.17-3.33,24.36-6.55c2-.53,3.65.61,4.22,2.73q3,11,5.93,22,4.75,17.7,9.52,35.39c.68,2.53-.2,4.1-2.71,4.77q-11.6,3.1-23.21,6.16c-2.58.68-4.15-.25-4.84-2.81-.14-.51-.3-1-.5-1.67a22.09,22.09,0,0,1-11.17,1c-.78,7.11-4.66,11-11.73,11.77a29.2,29.2,0,0,1-.84,2.88,9.5,9.5,0,0,1-7.4,6.14c-.85.16-1.37.37-1.57,1.4a9.45,9.45,0,0,1-13.4,6.94l-.62-.27a23.6,23.6,0,0,1-1.39,2.5A8.13,8.13,0,0,1,191.43,194q-6.08-2.7-12.08-5.53c-.87-.41-1.32-.3-1.84.5-1.08,1.65-2.24,3.24-3.39,4.84-5,7-15,6.11-18.62-1.69-.28-.6-.51-.93-1.26-.84a10.3,10.3,0,0,1-10.46-4.86C143.74,186.35,143.63,186.32,143.55,186.28Zm38.71-3.93,3,1.4c3,1.37,6,2.73,9,4.11.85.4,1.64.19,1.88-.62a2.56,2.56,0,0,0-.55-1.81c-.28-.39-.9-.56-1.37-.81-2.48-1.34-5-2.64-7.44-4a3.27,3.27,0,0,1-1.38-4.5,3.33,3.33,0,0,1,4.37-1.5c.53.22,1,.53,1.55.79,4.9,2.5,9.8,5,14.72,7.49,1.71.86,3.3.41,4-1.05s.22-2.86-1.38-3.83c-.23-.14-.46-.26-.7-.39L183.7,163.39c-1.94-1.14-2.55-3.09-1.54-4.79s3-2.18,5-1l4.88,2.84q11.41,6.66,22.85,13.32a3.2,3.2,0,0,0,4.57-1c1-1.59.47-3.29-1.35-4.43q-6.15-3.84-12.32-7.66c-4.18-2.59-8.39-5.14-12.57-7.75a3.3,3.3,0,0,1-1.41-4.09,3.27,3.27,0,0,1,3.79-2.07,7.5,7.5,0,0,1,2,1q4.19,2.53,8.35,5.13,8.79,5.44,17.55,10.93a5.42,5.42,0,0,0,4.16,1.09,4.71,4.71,0,0,0,3.84-4c.38-2.3-.68-3.93-2.57-5.18q-15.24-10.06-30.45-20.19a9.84,9.84,0,0,0-11.68-.07c-4,2.61-8,5.24-12.11,7.73a10.47,10.47,0,0,1-12.43-16.76q8.34-7.69,16.72-15.36l4.23-3.92c-3.77-2.24-6.18-2.48-10.08-1.06q-11.41,4.14-22.82,8.31a22,22,0,0,1-9.49,1.42c-3.38-.29-6.75-.83-10.11-1.33a1.57,1.57,0,0,0-2.06,1.16c-3.84,9.69-7.77,19.35-11.67,29-.9,2.22-1.77,4.45-2.64,6.66a3.28,3.28,0,0,0,.47.33c2.67,1.26,5.37,2.47,8,3.8,1,.52,1.51.33,2.15-.6a9.94,9.94,0,0,1,10.85-4,10.9,10.9,0,0,1,5.69,3.85c2.6-4.19,6.2-6.47,11.07-5.7s7.73,4,8.76,8.8a10.86,10.86,0,0,1,7.26,2.59,11,11,0,0,1,3.52,6.68C179,167,185.44,173.54,182.26,182.35Zm55-69.42c-.78.21-1.46.37-2.13.58a28.45,28.45,0,0,1-17.69-.12q-7.65-2.49-15.4-4.71a13.54,13.54,0,0,0-13.45,2.87c-7.31,6.53-14.49,13.23-21.67,19.9a4.64,4.64,0,0,0-1.24,2.29,3.29,3.29,0,0,0,1.53,3.6,3.7,3.7,0,0,0,4.29-.07c4.08-2.61,8.11-5.29,12.23-7.81,6-3.68,12.16-3.64,18.12.14,5.18,3.28,10.23,6.77,15.34,10.16,6,4,11.9,8,17.94,11.83,4,2.56,8.32,2.68,12.85.84C244.39,139.28,240.83,126.18,237.24,112.93ZM105.43,155.37c6.76-16.78,13.5-33.47,20.28-50.29L105.81,98C99.37,114.72,93,131.38,86.52,148.1Zm168.31-3.76c-4.67-17.3-9.28-34.43-13.94-51.7L242,104.68c4.69,17.26,9.33,34.37,14,51.62ZM138.9,180.86a6.22,6.22,0,0,0,2.14-1.43c4.39-6,8.69-12.13,13-18.26a3.45,3.45,0,0,0-.91-5,3.53,3.53,0,0,0-5,.93c-.68.89-1.31,1.82-2,2.73l-10.76,15.22a3.45,3.45,0,0,0-.3,3.9C135.78,180.23,136.88,180.84,138.9,180.86Zm26.65-12.67a3.92,3.92,0,0,0-2.71-3.48,3.5,3.5,0,0,0-4.08,1.55c-2.94,4.1-5.85,8.23-8.76,12.35-1.36,1.93-1.12,4.11.56,5.34s3.85.81,5.24-1.12c2.94-4.11,5.86-8.22,8.74-12.37A12.54,12.54,0,0,0,165.55,168.19ZM165.44,192c.9-.52,2.07-.83,2.65-1.59q4-5.3,7.7-10.81a3.83,3.83,0,0,0-6.23-4.41c-2.64,3.55-5.25,7.13-7.64,10.86C160.32,188.58,162.36,191.82,165.44,192Zm-36.3-21.91c.79-.44,1.82-.69,2.34-1.35,1.66-2.1,3.2-4.31,4.66-6.56a3.28,3.28,0,0,0-5.4-3.71c-1.57,2.06-3.1,4.17-4.49,6.36A3.49,3.49,0,0,0,129.14,170.12Z"/><rect class="cls-2" y="336.06" width="360" height="23.94"/><path class="cls-3" d="M235.07,348.29a5.51,5.51,0,0,1,.29-1.84,4,4,0,0,1,.82-1.38,3.65,3.65,0,0,1,1.3-.86,4.87,4.87,0,0,1,1.71-.29,4.11,4.11,0,0,1,2.26.59,3.19,3.19,0,0,1,1.29,1.79l-1.75.61a2.34,2.34,0,0,0-.65-1.1,1.71,1.71,0,0,0-1.19-.39,2,2,0,0,0-1,.22,1.88,1.88,0,0,0-.69.59,2.47,2.47,0,0,0-.42.91,4.59,4.59,0,0,0-.14,1.15,4.51,4.51,0,0,0,.14,1.14,2.63,2.63,0,0,0,.42.91,1.81,1.81,0,0,0,.69.6,2.19,2.19,0,0,0,1,.22,1.77,1.77,0,0,0,1.13-.35,2.23,2.23,0,0,0,.67-1.06l1.72.61A3.53,3.53,0,0,1,241.4,352a3.87,3.87,0,0,1-2.26.62,4.47,4.47,0,0,1-1.67-.3,3.54,3.54,0,0,1-1.29-.85,3.82,3.82,0,0,1-.82-1.37A5.61,5.61,0,0,1,235.07,348.29Z"/><path class="cls-3" d="M252.68,352.49h-1.86l-.67-1.95h-3l-.67,1.95H244.7l3-8.4h1.93Zm-4.06-6.43a2.83,2.83,0,0,1-.08.28c0,.12-.09.26-.13.42l-.17.5c-.06.18-.11.36-.17.52l-.44,1.34h2l-.44-1.34c-.09-.24-.16-.43-.21-.59s-.1-.31-.14-.45-.09-.28-.13-.4a2.83,2.83,0,0,1-.08-.28Z"/><path class="cls-3" d="M258.86,352.49q-.18-.5-.45-1.29l-.56-1.66c-.19-.58-.38-1.14-.56-1.7s-.32-1-.44-1.39h0v6h-1.66v-8.4h2.52c.35,1,.66,2,.94,2.82.17.51.3.92.41,1.24s.21.62.3.91.18.54.25.78.13.4.17.5l.15-.5c.07-.24.16-.51.26-.83s.21-.65.32-1l.36-1.08q.41-1.29.9-2.82h2.51v8.4h-1.66v-6h0l-.28.9c-.12.34-.24.71-.37,1.11s-.27.79-.4,1.19-.27.79-.39,1.15-.23.7-.33,1l-.24.7Z"/><path class="cls-3" d="M269.2,349.54v2.95h-1.79v-8.4h3.2a5.66,5.66,0,0,1,1.36.15,3.18,3.18,0,0,1,1,.48,2.26,2.26,0,0,1,.67.83,2.81,2.81,0,0,1,.24,1.21,2.85,2.85,0,0,1-.25,1.25,2.39,2.39,0,0,1-.68.86,2.7,2.7,0,0,1-1.05.5,5.17,5.17,0,0,1-1.34.17Zm2.89-2.78a1,1,0,0,0-.41-.93,2.44,2.44,0,0,0-1.25-.25H269.2v2.47h1.23a2.13,2.13,0,0,0,1.25-.3A1.13,1.13,0,0,0,272.09,346.76Z"/><path class="cls-3" d="M279.88,352.66a3.3,3.3,0,0,1-2.55-.87,3.35,3.35,0,0,1-.81-2.4v-5.3h1.8v5.31a2,2,0,0,0,.39,1.27,1.38,1.38,0,0,0,1.17.5,1.41,1.41,0,0,0,1.18-.5,2,2,0,0,0,.38-1.27v-5.31h1.8v5.3a3.39,3.39,0,0,1-.8,2.4A3.34,3.34,0,0,1,279.88,352.66Z"/><path class="cls-3" d="M288,346.3a.8.8,0,0,0,.47.77,5.38,5.38,0,0,0,1.49.4,4.79,4.79,0,0,1,2.2.83,2.09,2.09,0,0,1,.7,1.72,2.3,2.3,0,0,1-.25,1.09,2.43,2.43,0,0,1-.7.83,3.25,3.25,0,0,1-1.07.53,4.91,4.91,0,0,1-1.36.19,4.53,4.53,0,0,1-1.43-.21,3.67,3.67,0,0,1-1.08-.56,2.73,2.73,0,0,1-.7-.82,2.24,2.24,0,0,1-.27-1l1.8-.29a1.55,1.55,0,0,0,.47,1,1.71,1.71,0,0,0,1.21.39,2.93,2.93,0,0,0,.61-.06,1.52,1.52,0,0,0,.49-.19,1.1,1.1,0,0,0,.33-.35.94.94,0,0,0,.12-.49.81.81,0,0,0-.39-.72,3.92,3.92,0,0,0-1.38-.41,10,10,0,0,1-1.22-.27,3.42,3.42,0,0,1-1-.46,2.2,2.2,0,0,1-.65-.74,2.32,2.32,0,0,1-.23-1.07,2.38,2.38,0,0,1,.24-1.1,2.13,2.13,0,0,1,.67-.79,3,3,0,0,1,1-.47,5.12,5.12,0,0,1,2.5,0,3.49,3.49,0,0,1,1,.44,2.82,2.82,0,0,1,.73.73,2.72,2.72,0,0,1,.39,1l-1.82.4a1.51,1.51,0,0,0-.49-.91,1.58,1.58,0,0,0-1.07-.34,1.74,1.74,0,0,0-1,.25A.82.82,0,0,0,288,346.3Z"/><path class="cls-3" d="M300.9,344.09c.3.84.58,1.65.85,2.43.15.46.29.84.39,1.16s.21.62.31.94.21.62.3.92.18.56.25.79h0c.07-.23.15-.5.25-.8l.31-.95c.1-.34.22-.68.34-1l.35-1q.39-1.17.84-2.43H307l-3.09,8.4H302l-3.06-8.4Z"/><path class="cls-3" d="M315.71,352.49h-1.86l-.67-1.95h-3l-.67,1.95h-1.77l3-8.4h1.93Zm-4-6.43-.09.28-.13.42-.16.5c-.06.18-.12.36-.18.52-.13.42-.28.86-.44,1.34h2c-.16-.48-.31-.92-.44-1.34-.09-.24-.16-.43-.21-.59s-.11-.31-.15-.45-.09-.28-.13-.4l-.08-.28Z"/><path class="cls-3" d="M318.2,344.09H320V351h3.67v1.5H318.2Z"/><path class="cls-3" d="M329.32,352.66a3.34,3.34,0,0,1-2.56-.87,3.39,3.39,0,0,1-.8-2.4v-5.3h1.8v5.31a2,2,0,0,0,.38,1.27,1.64,1.64,0,0,0,2.36,0,2,2,0,0,0,.38-1.27v-5.31h1.8v5.3a3.39,3.39,0,0,1-.8,2.4A3.34,3.34,0,0,1,329.32,352.66Z"/><path class="cls-3" d="M335.8,352.49v-8.4h5.72v1.49h-3.94v1.84h3.67v1.49h-3.67V351h4v1.49Z"/><path class="cls-3" d="M346,346.3a.8.8,0,0,0,.47.77,5.38,5.38,0,0,0,1.49.4,4.79,4.79,0,0,1,2.2.83,2.09,2.09,0,0,1,.7,1.72,2.3,2.3,0,0,1-.25,1.09,2.43,2.43,0,0,1-.7.83,3.21,3.21,0,0,1-1.08.53,4.84,4.84,0,0,1-1.35.19,4.53,4.53,0,0,1-1.43-.21,3.44,3.44,0,0,1-1.08-.56,2.6,2.6,0,0,1-.7-.82,2.11,2.11,0,0,1-.27-1l1.8-.29a1.5,1.5,0,0,0,.47,1,1.71,1.71,0,0,0,1.21.39,2.91,2.91,0,0,0,.6-.06,1.43,1.43,0,0,0,.49-.19,1.1,1.1,0,0,0,.33-.35.94.94,0,0,0,.12-.49.81.81,0,0,0-.39-.72,3.85,3.85,0,0,0-1.37-.41,9.6,9.6,0,0,1-1.22-.27,3.29,3.29,0,0,1-1-.46,2.1,2.1,0,0,1-.65-.74,2.2,2.2,0,0,1-.23-1.07,2.38,2.38,0,0,1,.24-1.1,2.13,2.13,0,0,1,.67-.79,3,3,0,0,1,1-.47,4.72,4.72,0,0,1,1.28-.16,4.66,4.66,0,0,1,1.21.15,3.55,3.55,0,0,1,1,.44,2.63,2.63,0,0,1,.72.73,2.74,2.74,0,0,1,.4,1l-1.83.4a1.41,1.41,0,0,0-.49-.91,1.56,1.56,0,0,0-1.07-.34,1.72,1.72,0,0,0-1,.25A.82.82,0,0,0,346,346.3Z"/></g></svg>