<svg xmlns="http://www.w3.org/2000/svg" viewBox="0 0 360 360"><defs><style>.cls-1{fill:#fff;}</style></defs><g id="BACKGROUND"><rect x="-1" width="360" height="360"/></g><g id="LINE_ONE" data-name="LINE ONE"><path class="cls-1" d="M112.26,248.16v-14h9.54v2.48h-6.58v3.08h6.12v2.48h-6.12v3.48h6.68v2.48Z"/><path class="cls-1" d="M132.7,248.16c-.2-.55-.45-1.26-.75-2.15l-.93-2.77q-.48-1.44-.93-2.82c-.3-.92-.54-1.7-.73-2.32h-.06v10.06h-2.76v-14h4.2q.85,2.55,1.56,4.7.42,1.27.69,2.07c.18.52.35,1,.5,1.51s.29.91.42,1.3.22.66.27.84c0-.18.14-.46.26-.84s.26-.84.43-1.37l.54-1.7c.19-.61.39-1.21.59-1.81q.67-2.15,1.5-4.7h4.18v14h-2.76V238.1h-.06l-.48,1.49-.61,1.85-.67,2c-.23.67-.44,1.31-.64,1.92s-.38,1.15-.55,1.65-.3.88-.41,1.16Z"/><path class="cls-1" d="M146.38,241.16a8.79,8.79,0,0,1,.49-3,6.55,6.55,0,0,1,1.38-2.29,5.82,5.82,0,0,1,2.15-1.44,8.09,8.09,0,0,1,5.6,0,5.82,5.82,0,0,1,2.15,1.44,6.55,6.55,0,0,1,1.38,2.29,9.74,9.74,0,0,1,0,6.1,6.64,6.64,0,0,1-1.38,2.29,5.94,5.94,0,0,1-2.15,1.44,8.09,8.09,0,0,1-5.6,0,5.94,5.94,0,0,1-2.15-1.44,6.64,6.64,0,0,1-1.38-2.29A8.83,8.83,0,0,1,146.38,241.16Zm3.1,0a8,8,0,0,0,.23,2,4.33,4.33,0,0,0,.69,1.52,3.24,3.24,0,0,0,1.16,1,4,4,0,0,0,3.28,0,3.24,3.24,0,0,0,1.16-1,4.33,4.33,0,0,0,.69-1.52,8,8,0,0,0,.23-2,7.9,7.9,0,0,0-.23-1.95,4.25,4.25,0,0,0-.69-1.52,3.14,3.14,0,0,0-1.16-1,4,4,0,0,0-3.28,0,3.14,3.14,0,0,0-1.16,1,4.25,4.25,0,0,0-.69,1.52A7.9,7.9,0,0,0,149.48,241.16Z"/><path class="cls-1" d="M163.06,234.16h11.1v2.5h-4v11.5h-3v-11.5h-4Z"/><path class="cls-1" d="M178.38,234.16h3v14h-3Z"/><path class="cls-1" d="M186.08,241.16a8.79,8.79,0,0,1,.49-3,6.55,6.55,0,0,1,1.38-2.29,5.82,5.82,0,0,1,2.15-1.44,8.09,8.09,0,0,1,5.6,0,5.9,5.9,0,0,1,2.15,1.44,6.55,6.55,0,0,1,1.38,2.29,9.74,9.74,0,0,1,0,6.1,6.64,6.64,0,0,1-1.38,2.29,6,6,0,0,1-2.15,1.44,8.09,8.09,0,0,1-5.6,0A5.94,5.94,0,0,1,188,246.5a6.64,6.64,0,0,1-1.38-2.29A8.83,8.83,0,0,1,186.08,241.16Zm3.1,0a7.56,7.56,0,0,0,.23,2,4.33,4.33,0,0,0,.69,1.52,3.24,3.24,0,0,0,1.16,1,4,4,0,0,0,3.28,0,3.32,3.32,0,0,0,1.16-1,4.52,4.52,0,0,0,.69-1.52,8,8,0,0,0,.23-2,7.9,7.9,0,0,0-.23-1.95,4.43,4.43,0,0,0-.69-1.52,3.22,3.22,0,0,0-1.16-1,4,4,0,0,0-3.28,0,3.14,3.14,0,0,0-1.16,1,4.25,4.25,0,0,0-.69,1.52A7.45,7.45,0,0,0,189.18,241.16Z"/><path class="cls-1" d="M204.42,234.16h3.12l2.32,3.76c.44.7.8,1.29,1.08,1.75l.84,1.37.8,1.29.64,1h.06v-9.2h2.84v14H213l-2.28-3.7-1.07-1.73c-.29-.46-.57-.92-.85-1.38L208,240c-.26-.42-.48-.78-.67-1.07h-.06v9.2h-2.84Z"/><path class="cls-1" d="M233.56,248.16h-3.1l-1.12-3.24h-5l-1.12,3.24h-2.94l5-14h3.22Zm-6.76-10.72c0,.1-.07.26-.14.47s-.14.44-.22.7-.17.54-.27.84l-.29.87c-.23.69-.47,1.43-.74,2.22h3.38c-.27-.79-.51-1.53-.74-2.22-.15-.4-.26-.73-.35-1s-.17-.51-.24-.75-.14-.47-.21-.67-.11-.37-.14-.47Z"/><path class="cls-1" d="M237.7,234.16h3v11.5h6.12v2.5H237.7Z"/></g><g id="LINE_TWO" data-name="LINE TWO"><path class="cls-1" d="M136.59,251.94l-3.5,14h-3.48c-.29-1.29-.57-2.52-.84-3.7l-.4-1.74c-.11-.46-.21-.93-.31-1.4s-.2-.91-.3-1.34-.18-.79-.25-1.1h-.06q-.11.46-.24,1.11c-.09.44-.2.9-.32,1.39l-.36,1.53c-.12.53-.24,1.05-.36,1.55-.28,1.18-.58,2.41-.9,3.7h-3.48l-3.52-14h3c.35,1.5.67,2.92,1,4.26.17.8.32,1.46.44,2s.23,1,.34,1.56.21,1,.31,1.48.18.86.23,1.18h.06c.07-.32.15-.71.25-1.19s.21-1,.34-1.53.26-1.12.4-1.72.28-1.18.41-1.76l1-4.26h2.82l1,4.26c.19.8.34,1.46.47,2s.25,1,.37,1.56.23,1,.33,1.48.18.86.25,1.18h.06c.07-.32.15-.71.25-1.19l.33-1.53c.12-.54.25-1.12.38-1.72s.27-1.18.4-1.76c.32-1.34.65-2.76,1-4.26Z"/><path class="cls-1" d="M140.71,265.94v-14h9.54v2.48h-6.58v3.08h6.12V260h-6.12v3.48h6.68v2.48Z"/><path class="cls-1" d="M155,251.94h3v11.5h6.12v2.5H155Z"/><path class="cls-1" d="M168.31,251.94h3v11.5h6.12v2.5h-9.12Z"/><path class="cls-1" d="M181.63,251.94h3.12l2.32,3.76,1.08,1.75.84,1.37.8,1.29.64,1h.06v-9.2h2.84v14h-3.12c-.8-1.29-1.56-2.52-2.28-3.7l-1.07-1.73c-.29-.46-.57-.92-.85-1.38l-.81-1.32-.67-1.07h-.06v9.2h-2.84Z"/><path class="cls-1" d="M198.61,265.94v-14h9.54v2.48h-6.58v3.08h6.12V260h-6.12v3.48h6.68v2.48Z"/><path class="cls-1" d="M215.61,255.62a1.34,1.34,0,0,0,.78,1.29,9.1,9.1,0,0,0,2.48.67,7.86,7.86,0,0,1,3.67,1.38,3.49,3.49,0,0,1,1.17,2.86,3.92,3.92,0,0,1-.42,1.83,4.07,4.07,0,0,1-1.17,1.38,5.44,5.44,0,0,1-1.79.88,7.77,7.77,0,0,1-2.26.31,7.39,7.39,0,0,1-2.38-.35,5.66,5.66,0,0,1-1.8-.93,4.3,4.3,0,0,1-1.16-1.36,3.81,3.81,0,0,1-.46-1.62l3-.48a2.56,2.56,0,0,0,.79,1.67,2.8,2.8,0,0,0,2,.65,4.61,4.61,0,0,0,1-.1,2.14,2.14,0,0,0,.82-.33,1.66,1.66,0,0,0,.55-.57,1.61,1.61,0,0,0,.2-.82,1.35,1.35,0,0,0-.65-1.2,6.52,6.52,0,0,0-2.29-.68,16.15,16.15,0,0,1-2-.46,5.23,5.23,0,0,1-1.63-.77,3.42,3.42,0,0,1-1.08-1.22,3.73,3.73,0,0,1-.39-1.79A4,4,0,0,1,213,254a3.81,3.81,0,0,1,1.12-1.31,5.22,5.22,0,0,1,1.7-.79,8.48,8.48,0,0,1,2.14-.26,8.16,8.16,0,0,1,2,.25,5.77,5.77,0,0,1,1.67.74,4.36,4.36,0,0,1,1.21,1.21,4.49,4.49,0,0,1,.66,1.64l-3,.66a2.48,2.48,0,0,0-.82-1.52,2.67,2.67,0,0,0-1.78-.56,2.78,2.78,0,0,0-1.69.42A1.34,1.34,0,0,0,215.61,255.62Z"/><path class="cls-1" d="M231.09,255.62a1.34,1.34,0,0,0,.78,1.29,9,9,0,0,0,2.48.67A7.86,7.86,0,0,1,238,259a3.49,3.49,0,0,1,1.17,2.86,3.92,3.92,0,0,1-.42,1.83A4.07,4.07,0,0,1,237.6,265a5.44,5.44,0,0,1-1.79.88,7.77,7.77,0,0,1-2.26.31,7.39,7.39,0,0,1-2.38-.35,5.66,5.66,0,0,1-1.8-.93,4.3,4.3,0,0,1-1.16-1.36,3.81,3.81,0,0,1-.46-1.62l3-.48a2.56,2.56,0,0,0,.79,1.67,2.8,2.8,0,0,0,2,.65,4.61,4.61,0,0,0,1-.1,2.14,2.14,0,0,0,.82-.33,1.76,1.76,0,0,0,.55-.57,1.61,1.61,0,0,0,.2-.82,1.35,1.35,0,0,0-.65-1.2,6.59,6.59,0,0,0-2.29-.68,16.15,16.15,0,0,1-2-.46,5.23,5.23,0,0,1-1.63-.77,3.42,3.42,0,0,1-1.08-1.22,3.73,3.73,0,0,1-.39-1.79,4,4,0,0,1,.4-1.84,3.7,3.7,0,0,1,1.12-1.31,5.22,5.22,0,0,1,1.7-.79,8.48,8.48,0,0,1,2.14-.26,8.16,8.16,0,0,1,2,.25,5.77,5.77,0,0,1,1.67.74,4.36,4.36,0,0,1,1.21,1.21,4.49,4.49,0,0,1,.66,1.64l-3,.66a2.48,2.48,0,0,0-.82-1.52,2.67,2.67,0,0,0-1.78-.56,2.76,2.76,0,0,0-1.69.42A1.34,1.34,0,0,0,231.09,255.62Z"/></g><g id="ICON"><path class="cls-1" d="M180.79,90.33c11,.2,19.83,1.72,27.7,6.9,8.81,5.82,13.1,14.22,13.72,24.54.69,11.56-2.85,22-9,31.67-1.69,2.66-3.48,5.5-4.15,8.5-1,4.52.46,8.91,2.92,12.84a53.64,53.64,0,0,0,3.49,4.85c.87,1.09.94,1.78-.35,2.59A150.27,150.27,0,0,1,181,198.06c-1.81.58-2,.31-2.49-1.6-1.53-6.06-3-12.13-4.81-18.12-1.18-4-3.7-7.12-8-7.93-2.56-.48-5.3-.06-8,0-2.44,0-4.89.29-7.31.12s-3.28-1.4-3.42-3.73c-.08-1.3,0-2.62-.06-3.93a3.24,3.24,0,0,0-.37-1.79,3.48,3.48,0,0,1-.57-4.22c.11-.21-.5-1-.94-1.25-2.37-1.06-2.38-1-1.8-3.35.72-2.89.18-3.82-2.68-4.62a8.42,8.42,0,0,1-1.91-.71,1.56,1.56,0,0,1-.61-2.45c2.1-3.18,4.1-6.44,6.38-9.5a8,8,0,0,0,1.69-7,13.58,13.58,0,0,1,.44-7.71c.66-2.11,1.15-4.28,1.62-6.44a28.7,28.7,0,0,1,22.89-22.25C174.88,90.86,178.74,90.58,180.79,90.33Zm2,5.43a63.94,63.94,0,0,0-8.87,1.65c-10.43,3.28-18,9.56-19.84,21-1.09,6.85,1.32,11.5,8.62,12.86a30.45,30.45,0,0,0,5.77.65c7.36-.07,13.74,2,19.32,7.13,3.28,3,7.28,5.24,11.09,7.62a6.56,6.56,0,0,0,8-.61,23.12,23.12,0,0,0,4.92-5.57c2.87-4.64,3.89-9.9,4.5-15.27.66-5.81-.39-11.17-4-15.83C205.16,100.09,195.33,96.38,182.76,95.76Z"/><path class="cls-1" d="M194.28,109.07h0a5.32,5.32,0,0,0-7.54,0l-1.61,1.6-1.61-1.6a5.33,5.33,0,0,0-7.55,0h0a5.34,5.34,0,0,0,0,7.54l1.61,1.61h0l7.55,7.55h0l7.54-7.55h0l1.61-1.61A5.32,5.32,0,0,0,194.28,109.07Z"/></g></svg>