<svg xmlns="http://www.w3.org/2000/svg" viewBox="0 0 360 360"><defs><style>.cls-1{fill:#f1f2f2;}.cls-2{fill:#d2bf2d;}.cls-3{fill:#fff;}</style></defs><g id="BACKGROUND"><rect class="cls-1" x="0.33" width="360" height="360"/></g><g id="LINE_ONE" data-name="LINE ONE"><path class="cls-2" d="M131.87,241.16a9.12,9.12,0,0,1,.48-3.07,6.52,6.52,0,0,1,1.37-2.3,5.73,5.73,0,0,1,2.16-1.42,7.82,7.82,0,0,1,2.85-.49,6.75,6.75,0,0,1,3.76,1,5.32,5.32,0,0,1,2.16,3l-2.92,1a3.92,3.92,0,0,0-1.08-1.83,2.82,2.82,0,0,0-2-.65,3.51,3.51,0,0,0-1.62.36,3.26,3.26,0,0,0-1.16,1,4.28,4.28,0,0,0-.69,1.51,8.09,8.09,0,0,0,0,3.83,4.45,4.45,0,0,0,.69,1.51,3.29,3.29,0,0,0,1.16,1,3.54,3.54,0,0,0,1.64.36,3,3,0,0,0,1.89-.58,3.57,3.57,0,0,0,1.11-1.76l2.88,1a6.07,6.07,0,0,1-2.16,2.8,6.42,6.42,0,0,1-3.76,1,7.7,7.7,0,0,1-2.79-.49,5.94,5.94,0,0,1-2.14-1.42,6.39,6.39,0,0,1-1.37-2.29A9.26,9.26,0,0,1,131.87,241.16Z"/><path class="cls-2" d="M161.21,248.16h-3.1L157,244.92h-5l-1.12,3.24h-2.94l5-14h3.22Zm-6.76-10.72c0,.1-.07.26-.14.47s-.14.44-.22.7-.17.54-.27.84l-.29.87c-.23.69-.47,1.43-.74,2.22h3.38c-.27-.79-.51-1.53-.74-2.22-.15-.4-.26-.73-.35-1s-.17-.51-.24-.75-.14-.47-.21-.67-.11-.37-.14-.47Z"/><path class="cls-2" d="M171.51,248.16q-.3-.82-.75-2.16t-.93-2.76q-.48-1.44-.93-2.82c-.3-.92-.54-1.7-.73-2.32h-.06v10.06h-2.76v-14h4.2q.85,2.55,1.56,4.7c.28.85.51,1.54.69,2.06s.35,1,.5,1.52.29.91.42,1.3.22.66.27.84c0-.18.14-.46.26-.84s.26-.85.43-1.37l.54-1.7c.19-.61.39-1.21.59-1.81q.67-2.15,1.5-4.7h4.18v14h-2.76V238.1h-.06l-.48,1.49-.61,1.85-.67,2c-.23.68-.44,1.32-.64,1.93l-.55,1.65c-.17.49-.3.88-.41,1.16Z"/><path class="cls-2" d="M188.75,243.24v4.92h-3v-14h5.32a8.93,8.93,0,0,1,2.28.26,5,5,0,0,1,1.74.79,3.81,3.81,0,0,1,1.12,1.39,4.61,4.61,0,0,1,.4,2,4.87,4.87,0,0,1-.41,2.07,3.85,3.85,0,0,1-1.14,1.44,4.81,4.81,0,0,1-1.75.83,8.33,8.33,0,0,1-2.24.28Zm4.82-4.62a1.68,1.68,0,0,0-.69-1.56,4.11,4.11,0,0,0-2.09-.42h-2v4.11h2a3.52,3.52,0,0,0,2.09-.5A1.86,1.86,0,0,0,193.57,238.62Z"/><path class="cls-2" d="M206.55,248.44a5.56,5.56,0,0,1-4.26-1.44,5.63,5.63,0,0,1-1.34-4v-8.84h3V243a3.35,3.35,0,0,0,.64,2.11,2.73,2.73,0,0,0,3.92,0,3.42,3.42,0,0,0,.64-2.11v-8.86h3V243a5.67,5.67,0,0,1-1.34,4A5.59,5.59,0,0,1,206.55,248.44Z"/><path class="cls-2" d="M220.07,237.84a1.34,1.34,0,0,0,.78,1.29,9.05,9.05,0,0,0,2.48.66,8.09,8.09,0,0,1,3.67,1.38,3.51,3.51,0,0,1,1.17,2.87,4,4,0,0,1-.42,1.83,4.07,4.07,0,0,1-1.17,1.38,5.65,5.65,0,0,1-1.79.88,8.12,8.12,0,0,1-2.26.31,7.63,7.63,0,0,1-2.38-.35,6.1,6.1,0,0,1-1.8-.93,4.21,4.21,0,0,1-1.16-1.37,3.73,3.73,0,0,1-.46-1.62l3-.47a2.58,2.58,0,0,0,.79,1.67,2.84,2.84,0,0,0,2,.65,5.4,5.4,0,0,0,1-.1,2.52,2.52,0,0,0,.82-.33,2,2,0,0,0,.55-.57,1.63,1.63,0,0,0,.2-.82,1.34,1.34,0,0,0-.65-1.2,6.18,6.18,0,0,0-2.29-.68,17.62,17.62,0,0,1-2-.46,5.72,5.72,0,0,1-1.63-.77,3.6,3.6,0,0,1-1.08-1.22,3.79,3.79,0,0,1-.39-1.79,3.9,3.9,0,0,1,.4-1.84,3.65,3.65,0,0,1,1.12-1.32,5,5,0,0,1,1.7-.78,8,8,0,0,1,2.14-.26,7.71,7.71,0,0,1,2,.25,5.28,5.28,0,0,1,1.67.74,4.36,4.36,0,0,1,1.21,1.21,4.44,4.44,0,0,1,.66,1.63l-3,.67a2.45,2.45,0,0,0-.82-1.52,2.62,2.62,0,0,0-1.78-.57,2.83,2.83,0,0,0-1.69.42A1.36,1.36,0,0,0,220.07,237.84Z"/><rect class="cls-2" y="336.06" width="360" height="23.94"/><path class="cls-3" d="M250.45,352.49v-8.4h5.72v1.49h-4v1.84h3.67v1.49h-3.67V351h4v1.49Z"/><path class="cls-3" d="M259,344.09h1.88c.48.79.95,1.54,1.39,2.25l.65,1.05c.16.28.33.55.5.83l.48.77.38.62h0v-5.52H266v8.4h-1.87c-.48-.78-.93-1.52-1.37-2.22-.25-.42-.47-.76-.64-1l-.51-.83-.48-.79c-.16-.25-.29-.47-.41-.64h0v5.52H259Z"/><path class="cls-3" d="M270.44,344.09l.84,2.43c.16.46.29.84.39,1.16s.21.62.32.94l.3.92.25.79h0c.07-.23.16-.5.25-.8l.31-.95.34-1,.35-1q.39-1.17.84-2.43h1.85l-3.1,8.4h-1.84l-3.05-8.4Z"/><path class="cls-3" d="M279,344.09h1.8v8.4H279Z"/><path class="cls-3" d="M290.23,346.64a2.57,2.57,0,0,1-.43,1.53,2.48,2.48,0,0,1-1.17.87l1.93,3.45h-2l-1.74-3.18h-1.11v3.18h-1.79v-8.4H287a5.47,5.47,0,0,1,1.33.15,2.84,2.84,0,0,1,1,.46,2.08,2.08,0,0,1,.65.79A2.71,2.71,0,0,1,290.23,346.64Zm-1.85,0a.91.91,0,0,0-.39-.85,2.32,2.32,0,0,0-1.18-.23h-1.08v2.26h1.08a2.1,2.1,0,0,0,1.18-.27A1,1,0,0,0,288.38,346.66Z"/><path class="cls-3" d="M292.9,348.29a5.24,5.24,0,0,1,.3-1.83,4,4,0,0,1,.82-1.38,3.7,3.7,0,0,1,1.29-.86,4.56,4.56,0,0,1,1.68-.3,4.49,4.49,0,0,1,1.68.3,3.65,3.65,0,0,1,1.3.86,4,4,0,0,1,.82,1.38,5.73,5.73,0,0,1,0,3.66,3.82,3.82,0,0,1-.82,1.37,3.54,3.54,0,0,1-1.3.87,4.49,4.49,0,0,1-1.68.3,4.56,4.56,0,0,1-1.68-.3,3.59,3.59,0,0,1-1.29-.87,3.82,3.82,0,0,1-.82-1.37A5.24,5.24,0,0,1,292.9,348.29Zm1.86,0a4.81,4.81,0,0,0,.14,1.17,2.72,2.72,0,0,0,.41.91,2,2,0,0,0,.7.59,2.42,2.42,0,0,0,2,0,1.88,1.88,0,0,0,.69-.59,2.54,2.54,0,0,0,.42-.91,4.81,4.81,0,0,0,.14-1.17,4.69,4.69,0,0,0-.14-1.17,2.47,2.47,0,0,0-.42-.91,1.79,1.79,0,0,0-.69-.59,2.42,2.42,0,0,0-2,0,1.89,1.89,0,0,0-.7.59,2.63,2.63,0,0,0-.41.91A4.69,4.69,0,0,0,294.76,348.29Z"/><path class="cls-3" d="M303.91,344.09h1.87l1.39,2.25.65,1.05.5.83.48.77.39.62h0v-5.52h1.71v8.4h-1.88l-1.36-2.22-.65-1-.51-.83-.48-.79c-.16-.25-.29-.47-.41-.64h0v5.52h-1.7Z"/><path class="cls-3" d="M317.79,352.49q-.18-.5-.45-1.29l-.56-1.66c-.19-.58-.38-1.14-.56-1.7s-.32-1-.43-1.39h0v6h-1.66v-8.4h2.52c.35,1,.66,2,.94,2.82l.42,1.24.29.91c.1.28.18.54.26.78s.13.4.16.5l.15-.5c.08-.24.16-.51.26-.83l.33-1c.11-.36.23-.72.35-1.08q.41-1.29.9-2.82h2.51v8.4h-1.66v-6h0l-.29.9c-.11.34-.23.71-.37,1.11s-.26.79-.4,1.19-.26.79-.38,1.15l-.33,1c-.1.3-.19.53-.25.7Z"/><path class="cls-3" d="M326.35,352.49v-8.4h5.72v1.49h-3.95v1.84h3.67v1.49h-3.67V351h4v1.49Z"/><path class="cls-3" d="M334.91,344.09h1.88c.48.79.95,1.54,1.39,2.25l.65,1.05c.16.28.33.55.5.83l.48.77.38.62h0v-5.52h1.7v8.4h-1.87c-.48-.78-.93-1.52-1.37-2.22-.25-.42-.47-.76-.64-1l-.51-.83-.48-.79c-.16-.25-.29-.47-.41-.64h0v5.52h-1.71Z"/><path class="cls-3" d="M344.47,344.09h6.66v1.5H348.7v6.9h-1.81v-6.9h-2.42Z"/></g><g id="LINE_TWO" data-name="LINE TWO"><path class="cls-2" d="M111.54,259a9.12,9.12,0,0,1,.48-3.07,6.39,6.39,0,0,1,1.37-2.29,5.79,5.79,0,0,1,2.16-1.43,7.82,7.82,0,0,1,2.85-.49,6.72,6.72,0,0,1,3.76,1,5.23,5.23,0,0,1,2.16,3l-2.92,1a3.92,3.92,0,0,0-1.08-1.83,2.82,2.82,0,0,0-2-.65,3.51,3.51,0,0,0-1.62.36,3.35,3.35,0,0,0-1.16,1,4.67,4.67,0,0,0-.69,1.51,8.09,8.09,0,0,0,0,3.83,4.87,4.87,0,0,0,.69,1.51,3.38,3.38,0,0,0,1.16,1,3.57,3.57,0,0,0,1.64.36,3,3,0,0,0,1.89-.58,3.57,3.57,0,0,0,1.11-1.76l2.88,1a6,6,0,0,1-2.16,2.8,6.4,6.4,0,0,1-3.76,1,7.78,7.78,0,0,1-2.79-.49,6,6,0,0,1-2.14-1.42A6.39,6.39,0,0,1,112,262,9.26,9.26,0,0,1,111.54,259Z"/><path class="cls-2" d="M128.72,252h3v5.54H137V252h3v14h-3V260h-5.3V266h-3Z"/><path class="cls-2" d="M157.46,266h-3.1l-1.12-3.24h-5L147.1,266h-2.94l5-14h3.22Zm-6.76-10.72a4.69,4.69,0,0,1-.14.47l-.22.7q-.12.39-.27.84c-.1.3-.19.59-.29.87-.22.69-.47,1.43-.74,2.22h3.38l-.74-2.22-.35-1-.24-.75c-.07-.24-.14-.47-.21-.67l-.14-.47Z"/><path class="cls-2" d="M172.08,256.21a3.94,3.94,0,0,1-2.66,4l3.22,5.74h-3.3l-2.9-5.3h-1.86V266h-3V252h5.12a8.84,8.84,0,0,1,2.21.25,4.53,4.53,0,0,1,1.69.77,3.32,3.32,0,0,1,1.08,1.32A4.33,4.33,0,0,1,172.08,256.21Zm-3.08,0a1.49,1.49,0,0,0-.65-1.41,3.91,3.91,0,0,0-2-.39h-1.8v3.78h1.8a3.48,3.48,0,0,0,2-.45A1.71,1.71,0,0,0,169,256.23Z"/><path class="cls-2" d="M189.28,266h-3.1l-1.12-3.24h-5L178.92,266H176l5-14h3.22Zm-6.76-10.72a4.69,4.69,0,0,1-.14.47l-.22.7q-.12.39-.27.84c-.1.3-.19.59-.29.87-.22.69-.47,1.43-.74,2.22h3.38l-.74-2.22-.35-1q-.12-.39-.24-.75c-.07-.24-.14-.47-.21-.67l-.14-.47Z"/><path class="cls-2" d="M192.14,259a9.12,9.12,0,0,1,.48-3.07,6.39,6.39,0,0,1,1.37-2.29,5.79,5.79,0,0,1,2.16-1.43,7.82,7.82,0,0,1,2.85-.49,6.72,6.72,0,0,1,3.76,1,5.23,5.23,0,0,1,2.16,3l-2.92,1a3.92,3.92,0,0,0-1.08-1.83,2.82,2.82,0,0,0-2-.65,3.51,3.51,0,0,0-1.62.36,3.35,3.35,0,0,0-1.16,1,4.67,4.67,0,0,0-.69,1.51,8.09,8.09,0,0,0,0,3.83,4.87,4.87,0,0,0,.69,1.51,3.38,3.38,0,0,0,1.16,1,3.57,3.57,0,0,0,1.64.36,3,3,0,0,0,1.89-.58,3.57,3.57,0,0,0,1.11-1.76l2.88,1a6,6,0,0,1-2.16,2.8,6.4,6.4,0,0,1-3.76,1,7.78,7.78,0,0,1-2.79-.49,6,6,0,0,1-2.14-1.42,6.39,6.39,0,0,1-1.37-2.29A9.26,9.26,0,0,1,192.14,259Z"/><path class="cls-2" d="M208.26,252h11.1v2.5h-4V266h-3v-11.5h-4Z"/><path class="cls-2" d="M223.58,266V252h9.54v2.48h-6.58v3.08h6.12V260h-6.12v3.48h6.68V266Z"/><path class="cls-2" d="M248.34,256.21a3.94,3.94,0,0,1-2.66,4L248.9,266h-3.3l-2.9-5.3h-1.86V266h-3V252H243a8.84,8.84,0,0,1,2.21.25,4.53,4.53,0,0,1,1.69.77,3.32,3.32,0,0,1,1.08,1.32A4.33,4.33,0,0,1,248.34,256.21Zm-3.08,0a1.49,1.49,0,0,0-.65-1.41,3.91,3.91,0,0,0-2-.39h-1.8v3.78h1.8a3.48,3.48,0,0,0,2-.45A1.71,1.71,0,0,0,245.26,256.23Z"/></g><g id="ICON"><polygon class="cls-2" points="229.67 199.12 128.94 199.12 128.94 122.07 179.3 89.28 229.67 122.07 229.67 199.12"/></g></svg>