<svg xmlns="http://www.w3.org/2000/svg" viewBox="0 0 360 360"><defs><style>.cls-1{fill:#fff;}</style></defs><g id="BACKGROUND"><rect x="-1" width="360" height="360"/></g><g id="LINE_ONE" data-name="LINE ONE"><path class="cls-1" d="M93.62,237.84a1.34,1.34,0,0,0,.78,1.29,9.48,9.48,0,0,0,2.48.67,7.86,7.86,0,0,1,3.67,1.38,3.48,3.48,0,0,1,1.17,2.86,3.92,3.92,0,0,1-.42,1.83,4.07,4.07,0,0,1-1.17,1.38,5.65,5.65,0,0,1-1.79.88,7.77,7.77,0,0,1-2.26.31,7.68,7.68,0,0,1-2.38-.35,5.66,5.66,0,0,1-1.8-.93,4.41,4.41,0,0,1-1.16-1.36,3.81,3.81,0,0,1-.46-1.62l3-.48a2.56,2.56,0,0,0,.79,1.67,2.84,2.84,0,0,0,2,.65,4.61,4.61,0,0,0,1-.1,2.52,2.52,0,0,0,.82-.33,1.66,1.66,0,0,0,.55-.57,1.63,1.63,0,0,0,.2-.82A1.35,1.35,0,0,0,98,243a6.31,6.31,0,0,0-2.29-.68,16.15,16.15,0,0,1-2-.46,5.47,5.47,0,0,1-1.63-.77A3.51,3.51,0,0,1,91,239.87a3.76,3.76,0,0,1-.39-1.79,3.93,3.93,0,0,1,.4-1.84,3.72,3.72,0,0,1,1.12-1.31,5,5,0,0,1,1.7-.79,8.48,8.48,0,0,1,2.14-.26,7.71,7.71,0,0,1,2,.25,5.51,5.51,0,0,1,1.67.74,4.36,4.36,0,0,1,1.21,1.21,4.49,4.49,0,0,1,.66,1.64l-3,.66a2.45,2.45,0,0,0-.82-1.52,2.67,2.67,0,0,0-1.78-.56,2.78,2.78,0,0,0-1.69.42A1.33,1.33,0,0,0,93.62,237.84Z"/><path class="cls-1" d="M105.8,241.16a9.12,9.12,0,0,1,.48-3.07,6.47,6.47,0,0,1,1.37-2.29,5.75,5.75,0,0,1,2.16-1.43,7.82,7.82,0,0,1,2.85-.49,6.83,6.83,0,0,1,3.76,1,5.35,5.35,0,0,1,2.16,3l-2.92,1a3.92,3.92,0,0,0-1.08-1.83,2.86,2.86,0,0,0-2-.65,3.51,3.51,0,0,0-1.62.36,3.26,3.26,0,0,0-1.16,1,4.28,4.28,0,0,0-.69,1.51,7.77,7.77,0,0,0-.23,1.92,7.63,7.63,0,0,0,.23,1.91,4.45,4.45,0,0,0,.69,1.51,3.19,3.19,0,0,0,1.16,1,3.54,3.54,0,0,0,1.64.36,2.94,2.94,0,0,0,1.89-.58,3.53,3.53,0,0,0,1.11-1.76l2.88,1a6,6,0,0,1-2.16,2.8,6.42,6.42,0,0,1-3.76,1,7.5,7.5,0,0,1-2.79-.49,5.94,5.94,0,0,1-2.14-1.42,6.3,6.3,0,0,1-1.37-2.29A9.22,9.22,0,0,1,105.8,241.16Z"/><path class="cls-1" d="M123,234.16h3v5.54h5.3v-5.54h3v14h-3v-5.94H126v5.94h-3Z"/><path class="cls-1" d="M139,241.16a8.83,8.83,0,0,1,.49-3,6.64,6.64,0,0,1,1.38-2.29,5.82,5.82,0,0,1,2.15-1.44,8.09,8.09,0,0,1,5.6,0,5.82,5.82,0,0,1,2.15,1.44,6.64,6.64,0,0,1,1.38,2.29,9.74,9.74,0,0,1,0,6.1,6.64,6.64,0,0,1-1.38,2.29,5.82,5.82,0,0,1-2.15,1.44,8.09,8.09,0,0,1-5.6,0,5.82,5.82,0,0,1-2.15-1.44,6.64,6.64,0,0,1-1.38-2.29A8.83,8.83,0,0,1,139,241.16Zm3.1,0a7.9,7.9,0,0,0,.23,2,4.33,4.33,0,0,0,.69,1.52,3.14,3.14,0,0,0,1.16,1,4,4,0,0,0,3.28,0,3.14,3.14,0,0,0,1.16-1,4.33,4.33,0,0,0,.69-1.52,8.38,8.38,0,0,0,0-3.9,4.33,4.33,0,0,0-.69-1.52,3.14,3.14,0,0,0-1.16-1,4,4,0,0,0-3.28,0,3.14,3.14,0,0,0-1.16,1,4.33,4.33,0,0,0-.69,1.52A7.9,7.9,0,0,0,142.08,241.16Z"/><path class="cls-1" d="M156.94,241.16a8.83,8.83,0,0,1,.49-3,6.64,6.64,0,0,1,1.38-2.29,5.82,5.82,0,0,1,2.15-1.44,8.09,8.09,0,0,1,5.6,0,5.82,5.82,0,0,1,2.15,1.44,6.64,6.64,0,0,1,1.38,2.29,9.74,9.74,0,0,1,0,6.1,6.64,6.64,0,0,1-1.38,2.29,5.82,5.82,0,0,1-2.15,1.44,8.09,8.09,0,0,1-5.6,0,5.82,5.82,0,0,1-2.15-1.44,6.64,6.64,0,0,1-1.38-2.29A8.83,8.83,0,0,1,156.94,241.16Zm3.1,0a7.9,7.9,0,0,0,.23,2,4.33,4.33,0,0,0,.69,1.52,3.14,3.14,0,0,0,1.16,1,4,4,0,0,0,3.28,0,3.14,3.14,0,0,0,1.16-1,4.33,4.33,0,0,0,.69-1.52,8.38,8.38,0,0,0,0-3.9,4.33,4.33,0,0,0-.69-1.52,3.14,3.14,0,0,0-1.16-1,4,4,0,0,0-3.28,0,3.14,3.14,0,0,0-1.16,1,4.33,4.33,0,0,0-.69,1.52A7.9,7.9,0,0,0,160,241.16Z"/><path class="cls-1" d="M175.28,234.16h3v11.5h6.12v2.5h-9.12Z"/><path class="cls-1" d="M198,237.84a1.34,1.34,0,0,0,.78,1.29,9.48,9.48,0,0,0,2.48.67,7.86,7.86,0,0,1,3.67,1.38,3.48,3.48,0,0,1,1.17,2.86,3.92,3.92,0,0,1-.42,1.83,4.07,4.07,0,0,1-1.17,1.38,5.65,5.65,0,0,1-1.79.88,7.77,7.77,0,0,1-2.26.31,7.68,7.68,0,0,1-2.38-.35,5.66,5.66,0,0,1-1.8-.93,4.41,4.41,0,0,1-1.16-1.36,3.81,3.81,0,0,1-.46-1.62l3-.48a2.56,2.56,0,0,0,.79,1.67,2.84,2.84,0,0,0,2,.65,4.61,4.61,0,0,0,1-.1,2.52,2.52,0,0,0,.82-.33,1.66,1.66,0,0,0,.55-.57,1.63,1.63,0,0,0,.2-.82,1.35,1.35,0,0,0-.65-1.2,6.31,6.31,0,0,0-2.29-.68,16.15,16.15,0,0,1-2-.46,5.47,5.47,0,0,1-1.63-.77,3.51,3.51,0,0,1-1.08-1.22,3.76,3.76,0,0,1-.39-1.79,3.93,3.93,0,0,1,.4-1.84,3.72,3.72,0,0,1,1.12-1.31,5,5,0,0,1,1.7-.79,8.48,8.48,0,0,1,2.14-.26,7.71,7.71,0,0,1,2,.25,5.51,5.51,0,0,1,1.67.74,4.36,4.36,0,0,1,1.21,1.21,4.49,4.49,0,0,1,.66,1.64l-3,.66a2.45,2.45,0,0,0-.82-1.52,2.67,2.67,0,0,0-1.78-.56,2.78,2.78,0,0,0-1.69.42A1.33,1.33,0,0,0,198,237.84Z"/><path class="cls-1" d="M213.76,243.24v4.92h-3v-14h5.32a9.4,9.4,0,0,1,2.28.26,4.81,4.81,0,0,1,1.74.8,3.7,3.7,0,0,1,1.12,1.38,4.61,4.61,0,0,1,.4,2,4.87,4.87,0,0,1-.41,2.07,3.85,3.85,0,0,1-1.14,1.44,4.83,4.83,0,0,1-1.75.84,8.76,8.76,0,0,1-2.24.27Zm4.82-4.62a1.68,1.68,0,0,0-.69-1.56,4.11,4.11,0,0,0-2.09-.42h-2v4.12h2a3.6,3.6,0,0,0,2.09-.5A1.88,1.88,0,0,0,218.58,238.62Z"/><path class="cls-1" d="M226,234.16h3v14h-3Z"/><path class="cls-1" d="M244.8,238.42a3.94,3.94,0,0,1-2.66,4l3.22,5.74h-3.3l-2.9-5.3H237.3v5.3h-3v-14h5.12a8.89,8.89,0,0,1,2.21.25,4.78,4.78,0,0,1,1.69.77,3.46,3.46,0,0,1,1.08,1.32A4.47,4.47,0,0,1,244.8,238.42Zm-3.08,0a1.51,1.51,0,0,0-.65-1.41,3.91,3.91,0,0,0-2-.39h-1.8v3.78h1.8a3.48,3.48,0,0,0,2-.45A1.74,1.74,0,0,0,241.72,238.44Z"/><path class="cls-1" d="M249.84,234.16h3v14h-3Z"/><path class="cls-1" d="M257.06,234.16h11.1v2.5h-4v11.5h-3v-11.5h-4Z"/></g><g id="ICON"><path class="cls-1" d="M125.54,160.43l6.4-6.86a10.8,10.8,0,0,0-.62-1.11c-1.11-1.79-.79-3.08,1.11-4.16q9-5.12,17.95-10.42a9.65,9.65,0,0,0,2.8-2.52q11.41-15.6,22.73-31.26c1.78-2.44,3.24-2.43,4.75.17q13.36,23.07,26.65,46.18c1.46,2.53.61,3.9-2.23,4.19-10,1-20,2.16-30,3.23-2.48.26-5,.38-7.46.68-1.47.17-2.92.56-4.84.94l4.12,7.16c2.25-1.3,4.36-2.47,6.41-3.72,1.86-1.12,3.3-.94,4.4,1.07,1.39,2.54,2.89,5,4.3,7.54,1.28,2.29,1,3.08-1.32,4.45l-6.27,3.64c1.84,3.23,3.65,6.41,5.45,9.59,1.56,2.75,1.39,3.39-1.34,5-1.95,1.13-3.9,2.26-5.86,3.35-2.3,1.28-3.15,1.06-4.5-1.26q-8-13.89-16-27.8c-.32-.54-.7-1.06-1.12-1.68l-5.25,3c-3,1.71-3.4,1.61-5.18-1.24-.21-.34-.44-.66-.77-1.14-.79.41-1.56.79-2.3,1.21-5,2.85-8.67,1.69-11.18-3.56l-.8-1.71Zm52.59-51.84C171,118.38,164,127.86,157.18,137.4a2.86,2.86,0,0,0-.16,2.5q3.63,6.67,7.57,13.18a2.82,2.82,0,0,0,2.21,1.12c5.53-.43,11.06-1,16.58-1.59,1.85-.2,3.69-.53,5.79-.83l-10.56-18.32a20.52,20.52,0,0,1-2.16-4,2.89,2.89,0,0,1,.86-2.6c.63-.35,1.91.14,2.72.6.55.3.81,1.16,1.17,1.79,3.89,6.76,7.76,13.54,11.7,20.27.43.72,1.32,1.65,2,1.65,2.35,0,4.71-.38,7.43-.65Zm-17,47.3-8.28-14.35-17.1,9.89,8.33,14.36Zm14.63,34.81L159.2,162l-4.32,2.55c5.59,9.67,11,19.09,16.56,28.66Zm-6.66-20.28,3.19,5.42,5.38-3.17-3.15-5.36Zm-34.82-12.79c-1.58,1.6-3.3,2.82-4.17,4.49-.33.64,1.29,3.29,2,3.3,1.85,0,3.72-1,5.76-1.6Z"/><path class="cls-1" d="M234.46,132.36a11.82,11.82,0,0,1-3.26,1.06c-7.33.09-14.65,0-22,.05-1.43,0-2.87,0-2.94-2s1.41-2.24,2.95-2.24c7.33,0,14.65-.05,22,.05,1.09,0,2.17.73,3.25,1.12Z"/><path class="cls-1" d="M224.38,111.49A5.69,5.69,0,0,1,223,113c-6.64,3.91-13.29,7.81-20,11.54a3.24,3.24,0,0,1-3.06-.53c-1-1.1-.42-2.42.92-3.19,6.68-3.85,13.34-7.73,20.05-11.52C222.76,108.29,224.39,109.15,224.38,111.49Z"/><path class="cls-1" d="M212,91.92c-.43,1-.66,1.64-1,2.25-3.67,6.41-7.38,12.79-11,19.21-.79,1.38-1.88,2.18-3.33,1.38s-1.21-2.25-.45-3.56c3.77-6.54,7.49-13.1,11.37-19.57a3.75,3.75,0,0,1,2.68-1.3C210.79,90.29,211.41,91.34,212,91.92Z"/><path d="M178.13,108.59l24.2,41.92c-2.72.27-5.08.64-7.43.65-.68,0-1.57-.93-2-1.65-3.94-6.73-7.81-13.51-11.7-20.27-.36-.63-.62-1.49-1.17-1.79-.81-.46-2.09-1-2.72-.6a2.89,2.89,0,0,0-.86,2.6,20.52,20.52,0,0,0,2.16,4l10.56,18.32c-2.1.3-3.94.63-5.79.83-5.52.58-11,1.16-16.58,1.59a2.82,2.82,0,0,1-2.21-1.12q-3.93-6.5-7.57-13.18a2.86,2.86,0,0,1,.16-2.5C164,127.86,171,118.38,178.13,108.59Z"/><path d="M161.11,155.89l-17.05,9.9-8.33-14.36,17.1-9.89Z"/><path d="M175.74,190.7l-4.3,2.55c-5.52-9.57-11-19-16.56-28.66L159.2,162Z"/><path d="M169.08,170.42l5.42-3.11,3.15,5.36-5.38,3.17Z"/><path d="M134.26,157.63l3.63,6.19c-2,.63-3.91,1.61-5.76,1.6-.75,0-2.37-2.66-2-3.3C131,160.45,132.68,159.23,134.26,157.63Z"/></g></svg>