<svg xmlns="http://www.w3.org/2000/svg" viewBox="0 0 360 360"><defs><style>.cls-1{fill:#f1f2f2;}.cls-2{fill:#ef4a2b;}.cls-3,.cls-4{fill:none;stroke:#ef4a2b;stroke-miterlimit:10;stroke-width:5px;}.cls-4{stroke-linecap:round;}.cls-5{fill:#fff;}</style></defs><g id="BACKGROUND"><rect class="cls-1" x="0.95" y="-0.17" width="360" height="360"/></g><g id="LINE_ONE" data-name="LINE ONE"><path class="cls-2" d="M123.12,234.16h3v11.5h6.12v2.5h-9.12Z"/><path class="cls-2" d="M136.44,248.16v-14H146v2.48H139.4v3.08h6.12v2.48H139.4v3.48h6.68v2.48Z"/><path class="cls-2" d="M162.88,248.16h-3.1l-1.12-3.24h-5l-1.12,3.24h-2.94l5-14h3.22Zm-6.76-10.72c0,.11-.07.26-.14.47s-.14.44-.22.7-.17.54-.27.84-.2.59-.29.87c-.23.69-.47,1.43-.74,2.22h3.38c-.27-.79-.51-1.53-.74-2.22-.15-.4-.26-.73-.35-1s-.17-.51-.24-.75-.14-.46-.21-.67-.11-.36-.14-.47Z"/><path class="cls-2" d="M177.5,238.42a3.94,3.94,0,0,1-2.66,4l3.22,5.74h-3.3l-2.9-5.3H170v5.3h-3v-14h5.12a8.89,8.89,0,0,1,2.21.25,4.78,4.78,0,0,1,1.69.77,3.46,3.46,0,0,1,1.08,1.32A4.47,4.47,0,0,1,177.5,238.42Zm-3.08,0a1.51,1.51,0,0,0-.65-1.41,3.91,3.91,0,0,0-2-.39H170v3.78h1.8a3.48,3.48,0,0,0,2-.45A1.74,1.74,0,0,0,174.42,238.44Z"/><path class="cls-2" d="M182.54,234.16h3.12l2.32,3.76,1.08,1.75.84,1.37.8,1.29.64,1h.06v-9.2h2.84v14h-3.12l-2.28-3.7-1.07-1.73c-.29-.46-.57-.92-.85-1.38l-.81-1.32c-.26-.42-.48-.78-.67-1.07h-.06v9.2h-2.84Z"/><path class="cls-2" d="M199.52,234.16h3v14h-3Z"/><path class="cls-2" d="M207.8,234.16h3.12l2.32,3.76,1.08,1.75.84,1.37.8,1.29.64,1h.06v-9.2h2.84v14h-3.12l-2.28-3.7L213,242.73c-.29-.46-.57-.92-.85-1.38l-.81-1.32c-.26-.42-.48-.78-.67-1.07h-.06v9.2H207.8Z"/><path class="cls-2" d="M230.5,240.4h6.44v7.76h-2.72v-1.44a3.69,3.69,0,0,1-1.36,1.22,4.83,4.83,0,0,1-2.34.5,6.29,6.29,0,0,1-2.75-.57,5.72,5.72,0,0,1-2-1.55,6.7,6.7,0,0,1-1.19-2.3,9.56,9.56,0,0,1-.4-2.82,9,9,0,0,1,.47-3,6.53,6.53,0,0,1,1.37-2.31,6.18,6.18,0,0,1,2.19-1.51,7.54,7.54,0,0,1,2.93-.54,6.74,6.74,0,0,1,3.62.93,5.74,5.74,0,0,1,2.26,2.75l-2.78,1.14A3.59,3.59,0,0,0,233,237a3.24,3.24,0,0,0-2-.61,3.35,3.35,0,0,0-2.72,1.25,5.72,5.72,0,0,0-1,3.69q0,4.68,3.7,4.68a4,4,0,0,0,1.08-.15,3.2,3.2,0,0,0,1-.46,2.51,2.51,0,0,0,.73-.79,2.24,2.24,0,0,0,.28-1.16v-.64H230.5Z"/></g><g id="LINE_TWO" data-name="LINE TWO"><path class="cls-2" d="M104.27,266V252h9.54v2.48h-6.58v3.07h6.12V260h-6.12v3.47h6.68V266Z"/><path class="cls-2" d="M120.61,252c.5,1.4,1,2.75,1.4,4.05.27.77.49,1.41.66,1.93s.35,1,.52,1.57.34,1,.5,1.53.3.93.42,1.32h0c.12-.39.26-.83.42-1.33l.51-1.59c.18-.56.37-1.14.57-1.72s.4-1.16.58-1.71c.44-1.3.91-2.65,1.4-4.05h3.08l-5.16,14h-3.06l-5.1-14Z"/><path class="cls-2" d="M134.83,266V252h9.54v2.48h-6.58v3.07h6.12V260h-6.12v3.47h6.68V266Z"/><path class="cls-2" d="M159.59,256.21a3.94,3.94,0,0,1-2.66,4l3.22,5.74h-3.3l-2.9-5.3h-1.86V266h-3V252h5.12a8.84,8.84,0,0,1,2.21.25,4.69,4.69,0,0,1,1.69.76,3.42,3.42,0,0,1,1.08,1.33A4.33,4.33,0,0,1,159.59,256.21Zm-3.08,0a1.48,1.48,0,0,0-.65-1.41,3.91,3.91,0,0,0-2-.39h-1.8v3.78h1.8a3.39,3.39,0,0,0,2-.46A1.68,1.68,0,0,0,156.51,256.23Z"/><path class="cls-2" d="M167.87,260.08l-5.3-8.13H166l3.42,5.36,3.4-5.36h3.34l-5.3,8.13V266h-3Z"/><path class="cls-2" d="M197.35,252l-3.5,14h-3.48c-.29-1.3-.57-2.53-.84-3.7-.16-.7-.29-1.28-.4-1.75s-.21-.93-.31-1.39-.2-.92-.3-1.34-.18-.8-.25-1.11h-.06c-.06.31-.14.68-.24,1.12s-.2.89-.32,1.38-.24,1-.36,1.54l-.36,1.55c-.28,1.17-.58,2.4-.9,3.7h-3.48L179,252h3c.35,1.49.67,2.91,1,4.26.17.79.32,1.45.44,2s.23,1,.34,1.56l.31,1.48c.1.46.18.85.23,1.18h.06l.25-1.2c.1-.47.22-1,.34-1.52s.26-1.12.4-1.73.28-1.18.41-1.75q.48-2,1-4.26h2.82q.54,2.24,1,4.26c.19.79.34,1.45.47,2s.25,1,.37,1.56.23,1,.33,1.48.18.85.25,1.18h.06l.25-1.2c.1-.47.21-1,.33-1.52s.25-1.12.38-1.73.27-1.18.4-1.75c.32-1.35.65-2.77,1-4.26Z"/><path class="cls-2" d="M201.47,252h3v5.54h5.3V252h3v14h-3V260h-5.3V266h-3Z"/><path class="cls-2" d="M218.05,266V252h9.54v2.48H221v3.07h6.12V260H221v3.47h6.68V266Z"/><path class="cls-2" d="M242.81,256.21a4.26,4.26,0,0,1-.71,2.54,4.21,4.21,0,0,1-1.95,1.46l3.22,5.74h-3.3l-2.9-5.3h-1.86V266h-3V252h5.12a8.89,8.89,0,0,1,2.21.25,4.77,4.77,0,0,1,1.69.76,3.42,3.42,0,0,1,1.08,1.33A4.47,4.47,0,0,1,242.81,256.21Zm-3.08,0a1.5,1.5,0,0,0-.65-1.41,3.91,3.91,0,0,0-2-.39h-1.8v3.78h1.8a3.39,3.39,0,0,0,2-.46A1.7,1.7,0,0,0,239.73,256.23Z"/><path class="cls-2" d="M247.85,266V252h9.54v2.48h-6.58v3.07h6.12V260h-6.12v3.47h6.68V266Z"/></g><g id="ICON"><circle class="cls-3" cx="180.07" cy="184.52" r="13.94"/><path class="cls-4" d="M140.92,167.47c1.35-1.84,15.2-20.13,39.59-20,24.62.13,38.31,18.89,39.59,20.7"/><path class="cls-4" d="M122.19,149.29c2-2.63,22.34-28.78,58.21-28.6,36.19.18,56.33,27,58.2,29.61"/><path class="cls-4" d="M101,133.59c2.69-3.47,30.34-38,79.05-37.77,49.15.24,76.49,35.69,79,39.11"/><rect class="cls-2" y="336.06" width="360" height="23.94"/><path class="cls-5" d="M265.76,352.49v-8.4h5.72v1.49h-4v1.84h3.68v1.49h-3.68V351h4v1.49Z"/><path class="cls-5" d="M278.79,348.08l3.11,4.41h-2.16l-2-2.92-2.06,2.92h-2l3.08-4.32-2.84-4.08H276l1.77,2.59,1.82-2.59h2Z"/><path class="cls-5" d="M286.16,349.54v2.95h-1.79v-8.4h3.19a5.81,5.81,0,0,1,1.37.15,3.12,3.12,0,0,1,1,.48,2.26,2.26,0,0,1,.67.83,2.81,2.81,0,0,1,.25,1.21,3,3,0,0,1-.25,1.25,2.5,2.5,0,0,1-.68.86,2.84,2.84,0,0,1-1,.5,5.2,5.2,0,0,1-1.35.17Zm2.89-2.78a1,1,0,0,0-.41-.93,2.48,2.48,0,0,0-1.26-.25h-1.22v2.47h1.22a2.17,2.17,0,0,0,1.26-.3A1.15,1.15,0,0,0,289.05,346.76Z"/><path class="cls-5" d="M293.53,352.49v-8.4h5.72v1.49H295.3v1.84H299v1.49H295.3V351h4v1.49Z"/><path class="cls-5" d="M308.38,346.64a2.36,2.36,0,0,1-1.6,2.4l1.94,3.45h-2L305,349.31h-1.12v3.18h-1.79v-8.4h3.07a5.41,5.41,0,0,1,1.33.15,2.89,2.89,0,0,1,1,.46,2.15,2.15,0,0,1,.64.79A2.71,2.71,0,0,1,308.38,346.64Zm-1.85,0a.91.91,0,0,0-.39-.85,2.3,2.3,0,0,0-1.18-.23h-1.08v2.26H305a2.08,2.08,0,0,0,1.18-.27A1,1,0,0,0,306.53,346.66Z"/><path class="cls-5" d="M311.41,344.09h1.8v8.4h-1.8Z"/><path class="cls-5" d="M316.37,352.49v-8.4h5.73v1.49h-4v1.84h3.67v1.49h-3.67V351h4v1.49Z"/><path class="cls-5" d="M324.94,344.09h1.87c.49.79.95,1.54,1.4,2.25l.64,1.05.51.83.48.77.38.62h0v-5.52H332v8.4h-1.87l-1.37-2.22c-.25-.42-.47-.76-.64-1l-.51-.83-.49-.79c-.15-.25-.29-.47-.4-.64h0v5.52h-1.71Z"/><path class="cls-5" d="M334.78,348.29a5.51,5.51,0,0,1,.29-1.84,3.81,3.81,0,0,1,.82-1.38,3.65,3.65,0,0,1,1.3-.86,4.79,4.79,0,0,1,1.71-.29,4.07,4.07,0,0,1,2.25.59,3.21,3.21,0,0,1,1.3,1.79l-1.75.61a2.43,2.43,0,0,0-.65-1.1,1.72,1.72,0,0,0-1.19-.39,2,2,0,0,0-1.67.81,2.63,2.63,0,0,0-.41.91,4.59,4.59,0,0,0-.14,1.15,4.51,4.51,0,0,0,.14,1.14,2.81,2.81,0,0,0,.41.91,1.92,1.92,0,0,0,.7.6,2.18,2.18,0,0,0,1,.22,1.78,1.78,0,0,0,1.14-.35,2.15,2.15,0,0,0,.66-1.06l1.73.61a3.49,3.49,0,0,1-1.3,1.68,3.81,3.81,0,0,1-2.25.62,4.44,4.44,0,0,1-1.67-.3,3.54,3.54,0,0,1-1.29-.85,3.69,3.69,0,0,1-.82-1.37A5.61,5.61,0,0,1,334.78,348.29Z"/><path class="cls-5" d="M345.09,352.49v-8.4h5.72v1.49h-3.95v1.84h3.68v1.49h-3.68V351h4v1.49Z"/></g></svg>