<svg xmlns="http://www.w3.org/2000/svg" viewBox="0 0 360 360"><defs><style>.cls-1{fill:#f1f2f2;}.cls-2{fill:#d2bf2d;}.cls-3,.cls-4{fill:#fff;}.cls-3{stroke:#d2bf2d;stroke-miterlimit:10;stroke-width:5px;}</style></defs><g id="BACKGROUND"><rect class="cls-1" x="0.82" width="360" height="360"/></g><g id="LINE_ONE" data-name="LINE ONE"><path class="cls-2" d="M131.43,233.6a1.34,1.34,0,0,0,.78,1.29,9.48,9.48,0,0,0,2.48.67,7.86,7.86,0,0,1,3.67,1.38,3.48,3.48,0,0,1,1.17,2.86,3.92,3.92,0,0,1-.42,1.83,4.07,4.07,0,0,1-1.17,1.38,5.44,5.44,0,0,1-1.79.88,7.77,7.77,0,0,1-2.26.31,7.68,7.68,0,0,1-2.38-.35,5.66,5.66,0,0,1-1.8-.93,4.41,4.41,0,0,1-1.16-1.36,3.81,3.81,0,0,1-.46-1.62l3-.48a2.56,2.56,0,0,0,.79,1.67,2.84,2.84,0,0,0,2,.65,4.61,4.61,0,0,0,1-.1,2.52,2.52,0,0,0,.82-.33,1.66,1.66,0,0,0,.55-.57,1.61,1.61,0,0,0,.2-.82,1.35,1.35,0,0,0-.65-1.2,6.31,6.31,0,0,0-2.29-.68,16.15,16.15,0,0,1-2-.46,5.23,5.23,0,0,1-1.63-.77,3.51,3.51,0,0,1-1.08-1.22,3.73,3.73,0,0,1-.39-1.79,4,4,0,0,1,.4-1.84,3.72,3.72,0,0,1,1.12-1.31,5,5,0,0,1,1.7-.79,8.48,8.48,0,0,1,2.14-.26,8.16,8.16,0,0,1,2,.25,5.77,5.77,0,0,1,1.67.74,4.36,4.36,0,0,1,1.21,1.21,4.49,4.49,0,0,1,.66,1.64l-3,.66a2.45,2.45,0,0,0-.82-1.52,2.67,2.67,0,0,0-1.78-.56,2.78,2.78,0,0,0-1.69.42A1.34,1.34,0,0,0,131.43,233.6Z"/><path class="cls-2" d="M142.63,229.92h11.1v2.5h-4v11.5h-3v-11.5h-4Z"/><path class="cls-2" d="M163.47,244.2a5.56,5.56,0,0,1-4.26-1.44,5.65,5.65,0,0,1-1.34-4v-8.84h3v8.86a3.32,3.32,0,0,0,.64,2.11,2.73,2.73,0,0,0,3.92,0,3.32,3.32,0,0,0,.64-2.11v-8.86h3v8.84a5.65,5.65,0,0,1-1.34,4A5.56,5.56,0,0,1,163.47,244.2Z"/><path class="cls-2" d="M174.27,229.92h5.22a8.36,8.36,0,0,1,2.88.47,5.66,5.66,0,0,1,3.51,3.55,9.68,9.68,0,0,1,0,6,5.79,5.79,0,0,1-1.35,2.19,5.73,5.73,0,0,1-2.16,1.36,8.13,8.13,0,0,1-2.88.47h-5.22Zm9,7a7,7,0,0,0-.23-1.85,4.07,4.07,0,0,0-.7-1.43,3.11,3.11,0,0,0-1.19-.92,4.26,4.26,0,0,0-1.72-.32h-2.12v9h2.12a4.26,4.26,0,0,0,1.72-.32,3,3,0,0,0,1.19-.92,4.07,4.07,0,0,0,.7-1.43A7,7,0,0,0,183.25,236.92Z"/><path class="cls-2" d="M191.05,243.92v-14h9.54v2.48H194v3.08h6.12V238H194v3.48h6.68v2.48Z"/><path class="cls-2" d="M205.33,229.92h3.12l2.32,3.76,1.08,1.75.84,1.37.8,1.29.64,1h.06v-9.2H217v14h-3.12c-.8-1.29-1.56-2.52-2.28-3.7l-1.07-1.73c-.29-.46-.57-.92-.85-1.38l-.81-1.32-.67-1.07h-.06v9.2h-2.84Z"/><path class="cls-2" d="M221.25,229.92h11.1v2.5h-4v11.5h-3v-11.5h-4Z"/></g><g id="LINE_TWO" data-name="LINE TWO"><path class="cls-2" d="M90.37,261.71v-14h9.54v2.48H93.33v3.08h6.12v2.48H93.33v3.48H100v2.48Z"/><path class="cls-2" d="M110.81,261.71c-.2-.55-.45-1.26-.75-2.15l-.93-2.77q-.48-1.44-.93-2.82c-.3-.92-.54-1.7-.73-2.32h-.06v10.06h-2.76v-14h4.2c.57,1.71,1.09,3.27,1.56,4.7l.69,2.07c.18.52.35,1,.5,1.51s.29.91.42,1.3.22.67.27.84l.26-.84c.12-.39.26-.84.43-1.37s.35-1.09.54-1.7.39-1.21.59-1.81c.45-1.43,1-3,1.5-4.7h4.18v14H117V251.65H117l-.48,1.49c-.19.58-.39,1.2-.61,1.85l-.67,2c-.23.67-.44,1.31-.64,1.92l-.55,1.65c-.17.49-.3.88-.41,1.16Z"/><path class="cls-2" d="M128.05,256.79v4.92h-3v-14h5.32a8.93,8.93,0,0,1,2.28.26,4.81,4.81,0,0,1,1.74.8,3.7,3.7,0,0,1,1.12,1.38,4.61,4.61,0,0,1,.4,2,4.87,4.87,0,0,1-.41,2.07,3.85,3.85,0,0,1-1.14,1.44,4.83,4.83,0,0,1-1.75.84,8.76,8.76,0,0,1-2.24.27Zm4.82-4.62a1.68,1.68,0,0,0-.69-1.56,4.11,4.11,0,0,0-2.09-.42h-2v4.12h2a3.6,3.6,0,0,0,2.09-.5A1.9,1.9,0,0,0,132.87,252.17Z"/><path class="cls-2" d="M139.75,254.71a8.83,8.83,0,0,1,.49-3.05,6.64,6.64,0,0,1,1.38-2.29,5.82,5.82,0,0,1,2.15-1.44,8.09,8.09,0,0,1,5.6,0,5.82,5.82,0,0,1,2.15,1.44,6.64,6.64,0,0,1,1.38,2.29,9.74,9.74,0,0,1,0,6.1,6.64,6.64,0,0,1-1.38,2.29,5.94,5.94,0,0,1-2.15,1.44,8.09,8.09,0,0,1-5.6,0,5.94,5.94,0,0,1-2.15-1.44,6.64,6.64,0,0,1-1.38-2.29A8.83,8.83,0,0,1,139.75,254.71Zm3.1,0a8,8,0,0,0,.23,2,4.33,4.33,0,0,0,.69,1.52,3.24,3.24,0,0,0,1.16,1,4,4,0,0,0,3.28,0,3.24,3.24,0,0,0,1.16-1,4.33,4.33,0,0,0,.69-1.52,8.38,8.38,0,0,0,0-3.9,4.33,4.33,0,0,0-.69-1.52,3.14,3.14,0,0,0-1.16-1,4,4,0,0,0-3.28,0,3.14,3.14,0,0,0-1.16,1,4.33,4.33,0,0,0-.69,1.52A7.9,7.9,0,0,0,142.85,254.71Z"/><path class="cls-2" d="M175.05,247.71l-3.5,14h-3.48c-.29-1.29-.57-2.53-.84-3.7l-.4-1.74c-.11-.47-.21-.93-.31-1.4s-.2-.91-.3-1.34l-.25-1.1h-.06c-.07.31-.15.67-.24,1.11s-.2.89-.32,1.39-.24,1-.36,1.53-.24,1-.36,1.55c-.28,1.17-.58,2.41-.9,3.7h-3.48l-3.52-14h3c.35,1.49.67,2.91,1,4.26.17.8.32,1.46.44,2s.23,1,.34,1.56l.31,1.48c.1.47.18.86.23,1.18h.06c.07-.32.15-.72.25-1.19s.21-1,.34-1.53l.4-1.72c.14-.6.28-1.19.41-1.76q.48-2,1-4.26h2.82q.54,2.23,1,4.26c.19.8.34,1.46.47,2s.25,1,.37,1.56.23,1,.33,1.48.18.86.25,1.18h.06c.07-.32.15-.72.25-1.19s.21-1,.33-1.53.25-1.12.38-1.72.27-1.19.4-1.76c.32-1.35.65-2.77,1-4.26Z"/><path class="cls-2" d="M179.17,261.71v-14h9.54v2.48h-6.58v3.08h6.12v2.48h-6.12v3.48h6.68v2.48Z"/><path class="cls-2" d="M203.93,252a4.26,4.26,0,0,1-.71,2.54,4.21,4.21,0,0,1-1.95,1.46l3.22,5.74h-3.3l-2.9-5.3h-1.86v5.3h-3v-14h5.12a8.89,8.89,0,0,1,2.21.25,4.78,4.78,0,0,1,1.69.77,3.39,3.39,0,0,1,1.08,1.32A4.47,4.47,0,0,1,203.93,252Zm-3.08,0a1.51,1.51,0,0,0-.65-1.41,3.91,3.91,0,0,0-2-.39h-1.8V254h1.8a3.48,3.48,0,0,0,2-.45A1.74,1.74,0,0,0,200.85,252Z"/><path class="cls-2" d="M215.13,261.71c-.2-.55-.45-1.26-.75-2.15l-.93-2.77q-.48-1.44-.93-2.82c-.3-.92-.54-1.7-.73-2.32h-.06v10.06H209v-14h4.2c.57,1.71,1.09,3.27,1.56,4.7l.69,2.07c.18.52.35,1,.5,1.51s.29.91.42,1.3.22.67.27.84l.26-.84c.12-.39.26-.84.43-1.37s.35-1.09.54-1.7.39-1.21.59-1.81c.45-1.43.95-3,1.5-4.7h4.18v14h-2.76V251.65h-.06l-.48,1.49c-.19.58-.39,1.2-.61,1.85l-.67,2c-.23.67-.44,1.31-.64,1.92l-.55,1.65c-.17.49-.3.88-.41,1.16Z"/><path class="cls-2" d="M229.39,261.71v-14h9.54v2.48h-6.58v3.08h6.12v2.48h-6.12v3.48H239v2.48Z"/><path class="cls-2" d="M243.67,247.71h3.12l2.32,3.76c.44.7.8,1.29,1.08,1.75l.84,1.37.8,1.29.64,1h.06v-9.2h2.84v14h-3.12L250,258l-1.07-1.73c-.29-.46-.57-.92-.85-1.38l-.81-1.32c-.26-.42-.48-.78-.67-1.07h-.06v9.2h-2.84Z"/><path class="cls-2" d="M259.59,247.71h11.1v2.5h-4v11.5h-3v-11.5h-4Z"/></g><g id="ICON"><path class="cls-2" d="M123.18,160.56a17.23,17.23,0,1,1,17.37-17A17.3,17.3,0,0,1,123.18,160.56Z"/><rect class="cls-2" x="97.84" y="164.58" width="52.71" height="27.22" rx="10.01"/><path class="cls-2" d="M235.78,160.56a17.23,17.23,0,1,1,17.38-17A17.29,17.29,0,0,1,235.78,160.56Z"/><rect class="cls-2" x="197.72" y="164.58" width="65.43" height="27.22" rx="10.01"/><path class="cls-3" d="M175.52,197.4H143.91c-3.79,0-4.58-.75-4.6-4.55,0-5.33-.05-10.65,0-16,.12-10.19,6.92-17,17.12-17.07q18.69-.11,37.38,0c2.39,0,3.64-.62,4.46-3,2.1-6.08,4.6-12,6.73-18.09a20.83,20.83,0,0,0,1.19-6.58c.14-11.21,0-22.43.16-33.64.09-5.24,3.9-8.77,9.11-9.13a9.56,9.56,0,0,1,10.4,7.76,16.57,16.57,0,0,1,.3,3.37c0,11.9.38,23.81-.18,35.68-.23,4.68-2.33,9.34-4,13.88-2.93,8.18-6.18,16.25-9.2,24.41a14.6,14.6,0,0,0-.83,4.59c-.11,4.64-.1,9.29,0,13.93.05,3.16-1.32,4.43-4.52,4.4-10.65-.11-21.29,0-31.94,0Z"/><path class="cls-3" d="M175.59,152a21.94,21.94,0,1,1,22.13-21.69A22,22,0,0,1,175.59,152Z"/><rect class="cls-2" y="336.06" width="360" height="23.94"/><path class="cls-4" d="M235.07,348.29a5.51,5.51,0,0,1,.29-1.84,4,4,0,0,1,.82-1.38,3.65,3.65,0,0,1,1.3-.86,4.87,4.87,0,0,1,1.71-.29,4.11,4.11,0,0,1,2.26.59,3.2,3.2,0,0,1,1.29,1.78l-1.75.62a2.34,2.34,0,0,0-.65-1.1,1.71,1.71,0,0,0-1.19-.39,2,2,0,0,0-1,.22,1.88,1.88,0,0,0-.69.59,2.47,2.47,0,0,0-.42.91,4.59,4.59,0,0,0-.14,1.15,4.51,4.51,0,0,0,.14,1.14,2.63,2.63,0,0,0,.42.91,1.9,1.9,0,0,0,.69.6,2.19,2.19,0,0,0,1,.22,1.77,1.77,0,0,0,1.13-.35,2.23,2.23,0,0,0,.67-1.06l1.72.61A3.53,3.53,0,0,1,241.4,352a3.87,3.87,0,0,1-2.26.62,4.47,4.47,0,0,1-1.67-.3,3.54,3.54,0,0,1-1.29-.85,3.82,3.82,0,0,1-.82-1.37A5.61,5.61,0,0,1,235.07,348.29Z"/><path class="cls-4" d="M252.68,352.49h-1.86l-.67-1.95h-3l-.67,1.95H244.7l3-8.4h1.93Zm-4.06-6.43a2.83,2.83,0,0,1-.08.28c0,.12-.09.26-.13.42l-.17.5c-.06.18-.11.36-.17.52l-.44,1.34h2l-.44-1.34c-.09-.24-.16-.43-.21-.59s-.1-.31-.14-.45-.09-.28-.13-.4a2.83,2.83,0,0,1-.08-.28Z"/><path class="cls-4" d="M258.86,352.49q-.18-.5-.45-1.29l-.56-1.66c-.19-.58-.38-1.14-.56-1.7s-.32-1-.44-1.39h0v6h-1.66v-8.4h2.52c.35,1,.66,2,.94,2.82.17.51.3.92.41,1.24s.21.62.3.91.18.54.25.78.13.4.17.5l.15-.5c.07-.24.16-.51.26-.83s.21-.65.32-1l.36-1.08q.41-1.29.9-2.82h2.51v8.4h-1.66v-6h0l-.28.9c-.12.34-.24.71-.37,1.11s-.27.79-.4,1.19-.27.79-.39,1.15-.23.7-.33,1l-.24.7Z"/><path class="cls-4" d="M269.2,349.54v2.95h-1.79v-8.4h3.2a5.66,5.66,0,0,1,1.36.15,3.18,3.18,0,0,1,1,.48,2.18,2.18,0,0,1,.67.83,2.81,2.81,0,0,1,.24,1.21,2.77,2.77,0,0,1-.25,1.24,2.34,2.34,0,0,1-.68.87,2.7,2.7,0,0,1-1.05.5,5.17,5.17,0,0,1-1.34.17Zm2.89-2.78a1,1,0,0,0-.41-.93,2.44,2.44,0,0,0-1.25-.25H269.2v2.47h1.23a2.13,2.13,0,0,0,1.25-.3A1.13,1.13,0,0,0,272.09,346.76Z"/><path class="cls-4" d="M279.88,352.66a3.34,3.34,0,0,1-2.56-.87,3.41,3.41,0,0,1-.8-2.4v-5.3h1.8v5.31a2,2,0,0,0,.38,1.27,1.64,1.64,0,0,0,2.36,0,2,2,0,0,0,.38-1.27v-5.31h1.8v5.3a3.41,3.41,0,0,1-.8,2.4A3.34,3.34,0,0,1,279.88,352.66Z"/><path class="cls-4" d="M288,346.29a.81.81,0,0,0,.47.78,5.38,5.38,0,0,0,1.49.4,4.79,4.79,0,0,1,2.2.83,2.07,2.07,0,0,1,.7,1.72,2.3,2.3,0,0,1-.25,1.09,2.43,2.43,0,0,1-.7.83,3.21,3.21,0,0,1-1.08.53,4.79,4.79,0,0,1-1.35.19,4.53,4.53,0,0,1-1.43-.21,3.67,3.67,0,0,1-1.08-.56,2.6,2.6,0,0,1-.7-.82,2.24,2.24,0,0,1-.27-1l1.8-.29a1.55,1.55,0,0,0,.47,1,1.71,1.71,0,0,0,1.21.39,2.77,2.77,0,0,0,.6-.06,1.49,1.49,0,0,0,.5-.19,1.1,1.1,0,0,0,.33-.35.94.94,0,0,0,.12-.49.81.81,0,0,0-.39-.72,3.92,3.92,0,0,0-1.38-.41,9.6,9.6,0,0,1-1.22-.27,3.42,3.42,0,0,1-1-.46,2.2,2.2,0,0,1-.65-.74,2.32,2.32,0,0,1-.23-1.07,2.38,2.38,0,0,1,.24-1.1,2.13,2.13,0,0,1,.67-.79,3,3,0,0,1,1-.47,5.12,5.12,0,0,1,2.5,0,3.49,3.49,0,0,1,1,.44,2.63,2.63,0,0,1,.72.73,2.57,2.57,0,0,1,.4,1l-1.82.4a1.47,1.47,0,0,0-.5-.91,1.55,1.55,0,0,0-1.06-.34,1.74,1.74,0,0,0-1,.25A.82.82,0,0,0,288,346.29Z"/><path class="cls-4" d="M300.9,344.09q.45,1.26.84,2.43c.16.46.3.84.4,1.16s.21.62.31.94.21.62.3.92.18.56.25.79h0c.07-.23.15-.5.25-.8l.31-.95c.1-.34.22-.68.34-1s.23-.69.35-1q.39-1.17.84-2.43H307l-3.09,8.4H302l-3.06-8.4Z"/><path class="cls-4" d="M315.71,352.49h-1.86l-.67-1.95h-3l-.67,1.95h-1.77l3-8.4h1.93Zm-4-6.43-.09.28-.13.42-.16.5c-.06.18-.12.36-.18.52-.13.42-.28.86-.44,1.34h2l-.45-1.34c-.08-.24-.15-.43-.21-.59s-.1-.31-.14-.45-.09-.28-.13-.4l-.08-.28Z"/><path class="cls-4" d="M318.2,344.09H320V351h3.67v1.5H318.2Z"/><path class="cls-4" d="M329.32,352.66a3.34,3.34,0,0,1-2.56-.87,3.41,3.41,0,0,1-.8-2.4v-5.3h1.8v5.31a2,2,0,0,0,.38,1.27,1.64,1.64,0,0,0,2.36,0,2,2,0,0,0,.38-1.27v-5.31h1.8v5.3a3.41,3.41,0,0,1-.8,2.4A3.34,3.34,0,0,1,329.32,352.66Z"/><path class="cls-4" d="M335.8,352.49v-8.4h5.72v1.49h-3.95v1.84h3.68v1.49h-3.68V351h4v1.49Z"/><path class="cls-4" d="M346,346.29a.81.81,0,0,0,.47.78,5.38,5.38,0,0,0,1.49.4,4.79,4.79,0,0,1,2.2.83,2.07,2.07,0,0,1,.7,1.72,2.3,2.3,0,0,1-.25,1.09,2.43,2.43,0,0,1-.7.83,3.21,3.21,0,0,1-1.08.53,4.84,4.84,0,0,1-1.35.19,4.53,4.53,0,0,1-1.43-.21,3.44,3.44,0,0,1-1.08-.56,2.6,2.6,0,0,1-.7-.82,2.11,2.11,0,0,1-.27-1l1.8-.29a1.5,1.5,0,0,0,.47,1,1.71,1.71,0,0,0,1.21.39,2.91,2.91,0,0,0,.6-.06,1.43,1.43,0,0,0,.49-.19,1.1,1.1,0,0,0,.33-.35.94.94,0,0,0,.12-.49.81.81,0,0,0-.39-.72,3.85,3.85,0,0,0-1.37-.41,9.6,9.6,0,0,1-1.22-.27,3.29,3.29,0,0,1-1-.46,2.1,2.1,0,0,1-.65-.74,2.2,2.2,0,0,1-.23-1.07,2.38,2.38,0,0,1,.24-1.1,2.13,2.13,0,0,1,.67-.79,3,3,0,0,1,1-.47,4.72,4.72,0,0,1,1.28-.16,4.66,4.66,0,0,1,1.21.15,3.55,3.55,0,0,1,1,.44,2.63,2.63,0,0,1,.72.73,2.74,2.74,0,0,1,.4,1l-1.83.4a1.41,1.41,0,0,0-.49-.91,1.56,1.56,0,0,0-1.07-.34,1.72,1.72,0,0,0-1,.25A.82.82,0,0,0,346,346.29Z"/></g></svg>