<svg xmlns="http://www.w3.org/2000/svg" viewBox="0 0 360 360"><defs><style>.cls-1{fill:#f1f2f2;}.cls-2{fill:#d2bf2d;}.cls-3{fill:none;stroke:#d2bf2d;stroke-linecap:round;stroke-miterlimit:10;stroke-width:5px;}.cls-4{fill:#fff;}</style></defs><g id="BACKGROUND"><rect class="cls-1" width="360" height="360"/></g><g id="LINE_ONE" data-name="LINE ONE"><path class="cls-2" d="M131.43,237.84a1.34,1.34,0,0,0,.78,1.29,9.48,9.48,0,0,0,2.48.67,7.86,7.86,0,0,1,3.67,1.38,3.48,3.48,0,0,1,1.17,2.86,3.92,3.92,0,0,1-.42,1.83,4.07,4.07,0,0,1-1.17,1.38,5.65,5.65,0,0,1-1.79.88,8.12,8.12,0,0,1-2.26.31,7.68,7.68,0,0,1-2.38-.35,6.1,6.1,0,0,1-1.8-.93,4.41,4.41,0,0,1-1.16-1.36,3.81,3.81,0,0,1-.46-1.62l3-.48a2.58,2.58,0,0,0,.79,1.67,2.84,2.84,0,0,0,2,.65,5.32,5.32,0,0,0,1-.1,2.52,2.52,0,0,0,.82-.33,1.86,1.86,0,0,0,.55-.57,1.63,1.63,0,0,0,.2-.82,1.35,1.35,0,0,0-.65-1.2,6.31,6.31,0,0,0-2.29-.68,18.1,18.1,0,0,1-2-.46,5.72,5.72,0,0,1-1.63-.77,3.6,3.6,0,0,1-1.08-1.22,3.79,3.79,0,0,1-.39-1.79,3.93,3.93,0,0,1,.4-1.84,3.72,3.72,0,0,1,1.12-1.31,4.84,4.84,0,0,1,1.7-.79,8,8,0,0,1,2.14-.26,7.71,7.71,0,0,1,2,.25,5.28,5.28,0,0,1,1.67.74,4.23,4.23,0,0,1,1.21,1.21,4.42,4.42,0,0,1,.66,1.64l-3,.66a2.45,2.45,0,0,0-.82-1.52,2.62,2.62,0,0,0-1.78-.56,2.78,2.78,0,0,0-1.69.42A1.33,1.33,0,0,0,131.43,237.84Z"/><path class="cls-2" d="M142.63,234.16h11.1v2.5h-4v11.5h-3v-11.5h-4Z"/><path class="cls-2" d="M163.47,248.44a5.56,5.56,0,0,1-4.26-1.44,5.67,5.67,0,0,1-1.34-4v-8.84h3V243a3.35,3.35,0,0,0,.64,2.11,2.73,2.73,0,0,0,3.92,0,3.35,3.35,0,0,0,.64-2.11v-8.86h3V243a5.67,5.67,0,0,1-1.34,4A5.56,5.56,0,0,1,163.47,248.44Z"/><path class="cls-2" d="M174.27,234.16h5.22a8.13,8.13,0,0,1,2.88.47,5.65,5.65,0,0,1,2.16,1.36,5.79,5.79,0,0,1,1.35,2.19,9.68,9.68,0,0,1,0,6,5.66,5.66,0,0,1-3.51,3.55,8.36,8.36,0,0,1-2.88.47h-5.22Zm9,7a7,7,0,0,0-.23-1.85,4,4,0,0,0-.7-1.43,3,3,0,0,0-1.19-.92,4.1,4.1,0,0,0-1.72-.32h-2.12v9h2.12a4.26,4.26,0,0,0,1.72-.32,3.11,3.11,0,0,0,1.19-.92A4.07,4.07,0,0,0,183,243,7.1,7.1,0,0,0,183.25,241.16Z"/><path class="cls-2" d="M191.05,248.16v-14h9.54v2.48H194v3.08h6.12v2.48H194v3.48h6.68v2.48Z"/><path class="cls-2" d="M205.33,234.16h3.12l2.32,3.76c.44.7.8,1.29,1.08,1.75l.84,1.37.8,1.29.64,1h.06v-9.2H217v14h-3.12l-2.28-3.7-1.07-1.73c-.29-.46-.57-.92-.85-1.38L208.9,240c-.26-.42-.48-.78-.67-1.07h-.06v9.2h-2.84Z"/><path class="cls-2" d="M221.25,234.16h11.1v2.5h-4v11.5h-3v-11.5h-4Z"/></g><g id="LINE_TWO" data-name="LINE TWO"><path class="cls-2" d="M132.49,251.94l-3.5,14h-3.48c-.29-1.29-.57-2.52-.84-3.7l-.4-1.74c-.11-.46-.21-.93-.31-1.4s-.2-.91-.3-1.34-.18-.79-.25-1.1h-.06q-.1.46-.24,1.11c-.09.44-.2.9-.32,1.39s-.24,1-.36,1.53-.24,1.05-.36,1.55c-.28,1.18-.58,2.41-.9,3.7h-3.48l-3.52-14h3c.35,1.5.67,2.92,1,4.26.17.8.32,1.46.44,2s.23,1,.34,1.56.21,1,.31,1.48.18.86.23,1.18h.06c.07-.32.15-.71.25-1.19s.21-1,.34-1.53.26-1.12.4-1.72.28-1.18.41-1.76l1-4.26h2.82l1,4.26c.19.8.34,1.46.47,2s.25,1,.37,1.56.23,1,.33,1.48.18.86.25,1.18h.06c.07-.32.15-.71.25-1.19l.33-1.53c.12-.54.25-1.12.38-1.72s.27-1.18.4-1.76c.32-1.34.65-2.76,1-4.26Z"/><path class="cls-2" d="M136.61,265.94v-14h9.54v2.48h-6.58v3.08h6.12V260h-6.12v3.48h6.68v2.48Z"/><path class="cls-2" d="M150.89,251.94h3v11.5H160v2.5h-9.12Z"/><path class="cls-2" d="M164.21,251.94h3v11.5h6.12v2.5h-9.12Z"/><path class="cls-2" d="M177.53,251.94h6.08a5.26,5.26,0,0,1,1.75.28,4,4,0,0,1,1.3.77,3.47,3.47,0,0,1,.81,1.16,3.67,3.67,0,0,1,.28,1.45,3.33,3.33,0,0,1-.18,1.14,3,3,0,0,1-.47.87,2.58,2.58,0,0,1-.66.62,3.1,3.1,0,0,1-.77.39,3.6,3.6,0,0,1,.93.26,3.43,3.43,0,0,1,.87.57,2.87,2.87,0,0,1,.65.93,3.37,3.37,0,0,1,.25,1.38,4,4,0,0,1-.34,1.67,3.83,3.83,0,0,1-.94,1.32,4.34,4.34,0,0,1-1.42.87,4.8,4.8,0,0,1-1.8.32h-6.34Zm2.92,2.44v3.24h2.1a2.85,2.85,0,0,0,1.6-.36,1.46,1.46,0,0,0,.52-1.3,1.48,1.48,0,0,0-.45-1.22,2.44,2.44,0,0,0-1.51-.36Zm0,9.12h2.4a3,3,0,0,0,1.93-.45,1.65,1.65,0,0,0,.51-1.31,1.45,1.45,0,0,0-.62-1.37,3.91,3.91,0,0,0-1.86-.35h-2.36Z"/><path class="cls-2" d="M193,265.94v-14h9.54v2.48H196v3.08h6.12V260H196v3.48h6.68v2.48Z"/><path class="cls-2" d="M207.31,251.94h3v14h-3Z"/><path class="cls-2" d="M215.59,251.94h3.12L221,255.7l1.08,1.75.84,1.37.8,1.29.64,1h.06v-9.2h2.84v14h-3.12c-.8-1.29-1.56-2.52-2.28-3.7l-1.07-1.73c-.29-.46-.57-.92-.85-1.38l-.81-1.32-.67-1.07h-.06v9.2h-2.84Z"/><path class="cls-2" d="M238.29,258.18h6.44v7.76H242V264.5a3.69,3.69,0,0,1-1.36,1.22,4.72,4.72,0,0,1-2.34.5,6.29,6.29,0,0,1-2.75-.57,5.61,5.61,0,0,1-2-1.55,6.7,6.7,0,0,1-1.19-2.3A9.56,9.56,0,0,1,232,259a9,9,0,0,1,.47-3,6.53,6.53,0,0,1,1.37-2.31A6.31,6.31,0,0,1,236,252.2a7.54,7.54,0,0,1,2.93-.54,6.74,6.74,0,0,1,3.62.93,5.74,5.74,0,0,1,2.26,2.75l-2.78,1.14a3.64,3.64,0,0,0-1.22-1.73,3.3,3.3,0,0,0-2-.61,3.35,3.35,0,0,0-2.72,1.25,5.75,5.75,0,0,0-1,3.69q0,4.68,3.7,4.68a4,4,0,0,0,1.08-.15,3.2,3.2,0,0,0,1-.46,2.41,2.41,0,0,0,.73-.79,2.22,2.22,0,0,0,.28-1.16v-.64h-3.58Z"/></g><g id="ICON"><path class="cls-2" d="M180,95.33a49,49,0,1,1-49,49,49.05,49.05,0,0,1,49-49m0-5a54,54,0,1,0,54,54,54,54,0,0,0-54-54Z"/><path class="cls-3" d="M180,171.15c-15.62,0-23.74-9.18-23.74-9.18"/><path class="cls-3" d="M169.4,131a7.75,7.75,0,0,1-15.29,0"/><path class="cls-3" d="M180,171.15c15.62,0,23.74-9.18,23.74-9.18"/><path class="cls-3" d="M190.6,131a7.75,7.75,0,0,0,15.29,0"/><rect class="cls-2" y="336.06" width="360" height="23.94"/><path class="cls-4" d="M235.07,348.29a5.51,5.51,0,0,1,.29-1.84,4,4,0,0,1,.82-1.38,3.65,3.65,0,0,1,1.3-.86,4.87,4.87,0,0,1,1.71-.29,4.11,4.11,0,0,1,2.26.59,3.19,3.19,0,0,1,1.29,1.79l-1.75.61a2.34,2.34,0,0,0-.65-1.1,1.71,1.71,0,0,0-1.19-.39,2,2,0,0,0-1,.22,1.88,1.88,0,0,0-.69.59,2.47,2.47,0,0,0-.42.91,4.59,4.59,0,0,0-.14,1.15,4.51,4.51,0,0,0,.14,1.14,2.63,2.63,0,0,0,.42.91,1.81,1.81,0,0,0,.69.6,2.19,2.19,0,0,0,1,.22,1.77,1.77,0,0,0,1.13-.35,2.23,2.23,0,0,0,.67-1.06l1.72.61A3.53,3.53,0,0,1,241.4,352a3.87,3.87,0,0,1-2.26.62,4.47,4.47,0,0,1-1.67-.3,3.54,3.54,0,0,1-1.29-.85,3.82,3.82,0,0,1-.82-1.37A5.61,5.61,0,0,1,235.07,348.29Z"/><path class="cls-4" d="M252.68,352.49h-1.86l-.67-1.95h-3l-.67,1.95H244.7l3-8.4h1.93Zm-4.06-6.43a2.83,2.83,0,0,1-.08.28c0,.12-.09.26-.13.42l-.17.5c-.06.18-.11.36-.17.52l-.44,1.34h2l-.44-1.34c-.09-.24-.16-.43-.21-.59s-.1-.31-.14-.45-.09-.28-.13-.4a2.83,2.83,0,0,1-.08-.28Z"/><path class="cls-4" d="M258.86,352.49q-.18-.5-.45-1.29l-.56-1.66c-.19-.58-.38-1.14-.56-1.7s-.32-1-.44-1.39h0v6h-1.66v-8.4h2.52c.35,1,.66,2,.94,2.82.17.51.3.92.41,1.24s.21.62.3.91.18.54.25.78.13.4.17.5l.15-.5c.07-.24.16-.51.26-.83s.21-.65.32-1l.36-1.08q.41-1.29.9-2.82h2.51v8.4h-1.66v-6h0l-.28.9c-.12.34-.24.71-.37,1.11s-.27.79-.4,1.19-.27.79-.39,1.15-.23.7-.33,1l-.24.7Z"/><path class="cls-4" d="M269.2,349.54v2.95h-1.79v-8.4h3.2a5.66,5.66,0,0,1,1.36.15,3.18,3.18,0,0,1,1,.48,2.26,2.26,0,0,1,.67.83,2.81,2.81,0,0,1,.24,1.21,2.85,2.85,0,0,1-.25,1.25,2.39,2.39,0,0,1-.68.86,2.7,2.7,0,0,1-1.05.5,5.17,5.17,0,0,1-1.34.17Zm2.89-2.78a1,1,0,0,0-.41-.93,2.44,2.44,0,0,0-1.25-.25H269.2v2.47h1.23a2.13,2.13,0,0,0,1.25-.3A1.13,1.13,0,0,0,272.09,346.76Z"/><path class="cls-4" d="M279.88,352.66a3.3,3.3,0,0,1-2.55-.87,3.35,3.35,0,0,1-.81-2.4v-5.3h1.8v5.31a2,2,0,0,0,.38,1.27,1.64,1.64,0,0,0,2.36,0,2,2,0,0,0,.38-1.27v-5.31h1.8v5.3a3.39,3.39,0,0,1-.8,2.4A3.34,3.34,0,0,1,279.88,352.66Z"/><path class="cls-4" d="M288,346.3a.8.8,0,0,0,.47.77,5.38,5.38,0,0,0,1.49.4,4.79,4.79,0,0,1,2.2.83,2.09,2.09,0,0,1,.7,1.72,2.3,2.3,0,0,1-.25,1.09,2.43,2.43,0,0,1-.7.83,3.25,3.25,0,0,1-1.07.53,4.91,4.91,0,0,1-1.36.19,4.53,4.53,0,0,1-1.43-.21,3.67,3.67,0,0,1-1.08-.56,2.6,2.6,0,0,1-.7-.82,2.24,2.24,0,0,1-.27-1l1.8-.29a1.55,1.55,0,0,0,.47,1,1.71,1.71,0,0,0,1.21.39,2.93,2.93,0,0,0,.61-.06,1.52,1.52,0,0,0,.49-.19,1.1,1.1,0,0,0,.33-.35.94.94,0,0,0,.12-.49.81.81,0,0,0-.39-.72,3.92,3.92,0,0,0-1.38-.41,10,10,0,0,1-1.22-.27,3.42,3.42,0,0,1-1-.46,2.2,2.2,0,0,1-.65-.74,2.32,2.32,0,0,1-.23-1.07,2.38,2.38,0,0,1,.24-1.1,2.13,2.13,0,0,1,.67-.79,3,3,0,0,1,1-.47,5.12,5.12,0,0,1,2.5,0,3.49,3.49,0,0,1,1,.44,2.82,2.82,0,0,1,.73.73,2.72,2.72,0,0,1,.39,1l-1.82.4a1.51,1.51,0,0,0-.49-.91,1.58,1.58,0,0,0-1.07-.34,1.74,1.74,0,0,0-1,.25A.82.82,0,0,0,288,346.3Z"/><path class="cls-4" d="M300.9,344.09c.3.84.58,1.65.85,2.43.15.46.29.84.39,1.16s.21.62.31.94.21.62.3.92.18.56.25.79h0c.07-.23.15-.5.25-.8l.31-.95c.1-.34.22-.68.34-1s.23-.69.35-1q.39-1.17.84-2.43H307l-3.09,8.4H302l-3.06-8.4Z"/><path class="cls-4" d="M315.71,352.49h-1.86l-.67-1.95h-3l-.67,1.95h-1.77l3-8.4h1.93Zm-4-6.43-.09.28-.13.42-.16.5c-.06.18-.12.36-.18.52-.13.42-.28.86-.44,1.34h2c-.16-.48-.31-.92-.44-1.34-.09-.24-.16-.43-.21-.59s-.11-.31-.15-.45-.09-.28-.13-.4l-.08-.28Z"/><path class="cls-4" d="M318.2,344.09H320V351h3.67v1.5H318.2Z"/><path class="cls-4" d="M329.32,352.66a3.34,3.34,0,0,1-2.56-.87,3.39,3.39,0,0,1-.8-2.4v-5.3h1.8v5.31a2,2,0,0,0,.38,1.27,1.64,1.64,0,0,0,2.36,0,2,2,0,0,0,.38-1.27v-5.31h1.8v5.3a3.39,3.39,0,0,1-.8,2.4A3.34,3.34,0,0,1,329.32,352.66Z"/><path class="cls-4" d="M335.8,352.49v-8.4h5.72v1.49h-3.94v1.84h3.67v1.49h-3.67V351h4v1.49Z"/><path class="cls-4" d="M346,346.3a.8.8,0,0,0,.47.77,5.38,5.38,0,0,0,1.49.4,4.79,4.79,0,0,1,2.2.83,2.09,2.09,0,0,1,.7,1.72,2.3,2.3,0,0,1-.25,1.09,2.43,2.43,0,0,1-.7.83,3.21,3.21,0,0,1-1.08.53,4.84,4.84,0,0,1-1.35.19,4.53,4.53,0,0,1-1.43-.21,3.44,3.44,0,0,1-1.08-.56,2.6,2.6,0,0,1-.7-.82,2.11,2.11,0,0,1-.27-1l1.8-.29a1.5,1.5,0,0,0,.47,1,1.71,1.71,0,0,0,1.21.39,2.91,2.91,0,0,0,.6-.06,1.43,1.43,0,0,0,.49-.19,1.1,1.1,0,0,0,.33-.35.94.94,0,0,0,.12-.49.81.81,0,0,0-.39-.72,3.85,3.85,0,0,0-1.37-.41,9.6,9.6,0,0,1-1.22-.27,3.29,3.29,0,0,1-1-.46,2.1,2.1,0,0,1-.65-.74,2.2,2.2,0,0,1-.23-1.07,2.38,2.38,0,0,1,.24-1.1,2.13,2.13,0,0,1,.67-.79,3,3,0,0,1,1-.47,4.72,4.72,0,0,1,1.28-.16,4.66,4.66,0,0,1,1.21.15,3.55,3.55,0,0,1,1,.44,2.63,2.63,0,0,1,.72.73,2.74,2.74,0,0,1,.4,1l-1.83.4a1.41,1.41,0,0,0-.49-.91,1.56,1.56,0,0,0-1.07-.34,1.72,1.72,0,0,0-1,.25A.82.82,0,0,0,346,346.3Z"/></g></svg>