<svg xmlns="http://www.w3.org/2000/svg" viewBox="0 0 360 360"><defs><style>.cls-1{fill:#f1f2f2;}.cls-2{fill:#0e6e39;}.cls-3,.cls-6{fill:#fff;}.cls-3,.cls-4{stroke:#0e6e39;stroke-linejoin:round;stroke-width:3px;}.cls-4{fill:none;}.cls-5{fill:#0c6e39;}</style></defs><g id="BACKGROUND"><rect class="cls-1" x="-1.4" y="-0.34" width="360" height="360"/></g><g id="LINE_ONE" data-name="LINE ONE"><path class="cls-2" d="M113.46,248.16h-3.1l-1.12-3.24h-5l-1.12,3.24h-2.94l5-14h3.22Zm-6.76-10.72-.14.47c-.07.2-.14.44-.22.7s-.17.54-.27.84l-.29.87c-.23.69-.48,1.43-.74,2.22h3.38c-.27-.79-.52-1.53-.74-2.22-.15-.4-.27-.73-.35-1s-.17-.51-.24-.75-.15-.47-.21-.67a4.69,4.69,0,0,1-.14-.47Z"/><path class="cls-2" d="M117.6,234.16h5.22a8.21,8.21,0,0,1,2.88.47,5.73,5.73,0,0,1,2.16,1.36,6.05,6.05,0,0,1,1.35,2.19,9.68,9.68,0,0,1,0,6,6.23,6.23,0,0,1-1.35,2.19,6,6,0,0,1-2.16,1.36,8.45,8.45,0,0,1-2.88.47H117.6Zm9,7a7,7,0,0,0-.23-1.85,4.15,4.15,0,0,0-.7-1.43,3.09,3.09,0,0,0-1.19-.92,4.13,4.13,0,0,0-1.72-.32h-2.12v9h2.12a4.29,4.29,0,0,0,1.72-.32,3.18,3.18,0,0,0,1.19-.92,4.24,4.24,0,0,0,.7-1.43A7.1,7.1,0,0,0,126.58,241.16Z"/><path class="cls-2" d="M145.84,248.16h-3.1l-1.12-3.24h-5l-1.12,3.24h-2.94l5-14h3.22Zm-6.76-10.72-.14.47c-.07.2-.14.44-.22.7s-.17.54-.27.84l-.29.87-.74,2.22h3.38c-.27-.79-.52-1.53-.74-2.22-.15-.4-.27-.73-.35-1s-.17-.51-.24-.75-.15-.47-.21-.67a4.69,4.69,0,0,1-.14-.47Z"/><path class="cls-2" d="M153,243.24v4.92h-3v-14h5.32a8.93,8.93,0,0,1,2.28.26,4.81,4.81,0,0,1,1.74.8,3.7,3.7,0,0,1,1.12,1.38,4.75,4.75,0,0,1,.4,2,4.87,4.87,0,0,1-.41,2.07,4.05,4.05,0,0,1-1.14,1.44,4.83,4.83,0,0,1-1.75.84,8.76,8.76,0,0,1-2.24.27Zm4.82-4.62a1.68,1.68,0,0,0-.69-1.56,4.11,4.11,0,0,0-2.09-.42h-2v4.12h2a3.6,3.6,0,0,0,2.09-.5A1.9,1.9,0,0,0,157.78,238.62Z"/><path class="cls-2" d="M164.18,234.16h11.1v2.5h-4v11.5h-3v-11.5h-4Z"/><path class="cls-2" d="M179.5,234.16h3v14h-3Z"/><path class="cls-2" d="M187.78,234.16h6.08a5.06,5.06,0,0,1,1.75.28,3.74,3.74,0,0,1,1.3.77,3.28,3.28,0,0,1,.81,1.16,3.82,3.82,0,0,1,.28,1.45,3.41,3.41,0,0,1-.18,1.14,3.29,3.29,0,0,1-.47.87,3.5,3.5,0,0,1-.66.62,4.29,4.29,0,0,1-.77.39,3.43,3.43,0,0,1,.93.26,3,3,0,0,1,.87.57,2.81,2.81,0,0,1,.65.93,3.47,3.47,0,0,1,.25,1.38,4.22,4.22,0,0,1-.34,1.67,4,4,0,0,1-.94,1.32,4.84,4.84,0,0,1-1.42.87,5,5,0,0,1-1.8.32h-6.34Zm2.92,2.44v3.24h2.1a2.85,2.85,0,0,0,1.6-.36,1.5,1.5,0,0,0,.52-1.3,1.47,1.47,0,0,0-.45-1.22,2.46,2.46,0,0,0-1.51-.36Zm0,9.12h2.4a3,3,0,0,0,1.93-.45,1.66,1.66,0,0,0,.51-1.31,1.44,1.44,0,0,0-.62-1.37,3.84,3.84,0,0,0-1.86-.35H190.7Z"/><path class="cls-2" d="M203.28,234.16h3v14h-3Z"/><path class="cls-2" d="M211.56,234.16h3v11.5h6.12v2.5h-9.12Z"/><path class="cls-2" d="M224.88,234.16h3v14h-3Z"/><path class="cls-2" d="M232.1,234.16h11.1v2.5h-4v11.5h-3v-11.5h-4Z"/><path class="cls-2" d="M251.66,242.3l-5.31-8.14h3.45l3.42,5.36,3.4-5.36H260l-5.3,8.14v5.86h-3Z"/></g><g id="ICON"><rect class="cls-3" x="83.89" y="164.59" width="54.32" height="33.42" transform="matrix(-1, 0, 0, -1, 222.1, 362.61)"/><rect class="cls-4" x="88.77" y="158.67" width="16.71" height="5.92"/><rect class="cls-4" x="116.62" y="158.67" width="16.71" height="5.92"/><rect class="cls-3" x="165.37" y="164.59" width="108.63" height="33.42" transform="matrix(-1, 0, 0, -1, 439.37, 362.61)"/><rect class="cls-4" x="170.24" y="158.67" width="16.71" height="5.92"/><rect class="cls-4" x="198.1" y="158.67" width="16.71" height="5.92"/><rect class="cls-4" x="224.56" y="158.67" width="16.71" height="5.92"/><rect class="cls-4" x="252.41" y="158.67" width="16.71" height="5.92"/><rect class="cls-3" x="111.05" y="131.17" width="108.63" height="33.42" transform="matrix(-1, 0, 0, -1, 330.73, 295.76)"/><rect class="cls-4" x="115.93" y="125.25" width="16.71" height="5.92"/><rect class="cls-4" x="143.78" y="125.25" width="16.71" height="5.92"/><rect class="cls-4" x="170.24" y="125.25" width="16.71" height="5.92"/><rect class="cls-4" x="198.1" y="125.25" width="16.71" height="5.92"/><rect class="cls-3" x="165.37" y="97.74" width="54.32" height="33.42" transform="matrix(-1, 0, 0, -1, 385.05, 228.91)"/><rect class="cls-4" x="170.24" y="91.82" width="16.71" height="5.92"/><rect class="cls-4" x="198.1" y="91.82" width="16.71" height="5.92"/><rect class="cls-5" y="336.06" width="360" height="23.94"/><path class="cls-6" d="M250.44,352.49v-8.4h5.73v1.49h-4v1.84h3.67v1.49h-3.67V351h4v1.49Z"/><path class="cls-6" d="M259,344.09h1.87l1.39,2.25.65,1.05.51.83c.16.27.32.53.48.77l.38.62h0v-5.52H266v8.4h-1.87l-1.37-2.22-.64-1-.51-.83-.49-.79c-.15-.25-.29-.47-.4-.64h0v5.52H259Z"/><path class="cls-6" d="M270.43,344.09q.45,1.26.84,2.43c.16.46.3.84.4,1.16s.21.62.31.94.2.62.3.92.18.56.25.79h0c.07-.23.15-.5.25-.8l.31-.95c.1-.34.22-.68.34-1s.23-.69.35-1c.26-.78.54-1.59.83-2.43h1.85l-3.09,8.4h-1.84l-3.06-8.4Z"/><path class="cls-6" d="M279,344.09h1.8v8.4H279Z"/><path class="cls-6" d="M290.22,346.64a2.34,2.34,0,0,1-1.59,2.4l1.93,3.45h-2l-1.74-3.18h-1.12v3.18h-1.79v-8.4H287a5.38,5.38,0,0,1,1.32.15,2.81,2.81,0,0,1,1,.46,2.06,2.06,0,0,1,.64.79A2.57,2.57,0,0,1,290.22,346.64Zm-1.85,0a.91.91,0,0,0-.39-.85,2.3,2.3,0,0,0-1.18-.23h-1.08v2.26h1.08a2.08,2.08,0,0,0,1.18-.27A1,1,0,0,0,288.37,346.66Z"/><path class="cls-6" d="M292.9,348.29a5.49,5.49,0,0,1,.29-1.83,4,4,0,0,1,.83-1.38,3.7,3.7,0,0,1,1.29-.86,4.85,4.85,0,0,1,3.36,0,3.7,3.7,0,0,1,1.29.86,4,4,0,0,1,.83,1.38,5.92,5.92,0,0,1,0,3.66,3.84,3.84,0,0,1-.83,1.37,3.59,3.59,0,0,1-1.29.87,4.85,4.85,0,0,1-3.36,0,3.59,3.59,0,0,1-1.29-.87,3.84,3.84,0,0,1-.83-1.37A5.49,5.49,0,0,1,292.9,348.29Zm1.86,0a4.37,4.37,0,0,0,.14,1.17,2.72,2.72,0,0,0,.41.91,1.91,1.91,0,0,0,.7.59,2.39,2.39,0,0,0,2,0,1.91,1.91,0,0,0,.7-.59,2.72,2.72,0,0,0,.41-.91,4.37,4.37,0,0,0,.14-1.17,4.27,4.27,0,0,0-.14-1.17,2.63,2.63,0,0,0-.41-.91,1.82,1.82,0,0,0-.7-.59,2.39,2.39,0,0,0-2,0,1.82,1.82,0,0,0-.7.59,2.63,2.63,0,0,0-.41.91A4.27,4.27,0,0,0,294.76,348.29Z"/><path class="cls-6" d="M303.9,344.09h1.87l1.4,2.25.64,1.05.51.83.48.77.38.62h0v-5.52h1.7v8.4h-1.87l-1.37-2.22c-.25-.42-.47-.76-.64-1l-.51-.83-.49-.79-.4-.64h0v5.52H303.9Z"/><path class="cls-6" d="M317.79,352.49q-.18-.5-.45-1.29l-.56-1.66c-.19-.58-.38-1.14-.56-1.7s-.33-1-.44-1.39h0v6h-1.66v-8.4h2.52c.34,1,.66,2,.94,2.82.16.51.3.92.41,1.24s.21.62.3.91.18.54.25.78.13.4.16.5c0-.1.09-.27.16-.5s.16-.51.26-.83.21-.65.32-1l.36-1.08q.41-1.29.9-2.82h2.5v8.4h-1.65v-6h0c-.08.25-.17.55-.29.9l-.36,1.11c-.13.39-.27.79-.4,1.19s-.27.79-.39,1.15-.23.7-.33,1l-.24.7Z"/><path class="cls-6" d="M326.34,352.49v-8.4h5.72v1.49h-3.94v1.84h3.67v1.49h-3.67V351h4v1.49Z"/><path class="cls-6" d="M334.91,344.09h1.87l1.39,2.25.65,1.05.51.83c.16.27.32.53.48.77l.38.62h0v-5.52h1.7v8.4h-1.87l-1.37-2.22-.64-1-.51-.83-.49-.79-.4-.64h0v5.52h-1.7Z"/><path class="cls-6" d="M344.46,344.09h6.66v1.5H348.7v6.9h-1.81v-6.9h-2.43Z"/></g></svg>