<svg xmlns="http://www.w3.org/2000/svg" viewBox="0 0 360 360"><defs><style>.cls-1{fill:#fff;}</style></defs><g id="BACKGROUND"><rect x="-1" width="360" height="360"/></g><g id="LINE_ONE" data-name="LINE ONE"><path class="cls-1" d="M129.52,248.16h-3.1l-1.12-3.24h-5l-1.12,3.24h-2.94l5-14h3.22Zm-6.76-10.72c0,.1-.07.26-.14.47s-.14.44-.22.7-.17.54-.27.84l-.29.87c-.23.69-.47,1.43-.74,2.22h3.38c-.27-.79-.51-1.53-.74-2.22l-.35-1c-.08-.26-.17-.51-.24-.75s-.14-.46-.21-.67-.11-.37-.14-.47Z"/><path class="cls-1" d="M139.82,248.16c-.2-.55-.45-1.26-.75-2.15l-.93-2.77q-.48-1.44-.93-2.82c-.3-.92-.54-1.7-.73-2.32h-.06v10.06h-2.76v-14h4.2c.57,1.71,1.09,3.27,1.56,4.7q.42,1.27.69,2.07c.18.53.35,1,.5,1.51s.29.91.42,1.3.22.67.27.84l.26-.84c.12-.39.26-.84.43-1.37s.35-1.09.54-1.7.39-1.21.59-1.81c.45-1.43.95-3,1.5-4.7h4.18v14H146V238.1H146l-.48,1.49c-.19.58-.39,1.2-.61,1.85l-.67,2c-.23.67-.44,1.31-.64,1.92L143,247c-.17.49-.3.88-.41,1.16Z"/><path class="cls-1" d="M154.08,248.16v-14h9.54v2.48H157v3.08h6.12v2.48H157v3.48h6.68v2.48Z"/><path class="cls-1" d="M168.36,234.16h3.12l2.32,3.76c.44.7.8,1.29,1.08,1.75l.84,1.37.8,1.29.64,1h.06v-9.2h2.84v14h-3.12l-2.28-3.7-1.07-1.73c-.29-.46-.57-.92-.85-1.38l-.81-1.32c-.26-.42-.48-.78-.67-1.07h-.06v9.2h-2.84Z"/><path class="cls-1" d="M185.34,234.16h3v14h-3Z"/><path class="cls-1" d="M192.56,234.16h11.1v2.5h-4v11.5h-3v-11.5h-4Z"/><path class="cls-1" d="M207.88,234.16h3v14h-3Z"/><path class="cls-1" d="M216.16,248.16v-14h9.54v2.48h-6.58v3.08h6.12v2.48h-6.12v3.48h6.68v2.48Z"/><path class="cls-1" d="M233.16,237.84a1.34,1.34,0,0,0,.78,1.29,9.48,9.48,0,0,0,2.48.67,7.86,7.86,0,0,1,3.67,1.38,3.48,3.48,0,0,1,1.17,2.86,3.92,3.92,0,0,1-.42,1.83,4.07,4.07,0,0,1-1.17,1.38,5.65,5.65,0,0,1-1.79.88,8.12,8.12,0,0,1-2.26.31,7.68,7.68,0,0,1-2.38-.35,5.87,5.87,0,0,1-1.8-.93,4.41,4.41,0,0,1-1.16-1.36,3.81,3.81,0,0,1-.46-1.62l3-.48a2.56,2.56,0,0,0,.79,1.67,2.84,2.84,0,0,0,2,.65,4.61,4.61,0,0,0,1-.1,2.52,2.52,0,0,0,.82-.33A1.66,1.66,0,0,0,238,245a1.63,1.63,0,0,0,.2-.82,1.35,1.35,0,0,0-.65-1.2,6.31,6.31,0,0,0-2.29-.68,18.1,18.1,0,0,1-2-.46,5.72,5.72,0,0,1-1.63-.77,3.51,3.51,0,0,1-1.08-1.22,3.76,3.76,0,0,1-.39-1.79,3.93,3.93,0,0,1,.4-1.84,3.72,3.72,0,0,1,1.12-1.31,5,5,0,0,1,1.7-.79,8,8,0,0,1,2.14-.26,7.71,7.71,0,0,1,2,.25,5.28,5.28,0,0,1,1.67.74,4.36,4.36,0,0,1,1.21,1.21,4.49,4.49,0,0,1,.66,1.64l-3,.66a2.45,2.45,0,0,0-.82-1.52,2.67,2.67,0,0,0-1.78-.56,2.78,2.78,0,0,0-1.69.42A1.33,1.33,0,0,0,233.16,237.84Z"/></g><g id="ICON"><path class="cls-1" d="M214.4,136.68c1.83,0,3.53-.14,5.2,0,6.62.63,9.89,5.75,9.18,11.61-1.2,10-7.36,16.07-16.57,19.32a55.74,55.74,0,0,1-5.82,1.28,2.13,2.13,0,0,0-1.17.7,36.08,36.08,0,0,1-6.83,7,1.26,1.26,0,0,0-.47.8,4.25,4.25,0,0,1-2.7,3.76,21.64,21.64,0,0,1-7.68,1.94,81,81,0,0,1-20.34-.24,28.27,28.27,0,0,1-6.13-1.78,3.82,3.82,0,0,1-2.62-3.69,1.24,1.24,0,0,0-.48-.8c-7.68-5.86-11.74-13.91-14-23.06a82.74,82.74,0,0,1-2-19.14,6.75,6.75,0,0,1,2.79-5.45,24.1,24.1,0,0,1,9.94-4.38c11.68-2.74,23.5-3,35.4-1.91a67.25,67.25,0,0,1,14.55,2.76,22,22,0,0,1,6.71,3.3,7.1,7.1,0,0,1,3.07,6.31C214.37,135.57,214.4,136.14,214.4,136.68Zm-33.89,3.13a90.32,90.32,0,0,0,17.74-1.75,28.3,28.3,0,0,0,5.81-1.93c1.81-.83,1.84-2.29.14-3.25a18.39,18.39,0,0,0-3.91-1.64A65.07,65.07,0,0,0,185.74,129a105.5,105.5,0,0,0-25.9,1.3,21.88,21.88,0,0,0-7.62,2.48c-1.76,1.08-1.72,2.28,0,3.34.13.08.27.14.4.21a26.91,26.91,0,0,0,7.91,2.19A118.69,118.69,0,0,0,180.51,139.81Zm-31,3a6.84,6.84,0,0,0,0,.93c.46,2.77.79,5.56,1.42,8.29,2,8.56,6.15,15.75,13.74,20.62.33.21.65.45,1,.68a1,1,0,0,0-.11-.7,45.84,45.84,0,0,1-4.36-10.89,70.26,70.26,0,0,1-2-14.85c-.05-1.36,0-1.32-1.38-1.63q-2.6-.6-5.15-1.34C151.61,143.66,150.64,143.24,149.53,142.84Zm60.69,17.72.25.31c1.76-1,3.59-1.79,5.26-2.89a13.31,13.31,0,0,0,5.87-7.33,5.31,5.31,0,0,0-.7-5.08c-1.5-1.9-3.56-1.86-5.7-1.56-1,.14-1.39.63-1.49,1.65a54.13,54.13,0,0,1-2.45,11.74C210.91,158.46,210.56,159.51,210.22,160.56Z"/><path class="cls-1" d="M177.63,198.09a169.63,169.63,0,0,1-22.3-1.63,76.54,76.54,0,0,1-15.21-3.62,23.07,23.07,0,0,1-6.78-3.57c-3-2.4-3-5.27,0-7.65a27.6,27.6,0,0,1,9.61-4.51c2-.59,4-1.05,6-1.52a1.25,1.25,0,0,1,.93.29c1.35,1.11,2.66,2.27,4,3.42a1.64,1.64,0,0,1,.5.62c1.22,3.49,4,5.16,7.26,6.25a38.53,38.53,0,0,0,11.06,1.74,96.36,96.36,0,0,0,15.93-.42c3.42-.46,6.8-1.08,9.79-3a8.77,8.77,0,0,0,3.57-4.32,2.74,2.74,0,0,1,.74-1c1.21-1.08,2.48-2.11,3.67-3.21a1.31,1.31,0,0,1,1.36-.36,57.29,57.29,0,0,1,10.72,3.3,16.3,16.3,0,0,1,5.38,3.43c1.91,2,1.93,4.06,0,6.09a15,15,0,0,1-5,3.32,60.27,60.27,0,0,1-13.78,4A153.62,153.62,0,0,1,177.63,198.09Z"/><path class="cls-1" d="M187.51,90.09c-.91,1-1.93,1.93-2.79,3a11.12,11.12,0,0,0-2.14,8.11c.16,1.92.34,3.84.51,5.77.4,4.43-1.61,7.53-5.34,9.68a10.1,10.1,0,0,1-2.08,1c.45-.57.94-1.11,1.33-1.71a9.26,9.26,0,0,0,1.13-6.2c-.2-2.1-.57-4.19-.75-6.29a10.92,10.92,0,0,1,5-10.57c1.49-1,3.15-1.79,4.73-2.66A1.35,1.35,0,0,1,187.51,90.09Z"/><path class="cls-1" d="M171.36,97.26c-.65.54-1.33,1-1.94,1.62-2.17,2.05-2.67,4.63-2.29,7.48.16,1.19.25,2.39.37,3.6a6.3,6.3,0,0,1-3.27,6.29c-.93.59-1.94,1.06-3.08,1.68a22.17,22.17,0,0,0,1.61-2.46c.9-1.82.39-3.72.15-5.6-.16-1.26-.32-2.52-.36-3.78a6.57,6.57,0,0,1,1.8-4.79A15.63,15.63,0,0,1,171.36,97.26Z"/><path class="cls-1" d="M190.24,117.6c2.07-1.83,2.28-4.14,1.85-6.65a45,45,0,0,1-.52-4.49,6.94,6.94,0,0,1,2.62-6,15.82,15.82,0,0,1,6.1-3.16c-.64.53-1.32,1-1.91,1.61-2.15,2.07-2.62,4.65-2.23,7.49.16,1.19.26,2.39.37,3.59a6.29,6.29,0,0,1-3.25,6.21c-.91.58-1.88,1-2.83,1.56Z"/></g></svg>