<svg xmlns="http://www.w3.org/2000/svg" viewBox="0 0 360 360"><defs><style>.cls-1{fill:#fff;}.cls-2{fill:none;stroke:#fff;stroke-miterlimit:10;stroke-width:3px;}</style></defs><g id="BACKGROUND"><rect x="-1" width="360" height="360"/></g><g id="LINE_ONE" data-name="LINE ONE"><path class="cls-1" d="M141,248.16h-3.1l-1.12-3.24h-5l-1.12,3.24H127.7l5-14H136Zm-6.76-10.72c0,.11-.07.26-.14.47s-.14.44-.22.7-.17.54-.27.84-.2.59-.29.87c-.23.69-.47,1.43-.74,2.22H136c-.27-.79-.51-1.53-.74-2.22-.15-.4-.26-.73-.35-1s-.17-.51-.24-.75-.14-.46-.21-.67-.11-.36-.14-.47Z"/><path class="cls-1" d="M142.48,234.16h11.1v2.5h-4v11.5h-3v-11.5h-4Z"/><path class="cls-1" d="M157.14,234.16h11.1v2.5h-4v11.5h-3v-11.5h-4Z"/><path class="cls-1" d="M182.94,238.42a3.94,3.94,0,0,1-2.66,4l3.22,5.74h-3.3l-2.9-5.3h-1.86v5.3h-3v-14h5.12a8.89,8.89,0,0,1,2.21.25,4.78,4.78,0,0,1,1.69.77,3.46,3.46,0,0,1,1.08,1.32A4.47,4.47,0,0,1,182.94,238.42Zm-3.08,0a1.51,1.51,0,0,0-.65-1.41,3.91,3.91,0,0,0-2-.39h-1.8v3.78h1.8a3.48,3.48,0,0,0,2-.45A1.74,1.74,0,0,0,179.86,238.44Z"/><path class="cls-1" d="M200.14,248.16H197l-1.12-3.24h-5l-1.12,3.24h-2.94l5-14h3.22Zm-6.76-10.72-.14.47c-.07.21-.14.44-.22.7s-.17.54-.27.84l-.29.87c-.23.69-.48,1.43-.74,2.22h3.38c-.27-.79-.51-1.53-.74-2.22-.15-.4-.27-.73-.35-1s-.17-.51-.24-.75-.14-.46-.21-.67a4,4,0,0,1-.14-.47Z"/><path class="cls-1" d="M203,241.16a9.12,9.12,0,0,1,.48-3.07,6.33,6.33,0,0,1,1.37-2.29,5.75,5.75,0,0,1,2.16-1.43,7.82,7.82,0,0,1,2.85-.49,6.83,6.83,0,0,1,3.76,1,5.35,5.35,0,0,1,2.16,3l-2.92,1a3.92,3.92,0,0,0-1.08-1.83,2.86,2.86,0,0,0-2-.65,3.51,3.51,0,0,0-1.62.36,3.26,3.26,0,0,0-1.16,1,4.28,4.28,0,0,0-.69,1.51,7.32,7.32,0,0,0-.23,1.92,7.2,7.2,0,0,0,.23,1.91,4.45,4.45,0,0,0,.69,1.51,3.19,3.19,0,0,0,1.16,1,3.54,3.54,0,0,0,1.64.36,2.94,2.94,0,0,0,1.89-.58,3.53,3.53,0,0,0,1.11-1.76l2.88,1a6,6,0,0,1-2.16,2.8,6.42,6.42,0,0,1-3.76,1A7.5,7.5,0,0,1,207,248a5.94,5.94,0,0,1-2.14-1.42,6.17,6.17,0,0,1-1.37-2.29A9.22,9.22,0,0,1,203,241.16Z"/><path class="cls-1" d="M219.12,234.16h11.1v2.5h-4v11.5h-3v-11.5h-4Z"/></g><g id="LINE_TWO" data-name="LINE TWO"><path class="cls-1" d="M136.68,252h11.1v2.5h-4V266h-3v-11.5h-4Z"/><path class="cls-1" d="M162.56,266h-3.1l-1.12-3.24h-5L152.2,266h-2.94l5-14h3.22Zm-6.76-10.72c0,.1-.07.26-.14.47s-.14.44-.22.7-.17.54-.27.84l-.29.87c-.23.69-.47,1.43-.74,2.22h3.38c-.27-.79-.51-1.53-.74-2.22-.15-.4-.26-.73-.35-1s-.17-.51-.24-.75-.14-.47-.21-.67-.11-.37-.14-.47Z"/><path class="cls-1" d="M166.7,252h3v11.5h6.12V266H166.7Z"/><path class="cls-1" d="M180,266V252h9.54v2.48H183v3.08h6.12V260H183v3.48h6.68V266Z"/><path class="cls-1" d="M194.3,252h3.12l2.32,3.76c.44.7.8,1.29,1.08,1.75l.84,1.37.8,1.29.64,1h.06V252H206v14h-3.12l-2.28-3.7-1.07-1.73c-.29-.46-.57-.92-.85-1.38l-.81-1.32-.67-1.07h-.06V266H194.3Z"/><path class="cls-1" d="M210.22,252h11.1v2.5h-4V266h-3v-11.5h-4Z"/><path class="cls-1" d="M145.35,140.88H161.8v1c0,8,.15,16,0,24-.18,7.62,4.75,12.08,9.51,14a19.5,19.5,0,0,0,7.24,1.43c2.94,0,5.89.14,8.75-.79,4.94-1.59,8.54-4.62,10.05-9.71a16.34,16.34,0,0,0,.57-4.52c.05-8.21,0-16.42,0-24.64v-.71h16.75v.85q0,14,0,28a25.89,25.89,0,0,1-6.21,17c-5.2,6.23-12,9.73-19.9,11.11a54.6,54.6,0,0,1-8.67.47,41.17,41.17,0,0,1-10.61-1c-8.15-2.06-14.87-6.27-19.61-13.34a25,25,0,0,1-4.31-14.2q0-13.95,0-27.89Z"/><path class="cls-2" d="M199.44,122.11h13.68V137H199.44Z"/><path class="cls-2" d="M146.63,122.11h13.68V137H146.63Z"/><path class="cls-1" d="M177.23,111.64c-1,0-2,0-3,0-.3,0-.8-.12-.84-.29a1.34,1.34,0,0,1,.18-1q3.93-5.81,7.9-11.57l5.39-7.89c.26-.37.52-.7,1-.45s.37.68.21,1.09q-2.61,6.74-5.24,13.47c-.38,1-.28,1.14.75,1.13,2.1,0,4.2,0,6.31,0,.27,0,.69.13.77.31a1.09,1.09,0,0,1-.14.89q-6.69,9.83-13.4,19.63c-.27.38-.58.58-1,.36s-.35-.64-.2-1q2.66-6.8,5.29-13.6c.33-.85.21-1-.69-1-1.09,0-2.17,0-3.26,0Z"/></g></svg>