<svg xmlns="http://www.w3.org/2000/svg" viewBox="0 0 360 360"><defs><style>.cls-1{fill:#f1f2f2;}.cls-2{fill:#ef4a2b;}.cls-10,.cls-3,.cls-4,.cls-5,.cls-6{fill:#fff;}.cls-3,.cls-4,.cls-5,.cls-6,.cls-7,.cls-8,.cls-9{stroke:#ef4a2b;}.cls-3,.cls-4,.cls-6,.cls-7,.cls-8{stroke-miterlimit:10;}.cls-3,.cls-8{stroke-width:3px;}.cls-5,.cls-9{stroke-linejoin:round;}.cls-6{stroke-width:2px;}.cls-7,.cls-8,.cls-9{fill:none;}</style></defs><g id="BACKGROUND"><rect class="cls-1" width="360" height="360"/></g><g id="LINE_ONE" data-name="LINE ONE"><path class="cls-2" d="M111.2,248.16v-14h9.58v2.48h-6.62v3.08h6.1v2.48h-6.1v6Z"/><path class="cls-2" d="M125.26,234.16h3v11.5h6.12v2.5h-9.12Z"/><path class="cls-2" d="M138.58,248.16v-14h9.54v2.48h-6.58v3.08h6.12v2.48h-6.12v3.48h6.68v2.48Z"/><path class="cls-2" d="M160.3,240.82l5.18,7.34h-3.6l-3.38-4.86-3.44,4.86H151.7l5.14-7.2-4.74-6.8h3.62l2.94,4.32,3-4.32h3.38Z"/><path class="cls-2" d="M169.6,234.16h3v14h-3Z"/><path class="cls-2" d="M177.88,234.16H184a5,5,0,0,1,1.75.28,3.65,3.65,0,0,1,1.3.77,3.28,3.28,0,0,1,.81,1.16,3.64,3.64,0,0,1,.28,1.45,3.41,3.41,0,0,1-.18,1.14,3.29,3.29,0,0,1-.47.87,3,3,0,0,1-.66.62,4,4,0,0,1-.77.39,3.24,3.24,0,0,1,.93.26,3,3,0,0,1,.87.57,2.67,2.67,0,0,1,.65.93,3.31,3.31,0,0,1,.25,1.38,4,4,0,0,1-1.28,3,4.71,4.71,0,0,1-1.42.87,5,5,0,0,1-1.8.32h-6.34Zm2.92,2.44v3.24h2.1a2.85,2.85,0,0,0,1.6-.36,1.88,1.88,0,0,0,.07-2.52,2.44,2.44,0,0,0-1.51-.36Zm0,9.12h2.4a3,3,0,0,0,1.93-.45,1.66,1.66,0,0,0,.51-1.31,1.44,1.44,0,0,0-.62-1.37,3.79,3.79,0,0,0-1.86-.35H180.8Z"/><path class="cls-2" d="M193.38,234.16h3v14h-3Z"/><path class="cls-2" d="M201.66,234.16h3v11.5h6.12v2.5h-9.12Z"/><path class="cls-2" d="M215,234.16h3v14h-3Z"/><path class="cls-2" d="M222.2,234.16h11.1v2.5h-4v11.5h-3v-11.5h-4Z"/><path class="cls-2" d="M241.76,242.3l-5.3-8.14h3.44l3.42,5.36,3.4-5.36h3.34l-5.3,8.14v5.86h-3Z"/><path class="cls-3" d="M232.78,145s-3.33-49.74-12.73-56.27c0,0-10.61,7.35-3.33,54.8"/><path class="cls-4" d="M215.42,145.39a95.08,95.08,0,0,0-9.87-12.65c-4.87-4.91-11.87-5.65-11.87-5.65-13.94-11-10.63-19.16-10.63-19.16l14,15.19a9.64,9.64,0,0,1,6.71,3.15l16.6,17.07Z"/><path class="cls-5" d="M118.88,167.32,124,179.74l20.56,4.11,2.95-7.79-11.88-6.75-.14-.08-4.6,1.9.81,2,3.05-1.27s5.9,2.74-.84,5.37c0,0-6.72,1.27-7.32-3.22Z"/><path class="cls-4" d="M149.13,172.82l-25.31-27.89s-2.2-6.55,5.73-4.17l.24,3.37,3.37.61.22,3.64,3.41.45.24,3.45,3.3.66.24,3.54,3.49.42.22,3.48,3.34.55.24,3.54,3.39.62.17,3.31,2.25,2.55Z"/><path class="cls-6" d="M156.56,170.07l-8.9-43.44s-.92-3.93,2.75-4.87,4.71,3,4.71,3l8.91,42.4Z"/><path class="cls-7" d="M201,144.81s.2-2.45-.94-9.27,3.76-13.61,3.76-13.61c-.75-17.72-9.32-19.83-9.32-19.83l4.12,20.24a17,17,0,0,0-2.37,8l1.39,12.23S197.3,144.46,201,144.81Z"/><path class="cls-2" d="M224.5,145.55a10.67,10.67,0,0,1,4.08,20.52l-66.89,27.68A10.67,10.67,0,0,1,153.53,174l66.89-27.68a10.64,10.64,0,0,1,4.08-.81m0-4a14.66,14.66,0,0,0-5.61,1.12L152,170.35a14.67,14.67,0,0,0,11.22,27.1l66.89-27.69a14.66,14.66,0,0,0-5.61-28.21Z"/><circle class="cls-2" cx="224.08" cy="156.39" r="4.35"/><path class="cls-8" d="M235.1,147.12a4.35,4.35,0,0,1,3.33,8"/><circle class="cls-2" cx="199.36" cy="126.03" r="0.77"/><polyline class="cls-9" points="166.33 128.66 163.87 132.28 167.86 132.37 166.13 136.73 170.61 136.83 168.22 140.69 172.53 140.84 170.57 144.9 174.78 144.89 172.79 148.87 177.11 148.95 175.41 152.52"/><line class="cls-7" x1="148.51" y1="130.79" x2="155.36" y2="125.9"/><line class="cls-7" x1="149.24" y1="134.35" x2="156.09" y2="129.46"/><line class="cls-7" x1="149.97" y1="137.91" x2="156.82" y2="133.02"/><line class="cls-7" x1="150.7" y1="141.47" x2="157.55" y2="136.58"/><line class="cls-7" x1="151.43" y1="145.03" x2="158.28" y2="140.14"/><line class="cls-7" x1="152.16" y1="148.59" x2="159.01" y2="143.7"/><line class="cls-7" x1="152.89" y1="152.16" x2="159.74" y2="147.26"/><line class="cls-7" x1="153.62" y1="155.72" x2="160.47" y2="150.82"/><line class="cls-7" x1="154.35" y1="159.28" x2="161.2" y2="154.38"/><line class="cls-7" x1="155.08" y1="162.84" x2="161.93" y2="157.95"/><path class="cls-3" d="M178.75,161.08l-4.52-8.46s5.38-3.93,8.75,6.2Z"/><path class="cls-4" d="M222.5,91.6s-9.53,9-2.13,51.74"/></g><g id="ICON"><rect class="cls-2" y="336.06" width="360" height="23.94"/><path class="cls-10" d="M265.76,352.49v-8.4h5.72v1.49h-4v1.84h3.68v1.49h-3.68V351h4v1.49Z"/><path class="cls-10" d="M278.79,348.08l3.11,4.41h-2.16l-2-2.92-2.06,2.92h-2l3.08-4.32-2.84-4.08H276l1.77,2.59,1.82-2.59h2Z"/><path class="cls-10" d="M286.16,349.54v2.95h-1.79v-8.4h3.19a5.81,5.81,0,0,1,1.37.15,3.12,3.12,0,0,1,1,.48,2.26,2.26,0,0,1,.67.83,2.67,2.67,0,0,1,.25,1.21,3,3,0,0,1-.25,1.25,2.5,2.5,0,0,1-.68.86,2.84,2.84,0,0,1-1,.5,5.2,5.2,0,0,1-1.35.17Zm2.89-2.78a1,1,0,0,0-.41-.93,2.48,2.48,0,0,0-1.26-.25h-1.22v2.47h1.22a2.17,2.17,0,0,0,1.26-.3A1.15,1.15,0,0,0,289.05,346.76Z"/><path class="cls-10" d="M293.53,352.49v-8.4h5.72v1.49H295.3v1.84H299v1.49H295.3V351h4v1.49Z"/><path class="cls-10" d="M308.38,346.64a2.36,2.36,0,0,1-1.6,2.4l1.94,3.45h-2L305,349.31h-1.12v3.18h-1.79v-8.4h3.07a5.41,5.41,0,0,1,1.33.15,2.89,2.89,0,0,1,1,.46,2.15,2.15,0,0,1,.64.79A2.57,2.57,0,0,1,308.38,346.64Zm-1.85,0a.91.91,0,0,0-.39-.85,2.3,2.3,0,0,0-1.18-.23h-1.08v2.26H305a2.08,2.08,0,0,0,1.18-.27A1,1,0,0,0,306.53,346.66Z"/><path class="cls-10" d="M311.41,344.09h1.8v8.4h-1.8Z"/><path class="cls-10" d="M316.37,352.49v-8.4h5.73v1.49h-4v1.84h3.67v1.49h-3.67V351h4v1.49Z"/><path class="cls-10" d="M324.94,344.09h1.87l1.4,2.25.64,1.05.51.83.48.77.38.62h0v-5.52H332v8.4h-1.87l-1.37-2.22c-.25-.42-.47-.76-.64-1l-.51-.83-.49-.79c-.15-.25-.29-.47-.4-.64h0v5.52h-1.71Z"/><path class="cls-10" d="M334.78,348.29a5.51,5.51,0,0,1,.29-1.84,3.81,3.81,0,0,1,.82-1.38,3.65,3.65,0,0,1,1.3-.86,4.83,4.83,0,0,1,1.71-.29,4.07,4.07,0,0,1,2.25.59,3.21,3.21,0,0,1,1.3,1.79l-1.75.61a2.43,2.43,0,0,0-.65-1.1,1.72,1.72,0,0,0-1.19-.39,2,2,0,0,0-1.67.81,2.63,2.63,0,0,0-.41.91,4.59,4.59,0,0,0-.14,1.15,4.51,4.51,0,0,0,.14,1.14,2.81,2.81,0,0,0,.41.91,1.92,1.92,0,0,0,.7.6,2.18,2.18,0,0,0,1,.22,1.78,1.78,0,0,0,1.14-.35,2.15,2.15,0,0,0,.66-1.06l1.73.61a3.49,3.49,0,0,1-1.3,1.68,3.81,3.81,0,0,1-2.25.62,4.44,4.44,0,0,1-1.67-.3,3.54,3.54,0,0,1-1.29-.85,3.69,3.69,0,0,1-.82-1.37A5.61,5.61,0,0,1,334.78,348.29Z"/><path class="cls-10" d="M345.09,352.49v-8.4h5.72v1.49h-3.95v1.84h3.68v1.49h-3.68V351h4v1.49Z"/></g></svg>