<svg xmlns="http://www.w3.org/2000/svg" viewBox="0 0 360 360"><defs><style>.cls-1{fill:#fff;}</style></defs><g id="BACKGROUND"><rect x="-1" width="360" height="360"/></g><g id="LINE_ONE" data-name="LINE ONE"><path class="cls-1" d="M107.27,241.16a9.12,9.12,0,0,1,.48-3.07,6.25,6.25,0,0,1,1.37-2.29,5.64,5.64,0,0,1,2.16-1.43,7.74,7.74,0,0,1,2.85-.49,6.77,6.77,0,0,1,3.76,1,5.32,5.32,0,0,1,2.16,3l-2.92,1a3.92,3.92,0,0,0-1.08-1.83,2.82,2.82,0,0,0-2-.65,3.46,3.46,0,0,0-1.62.36,3.18,3.18,0,0,0-1.16,1,4.28,4.28,0,0,0-.69,1.51,8.09,8.09,0,0,0,0,3.83,4.45,4.45,0,0,0,.69,1.51,3.21,3.21,0,0,0,1.16,1,3.51,3.51,0,0,0,1.64.36,3,3,0,0,0,1.89-.58,3.72,3.72,0,0,0,1.11-1.76l2.88,1a6.07,6.07,0,0,1-2.16,2.8,6.44,6.44,0,0,1-3.76,1,7.7,7.7,0,0,1-2.79-.49,5.86,5.86,0,0,1-2.14-1.42,6.25,6.25,0,0,1-1.37-2.29A9.26,9.26,0,0,1,107.27,241.16Z"/><path class="cls-1" d="M123.87,241.16a8.79,8.79,0,0,1,.49-3,6.27,6.27,0,0,1,1.38-2.29,5.82,5.82,0,0,1,2.15-1.44,8.09,8.09,0,0,1,5.6,0,5.9,5.9,0,0,1,2.15,1.44,6.55,6.55,0,0,1,1.38,2.29,9.74,9.74,0,0,1,0,6.1,6.64,6.64,0,0,1-1.38,2.29,6.16,6.16,0,0,1-2.15,1.44,8.09,8.09,0,0,1-5.6,0,6.07,6.07,0,0,1-2.15-1.44,6.35,6.35,0,0,1-1.38-2.29A8.83,8.83,0,0,1,123.87,241.16Zm3.1,0a7.56,7.56,0,0,0,.23,2,4.33,4.33,0,0,0,.69,1.52,3.16,3.16,0,0,0,1.16,1,3.64,3.64,0,0,0,1.64.35,3.7,3.7,0,0,0,1.64-.35,3.32,3.32,0,0,0,1.16-1,4.73,4.73,0,0,0,.69-1.52,8,8,0,0,0,.23-2,7.9,7.9,0,0,0-.23-1.95,4.63,4.63,0,0,0-.69-1.52,3.22,3.22,0,0,0-1.16-1,3.57,3.57,0,0,0-1.64-.35,3.51,3.51,0,0,0-1.64.35,3.06,3.06,0,0,0-1.16,1,4.25,4.25,0,0,0-.69,1.52A7.45,7.45,0,0,0,127,241.16Z"/><path class="cls-1" d="M148.37,248.16c-.2-.55-.45-1.27-.75-2.15l-.93-2.77q-.48-1.44-.93-2.82c-.3-.92-.55-1.7-.73-2.32H145v10.06h-2.76v-14h4.2q.85,2.55,1.56,4.7.42,1.27.69,2.07c.18.52.34,1,.5,1.51s.29.91.42,1.3l.27.84c.05-.18.14-.46.26-.84s.26-.85.43-1.37.34-1.1.54-1.7.39-1.21.59-1.81q.68-2.15,1.5-4.7h4.18v14h-2.76V238.1h-.06c-.14.41-.3.91-.49,1.49s-.38,1.19-.6,1.85-.45,1.31-.67,2-.44,1.31-.65,1.92-.38,1.15-.54,1.65l-.41,1.16Z"/><path class="cls-1" d="M168.79,248.16c-.2-.55-.45-1.27-.75-2.15l-.93-2.77q-.48-1.44-.93-2.82c-.31-.92-.55-1.7-.73-2.32h-.06v10.06h-2.77v-14h4.21q.85,2.55,1.56,4.7.42,1.27.69,2.07c.18.52.34,1,.5,1.51s.29.91.42,1.3l.27.84c0-.18.14-.46.26-.84s.26-.85.43-1.37.34-1.1.54-1.7.39-1.21.59-1.81q.67-2.15,1.5-4.7h4.18v14H175V238.1H175c-.14.41-.3.91-.49,1.49s-.38,1.19-.6,1.85-.45,1.31-.67,2-.44,1.31-.65,1.92-.38,1.15-.54,1.65l-.41,1.16Z"/><path class="cls-1" d="M188.56,248.44A5.59,5.59,0,0,1,184.3,247a5.67,5.67,0,0,1-1.34-4v-8.84h3V243a3.36,3.36,0,0,0,.65,2.11,2.31,2.31,0,0,0,1.95.83,2.34,2.34,0,0,0,2-.83,3.41,3.41,0,0,0,.63-2.11v-8.86h3V243a5.63,5.63,0,0,1-1.34,4A5.56,5.56,0,0,1,188.56,248.44Z"/><path class="cls-1" d="M199.37,234.16h3.11l2.32,3.76c.45.7.81,1.29,1.08,1.75s.57.91.84,1.37.55.88.81,1.29l.64,1h.05v-9.2h2.84v14H208c-.81-1.3-1.57-2.53-2.28-3.7l-1.07-1.73c-.29-.46-.57-.92-.85-1.38s-.55-.9-.81-1.32l-.67-1.07h-.06v9.2h-2.84Z"/><path class="cls-1" d="M216.35,234.16h3v14h-3Z"/><path class="cls-1" d="M223.56,234.16h11.11v2.5h-4v11.5h-3v-11.5h-4.05Z"/><path class="cls-1" d="M243.12,242.3l-5.3-8.14h3.45l3.42,5.36,3.4-5.36h3.34l-5.31,8.14v5.86h-3Z"/></g><g id="LINE_TWO" data-name="LINE TWO"><path class="cls-1" d="M95.73,261v4.92h-3v-14h5.32a9.4,9.4,0,0,1,2.28.26,5,5,0,0,1,1.74.8,3.7,3.7,0,0,1,1.12,1.38,4.79,4.79,0,0,1,.4,2,4.87,4.87,0,0,1-.41,2.07,4.05,4.05,0,0,1-1.14,1.44,4.83,4.83,0,0,1-1.75.84,8.76,8.76,0,0,1-2.24.27Zm4.82-4.62a1.68,1.68,0,0,0-.69-1.56,4.11,4.11,0,0,0-2.09-.42h-2v4.12h2a3.52,3.52,0,0,0,2.09-.5A1.88,1.88,0,0,0,100.55,256.4Z"/><path class="cls-1" d="M119.07,265.94H116l-1.12-3.24h-5l-1.12,3.24h-2.94l5-14H114Zm-6.76-10.72-.14.47c-.07.21-.14.44-.22.7s-.17.54-.27.84-.2.59-.29.87l-.74,2.22H114c-.27-.78-.52-1.52-.74-2.22-.15-.4-.27-.73-.35-1s-.17-.51-.24-.75-.15-.46-.21-.67a3.53,3.53,0,0,1-.14-.47Z"/><path class="cls-1" d="M133.69,256.2a3.94,3.94,0,0,1-2.66,4l3.22,5.74H131l-2.9-5.3h-1.86v5.3h-3v-14h5.12a9.39,9.39,0,0,1,2.21.25,5,5,0,0,1,1.69.77,3.66,3.66,0,0,1,1.08,1.32A4.53,4.53,0,0,1,133.69,256.2Zm-3.08,0a1.51,1.51,0,0,0-.65-1.41,3.93,3.93,0,0,0-2-.39h-1.8v3.78H128a3.5,3.5,0,0,0,2-.45A1.74,1.74,0,0,0,130.61,256.22Z"/><path class="cls-1" d="M137.37,251.94h11.1v2.5h-4v11.5h-3v-11.5h-4Z"/><path class="cls-1" d="M152.69,251.94h3.12l2.31,3.76c.45.71.81,1.29,1.09,1.75l.83,1.37c.29.46.55.89.81,1.29l.64,1h0v-9.2h2.85v14h-3.12c-.8-1.29-1.56-2.52-2.28-3.7l-1.07-1.73c-.29-.46-.57-.92-.85-1.38l-.81-1.32c-.26-.42-.49-.77-.67-1.07h-.06v9.2h-2.84Z"/><path class="cls-1" d="M169.67,265.94v-14h9.54v2.48h-6.59v3.08h6.13V260h-6.13v3.48h6.68v2.48Z"/><path class="cls-1" d="M194.43,256.2a4,4,0,0,1-2.66,4l3.22,5.74h-3.3l-2.9-5.3h-1.86v5.3h-3v-14h5.11a9.42,9.42,0,0,1,2.22.25A4.82,4.82,0,0,1,193,253a3.46,3.46,0,0,1,1.08,1.32A4.39,4.39,0,0,1,194.43,256.2Zm-3.08,0a1.51,1.51,0,0,0-.65-1.41,4,4,0,0,0-2-.39h-1.79v3.78h1.79a3.51,3.51,0,0,0,2-.45A1.74,1.74,0,0,0,191.35,256.22Z"/><path class="cls-1" d="M202.19,255.62a1.34,1.34,0,0,0,.77,1.29,9.08,9.08,0,0,0,2.49.67,8,8,0,0,1,3.67,1.38,3.52,3.52,0,0,1,1.17,2.86,4,4,0,0,1-.42,1.83A4.19,4.19,0,0,1,208.7,265a5.4,5.4,0,0,1-1.8.88,7.72,7.72,0,0,1-2.26.31,7.33,7.33,0,0,1-2.37-.35,5.83,5.83,0,0,1-1.81-.93,4.3,4.3,0,0,1-1.16-1.36,3.79,3.79,0,0,1-.45-1.62l3-.48a2.55,2.55,0,0,0,.78,1.67,2.83,2.83,0,0,0,2,.65,4.55,4.55,0,0,0,1-.1,2.08,2.08,0,0,0,.82-.33,1.69,1.69,0,0,0,.56-.57,1.61,1.61,0,0,0,.19-.82,1.33,1.33,0,0,0-.65-1.2,6.45,6.45,0,0,0-2.28-.68,15.93,15.93,0,0,1-2-.46,5.18,5.18,0,0,1-1.62-.77,3.24,3.24,0,0,1-1.08-1.22,3.73,3.73,0,0,1-.4-1.79,4.09,4.09,0,0,1,.4-1.84,3.92,3.92,0,0,1,1.12-1.31,5.18,5.18,0,0,1,1.71-.79,8.42,8.42,0,0,1,2.14-.26,8.22,8.22,0,0,1,2,.25,5.89,5.89,0,0,1,1.67.74,4.46,4.46,0,0,1,1.2,1.21,4.33,4.33,0,0,1,.66,1.64l-3,.66a2.53,2.53,0,0,0-.82-1.52,2.69,2.69,0,0,0-1.78-.56,2.8,2.8,0,0,0-1.7.42A1.36,1.36,0,0,0,202.19,255.62Z"/><path class="cls-1" d="M215,251.94h3v5.54h5.3v-5.54h3v14h-3V260H218v5.94h-3Z"/><path class="cls-1" d="M231.53,251.94h3v14h-3Z"/><path class="cls-1" d="M242.79,261v4.92h-3v-14h5.32a9.4,9.4,0,0,1,2.28.26,5,5,0,0,1,1.74.8,3.72,3.72,0,0,1,1.13,1.38,4.79,4.79,0,0,1,.39,2,4.72,4.72,0,0,1-.41,2.07,3.92,3.92,0,0,1-1.13,1.44,4.91,4.91,0,0,1-1.75.84,8.78,8.78,0,0,1-2.25.27Zm4.82-4.62a1.68,1.68,0,0,0-.7-1.56,4.06,4.06,0,0,0-2.09-.42h-2v4.12h2a3.48,3.48,0,0,0,2.09-.5A1.89,1.89,0,0,0,247.61,256.4Z"/><path class="cls-1" d="M257.79,255.62a1.33,1.33,0,0,0,.77,1.29,9.1,9.1,0,0,0,2.48.67,7.86,7.86,0,0,1,3.67,1.38,3.49,3.49,0,0,1,1.17,2.86,3.92,3.92,0,0,1-.42,1.83,4.07,4.07,0,0,1-1.17,1.38,5.35,5.35,0,0,1-1.79.88,7.72,7.72,0,0,1-2.26.31,7.33,7.33,0,0,1-2.37-.35,5.83,5.83,0,0,1-1.81-.93,4.3,4.3,0,0,1-1.16-1.36,3.66,3.66,0,0,1-.45-1.62l3-.48a2.55,2.55,0,0,0,.78,1.67,2.83,2.83,0,0,0,2,.65,4.55,4.55,0,0,0,1-.1,2.08,2.08,0,0,0,.82-.33,1.58,1.58,0,0,0,.55-.57,1.51,1.51,0,0,0,.2-.82,1.33,1.33,0,0,0-.65-1.2,6.45,6.45,0,0,0-2.29-.68,16.15,16.15,0,0,1-2-.46,5.34,5.34,0,0,1-1.63-.77,3.42,3.42,0,0,1-1.08-1.22,3.73,3.73,0,0,1-.39-1.79,4.09,4.09,0,0,1,.4-1.84,3.92,3.92,0,0,1,1.12-1.31,5.22,5.22,0,0,1,1.7-.79,8.56,8.56,0,0,1,2.15-.26,8.08,8.08,0,0,1,2,.25,5.65,5.65,0,0,1,1.67.74,4.36,4.36,0,0,1,1.21,1.21,4.49,4.49,0,0,1,.66,1.64l-3,.66a2.43,2.43,0,0,0-.82-1.52,2.64,2.64,0,0,0-1.77-.56,2.8,2.8,0,0,0-1.7.42A1.36,1.36,0,0,0,257.79,255.62Z"/></g><g id="ICON"><path class="cls-1" d="M143.55,186.28c-7,3.71-15.69-.59-15.83-9.58-7.24-1.35-10.69-8.42-7.57-15.09l-8.42-3.93c-.45,1-.84,2-1.27,2.93-1,2.25-2.59,2.92-4.9,2q-11.16-4.26-22.31-8.56c-.71-.27-1.43-.53-2.12-.83a3.34,3.34,0,0,1-2-4.69q3.09-8.16,6.24-16.29L100,94.2c.15-.38.28-.76.43-1.13,1-2.54,2.52-3.27,5.09-2.37q11.19,4,22.37,8c1.14.4,2.28.8,3.41,1.23a3.31,3.31,0,0,1,2,4.57c-.4,1.08-.86,2.14-1.36,3.37,5.71.8,11.2,2.16,16.86-.07,7.7-3,15.53-5.73,23.32-8.54a14.5,14.5,0,0,1,10.87.32c2.28.94,4.56,1.86,6.86,2.74a2.32,2.32,0,0,0,1.38,0,22,22,0,0,1,13.48.06c5.89,1.83,11.79,3.67,17.74,5.28,4.36,1.18,8.6.11,12.91-1.34-.26-1.06-.52-2.09-.78-3.11A3.3,3.3,0,0,1,237,99q12.17-3.33,24.36-6.55c2-.53,3.65.61,4.22,2.73q3,11,5.93,22,4.75,17.7,9.52,35.39c.68,2.53-.2,4.1-2.71,4.77q-11.6,3.1-23.21,6.16c-2.58.68-4.15-.25-4.84-2.81-.14-.51-.3-1-.5-1.67a22.09,22.09,0,0,1-11.17,1c-.78,7.11-4.66,11-11.73,11.77a29.2,29.2,0,0,1-.84,2.88,9.5,9.5,0,0,1-7.4,6.14c-.85.16-1.37.37-1.57,1.4a9.45,9.45,0,0,1-13.4,6.94l-.62-.27a23.6,23.6,0,0,1-1.39,2.5A8.13,8.13,0,0,1,191.43,194q-6.08-2.7-12.08-5.53c-.87-.41-1.32-.3-1.84.5-1.08,1.65-2.24,3.24-3.39,4.84-5,7-15,6.11-18.62-1.69-.28-.6-.51-.93-1.26-.84a10.3,10.3,0,0,1-10.46-4.86C143.74,186.35,143.63,186.32,143.55,186.28Zm38.71-3.93,3,1.4c3,1.37,6,2.73,9,4.11.85.4,1.64.19,1.88-.62a2.56,2.56,0,0,0-.55-1.81c-.28-.39-.9-.56-1.37-.81-2.48-1.34-5-2.64-7.44-4a3.27,3.27,0,0,1-1.38-4.5,3.33,3.33,0,0,1,4.37-1.5c.53.22,1,.53,1.55.79,4.9,2.5,9.8,5,14.72,7.49,1.71.86,3.3.41,4-1.05s.22-2.86-1.38-3.83c-.23-.14-.46-.26-.7-.39L183.7,163.39c-1.94-1.14-2.55-3.09-1.54-4.79s3-2.18,5-1l4.88,2.84q11.41,6.66,22.85,13.32a3.2,3.2,0,0,0,4.57-1c1-1.59.47-3.29-1.35-4.43q-6.15-3.84-12.32-7.66c-4.18-2.59-8.39-5.14-12.57-7.75a3.3,3.3,0,0,1-1.41-4.09,3.27,3.27,0,0,1,3.79-2.07,7.5,7.5,0,0,1,2,1q4.19,2.53,8.35,5.13,8.79,5.44,17.55,10.93a5.42,5.42,0,0,0,4.16,1.09,4.71,4.71,0,0,0,3.84-4c.38-2.3-.68-3.93-2.57-5.18q-15.24-10.06-30.45-20.19a9.84,9.84,0,0,0-11.68-.07c-4,2.61-8,5.24-12.11,7.73a10.47,10.47,0,0,1-12.43-16.76q8.34-7.69,16.72-15.36l4.23-3.92c-3.77-2.24-6.18-2.48-10.08-1.06q-11.41,4.14-22.82,8.31a22,22,0,0,1-9.49,1.42c-3.38-.29-6.75-.83-10.11-1.33a1.57,1.57,0,0,0-2.06,1.16c-3.84,9.69-7.77,19.35-11.67,29-.9,2.22-1.77,4.45-2.64,6.66a3.28,3.28,0,0,0,.47.33c2.67,1.26,5.37,2.47,8,3.8,1,.52,1.51.33,2.15-.6a9.94,9.94,0,0,1,10.85-4,10.9,10.9,0,0,1,5.69,3.85c2.6-4.19,6.2-6.47,11.07-5.7s7.73,4,8.76,8.8a10.86,10.86,0,0,1,7.26,2.59,11,11,0,0,1,3.52,6.68C179,167,185.44,173.54,182.26,182.35Zm55-69.42c-.78.21-1.46.37-2.13.58a28.45,28.45,0,0,1-17.69-.12q-7.65-2.49-15.4-4.71a13.54,13.54,0,0,0-13.45,2.87c-7.31,6.53-14.49,13.23-21.67,19.9a4.64,4.64,0,0,0-1.24,2.29,3.29,3.29,0,0,0,1.53,3.6,3.7,3.7,0,0,0,4.29-.07c4.08-2.61,8.11-5.29,12.23-7.81,6-3.68,12.16-3.64,18.12.14,5.18,3.28,10.23,6.77,15.34,10.16,6,4,11.9,8,17.94,11.83,4,2.56,8.32,2.68,12.85.84C244.39,139.28,240.83,126.18,237.24,112.93ZM105.43,155.37c6.76-16.78,13.5-33.47,20.28-50.29L105.81,98C99.37,114.72,93,131.38,86.52,148.1Zm168.31-3.76c-4.67-17.3-9.28-34.43-13.94-51.7L242,104.68c4.69,17.26,9.33,34.37,14,51.62ZM138.9,180.86a6.22,6.22,0,0,0,2.14-1.43c4.39-6,8.69-12.13,13-18.26a3.45,3.45,0,0,0-.91-5,3.53,3.53,0,0,0-5,.93c-.68.89-1.31,1.82-2,2.73l-10.76,15.22a3.45,3.45,0,0,0-.3,3.9C135.78,180.23,136.88,180.84,138.9,180.86Zm26.65-12.67a3.92,3.92,0,0,0-2.71-3.48,3.5,3.5,0,0,0-4.08,1.55c-2.94,4.1-5.85,8.23-8.76,12.35-1.36,1.93-1.12,4.11.56,5.34s3.85.81,5.24-1.12c2.94-4.11,5.86-8.22,8.74-12.37A12.54,12.54,0,0,0,165.55,168.19ZM165.44,192c.9-.52,2.07-.83,2.65-1.59q4-5.3,7.7-10.81a3.83,3.83,0,0,0-6.23-4.41c-2.64,3.55-5.25,7.13-7.64,10.86C160.32,188.58,162.36,191.82,165.44,192Zm-36.3-21.91c.79-.44,1.82-.69,2.34-1.35,1.66-2.1,3.2-4.31,4.66-6.56a3.28,3.28,0,0,0-5.4-3.71c-1.57,2.06-3.1,4.17-4.49,6.36A3.49,3.49,0,0,0,129.14,170.12Z"/></g></svg>