<svg xmlns="http://www.w3.org/2000/svg" viewBox="0 0 360 360"><defs><style>.cls-1{fill:#f1f2f2;}.cls-2{fill:#ef4a2b;}.cls-3,.cls-4{fill:none;}.cls-3,.cls-4,.cls-5{stroke:#ef4a2b;stroke-miterlimit:10;}.cls-3{stroke-width:3px;}.cls-5,.cls-6{fill:#fff;}.cls-5{stroke-width:2px;}</style></defs><g id="BACKGROUND"><rect class="cls-1" x="-0.54" width="360" height="360"/></g><g id="LINE_ONE" data-name="LINE ONE"><path class="cls-2" d="M83,236.92a9.16,9.16,0,0,1,.48-3.07,6.47,6.47,0,0,1,1.37-2.29A6,6,0,0,1,87,230.13a8,8,0,0,1,2.85-.49,6.81,6.81,0,0,1,3.76,1,5.29,5.29,0,0,1,2.16,3l-2.92,1a4,4,0,0,0-1.08-1.83,2.86,2.86,0,0,0-2-.65,3.51,3.51,0,0,0-1.62.36,3.35,3.35,0,0,0-1.16,1,4.77,4.77,0,0,0-.69,1.51,7.77,7.77,0,0,0-.23,1.92,7.57,7.57,0,0,0,.23,1.91,4.77,4.77,0,0,0,.69,1.51,3.28,3.28,0,0,0,1.16,1,3.57,3.57,0,0,0,1.64.36,2.9,2.9,0,0,0,1.89-.58,3.48,3.48,0,0,0,1.11-1.76l2.88,1a5.9,5.9,0,0,1-2.16,2.8,6.4,6.4,0,0,1-3.76,1,7.57,7.57,0,0,1-2.79-.49,5.9,5.9,0,0,1-2.14-1.42A6.3,6.3,0,0,1,83.51,240,9.18,9.18,0,0,1,83,236.92Z"/><path class="cls-2" d="M99.63,236.92a9.08,9.08,0,0,1,.49-3,6.64,6.64,0,0,1,1.38-2.29,6.16,6.16,0,0,1,2.15-1.44,8.09,8.09,0,0,1,5.6,0,6.07,6.07,0,0,1,2.15,1.44,6.35,6.35,0,0,1,1.38,2.29,9.74,9.74,0,0,1,0,6.1,6.27,6.27,0,0,1-1.38,2.29,5.82,5.82,0,0,1-2.15,1.44,8.09,8.09,0,0,1-5.6,0,5.9,5.9,0,0,1-2.15-1.44,6.55,6.55,0,0,1-1.38-2.29A9,9,0,0,1,99.63,236.92Zm3.1,0a7.9,7.9,0,0,0,.23,2,4.63,4.63,0,0,0,.69,1.52,3.22,3.22,0,0,0,1.16,1,3.57,3.57,0,0,0,1.64.35,3.51,3.51,0,0,0,1.64-.35,3.06,3.06,0,0,0,1.16-1,4.25,4.25,0,0,0,.69-1.52,7.45,7.45,0,0,0,.23-2,7.56,7.56,0,0,0-.23-1.95,4.33,4.33,0,0,0-.69-1.52,3.16,3.16,0,0,0-1.16-1,3.64,3.64,0,0,0-1.64-.35,3.7,3.7,0,0,0-1.64.35,3.32,3.32,0,0,0-1.16,1A4.73,4.73,0,0,0,103,235,8,8,0,0,0,102.73,236.92Z"/><path class="cls-2" d="M118,229.92h3v11.5h6.12v2.5H118Z"/><path class="cls-2" d="M131.29,229.92h3v11.5h6.12v2.5h-9.12Z"/><path class="cls-2" d="M156.77,243.92h-3.1l-1.12-3.24h-5l-1.12,3.24h-2.94l5-14h3.22ZM150,233.2a3.53,3.53,0,0,1-.14.47c-.06.21-.14.44-.22.7s-.17.54-.27.84-.19.59-.29.87c-.22.7-.47,1.44-.74,2.22h3.38l-.74-2.22-.35-1q-.12-.39-.24-.75c-.07-.24-.14-.46-.21-.67l-.14-.47Z"/><path class="cls-2" d="M160.91,229.92H167a5.22,5.22,0,0,1,1.75.28,3.87,3.87,0,0,1,1.3.77,3.21,3.21,0,0,1,.81,1.16,3.67,3.67,0,0,1,.28,1.45,3.33,3.33,0,0,1-.18,1.14,2.78,2.78,0,0,1-.47.87,2.58,2.58,0,0,1-.66.62,2.94,2.94,0,0,1-.77.39,3.6,3.6,0,0,1,.93.26,3.12,3.12,0,0,1,.87.57,2.73,2.73,0,0,1,.65.93,3.37,3.37,0,0,1,.25,1.38,4,4,0,0,1-.34,1.67,3.7,3.7,0,0,1-.94,1.32,4.34,4.34,0,0,1-1.42.87,4.73,4.73,0,0,1-1.8.32h-6.34Zm2.92,2.44v3.24h2.1a2.83,2.83,0,0,0,1.6-.36,1.46,1.46,0,0,0,.52-1.3,1.48,1.48,0,0,0-.45-1.22,2.44,2.44,0,0,0-1.51-.36Zm0,9.12h2.4a3,3,0,0,0,1.93-.45,1.65,1.65,0,0,0,.51-1.31,1.43,1.43,0,0,0-.62-1.37,3.91,3.91,0,0,0-1.86-.35h-2.36Z"/><path class="cls-2" d="M175.83,236.92a9.08,9.08,0,0,1,.49-3,6.64,6.64,0,0,1,1.38-2.29,6.16,6.16,0,0,1,2.15-1.44,8.09,8.09,0,0,1,5.6,0,6.07,6.07,0,0,1,2.15,1.44,6.35,6.35,0,0,1,1.38,2.29,9.74,9.74,0,0,1,0,6.1,6.27,6.27,0,0,1-1.38,2.29,5.82,5.82,0,0,1-2.15,1.44,8.09,8.09,0,0,1-5.6,0,5.9,5.9,0,0,1-2.15-1.44,6.55,6.55,0,0,1-1.38-2.29A9,9,0,0,1,175.83,236.92Zm3.1,0a7.9,7.9,0,0,0,.23,2,4.63,4.63,0,0,0,.69,1.52,3.22,3.22,0,0,0,1.16,1,3.57,3.57,0,0,0,1.64.35,3.51,3.51,0,0,0,1.64-.35,3.06,3.06,0,0,0,1.16-1,4.25,4.25,0,0,0,.69-1.52,7.45,7.45,0,0,0,.23-2,7.56,7.56,0,0,0-.23-1.95,4.33,4.33,0,0,0-.69-1.52,3.16,3.16,0,0,0-1.16-1,3.64,3.64,0,0,0-1.64-.35,3.7,3.7,0,0,0-1.64.35,3.32,3.32,0,0,0-1.16,1,4.73,4.73,0,0,0-.69,1.52A8,8,0,0,0,178.93,236.92Z"/><path class="cls-2" d="M204.65,234.18a3.94,3.94,0,0,1-2.66,4l3.22,5.74h-3.3l-2.9-5.3h-1.86v5.3h-3v-14h5.12a9.33,9.33,0,0,1,2.21.25,4.87,4.87,0,0,1,1.69.77,3.46,3.46,0,0,1,1.08,1.32A4.39,4.39,0,0,1,204.65,234.18Zm-3.08,0a1.49,1.49,0,0,0-.65-1.41,3.91,3.91,0,0,0-2-.39h-1.8v3.78H199a3.48,3.48,0,0,0,2-.45A1.71,1.71,0,0,0,201.57,234.2Z"/><path class="cls-2" d="M221.85,243.92h-3.1l-1.12-3.24h-5l-1.12,3.24h-2.94l5-14h3.22Zm-6.76-10.72a3.53,3.53,0,0,1-.14.47c-.06.21-.14.44-.22.7s-.17.54-.27.84-.19.59-.29.87c-.22.7-.47,1.44-.74,2.22h3.38l-.74-2.22-.35-1q-.12-.39-.24-.75c-.07-.24-.14-.46-.21-.67l-.14-.47Z"/><path class="cls-2" d="M223.33,229.92h11.1v2.5h-4v11.5h-3v-11.5h-4Z"/><path class="cls-2" d="M238.65,229.92h3v14h-3Z"/><path class="cls-2" d="M246.35,236.92a9.08,9.08,0,0,1,.49-3,6.64,6.64,0,0,1,1.38-2.29,6.16,6.16,0,0,1,2.15-1.44,8.09,8.09,0,0,1,5.6,0,6.07,6.07,0,0,1,2.15,1.44,6.35,6.35,0,0,1,1.38,2.29,9.74,9.74,0,0,1,0,6.1,6.27,6.27,0,0,1-1.38,2.29A5.82,5.82,0,0,1,256,243.7a8.09,8.09,0,0,1-5.6,0,5.9,5.9,0,0,1-2.15-1.44,6.55,6.55,0,0,1-1.38-2.29A9,9,0,0,1,246.35,236.92Zm3.1,0a7.9,7.9,0,0,0,.23,2,4.63,4.63,0,0,0,.69,1.52,3.22,3.22,0,0,0,1.16,1,3.57,3.57,0,0,0,1.64.35,3.51,3.51,0,0,0,1.64-.35,3.06,3.06,0,0,0,1.16-1,4.25,4.25,0,0,0,.69-1.52,7.45,7.45,0,0,0,.23-2,7.56,7.56,0,0,0-.23-1.95,4.33,4.33,0,0,0-.69-1.52,3.16,3.16,0,0,0-1.16-1,3.64,3.64,0,0,0-1.64-.35,3.7,3.7,0,0,0-1.64.35,3.32,3.32,0,0,0-1.16,1,4.73,4.73,0,0,0-.69,1.52A8,8,0,0,0,249.45,236.92Z"/><path class="cls-2" d="M264.69,229.92h3.12l2.32,3.76,1.08,1.75.84,1.37.8,1.29.64,1h.06v-9.2h2.84v14h-3.12c-.8-1.29-1.56-2.52-2.28-3.7l-1.07-1.73c-.29-.46-.57-.92-.85-1.38l-.81-1.32-.67-1.07h-.06v9.2h-2.84Z"/></g><g id="ICON"><polygon class="cls-3" points="69.51 145.21 67.14 144.14 68.32 142.41 70.8 141.33 116.29 128.4 123.19 127.32 238.33 127.32 249.11 129.47 259.89 132.49 276.27 137.24 288.35 140.69 293.52 142.84 293.52 145.21 291.58 146.51 282.53 148.88 266.36 153.41 255.79 157.07 246.74 159.01 234.88 161.17 129.01 161.17 114.57 159.44 102.06 156.21 91.28 152.98 79.42 149.53 69.51 145.21"/><rect class="cls-4" x="129.01" y="132.49" width="106.08" height="22.71" rx="3.6"/><polyline class="cls-4" points="146.64 140.97 177.54 110.36 177.54 105.76 181.28 101.3 191.91 90.81 193.64 90.09 197.81 94.4 197.81 96.13 182.14 110.36 177.54 110.36"/><polyline class="cls-4" points="178.46 140.97 209.36 110.36 209.36 105.76 213.1 101.3 223.74 90.81 225.46 90.09 229.63 94.4 229.63 96.13 213.96 110.36 209.36 110.36"/><polyline class="cls-4" points="210.18 140.97 241.09 110.36 241.09 105.76 244.82 101.3 255.46 90.81 257.19 90.09 261.35 94.4 261.35 96.13 245.69 110.36 241.09 110.36"/><polyline class="cls-4" points="146.79 147.21 177.69 177.82 177.69 182.42 181.43 186.88 192.06 197.37 193.79 198.09 197.96 193.78 197.96 192.05 182.29 177.82 177.69 177.82"/><polyline class="cls-4" points="178.61 147.21 209.51 177.82 209.51 182.42 213.25 186.88 223.89 197.37 225.61 198.09 229.78 193.78 229.78 192.05 214.12 177.82 209.51 177.82"/><polyline class="cls-4" points="210.33 147.21 241.24 177.82 241.24 182.42 244.97 186.88 255.61 197.37 257.34 198.09 261.5 193.78 261.5 192.05 245.84 177.82 241.24 177.82"/><rect class="cls-5" x="210.33" y="134.94" width="6.89" height="18.36" rx="2.5"/><circle class="cls-5" cx="210.83" cy="144.11" r="4.97"/><rect class="cls-5" x="176.01" y="134.94" width="6.89" height="18.36" rx="2.5"/><circle class="cls-5" cx="176.51" cy="144.11" r="4.97"/><rect class="cls-5" x="144.59" y="134.94" width="6.89" height="18.36" rx="2.5"/><circle class="cls-5" cx="145.09" cy="144.11" r="4.97"/><rect class="cls-2" y="336.06" width="360" height="23.94"/><path class="cls-6" d="M265.76,352.49v-8.4h5.72v1.49h-4v1.84h3.68v1.49h-3.68V351h4v1.49Z"/><path class="cls-6" d="M278.79,348.08l3.11,4.41h-2.16l-2-2.92-2.06,2.92h-2l3.09-4.32-2.85-4.08H276l1.77,2.59,1.82-2.59h2Z"/><path class="cls-6" d="M286.16,349.54v2.95h-1.79v-8.4h3.19a5.81,5.81,0,0,1,1.37.15,3,3,0,0,1,1,.48,2.26,2.26,0,0,1,.67.83,2.67,2.67,0,0,1,.25,1.21,3,3,0,0,1-.25,1.25,2.5,2.5,0,0,1-.68.86,2.84,2.84,0,0,1-1,.5,5.2,5.2,0,0,1-1.35.17Zm2.89-2.78a1,1,0,0,0-.41-.93,2.48,2.48,0,0,0-1.26-.25h-1.22v2.47h1.22a2.17,2.17,0,0,0,1.26-.3A1.15,1.15,0,0,0,289.05,346.76Z"/><path class="cls-6" d="M293.53,352.49v-8.4h5.72v1.49H295.3v1.84H299v1.49H295.3V351h4v1.49Z"/><path class="cls-6" d="M308.38,346.64a2.34,2.34,0,0,1-1.59,2.4l1.93,3.45h-2L305,349.31h-1.12v3.18h-1.79v-8.4h3.07a5.41,5.41,0,0,1,1.33.15,2.89,2.89,0,0,1,1,.46,2.06,2.06,0,0,1,.64.79A2.57,2.57,0,0,1,308.38,346.64Zm-1.85,0a.91.91,0,0,0-.39-.85,2.3,2.3,0,0,0-1.18-.23h-1.08v2.26H305a2.08,2.08,0,0,0,1.18-.27A1,1,0,0,0,306.53,346.66Z"/><path class="cls-6" d="M311.41,344.09h1.8v8.4h-1.8Z"/><path class="cls-6" d="M316.37,352.49v-8.4h5.73v1.49h-4v1.84h3.67v1.49h-3.67V351h4v1.49Z"/><path class="cls-6" d="M324.94,344.09h1.87l1.4,2.25.64,1.05.51.83.48.77.38.62h0v-5.52H332v8.4h-1.87l-1.37-2.22c-.25-.42-.47-.76-.64-1l-.51-.83-.49-.79c-.15-.25-.29-.47-.4-.64h0v5.52h-1.71Z"/><path class="cls-6" d="M334.78,348.29a5.51,5.51,0,0,1,.29-1.84,4,4,0,0,1,.82-1.38,3.65,3.65,0,0,1,1.3-.86,4.87,4.87,0,0,1,1.71-.29,4.07,4.07,0,0,1,2.25.59,3.21,3.21,0,0,1,1.3,1.79l-1.75.61a2.43,2.43,0,0,0-.65-1.1,1.71,1.71,0,0,0-1.19-.39,2,2,0,0,0-1.67.81,2.63,2.63,0,0,0-.41.91,4.59,4.59,0,0,0-.14,1.15,4.51,4.51,0,0,0,.14,1.14,2.81,2.81,0,0,0,.41.91,1.92,1.92,0,0,0,.7.6,2.18,2.18,0,0,0,1,.22,1.78,1.78,0,0,0,1.14-.35,2.15,2.15,0,0,0,.66-1.06l1.73.61a3.53,3.53,0,0,1-1.29,1.68,3.87,3.87,0,0,1-2.26.62,4.44,4.44,0,0,1-1.67-.3,3.54,3.54,0,0,1-1.29-.85,3.82,3.82,0,0,1-.82-1.37A5.61,5.61,0,0,1,334.78,348.29Z"/><path class="cls-6" d="M345.09,352.49v-8.4h5.72v1.49h-3.94v1.84h3.67v1.49h-3.67V351h4v1.49Z"/></g></svg>