<svg xmlns="http://www.w3.org/2000/svg" viewBox="0 0 360 360"><defs><style>.cls-1{fill:#fff;}.cls-2{fill:none;stroke:#fff;stroke-linecap:round;stroke-miterlimit:10;stroke-width:3.32px;}</style></defs><g id="BACKGROUND"><rect x="-1" width="360" height="360"/></g><g id="LINE_ONE" data-name="LINE ONE"><path class="cls-1" d="M95.08,241.16a9.12,9.12,0,0,1,.48-3.07,6.39,6.39,0,0,1,1.37-2.29,5.64,5.64,0,0,1,2.16-1.43,7.82,7.82,0,0,1,2.85-.49,6.75,6.75,0,0,1,3.76,1,5.32,5.32,0,0,1,2.16,3l-2.92,1a3.92,3.92,0,0,0-1.08-1.83,2.82,2.82,0,0,0-2-.65,3.51,3.51,0,0,0-1.62.36,3.26,3.26,0,0,0-1.16,1,4.28,4.28,0,0,0-.69,1.51,8.09,8.09,0,0,0,0,3.83,4.45,4.45,0,0,0,.69,1.51,3.29,3.29,0,0,0,1.16,1,3.54,3.54,0,0,0,1.64.36,3,3,0,0,0,1.89-.58,3.57,3.57,0,0,0,1.11-1.76l2.88,1a6.07,6.07,0,0,1-2.16,2.8,6.42,6.42,0,0,1-3.76,1,7.7,7.7,0,0,1-2.79-.49,5.94,5.94,0,0,1-2.14-1.42,6.3,6.3,0,0,1-1.37-2.29A9.26,9.26,0,0,1,95.08,241.16Z"/><path class="cls-1" d="M111.68,241.16a8.79,8.79,0,0,1,.49-3,6.55,6.55,0,0,1,1.38-2.29,5.82,5.82,0,0,1,2.15-1.44,8.09,8.09,0,0,1,5.6,0,5.82,5.82,0,0,1,2.15,1.44,6.55,6.55,0,0,1,1.38,2.29,9.74,9.74,0,0,1,0,6.1,6.64,6.64,0,0,1-1.38,2.29,5.94,5.94,0,0,1-2.15,1.44,8.09,8.09,0,0,1-5.6,0,5.94,5.94,0,0,1-2.15-1.44,6.64,6.64,0,0,1-1.38-2.29A8.83,8.83,0,0,1,111.68,241.16Zm3.1,0a8,8,0,0,0,.23,2,4.33,4.33,0,0,0,.69,1.52,3.24,3.24,0,0,0,1.16,1,4,4,0,0,0,3.28,0,3.24,3.24,0,0,0,1.16-1,4.33,4.33,0,0,0,.69-1.52,8,8,0,0,0,.23-2,7.9,7.9,0,0,0-.23-1.95,4.25,4.25,0,0,0-.69-1.52,3.14,3.14,0,0,0-1.16-1,4,4,0,0,0-3.28,0,3.14,3.14,0,0,0-1.16,1,4.25,4.25,0,0,0-.69,1.52A7.9,7.9,0,0,0,114.78,241.16Z"/><path class="cls-1" d="M130,234.16h3.12l2.32,3.76c.44.7.8,1.29,1.08,1.75l.84,1.37.8,1.29.64,1h.06v-9.2h2.84v14H138.6l-2.28-3.7-1.07-1.73c-.29-.46-.57-.92-.85-1.38l-.81-1.32c-.26-.42-.48-.78-.67-1.07h-.06v9.2H130Z"/><path class="cls-1" d="M147,234.16h3.12l2.32,3.76c.44.7.8,1.29,1.08,1.75l.84,1.37.8,1.29.64,1h.06v-9.2h2.84v14h-3.12l-2.28-3.7-1.07-1.73c-.29-.46-.57-.92-.85-1.38l-.81-1.32c-.26-.42-.48-.78-.67-1.07h-.06v9.2H147Z"/><path class="cls-1" d="M164,248.16v-14h9.54v2.48h-6.58v3.08h6.12v2.48h-6.12v3.48h6.68v2.48Z"/><path class="cls-1" d="M177.68,241.16a9.12,9.12,0,0,1,.48-3.07,6.39,6.39,0,0,1,1.37-2.29,5.64,5.64,0,0,1,2.16-1.43,7.82,7.82,0,0,1,2.85-.49,6.75,6.75,0,0,1,3.76,1,5.32,5.32,0,0,1,2.16,3l-2.92,1a3.92,3.92,0,0,0-1.08-1.83,2.82,2.82,0,0,0-2-.65,3.51,3.51,0,0,0-1.62.36,3.26,3.26,0,0,0-1.16,1,4.28,4.28,0,0,0-.69,1.51,8.09,8.09,0,0,0,0,3.83,4.45,4.45,0,0,0,.69,1.51,3.29,3.29,0,0,0,1.16,1,3.54,3.54,0,0,0,1.64.36,3,3,0,0,0,1.89-.58,3.57,3.57,0,0,0,1.11-1.76l2.88,1a6.07,6.07,0,0,1-2.16,2.8,6.42,6.42,0,0,1-3.76,1,7.7,7.7,0,0,1-2.79-.49,5.94,5.94,0,0,1-2.14-1.42,6.3,6.3,0,0,1-1.37-2.29A9.26,9.26,0,0,1,177.68,241.16Z"/><path class="cls-1" d="M193.8,234.16h11.1v2.5h-4v11.5h-3v-11.5h-4Z"/><path class="cls-1" d="M209.12,234.16h3v14h-3Z"/><path class="cls-1" d="M216.82,241.16a8.79,8.79,0,0,1,.49-3,6.55,6.55,0,0,1,1.38-2.29,5.82,5.82,0,0,1,2.15-1.44,8.09,8.09,0,0,1,5.6,0,5.82,5.82,0,0,1,2.15,1.44,6.55,6.55,0,0,1,1.38,2.29,9.74,9.74,0,0,1,0,6.1,6.64,6.64,0,0,1-1.38,2.29,5.94,5.94,0,0,1-2.15,1.44,8.09,8.09,0,0,1-5.6,0,5.94,5.94,0,0,1-2.15-1.44,6.64,6.64,0,0,1-1.38-2.29A8.83,8.83,0,0,1,216.82,241.16Zm3.1,0a8,8,0,0,0,.23,2,4.33,4.33,0,0,0,.69,1.52,3.24,3.24,0,0,0,1.16,1,4,4,0,0,0,3.28,0,3.24,3.24,0,0,0,1.16-1,4.33,4.33,0,0,0,.69-1.52,8,8,0,0,0,.23-2,7.9,7.9,0,0,0-.23-1.95,4.25,4.25,0,0,0-.69-1.52,3.14,3.14,0,0,0-1.16-1,4,4,0,0,0-3.28,0,3.14,3.14,0,0,0-1.16,1,4.25,4.25,0,0,0-.69,1.52A7.9,7.9,0,0,0,219.92,241.16Z"/><path class="cls-1" d="M235.16,234.16h3.12l2.32,3.76c.44.7.8,1.29,1.08,1.75l.84,1.37.8,1.29.64,1H244v-9.2h2.84v14h-3.12l-2.28-3.7-1.07-1.73c-.29-.46-.57-.92-.85-1.38l-.81-1.32-.67-1.07H238v9.2h-2.84Z"/><path class="cls-1" d="M254.86,237.84a1.34,1.34,0,0,0,.78,1.29,9.36,9.36,0,0,0,2.48.67,7.86,7.86,0,0,1,3.67,1.38A3.48,3.48,0,0,1,263,244a3.92,3.92,0,0,1-.42,1.83,4.07,4.07,0,0,1-1.17,1.38,5.65,5.65,0,0,1-1.79.88,8.17,8.17,0,0,1-2.26.31,7.63,7.63,0,0,1-2.38-.35,5.87,5.87,0,0,1-1.8-.93A4.28,4.28,0,0,1,252,245.8a3.67,3.67,0,0,1-.46-1.62l3-.48a2.52,2.52,0,0,0,.79,1.67,2.84,2.84,0,0,0,2,.65,5.4,5.4,0,0,0,1-.1,2.61,2.61,0,0,0,.82-.33,1.87,1.87,0,0,0,.55-.57,1.63,1.63,0,0,0,.2-.82,1.35,1.35,0,0,0-.65-1.2,6.38,6.38,0,0,0-2.29-.68,17.16,17.16,0,0,1-2-.46,5.72,5.72,0,0,1-1.63-.77,3.51,3.51,0,0,1-1.08-1.22,3.79,3.79,0,0,1-.39-1.79,3.93,3.93,0,0,1,.4-1.84,3.62,3.62,0,0,1,1.12-1.31,4.76,4.76,0,0,1,1.7-.79,8,8,0,0,1,2.14-.26,7.71,7.71,0,0,1,2,.25,5.28,5.28,0,0,1,1.67.74,4.36,4.36,0,0,1,1.21,1.21,4.49,4.49,0,0,1,.66,1.64l-3,.66a2.45,2.45,0,0,0-.82-1.52,2.64,2.64,0,0,0-1.78-.56,2.76,2.76,0,0,0-1.69.42A1.33,1.33,0,0,0,254.86,237.84Z"/></g><g id="ICON"><path class="cls-1" d="M177.2,130h0a9.33,9.33,0,1,1-3.29.61,9.35,9.35,0,0,1,3.29-.61m0-3.32A12.63,12.63,0,1,0,189,134.87a12.69,12.69,0,0,0-11.81-8.17Z"/><path class="cls-1" d="M223.15,143.74h0a6.93,6.93,0,0,1,2.45,13.42,6.86,6.86,0,0,1-2.45.45,6.93,6.93,0,0,1-6.32-9.79,7,7,0,0,1,6.32-4.08m0-3.32a10.26,10.26,0,1,0,9.59,6.63,10.2,10.2,0,0,0-9.59-6.63Z"/><path class="cls-1" d="M147.32,99.23h0a6.93,6.93,0,0,1,6.32,9.79,7,7,0,0,1-6.32,4.08,7,7,0,0,1-6.48-4.48,6.94,6.94,0,0,1,6.48-9.39m0-3.32a10.26,10.26,0,1,0,9.6,6.63,10.24,10.24,0,0,0-9.6-6.63Z"/><path class="cls-1" d="M201.72,94.63h0a5,5,0,0,1,4.62,3.2,4.94,4.94,0,0,1-2.88,6.37,4.94,4.94,0,0,1-6.25-6.66A4.91,4.91,0,0,1,200,95a5,5,0,0,1,1.75-.32m0-3.32a8.27,8.27,0,1,0,7.73,5.34,8.31,8.31,0,0,0-7.73-5.34Z"/><path class="cls-1" d="M202.74,181.14h0a7,7,0,0,1,6.48,4.48,6.94,6.94,0,0,1-6.48,9.39,6.93,6.93,0,0,1-2.45-13.42,6.86,6.86,0,0,1,2.45-.45m0-3.32a10.26,10.26,0,1,0,9.59,6.63,10.29,10.29,0,0,0-9.59-6.63Z"/><path class="cls-1" d="M136.85,165.38h0a6.93,6.93,0,0,1,2.45,13.42,6.86,6.86,0,0,1-2.45.45,6.93,6.93,0,0,1-2.45-13.42,6.86,6.86,0,0,1,2.45-.45m0-3.32a10.26,10.26,0,1,0,9.59,6.63,10.2,10.2,0,0,0-9.59-6.63Z"/><line class="cls-2" x1="144.3" y1="165.27" x2="169.22" y2="149.12"/><line class="cls-2" x1="199.11" y1="178.48" x2="183.08" y2="150.64"/><line class="cls-2" x1="144.87" y1="175.57" x2="194.13" y2="188.47"/><line class="cls-2" x1="146.87" y1="170.14" x2="213.56" y2="154.3"/><line class="cls-2" x1="183.82" y1="128.58" x2="197.45" y2="106.65"/><line class="cls-2" x1="153.96" y1="114.62" x2="168.21" y2="130.46"/><line class="cls-2" x1="203.92" y1="105.41" x2="219.47" y2="142.71"/></g></svg>