<svg xmlns="http://www.w3.org/2000/svg" viewBox="0 0 360 360"><defs><style>.cls-1{fill:#fff;}</style></defs><g id="BACKGROUND"><rect width="360" height="360"/></g><g id="LINE_ONE" data-name="LINE ONE"><path class="cls-1" d="M133.32,248.16v-14h9.54v2.48h-6.58v3.08h6.12v2.48h-6.12v3.48H143v2.48Z"/><path class="cls-1" d="M159.75,248.16h-3.09l-1.13-3.24h-5l-1.11,3.24h-3l5-14h3.23ZM153,237.44c0,.11-.07.26-.13.47s-.14.44-.22.7-.17.54-.27.84-.2.59-.3.87c-.22.69-.47,1.43-.74,2.22h3.39c-.27-.79-.52-1.53-.74-2.22-.15-.4-.27-.73-.35-1s-.17-.51-.24-.75l-.22-.67-.14-.47Z"/><path class="cls-1" d="M166.41,237.84a1.33,1.33,0,0,0,.79,1.29,9.38,9.38,0,0,0,2.47.67,7.82,7.82,0,0,1,3.67,1.38,3.45,3.45,0,0,1,1.17,2.86,3.8,3.8,0,0,1-.42,1.83,4,4,0,0,1-1.17,1.38,5.59,5.59,0,0,1-1.78.88,7.81,7.81,0,0,1-2.26.31,7.7,7.7,0,0,1-2.39-.35,5.71,5.71,0,0,1-1.79-.93,4.44,4.44,0,0,1-1.17-1.36,3.81,3.81,0,0,1-.46-1.62l3-.48a2.57,2.57,0,0,0,.8,1.67,2.81,2.81,0,0,0,2,.65,4.68,4.68,0,0,0,1-.1,2.61,2.61,0,0,0,.82-.33,1.63,1.63,0,0,0,.54-.57,1.54,1.54,0,0,0,.21-.82,1.35,1.35,0,0,0-.65-1.2,6.38,6.38,0,0,0-2.3-.68,15.6,15.6,0,0,1-2-.46,5.65,5.65,0,0,1-1.64-.77,3.72,3.72,0,0,1-1.08-1.22,3.76,3.76,0,0,1-.38-1.79,3.93,3.93,0,0,1,.4-1.84,3.52,3.52,0,0,1,1.12-1.31,5,5,0,0,1,1.69-.79,8.56,8.56,0,0,1,2.15-.26,7.58,7.58,0,0,1,2,.25,5.41,5.41,0,0,1,1.67.74,4.39,4.39,0,0,1,1.22,1.21,4.67,4.67,0,0,1,.66,1.64l-3.05.66a2.39,2.39,0,0,0-.81-1.52,2.71,2.71,0,0,0-1.78-.56,2.76,2.76,0,0,0-1.69.42A1.33,1.33,0,0,0,166.41,237.84Z"/><path class="cls-1" d="M179.18,248.16v-14h9.54v2.48h-6.58v3.08h6.11v2.48h-6.11v3.48h6.68v2.48Z"/><path class="cls-1" d="M199.57,241.16a9.08,9.08,0,0,1,.49-3,6.51,6.51,0,0,1,1.39-2.29,5.78,5.78,0,0,1,2.14-1.44,8.12,8.12,0,0,1,5.61,0,5.86,5.86,0,0,1,2.14,1.44,6.35,6.35,0,0,1,1.38,2.29,9.74,9.74,0,0,1,0,6.1,6.35,6.35,0,0,1-1.38,2.29,5.86,5.86,0,0,1-2.14,1.44,8.12,8.12,0,0,1-5.61,0,5.78,5.78,0,0,1-2.14-1.44,6.51,6.51,0,0,1-1.39-2.29A9.08,9.08,0,0,1,199.57,241.16Zm3.1,0a7.49,7.49,0,0,0,.24,2,4.51,4.51,0,0,0,.68,1.52,3.22,3.22,0,0,0,1.16,1,3.7,3.7,0,0,0,1.64.35,3.64,3.64,0,0,0,1.64-.35,3.17,3.17,0,0,0,1.17-1,4.51,4.51,0,0,0,.68-1.52,8,8,0,0,0,0-3.9,4.51,4.51,0,0,0-.68-1.52,3.17,3.17,0,0,0-1.17-1,3.51,3.51,0,0,0-1.64-.35,3.57,3.57,0,0,0-1.64.35,3.22,3.22,0,0,0-1.16,1,4.51,4.51,0,0,0-.68,1.52A7.44,7.44,0,0,0,202.67,241.16Z"/><path class="cls-1" d="M217.91,248.16v-14h9.58v2.48h-6.62v3.08H227v2.48h-6.1v6Z"/></g><g id="LINE_TWO" data-name="LINE TWO"><path class="cls-1" d="M103,266q-.3-.82-.75-2.16T101.3,261c-.32-1-.63-1.91-.93-2.83s-.55-1.69-.73-2.31h-.06V266H96.82V252H101q.86,2.55,1.56,4.7c.28.85.51,1.54.69,2.06s.34,1,.5,1.52.29.91.42,1.3l.27.84c.05-.18.14-.46.26-.84s.26-.85.43-1.37.34-1.1.54-1.71.39-1.21.59-1.8q.68-2.14,1.5-4.7H112v14H109.2V255.89h-.06c-.14.41-.3.9-.48,1.48s-.39,1.2-.61,1.86-.45,1.31-.67,2-.44,1.32-.64,1.93-.39,1.15-.55,1.65l-.41,1.16Z"/><path class="cls-1" d="M129.4,266h-3.1l-1.13-3.25h-5L119,266h-3l5-14h3.22Zm-6.76-10.72-.15.47-.21.7c-.08.26-.17.54-.28.84s-.19.59-.28.87l-.74,2.22h3.38c-.27-.79-.52-1.53-.74-2.22-.15-.41-.27-.74-.35-1s-.17-.51-.24-.75l-.21-.67-.15-.47Z"/><path class="cls-1" d="M133.53,252h3v14h-3Z"/><path class="cls-1" d="M141.82,252h3.12l2.31,3.75c.45.71.81,1.29,1.08,1.75s.57.92.84,1.38.55.88.81,1.29l.64,1h0V252h2.85v14H150.4c-.8-1.3-1.57-2.53-2.28-3.71l-1.07-1.72c-.29-.46-.57-.92-.85-1.38s-.55-.9-.81-1.32l-.67-1.08h-.06V266h-2.84Z"/><path class="cls-1" d="M157.74,252h11.09v2.5h-4V266h-3v-11.5h-4Z"/><path class="cls-1" d="M173.05,266V252h9.54v2.48H176v3.07h6.12V260H176v3.47h6.68V266Z"/><path class="cls-1" d="M187.33,252h3.12l2.32,3.75,1.08,1.75.84,1.38.8,1.29c.26.4.47.75.64,1h.06V252H199v14h-3.12l-2.28-3.71c-.42-.69-.78-1.26-1.07-1.72l-.85-1.38-.81-1.32-.67-1.08h-.06V266h-2.84Z"/><path class="cls-1" d="M216.47,266h-3.1l-1.12-3.25h-5L206.11,266h-2.94l5-14h3.22Zm-6.76-10.72a4.69,4.69,0,0,1-.14.47l-.22.7q-.12.39-.27.84c-.1.3-.19.59-.29.87-.22.69-.47,1.43-.74,2.22h3.38l-.74-2.22c-.14-.41-.26-.74-.35-1s-.16-.51-.24-.75-.14-.47-.21-.67l-.14-.47Z"/><path class="cls-1" d="M220.61,252h3.12l2.32,3.75,1.08,1.75.84,1.38.8,1.29c.26.4.47.75.64,1h.06V252h2.84v14h-3.12l-2.28-3.71c-.42-.69-.78-1.26-1.07-1.72l-.85-1.38-.81-1.32-.67-1.08h-.06V266h-2.84Z"/><path class="cls-1" d="M237,259a9.22,9.22,0,0,1,.48-3.08,6.56,6.56,0,0,1,1.37-2.29,5.89,5.89,0,0,1,2.16-1.42,7.82,7.82,0,0,1,2.85-.5,6.73,6.73,0,0,1,3.76,1,5.24,5.24,0,0,1,2.16,3l-2.92,1a3.92,3.92,0,0,0-1.08-1.83,2.82,2.82,0,0,0-2-.66,3.52,3.52,0,0,0-1.62.37,3.35,3.35,0,0,0-1.16,1,4.67,4.67,0,0,0-.69,1.51,8.09,8.09,0,0,0,0,3.83,4.87,4.87,0,0,0,.69,1.51,3.49,3.49,0,0,0,1.16,1,3.57,3.57,0,0,0,1.64.36,3,3,0,0,0,1.89-.58,3.57,3.57,0,0,0,1.11-1.76l2.88,1a5.87,5.87,0,0,1-2.16,2.79,6.33,6.33,0,0,1-3.76,1,7.78,7.78,0,0,1-2.79-.49,6,6,0,0,1-2.14-1.42,6.39,6.39,0,0,1-1.37-2.29A9.26,9.26,0,0,1,237,259Z"/><path class="cls-1" d="M254.19,266V252h9.54v2.48h-6.58v3.07h6.12V260h-6.12v3.47h6.68V266Z"/></g><g id="ICON"><path class="cls-1" d="M241.5,177.38a3.85,3.85,0,0,1-1.9-3.52c0-3.28,0-6.56,0-9.84q0-20.51,0-41a7.52,7.52,0,0,1,3.64-6.78c.94-.61,1.8-1.35,2.69-2,2.28-2.44,3.88-5.2,3.94-8.58.11-5.67-2.27-10.33-6.27-14.23a1.45,1.45,0,0,0-1.69-.29,1.57,1.57,0,0,0-1,1.43c0,.47,0,.94,0,1.41,0,4,0,8,0,12a1.93,1.93,0,0,1-2,2.1c-2.83,0-5.67,0-8.5,0a1.94,1.94,0,0,1-2-2c0-.28,0-9.09,0-13.22a1.65,1.65,0,0,0-1-1.69,1.63,1.63,0,0,0-1.9.49,20.1,20.1,0,0,0-4.92,7.53,14.09,14.09,0,0,0-.71,9.08,14.25,14.25,0,0,0,6.29,8.08,7.24,7.24,0,0,1,3.55,6.26c0,.63,0,1.26,0,1.9q0,24.67,0,49.36a3.9,3.9,0,0,1-1.9,3.57,12.17,12.17,0,1,0,13.66,0Zm-8.33-52.21a1.51,1.51,0,1,1,3,0v45.08a1.51,1.51,0,1,1-3,0ZM240.73,188l-2.58,4.47a1,1,0,0,1-.9.52h-5.16a1,1,0,0,1-.89-.52L228.62,188a1,1,0,0,1,0-1l2.58-4.47a1.06,1.06,0,0,1,.89-.51h5.16a1.06,1.06,0,0,1,.9.51l2.58,4.47A1,1,0,0,1,240.73,188Z"/><path class="cls-1" d="M181.91,143.93h6.69a1.88,1.88,0,0,1,1.87,1.88s1.3,19.48,1.3,26-1.3,26-1.3,26a1.87,1.87,0,0,1-1.87,1.87H175.22a1.88,1.88,0,0,1-1.88-1.87s-1.29-19.48-1.29-26,1.29-26,1.29-26a1.88,1.88,0,0,1,1.88-1.88Z"/><path class="cls-1" d="M162.61,104.29l-9.24,1.44a1.83,1.83,0,0,1-1.89-1.77l-.38-11.15a1.82,1.82,0,0,1,1.77-1.89l9.31.77a1.41,1.41,0,0,1,1.29,1.36l.34,9.8A1.42,1.42,0,0,1,162.61,104.29Z"/><path class="cls-1" d="M213.3,109.77c-1.09-3.4-4.21-11-10.9-14.37-8.74-4.33-12.69-4.4-12.69-4.4H171.92a4.11,4.11,0,0,0-2.81,1.41,4.83,4.83,0,0,1-3.08.9l.31,9.16c2.77.33,9,1.94,9.47,9.89H188a10.05,10.05,0,0,1,3.19-7.57c3.62-3.69,8.81-2.46,10.74-1.49,2.74,1.36,8,5.23,10.47,7.11A.58.58,0,0,0,213.3,109.77Z"/><rect class="cls-1" x="175.81" y="115.04" width="12.2" height="26.22"/><path class="cls-1" d="M131.21,90.92h.38a1.06,1.06,0,0,1,1,.76l2.51,8.59a3.36,3.36,0,0,1,0,1.86L133,109.66v27.93h2.9a1.06,1.06,0,0,1,1.07,1.06v6.17H125.48v-6.17a1.06,1.06,0,0,1,1.07-1.06h2.9V109.66l-2.14-7.53a3.27,3.27,0,0,1,0-1.86l2.51-8.59a1.05,1.05,0,0,1,1-.76Z"/><path class="cls-1" d="M140.83,180.3c-.8-1.42-2.8-5.77-2.8-13.88,0-7.3.94-10.72,2.26-12.89a2,2,0,0,0-.26-2.45l-3.09-3.25H125.48l-3.09,3.25a2,2,0,0,0-.26,2.45c1.32,2.17,2.26,5.59,2.26,12.89,0,8.11-2,12.46-2.8,13.88a2.48,2.48,0,0,0-.33,1.24v11.35a6.74,6.74,0,0,0,6.74,6.74h6.42a6.74,6.74,0,0,0,6.74-6.74V181.54A2.48,2.48,0,0,0,140.83,180.3ZM136.44,193H126a1.51,1.51,0,1,1,0-3h10.46a1.51,1.51,0,0,1,0,3Z"/></g></svg>