<svg xmlns="http://www.w3.org/2000/svg" viewBox="0 0 360 360"><defs><style>.cls-1{fill:#f1f2f2;}.cls-2{fill:#0e6e39;}.cls-3,.cls-4,.cls-5{fill:none;stroke:#0e6e39;stroke-miterlimit:10;}.cls-3{stroke-width:4px;}.cls-5{stroke-width:2px;}.cls-6{fill:#0c6e39;}.cls-7{fill:#fff;}</style></defs><g id="BACKGROUND"><rect class="cls-1" x="0.69" y="-0.34" width="360" height="360"/></g><g id="LINE_ONE" data-name="LINE ONE"><path class="cls-2" d="M130.4,234.16h3v11.5h6.13v2.5H130.4Z"/><path class="cls-2" d="M142.64,241.16a9.08,9.08,0,0,1,.49-3,6.64,6.64,0,0,1,1.38-2.29,5.9,5.9,0,0,1,2.15-1.44,8.09,8.09,0,0,1,5.6,0,5.82,5.82,0,0,1,2.15,1.44,6.35,6.35,0,0,1,1.38,2.29,9.74,9.74,0,0,1,0,6.1,6.35,6.35,0,0,1-1.38,2.29,5.94,5.94,0,0,1-2.15,1.44,8.09,8.09,0,0,1-5.6,0,6,6,0,0,1-2.15-1.44,6.64,6.64,0,0,1-1.38-2.29A9.08,9.08,0,0,1,142.64,241.16Zm3.1,0a8,8,0,0,0,.23,2,4.73,4.73,0,0,0,.69,1.52,3.32,3.32,0,0,0,1.16,1,3.7,3.7,0,0,0,1.64.35,3.64,3.64,0,0,0,1.64-.35,3.16,3.16,0,0,0,1.16-1,4.33,4.33,0,0,0,.69-1.52,8.38,8.38,0,0,0,0-3.9,4.33,4.33,0,0,0-.69-1.52,3.06,3.06,0,0,0-1.16-1,3.51,3.51,0,0,0-1.64-.35,3.57,3.57,0,0,0-1.64.35,3.22,3.22,0,0,0-1.16,1,4.73,4.73,0,0,0-.69,1.52A7.9,7.9,0,0,0,145.74,241.16Z"/><path class="cls-2" d="M160.6,241.16a9.12,9.12,0,0,1,.48-3.07,6.39,6.39,0,0,1,1.37-2.29,5.92,5.92,0,0,1,2.16-1.43,7.82,7.82,0,0,1,2.85-.49,6.72,6.72,0,0,1,3.76,1,5.23,5.23,0,0,1,2.16,3l-2.92,1a3.92,3.92,0,0,0-1.08-1.83,2.82,2.82,0,0,0-2-.65,3.51,3.51,0,0,0-1.62.36,3.35,3.35,0,0,0-1.16,1,4.67,4.67,0,0,0-.69,1.51,8.09,8.09,0,0,0,0,3.83,4.87,4.87,0,0,0,.69,1.51,3.38,3.38,0,0,0,1.16,1,3.57,3.57,0,0,0,1.64.36,3,3,0,0,0,1.89-.58,3.57,3.57,0,0,0,1.11-1.76l2.88,1a6,6,0,0,1-2.16,2.8,6.4,6.4,0,0,1-3.76,1,7.78,7.78,0,0,1-2.79-.49,6,6,0,0,1-2.14-1.42,6.3,6.3,0,0,1-1.37-2.29A9.26,9.26,0,0,1,160.6,241.16Z"/><path class="cls-2" d="M189.94,248.16h-3.1l-1.11-3.24h-5l-1.11,3.24h-3l5-14h3.22Zm-6.76-10.72c0,.1-.07.26-.13.47s-.15.44-.23.7l-.26.84q-.15.45-.3.87c-.22.69-.47,1.43-.74,2.22h3.38l-.74-2.22c-.14-.4-.26-.73-.34-1l-.25-.75c-.07-.24-.14-.46-.21-.67s-.11-.37-.13-.47Z"/><path class="cls-2" d="M194.08,234.16h3v11.5h6.12v2.5h-9.12Z"/><path class="cls-2" d="M207.4,234.16h3v11.5h6.12v2.5H207.4Z"/><path class="cls-2" d="M222.57,242.3l-5.31-8.14h3.44l3.42,5.36,3.41-5.36h3.33l-5.29,8.14v5.86h-3Z"/></g><g id="LINE_TWO" data-name="LINE TWO"><path class="cls-2" d="M129,255.62a1.32,1.32,0,0,0,.78,1.29,8.66,8.66,0,0,0,2.47.67,7.82,7.82,0,0,1,3.67,1.38,3.46,3.46,0,0,1,1.17,2.86,3.8,3.8,0,0,1-.42,1.83A4,4,0,0,1,135.5,265a5.35,5.35,0,0,1-1.79.88,7.7,7.7,0,0,1-2.25.31,7.35,7.35,0,0,1-2.38-.35,5.66,5.66,0,0,1-1.8-.93,4.33,4.33,0,0,1-1.17-1.36,4,4,0,0,1-.46-1.62l3-.48a2.56,2.56,0,0,0,.79,1.67,2.82,2.82,0,0,0,2,.65,4.52,4.52,0,0,0,1-.1,2.19,2.19,0,0,0,.83-.33,1.76,1.76,0,0,0,.55-.57,1.61,1.61,0,0,0,.2-.82,1.34,1.34,0,0,0-.66-1.2,6.45,6.45,0,0,0-2.29-.68,15.6,15.6,0,0,1-2-.46,5.29,5.29,0,0,1-1.64-.77,3.52,3.52,0,0,1-1.08-1.22,3.85,3.85,0,0,1-.38-1.79,4,4,0,0,1,.4-1.84,3.7,3.7,0,0,1,1.12-1.31,5,5,0,0,1,1.69-.78,8.49,8.49,0,0,1,4.17,0,5.71,5.71,0,0,1,1.66.74,4.36,4.36,0,0,1,1.21,1.21,4.58,4.58,0,0,1,.67,1.64l-3,.66a2.48,2.48,0,0,0-.82-1.52,2.7,2.7,0,0,0-1.79-.56,2.75,2.75,0,0,0-1.68.42A1.34,1.34,0,0,0,129,255.62Z"/><path class="cls-2" d="M141.17,258.94a9.08,9.08,0,0,1,.49-3.05A6.64,6.64,0,0,1,143,253.6a6.16,6.16,0,0,1,2.15-1.44,8.09,8.09,0,0,1,5.6,0,6.07,6.07,0,0,1,2.15,1.44,6.35,6.35,0,0,1,1.38,2.29,9.74,9.74,0,0,1,0,6.1,6.27,6.27,0,0,1-1.38,2.29,5.82,5.82,0,0,1-2.15,1.44,8.09,8.09,0,0,1-5.6,0,5.9,5.9,0,0,1-2.15-1.44,6.55,6.55,0,0,1-1.38-2.29A9,9,0,0,1,141.17,258.94Zm3.1,0a7.9,7.9,0,0,0,.23,1.95,4.63,4.63,0,0,0,.69,1.52,3.22,3.22,0,0,0,1.16,1,3.57,3.57,0,0,0,1.64.35,3.51,3.51,0,0,0,1.64-.35,3.06,3.06,0,0,0,1.16-1,4.25,4.25,0,0,0,.69-1.52,7.45,7.45,0,0,0,.23-1.95,7.56,7.56,0,0,0-.23-1.95,4.33,4.33,0,0,0-.69-1.52,3.16,3.16,0,0,0-1.16-1,3.64,3.64,0,0,0-1.64-.35,3.7,3.7,0,0,0-1.64.35,3.32,3.32,0,0,0-1.16,1,4.73,4.73,0,0,0-.69,1.52A8,8,0,0,0,144.27,258.94Z"/><path class="cls-2" d="M165,266.22a5.59,5.59,0,0,1-4.26-1.44,5.65,5.65,0,0,1-1.34-4v-8.84h3v8.86a3.38,3.38,0,0,0,.64,2.11,2.73,2.73,0,0,0,3.92,0,3.32,3.32,0,0,0,.64-2.11v-8.86h3v8.84a4.9,4.9,0,0,1-5.6,5.44Z"/><path class="cls-2" d="M186.32,256.2a4.18,4.18,0,0,1-.72,2.54,4.08,4.08,0,0,1-1.95,1.46l3.23,5.74h-3.31l-2.9-5.3h-1.86v5.3h-3v-14H181a9.33,9.33,0,0,1,2.21.25,4.87,4.87,0,0,1,1.69.77,3.46,3.46,0,0,1,1.08,1.32A4.39,4.39,0,0,1,186.32,256.2Zm-3.09,0a1.49,1.49,0,0,0-.65-1.41,3.92,3.92,0,0,0-2-.38h-1.8v3.77h1.8a3.48,3.48,0,0,0,2-.45A1.71,1.71,0,0,0,183.23,256.22Z"/><path class="cls-2" d="M190.77,258.94a9.16,9.16,0,0,1,.48-3.07,6.47,6.47,0,0,1,1.37-2.29,6,6,0,0,1,2.16-1.43,8,8,0,0,1,2.85-.49,6.81,6.81,0,0,1,3.76,1,5.29,5.29,0,0,1,2.16,3l-2.92,1a4,4,0,0,0-1.08-1.83,2.86,2.86,0,0,0-2-.65,3.51,3.51,0,0,0-1.62.36,3.46,3.46,0,0,0-1.16,1,4.77,4.77,0,0,0-.69,1.51,7.77,7.77,0,0,0-.23,1.92,7.57,7.57,0,0,0,.23,1.91,4.77,4.77,0,0,0,.69,1.51,3.28,3.28,0,0,0,1.16,1,3.57,3.57,0,0,0,1.64.36,2.9,2.9,0,0,0,1.89-.58,3.49,3.49,0,0,0,1.11-1.75l2.88,1a5.9,5.9,0,0,1-2.16,2.8,6.33,6.33,0,0,1-3.76,1,7.57,7.57,0,0,1-2.79-.49,5.9,5.9,0,0,1-2.14-1.42,6.3,6.3,0,0,1-1.37-2.29A9.18,9.18,0,0,1,190.77,258.94Z"/><path class="cls-2" d="M208,265.94v-14h9.54v2.49h-6.58v3.07H217V260h-6.12v3.48h6.68v2.48Z"/><path class="cls-2" d="M222.23,251.94h5.22a8.36,8.36,0,0,1,2.88.47,5.82,5.82,0,0,1,2.16,1.36,6,6,0,0,1,1.35,2.19,9.71,9.71,0,0,1,0,6,5.83,5.83,0,0,1-1.35,2.18,5.57,5.57,0,0,1-2.16,1.36,8.13,8.13,0,0,1-2.88.47h-5.22Zm9,7a6.57,6.57,0,0,0-.23-1.84,3.87,3.87,0,0,0-.7-1.44,3.11,3.11,0,0,0-1.19-.92,4.26,4.26,0,0,0-1.72-.31h-2.12v9h2.12a4.1,4.1,0,0,0,1.72-.32,3,3,0,0,0,1.19-.92,3.83,3.83,0,0,0,.7-1.43A6.65,6.65,0,0,0,231.21,258.94Z"/></g><g id="ICON"><path class="cls-3" d="M179.93,196.2c-1.89-2.9-3.74-5.68-5.54-8.48-5.9-9.17-11.61-18.46-16.92-28A208.91,208.91,0,0,1,147,139.17a35.56,35.56,0,0,1,10.94-42,33.93,33.93,0,0,1,25-7.39c14.44,1.48,24.62,9.1,30.16,22.46,3.91,9.45,3.35,19-.87,28.34a287.7,287.7,0,0,1-14.14,26.66c-5.67,9.69-11.67,19.16-17.87,28.51Zm0-3.44.4-.56c6.08-9.26,12-18.64,17.52-28.24a265.74,265.74,0,0,0,12.88-24.57,33.86,33.86,0,0,0-29.49-47.91c-10.08-.29-18.84,3.09-25.69,10.49-9.4,10.13-11.85,22-7.29,35,2.52,7.18,6.39,13.79,10.08,20.44,5.48,9.9,11.39,19.55,17.53,29.06C177.19,188.55,178.53,190.6,179.93,192.76Z"/><path class="cls-4" d="M154,124.38A25.65,25.65,0,1,1,179.74,150,25.75,25.75,0,0,1,154,124.38Z"/><path class="cls-5" d="M192.92,130.54c-7.31,1.79-12.45,7-12.23,12.31C184.54,143.34,190.92,138.08,192.92,130.54Zm-14,12.34c0-5.5-5.91-11.36-12.21-12.23C167.9,136.74,173.89,142.8,178.92,142.88Zm.85-36.81c-3.58,5.13-3.53,11.31,0,14.24C183.62,116.9,183.64,111.28,179.77,106.07Zm10.75,14.21c-6.4.68-11.23,5.8-9.63,10.06C185.83,130.53,189.6,125.23,190.52,120.28Zm-21.5,0c1.31,6.17,5.25,10.14,9.79,10C180.23,125.76,174.73,120.74,169,120.29Zm10.77,0v30.28"/><rect class="cls-6" y="336.06" width="360" height="23.94"/><path class="cls-7" d="M250.45,352.49v-8.4h5.72v1.49h-3.94v1.84h3.67v1.49h-3.67V351h4v1.49Z"/><path class="cls-7" d="M259,344.09h1.87l1.39,2.25.65,1.05c.17.28.34.55.5.83l.48.77c.16.24.28.45.39.62h0v-5.52H266v8.4h-1.87l-1.37-2.22-.64-1c-.18-.28-.35-.55-.51-.83l-.49-.79-.4-.64h0v5.52H259Z"/><path class="cls-7" d="M270.44,344.09q.45,1.26.84,2.43l.4,1.16c.1.31.21.62.31.94l.3.92c.1.29.18.56.25.79h0c.07-.23.15-.5.25-.8s.2-.62.3-.95.23-.68.35-1l.34-1,.84-2.43h1.85l-3.09,8.4h-1.84l-3.06-8.4Z"/><path class="cls-7" d="M279,344.09h1.8v8.4H279Z"/><path class="cls-7" d="M290.23,346.64a2.36,2.36,0,0,1-1.6,2.4l1.94,3.45h-2l-1.74-3.18h-1.12v3.18h-1.79v-8.4H287a5.47,5.47,0,0,1,1.33.15,2.76,2.76,0,0,1,1,.46,2.08,2.08,0,0,1,.65.79A2.71,2.71,0,0,1,290.23,346.64Zm-1.85,0a.91.91,0,0,0-.39-.85,2.3,2.3,0,0,0-1.18-.23h-1.08v2.26h1.08a2.08,2.08,0,0,0,1.18-.27A1,1,0,0,0,288.38,346.66Z"/><path class="cls-7" d="M292.91,348.29a5.25,5.25,0,0,1,.29-1.83,4,4,0,0,1,.83-1.38,3.52,3.52,0,0,1,1.29-.86,4.49,4.49,0,0,1,1.68-.3,4.56,4.56,0,0,1,1.68.3,3.7,3.7,0,0,1,1.29.86,4.13,4.13,0,0,1,.83,1.38,5.92,5.92,0,0,1,0,3.66,4,4,0,0,1-.83,1.37,3.59,3.59,0,0,1-1.29.87,4.56,4.56,0,0,1-1.68.3,4.49,4.49,0,0,1-1.68-.3,3.42,3.42,0,0,1-1.29-.87,3.84,3.84,0,0,1-.83-1.37A5.25,5.25,0,0,1,292.91,348.29Zm1.86,0a4.82,4.82,0,0,0,.13,1.17,2.73,2.73,0,0,0,.42.91,1.88,1.88,0,0,0,.69.59,2.42,2.42,0,0,0,2,0,2,2,0,0,0,.7-.59,2.72,2.72,0,0,0,.41-.91,4.81,4.81,0,0,0,.14-1.17,4.69,4.69,0,0,0-.14-1.17,2.63,2.63,0,0,0-.41-.91,1.89,1.89,0,0,0-.7-.59,2.42,2.42,0,0,0-2,0,1.79,1.79,0,0,0-.69.59,2.64,2.64,0,0,0-.42.91A4.71,4.71,0,0,0,294.77,348.29Z"/><path class="cls-7" d="M303.91,344.09h1.87l1.39,2.25.65,1.05.51.83c.16.27.32.53.48.77l.38.62h0v-5.52h1.7v8.4h-1.87l-1.37-2.22-.64-1-.51-.83-.49-.79-.4-.64h0v5.52h-1.7Z"/><path class="cls-7" d="M317.79,352.49q-.18-.5-.45-1.29c-.18-.53-.36-1.09-.55-1.66s-.38-1.14-.56-1.7-.33-1-.44-1.39h0v6H314.1v-8.4h2.52q.51,1.53.93,2.82l.42,1.24c.11.32.21.62.3.91l.25.78c.08.23.13.4.16.5,0-.1.09-.27.16-.5s.16-.51.26-.83.2-.65.32-1,.23-.72.35-1.08q.42-1.29.9-2.82h2.51v8.4h-1.65v-6h0l-.29.9-.36,1.11c-.14.39-.27.79-.41,1.19l-.38,1.15-.33,1c-.1.3-.18.53-.25.7Z"/><path class="cls-7" d="M326.35,352.49v-8.4h5.72v1.49h-3.95v1.84h3.68v1.49h-3.68V351h4v1.49Z"/><path class="cls-7" d="M334.92,344.09h1.87l1.39,2.25.65,1.05c.17.28.34.55.5.83l.48.77c.16.24.28.45.39.62h0v-5.52h1.71v8.4h-1.87l-1.37-2.22-.64-1c-.18-.28-.35-.55-.51-.83l-.49-.79-.4-.64h0v5.52h-1.7Z"/><path class="cls-7" d="M344.47,344.09h6.66v1.5h-2.42v6.9h-1.82v-6.9h-2.42Z"/></g></svg>