<svg xmlns="http://www.w3.org/2000/svg" viewBox="0 0 360 360"><defs><style>.cls-1{fill:#fff;}.cls-2,.cls-5,.cls-6{fill:none;}.cls-2,.cls-3,.cls-4,.cls-5,.cls-6{stroke:#fff;stroke-miterlimit:10;}.cls-4{fill:#231f20;}.cls-5{stroke-width:3px;}.cls-6{stroke-linecap:round;}</style></defs><g id="BACKGROUND"><rect x="-1" width="360" height="360"/></g><g id="LINE_ONE" data-name="LINE ONE"><path class="cls-1" d="M120,238.42a3.94,3.94,0,0,1-2.66,4l3.22,5.74h-3.3l-2.9-5.3h-1.86v5.3h-3v-14h5.12a8.89,8.89,0,0,1,2.21.25,4.78,4.78,0,0,1,1.69.77,3.46,3.46,0,0,1,1.08,1.32A4.47,4.47,0,0,1,120,238.42Zm-3.08,0a1.51,1.51,0,0,0-.65-1.41,3.91,3.91,0,0,0-2-.39h-1.8v3.78h1.8a3.48,3.48,0,0,0,2-.45A1.74,1.74,0,0,0,116.87,238.44Z"/><path class="cls-1" d="M125,248.16v-14h9.54v2.48H128v3.08h6.12v2.48H128v3.48h6.68v2.48Z"/><path class="cls-1" d="M138.21,234.16h11.1v2.5h-4v11.5h-3v-11.5h-4Z"/><path class="cls-1" d="M153.53,234.16h3v5.54h5.3v-5.54h3v14h-3v-5.94h-5.3v5.94h-3Z"/><path class="cls-1" d="M170.11,234.16h3v14h-3Z"/><path class="cls-1" d="M178.39,234.16h3.12l2.32,3.76,1.08,1.75.84,1.37.8,1.29.64,1h.06v-9.2h2.84v14H187l-2.28-3.7-1.07-1.73c-.29-.46-.57-.92-.85-1.38L182,240c-.26-.42-.48-.78-.67-1.07h-.06v9.2h-2.84Z"/><path class="cls-1" d="M199.55,242l-1.18,1.34v4.84h-3v-14h3v5.44l4.74-5.44h3.46l-5,5.66,5.5,8.34h-3.58Z"/><path class="cls-1" d="M211.17,234.16h3v14h-3Z"/><path class="cls-1" d="M219.45,234.16h3.12l2.32,3.76,1.08,1.75.84,1.37.8,1.29.64,1h.06v-9.2h2.84v14H228l-2.28-3.7-1.07-1.73c-.29-.46-.57-.92-.85-1.38L223,240c-.26-.42-.48-.78-.67-1.07h-.06v9.2h-2.84Z"/><path class="cls-1" d="M242.15,240.4h6.44v7.76h-2.72v-1.44a3.69,3.69,0,0,1-1.36,1.22,4.83,4.83,0,0,1-2.34.5,6.29,6.29,0,0,1-2.75-.57,5.72,5.72,0,0,1-2-1.55,6.7,6.7,0,0,1-1.19-2.3,9.56,9.56,0,0,1-.4-2.82,9,9,0,0,1,.47-3,6.53,6.53,0,0,1,1.37-2.31,6.18,6.18,0,0,1,2.19-1.51,7.54,7.54,0,0,1,2.93-.54,6.74,6.74,0,0,1,3.62.93,5.74,5.74,0,0,1,2.26,2.75l-2.78,1.14a3.66,3.66,0,0,0-1.22-1.73,3.24,3.24,0,0,0-2-.61,3.35,3.35,0,0,0-2.72,1.25,5.72,5.72,0,0,0-1,3.69q0,4.68,3.7,4.68a4,4,0,0,0,1.08-.15,3.2,3.2,0,0,0,1-.46,2.51,2.51,0,0,0,.73-.79,2.24,2.24,0,0,0,.28-1.16v-.64h-3.58Z"/></g><g id="LINE_TWO" data-name="LINE TWO"><path class="cls-1" d="M62.37,252l-3.5,14H55.39c-.29-1.3-.57-2.53-.84-3.7-.16-.7-.29-1.28-.4-1.74s-.21-.94-.31-1.4-.2-.92-.3-1.34l-.25-1.1h-.06q-.1.45-.24,1.11c-.09.43-.2.89-.32,1.39s-.24,1-.36,1.53L52,262.25c-.28,1.17-.58,2.4-.9,3.7H47.57l-3.52-14h3c.35,1.49.67,2.91,1,4.26.17.8.32,1.46.44,2s.23,1,.34,1.56l.31,1.48c.1.46.18.86.23,1.18h.06c.07-.32.15-.72.25-1.19s.21-1,.34-1.53l.4-1.72c.14-.6.28-1.19.41-1.76q.48-2,1-4.26h2.82q.54,2.24,1,4.26c.19.8.34,1.46.47,2s.25,1,.37,1.56.23,1,.33,1.48.18.86.25,1.18h.06c.07-.32.15-.72.25-1.19s.21-1,.33-1.53.25-1.12.38-1.72.27-1.19.4-1.76c.32-1.35.65-2.77,1-4.26Z"/><path class="cls-1" d="M65.71,259a8.79,8.79,0,0,1,.49-3,6.55,6.55,0,0,1,1.38-2.29,5.82,5.82,0,0,1,2.15-1.44,8.09,8.09,0,0,1,5.6,0,5.82,5.82,0,0,1,2.15,1.44,6.55,6.55,0,0,1,1.38,2.29,9.74,9.74,0,0,1,0,6.1,6.64,6.64,0,0,1-1.38,2.29,6.07,6.07,0,0,1-2.15,1.44,8.09,8.09,0,0,1-5.6,0,6.07,6.07,0,0,1-2.15-1.44A6.64,6.64,0,0,1,66.2,262,8.83,8.83,0,0,1,65.71,259Zm3.1,0A8,8,0,0,0,69,260.9a4.33,4.33,0,0,0,.69,1.52,3.24,3.24,0,0,0,1.16,1,4,4,0,0,0,3.28,0,3.24,3.24,0,0,0,1.16-1A4.33,4.33,0,0,0,76,260.9a8,8,0,0,0,.23-1.95A7.9,7.9,0,0,0,76,257a4.25,4.25,0,0,0-.69-1.52,3.14,3.14,0,0,0-1.16-1,4,4,0,0,0-3.28,0,3.14,3.14,0,0,0-1.16,1A4.25,4.25,0,0,0,69,257,7.9,7.9,0,0,0,68.81,259Z"/><path class="cls-1" d="M94.53,256.21a4.26,4.26,0,0,1-.71,2.54,4.21,4.21,0,0,1-1.95,1.46L95.09,266h-3.3l-2.9-5.3H87V266h-3V252h5.12a8.89,8.89,0,0,1,2.21.25,4.61,4.61,0,0,1,1.69.77,3.32,3.32,0,0,1,1.08,1.32A4.47,4.47,0,0,1,94.53,256.21Zm-3.08,0a1.51,1.51,0,0,0-.65-1.41,3.91,3.91,0,0,0-2-.39H87v3.78h1.8a3.48,3.48,0,0,0,2-.45A1.74,1.74,0,0,0,91.45,256.23Z"/><path class="cls-1" d="M103.75,259.77l-1.18,1.34V266h-3V252h3v5.44l4.74-5.44h3.46l-5,5.66,5.5,8.34h-3.58Z"/><path class="cls-1" d="M118.35,261V266h-3V252h5.32a8.93,8.93,0,0,1,2.28.26,4.81,4.81,0,0,1,1.74.8,3.7,3.7,0,0,1,1.12,1.38,4.61,4.61,0,0,1,.4,2,4.87,4.87,0,0,1-.41,2.07,3.85,3.85,0,0,1-1.14,1.44,4.83,4.83,0,0,1-1.75.84,8.76,8.76,0,0,1-2.24.27Zm4.82-4.62a1.68,1.68,0,0,0-.69-1.56,4.11,4.11,0,0,0-2.09-.42h-2v4.12h2a3.6,3.6,0,0,0,2.09-.5A1.9,1.9,0,0,0,123.17,256.41Z"/><path class="cls-1" d="M130.63,252h3v11.5h6.12V266h-9.12Z"/><path class="cls-1" d="M156.11,266H153l-1.12-3.24h-5L145.75,266h-2.94l5-14h3.22Zm-6.76-10.72c0,.1-.07.26-.14.47s-.14.44-.22.7-.17.54-.27.84l-.29.87c-.23.69-.47,1.43-.74,2.22h3.38c-.27-.79-.51-1.53-.74-2.22-.15-.4-.26-.73-.35-1s-.17-.51-.24-.75-.14-.47-.21-.67-.11-.37-.14-.47Z"/><path class="cls-1" d="M159,259a9.12,9.12,0,0,1,.48-3.07,6.39,6.39,0,0,1,1.37-2.29,5.64,5.64,0,0,1,2.16-1.43,7.82,7.82,0,0,1,2.85-.49,6.75,6.75,0,0,1,3.76,1,5.32,5.32,0,0,1,2.16,3l-2.92,1a3.92,3.92,0,0,0-1.08-1.83,2.82,2.82,0,0,0-2-.65,3.51,3.51,0,0,0-1.62.36,3.26,3.26,0,0,0-1.16,1,4.28,4.28,0,0,0-.69,1.51,8.09,8.09,0,0,0,0,3.83,4.45,4.45,0,0,0,.69,1.51,3.29,3.29,0,0,0,1.16,1,3.54,3.54,0,0,0,1.64.36,3,3,0,0,0,1.89-.58,3.57,3.57,0,0,0,1.11-1.76l2.88,1a6.07,6.07,0,0,1-2.16,2.8,6.42,6.42,0,0,1-3.76,1,7.7,7.7,0,0,1-2.79-.49,5.94,5.94,0,0,1-2.14-1.42,6.39,6.39,0,0,1-1.37-2.29A9.26,9.26,0,0,1,159,259Z"/><path class="cls-1" d="M176.15,266V252h9.54v2.48h-6.58v3.08h6.12V260h-6.12v3.48h6.68V266Z"/><path class="cls-1" d="M199.85,255.63a1.34,1.34,0,0,0,.78,1.29,9.48,9.48,0,0,0,2.48.67,7.86,7.86,0,0,1,3.67,1.38,3.48,3.48,0,0,1,1.17,2.86,3.92,3.92,0,0,1-.42,1.83,4.07,4.07,0,0,1-1.17,1.38,5.65,5.65,0,0,1-1.79.88,8.12,8.12,0,0,1-2.26.31,7.68,7.68,0,0,1-2.38-.35,6.1,6.1,0,0,1-1.8-.93,4.41,4.41,0,0,1-1.16-1.36,3.81,3.81,0,0,1-.46-1.62l3-.48a2.58,2.58,0,0,0,.79,1.67,2.84,2.84,0,0,0,2,.65,5.32,5.32,0,0,0,1-.1,2.52,2.52,0,0,0,.82-.33,1.86,1.86,0,0,0,.55-.57,1.63,1.63,0,0,0,.2-.82,1.35,1.35,0,0,0-.65-1.2,6.31,6.31,0,0,0-2.29-.68,18.1,18.1,0,0,1-2-.46,5.72,5.72,0,0,1-1.63-.77,3.6,3.6,0,0,1-1.08-1.22,3.79,3.79,0,0,1-.39-1.79,3.93,3.93,0,0,1,.4-1.84,3.72,3.72,0,0,1,1.12-1.31,4.84,4.84,0,0,1,1.7-.79,8,8,0,0,1,2.14-.26,7.71,7.71,0,0,1,2,.25,5.28,5.28,0,0,1,1.67.74,4.23,4.23,0,0,1,1.21,1.21,4.42,4.42,0,0,1,.66,1.64l-3,.66a2.45,2.45,0,0,0-.82-1.52,2.62,2.62,0,0,0-1.78-.56,2.78,2.78,0,0,0-1.69.42A1.33,1.33,0,0,0,199.85,255.63Z"/><path class="cls-1" d="M211.05,252h11.1v2.5h-4V266h-3v-11.5h-4Z"/><path class="cls-1" d="M236.85,256.21a3.94,3.94,0,0,1-2.66,4l3.22,5.74h-3.3l-2.9-5.3h-1.86V266h-3V252h5.12a8.89,8.89,0,0,1,2.21.25,4.61,4.61,0,0,1,1.69.77,3.41,3.41,0,0,1,1.08,1.32A4.47,4.47,0,0,1,236.85,256.21Zm-3.08,0a1.51,1.51,0,0,0-.65-1.41,3.91,3.91,0,0,0-2-.39h-1.8v3.78h1.8a3.48,3.48,0,0,0,2-.45A1.74,1.74,0,0,0,233.77,256.23Z"/><path class="cls-1" d="M254.05,266H251l-1.12-3.24h-5L243.69,266h-2.94l5-14H249Zm-6.76-10.72c0,.1-.07.26-.14.47s-.14.44-.22.7-.17.54-.27.84l-.29.87c-.23.69-.47,1.43-.74,2.22H249c-.27-.79-.51-1.53-.74-2.22-.15-.4-.26-.73-.35-1s-.17-.51-.24-.75-.14-.47-.21-.67-.11-.37-.14-.47Z"/><path class="cls-1" d="M255.53,252h11.1v2.5h-4V266h-3v-11.5h-4Z"/><path class="cls-1" d="M270.85,266V252h9.54v2.48h-6.58v3.08h6.12V260h-6.12v3.48h6.68V266Z"/><path class="cls-1" d="M290.85,258.19h6.44V266h-2.72v-1.44a3.78,3.78,0,0,1-1.36,1.22,4.83,4.83,0,0,1-2.34.5,6.29,6.29,0,0,1-2.75-.57,5.54,5.54,0,0,1-2-1.55,6.62,6.62,0,0,1-1.19-2.3,9.56,9.56,0,0,1-.4-2.82,8.71,8.71,0,0,1,.47-3,6.36,6.36,0,0,1,1.37-2.31,6.18,6.18,0,0,1,2.19-1.51,7.5,7.5,0,0,1,2.93-.54,6.74,6.74,0,0,1,3.62.93,5.7,5.7,0,0,1,2.26,2.75l-2.78,1.14a3.61,3.61,0,0,0-1.22-1.73,3.26,3.26,0,0,0-2-.61,3.3,3.3,0,0,0-2.72,1.25,5.72,5.72,0,0,0-1,3.69q0,4.68,3.7,4.68a4,4,0,0,0,1.08-.15,3.45,3.45,0,0,0,1-.46,2.51,2.51,0,0,0,.73-.79,2.34,2.34,0,0,0,.28-1.16v-.64h-3.58Z"/><path class="cls-1" d="M305.75,260.09l-5.3-8.14h3.44l3.42,5.36,3.4-5.36h3.34l-5.3,8.14V266h-3Z"/></g><g id="ICON"><line class="cls-2" x1="114.48" y1="167.51" x2="30.33" y2="167.51"/><path class="cls-3" d="M122,182.87c1.44,0,2.88,0,4.32,0,.8,0,1.14.22,1.06,1.09q-.57,6-1,12.1c-.07.78-.43,1-1.13,1q-3.37,0-6.75,0c-.71,0-1-.21-1.1-1q-.47-6-1-12c-.09-.86.13-1.25,1.06-1.22C118.92,182.9,120.46,182.87,122,182.87Z"/><path class="cls-3" d="M123.94,155.2c2.29,4.26,1.19,16-1.86,19.56-.6-1.56-1.61-3-1.61-4.39,0-4.63.49-9.24,2.5-13.53C123.21,156.34,123.54,155.87,123.94,155.2Z"/><path class="cls-3" d="M112.91,162.14a8,8,0,0,1,4.72,3.49,23.76,23.76,0,0,1,4.09,9.93c.36,2.18-.16,4.51-.28,6.75-.11.08-.19.17-.28.18-2.74.27-2.77.27-3.15-2.33a64.21,64.21,0,0,0-4.72-16.76C113.16,163.09,113.1,162.75,112.91,162.14Z"/><path class="cls-3" d="M129,167.94a14,14,0,0,1-.52,1.31,39.82,39.82,0,0,0-4,12.15c-.16,1-.55,1.2-1.42,1.21s-1.08-.6-1.1-1.35c-.12-3.61.22-7.12,2.34-10.19A7.59,7.59,0,0,1,129,167.94Z"/><path class="cls-3" d="M313.44,151.64a13.39,13.39,0,0,1-.54,2.06c-1,2.2-2,4.37-3,6.54-.58,1.22-1.33,1.27-2.11.16q-3.33-4.72-6.64-9.47c-.85-1.22-.51-1.9,1-2l7-.61c.75-.06,1.51-.2,2.05.58.12.17.49.19.75.22a6.25,6.25,0,0,1,5.59,6.35c0,11.58,0,23.15,0,34.72,0,1.07.3,1.4,1.34,1.31s1.92,0,2.89,0c.67,0,1.16.32,1,1a1.44,1.44,0,0,1-1,.89c-3.44.06-6.89,0-10.33,0-.66,0-1.1-.32-1.09-1s.48-.92,1.13-.91c1.07,0,2.14,0,3.21,0,.68,0,1-.18,1-.93,0-11.71,0-23.42,0-35.13A4.17,4.17,0,0,0,313.44,151.64Z"/><path class="cls-4" d="M287.55,161.33c2.94,0,5.89,0,8.83,0,2.43,0,3.46,1,3.47,3.15s0,4.52,0,6.77a1.72,1.72,0,0,1-.55,1.22,5,5,0,0,0-2.11,4.36c0,1.06.3,2.47-.31,3.1s-2.13.23-3.27.23c-4.79,0-9.58,0-14.37,0-1,0-1.37-.22-1.29-1.15s0-1.85,0-2.78a4.75,4.75,0,0,0-1.92-3.69,2.09,2.09,0,0,1-.72-1.39c-.08-2.26,0-4.51,0-6.77,0-2,1.11-3,3.31-3.07C281.57,161.31,284.56,161.33,287.55,161.33Z"/><path class="cls-4" d="M287.42,180.25c5.06,0,10.11,0,15.17,0,1.12,0,1.46.38,1.39,1.59-.09,1.56,0,3.13,0,4.7,0,2-1,3.08-2.72,3.09h-27.6c-1.66,0-2.61-1-2.67-2.9s0-3.47,0-5.2c0-1.06.36-1.28,1.21-1.27C277.23,180.27,282.33,180.25,287.42,180.25Z"/><path class="cls-4" d="M299.78,180.22c-4,0-4,0-4-4,0-2.81,1.22-4,4.1-4s4.07,1.17,4.09,4c0,4,0,4-4,4Z"/><path class="cls-4" d="M275.17,180.22c-4,0-4,0-4-4,0-2.81,1.23-4,4.11-4s4.07,1.17,4.09,4c0,4,0,4-4,4Z"/><path class="cls-4" d="M280.47,189.84c-.58,2.38-1.13,4.7-1.72,7-.32,1.26-1.8,1-3.5.8.62-2.48,1.14-4.85,1.83-7.21C277.42,189.3,278.88,189.59,280.47,189.84Z"/><path class="cls-4" d="M294.64,189.84c.58,2.38,1.13,4.7,1.72,7,.32,1.26,1.8,1,3.5.8-.62-2.48-1.14-4.85-1.83-7.21C297.69,189.3,296.23,189.59,294.64,189.84Z"/><rect class="cls-5" x="142.15" y="111.55" width="115.26" height="85.94" rx="0.72"/><rect class="cls-2" x="142.15" y="182.71" width="19.52" height="14.79" rx="0.72"/><rect class="cls-2" x="142.15" y="148.24" width="9.76" height="34.46" rx="0.72"/><rect class="cls-2" x="181.92" y="182.71" width="35.73" height="14.79" rx="0.72"/><rect class="cls-2" x="194.9" y="148.24" width="9.76" height="34.46" rx="0.72"/><rect class="cls-2" x="237.89" y="182.71" width="19.52" height="14.79" rx="0.72"/><rect class="cls-2" x="247.65" y="148.24" width="9.76" height="34.46" rx="0.72"/><line class="cls-2" x1="171.37" y1="197.5" x2="171.37" y2="167.69"/><line class="cls-2" x1="162.54" y1="167.69" x2="180.21" y2="167.69"/><line class="cls-2" x1="227.76" y1="197.61" x2="227.76" y2="167.8"/><line class="cls-2" x1="218.93" y1="167.8" x2="236.6" y2="167.8"/><path class="cls-2" d="M227.76,125.43a9.35,9.35,0,0,1,9.36,9.34H218.41A9.35,9.35,0,0,1,227.76,125.43Z"/><line class="cls-2" x1="227.76" y1="125.43" x2="227.76" y2="111.55"/><path class="cls-2" d="M171.37,125.43a9.34,9.34,0,0,1,9.35,9.34H162A9.34,9.34,0,0,1,171.37,125.43Z"/><line class="cls-2" x1="171.37" y1="125.43" x2="171.37" y2="111.55"/><path class="cls-2" d="M94.46,126.62a9.34,9.34,0,0,1,9.35,9.35H85.11A9.34,9.34,0,0,1,94.46,126.62Z"/><line class="cls-2" x1="94.46" y1="126.62" x2="94.46" y2="112.75"/><path class="cls-2" d="M50.35,126.62A9.34,9.34,0,0,1,59.7,136H41A9.34,9.34,0,0,1,50.35,126.62Z"/><line class="cls-2" x1="50.35" y1="126.62" x2="50.35" y2="112.75"/><path class="cls-3" d="M87.82,182.83V161.41c0-2,.41-2.4,2.34-2.41h9.46c1.79,0,2.31.54,2.31,2.35,0,6.71,0,13.43,0,20.14,0,1.09-.33,1.38-1.39,1.36C96.39,182.8,92.21,182.83,87.82,182.83Z"/><path class="cls-3" d="M87.73,182c-.25-1.36-.14-3-.9-4-.46-.56-2.61-.37-3.34.28s-.68,2.85-.15,3.3c.92.78,2.5.71,3.8,1Z"/><path class="cls-3" d="M102,181.84c.25-1.36.14-3,.9-4,.46-.57,2.61-.38,3.34.27s.68,2.85.15,3.3c-.92.78-2.5.72-3.8,1Z"/><line class="cls-6" x1="94.89" y1="182.85" x2="94.89" y2="197.02"/><line class="cls-6" x1="94.89" y1="193.96" x2="87.82" y2="197.02"/><line class="cls-6" x1="94.89" y1="193.96" x2="102.29" y2="197.02"/><path class="cls-3" d="M43.88,182.83V161.41c0-2,.41-2.4,2.34-2.41h9.46c1.8,0,2.31.54,2.32,2.35,0,6.71,0,13.43,0,20.14,0,1.09-.33,1.38-1.38,1.36C52.46,182.8,48.27,182.83,43.88,182.83Z"/><path class="cls-3" d="M43.79,182c-.25-1.36-.14-3-.89-4-.47-.56-2.62-.37-3.35.28s-.68,2.85-.15,3.3c.92.78,2.5.71,3.81,1Z"/><path class="cls-3" d="M58,181.84c.26-1.36.14-3,.9-4,.46-.57,2.61-.38,3.34.27s.69,2.85.15,3.3c-.92.78-2.5.72-3.8,1Z"/><line class="cls-6" x1="50.95" y1="182.85" x2="50.95" y2="197.02"/><line class="cls-6" x1="50.95" y1="193.96" x2="43.88" y2="197.02"/><line class="cls-6" x1="50.95" y1="193.96" x2="58.35" y2="197.02"/><rect class="cls-5" x="30.33" y="111.55" width="299.34" height="86.26" rx="10.01"/><rect class="cls-2" x="67.24" y="175.56" width="10.82" height="20.61" rx="0.72"/><line class="cls-2" x1="67.24" y1="179.67" x2="78.05" y2="179.67"/><line class="cls-2" x1="67.47" y1="187.47" x2="78.29" y2="187.47"/></g></svg>