<svg xmlns="http://www.w3.org/2000/svg" viewBox="0 0 360 360"><defs><style>.cls-1{fill:#f1f2f2;}.cls-2{fill:#ef4a2b;}.cls-3,.cls-4{fill:none;stroke:#ef4a2b;stroke-miterlimit:10;stroke-width:5px;}.cls-4{stroke-linecap:round;}.cls-5{fill:#fff;}</style></defs><g id="BACKGROUND"><rect class="cls-1" x="0.21" y="-0.17" width="360" height="360"/></g><g id="LINE_ONE" data-name="LINE ONE"><path class="cls-2" d="M128.72,248.16h-3.1l-1.12-3.24h-5l-1.12,3.24h-2.94l5-14h3.22ZM122,237.44c0,.1-.07.26-.14.47s-.14.44-.22.7-.17.54-.27.84-.2.59-.29.87c-.23.69-.47,1.43-.74,2.22h3.38c-.27-.79-.51-1.53-.74-2.22-.15-.4-.26-.73-.35-1s-.17-.51-.24-.75-.14-.46-.21-.67-.11-.37-.14-.47Z"/><path class="cls-2" d="M131.58,241.16a9.12,9.12,0,0,1,.48-3.07,6.39,6.39,0,0,1,1.37-2.29,5.75,5.75,0,0,1,2.16-1.43,7.82,7.82,0,0,1,2.85-.49,6.83,6.83,0,0,1,3.76,1,5.32,5.32,0,0,1,2.16,3l-2.92,1a3.92,3.92,0,0,0-1.08-1.83,2.82,2.82,0,0,0-2-.65,3.51,3.51,0,0,0-1.62.36,3.26,3.26,0,0,0-1.16,1,4.28,4.28,0,0,0-.69,1.51,7.71,7.71,0,0,0-.23,1.92,7.63,7.63,0,0,0,.23,1.91,4.45,4.45,0,0,0,.69,1.51,3.29,3.29,0,0,0,1.16,1,3.54,3.54,0,0,0,1.64.36,2.94,2.94,0,0,0,1.89-.58,3.57,3.57,0,0,0,1.11-1.76l2.88,1a6.07,6.07,0,0,1-2.16,2.8,6.42,6.42,0,0,1-3.76,1,7.7,7.7,0,0,1-2.79-.49,5.94,5.94,0,0,1-2.14-1.42,6.3,6.3,0,0,1-1.37-2.29A9.26,9.26,0,0,1,131.58,241.16Z"/><path class="cls-2" d="M148.18,241.16a9.12,9.12,0,0,1,.48-3.07A6.39,6.39,0,0,1,150,235.8a5.75,5.75,0,0,1,2.16-1.43,7.82,7.82,0,0,1,2.85-.49,6.83,6.83,0,0,1,3.76,1,5.32,5.32,0,0,1,2.16,3l-2.92,1A3.92,3.92,0,0,0,157,237a2.82,2.82,0,0,0-2-.65,3.51,3.51,0,0,0-1.62.36,3.26,3.26,0,0,0-1.16,1,4.28,4.28,0,0,0-.69,1.51,7.71,7.71,0,0,0-.23,1.92,7.63,7.63,0,0,0,.23,1.91,4.45,4.45,0,0,0,.69,1.51,3.29,3.29,0,0,0,1.16,1,3.54,3.54,0,0,0,1.64.36,2.94,2.94,0,0,0,1.89-.58A3.57,3.57,0,0,0,158,243.6l2.88,1a6.07,6.07,0,0,1-2.16,2.8,6.42,6.42,0,0,1-3.76,1,7.7,7.7,0,0,1-2.79-.49,5.94,5.94,0,0,1-2.14-1.42,6.3,6.3,0,0,1-1.37-2.29A9.26,9.26,0,0,1,148.18,241.16Z"/><path class="cls-2" d="M165.36,248.16v-14h9.54v2.48h-6.58v3.08h6.12v2.48h-6.12v3.48H175v2.48Z"/><path class="cls-2" d="M182.36,237.84a1.34,1.34,0,0,0,.78,1.29,9.48,9.48,0,0,0,2.48.67,7.86,7.86,0,0,1,3.67,1.38,3.48,3.48,0,0,1,1.17,2.86,3.92,3.92,0,0,1-.42,1.83,4.07,4.07,0,0,1-1.17,1.38,5.65,5.65,0,0,1-1.79.88,8.12,8.12,0,0,1-2.26.31,7.68,7.68,0,0,1-2.38-.35,5.87,5.87,0,0,1-1.8-.93,4.41,4.41,0,0,1-1.16-1.36,3.81,3.81,0,0,1-.46-1.62l3-.48a2.56,2.56,0,0,0,.79,1.67,2.84,2.84,0,0,0,2,.65,4.61,4.61,0,0,0,1-.1,2.52,2.52,0,0,0,.82-.33,1.66,1.66,0,0,0,.55-.57,1.63,1.63,0,0,0,.2-.82,1.35,1.35,0,0,0-.65-1.2,6.31,6.31,0,0,0-2.29-.68,18.1,18.1,0,0,1-2-.46,5.72,5.72,0,0,1-1.63-.77,3.51,3.51,0,0,1-1.08-1.22,3.76,3.76,0,0,1-.39-1.79,3.93,3.93,0,0,1,.4-1.84,3.72,3.72,0,0,1,1.12-1.31,5,5,0,0,1,1.7-.79,8,8,0,0,1,2.14-.26,7.71,7.71,0,0,1,2,.25,5.28,5.28,0,0,1,1.67.74,4.36,4.36,0,0,1,1.21,1.21,4.49,4.49,0,0,1,.66,1.64l-3,.66a2.45,2.45,0,0,0-.82-1.52,2.67,2.67,0,0,0-1.78-.56,2.78,2.78,0,0,0-1.69.42A1.33,1.33,0,0,0,182.36,237.84Z"/><path class="cls-2" d="M197.84,237.84a1.34,1.34,0,0,0,.78,1.29,9.48,9.48,0,0,0,2.48.67,7.86,7.86,0,0,1,3.67,1.38,3.48,3.48,0,0,1,1.17,2.86,3.92,3.92,0,0,1-.42,1.83,4.07,4.07,0,0,1-1.17,1.38,5.65,5.65,0,0,1-1.79.88,8.12,8.12,0,0,1-2.26.31,7.68,7.68,0,0,1-2.38-.35,5.87,5.87,0,0,1-1.8-.93A4.41,4.41,0,0,1,195,245.8a3.81,3.81,0,0,1-.46-1.62l3-.48a2.56,2.56,0,0,0,.79,1.67,2.84,2.84,0,0,0,2,.65,4.61,4.61,0,0,0,1-.1,2.52,2.52,0,0,0,.82-.33,1.66,1.66,0,0,0,.55-.57,1.63,1.63,0,0,0,.2-.82,1.35,1.35,0,0,0-.65-1.2,6.31,6.31,0,0,0-2.29-.68,18.1,18.1,0,0,1-2-.46,5.72,5.72,0,0,1-1.63-.77,3.51,3.51,0,0,1-1.08-1.22,3.76,3.76,0,0,1-.39-1.79,3.93,3.93,0,0,1,.4-1.84,3.72,3.72,0,0,1,1.12-1.31,5,5,0,0,1,1.7-.79,8,8,0,0,1,2.14-.26,7.71,7.71,0,0,1,2,.25,5.28,5.28,0,0,1,1.67.74,4.36,4.36,0,0,1,1.21,1.21,4.49,4.49,0,0,1,.66,1.64l-3,.66a2.45,2.45,0,0,0-.82-1.52,2.67,2.67,0,0,0-1.78-.56,2.78,2.78,0,0,0-1.69.42A1.33,1.33,0,0,0,197.84,237.84Z"/><path class="cls-2" d="M216.24,234.16h11.1v2.5h-4v11.5h-3v-11.5h-4Z"/><path class="cls-2" d="M230.38,241.16a8.83,8.83,0,0,1,.49-3,6.64,6.64,0,0,1,1.38-2.29,5.82,5.82,0,0,1,2.15-1.44,8.09,8.09,0,0,1,5.6,0,5.82,5.82,0,0,1,2.15,1.44,6.64,6.64,0,0,1,1.38,2.29,9.74,9.74,0,0,1,0,6.1,6.64,6.64,0,0,1-1.38,2.29,5.94,5.94,0,0,1-2.15,1.44,8.09,8.09,0,0,1-5.6,0,5.94,5.94,0,0,1-2.15-1.44,6.64,6.64,0,0,1-1.38-2.29A8.83,8.83,0,0,1,230.38,241.16Zm3.1,0a8,8,0,0,0,.23,2,4.33,4.33,0,0,0,.69,1.52,3.24,3.24,0,0,0,1.16,1,4,4,0,0,0,3.28,0,3.24,3.24,0,0,0,1.16-1,4.33,4.33,0,0,0,.69-1.52,8.38,8.38,0,0,0,0-3.9,4.33,4.33,0,0,0-.69-1.52,3.14,3.14,0,0,0-1.16-1,4,4,0,0,0-3.28,0,3.14,3.14,0,0,0-1.16,1,4.33,4.33,0,0,0-.69,1.52A7.9,7.9,0,0,0,233.48,241.16Z"/></g><g id="LINE_TWO" data-name="LINE TWO"><path class="cls-2" d="M124.41,252h5.22a8.13,8.13,0,0,1,2.88.47,5.73,5.73,0,0,1,2.16,1.36A5.79,5.79,0,0,1,136,256a9.68,9.68,0,0,1,0,6,5.66,5.66,0,0,1-3.51,3.55,8.36,8.36,0,0,1-2.88.47h-5.22Zm9,7a7,7,0,0,0-.23-1.85,4,4,0,0,0-.7-1.43,3,3,0,0,0-1.19-.92,4.1,4.1,0,0,0-1.72-.32h-2.12v9h2.12a4.26,4.26,0,0,0,1.72-.32,3.11,3.11,0,0,0,1.19-.92,4.07,4.07,0,0,0,.7-1.43A7.1,7.1,0,0,0,133.39,259Z"/><path class="cls-2" d="M152.65,266h-3.1l-1.12-3.24h-5L142.29,266h-2.94l5-14h3.22Zm-6.76-10.72c0,.1-.07.26-.14.47s-.14.44-.22.7-.17.54-.27.84l-.29.87c-.23.69-.47,1.43-.74,2.22h3.38c-.27-.79-.51-1.53-.74-2.22-.15-.4-.26-.73-.35-1s-.17-.51-.24-.75-.14-.47-.21-.67-.11-.37-.14-.47Z"/><path class="cls-2" d="M158.73,260.09l-5.3-8.14h3.44l3.42,5.36,3.4-5.36H167l-5.3,8.14V266h-3Z"/><path class="cls-2" d="M171.05,252h3v11.5h6.12V266h-9.12Z"/><path class="cls-2" d="M184.37,252h3v14h-3Z"/><path class="cls-2" d="M198.37,258.19h6.44V266h-2.72v-1.44a3.78,3.78,0,0,1-1.36,1.22,4.83,4.83,0,0,1-2.34.5,6.29,6.29,0,0,1-2.75-.57,5.72,5.72,0,0,1-2-1.55,6.79,6.79,0,0,1-1.19-2.3,9.56,9.56,0,0,1-.4-2.82,9,9,0,0,1,.47-3,6.36,6.36,0,0,1,1.37-2.31,6.18,6.18,0,0,1,2.19-1.51,7.54,7.54,0,0,1,2.93-.54,6.74,6.74,0,0,1,3.62.93,5.7,5.7,0,0,1,2.26,2.75l-2.78,1.14a3.54,3.54,0,0,0-1.22-1.73,3.24,3.24,0,0,0-2-.61,3.32,3.32,0,0,0-2.72,1.25,5.72,5.72,0,0,0-1,3.69q0,4.68,3.7,4.68a4,4,0,0,0,1.08-.15,3.45,3.45,0,0,0,1-.46,2.51,2.51,0,0,0,.73-.79,2.24,2.24,0,0,0,.28-1.16v-.64h-3.58Z"/><path class="cls-2" d="M210,252h3v5.54h5.3V252h3v14h-3V260H213V266h-3Z"/><path class="cls-2" d="M225.55,252h11.1v2.5h-4V266h-3v-11.5h-4Z"/></g><g id="ICON"><circle class="cls-3" cx="180" cy="144.27" r="24.53"/><line class="cls-4" x1="180" y1="112.09" x2="180" y2="90.18"/><line class="cls-4" x1="180" y1="198.36" x2="180" y2="176.45"/><line class="cls-4" x1="212.18" y1="144.27" x2="234.09" y2="144.27"/><line class="cls-4" x1="125.91" y1="144.27" x2="147.82" y2="144.27"/><line class="cls-4" x1="202.76" y1="121.51" x2="218.25" y2="106.02"/><line class="cls-4" x1="141.75" y1="182.52" x2="157.24" y2="167.03"/><line class="cls-4" x1="202.76" y1="167.03" x2="218.25" y2="182.52"/><line class="cls-4" x1="141.75" y1="106.02" x2="157.24" y2="121.51"/><rect class="cls-2" y="336.06" width="360" height="23.94"/><path class="cls-5" d="M265.76,352.49v-8.4h5.72v1.49h-4v1.84h3.68v1.49h-3.68V351h4v1.49Z"/><path class="cls-5" d="M278.79,348.08l3.11,4.41h-2.16l-2-2.92-2.06,2.92h-2l3.08-4.32-2.84-4.08H276l1.77,2.59,1.82-2.59h2Z"/><path class="cls-5" d="M286.16,349.54v2.95h-1.79v-8.4h3.19a5.75,5.75,0,0,1,1.37.15,3.12,3.12,0,0,1,1,.48,2.29,2.29,0,0,1,.68.83,2.81,2.81,0,0,1,.24,1.21,3,3,0,0,1-.25,1.25,2.39,2.39,0,0,1-.68.86,2.84,2.84,0,0,1-1,.5,5.2,5.2,0,0,1-1.35.17Zm2.89-2.78a1,1,0,0,0-.41-.93,2.48,2.48,0,0,0-1.26-.25h-1.22v2.47h1.22a2.17,2.17,0,0,0,1.26-.3A1.15,1.15,0,0,0,289.05,346.76Z"/><path class="cls-5" d="M293.53,352.49v-8.4h5.72v1.49H295.3v1.84H299v1.49H295.3V351h4v1.49Z"/><path class="cls-5" d="M308.38,346.64a2.36,2.36,0,0,1-1.6,2.4l1.94,3.45h-2L305,349.31h-1.12v3.18h-1.79v-8.4h3.07a5.47,5.47,0,0,1,1.33.15,2.69,2.69,0,0,1,1,.46,2.08,2.08,0,0,1,.65.79A2.57,2.57,0,0,1,308.38,346.64Zm-1.85,0a.91.91,0,0,0-.39-.85,2.3,2.3,0,0,0-1.18-.23h-1.08v2.26H305a2.08,2.08,0,0,0,1.18-.27A1,1,0,0,0,306.53,346.66Z"/><path class="cls-5" d="M311.41,344.09h1.8v8.4h-1.8Z"/><path class="cls-5" d="M316.37,352.49v-8.4h5.73v1.49h-4v1.84h3.67v1.49h-3.67V351h4v1.49Z"/><path class="cls-5" d="M324.94,344.09h1.87c.49.79.95,1.54,1.4,2.25l.64,1.05.51.83.48.77.38.62h0v-5.52H332v8.4h-1.87l-1.37-2.22c-.25-.42-.47-.76-.64-1l-.51-.83-.49-.79c-.15-.25-.29-.47-.4-.64h0v5.52h-1.71Z"/><path class="cls-5" d="M334.78,348.29a5.51,5.51,0,0,1,.29-1.84,3.81,3.81,0,0,1,.82-1.38,3.65,3.65,0,0,1,1.3-.86,4.79,4.79,0,0,1,1.71-.29,4.07,4.07,0,0,1,2.25.59,3.21,3.21,0,0,1,1.3,1.79l-1.75.61a2.43,2.43,0,0,0-.65-1.1,1.72,1.72,0,0,0-1.19-.39,2,2,0,0,0-1.67.81,2.63,2.63,0,0,0-.41.91,4.59,4.59,0,0,0-.14,1.15,4.51,4.51,0,0,0,.14,1.14,2.81,2.81,0,0,0,.41.91,1.92,1.92,0,0,0,.7.6,2.18,2.18,0,0,0,1,.22,1.78,1.78,0,0,0,1.14-.35,2.15,2.15,0,0,0,.66-1.06l1.73.61a3.49,3.49,0,0,1-1.3,1.68,3.81,3.81,0,0,1-2.25.62,4.49,4.49,0,0,1-1.68-.3,3.5,3.5,0,0,1-1.28-.85,3.69,3.69,0,0,1-.82-1.37A5.61,5.61,0,0,1,334.78,348.29Z"/><path class="cls-5" d="M345.09,352.49v-8.4h5.72v1.49h-3.95v1.84h3.68v1.49h-3.68V351h4v1.49Z"/></g></svg>