<svg xmlns="http://www.w3.org/2000/svg" viewBox="0 0 360 360"><defs><style>.cls-1{fill:#fff;}</style></defs><g id="BACKGROUND"><rect x="-1" width="360" height="360"/></g><g id="LINE_ONE" data-name="LINE ONE"><path class="cls-1" d="M125.9,234.16l-3.5,14h-3.48c-.29-1.29-.57-2.53-.84-3.7l-.4-1.74c-.11-.47-.21-.93-.31-1.4s-.2-.91-.3-1.34l-.25-1.1h-.06q-.11.47-.24,1.11c-.09.43-.2.9-.32,1.39s-.24,1-.36,1.53-.24,1-.36,1.55c-.28,1.17-.58,2.41-.9,3.7H111.1l-3.52-14h3c.35,1.49.67,2.91,1,4.26.17.8.32,1.46.44,2s.23,1,.34,1.56l.31,1.48c.1.47.18.86.23,1.18H113c.07-.32.15-.72.25-1.19s.21-1,.34-1.53l.4-1.72c.14-.6.28-1.19.41-1.76q.48-2,1-4.26h2.82q.54,2.24,1,4.26c.19.8.34,1.46.47,2s.25,1,.37,1.56.23,1,.33,1.48.18.86.25,1.18h.06c.07-.32.15-.72.25-1.19l.33-1.53c.12-.55.25-1.12.38-1.72s.27-1.19.4-1.76c.32-1.35.65-2.77,1-4.26Z"/><path class="cls-1" d="M130,248.16v-14h9.54v2.48H133v3.08h6.12v2.48H133v3.48h6.68v2.48Z"/><path class="cls-1" d="M144.3,234.16h3v11.5h6.12v2.5H144.3Z"/><path class="cls-1" d="M156.54,241.16a9.12,9.12,0,0,1,.48-3.07,6.47,6.47,0,0,1,1.37-2.29,5.75,5.75,0,0,1,2.16-1.43,7.82,7.82,0,0,1,2.85-.49,6.83,6.83,0,0,1,3.76,1,5.35,5.35,0,0,1,2.16,3l-2.92,1a3.92,3.92,0,0,0-1.08-1.83,2.86,2.86,0,0,0-2-.65,3.51,3.51,0,0,0-1.62.36,3.26,3.26,0,0,0-1.16,1,4.28,4.28,0,0,0-.69,1.51,7.77,7.77,0,0,0-.23,1.92,7.63,7.63,0,0,0,.23,1.91,4.45,4.45,0,0,0,.69,1.51,3.19,3.19,0,0,0,1.16,1,3.54,3.54,0,0,0,1.64.36,2.94,2.94,0,0,0,1.89-.58,3.53,3.53,0,0,0,1.11-1.76l2.88,1a6,6,0,0,1-2.16,2.8,6.42,6.42,0,0,1-3.76,1,7.5,7.5,0,0,1-2.79-.49,5.94,5.94,0,0,1-2.14-1.42,6.3,6.3,0,0,1-1.37-2.29A9.22,9.22,0,0,1,156.54,241.16Z"/><path class="cls-1" d="M173.14,241.16a8.83,8.83,0,0,1,.49-3,6.64,6.64,0,0,1,1.38-2.29,5.82,5.82,0,0,1,2.15-1.44,8.09,8.09,0,0,1,5.6,0,5.82,5.82,0,0,1,2.15,1.44,6.64,6.64,0,0,1,1.38,2.29,9.74,9.74,0,0,1,0,6.1,6.64,6.64,0,0,1-1.38,2.29,5.82,5.82,0,0,1-2.15,1.44,8.09,8.09,0,0,1-5.6,0A5.82,5.82,0,0,1,175,246.5a6.64,6.64,0,0,1-1.38-2.29A8.83,8.83,0,0,1,173.14,241.16Zm3.1,0a7.9,7.9,0,0,0,.23,2,4.33,4.33,0,0,0,.69,1.52,3.14,3.14,0,0,0,1.16,1,4,4,0,0,0,3.28,0,3.14,3.14,0,0,0,1.16-1,4.33,4.33,0,0,0,.69-1.52,8.38,8.38,0,0,0,0-3.9,4.33,4.33,0,0,0-.69-1.52,3.14,3.14,0,0,0-1.16-1,4,4,0,0,0-3.28,0,3.14,3.14,0,0,0-1.16,1,4.33,4.33,0,0,0-.69,1.52A7.9,7.9,0,0,0,176.24,241.16Z"/><path class="cls-1" d="M197.64,248.16c-.2-.55-.45-1.26-.75-2.15l-.93-2.77q-.48-1.44-.93-2.82c-.3-.92-.54-1.69-.73-2.32h-.06v10.06h-2.76v-14h4.2c.57,1.71,1.09,3.27,1.56,4.7q.42,1.27.69,2.07c.18.53.35,1,.5,1.51s.29.91.42,1.3.22.67.27.84l.26-.84c.12-.39.26-.84.43-1.37s.35-1.09.54-1.7.39-1.21.59-1.81c.45-1.43.95-3,1.5-4.7h4.18v14h-2.76V238.1h-.06l-.48,1.49c-.19.58-.39,1.2-.61,1.85s-.44,1.32-.67,2-.44,1.31-.64,1.92-.38,1.16-.55,1.65-.3.88-.41,1.16Z"/><path class="cls-1" d="M211.9,234.16h3v14h-3Z"/><path class="cls-1" d="M220.18,234.16h3.12l2.32,3.76,1.08,1.75.84,1.37.8,1.29.64,1H229v-9.2h2.84v14h-3.12l-2.28-3.7-1.07-1.73c-.29-.46-.57-.92-.85-1.38l-.81-1.32c-.26-.42-.48-.78-.67-1.07H223v9.2h-2.84Z"/><path class="cls-1" d="M242.88,240.4h6.44v7.76H246.6v-1.44a3.69,3.69,0,0,1-1.36,1.22,4.83,4.83,0,0,1-2.34.5,6.29,6.29,0,0,1-2.75-.57,5.72,5.72,0,0,1-2-1.55A6.7,6.7,0,0,1,237,244a9.56,9.56,0,0,1-.4-2.82,9,9,0,0,1,.47-3,6.53,6.53,0,0,1,1.37-2.31,6.18,6.18,0,0,1,2.19-1.51,7.54,7.54,0,0,1,2.93-.54,6.74,6.74,0,0,1,3.62.93,5.74,5.74,0,0,1,2.26,2.75l-2.78,1.14a3.59,3.59,0,0,0-1.22-1.73,3.24,3.24,0,0,0-2-.61,3.35,3.35,0,0,0-2.72,1.25,5.72,5.72,0,0,0-1,3.69q0,4.68,3.7,4.68a4,4,0,0,0,1.08-.15,3.2,3.2,0,0,0,1-.46,2.51,2.51,0,0,0,.73-.79,2.24,2.24,0,0,0,.28-1.16v-.64h-3.58Z"/><path class="cls-1" d="M107.26,258.94a9.16,9.16,0,0,1,.48-3.07,6.47,6.47,0,0,1,1.37-2.29,5.88,5.88,0,0,1,2.16-1.43,8,8,0,0,1,2.85-.49,6.83,6.83,0,0,1,3.76,1,5.39,5.39,0,0,1,2.16,3l-2.92,1a4,4,0,0,0-1.08-1.83,2.86,2.86,0,0,0-2-.65,3.51,3.51,0,0,0-1.62.36,3.26,3.26,0,0,0-1.16,1,4.37,4.37,0,0,0-.69,1.51,7.77,7.77,0,0,0-.23,1.92,7.57,7.57,0,0,0,.23,1.91,4.37,4.37,0,0,0,.69,1.51,3.19,3.19,0,0,0,1.16,1,3.54,3.54,0,0,0,1.64.36,2.94,2.94,0,0,0,1.89-.58,3.48,3.48,0,0,0,1.11-1.76l2.88,1a6,6,0,0,1-2.16,2.8,6.42,6.42,0,0,1-3.76,1,7.5,7.5,0,0,1-2.79-.49,5.82,5.82,0,0,1-2.14-1.42,6.3,6.3,0,0,1-1.37-2.29A9.18,9.18,0,0,1,107.26,258.94Z"/><path class="cls-1" d="M123.86,258.94a8.83,8.83,0,0,1,.49-3.05,6.64,6.64,0,0,1,1.38-2.29,6.07,6.07,0,0,1,2.15-1.44,8.09,8.09,0,0,1,5.6,0,6.07,6.07,0,0,1,2.15,1.44,6.64,6.64,0,0,1,1.38,2.29,9.74,9.74,0,0,1,0,6.1,6.55,6.55,0,0,1-1.38,2.29,5.82,5.82,0,0,1-2.15,1.44,8.09,8.09,0,0,1-5.6,0,5.82,5.82,0,0,1-2.15-1.44,6.55,6.55,0,0,1-1.38-2.29A8.79,8.79,0,0,1,123.86,258.94Zm3.1,0a7.9,7.9,0,0,0,.23,1.95,4.25,4.25,0,0,0,.69,1.52,3.14,3.14,0,0,0,1.16,1,4,4,0,0,0,3.28,0,3.14,3.14,0,0,0,1.16-1,4.25,4.25,0,0,0,.69-1.52,7.9,7.9,0,0,0,.23-1.95,8,8,0,0,0-.23-1.95,4.33,4.33,0,0,0-.69-1.52,3.24,3.24,0,0,0-1.16-1,4,4,0,0,0-3.28,0,3.24,3.24,0,0,0-1.16,1,4.33,4.33,0,0,0-.69,1.52A8,8,0,0,0,127,258.94Z"/><path class="cls-1" d="M148.36,265.94c-.2-.54-.45-1.26-.75-2.15S147,262,146.68,261s-.63-1.9-.93-2.82-.54-1.69-.73-2.32H145v10.06H142.2v-14h4.2l1.56,4.7q.42,1.29.69,2.07c.18.53.35,1,.5,1.51s.29.92.42,1.3.22.67.27.84l.26-.84c.12-.38.26-.84.43-1.37s.35-1.09.54-1.7.39-1.21.59-1.81q.68-2.13,1.5-4.7h4.18v14h-2.76V255.88h-.06c-.13.42-.29.91-.48,1.49s-.39,1.2-.61,1.85-.44,1.32-.67,2l-.64,1.92c-.2.61-.38,1.16-.55,1.65s-.3.88-.41,1.16Z"/><path class="cls-1" d="M168.78,265.94c-.2-.54-.45-1.26-.75-2.15s-.61-1.81-.93-2.77-.63-1.9-.93-2.82-.54-1.69-.73-2.32h-.06v10.06h-2.76v-14h4.2l1.56,4.7q.42,1.29.69,2.07c.18.53.35,1,.5,1.51s.29.92.42,1.3.22.67.27.84l.26-.84c.12-.38.26-.84.43-1.37s.35-1.09.54-1.7.39-1.21.59-1.81q.67-2.13,1.5-4.7h4.18v14H175V255.88h-.06c-.13.42-.29.91-.48,1.49s-.39,1.2-.61,1.85-.44,1.32-.67,2-.44,1.32-.64,1.92-.38,1.16-.55,1.65-.3.88-.41,1.16Z"/><path class="cls-1" d="M188.56,266.22a5.56,5.56,0,0,1-4.26-1.44,5.65,5.65,0,0,1-1.34-4v-8.84h3v8.86a3.32,3.32,0,0,0,.64,2.11,2.73,2.73,0,0,0,3.92,0,3.32,3.32,0,0,0,.64-2.11v-8.86h3v8.84a5.65,5.65,0,0,1-1.34,4A5.56,5.56,0,0,1,188.56,266.22Z"/><path class="cls-1" d="M199.36,251.94h3.12l2.32,3.76,1.08,1.75.84,1.37.8,1.29.64,1h.06v-9.2h2.84v14h-3.12c-.8-1.29-1.56-2.52-2.28-3.7l-1.07-1.73c-.29-.46-.57-.92-.85-1.38l-.81-1.32-.67-1.07h-.06v9.2h-2.84Z"/><path class="cls-1" d="M216.34,251.94h3v14h-3Z"/><path class="cls-1" d="M223.56,251.94h11.1v2.5h-4v11.5h-3v-11.5h-4Z"/><path class="cls-1" d="M243.12,260.08l-5.3-8.14h3.44l3.42,5.36,3.4-5.36h3.34l-5.3,8.14v5.86h-3Z"/></g><g id="ICON"><path class="cls-1" d="M180.09,104.67c1.19-1.23,2.38-2.45,3.55-3.68a33.53,33.53,0,0,1,18.51-10.11A33.92,33.92,0,0,1,239.37,138a36,36,0,0,1-8.15,11.34c-3.57,3.47-7.05,7-10.57,10.54-1.69,1.68-3.39,3.36-5.05,5.07a2.59,2.59,0,0,0-.66,1.2c-.88,4.29-3.59,6.68-8,7a1.55,1.55,0,0,0-.23.07,8.4,8.4,0,0,1-8.35,8.39c-1.11,5.73-3.1,7.73-8.34,8.33-.1.6-.16,1.22-.29,1.83a8.25,8.25,0,0,1-10.84,6,15.85,15.85,0,0,1-5.9-4.22q-5.36-5.37-10.72-10.74-6.84-6.85-13.69-13.68c-5.54-5.55-11.11-11.07-16.62-16.64a74.91,74.91,0,0,1-7.77-8.36,34.07,34.07,0,0,1-4.75-30.77,33.85,33.85,0,0,1,34.75-23,32.6,32.6,0,0,1,19.72,8.31C176,100.56,177.92,102.57,180.09,104.67Zm-13.45,58,2.12,2.09,12.9,12.9c1.85,1.85,3.69,3.71,5.58,5.51a3.57,3.57,0,0,0,4.52.62,3.07,3.07,0,0,0,.34-4.36,53.74,53.74,0,0,0-3.72-4c-3.88-3.91-7.79-7.8-11.69-11.7-1.85-1.84-3.72-3.66-5.6-5.51L175,154.4a3.79,3.79,0,0,1,.38.32c2.21,2.21,4.4,4.43,6.61,6.64,4,4,8.06,8.08,12.14,12.08a14.93,14.93,0,0,0,3,2.29,2.55,2.55,0,0,0,3.15-.43,2.82,2.82,0,0,0,.69-3.06,7.88,7.88,0,0,0-2.44-3.31l-13-13c-2-2-4-4-6-6l4-4c3.07,3.1,6.13,6.22,9.2,9.32q5.25,5.3,10.5,10.57a5.64,5.64,0,0,0,3.12,1.79,2.71,2.71,0,0,0,3.22-2.65,4.41,4.41,0,0,0-1.48-3.24c-3.73-3.79-7.5-7.54-11.26-11.29q-7-7-14-14c-1.32-1.33-2.61-2.68-3.92-4a4.16,4.16,0,0,0-.38.3q-5.76,5.76-11.51,11.52a9.68,9.68,0,0,1-7,3.07,9.53,9.53,0,0,1-8.6-5.82,8.86,8.86,0,0,1,1.89-10.08c2.94-3.15,6.08-6.13,9.13-9.18,3.66-3.66,7.3-7.32,11-11,.89-.9,1.83-1.75,2.66-2.53-1.84-1.9-3.44-3.76-5.24-5.4-7.35-6.63-15.95-8.87-25.6-6.81a27.1,27.1,0,0,0-15.58,9.61,27.61,27.61,0,0,0-6.39,16.62,26.8,26.8,0,0,0,5.78,18.6,118.26,118.26,0,0,0,8.38,8.83c4.64,4.69,9.33,9.31,14,14s9.22,9.26,13.84,13.88c4,4.05,8,8.1,12.13,12.1a15,15,0,0,0,3.08,2.35,2.55,2.55,0,0,0,3.09-.42,2.66,2.66,0,0,0,.72-3,6.27,6.27,0,0,0-1.11-2c-1.12-1.25-2.35-2.4-3.53-3.59q-6.57-6.57-13.15-13.15c-1.23-1.24-2.48-2.46-3.69-3.66ZM184,129.84q14.72,14.73,29.52,29.55c1.57-1.61,3.19-3.28,4.83-4.93q4.83-4.86,9.69-9.7a29.91,29.91,0,0,0,4.84-6.14A28.1,28.1,0,0,0,236.68,122a28.25,28.25,0,0,0-25.29-26,28.07,28.07,0,0,0-18.86,4.64c-2.84,1.86-5.08,4.37-7.45,6.73-4.68,4.65-9.32,9.34-14,14s-9.1,9-13.63,13.6a3.72,3.72,0,0,0-1.1,4.19,3.88,3.88,0,0,0,3.52,2.67,4.19,4.19,0,0,0,3.3-1.51l11.68-11.69c2.29-2.3,4.56-4.6,6.76-6.83,11.54,8.13,23.21,9.6,35.29,1.41l3.2,4.38C208.47,135.79,196.44,135.8,184,129.84Z"/><path d="M166.64,162.71l-3.86,3.94c1.21,1.2,2.46,2.42,3.69,3.66q6.59,6.57,13.15,13.15c1.18,1.19,2.41,2.34,3.53,3.59a6.27,6.27,0,0,1,1.11,2,2.66,2.66,0,0,1-.72,3,2.55,2.55,0,0,1-3.09.42,15,15,0,0,1-3.08-2.35c-4.08-4-8.1-8-12.13-12.1q-6.93-6.93-13.84-13.88c-4.66-4.66-9.35-9.28-14-14a118.26,118.26,0,0,1-8.38-8.83,26.8,26.8,0,0,1-5.78-18.6,27.61,27.61,0,0,1,6.39-16.62,27.1,27.1,0,0,1,15.58-9.61c9.65-2.06,18.25.18,25.6,6.81,1.8,1.64,3.4,3.5,5.24,5.4-.83.78-1.77,1.63-2.66,2.53-3.67,3.65-7.31,7.31-11,11-3.05,3-6.19,6-9.13,9.18a8.86,8.86,0,0,0-1.89,10.08,9.53,9.53,0,0,0,8.6,5.82,9.68,9.68,0,0,0,7-3.07q5.74-5.78,11.51-11.52a4.16,4.16,0,0,1,.38-.3c1.31,1.34,2.6,2.69,3.92,4q7,7,14,14c3.76,3.75,7.53,7.5,11.26,11.29a4.41,4.41,0,0,1,1.48,3.24,2.71,2.71,0,0,1-3.22,2.65,5.64,5.64,0,0,1-3.12-1.79q-5.26-5.28-10.5-10.57c-3.07-3.1-6.13-6.22-9.2-9.32l-4,4c2,2,4,3.94,6,6l13,13a7.88,7.88,0,0,1,2.44,3.31,2.82,2.82,0,0,1-.69,3.06,2.55,2.55,0,0,1-3.15.43,14.93,14.93,0,0,1-3-2.29c-4.08-4-8.1-8-12.14-12.08-2.21-2.21-4.4-4.43-6.61-6.64a3.79,3.79,0,0,0-.38-.32l-3.91,3.88c1.88,1.85,3.75,3.67,5.6,5.51,3.9,3.9,7.81,7.79,11.69,11.7a53.74,53.74,0,0,1,3.72,4,3.07,3.07,0,0,1-.34,4.36,3.57,3.57,0,0,1-4.52-.62c-1.89-1.8-3.73-3.66-5.58-5.51l-12.9-12.9Z"/><path d="M184,129.84c12.46,6,24.49,5.95,36.14-2.29l-3.2-4.38c-12.08,8.19-23.75,6.72-35.29-1.41-2.2,2.23-4.47,4.53-6.76,6.83l-11.68,11.69a4.19,4.19,0,0,1-3.3,1.51,3.88,3.88,0,0,1-3.52-2.67,3.72,3.72,0,0,1,1.1-4.19c4.53-4.55,9.09-9.07,13.63-13.6s9.3-9.35,14-14c2.37-2.36,4.61-4.87,7.45-6.73A28.07,28.07,0,0,1,211.39,96a28.25,28.25,0,0,1,25.29,26,28.1,28.1,0,0,1-3.82,16.64,29.91,29.91,0,0,1-4.84,6.14q-4.86,4.83-9.69,9.7c-1.64,1.65-3.26,3.32-4.83,4.93Q198.65,144.54,184,129.84Z"/></g></svg>