<svg xmlns="http://www.w3.org/2000/svg" viewBox="0 0 360 360"><defs><style>.cls-1{fill:#f1f2f2;}.cls-2,.cls-3{fill:#d2bf2d;}.cls-3{stroke:#d2bf2d;stroke-miterlimit:10;stroke-width:2px;}.cls-4{fill:#fff;}</style></defs><g id="BACKGROUND"><rect class="cls-1" x="1.62" width="360" height="360"/></g><g id="LINE_ONE" data-name="LINE ONE"><path class="cls-2" d="M137.07,233.88c.5,1.4,1,2.75,1.4,4.06q.41,1.14.66,1.92c.18.52.35,1,.52,1.57s.34,1,.5,1.53.3.93.42,1.32h0c.12-.39.26-.83.42-1.33l.51-1.59c.18-.56.37-1.14.57-1.72s.4-1.16.58-1.7c.44-1.31.91-2.66,1.4-4.06h3.08l-5.16,14H139l-5.1-14Z"/><path class="cls-2" d="M151.29,233.88h3v14h-3Z"/><path class="cls-2" d="M162.29,237.56a1.34,1.34,0,0,0,.78,1.29,9.48,9.48,0,0,0,2.48.67,7.86,7.86,0,0,1,3.67,1.38,3.48,3.48,0,0,1,1.17,2.86,3.92,3.92,0,0,1-.42,1.83A4.07,4.07,0,0,1,168.8,247a5.65,5.65,0,0,1-1.79.88,8.07,8.07,0,0,1-2.26.31,7.68,7.68,0,0,1-2.38-.35,6.23,6.23,0,0,1-1.8-.93,4.41,4.41,0,0,1-1.16-1.36,3.81,3.81,0,0,1-.46-1.62l3-.48a2.58,2.58,0,0,0,.79,1.67,2.84,2.84,0,0,0,2,.65,5.32,5.32,0,0,0,1-.1,2.52,2.52,0,0,0,.82-.33,1.75,1.75,0,0,0,.55-.57,1.54,1.54,0,0,0,.2-.82,1.35,1.35,0,0,0-.65-1.2,6.25,6.25,0,0,0-2.29-.68,18.1,18.1,0,0,1-2-.46,5.85,5.85,0,0,1-1.63-.77,3.6,3.6,0,0,1-1.08-1.22,3.79,3.79,0,0,1-.39-1.79,3.93,3.93,0,0,1,.4-1.84,3.72,3.72,0,0,1,1.12-1.31,4.84,4.84,0,0,1,1.7-.79,8,8,0,0,1,2.14-.26,7.71,7.71,0,0,1,2,.25,5.18,5.18,0,0,1,1.67.74,4.23,4.23,0,0,1,1.21,1.21,4.42,4.42,0,0,1,.66,1.64l-3,.66a2.4,2.4,0,0,0-.82-1.52,2.62,2.62,0,0,0-1.78-.56,2.78,2.78,0,0,0-1.69.42A1.35,1.35,0,0,0,162.29,237.56Z"/><path class="cls-2" d="M175.05,233.88h3v14h-3Z"/><path class="cls-2" d="M182.27,233.88h11.1v2.5h-4v11.5h-3v-11.5h-4Z"/><path class="cls-2" d="M196.41,240.88a8.79,8.79,0,0,1,.49-3,6.55,6.55,0,0,1,1.38-2.29,5.82,5.82,0,0,1,2.15-1.44,8.09,8.09,0,0,1,5.6,0,5.82,5.82,0,0,1,2.15,1.44,6.41,6.41,0,0,1,1.38,2.29,9.74,9.74,0,0,1,0,6.1,6.49,6.49,0,0,1-1.38,2.29,6.07,6.07,0,0,1-2.15,1.44,8.09,8.09,0,0,1-5.6,0,6.07,6.07,0,0,1-2.15-1.44,6.64,6.64,0,0,1-1.38-2.29A8.83,8.83,0,0,1,196.41,240.88Zm3.1,0a8,8,0,0,0,.23,2,4.33,4.33,0,0,0,.69,1.52,3.24,3.24,0,0,0,1.16,1,4,4,0,0,0,3.28,0,3.24,3.24,0,0,0,1.16-1,4.33,4.33,0,0,0,.69-1.52,8,8,0,0,0,.23-2,7.9,7.9,0,0,0-.23-1.95,4.25,4.25,0,0,0-.69-1.52,3.14,3.14,0,0,0-1.16-1,4,4,0,0,0-3.28,0,3.14,3.14,0,0,0-1.16,1,4.25,4.25,0,0,0-.69,1.52A7.9,7.9,0,0,0,199.51,240.88Z"/><path class="cls-2" d="M225.23,238.14a4.26,4.26,0,0,1-.71,2.54,4.21,4.21,0,0,1-2,1.46l3.22,5.74h-3.3l-2.9-5.3h-1.86v5.3h-3v-14h5.12a8.89,8.89,0,0,1,2.21.25,4.61,4.61,0,0,1,1.69.77,3.32,3.32,0,0,1,1.08,1.32A4.47,4.47,0,0,1,225.23,238.14Zm-3.08,0a1.51,1.51,0,0,0-.65-1.41,3.91,3.91,0,0,0-2-.39h-1.8v3.78h1.8a3.48,3.48,0,0,0,2-.45A1.74,1.74,0,0,0,222.15,238.16Z"/></g><g id="LINE_TWO" data-name="LINE TWO"><path class="cls-2" d="M109.39,265.66v-14h9.54v2.48h-6.58v3.08h6.12v2.48h-6.12v3.48H119v2.48Z"/><path class="cls-2" d="M131.11,258.32l5.18,7.34h-3.6l-3.38-4.86-3.44,4.86h-3.36l5.14-7.2-4.74-6.8h3.62l2.94,4.32,3-4.32h3.38Z"/><path class="cls-2" d="M143.39,260.74v4.92h-3v-14h5.32a9.4,9.4,0,0,1,2.28.26,5,5,0,0,1,1.74.8,3.6,3.6,0,0,1,1.12,1.38,4.64,4.64,0,0,1,.4,2,4.87,4.87,0,0,1-.41,2.07,3.85,3.85,0,0,1-1.14,1.44,4.75,4.75,0,0,1-1.75.84,8.76,8.76,0,0,1-2.24.27Zm4.82-4.62a1.68,1.68,0,0,0-.69-1.56,4.11,4.11,0,0,0-2.09-.42h-2v4.12h2a3.52,3.52,0,0,0,2.09-.5A1.88,1.88,0,0,0,148.21,256.12Z"/><path class="cls-2" d="M155.67,265.66v-14h9.54v2.48h-6.58v3.08h6.12v2.48h-6.12v3.48h6.68v2.48Z"/><path class="cls-2" d="M180.43,255.92a3.94,3.94,0,0,1-2.66,4l3.22,5.74h-3.3l-2.9-5.3h-1.86v5.3h-3v-14h5.12a9.39,9.39,0,0,1,2.21.25,5,5,0,0,1,1.69.77,3.46,3.46,0,0,1,1.08,1.32A4.53,4.53,0,0,1,180.43,255.92Zm-3.08,0a1.51,1.51,0,0,0-.65-1.41,3.91,3.91,0,0,0-2-.39h-1.8v3.78h1.8a3.48,3.48,0,0,0,2-.45A1.74,1.74,0,0,0,177.35,255.94Z"/><path class="cls-2" d="M185.47,251.66h3v14h-3Z"/><path class="cls-2" d="M193.75,265.66v-14h9.54v2.48h-6.58v3.08h6.12v2.48h-6.12v3.48h6.68v2.48Z"/><path class="cls-2" d="M208,251.66h3.12l2.32,3.76,1.08,1.75.84,1.37.8,1.29.64,1h.06v-9.2h2.84v14h-3.12c-.8-1.29-1.56-2.52-2.28-3.7l-1.07-1.73c-.29-.46-.57-.92-.85-1.38l-.81-1.32-.67-1.07h-.06v9.2H208Z"/><path class="cls-2" d="M224.43,258.66a9.16,9.16,0,0,1,.48-3.07,6.47,6.47,0,0,1,1.37-2.29,5.88,5.88,0,0,1,2.16-1.43,8,8,0,0,1,2.85-.49,6.83,6.83,0,0,1,3.76,1,5.39,5.39,0,0,1,2.16,3l-2.92,1a4,4,0,0,0-1.08-1.83,2.86,2.86,0,0,0-2-.65,3.51,3.51,0,0,0-1.62.36,3.26,3.26,0,0,0-1.16,1,4.37,4.37,0,0,0-.69,1.51,7.77,7.77,0,0,0-.23,1.92,7.57,7.57,0,0,0,.23,1.91,4.37,4.37,0,0,0,.69,1.51,3.19,3.19,0,0,0,1.16,1,3.54,3.54,0,0,0,1.64.36,2.94,2.94,0,0,0,1.89-.58,3.48,3.48,0,0,0,1.11-1.76l2.88,1a6,6,0,0,1-2.16,2.8,6.42,6.42,0,0,1-3.76,1,7.5,7.5,0,0,1-2.79-.49,5.82,5.82,0,0,1-2.14-1.42,6.3,6.3,0,0,1-1.37-2.29A9.18,9.18,0,0,1,224.43,258.66Z"/><path class="cls-2" d="M241.61,265.66v-14h9.54v2.48h-6.58v3.08h6.12v2.48h-6.12v3.48h6.68v2.48Z"/></g><g id="ICON"><path class="cls-3" d="M131.1,122c-3.58-10.39-3.12-12,4.9-17.29-.94-4.42-.82-8.51,3.93-11,4.57-2.45,6.79-2.14,11.9,2,7-6.91,11.67-6.28,18,1.66,7.92,9.89,16.2,19.47,24.35,29.17a1.06,1.06,0,0,0,.55.37c2.2-3.25,4-6.72,6.54-9.4A9.88,9.88,0,0,1,211.77,115c3.85,1.26,4.41,4.86,4.45,8.23.1,9-.28,18.08-.06,27.1a184.12,184.12,0,0,0,1.57,20.74c1.07,7.78-2.5,13.24-7.93,17.79a44.94,44.94,0,0,1-24.37,10.06c-4.79.54-8.86-1.28-12-5.32a59.26,59.26,0,0,0-9.28-10.13c-11.32-9-19.73-20.37-27.11-32.6-2.93-4.87-5.69-9.86-8.28-14.92S125.69,125.74,131.1,122Zm2.8,3.1c-3.87,2.17-3.72,4.84-2.37,7.83a146.82,146.82,0,0,0,23.76,36.69c6.58,7.51,14.21,14.09,21,21.44,2.63,2.84,5.3,4.53,9,4.05,9.22-1.19,17.56-4.5,24.15-11.24,3-3.11,5.14-6.71,4.76-11.55-.74-9.4-1.15-18.83-1.48-28.25-.24-7,.08-13.94-.23-20.89-.22-4.93-2.57-6.16-6.92-4-5,2.53-6.39,7.09-6.22,12.28.07,2.35.72,4.7.7,7a4.63,4.63,0,0,1-1.52,3.4c-7,4.64-9.83,11.07-9.23,19.31.07.95-.83,2-1.28,2.95-.76-.93-2.09-1.79-2.19-2.78-.85-8.28,1.32-15.66,8.18-20.75,3.39-2.52,2.25-4.89,1-7.48-.58-1.21-1.82-2.09-2.74-3.14-7.2-8.32-14.44-16.61-21.58-25-2.26-2.65-4.09-5.67-6.42-8.24-2-2.23-4.43-3.23-7.3-.82s-1.65,4.4.11,6.72q10.51,13.8,20.79,27.78c.71,1,.44,2.64.63,4-1.24-.59-2.84-.88-3.66-1.83-2.35-2.75-4.34-5.79-6.55-8.65-6.7-8.72-13.36-17.47-20.2-26.08-2.12-2.67-5.23-2.57-7.49-.14-2.46,2.64-1.22,5.28.48,7.57,3,4,6.23,7.86,9.34,11.8,5.61,7.11,11.27,14.2,16.73,21.43.68.9.29,2.6.4,3.93-1.1-.58-2.48-.92-3.26-1.8-2.48-2.82-4.76-5.82-7.1-8.77l-18.81-23.7c-6.51,3.12-7.36,5.66-3.76,11.21,1.74,2.68,3.87,5.11,5.84,7.64,6.1,7.79,12.26,15.54,18.25,23.41.62.82.32,2.34.45,3.54a20.66,20.66,0,0,1-3.42-1.31c-.66-.4-1-1.29-1.56-1.94C147.48,142.28,140.76,133.77,133.9,125.08Z"/><path class="cls-2" d="M128.72,156.64l1.66-2.06c.67.82,1.81,1.56,2,2.46,2.47,15.71,11.33,25.84,26.34,30.83,1,.35,1.74,1.71,2.6,2.6-1.05.4-2.26,1.34-3.13,1.09C141.32,186.81,130.5,173.84,128.72,156.64Z"/><path class="cls-2" d="M228.61,134.4a1.4,1.4,0,0,1,0,.41c-.52,1.68-1.11,4.81-1.58,4.79-3.46-.13-1.81-3-1.93-4.77-1-14.62-7.39-25.72-20.57-32.65-1.12-.59-1.79-2-2.67-3.07,1.45-.1,3.2-.78,4.31-.22C220.64,106.26,227.82,118.33,228.61,134.4Z"/><path class="cls-2" d="M213.68,93.57c1.37.32,2.91.34,4.09,1A39.26,39.26,0,0,1,237,119.69c.28,1-.45,2.33-.72,3.51-.94-.92-2.38-1.68-2.74-2.8-3.13-9.83-8.83-17.54-17.87-22.73-1.1-.64-1.8-2-2.69-3Z"/><path class="cls-2" d="M151.47,196.2c-1.54.59-2.54,1.34-3.48,1.27-9.09-.68-23.1-13.19-25-22.33-.18-.84.47-1.86.74-2.79,1,.73,2.38,1.26,2.83,2.23,3.94,8.63,10.1,14.87,19,18.29,1.16.44,2.43.64,3.55,1.16C149.77,194.34,150.25,195.06,151.47,196.2Z"/><path class="cls-4" d="M133.9,125.08c6.86,8.69,13.58,17.2,20.29,25.72.52.65.9,1.54,1.56,1.94a20.66,20.66,0,0,0,3.42,1.31c-.13-1.2.17-2.72-.45-3.54-6-7.87-12.15-15.62-18.25-23.41-2-2.53-4.1-5-5.84-7.64-3.6-5.55-2.75-8.09,3.76-11.21L157.2,132c2.34,3,4.62,6,7.1,8.77.78.88,2.16,1.22,3.26,1.8-.11-1.33.28-3-.4-3.93-5.46-7.23-11.12-14.32-16.73-21.43-3.11-3.94-6.36-7.77-9.34-11.8-1.7-2.29-2.94-4.93-.48-7.57,2.26-2.43,5.37-2.53,7.49.14,6.84,8.61,13.5,17.36,20.2,26.08,2.21,2.86,4.2,5.9,6.55,8.65.82,1,2.42,1.24,3.66,1.83-.19-1.35.08-3-.63-4q-10.24-14-20.79-27.78c-1.76-2.32-3-4.28-.11-6.72s5.28-1.41,7.3.82c2.33,2.57,4.16,5.59,6.42,8.24,7.14,8.38,14.38,16.67,21.58,25,.92,1,2.16,1.93,2.74,3.14,1.26,2.59,2.4,5-1,7.48-6.86,5.09-9,12.47-8.18,20.75.1,1,1.43,1.85,2.19,2.78.45-1,1.35-2,1.28-2.95-.6-8.24,2.28-14.67,9.23-19.31a4.63,4.63,0,0,0,1.52-3.4c0-2.35-.63-4.7-.7-7-.17-5.19,1.22-9.75,6.22-12.28,4.35-2.21,6.7-1,6.92,4,.31,7,0,13.93.23,20.89.33,9.42.74,18.85,1.48,28.25.38,4.84-1.72,8.44-4.76,11.55-6.59,6.74-14.93,10.05-24.15,11.24-3.72.48-6.39-1.21-9-4.05-6.79-7.35-14.42-13.93-21-21.44a146.82,146.82,0,0,1-23.76-36.69C130.18,129.92,130,127.25,133.9,125.08Z"/><rect class="cls-2" y="336.06" width="360" height="23.94"/><path class="cls-4" d="M235.07,348.29a5.51,5.51,0,0,1,.29-1.84,4,4,0,0,1,.82-1.38,3.65,3.65,0,0,1,1.3-.86,4.87,4.87,0,0,1,1.71-.29,4.11,4.11,0,0,1,2.26.59,3.19,3.19,0,0,1,1.29,1.79l-1.75.61a2.34,2.34,0,0,0-.65-1.1,1.71,1.71,0,0,0-1.19-.39,2,2,0,0,0-1,.22,1.88,1.88,0,0,0-.69.59,2.47,2.47,0,0,0-.42.91,4.59,4.59,0,0,0-.14,1.15,4.51,4.51,0,0,0,.14,1.14,2.63,2.63,0,0,0,.42.91,1.81,1.81,0,0,0,.69.6,2.19,2.19,0,0,0,1,.22,1.77,1.77,0,0,0,1.13-.35,2.23,2.23,0,0,0,.67-1.06l1.72.61A3.53,3.53,0,0,1,241.4,352a3.87,3.87,0,0,1-2.26.62,4.47,4.47,0,0,1-1.67-.3,3.54,3.54,0,0,1-1.29-.85,3.82,3.82,0,0,1-.82-1.37A5.61,5.61,0,0,1,235.07,348.29Z"/><path class="cls-4" d="M252.68,352.49h-1.86l-.67-1.95h-3l-.67,1.95H244.7l3-8.4h1.93Zm-4.06-6.43a2.83,2.83,0,0,1-.08.28c0,.12-.09.26-.13.42l-.17.5c-.06.18-.11.36-.17.52l-.44,1.34h2l-.44-1.34c-.09-.24-.16-.43-.21-.59s-.1-.31-.14-.45-.09-.28-.13-.4a2.83,2.83,0,0,1-.08-.28Z"/><path class="cls-4" d="M258.86,352.49q-.18-.5-.45-1.29l-.56-1.66c-.19-.58-.38-1.14-.56-1.7s-.32-1-.44-1.39h0v6h-1.66v-8.4h2.52c.35,1,.66,2,.94,2.82.17.51.3.92.41,1.24s.21.62.3.91.18.54.25.78.13.4.17.5l.15-.5c.07-.24.16-.51.26-.83s.21-.65.32-1l.36-1.08q.41-1.29.9-2.82h2.51v8.4h-1.66v-6h0l-.28.9c-.12.34-.24.71-.37,1.11s-.27.79-.4,1.19-.27.79-.39,1.15-.23.7-.33,1l-.24.7Z"/><path class="cls-4" d="M269.2,349.54v2.95h-1.79v-8.4h3.2a5.66,5.66,0,0,1,1.36.15,3.18,3.18,0,0,1,1,.48,2.26,2.26,0,0,1,.67.83,2.81,2.81,0,0,1,.24,1.21,2.85,2.85,0,0,1-.25,1.25,2.39,2.39,0,0,1-.68.86,2.7,2.7,0,0,1-1.05.5,5.17,5.17,0,0,1-1.34.17Zm2.89-2.78a1,1,0,0,0-.41-.93,2.44,2.44,0,0,0-1.25-.25H269.2v2.47h1.23a2.13,2.13,0,0,0,1.25-.3A1.13,1.13,0,0,0,272.09,346.76Z"/><path class="cls-4" d="M279.88,352.66a3.34,3.34,0,0,1-2.56-.87,3.39,3.39,0,0,1-.8-2.4v-5.3h1.8v5.31a2,2,0,0,0,.38,1.27,1.64,1.64,0,0,0,2.36,0,2,2,0,0,0,.38-1.27v-5.31h1.8v5.3a3.39,3.39,0,0,1-.8,2.4A3.34,3.34,0,0,1,279.88,352.66Z"/><path class="cls-4" d="M288,346.3a.8.8,0,0,0,.47.77,5.38,5.38,0,0,0,1.49.4,4.79,4.79,0,0,1,2.2.83,2.09,2.09,0,0,1,.7,1.72,2.3,2.3,0,0,1-.25,1.09,2.43,2.43,0,0,1-.7.83,3.21,3.21,0,0,1-1.08.53,4.79,4.79,0,0,1-1.35.19,4.53,4.53,0,0,1-1.43-.21,3.67,3.67,0,0,1-1.08-.56,2.6,2.6,0,0,1-.7-.82,2.24,2.24,0,0,1-.27-1l1.8-.29a1.55,1.55,0,0,0,.47,1,1.71,1.71,0,0,0,1.21.39,2.77,2.77,0,0,0,.6-.06,1.49,1.49,0,0,0,.5-.19,1.1,1.1,0,0,0,.33-.35.94.94,0,0,0,.12-.49.81.81,0,0,0-.39-.72,3.92,3.92,0,0,0-1.38-.41,9.6,9.6,0,0,1-1.22-.27,3.42,3.42,0,0,1-1-.46,2.2,2.2,0,0,1-.65-.74,2.32,2.32,0,0,1-.23-1.07,2.38,2.38,0,0,1,.24-1.1,2.13,2.13,0,0,1,.67-.79,3,3,0,0,1,1-.47,5.12,5.12,0,0,1,2.5,0,3.49,3.49,0,0,1,1,.44,2.63,2.63,0,0,1,.72.73,2.57,2.57,0,0,1,.4,1l-1.82.4a1.47,1.47,0,0,0-.5-.91,1.55,1.55,0,0,0-1.06-.34,1.74,1.74,0,0,0-1,.25A.82.82,0,0,0,288,346.3Z"/><path class="cls-4" d="M300.9,344.09q.45,1.26.84,2.43c.16.46.3.84.4,1.16s.21.62.31.94.21.62.3.92.18.56.25.79h0c.07-.23.15-.5.25-.8l.31-.95c.1-.34.22-.68.34-1s.23-.69.35-1q.39-1.17.84-2.43H307l-3.09,8.4H302l-3.06-8.4Z"/><path class="cls-4" d="M315.71,352.49h-1.86l-.67-1.95h-3l-.67,1.95h-1.77l3-8.4h1.93Zm-4-6.43-.09.28-.13.42-.16.5c-.06.18-.12.36-.18.52-.13.42-.28.86-.44,1.34h2l-.45-1.34c-.08-.24-.15-.43-.21-.59s-.1-.31-.14-.45-.09-.28-.13-.4l-.08-.28Z"/><path class="cls-4" d="M318.2,344.09H320V351h3.67v1.5H318.2Z"/><path class="cls-4" d="M329.32,352.66a3.34,3.34,0,0,1-2.56-.87,3.39,3.39,0,0,1-.8-2.4v-5.3h1.8v5.31a2,2,0,0,0,.38,1.27,1.64,1.64,0,0,0,2.36,0,2,2,0,0,0,.38-1.27v-5.31h1.8v5.3a3.39,3.39,0,0,1-.8,2.4A3.34,3.34,0,0,1,329.32,352.66Z"/><path class="cls-4" d="M335.8,352.49v-8.4h5.72v1.49h-3.95v1.84h3.68v1.49h-3.68V351h4v1.49Z"/><path class="cls-4" d="M346,346.3a.8.8,0,0,0,.47.77,5.38,5.38,0,0,0,1.49.4,4.79,4.79,0,0,1,2.2.83,2.09,2.09,0,0,1,.7,1.72,2.3,2.3,0,0,1-.25,1.09,2.43,2.43,0,0,1-.7.83,3.21,3.21,0,0,1-1.08.53,4.84,4.84,0,0,1-1.35.19,4.53,4.53,0,0,1-1.43-.21,3.44,3.44,0,0,1-1.08-.56,2.6,2.6,0,0,1-.7-.82,2.11,2.11,0,0,1-.27-1l1.8-.29a1.5,1.5,0,0,0,.47,1,1.71,1.71,0,0,0,1.21.39,2.91,2.91,0,0,0,.6-.06,1.43,1.43,0,0,0,.49-.19,1.1,1.1,0,0,0,.33-.35.94.94,0,0,0,.12-.49.81.81,0,0,0-.39-.72,3.85,3.85,0,0,0-1.37-.41,9.6,9.6,0,0,1-1.22-.27,3.29,3.29,0,0,1-1-.46,2.1,2.1,0,0,1-.65-.74,2.2,2.2,0,0,1-.23-1.07,2.38,2.38,0,0,1,.24-1.1,2.13,2.13,0,0,1,.67-.79,3,3,0,0,1,1-.47,4.72,4.72,0,0,1,1.28-.16,4.66,4.66,0,0,1,1.21.15,3.55,3.55,0,0,1,1,.44,2.63,2.63,0,0,1,.72.73,2.74,2.74,0,0,1,.4,1l-1.83.4a1.41,1.41,0,0,0-.49-.91,1.56,1.56,0,0,0-1.07-.34,1.72,1.72,0,0,0-1,.25A.82.82,0,0,0,346,346.3Z"/></g></svg>