<svg xmlns="http://www.w3.org/2000/svg" viewBox="0 0 360 360"><defs><style>.cls-1{fill:#f1f2f2;}.cls-2{fill:#0e6e39;}.cls-3{fill:none;stroke:#0e6e39;stroke-miterlimit:10;stroke-width:3px;}.cls-4{fill:#0c6e39;}.cls-5{fill:#fff;}</style></defs><g id="BACKGROUND"><rect class="cls-1" y="-0.6" width="360" height="360"/></g><g id="LINE_ONE" data-name="LINE ONE"><path class="cls-2" d="M112.08,234.16h5.22a8.13,8.13,0,0,1,2.88.47,5.57,5.57,0,0,1,2.16,1.36,5.79,5.79,0,0,1,1.35,2.19,9.68,9.68,0,0,1,0,6,6,6,0,0,1-1.35,2.19,5.82,5.82,0,0,1-2.16,1.36,8.36,8.36,0,0,1-2.88.47h-5.22Zm9,7a6.65,6.65,0,0,0-.23-1.85,3.83,3.83,0,0,0-.7-1.43,3,3,0,0,0-1.19-.92,4.1,4.1,0,0,0-1.72-.32H115.1v9h2.12a4.26,4.26,0,0,0,1.72-.32,3.11,3.11,0,0,0,1.19-.92,3.9,3.9,0,0,0,.7-1.43A6.7,6.7,0,0,0,121.06,241.16Z"/><path class="cls-2" d="M134.38,248.44a5.59,5.59,0,0,1-4.26-1.44,5.67,5.67,0,0,1-1.34-4v-8.84h3V243a3.42,3.42,0,0,0,.64,2.11,2.73,2.73,0,0,0,3.92,0A3.35,3.35,0,0,0,137,243v-8.86h3V243a5.63,5.63,0,0,1-1.34,4A5.56,5.56,0,0,1,134.38,248.44Z"/><path class="cls-2" d="M155.66,238.42a3.94,3.94,0,0,1-2.66,4l3.22,5.74h-3.3l-2.9-5.3h-1.86v5.3h-3v-14h5.12a8.84,8.84,0,0,1,2.21.25,4.53,4.53,0,0,1,1.69.77,3.32,3.32,0,0,1,1.08,1.32A4.33,4.33,0,0,1,155.66,238.42Zm-3.08,0a1.49,1.49,0,0,0-.65-1.41,3.91,3.91,0,0,0-2-.39h-1.8v3.78H150a3.48,3.48,0,0,0,2-.45A1.71,1.71,0,0,0,152.58,238.44Z"/><path class="cls-2" d="M172.86,248.16h-3.1l-1.12-3.24h-5l-1.12,3.24h-2.94l5-14h3.22Zm-6.76-10.72a4.69,4.69,0,0,1-.14.47l-.22.7q-.12.39-.27.84c-.1.3-.19.59-.29.87-.22.69-.47,1.43-.74,2.22h3.38l-.74-2.22-.35-1q-.12-.39-.24-.75c-.07-.24-.14-.47-.21-.67l-.14-.47Z"/><path class="cls-2" d="M177,234.16h6.08a5,5,0,0,1,1.75.28,3.56,3.56,0,0,1,1.3.77,3.16,3.16,0,0,1,.81,1.16,3.64,3.64,0,0,1,.28,1.45A3.41,3.41,0,0,1,187,239a3,3,0,0,1-.47.87,3,3,0,0,1-.66.62,3.71,3.71,0,0,1-.77.39,3.24,3.24,0,0,1,.93.26,2.73,2.73,0,0,1,.87.57,2.55,2.55,0,0,1,.65.93,3.31,3.31,0,0,1,.25,1.38,4.06,4.06,0,0,1-.34,1.67,3.88,3.88,0,0,1-.94,1.32,4.71,4.71,0,0,1-1.42.87,4.93,4.93,0,0,1-1.8.32H177Zm2.92,2.44v3.24H182a2.83,2.83,0,0,0,1.6-.36,1.88,1.88,0,0,0,.07-2.52,2.44,2.44,0,0,0-1.51-.36Zm0,9.12h2.4a3,3,0,0,0,1.93-.45,1.66,1.66,0,0,0,.51-1.31,1.42,1.42,0,0,0-.62-1.37,3.79,3.79,0,0,0-1.86-.35h-2.36Z"/><path class="cls-2" d="M192.5,234.16h3v14h-3Z"/><path class="cls-2" d="M200.78,234.16h3v11.5h6.12v2.5h-9.12Z"/><path class="cls-2" d="M214.1,234.16h3v14h-3Z"/><path class="cls-2" d="M221.32,234.16h11.1v2.5h-4v11.5h-3v-11.5h-4Z"/><path class="cls-2" d="M240.88,242.3l-5.3-8.14H239l3.42,5.36,3.4-5.36h3.34l-5.3,8.14v5.86h-3Z"/></g><g id="LINE_TWO" data-name="LINE TWO"><polyline class="cls-3" points="243.72 132.43 132.58 177.28 116.28 172.9"/><polyline class="cls-3" points="243.72 111.38 132.58 156.24 116.28 151.85"/><line class="cls-3" x1="169.63" y1="120.43" x2="153.33" y2="116.04"/><line class="cls-3" x1="206.28" y1="105.68" x2="189.98" y2="101.29"/><line class="cls-3" x1="132.58" y1="177.28" x2="132.58" y2="198.33"/><line class="cls-3" x1="169.63" y1="161.72" x2="169.63" y2="182.77"/><line class="cls-3" x1="206.67" y1="148.2" x2="206.67" y2="169.25"/><polyline class="cls-3" points="116.28 193.95 132.58 198.33 243.72 153.47 243.72 90.33 132.58 135.19 116.28 130.8"/><line class="cls-3" x1="132.58" y1="156.02" x2="132.58" y2="177.07"/><line class="cls-3" x1="150.18" y1="149.17" x2="150.18" y2="170.22"/><line class="cls-3" x1="226.12" y1="118.23" x2="226.12" y2="139.28"/><line class="cls-3" x1="188.15" y1="133.79" x2="188.15" y2="154.84"/><line class="cls-3" x1="132.58" y1="134.76" x2="132.58" y2="155.81"/><line class="cls-3" x1="169.63" y1="120.43" x2="169.63" y2="141.47"/><line class="cls-3" x1="206.67" y1="105.68" x2="206.67" y2="126.72"/></g><g id="ICON"><rect class="cls-4" y="336.06" width="360" height="23.94"/><path class="cls-5" d="M250.45,352.49v-8.4h5.72v1.49h-4v1.84h3.68v1.49h-3.68V351h4v1.49Z"/><path class="cls-5" d="M259,344.09h1.87l1.39,2.25.65,1.05c.17.28.34.55.5.83l.48.77.39.62h0v-5.52H266v8.4h-1.88l-1.36-2.22-.65-1-.51-.83-.48-.79-.4-.64h0v5.52H259Z"/><path class="cls-5" d="M270.44,344.09q.45,1.26.84,2.43l.4,1.16c.1.31.2.62.31.94l.3.92.25.79h0c.08-.23.16-.5.26-.8s.19-.62.3-.95l.34-1,.35-1,.84-2.43h1.85l-3.1,8.4h-1.83l-3.06-8.4Z"/><path class="cls-5" d="M279,344.09h1.8v8.4H279Z"/><path class="cls-5" d="M290.23,346.64a2.36,2.36,0,0,1-1.6,2.4l1.93,3.45h-2l-1.74-3.18h-1.11v3.18h-1.79v-8.4H287a5.47,5.47,0,0,1,1.33.15,2.84,2.84,0,0,1,1,.46,2.08,2.08,0,0,1,.65.79A2.71,2.71,0,0,1,290.23,346.64Zm-1.85,0a.91.91,0,0,0-.39-.85,2.3,2.3,0,0,0-1.18-.23h-1.08v2.26h1.08a2.08,2.08,0,0,0,1.18-.27A1,1,0,0,0,288.38,346.66Z"/><path class="cls-5" d="M292.9,348.29a5.24,5.24,0,0,1,.3-1.83,3.83,3.83,0,0,1,.83-1.38,3.52,3.52,0,0,1,1.29-.86,4.49,4.49,0,0,1,1.68-.3,4.56,4.56,0,0,1,1.68.3,3.7,3.7,0,0,1,1.29.86,4.13,4.13,0,0,1,.83,1.38,5.92,5.92,0,0,1,0,3.66,4,4,0,0,1-.83,1.37,3.59,3.59,0,0,1-1.29.87,4.56,4.56,0,0,1-1.68.3,4.49,4.49,0,0,1-1.68-.3,3.42,3.42,0,0,1-1.29-.87,3.7,3.7,0,0,1-.83-1.37A5.24,5.24,0,0,1,292.9,348.29Zm1.87,0a4.82,4.82,0,0,0,.13,1.17,2.54,2.54,0,0,0,.42.91,1.88,1.88,0,0,0,.69.59,2.42,2.42,0,0,0,2,0,2,2,0,0,0,.7-.59,2.72,2.72,0,0,0,.41-.91,4.81,4.81,0,0,0,.14-1.17,4.69,4.69,0,0,0-.14-1.17,2.63,2.63,0,0,0-.41-.91,1.89,1.89,0,0,0-.7-.59,2.42,2.42,0,0,0-2,0,1.79,1.79,0,0,0-.69.59,2.47,2.47,0,0,0-.42.91A4.71,4.71,0,0,0,294.77,348.29Z"/><path class="cls-5" d="M303.91,344.09h1.87l1.39,2.25.65,1.05c.17.28.34.55.5.83l.48.77c.16.24.28.45.39.62h0v-5.52h1.71v8.4h-1.87l-1.37-2.22-.64-1c-.18-.28-.35-.55-.51-.83l-.49-.79-.4-.64h0v5.52h-1.7Z"/><path class="cls-5" d="M317.79,352.49q-.18-.5-.45-1.29c-.18-.53-.36-1.09-.56-1.66l-.55-1.7c-.18-.55-.33-1-.44-1.39h0v6H314.1v-8.4h2.52q.51,1.53.93,2.82l.42,1.24c.1.32.21.62.3.91l.25.78c.08.23.13.4.16.5,0-.1.09-.27.16-.5s.15-.51.26-.83.2-.65.32-1,.23-.72.35-1.08c.27-.86.58-1.8.9-2.82h2.51v8.4h-1.66v-6h0l-.29.9c-.11.34-.23.71-.37,1.11s-.26.79-.4,1.19l-.38,1.15-.33,1c-.1.3-.18.53-.25.7Z"/><path class="cls-5" d="M326.35,352.49v-8.4h5.72v1.49h-3.95v1.84h3.68v1.49h-3.68V351h4v1.49Z"/><path class="cls-5" d="M334.92,344.09h1.87l1.39,2.25.65,1.05.5.83.48.77.39.62h0v-5.52h1.71v8.4h-1.88l-1.36-2.22-.65-1-.51-.83-.48-.79-.4-.64h0v5.52h-1.7Z"/><path class="cls-5" d="M344.47,344.09h6.66v1.5H348.7v6.9h-1.81v-6.9h-2.42Z"/></g></svg>