<svg xmlns="http://www.w3.org/2000/svg" viewBox="0 0 360 360"><defs><style>.cls-1{fill:#fff;}.cls-2,.cls-3{fill:none;stroke:#fff;stroke-miterlimit:10;stroke-width:5px;}.cls-3{stroke-linecap:round;}</style></defs><g id="BACKGROUND"><rect x="-1" width="360" height="360"/></g><g id="LINE_ONE" data-name="LINE ONE"><path class="cls-1" d="M122.12,234.16h3v11.5h6.12v2.5h-9.12Z"/><path class="cls-1" d="M135.44,248.16v-14H145v2.48H138.4v3.08h6.12v2.48H138.4v3.48h6.68v2.48Z"/><path class="cls-1" d="M161.88,248.16h-3.1l-1.12-3.24h-5l-1.12,3.24h-2.94l5-14h3.22Zm-6.76-10.72c0,.11-.07.26-.14.47s-.14.44-.22.7-.17.54-.27.84-.2.59-.29.87c-.23.69-.47,1.43-.74,2.22h3.38c-.27-.79-.51-1.53-.74-2.22-.15-.4-.26-.73-.35-1s-.17-.51-.24-.75-.14-.46-.21-.67-.11-.36-.14-.47Z"/><path class="cls-1" d="M176.5,238.42a3.94,3.94,0,0,1-2.66,4l3.22,5.74h-3.3l-2.9-5.3H169v5.3h-3v-14h5.12a8.89,8.89,0,0,1,2.21.25,4.78,4.78,0,0,1,1.69.77,3.46,3.46,0,0,1,1.08,1.32A4.47,4.47,0,0,1,176.5,238.42Zm-3.08,0a1.51,1.51,0,0,0-.65-1.41,3.91,3.91,0,0,0-2-.39H169v3.78h1.8a3.48,3.48,0,0,0,2-.45A1.74,1.74,0,0,0,173.42,238.44Z"/><path class="cls-1" d="M181.54,234.16h3.12l2.32,3.76,1.08,1.75.84,1.37.8,1.29.64,1h.06v-9.2h2.84v14h-3.12l-2.28-3.7-1.07-1.73c-.29-.46-.57-.92-.85-1.38l-.81-1.32c-.26-.42-.48-.78-.67-1.07h-.06v9.2h-2.84Z"/><path class="cls-1" d="M198.52,234.16h3v14h-3Z"/><path class="cls-1" d="M206.8,234.16h3.12l2.32,3.76,1.08,1.75.84,1.37.8,1.29.64,1h.06v-9.2h2.84v14h-3.12l-2.28-3.7L212,242.73c-.29-.46-.57-.92-.85-1.38l-.81-1.32c-.26-.42-.48-.78-.67-1.07h-.06v9.2H206.8Z"/><path class="cls-1" d="M229.5,240.4h6.44v7.76h-2.72v-1.44a3.69,3.69,0,0,1-1.36,1.22,4.83,4.83,0,0,1-2.34.5,6.29,6.29,0,0,1-2.75-.57,5.72,5.72,0,0,1-2-1.55,6.7,6.7,0,0,1-1.19-2.3,9.56,9.56,0,0,1-.4-2.82,9,9,0,0,1,.47-3,6.53,6.53,0,0,1,1.37-2.31,6.18,6.18,0,0,1,2.19-1.51,7.54,7.54,0,0,1,2.93-.54,6.74,6.74,0,0,1,3.62.93,5.74,5.74,0,0,1,2.26,2.75l-2.78,1.14A3.59,3.59,0,0,0,232,237a3.24,3.24,0,0,0-2-.61,3.35,3.35,0,0,0-2.72,1.25,5.72,5.72,0,0,0-1,3.69q0,4.68,3.7,4.68a4,4,0,0,0,1.08-.15,3.2,3.2,0,0,0,1-.46,2.51,2.51,0,0,0,.73-.79,2.24,2.24,0,0,0,.28-1.16v-.64H229.5Z"/></g><g id="LINE_TWO" data-name="LINE TWO"><path class="cls-1" d="M102.71,266V252h9.54v2.48h-6.58v3.07h6.12V260h-6.12v3.47h6.68V266Z"/><path class="cls-1" d="M119.05,252c.49,1.4,1,2.75,1.4,4.05.27.77.49,1.41.66,1.93s.35,1,.52,1.57.34,1,.5,1.53.3.93.42,1.32h0c.12-.39.26-.83.42-1.33l.51-1.59c.18-.56.37-1.14.57-1.72s.39-1.16.58-1.71c.44-1.3.91-2.65,1.4-4.05h3.08L124,266h-3.06l-5.1-14Z"/><path class="cls-1" d="M133.27,266V252h9.54v2.48h-6.58v3.07h6.12V260h-6.12v3.47h6.68V266Z"/><path class="cls-1" d="M158,256.21a4.26,4.26,0,0,1-.71,2.54,4.21,4.21,0,0,1-1.95,1.46l3.22,5.74h-3.3l-2.9-5.3h-1.86V266h-3V252h5.12a8.89,8.89,0,0,1,2.21.25,4.77,4.77,0,0,1,1.69.76,3.42,3.42,0,0,1,1.08,1.33A4.47,4.47,0,0,1,158,256.21Zm-3.08,0a1.5,1.5,0,0,0-.65-1.41,3.91,3.91,0,0,0-2-.39h-1.8v3.78h1.8a3.39,3.39,0,0,0,2-.46A1.7,1.7,0,0,0,155,256.23Z"/><path class="cls-1" d="M166.31,260.08,161,252h3.44l3.42,5.36,3.4-5.36h3.34l-5.3,8.13V266h-3Z"/><path class="cls-1" d="M195.79,252l-3.5,14h-3.48c-.29-1.3-.57-2.53-.84-3.7-.16-.7-.29-1.28-.4-1.75s-.21-.93-.31-1.39-.2-.92-.3-1.34-.18-.8-.25-1.11h-.06c-.07.31-.15.68-.24,1.12s-.2.89-.32,1.38-.24,1-.36,1.54l-.36,1.55c-.28,1.17-.58,2.4-.9,3.7H181l-3.52-14h3c.35,1.49.67,2.91,1,4.26.17.79.32,1.45.44,2s.23,1,.34,1.56l.31,1.48c.1.46.18.85.23,1.18h.06l.25-1.2c.1-.47.21-1,.34-1.52s.26-1.12.4-1.73.28-1.18.41-1.75q.48-2,1-4.26h2.82q.54,2.24,1,4.26c.19.79.34,1.45.47,2s.25,1,.37,1.56.23,1,.33,1.48.18.85.25,1.18h.06l.25-1.2c.1-.47.21-1,.33-1.52s.25-1.12.38-1.73.27-1.18.4-1.75c.32-1.35.65-2.77,1-4.26Z"/><path class="cls-1" d="M199.91,252h3v5.54h5.3V252h3v14h-3V260h-5.3V266h-3Z"/><path class="cls-1" d="M216.49,266V252H226v2.48h-6.58v3.07h6.12V260h-6.12v3.47h6.68V266Z"/><path class="cls-1" d="M241.25,256.21a4.26,4.26,0,0,1-.71,2.54,4.21,4.21,0,0,1-1.95,1.46l3.22,5.74h-3.3l-2.9-5.3h-1.86V266h-3V252h5.12a8.89,8.89,0,0,1,2.21.25,4.77,4.77,0,0,1,1.69.76,3.42,3.42,0,0,1,1.08,1.33A4.47,4.47,0,0,1,241.25,256.21Zm-3.08,0a1.5,1.5,0,0,0-.65-1.41,3.91,3.91,0,0,0-2-.39h-1.8v3.78h1.8a3.39,3.39,0,0,0,2-.46A1.7,1.7,0,0,0,238.17,256.23Z"/><path class="cls-1" d="M246.29,266V252h9.54v2.48h-6.58v3.07h6.12V260h-6.12v3.47h6.68V266Z"/></g><g id="ICON"><circle class="cls-2" cx="180.06" cy="181.65" r="13.94"/><path class="cls-3" d="M140.92,164.6c1.34-1.84,15.19-20.13,39.59-20,24.61.13,38.31,18.89,39.58,20.71"/><path class="cls-3" d="M122.19,146.42c2-2.63,22.34-28.78,58.2-28.6,36.19.19,56.33,27,58.21,29.61"/><path class="cls-3" d="M101,130.73c2.68-3.48,30.34-38,79-37.78,49.15.24,76.5,35.69,79,39.11"/></g></svg>