<svg xmlns="http://www.w3.org/2000/svg" viewBox="0 0 360 360"><defs><style>.cls-1{fill:#f1f2f2;}.cls-2{fill:#ef4a2b;}.cls-3{fill:none;stroke:#ef4a2b;stroke-miterlimit:10;stroke-width:0.71px;}.cls-4{fill:#fff;}</style></defs><g id="BACKGROUND"><rect class="cls-1" x="1.62" y="-0.17" width="360" height="360"/></g><g id="LINE_ONE" data-name="LINE ONE"><path class="cls-2" d="M64.66,234.16h3v14h-3Z"/><path class="cls-2" d="M72.94,234.16h3.12l2.32,3.76c.44.7.8,1.29,1.08,1.75L80.3,241l.8,1.29.64,1h.06v-9.2h2.84v14H81.52l-2.28-3.7-1.07-1.73c-.29-.46-.57-.92-.85-1.38L76.51,240c-.26-.42-.48-.78-.67-1.07h-.06v9.2H72.94Z"/><path class="cls-2" d="M88.86,234.16H100v2.5h-4v11.5h-3v-11.5h-4Z"/><path class="cls-2" d="M104.18,248.16v-14h9.54v2.48h-6.58v3.08h6.12v2.48h-6.12v3.48h6.68v2.48Z"/><path class="cls-2" d="M128.94,238.42a4.26,4.26,0,0,1-.71,2.54,4.21,4.21,0,0,1-1.95,1.46l3.22,5.74h-3.3l-2.9-5.3h-1.86v5.3h-3v-14h5.12a8.89,8.89,0,0,1,2.21.25,4.61,4.61,0,0,1,1.69.77,3.32,3.32,0,0,1,1.08,1.32A4.47,4.47,0,0,1,128.94,238.42Zm-3.08,0a1.51,1.51,0,0,0-.65-1.41,3.91,3.91,0,0,0-2-.39h-1.8v3.78h1.8a3.48,3.48,0,0,0,2-.45A1.74,1.74,0,0,0,125.86,238.44Z"/><path class="cls-2" d="M134,234.16h5.22a8.13,8.13,0,0,1,2.88.47,5.73,5.73,0,0,1,2.16,1.36,5.79,5.79,0,0,1,1.35,2.19,9.68,9.68,0,0,1,0,6,5.66,5.66,0,0,1-3.51,3.55,8.36,8.36,0,0,1-2.88.47H134Zm9,7a7,7,0,0,0-.23-1.85,4,4,0,0,0-.7-1.43,3,3,0,0,0-1.19-.92,4.1,4.1,0,0,0-1.72-.32H137v9h2.12a4.26,4.26,0,0,0,1.72-.32,3.11,3.11,0,0,0,1.19-.92,4.07,4.07,0,0,0,.7-1.43A7.1,7.1,0,0,0,143,241.16Z"/><path class="cls-2" d="M150.76,234.16h3v14h-3Z"/><path class="cls-2" d="M161.76,237.84a1.34,1.34,0,0,0,.78,1.29,9.48,9.48,0,0,0,2.48.67,7.86,7.86,0,0,1,3.67,1.38,3.48,3.48,0,0,1,1.17,2.86,3.92,3.92,0,0,1-.42,1.83,4.07,4.07,0,0,1-1.17,1.38,5.65,5.65,0,0,1-1.79.88,8.12,8.12,0,0,1-2.26.31,7.68,7.68,0,0,1-2.38-.35,6.1,6.1,0,0,1-1.8-.93,4.41,4.41,0,0,1-1.16-1.36,3.81,3.81,0,0,1-.46-1.62l3-.48a2.58,2.58,0,0,0,.79,1.67,2.84,2.84,0,0,0,2,.65,5.32,5.32,0,0,0,1-.1,2.52,2.52,0,0,0,.82-.33,1.86,1.86,0,0,0,.55-.57,1.63,1.63,0,0,0,.2-.82,1.35,1.35,0,0,0-.65-1.2,6.31,6.31,0,0,0-2.29-.68,18.1,18.1,0,0,1-2-.46,5.72,5.72,0,0,1-1.63-.77,3.6,3.6,0,0,1-1.08-1.22,3.79,3.79,0,0,1-.39-1.79,3.93,3.93,0,0,1,.4-1.84,3.72,3.72,0,0,1,1.12-1.31,4.84,4.84,0,0,1,1.7-.79,8,8,0,0,1,2.14-.26,7.71,7.71,0,0,1,2,.25,5.28,5.28,0,0,1,1.67.74,4.23,4.23,0,0,1,1.21,1.21,4.42,4.42,0,0,1,.66,1.64l-3,.66a2.45,2.45,0,0,0-.82-1.52,2.62,2.62,0,0,0-1.78-.56,2.78,2.78,0,0,0-1.69.42A1.33,1.33,0,0,0,161.76,237.84Z"/><path class="cls-2" d="M173.94,241.16a9.12,9.12,0,0,1,.48-3.07,6.39,6.39,0,0,1,1.37-2.29,5.64,5.64,0,0,1,2.16-1.43,7.82,7.82,0,0,1,2.85-.49,6.75,6.75,0,0,1,3.76,1,5.32,5.32,0,0,1,2.16,3l-2.92,1a3.92,3.92,0,0,0-1.08-1.83,2.82,2.82,0,0,0-2-.65,3.51,3.51,0,0,0-1.62.36,3.26,3.26,0,0,0-1.16,1,4.28,4.28,0,0,0-.69,1.51,8.09,8.09,0,0,0,0,3.83,4.45,4.45,0,0,0,.69,1.51,3.29,3.29,0,0,0,1.16,1,3.54,3.54,0,0,0,1.64.36,3,3,0,0,0,1.89-.58,3.57,3.57,0,0,0,1.11-1.76l2.88,1a6.07,6.07,0,0,1-2.16,2.8,6.42,6.42,0,0,1-3.76,1,7.7,7.7,0,0,1-2.79-.49,5.94,5.94,0,0,1-2.14-1.42,6.39,6.39,0,0,1-1.37-2.29A9.26,9.26,0,0,1,173.94,241.16Z"/><path class="cls-2" d="M191.12,234.16h3v14h-3Z"/><path class="cls-2" d="M202.38,243.24v4.92h-3v-14h5.32a8.93,8.93,0,0,1,2.28.26,4.81,4.81,0,0,1,1.74.8,3.7,3.7,0,0,1,1.12,1.38,4.61,4.61,0,0,1,.4,2,4.87,4.87,0,0,1-.41,2.07,3.85,3.85,0,0,1-1.14,1.44A4.83,4.83,0,0,1,207,243a8.76,8.76,0,0,1-2.24.27Zm4.82-4.62a1.68,1.68,0,0,0-.69-1.56,4.11,4.11,0,0,0-2.09-.42h-2v4.12h2a3.6,3.6,0,0,0,2.09-.5A1.9,1.9,0,0,0,207.2,238.62Z"/><path class="cls-2" d="M214.66,234.16h3v11.5h6.12v2.5h-9.12Z"/><path class="cls-2" d="M228,234.16h3v14h-3Z"/><path class="cls-2" d="M236.26,234.16h3.12l2.32,3.76c.44.7.8,1.29,1.08,1.75l.84,1.37.8,1.29.64,1h.06v-9.2H248v14h-3.12l-2.28-3.7-1.07-1.73c-.29-.46-.57-.92-.85-1.38l-.81-1.32c-.26-.42-.48-.78-.67-1.07h-.06v9.2h-2.84Z"/><path class="cls-2" d="M265.4,248.16h-3.1l-1.12-3.24h-5L255,248.16H252.1l5-14h3.22Zm-6.76-10.72c0,.1-.07.26-.14.47s-.14.44-.22.7-.17.54-.27.84-.2.59-.29.87c-.23.69-.47,1.43-.74,2.22h3.38c-.27-.79-.51-1.53-.74-2.22-.15-.4-.26-.73-.35-1s-.17-.51-.24-.75-.14-.47-.21-.67-.11-.37-.14-.47Z"/><path class="cls-2" d="M280,238.42a4.26,4.26,0,0,1-.71,2.54,4.21,4.21,0,0,1-1.95,1.46l3.22,5.74h-3.3l-2.9-5.3h-1.86v5.3h-3v-14h5.12a8.89,8.89,0,0,1,2.21.25,4.61,4.61,0,0,1,1.69.77,3.32,3.32,0,0,1,1.08,1.32A4.47,4.47,0,0,1,280,238.42Zm-3.08,0a1.51,1.51,0,0,0-.65-1.41,3.91,3.91,0,0,0-2-.39h-1.8v3.78h1.8a3.48,3.48,0,0,0,2-.45A1.74,1.74,0,0,0,276.94,238.44Z"/><path class="cls-2" d="M288.3,242.3l-5.3-8.14h3.44l3.42,5.36,3.4-5.36h3.34l-5.3,8.14v5.86h-3Z"/></g><g id="LINE_TWO" data-name="LINE TWO"><path class="cls-2" d="M114.66,265.94v-14h9.54v2.48h-6.58v3.08h6.12V260h-6.12v3.48h6.68v2.48Z"/><path class="cls-2" d="M128.94,251.94h5.22a8.36,8.36,0,0,1,2.88.47,5.66,5.66,0,0,1,3.51,3.55,9.68,9.68,0,0,1,0,6,5.79,5.79,0,0,1-1.35,2.19,5.73,5.73,0,0,1-2.16,1.36,8.13,8.13,0,0,1-2.88.47h-5.22Zm9,7a7.1,7.1,0,0,0-.23-1.85,4.07,4.07,0,0,0-.7-1.43,3.11,3.11,0,0,0-1.19-.92,4.26,4.26,0,0,0-1.72-.32H132v9h2.12a4.1,4.1,0,0,0,1.72-.32,3,3,0,0,0,1.19-.92,4,4,0,0,0,.7-1.43A7,7,0,0,0,137.92,258.94Z"/><path class="cls-2" d="M151.24,266.22a5.56,5.56,0,0,1-4.26-1.44,5.65,5.65,0,0,1-1.34-4v-8.84h3v8.86a3.32,3.32,0,0,0,.64,2.11,2.73,2.73,0,0,0,3.92,0,3.32,3.32,0,0,0,.64-2.11v-8.86h3v8.84a5.65,5.65,0,0,1-1.34,4A5.56,5.56,0,0,1,151.24,266.22Z"/><path class="cls-2" d="M161.46,258.94a9.16,9.16,0,0,1,.48-3.07,6.47,6.47,0,0,1,1.37-2.29,5.88,5.88,0,0,1,2.16-1.43,8,8,0,0,1,2.85-.49,6.83,6.83,0,0,1,3.76,1,5.39,5.39,0,0,1,2.16,3l-2.92,1a4,4,0,0,0-1.08-1.83,2.86,2.86,0,0,0-2-.65,3.51,3.51,0,0,0-1.62.36,3.26,3.26,0,0,0-1.16,1,4.37,4.37,0,0,0-.69,1.51,7.77,7.77,0,0,0-.23,1.92,7.57,7.57,0,0,0,.23,1.91,4.37,4.37,0,0,0,.69,1.51,3.19,3.19,0,0,0,1.16,1,3.54,3.54,0,0,0,1.64.36,2.94,2.94,0,0,0,1.89-.58,3.48,3.48,0,0,0,1.11-1.76l2.88,1a6,6,0,0,1-2.16,2.8,6.42,6.42,0,0,1-3.76,1,7.5,7.5,0,0,1-2.79-.49,5.82,5.82,0,0,1-2.14-1.42,6.3,6.3,0,0,1-1.37-2.29A9.18,9.18,0,0,1,161.46,258.94Z"/><path class="cls-2" d="M190.8,265.94h-3.1l-1.12-3.24h-5l-1.12,3.24H177.5l5-14h3.22ZM184,255.22c0,.11-.07.27-.14.47s-.14.44-.22.7-.17.54-.27.84l-.29.87c-.23.7-.47,1.44-.74,2.22h3.38c-.27-.78-.51-1.52-.74-2.22-.15-.4-.26-.73-.35-1s-.17-.51-.24-.75-.14-.46-.21-.67-.11-.36-.14-.47Z"/><path class="cls-2" d="M192.28,251.94h11.1v2.5h-4v11.5h-3v-11.5h-4Z"/><path class="cls-2" d="M207.6,251.94h3v14h-3Z"/><path class="cls-2" d="M215.3,258.94a8.83,8.83,0,0,1,.49-3.05,6.64,6.64,0,0,1,1.38-2.29,6.07,6.07,0,0,1,2.15-1.44,8.09,8.09,0,0,1,5.6,0,6.07,6.07,0,0,1,2.15,1.44,6.64,6.64,0,0,1,1.38,2.29,9.74,9.74,0,0,1,0,6.1,6.55,6.55,0,0,1-1.38,2.29,5.82,5.82,0,0,1-2.15,1.44,8.09,8.09,0,0,1-5.6,0,5.82,5.82,0,0,1-2.15-1.44,6.55,6.55,0,0,1-1.38-2.29A8.79,8.79,0,0,1,215.3,258.94Zm3.1,0a7.9,7.9,0,0,0,.23,1.95,4.25,4.25,0,0,0,.69,1.52,3.14,3.14,0,0,0,1.16,1,4,4,0,0,0,3.28,0,3.14,3.14,0,0,0,1.16-1,4.25,4.25,0,0,0,.69-1.52,7.9,7.9,0,0,0,.23-1.95,8,8,0,0,0-.23-1.95,4.33,4.33,0,0,0-.69-1.52,3.24,3.24,0,0,0-1.16-1,4,4,0,0,0-3.28,0,3.24,3.24,0,0,0-1.16,1,4.33,4.33,0,0,0-.69,1.52A8,8,0,0,0,218.4,258.94Z"/><path class="cls-2" d="M233.64,251.94h3.12l2.32,3.76,1.08,1.75.84,1.37.8,1.29.64,1h.06v-9.2h2.84v14h-3.12c-.8-1.29-1.56-2.52-2.28-3.7l-1.07-1.73c-.29-.46-.57-.92-.85-1.38l-.81-1.32-.67-1.07h-.06v9.2h-2.84Z"/></g><g id="ICON"><path class="cls-2" d="M154.44,198.7a22,22,0,0,1-2.78-1.29,6.89,6.89,0,0,1-1.94-9.12,7,7,0,0,1,11-1.22,6.6,6.6,0,0,1,1.76,3.72,6.84,6.84,0,0,1-1.93,5.92,6.07,6.07,0,0,1-3.58,1.87s-.1.08-.16.12Z"/><path class="cls-2" d="M240.2,142.33c-.07.29-.15.57-.22.86a6.64,6.64,0,0,1-4.79,5.16,6.8,6.8,0,0,1-7.38-2.4,6.7,6.7,0,0,1-1.5-4.19,6.91,6.91,0,0,1,13.76-.94c0,.08.09.15.13.23Z"/><path class="cls-3" d="M180.75,124c.28-1.78.55-3.45.81-5.13l.78-4.8c.22-1.38.43-2.76.64-4.13s.4-2.66.66-4a7.7,7.7,0,0,0-2-7.16,6.56,6.56,0,0,0-5.19-2.19,57.08,57.08,0,0,0-6.11.68c-2.15.36-4.25,1-6.38,1.39-2.47.47-4.17-1.06-4.13-3.15a3.16,3.16,0,0,1,2.8-3.19c1.65-.37,3.31-.73,5-1a20.67,20.67,0,0,1,2.83-.37,49.63,49.63,0,0,1,5.45-.12c2.18.14,4.35.47,6.52.82a38.62,38.62,0,0,1,10.65,3.51,22.27,22.27,0,0,1,2.15,1.16,1,1,0,0,1,.35.72,8.38,8.38,0,0,0,2.55,6,7.48,7.48,0,0,0,6,2.48,4.37,4.37,0,0,1,3.5,1.5c1.36,1.24,2.75,2.44,4,3.77a45.71,45.71,0,0,1,6,7.61,5.18,5.18,0,0,1-2.1,7.3c-2,.91-4,1.64-6.07,2.43-3.09,1.2-6.2,2.34-9.28,3.57a3,3,0,0,1-4.4-2.52,2.78,2.78,0,0,1,1.78-2.93l11.29-4.36c1.34-.52,1.88-1.18,1.7-2.44a4.06,4.06,0,0,0-.84-1.62c-.47-.64-1-1.22-1.63-1.91l-15,12.9A20.91,20.91,0,0,0,180.75,124Z"/><path class="cls-3" d="M190.52,183c-.19-1.1-.39-2.22-.59-3.33-.37-2-.75-4.05-1.13-6.08q-.5-2.65-1-5.32c-.28-1.43-.55-2.86-.83-4.29-.1-.51.29-.6.63-.78,1.43-.77,2.89-1.48,4.25-2.37a17.61,17.61,0,0,0,5.1-5.25c.2-.31.32-.39.64-.13,2.91,2.36,5.83,4.7,8.75,7.06,2,1.61,3.95,3.25,6,4.82a7.14,7.14,0,0,0,3.7,1.46,7.24,7.24,0,0,0,5-1.31,7,7,0,0,0,2.6-3.15q1.62-4,3.15-8.15c.38-1,.67-2.11,1-3.18a3.09,3.09,0,0,1,3.45-2.1,2.9,2.9,0,0,1,2.62,3.08,27.81,27.81,0,0,1-1.19,4.84A39.52,39.52,0,0,1,226,170.94a47.37,47.37,0,0,1-4.14,4.69,37.53,37.53,0,0,1-8,6,.79.79,0,0,1-.65-.05,8.48,8.48,0,0,0-4.11-1.17,8.72,8.72,0,0,0-4.6,1.22,8.54,8.54,0,0,0-3.54,3.95,1.51,1.51,0,0,1-.92.84,56.86,56.86,0,0,1-10.14,2.87c-1.74.33-3.53.34-5.28.64a5.16,5.16,0,0,1-3.81-.71,5.49,5.49,0,0,1-2.36-6.08c.31-1.43.45-2.89.68-4.33.2-1.26.42-2.52.62-3.78.23-1.42.42-2.85.66-4.26a36.58,36.58,0,0,1,.72-3.61,2.95,2.95,0,0,1,5.62.62,16.54,16.54,0,0,1-.31,3.49c-.22,1.65-.52,3.3-.78,5-.22,1.35-.39,2.71-.67,4s0,2.48,1.16,3.06a3.93,3.93,0,0,0,1.91.12C188.86,183.37,189.63,183.15,190.52,183Z"/><path class="cls-3" d="M141.29,134.18,160,140.74A20.54,20.54,0,0,0,162,153.86c-1.08.43-2.11.84-3.14,1.23l-11.64,4.45a33.32,33.32,0,0,0-4,1.7,7.16,7.16,0,0,0-3.72,5.51c-.38,2.58.78,4.57,2.2,6.52a62.3,62.3,0,0,0,6.47,7.49c1.58,1.56,1.68,2.91.59,4.55a3.12,3.12,0,0,1-4.54.54,43.11,43.11,0,0,1-7.55-9.45,38.36,38.36,0,0,1-4-9,67.58,67.58,0,0,1-1.54-7c-.28-1.67-.3-3.39-.45-5.09a.65.65,0,0,1,.4-.7,8.55,8.55,0,0,0,4.26-8.59,6.37,6.37,0,0,0-1.37-3.66c-.75-.87-.45-1.78-.26-2.66.46-2.15.9-4.31,1.54-6.41s1.5-4.23,2.31-6.33a23.39,23.39,0,0,1,1.14-2.3,5.25,5.25,0,0,1,7.81-1.42l5.09,4.09c1.67,1.35,3.35,2.69,5,4,1,.78,1.94,1.55,2.83,2.41a2.65,2.65,0,0,1,.67,2.7,2.94,2.94,0,0,1-2.17,2.23c-1.44.41-2.42-.41-3.42-1.22-1.64-1.33-3.29-2.63-4.93-3.95-1.27-1-2.57-2-3.8-3.1a2.21,2.21,0,0,0-3.58,1C141.92,132.28,141.61,133.22,141.29,134.18Z"/><path class="cls-2" d="M169.45,105.7c.27,1.47.53,2.84.78,4.2.37,2,.73,4,1.11,6s.78,4.14,1.18,6.21c.16.84.34,1.68.51,2.52.09.43-.08.67-.51.83a18.29,18.29,0,0,0-6.08,3.72,29.11,29.11,0,0,0-3.3,3.85c-.34.44-.49.46-.89.13-1.93-1.58-3.88-3.12-5.81-4.69s-3.66-3.05-5.53-4.51a27.64,27.64,0,0,0-4.65-3.43,7.5,7.5,0,0,0-8.79,2.14,22.42,22.42,0,0,0-2.74,5.66c-.87,2.36-1.52,4.8-2.32,7.18a3,3,0,0,1-2.65,2.24c-1.85.08-3.11-.65-3.49-2.16a4.93,4.93,0,0,1,.09-2.35,43.2,43.2,0,0,1,12.71-21,42.13,42.13,0,0,1,6.82-5.06,1.08,1.08,0,0,1,1,0,8.11,8.11,0,0,0,4.61,1.07,8.53,8.53,0,0,0,6.81-3.81,4.2,4.2,0,0,0,.66-1.21,1.56,1.56,0,0,1,1.23-1c3-.89,5.92-1.88,8.94-2.57a28.7,28.7,0,0,1,7.78-.89,5.12,5.12,0,0,1,4.69,4.4,14.65,14.65,0,0,1-.4,4.33c-.28,1.65-.49,3.31-.75,5-.46,2.91-.92,5.82-1.43,8.72a2.86,2.86,0,0,1-3.37,2.13,2.75,2.75,0,0,1-2.41-2.51,22.17,22.17,0,0,1,.29-3.35c.24-1.73.55-3.44.82-5.16.25-1.54.46-3.08.73-4.61a2.09,2.09,0,0,0-2-2.51A31,31,0,0,0,169.45,105.7Z"/><path class="cls-2" d="M151.82,172.8c1.56-1.34,3-2.63,4.53-3.9,1.82-1.55,3.65-3.07,5.46-4.62,1.19-1,2.36-2.07,3.54-3.11.41-.36.79-.74,1.23-1.06a.63.63,0,0,1,.58,0,20.59,20.59,0,0,0,8.69,4.17,22.93,22.93,0,0,0,2.49.34c.3,0,.59.1.89.15-.46,3-.9,5.9-1.37,8.82s-1,5.58-1.39,8.38a9.81,9.81,0,0,0,.11,5.1,7.52,7.52,0,0,0,4.75,4.68,9.77,9.77,0,0,0,4.83.15c1.63-.24,3.27-.44,4.9-.74s3-.6,4.46-1a3.51,3.51,0,0,1,3.48.53,2.92,2.92,0,0,1,1.11,2.8,3,3,0,0,1-2.25,2.66,59.17,59.17,0,0,1-6.39,1.38,48.66,48.66,0,0,1-7,.29,59.66,59.66,0,0,1-6.39-.67,38.68,38.68,0,0,1-11.64-3.84c-.67-.32-1.32-.7-2-1.07a8.31,8.31,0,0,0-1-4.54,8.4,8.4,0,0,0-6.35-4.46c-.84-.11-1.71,0-2.56,0a1.23,1.23,0,0,1-.62-.27,54.53,54.53,0,0,1-7.61-7.35,43.63,43.63,0,0,1-4.11-5.7,4.87,4.87,0,0,1,.72-5.64,6.89,6.89,0,0,1,3-1.88q6.73-2.6,13.47-5.19a4,4,0,0,1,2.77-.35,3.11,3.11,0,0,1,2.05,2.53,2.91,2.91,0,0,1-1.82,3.15l-11.16,4.28c-1.93.74-2.34,2.23-1.05,3.91C150.61,171.41,151.22,172.09,151.82,172.8Z"/><path class="cls-2" d="M198,134.83l3.07-1.17c4.09-1.58,8.18-3.14,12.27-4.73a14.86,14.86,0,0,0,4.55-2.2,7.14,7.14,0,0,0,2.59-4.92,7.39,7.39,0,0,0-1.16-4.88,35,35,0,0,0-2.61-3.53c-1.74-2-3.59-4-5.36-6a3.15,3.15,0,0,1,.2-4.41,3.26,3.26,0,0,1,4.34-.11A45.77,45.77,0,0,1,223.7,113a41.08,41.08,0,0,1,4.17,10.43c.49,2.09.79,4.24,1.1,6.37a33.9,33.9,0,0,1,.27,3.63,1,1,0,0,1-.42.75,8.5,8.5,0,0,0-4.2,6.2,8.26,8.26,0,0,0,1.52,6.38,1.64,1.64,0,0,1,.27,1.36,56.36,56.36,0,0,1-4.66,15.15,5.5,5.5,0,0,1-4.82,3.47,5.26,5.26,0,0,1-3.71-1.32l-6.49-5.23c-1.62-1.31-3.22-2.64-4.83-4a9.15,9.15,0,0,0-.92-.75,3.06,3.06,0,0,1-.75-4.15,3,3,0,0,1,4.21-.76c1.25.9,2.42,1.91,3.61,2.88,2,1.65,4.06,3.32,6.1,5,1.37,1.1,2.95.56,3.61-1.15.28-.71.47-1.46.75-2.16.18-.44.07-.55-.35-.69-3.46-1.2-6.91-2.44-10.37-3.66-2.44-.86-4.89-1.72-7.34-2.56a.55.55,0,0,1-.41-.74,17.83,17.83,0,0,0,0-6.14A22.24,22.24,0,0,0,198,134.83Z"/><path class="cls-3" d="M119.8,147a6.92,6.92,0,0,1,6.92-6.93A6.93,6.93,0,1,1,119.8,147Z"/><path class="cls-3" d="M209,182.23a6.93,6.93,0,1,1-7,6.74A6.86,6.86,0,0,1,209,182.23Z"/><path class="cls-2" d="M158,99.5a6.93,6.93,0,1,1-6.92-6.85A6.87,6.87,0,0,1,158,99.5Z"/><path class="cls-3" d="M197.47,96.88a6.88,6.88,0,1,1,13.75.3,6.88,6.88,0,0,1-13.75-.3Z"/><rect class="cls-2" y="336.06" width="360" height="23.94"/><path class="cls-4" d="M265.76,352.49v-8.4h5.72v1.49h-4v1.84h3.68v1.49h-3.68V351h4v1.49Z"/><path class="cls-4" d="M278.79,348.08l3.11,4.41h-2.16l-2-2.92-2.06,2.92h-2l3.08-4.32-2.84-4.08H276l1.77,2.59,1.82-2.59h2Z"/><path class="cls-4" d="M286.16,349.54v2.95h-1.79v-8.4h3.19a5.75,5.75,0,0,1,1.37.15,3,3,0,0,1,1,.48,2.29,2.29,0,0,1,.68.83,2.81,2.81,0,0,1,.24,1.21,3,3,0,0,1-.25,1.25,2.39,2.39,0,0,1-.68.86,2.84,2.84,0,0,1-1,.5,5.2,5.2,0,0,1-1.35.17Zm2.89-2.78a1,1,0,0,0-.41-.93,2.48,2.48,0,0,0-1.26-.25h-1.22v2.47h1.22a2.17,2.17,0,0,0,1.26-.3A1.15,1.15,0,0,0,289.05,346.76Z"/><path class="cls-4" d="M293.53,352.49v-8.4h5.72v1.49H295.3v1.84H299v1.49H295.3V351h4v1.49Z"/><path class="cls-4" d="M308.38,346.64a2.36,2.36,0,0,1-1.6,2.4l1.94,3.45h-2L305,349.31h-1.12v3.18h-1.79v-8.4h3.07a5.41,5.41,0,0,1,1.33.15,2.81,2.81,0,0,1,1,.46,2.15,2.15,0,0,1,.64.79A2.57,2.57,0,0,1,308.38,346.64Zm-1.85,0a.91.91,0,0,0-.39-.85,2.3,2.3,0,0,0-1.18-.23h-1.08v2.26H305a2.08,2.08,0,0,0,1.18-.27A1,1,0,0,0,306.53,346.66Z"/><path class="cls-4" d="M311.41,344.09h1.8v8.4h-1.8Z"/><path class="cls-4" d="M316.37,352.49v-8.4h5.73v1.49h-4v1.84h3.67v1.49h-3.67V351h4v1.49Z"/><path class="cls-4" d="M324.94,344.09h1.87l1.4,2.25.64,1.05.51.83.48.77.38.62h0v-5.52H332v8.4h-1.87l-1.37-2.22c-.25-.42-.47-.76-.64-1l-.51-.83-.49-.79c-.15-.25-.29-.47-.4-.64h0v5.52h-1.71Z"/><path class="cls-4" d="M334.78,348.29a5.51,5.51,0,0,1,.29-1.84,3.81,3.81,0,0,1,.82-1.38,3.65,3.65,0,0,1,1.3-.86,4.87,4.87,0,0,1,1.71-.29,4.07,4.07,0,0,1,2.25.59,3.21,3.21,0,0,1,1.3,1.79l-1.75.61a2.43,2.43,0,0,0-.65-1.1,1.72,1.72,0,0,0-1.19-.39,2,2,0,0,0-1.67.81,2.63,2.63,0,0,0-.41.91,4.59,4.59,0,0,0-.14,1.15,4.51,4.51,0,0,0,.14,1.14,2.81,2.81,0,0,0,.41.91,1.92,1.92,0,0,0,.7.6,2.18,2.18,0,0,0,1,.22,1.78,1.78,0,0,0,1.14-.35,2.15,2.15,0,0,0,.66-1.06l1.73.61a3.53,3.53,0,0,1-1.29,1.68,3.87,3.87,0,0,1-2.26.62,4.44,4.44,0,0,1-1.67-.3,3.54,3.54,0,0,1-1.29-.85,3.69,3.69,0,0,1-.82-1.37A5.61,5.61,0,0,1,334.78,348.29Z"/><path class="cls-4" d="M345.09,352.49v-8.4h5.72v1.49h-3.95v1.84h3.68v1.49h-3.68V351h4v1.49Z"/></g></svg>