<svg xmlns="http://www.w3.org/2000/svg" viewBox="0 0 360 360"><defs><style>.cls-1{fill:#f1f2f2;}.cls-2{fill:#d2bf2d;}.cls-3{fill:none;stroke:#d2bf2d;stroke-linecap:round;stroke-miterlimit:10;stroke-width:3.32px;}.cls-4{fill:#fff;}</style></defs><g id="BACKGROUND"><rect class="cls-1" x="0.21" width="360" height="360"/></g><g id="LINE_ONE" data-name="LINE ONE"><path class="cls-2" d="M96.08,241.16a9.12,9.12,0,0,1,.48-3.07,6.39,6.39,0,0,1,1.37-2.29,5.64,5.64,0,0,1,2.16-1.43,7.82,7.82,0,0,1,2.85-.49,6.75,6.75,0,0,1,3.76,1,5.32,5.32,0,0,1,2.16,3l-2.92,1a3.92,3.92,0,0,0-1.08-1.83,2.82,2.82,0,0,0-2-.65,3.51,3.51,0,0,0-1.62.36,3.26,3.26,0,0,0-1.16,1,4.28,4.28,0,0,0-.69,1.51,8.09,8.09,0,0,0,0,3.83,4.45,4.45,0,0,0,.69,1.51,3.29,3.29,0,0,0,1.16,1,3.54,3.54,0,0,0,1.64.36,3,3,0,0,0,1.89-.58,3.57,3.57,0,0,0,1.11-1.76l2.88,1a6.07,6.07,0,0,1-2.16,2.8,6.42,6.42,0,0,1-3.76,1,7.7,7.7,0,0,1-2.79-.49,5.94,5.94,0,0,1-2.14-1.42,6.3,6.3,0,0,1-1.37-2.29A9.26,9.26,0,0,1,96.08,241.16Z"/><path class="cls-2" d="M112.68,241.16a8.79,8.79,0,0,1,.49-3,6.55,6.55,0,0,1,1.38-2.29,5.82,5.82,0,0,1,2.15-1.44,8.09,8.09,0,0,1,5.6,0,5.82,5.82,0,0,1,2.15,1.44,6.55,6.55,0,0,1,1.38,2.29,9.74,9.74,0,0,1,0,6.1,6.64,6.64,0,0,1-1.38,2.29,5.94,5.94,0,0,1-2.15,1.44,8.09,8.09,0,0,1-5.6,0,5.94,5.94,0,0,1-2.15-1.44,6.64,6.64,0,0,1-1.38-2.29A8.83,8.83,0,0,1,112.68,241.16Zm3.1,0a8,8,0,0,0,.23,2,4.33,4.33,0,0,0,.69,1.52,3.24,3.24,0,0,0,1.16,1,4,4,0,0,0,3.28,0,3.24,3.24,0,0,0,1.16-1,4.33,4.33,0,0,0,.69-1.52,8,8,0,0,0,.23-2,7.9,7.9,0,0,0-.23-1.95,4.25,4.25,0,0,0-.69-1.52,3.14,3.14,0,0,0-1.16-1,4,4,0,0,0-3.28,0,3.14,3.14,0,0,0-1.16,1,4.25,4.25,0,0,0-.69,1.52A7.9,7.9,0,0,0,115.78,241.16Z"/><path class="cls-2" d="M131,234.16h3.12l2.32,3.76c.44.7.8,1.29,1.08,1.75l.84,1.37.8,1.29.64,1h.06v-9.2h2.84v14H139.6l-2.28-3.7-1.07-1.73c-.29-.46-.57-.92-.85-1.38l-.81-1.32c-.26-.42-.48-.78-.67-1.07h-.06v9.2H131Z"/><path class="cls-2" d="M148,234.16h3.12l2.32,3.76c.44.7.8,1.29,1.08,1.75l.84,1.37.8,1.29.64,1h.06v-9.2h2.84v14h-3.12l-2.28-3.7-1.07-1.73c-.29-.46-.57-.92-.85-1.38l-.81-1.32c-.26-.42-.48-.78-.67-1.07h-.06v9.2H148Z"/><path class="cls-2" d="M165,248.16v-14h9.54v2.48h-6.58v3.08h6.12v2.48h-6.12v3.48h6.68v2.48Z"/><path class="cls-2" d="M178.68,241.16a9.12,9.12,0,0,1,.48-3.07,6.39,6.39,0,0,1,1.37-2.29,5.64,5.64,0,0,1,2.16-1.43,7.82,7.82,0,0,1,2.85-.49,6.75,6.75,0,0,1,3.76,1,5.32,5.32,0,0,1,2.16,3l-2.92,1a3.92,3.92,0,0,0-1.08-1.83,2.82,2.82,0,0,0-2-.65,3.51,3.51,0,0,0-1.62.36,3.26,3.26,0,0,0-1.16,1,4.28,4.28,0,0,0-.69,1.51,8.09,8.09,0,0,0,0,3.83,4.45,4.45,0,0,0,.69,1.51,3.29,3.29,0,0,0,1.16,1,3.54,3.54,0,0,0,1.64.36,3,3,0,0,0,1.89-.58,3.57,3.57,0,0,0,1.11-1.76l2.88,1a6.07,6.07,0,0,1-2.16,2.8,6.42,6.42,0,0,1-3.76,1,7.7,7.7,0,0,1-2.79-.49,5.94,5.94,0,0,1-2.14-1.42,6.3,6.3,0,0,1-1.37-2.29A9.26,9.26,0,0,1,178.68,241.16Z"/><path class="cls-2" d="M194.8,234.16h11.1v2.5h-4v11.5h-3v-11.5h-4Z"/><path class="cls-2" d="M210.12,234.16h3v14h-3Z"/><path class="cls-2" d="M217.82,241.16a8.79,8.79,0,0,1,.49-3,6.55,6.55,0,0,1,1.38-2.29,5.82,5.82,0,0,1,2.15-1.44,8.09,8.09,0,0,1,5.6,0,5.82,5.82,0,0,1,2.15,1.44,6.55,6.55,0,0,1,1.38,2.29,9.74,9.74,0,0,1,0,6.1,6.64,6.64,0,0,1-1.38,2.29,5.94,5.94,0,0,1-2.15,1.44,8.09,8.09,0,0,1-5.6,0,5.94,5.94,0,0,1-2.15-1.44,6.64,6.64,0,0,1-1.38-2.29A8.83,8.83,0,0,1,217.82,241.16Zm3.1,0a8,8,0,0,0,.23,2,4.33,4.33,0,0,0,.69,1.52,3.24,3.24,0,0,0,1.16,1,4,4,0,0,0,3.28,0,3.24,3.24,0,0,0,1.16-1,4.33,4.33,0,0,0,.69-1.52,8,8,0,0,0,.23-2,7.9,7.9,0,0,0-.23-1.95,4.25,4.25,0,0,0-.69-1.52,3.14,3.14,0,0,0-1.16-1,4,4,0,0,0-3.28,0,3.14,3.14,0,0,0-1.16,1,4.25,4.25,0,0,0-.69,1.52A7.9,7.9,0,0,0,220.92,241.16Z"/><path class="cls-2" d="M236.16,234.16h3.12l2.32,3.76c.44.7.8,1.29,1.08,1.75l.84,1.37.8,1.29.64,1H245v-9.2h2.84v14h-3.12l-2.28-3.7-1.07-1.73c-.29-.46-.57-.92-.85-1.38l-.81-1.32-.67-1.07H239v9.2h-2.84Z"/><path class="cls-2" d="M255.86,237.84a1.34,1.34,0,0,0,.78,1.29,9.36,9.36,0,0,0,2.48.67,7.86,7.86,0,0,1,3.67,1.38A3.48,3.48,0,0,1,264,244a3.92,3.92,0,0,1-.42,1.83,4.07,4.07,0,0,1-1.17,1.38,5.65,5.65,0,0,1-1.79.88,8.17,8.17,0,0,1-2.26.31,7.63,7.63,0,0,1-2.38-.35,5.87,5.87,0,0,1-1.8-.93A4.28,4.28,0,0,1,253,245.8a3.67,3.67,0,0,1-.46-1.62l3-.48a2.52,2.52,0,0,0,.79,1.67,2.84,2.84,0,0,0,2,.65,5.4,5.4,0,0,0,1-.1,2.61,2.61,0,0,0,.82-.33,1.87,1.87,0,0,0,.55-.57,1.63,1.63,0,0,0,.2-.82,1.35,1.35,0,0,0-.65-1.2,6.38,6.38,0,0,0-2.29-.68,17.16,17.16,0,0,1-2-.46,5.72,5.72,0,0,1-1.63-.77,3.51,3.51,0,0,1-1.08-1.22,3.79,3.79,0,0,1-.39-1.79,3.93,3.93,0,0,1,.4-1.84,3.62,3.62,0,0,1,1.12-1.31,4.76,4.76,0,0,1,1.7-.79,8,8,0,0,1,2.14-.26,7.71,7.71,0,0,1,2,.25,5.28,5.28,0,0,1,1.67.74,4.36,4.36,0,0,1,1.21,1.21,4.49,4.49,0,0,1,.66,1.64l-3,.66a2.45,2.45,0,0,0-.82-1.52,2.64,2.64,0,0,0-1.78-.56,2.76,2.76,0,0,0-1.69.42A1.33,1.33,0,0,0,255.86,237.84Z"/></g><g id="ICON"><path class="cls-2" d="M177.2,130h0a9.33,9.33,0,1,1-3.29.61,9.35,9.35,0,0,1,3.29-.61m0-3.32A12.63,12.63,0,1,0,189,134.87a12.69,12.69,0,0,0-11.81-8.17Z"/><path class="cls-2" d="M223.15,143.74h0a6.93,6.93,0,0,1,2.45,13.42,6.86,6.86,0,0,1-2.45.45,6.93,6.93,0,0,1-6.32-9.79,7,7,0,0,1,6.32-4.08m0-3.32a10.26,10.26,0,1,0,9.59,6.63,10.2,10.2,0,0,0-9.59-6.63Z"/><path class="cls-2" d="M147.32,99.23h0a6.93,6.93,0,0,1,6.32,9.79,7,7,0,0,1-6.32,4.08,7,7,0,0,1-6.48-4.48,6.94,6.94,0,0,1,6.48-9.39m0-3.32a10.26,10.26,0,1,0,9.6,6.63,10.24,10.24,0,0,0-9.6-6.63Z"/><path class="cls-2" d="M201.72,94.63h0a5,5,0,0,1,4.62,3.2,4.94,4.94,0,0,1-2.88,6.37,4.94,4.94,0,0,1-6.25-6.66A4.91,4.91,0,0,1,200,95a5,5,0,0,1,1.75-.32m0-3.32a8.27,8.27,0,1,0,7.73,5.34,8.31,8.31,0,0,0-7.73-5.34Z"/><path class="cls-2" d="M202.74,181.14h0a7,7,0,0,1,6.48,4.48,6.94,6.94,0,0,1-6.48,9.39,6.93,6.93,0,0,1-2.45-13.42,6.86,6.86,0,0,1,2.45-.45m0-3.32a10.26,10.26,0,1,0,9.59,6.63,10.29,10.29,0,0,0-9.59-6.63Z"/><path class="cls-2" d="M136.85,165.38h0a6.93,6.93,0,0,1,2.45,13.42,6.86,6.86,0,0,1-2.45.45,6.93,6.93,0,0,1-2.45-13.42,6.86,6.86,0,0,1,2.45-.45m0-3.32a10.26,10.26,0,1,0,9.59,6.63,10.2,10.2,0,0,0-9.59-6.63Z"/><line class="cls-3" x1="144.3" y1="165.27" x2="169.22" y2="149.12"/><line class="cls-3" x1="199.11" y1="178.48" x2="183.08" y2="150.64"/><line class="cls-3" x1="144.87" y1="175.57" x2="194.13" y2="188.47"/><line class="cls-3" x1="146.87" y1="170.14" x2="213.56" y2="154.3"/><line class="cls-3" x1="183.82" y1="128.58" x2="197.45" y2="106.65"/><line class="cls-3" x1="153.96" y1="114.62" x2="168.21" y2="130.46"/><line class="cls-3" x1="203.92" y1="105.41" x2="219.47" y2="142.71"/><rect class="cls-2" y="336.06" width="360" height="23.94"/><path class="cls-4" d="M235.07,348.29a5.51,5.51,0,0,1,.29-1.84,4,4,0,0,1,.82-1.38,3.65,3.65,0,0,1,1.3-.86,4.87,4.87,0,0,1,1.71-.29,4.11,4.11,0,0,1,2.26.59,3.19,3.19,0,0,1,1.29,1.79l-1.75.61a2.34,2.34,0,0,0-.65-1.1,1.71,1.71,0,0,0-1.19-.39,2,2,0,0,0-1,.22,1.88,1.88,0,0,0-.69.59,2.47,2.47,0,0,0-.42.91,4.59,4.59,0,0,0-.14,1.15,4.51,4.51,0,0,0,.14,1.14,2.63,2.63,0,0,0,.42.91,1.81,1.81,0,0,0,.69.6,2.19,2.19,0,0,0,1,.22,1.77,1.77,0,0,0,1.13-.35,2.23,2.23,0,0,0,.67-1.06l1.72.61A3.53,3.53,0,0,1,241.4,352a3.87,3.87,0,0,1-2.26.62,4.47,4.47,0,0,1-1.67-.3,3.54,3.54,0,0,1-1.29-.85,3.82,3.82,0,0,1-.82-1.37A5.61,5.61,0,0,1,235.07,348.29Z"/><path class="cls-4" d="M252.68,352.49h-1.86l-.67-1.95h-3l-.67,1.95H244.7l3-8.4h1.93Zm-4.06-6.43a2.83,2.83,0,0,1-.08.28c0,.12-.09.26-.13.42l-.17.5c-.06.18-.11.36-.17.52l-.44,1.34h2l-.44-1.34c-.09-.24-.16-.43-.21-.59s-.1-.31-.14-.45-.09-.28-.13-.4a2.83,2.83,0,0,1-.08-.28Z"/><path class="cls-4" d="M258.86,352.49q-.18-.5-.45-1.29l-.56-1.66c-.19-.58-.38-1.14-.56-1.7s-.32-1-.44-1.39h0v6h-1.66v-8.4h2.52c.35,1,.66,2,.94,2.82.17.51.3.92.41,1.24s.21.62.3.91.18.54.25.78.13.4.17.5l.15-.5c.07-.24.16-.51.26-.83s.21-.65.32-1l.36-1.08q.41-1.29.9-2.82h2.51v8.4h-1.66v-6h0l-.28.9c-.12.34-.24.71-.37,1.11s-.27.79-.4,1.19-.27.79-.39,1.15-.23.7-.33,1l-.24.7Z"/><path class="cls-4" d="M269.2,349.54v2.95h-1.79v-8.4h3.2a5.66,5.66,0,0,1,1.36.15,3.18,3.18,0,0,1,1,.48,2.26,2.26,0,0,1,.67.83,2.81,2.81,0,0,1,.24,1.21,2.85,2.85,0,0,1-.25,1.25,2.39,2.39,0,0,1-.68.86,2.7,2.7,0,0,1-1.05.5,5.17,5.17,0,0,1-1.34.17Zm2.89-2.78a1,1,0,0,0-.41-.93,2.44,2.44,0,0,0-1.25-.25H269.2v2.47h1.23a2.13,2.13,0,0,0,1.25-.3A1.13,1.13,0,0,0,272.09,346.76Z"/><path class="cls-4" d="M279.88,352.66a3.3,3.3,0,0,1-2.55-.87,3.35,3.35,0,0,1-.81-2.4v-5.3h1.8v5.31a2,2,0,0,0,.38,1.27,1.64,1.64,0,0,0,2.36,0,2,2,0,0,0,.38-1.27v-5.31h1.8v5.3a3.39,3.39,0,0,1-.8,2.4A3.34,3.34,0,0,1,279.88,352.66Z"/><path class="cls-4" d="M288,346.3a.8.8,0,0,0,.47.77,5.38,5.38,0,0,0,1.49.4,4.79,4.79,0,0,1,2.2.83,2.09,2.09,0,0,1,.7,1.72,2.3,2.3,0,0,1-.25,1.09,2.43,2.43,0,0,1-.7.83,3.25,3.25,0,0,1-1.07.53,4.91,4.91,0,0,1-1.36.19,4.53,4.53,0,0,1-1.43-.21,3.67,3.67,0,0,1-1.08-.56,2.6,2.6,0,0,1-.7-.82,2.24,2.24,0,0,1-.27-1l1.8-.29a1.55,1.55,0,0,0,.47,1,1.71,1.71,0,0,0,1.21.39,2.93,2.93,0,0,0,.61-.06,1.52,1.52,0,0,0,.49-.19,1.1,1.1,0,0,0,.33-.35.94.94,0,0,0,.12-.49.81.81,0,0,0-.39-.72,3.92,3.92,0,0,0-1.38-.41,10,10,0,0,1-1.22-.27,3.42,3.42,0,0,1-1-.46,2.2,2.2,0,0,1-.65-.74,2.32,2.32,0,0,1-.23-1.07,2.38,2.38,0,0,1,.24-1.1,2.13,2.13,0,0,1,.67-.79,3,3,0,0,1,1-.47,5.12,5.12,0,0,1,2.5,0,3.49,3.49,0,0,1,1,.44,2.82,2.82,0,0,1,.73.73,2.72,2.72,0,0,1,.39,1l-1.82.4a1.51,1.51,0,0,0-.49-.91,1.58,1.58,0,0,0-1.07-.34,1.74,1.74,0,0,0-1,.25A.82.82,0,0,0,288,346.3Z"/><path class="cls-4" d="M300.9,344.09c.3.84.58,1.65.85,2.43.15.46.29.84.39,1.16s.21.62.31.94.21.62.3.92.18.56.25.79h0c.07-.23.15-.5.25-.8l.31-.95c.1-.34.22-.68.34-1s.23-.69.35-1q.39-1.17.84-2.43H307l-3.09,8.4H302l-3.06-8.4Z"/><path class="cls-4" d="M315.71,352.49h-1.86l-.67-1.95h-3l-.67,1.95h-1.77l3-8.4h1.93Zm-4-6.43-.09.28-.13.42-.16.5c-.06.18-.12.36-.18.52-.13.42-.28.86-.44,1.34h2c-.16-.48-.31-.92-.44-1.34-.09-.24-.16-.43-.21-.59s-.11-.31-.15-.45-.09-.28-.13-.4l-.08-.28Z"/><path class="cls-4" d="M318.2,344.09H320V351h3.67v1.5H318.2Z"/><path class="cls-4" d="M329.32,352.66a3.34,3.34,0,0,1-2.56-.87,3.39,3.39,0,0,1-.8-2.4v-5.3h1.8v5.31a2,2,0,0,0,.38,1.27,1.64,1.64,0,0,0,2.36,0,2,2,0,0,0,.38-1.27v-5.31h1.8v5.3a3.39,3.39,0,0,1-.8,2.4A3.34,3.34,0,0,1,329.32,352.66Z"/><path class="cls-4" d="M335.8,352.49v-8.4h5.72v1.49h-3.94v1.84h3.67v1.49h-3.67V351h4v1.49Z"/><path class="cls-4" d="M346,346.3a.8.8,0,0,0,.47.77,5.38,5.38,0,0,0,1.49.4,4.79,4.79,0,0,1,2.2.83,2.09,2.09,0,0,1,.7,1.72,2.3,2.3,0,0,1-.25,1.09,2.43,2.43,0,0,1-.7.83,3.21,3.21,0,0,1-1.08.53,4.84,4.84,0,0,1-1.35.19,4.53,4.53,0,0,1-1.43-.21,3.44,3.44,0,0,1-1.08-.56,2.6,2.6,0,0,1-.7-.82,2.11,2.11,0,0,1-.27-1l1.8-.29a1.5,1.5,0,0,0,.47,1,1.71,1.71,0,0,0,1.21.39,2.91,2.91,0,0,0,.6-.06,1.43,1.43,0,0,0,.49-.19,1.1,1.1,0,0,0,.33-.35.94.94,0,0,0,.12-.49.81.81,0,0,0-.39-.72,3.85,3.85,0,0,0-1.37-.41,9.6,9.6,0,0,1-1.22-.27,3.29,3.29,0,0,1-1-.46,2.1,2.1,0,0,1-.65-.74,2.2,2.2,0,0,1-.23-1.07,2.38,2.38,0,0,1,.24-1.1,2.13,2.13,0,0,1,.67-.79,3,3,0,0,1,1-.47,4.72,4.72,0,0,1,1.28-.16,4.66,4.66,0,0,1,1.21.15,3.55,3.55,0,0,1,1,.44,2.63,2.63,0,0,1,.72.73,2.74,2.74,0,0,1,.4,1l-1.83.4a1.41,1.41,0,0,0-.49-.91,1.56,1.56,0,0,0-1.07-.34,1.72,1.72,0,0,0-1,.25A.82.82,0,0,0,346,346.3Z"/></g></svg>