<svg xmlns="http://www.w3.org/2000/svg" xmlns:xlink="http://www.w3.org/1999/xlink" viewBox="0 0 360 360"><defs><style>.cls-1,.cls-10,.cls-11,.cls-4,.cls-6,.cls-7,.cls-8,.cls-9{fill:none;}.cls-2{fill:#f1f2f2;}.cls-3{fill:#ef4a2b;}.cls-10,.cls-11,.cls-4,.cls-6,.cls-7,.cls-8,.cls-9{stroke:#ef4a2b;stroke-miterlimit:10;}.cls-4{stroke-width:3px;}.cls-5{clip-path:url(#clip-path);}.cls-11,.cls-7,.cls-9{stroke-linecap:round;}.cls-8,.cls-9{stroke-width:0.75px;}.cls-10,.cls-11{stroke-width:1.5px;}.cls-12{fill:#fff;}</style><clipPath id="clip-path"><rect class="cls-1" x="133.06" y="97.33" width="93.88" height="93.88"/></clipPath></defs><g id="BACKGROUND"><rect class="cls-2" y="-0.17" width="360" height="360"/></g><g id="LINE_ONE" data-name="LINE ONE"><path class="cls-3" d="M131.87,241.16a9.12,9.12,0,0,1,.48-3.07,6.39,6.39,0,0,1,1.37-2.29,5.64,5.64,0,0,1,2.16-1.43,7.82,7.82,0,0,1,2.85-.49,6.75,6.75,0,0,1,3.76,1,5.32,5.32,0,0,1,2.16,3l-2.92,1a3.92,3.92,0,0,0-1.08-1.83,2.82,2.82,0,0,0-2-.65,3.51,3.51,0,0,0-1.62.36,3.26,3.26,0,0,0-1.16,1,4.28,4.28,0,0,0-.69,1.51,8.09,8.09,0,0,0,0,3.83,4.45,4.45,0,0,0,.69,1.51,3.29,3.29,0,0,0,1.16,1,3.54,3.54,0,0,0,1.64.36,3,3,0,0,0,1.89-.58,3.57,3.57,0,0,0,1.11-1.76l2.88,1a6.07,6.07,0,0,1-2.16,2.8,6.42,6.42,0,0,1-3.76,1,7.7,7.7,0,0,1-2.79-.49,5.94,5.94,0,0,1-2.14-1.42,6.39,6.39,0,0,1-1.37-2.29A9.26,9.26,0,0,1,131.87,241.16Z"/><path class="cls-3" d="M161.21,248.16h-3.1L157,244.92h-5l-1.12,3.24h-2.94l5-14h3.22Zm-6.76-10.72c0,.1-.07.26-.14.47s-.14.44-.22.7-.17.54-.27.84l-.29.87c-.23.69-.47,1.43-.74,2.22h3.38c-.27-.79-.51-1.53-.74-2.22-.15-.4-.26-.73-.35-1s-.17-.51-.24-.75-.14-.47-.21-.67-.11-.37-.14-.47Z"/><path class="cls-3" d="M171.51,248.16c-.2-.55-.45-1.27-.75-2.15l-.93-2.77q-.48-1.44-.93-2.82c-.3-.92-.54-1.7-.73-2.32h-.06v10.06h-2.76v-14h4.2q.85,2.55,1.56,4.7.42,1.27.69,2.07c.18.52.35,1,.5,1.51s.29.91.42,1.3.22.66.27.84c0-.18.14-.46.26-.84s.26-.85.43-1.37l.54-1.7c.19-.61.39-1.21.59-1.81q.67-2.15,1.5-4.7h4.18v14h-2.76V238.1h-.06l-.48,1.49-.61,1.85-.67,2c-.23.67-.44,1.31-.64,1.92l-.55,1.65c-.17.49-.3.88-.41,1.16Z"/><path class="cls-3" d="M188.75,243.24v4.92h-3v-14h5.32a8.93,8.93,0,0,1,2.28.26,4.81,4.81,0,0,1,1.74.8,3.7,3.7,0,0,1,1.12,1.38,4.61,4.61,0,0,1,.4,2,4.87,4.87,0,0,1-.41,2.07,3.85,3.85,0,0,1-1.14,1.44,4.83,4.83,0,0,1-1.75.84,8.76,8.76,0,0,1-2.24.27Zm4.82-4.62a1.68,1.68,0,0,0-.69-1.56,4.11,4.11,0,0,0-2.09-.42h-2v4.12h2a3.6,3.6,0,0,0,2.09-.5A1.9,1.9,0,0,0,193.57,238.62Z"/><path class="cls-3" d="M206.55,248.44a5.56,5.56,0,0,1-4.26-1.44,5.67,5.67,0,0,1-1.34-4v-8.84h3V243a3.35,3.35,0,0,0,.64,2.11,2.73,2.73,0,0,0,3.92,0,3.35,3.35,0,0,0,.64-2.11v-8.86h3V243a5.67,5.67,0,0,1-1.34,4A5.56,5.56,0,0,1,206.55,248.44Z"/><path class="cls-3" d="M220.07,237.84a1.34,1.34,0,0,0,.78,1.29,9.48,9.48,0,0,0,2.48.67,7.86,7.86,0,0,1,3.67,1.38,3.48,3.48,0,0,1,1.17,2.86,3.92,3.92,0,0,1-.42,1.83,4.07,4.07,0,0,1-1.17,1.38,5.65,5.65,0,0,1-1.79.88,8.12,8.12,0,0,1-2.26.31,7.68,7.68,0,0,1-2.38-.35,6.1,6.1,0,0,1-1.8-.93,4.41,4.41,0,0,1-1.16-1.36,3.81,3.81,0,0,1-.46-1.62l3-.48a2.58,2.58,0,0,0,.79,1.67,2.84,2.84,0,0,0,2,.65,5.32,5.32,0,0,0,1-.1,2.52,2.52,0,0,0,.82-.33,1.86,1.86,0,0,0,.55-.57,1.63,1.63,0,0,0,.2-.82,1.35,1.35,0,0,0-.65-1.2,6.31,6.31,0,0,0-2.29-.68,18.1,18.1,0,0,1-2-.46,5.72,5.72,0,0,1-1.63-.77,3.6,3.6,0,0,1-1.08-1.22,3.79,3.79,0,0,1-.39-1.79,3.93,3.93,0,0,1,.4-1.84,3.72,3.72,0,0,1,1.12-1.31,4.84,4.84,0,0,1,1.7-.79,8,8,0,0,1,2.14-.26,7.71,7.71,0,0,1,2,.25,5.28,5.28,0,0,1,1.67.74,4.23,4.23,0,0,1,1.21,1.21,4.42,4.42,0,0,1,.66,1.64l-3,.66a2.45,2.45,0,0,0-.82-1.52,2.62,2.62,0,0,0-1.78-.56,2.78,2.78,0,0,0-1.69.42A1.33,1.33,0,0,0,220.07,237.84Z"/></g><g id="LINE_TWO" data-name="LINE TWO"><path class="cls-3" d="M147,251.94c.49,1.4,1,2.76,1.4,4.06q.4,1.14.66,1.92l.52,1.57.5,1.53.42,1.32h0L151,261l.51-1.59c.18-.56.37-1.13.57-1.72l.58-1.7c.44-1.3.91-2.66,1.4-4.06h3.08l-5.16,14h-3.06l-5.1-14Z"/><path class="cls-3" d="M161.22,251.94h3v14h-3Z"/><path class="cls-3" d="M169.5,265.94v-14H179v2.48h-6.58v3.08h6.12V260h-6.12v3.48h6.68v2.48Z"/><path class="cls-3" d="M200.94,251.94l-3.5,14H194c-.29-1.29-.57-2.52-.84-3.7l-.4-1.74c-.11-.46-.21-.93-.31-1.4s-.2-.91-.3-1.34-.18-.79-.25-1.1h-.06c-.06.31-.15.68-.24,1.11s-.2.9-.32,1.39l-.36,1.53c-.12.53-.24,1.05-.36,1.55-.28,1.18-.58,2.41-.9,3.7h-3.48l-3.52-14h3c.35,1.5.67,2.92,1,4.26.17.8.32,1.46.44,2s.23,1,.34,1.56.21,1,.31,1.48.18.86.23,1.18H188c.07-.32.15-.71.25-1.19s.22-1,.34-1.53.26-1.12.4-1.72.28-1.18.41-1.76l1-4.26h2.82l1,4.26c.19.8.34,1.46.47,2s.25,1,.37,1.56.23,1,.33,1.48.18.86.25,1.18h.06c.07-.32.15-.71.25-1.19l.33-1.53c.12-.54.25-1.12.38-1.72s.27-1.18.4-1.76c.32-1.34.65-2.76,1-4.26Z"/><path class="cls-3" d="M207.58,255.62a1.34,1.34,0,0,0,.78,1.29,9.1,9.1,0,0,0,2.48.67,7.86,7.86,0,0,1,3.67,1.38,3.49,3.49,0,0,1,1.17,2.86,3.92,3.92,0,0,1-.42,1.83,4.07,4.07,0,0,1-1.17,1.38,5.44,5.44,0,0,1-1.79.88,7.77,7.77,0,0,1-2.26.31,7.39,7.39,0,0,1-2.38-.35,5.66,5.66,0,0,1-1.8-.93,4.3,4.3,0,0,1-1.16-1.36,3.81,3.81,0,0,1-.46-1.62l3-.48a2.56,2.56,0,0,0,.79,1.67,2.8,2.8,0,0,0,2,.65,4.61,4.61,0,0,0,1-.1,2.14,2.14,0,0,0,.82-.33,1.66,1.66,0,0,0,.55-.57,1.61,1.61,0,0,0,.2-.82,1.35,1.35,0,0,0-.65-1.2,6.52,6.52,0,0,0-2.29-.68,16.15,16.15,0,0,1-2-.46,5.23,5.23,0,0,1-1.63-.77,3.42,3.42,0,0,1-1.08-1.22,3.73,3.73,0,0,1-.39-1.79,4,4,0,0,1,.4-1.84,3.81,3.81,0,0,1,1.12-1.31,5.22,5.22,0,0,1,1.7-.79,8.48,8.48,0,0,1,2.14-.26,8.16,8.16,0,0,1,2,.25,5.77,5.77,0,0,1,1.67.74,4.36,4.36,0,0,1,1.21,1.21,4.49,4.49,0,0,1,.66,1.64l-3,.66a2.48,2.48,0,0,0-.82-1.52,2.67,2.67,0,0,0-1.78-.56,2.78,2.78,0,0,0-1.69.42A1.34,1.34,0,0,0,207.58,255.62Z"/></g><g id="ICON"><rect class="cls-4" x="126" y="90.27" width="108" height="108"/><rect class="cls-4" x="133.06" y="97.33" width="93.88" height="93.88"/><line class="cls-4" x1="180" y1="96.29" x2="180" y2="191.21"/><line class="cls-4" x1="133.06" y1="143.75" x2="226.94" y2="143.75"/><g class="cls-5"><path class="cls-6" d="M77.56,152.5l3.64.67h4.23l1.37-.67h1.09l1.08.67h1.18l1.28,1.74h2.26l1.67-1.2,1.18-1.21,1.48-.93h2.26l.59,1.07,1.38-.54,1-1.07h8.37l2.55-.93,2.17-2.14s1.28.53,1.57,0,2.86-1.34,2.86-1.34l2.16-1.05,2.46-2.69H128l2.36-1.48h1.47l.5-1.6,5.8-3.08,3.35-2.27,3.14-2.14,1.38-1.07.49,1.07,1.18-1.07h1.68l1.57.67,1.69-.67h1.66l1.47.67,1.38-.67,1,.8,1.28,1.34.59.27,1.58-1.34,1.18-.27h2.36l.49-.8h1.77l1.67.8,1.68-.8,1.37,1.34,2.07,1.6,1.77.4,1.48.41,2.45,1.47,2.07,1.87,1.58,1.6,2.45,1.74,2.07,1.41,2.26,1.53,3.35,1,2.06,1.32,2.54.71,1-.68,2.23.22,2.39,1.14,1.62.48h1.28l1.77,1.74,1.19-.27,1.67.27.78.93,1.19-1.33,1.86-.94,1.19.8,2.85.67,1.47.14,1.48-.41,2.36.67,1.38,1.34,3-.4,2.07.4,1.57-.53"/></g><circle class="cls-6" cx="208.05" cy="118.7" r="5.63"/><line class="cls-7" x1="208.05" y1="111.32" x2="208.05" y2="106.29"/><line class="cls-7" x1="208.05" y1="131.11" x2="208.05" y2="126.08"/><line class="cls-7" x1="215.43" y1="118.7" x2="220.46" y2="118.7"/><line class="cls-7" x1="195.64" y1="118.7" x2="200.66" y2="118.7"/><line class="cls-7" x1="213.27" y1="113.48" x2="216.82" y2="109.93"/><line class="cls-7" x1="199.27" y1="127.48" x2="202.83" y2="123.92"/><line class="cls-7" x1="213.27" y1="123.92" x2="216.82" y2="127.48"/><line class="cls-7" x1="199.27" y1="109.93" x2="202.83" y2="113.48"/><line class="cls-8" x1="138.21" y1="144.89" x2="138.21" y2="163.33"/><polyline class="cls-9" points="134.76 148.35 138.22 144.89 141.66 148.32"/><polyline class="cls-9" points="134.76 151.31 138.22 147.84 141.66 151.28"/><polyline class="cls-9" points="134.76 154.26 138.22 150.79 141.66 154.23"/><polyline class="cls-9" points="134.76 157.21 138.22 153.75 141.66 157.18"/><line class="cls-8" x1="154.27" y1="149.26" x2="154.27" y2="167.71"/><polyline class="cls-9" points="150.82 152.72 154.29 149.26 157.72 152.69"/><polyline class="cls-9" points="150.82 155.68 154.29 152.21 157.72 155.65"/><polyline class="cls-9" points="150.82 158.63 154.29 155.16 157.72 158.6"/><polyline class="cls-9" points="150.82 161.59 154.29 158.12 157.72 161.56"/><line class="cls-8" x1="183.72" y1="149.42" x2="183.72" y2="167.87"/><polyline class="cls-9" points="180.27 152.89 183.74 149.42 187.18 152.86"/><polyline class="cls-9" points="180.27 155.84 183.74 152.38 187.18 155.81"/><polyline class="cls-9" points="180.27 158.8 183.74 155.33 187.18 158.77"/><polyline class="cls-9" points="180.27 161.75 183.74 158.28 187.18 161.72"/><line class="cls-8" x1="172.59" y1="145.23" x2="172.59" y2="163.68"/><polyline class="cls-9" points="169.13 148.7 172.6 145.23 176.04 148.67"/><polyline class="cls-9" points="169.13 151.65 172.6 148.19 176.04 151.62"/><polyline class="cls-9" points="169.13 154.61 172.6 151.14 176.04 154.58"/><polyline class="cls-9" points="169.13 157.56 172.6 154.09 176.04 157.53"/><line class="cls-10" x1="144.05" y1="161.04" x2="144.05" y2="191.21"/><polyline class="cls-11" points="137.74 167.38 144.07 161.04 150.35 167.32"/><polyline class="cls-11" points="137.74 172.77 144.07 166.44 150.35 172.72"/><polyline class="cls-11" points="137.74 178.16 144.07 171.83 150.35 178.11"/><polyline class="cls-11" points="137.74 183.56 144.07 177.23 150.35 183.5"/><line class="cls-10" x1="164.18" y1="161.04" x2="164.18" y2="190.92"/><polyline class="cls-11" points="157.87 167.38 164.2 161.04 170.48 167.32"/><polyline class="cls-11" points="157.87 172.77 164.2 166.44 170.48 172.72"/><polyline class="cls-11" points="157.87 178.16 164.2 171.83 170.48 178.11"/><polyline class="cls-11" points="157.87 183.56 164.2 177.23 170.48 183.5"/><line class="cls-8" x1="203.01" y1="144.23" x2="203.01" y2="162.68"/><polyline class="cls-9" points="199.56 147.7 203.03 144.23 206.46 147.67"/><polyline class="cls-9" points="199.56 150.65 203.03 147.19 206.46 150.62"/><polyline class="cls-9" points="199.56 153.61 203.03 150.14 206.46 153.58"/><polyline class="cls-9" points="199.56 156.56 203.03 153.09 206.46 156.53"/><line class="cls-8" x1="222.55" y1="149.27" x2="222.55" y2="167.72"/><polyline class="cls-9" points="219.1 152.74 222.56 149.27 226 152.71"/><polyline class="cls-9" points="219.1 155.69 222.56 152.23 226 155.66"/><polyline class="cls-9" points="219.1 158.65 222.56 155.18 226 158.62"/><polyline class="cls-9" points="219.1 161.6 222.56 158.13 226 161.57"/><line class="cls-10" x1="193.75" y1="160.69" x2="193.75" y2="191.21"/><polyline class="cls-11" points="187.45 167.03 193.78 160.69 200.06 166.97"/><polyline class="cls-11" points="187.45 172.42 193.78 166.09 200.06 172.37"/><polyline class="cls-11" points="187.45 177.82 193.78 171.49 200.06 177.76"/><polyline class="cls-11" points="187.45 183.21 193.78 176.88 200.06 183.16"/><line class="cls-10" x1="211.88" y1="160.69" x2="211.88" y2="191.21"/><polyline class="cls-11" points="205.58 167.03 211.91 160.69 218.19 166.97"/><polyline class="cls-11" points="205.58 172.42 211.91 166.09 218.19 172.37"/><polyline class="cls-11" points="205.58 177.82 211.91 171.49 218.19 177.76"/><polyline class="cls-11" points="205.58 183.21 211.91 176.88 218.19 183.16"/><rect class="cls-3" y="336.06" width="360" height="23.94"/><path class="cls-12" d="M265.76,352.49v-8.4h5.72v1.49h-4v1.84h3.68v1.49h-3.68V351h4v1.49Z"/><path class="cls-12" d="M278.79,348.08l3.11,4.41h-2.16l-2-2.92-2.06,2.92h-2l3.08-4.32-2.84-4.08H276l1.77,2.59,1.82-2.59h2Z"/><path class="cls-12" d="M286.16,349.54v2.95h-1.79v-8.4h3.19a5.75,5.75,0,0,1,1.37.15,3,3,0,0,1,1,.48,2.29,2.29,0,0,1,.68.83,2.81,2.81,0,0,1,.24,1.21,3,3,0,0,1-.25,1.25,2.39,2.39,0,0,1-.68.86,2.84,2.84,0,0,1-1,.5,5.2,5.2,0,0,1-1.35.17Zm2.89-2.78a1,1,0,0,0-.41-.93,2.48,2.48,0,0,0-1.26-.25h-1.22v2.47h1.22a2.17,2.17,0,0,0,1.26-.3A1.15,1.15,0,0,0,289.05,346.76Z"/><path class="cls-12" d="M293.53,352.49v-8.4h5.72v1.49H295.3v1.84H299v1.49H295.3V351h4v1.49Z"/><path class="cls-12" d="M308.38,346.64a2.36,2.36,0,0,1-1.6,2.4l1.94,3.45h-2L305,349.31h-1.12v3.18h-1.79v-8.4h3.07a5.41,5.41,0,0,1,1.33.15,2.81,2.81,0,0,1,1,.46,2.15,2.15,0,0,1,.64.79A2.57,2.57,0,0,1,308.38,346.64Zm-1.85,0a.91.91,0,0,0-.39-.85,2.3,2.3,0,0,0-1.18-.23h-1.08v2.26H305a2.08,2.08,0,0,0,1.18-.27A1,1,0,0,0,306.53,346.66Z"/><path class="cls-12" d="M311.41,344.09h1.8v8.4h-1.8Z"/><path class="cls-12" d="M316.37,352.49v-8.4h5.73v1.49h-4v1.84h3.67v1.49h-3.67V351h4v1.49Z"/><path class="cls-12" d="M324.94,344.09h1.87l1.4,2.25.64,1.05.51.83.48.77.38.62h0v-5.52H332v8.4h-1.87l-1.37-2.22c-.25-.42-.47-.76-.64-1l-.51-.83-.49-.79c-.15-.25-.29-.47-.4-.64h0v5.52h-1.71Z"/><path class="cls-12" d="M334.78,348.29a5.51,5.51,0,0,1,.29-1.84,3.81,3.81,0,0,1,.82-1.38,3.65,3.65,0,0,1,1.3-.86,4.87,4.87,0,0,1,1.71-.29,4.07,4.07,0,0,1,2.25.59,3.21,3.21,0,0,1,1.3,1.79l-1.75.61a2.43,2.43,0,0,0-.65-1.1,1.72,1.72,0,0,0-1.19-.39,2,2,0,0,0-1.67.81,2.63,2.63,0,0,0-.41.91,4.59,4.59,0,0,0-.14,1.15,4.51,4.51,0,0,0,.14,1.14,2.81,2.81,0,0,0,.41.91,1.92,1.92,0,0,0,.7.6,2.18,2.18,0,0,0,1,.22,1.78,1.78,0,0,0,1.14-.35,2.15,2.15,0,0,0,.66-1.06l1.73.61a3.53,3.53,0,0,1-1.29,1.68,3.87,3.87,0,0,1-2.26.62,4.44,4.44,0,0,1-1.67-.3,3.54,3.54,0,0,1-1.29-.85,3.69,3.69,0,0,1-.82-1.37A5.61,5.61,0,0,1,334.78,348.29Z"/><path class="cls-12" d="M345.09,352.49v-8.4h5.72v1.49h-3.95v1.84h3.68v1.49h-3.68V351h4v1.49Z"/></g></svg>