<svg xmlns="http://www.w3.org/2000/svg" viewBox="0 0 360 360"><defs><style>.cls-1{fill:#fff;}.cls-2{fill:#231f20;}.cls-2,.cls-3{stroke:#fff;stroke-linejoin:round;stroke-width:3px;}.cls-3{fill:none;}</style></defs><g id="BACKGROUND"><rect width="360" height="360"/></g><g id="LINE_ONE" data-name="LINE ONE"><path class="cls-1" d="M113.46,248.16h-3.1l-1.12-3.24h-5l-1.12,3.24h-2.94l5-14h3.22Zm-6.76-10.72-.14.47c-.07.2-.14.44-.22.7s-.17.54-.27.84l-.29.87c-.23.69-.48,1.43-.74,2.22h3.38c-.27-.79-.52-1.53-.74-2.22-.15-.4-.27-.73-.35-1s-.17-.51-.24-.75-.15-.47-.21-.67a4.69,4.69,0,0,1-.14-.47Z"/><path class="cls-1" d="M117.6,234.16h5.22a8.21,8.21,0,0,1,2.88.47,5.73,5.73,0,0,1,2.16,1.36,6.05,6.05,0,0,1,1.35,2.19,9.68,9.68,0,0,1,0,6,6.23,6.23,0,0,1-1.35,2.19,6,6,0,0,1-2.16,1.36,8.45,8.45,0,0,1-2.88.47H117.6Zm9,7a7,7,0,0,0-.23-1.85,4.15,4.15,0,0,0-.7-1.43,3.09,3.09,0,0,0-1.19-.92,4.13,4.13,0,0,0-1.72-.32h-2.12v9h2.12a4.29,4.29,0,0,0,1.72-.32,3.18,3.18,0,0,0,1.19-.92,4.24,4.24,0,0,0,.7-1.43A7.1,7.1,0,0,0,126.58,241.16Z"/><path class="cls-1" d="M145.84,248.16h-3.1l-1.12-3.24h-5l-1.12,3.24h-2.94l5-14h3.22Zm-6.76-10.72-.14.47c-.07.2-.14.44-.22.7s-.17.54-.27.84l-.29.87-.74,2.22h3.38c-.27-.79-.52-1.53-.74-2.22-.15-.4-.27-.73-.35-1s-.17-.51-.24-.75-.15-.47-.21-.67a4.69,4.69,0,0,1-.14-.47Z"/><path class="cls-1" d="M153,243.24v4.92h-3v-14h5.32a8.93,8.93,0,0,1,2.28.26,4.81,4.81,0,0,1,1.74.8,3.7,3.7,0,0,1,1.12,1.38,4.75,4.75,0,0,1,.4,2,4.87,4.87,0,0,1-.41,2.07,4.05,4.05,0,0,1-1.14,1.44,4.83,4.83,0,0,1-1.75.84,8.76,8.76,0,0,1-2.24.27Zm4.82-4.62a1.68,1.68,0,0,0-.69-1.56,4.11,4.11,0,0,0-2.09-.42h-2v4.12h2a3.6,3.6,0,0,0,2.09-.5A1.9,1.9,0,0,0,157.78,238.62Z"/><path class="cls-1" d="M164.18,234.16h11.1v2.5h-4v11.5h-3v-11.5h-4Z"/><path class="cls-1" d="M179.5,234.16h3v14h-3Z"/><path class="cls-1" d="M187.78,234.16h6.08a5.06,5.06,0,0,1,1.75.28,3.74,3.74,0,0,1,1.3.77,3.28,3.28,0,0,1,.81,1.16,3.82,3.82,0,0,1,.28,1.45,3.41,3.41,0,0,1-.18,1.14,3.29,3.29,0,0,1-.47.87,3.5,3.5,0,0,1-.66.62,4.29,4.29,0,0,1-.77.39,3.43,3.43,0,0,1,.93.26,3,3,0,0,1,.87.57,2.81,2.81,0,0,1,.65.93,3.47,3.47,0,0,1,.25,1.38,4.22,4.22,0,0,1-.34,1.67,4,4,0,0,1-.94,1.32,4.84,4.84,0,0,1-1.42.87,5,5,0,0,1-1.8.32h-6.34Zm2.92,2.44v3.24h2.1a2.85,2.85,0,0,0,1.6-.36,1.5,1.5,0,0,0,.52-1.3,1.47,1.47,0,0,0-.45-1.22,2.46,2.46,0,0,0-1.51-.36Zm0,9.12h2.4a3,3,0,0,0,1.93-.45,1.66,1.66,0,0,0,.51-1.31,1.44,1.44,0,0,0-.62-1.37,3.84,3.84,0,0,0-1.86-.35H190.7Z"/><path class="cls-1" d="M203.28,234.16h3v14h-3Z"/><path class="cls-1" d="M211.56,234.16h3v11.5h6.12v2.5h-9.12Z"/><path class="cls-1" d="M224.88,234.16h3v14h-3Z"/><path class="cls-1" d="M232.1,234.16h11.1v2.5h-4v11.5h-3v-11.5h-4Z"/><path class="cls-1" d="M251.66,242.3l-5.31-8.14h3.45l3.42,5.36,3.4-5.36H260l-5.3,8.14v5.86h-3Z"/></g><g id="ICON"><rect class="cls-2" x="84.95" y="164" width="54.32" height="33.42" transform="matrix(-1, 0, 0, -1, 224.21, 361.43)"/><rect class="cls-3" x="89.82" y="158.08" width="16.71" height="5.92"/><rect class="cls-3" x="117.68" y="158.08" width="16.71" height="5.92"/><rect class="cls-2" x="166.42" y="164" width="108.63" height="33.42" transform="matrix(-1, 0, 0, -1, 441.47, 361.43)"/><rect class="cls-3" x="171.3" y="158.08" width="16.71" height="5.92"/><rect class="cls-3" x="199.15" y="158.08" width="16.71" height="5.92"/><rect class="cls-3" x="225.61" y="158.08" width="16.71" height="5.92"/><rect class="cls-3" x="253.47" y="158.08" width="16.71" height="5.92"/><rect class="cls-2" x="112.11" y="130.58" width="108.63" height="33.42" transform="matrix(-1, 0, 0, -1, 332.84, 294.58)"/><rect class="cls-3" x="116.98" y="124.66" width="16.71" height="5.92"/><rect class="cls-3" x="144.83" y="124.66" width="16.71" height="5.92"/><rect class="cls-3" x="171.3" y="124.66" width="16.71" height="5.92"/><rect class="cls-3" x="199.15" y="124.66" width="16.71" height="5.92"/><rect class="cls-2" x="166.42" y="97.15" width="54.32" height="33.42" transform="matrix(-1, 0, 0, -1, 387.16, 227.73)"/><rect class="cls-3" x="171.3" y="91.23" width="16.71" height="5.92"/><rect class="cls-3" x="199.15" y="91.23" width="16.71" height="5.92"/></g></svg>