<svg xmlns="http://www.w3.org/2000/svg" viewBox="0 0 360 360"><defs><style>.cls-1,.cls-2{fill:#fff;}.cls-2{stroke:#fff;stroke-miterlimit:10;stroke-width:4px;}</style></defs><g id="BACKGROUND"><rect x="-1" width="360" height="360"/></g><g id="LINE_ONE" data-name="LINE ONE"><path class="cls-1" d="M130.43,237.84a1.34,1.34,0,0,0,.78,1.29,9.48,9.48,0,0,0,2.48.67,7.86,7.86,0,0,1,3.67,1.38,3.48,3.48,0,0,1,1.17,2.86,3.92,3.92,0,0,1-.42,1.83,4.07,4.07,0,0,1-1.17,1.38,5.65,5.65,0,0,1-1.79.88,7.77,7.77,0,0,1-2.26.31,7.68,7.68,0,0,1-2.38-.35,5.87,5.87,0,0,1-1.8-.93,4.41,4.41,0,0,1-1.16-1.36,3.81,3.81,0,0,1-.46-1.62l3-.48a2.56,2.56,0,0,0,.79,1.67,2.84,2.84,0,0,0,2,.65,4.61,4.61,0,0,0,1-.1,2.52,2.52,0,0,0,.82-.33,1.66,1.66,0,0,0,.55-.57,1.63,1.63,0,0,0,.2-.82,1.35,1.35,0,0,0-.65-1.2,6.31,6.31,0,0,0-2.29-.68,18.1,18.1,0,0,1-2-.46,5.47,5.47,0,0,1-1.63-.77,3.51,3.51,0,0,1-1.08-1.22,3.76,3.76,0,0,1-.39-1.79,3.93,3.93,0,0,1,.4-1.84,3.72,3.72,0,0,1,1.12-1.31,5,5,0,0,1,1.7-.79,8,8,0,0,1,2.14-.26,7.71,7.71,0,0,1,2,.25,5.28,5.28,0,0,1,1.67.74,4.36,4.36,0,0,1,1.21,1.21,4.49,4.49,0,0,1,.66,1.64l-3,.66a2.45,2.45,0,0,0-.82-1.52,2.67,2.67,0,0,0-1.78-.56,2.78,2.78,0,0,0-1.69.42A1.33,1.33,0,0,0,130.43,237.84Z"/><path class="cls-1" d="M141.63,234.16h11.1v2.5h-4v11.5h-3v-11.5h-4Z"/><path class="cls-1" d="M162.47,248.44a5.56,5.56,0,0,1-4.26-1.44,5.65,5.65,0,0,1-1.34-4v-8.84h3V243a3.33,3.33,0,0,0,.64,2.11,2.73,2.73,0,0,0,3.92,0,3.33,3.33,0,0,0,.64-2.11v-8.86h3V243a5.65,5.65,0,0,1-1.34,4A5.56,5.56,0,0,1,162.47,248.44Z"/><path class="cls-1" d="M173.27,234.16h5.22a8.36,8.36,0,0,1,2.88.47,5.66,5.66,0,0,1,3.51,3.55,9.68,9.68,0,0,1,0,6,5.66,5.66,0,0,1-3.51,3.55,8.36,8.36,0,0,1-2.88.47h-5.22Zm9,7a7,7,0,0,0-.23-1.85,4,4,0,0,0-.7-1.43,3,3,0,0,0-1.19-.92,4.26,4.26,0,0,0-1.72-.32h-2.12v9h2.12a4.26,4.26,0,0,0,1.72-.32,3,3,0,0,0,1.19-.92A4.07,4.07,0,0,0,182,243,7,7,0,0,0,182.25,241.16Z"/><path class="cls-1" d="M190.05,248.16v-14h9.54v2.48H193v3.08h6.12v2.48H193v3.48h6.68v2.48Z"/><path class="cls-1" d="M204.33,234.16h3.12l2.32,3.76,1.08,1.75.84,1.37.8,1.29.64,1h.06v-9.2H216v14h-3.12l-2.28-3.7-1.07-1.73c-.29-.46-.57-.92-.85-1.38L207.9,240c-.26-.42-.48-.78-.67-1.07h-.06v9.2h-2.84Z"/><path class="cls-1" d="M220.25,234.16h11.1v2.5h-4v11.5h-3v-11.5h-4Z"/></g><g id="LINE_TWO" data-name="LINE TWO"><path class="cls-1" d="M138.85,255.62a1.34,1.34,0,0,0,.78,1.29,9.1,9.1,0,0,0,2.48.67,7.86,7.86,0,0,1,3.67,1.38,3.49,3.49,0,0,1,1.17,2.86,3.92,3.92,0,0,1-.42,1.83,4.07,4.07,0,0,1-1.17,1.38,5.44,5.44,0,0,1-1.79.88,7.77,7.77,0,0,1-2.26.31,7.39,7.39,0,0,1-2.38-.35,5.66,5.66,0,0,1-1.8-.93,4.3,4.3,0,0,1-1.16-1.36,3.81,3.81,0,0,1-.46-1.62l3-.48a2.56,2.56,0,0,0,.79,1.67,2.8,2.8,0,0,0,2,.65,4.61,4.61,0,0,0,1-.1,2.14,2.14,0,0,0,.82-.33,1.66,1.66,0,0,0,.55-.57,1.61,1.61,0,0,0,.2-.82,1.35,1.35,0,0,0-.65-1.2,6.52,6.52,0,0,0-2.29-.68,16.15,16.15,0,0,1-2-.46,5.23,5.23,0,0,1-1.63-.77,3.42,3.42,0,0,1-1.08-1.22,3.73,3.73,0,0,1-.39-1.79,4,4,0,0,1,.4-1.84,3.81,3.81,0,0,1,1.12-1.31,5.22,5.22,0,0,1,1.7-.79,8.48,8.48,0,0,1,2.14-.26,8.16,8.16,0,0,1,2,.25,5.77,5.77,0,0,1,1.67.74,4.36,4.36,0,0,1,1.21,1.21,4.49,4.49,0,0,1,.66,1.64l-3,.66a2.48,2.48,0,0,0-.82-1.52,2.67,2.67,0,0,0-1.78-.56,2.78,2.78,0,0,0-1.69.42A1.34,1.34,0,0,0,138.85,255.62Z"/><path class="cls-1" d="M163.77,265.94h-3.1l-1.12-3.24h-5l-1.12,3.24h-2.94l5-14h3.22ZM157,255.22c0,.11-.07.27-.14.47s-.14.44-.22.7-.17.54-.27.84l-.29.87c-.23.7-.47,1.44-.74,2.22h3.38c-.27-.78-.51-1.52-.74-2.22-.15-.4-.26-.73-.35-1s-.17-.51-.24-.75-.14-.46-.21-.67-.11-.36-.14-.47Z"/><path class="cls-1" d="M167.91,265.94v-14h9.58v2.48h-6.62v3.08H177V260h-6.1v6Z"/><path class="cls-1" d="M182,265.94v-14h9.54v2.48h-6.58v3.08h6.12V260h-6.12v3.48h6.68v2.48Z"/><path class="cls-1" d="M195.19,251.94h11.1v2.5h-4v11.5h-3v-11.5h-4Z"/><path class="cls-1" d="M214.75,260.08l-5.3-8.14h3.44l3.42,5.36,3.4-5.36h3.34l-5.3,8.14v5.86h-3Z"/></g><g id="ICON"><path class="cls-2" d="M124,186.07c4.64-9.27,9.12-18.63,13.94-27.81,10.45-19.89,21.05-39.69,31.61-59.52a25,25,0,0,1,2.22-3.6c4.95-6.46,12.27-6.39,16.72.43,2.86,4.37,5.13,9.13,7.6,13.76q18.36,34.47,36.65,69c1.3,2.47,2.18,5.17,3.26,7.76v3.5c-2,7.31-7.23,9.36-14.21,9.33q-41.79-.17-83.59,0c-7,0-12.25-2-14.2-9.33Zm55.79,7.81v0q19.11,0,38.24,0a66.34,66.34,0,0,0,7.73-.26c4.1-.51,6.18-3.47,5.18-7.48a28.1,28.1,0,0,0-2.59-6.19q-20.92-39.5-41.94-79c-1.42-2.66-2.88-5.55-6.44-5.52s-5,2.94-6.38,5.61q-17.85,33.5-35.66,67c-2.81,5.29-5.74,10.53-8.26,16s.17,9.46,6.12,9.78c.58,0,1.17,0,1.75,0Z"/><path d="M179.79,193.88H137.54c-.58,0-1.17,0-1.75,0-5.95-.32-8.63-4.36-6.12-9.78s5.45-10.68,8.26-16q17.81-33.52,35.66-67c1.41-2.67,2.82-5.59,6.38-5.61s5,2.86,6.44,5.52q21,39.46,41.94,79a28.1,28.1,0,0,1,2.59,6.19c1,4-1.08,7-5.18,7.48a66.34,66.34,0,0,1-7.73.26q-19.12,0-38.24,0Zm1-39.61.62.06c.49,1.41,1,2.81,1.48,4.21q2.76,8,5.52,16.05c.57,1.67,1.78,2.78,3.35,1.9.91-.52,1.32-2.17,1.64-3.4.17-.62-.32-1.43-.56-2.13-1.87-5.43-3.69-10.87-5.63-16.28-1.31-3.67-2.71-7.29-.9-11.19,2.89,1.93,3.23,2.7,3.71,6.37a4.19,4.19,0,0,0,1.77,2.57c.39.26,2.19-.55,2.2-.91.09-2.46.73-5.49-.43-7.27-2.15-3.27-5.37-5.86-8.24-8.63-1.75-1.68-5.87-1.47-7.45.3-3.27,3.66-6.48,7.38-9.72,11.07-1.13,1.28-1.56,2.7-.23,4s2.69.5,3.8-.73c1.46-1.61,3-3.16,4.48-4.74l.6.29c0,1.52.42,3.2-.08,4.54-1.3,3.5-3,6.84-4.53,10.26-1.69,3.8-3.38,7.6-5,11.44-.71,1.7-.57,3.41,1.36,4.21,1.77.74,2.79-.39,3.45-1.93.88-2.07,1.8-4.12,2.7-6.18Zm36.49,29.32c-3-4.37-5.66-8.25-8.3-12.15-2.48-3.65-3.25-3.95-8.07-2.88,2.5,4.82,4.95,9.59,7.48,14.31a1.9,1.9,0,0,0,1.41.69C212.13,183.63,214.44,183.59,217.3,183.59Zm-58.19-15.11c-4.08-1-6.88-.17-8.53,3.51a25.6,25.6,0,0,1-2.48,3.72l-5.39,7.88c2.84,0,5.14,0,7.44,0a1.9,1.9,0,0,0,1.43-.67C154.11,178.16,156.56,173.39,159.11,168.48Zm17.8,14.91h7.52l-1.38-14.64h-6.14Zm24.22.2c-1.61-4.81-3.15-9.19-4.5-13.63-.56-1.8-1.48-2.13-3.19-1.48.15.48.25.87.39,1.25,1.16,3.23,1.83,6.34-1.87,8.53a1.67,1.67,0,0,0-.45,1.27c.05,3.5.67,4.08,4.19,4.07Zm-41.47,0h4.61c4.68,0,4.68,0,5.07-4.15-1.54-2.07-3.32-3.51-3.72-5.27s.52-3.93.89-6.07c-.63.14-1.44.11-1.52.35C163.22,173.34,161.53,178.24,159.66,183.6Zm18.85-58.1a3.86,3.86,0,0,0-3.57,4,3.59,3.59,0,1,0,7.11-.33A3.56,3.56,0,0,0,178.51,125.5Z"/><path class="cls-1" d="M180.81,154.27l-6.06,13.86c-.9,2.06-1.82,4.11-2.7,6.18-.66,1.54-1.68,2.67-3.45,1.93-1.93-.8-2.07-2.51-1.36-4.21,1.59-3.84,3.28-7.64,5-11.44,1.51-3.42,3.23-6.76,4.53-10.26.5-1.34.08-3,.08-4.54l-.6-.29c-1.5,1.58-3,3.13-4.48,4.74-1.11,1.23-2.34,2.15-3.8.73s-.9-2.7.23-4c3.24-3.69,6.45-7.41,9.72-11.07,1.58-1.77,5.7-2,7.45-.3,2.87,2.77,6.09,5.36,8.24,8.63,1.16,1.78.52,4.81.43,7.27,0,.36-1.81,1.17-2.2.91a4.19,4.19,0,0,1-1.77-2.57c-.48-3.67-.82-4.44-3.71-6.37-1.81,3.9-.41,7.52.9,11.19,1.94,5.41,3.76,10.85,5.63,16.28.24.7.73,1.51.56,2.13-.32,1.23-.73,2.88-1.64,3.4-1.57.88-2.78-.23-3.35-1.9q-2.75-8-5.52-16.05c-.49-1.4-1-2.8-1.48-4.21Z"/><path class="cls-1" d="M217.3,183.59c-2.86,0-5.17,0-7.48,0a1.9,1.9,0,0,1-1.41-.69c-2.53-4.72-5-9.49-7.48-14.31,4.82-1.07,5.59-.77,8.07,2.88C211.64,175.34,214.31,179.22,217.3,183.59Z"/><path class="cls-1" d="M159.11,168.48c-2.55,4.91-5,9.68-7.53,14.41a1.9,1.9,0,0,1-1.43.67c-2.3.07-4.6,0-7.44,0l5.39-7.88a25.6,25.6,0,0,0,2.48-3.72C152.23,168.31,155,167.43,159.11,168.48Z"/><path class="cls-1" d="M176.91,183.39V168.75h6.14l1.38,14.64Z"/><path class="cls-1" d="M201.13,183.59H195.7c-3.52,0-4.14-.57-4.19-4.07a1.67,1.67,0,0,1,.45-1.27c3.7-2.19,3-5.3,1.87-8.53-.14-.38-.24-.77-.39-1.25,1.71-.65,2.63-.32,3.19,1.48C198,174.4,199.52,178.78,201.13,183.59Z"/><path class="cls-1" d="M159.66,183.6c1.87-5.36,3.56-10.26,5.33-15.14.08-.24.89-.21,1.52-.35-.37,2.14-1.31,4.26-.89,6.07s2.18,3.2,3.72,5.27c-.39,4.16-.39,4.16-5.07,4.15Z"/><path class="cls-1" d="M178.51,125.5a3.56,3.56,0,0,1,3.54,3.7,3.59,3.59,0,1,1-7.11.33A3.86,3.86,0,0,1,178.51,125.5Z"/></g></svg>