<svg xmlns="http://www.w3.org/2000/svg" viewBox="0 0 360 360"><defs><style>.cls-1{fill:#fff;}</style></defs><g id="BACKGROUND"><rect x="-1" width="360" height="360"/></g><g id="LINE_ONE" data-name="LINE ONE"><path class="cls-1" d="M77.24,234.16h3v14h-3Z"/><path class="cls-1" d="M85.52,234.16h3.12L91,237.92,92,239.67l.84,1.37.8,1.29.64,1h.06v-9.2h2.84v14H94.1l-2.28-3.7-1.07-1.73c-.29-.46-.57-.92-.85-1.38L89.09,240c-.26-.42-.48-.78-.67-1.07h-.06v9.2H85.52Z"/><path class="cls-1" d="M102.5,248.16v-14h9.58v2.48h-6.62v3.08h6.1v2.48h-6.1v6Z"/><path class="cls-1" d="M127,238.42a4.26,4.26,0,0,1-.71,2.54,4.21,4.21,0,0,1-2,1.46l3.22,5.74h-3.3l-2.9-5.3h-1.86v5.3h-3v-14h5.12a8.89,8.89,0,0,1,2.21.25,4.78,4.78,0,0,1,1.69.77,3.46,3.46,0,0,1,1.08,1.32A4.47,4.47,0,0,1,127,238.42Zm-3.08,0a1.51,1.51,0,0,0-.65-1.41,3.91,3.91,0,0,0-2-.39h-1.8v3.78h1.8a3.48,3.48,0,0,0,2-.45A1.74,1.74,0,0,0,124,238.44Z"/><path class="cls-1" d="M144.24,248.16h-3.1L140,244.92h-5l-1.12,3.24h-2.94l5-14h3.22Zm-6.76-10.72c0,.11-.07.26-.14.47s-.14.44-.22.7-.17.54-.27.84l-.29.87c-.23.69-.47,1.43-.74,2.22h3.38c-.27-.79-.51-1.53-.74-2.22-.15-.4-.26-.73-.35-1s-.17-.51-.24-.75-.14-.46-.21-.67-.11-.36-.14-.47Z"/><path class="cls-1" d="M150.9,237.84a1.34,1.34,0,0,0,.78,1.29,9.48,9.48,0,0,0,2.48.67,7.86,7.86,0,0,1,3.67,1.38A3.48,3.48,0,0,1,159,244a3.92,3.92,0,0,1-.42,1.83,4.07,4.07,0,0,1-1.17,1.38,5.65,5.65,0,0,1-1.79.88,7.77,7.77,0,0,1-2.26.31,7.68,7.68,0,0,1-2.38-.35,5.66,5.66,0,0,1-1.8-.93A4.41,4.41,0,0,1,148,245.8a3.81,3.81,0,0,1-.46-1.62l3-.48a2.56,2.56,0,0,0,.79,1.67,2.84,2.84,0,0,0,2,.65,4.61,4.61,0,0,0,1-.1,2.52,2.52,0,0,0,.82-.33,1.66,1.66,0,0,0,.55-.57,1.63,1.63,0,0,0,.2-.82,1.35,1.35,0,0,0-.65-1.2,6.31,6.31,0,0,0-2.29-.68,16.15,16.15,0,0,1-2-.46,5.47,5.47,0,0,1-1.63-.77,3.51,3.51,0,0,1-1.08-1.22,3.76,3.76,0,0,1-.39-1.79,3.93,3.93,0,0,1,.4-1.84,3.72,3.72,0,0,1,1.12-1.31,5,5,0,0,1,1.7-.79,8.48,8.48,0,0,1,2.14-.26,7.71,7.71,0,0,1,2,.25,5.51,5.51,0,0,1,1.67.74,4.36,4.36,0,0,1,1.21,1.21,4.49,4.49,0,0,1,.66,1.64l-3,.66a2.45,2.45,0,0,0-.82-1.52,2.67,2.67,0,0,0-1.78-.56,2.78,2.78,0,0,0-1.69.42A1.33,1.33,0,0,0,150.9,237.84Z"/><path class="cls-1" d="M162.1,234.16h11.1v2.5h-4v11.5h-3v-11.5h-4Z"/><path class="cls-1" d="M187.9,238.42a4.26,4.26,0,0,1-.71,2.54,4.21,4.21,0,0,1-1.95,1.46l3.22,5.74h-3.3l-2.9-5.3H180.4v5.3h-3v-14h5.12a8.89,8.89,0,0,1,2.21.25,4.78,4.78,0,0,1,1.69.77,3.46,3.46,0,0,1,1.08,1.32A4.47,4.47,0,0,1,187.9,238.42Zm-3.08,0a1.51,1.51,0,0,0-.65-1.41,3.91,3.91,0,0,0-2-.39h-1.8v3.78h1.8a3.48,3.48,0,0,0,2-.45A1.74,1.74,0,0,0,184.82,238.44Z"/><path class="cls-1" d="M198.26,248.44A5.56,5.56,0,0,1,194,247a5.65,5.65,0,0,1-1.34-4v-8.84h3V243a3.33,3.33,0,0,0,.64,2.11,2.73,2.73,0,0,0,3.92,0,3.33,3.33,0,0,0,.64-2.11v-8.86h3V243a5.65,5.65,0,0,1-1.34,4A5.56,5.56,0,0,1,198.26,248.44Z"/><path class="cls-1" d="M208.48,241.16a9.12,9.12,0,0,1,.48-3.07,6.47,6.47,0,0,1,1.37-2.29,5.75,5.75,0,0,1,2.16-1.43,7.82,7.82,0,0,1,2.85-.49,6.83,6.83,0,0,1,3.76,1,5.35,5.35,0,0,1,2.16,3l-2.92,1a3.92,3.92,0,0,0-1.08-1.83,2.86,2.86,0,0,0-2-.65,3.51,3.51,0,0,0-1.62.36,3.26,3.26,0,0,0-1.16,1,4.28,4.28,0,0,0-.69,1.51,7.77,7.77,0,0,0-.23,1.92,7.63,7.63,0,0,0,.23,1.91,4.45,4.45,0,0,0,.69,1.51,3.19,3.19,0,0,0,1.16,1,3.54,3.54,0,0,0,1.64.36,2.94,2.94,0,0,0,1.89-.58,3.53,3.53,0,0,0,1.11-1.76l2.88,1a6.07,6.07,0,0,1-2.16,2.8,6.42,6.42,0,0,1-3.76,1,7.7,7.7,0,0,1-2.79-.49,5.94,5.94,0,0,1-2.14-1.42,6.3,6.3,0,0,1-1.37-2.29A9.26,9.26,0,0,1,208.48,241.16Z"/><path class="cls-1" d="M224.6,234.16h11.1v2.5h-4v11.5h-3v-11.5h-4Z"/><path class="cls-1" d="M245.44,248.44a5.56,5.56,0,0,1-4.26-1.44,5.65,5.65,0,0,1-1.34-4v-8.84h3V243a3.33,3.33,0,0,0,.64,2.11,2.73,2.73,0,0,0,3.92,0A3.33,3.33,0,0,0,248,243v-8.86h3V243a5.65,5.65,0,0,1-1.34,4A5.56,5.56,0,0,1,245.44,248.44Z"/><path class="cls-1" d="M266.72,238.42A4.26,4.26,0,0,1,266,241a4.21,4.21,0,0,1-1.95,1.46l3.22,5.74H264l-2.9-5.3h-1.86v5.3h-3v-14h5.12a8.89,8.89,0,0,1,2.21.25,4.78,4.78,0,0,1,1.69.77,3.46,3.46,0,0,1,1.08,1.32A4.47,4.47,0,0,1,266.72,238.42Zm-3.08,0A1.51,1.51,0,0,0,263,237a3.91,3.91,0,0,0-2-.39h-1.8v3.78H261a3.48,3.48,0,0,0,2-.45A1.74,1.74,0,0,0,263.64,238.44Z"/><path class="cls-1" d="M271.76,248.16v-14h9.54v2.48h-6.58v3.08h6.12v2.48h-6.12v3.48h6.68v2.48Z"/></g><g id="ICON"><path class="cls-1" d="M117.49,95.37c.2-.2.47-.38.57-.62a7,7,0,0,1,6.84-4.46q9.82,0,19.65,0a7,7,0,0,1,7,4.82c1,2.92,0,5.79-2.64,7.95a1.79,1.79,0,0,0-.59,1.17q0,16.16,0,32.31a1.93,1.93,0,0,0,.69,1.26,7,7,0,0,1,0,11.35c-.31.25-.7.65-.7,1a84,84,0,0,0,.21,8.55,9.93,9.93,0,0,0,4.63,7.2c.31.21,1,.34,1.2.16,3.27-3.08,7.34-2.54,10.48.35a11,11,0,0,0,5.64-9.34c.13-2.24.06-4.48,0-6.72a2,2,0,0,0-.59-1.31c-3.58-3.19-3.6-7.81-.06-11a2.47,2.47,0,0,0,.65-1.7,38,38,0,0,1,9-25.27c6.65-8,15.17-12.85,25.54-13.67,7.43-.59,14.93-.29,22.39-.31a4.87,4.87,0,0,0,3.72-1.36,6.83,6.83,0,0,1,10.47,1.55,7.37,7.37,0,0,0,.92,1v25.59a5.32,5.32,0,0,0-.76.82,7,7,0,0,1-11.58.93,2.18,2.18,0,0,0-1.34-.81c-6.94,0-13.89-.17-20.82.12-5.43.23-10.38,5.38-9.77,12.18a1.82,1.82,0,0,0,.62.92c3.56,3.37,3.51,7.68-.1,11a2.37,2.37,0,0,0-.52,1.48c-.23,4.25,0,8.56-.67,12.74a38.68,38.68,0,0,1-31,31.68,3.91,3.91,0,0,0-2,1.07,7.07,7.07,0,0,1-10.43-.1,3,3,0,0,0-1.5-.9,38.73,38.73,0,0,1-31.55-32.14c-.63-4-.42-8.14-.53-12.22a2.93,2.93,0,0,0-.91-2.31,13.6,13.6,0,0,1-1.49-2.14,8.8,8.8,0,0,0-.65-.72v-4c.21-.25.44-.49.63-.75.58-.82,1.19-1.62,1.72-2.47a3.39,3.39,0,0,0,.64-1.57c0-10.05,0-20.1.06-30.15,0-2,.25-3.94-1.67-5.32-.39-.27-.51-.9-.79-1.34a4.17,4.17,0,0,0-.59-.6Zm111,6.14c-.5,0-.93-.07-1.36-.07-6.29,0-12.57,0-18.85,0a26.87,26.87,0,0,0-5.87.65c-13.7,3.21-22.51,11.66-26.47,25.12a25.39,25.39,0,0,0-1,9.2h1.81c5.18-.05,10.37-.12,15.55-.12,1.06,0,1.39-.31,1.49-1.4.76-8.72,7.21-14.63,16-14.66,5.8,0,11.6,0,17.4,0,1,0,1.38-.24,1.37-1.32,0-5.41,0-10.82.06-16.22C228.57,102.35,228.52,102,228.49,101.51ZM125.16,150.65c-.72,10,.44,19.89,8.82,29.18a33.62,33.62,0,0,0,18.09,10.48,2.77,2.77,0,0,0,.16-.59c0-6.1.1-12.21.07-18.31a2.06,2.06,0,0,0-.91-1.38,15.78,15.78,0,0,1-6-6.66,18.75,18.75,0,0,1-1.55-8.86c0-1.3,0-2.6,0-3.86Zm41.28,39.53c6.58-.9,14.58-5.41,19.89-12.13,6.35-8,8.14-17.3,7.22-27.32a3.15,3.15,0,0,0-.61-.13c-5.67,0-11.34,0-17,0-.8,0-1,.39-1,1.06,0,1.54,0,3.08,0,4.61-.06,5.88-2.44,10.53-7.42,13.72a2,2,0,0,0-1,1.92c0,4.48-.06,9-.08,13.44C166.43,186.93,166.44,188.54,166.44,190.18Zm-22.65-85.76c-.5,0-.89-.06-1.28-.06-5.36,0-10.72.08-16.08,0-1.22,0-1.45.46-1.45,1.55q0,14.43,0,28.87c0,1.18.39,1.5,1.51,1.5,4.18,0,8.35,0,12.52.05h4.79Zm89.2,6.66h0c0,3.25-.07,6.51,0,9.75a4.14,4.14,0,0,0,1,2.41,2.15,2.15,0,0,0,2.68.33,2.86,2.86,0,0,0,1.52-2.84q0-9.62,0-19.24c0-2-1.11-3.25-2.72-3.21s-2.6,1.27-2.61,3.19C233,104.67,233,107.88,233,111.08ZM134.77,99.93v0h9.62c1.88,0,3.12-1,3.14-2.63a2.74,2.74,0,0,0-3-2.7q-9.81,0-19.63,0a2.7,2.7,0,0,0-3,2.69c0,1.52,1.25,2.56,3.06,2.57Zm49.53,46.18v0c3.25,0,6.5,0,9.75,0,1.79,0,3-1.06,3.07-2.56s-1.13-2.75-3-2.76q-9.75,0-19.49,0c-1.89,0-3.08,1.17-3,2.75s1.26,2.5,3.11,2.51Zm-49.53,0h9.62c1.87,0,3.13-1.06,3.15-2.63s-1.24-2.67-3.13-2.68q-9.61,0-19.23.05a4.26,4.26,0,0,0-2,.49,2.3,2.3,0,0,0-1.09,2.84,2.55,2.55,0,0,0,2.67,1.92Zm22,34.91h0c0,3.34,0,6.67,0,10a2.65,2.65,0,0,0,2.58,2.88,2.62,2.62,0,0,0,2.59-2.76q.06-10,0-20a2.62,2.62,0,1,0-5.21.14C156.76,174.53,156.77,177.78,156.77,181Z"/></g></svg>