<svg xmlns="http://www.w3.org/2000/svg" viewBox="0 0 360 360"><defs><style>.cls-1{fill:#fff;}.cls-2{fill:#01000b;}.cls-3,.cls-4{fill:none;stroke:#01000b;stroke-miterlimit:10;}.cls-3{stroke-width:3px;}</style></defs><title>01-FOCUS-WHITE</title><g id="BACKGROUND"><rect class="cls-1" width="360" height="360"/></g><g id="LINE_ONE" data-name="LINE ONE"><path class="cls-2" d="M142.43,248.16v-14H152v2.48h-6.62v3.08h6.1v2.48h-6.1v6Z"/><path class="cls-2" d="M155.91,241.16a8.83,8.83,0,0,1,.49-3,6.64,6.64,0,0,1,1.38-2.29,5.82,5.82,0,0,1,2.15-1.44,8.09,8.09,0,0,1,5.6,0,5.82,5.82,0,0,1,2.15,1.44,6.64,6.64,0,0,1,1.38,2.29,9.74,9.74,0,0,1,0,6.1,6.64,6.64,0,0,1-1.38,2.29,5.82,5.82,0,0,1-2.15,1.44,8.09,8.09,0,0,1-5.6,0,5.82,5.82,0,0,1-2.15-1.44,6.64,6.64,0,0,1-1.38-2.29A8.83,8.83,0,0,1,155.91,241.16Zm3.1,0a8,8,0,0,0,.23,2,4.33,4.33,0,0,0,.69,1.52,3.14,3.14,0,0,0,1.16,1,4,4,0,0,0,3.28,0,3.14,3.14,0,0,0,1.16-1,4.33,4.33,0,0,0,.69-1.52,8.38,8.38,0,0,0,0-3.9,4.33,4.33,0,0,0-.69-1.52,3.14,3.14,0,0,0-1.16-1,4,4,0,0,0-3.28,0,3.14,3.14,0,0,0-1.16,1,4.33,4.33,0,0,0-.69,1.52A7.9,7.9,0,0,0,159,241.16Z"/><path class="cls-2" d="M173.87,241.16a9.12,9.12,0,0,1,.48-3.07,6.39,6.39,0,0,1,1.37-2.29,5.75,5.75,0,0,1,2.16-1.43,7.82,7.82,0,0,1,2.85-.49,6.83,6.83,0,0,1,3.76,1,5.32,5.32,0,0,1,2.16,3l-2.92,1a3.92,3.92,0,0,0-1.08-1.83,2.82,2.82,0,0,0-2-.65,3.51,3.51,0,0,0-1.62.36,3.26,3.26,0,0,0-1.16,1,4.28,4.28,0,0,0-.69,1.51,7.71,7.71,0,0,0-.23,1.92,7.63,7.63,0,0,0,.23,1.91,4.45,4.45,0,0,0,.69,1.51,3.29,3.29,0,0,0,1.16,1,3.54,3.54,0,0,0,1.64.36,2.94,2.94,0,0,0,1.89-.58,3.57,3.57,0,0,0,1.11-1.76l2.88,1a6.07,6.07,0,0,1-2.16,2.8,6.42,6.42,0,0,1-3.76,1,7.7,7.7,0,0,1-2.79-.49,5.94,5.94,0,0,1-2.14-1.42,6.3,6.3,0,0,1-1.37-2.29A9.26,9.26,0,0,1,173.87,241.16Z"/><path class="cls-2" d="M196.57,248.44a5.56,5.56,0,0,1-4.26-1.44,5.65,5.65,0,0,1-1.34-4v-8.84h3V243a3.33,3.33,0,0,0,.64,2.11,2.73,2.73,0,0,0,3.92,0,3.33,3.33,0,0,0,.64-2.11v-8.86h3V243a5.65,5.65,0,0,1-1.34,4A5.56,5.56,0,0,1,196.57,248.44Z"/><path class="cls-2" d="M210.09,237.84a1.34,1.34,0,0,0,.78,1.29,9.48,9.48,0,0,0,2.48.67,7.86,7.86,0,0,1,3.67,1.38,3.48,3.48,0,0,1,1.17,2.86,3.92,3.92,0,0,1-.42,1.83,4.07,4.07,0,0,1-1.17,1.38,5.65,5.65,0,0,1-1.79.88,8.12,8.12,0,0,1-2.26.31,7.68,7.68,0,0,1-2.38-.35,5.87,5.87,0,0,1-1.8-.93,4.41,4.41,0,0,1-1.16-1.36,3.81,3.81,0,0,1-.46-1.62l3-.48a2.56,2.56,0,0,0,.79,1.67,2.84,2.84,0,0,0,2,.65,4.61,4.61,0,0,0,1-.1,2.52,2.52,0,0,0,.82-.33,1.66,1.66,0,0,0,.55-.57,1.63,1.63,0,0,0,.2-.82,1.35,1.35,0,0,0-.65-1.2,6.31,6.31,0,0,0-2.29-.68,18.1,18.1,0,0,1-2-.46,5.47,5.47,0,0,1-1.63-.77,3.51,3.51,0,0,1-1.08-1.22,3.76,3.76,0,0,1-.39-1.79,3.93,3.93,0,0,1,.4-1.84,3.72,3.72,0,0,1,1.12-1.31,5,5,0,0,1,1.7-.79,8,8,0,0,1,2.14-.26,7.71,7.71,0,0,1,2,.25,5.28,5.28,0,0,1,1.67.74,4.36,4.36,0,0,1,1.21,1.21,4.49,4.49,0,0,1,.66,1.64l-3,.66a2.45,2.45,0,0,0-.82-1.52,2.67,2.67,0,0,0-1.78-.56,2.78,2.78,0,0,0-1.69.42A1.33,1.33,0,0,0,210.09,237.84Z"/></g><g id="ICON"><path class="cls-3" d="M220.75,149.23c.69-10-.17-19.64-5.56-28.41a1.91,1.91,0,0,0-1.13-.81,6.93,6.93,0,0,1-4.43-2.64c-6.48-7.84-14.76-12.64-24.87-13.78-13.74-1.56-25.19,3.09-34.21,13.6a7.5,7.5,0,0,1-4.77,2.86,1.8,1.8,0,0,0-1.06.89,39.81,39.81,0,0,0-5.59,19.83c0,2.81,0,5.61,0,8.47a19.31,19.31,0,0,1,2.62-1,6.53,6.53,0,0,1,7.92,6.62c.05,3.31,0,6.62,0,9.94q0,13.13,0,26.26c0,3.63-2,6.24-5.29,6.92a6.45,6.45,0,0,1-7.42-4.15,1.27,1.27,0,0,0-1.44-1c-2.74,0-4.28-1.52-4.22-4.3a3.34,3.34,0,0,0-1.17-2.82,36.74,36.74,0,0,1-3.36-3.36,3,3,0,0,1-.75-1.78q-.09-7.46,0-14.91a2.88,2.88,0,0,1,.72-1.69c1.21-1.33,2.5-2.59,3.8-3.83a2.21,2.21,0,0,0,.76-1.79c0-6.41-.11-12.83.07-19.23a46.27,46.27,0,0,1,6.86-22.7,2.58,2.58,0,0,0,.39-2,6.33,6.33,0,0,1,1.59-5.4c7.77-9.39,17.52-15.63,29.53-17.81,20-3.63,36.72,2.33,50,17.76a6.54,6.54,0,0,1,1.58,5.92,1.79,1.79,0,0,0,.26,1.2,48.88,48.88,0,0,1,7.14,26.43c-.07,5.29,0,10.59,0,15.88a2.8,2.8,0,0,0,.69,1.67c1.24,1.36,2.62,2.59,3.85,3.95a2.82,2.82,0,0,1,.69,1.69c.05,4.94.06,9.87,0,14.81a3.19,3.19,0,0,1-.79,1.87c-1.12,1.27-2.34,2.45-3.57,3.6a2.5,2.5,0,0,0-.91,2.17,5.84,5.84,0,0,1-.22,2.12c-.52,1.68-2,2.57-4.06,2.58-.57,0-1-.05-1.3.74a6.49,6.49,0,0,1-7.13,4.5,6.61,6.61,0,0,1-5.67-6.51c0-.14,0-.28,0-.43q0-18,0-36.09a6.57,6.57,0,0,1,4.26-6.52,6.47,6.47,0,0,1,5.24.26c.29.13.57.29.86.43C220.7,149.26,220.75,149.23,220.75,149.23Z"/><path class="cls-4" d="M222.12,173.26q0-9.91,0-19.84a5.71,5.71,0,0,0-.16-1.65c-.65-2.12-3.24-3.59-5.87-3.39-3,.24-5.16,2-5.22,4.5-.07,2.75,0,5.5,0,8.25q0,15.94,0,31.9a4.69,4.69,0,0,0,3.74,4.73c3.74,1.05,7.5-1.07,7.51-4.31C222.14,186.72,222.12,180,222.12,173.26Z"/><path class="cls-4" d="M222.29,192.24c4,.5,5.29-.07,5.29-2.3q0-17,0-34c0-2.17-1.53-2.79-5.29-2.16Z"/><path class="cls-4" d="M137.79,193.77c0,3.24,3.77,5.36,7.51,4.31a4.69,4.69,0,0,0,3.75-4.73v-31.9c0-2.75,0-5.5,0-8.25-.06-2.47-2.2-4.26-5.22-4.5-2.63-.2-5.22,1.27-5.87,3.38a5.82,5.82,0,0,0-.16,1.66q0,9.93,0,19.84C137.78,180.31,137.75,187,137.79,193.77Z"/><path class="cls-4" d="M137.6,154.06c-3.73-.63-5.23,0-5.23,2.16q0,17,0,34c0,2.23,1.29,2.79,5.24,2.3Z"/><path class="cls-4" d="M220.51,113.55c0,3.24-2.88,5.85-6.45,5.85"/><path class="cls-4" d="M139.39,113.49c0,3.23,2.89,5.85,6.46,5.85"/></g></svg>