<?xml version="1.0" encoding="utf-8"?>
<!-- Generator: Adobe Illustrator 23.1.0, SVG Export Plug-In . SVG Version: 6.00 Build 0)  -->
<svg version="1.1" xmlns="http://www.w3.org/2000/svg" xmlns:xlink="http://www.w3.org/1999/xlink" x="0px" y="0px"
	 viewBox="0 0 360 360" enable-background="new 0 0 360 360" xml:space="preserve">
<g id="BACKGROUND">
	<rect x="0" y="0" width="360" height="360"/>
</g>
<g id="REF" display="none">
	
		<rect x="-360" y="90.33" display="inline" fill="none" stroke="#000000" stroke-width="0.25" stroke-miterlimit="10" width="360" height="108"/>
	
		<rect y="90.33" display="inline" fill="none" stroke="#FFFFFF" stroke-width="0.25" stroke-miterlimit="10" width="360" height="108"/>
	
		<line display="inline" fill="none" stroke="#FFFFFF" stroke-width="0.25" stroke-linecap="round" stroke-miterlimit="10" x1="180" y1="0.19" x2="180" y2="360.06"/>
</g>
<g id="LINE_ONE">
	<g>
		<path fill="#FFFFFF" d="M88.61,237.84c0,0.6,0.26,1.03,0.78,1.29c0.52,0.26,1.35,0.48,2.48,0.67c1.67,0.28,2.89,0.74,3.67,1.38
			c0.78,0.64,1.17,1.59,1.17,2.86c0,0.68-0.14,1.29-0.42,1.83c-0.28,0.54-0.67,1-1.17,1.38s-1.1,0.67-1.79,0.88
			c-0.69,0.21-1.45,0.31-2.26,0.31c-0.88,0-1.67-0.12-2.38-0.35c-0.71-0.23-1.31-0.54-1.8-0.93s-0.88-0.84-1.16-1.36
			c-0.28-0.52-0.43-1.06-0.46-1.62l3-0.48c0.07,0.68,0.33,1.24,0.79,1.67c0.46,0.43,1.13,0.65,2.01,0.65c0.36,0,0.7-0.03,1.01-0.1
			c0.31-0.07,0.59-0.18,0.82-0.33c0.23-0.15,0.42-0.34,0.55-0.57c0.13-0.23,0.2-0.5,0.2-0.82c0-0.52-0.22-0.92-0.65-1.2
			c-0.43-0.28-1.2-0.51-2.29-0.68c-0.73-0.12-1.41-0.27-2.04-0.46s-1.17-0.44-1.63-0.77c-0.46-0.33-0.82-0.73-1.08-1.22
			c-0.26-0.49-0.39-1.08-0.39-1.79c0-0.71,0.13-1.32,0.4-1.84c0.27-0.52,0.64-0.96,1.12-1.31c0.48-0.35,1.05-0.62,1.7-0.79
			c0.65-0.17,1.37-0.26,2.14-0.26c0.72,0,1.39,0.08,2.02,0.25c0.63,0.17,1.18,0.41,1.67,0.74c0.49,0.33,0.89,0.73,1.21,1.21
			c0.32,0.48,0.54,1.03,0.66,1.64l-3.04,0.66c-0.11-0.64-0.38-1.15-0.82-1.52s-1.03-0.56-1.78-0.56c-0.76,0-1.32,0.14-1.69,0.42
			C88.79,237,88.61,237.37,88.61,237.84z"/>
		<path fill="#FFFFFF" d="M106.89,248.44c-1.95,0-3.37-0.48-4.26-1.44s-1.34-2.29-1.34-4v-8.84h3v8.86c0,0.85,0.21,1.56,0.64,2.11
			c0.43,0.55,1.08,0.83,1.96,0.83s1.53-0.28,1.96-0.83c0.43-0.55,0.64-1.26,0.64-2.11v-8.86h3V243c0,1.71-0.45,3.04-1.34,4
			C110.26,247.96,108.84,248.44,106.89,248.44z"/>
		<path fill="#FFFFFF" d="M120.41,237.84c0,0.6,0.26,1.03,0.78,1.29c0.52,0.26,1.35,0.48,2.48,0.67c1.67,0.28,2.89,0.74,3.67,1.38
			c0.78,0.64,1.17,1.59,1.17,2.86c0,0.68-0.14,1.29-0.42,1.83c-0.28,0.54-0.67,1-1.17,1.38s-1.1,0.67-1.79,0.88
			c-0.69,0.21-1.45,0.31-2.26,0.31c-0.88,0-1.67-0.12-2.38-0.35c-0.71-0.23-1.31-0.54-1.8-0.93s-0.88-0.84-1.16-1.36
			c-0.28-0.52-0.43-1.06-0.46-1.62l3-0.48c0.07,0.68,0.33,1.24,0.79,1.67c0.46,0.43,1.13,0.65,2.01,0.65c0.36,0,0.7-0.03,1.01-0.1
			c0.31-0.07,0.59-0.18,0.82-0.33c0.23-0.15,0.42-0.34,0.55-0.57c0.13-0.23,0.2-0.5,0.2-0.82c0-0.52-0.22-0.92-0.65-1.2
			c-0.43-0.28-1.2-0.51-2.29-0.68c-0.73-0.12-1.41-0.27-2.04-0.46c-0.63-0.19-1.17-0.44-1.63-0.77c-0.46-0.33-0.82-0.73-1.08-1.22
			c-0.26-0.49-0.39-1.08-0.39-1.79c0-0.71,0.13-1.32,0.4-1.84c0.27-0.52,0.64-0.96,1.12-1.31c0.48-0.35,1.05-0.62,1.7-0.79
			c0.65-0.17,1.37-0.26,2.14-0.26c0.72,0,1.39,0.08,2.02,0.25c0.63,0.17,1.18,0.41,1.67,0.74c0.49,0.33,0.89,0.73,1.21,1.21
			c0.32,0.48,0.54,1.03,0.66,1.64l-3.04,0.66c-0.11-0.64-0.38-1.15-0.82-1.52s-1.03-0.56-1.78-0.56c-0.76,0-1.32,0.14-1.69,0.42
			C120.59,237,120.41,237.37,120.41,237.84z"/>
		<path fill="#FFFFFF" d="M131.61,234.16h11.1v2.5h-4.04v11.5h-3.02v-11.5h-4.04V234.16z"/>
		<path fill="#FFFFFF" d="M157.49,248.16h-3.1l-1.12-3.24h-5.02l-1.12,3.24h-2.94l5.04-14h3.22L157.49,248.16z M150.73,237.44
			c-0.03,0.11-0.07,0.26-0.14,0.47s-0.14,0.44-0.22,0.7s-0.17,0.54-0.27,0.84c-0.1,0.3-0.2,0.59-0.29,0.87
			c-0.23,0.69-0.47,1.43-0.74,2.22h3.38c-0.27-0.79-0.51-1.53-0.74-2.22c-0.15-0.4-0.26-0.73-0.35-0.99s-0.17-0.51-0.24-0.75
			s-0.14-0.46-0.21-0.67s-0.11-0.36-0.14-0.47H150.73z"/>
		<path fill="#FFFFFF" d="M161.63,234.16h3v14h-3V234.16z"/>
		<path fill="#FFFFFF" d="M169.91,234.16h3.12c0.81,1.32,1.59,2.57,2.32,3.76c0.44,0.71,0.8,1.29,1.08,1.75
			c0.28,0.46,0.56,0.92,0.84,1.37c0.28,0.45,0.55,0.88,0.8,1.29c0.25,0.41,0.47,0.75,0.64,1.03h0.06v-9.2h2.84v14h-3.12
			c-0.8-1.29-1.56-2.53-2.28-3.7c-0.43-0.69-0.78-1.27-1.07-1.73s-0.57-0.92-0.85-1.38c-0.28-0.46-0.55-0.9-0.81-1.32
			c-0.26-0.42-0.48-0.78-0.67-1.07h-0.06v9.2h-2.84V234.16z"/>
		<path fill="#FFFFFF" d="M199.05,248.16h-3.1l-1.12-3.24h-5.02l-1.12,3.24h-2.94l5.04-14h3.22L199.05,248.16z M192.29,237.44
			c-0.03,0.11-0.07,0.26-0.14,0.47c-0.07,0.21-0.14,0.44-0.22,0.7s-0.17,0.54-0.27,0.84s-0.2,0.59-0.29,0.87
			c-0.23,0.69-0.47,1.43-0.74,2.22h3.38c-0.27-0.79-0.51-1.53-0.74-2.22c-0.15-0.4-0.26-0.73-0.35-0.99
			c-0.09-0.26-0.17-0.51-0.24-0.75c-0.07-0.24-0.14-0.46-0.21-0.67c-0.07-0.21-0.11-0.36-0.14-0.47H192.29z"/>
		<path fill="#FFFFFF" d="M203.19,234.16h6.08c0.65,0,1.24,0.09,1.75,0.28s0.95,0.44,1.3,0.77c0.35,0.33,0.62,0.71,0.81,1.16
			c0.19,0.45,0.28,0.93,0.28,1.45c0,0.43-0.06,0.81-0.18,1.14c-0.12,0.33-0.28,0.62-0.47,0.87c-0.19,0.25-0.41,0.45-0.66,0.62
			s-0.5,0.3-0.77,0.39c0.31,0.04,0.62,0.13,0.93,0.26c0.31,0.13,0.6,0.32,0.87,0.57c0.27,0.25,0.48,0.56,0.65,0.93
			c0.17,0.37,0.25,0.83,0.25,1.38c0,0.6-0.11,1.16-0.34,1.67s-0.54,0.95-0.94,1.32c-0.4,0.37-0.87,0.66-1.42,0.87
			c-0.55,0.21-1.15,0.32-1.8,0.32h-6.34V234.16z M206.11,236.6v3.24h2.1c0.72,0,1.25-0.12,1.6-0.36c0.35-0.24,0.52-0.67,0.52-1.3
			c0-0.57-0.15-0.98-0.45-1.22c-0.3-0.24-0.8-0.36-1.51-0.36H206.11z M206.11,245.72h2.4c0.95,0,1.59-0.15,1.93-0.45
			c0.34-0.3,0.51-0.74,0.51-1.31c0-0.68-0.21-1.14-0.62-1.37c-0.41-0.23-1.03-0.35-1.86-0.35h-2.36V245.72z"/>
		<path fill="#FFFFFF" d="M218.69,234.16h3v14h-3V234.16z"/>
		<path fill="#FFFFFF" d="M226.97,234.16h3v11.5h6.12v2.5h-9.12V234.16z"/>
		<path fill="#FFFFFF" d="M240.29,234.16h3v14h-3V234.16z"/>
		<path fill="#FFFFFF" d="M247.51,234.16h11.1v2.5h-4.04v11.5h-3.02v-11.5h-4.04V234.16z"/>
		<path fill="#FFFFFF" d="M267.07,242.3l-5.3-8.14h3.44l3.42,5.36l3.4-5.36h3.34l-5.3,8.14v5.86h-3V242.3z"/>
	</g>
</g>
<g id="LINE_TWO">
</g>
<g id="ICON">
	<g>
		
			<line fill="none" stroke="#FFFFFF" stroke-width="5" stroke-linecap="round" stroke-miterlimit="10" x1="127.84" y1="198" x2="232.16" y2="198"/>
		<g>
			
				<line fill="none" stroke="#FFFFFF" stroke-width="3" stroke-linecap="round" stroke-miterlimit="10" x1="150.02" y1="123.24" x2="150.02" y2="198"/>
			
				<line fill="none" stroke="#FFFFFF" stroke-width="3" stroke-linecap="round" stroke-miterlimit="10" x1="210.66" y1="135.61" x2="210.66" y2="198"/>
			<g>
				<path fill="none" stroke="#FFFFFF" stroke-linecap="round" stroke-linejoin="round" stroke-miterlimit="10" d="M207.3,133.06
					c0,0-10.87,11.48-14.08,15.74c-3.25,4.31-6.8,12.03-6.8,12.03s6.43-5.55,9.67-9.87C199.28,146.69,207.3,133.06,207.3,133.06z"/>
				<path fill="none" stroke="#FFFFFF" stroke-linecap="round" stroke-linejoin="round" stroke-miterlimit="10" d="M216.22,129.27
					c0,0,15.37,3.67,20.67,4.32c5.36,0.66,13.82-0.12,13.82-0.12s-8.02-2.79-13.38-3.44C232.02,129.39,216.22,129.27,216.22,129.27z
					"/>
				<path fill="none" stroke="#FFFFFF" stroke-linecap="round" stroke-linejoin="round" stroke-miterlimit="10" d="M208.47,123.44
					c0,0-4.5-15.15-6.59-20.06c-2.11-4.97-7.01-11.91-7.01-11.91s1.6,8.34,3.72,13.31C200.68,109.69,208.47,123.44,208.47,123.44z"
					/>
				<circle fill="#FFFFFF" cx="210.66" cy="128.59" r="3.43"/>
			</g>
			
				<line fill="none" stroke="#FFFFFF" stroke-width="3" stroke-linecap="round" stroke-linejoin="round" stroke-miterlimit="10" x1="180.35" y1="161.62" x2="180.35" y2="198"/>
			<g>
				<path fill="none" stroke="#FFFFFF" stroke-linecap="round" stroke-linejoin="round" stroke-miterlimit="10" d="M183.15,158.12
					c0,0,7.27,6.13,9.94,7.91c2.7,1.8,7.46,3.67,7.46,3.67s-3.56-3.67-6.26-5.46C191.61,162.46,183.15,158.12,183.15,158.12z"/>
				<path fill="none" stroke="#FFFFFF" stroke-linecap="round" stroke-linejoin="round" stroke-miterlimit="10" d="M180.56,152.89
					c0,0,1.67-9.36,1.88-12.56c0.21-3.24-0.55-8.29-0.55-8.29s-1.4,4.91-1.6,8.16C180.09,143.4,180.56,152.89,180.56,152.89z"/>
				<path fill="none" stroke="#FFFFFF" stroke-linecap="round" stroke-linejoin="round" stroke-miterlimit="10" d="M177.33,157.75
					c0,0-8.94,3.23-11.82,4.65c-2.91,1.44-6.91,4.62-6.91,4.62s4.95-1.25,7.86-2.69C169.35,162.9,177.33,157.75,177.33,157.75z"/>
				<circle fill="#FFFFFF" cx="180.35" cy="156.25" r="2.06"/>
			</g>
			<path fill="none" stroke="#FFFFFF" stroke-linecap="round" stroke-linejoin="round" stroke-miterlimit="10" d="M151.76,110.06
				c0,0,6.62-14.95,8.28-20.21c1.68-5.33,2.47-14.08,2.47-14.08s-4.34,7.64-6.01,12.97C154.85,94.01,151.76,110.06,151.76,110.06z"
				/>
			<path fill="none" stroke="#FFFFFF" stroke-linecap="round" stroke-linejoin="round" stroke-miterlimit="10" d="M144.37,116.85
				c0,0-16.26,1.74-21.65,2.94c-5.45,1.21-13.43,4.9-13.43,4.9s8.79-0.06,14.24-1.28C128.92,122.19,144.37,116.85,144.37,116.85z"/>
			<path fill="none" stroke="#FFFFFF" stroke-linecap="round" stroke-linejoin="round" stroke-miterlimit="10" d="M153.94,119.85
				c0,0,9.63,13.21,13.37,17.28c3.78,4.12,10.96,9.18,10.96,9.18s-4.44-7.58-8.23-11.69C166.3,130.56,153.94,119.85,153.94,119.85z"
				/>
			<circle fill="#FFFFFF" cx="150.02" cy="115.59" r="3.55"/>
			<path fill="none" stroke="#FFFFFF" stroke-linecap="round" stroke-miterlimit="10" d="M217.94,110.44
				c6.12,2.46,10.66,7.9,11.91,14.43"/>
			<path fill="none" stroke="#FFFFFF" stroke-linecap="round" stroke-miterlimit="10" d="M214.9,113.74
				c4.91,1.4,8.78,5.15,10.39,9.89"/>
			<path fill="none" stroke="#FFFFFF" stroke-linecap="round" stroke-miterlimit="10" d="M215.2,105.53
				c6.23,1.22,11.53,4.88,14.93,9.89"/>
			<path fill="none" stroke="#FFFFFF" stroke-linecap="round" stroke-miterlimit="10" d="M130.73,112.44
				c1.06-6.51,5.39-12.12,11.49-14.77"/>
			<path fill="none" stroke="#FFFFFF" stroke-linecap="round" stroke-miterlimit="10" d="M135.25,111.07
				c1.49-4.89,5.31-8.68,10.08-10.2"/>
			<path fill="none" stroke="#FFFFFF" stroke-linecap="round" stroke-miterlimit="10" d="M131.04,101.72
				c3.74-5.13,9.29-8.39,15.27-9.34"/>
			<path fill="none" stroke="#FFFFFF" stroke-linecap="round" stroke-miterlimit="10" d="M191.33,167.66
				c-1.86,1.79-4.12,3.08-6.56,3.79"/>
			<path fill="none" stroke="#FFFFFF" stroke-linecap="round" stroke-miterlimit="10" d="M187.71,166.36
				c-1.44,1.05-3.08,1.77-4.81,2.13"/>
			<path fill="none" stroke="#FFFFFF" stroke-linecap="round" stroke-miterlimit="10" d="M191.48,171.7
				c-2.41,1.74-5.13,2.85-7.94,3.32"/>
		</g>
	</g>
</g>
</svg>
