<?xml version="1.0" encoding="utf-8"?>
<!-- Generator: Adobe Illustrator 23.1.0, SVG Export Plug-In . SVG Version: 6.00 Build 0)  -->
<svg version="1.1" xmlns="http://www.w3.org/2000/svg" xmlns:xlink="http://www.w3.org/1999/xlink" x="0px" y="0px"
	 viewBox="0 0 360 360" enable-background="new 0 0 360 360" xml:space="preserve">
<g id="BACKGROUND">
	<rect x="0" width="360" height="360"/>
</g>
<g id="REF" display="none">
	
		<rect x="-360" y="90.33" display="inline" fill="none" stroke="#000000" stroke-width="0.25" stroke-miterlimit="10" width="360" height="108"/>
	
		<rect y="90.33" display="inline" fill="none" stroke="#FFFFFF" stroke-width="0.25" stroke-miterlimit="10" width="360" height="108"/>
	
		<line display="inline" fill="none" stroke="#FFFFFF" stroke-width="0.25" stroke-linecap="round" stroke-miterlimit="10" x1="180" y1="0.19" x2="180" y2="360.06"/>
</g>
<g id="LINE_ONE">
	<g>
		<path fill="#FFFFFF" d="M129.75,234.16h3v5.54h5.3v-5.54h3v14h-3v-5.94h-5.3v5.94h-3V234.16z"/>
		<path fill="#FFFFFF" d="M146.33,248.16v-14h9.54v2.48h-6.58v3.08h6.12v2.48h-6.12v3.48h6.68v2.48H146.33z"/>
		<path fill="#FFFFFF" d="M172.77,248.16h-3.1l-1.12-3.24h-5.02l-1.12,3.24h-2.94l5.04-14h3.22L172.77,248.16z M166.01,237.44
			c-0.03,0.11-0.07,0.26-0.14,0.47c-0.07,0.21-0.14,0.44-0.22,0.7s-0.17,0.54-0.27,0.84s-0.2,0.59-0.29,0.87
			c-0.23,0.69-0.47,1.43-0.74,2.22h3.38c-0.27-0.79-0.51-1.53-0.74-2.22c-0.15-0.4-0.26-0.73-0.35-0.99
			c-0.09-0.26-0.17-0.51-0.24-0.75c-0.07-0.24-0.14-0.46-0.21-0.67s-0.11-0.36-0.14-0.47H166.01z"/>
		<path fill="#FFFFFF" d="M176.91,234.16h3v11.5h6.12v2.5h-9.12V234.16z"/>
		<path fill="#FFFFFF" d="M187.27,234.16h11.1v2.5h-4.04v11.5h-3.02v-11.5h-4.04V234.16z"/>
		<path fill="#FFFFFF" d="M202.59,234.16h3v5.54h5.3v-5.54h3v14h-3v-5.94h-5.3v5.94h-3V234.16z"/>
		<path fill="#FFFFFF" d="M223.21,242.3l-5.3-8.14h3.44l3.42,5.36l3.4-5.36h3.34l-5.3,8.14v5.86h-3V242.3z"/>
	</g>
</g>
<g id="LINE_TWO">
	<g>
		<path fill="#FFFFFF" d="M122.52,269.94c-0.2-0.55-0.45-1.26-0.75-2.15c-0.3-0.89-0.61-1.81-0.93-2.77
			c-0.32-0.96-0.63-1.9-0.93-2.82s-0.54-1.69-0.73-2.32h-0.06v10.06h-2.76v-14h4.2c0.57,1.71,1.09,3.27,1.56,4.7
			c0.28,0.85,0.51,1.54,0.69,2.07c0.18,0.53,0.35,1.03,0.5,1.51c0.15,0.48,0.29,0.91,0.42,1.3s0.22,0.67,0.27,0.84
			c0.05-0.17,0.14-0.45,0.26-0.84s0.26-0.84,0.43-1.37c0.17-0.53,0.35-1.09,0.54-1.7c0.19-0.61,0.39-1.21,0.59-1.81
			c0.45-1.43,0.95-2.99,1.5-4.7h4.18v14h-2.76v-10.06h-0.06c-0.13,0.41-0.29,0.91-0.48,1.49c-0.19,0.58-0.39,1.2-0.61,1.85
			s-0.44,1.32-0.67,1.99c-0.23,0.67-0.44,1.31-0.64,1.92c-0.2,0.61-0.38,1.16-0.55,1.65c-0.17,0.49-0.3,0.88-0.41,1.16H122.52z"/>
		<path fill="#FFFFFF" d="M148.94,269.94h-3.1l-1.12-3.24h-5.02l-1.12,3.24h-2.94l5.04-14h3.22L148.94,269.94z M142.18,259.22
			c-0.03,0.11-0.07,0.26-0.14,0.47c-0.07,0.21-0.14,0.44-0.22,0.7s-0.17,0.54-0.27,0.84c-0.1,0.3-0.2,0.59-0.29,0.87
			c-0.23,0.69-0.47,1.43-0.74,2.22h3.38c-0.27-0.79-0.51-1.53-0.74-2.22c-0.15-0.4-0.26-0.73-0.35-0.99
			c-0.09-0.26-0.17-0.51-0.24-0.75s-0.14-0.46-0.21-0.67c-0.07-0.21-0.11-0.36-0.14-0.47H142.18z"/>
		<path fill="#FFFFFF" d="M150.42,255.94h11.1v2.5h-4.04v11.5h-3.02v-11.5h-4.04V255.94z"/>
		<path fill="#FFFFFF" d="M165.74,269.94v-14h9.54v2.48h-6.58v3.08h6.12v2.48h-6.12v3.48h6.68v2.48H165.74z"/>
		<path fill="#FFFFFF" d="M190.5,260.2c0,1.04-0.24,1.89-0.71,2.54c-0.47,0.65-1.12,1.14-1.95,1.46l3.22,5.74h-3.3l-2.9-5.3H183v5.3
			h-2.98v-14h5.12c0.81,0,1.55,0.08,2.21,0.25c0.66,0.17,1.22,0.42,1.69,0.77c0.47,0.35,0.83,0.79,1.08,1.32
			C190.37,258.82,190.5,259.46,190.5,260.2z M187.42,260.22c0-0.68-0.22-1.15-0.65-1.41c-0.43-0.26-1.09-0.39-1.97-0.39H183v3.78
			h1.8c0.88,0,1.54-0.15,1.97-0.45C187.2,261.45,187.42,260.94,187.42,260.22z"/>
		<path fill="#FFFFFF" d="M195.54,255.94h3v14h-3V255.94z"/>
		<path fill="#FFFFFF" d="M215.98,269.94h-3.1l-1.12-3.24h-5.02l-1.12,3.24h-2.94l5.04-14h3.22L215.98,269.94z M209.22,259.22
			c-0.03,0.11-0.07,0.26-0.14,0.47c-0.07,0.21-0.14,0.44-0.22,0.7c-0.08,0.26-0.17,0.54-0.27,0.84s-0.2,0.59-0.29,0.87
			c-0.23,0.69-0.47,1.43-0.74,2.22h3.38c-0.27-0.79-0.51-1.53-0.74-2.22c-0.15-0.4-0.26-0.73-0.35-0.99s-0.17-0.51-0.24-0.75
			c-0.07-0.24-0.14-0.46-0.21-0.67c-0.07-0.21-0.11-0.36-0.14-0.47H209.22z"/>
		<path fill="#FFFFFF" d="M220.12,255.94h3v11.5h6.12v2.5h-9.12V255.94z"/>
		<path fill="#FFFFFF" d="M236.16,259.62c0,0.6,0.26,1.03,0.78,1.29c0.52,0.26,1.35,0.48,2.48,0.67c1.67,0.28,2.89,0.74,3.67,1.38
			c0.78,0.64,1.17,1.59,1.17,2.86c0,0.68-0.14,1.29-0.42,1.83s-0.67,1-1.17,1.38s-1.1,0.67-1.79,0.88
			c-0.69,0.21-1.45,0.31-2.26,0.31c-0.88,0-1.67-0.12-2.38-0.35c-0.71-0.23-1.31-0.54-1.8-0.93c-0.49-0.39-0.88-0.84-1.16-1.36
			c-0.28-0.52-0.43-1.06-0.46-1.62l3-0.48c0.07,0.68,0.33,1.24,0.79,1.67c0.46,0.43,1.13,0.65,2.01,0.65c0.36,0,0.7-0.03,1.01-0.1
			c0.31-0.07,0.59-0.18,0.82-0.33c0.23-0.15,0.42-0.34,0.55-0.57c0.13-0.23,0.2-0.5,0.2-0.82c0-0.52-0.22-0.92-0.65-1.2
			s-1.2-0.51-2.29-0.68c-0.73-0.12-1.41-0.27-2.04-0.46s-1.17-0.44-1.63-0.77c-0.46-0.33-0.82-0.73-1.08-1.22
			c-0.26-0.49-0.39-1.08-0.39-1.79c0-0.71,0.13-1.32,0.4-1.84c0.27-0.52,0.64-0.96,1.12-1.31c0.48-0.35,1.05-0.62,1.7-0.79
			c0.65-0.17,1.37-0.26,2.14-0.26c0.72,0,1.39,0.08,2.02,0.25c0.63,0.17,1.18,0.41,1.67,0.74c0.49,0.33,0.89,0.73,1.21,1.21
			c0.32,0.48,0.54,1.03,0.66,1.64l-3.04,0.66c-0.11-0.64-0.38-1.15-0.82-1.52c-0.44-0.37-1.03-0.56-1.78-0.56
			c-0.76,0-1.32,0.14-1.69,0.42C236.34,258.78,236.16,259.16,236.16,259.62z"/>
	</g>
</g>
<g id="ICON">
	<g>
		
			<line fill="none" stroke="#FFFFFF" stroke-width="7" stroke-linecap="round" stroke-miterlimit="10" x1="223.19" y1="118.55" x2="136.52" y2="169.48"/>
		<g>
			<g>
				<path fill="#FFFFFF" d="M180,97.24c25.97,0,47.09,21.13,47.09,47.09s-21.13,47.09-47.09,47.09c-25.97,0-47.09-21.13-47.09-47.09
					S154.03,97.24,180,97.24 M180,90.24c-29.87,0-54.09,24.22-54.09,54.09c0,29.87,24.22,54.09,54.09,54.09
					c29.87,0,54.09-24.22,54.09-54.09C234.09,114.46,209.87,90.24,180,90.24L180,90.24z"/>
			</g>
		</g>
		<g>
			<polygon points="198.18,155.68 186.23,135.28 186.23,114.41 174.65,114.41 174.65,135.28 162.71,155.68 			"/>
			<path fill="#FFFFFF" d="M203.96,166.3l-6.22-10.62H180h-17.74l-6.22,10.62c-1.92,3.27,0.44,7.39,4.24,7.39H180h19.72
				C203.51,173.69,205.87,169.57,203.96,166.3z"/>
			<path fill="none" stroke="#000000" stroke-width="5" stroke-linecap="round" stroke-miterlimit="10" d="M187.91,114.41v20.3
				l17.88,30.53c1.29,2.2,1.3,4.84,0.03,7.05c-1.27,2.21-3.55,3.53-6.1,3.53h-39.44c-2.55,0-4.83-1.32-6.1-3.53
				c-1.27-2.21-1.26-4.85,0.03-7.05l17.88-30.53v-20.3"/>
			<path fill="none" stroke="#FFFFFF" stroke-width="3" stroke-linecap="round" stroke-miterlimit="10" d="M185.79,114.41v20.87
				l18.17,31.02c1.92,3.27-0.44,7.39-4.24,7.39h-39.44c-3.79,0-6.15-4.12-4.24-7.39l18.17-31.02v-20.87"/>
			<circle fill="#FFFFFF" cx="180.44" cy="150.68" r="3.64"/>
			<circle fill="#FFFFFF" cx="173.68" cy="148.34" r="2.51"/>
			<circle fill="#FFFFFF" cx="177.47" cy="145.53" r="1.78"/>
			<polyline fill="none" stroke="#FFFFFF" stroke-width="3" stroke-linecap="round" stroke-miterlimit="10" points="191.29,114.41 
				180,114.41 168.71,114.41 			"/>
		</g>
	</g>
</g>
</svg>
