<?xml version="1.0" encoding="utf-8"?>
<!-- Generator: Adobe Illustrator 23.1.0, SVG Export Plug-In . SVG Version: 6.00 Build 0)  -->
<svg version="1.1" xmlns="http://www.w3.org/2000/svg" xmlns:xlink="http://www.w3.org/1999/xlink" x="0px" y="0px"
	 viewBox="0 0 360 360" enable-background="new 0 0 360 360" xml:space="preserve">
<g id="BACKGROUND">
	<rect x="0" y="0" width="360" height="360"/>
	<g>
		<rect x="125.81" y="90.27" fill="none" stroke="#FFFFFF" stroke-width="3" stroke-miterlimit="10" width="108" height="108"/>
		<rect x="132.87" y="97.33" fill="none" stroke="#FFFFFF" stroke-width="3" stroke-miterlimit="10" width="93.88" height="93.88"/>
		<line fill="none" stroke="#FFFFFF" stroke-width="3" stroke-miterlimit="10" x1="179.81" y1="96.29" x2="179.81" y2="191.21"/>
		<line fill="none" stroke="#FFFFFF" stroke-width="3" stroke-miterlimit="10" x1="132.87" y1="143.75" x2="226.75" y2="143.75"/>
	</g>
	<g>
		<circle fill="none" stroke="#FFFFFF" stroke-miterlimit="10" cx="208.86" cy="115.22" r="5.63"/>
		
			<line fill="none" stroke="#FFFFFF" stroke-linecap="round" stroke-miterlimit="10" x1="208.86" y1="107.84" x2="208.86" y2="102.81"/>
		
			<line fill="none" stroke="#FFFFFF" stroke-linecap="round" stroke-miterlimit="10" x1="208.86" y1="127.63" x2="208.86" y2="122.6"/>
		
			<line fill="none" stroke="#FFFFFF" stroke-linecap="round" stroke-miterlimit="10" x1="216.24" y1="115.22" x2="221.26" y2="115.22"/>
		
			<line fill="none" stroke="#FFFFFF" stroke-linecap="round" stroke-miterlimit="10" x1="196.45" y1="115.22" x2="201.47" y2="115.22"/>
		
			<line fill="none" stroke="#FFFFFF" stroke-linecap="round" stroke-miterlimit="10" x1="214.08" y1="110" x2="217.63" y2="106.45"/>
		
			<line fill="none" stroke="#FFFFFF" stroke-linecap="round" stroke-miterlimit="10" x1="200.08" y1="123.99" x2="203.64" y2="120.44"/>
		
			<line fill="none" stroke="#FFFFFF" stroke-linecap="round" stroke-miterlimit="10" x1="214.08" y1="120.44" x2="217.63" y2="123.99"/>
		
			<line fill="none" stroke="#FFFFFF" stroke-linecap="round" stroke-miterlimit="10" x1="200.08" y1="106.45" x2="203.64" y2="110"/>
	</g>
	<g>
		<g>
			<path fill="none" stroke="#FFFFFF" stroke-miterlimit="10" d="M132.87,166.97c0.94,0,1.88-0.07,2.81,0.03
				c0.36,0.04,0.66,0.46,1.02,0.66c0.21,0.11,0.48,0.1,0.72,0.15c0.12-0.79,0.74-0.51,1.17-0.52c2.1-0.03,2.09-0.01,2.13-2.13
				c0.05-2.25,0.15-4.5,0.18-6.75c0.01-0.64,0.22-0.94,0.86-0.89c0.78,0.06,0.99-0.32,1-1.07c0.01-1.91,0.14-3.81,0.17-5.72
				c0.01-0.66,0.29-0.86,0.91-0.87c3.06-0.08,6.12-0.18,9.18-0.31c0.68-0.03,0.97,0.24,1.03,0.88c0.14,1.55,0.33,3.1,0.43,4.66
				c0.05,0.83,0.39,1.39,1.18,1.56c0.73,0.15,0.91,0.53,0.9,1.24c-0.02,6.76-0.01,13.51-0.01,20.27c0,0.37,0,0.75,0,1.2
				c0.31,0.03,0.58,0.06,0.85,0.1c0.8,0.12,1.14-0.18,1.27-1.03c0.85-5.21,1.93-10.38,2.61-15.61c0.47-3.61,0.57-7.29,0.14-10.94
				c-0.67-5.73-1.4-11.46-2.15-17.19c-0.03-0.27-0.42-0.6-0.7-0.7c-0.77-0.26-1.58-0.38-2.36-0.6c-0.29-0.08-0.55-0.28-1.13-0.58
				c0.38-0.19,0.56-0.22,0.64-0.33c0.17-0.23,0.44-0.57,0.37-0.75c-0.12-0.31-0.42-0.65-0.72-0.76c-0.61-0.22-1.28-0.26-1.91-0.44
				c-0.2-0.05-0.34-0.29-0.51-0.44c0.16-0.13,0.29-0.32,0.47-0.39c0.64-0.28,1.5-0.23,1.52-1.3c0-0.2,0.57-0.43,0.9-0.56
				c1.83-0.68,3.68-1.33,5.58-2.01c-0.3-0.52-0.51-0.89-0.63-1.1c0.25-0.51,0.33-0.96,0.61-1.18c0.32-0.26,0.84-0.53,1.2-0.45
				c0.81,0.18,0.95-0.25,1-0.82c0.14-1.71,0.27-3.43,0.37-5.14c0.02-0.33-0.14-0.66-0.15-1c-0.01-0.25-0.01-0.68,0.11-0.72
				c0.28-0.11,0.65-0.11,0.95-0.02c0.1,0.03,0.1,0.47,0.09,0.73c-0.03,0.71-0.14,1.42-0.12,2.12c0.06,1.61,0.19,3.21,0.29,4.83
				c1.63-0.7,1.88,0.95,2.88,1.23c-0.17,0.51-0.33,0.97-0.54,1.61c1.35,0.42,2.65,0.81,3.95,1.22c0.71,0.22,1.42,0.46,2.11,0.73
				c0.19,0.07,0.48,0.28,0.47,0.4c-0.07,0.99,0.63,1.19,1.34,1.48c0.6,0.25,0.53,0.7-0.01,0.93c-0.51,0.22-1.07,0.31-1.62,0.41
				c-0.85,0.15-1.07,0.6-0.54,1.29c0.4,0.52,0.14,0.71-0.34,0.85c-0.87,0.25-1.77,0.44-2.6,0.78c-0.31,0.13-0.67,0.55-0.71,0.88
				c-0.68,4.76-1.46,9.51-1.91,14.29c-0.32,3.47-0.29,6.98-0.22,10.47c0.07,3.25,0.38,6.49,0.6,9.73c0.12,1.78,0.29,3.55,0.41,5.33
				c0.04,0.58,0.26,0.83,0.87,0.81c1.09-0.04,2.18-0.01,3.36-0.01c0.12-2.64,0.23-5.16,0.34-7.68c0.06-1.35,0.47-1.56,1.68-0.98
				c1.9,0.9,3.35,2.38,4.92,3.71c0.23,0.19,0.46,0.38,0.87,0.72c0-5.3,0-10.41,0-15.62c2.78,0,5.43-0.01,8.08,0.01
				c0.49,0,0.98,0.13,1.47,0.21c0.63,0.11,0.83,0.5,0.84,1.13c0,2.88,0.05,5.75,0.07,8.63c0,0.48,0.07,0.78,0.62,0.97
				c0.25,0.08,0.48,0.66,0.48,1.02c0.04,3,0.02,6.01,0.02,9.01c0,0.31,0,0.62,0,1c0.4-0.09,0.75-0.16,1-0.22
				c0.35-9.3,0.7-18.56,1.05-27.89c0.64-0.05,1.09-0.08,1.49-0.11c0.51-1.85,2.09-2.77,3.17-4.28c0.89,1.09,1.73,2,2.44,3.01
				c0.53,0.77,1.17,1.07,2.06,0.94c0.81-0.13,0.95,0.22,0.96,1c0.04,3.02,0.19,6.03,0.29,9.15c1.21,0,2.24-0.01,3.26,0
				c1.12,0.01,1.44,0.33,1.45,1.45c0.01,1.09,0.02,2.19,0,3.28c-0.01,0.53,0.11,0.95,0.69,1.03c0.89,0.13,1.05,0.74,1.07,1.48
				c0.08,2.34,0.16,4.69,0.26,7.03c0.04,0.87,0.12,1.73,0.19,2.75c0.76-0.44,1.44-0.8,2.08-1.24c0.17-0.12,0.25-0.47,0.26-0.72
				c0.14-4.62,0.28-9.25,0.36-13.88c0.02-0.97,0.19-1.67,1.32-1.69c0.83-0.01,1.07-0.46,0.95-1.21c-0.11-0.67,0.17-1.01,0.87-0.97
				c0.03,0,0.06,0,0.09-0.01c1.84-0.2,1.99-0.07,2.17,1.77c0.22,0.03,0.46,0.08,0.7,0.09c1.24,0.05,1.79,0.57,1.84,1.82
				c0.1,2.28,0.17,4.56,0.27,6.84c0.03,0.8,0.12,1.6,0.19,2.55c1.21-1.07,2.54-1.18,3.87-1.1"/>
		</g>
	</g>
</g>
<g id="REF" display="none">
	
		<rect x="-360" y="90.27" display="inline" fill="none" stroke="#000000" stroke-width="0.25" stroke-miterlimit="10" width="360" height="108"/>
	
		<rect y="90.27" display="inline" fill="none" stroke="#FFFFFF" stroke-width="0.25" stroke-miterlimit="10" width="360" height="108"/>
	
		<line display="inline" fill="none" stroke="#FFFFFF" stroke-width="0.25" stroke-linecap="round" stroke-miterlimit="10" x1="180" y1="0" x2="180" y2="359.87"/>
</g>
<g id="LINE_ONE">
	<g>
		<path fill="#FFFFFF" d="M128.72,248.16h-3.1l-1.12-3.24h-5.02l-1.12,3.24h-2.94l5.04-14h3.22L128.72,248.16z M121.96,237.44
			c-0.03,0.11-0.07,0.26-0.14,0.47s-0.14,0.44-0.22,0.7s-0.17,0.54-0.27,0.84c-0.1,0.3-0.2,0.59-0.29,0.87
			c-0.23,0.69-0.47,1.43-0.74,2.22h3.38c-0.27-0.79-0.51-1.53-0.74-2.22c-0.15-0.4-0.26-0.73-0.35-0.99
			c-0.09-0.26-0.17-0.51-0.24-0.75s-0.14-0.46-0.21-0.67c-0.07-0.21-0.11-0.36-0.14-0.47H121.96z"/>
		<path fill="#FFFFFF" d="M131.58,241.16c0-1.15,0.16-2.17,0.48-3.07c0.32-0.9,0.78-1.66,1.37-2.29c0.59-0.63,1.31-1.1,2.16-1.43
			c0.85-0.33,1.8-0.49,2.85-0.49c1.49,0,2.75,0.33,3.76,0.98c1.01,0.65,1.73,1.65,2.16,2.98l-2.92,1.02
			c-0.24-0.79-0.6-1.4-1.08-1.83c-0.48-0.43-1.14-0.65-1.98-0.65c-0.61,0-1.15,0.12-1.62,0.36c-0.47,0.24-0.85,0.57-1.16,0.99
			s-0.54,0.92-0.69,1.51s-0.23,1.23-0.23,1.92s0.08,1.33,0.23,1.91s0.38,1.08,0.69,1.51s0.69,0.76,1.16,1
			c0.47,0.24,1.01,0.36,1.64,0.36c0.77,0,1.4-0.19,1.89-0.58c0.49-0.39,0.86-0.97,1.11-1.76l2.88,1.02
			c-0.47,1.19-1.19,2.12-2.16,2.8c-0.97,0.68-2.23,1.02-3.76,1.02c-1.03,0-1.96-0.16-2.79-0.49s-1.55-0.8-2.14-1.42
			c-0.59-0.62-1.05-1.38-1.37-2.29C131.74,243.33,131.58,242.3,131.58,241.16z"/>
		<path fill="#FFFFFF" d="M148.18,241.16c0-1.15,0.16-2.17,0.48-3.07c0.32-0.9,0.78-1.66,1.37-2.29c0.59-0.63,1.31-1.1,2.16-1.43
			c0.85-0.33,1.8-0.49,2.85-0.49c1.49,0,2.75,0.33,3.76,0.98c1.01,0.65,1.73,1.65,2.16,2.98l-2.92,1.02
			c-0.24-0.79-0.6-1.4-1.08-1.83c-0.48-0.43-1.14-0.65-1.98-0.65c-0.61,0-1.15,0.12-1.62,0.36c-0.47,0.24-0.85,0.57-1.16,0.99
			s-0.54,0.92-0.69,1.51s-0.23,1.23-0.23,1.92s0.08,1.33,0.23,1.91s0.38,1.08,0.69,1.51s0.69,0.76,1.16,1
			c0.47,0.24,1.01,0.36,1.64,0.36c0.77,0,1.4-0.19,1.89-0.58c0.49-0.39,0.86-0.97,1.11-1.76l2.88,1.02
			c-0.47,1.19-1.19,2.12-2.16,2.8c-0.97,0.68-2.23,1.02-3.76,1.02c-1.03,0-1.96-0.16-2.79-0.49s-1.55-0.8-2.14-1.42
			c-0.59-0.62-1.05-1.38-1.37-2.29C148.34,243.33,148.18,242.3,148.18,241.16z"/>
		<path fill="#FFFFFF" d="M165.36,248.16v-14h9.54v2.48h-6.58v3.08h6.12v2.48h-6.12v3.48H175v2.48H165.36z"/>
		<path fill="#FFFFFF" d="M182.36,237.84c0,0.6,0.26,1.03,0.78,1.29c0.52,0.26,1.35,0.48,2.48,0.67c1.67,0.28,2.89,0.74,3.67,1.38
			c0.78,0.64,1.17,1.59,1.17,2.86c0,0.68-0.14,1.29-0.42,1.83s-0.67,1-1.17,1.38s-1.1,0.67-1.79,0.88
			c-0.69,0.21-1.45,0.31-2.26,0.31c-0.88,0-1.67-0.12-2.38-0.35c-0.71-0.23-1.31-0.54-1.8-0.93s-0.88-0.84-1.16-1.36
			c-0.28-0.52-0.43-1.06-0.46-1.62l3-0.48c0.07,0.68,0.33,1.24,0.79,1.67c0.46,0.43,1.13,0.65,2.01,0.65c0.36,0,0.7-0.03,1.01-0.1
			c0.31-0.07,0.59-0.18,0.82-0.33c0.23-0.15,0.42-0.34,0.55-0.57c0.13-0.23,0.2-0.5,0.2-0.82c0-0.52-0.22-0.92-0.65-1.2
			s-1.2-0.51-2.29-0.68c-0.73-0.12-1.41-0.27-2.04-0.46s-1.17-0.44-1.63-0.77c-0.46-0.33-0.82-0.73-1.08-1.22
			c-0.26-0.49-0.39-1.08-0.39-1.79c0-0.71,0.13-1.32,0.4-1.84c0.27-0.52,0.64-0.96,1.12-1.31c0.48-0.35,1.05-0.62,1.7-0.79
			c0.65-0.17,1.37-0.26,2.14-0.26c0.72,0,1.39,0.08,2.02,0.25c0.63,0.17,1.18,0.41,1.67,0.74c0.49,0.33,0.89,0.73,1.21,1.21
			c0.32,0.48,0.54,1.03,0.66,1.64l-3.04,0.66c-0.11-0.64-0.38-1.15-0.82-1.52c-0.44-0.37-1.03-0.56-1.78-0.56
			c-0.76,0-1.32,0.14-1.69,0.42C182.54,237,182.36,237.37,182.36,237.84z"/>
		<path fill="#FFFFFF" d="M197.84,237.84c0,0.6,0.26,1.03,0.78,1.29c0.52,0.26,1.35,0.48,2.48,0.67c1.67,0.28,2.89,0.74,3.67,1.38
			c0.78,0.64,1.17,1.59,1.17,2.86c0,0.68-0.14,1.29-0.42,1.83s-0.67,1-1.17,1.38s-1.1,0.67-1.79,0.88
			c-0.69,0.21-1.45,0.31-2.26,0.31c-0.88,0-1.67-0.12-2.38-0.35c-0.71-0.23-1.31-0.54-1.8-0.93c-0.49-0.39-0.88-0.84-1.16-1.36
			c-0.28-0.52-0.43-1.06-0.46-1.62l3-0.48c0.07,0.68,0.33,1.24,0.79,1.67c0.46,0.43,1.13,0.65,2.01,0.65c0.36,0,0.7-0.03,1.01-0.1
			c0.31-0.07,0.59-0.18,0.82-0.33c0.23-0.15,0.42-0.34,0.55-0.57c0.13-0.23,0.2-0.5,0.2-0.82c0-0.52-0.22-0.92-0.65-1.2
			s-1.2-0.51-2.29-0.68c-0.73-0.12-1.41-0.27-2.04-0.46s-1.17-0.44-1.63-0.77c-0.46-0.33-0.82-0.73-1.08-1.22
			c-0.26-0.49-0.39-1.08-0.39-1.79c0-0.71,0.13-1.32,0.4-1.84c0.27-0.52,0.64-0.96,1.12-1.31c0.48-0.35,1.05-0.62,1.7-0.79
			c0.65-0.17,1.37-0.26,2.14-0.26c0.72,0,1.39,0.08,2.02,0.25c0.63,0.17,1.18,0.41,1.67,0.74c0.49,0.33,0.89,0.73,1.21,1.21
			c0.32,0.48,0.54,1.03,0.66,1.64l-3.04,0.66c-0.11-0.64-0.38-1.15-0.82-1.52c-0.44-0.37-1.03-0.56-1.78-0.56
			c-0.76,0-1.32,0.14-1.69,0.42C198.02,237,197.84,237.37,197.84,237.84z"/>
		<path fill="#FFFFFF" d="M216.24,234.16h11.1v2.5h-4.04v11.5h-3.02v-11.5h-4.04V234.16z"/>
		<path fill="#FFFFFF" d="M230.38,241.16c0-1.13,0.16-2.15,0.49-3.05c0.33-0.9,0.79-1.66,1.38-2.29c0.59-0.63,1.31-1.11,2.15-1.44
			c0.84-0.33,1.77-0.5,2.8-0.5c1.03,0,1.96,0.17,2.8,0.5c0.84,0.33,1.56,0.81,2.15,1.44c0.59,0.63,1.05,1.39,1.38,2.29
			c0.33,0.9,0.49,1.92,0.49,3.05c0,1.13-0.16,2.15-0.49,3.05c-0.33,0.9-0.79,1.66-1.38,2.29c-0.59,0.63-1.31,1.11-2.15,1.44
			c-0.84,0.33-1.77,0.5-2.8,0.5c-1.03,0-1.96-0.17-2.8-0.5s-1.56-0.81-2.15-1.44c-0.59-0.63-1.05-1.39-1.38-2.29
			C230.54,243.31,230.38,242.29,230.38,241.16z M233.48,241.16c0,0.71,0.08,1.36,0.23,1.95c0.15,0.59,0.38,1.1,0.69,1.52
			s0.69,0.75,1.16,0.98s1.01,0.35,1.64,0.35s1.17-0.12,1.64-0.35c0.47-0.23,0.85-0.56,1.16-0.98c0.31-0.42,0.54-0.93,0.69-1.52
			c0.15-0.59,0.23-1.24,0.23-1.95s-0.08-1.36-0.23-1.95c-0.15-0.59-0.38-1.1-0.69-1.52c-0.31-0.42-0.69-0.75-1.16-0.98
			c-0.47-0.23-1.01-0.35-1.64-0.35s-1.17,0.12-1.64,0.35s-0.85,0.56-1.16,0.98s-0.54,0.93-0.69,1.52
			C233.56,239.8,233.48,240.45,233.48,241.16z"/>
	</g>
</g>
<g id="LINE_TWO">
	<g>
		<path fill="#FFFFFF" d="M147,255.95c0.49,1.4,0.96,2.75,1.4,4.06c0.27,0.76,0.49,1.4,0.66,1.92c0.17,0.52,0.35,1.04,0.52,1.57
			c0.17,0.53,0.34,1.04,0.5,1.53s0.3,0.93,0.42,1.32h0.04c0.12-0.39,0.26-0.83,0.42-1.33s0.33-1.03,0.51-1.59
			c0.18-0.56,0.37-1.13,0.57-1.72c0.2-0.59,0.39-1.15,0.58-1.7c0.44-1.31,0.91-2.66,1.4-4.06h3.08l-5.16,14h-3.06l-5.1-14H147z"/>
		<path fill="#FFFFFF" d="M161.22,255.95h3v14h-3V255.95z"/>
		<path fill="#FFFFFF" d="M169.5,269.95v-14h9.54v2.48h-6.58v3.08h6.12v2.48h-6.12v3.48h6.68v2.48H169.5z"/>
		<path fill="#FFFFFF" d="M200.94,255.95l-3.5,14h-3.48c-0.29-1.29-0.57-2.53-0.84-3.7c-0.16-0.69-0.29-1.27-0.4-1.74
			c-0.11-0.47-0.21-0.93-0.31-1.4s-0.2-0.91-0.3-1.34c-0.1-0.43-0.18-0.79-0.25-1.1h-0.06c-0.07,0.31-0.15,0.68-0.24,1.11
			s-0.2,0.9-0.32,1.39c-0.12,0.49-0.24,1-0.36,1.53c-0.12,0.53-0.24,1.04-0.36,1.55c-0.28,1.17-0.58,2.41-0.9,3.7h-3.48l-3.52-14
			h3.04c0.35,1.49,0.67,2.91,0.98,4.26c0.17,0.8,0.32,1.46,0.44,1.98c0.12,0.52,0.23,1.04,0.34,1.56c0.11,0.52,0.21,1.01,0.31,1.48
			s0.18,0.86,0.23,1.18h0.06c0.07-0.32,0.15-0.72,0.25-1.19c0.1-0.47,0.21-0.98,0.34-1.53c0.13-0.55,0.26-1.12,0.4-1.72
			c0.14-0.6,0.28-1.19,0.41-1.76c0.32-1.35,0.66-2.77,1.02-4.26h2.82c0.36,1.49,0.7,2.91,1.02,4.26c0.19,0.8,0.34,1.46,0.47,1.98
			c0.13,0.52,0.25,1.04,0.37,1.56c0.12,0.52,0.23,1.01,0.33,1.48c0.1,0.47,0.18,0.86,0.25,1.18h0.06c0.07-0.32,0.15-0.72,0.25-1.19
			c0.1-0.47,0.21-0.98,0.33-1.53c0.12-0.55,0.25-1.12,0.38-1.72c0.13-0.6,0.27-1.19,0.4-1.76c0.32-1.35,0.65-2.77,1-4.26H200.94z"/>
		<path fill="#FFFFFF" d="M207.58,259.63c0,0.6,0.26,1.03,0.78,1.29c0.52,0.26,1.35,0.48,2.48,0.67c1.67,0.28,2.89,0.74,3.67,1.38
			c0.78,0.64,1.17,1.59,1.17,2.86c0,0.68-0.14,1.29-0.42,1.83s-0.67,1-1.17,1.38s-1.1,0.67-1.79,0.88
			c-0.69,0.21-1.45,0.31-2.26,0.31c-0.88,0-1.67-0.12-2.38-0.35c-0.71-0.23-1.31-0.54-1.8-0.93c-0.49-0.39-0.88-0.84-1.16-1.36
			c-0.28-0.52-0.43-1.06-0.46-1.62l3-0.48c0.07,0.68,0.33,1.24,0.79,1.67c0.46,0.43,1.13,0.65,2.01,0.65c0.36,0,0.7-0.03,1.01-0.1
			c0.31-0.07,0.59-0.18,0.82-0.33c0.23-0.15,0.42-0.34,0.55-0.57c0.13-0.23,0.2-0.5,0.2-0.82c0-0.52-0.22-0.92-0.65-1.2
			s-1.2-0.51-2.29-0.68c-0.73-0.12-1.41-0.27-2.04-0.46s-1.17-0.44-1.63-0.77c-0.46-0.33-0.82-0.73-1.08-1.22
			c-0.26-0.49-0.39-1.08-0.39-1.79c0-0.71,0.13-1.32,0.4-1.84c0.27-0.52,0.64-0.96,1.12-1.31c0.48-0.35,1.05-0.62,1.7-0.79
			c0.65-0.17,1.37-0.26,2.14-0.26c0.72,0,1.39,0.08,2.02,0.25c0.63,0.17,1.18,0.41,1.67,0.74c0.49,0.33,0.89,0.73,1.21,1.21
			c0.32,0.48,0.54,1.03,0.66,1.64l-3.04,0.66c-0.11-0.64-0.38-1.15-0.82-1.52c-0.44-0.37-1.03-0.56-1.78-0.56
			c-0.76,0-1.32,0.14-1.69,0.42C207.76,258.79,207.58,259.16,207.58,259.63z"/>
	</g>
</g>
<g id="ICON">
</g>
</svg>
