<?xml version="1.0" encoding="utf-8"?>
<!-- Generator: Adobe Illustrator 23.1.0, SVG Export Plug-In . SVG Version: 6.00 Build 0)  -->
<svg version="1.2" baseProfile="tiny" xmlns="http://www.w3.org/2000/svg" xmlns:xlink="http://www.w3.org/1999/xlink" x="0px"
	 y="0px" viewBox="0 0 360 360" xml:space="preserve">
<g id="BACKGROUND">
	<rect x="0" y="0" width="360" height="360"/>
</g>
<g id="REF" display="none">
	
		<rect x="-360" y="90.27" display="inline" fill="none" stroke="#000000" stroke-width="0.25" stroke-miterlimit="10" width="360" height="108"/>
	
		<rect y="90.27" display="inline" fill="none" stroke="#FFFFFF" stroke-width="0.25" stroke-miterlimit="10" width="360" height="108"/>
	
		<line display="inline" fill="none" stroke="#FFFFFF" stroke-width="0.25" stroke-linecap="round" stroke-miterlimit="10" x1="180" y1="0.13" x2="180" y2="360"/>
</g>
<g id="LINE_ONE">
	<g>
		<path fill="#FFFFFF" d="M142.43,248.16v-14h9.58v2.48h-6.62v3.08h6.1v2.48h-6.1v5.96H142.43z"/>
		<path fill="#FFFFFF" d="M155.91,241.16c0-1.13,0.16-2.15,0.49-3.05c0.33-0.9,0.79-1.66,1.38-2.29c0.59-0.63,1.31-1.11,2.15-1.44
			c0.84-0.33,1.77-0.5,2.8-0.5c1.03,0,1.96,0.17,2.8,0.5c0.84,0.33,1.56,0.81,2.15,1.44s1.05,1.39,1.38,2.29
			c0.33,0.9,0.49,1.92,0.49,3.05c0,1.13-0.16,2.15-0.49,3.05c-0.33,0.9-0.79,1.66-1.38,2.29c-0.59,0.63-1.31,1.11-2.15,1.44
			s-1.77,0.5-2.8,0.5c-1.03,0-1.96-0.17-2.8-0.5s-1.56-0.81-2.15-1.44c-0.59-0.63-1.05-1.39-1.38-2.29
			C156.07,243.31,155.91,242.29,155.91,241.16z M159.01,241.16c0,0.71,0.08,1.36,0.23,1.95c0.15,0.59,0.38,1.1,0.69,1.52
			s0.69,0.75,1.16,0.98s1.01,0.35,1.64,0.35c0.63,0,1.17-0.12,1.64-0.35s0.85-0.56,1.16-0.98s0.54-0.93,0.69-1.52
			c0.15-0.59,0.23-1.24,0.23-1.95s-0.08-1.36-0.23-1.95c-0.15-0.59-0.38-1.1-0.69-1.52s-0.69-0.75-1.16-0.98s-1.01-0.35-1.64-0.35
			c-0.63,0-1.17,0.12-1.64,0.35s-0.85,0.56-1.16,0.98s-0.54,0.93-0.69,1.52C159.09,239.8,159.01,240.45,159.01,241.16z"/>
		<path fill="#FFFFFF" d="M173.87,241.16c0-1.15,0.16-2.17,0.48-3.07c0.32-0.9,0.78-1.66,1.37-2.29c0.59-0.63,1.31-1.1,2.16-1.43
			c0.85-0.33,1.8-0.49,2.85-0.49c1.49,0,2.75,0.33,3.76,0.98c1.01,0.65,1.73,1.65,2.16,2.98l-2.92,1.02
			c-0.24-0.79-0.6-1.4-1.08-1.83c-0.48-0.43-1.14-0.65-1.98-0.65c-0.61,0-1.15,0.12-1.62,0.36s-0.85,0.57-1.16,0.99
			s-0.54,0.92-0.69,1.51s-0.23,1.23-0.23,1.92s0.08,1.33,0.23,1.91s0.38,1.08,0.69,1.51s0.69,0.76,1.16,1s1.01,0.36,1.64,0.36
			c0.77,0,1.4-0.19,1.89-0.58c0.49-0.39,0.86-0.97,1.11-1.76l2.88,1.02c-0.47,1.19-1.19,2.12-2.16,2.8
			c-0.97,0.68-2.23,1.02-3.76,1.02c-1.03,0-1.96-0.16-2.79-0.49c-0.83-0.33-1.55-0.8-2.14-1.42c-0.59-0.62-1.05-1.38-1.37-2.29
			C174.03,243.33,173.87,242.3,173.87,241.16z"/>
		<path fill="#FFFFFF" d="M196.57,248.44c-1.95,0-3.37-0.48-4.26-1.44c-0.89-0.96-1.34-2.29-1.34-4v-8.84h3v8.86
			c0,0.85,0.21,1.56,0.64,2.11c0.43,0.55,1.08,0.83,1.96,0.83s1.53-0.28,1.96-0.83c0.43-0.55,0.64-1.26,0.64-2.11v-8.86h3V243
			c0,1.71-0.45,3.04-1.34,4S198.52,248.44,196.57,248.44z"/>
		<path fill="#FFFFFF" d="M210.09,237.84c0,0.6,0.26,1.03,0.78,1.29c0.52,0.26,1.35,0.48,2.48,0.67c1.67,0.28,2.89,0.74,3.67,1.38
			c0.78,0.64,1.17,1.59,1.17,2.86c0,0.68-0.14,1.29-0.42,1.83s-0.67,1-1.17,1.38s-1.1,0.67-1.79,0.88
			c-0.69,0.21-1.45,0.31-2.26,0.31c-0.88,0-1.67-0.12-2.38-0.35c-0.71-0.23-1.31-0.54-1.8-0.93c-0.49-0.39-0.88-0.84-1.16-1.36
			c-0.28-0.52-0.43-1.06-0.46-1.62l3-0.48c0.07,0.68,0.33,1.24,0.79,1.67c0.46,0.43,1.13,0.65,2.01,0.65c0.36,0,0.7-0.03,1.01-0.1
			c0.31-0.07,0.59-0.18,0.82-0.33c0.23-0.15,0.42-0.34,0.55-0.57c0.13-0.23,0.2-0.5,0.2-0.82c0-0.52-0.22-0.92-0.65-1.2
			s-1.2-0.51-2.29-0.68c-0.73-0.12-1.41-0.27-2.04-0.46s-1.17-0.44-1.63-0.77c-0.46-0.33-0.82-0.73-1.08-1.22
			c-0.26-0.49-0.39-1.08-0.39-1.79c0-0.71,0.13-1.32,0.4-1.84c0.27-0.52,0.64-0.96,1.12-1.31c0.48-0.35,1.05-0.62,1.7-0.79
			c0.65-0.17,1.37-0.26,2.14-0.26c0.72,0,1.39,0.08,2.02,0.25c0.63,0.17,1.18,0.41,1.67,0.74c0.49,0.33,0.89,0.73,1.21,1.21
			c0.32,0.48,0.54,1.03,0.66,1.64l-3.04,0.66c-0.11-0.64-0.38-1.15-0.82-1.52c-0.44-0.37-1.03-0.56-1.78-0.56
			c-0.76,0-1.32,0.14-1.69,0.42C210.27,237,210.09,237.37,210.09,237.84z"/>
	</g>
</g>
<g id="LINE_TWO">
</g>
<g id="ICON">
	<g>
		<path fill="none" stroke="#FFFFFF" stroke-width="3" stroke-miterlimit="10" d="M220.75,149.08c0.69-9.97-0.18-19.64-5.57-28.41
			c-0.23-0.37-0.72-0.74-1.13-0.8c-1.85-0.29-3.25-1.22-4.43-2.64c-6.48-7.84-14.76-12.64-24.86-13.78
			c-13.74-1.55-25.19,3.09-34.2,13.59c-1.3,1.52-2.75,2.59-4.77,2.86c-0.39,0.05-0.84,0.51-1.06,0.9
			c-3.58,6.12-5.48,12.73-5.58,19.82c-0.04,2.81-0.01,5.61-0.01,8.47c0.91-0.34,1.74-0.77,2.63-0.95c4.24-0.85,7.86,2.17,7.92,6.61
			c0.05,3.31,0.01,6.63,0.01,9.94c0,8.75,0.01,17.5,0,26.26c0,3.63-2.02,6.24-5.29,6.92c-3.17,0.66-6.33-1.07-7.42-4.15
			c-0.27-0.78-0.62-1.03-1.44-1.02c-2.74,0.03-4.28-1.52-4.22-4.3c0.02-1.17-0.28-2.03-1.17-2.82c-1.19-1.05-2.31-2.18-3.35-3.37
			c-0.41-0.46-0.75-1.17-0.76-1.78c-0.06-4.97-0.06-9.94,0-14.91c0.01-0.57,0.32-1.25,0.71-1.68c1.21-1.33,2.5-2.59,3.81-3.83
			c0.54-0.51,0.75-1.05,0.75-1.79c-0.01-6.41-0.11-12.82,0.08-19.23c0.24-8.15,2.66-15.7,6.86-22.69c0.39-0.65,0.54-1.23,0.39-2.01
			c-0.39-2.04,0.28-3.82,1.59-5.4c7.77-9.38,17.52-15.63,29.52-17.81c19.97-3.63,36.72,2.33,50.01,17.76
			c1.48,1.72,2.05,3.66,1.58,5.92c-0.08,0.37,0.05,0.86,0.26,1.2c4.92,8.12,7.26,16.93,7.15,26.42c-0.07,5.29-0.03,10.59,0.02,15.88
			c0.01,0.57,0.31,1.25,0.69,1.67c1.23,1.36,2.62,2.58,3.85,3.94c0.39,0.43,0.68,1.12,0.69,1.7c0.05,4.93,0.06,9.87-0.01,14.8
			c-0.01,0.63-0.36,1.38-0.79,1.87c-1.12,1.27-2.34,2.45-3.57,3.6c-0.66,0.61-0.97,1.25-0.9,2.16c0.05,0.7-0.01,1.46-0.22,2.13
			c-0.52,1.67-1.99,2.56-4.06,2.58c-0.57,0-1.03-0.05-1.3,0.74c-1.07,3.15-4.07,4.98-7.13,4.49c-3.3-0.53-5.52-3.08-5.67-6.5
			c-0.01-0.14-0.01-0.29-0.01-0.43c0-12.03-0.01-24.06,0.01-36.09c0-3.12,1.6-5.54,4.25-6.52c1.77-0.65,3.53-0.56,5.24,0.26
			c0.29,0.14,0.57,0.29,0.86,0.44C220.7,149.11,220.74,149.08,220.75,149.08z"/>
		<path fill="none" stroke="#FFFFFF" stroke-miterlimit="10" d="M222.11,173.1c0-6.61,0-13.22-0.01-19.83c0-0.55,0-1.13-0.16-1.66
			c-0.65-2.11-3.24-3.58-5.87-3.38c-3.01,0.23-5.16,2.03-5.22,4.5c-0.07,2.75-0.02,5.5-0.02,8.24c0,10.63,0,21.26,0.01,31.9
			c0,2.37,1.35,4.05,3.74,4.73c3.74,1.05,7.49-1.07,7.51-4.31C222.13,186.56,222.11,179.83,222.11,173.1z"/>
		<path fill="none" stroke="#FFFFFF" stroke-miterlimit="10" d="M222.29,192.07c3.98,0.5,5.29-0.07,5.29-2.3
			c0.01-11.34,0-22.69-0.01-34.03c0-2.17-1.52-2.79-5.28-2.16C222.29,166.41,222.29,179.25,222.29,192.07z"/>
		<path fill="none" stroke="#FFFFFF" stroke-miterlimit="10" d="M137.8,193.61c0.02,3.24,3.78,5.36,7.51,4.31
			c2.39-0.67,3.74-2.36,3.74-4.73c0.01-10.63,0-21.26,0.01-31.9c0-2.75,0.05-5.5-0.02-8.24c-0.06-2.47-2.21-4.27-5.22-4.5
			c-2.63-0.2-5.22,1.26-5.87,3.38c-0.16,0.53-0.16,1.1-0.16,1.66c-0.01,6.61-0.01,13.22-0.01,19.83
			C137.78,180.15,137.76,186.88,137.8,193.61z"/>
		<path fill="none" stroke="#FFFFFF" stroke-miterlimit="10" d="M137.61,153.9c-3.72-0.63-5.23,0-5.23,2.16
			c-0.01,11.34-0.02,22.69-0.01,34.03c0,2.23,1.29,2.79,5.24,2.3C137.61,179.57,137.61,166.73,137.61,153.9z"/>
		<path fill="none" stroke="#FFFFFF" stroke-miterlimit="10" d="M220.51,113.4c0,3.23-2.89,5.85-6.46,5.85"/>
		<path fill="none" stroke="#FFFFFF" stroke-miterlimit="10" d="M139.4,113.34c0,3.23,2.89,5.85,6.46,5.85"/>
	</g>
</g>
</svg>
