<?xml version="1.0" encoding="utf-8"?>
<!-- Generator: Adobe Illustrator 23.1.0, SVG Export Plug-In . SVG Version: 6.00 Build 0)  -->
<svg version="1.1" xmlns="http://www.w3.org/2000/svg" xmlns:xlink="http://www.w3.org/1999/xlink" x="0px" y="0px"
	 viewBox="0 0 360 360" enable-background="new 0 0 360 360" xml:space="preserve">
<g id="BACKGROUND">
	<rect x="0" width="360" height="360"/>
</g>
<g id="REF" display="none">
	
		<rect x="-360" y="90.27" display="inline" fill="none" stroke="#000000" stroke-width="0.25" stroke-miterlimit="10" width="360" height="108"/>
	
		<rect y="90.27" display="inline" fill="none" stroke="#FFFFFF" stroke-width="0.25" stroke-miterlimit="10" width="360" height="108"/>
	
		<line display="inline" fill="none" stroke="#FFFFFF" stroke-width="0.25" stroke-linecap="round" stroke-miterlimit="10" x1="180" y1="0.21" x2="180" y2="360.08"/>
</g>
<g id="LINE_ONE">
	<g>
		<path fill="#FFFFFF" d="M143.49,241.16c0-1.15,0.16-2.17,0.48-3.07c0.32-0.9,0.78-1.66,1.37-2.29c0.59-0.63,1.31-1.1,2.16-1.43
			c0.85-0.33,1.8-0.49,2.85-0.49c1.49,0,2.75,0.33,3.76,0.98c1.01,0.65,1.73,1.65,2.16,2.98l-2.92,1.02
			c-0.24-0.79-0.6-1.4-1.08-1.83c-0.48-0.43-1.14-0.65-1.98-0.65c-0.61,0-1.15,0.12-1.62,0.36s-0.85,0.57-1.16,0.99
			s-0.54,0.92-0.69,1.51s-0.23,1.23-0.23,1.92s0.08,1.33,0.23,1.91s0.38,1.08,0.69,1.51s0.69,0.76,1.16,1s1.01,0.36,1.64,0.36
			c0.77,0,1.4-0.19,1.89-0.58c0.49-0.39,0.86-0.97,1.11-1.76l2.88,1.02c-0.47,1.19-1.19,2.12-2.16,2.8
			c-0.97,0.68-2.23,1.02-3.76,1.02c-1.03,0-1.96-0.16-2.79-0.49c-0.83-0.33-1.55-0.8-2.14-1.42c-0.59-0.62-1.05-1.38-1.37-2.29
			C143.65,243.33,143.49,242.31,143.49,241.16z"/>
		<path fill="#FFFFFF" d="M171.15,238.42c0,1.04-0.24,1.89-0.71,2.54s-1.12,1.14-1.95,1.46l3.22,5.74h-3.3l-2.9-5.3h-1.86v5.3h-2.98
			v-14h5.12c0.81,0,1.55,0.08,2.21,0.25s1.22,0.42,1.69,0.77c0.47,0.35,0.83,0.79,1.08,1.32S171.15,237.67,171.15,238.42z
			 M168.07,238.44c0-0.68-0.22-1.15-0.65-1.41c-0.43-0.26-1.09-0.39-1.97-0.39h-1.8v3.78h1.8c0.88,0,1.54-0.15,1.97-0.45
			C167.85,239.67,168.07,239.16,168.07,238.44z"/>
		<path fill="#FFFFFF" d="M188.35,248.16h-3.1l-1.12-3.24h-5.02l-1.12,3.24h-2.94l5.04-14h3.22L188.35,248.16z M181.59,237.44
			c-0.03,0.11-0.07,0.26-0.14,0.47s-0.14,0.44-0.22,0.7s-0.17,0.54-0.27,0.84c-0.1,0.3-0.2,0.59-0.29,0.87
			c-0.23,0.69-0.47,1.43-0.74,2.22h3.38c-0.27-0.79-0.51-1.53-0.74-2.22c-0.15-0.4-0.26-0.73-0.35-0.99
			c-0.09-0.26-0.17-0.51-0.24-0.75c-0.07-0.24-0.14-0.46-0.21-0.67s-0.11-0.36-0.14-0.47H181.59z"/>
		<path fill="#FFFFFF" d="M192.49,248.16v-14h9.58v2.48h-6.62v3.08h6.1v2.48h-6.1v5.96H192.49z"/>
		<path fill="#FFFFFF" d="M205.89,234.16h11.1v2.5h-4.04v11.5h-3.02v-11.5h-4.04V234.16z"/>
	</g>
</g>
<g id="LINE_TWO">
</g>
<g id="ICON">
	<g>
		<path fill="none" stroke="#FFFFFF" stroke-width="3" stroke-miterlimit="10" d="M198.59,196.91c-8.44,0.38-16.2-7.16-16.81-15.21
			c-0.23-3.03,0.25-5.95,1.52-8.71c1.42-3.1,1.23-5.96-0.96-8.68c-2.25-2.79-4.94-5.09-7.69-7.32c-2.14-1.74-4.24-3.55-5.28-6.2
			c-0.79-2-1.45-4.05-2.09-6.1c-3.93-12.69-7.91-25.36-11.73-38.08c-1.63-5.43-0.4-10.52,2.71-15.19c0.26-0.39,0.59-0.74,0.94-1.06
			c0.86-0.77,1.59-0.63,2.06,0.41c2.28,4.99,4.58,9.97,6.81,14.98c7.87,17.66,15.71,35.34,23.57,53.01c1.2,2.71,3.29,4.18,6.25,4.42
			c2.38,0.2,4.76,0.41,7.01,1.33c6.9,2.81,11.16,9.97,10.38,17.38c-0.78,7.45-6.3,13.26-13.38,14.71
			C200.82,196.82,199.69,196.81,198.59,196.91z M188.96,180.11c-0.7,4.81,4.83,10.19,9.44,9.61c5.32,0.53,9.86-4.74,9.91-9.29
			c0.06-5.25-4.32-10.02-9.84-10.05C193.1,170.35,188.33,175.66,188.96,180.11z"/>
		<path fill="none" stroke="#FFFFFF" stroke-width="3" stroke-miterlimit="10" d="M165.53,155.71c2.45,3.14,5.39,5.52,8.45,7.83
			c-0.36,0.49-0.69,0.92-1,1.36c-1.63,2.28-2.04,4.75-0.85,7.3c1.66,3.55,2.28,7.26,1.53,11.06c-1.14,5.79-4.45,10.08-9.95,12.33
			c-10.51,4.3-20.91-2.23-22.94-11.8c-2.1-9.89,3.96-17.59,12.09-19.9c1.53-0.43,3.17-0.54,4.76-0.66c2.98-0.24,5.14-1.62,6.42-4.32
			C164.53,157.9,164.98,156.89,165.53,155.71z M157.1,189.71c4.84,0.55,9.76-4.29,9.78-9.55c0.02-5.07-4.25-9.75-9.95-9.78
			c-4.83-0.02-9.6,4.77-9.42,9.59C147.72,185.57,151.55,189.68,157.1,189.71z"/>
		<path fill="none" stroke="#FFFFFF" stroke-width="3" stroke-miterlimit="10" d="M189.73,140.48c-0.63-1.36-1.19-2.51-1.7-3.67
			c-2.21-4.94-4.39-9.89-6.61-14.83c-0.25-0.56-0.3-1.06-0.06-1.62c1.5-3.52,2.94-7.07,4.49-10.57c2.7-6.09,5.46-12.16,8.2-18.24
			c0.06-0.13,0.12-0.26,0.18-0.39c0.76-1.58,1.6-1.75,2.69-0.33c2.34,3.02,3.69,6.41,3.88,10.31c0.15,3.15-0.73,6.03-1.63,8.94
			c-3.02,9.82-6.07,19.64-9.1,29.46C190,139.78,189.9,140.02,189.73,140.48z"/>
		<circle fill="none" stroke="#FFFFFF" stroke-miterlimit="10" cx="177.95" cy="149.16" r="3.97"/>
	</g>
	<g>
		<g>
			<path fill="none" stroke="#FFFFFF" stroke-width="3" stroke-miterlimit="10" d="M123.45,142.21c0,0.4-0.32,0.72-0.72,0.72H77.62
				c-0.4,0-0.72-0.32-0.72-0.72c0,0,0-26.9,0-40.71c0-3.73,0-10.47,0-10.47c0-0.4,0.32-0.72,0.72-0.72h45.12
				c0.4,0,0.72,0.32,0.72,0.72V142.21z"/>
		</g>
		<path fill="none" stroke="#FFFFFF" stroke-width="3" stroke-miterlimit="10" d="M79.4,143.25c13.85,0,27.7,0,41.56,0
			c0.14,0.52-0.34,0.53-0.73,0.62c-2.16,0.47-4.37,0.84-6.47,1.43c-1.71,0.48-3.4,1.09-4.92,1.86c-3.54,1.8-5.02,4.55-5.45,7.72
			c-0.31,2.28,0.08,4.52,0.36,6.78c0.31,2.54,0.64,5.08,0.96,7.61c0.42,3.35,0.86,6.7,1.27,10.06c0.35,2.9,0.89,5.79,0.64,8.71
			c-0.14,1.68-0.5,3.32-1.44,4.86c-0.98,1.62-2.54,2.78-4.61,3.52c-0.24,0.08-0.62,0.06-0.86-0.03c-3.28-1.19-4.89-3.33-5.57-5.99
			c-0.62-2.42-0.53-4.85-0.23-7.28c0.37-2.94,0.74-5.87,1.11-8.81c0.42-3.35,0.87-6.7,1.26-10.06c0.3-2.61,0.62-5.23,0.76-7.85
			c0.11-1.97-0.39-3.9-1.51-5.7c-1.62-2.59-4.41-4.15-7.77-5.08c-2.5-0.69-5.09-1.18-7.64-1.76
			C79.72,143.78,79.27,143.75,79.4,143.25z"/>
		<path fill="#FFFFFF" d="M77.87,95.51c0-1.57,0-2.96,0-4.37c15.36,0,30.63,0,46.01,0c0,1.45,0,2.82,0,4.37
			c-1.55,0-3.04-0.01-4.53,0c-3.36,0.02-5.36,1.62-5.43,4.33c-0.02,0.7,0.03,1.4,0.01,2.11c-0.02,0.79-0.41,1.43-1.49,1.41
			c-1.02-0.01-1.35-0.65-1.38-1.38c-0.03-0.78,0-1.55-0.01-2.33c-0.05-2.3-2.17-4.1-4.85-4.14c-2.81-0.04-5.03,1.67-5.09,4.04
			c-0.07,2.66-0.04,5.32-0.01,7.98c0.01,0.87-0.25,1.65-1.46,1.67c-1.25,0.01-1.46-0.83-1.46-1.66c0-2.59,0.01-5.17,0-7.76
			c-0.01-2.54-2.08-4.25-5.23-4.26c-4.47-0.02-8.95,0-13.42,0C78.99,95.51,78.45,95.51,77.87,95.51z"/>
		<line fill="none" stroke="#FFFFFF" stroke-miterlimit="10" x1="77.87" y1="131.19" x2="122.87" y2="131.19"/>
		<circle fill="none" stroke="#FFFFFF" stroke-miterlimit="10" cx="100.18" cy="187.66" r="1.76"/>
	</g>
	<g>
		<g>
			<path fill="none" stroke="#FFFFFF" stroke-width="3" stroke-miterlimit="10" d="M283.1,125.39c0,0.4-0.32,0.72-0.72,0.72h-51.23
				c-0.4,0-0.72-0.32-0.72-0.72V97.72c0-0.4,0.32-0.72,0.72-0.72h51.23c0.4,0,0.72,0.32,0.72,0.72V125.39z"/>
		</g>
		<rect x="249.23" y="89.54" fill="none" stroke="#FFFFFF" stroke-width="3" stroke-miterlimit="10" width="15.07" height="5.83"/>
		<rect x="249.23" y="126.52" fill="none" stroke="#FFFFFF" stroke-width="3" stroke-miterlimit="10" width="15.07" height="5.43"/>
		
			<rect x="250.52" y="131.95" fill="none" stroke="#FFFFFF" stroke-width="3" stroke-miterlimit="10" width="12.39" height="64.37"/>
		<line fill="none" stroke="#FFFFFF" stroke-miterlimit="10" x1="233.92" y1="97" x2="233.92" y2="126.11"/>
		<line fill="none" stroke="#FFFFFF" stroke-miterlimit="10" x1="279.51" y1="97" x2="279.51" y2="126.11"/>
	</g>
</g>
</svg>
