<?xml version="1.0" encoding="utf-8"?>
<!-- Generator: Adobe Illustrator 23.1.0, SVG Export Plug-In . SVG Version: 6.00 Build 0)  -->
<svg version="1.1" xmlns="http://www.w3.org/2000/svg" xmlns:xlink="http://www.w3.org/1999/xlink" x="0px" y="0px"
	 viewBox="0 0 360 360" enable-background="new 0 0 360 360" xml:space="preserve">
<g id="BACKGROUND">
	<rect width="360" height="360"/>
</g>
<g id="REF" display="none">
	
		<rect x="-360" y="90.33" display="inline" fill="none" stroke="#000000" stroke-width="0.25" stroke-miterlimit="10" width="360" height="108"/>
	
		<rect y="90.33" display="inline" fill="none" stroke="#FFFFFF" stroke-width="0.25" stroke-miterlimit="10" width="360" height="108"/>
	
		<line display="inline" fill="none" stroke="#FFFFFF" stroke-width="0.25" stroke-linecap="round" stroke-miterlimit="10" x1="180" y1="0.19" x2="180" y2="360.06"/>
</g>
<g id="LINE_ONE">
	<g>
		<path fill="#FFFFFF" d="M142.98,243.24v4.92H140v-14h5.32c0.84,0,1.6,0.09,2.28,0.26c0.68,0.17,1.26,0.44,1.74,0.8
			c0.48,0.36,0.85,0.82,1.12,1.38c0.27,0.56,0.4,1.23,0.4,2.02c0,0.8-0.14,1.49-0.41,2.07c-0.27,0.58-0.65,1.06-1.14,1.44
			s-1.07,0.66-1.75,0.84c-0.68,0.18-1.43,0.27-2.24,0.27H142.98z M147.8,238.62c0-0.76-0.23-1.28-0.69-1.56
			c-0.46-0.28-1.16-0.42-2.09-0.42h-2.04v4.12h2.04c0.93,0,1.63-0.17,2.09-0.5C147.57,239.92,147.8,239.38,147.8,238.62z"/>
		<path fill="#FFFFFF" d="M160.78,248.44c-1.95,0-3.37-0.48-4.26-1.44s-1.34-2.29-1.34-4v-8.84h3v8.86c0,0.85,0.21,1.56,0.64,2.11
			c0.43,0.55,1.08,0.83,1.96,0.83s1.53-0.28,1.96-0.83c0.43-0.55,0.64-1.26,0.64-2.11v-8.86h3V243c0,1.71-0.45,3.04-1.34,4
			C164.15,247.96,162.73,248.44,160.78,248.44z"/>
		<path fill="#FFFFFF" d="M171.58,234.16h6.08c0.65,0,1.24,0.09,1.75,0.28s0.95,0.44,1.3,0.77c0.35,0.33,0.62,0.71,0.81,1.16
			c0.19,0.45,0.28,0.93,0.28,1.45c0,0.43-0.06,0.81-0.18,1.14c-0.12,0.33-0.28,0.62-0.47,0.87c-0.19,0.25-0.41,0.45-0.66,0.62
			c-0.25,0.17-0.5,0.3-0.77,0.39c0.31,0.04,0.62,0.13,0.93,0.26c0.31,0.13,0.6,0.32,0.87,0.57c0.27,0.25,0.48,0.56,0.65,0.93
			c0.17,0.37,0.25,0.83,0.25,1.38c0,0.6-0.11,1.16-0.34,1.67s-0.54,0.95-0.94,1.32c-0.4,0.37-0.87,0.66-1.42,0.87
			c-0.55,0.21-1.15,0.32-1.8,0.32h-6.34V234.16z M174.5,236.6v3.24h2.1c0.72,0,1.25-0.12,1.6-0.36c0.35-0.24,0.52-0.67,0.52-1.3
			c0-0.57-0.15-0.98-0.45-1.22c-0.3-0.24-0.8-0.36-1.51-0.36H174.5z M174.5,245.72h2.4c0.95,0,1.59-0.15,1.93-0.45
			c0.34-0.3,0.51-0.74,0.51-1.31c0-0.68-0.21-1.14-0.62-1.37c-0.41-0.23-1.03-0.35-1.86-0.35h-2.36V245.72z"/>
		<path fill="#FFFFFF" d="M187.08,234.16h3v11.5h6.12v2.5h-9.12V234.16z"/>
		<path fill="#FFFFFF" d="M200.4,234.16h3v14h-3V234.16z"/>
		<path fill="#FFFFFF" d="M208.1,241.16c0-1.15,0.16-2.17,0.48-3.07c0.32-0.9,0.78-1.66,1.37-2.29c0.59-0.63,1.31-1.1,2.16-1.43
			c0.85-0.33,1.8-0.49,2.85-0.49c1.49,0,2.75,0.33,3.76,0.98c1.01,0.65,1.73,1.65,2.16,2.98l-2.92,1.02
			c-0.24-0.79-0.6-1.4-1.08-1.83c-0.48-0.43-1.14-0.65-1.98-0.65c-0.61,0-1.15,0.12-1.62,0.36s-0.85,0.57-1.16,0.99
			s-0.54,0.92-0.69,1.51c-0.15,0.59-0.23,1.23-0.23,1.92s0.08,1.33,0.23,1.91c0.15,0.58,0.38,1.08,0.69,1.51s0.69,0.76,1.16,1
			s1.01,0.36,1.64,0.36c0.77,0,1.4-0.19,1.89-0.58c0.49-0.39,0.86-0.97,1.11-1.76l2.88,1.02c-0.47,1.19-1.19,2.12-2.16,2.8
			c-0.97,0.68-2.23,1.02-3.76,1.02c-1.03,0-1.96-0.16-2.79-0.49c-0.83-0.33-1.55-0.8-2.14-1.42c-0.59-0.62-1.05-1.38-1.37-2.29
			C208.26,243.33,208.1,242.3,208.1,241.16z"/>
	</g>
</g>
<g id="LINE_TWO">
	<g>
		<path fill="#FFFFFF" d="M127.83,260.2c0,1.04-0.24,1.89-0.71,2.54c-0.47,0.65-1.12,1.14-1.95,1.46l3.22,5.74h-3.3l-2.9-5.3h-1.86
			v5.3h-2.98v-14h5.12c0.81,0,1.55,0.08,2.21,0.25s1.22,0.42,1.69,0.77c0.47,0.35,0.83,0.79,1.08,1.32
			C127.7,258.82,127.83,259.46,127.83,260.2z M124.75,260.22c0-0.68-0.22-1.15-0.65-1.41c-0.43-0.26-1.09-0.39-1.97-0.39h-1.8v3.78
			h1.8c0.88,0,1.54-0.15,1.97-0.45C124.53,261.45,124.75,260.94,124.75,260.22z"/>
		<path fill="#FFFFFF" d="M132.87,269.94v-14h9.54v2.48h-6.58v3.08h6.12v2.48h-6.12v3.48h6.68v2.48H132.87z"/>
		<path fill="#FFFFFF" d="M147.15,255.94h3v11.5h6.12v2.5h-9.12V255.94z"/>
		<path fill="#FFFFFF" d="M172.63,269.94h-3.1l-1.12-3.24h-5.02l-1.12,3.24h-2.94l5.04-14h3.22L172.63,269.94z M165.87,259.22
			c-0.03,0.11-0.07,0.26-0.14,0.47s-0.14,0.44-0.22,0.7s-0.17,0.54-0.27,0.84s-0.2,0.59-0.29,0.87c-0.23,0.69-0.47,1.43-0.74,2.22
			h3.38c-0.27-0.79-0.51-1.53-0.74-2.22c-0.15-0.4-0.26-0.73-0.35-0.99c-0.09-0.26-0.17-0.51-0.24-0.75
			c-0.07-0.24-0.14-0.46-0.21-0.67c-0.07-0.21-0.11-0.36-0.14-0.47H165.87z"/>
		<path fill="#FFFFFF" d="M174.11,255.94h11.1v2.5h-4.04v11.5h-3.02v-11.5h-4.04V255.94z"/>
		<path fill="#FFFFFF" d="M189.43,255.94h3v14h-3V255.94z"/>
		<path fill="#FFFFFF" d="M197.13,262.94c0-1.13,0.16-2.15,0.49-3.05c0.33-0.9,0.79-1.66,1.38-2.29c0.59-0.63,1.31-1.11,2.15-1.44
			c0.84-0.33,1.77-0.5,2.8-0.5c1.03,0,1.96,0.17,2.8,0.5c0.84,0.33,1.56,0.81,2.15,1.44c0.59,0.63,1.05,1.39,1.38,2.29
			c0.33,0.9,0.49,1.92,0.49,3.05c0,1.13-0.16,2.15-0.49,3.05c-0.33,0.9-0.79,1.66-1.38,2.29c-0.59,0.63-1.31,1.11-2.15,1.44
			c-0.84,0.33-1.77,0.5-2.8,0.5c-1.03,0-1.96-0.17-2.8-0.5s-1.56-0.81-2.15-1.44c-0.59-0.63-1.05-1.39-1.38-2.29
			C197.3,265.09,197.13,264.08,197.13,262.94z M200.23,262.94c0,0.71,0.08,1.36,0.23,1.95c0.15,0.59,0.38,1.1,0.69,1.52
			s0.69,0.75,1.16,0.98s1.01,0.35,1.64,0.35s1.17-0.12,1.64-0.35c0.47-0.23,0.85-0.56,1.16-0.98c0.31-0.42,0.54-0.93,0.69-1.52
			c0.15-0.59,0.23-1.24,0.23-1.95s-0.08-1.36-0.23-1.95c-0.15-0.59-0.38-1.1-0.69-1.52c-0.31-0.42-0.69-0.75-1.16-0.98
			c-0.47-0.23-1.01-0.35-1.64-0.35s-1.17,0.12-1.64,0.35s-0.85,0.56-1.16,0.98s-0.54,0.93-0.69,1.52
			C200.31,261.59,200.23,262.24,200.23,262.94z"/>
		<path fill="#FFFFFF" d="M215.47,255.94h3.12c0.81,1.32,1.59,2.57,2.32,3.76c0.44,0.71,0.8,1.29,1.08,1.75s0.56,0.92,0.84,1.37
			s0.55,0.88,0.8,1.29c0.25,0.41,0.47,0.75,0.64,1.03h0.06v-9.2h2.84v14h-3.12c-0.8-1.29-1.56-2.53-2.28-3.7
			c-0.43-0.69-0.78-1.27-1.07-1.73s-0.57-0.92-0.85-1.38c-0.28-0.46-0.55-0.9-0.81-1.32s-0.48-0.78-0.67-1.07h-0.06v9.2h-2.84
			V255.94z"/>
		<path fill="#FFFFFF" d="M235.17,259.62c0,0.6,0.26,1.03,0.78,1.29c0.52,0.26,1.35,0.48,2.48,0.67c1.67,0.28,2.89,0.74,3.67,1.38
			c0.78,0.64,1.17,1.59,1.17,2.86c0,0.68-0.14,1.29-0.42,1.83s-0.67,1-1.17,1.38s-1.1,0.67-1.79,0.88
			c-0.69,0.21-1.45,0.31-2.26,0.31c-0.88,0-1.67-0.12-2.38-0.35c-0.71-0.23-1.31-0.54-1.8-0.93c-0.49-0.39-0.88-0.84-1.16-1.36
			c-0.28-0.52-0.43-1.06-0.46-1.62l3-0.48c0.07,0.68,0.33,1.24,0.79,1.67c0.46,0.43,1.13,0.65,2.01,0.65c0.36,0,0.7-0.03,1.01-0.1
			c0.31-0.07,0.59-0.18,0.82-0.33c0.23-0.15,0.42-0.34,0.55-0.57c0.13-0.23,0.2-0.5,0.2-0.82c0-0.52-0.22-0.92-0.65-1.2
			s-1.2-0.51-2.29-0.68c-0.73-0.12-1.41-0.27-2.04-0.46s-1.17-0.44-1.63-0.77c-0.46-0.33-0.82-0.73-1.08-1.22
			c-0.26-0.49-0.39-1.08-0.39-1.79c0-0.71,0.13-1.32,0.4-1.84c0.27-0.52,0.64-0.96,1.12-1.31c0.48-0.35,1.05-0.62,1.7-0.79
			c0.65-0.17,1.37-0.26,2.14-0.26c0.72,0,1.39,0.08,2.02,0.25c0.63,0.17,1.18,0.41,1.67,0.74c0.49,0.33,0.89,0.73,1.21,1.21
			c0.32,0.48,0.54,1.03,0.66,1.64l-3.04,0.66c-0.11-0.64-0.38-1.15-0.82-1.52c-0.44-0.37-1.03-0.56-1.78-0.56
			c-0.76,0-1.32,0.14-1.69,0.42C235.35,258.78,235.17,259.16,235.17,259.62z"/>
	</g>
	<path fill="#FFFFFF" d="M155.13,193.38c0,0.98,0.01,1.75,0,2.53c-0.02,1.8-1.08,2.84-2.88,2.84c-10.43,0.01-20.86,0.01-31.28,0.01
		c-1.96,0-3-1.05-3-3.03c0-17.46,0-34.92,0.01-52.37c0-1.93,1.04-2.98,2.97-2.98c10.4,0,20.81-0.01,31.21-0.01
		c1.93,0,2.98,1.04,2.99,2.96c0,0.75,0,1.5,0,2.31c2.12,0.06,4.07-0.36,5.8-1.44c0.97-0.6,1.79-1.43,2.66-2.18
		c1.44-1.25,2.86-2.52,4.3-3.78c4.47-3.92,8.38-8.31,11.05-13.67c0.9-1.81,1.61-3.72,2.3-5.62c0.29-0.8,0.38-1.71,0.39-2.57
		c0.04-3.92-0.01-7.83,0.05-11.75c0.01-0.69,0.25-1.46,0.62-2.04c3.7-5.61,11.48-6.31,16.44-1.53c2.41,2.32,3.78,5.2,4.6,8.38
		c1.11,4.27,1.11,8.6,0.61,12.93c-0.26,2.24-0.73,4.46-1.1,6.7c-0.03,0.18-0.05,0.36-0.08,0.65c0.66,0,1.27,0,1.87,0
		c8.3,0.01,16.61-0.02,24.91,0.05c1.61,0.01,3.26,0.22,4.82,0.62c4.13,1.08,6.54,3.84,7.31,8.02c0.44,2.41,0.5,4.85-0.14,7.23
		c-0.29,1.09-0.92,2.09-1.46,3.1c-0.17,0.32-0.3,0.51-0.09,0.86c2.58,4.3,2.18,10.89-1.69,15.09c-0.17,0.18-0.21,0.6-0.14,0.87
		c1.06,4.32,0.61,8.43-1.73,12.26c-0.9,1.47-2.13,2.63-3.54,3.61c-0.22,0.16-0.44,0.5-0.44,0.76c0.1,8.22-5.31,14.82-13.51,16.18
		c-2.26,0.38-4.6,0.34-6.91,0.35c-13.35,0.03-26.71,0.01-40.06,0.02c-3.05,0-5.68-0.98-7.89-3.09c-1.1-1.05-2.42-1.79-3.92-1.99
		C158.56,193.48,156.91,193.48,155.13,193.38z M227.14,182.85c-0.43,0-0.75,0-1.08,0c-4.11,0-8.21,0.01-12.32,0
		c-2.15-0.01-3.46-1.9-2.61-3.76c0.51-1.11,1.44-1.56,2.63-1.56c4.72,0,9.44-0.03,14.16,0.02c1.11,0.01,1.99-0.34,2.75-1.05
		c0.53-0.49,1.02-1.06,1.4-1.67c1.37-2.27,1.56-4.75,1.11-7.31c-0.09-0.51-0.35-0.61-0.83-0.61c-4.55,0.02-9.11,0.01-13.66,0.01
		c-1.75,0-3.49,0.03-5.24-0.01c-1.83-0.04-3.02-1.85-2.39-3.56c0.41-1.11,1.37-1.73,2.73-1.73c6.44,0,12.88,0,19.32,0.02
		c0.61,0,1.02-0.19,1.39-0.65c0.85-1.02,1.41-2.17,1.64-3.48c0.37-2.05,0.19-4-1.11-5.72c-0.4-0.54-0.89-0.82-1.62-0.81
		c-2.24,0.05-4.48,0.02-6.72,0.02c-4.34,0-8.68,0.01-13.02,0c-2.07-0.01-3.38-1.96-2.53-3.77c0.53-1.12,1.48-1.57,2.7-1.57
		c6.91,0.01,13.83,0.01,20.74,0.01c1.4,0,1.77-0.21,1.9-1.61c0.14-1.47,0.17-2.98-0.01-4.43c-0.31-2.5-1.61-3.77-4.08-4.19
		c-1.18-0.2-2.39-0.35-3.58-0.36c-4.46-0.04-8.92-0.02-13.38-0.03c-5.33,0-10.66,0-16-0.01c-1.37,0-2.47-0.75-2.68-1.96
		c-0.11-0.62-0.02-1.32,0.14-1.94c0.91-3.57,1.69-7.16,1.97-10.84c0.25-3.43,0.21-6.84-0.78-10.17c-0.66-2.21-1.66-4.22-3.55-5.66
		c-2.28-1.74-5.05-1.66-7,0.13c-0.39,0.36-0.58,0.74-0.57,1.29c0.02,3.54,0.02,7.08,0.01,10.62c0,0.7-0.02,1.42-0.15,2.11
		c-0.53,2.83-1.64,5.46-2.91,8.02c-3.11,6.27-7.62,11.43-12.89,15.97c-1.14,0.99-2.39,1.87-3.4,2.98c-2.91,3.19-6.5,4.92-10.76,5.34
		c-0.55,0.05-1.11,0.08-1.68,0.11c0,12.38,0,24.7,0,37.11c1.16,0,2.27-0.02,3.37,0c3.43,0.08,6.5,1.2,9.02,3.53
		c1.38,1.28,2.92,1.79,4.75,1.79c10.38-0.01,20.76,0,31.14,0c4.11,0,8.21,0.04,12.31-0.03c3.43-0.06,6.5-1.09,8.82-3.8
		C226.23,187.73,227.1,185.52,227.14,182.85z M149.78,145.72c-8.83,0-17.62,0-26.45,0c0,15.93,0,31.82,0,47.69
		c8.85,0,17.64,0,26.45,0C149.78,177.49,149.78,161.62,149.78,145.72z"/>
</g>
<g id="ICON">
</g>
</svg>
