<?xml version="1.0" encoding="utf-8"?>
<!-- Generator: Adobe Illustrator 23.1.0, SVG Export Plug-In . SVG Version: 6.00 Build 0)  -->
<svg version="1.1" xmlns="http://www.w3.org/2000/svg" xmlns:xlink="http://www.w3.org/1999/xlink" x="0px" y="0px"
	 viewBox="0 0 360 360" enable-background="new 0 0 360 360" xml:space="preserve">
<g id="BACKGROUND">
	<rect y="0" width="360" height="360"/>
</g>
<g id="REF" display="none">
	
		<rect x="-360" y="90.33" display="inline" fill="none" stroke="#000000" stroke-width="0.25" stroke-miterlimit="10" width="360" height="108"/>
	
		<rect y="90.33" display="inline" fill="none" stroke="#FFFFFF" stroke-width="0.25" stroke-miterlimit="10" width="360" height="108"/>
	
		<line display="inline" fill="none" stroke="#FFFFFF" stroke-width="0.25" stroke-linecap="round" stroke-miterlimit="10" x1="180" y1="0.19" x2="180" y2="360.06"/>
</g>
<g id="LINE_ONE">
	<g>
		<path fill="#FFFFFF" d="M74.28,243.24v4.92H71.3v-14h5.32c0.84,0,1.6,0.09,2.28,0.26c0.68,0.17,1.26,0.44,1.74,0.8
			c0.48,0.36,0.85,0.82,1.12,1.38c0.27,0.56,0.4,1.23,0.4,2.02c0,0.8-0.14,1.49-0.41,2.07s-0.65,1.06-1.14,1.44
			c-0.49,0.38-1.07,0.66-1.75,0.84c-0.68,0.18-1.43,0.27-2.24,0.27H74.28z M79.1,238.62c0-0.76-0.23-1.28-0.69-1.56
			c-0.46-0.28-1.16-0.42-2.09-0.42h-2.04v4.12h2.04c0.93,0,1.63-0.17,2.09-0.5C78.87,239.93,79.1,239.38,79.1,238.62z"/>
		<path fill="#FFFFFF" d="M86.56,248.16v-14h9.54v2.48h-6.58v3.08h6.12v2.48h-6.12v3.48h6.68v2.48H86.56z"/>
		<path fill="#FFFFFF" d="M100.26,241.16c0-1.13,0.16-2.15,0.49-3.05c0.33-0.9,0.79-1.66,1.38-2.29c0.59-0.63,1.31-1.11,2.15-1.44
			c0.84-0.33,1.77-0.5,2.8-0.5c1.03,0,1.96,0.17,2.8,0.5c0.84,0.33,1.56,0.81,2.15,1.44c0.59,0.63,1.05,1.39,1.38,2.29
			c0.33,0.9,0.49,1.92,0.49,3.05c0,1.13-0.16,2.15-0.49,3.05c-0.33,0.9-0.79,1.66-1.38,2.29c-0.59,0.63-1.31,1.11-2.15,1.44
			s-1.77,0.5-2.8,0.5c-1.03,0-1.96-0.17-2.8-0.5c-0.84-0.33-1.56-0.81-2.15-1.44c-0.59-0.63-1.05-1.39-1.38-2.29
			C100.42,243.31,100.26,242.29,100.26,241.16z M103.36,241.16c0,0.71,0.08,1.36,0.23,1.95c0.15,0.59,0.38,1.1,0.69,1.52
			s0.69,0.75,1.16,0.98s1.01,0.35,1.64,0.35c0.63,0,1.17-0.12,1.64-0.35s0.85-0.56,1.16-0.98s0.54-0.93,0.69-1.52
			c0.15-0.59,0.23-1.24,0.23-1.95s-0.08-1.36-0.23-1.95c-0.15-0.59-0.38-1.1-0.69-1.52s-0.69-0.75-1.16-0.98s-1.01-0.35-1.64-0.35
			c-0.63,0-1.17,0.12-1.64,0.35s-0.85,0.56-1.16,0.98s-0.54,0.93-0.69,1.52C103.44,239.8,103.36,240.45,103.36,241.16z"/>
		<path fill="#FFFFFF" d="M121.58,243.24v4.92h-2.98v-14h5.32c0.84,0,1.6,0.09,2.28,0.26c0.68,0.17,1.26,0.44,1.74,0.8
			c0.48,0.36,0.85,0.82,1.12,1.38c0.27,0.56,0.4,1.23,0.4,2.02c0,0.8-0.14,1.49-0.41,2.07s-0.65,1.06-1.14,1.44
			c-0.49,0.38-1.07,0.66-1.75,0.84c-0.68,0.18-1.43,0.27-2.24,0.27H121.58z M126.4,238.62c0-0.76-0.23-1.28-0.69-1.56
			c-0.46-0.28-1.16-0.42-2.09-0.42h-2.04v4.12h2.04c0.93,0,1.63-0.17,2.09-0.5C126.17,239.93,126.4,239.38,126.4,238.62z"/>
		<path fill="#FFFFFF" d="M133.86,234.16h3v11.5h6.12v2.5h-9.12V234.16z"/>
		<path fill="#FFFFFF" d="M147.18,248.16v-14h9.54v2.48h-6.58v3.08h6.12v2.48h-6.12v3.48h6.68v2.48H147.18z"/>
		<path fill="#FFFFFF" d="M167.72,240.5h3.86v-3.88h2.28v3.88h3.86v2.28h-3.86v3.98h-2.28v-3.98h-3.86V240.5z"/>
		<path fill="#FFFFFF" d="M188.68,241.16c0-1.15,0.16-2.17,0.48-3.07c0.32-0.9,0.78-1.66,1.37-2.29c0.59-0.63,1.31-1.1,2.16-1.43
			c0.85-0.33,1.8-0.49,2.85-0.49c1.49,0,2.75,0.33,3.76,0.98c1.01,0.65,1.73,1.65,2.16,2.98l-2.92,1.02
			c-0.24-0.79-0.6-1.4-1.08-1.83c-0.48-0.43-1.14-0.65-1.98-0.65c-0.61,0-1.15,0.12-1.62,0.36s-0.85,0.57-1.16,0.99
			s-0.54,0.92-0.69,1.51c-0.15,0.59-0.23,1.23-0.23,1.92s0.08,1.33,0.23,1.91c0.15,0.58,0.38,1.08,0.69,1.51s0.69,0.76,1.16,1
			s1.01,0.36,1.64,0.36c0.77,0,1.4-0.19,1.89-0.58c0.49-0.39,0.86-0.97,1.11-1.76l2.88,1.02c-0.47,1.19-1.19,2.12-2.16,2.8
			c-0.97,0.68-2.23,1.02-3.76,1.02c-1.03,0-1.96-0.16-2.79-0.49c-0.83-0.33-1.55-0.8-2.14-1.42c-0.59-0.62-1.05-1.38-1.37-2.29
			C188.84,243.33,188.68,242.31,188.68,241.16z"/>
		<path fill="#FFFFFF" d="M211.38,248.44c-1.95,0-3.37-0.48-4.26-1.44c-0.89-0.96-1.34-2.29-1.34-4v-8.84h3v8.86
			c0,0.85,0.21,1.56,0.64,2.11c0.43,0.55,1.08,0.83,1.96,0.83s1.53-0.28,1.96-0.83c0.43-0.55,0.64-1.26,0.64-2.11v-8.86h3V243
			c0,1.71-0.45,3.04-1.34,4S213.32,248.44,211.38,248.44z"/>
		<path fill="#FFFFFF" d="M222.18,234.16h3v11.5h6.12v2.5h-9.12V234.16z"/>
		<path fill="#FFFFFF" d="M232.54,234.16h11.1v2.5h-4.04v11.5h-3.02v-11.5h-4.04V234.16z"/>
		<path fill="#FFFFFF" d="M253.38,248.44c-1.95,0-3.37-0.48-4.26-1.44c-0.89-0.96-1.34-2.29-1.34-4v-8.84h3v8.86
			c0,0.85,0.21,1.56,0.64,2.11c0.43,0.55,1.08,0.83,1.96,0.83s1.53-0.28,1.96-0.83c0.43-0.55,0.64-1.26,0.64-2.11v-8.86h3V243
			c0,1.71-0.45,3.04-1.34,4S255.33,248.44,253.38,248.44z"/>
		<path fill="#FFFFFF" d="M274.66,238.42c0,1.04-0.24,1.89-0.71,2.54s-1.12,1.14-1.95,1.46l3.22,5.74h-3.3l-2.9-5.3h-1.86v5.3h-2.98
			v-14h5.12c0.81,0,1.55,0.08,2.21,0.25c0.66,0.17,1.22,0.42,1.69,0.77c0.47,0.35,0.83,0.79,1.08,1.32
			C274.53,237.03,274.66,237.67,274.66,238.42z M271.58,238.44c0-0.68-0.22-1.15-0.65-1.41c-0.43-0.26-1.09-0.39-1.97-0.39h-1.8
			v3.78h1.8c0.88,0,1.54-0.15,1.97-0.45C271.36,239.67,271.58,239.16,271.58,238.44z"/>
		<path fill="#FFFFFF" d="M279.7,248.16v-14h9.54v2.48h-6.58v3.08h6.12v2.48h-6.12v3.48h6.68v2.48H279.7z"/>
	</g>
</g>
<g id="LINE_TWO">
</g>
<g id="ICON">
	<g>
		<path fill="#FFFFFF" d="M180.09,104.67c1.19-1.24,2.38-2.45,3.55-3.68c5.1-5.33,11.24-8.77,18.51-10.11
			c8.38-1.54,16.33-0.21,23.61,4.19c9.04,5.47,14.45,13.55,16.13,24c1.04,6.52,0.14,12.86-2.52,18.91
			c-1.91,4.35-4.75,8.04-8.15,11.34c-3.57,3.47-7.05,7.02-10.57,10.53c-1.69,1.69-3.39,3.36-5.05,5.08
			c-0.31,0.32-0.57,0.77-0.66,1.2c-0.88,4.28-3.59,6.68-8,7.02c-0.08,0.01-0.16,0.04-0.23,0.06c-0.17,4.93-3.71,8.19-8.35,8.39
			c-1.11,5.73-3.1,7.73-8.34,8.33c-0.09,0.6-0.16,1.22-0.29,1.83c-1.05,4.89-6.1,7.67-10.84,6.04c-2.41-0.83-4.17-2.49-5.9-4.22
			c-3.57-3.58-7.14-7.16-10.72-10.74c-4.56-4.56-9.13-9.12-13.69-13.68c-5.55-5.54-11.11-11.07-16.63-16.64
			c-2.67-2.7-5.51-5.25-7.76-8.36c-3.15-4.35-5.17-9.16-6.04-14.46c-0.91-5.54-0.51-11,1.29-16.31c2.31-6.85,6.41-12.43,12.27-16.67
			c6.71-4.85,14.26-6.93,22.47-6.32c7.47,0.56,14.11,3.31,19.72,8.32C175.99,100.56,177.92,102.57,180.09,104.67z M166.64,162.71
			c0.74,0.74,1.43,1.41,2.12,2.09c4.3,4.3,8.6,8.6,12.9,12.9c1.85,1.85,3.69,3.71,5.58,5.51c1.39,1.32,3.32,1.53,4.51,0.61
			c1.26-0.96,1.5-2.92,0.34-4.36c-1.13-1.41-2.44-2.69-3.72-3.98c-3.88-3.91-7.79-7.81-11.69-11.7c-1.85-1.84-3.72-3.67-5.6-5.52
			c1.36-1.35,2.62-2.6,3.92-3.88c0.12,0.1,0.26,0.2,0.38,0.32c2.2,2.21,4.4,4.43,6.61,6.64c4.04,4.03,8.06,8.08,12.13,12.08
			c0.9,0.88,1.93,1.67,3.02,2.3c1.06,0.6,2.22,0.44,3.15-0.43c0.9-0.85,1.01-1.9,0.69-3.06c-0.4-1.42-1.46-2.34-2.44-3.32
			c-4.34-4.34-8.68-8.69-13.02-13.03c-2.01-2.01-4.03-4.01-5.98-5.95c1.31-1.33,2.58-2.62,3.96-4.02c3.07,3.11,6.13,6.22,9.2,9.32
			c3.49,3.53,6.99,7.06,10.5,10.57c0.87,0.87,1.84,1.59,3.12,1.8c1.71,0.28,3.18-0.92,3.21-2.65c0.03-1.33-0.61-2.37-1.47-3.25
			c-3.73-3.78-7.5-7.53-11.26-11.29c-4.66-4.66-9.33-9.32-13.99-13.99c-1.32-1.32-2.61-2.67-3.92-4.02
			c-0.21,0.16-0.31,0.22-0.38,0.3c-3.84,3.84-7.68,7.67-11.51,11.52c-1.93,1.94-4.23,3.06-6.98,3.08c-3.65,0.02-7.17-2.39-8.6-5.83
			c-1.57-3.77-0.81-7.18,1.89-10.08c2.94-3.15,6.08-6.13,9.13-9.18c3.65-3.66,7.3-7.32,10.96-10.97c0.9-0.89,1.84-1.75,2.66-2.53
			c-1.84-1.9-3.44-3.76-5.24-5.39c-7.35-6.64-15.94-8.87-25.6-6.81c-6.3,1.35-11.5,4.64-15.58,9.61
			c-3.95,4.82-6.11,10.36-6.39,16.62c-0.32,6.91,1.46,13.22,5.78,18.6c2.53,3.15,5.53,5.94,8.38,8.83
			c4.63,4.69,9.33,9.31,13.99,13.97c4.62,4.62,9.22,9.26,13.84,13.88c4.03,4.04,8.05,8.1,12.13,12.1c0.92,0.9,1.97,1.72,3.09,2.35
			c1.02,0.57,2.17,0.42,3.09-0.42c0.91-0.83,1.13-1.91,0.71-3.04c-0.26-0.7-0.62-1.42-1.11-1.98c-1.12-1.25-2.34-2.4-3.53-3.58
			c-4.38-4.38-8.76-8.77-13.14-13.15c-1.24-1.24-2.49-2.46-3.7-3.66C164.1,165.3,165.35,164.03,166.64,162.71z M183.98,129.84
			c9.81,9.82,19.62,19.64,29.52,29.55c1.58-1.61,3.2-3.29,4.84-4.94c3.22-3.24,6.45-6.48,9.69-9.7c1.86-1.85,3.52-3.86,4.84-6.13
			c3-5.15,4.27-10.69,3.82-16.64c-0.45-6.03-2.6-11.38-6.47-15.98c-4.91-5.84-11.21-9.22-18.82-10.04
			c-6.84-0.73-13.12,0.88-18.87,4.65c-2.83,1.86-5.08,4.37-7.45,6.73c-4.68,4.65-9.32,9.33-13.98,13.99
			c-4.54,4.54-9.1,9.05-13.62,13.6c-1.14,1.15-1.76,2.56-1.1,4.19c0.63,1.56,1.76,2.56,3.52,2.68c1.36,0.09,2.38-0.6,3.29-1.51
			c3.9-3.9,7.8-7.79,11.69-11.69c2.28-2.29,4.56-4.6,6.76-6.83c11.54,8.13,23.21,9.6,35.29,1.41c1.06,1.45,2.11,2.89,3.2,4.38
			C208.47,135.79,196.44,135.8,183.98,129.84z"/>
		<path d="M166.64,162.71c-1.29,1.32-2.54,2.59-3.86,3.95c1.21,1.19,2.46,2.42,3.7,3.66c4.38,4.38,8.76,8.77,13.14,13.15
			c1.19,1.19,2.41,2.34,3.53,3.58c0.49,0.55,0.85,1.27,1.11,1.98c0.41,1.13,0.2,2.21-0.71,3.04c-0.92,0.84-2.07,1-3.09,0.42
			c-1.12-0.63-2.17-1.45-3.09-2.35c-4.07-4-8.09-8.06-12.13-12.1c-4.62-4.62-9.22-9.26-13.84-13.88
			c-4.66-4.66-9.35-9.29-13.99-13.97c-2.85-2.89-5.85-5.67-8.38-8.83c-4.32-5.38-6.1-11.69-5.78-18.6
			c0.29-6.26,2.44-11.81,6.39-16.62c4.08-4.97,9.28-8.26,15.58-9.61c9.65-2.06,18.25,0.18,25.6,6.81c1.81,1.63,3.41,3.49,5.24,5.39
			c-0.83,0.78-1.77,1.64-2.66,2.53c-3.66,3.65-7.31,7.31-10.96,10.97c-3.05,3.05-6.19,6.03-9.13,9.18c-2.7,2.9-3.46,6.31-1.89,10.08
			c1.43,3.43,4.95,5.85,8.6,5.83c2.75-0.02,5.05-1.14,6.98-3.08c3.83-3.85,7.67-7.68,11.51-11.52c0.08-0.08,0.17-0.14,0.38-0.3
			c1.31,1.34,2.6,2.69,3.92,4.02c4.66,4.67,9.33,9.33,13.99,13.99c3.76,3.76,7.53,7.51,11.26,11.29c0.87,0.88,1.5,1.92,1.47,3.25
			c-0.04,1.73-1.5,2.93-3.21,2.65c-1.28-0.21-2.25-0.93-3.12-1.8c-3.51-3.51-7.01-7.04-10.5-10.57c-3.07-3.1-6.13-6.21-9.2-9.32
			c-1.38,1.4-2.65,2.69-3.96,4.02c1.96,1.95,3.97,3.95,5.98,5.95c4.34,4.34,8.68,8.68,13.02,13.03c0.98,0.98,2.05,1.9,2.44,3.32
			c0.32,1.15,0.22,2.21-0.69,3.06c-0.93,0.87-2.09,1.04-3.15,0.43c-1.09-0.62-2.12-1.41-3.02-2.3c-4.08-3.99-8.1-8.04-12.13-12.08
			c-2.21-2.21-4.41-4.43-6.61-6.64c-0.12-0.12-0.26-0.22-0.38-0.32c-1.29,1.28-2.56,2.53-3.92,3.88c1.88,1.85,3.75,3.67,5.6,5.52
			c3.9,3.89,7.81,7.79,11.69,11.7c1.28,1.29,2.58,2.57,3.72,3.98c1.16,1.44,0.92,3.4-0.34,4.36c-1.19,0.91-3.13,0.7-4.51-0.61
			c-1.9-1.8-3.73-3.66-5.58-5.51c-4.3-4.3-8.6-8.6-12.9-12.9C168.07,164.12,167.39,163.44,166.64,162.71z"/>
		<path d="M183.98,129.84c12.46,5.96,24.49,5.94,36.15-2.29c-1.09-1.5-2.14-2.93-3.2-4.38c-12.08,8.19-23.75,6.72-35.29-1.41
			c-2.2,2.23-4.47,4.53-6.76,6.83c-3.89,3.9-7.79,7.8-11.69,11.69c-0.91,0.91-1.93,1.6-3.29,1.51c-1.76-0.11-2.89-1.12-3.52-2.68
			c-0.66-1.63-0.04-3.04,1.1-4.19c4.52-4.55,9.08-9.07,13.62-13.6c4.66-4.66,9.3-9.35,13.98-13.99c2.37-2.36,4.62-4.87,7.45-6.73
			c5.74-3.76,12.03-5.38,18.87-4.65c7.62,0.81,13.91,4.2,18.82,10.04c3.87,4.6,6.02,9.96,6.47,15.98
			c0.44,5.95-0.83,11.49-3.82,16.64c-1.32,2.27-2.98,4.28-4.84,6.13c-3.24,3.23-6.46,6.46-9.69,9.7c-1.64,1.65-3.26,3.32-4.84,4.94
			C203.6,149.49,193.79,139.66,183.98,129.84z"/>
	</g>
</g>
</svg>
