<?xml version="1.0" encoding="utf-8"?>
<!-- Generator: Adobe Illustrator 23.1.0, SVG Export Plug-In . SVG Version: 6.00 Build 0)  -->
<svg version="1.1" xmlns="http://www.w3.org/2000/svg" xmlns:xlink="http://www.w3.org/1999/xlink" x="0px" y="0px"
	 viewBox="0 0 360 360" enable-background="new 0 0 360 360" xml:space="preserve">
<g id="BACKGROUND">
	<rect x="0" y="0" fill="#FFFFFF" width="360" height="360"/>
</g>
<g id="REF" display="none">
	
		<rect y="90.33" display="inline" fill="none" stroke="#000000" stroke-width="0.25" stroke-miterlimit="10" width="360" height="108"/>
	
		<rect x="360" y="90.33" display="inline" fill="none" stroke="#FFFFFF" stroke-width="0.25" stroke-miterlimit="10" width="360" height="108"/>
	
		<line display="inline" fill="none" stroke="#000000" stroke-width="0.25" stroke-linecap="round" stroke-miterlimit="10" x1="180" y1="0.19" x2="180" y2="360.06"/>
</g>
<g id="LINE_ONE">
	<g>
		<path d="M120.46,243.92v-14H130v2.48h-6.58v3.08h6.12v2.48h-6.12v3.48h6.68v2.48H120.46z"/>
		<path d="M140.9,243.92c-0.2-0.55-0.45-1.26-0.75-2.15c-0.3-0.89-0.61-1.81-0.93-2.77s-0.63-1.9-0.93-2.82
			c-0.3-0.92-0.54-1.69-0.73-2.32h-0.06v10.06h-2.76v-14h4.2c0.57,1.71,1.09,3.27,1.56,4.7c0.28,0.85,0.51,1.54,0.69,2.07
			c0.18,0.53,0.35,1.03,0.5,1.51c0.15,0.48,0.29,0.91,0.42,1.3c0.13,0.39,0.22,0.67,0.27,0.84c0.05-0.17,0.14-0.45,0.26-0.84
			c0.12-0.39,0.26-0.84,0.43-1.37c0.17-0.53,0.35-1.09,0.54-1.7c0.19-0.61,0.39-1.21,0.59-1.81c0.45-1.43,0.95-2.99,1.5-4.7h4.18v14
			h-2.76v-10.06h-0.06c-0.13,0.41-0.29,0.91-0.48,1.49c-0.19,0.58-0.39,1.2-0.61,1.85c-0.22,0.65-0.44,1.32-0.67,1.99
			c-0.23,0.67-0.44,1.31-0.64,1.92c-0.2,0.61-0.38,1.16-0.55,1.65c-0.17,0.49-0.3,0.88-0.41,1.16H140.9z"/>
		<path d="M158.14,239v4.92h-2.98v-14h5.32c0.84,0,1.6,0.09,2.28,0.26c0.68,0.17,1.26,0.44,1.74,0.8c0.48,0.36,0.85,0.82,1.12,1.38
			c0.27,0.56,0.4,1.23,0.4,2.02c0,0.8-0.14,1.49-0.41,2.07c-0.27,0.58-0.65,1.06-1.14,1.44c-0.49,0.38-1.07,0.66-1.75,0.84
			c-0.68,0.18-1.43,0.27-2.24,0.27H158.14z M162.96,234.38c0-0.76-0.23-1.28-0.69-1.56c-0.46-0.28-1.16-0.42-2.09-0.42h-2.04v4.12
			h2.04c0.93,0,1.63-0.17,2.09-0.5C162.73,235.69,162.96,235.14,162.96,234.38z"/>
		<path d="M170.42,229.92h3v11.5h6.12v2.5h-9.12V229.92z"/>
		<path d="M182.66,236.92c0-1.13,0.16-2.15,0.49-3.05c0.33-0.9,0.79-1.66,1.38-2.29c0.59-0.63,1.31-1.11,2.15-1.44
			c0.84-0.33,1.77-0.5,2.8-0.5s1.96,0.17,2.8,0.5c0.84,0.33,1.55,0.81,2.15,1.44s1.05,1.39,1.38,2.29c0.33,0.9,0.49,1.92,0.49,3.05
			c0,1.13-0.16,2.15-0.49,3.05c-0.33,0.9-0.79,1.66-1.38,2.29c-0.59,0.63-1.31,1.11-2.15,1.44c-0.84,0.33-1.77,0.5-2.8,0.5
			s-1.96-0.17-2.8-0.5s-1.56-0.81-2.15-1.44c-0.59-0.63-1.05-1.39-1.38-2.29C182.82,239.07,182.66,238.06,182.66,236.92z
			 M185.76,236.92c0,0.71,0.08,1.36,0.23,1.95c0.15,0.59,0.38,1.1,0.69,1.52s0.69,0.75,1.16,0.98s1.01,0.35,1.64,0.35
			s1.17-0.12,1.64-0.35c0.46-0.23,0.85-0.56,1.16-0.98c0.3-0.42,0.54-0.93,0.69-1.52c0.15-0.59,0.23-1.24,0.23-1.95
			s-0.08-1.36-0.23-1.95c-0.15-0.59-0.38-1.1-0.69-1.52c-0.31-0.42-0.7-0.75-1.16-0.98c-0.47-0.23-1.01-0.35-1.64-0.35
			s-1.17,0.12-1.64,0.35s-0.85,0.56-1.16,0.98s-0.54,0.93-0.69,1.52C185.84,235.57,185.76,236.22,185.76,236.92z"/>
		<path d="M203.94,238.06l-5.3-8.14h3.44l3.42,5.36l3.4-5.36h3.34l-5.3,8.14v5.86h-3V238.06z"/>
		<path d="M216.26,243.92v-14h9.54v2.48h-6.58v3.08h6.12v2.48h-6.12v3.48h6.68v2.48H216.26z"/>
		<path d="M230.54,243.92v-14h9.54v2.48h-6.58v3.08h6.12v2.48h-6.12v3.48h6.68v2.48H230.54z"/>
	</g>
</g>
<g id="LINE_TWO">
	<g>
		<path d="M101.72,265.71v-14h9.54v2.48h-6.58v3.08h6.12v2.48h-6.12v3.48h6.68v2.48H101.72z"/>
		<path d="M116,251.71h3.12c0.81,1.32,1.59,2.57,2.32,3.76c0.44,0.71,0.8,1.29,1.08,1.75c0.28,0.46,0.56,0.92,0.84,1.37
			c0.28,0.45,0.55,0.88,0.8,1.29c0.25,0.41,0.47,0.75,0.64,1.03h0.06v-9.2h2.84v14h-3.12c-0.8-1.29-1.56-2.53-2.28-3.7
			c-0.43-0.69-0.78-1.27-1.07-1.73c-0.29-0.46-0.57-0.92-0.85-1.38c-0.28-0.46-0.55-0.9-0.81-1.32c-0.26-0.42-0.48-0.78-0.67-1.07
			h-0.06v9.2H116V251.71z"/>
		<path d="M138.7,257.95h6.44v7.76h-2.72v-1.44c-0.31,0.48-0.76,0.89-1.36,1.22s-1.38,0.5-2.34,0.5c-1.04,0-1.96-0.19-2.75-0.57
			s-1.45-0.9-1.98-1.55c-0.53-0.65-0.92-1.42-1.19-2.3c-0.27-0.88-0.4-1.82-0.4-2.82c0-1.08,0.16-2.07,0.47-2.96
			c0.31-0.89,0.77-1.66,1.37-2.31c0.6-0.65,1.33-1.15,2.19-1.51c0.86-0.36,1.84-0.54,2.93-0.54c1.41,0,2.62,0.31,3.62,0.93
			c1,0.62,1.75,1.54,2.26,2.75l-2.78,1.14c-0.27-0.75-0.67-1.32-1.22-1.73c-0.55-0.41-1.21-0.61-2-0.61c-1.13,0-2.04,0.42-2.72,1.25
			s-1.02,2.06-1.02,3.69c0,3.12,1.23,4.68,3.7,4.68c0.36,0,0.72-0.05,1.08-0.15c0.36-0.1,0.69-0.25,0.99-0.46
			c0.3-0.21,0.54-0.47,0.73-0.79c0.19-0.32,0.28-0.71,0.28-1.16v-0.64h-3.58V257.95z"/>
		<path d="M162.52,265.71h-3.1l-1.12-3.24h-5.02l-1.12,3.24h-2.94l5.04-14h3.22L162.52,265.71z M155.76,254.99
			c-0.03,0.11-0.07,0.26-0.14,0.47s-0.14,0.44-0.22,0.7c-0.08,0.26-0.17,0.54-0.27,0.84s-0.2,0.59-0.29,0.87
			c-0.23,0.69-0.47,1.43-0.74,2.22h3.38c-0.27-0.79-0.51-1.53-0.74-2.22c-0.15-0.4-0.26-0.73-0.35-0.99
			c-0.09-0.26-0.17-0.51-0.24-0.75c-0.07-0.24-0.14-0.46-0.21-0.67c-0.07-0.21-0.11-0.36-0.14-0.47H155.76z"/>
		<path d="M171.68,257.95h6.44v7.76h-2.72v-1.44c-0.31,0.48-0.76,0.89-1.36,1.22s-1.38,0.5-2.34,0.5c-1.04,0-1.96-0.19-2.75-0.57
			s-1.45-0.9-1.98-1.55c-0.53-0.65-0.92-1.42-1.19-2.3c-0.27-0.88-0.4-1.82-0.4-2.82c0-1.08,0.16-2.07,0.47-2.96
			c0.31-0.89,0.77-1.66,1.37-2.31c0.6-0.65,1.33-1.15,2.19-1.51c0.86-0.36,1.84-0.54,2.93-0.54c1.41,0,2.62,0.31,3.62,0.93
			c1,0.62,1.75,1.54,2.26,2.75l-2.78,1.14c-0.27-0.75-0.67-1.32-1.22-1.73c-0.55-0.41-1.21-0.61-2-0.61c-1.13,0-2.04,0.42-2.72,1.25
			s-1.02,2.06-1.02,3.69c0,3.12,1.23,4.68,3.7,4.68c0.36,0,0.72-0.05,1.08-0.15c0.36-0.1,0.69-0.25,0.99-0.46
			c0.3-0.21,0.54-0.47,0.73-0.79c0.19-0.32,0.28-0.71,0.28-1.16v-0.64h-3.58V257.95z"/>
		<path d="M183.34,265.71v-14h9.54v2.48h-6.58v3.08h6.12v2.48h-6.12v3.48h6.68v2.48H183.34z"/>
		<path d="M203.78,265.71c-0.2-0.55-0.45-1.26-0.75-2.15c-0.3-0.89-0.61-1.81-0.93-2.77s-0.63-1.9-0.93-2.82
			c-0.3-0.92-0.54-1.69-0.73-2.32h-0.06v10.06h-2.76v-14h4.2c0.57,1.71,1.09,3.27,1.56,4.7c0.28,0.85,0.51,1.54,0.69,2.07
			c0.18,0.53,0.35,1.03,0.5,1.51c0.15,0.48,0.29,0.91,0.42,1.3c0.13,0.39,0.22,0.67,0.27,0.84c0.05-0.17,0.14-0.45,0.26-0.84
			c0.12-0.39,0.26-0.84,0.43-1.37c0.17-0.53,0.35-1.09,0.54-1.7c0.19-0.61,0.39-1.21,0.59-1.81c0.45-1.43,0.95-2.99,1.5-4.7h4.18v14
			H210v-10.06h-0.06c-0.13,0.41-0.29,0.91-0.48,1.49s-0.39,1.2-0.61,1.85c-0.22,0.65-0.44,1.32-0.67,1.99
			c-0.23,0.67-0.44,1.31-0.64,1.92c-0.2,0.61-0.38,1.16-0.55,1.65c-0.17,0.49-0.3,0.88-0.41,1.16H203.78z"/>
		<path d="M218.04,265.71v-14h9.54v2.48H221v3.08h6.12v2.48H221v3.48h6.68v2.48H218.04z"/>
		<path d="M232.32,251.71h3.12c0.81,1.32,1.59,2.57,2.32,3.76c0.44,0.71,0.8,1.29,1.08,1.75c0.28,0.46,0.56,0.92,0.84,1.37
			c0.28,0.45,0.55,0.88,0.8,1.29c0.25,0.41,0.47,0.75,0.64,1.03h0.06v-9.2h2.84v14h-3.12c-0.8-1.29-1.56-2.53-2.28-3.7
			c-0.43-0.69-0.78-1.27-1.07-1.73s-0.57-0.92-0.85-1.38c-0.28-0.46-0.55-0.9-0.81-1.32s-0.48-0.78-0.67-1.07h-0.06v9.2h-2.84
			V251.71z"/>
		<path d="M248.24,251.71h11.1v2.5h-4.04v11.5h-3.02v-11.5h-4.04V251.71z"/>
	</g>
</g>
<g id="ICON">
	<g>
		<path d="M123.18,160.56c-9.45-0.06-17.16-7.81-17.15-17.24c0.01-9.46,8.01-17.34,17.49-17.21c9.38,0.13,17.17,8.1,17.03,17.42
			C140.41,152.97,132.61,160.62,123.18,160.56z"/>
		<g>
			<path d="M150.55,181.79c0,5.5-4.5,10.01-10.01,10.01h-32.69c-5.5,0-10.01-4.5-10.01-10.01v-7.21c0-5.5,4.5-10.01,10.01-10.01
				h32.69c5.5,0,10.01,4.5,10.01,10.01V181.79z"/>
		</g>
		<path d="M235.78,160.56c-9.45-0.06-17.16-7.81-17.15-17.24c0.01-9.46,8.01-17.34,17.49-17.21c9.38,0.13,17.17,8.1,17.03,17.42
			C253.02,152.97,245.21,160.62,235.78,160.56z"/>
		<g>
			<path d="M263.16,181.79c0,5.5-4.5,10.01-10.01,10.01h-45.42c-5.5,0-10.01-4.5-10.01-10.01v-7.21c0-5.5,4.5-10.01,10.01-10.01
				h45.42c5.5,0,10.01,4.5,10.01,10.01V181.79z"/>
		</g>
		<path fill="#FFFFFF" stroke="#000000" stroke-width="5" stroke-miterlimit="10" d="M175.52,197.4c-10.54,0-21.07,0-31.61,0
			c-3.79,0-4.58-0.74-4.61-4.55c-0.03-5.32-0.04-10.65,0.02-15.97c0.12-10.19,6.92-17.01,17.11-17.07
			c12.46-0.07,24.92-0.09,37.38,0.02c2.39,0.02,3.64-0.62,4.46-2.98c2.11-6.08,4.6-12.02,6.73-18.09c0.73-2.08,1.17-4.38,1.2-6.58
			c0.13-11.21-0.04-22.43,0.16-33.64c0.09-5.24,3.9-8.77,9.11-9.13c5.16-0.35,9.33,2.73,10.4,7.76c0.23,1.1,0.3,2.25,0.3,3.37
			c0.02,11.89,0.38,23.81-0.18,35.67c-0.22,4.68-2.33,9.35-3.95,13.88c-2.93,8.18-6.18,16.25-9.2,24.41
			c-0.53,1.44-0.79,3.05-0.83,4.59c-0.11,4.64-0.1,9.29-0.02,13.93c0.05,3.17-1.32,4.43-4.51,4.4c-10.65-0.11-21.3-0.04-31.94-0.04
			C175.52,197.38,175.52,197.39,175.52,197.4z"/>
		<path fill="#FFFFFF" stroke="#000000" stroke-width="5" stroke-miterlimit="10" d="M175.59,152
			c-12.04-0.08-21.85-9.94-21.84-21.95c0.01-12.05,10.2-22.08,22.27-21.92c11.94,0.16,21.87,10.31,21.69,22.18
			C197.54,142.33,187.6,152.08,175.59,152z"/>
	</g>
</g>
</svg>
