<?xml version="1.0" encoding="utf-8"?>
<!-- Generator: Adobe Illustrator 22.1.0, SVG Export Plug-In . SVG Version: 6.00 Build 0)  -->
<svg version="1.1" id="Layer_1" xmlns="http://www.w3.org/2000/svg" xmlns:xlink="http://www.w3.org/1999/xlink" x="0px" y="0px"
	 viewBox="0 0 360 360" style="enable-background:new 0 0 360 360;" xml:space="preserve">
<style type="text/css">
	.st0{fill:#FFFFFF;}
	.st1{font-family:'PostGrotesk-Bold';}
	.st2{font-size:20px;}
	.st3{letter-spacing:2;}
	.st4{clip-path:url(#SVGID_6_);fill:none;stroke:#FFFFFF;stroke-width:3;stroke-miterlimit:10;}
	.st5{clip-path:url(#SVGID_6_);fill:none;stroke:#FFFFFF;stroke-miterlimit:10;}
</style>
<rect width="360" height="360"/>
<g>
	<defs>
		<rect id="SVGID_1_" width="360" height="360"/>
	</defs>
	<clipPath id="SVGID_2_">
		<use xlink:href="#SVGID_1_"  style="overflow:visible;"/>
	</clipPath>
</g>
<g>
	<defs>
		<rect id="SVGID_3_" width="360" height="360"/>
	</defs>
	<clipPath id="SVGID_4_">
		<use xlink:href="#SVGID_3_"  style="overflow:visible;"/>
	</clipPath>
	<g style="clip-path:url(#SVGID_4_);">
		<text transform="matrix(1 0 0 1 -219.0098 248.1582)"><tspan x="0" y="0" class="st1 st2 st3">F</tspan><tspan x="12.1" y="0" class="st1 st2 st3">O</tspan><tspan x="28.5" y="0" class="st1 st2 st3">C</tspan><tspan x="42.5" y="0" class="st1 st2 st3">U</tspan><tspan x="57.8" y="0" class="st1 st2">S</tspan></text>
	</g>
</g>
<text transform="matrix(1 0 0 1 140.9902 248.1582)"><tspan x="0" y="0" class="st0 st1 st2 st3">F</tspan><tspan x="12.1" y="0" class="st0 st1 st2 st3">O</tspan><tspan x="28.5" y="0" class="st0 st1 st2 st3">C</tspan><tspan x="42.5" y="0" class="st0 st1 st2 st3">U</tspan><tspan x="57.8" y="0" class="st0 st1 st2">S</tspan></text>
<g>
	<defs>
		<rect id="SVGID_5_" width="360" height="360"/>
	</defs>
	<clipPath id="SVGID_6_">
		<use xlink:href="#SVGID_5_"  style="overflow:visible;"/>
	</clipPath>
	<path class="st4" d="M220.7,149.1c0.7-10-0.2-19.6-5.6-28.4c-0.2-0.4-0.7-0.7-1.1-0.8c-1.8-0.3-3.3-1.2-4.4-2.6
		c-6.5-7.8-14.8-12.6-24.9-13.8c-13.7-1.6-25.2,3.1-34.2,13.6c-1.3,1.5-2.7,2.6-4.8,2.9c-0.4,0.1-0.8,0.5-1.1,0.9
		c-3.6,6.1-5.5,12.7-5.6,19.8c0,2.8,0,5.6,0,8.5c0.9-0.3,1.7-0.8,2.6-0.9c4.2-0.9,7.9,2.2,7.9,6.6c0,3.3,0,6.6,0,9.9
		c0,8.8,0,17.5,0,26.3c0,3.6-2,6.2-5.3,6.9c-3.2,0.7-6.3-1.1-7.4-4.2c-0.3-0.8-0.6-1-1.4-1c-2.7,0-4.3-1.5-4.2-4.3
		c0-1.2-0.3-2-1.2-2.8c-1.2-1-2.3-2.2-3.4-3.4c-0.4-0.5-0.8-1.2-0.8-1.8c-0.1-5-0.1-9.9,0-14.9c0-0.6,0.3-1.3,0.7-1.7
		c1.2-1.3,2.5-2.6,3.8-3.8c0.5-0.5,0.8-1,0.8-1.8c0-6.4-0.1-12.8,0.1-19.2c0.2-8.2,2.7-15.7,6.9-22.7c0.4-0.7,0.5-1.2,0.4-2
		c-0.4-2,0.3-3.8,1.6-5.4c7.8-9.4,17.5-15.6,29.5-17.8c20-3.6,36.7,2.3,50,17.8c1.5,1.7,2.1,3.7,1.6,5.9c-0.1,0.4,0.1,0.9,0.3,1.2
		c4.9,8.1,7.3,16.9,7.1,26.4c-0.1,5.3,0,10.6,0,15.9c0,0.6,0.3,1.2,0.7,1.7c1.2,1.4,2.6,2.6,3.8,3.9c0.4,0.4,0.7,1.1,0.7,1.7
		c0.1,4.9,0.1,9.9,0,14.8c0,0.6-0.4,1.4-0.8,1.9c-1.1,1.3-2.3,2.4-3.6,3.6c-0.7,0.6-1,1.2-0.9,2.2c0.1,0.7,0,1.5-0.2,2.1
		c-0.5,1.7-2,2.6-4.1,2.6c-0.6,0-1-0.1-1.3,0.7c-1.1,3.2-4.1,5-7.1,4.5c-3.3-0.5-5.5-3.1-5.7-6.5c0-0.1,0-0.3,0-0.4
		c0-12,0-24.1,0-36.1c0-3.1,1.6-5.5,4.3-6.5c1.8-0.7,3.5-0.6,5.2,0.3C220.1,148.8,220.4,149,220.7,149.1
		C220.7,149.1,220.7,149.1,220.7,149.1z"/>
	<path class="st5" d="M222.1,173.1c0-6.6,0-13.2,0-19.8c0-0.6,0-1.1-0.2-1.7c-0.6-2.1-3.2-3.6-5.9-3.4c-3,0.2-5.2,2-5.2,4.5
		c-0.1,2.7,0,5.5,0,8.2c0,10.6,0,21.3,0,31.9c0,2.4,1.4,4.1,3.7,4.7c3.7,1.1,7.5-1.1,7.5-4.3C222.1,186.6,222.1,179.8,222.1,173.1z"
		/>
	<path class="st5" d="M222.3,192.1c4,0.5,5.3-0.1,5.3-2.3c0-11.3,0-22.7,0-34c0-2.2-1.5-2.8-5.3-2.2V192.1z"/>
	<path class="st5" d="M137.8,193.6c0,3.2,3.8,5.4,7.5,4.3c2.4-0.7,3.7-2.4,3.7-4.7c0-10.6,0-21.3,0-31.9c0-2.7,0-5.5,0-8.2
		c-0.1-2.5-2.2-4.3-5.2-4.5c-2.6-0.2-5.2,1.3-5.9,3.4c-0.2,0.5-0.2,1.1-0.2,1.7c0,6.6,0,13.2,0,19.8
		C137.8,180.1,137.8,186.9,137.8,193.6z"/>
	<path class="st5" d="M137.6,153.9c-3.7-0.6-5.2,0-5.2,2.2c0,11.3,0,22.7,0,34c0,2.2,1.3,2.8,5.2,2.3V153.9z"/>
	<path class="st5" d="M220.5,113.4c0,3.2-2.9,5.9-6.5,5.9"/>
	<path class="st5" d="M139.4,113.3c0,3.2,2.9,5.9,6.5,5.9"/>
</g>
</svg>
