<svg xmlns="http://www.w3.org/2000/svg" viewBox="0 0 360 360"><defs><style>.cls-1{fill:#f1f2f2;}.cls-2{fill:#ef4a2b;}.cls-3{fill:#fff;}</style></defs><g id="BACKGROUND"><rect class="cls-1" y="-0.17" width="360" height="360"/></g><g id="LINE_ONE" data-name="LINE ONE"><path class="cls-2" d="M126.9,234.16l-3.5,14h-3.48c-.29-1.29-.57-2.53-.84-3.7l-.4-1.74c-.11-.47-.21-.93-.31-1.4s-.2-.91-.3-1.34l-.25-1.1h-.06q-.11.47-.24,1.11c-.09.43-.2.9-.32,1.39s-.24,1-.36,1.53-.24,1-.36,1.55c-.28,1.17-.58,2.41-.9,3.7H112.1l-3.52-14h3c.35,1.49.67,2.91,1,4.26.17.8.32,1.46.44,2s.23,1,.34,1.56l.31,1.48c.1.47.18.86.23,1.18H114c.07-.32.15-.72.25-1.19s.21-1,.34-1.53l.4-1.72c.14-.6.28-1.19.41-1.76q.48-2,1-4.26h2.82q.54,2.24,1,4.26c.19.8.34,1.46.47,2s.25,1,.37,1.56.23,1,.33,1.48.18.86.25,1.18h.06c.07-.32.15-.72.25-1.19l.33-1.53c.12-.55.25-1.12.38-1.72s.27-1.19.4-1.76c.32-1.35.65-2.77,1-4.26Z"/><path class="cls-2" d="M131,248.16v-14h9.54v2.48H134v3.08h6.12v2.48H134v3.48h6.68v2.48Z"/><path class="cls-2" d="M145.3,234.16h3v11.5h6.12v2.5H145.3Z"/><path class="cls-2" d="M157.54,241.16a9.12,9.12,0,0,1,.48-3.07,6.47,6.47,0,0,1,1.37-2.29,5.75,5.75,0,0,1,2.16-1.43,7.82,7.82,0,0,1,2.85-.49,6.83,6.83,0,0,1,3.76,1,5.35,5.35,0,0,1,2.16,3l-2.92,1a3.92,3.92,0,0,0-1.08-1.83,2.86,2.86,0,0,0-2-.65,3.51,3.51,0,0,0-1.62.36,3.26,3.26,0,0,0-1.16,1,4.28,4.28,0,0,0-.69,1.51,7.77,7.77,0,0,0-.23,1.92,7.63,7.63,0,0,0,.23,1.91,4.45,4.45,0,0,0,.69,1.51,3.19,3.19,0,0,0,1.16,1,3.54,3.54,0,0,0,1.64.36,2.94,2.94,0,0,0,1.89-.58,3.53,3.53,0,0,0,1.11-1.76l2.88,1a6,6,0,0,1-2.16,2.8,6.42,6.42,0,0,1-3.76,1,7.5,7.5,0,0,1-2.79-.49,5.94,5.94,0,0,1-2.14-1.42,6.3,6.3,0,0,1-1.37-2.29A9.22,9.22,0,0,1,157.54,241.16Z"/><path class="cls-2" d="M174.14,241.16a8.83,8.83,0,0,1,.49-3,6.64,6.64,0,0,1,1.38-2.29,5.82,5.82,0,0,1,2.15-1.44,8.09,8.09,0,0,1,5.6,0,5.82,5.82,0,0,1,2.15,1.44,6.64,6.64,0,0,1,1.38,2.29,9.74,9.74,0,0,1,0,6.1,6.64,6.64,0,0,1-1.38,2.29,5.82,5.82,0,0,1-2.15,1.44,8.09,8.09,0,0,1-5.6,0A5.82,5.82,0,0,1,176,246.5a6.64,6.64,0,0,1-1.38-2.29A8.83,8.83,0,0,1,174.14,241.16Zm3.1,0a7.9,7.9,0,0,0,.23,2,4.33,4.33,0,0,0,.69,1.52,3.14,3.14,0,0,0,1.16,1,4,4,0,0,0,3.28,0,3.14,3.14,0,0,0,1.16-1,4.33,4.33,0,0,0,.69-1.52,8.38,8.38,0,0,0,0-3.9,4.33,4.33,0,0,0-.69-1.52,3.14,3.14,0,0,0-1.16-1,4,4,0,0,0-3.28,0,3.14,3.14,0,0,0-1.16,1,4.33,4.33,0,0,0-.69,1.52A7.9,7.9,0,0,0,177.24,241.16Z"/><path class="cls-2" d="M198.64,248.16c-.2-.55-.45-1.26-.75-2.15l-.93-2.77q-.48-1.44-.93-2.82c-.3-.92-.54-1.69-.73-2.32h-.06v10.06h-2.76v-14h4.2c.57,1.71,1.09,3.27,1.56,4.7q.42,1.27.69,2.07c.18.53.35,1,.5,1.51s.29.91.42,1.3.22.67.27.84l.26-.84c.12-.39.26-.84.43-1.37s.35-1.09.54-1.7.39-1.21.59-1.81c.45-1.43.95-3,1.5-4.7h4.18v14h-2.76V238.1h-.06l-.48,1.49c-.19.58-.39,1.2-.61,1.85s-.44,1.32-.67,2-.44,1.31-.64,1.92-.38,1.16-.55,1.65-.3.88-.41,1.16Z"/><path class="cls-2" d="M212.9,234.16h3v14h-3Z"/><path class="cls-2" d="M221.18,234.16h3.12l2.32,3.76,1.08,1.75.84,1.37.8,1.29.64,1H230v-9.2h2.84v14h-3.12l-2.28-3.7-1.07-1.73c-.29-.46-.57-.92-.85-1.38l-.81-1.32c-.26-.42-.48-.78-.67-1.07H224v9.2h-2.84Z"/><path class="cls-2" d="M243.88,240.4h6.44v7.76H247.6v-1.44a3.69,3.69,0,0,1-1.36,1.22,4.83,4.83,0,0,1-2.34.5,6.29,6.29,0,0,1-2.75-.57,5.72,5.72,0,0,1-2-1.55A6.7,6.7,0,0,1,238,244a9.56,9.56,0,0,1-.4-2.82,9,9,0,0,1,.47-3,6.53,6.53,0,0,1,1.37-2.31,6.18,6.18,0,0,1,2.19-1.51,7.54,7.54,0,0,1,2.93-.54,6.74,6.74,0,0,1,3.62.93,5.74,5.74,0,0,1,2.26,2.75l-2.78,1.14a3.59,3.59,0,0,0-1.22-1.73,3.24,3.24,0,0,0-2-.61,3.35,3.35,0,0,0-2.72,1.25,5.72,5.72,0,0,0-1,3.69q0,4.68,3.7,4.68a4,4,0,0,0,1.08-.15,3.2,3.2,0,0,0,1-.46,2.51,2.51,0,0,0,.73-.79,2.24,2.24,0,0,0,.28-1.16v-.64h-3.58Z"/></g><g id="LINE_TWO" data-name="LINE TWO"><path class="cls-2" d="M108.26,258.94a9.16,9.16,0,0,1,.48-3.07,6.47,6.47,0,0,1,1.37-2.29,5.88,5.88,0,0,1,2.16-1.43,8,8,0,0,1,2.85-.49,6.83,6.83,0,0,1,3.76,1,5.39,5.39,0,0,1,2.16,3l-2.92,1a4,4,0,0,0-1.08-1.83,2.86,2.86,0,0,0-2-.65,3.51,3.51,0,0,0-1.62.36,3.26,3.26,0,0,0-1.16,1,4.37,4.37,0,0,0-.69,1.51,7.77,7.77,0,0,0-.23,1.92,7.57,7.57,0,0,0,.23,1.91,4.37,4.37,0,0,0,.69,1.51,3.19,3.19,0,0,0,1.16,1,3.54,3.54,0,0,0,1.64.36,2.94,2.94,0,0,0,1.89-.58,3.48,3.48,0,0,0,1.11-1.76l2.88,1a6,6,0,0,1-2.16,2.8,6.42,6.42,0,0,1-3.76,1,7.5,7.5,0,0,1-2.79-.49,5.82,5.82,0,0,1-2.14-1.42,6.3,6.3,0,0,1-1.37-2.29A9.18,9.18,0,0,1,108.26,258.94Z"/><path class="cls-2" d="M124.86,258.94a8.83,8.83,0,0,1,.49-3.05,6.64,6.64,0,0,1,1.38-2.29,6.07,6.07,0,0,1,2.15-1.44,8.09,8.09,0,0,1,5.6,0,6.07,6.07,0,0,1,2.15,1.44,6.64,6.64,0,0,1,1.38,2.29,9.74,9.74,0,0,1,0,6.1,6.55,6.55,0,0,1-1.38,2.29,5.82,5.82,0,0,1-2.15,1.44,8.09,8.09,0,0,1-5.6,0,5.82,5.82,0,0,1-2.15-1.44,6.55,6.55,0,0,1-1.38-2.29A8.79,8.79,0,0,1,124.86,258.94Zm3.1,0a7.9,7.9,0,0,0,.23,1.95,4.25,4.25,0,0,0,.69,1.52,3.14,3.14,0,0,0,1.16,1,4,4,0,0,0,3.28,0,3.14,3.14,0,0,0,1.16-1,4.25,4.25,0,0,0,.69-1.52,7.9,7.9,0,0,0,.23-1.95,8,8,0,0,0-.23-1.95,4.33,4.33,0,0,0-.69-1.52,3.24,3.24,0,0,0-1.16-1,4,4,0,0,0-3.28,0,3.24,3.24,0,0,0-1.16,1,4.33,4.33,0,0,0-.69,1.52A8,8,0,0,0,128,258.94Z"/><path class="cls-2" d="M149.36,265.94c-.2-.54-.45-1.26-.75-2.15S148,262,147.68,261s-.63-1.9-.93-2.82-.54-1.69-.73-2.32H146v10.06H143.2v-14h4.2l1.56,4.7q.42,1.29.69,2.07c.18.53.35,1,.5,1.51s.29.92.42,1.3.22.67.27.84l.26-.84c.12-.38.26-.84.43-1.37s.35-1.09.54-1.7.39-1.21.59-1.81q.68-2.13,1.5-4.7h4.18v14h-2.76V255.88h-.06c-.13.42-.29.91-.48,1.49s-.39,1.2-.61,1.85-.44,1.32-.67,2l-.64,1.92c-.2.61-.38,1.16-.55,1.65s-.3.88-.41,1.16Z"/><path class="cls-2" d="M169.78,265.94c-.2-.54-.45-1.26-.75-2.15s-.61-1.81-.93-2.77-.63-1.9-.93-2.82-.54-1.69-.73-2.32h-.06v10.06h-2.76v-14h4.2l1.56,4.7q.42,1.29.69,2.07c.18.53.35,1,.5,1.51s.29.92.42,1.3.22.67.27.84l.26-.84c.12-.38.26-.84.43-1.37s.35-1.09.54-1.7.39-1.21.59-1.81q.67-2.13,1.5-4.7h4.18v14H176V255.88h-.06c-.13.42-.29.91-.48,1.49s-.39,1.2-.61,1.85-.44,1.32-.67,2-.44,1.32-.64,1.92-.38,1.16-.55,1.65-.3.88-.41,1.16Z"/><path class="cls-2" d="M189.56,266.22a5.56,5.56,0,0,1-4.26-1.44,5.65,5.65,0,0,1-1.34-4v-8.84h3v8.86a3.32,3.32,0,0,0,.64,2.11,2.73,2.73,0,0,0,3.92,0,3.32,3.32,0,0,0,.64-2.11v-8.86h3v8.84a5.65,5.65,0,0,1-1.34,4A5.56,5.56,0,0,1,189.56,266.22Z"/><path class="cls-2" d="M200.36,251.94h3.12l2.32,3.76,1.08,1.75.84,1.37.8,1.29.64,1h.06v-9.2h2.84v14h-3.12c-.8-1.29-1.56-2.52-2.28-3.7l-1.07-1.73c-.29-.46-.57-.92-.85-1.38l-.81-1.32-.67-1.07h-.06v9.2h-2.84Z"/><path class="cls-2" d="M217.34,251.94h3v14h-3Z"/><path class="cls-2" d="M224.56,251.94h11.1v2.5h-4v11.5h-3v-11.5h-4Z"/><path class="cls-2" d="M244.12,260.08l-5.3-8.14h3.44l3.42,5.36,3.4-5.36h3.34l-5.3,8.14v5.86h-3Z"/></g><g id="ICON"><path class="cls-2" d="M180.09,104.73c1.19-1.23,2.38-2.45,3.55-3.68A33.46,33.46,0,0,1,202.15,91a33.85,33.85,0,0,1,39.74,28.19,33.15,33.15,0,0,1-2.52,18.91,36.08,36.08,0,0,1-8.15,11.33c-3.57,3.47-7.05,7-10.57,10.54-1.69,1.69-3.39,3.36-5.05,5.07a2.62,2.62,0,0,0-.66,1.21c-.88,4.28-3.59,6.68-8,7a.86.86,0,0,0-.23.06,8.41,8.41,0,0,1-8.35,8.4c-1.11,5.73-3.1,7.72-8.34,8.32-.1.6-.16,1.22-.29,1.83a8.25,8.25,0,0,1-10.84,6,15.73,15.73,0,0,1-5.9-4.22L162.27,182.9l-13.69-13.68c-5.54-5.54-11.11-11.07-16.62-16.64-2.68-2.71-5.52-5.25-7.77-8.36a34.07,34.07,0,0,1-4.75-30.77,33.88,33.88,0,0,1,34.75-23,32.66,32.66,0,0,1,19.72,8.31C176,100.63,177.92,102.64,180.09,104.73Zm-13.45,58,2.12,2.09,12.9,12.9c1.85,1.85,3.69,3.72,5.58,5.52a3.58,3.58,0,0,0,4.52.61,3.07,3.07,0,0,0,.34-4.36,53.74,53.74,0,0,0-3.72-4c-3.88-3.91-7.79-7.8-11.69-11.69-1.85-1.85-3.72-3.67-5.6-5.52l3.91-3.88a3.79,3.79,0,0,1,.38.32c2.21,2.22,4.4,4.44,6.61,6.64,4,4,8.06,8.09,12.14,12.08a15.36,15.36,0,0,0,3,2.3,2.55,2.55,0,0,0,3.15-.44,2.81,2.81,0,0,0,.69-3.05,7.91,7.91,0,0,0-2.44-3.32q-6.53-6.51-13-13l-6-6,4-4q4.6,4.66,9.2,9.32,5.25,5.3,10.5,10.57a5.71,5.71,0,0,0,3.12,1.8,2.71,2.71,0,0,0,3.22-2.66,4.45,4.45,0,0,0-1.48-3.24c-3.73-3.79-7.5-7.53-11.26-11.29q-7-7-14-14c-1.32-1.32-2.61-2.67-3.92-4-.21.17-.3.22-.38.3q-5.76,5.76-11.51,11.52a9.69,9.69,0,0,1-7,3.08,9.54,9.54,0,0,1-8.6-5.83,8.86,8.86,0,0,1,1.89-10.08c2.94-3.15,6.08-6.12,9.13-9.18,3.66-3.65,7.3-7.32,11-11,.89-.89,1.83-1.75,2.66-2.53-1.84-1.9-3.44-3.76-5.24-5.39-7.35-6.64-15.95-8.88-25.6-6.82a27.1,27.1,0,0,0-15.58,9.61,27.64,27.64,0,0,0-6.39,16.63,26.82,26.82,0,0,0,5.78,18.6,118.12,118.12,0,0,0,8.38,8.82c4.64,4.69,9.33,9.32,14,14s9.22,9.25,13.84,13.88c4,4,8,8.1,12.13,12.1a15,15,0,0,0,3.08,2.35,2.56,2.56,0,0,0,3.09-.43,2.66,2.66,0,0,0,.72-3,6.27,6.27,0,0,0-1.11-2c-1.12-1.25-2.35-2.4-3.53-3.59l-13.15-13.15c-1.23-1.23-2.48-2.46-3.69-3.65ZM184,129.9l29.52,29.56c1.57-1.62,3.19-3.29,4.83-4.94q4.83-4.86,9.69-9.7a29.85,29.85,0,0,0,4.84-6.13A28.15,28.15,0,0,0,236.68,122a27.35,27.35,0,0,0-6.46-16,27.66,27.66,0,0,0-18.83-10,28,28,0,0,0-18.86,4.65c-2.84,1.85-5.08,4.36-7.45,6.73-4.68,4.64-9.32,9.33-14,14s-9.1,9-13.63,13.6a3.73,3.73,0,0,0-1.1,4.19,3.91,3.91,0,0,0,3.52,2.68,4.2,4.2,0,0,0,3.3-1.52l11.68-11.69c2.29-2.29,4.56-4.6,6.76-6.83,11.54,8.13,23.21,9.6,35.29,1.41l3.2,4.38C208.47,135.85,196.44,135.86,184,129.9Z"/><path class="cls-3" d="M166.64,162.77l-3.86,3.95c1.21,1.19,2.46,2.42,3.69,3.65l13.15,13.15c1.18,1.19,2.41,2.34,3.53,3.59a6.27,6.27,0,0,1,1.11,2,2.66,2.66,0,0,1-.72,3,2.56,2.56,0,0,1-3.09.43,15,15,0,0,1-3.08-2.35c-4.08-4-8.1-8.06-12.13-12.1q-6.93-6.94-13.84-13.88c-4.66-4.66-9.35-9.29-14-14a118.12,118.12,0,0,1-8.38-8.82,26.82,26.82,0,0,1-5.78-18.6,27.64,27.64,0,0,1,6.39-16.63,27.1,27.1,0,0,1,15.58-9.61c9.65-2.06,18.25.18,25.6,6.82,1.8,1.63,3.4,3.49,5.24,5.39-.83.78-1.77,1.64-2.66,2.53-3.67,3.65-7.31,7.32-11,11-3.05,3.06-6.19,6-9.13,9.18a8.86,8.86,0,0,0-1.89,10.08,9.54,9.54,0,0,0,8.6,5.83,9.69,9.69,0,0,0,7-3.08q5.74-5.78,11.51-11.52c.08-.08.17-.13.38-.3,1.31,1.35,2.6,2.7,3.92,4q7,7,14,14c3.76,3.76,7.53,7.5,11.26,11.29a4.45,4.45,0,0,1,1.48,3.24,2.71,2.71,0,0,1-3.22,2.66,5.71,5.71,0,0,1-3.12-1.8q-5.26-5.26-10.5-10.57-4.6-4.65-9.2-9.32l-4,4,6,6q6.51,6.51,13,13a7.91,7.91,0,0,1,2.44,3.32,2.81,2.81,0,0,1-.69,3.05,2.55,2.55,0,0,1-3.15.44,15.36,15.36,0,0,1-3-2.3c-4.08-4-8.1-8-12.14-12.08-2.21-2.2-4.4-4.42-6.61-6.64a3.79,3.79,0,0,0-.38-.32l-3.91,3.88c1.88,1.85,3.75,3.67,5.6,5.52,3.9,3.89,7.81,7.78,11.69,11.69a53.74,53.74,0,0,1,3.72,4,3.07,3.07,0,0,1-.34,4.36,3.58,3.58,0,0,1-4.52-.61c-1.89-1.8-3.73-3.67-5.58-5.52l-12.9-12.9Z"/><path class="cls-3" d="M184,129.9c12.46,6,24.49,5.95,36.14-2.29l-3.2-4.38c-12.08,8.19-23.75,6.72-35.29-1.41-2.2,2.23-4.47,4.54-6.76,6.83l-11.68,11.69a4.2,4.2,0,0,1-3.3,1.52,3.91,3.91,0,0,1-3.52-2.68,3.73,3.73,0,0,1,1.1-4.19c4.53-4.55,9.09-9.06,13.63-13.6s9.3-9.35,14-14c2.37-2.37,4.61-4.88,7.45-6.73A28,28,0,0,1,211.39,96a27.66,27.66,0,0,1,18.83,10,27.35,27.35,0,0,1,6.46,16,28.15,28.15,0,0,1-3.82,16.65,29.85,29.85,0,0,1-4.84,6.13q-4.86,4.83-9.69,9.7c-1.64,1.65-3.26,3.32-4.83,4.94Z"/><rect class="cls-2" y="336.06" width="360" height="23.94"/><path class="cls-3" d="M265.76,352.49v-8.4h5.72v1.49h-4v1.84h3.68v1.49h-3.68V351h4v1.49Z"/><path class="cls-3" d="M278.79,348.08l3.11,4.41h-2.16l-2-2.92-2.06,2.92h-2l3.08-4.32-2.84-4.08H276l1.77,2.59,1.82-2.59h2Z"/><path class="cls-3" d="M286.16,349.54v2.95h-1.79v-8.4h3.19a5.81,5.81,0,0,1,1.37.15,3.12,3.12,0,0,1,1,.48,2.26,2.26,0,0,1,.67.83,2.81,2.81,0,0,1,.24,1.21,3,3,0,0,1-.24,1.25,2.5,2.5,0,0,1-.68.86,2.84,2.84,0,0,1-1,.5,5.2,5.2,0,0,1-1.35.17Zm2.89-2.78a1,1,0,0,0-.42-.93,2.41,2.41,0,0,0-1.25-.25h-1.22v2.47h1.22a2.11,2.11,0,0,0,1.25-.3A1.13,1.13,0,0,0,289.05,346.76Z"/><path class="cls-3" d="M293.53,352.49v-8.4h5.72v1.49H295.3v1.84H299v1.49H295.3V351h4v1.49Z"/><path class="cls-3" d="M308.38,346.64a2.36,2.36,0,0,1-1.6,2.4l1.94,3.45h-2L305,349.31h-1.12v3.18h-1.79v-8.4h3.07a5.47,5.47,0,0,1,1.33.15,2.76,2.76,0,0,1,1,.46,2.08,2.08,0,0,1,.65.79A2.71,2.71,0,0,1,308.38,346.64Zm-1.85,0a.91.91,0,0,0-.39-.85,2.3,2.3,0,0,0-1.18-.23h-1.08v2.26H305a2.08,2.08,0,0,0,1.18-.27A1,1,0,0,0,306.53,346.66Z"/><path class="cls-3" d="M311.41,344.09h1.8v8.4h-1.8Z"/><path class="cls-3" d="M316.37,352.49v-8.4h5.73v1.49h-4v1.84h3.67v1.49h-3.67V351h4v1.49Z"/><path class="cls-3" d="M324.94,344.09h1.87c.49.79.95,1.54,1.4,2.25l.64,1.05.51.83.48.77.38.62h0v-5.52H332v8.4h-1.87l-1.37-2.22-.64-1-.51-.83-.49-.79c-.15-.25-.29-.47-.4-.64h0v5.52h-1.71Z"/><path class="cls-3" d="M334.78,348.29a5.51,5.51,0,0,1,.29-1.84,3.81,3.81,0,0,1,.82-1.38,3.65,3.65,0,0,1,1.3-.86,4.79,4.79,0,0,1,1.71-.29,4.1,4.1,0,0,1,2.25.59,3.21,3.21,0,0,1,1.3,1.79l-1.75.61a2.43,2.43,0,0,0-.65-1.1,1.72,1.72,0,0,0-1.19-.39,2,2,0,0,0-1.67.81,2.63,2.63,0,0,0-.41.91,4.59,4.59,0,0,0-.14,1.15,4.51,4.51,0,0,0,.14,1.14,2.81,2.81,0,0,0,.41.91,1.92,1.92,0,0,0,.7.6,2.18,2.18,0,0,0,1,.22,1.8,1.8,0,0,0,1.14-.35,2.15,2.15,0,0,0,.66-1.06l1.73.61a3.49,3.49,0,0,1-1.3,1.68,3.81,3.81,0,0,1-2.25.62,4.49,4.49,0,0,1-1.68-.3,3.5,3.5,0,0,1-1.28-.85,3.69,3.69,0,0,1-.82-1.37A5.61,5.61,0,0,1,334.78,348.29Z"/><path class="cls-3" d="M345.09,352.49v-8.4h5.72v1.49h-3.95v1.84h3.68v1.49h-3.68V351h4v1.49Z"/></g></svg>