<svg xmlns="http://www.w3.org/2000/svg" viewBox="0 0 360 360"><defs><style>.cls-1{fill:#f1f2f2;}.cls-2{fill:#ef4a2b;}.cls-3,.cls-5,.cls-6{fill:none;}.cls-3,.cls-4,.cls-5,.cls-6{stroke:#ef4a2b;stroke-miterlimit:10;}.cls-4,.cls-7{fill:#fff;}.cls-5{stroke-width:3px;}.cls-6{stroke-linecap:round;}</style></defs><g id="BACKGROUND"><rect class="cls-1" x="-0.43" y="-0.17" width="360" height="360"/></g><g id="LINE_ONE" data-name="LINE ONE"><path class="cls-2" d="M121,238.42a3.94,3.94,0,0,1-2.66,4l3.22,5.74h-3.3l-2.9-5.3h-1.86v5.3h-3v-14h5.12a8.89,8.89,0,0,1,2.21.25,4.78,4.78,0,0,1,1.69.77,3.46,3.46,0,0,1,1.08,1.32A4.47,4.47,0,0,1,121,238.42Zm-3.08,0a1.51,1.51,0,0,0-.65-1.41,3.91,3.91,0,0,0-2-.39h-1.8v3.78h1.8a3.48,3.48,0,0,0,2-.45A1.74,1.74,0,0,0,117.87,238.44Z"/><path class="cls-2" d="M126,248.16v-14h9.54v2.48H129v3.08h6.12v2.48H129v3.48h6.68v2.48Z"/><path class="cls-2" d="M139.21,234.16h11.1v2.5h-4v11.5h-3v-11.5h-4Z"/><path class="cls-2" d="M154.53,234.16h3v5.54h5.3v-5.54h3v14h-3v-5.94h-5.3v5.94h-3Z"/><path class="cls-2" d="M171.11,234.16h3v14h-3Z"/><path class="cls-2" d="M179.39,234.16h3.12l2.32,3.76,1.08,1.75.84,1.37.8,1.29.64,1h.06v-9.2h2.84v14H188l-2.28-3.7-1.07-1.73c-.29-.46-.57-.92-.85-1.38L183,240c-.26-.42-.48-.78-.67-1.07h-.06v9.2h-2.84Z"/><path class="cls-2" d="M200.55,242l-1.18,1.34v4.84h-3v-14h3v5.44l4.74-5.44h3.46l-5,5.66,5.5,8.34h-3.58Z"/><path class="cls-2" d="M212.17,234.16h3v14h-3Z"/><path class="cls-2" d="M220.45,234.16h3.12l2.32,3.76,1.08,1.75.84,1.37.8,1.29.64,1h.06v-9.2h2.84v14H229l-2.28-3.7-1.07-1.73c-.29-.46-.57-.92-.85-1.38L224,240c-.26-.42-.48-.78-.67-1.07h-.06v9.2h-2.84Z"/><path class="cls-2" d="M243.15,240.4h6.44v7.76h-2.72v-1.44a3.69,3.69,0,0,1-1.36,1.22,4.83,4.83,0,0,1-2.34.5,6.29,6.29,0,0,1-2.75-.57,5.72,5.72,0,0,1-2-1.55,6.7,6.7,0,0,1-1.19-2.3,9.56,9.56,0,0,1-.4-2.82,9,9,0,0,1,.47-3,6.53,6.53,0,0,1,1.37-2.31,6.18,6.18,0,0,1,2.19-1.51,7.54,7.54,0,0,1,2.93-.54,6.74,6.74,0,0,1,3.62.93,5.74,5.74,0,0,1,2.26,2.75l-2.78,1.14a3.59,3.59,0,0,0-1.22-1.73,3.24,3.24,0,0,0-2-.61,3.35,3.35,0,0,0-2.72,1.25,5.72,5.72,0,0,0-1,3.69q0,4.68,3.7,4.68a4,4,0,0,0,1.08-.15,3.2,3.2,0,0,0,1-.46,2.51,2.51,0,0,0,.73-.79,2.24,2.24,0,0,0,.28-1.16v-.64h-3.58Z"/></g><g id="LINE_TWO" data-name="LINE TWO"><path class="cls-2" d="M62.94,252l-3.5,14H56c-.3-1.3-.58-2.53-.84-3.7-.16-.7-.3-1.28-.4-1.74s-.21-.94-.31-1.4-.2-.92-.3-1.34-.19-.8-.25-1.1H53.8q-.11.45-.24,1.11c-.1.43-.2.89-.32,1.39s-.24,1-.36,1.53l-.36,1.55c-.28,1.17-.58,2.4-.9,3.7H48.14l-3.52-14h3c.34,1.49.67,2.91,1,4.26.17.8.32,1.46.44,2s.23,1,.34,1.56.21,1,.31,1.48.17.86.23,1.18H50c.06-.32.15-.72.25-1.19s.21-1,.34-1.53.26-1.12.4-1.72.27-1.19.41-1.76q.48-2,1-4.26h2.82q.54,2.24,1,4.26c.18.8.34,1.46.47,2s.25,1,.37,1.56.23,1,.33,1.48.18.86.25,1.18h.06c.06-.32.15-.72.25-1.19s.21-1,.33-1.53.24-1.12.38-1.72.26-1.19.4-1.76c.32-1.35.65-2.77,1-4.26Z"/><path class="cls-2" d="M66.28,259a8.79,8.79,0,0,1,.49-3,6.55,6.55,0,0,1,1.38-2.29,5.82,5.82,0,0,1,2.15-1.44,8.09,8.09,0,0,1,5.6,0,5.9,5.9,0,0,1,2.15,1.44,6.55,6.55,0,0,1,1.38,2.29,9.74,9.74,0,0,1,0,6.1,6.64,6.64,0,0,1-1.38,2.29,6.16,6.16,0,0,1-2.15,1.44,8.09,8.09,0,0,1-5.6,0,6.07,6.07,0,0,1-2.15-1.44A6.64,6.64,0,0,1,66.77,262,8.83,8.83,0,0,1,66.28,259Zm3.1,0a7.56,7.56,0,0,0,.23,1.95,4.33,4.33,0,0,0,.69,1.52,3.24,3.24,0,0,0,1.16,1,4,4,0,0,0,3.28,0,3.32,3.32,0,0,0,1.16-1,4.52,4.52,0,0,0,.69-1.52,8,8,0,0,0,.23-1.95,7.9,7.9,0,0,0-.23-1.95,4.43,4.43,0,0,0-.69-1.52,3.22,3.22,0,0,0-1.16-1,4,4,0,0,0-3.28,0,3.14,3.14,0,0,0-1.16,1,4.25,4.25,0,0,0-.69,1.52A7.45,7.45,0,0,0,69.38,259Z"/><path class="cls-2" d="M95.1,256.21a4.26,4.26,0,0,1-.71,2.54,4.31,4.31,0,0,1-2,1.46L95.66,266h-3.3l-2.9-5.3H87.6V266h-3V252h5.12a8.89,8.89,0,0,1,2.21.25,4.61,4.61,0,0,1,1.69.77,3.41,3.41,0,0,1,1.08,1.32A4.47,4.47,0,0,1,95.1,256.21Zm-3.08,0a1.51,1.51,0,0,0-.65-1.41,3.93,3.93,0,0,0-2-.39H87.6v3.78h1.8a3.5,3.5,0,0,0,2-.45A1.74,1.74,0,0,0,92,256.23Z"/><path class="cls-2" d="M104.32,259.77l-1.18,1.34V266h-3V252h3v5.44l4.74-5.44h3.46l-5,5.66,5.5,8.34H108.3Z"/><path class="cls-2" d="M118.92,261V266h-3V252h5.32a8.93,8.93,0,0,1,2.28.26,4.81,4.81,0,0,1,1.74.8,3.7,3.7,0,0,1,1.12,1.38,4.75,4.75,0,0,1,.4,2,4.87,4.87,0,0,1-.41,2.07,4.05,4.05,0,0,1-1.14,1.44,4.83,4.83,0,0,1-1.75.84,8.76,8.76,0,0,1-2.24.27Zm4.82-4.62a1.68,1.68,0,0,0-.69-1.56,4.11,4.11,0,0,0-2.09-.42h-2v4.12h2a3.6,3.6,0,0,0,2.09-.5A1.9,1.9,0,0,0,123.74,256.41Z"/><path class="cls-2" d="M131.2,252h3v11.5h6.12V266H131.2Z"/><path class="cls-2" d="M156.68,266h-3.1l-1.12-3.24h-5L146.32,266h-2.94l5-14h3.22Zm-6.76-10.72-.14.47c-.07.2-.14.44-.22.7s-.17.54-.27.84l-.29.87-.74,2.22h3.38c-.27-.79-.52-1.53-.74-2.22-.15-.4-.27-.73-.35-1s-.17-.51-.24-.75-.15-.47-.21-.67a4.69,4.69,0,0,1-.14-.47Z"/><path class="cls-2" d="M159.54,259a9.12,9.12,0,0,1,.48-3.07,6.25,6.25,0,0,1,1.37-2.29,5.64,5.64,0,0,1,2.16-1.43,7.74,7.74,0,0,1,2.85-.49,6.77,6.77,0,0,1,3.76,1,5.32,5.32,0,0,1,2.16,3l-2.92,1a3.92,3.92,0,0,0-1.08-1.83,2.82,2.82,0,0,0-2-.65,3.46,3.46,0,0,0-1.62.36,3.18,3.18,0,0,0-1.16,1,4.28,4.28,0,0,0-.69,1.51,8.09,8.09,0,0,0,0,3.83,4.45,4.45,0,0,0,.69,1.51,3.21,3.21,0,0,0,1.16,1,3.51,3.51,0,0,0,1.64.36,3,3,0,0,0,1.89-.58,3.72,3.72,0,0,0,1.11-1.76l2.88,1a6.07,6.07,0,0,1-2.16,2.8,6.44,6.44,0,0,1-3.76,1,7.7,7.7,0,0,1-2.79-.49,5.86,5.86,0,0,1-2.14-1.42A6.25,6.25,0,0,1,160,262,9.26,9.26,0,0,1,159.54,259Z"/><path class="cls-2" d="M176.72,266V252h9.54v2.48h-6.58v3.08h6.12V260h-6.12v3.48h6.68V266Z"/><path class="cls-2" d="M200.42,255.63a1.34,1.34,0,0,0,.78,1.29,9.36,9.36,0,0,0,2.48.67,7.91,7.91,0,0,1,3.67,1.38,3.48,3.48,0,0,1,1.17,2.86,3.92,3.92,0,0,1-.42,1.83,4.07,4.07,0,0,1-1.17,1.38,5.65,5.65,0,0,1-1.79.88,8.17,8.17,0,0,1-2.26.31,7.63,7.63,0,0,1-2.38-.35,6.1,6.1,0,0,1-1.8-.93,4.28,4.28,0,0,1-1.16-1.36,3.67,3.67,0,0,1-.46-1.62l3-.48a2.54,2.54,0,0,0,.79,1.67,2.84,2.84,0,0,0,2,.65,5.4,5.4,0,0,0,1-.1,2.61,2.61,0,0,0,.82-.33,2,2,0,0,0,.55-.57,1.63,1.63,0,0,0,.2-.82,1.35,1.35,0,0,0-.65-1.2,6.38,6.38,0,0,0-2.29-.68,17.16,17.16,0,0,1-2-.46,5.72,5.72,0,0,1-1.63-.77,3.6,3.6,0,0,1-1.08-1.22,3.79,3.79,0,0,1-.39-1.79,3.93,3.93,0,0,1,.4-1.84,3.62,3.62,0,0,1,1.12-1.31,4.76,4.76,0,0,1,1.7-.79,8,8,0,0,1,2.14-.26,7.71,7.71,0,0,1,2,.25,5.38,5.38,0,0,1,1.67.74,4.36,4.36,0,0,1,1.21,1.21,4.42,4.42,0,0,1,.66,1.64l-3,.66a2.45,2.45,0,0,0-.82-1.52,2.64,2.64,0,0,0-1.78-.56,2.76,2.76,0,0,0-1.69.42A1.33,1.33,0,0,0,200.42,255.63Z"/><path class="cls-2" d="M211.62,252h11.1v2.5h-4V266h-3v-11.5h-4Z"/><path class="cls-2" d="M237.42,256.21a4.26,4.26,0,0,1-.71,2.54,4.31,4.31,0,0,1-2,1.46L238,266h-3.3l-2.9-5.3h-1.86V266h-3V252h5.12a8.89,8.89,0,0,1,2.21.25A4.61,4.61,0,0,1,236,253a3.5,3.5,0,0,1,1.08,1.32A4.47,4.47,0,0,1,237.42,256.21Zm-3.08,0a1.51,1.51,0,0,0-.65-1.41,3.93,3.93,0,0,0-2-.39h-1.8v3.78h1.8a3.5,3.5,0,0,0,2-.45A1.74,1.74,0,0,0,234.34,256.23Z"/><path class="cls-2" d="M254.62,266h-3.1l-1.12-3.24h-5L244.26,266h-2.94l5-14h3.22Zm-6.76-10.72-.14.47c-.07.2-.14.44-.22.7s-.17.54-.27.84l-.29.87-.74,2.22h3.38c-.27-.79-.52-1.53-.74-2.22-.15-.4-.27-.73-.35-1s-.17-.51-.24-.75-.15-.47-.21-.67a4.69,4.69,0,0,1-.14-.47Z"/><path class="cls-2" d="M256.1,252h11.1v2.5h-4V266h-3v-11.5h-4Z"/><path class="cls-2" d="M271.42,266V252H281v2.48h-6.58v3.08h6.11V260h-6.11v3.48h6.68V266Z"/><path class="cls-2" d="M291.42,258.19h6.44V266h-2.72v-1.44a3.74,3.74,0,0,1-1.37,1.22,4.77,4.77,0,0,1-2.33.5,6.29,6.29,0,0,1-2.75-.57,5.54,5.54,0,0,1-2-1.55,6.62,6.62,0,0,1-1.19-2.3,9.56,9.56,0,0,1-.4-2.82,8.71,8.71,0,0,1,.47-3,6.36,6.36,0,0,1,1.37-2.31,6.18,6.18,0,0,1,2.19-1.51,7.5,7.5,0,0,1,2.93-.54,6.74,6.74,0,0,1,3.62.93,5.7,5.7,0,0,1,2.26,2.75l-2.78,1.14a3.61,3.61,0,0,0-1.22-1.73,3.26,3.26,0,0,0-2-.61,3.3,3.3,0,0,0-2.72,1.25,5.72,5.72,0,0,0-1,3.69q0,4.68,3.7,4.68a4.07,4.07,0,0,0,1.08-.15,3.45,3.45,0,0,0,1-.46,2.51,2.51,0,0,0,.73-.79,2.34,2.34,0,0,0,.28-1.16v-.64h-3.58Z"/><path class="cls-2" d="M306.32,260.09,301,252h3.44l3.42,5.36,3.4-5.36h3.34l-5.29,8.14V266h-3Z"/><line class="cls-3" x1="114.48" y1="166.32" x2="30.33" y2="166.32"/><path class="cls-4" d="M122,181.67c1.44,0,2.88,0,4.32,0,.8,0,1.14.22,1.06,1.1q-.57,6-1,12.1c-.07.78-.43,1-1.13,1q-3.37,0-6.75,0c-.71,0-1-.21-1.1-1q-.47-6-1-12c-.09-.86.13-1.24,1.06-1.21C118.92,181.71,120.46,181.67,122,181.67Z"/><path class="cls-4" d="M123.94,154c2.29,4.26,1.19,16-1.86,19.55-.6-1.55-1.61-3-1.61-4.39,0-4.63.49-9.23,2.5-13.52C123.21,155.14,123.54,154.68,123.94,154Z"/><path class="cls-4" d="M112.91,161a8,8,0,0,1,4.72,3.49,23.72,23.72,0,0,1,4.09,9.92c.36,2.19-.16,4.51-.28,6.76-.11.07-.19.17-.28.18-2.74.27-2.77.27-3.15-2.33a64.1,64.1,0,0,0-4.72-16.76C113.16,161.9,113.1,161.56,112.91,161Z"/><path class="cls-4" d="M129,166.74c-.26.66-.35,1-.52,1.32a39.73,39.73,0,0,0-4,12.15c-.16,1-.55,1.19-1.42,1.2s-1.08-.59-1.1-1.34c-.12-3.61.22-7.12,2.34-10.19A7.65,7.65,0,0,1,129,166.74Z"/><path class="cls-4" d="M313.44,150.45a14,14,0,0,1-.54,2.06c-1,2.19-2,4.37-3,6.54-.58,1.21-1.33,1.27-2.11.16l-6.64-9.47c-.85-1.22-.51-1.91,1-2,2.33-.21,4.66-.42,7-.61.75-.06,1.51-.2,2.05.58.12.17.49.18.75.22a6.25,6.25,0,0,1,5.59,6.35c0,11.57,0,23.15,0,34.72,0,1.07.3,1.4,1.34,1.31s1.92,0,2.89,0c.67,0,1.16.31,1,1a1.4,1.4,0,0,1-1,.88c-3.44.07-6.89,0-10.33,0-.66,0-1.1-.31-1.09-1s.48-.92,1.13-.91c1.07,0,2.14,0,3.21,0,.68,0,1-.18,1-.93,0-11.71,0-23.42,0-35.13A4.17,4.17,0,0,0,313.44,150.45Z"/><path class="cls-4" d="M287.55,160.14c2.94,0,5.89,0,8.83,0,2.43,0,3.46,1,3.47,3.15s0,4.51,0,6.77a1.72,1.72,0,0,1-.55,1.22,5,5,0,0,0-2.11,4.35c0,1.07.3,2.48-.31,3.11s-2.13.23-3.27.23c-4.79,0-9.58,0-14.37,0-1,0-1.37-.22-1.29-1.14s0-1.86,0-2.78a4.79,4.79,0,0,0-1.92-3.7,2.08,2.08,0,0,1-.72-1.38c-.08-2.26,0-4.52,0-6.77,0-2,1.11-3.06,3.31-3.08C281.57,160.12,284.56,160.14,287.55,160.14Z"/><path class="cls-4" d="M287.42,179.06c5.06,0,10.11,0,15.17,0,1.12,0,1.46.39,1.39,1.6-.09,1.56,0,3.13,0,4.69,0,2-1,3.09-2.72,3.09h-27.6c-1.66,0-2.61-1-2.67-2.89s0-3.47,0-5.2c0-1.06.36-1.28,1.21-1.28C277.23,179.07,282.33,179.06,287.42,179.06Z"/><path class="cls-4" d="M299.78,179c-4,0-4,0-4-4,0-2.81,1.22-4,4.1-4s4.07,1.17,4.09,4c0,4,0,4-4,4Z"/><path class="cls-4" d="M275.17,179c-4,0-4,0-4-4,0-2.81,1.23-4,4.11-4s4.07,1.17,4.09,4c0,4,0,4-4,4Z"/><path class="cls-4" d="M280.47,188.64c-.58,2.39-1.13,4.71-1.72,7-.32,1.27-1.8,1-3.5.81.62-2.48,1.14-4.86,1.83-7.22C277.42,188.1,278.88,188.4,280.47,188.64Z"/><path class="cls-4" d="M294.64,188.64c.58,2.39,1.13,4.71,1.72,7,.32,1.27,1.8,1,3.5.81-.62-2.48-1.14-4.86-1.83-7.22C297.69,188.1,296.23,188.4,294.64,188.64Z"/><rect class="cls-5" x="142.15" y="110.36" width="115.26" height="85.94" rx="0.72"/><rect class="cls-3" x="142.15" y="181.51" width="19.52" height="14.79" rx="0.72"/><rect class="cls-3" x="142.15" y="147.05" width="9.76" height="34.46" rx="0.72"/><rect class="cls-3" x="181.92" y="181.51" width="35.73" height="14.79" rx="0.72"/><rect class="cls-3" x="194.9" y="147.05" width="9.76" height="34.46" rx="0.72"/><rect class="cls-3" x="237.89" y="181.51" width="19.52" height="14.79" rx="0.72"/><rect class="cls-3" x="247.65" y="147.05" width="9.76" height="34.46" rx="0.72"/><line class="cls-3" x1="171.37" y1="196.3" x2="171.37" y2="166.49"/><line class="cls-3" x1="162.54" y1="166.49" x2="180.21" y2="166.49"/><line class="cls-3" x1="227.76" y1="196.42" x2="227.76" y2="166.61"/><line class="cls-3" x1="218.93" y1="166.61" x2="236.6" y2="166.61"/><path class="cls-3" d="M227.76,124.24a9.35,9.35,0,0,1,9.36,9.34H218.41A9.35,9.35,0,0,1,227.76,124.24Z"/><line class="cls-3" x1="227.76" y1="124.24" x2="227.76" y2="110.36"/><path class="cls-3" d="M171.37,124.24a9.34,9.34,0,0,1,9.35,9.34H162A9.34,9.34,0,0,1,171.37,124.24Z"/><line class="cls-3" x1="171.37" y1="124.24" x2="171.37" y2="110.36"/><path class="cls-3" d="M94.46,125.43a9.34,9.34,0,0,1,9.35,9.34H85.11A9.34,9.34,0,0,1,94.46,125.43Z"/><line class="cls-3" x1="94.46" y1="125.43" x2="94.46" y2="111.55"/><path class="cls-3" d="M50.35,125.43a9.34,9.34,0,0,1,9.35,9.34H41A9.34,9.34,0,0,1,50.35,125.43Z"/><line class="cls-3" x1="50.35" y1="125.43" x2="50.35" y2="111.55"/><path class="cls-4" d="M87.82,181.64V160.22c0-2,.41-2.41,2.34-2.41h9.46c1.79,0,2.31.53,2.31,2.34,0,6.72,0,13.43,0,20.15,0,1.09-.33,1.37-1.39,1.36C96.39,181.61,92.21,181.64,87.82,181.64Z"/><path class="cls-4" d="M87.73,180.82c-.25-1.36-.14-3-.9-4-.46-.56-2.61-.38-3.34.27s-.68,2.86-.15,3.31c.92.77,2.5.71,3.8,1Z"/><path class="cls-4" d="M102,180.65c.25-1.36.14-3.05.9-4,.46-.56,2.61-.37,3.34.28s.68,2.85.15,3.3c-.92.78-2.5.72-3.8,1Z"/><line class="cls-6" x1="94.89" y1="181.66" x2="94.89" y2="195.83"/><line class="cls-6" x1="94.89" y1="192.76" x2="87.82" y2="195.83"/><line class="cls-6" x1="94.89" y1="192.76" x2="102.29" y2="195.83"/><path class="cls-4" d="M43.88,181.64V160.22c0-2,.41-2.41,2.34-2.41h9.46c1.8,0,2.31.53,2.32,2.34,0,6.72,0,13.43,0,20.15,0,1.09-.33,1.37-1.38,1.36C52.46,181.61,48.27,181.64,43.88,181.64Z"/><path class="cls-4" d="M43.79,180.82c-.25-1.36-.14-3-.89-4-.47-.56-2.62-.38-3.35.27s-.68,2.86-.15,3.31c.92.77,2.5.71,3.81,1Z"/><path class="cls-4" d="M58,180.65c.26-1.36.14-3.05.9-4,.46-.56,2.61-.37,3.34.28s.69,2.85.15,3.3c-.92.78-2.5.72-3.8,1Z"/><line class="cls-6" x1="50.95" y1="181.66" x2="50.95" y2="195.83"/><line class="cls-6" x1="50.95" y1="192.76" x2="43.88" y2="195.83"/><line class="cls-6" x1="50.95" y1="192.76" x2="58.35" y2="195.83"/><rect class="cls-5" x="30.33" y="110.36" width="299.34" height="86.26" rx="10.01"/><rect class="cls-3" x="67.24" y="174.37" width="10.82" height="20.61" rx="0.72"/><line class="cls-3" x1="67.24" y1="178.47" x2="78.05" y2="178.47"/><line class="cls-3" x1="67.47" y1="186.28" x2="78.29" y2="186.28"/></g><g id="ICON"><rect class="cls-2" y="336.06" width="360" height="23.94"/><path class="cls-7" d="M265.76,352.49v-8.4h5.72v1.49h-4v1.84h3.68v1.49h-3.68V351h4v1.49Z"/><path class="cls-7" d="M278.79,348.08l3.11,4.41h-2.16l-2-2.92-2.06,2.92h-2l3.08-4.32-2.84-4.08H276l1.77,2.59,1.82-2.59h2Z"/><path class="cls-7" d="M286.16,349.54v2.95h-1.79v-8.4h3.19a5.75,5.75,0,0,1,1.37.15,3,3,0,0,1,1,.48,2.39,2.39,0,0,1,.68.83,2.81,2.81,0,0,1,.24,1.21,3,3,0,0,1-.25,1.25,2.39,2.39,0,0,1-.68.86,2.84,2.84,0,0,1-1,.5,5.2,5.2,0,0,1-1.35.17Zm2.89-2.78a1,1,0,0,0-.41-.93,2.48,2.48,0,0,0-1.26-.25h-1.22v2.47h1.22a2.17,2.17,0,0,0,1.26-.3A1.15,1.15,0,0,0,289.05,346.76Z"/><path class="cls-7" d="M293.53,352.49v-8.4h5.72v1.49H295.3v1.84H299v1.49H295.3V351h4v1.49Z"/><path class="cls-7" d="M308.38,346.64a2.36,2.36,0,0,1-1.6,2.4l1.94,3.45h-2L305,349.31h-1.12v3.18h-1.79v-8.4h3.07a5.41,5.41,0,0,1,1.33.15,2.81,2.81,0,0,1,1,.46,2.15,2.15,0,0,1,.64.79A2.57,2.57,0,0,1,308.38,346.64Zm-1.85,0a.91.91,0,0,0-.39-.85,2.3,2.3,0,0,0-1.18-.23h-1.08v2.26H305a2.08,2.08,0,0,0,1.18-.27A1,1,0,0,0,306.53,346.66Z"/><path class="cls-7" d="M311.41,344.09h1.8v8.4h-1.8Z"/><path class="cls-7" d="M316.37,352.49v-8.4h5.73v1.49h-4v1.84h3.67v1.49h-3.67V351h4v1.49Z"/><path class="cls-7" d="M324.94,344.09h1.87l1.4,2.25.64,1.05.51.83.48.77.38.62h0v-5.52H332v8.4h-1.87l-1.37-2.22c-.25-.42-.47-.76-.64-1l-.51-.83-.49-.79c-.15-.25-.29-.47-.4-.64h0v5.52h-1.71Z"/><path class="cls-7" d="M334.78,348.29a5.51,5.51,0,0,1,.29-1.84,3.81,3.81,0,0,1,.82-1.38,3.65,3.65,0,0,1,1.3-.86,4.83,4.83,0,0,1,1.71-.29,4.07,4.07,0,0,1,2.25.59,3.21,3.21,0,0,1,1.3,1.79l-1.75.61a2.43,2.43,0,0,0-.65-1.1,1.72,1.72,0,0,0-1.19-.39,2,2,0,0,0-1.67.81,2.63,2.63,0,0,0-.41.91,4.59,4.59,0,0,0-.14,1.15,4.51,4.51,0,0,0,.14,1.14,2.81,2.81,0,0,0,.41.91,1.92,1.92,0,0,0,.7.6,2.18,2.18,0,0,0,1,.22,1.78,1.78,0,0,0,1.14-.35,2.15,2.15,0,0,0,.66-1.06l1.73.61a3.53,3.53,0,0,1-1.29,1.68,3.87,3.87,0,0,1-2.26.62,4.44,4.44,0,0,1-1.67-.3,3.54,3.54,0,0,1-1.29-.85,3.69,3.69,0,0,1-.82-1.37A5.61,5.61,0,0,1,334.78,348.29Z"/><path class="cls-7" d="M345.09,352.49v-8.4h5.72v1.49h-3.95v1.84h3.68v1.49h-3.68V351h4v1.49Z"/></g></svg>