<svg xmlns="http://www.w3.org/2000/svg" viewBox="0 0 360 360"><defs><style>.cls-1{fill:#f1f2f2;}.cls-2,.cls-3{fill:#d2bf2d;}.cls-3{stroke:#d2bf2d;stroke-miterlimit:10;stroke-width:4px;}.cls-4{fill:#fff;}</style></defs><g id="BACKGROUND"><rect class="cls-1" x="-0.04" width="360" height="360"/></g><g id="LINE_ONE" data-name="LINE ONE"><path class="cls-2" d="M131.43,237.84a1.34,1.34,0,0,0,.78,1.29,9.36,9.36,0,0,0,2.48.67,7.91,7.91,0,0,1,3.67,1.38,3.48,3.48,0,0,1,1.17,2.86,3.92,3.92,0,0,1-.42,1.83,4.07,4.07,0,0,1-1.17,1.38,5.65,5.65,0,0,1-1.79.88,7.81,7.81,0,0,1-2.26.31,7.63,7.63,0,0,1-2.38-.35,5.87,5.87,0,0,1-1.8-.93,4.28,4.28,0,0,1-1.16-1.36,3.67,3.67,0,0,1-.46-1.62l3-.48a2.52,2.52,0,0,0,.79,1.67,2.84,2.84,0,0,0,2,.65,4.68,4.68,0,0,0,1-.1,2.61,2.61,0,0,0,.82-.33,1.76,1.76,0,0,0,.55-.57,1.63,1.63,0,0,0,.2-.82,1.35,1.35,0,0,0-.65-1.2,6.38,6.38,0,0,0-2.29-.68,17.16,17.16,0,0,1-2-.46,5.47,5.47,0,0,1-1.63-.77,3.51,3.51,0,0,1-1.08-1.22,3.76,3.76,0,0,1-.39-1.79,3.93,3.93,0,0,1,.4-1.84,3.62,3.62,0,0,1,1.12-1.31,4.94,4.94,0,0,1,1.7-.79,8,8,0,0,1,2.14-.26,7.71,7.71,0,0,1,2,.25,5.38,5.38,0,0,1,1.67.74,4.35,4.35,0,0,1,1.87,2.85l-3,.66a2.45,2.45,0,0,0-.82-1.52,2.69,2.69,0,0,0-1.78-.56,2.76,2.76,0,0,0-1.69.42A1.33,1.33,0,0,0,131.43,237.84Z"/><path class="cls-2" d="M142.63,234.16h11.1v2.5h-4v11.5h-3v-11.5h-4Z"/><path class="cls-2" d="M163.47,248.44a4.9,4.9,0,0,1-5.6-5.44v-8.84h3V243a3.33,3.33,0,0,0,.64,2.11,2.73,2.73,0,0,0,3.92,0,3.4,3.4,0,0,0,.64-2.11v-8.86h3V243a5.65,5.65,0,0,1-1.34,4A5.59,5.59,0,0,1,163.47,248.44Z"/><path class="cls-2" d="M174.27,234.16h5.22a8.45,8.45,0,0,1,2.88.47,5.85,5.85,0,0,1,2.16,1.36,6.05,6.05,0,0,1,1.35,2.19,9.68,9.68,0,0,1,0,6,6.14,6.14,0,0,1-1.35,2.19,5.85,5.85,0,0,1-2.16,1.36,8.45,8.45,0,0,1-2.88.47h-5.22Zm9,7a7,7,0,0,0-.23-1.85,4.15,4.15,0,0,0-.7-1.43,3.09,3.09,0,0,0-1.19-.92,4.29,4.29,0,0,0-1.72-.32h-2.12v9h2.12a4.29,4.29,0,0,0,1.72-.32,3.09,3.09,0,0,0,1.19-.92A4.24,4.24,0,0,0,183,243,7,7,0,0,0,183.25,241.16Z"/><path class="cls-2" d="M191.05,248.16v-14h9.54v2.48H194v3.08h6.12v2.48H194v3.48h6.68v2.48Z"/><path class="cls-2" d="M205.33,234.16h3.12l2.32,3.76,1.08,1.75.84,1.37.8,1.29.64,1h.06v-9.2H217v14h-3.12l-2.28-3.7-1.07-1.73c-.29-.46-.57-.92-.85-1.38L208.9,240l-.67-1.07h-.06v9.2h-2.84Z"/><path class="cls-2" d="M221.25,234.16h11.1v2.5h-4v11.5h-3v-11.5h-4Z"/></g><g id="LINE_TWO" data-name="LINE TWO"><path class="cls-2" d="M139.89,255.62a1.34,1.34,0,0,0,.78,1.29,9.1,9.1,0,0,0,2.48.67,7.86,7.86,0,0,1,3.67,1.38,3.49,3.49,0,0,1,1.17,2.86,3.92,3.92,0,0,1-.42,1.83A4.07,4.07,0,0,1,146.4,265a5.44,5.44,0,0,1-1.79.88,7.77,7.77,0,0,1-2.26.31,7.39,7.39,0,0,1-2.38-.35,5.66,5.66,0,0,1-1.8-.93,4.3,4.3,0,0,1-1.16-1.36,3.81,3.81,0,0,1-.46-1.62l3-.48a2.56,2.56,0,0,0,.79,1.67,2.8,2.8,0,0,0,2,.65,4.61,4.61,0,0,0,1-.1,2.14,2.14,0,0,0,.82-.33,1.66,1.66,0,0,0,.55-.57,1.61,1.61,0,0,0,.2-.82,1.35,1.35,0,0,0-.65-1.2,6.52,6.52,0,0,0-2.29-.68,16.15,16.15,0,0,1-2-.46,5.23,5.23,0,0,1-1.63-.77,3.42,3.42,0,0,1-1.08-1.22,3.73,3.73,0,0,1-.39-1.79,4,4,0,0,1,.4-1.84,3.81,3.81,0,0,1,1.12-1.31,5.22,5.22,0,0,1,1.7-.79,8.48,8.48,0,0,1,2.14-.26,8.16,8.16,0,0,1,2,.25,5.77,5.77,0,0,1,1.67.74,4.36,4.36,0,0,1,1.21,1.21,4.49,4.49,0,0,1,.66,1.64l-3,.66a2.48,2.48,0,0,0-.82-1.52,2.67,2.67,0,0,0-1.78-.56,2.78,2.78,0,0,0-1.69.42A1.34,1.34,0,0,0,139.89,255.62Z"/><path class="cls-2" d="M164.81,265.94h-3.1l-1.12-3.24h-5l-1.12,3.24h-2.94l5-14h3.22Zm-6.76-10.72c0,.11-.07.27-.14.47s-.14.44-.22.7-.17.54-.27.84l-.29.87c-.23.7-.47,1.44-.74,2.22h3.38c-.27-.78-.51-1.52-.74-2.22-.15-.4-.26-.73-.35-1s-.17-.51-.24-.75-.14-.46-.21-.67-.11-.36-.14-.47Z"/><path class="cls-2" d="M169,265.94v-14h9.58v2.48h-6.62v3.08H178V260h-6.1v6Z"/><path class="cls-2" d="M183,265.94v-14h9.54v2.48H186v3.08h6.12V260H186v3.48h6.68v2.48Z"/><path class="cls-2" d="M196.23,251.94h11.1v2.5h-4v11.5h-3v-11.5h-4Z"/><path class="cls-2" d="M215.79,260.08l-5.3-8.14h3.44l3.42,5.36,3.4-5.36h3.34l-5.3,8.14v5.86h-3Z"/></g><g id="ICON"><path class="cls-3" d="M124,185.32c4.64-9.27,9.12-18.63,13.94-27.81C148.39,137.62,159,117.82,169.55,98a25,25,0,0,1,2.22-3.6c4.95-6.46,12.27-6.39,16.72.43,2.86,4.37,5.13,9.13,7.6,13.76q18.36,34.47,36.65,69c1.3,2.47,2.18,5.17,3.26,7.76v3.5c-2,7.31-7.23,9.36-14.21,9.34q-41.79-.18-83.59,0c-7,0-12.25-2-14.2-9.33Zm55.79,7.81v0q19.11,0,38.24,0a66.34,66.34,0,0,0,7.73-.26c4.1-.51,6.18-3.46,5.18-7.48a28.1,28.1,0,0,0-2.59-6.19q-20.92-39.5-41.94-78.95c-1.42-2.67-2.88-5.56-6.44-5.53s-5,3-6.38,5.61q-17.85,33.5-35.66,67c-2.81,5.29-5.74,10.54-8.26,16s.17,9.46,6.12,9.78c.58,0,1.17,0,1.75,0Z"/><path class="cls-4" d="M179.79,193.13H137.54c-.58,0-1.17,0-1.75,0-5.95-.32-8.63-4.36-6.12-9.78s5.45-10.68,8.26-16q17.81-33.52,35.66-67c1.41-2.66,2.82-5.58,6.38-5.61s5,2.86,6.44,5.53q21,39.45,41.94,79a28.1,28.1,0,0,1,2.59,6.19c1,4-1.08,7-5.18,7.48a66.34,66.34,0,0,1-7.73.26q-19.12,0-38.24,0Zm1-39.61.62.06c.49,1.41,1,2.81,1.48,4.21q2.76,8,5.52,16.05c.57,1.67,1.78,2.78,3.35,1.9.91-.52,1.32-2.17,1.64-3.4.17-.61-.32-1.43-.56-2.13-1.87-5.43-3.69-10.87-5.63-16.28-1.31-3.67-2.71-7.29-.9-11.19,2.89,1.93,3.23,2.7,3.71,6.37a4.19,4.19,0,0,0,1.77,2.57c.39.26,2.19-.55,2.2-.91.09-2.46.73-5.49-.43-7.27-2.15-3.27-5.37-5.86-8.24-8.63-1.75-1.68-5.87-1.47-7.45.3-3.27,3.66-6.48,7.38-9.72,11.07-1.13,1.28-1.56,2.7-.23,4s2.69.5,3.8-.73c1.46-1.61,3-3.16,4.48-4.74l.6.29c0,1.52.42,3.2-.08,4.54-1.3,3.5-3,6.84-4.53,10.26-1.69,3.8-3.38,7.6-5,11.44-.71,1.7-.57,3.42,1.36,4.21,1.77.74,2.79-.39,3.45-1.93.88-2.07,1.8-4.12,2.7-6.18Zm36.49,29.32c-3-4.37-5.66-8.25-8.3-12.15-2.48-3.65-3.25-3.95-8.07-2.88,2.5,4.82,4.95,9.59,7.48,14.31a1.9,1.9,0,0,0,1.41.69C212.13,182.88,214.44,182.84,217.3,182.84Zm-58.19-15.11c-4.08-1-6.88-.17-8.53,3.51A25.07,25.07,0,0,1,148.1,175l-5.39,7.88c2.84,0,5.14,0,7.44,0a1.9,1.9,0,0,0,1.43-.67C154.11,177.41,156.56,172.64,159.11,167.73Zm17.8,14.91h7.52L183.05,168h-6.14Zm24.22.21c-1.61-4.82-3.15-9.2-4.5-13.63-.56-1.81-1.48-2.14-3.19-1.49.15.48.25.87.39,1.25,1.16,3.24,1.83,6.34-1.87,8.53a1.67,1.67,0,0,0-.45,1.27c.05,3.5.67,4.08,4.19,4.07Zm-41.47,0h4.61c4.68,0,4.68,0,5.07-4.15-1.54-2.07-3.32-3.51-3.72-5.27s.52-3.93.89-6.07c-.63.14-1.44.11-1.52.35C163.22,172.59,161.53,177.49,159.66,182.85Zm18.85-58.09a3.85,3.85,0,0,0-3.57,4,3.59,3.59,0,1,0,7.11-.33A3.55,3.55,0,0,0,178.51,124.76Z"/><path class="cls-2" d="M180.81,153.52l-6.06,13.86c-.9,2.06-1.82,4.11-2.7,6.18-.66,1.54-1.68,2.67-3.45,1.93-1.93-.79-2.07-2.51-1.36-4.21,1.59-3.84,3.28-7.64,5-11.44,1.51-3.42,3.23-6.76,4.53-10.26.5-1.34.08-3,.08-4.54l-.6-.29c-1.5,1.58-3,3.13-4.48,4.74-1.11,1.23-2.34,2.15-3.8.73s-.9-2.7.23-4c3.24-3.69,6.45-7.41,9.72-11.07,1.58-1.77,5.7-2,7.45-.3,2.87,2.77,6.09,5.36,8.24,8.63,1.16,1.78.52,4.81.43,7.27,0,.36-1.81,1.17-2.2.91a4.19,4.19,0,0,1-1.77-2.57c-.48-3.67-.82-4.44-3.71-6.37-1.81,3.9-.41,7.52.9,11.19,1.94,5.41,3.76,10.85,5.63,16.28.24.7.73,1.52.56,2.13-.32,1.23-.73,2.88-1.64,3.4-1.57.88-2.78-.23-3.35-1.9q-2.75-8-5.52-16.05c-.49-1.4-1-2.8-1.48-4.21Z"/><path class="cls-2" d="M217.3,182.84c-2.86,0-5.17,0-7.48,0a1.9,1.9,0,0,1-1.41-.69c-2.53-4.72-5-9.49-7.48-14.31,4.82-1.07,5.59-.77,8.07,2.88C211.64,174.59,214.31,178.47,217.3,182.84Z"/><path class="cls-2" d="M159.11,167.73c-2.55,4.91-5,9.68-7.53,14.41a1.9,1.9,0,0,1-1.43.67c-2.3.07-4.6,0-7.44,0L148.1,175a25.07,25.07,0,0,0,2.48-3.72C152.23,167.56,155,166.68,159.11,167.73Z"/><path class="cls-2" d="M176.91,182.64V168h6.14l1.38,14.64Z"/><path class="cls-2" d="M201.13,182.85H195.7c-3.52,0-4.14-.57-4.19-4.07a1.67,1.67,0,0,1,.45-1.27c3.7-2.19,3-5.29,1.87-8.53-.14-.38-.24-.77-.39-1.25,1.71-.65,2.63-.32,3.19,1.49C198,173.65,199.52,178,201.13,182.85Z"/><path class="cls-2" d="M159.66,182.85c1.87-5.36,3.56-10.26,5.33-15.14.08-.24.89-.21,1.52-.35-.37,2.14-1.31,4.26-.89,6.07s2.18,3.2,3.72,5.27c-.39,4.16-.39,4.16-5.07,4.15Z"/><path class="cls-2" d="M178.51,124.76a3.55,3.55,0,0,1,3.54,3.69,3.59,3.59,0,1,1-7.11.33A3.85,3.85,0,0,1,178.51,124.76Z"/><rect class="cls-2" y="336.06" width="360" height="23.94"/><path class="cls-4" d="M235.07,348.29a5.51,5.51,0,0,1,.29-1.84,4,4,0,0,1,.82-1.38,3.65,3.65,0,0,1,1.3-.86,4.87,4.87,0,0,1,1.71-.29,4.11,4.11,0,0,1,2.26.59,3.19,3.19,0,0,1,1.29,1.79l-1.75.61a2.34,2.34,0,0,0-.65-1.1,1.71,1.71,0,0,0-1.19-.39,2,2,0,0,0-1,.22,1.88,1.88,0,0,0-.69.59,2.47,2.47,0,0,0-.42.91,4.59,4.59,0,0,0-.14,1.15,4.51,4.51,0,0,0,.14,1.14,2.63,2.63,0,0,0,.42.91,1.81,1.81,0,0,0,.69.6,2.19,2.19,0,0,0,1,.22,1.77,1.77,0,0,0,1.13-.35,2.23,2.23,0,0,0,.67-1.06l1.72.61A3.53,3.53,0,0,1,241.4,352a3.87,3.87,0,0,1-2.26.62,4.47,4.47,0,0,1-1.67-.3,3.54,3.54,0,0,1-1.29-.85,3.82,3.82,0,0,1-.82-1.37A5.61,5.61,0,0,1,235.07,348.29Z"/><path class="cls-4" d="M252.68,352.49h-1.86l-.67-1.95h-3l-.67,1.95H244.7l3-8.4h1.93Zm-4.06-6.43a2.83,2.83,0,0,1-.08.28c0,.12-.09.26-.13.42l-.17.5c-.06.18-.11.36-.17.52l-.44,1.34h2l-.44-1.34c-.09-.24-.16-.43-.21-.59s-.1-.31-.14-.45-.09-.28-.13-.4a2.83,2.83,0,0,1-.08-.28Z"/><path class="cls-4" d="M258.86,352.49q-.18-.5-.45-1.29l-.56-1.66c-.19-.58-.38-1.14-.56-1.7s-.32-1-.44-1.39h0v6h-1.66v-8.4h2.52c.34,1,.66,2,.94,2.82.17.51.3.92.41,1.24s.21.62.3.91.18.54.25.78.13.4.17.5l.15-.5c.07-.24.16-.51.26-.83s.21-.65.32-1l.36-1.08q.41-1.29.9-2.82h2.51v8.4h-1.66v-6h0l-.28.9c-.12.34-.24.71-.37,1.11s-.27.79-.4,1.19-.27.79-.39,1.15-.23.7-.33,1l-.24.7Z"/><path class="cls-4" d="M269.2,349.54v2.95h-1.79v-8.4h3.19a5.75,5.75,0,0,1,1.37.15,3.18,3.18,0,0,1,1,.48,2.26,2.26,0,0,1,.67.83,2.81,2.81,0,0,1,.24,1.21,2.85,2.85,0,0,1-.25,1.25,2.39,2.39,0,0,1-.68.86,2.7,2.7,0,0,1-1.05.5,5.2,5.2,0,0,1-1.35.17Zm2.89-2.78a1,1,0,0,0-.41-.93,2.46,2.46,0,0,0-1.25-.25H269.2v2.47h1.23a2.16,2.16,0,0,0,1.25-.3A1.13,1.13,0,0,0,272.09,346.76Z"/><path class="cls-4" d="M279.88,352.66a3.34,3.34,0,0,1-2.56-.87,3.39,3.39,0,0,1-.8-2.4v-5.3h1.8v5.31a2,2,0,0,0,.38,1.27,1.64,1.64,0,0,0,2.36,0,2,2,0,0,0,.38-1.27v-5.31h1.8v5.3a3.39,3.39,0,0,1-.8,2.4A3.34,3.34,0,0,1,279.88,352.66Z"/><path class="cls-4" d="M288,346.3a.8.8,0,0,0,.47.77,5.38,5.38,0,0,0,1.49.4,4.79,4.79,0,0,1,2.2.83,2.09,2.09,0,0,1,.7,1.72,2.3,2.3,0,0,1-.25,1.09,2.43,2.43,0,0,1-.7.83,3.21,3.21,0,0,1-1.08.53,4.79,4.79,0,0,1-1.35.19,4.53,4.53,0,0,1-1.43-.21,3.67,3.67,0,0,1-1.08-.56,2.6,2.6,0,0,1-.7-.82,2.24,2.24,0,0,1-.27-1l1.8-.29a1.55,1.55,0,0,0,.47,1,1.71,1.71,0,0,0,1.21.39,2.84,2.84,0,0,0,.6-.06,1.49,1.49,0,0,0,.5-.19,1.1,1.1,0,0,0,.33-.35.94.94,0,0,0,.12-.49.81.81,0,0,0-.39-.72,3.92,3.92,0,0,0-1.38-.41,9.6,9.6,0,0,1-1.22-.27,3.42,3.42,0,0,1-1-.46,2.1,2.1,0,0,1-.65-.74,2.32,2.32,0,0,1-.23-1.07,2.38,2.38,0,0,1,.24-1.1,2.13,2.13,0,0,1,.67-.79,3,3,0,0,1,1-.47,5.12,5.12,0,0,1,2.5,0,3.49,3.49,0,0,1,1,.44,2.63,2.63,0,0,1,.72.73,2.57,2.57,0,0,1,.4,1l-1.82.4a1.47,1.47,0,0,0-.5-.91,1.55,1.55,0,0,0-1.06-.34,1.74,1.74,0,0,0-1,.25A.82.82,0,0,0,288,346.3Z"/><path class="cls-4" d="M300.9,344.09q.45,1.26.84,2.43c.16.46.3.84.4,1.16s.21.62.31.94.21.62.3.92.18.56.25.79h0c.07-.23.15-.5.25-.8l.31-.95c.1-.34.22-.68.34-1s.23-.69.35-1q.39-1.17.84-2.43H307l-3.09,8.4H302l-3.06-8.4Z"/><path class="cls-4" d="M315.71,352.49h-1.86l-.67-1.95h-3l-.67,1.95h-1.77l3-8.4h1.93Zm-4-6.43-.09.28-.13.42-.16.5c-.06.18-.12.36-.18.52-.13.42-.28.86-.44,1.34h2l-.45-1.34c-.08-.24-.15-.43-.21-.59s-.1-.31-.14-.45-.09-.28-.13-.4l-.08-.28Z"/><path class="cls-4" d="M318.2,344.09H320V351h3.67v1.5H318.2Z"/><path class="cls-4" d="M329.32,352.66a3.34,3.34,0,0,1-2.56-.87,3.39,3.39,0,0,1-.8-2.4v-5.3h1.8v5.31a2,2,0,0,0,.38,1.27,1.64,1.64,0,0,0,2.36,0,2,2,0,0,0,.38-1.27v-5.31h1.8v5.3a3.39,3.39,0,0,1-.8,2.4A3.34,3.34,0,0,1,329.32,352.66Z"/><path class="cls-4" d="M335.8,352.49v-8.4h5.72v1.49h-3.95v1.84h3.68v1.49h-3.68V351h4v1.49Z"/><path class="cls-4" d="M346,346.3a.8.8,0,0,0,.47.77,5.27,5.27,0,0,0,1.49.4,4.79,4.79,0,0,1,2.2.83,2.09,2.09,0,0,1,.7,1.72,2.3,2.3,0,0,1-.25,1.09,2.43,2.43,0,0,1-.7.83,3.3,3.3,0,0,1-1.08.53,4.86,4.86,0,0,1-1.36.19,4.51,4.51,0,0,1-1.42-.21,3.44,3.44,0,0,1-1.08-.56,2.6,2.6,0,0,1-.7-.82,2.11,2.11,0,0,1-.27-1l1.8-.29a1.5,1.5,0,0,0,.47,1,1.7,1.7,0,0,0,1.2.39,2.93,2.93,0,0,0,.61-.06,1.43,1.43,0,0,0,.49-.19,1.1,1.1,0,0,0,.33-.35.94.94,0,0,0,.12-.49.81.81,0,0,0-.39-.72,3.85,3.85,0,0,0-1.37-.41,9.6,9.6,0,0,1-1.22-.27,3.29,3.29,0,0,1-1-.46,2,2,0,0,1-.65-.74,2.2,2.2,0,0,1-.23-1.07,2.38,2.38,0,0,1,.24-1.1,2.13,2.13,0,0,1,.67-.79,3,3,0,0,1,1-.47,4.72,4.72,0,0,1,1.28-.16,4.66,4.66,0,0,1,1.21.15,3.37,3.37,0,0,1,1,.44,2.54,2.54,0,0,1,.73.73,2.74,2.74,0,0,1,.4,1l-1.83.4a1.41,1.41,0,0,0-.49-.91,1.56,1.56,0,0,0-1.07-.34,1.72,1.72,0,0,0-1,.25A.82.82,0,0,0,346,346.3Z"/></g></svg>