<svg xmlns="http://www.w3.org/2000/svg" viewBox="0 0 360 360"><defs><style>.cls-1{fill:#fff;}.cls-2{fill:none;stroke:#fff;stroke-miterlimit:10;stroke-width:3px;}</style></defs><g id="BACKGROUND"><rect width="360" height="360"/></g><g id="LINE_ONE" data-name="LINE ONE"><path class="cls-1" d="M112.08,234.16h5.22a8.13,8.13,0,0,1,2.88.47,5.57,5.57,0,0,1,2.16,1.36,5.79,5.79,0,0,1,1.35,2.19,9.68,9.68,0,0,1,0,6,6,6,0,0,1-1.35,2.19,5.82,5.82,0,0,1-2.16,1.36,8.36,8.36,0,0,1-2.88.47h-5.22Zm9,7a6.65,6.65,0,0,0-.23-1.85,3.83,3.83,0,0,0-.7-1.43,3,3,0,0,0-1.19-.92,4.1,4.1,0,0,0-1.72-.32H115.1v9h2.12a4.26,4.26,0,0,0,1.72-.32,3.11,3.11,0,0,0,1.19-.92,3.9,3.9,0,0,0,.7-1.43A6.7,6.7,0,0,0,121.06,241.16Z"/><path class="cls-1" d="M134.38,248.44a5.59,5.59,0,0,1-4.26-1.44,5.67,5.67,0,0,1-1.34-4v-8.84h3V243a3.42,3.42,0,0,0,.64,2.11,2.73,2.73,0,0,0,3.92,0A3.35,3.35,0,0,0,137,243v-8.86h3V243a5.63,5.63,0,0,1-1.34,4A5.56,5.56,0,0,1,134.38,248.44Z"/><path class="cls-1" d="M155.66,238.42a3.94,3.94,0,0,1-2.66,4l3.22,5.74h-3.3l-2.9-5.3h-1.86v5.3h-3v-14h5.12a8.84,8.84,0,0,1,2.21.25,4.53,4.53,0,0,1,1.69.77,3.32,3.32,0,0,1,1.08,1.32A4.33,4.33,0,0,1,155.66,238.42Zm-3.08,0a1.49,1.49,0,0,0-.65-1.41,3.91,3.91,0,0,0-2-.39h-1.8v3.78H150a3.48,3.48,0,0,0,2-.45A1.71,1.71,0,0,0,152.58,238.44Z"/><path class="cls-1" d="M172.86,248.16h-3.1l-1.12-3.24h-5l-1.12,3.24h-2.94l5-14h3.22Zm-6.76-10.72a4.69,4.69,0,0,1-.14.47l-.22.7q-.12.39-.27.84c-.1.3-.19.59-.29.87-.22.69-.47,1.43-.74,2.22h3.38l-.74-2.22-.35-1q-.12-.39-.24-.75c-.07-.24-.14-.47-.21-.67l-.14-.47Z"/><path class="cls-1" d="M177,234.16h6.08a5,5,0,0,1,1.75.28,3.56,3.56,0,0,1,1.3.77,3.16,3.16,0,0,1,.81,1.16,3.64,3.64,0,0,1,.28,1.45A3.41,3.41,0,0,1,187,239a3,3,0,0,1-.47.87,3,3,0,0,1-.66.62,3.71,3.71,0,0,1-.77.39,3.24,3.24,0,0,1,.93.26,2.73,2.73,0,0,1,.87.57,2.55,2.55,0,0,1,.65.93,3.31,3.31,0,0,1,.25,1.38,4.06,4.06,0,0,1-.34,1.67,3.88,3.88,0,0,1-.94,1.32,4.71,4.71,0,0,1-1.42.87,4.93,4.93,0,0,1-1.8.32H177Zm2.92,2.44v3.24H182a2.83,2.83,0,0,0,1.6-.36,1.88,1.88,0,0,0,.07-2.52,2.44,2.44,0,0,0-1.51-.36Zm0,9.12h2.4a3,3,0,0,0,1.93-.45,1.66,1.66,0,0,0,.51-1.31,1.42,1.42,0,0,0-.62-1.37,3.79,3.79,0,0,0-1.86-.35h-2.36Z"/><path class="cls-1" d="M192.5,234.16h3v14h-3Z"/><path class="cls-1" d="M200.78,234.16h3v11.5h6.12v2.5h-9.12Z"/><path class="cls-1" d="M214.1,234.16h3v14h-3Z"/><path class="cls-1" d="M221.32,234.16h11.1v2.5h-4v11.5h-3v-11.5h-4Z"/><path class="cls-1" d="M240.88,242.3l-5.3-8.14H239l3.42,5.36,3.4-5.36h3.34l-5.3,8.14v5.86h-3Z"/></g><g id="LINE_TWO" data-name="LINE TWO"><polyline class="cls-2" points="243.72 132.41 132.58 177.27 116.28 172.88"/><polyline class="cls-2" points="243.72 111.36 132.58 156.22 116.28 151.84"/><line class="cls-2" x1="169.63" y1="120.41" x2="153.33" y2="116.03"/><line class="cls-2" x1="206.28" y1="105.66" x2="189.98" y2="101.28"/><line class="cls-2" x1="132.58" y1="177.27" x2="132.58" y2="198.32"/><line class="cls-2" x1="169.63" y1="161.71" x2="169.63" y2="182.76"/><line class="cls-2" x1="206.67" y1="148.19" x2="206.67" y2="169.24"/><polyline class="cls-2" points="116.28 193.93 132.58 198.32 243.72 153.46 243.72 90.32 132.58 135.17 116.28 130.79"/><line class="cls-2" x1="132.58" y1="156.01" x2="132.58" y2="177.05"/><line class="cls-2" x1="150.18" y1="149.15" x2="150.18" y2="170.2"/><line class="cls-2" x1="226.12" y1="118.22" x2="226.12" y2="139.27"/><line class="cls-2" x1="188.15" y1="133.78" x2="188.15" y2="154.83"/><line class="cls-2" x1="132.58" y1="134.74" x2="132.58" y2="155.79"/><line class="cls-2" x1="169.63" y1="120.41" x2="169.63" y2="141.46"/><line class="cls-2" x1="206.67" y1="105.66" x2="206.67" y2="126.71"/></g></svg>