<svg xmlns="http://www.w3.org/2000/svg" viewBox="0 0 360 360"><defs><style>.cls-1{fill:#fff;}</style></defs><g id="BACKGROUND"><rect x="-1" width="360" height="360"/></g><g id="LINE_ONE" data-name="LINE ONE"><path class="cls-1" d="M130.87,241.16a9.12,9.12,0,0,1,.48-3.07,6.52,6.52,0,0,1,1.37-2.3,5.73,5.73,0,0,1,2.16-1.42,7.82,7.82,0,0,1,2.85-.49,6.75,6.75,0,0,1,3.76,1,5.32,5.32,0,0,1,2.16,3l-2.92,1a3.92,3.92,0,0,0-1.08-1.83,2.82,2.82,0,0,0-2-.65,3.51,3.51,0,0,0-1.62.36,3.26,3.26,0,0,0-1.16,1,4.28,4.28,0,0,0-.69,1.51,8.09,8.09,0,0,0,0,3.83,4.45,4.45,0,0,0,.69,1.51,3.29,3.29,0,0,0,1.16,1,3.54,3.54,0,0,0,1.64.36,3,3,0,0,0,1.89-.58,3.57,3.57,0,0,0,1.11-1.76l2.88,1a6.07,6.07,0,0,1-2.16,2.8,6.42,6.42,0,0,1-3.76,1,7.7,7.7,0,0,1-2.79-.49,5.94,5.94,0,0,1-2.14-1.42,6.39,6.39,0,0,1-1.37-2.29A9.26,9.26,0,0,1,130.87,241.16Z"/><path class="cls-1" d="M160.21,248.16h-3.1L156,244.92h-5l-1.12,3.24h-2.94l5-14h3.22Zm-6.76-10.72c0,.1-.07.26-.14.47s-.14.44-.22.7-.17.54-.27.84l-.29.87c-.23.69-.47,1.43-.74,2.22h3.38c-.27-.79-.51-1.53-.74-2.22-.15-.4-.26-.73-.35-1s-.17-.51-.24-.75-.14-.47-.21-.67-.11-.37-.14-.47Z"/><path class="cls-1" d="M170.51,248.16q-.3-.82-.75-2.16t-.93-2.76q-.48-1.44-.93-2.82c-.3-.92-.54-1.7-.73-2.32h-.06v10.06h-2.76v-14h4.2q.85,2.55,1.56,4.7c.28.85.51,1.54.69,2.06s.35,1,.5,1.52.29.91.42,1.3.22.66.27.84c0-.18.14-.46.26-.84s.26-.85.43-1.37l.54-1.7c.19-.61.39-1.21.59-1.81q.67-2.15,1.5-4.7h4.18v14h-2.76V238.1h-.06l-.48,1.49-.61,1.85-.67,2c-.23.68-.44,1.32-.64,1.93l-.55,1.65c-.17.49-.3.88-.41,1.16Z"/><path class="cls-1" d="M187.75,243.24v4.92h-3v-14h5.32a8.93,8.93,0,0,1,2.28.26,5,5,0,0,1,1.74.79,3.81,3.81,0,0,1,1.12,1.39,4.61,4.61,0,0,1,.4,2,4.87,4.87,0,0,1-.41,2.07,3.85,3.85,0,0,1-1.14,1.44,4.81,4.81,0,0,1-1.75.83,8.33,8.33,0,0,1-2.24.28Zm4.82-4.62a1.68,1.68,0,0,0-.69-1.56,4.11,4.11,0,0,0-2.09-.42h-2v4.11h2a3.52,3.52,0,0,0,2.09-.5A1.86,1.86,0,0,0,192.57,238.62Z"/><path class="cls-1" d="M205.55,248.44a5.56,5.56,0,0,1-4.26-1.44,5.67,5.67,0,0,1-1.34-4v-8.84h3V243a3.35,3.35,0,0,0,.64,2.11,2.73,2.73,0,0,0,3.92,0,3.35,3.35,0,0,0,.64-2.11v-8.86h3V243a5.67,5.67,0,0,1-1.34,4A5.56,5.56,0,0,1,205.55,248.44Z"/><path class="cls-1" d="M219.07,237.84a1.34,1.34,0,0,0,.78,1.29,9.16,9.16,0,0,0,2.48.66,8.09,8.09,0,0,1,3.67,1.38,3.51,3.51,0,0,1,1.17,2.87,4,4,0,0,1-.42,1.83,4.07,4.07,0,0,1-1.17,1.38,5.65,5.65,0,0,1-1.79.88,8.12,8.12,0,0,1-2.26.31,7.68,7.68,0,0,1-2.38-.35,6.1,6.1,0,0,1-1.8-.93,4.33,4.33,0,0,1-1.16-1.37,3.73,3.73,0,0,1-.46-1.62l3-.47a2.58,2.58,0,0,0,.79,1.67,2.84,2.84,0,0,0,2,.65,5.32,5.32,0,0,0,1-.1,2.52,2.52,0,0,0,.82-.33,1.86,1.86,0,0,0,.55-.57,1.63,1.63,0,0,0,.2-.82,1.34,1.34,0,0,0-.65-1.2,6.12,6.12,0,0,0-2.29-.68,18.1,18.1,0,0,1-2-.46,5.72,5.72,0,0,1-1.63-.77,3.6,3.6,0,0,1-1.08-1.22,3.79,3.79,0,0,1-.39-1.79,3.9,3.9,0,0,1,.4-1.84,3.75,3.75,0,0,1,1.12-1.32,5,5,0,0,1,1.7-.78,8,8,0,0,1,2.14-.26,7.71,7.71,0,0,1,2,.25,5.28,5.28,0,0,1,1.67.74,4.23,4.23,0,0,1,1.21,1.21,4.44,4.44,0,0,1,.66,1.63l-3,.67a2.45,2.45,0,0,0-.82-1.52,2.62,2.62,0,0,0-1.78-.57,2.86,2.86,0,0,0-1.69.42A1.36,1.36,0,0,0,219.07,237.84Z"/></g><g id="LINE_TWO" data-name="LINE TWO"><path class="cls-1" d="M110.32,258.94a9.16,9.16,0,0,1,.48-3.07,6.33,6.33,0,0,1,1.37-2.29,5.88,5.88,0,0,1,2.16-1.43,8,8,0,0,1,2.85-.49,6.83,6.83,0,0,1,3.76,1,5.39,5.39,0,0,1,2.16,3l-2.92,1a4,4,0,0,0-1.08-1.83,2.86,2.86,0,0,0-2-.65,3.48,3.48,0,0,0-1.62.36,3.18,3.18,0,0,0-1.16,1,4.37,4.37,0,0,0-.69,1.51,7.32,7.32,0,0,0-.23,1.92,7.14,7.14,0,0,0,.23,1.91,4.37,4.37,0,0,0,.69,1.51,3.12,3.12,0,0,0,1.16,1,3.54,3.54,0,0,0,1.64.36,2.94,2.94,0,0,0,1.89-.58,3.48,3.48,0,0,0,1.11-1.76l2.88,1a6,6,0,0,1-2.16,2.8,6.42,6.42,0,0,1-3.76,1,7.5,7.5,0,0,1-2.79-.49,5.74,5.74,0,0,1-2.14-1.42A6.17,6.17,0,0,1,110.8,262,9.18,9.18,0,0,1,110.32,258.94Z"/><path class="cls-1" d="M127.5,251.94h3v5.54h5.3v-5.54h3v14h-3V260h-5.3v5.94h-3Z"/><path class="cls-1" d="M156.24,265.94h-3.1L152,262.7h-5l-1.12,3.24h-2.94l5-14h3.22Zm-6.76-10.72-.14.47c-.07.21-.14.44-.22.7s-.17.54-.27.84l-.29.87c-.23.7-.48,1.44-.74,2.22h3.38c-.27-.78-.52-1.52-.74-2.22-.15-.4-.27-.73-.35-1s-.17-.51-.24-.75-.15-.46-.21-.67-.11-.36-.14-.47Z"/><path class="cls-1" d="M170.86,256.2a3.94,3.94,0,0,1-2.66,4l3.22,5.74h-3.3l-2.9-5.3h-1.86v5.3h-3v-14h5.12a8.89,8.89,0,0,1,2.21.25,5,5,0,0,1,1.69.77,3.56,3.56,0,0,1,1.08,1.32A4.5,4.5,0,0,1,170.86,256.2Zm-3.08,0a1.51,1.51,0,0,0-.65-1.41,3.93,3.93,0,0,0-2-.39h-1.8v3.78h1.8a3.5,3.5,0,0,0,2-.45A1.74,1.74,0,0,0,167.78,256.22Z"/><path class="cls-1" d="M188.06,265.94H185l-1.12-3.24h-5l-1.12,3.24h-2.94l5-14H183Zm-6.76-10.72-.14.47c-.07.21-.14.44-.22.7s-.17.54-.27.84l-.29.87c-.23.7-.48,1.44-.74,2.22H183c-.27-.78-.52-1.52-.74-2.22-.15-.4-.27-.73-.35-1s-.17-.51-.24-.75-.14-.46-.21-.67a4,4,0,0,1-.14-.47Z"/><path class="cls-1" d="M190.92,258.94a9.16,9.16,0,0,1,.48-3.07,6.33,6.33,0,0,1,1.37-2.29,5.88,5.88,0,0,1,2.16-1.43,8,8,0,0,1,2.85-.49,6.85,6.85,0,0,1,3.76,1,5.39,5.39,0,0,1,2.16,3l-2.92,1a4,4,0,0,0-1.08-1.83,2.86,2.86,0,0,0-2-.65,3.46,3.46,0,0,0-1.62.36,3.18,3.18,0,0,0-1.16,1,4.37,4.37,0,0,0-.69,1.51,7.32,7.32,0,0,0-.23,1.92,7.14,7.14,0,0,0,.23,1.91,4.37,4.37,0,0,0,.69,1.51,3.12,3.12,0,0,0,1.16,1,3.51,3.51,0,0,0,1.64.36,2.94,2.94,0,0,0,1.89-.58,3.62,3.62,0,0,0,1.11-1.76l2.88,1a6,6,0,0,1-2.16,2.8,6.44,6.44,0,0,1-3.76,1,7.5,7.5,0,0,1-2.79-.49,5.74,5.74,0,0,1-2.14-1.42A6.17,6.17,0,0,1,191.4,262,9.18,9.18,0,0,1,190.92,258.94Z"/><path class="cls-1" d="M207,251.94h11.1v2.5h-4v11.5h-3v-11.5h-4Z"/><path class="cls-1" d="M222.36,265.94v-14h9.54v2.48h-6.58v3.08h6.12V260h-6.12v3.48H232v2.48Z"/><path class="cls-1" d="M247.12,256.2a3.94,3.94,0,0,1-2.66,4l3.22,5.74h-3.3l-2.9-5.3h-1.86v5.3h-3v-14h5.12a8.89,8.89,0,0,1,2.21.25,5,5,0,0,1,1.69.77,3.66,3.66,0,0,1,1.08,1.32A4.5,4.5,0,0,1,247.12,256.2Zm-3.08,0a1.51,1.51,0,0,0-.65-1.41,3.93,3.93,0,0,0-2-.39h-1.8v3.78h1.8a3.5,3.5,0,0,0,2-.45A1.74,1.74,0,0,0,244,256.22Z"/></g><g id="ICON"><polygon class="cls-1" points="232.59 199.12 131.87 199.12 131.87 122.07 182.23 89.28 232.59 122.07 232.59 199.12"/></g></svg>