<svg xmlns="http://www.w3.org/2000/svg" viewBox="0 0 360 360"><defs><style>.cls-1{fill:#fff;}.cls-2{fill:none;stroke:#fff;stroke-miterlimit:10;stroke-width:5px;}</style></defs><g id="BACKGROUND"><rect x="-1" width="360" height="360"/></g><g id="LINE_ONE" data-name="LINE ONE"><path class="cls-1" d="M143.46,241.16a9.12,9.12,0,0,1,.48-3.07,6.39,6.39,0,0,1,1.37-2.29,5.64,5.64,0,0,1,2.16-1.43,7.82,7.82,0,0,1,2.85-.49,6.75,6.75,0,0,1,3.76,1,5.32,5.32,0,0,1,2.16,3l-2.92,1a3.92,3.92,0,0,0-1.08-1.83,2.82,2.82,0,0,0-2-.65,3.51,3.51,0,0,0-1.62.36,3.26,3.26,0,0,0-1.16,1,4.28,4.28,0,0,0-.69,1.51,8.09,8.09,0,0,0,0,3.83,4.45,4.45,0,0,0,.69,1.51,3.29,3.29,0,0,0,1.16,1,3.54,3.54,0,0,0,1.64.36,3,3,0,0,0,1.89-.58,3.57,3.57,0,0,0,1.11-1.76l2.88,1a6.07,6.07,0,0,1-2.16,2.8,6.42,6.42,0,0,1-3.76,1,7.7,7.7,0,0,1-2.79-.49,5.94,5.94,0,0,1-2.14-1.42,6.39,6.39,0,0,1-1.37-2.29A9.26,9.26,0,0,1,143.46,241.16Z"/><path class="cls-1" d="M160.06,241.16a8.79,8.79,0,0,1,.49-3,6.55,6.55,0,0,1,1.38-2.29,5.82,5.82,0,0,1,2.15-1.44,8.09,8.09,0,0,1,5.6,0,5.82,5.82,0,0,1,2.15,1.44,6.55,6.55,0,0,1,1.38,2.29,9.74,9.74,0,0,1,0,6.1,6.64,6.64,0,0,1-1.38,2.29,6.07,6.07,0,0,1-2.15,1.44,8.09,8.09,0,0,1-5.6,0,6.07,6.07,0,0,1-2.15-1.44,6.64,6.64,0,0,1-1.38-2.29A8.83,8.83,0,0,1,160.06,241.16Zm3.1,0a8,8,0,0,0,.23,2,4.33,4.33,0,0,0,.69,1.52,3.24,3.24,0,0,0,1.16,1,4,4,0,0,0,3.28,0,3.24,3.24,0,0,0,1.16-1,4.33,4.33,0,0,0,.69-1.52,8,8,0,0,0,.23-2,7.9,7.9,0,0,0-.23-1.95,4.25,4.25,0,0,0-.69-1.52,3.14,3.14,0,0,0-1.16-1,4,4,0,0,0-3.28,0,3.14,3.14,0,0,0-1.16,1,4.25,4.25,0,0,0-.69,1.52A7.9,7.9,0,0,0,163.16,241.16Z"/><path class="cls-1" d="M180,234.16c.49,1.4,1,2.75,1.4,4.06q.4,1.14.66,1.92c.17.52.35,1,.52,1.57s.34,1,.5,1.53.3.93.42,1.32h0l.42-1.33.51-1.59c.18-.56.37-1.14.57-1.72s.39-1.16.58-1.7c.44-1.31.91-2.66,1.4-4.06h3.08l-5.16,14h-3.06l-5.1-14Z"/><path class="cls-1" d="M194.18,234.16h3v14h-3Z"/><path class="cls-1" d="M202.46,234.16h5.22a8.13,8.13,0,0,1,2.88.47,5.73,5.73,0,0,1,2.16,1.36,6.05,6.05,0,0,1,1.35,2.19,9.68,9.68,0,0,1,0,6,6.23,6.23,0,0,1-1.35,2.19,6,6,0,0,1-2.16,1.36,8.36,8.36,0,0,1-2.88.47h-5.22Zm9,7a7,7,0,0,0-.23-1.85,4.15,4.15,0,0,0-.7-1.43,3,3,0,0,0-1.19-.92,4.13,4.13,0,0,0-1.72-.32h-2.12v9h2.12a4.29,4.29,0,0,0,1.72-.32,3.11,3.11,0,0,0,1.19-.92,4.24,4.24,0,0,0,.7-1.43A7.1,7.1,0,0,0,211.44,241.16Z"/></g><g id="LINE_TWO" data-name="LINE TWO"><path class="cls-1" d="M79.12,258.94a9.43,9.43,0,0,1,.47-3.07A6.72,6.72,0,0,1,81,253.58a6,6,0,0,1,2.16-1.43,8.05,8.05,0,0,1,2.86-.49,6.85,6.85,0,0,1,3.76,1,5.39,5.39,0,0,1,2.16,3l-2.92,1a4.11,4.11,0,0,0-1.08-1.83,2.88,2.88,0,0,0-2-.65,3.53,3.53,0,0,0-1.63.36,3.49,3.49,0,0,0-1.16,1,4.4,4.4,0,0,0-.68,1.5,7.32,7.32,0,0,0-.24,1.92,7.13,7.13,0,0,0,.24,1.91,4.55,4.55,0,0,0,.68,1.51,3.28,3.28,0,0,0,1.16,1,3.58,3.58,0,0,0,1.65.37,2.94,2.94,0,0,0,1.89-.59,3.63,3.63,0,0,0,1.11-1.75l2.88,1a6,6,0,0,1-2.16,2.8,6.37,6.37,0,0,1-3.76,1,7.49,7.49,0,0,1-2.79-.5A5.86,5.86,0,0,1,81,264.31,6.44,6.44,0,0,1,79.59,262,9.44,9.44,0,0,1,79.12,258.94Z"/><path class="cls-1" d="M95.71,258.94a8.83,8.83,0,0,1,.5-3.05,6.47,6.47,0,0,1,1.37-2.29,6.16,6.16,0,0,1,2.15-1.44,7.68,7.68,0,0,1,2.81-.5,7.53,7.53,0,0,1,2.79.5,6.07,6.07,0,0,1,2.15,1.44,6.35,6.35,0,0,1,1.38,2.29,9.74,9.74,0,0,1,0,6.1,6.27,6.27,0,0,1-1.38,2.29,6,6,0,0,1-2.15,1.45,7.53,7.53,0,0,1-2.79.5,7.68,7.68,0,0,1-2.81-.5,6.05,6.05,0,0,1-2.15-1.45A6.39,6.39,0,0,1,96.21,262,8.75,8.75,0,0,1,95.71,258.94Zm3.1,0a7.9,7.9,0,0,0,.23,1.95,4.63,4.63,0,0,0,.69,1.52,3.22,3.22,0,0,0,1.16,1,3.58,3.58,0,0,0,1.65.35,3.5,3.5,0,0,0,1.63-.35,3.06,3.06,0,0,0,1.16-1,4.25,4.25,0,0,0,.69-1.52,7.45,7.45,0,0,0,.23-1.95A7.56,7.56,0,0,0,106,257a4.2,4.2,0,0,0-.69-1.51,3.18,3.18,0,0,0-1.16-1,3.62,3.62,0,0,0-1.63-.35,3.71,3.71,0,0,0-1.65.35,3.35,3.35,0,0,0-1.16,1A4.57,4.57,0,0,0,99,257,8,8,0,0,0,98.81,258.94Z"/><path class="cls-1" d="M114.05,251.94h3.12l2.32,3.76,1.08,1.75.84,1.37.8,1.29.64,1h.06v-9.2h2.84v14h-3.12c-.8-1.29-1.56-2.52-2.28-3.7-.42-.69-.78-1.26-1.07-1.72l-.85-1.38-.81-1.33-.67-1.07h-.06v9.2h-2.84Z"/><path class="cls-1" d="M133.75,255.62a1.33,1.33,0,0,0,.78,1.29,8.75,8.75,0,0,0,2.48.67,7.86,7.86,0,0,1,3.67,1.38,3.49,3.49,0,0,1,1.17,2.86,3.92,3.92,0,0,1-.42,1.83,4.07,4.07,0,0,1-1.17,1.38,5.35,5.35,0,0,1-1.79.88,7.71,7.71,0,0,1-2.26.32,7.39,7.39,0,0,1-2.38-.36,5.88,5.88,0,0,1-1.8-.93,4.3,4.3,0,0,1-1.16-1.36,3.81,3.81,0,0,1-.46-1.62l3-.48a2.56,2.56,0,0,0,.79,1.67,2.8,2.8,0,0,0,2,.66,4.6,4.6,0,0,0,1-.11,2.08,2.08,0,0,0,.82-.33,1.63,1.63,0,0,0,.55-.56,1.55,1.55,0,0,0,.2-.83,1.33,1.33,0,0,0-.65-1.2,6.45,6.45,0,0,0-2.29-.68,16.15,16.15,0,0,1-2-.46,5.34,5.34,0,0,1-1.63-.77,3.42,3.42,0,0,1-1.08-1.22,3.73,3.73,0,0,1-.39-1.79,4.09,4.09,0,0,1,.4-1.84,3.81,3.81,0,0,1,1.12-1.31,5,5,0,0,1,1.7-.78,8.45,8.45,0,0,1,4.16,0,5.65,5.65,0,0,1,1.67.74,4.49,4.49,0,0,1,1.21,1.21,4.56,4.56,0,0,1,.66,1.64l-3,.66a2.43,2.43,0,0,0-.82-1.52,2.67,2.67,0,0,0-1.78-.56,2.86,2.86,0,0,0-1.69.42A1.36,1.36,0,0,0,133.75,255.62Z"/><path class="cls-1" d="M146.51,251.94h3v14h-3Z"/><path class="cls-1" d="M154.79,251.94H160a8.36,8.36,0,0,1,2.88.47,5.82,5.82,0,0,1,2.16,1.36A6,6,0,0,1,166.4,256a9.71,9.71,0,0,1,0,6,5.83,5.83,0,0,1-1.35,2.18,5.71,5.71,0,0,1-2.16,1.37,8.37,8.37,0,0,1-2.88.46h-5.22Zm9,7a6.62,6.62,0,0,0-.23-1.84,3.87,3.87,0,0,0-.7-1.44,3.21,3.21,0,0,0-1.19-.92,4.26,4.26,0,0,0-1.72-.31h-2.12v9h2.12a4.1,4.1,0,0,0,1.72-.32,3.08,3.08,0,0,0,1.19-.91,4,4,0,0,0,.7-1.44A6.65,6.65,0,0,0,163.77,258.94Z"/><path class="cls-1" d="M171.57,265.94v-14h9.54v2.49h-6.58v3.07h6.12V260h-6.12v3.48h6.68v2.48Z"/><path class="cls-1" d="M196.33,256.2a4.17,4.17,0,0,1-.71,2.54,4.08,4.08,0,0,1-2,1.46l3.22,5.74h-3.3l-2.9-5.3h-1.86v5.3h-3v-14H191a9.33,9.33,0,0,1,2.21.25,4.87,4.87,0,0,1,1.69.77,3.46,3.46,0,0,1,1.08,1.32A4.39,4.39,0,0,1,196.33,256.2Zm-3.08,0a1.5,1.5,0,0,0-.65-1.42,4,4,0,0,0-2-.38h-1.8v3.77h1.8a3.4,3.4,0,0,0,2-.45A1.7,1.7,0,0,0,193.25,256.23Z"/><path class="cls-1" d="M213.53,265.94h-3.1l-1.12-3.24h-5l-1.12,3.24h-2.94l5-14h3.22Zm-6.76-10.71a4,4,0,0,1-.14.46c-.06.21-.14.45-.22.7s-.17.54-.27.84-.19.59-.29.87c-.22.7-.47,1.44-.74,2.22h3.38c-.26-.78-.51-1.52-.74-2.22l-.35-1q-.12-.39-.24-.75c-.07-.24-.14-.46-.21-.67l-.14-.46Z"/><path class="cls-1" d="M215,251.94h11.1v2.5h-4v11.5h-3v-11.5h-4Z"/><path class="cls-1" d="M230.33,251.94h3v14h-3Z"/><path class="cls-1" d="M238,258.94a9.08,9.08,0,0,1,.49-3.05,6.64,6.64,0,0,1,1.38-2.29,6.16,6.16,0,0,1,2.15-1.44,8.09,8.09,0,0,1,5.6,0,6.07,6.07,0,0,1,2.15,1.44,6.35,6.35,0,0,1,1.38,2.29,9.74,9.74,0,0,1,0,6.1,6.27,6.27,0,0,1-1.38,2.29,6,6,0,0,1-2.15,1.45,8.09,8.09,0,0,1-5.6,0,6.05,6.05,0,0,1-2.15-1.45,6.55,6.55,0,0,1-1.38-2.29A9,9,0,0,1,238,258.94Zm3.1,0a7.9,7.9,0,0,0,.23,1.95,4.63,4.63,0,0,0,.69,1.52,3.22,3.22,0,0,0,1.16,1,3.57,3.57,0,0,0,1.64.35,3.51,3.51,0,0,0,1.64-.35,3.06,3.06,0,0,0,1.16-1,4.25,4.25,0,0,0,.69-1.52,7.45,7.45,0,0,0,.23-1.95,7.56,7.56,0,0,0-.23-1.95,4.2,4.2,0,0,0-.69-1.51,3.18,3.18,0,0,0-1.16-1,3.64,3.64,0,0,0-1.64-.35,3.7,3.7,0,0,0-1.64.35,3.35,3.35,0,0,0-1.16,1,4.57,4.57,0,0,0-.69,1.51A8,8,0,0,0,241.13,258.94Z"/><path class="cls-1" d="M256.37,251.94h3.12l2.32,3.76,1.08,1.75.84,1.37.8,1.29.64,1h.06v-9.2h2.84v14H265c-.8-1.29-1.56-2.52-2.28-3.7-.42-.69-.78-1.26-1.07-1.72l-.85-1.38-.81-1.33-.67-1.07h-.06v9.2h-2.84Z"/><path class="cls-1" d="M276.07,255.62a1.33,1.33,0,0,0,.78,1.29,8.75,8.75,0,0,0,2.48.67A7.86,7.86,0,0,1,283,259a3.49,3.49,0,0,1,1.17,2.86,3.92,3.92,0,0,1-.42,1.83,4.07,4.07,0,0,1-1.17,1.38,5.35,5.35,0,0,1-1.79.88,7.71,7.71,0,0,1-2.26.32,7.39,7.39,0,0,1-2.38-.36,5.88,5.88,0,0,1-1.8-.93,4.3,4.3,0,0,1-1.16-1.36,3.81,3.81,0,0,1-.46-1.62l3-.48a2.56,2.56,0,0,0,.79,1.67,2.8,2.8,0,0,0,2,.66,4.6,4.6,0,0,0,1-.11,2.08,2.08,0,0,0,.82-.33,1.63,1.63,0,0,0,.55-.56,1.55,1.55,0,0,0,.2-.83,1.33,1.33,0,0,0-.65-1.2,6.45,6.45,0,0,0-2.29-.68,16.15,16.15,0,0,1-2-.46,5.34,5.34,0,0,1-1.63-.77,3.42,3.42,0,0,1-1.08-1.22,3.73,3.73,0,0,1-.39-1.79,4.09,4.09,0,0,1,.4-1.84,3.81,3.81,0,0,1,1.12-1.31,5,5,0,0,1,1.7-.78,8.45,8.45,0,0,1,4.16,0,5.65,5.65,0,0,1,1.67.74,4.49,4.49,0,0,1,1.21,1.21,4.56,4.56,0,0,1,.66,1.64l-3,.66a2.43,2.43,0,0,0-.82-1.52,2.67,2.67,0,0,0-1.78-.56,2.86,2.86,0,0,0-1.69.42A1.36,1.36,0,0,0,276.07,255.62Z"/></g><g id="ICON"><path class="cls-1" d="M113.6,138.6H75.67c0-.6,0-1.17.09-1.75a18.91,18.91,0,0,1,4.5-10.57,19.1,19.1,0,0,1,5.8-4.57.45.45,0,0,1,.6.09,11.69,11.69,0,0,0,9.12,3,11.38,11.38,0,0,0,6.73-2.93.65.65,0,0,1,.89-.11,18.9,18.9,0,0,1,10,13.83c.15.87.17,1.77.24,2.66C113.62,138.38,113.6,138.48,113.6,138.6Z"/><path class="cls-1" d="M85.34,113a9.31,9.31,0,1,1,9.33,9.32A9.33,9.33,0,0,1,85.34,113Z"/><path class="cls-1" d="M151.54,165.47H113.61c0-.6,0-1.18.1-1.75a18.77,18.77,0,0,1,4.5-10.57,19.14,19.14,0,0,1,5.8-4.58.45.45,0,0,1,.6.09,11.64,11.64,0,0,0,9.12,3,11.43,11.43,0,0,0,6.72-2.92.65.65,0,0,1,.89-.11,18.86,18.86,0,0,1,10,13.82c.16.88.17,1.77.25,2.66C151.56,165.24,151.55,165.34,151.54,165.47Z"/><path class="cls-1" d="M123.29,139.83a9.31,9.31,0,1,1,9.33,9.31A9.3,9.3,0,0,1,123.29,139.83Z"/><path class="cls-1" d="M113.6,186.54H75.68c0-.6,0-1.17.09-1.75a18.77,18.77,0,0,1,4.5-10.57,19.1,19.1,0,0,1,5.8-4.57.45.45,0,0,1,.6.09,11.68,11.68,0,0,0,9.12,3,11.35,11.35,0,0,0,6.72-2.93.65.65,0,0,1,.89-.11,18.88,18.88,0,0,1,10,13.83c.16.87.17,1.77.25,2.66A1.83,1.83,0,0,1,113.6,186.54Z"/><path class="cls-1" d="M85.35,160.9a9.31,9.31,0,1,1,9.33,9.32A9.31,9.31,0,0,1,85.35,160.9Z"/><rect class="cls-2" x="64" y="93.19" width="103.29" height="103.29" rx="10.01"/><path class="cls-1" d="M265.89,160.9H228c0-.6,0-1.18.1-1.75a18.85,18.85,0,0,1,4.49-10.58,19.1,19.1,0,0,1,5.8-4.57.46.46,0,0,1,.61.09,11.67,11.67,0,0,0,9.12,3,11.38,11.38,0,0,0,6.72-2.93.65.65,0,0,1,.89-.1,18.88,18.88,0,0,1,10,13.82,26,26,0,0,1,.24,2.66C265.91,160.67,265.89,160.77,265.89,160.9Z"/><path class="cls-1" d="M237.63,135.25a9.31,9.31,0,1,1,9.33,9.32A9.33,9.33,0,0,1,237.63,135.25Z"/><rect class="cls-2" x="192.71" y="92.81" width="103.29" height="103.29" rx="10.01"/></g></svg>