<svg xmlns="http://www.w3.org/2000/svg" viewBox="0 0 360 360"><defs><style>.cls-1{fill:#f1f2f2;}.cls-2{fill:#ef4a2b;}.cls-3{fill:#fff;}</style></defs><g id="BACKGROUND"><rect class="cls-1" x="-0.04" y="-0.17" width="360" height="360"/></g><g id="LINE_ONE" data-name="LINE ONE"><path class="cls-2" d="M130.52,248.16h-3.1l-1.12-3.24h-5l-1.12,3.24h-2.94l5-14h3.22Zm-6.76-10.72c0,.1-.07.26-.14.47s-.14.44-.22.7-.17.54-.27.84l-.29.87c-.22.69-.47,1.43-.74,2.22h3.38c-.27-.79-.51-1.53-.74-2.22l-.35-1c-.08-.26-.17-.51-.24-.75s-.14-.46-.21-.67-.11-.37-.14-.47Z"/><path class="cls-2" d="M140.82,248.16c-.2-.55-.45-1.26-.75-2.15l-.93-2.77q-.48-1.44-.93-2.82c-.3-.92-.54-1.7-.73-2.32h-.06v10.06h-2.76v-14h4.2c.57,1.71,1.09,3.27,1.56,4.7q.42,1.27.69,2.07c.18.53.35,1,.5,1.51s.29.91.42,1.3.22.67.27.84l.26-.84c.12-.39.26-.84.43-1.37s.35-1.09.54-1.7.39-1.21.59-1.81c.45-1.43.95-3,1.5-4.7h4.18v14H147V238.1H147l-.48,1.49c-.19.58-.39,1.2-.61,1.85l-.67,2c-.23.67-.44,1.31-.64,1.92L144,247c-.17.49-.3.88-.41,1.16Z"/><path class="cls-2" d="M155.08,248.16v-14h9.54v2.48H158v3.08h6.12v2.48H158v3.48h6.68v2.48Z"/><path class="cls-2" d="M169.36,234.16h3.12l2.32,3.76c.44.7.8,1.29,1.08,1.75l.84,1.37.8,1.29.64,1h.06v-9.2h2.84v14h-3.12l-2.28-3.7-1.07-1.73c-.29-.46-.57-.92-.85-1.38l-.81-1.32c-.26-.42-.48-.78-.67-1.07h-.06v9.2h-2.84Z"/><path class="cls-2" d="M186.34,234.16h3v14h-3Z"/><path class="cls-2" d="M193.56,234.16h11.1v2.5h-4v11.5h-3v-11.5h-4Z"/><path class="cls-2" d="M208.88,234.16h3v14h-3Z"/><path class="cls-2" d="M217.16,248.16v-14h9.54v2.48h-6.58v3.08h6.12v2.48h-6.12v3.48h6.68v2.48Z"/><path class="cls-2" d="M234.16,237.84a1.34,1.34,0,0,0,.78,1.29,9.48,9.48,0,0,0,2.48.67,7.86,7.86,0,0,1,3.67,1.38,3.48,3.48,0,0,1,1.17,2.86,3.92,3.92,0,0,1-.42,1.83,4.07,4.07,0,0,1-1.17,1.38,5.65,5.65,0,0,1-1.79.88,8.12,8.12,0,0,1-2.26.31,7.68,7.68,0,0,1-2.38-.35,5.87,5.87,0,0,1-1.8-.93,4.41,4.41,0,0,1-1.16-1.36,3.81,3.81,0,0,1-.46-1.62l3-.48a2.56,2.56,0,0,0,.79,1.67,2.84,2.84,0,0,0,2,.65,4.61,4.61,0,0,0,1-.1,2.52,2.52,0,0,0,.82-.33A1.66,1.66,0,0,0,239,245a1.63,1.63,0,0,0,.2-.82,1.35,1.35,0,0,0-.65-1.2,6.31,6.31,0,0,0-2.29-.68,18.1,18.1,0,0,1-2-.46,5.72,5.72,0,0,1-1.63-.77,3.51,3.51,0,0,1-1.08-1.22,3.76,3.76,0,0,1-.39-1.79,3.93,3.93,0,0,1,.4-1.84,3.72,3.72,0,0,1,1.12-1.31,5,5,0,0,1,1.7-.79,8,8,0,0,1,2.14-.26,7.71,7.71,0,0,1,2,.25,5.28,5.28,0,0,1,1.67.74,4.36,4.36,0,0,1,1.21,1.21,4.49,4.49,0,0,1,.66,1.64l-3,.66a2.45,2.45,0,0,0-.82-1.52,2.67,2.67,0,0,0-1.78-.56,2.78,2.78,0,0,0-1.69.42A1.33,1.33,0,0,0,234.16,237.84Z"/></g><g id="ICON"><path class="cls-2" d="M214.4,136.91c1.83,0,3.53-.13,5.2,0,6.62.63,9.89,5.75,9.18,11.6-1.2,10-7.36,16.08-16.57,19.32a55.76,55.76,0,0,1-5.82,1.29,2.13,2.13,0,0,0-1.17.7,36.08,36.08,0,0,1-6.83,7,1.24,1.24,0,0,0-.47.8,4.26,4.26,0,0,1-2.7,3.76,21.85,21.85,0,0,1-7.68,1.94,81.44,81.44,0,0,1-20.34-.24,28.84,28.84,0,0,1-6.13-1.78,3.83,3.83,0,0,1-2.62-3.69,1.24,1.24,0,0,0-.48-.8c-7.68-5.86-11.74-13.91-14-23.07a82.6,82.6,0,0,1-2-19.13,6.78,6.78,0,0,1,2.79-5.46,24.36,24.36,0,0,1,9.94-4.38c11.68-2.73,23.5-3,35.4-1.9a66.65,66.65,0,0,1,14.55,2.76,22,22,0,0,1,6.71,3.3,7.08,7.08,0,0,1,3.07,6.31C214.37,135.81,214.4,136.37,214.4,136.91ZM180.51,140a89.45,89.45,0,0,0,17.74-1.74,29,29,0,0,0,5.81-1.94c1.81-.82,1.84-2.28.14-3.25a18.89,18.89,0,0,0-3.91-1.63,65.08,65.08,0,0,0-14.55-2.22,105.51,105.51,0,0,0-25.9,1.31,21.67,21.67,0,0,0-7.62,2.48c-1.76,1.08-1.72,2.28,0,3.34.13.08.27.13.4.2a26.63,26.63,0,0,0,7.91,2.2A117.75,117.75,0,0,0,180.51,140Zm-31,3a7,7,0,0,0,0,.94c.46,2.77.79,5.56,1.42,8.28,2,8.57,6.15,15.76,13.74,20.62.33.22.65.46,1,.69a1,1,0,0,0-.11-.7A46.18,46.18,0,0,1,161.2,162a70.35,70.35,0,0,1-2-14.86c-.05-1.36,0-1.31-1.38-1.62q-2.6-.6-5.15-1.34C151.61,143.9,150.64,143.48,149.53,143.07Zm60.69,17.72.25.32c1.76-1,3.59-1.8,5.26-2.9a13.26,13.26,0,0,0,5.87-7.32,5.31,5.31,0,0,0-.7-5.08c-1.5-1.9-3.56-1.86-5.7-1.56-1,.14-1.39.62-1.49,1.64a54.22,54.22,0,0,1-2.45,11.75C210.91,158.69,210.56,159.74,210.22,160.79Z"/><path class="cls-2" d="M177.63,198.33a169.63,169.63,0,0,1-22.3-1.63,76.54,76.54,0,0,1-15.21-3.62,23.07,23.07,0,0,1-6.78-3.57c-3-2.4-3-5.28,0-7.65a27.6,27.6,0,0,1,9.61-4.51c2-.6,4-1,6-1.52a1.24,1.24,0,0,1,.93.28c1.35,1.12,2.66,2.28,4,3.43a1.64,1.64,0,0,1,.5.62c1.22,3.49,4,5.16,7.26,6.25a38.53,38.53,0,0,0,11.06,1.74,96.36,96.36,0,0,0,15.93-.42c3.42-.46,6.8-1.08,9.79-3a8.72,8.72,0,0,0,3.57-4.32,2.71,2.71,0,0,1,.74-1c1.21-1.09,2.48-2.11,3.67-3.22a1.32,1.32,0,0,1,1.36-.35,58,58,0,0,1,10.72,3.29,16.33,16.33,0,0,1,5.38,3.44c1.91,2,1.93,4.06,0,6.09a15,15,0,0,1-5,3.32A60.27,60.27,0,0,1,205,196,153.62,153.62,0,0,1,177.63,198.33Z"/><path class="cls-2" d="M187.51,90.33c-.91,1-1.93,1.93-2.79,3a11.15,11.15,0,0,0-2.14,8.12c.16,1.92.34,3.84.51,5.76.4,4.43-1.61,7.53-5.34,9.69a10.66,10.66,0,0,1-2.08,1c.45-.57.94-1.11,1.33-1.71a9.26,9.26,0,0,0,1.13-6.2c-.2-2.1-.57-4.19-.75-6.29a10.94,10.94,0,0,1,5-10.58c1.49-1,3.15-1.78,4.73-2.65A1.35,1.35,0,0,1,187.51,90.33Z"/><path class="cls-2" d="M171.36,97.5c-.65.54-1.33,1-1.94,1.62-2.17,2-2.67,4.62-2.29,7.47.16,1.2.25,2.4.37,3.6a6.31,6.31,0,0,1-3.27,6.3c-.93.59-1.94,1.06-3.08,1.68a24.2,24.2,0,0,0,1.61-2.46c.9-1.83.39-3.72.15-5.61-.16-1.25-.32-2.51-.36-3.77a6.57,6.57,0,0,1,1.8-4.79A15.63,15.63,0,0,1,171.36,97.5Z"/><path class="cls-2" d="M190.24,117.83c2.07-1.83,2.28-4.13,1.85-6.64-.25-1.49-.42-3-.52-4.49a6.94,6.94,0,0,1,2.62-6,16,16,0,0,1,6.1-3.17c-.64.54-1.32,1-1.91,1.61-2.15,2.08-2.62,4.66-2.23,7.5.16,1.19.26,2.39.37,3.59a6.3,6.3,0,0,1-3.25,6.21c-.91.57-1.88,1-2.83,1.56Z"/><rect class="cls-2" y="336.06" width="360" height="23.94"/><path class="cls-3" d="M265.76,352.49v-8.4h5.72v1.49h-4v1.84h3.68v1.49h-3.68V351h4v1.49Z"/><path class="cls-3" d="M278.79,348.08l3.11,4.41h-2.16l-2-2.92-2.06,2.92h-2l3.08-4.32-2.84-4.08H276l1.77,2.59,1.82-2.59h2Z"/><path class="cls-3" d="M286.16,349.54v2.95h-1.79v-8.4h3.19a5.81,5.81,0,0,1,1.37.15,3.12,3.12,0,0,1,1,.48,2.26,2.26,0,0,1,.67.83,2.67,2.67,0,0,1,.25,1.21,3,3,0,0,1-.25,1.25,2.5,2.5,0,0,1-.68.86,2.84,2.84,0,0,1-1,.5,5.2,5.2,0,0,1-1.35.17Zm2.89-2.78a1,1,0,0,0-.41-.93,2.48,2.48,0,0,0-1.26-.25h-1.22v2.47h1.22a2.17,2.17,0,0,0,1.26-.3A1.15,1.15,0,0,0,289.05,346.76Z"/><path class="cls-3" d="M293.53,352.49v-8.4h5.72v1.49H295.3v1.84H299v1.49H295.3V351h4v1.49Z"/><path class="cls-3" d="M308.38,346.64a2.36,2.36,0,0,1-1.6,2.4l1.94,3.45h-2L305,349.31h-1.12v3.18h-1.79v-8.4h3.07a5.41,5.41,0,0,1,1.33.15,2.89,2.89,0,0,1,1,.46,2.15,2.15,0,0,1,.64.79A2.57,2.57,0,0,1,308.38,346.64Zm-1.85,0a.91.91,0,0,0-.39-.85,2.3,2.3,0,0,0-1.18-.23h-1.08v2.26H305a2.08,2.08,0,0,0,1.18-.27A1,1,0,0,0,306.53,346.66Z"/><path class="cls-3" d="M311.41,344.09h1.8v8.4h-1.8Z"/><path class="cls-3" d="M316.37,352.49v-8.4h5.73v1.49h-4v1.84h3.67v1.49h-3.67V351h4v1.49Z"/><path class="cls-3" d="M324.94,344.09h1.87l1.4,2.25.64,1.05.51.83.48.77.38.62h0v-5.52H332v8.4h-1.87l-1.37-2.22c-.25-.42-.47-.76-.64-1l-.51-.83-.49-.79c-.15-.25-.29-.47-.4-.64h0v5.52h-1.71Z"/><path class="cls-3" d="M334.78,348.29a5.51,5.51,0,0,1,.29-1.84,3.81,3.81,0,0,1,.82-1.38,3.65,3.65,0,0,1,1.3-.86,4.83,4.83,0,0,1,1.71-.29,4.07,4.07,0,0,1,2.25.59,3.21,3.21,0,0,1,1.3,1.79l-1.75.61a2.43,2.43,0,0,0-.65-1.1,1.72,1.72,0,0,0-1.19-.39,2,2,0,0,0-1.67.81,2.63,2.63,0,0,0-.41.91,4.59,4.59,0,0,0-.14,1.15,4.51,4.51,0,0,0,.14,1.14,2.81,2.81,0,0,0,.41.91,1.92,1.92,0,0,0,.7.6,2.18,2.18,0,0,0,1,.22,1.78,1.78,0,0,0,1.14-.35,2.15,2.15,0,0,0,.66-1.06l1.73.61a3.49,3.49,0,0,1-1.3,1.68,3.81,3.81,0,0,1-2.25.62,4.44,4.44,0,0,1-1.67-.3,3.54,3.54,0,0,1-1.29-.85,3.69,3.69,0,0,1-.82-1.37A5.61,5.61,0,0,1,334.78,348.29Z"/><path class="cls-3" d="M345.09,352.49v-8.4h5.72v1.49h-3.95v1.84h3.68v1.49h-3.68V351h4v1.49Z"/></g></svg>