<svg xmlns="http://www.w3.org/2000/svg" viewBox="0 0 360 360"><defs><style>.cls-1{fill:#f1f2f2;}.cls-2{fill:#0e6e39;}.cls-3,.cls-4,.cls-5{fill:none;stroke:#0e6e39;stroke-miterlimit:10;}.cls-3,.cls-5{stroke-linecap:round;}.cls-3{stroke-width:5px;}.cls-4,.cls-5{stroke-width:2.5px;}.cls-6{fill:#0c6e39;}.cls-7{fill:#fff;}</style></defs><g id="BACKGROUND"><rect class="cls-1" x="0.47" y="-0.34" width="360" height="360"/></g><g id="LINE_ONE" data-name="LINE ONE"><path class="cls-2" d="M74.92,234.16H78l2.32,3.76,1.08,1.75.84,1.37.8,1.29.64,1h.06v-9.2h2.84v14H83.5l-2.28-3.7-1.07-1.73c-.29-.46-.57-.92-.85-1.38L78.49,240,77.82,239h-.06v9.2H74.92Z"/><path class="cls-2" d="M91.9,248.16v-14h9.54v2.48H94.86v3.08H101v2.48H94.86v3.48h6.68v2.48Z"/><path class="cls-2" d="M105.12,234.16h11.1v2.5h-4v11.5h-3v-11.5h-4Z"/><path class="cls-2" d="M126.66,234.16h10.88v2.3l-7.34,9.2h7.28v2.5H126.42v-2.28l7.38-9.22h-7.14Z"/><path class="cls-2" d="M142.1,248.16v-14h9.54v2.48h-6.58v3.08h6.12v2.48h-6.12v3.48h6.68v2.48Z"/><path class="cls-2" d="M166.86,238.42a4.24,4.24,0,0,1-.71,2.54,4.31,4.31,0,0,1-2,1.46l3.22,5.74h-3.3l-2.9-5.3h-1.86v5.3h-3v-14h5.12a8.89,8.89,0,0,1,2.21.25,4.78,4.78,0,0,1,1.69.77,3.66,3.66,0,0,1,1.08,1.32A4.47,4.47,0,0,1,166.86,238.42Zm-3.08,0a1.51,1.51,0,0,0-.65-1.41,3.93,3.93,0,0,0-2-.39h-1.8v3.78h1.8a3.5,3.5,0,0,0,2-.45A1.74,1.74,0,0,0,163.78,238.44Z"/><path class="cls-2" d="M171.32,241.16a8.83,8.83,0,0,1,.49-3,6.35,6.35,0,0,1,1.38-2.29,5.82,5.82,0,0,1,2.15-1.44,8.09,8.09,0,0,1,5.6,0,5.9,5.9,0,0,1,2.15,1.44,6.64,6.64,0,0,1,1.38,2.29,9.74,9.74,0,0,1,0,6.1,6.64,6.64,0,0,1-1.38,2.29,5.9,5.9,0,0,1-2.15,1.44,8.09,8.09,0,0,1-5.6,0,5.82,5.82,0,0,1-2.15-1.44,6.35,6.35,0,0,1-1.38-2.29A8.83,8.83,0,0,1,171.32,241.16Zm3.1,0a7.45,7.45,0,0,0,.23,2,4.33,4.33,0,0,0,.69,1.52,3.06,3.06,0,0,0,1.16,1,3.64,3.64,0,0,0,1.64.35,3.7,3.7,0,0,0,1.64-.35,3.22,3.22,0,0,0,1.16-1,4.73,4.73,0,0,0,.69-1.52,8.38,8.38,0,0,0,0-3.9,4.73,4.73,0,0,0-.69-1.52,3.22,3.22,0,0,0-1.16-1,3.7,3.7,0,0,0-1.64-.35,3.64,3.64,0,0,0-1.64.35,3.06,3.06,0,0,0-1.16,1,4.33,4.33,0,0,0-.69,1.52A7.45,7.45,0,0,0,174.42,241.16Z"/><path class="cls-2" d="M196.36,248.16v-14h9.54v2.48h-6.58v3.08h6.12v2.48h-6.12v3.48H206v2.48Z"/><path class="cls-2" d="M210.64,234.16h3.12l2.32,3.76,1.08,1.75L218,241l.8,1.29.64,1h.06v-9.2h2.84v14h-3.12l-2.28-3.7-1.07-1.73c-.29-.46-.57-.92-.85-1.38l-.81-1.32-.67-1.07h-.06v9.2h-2.84Z"/><path class="cls-2" d="M227.62,248.16v-14h9.54v2.48h-6.58v3.08h6.12v2.48h-6.12v3.48h6.68v2.48Z"/><path class="cls-2" d="M252.38,238.42a4.24,4.24,0,0,1-.71,2.54,4.31,4.31,0,0,1-1.95,1.46l3.22,5.74h-3.3l-2.9-5.3h-1.86v5.3h-3v-14H247a8.89,8.89,0,0,1,2.21.25,4.78,4.78,0,0,1,1.69.77A3.66,3.66,0,0,1,252,236.5,4.47,4.47,0,0,1,252.38,238.42Zm-3.08,0a1.51,1.51,0,0,0-.65-1.41,3.93,3.93,0,0,0-2-.39h-1.8v3.78h1.8a3.5,3.5,0,0,0,2-.45A1.74,1.74,0,0,0,249.3,238.44Z"/><path class="cls-2" d="M263.14,240.4h6.44v7.76h-2.72v-1.44a3.69,3.69,0,0,1-1.36,1.22,4.83,4.83,0,0,1-2.34.5,6.29,6.29,0,0,1-2.75-.57,5.54,5.54,0,0,1-2-1.55,6.53,6.53,0,0,1-1.19-2.3,9.56,9.56,0,0,1-.4-2.82,8.71,8.71,0,0,1,.47-3,6.53,6.53,0,0,1,1.37-2.31,6.18,6.18,0,0,1,2.19-1.51,7.5,7.5,0,0,1,2.93-.54,6.74,6.74,0,0,1,3.62.93,5.74,5.74,0,0,1,2.26,2.75l-2.78,1.14a3.66,3.66,0,0,0-1.22-1.73,3.26,3.26,0,0,0-2-.61,3.33,3.33,0,0,0-2.72,1.25,5.72,5.72,0,0,0-1,3.69q0,4.68,3.7,4.68a4,4,0,0,0,1.08-.15,3.2,3.2,0,0,0,1-.46,2.51,2.51,0,0,0,.73-.79,2.34,2.34,0,0,0,.28-1.16v-.64h-3.58Z"/><path class="cls-2" d="M278,242.3l-5.3-8.14h3.44l3.42,5.36,3.4-5.36h3.34L281,242.3v5.86h-3Z"/></g><g id="ICON"><line class="cls-3" x1="133.18" y1="197.25" x2="246.31" y2="197.25"/><line class="cls-3" x1="155.57" y1="197.25" x2="155.57" y2="167.91"/><line class="cls-3" x1="141.26" y1="178.58" x2="169.88" y2="154.48"/><line class="cls-3" x1="189.75" y1="197.25" x2="189.75" y2="167.91"/><line class="cls-3" x1="175.44" y1="178.58" x2="204.05" y2="154.48"/><line class="cls-3" x1="222.86" y1="197.25" x2="222.86" y2="167.91"/><line class="cls-3" x1="208.55" y1="178.58" x2="237.17" y2="154.48"/><circle class="cls-4" cx="136.96" cy="114.55" r="10.55"/><line class="cls-5" x1="136.96" y1="100.71" x2="136.96" y2="91.28"/><line class="cls-5" x1="136.96" y1="137.82" x2="136.96" y2="128.39"/><line class="cls-5" x1="150.8" y1="114.55" x2="160.22" y2="114.55"/><line class="cls-5" x1="113.69" y1="114.55" x2="123.11" y2="114.55"/><line class="cls-5" x1="146.75" y1="104.76" x2="153.41" y2="98.1"/><line class="cls-5" x1="120.51" y1="131" x2="127.17" y2="124.34"/><line class="cls-5" x1="146.75" y1="124.34" x2="153.41" y2="131"/><line class="cls-5" x1="120.51" y1="98.1" x2="127.17" y2="104.76"/><rect class="cls-6" y="336.06" width="360" height="23.94"/><path class="cls-7" d="M250.44,352.49v-8.4h5.73v1.49h-4v1.84h3.67v1.49h-3.67V351h4v1.49Z"/><path class="cls-7" d="M259,344.09h1.87l1.4,2.25.64,1.05.51.83.48.77.38.62h0v-5.52H266v8.4h-1.87l-1.37-2.22c-.25-.42-.47-.76-.64-1l-.51-.83-.49-.79c-.15-.25-.29-.47-.4-.64h0v5.52H259Z"/><path class="cls-7" d="M270.44,344.09l.84,2.43c.16.46.29.84.39,1.16s.21.62.31.94.21.62.3.92.18.56.26.79h0c.07-.23.16-.5.25-.8l.31-.95.34-1,.35-1q.39-1.17.84-2.43h1.85l-3.1,8.4h-1.84l-3.06-8.4Z"/><path class="cls-7" d="M279,344.09h1.8v8.4H279Z"/><path class="cls-7" d="M290.22,346.64a2.34,2.34,0,0,1-1.59,2.4l1.93,3.45h-2l-1.74-3.18h-1.12v3.18h-1.78v-8.4H287a5.32,5.32,0,0,1,1.32.15,2.81,2.81,0,0,1,1,.46,2.18,2.18,0,0,1,.65.79A2.71,2.71,0,0,1,290.22,346.64Zm-1.84,0a.91.91,0,0,0-.39-.85,2.34,2.34,0,0,0-1.19-.23h-1.08v2.26h1.08a2.12,2.12,0,0,0,1.19-.27A1,1,0,0,0,288.38,346.66Z"/><path class="cls-7" d="M292.9,348.29a5.49,5.49,0,0,1,.29-1.83,4.13,4.13,0,0,1,.83-1.38,3.7,3.7,0,0,1,1.29-.86,4.56,4.56,0,0,1,1.68-.3,4.49,4.49,0,0,1,1.68.3,3.52,3.52,0,0,1,1.29.86,4,4,0,0,1,.83,1.38,5.92,5.92,0,0,1,0,3.66,3.84,3.84,0,0,1-.83,1.37,3.42,3.42,0,0,1-1.29.87,4.49,4.49,0,0,1-1.68.3,4.56,4.56,0,0,1-1.68-.3,3.59,3.59,0,0,1-1.29-.87,4,4,0,0,1-.83-1.37A5.49,5.49,0,0,1,292.9,348.29Zm1.86,0a4.81,4.81,0,0,0,.14,1.17,2.72,2.72,0,0,0,.41.91,2,2,0,0,0,.7.59,2.42,2.42,0,0,0,2,0,1.88,1.88,0,0,0,.69-.59,2.73,2.73,0,0,0,.42-.91,4.82,4.82,0,0,0,.13-1.17,4.71,4.71,0,0,0-.13-1.17,2.64,2.64,0,0,0-.42-.91,1.79,1.79,0,0,0-.69-.59,2.42,2.42,0,0,0-2,0,1.89,1.89,0,0,0-.7.59,2.63,2.63,0,0,0-.41.91A4.69,4.69,0,0,0,294.76,348.29Z"/><path class="cls-7" d="M303.9,344.09h1.88c.48.79,1,1.54,1.39,2.25l.65,1.05c.16.28.33.55.5.83l.48.77.38.62h0v-5.52h1.7v8.4h-1.87c-.48-.78-.93-1.52-1.37-2.22-.25-.42-.47-.76-.64-1l-.51-.83-.48-.79c-.16-.25-.29-.47-.41-.64h0v5.52H303.9Z"/><path class="cls-7" d="M317.79,352.49q-.18-.5-.45-1.29l-.56-1.66c-.19-.58-.38-1.14-.56-1.7s-.32-1-.44-1.39h0v6h-1.66v-8.4h2.52c.35,1,.66,2,.94,2.82.17.51.3.92.41,1.24s.21.62.3.91.18.54.25.78.13.4.17.5l.15-.5c.07-.24.16-.51.26-.83s.21-.65.32-1l.36-1.08q.41-1.29.9-2.82h2.51v8.4h-1.66v-6h0l-.28.9c-.12.34-.24.71-.37,1.11s-.27.79-.4,1.19-.27.79-.39,1.15-.23.7-.33,1l-.24.7Z"/><path class="cls-7" d="M326.34,352.49v-8.4h5.73v1.49h-3.95v1.84h3.67v1.49h-3.67V351h4v1.49Z"/><path class="cls-7" d="M334.91,344.09h1.87l1.4,2.25.64,1.05.51.83.48.77.38.62h0v-5.52h1.7v8.4h-1.87l-1.37-2.22c-.25-.42-.47-.76-.64-1l-.51-.83-.49-.79-.4-.64h0v5.52h-1.71Z"/><path class="cls-7" d="M344.46,344.09h6.66v1.5H348.7v6.9h-1.81v-6.9h-2.43Z"/></g></svg>