<svg xmlns="http://www.w3.org/2000/svg" viewBox="0 0 360 360"><defs><style>.cls-1{fill:#f1f2f2;}.cls-2{fill:#d2bf2d;}.cls-3{fill:#fff;}</style></defs><g id="BACKGROUND"><rect class="cls-1" width="360" height="360"/></g><g id="LINE_ONE" data-name="LINE ONE"><path class="cls-2" d="M113.26,248.16v-14h9.54v2.48h-6.58v3.08h6.12v2.48h-6.12v3.48h6.68v2.48Z"/><path class="cls-2" d="M133.7,248.16c-.2-.55-.45-1.26-.75-2.15l-.93-2.77q-.48-1.44-.93-2.82c-.3-.92-.54-1.7-.73-2.32h-.06v10.06h-2.76v-14h4.2q.85,2.55,1.56,4.7.42,1.27.69,2.07c.18.52.35,1,.5,1.51s.29.91.42,1.3.22.66.27.84c0-.18.14-.46.26-.84s.26-.84.43-1.37l.54-1.7c.19-.61.39-1.21.59-1.81q.67-2.15,1.5-4.7h4.18v14h-2.76V238.1h-.06l-.48,1.49-.61,1.85-.67,2c-.23.67-.44,1.31-.64,1.92s-.38,1.15-.55,1.65-.3.88-.41,1.16Z"/><path class="cls-2" d="M147.38,241.16a8.79,8.79,0,0,1,.49-3,6.55,6.55,0,0,1,1.38-2.29,5.82,5.82,0,0,1,2.15-1.44,8.09,8.09,0,0,1,5.6,0,5.82,5.82,0,0,1,2.15,1.44,6.55,6.55,0,0,1,1.38,2.29,9.74,9.74,0,0,1,0,6.1,6.64,6.64,0,0,1-1.38,2.29,5.94,5.94,0,0,1-2.15,1.44,8.09,8.09,0,0,1-5.6,0,5.94,5.94,0,0,1-2.15-1.44,6.64,6.64,0,0,1-1.38-2.29A8.83,8.83,0,0,1,147.38,241.16Zm3.1,0a8,8,0,0,0,.23,2,4.33,4.33,0,0,0,.69,1.52,3.24,3.24,0,0,0,1.16,1,4,4,0,0,0,3.28,0,3.24,3.24,0,0,0,1.16-1,4.33,4.33,0,0,0,.69-1.52,8,8,0,0,0,.23-2,7.9,7.9,0,0,0-.23-1.95,4.25,4.25,0,0,0-.69-1.52,3.14,3.14,0,0,0-1.16-1,4,4,0,0,0-3.28,0,3.14,3.14,0,0,0-1.16,1,4.25,4.25,0,0,0-.69,1.52A7.9,7.9,0,0,0,150.48,241.16Z"/><path class="cls-2" d="M164.06,234.16h11.1v2.5h-4v11.5h-3v-11.5h-4Z"/><path class="cls-2" d="M179.38,234.16h3v14h-3Z"/><path class="cls-2" d="M187.08,241.16a8.79,8.79,0,0,1,.49-3,6.55,6.55,0,0,1,1.38-2.29,5.82,5.82,0,0,1,2.15-1.44,8.09,8.09,0,0,1,5.6,0,5.82,5.82,0,0,1,2.15,1.44,6.55,6.55,0,0,1,1.38,2.29,9.74,9.74,0,0,1,0,6.1,6.64,6.64,0,0,1-1.38,2.29,5.94,5.94,0,0,1-2.15,1.44,8.09,8.09,0,0,1-5.6,0A5.94,5.94,0,0,1,189,246.5a6.64,6.64,0,0,1-1.38-2.29A8.83,8.83,0,0,1,187.08,241.16Zm3.1,0a8,8,0,0,0,.23,2,4.33,4.33,0,0,0,.69,1.52,3.24,3.24,0,0,0,1.16,1,4,4,0,0,0,3.28,0,3.24,3.24,0,0,0,1.16-1,4.33,4.33,0,0,0,.69-1.52,8,8,0,0,0,.23-2,7.9,7.9,0,0,0-.23-1.95,4.25,4.25,0,0,0-.69-1.52,3.14,3.14,0,0,0-1.16-1,4,4,0,0,0-3.28,0,3.14,3.14,0,0,0-1.16,1,4.25,4.25,0,0,0-.69,1.52A7.9,7.9,0,0,0,190.18,241.16Z"/><path class="cls-2" d="M205.42,234.16h3.12l2.32,3.76c.44.7.8,1.29,1.08,1.75l.84,1.37.8,1.29.64,1h.06v-9.2h2.84v14H214l-2.28-3.7-1.07-1.73c-.29-.46-.57-.92-.85-1.38L209,240c-.26-.42-.48-.78-.67-1.07h-.06v9.2h-2.84Z"/><path class="cls-2" d="M234.56,248.16h-3.1l-1.12-3.24h-5l-1.12,3.24h-2.94l5-14h3.22Zm-6.76-10.72c0,.1-.07.26-.14.47s-.14.44-.22.7-.17.54-.27.84l-.29.87c-.23.69-.47,1.43-.74,2.22h3.38c-.27-.79-.51-1.53-.74-2.22-.15-.4-.26-.73-.35-1s-.17-.51-.24-.75-.14-.47-.21-.67-.11-.37-.14-.47Z"/><path class="cls-2" d="M238.7,234.16h3v11.5h6.12v2.5H238.7Z"/></g><g id="LINE_TWO" data-name="LINE TWO"><path class="cls-2" d="M137.59,251.94l-3.5,14h-3.48c-.29-1.29-.57-2.52-.84-3.7l-.4-1.74c-.11-.46-.21-.93-.31-1.4s-.2-.91-.3-1.34-.18-.79-.25-1.1h-.06q-.1.46-.24,1.11c-.09.44-.2.9-.32,1.39l-.36,1.53c-.12.53-.24,1.05-.36,1.55-.28,1.18-.58,2.41-.9,3.7h-3.48l-3.52-14h3c.35,1.5.67,2.92,1,4.26.17.8.32,1.46.44,2s.23,1,.34,1.56.21,1,.31,1.48.18.86.23,1.18h.06c.07-.32.15-.71.25-1.19s.21-1,.34-1.53.26-1.12.4-1.72.28-1.18.41-1.76l1-4.26h2.82l1,4.26c.19.8.34,1.46.47,2s.25,1,.37,1.56.23,1,.33,1.48.18.86.25,1.18h.06c.07-.32.15-.71.25-1.19l.33-1.53c.12-.54.25-1.12.38-1.72s.27-1.18.4-1.76c.32-1.34.65-2.76,1-4.26Z"/><path class="cls-2" d="M141.71,265.94v-14h9.54v2.48h-6.58v3.08h6.12V260h-6.12v3.48h6.68v2.48Z"/><path class="cls-2" d="M156,251.94h3v11.5h6.12v2.5H156Z"/><path class="cls-2" d="M169.31,251.94h3v11.5h6.12v2.5h-9.12Z"/><path class="cls-2" d="M182.63,251.94h3.12l2.32,3.76,1.08,1.75.84,1.37.8,1.29.64,1h.06v-9.2h2.84v14h-3.12c-.8-1.29-1.56-2.52-2.28-3.7l-1.07-1.73c-.29-.46-.57-.92-.85-1.38l-.81-1.32-.67-1.07h-.06v9.2h-2.84Z"/><path class="cls-2" d="M199.61,265.94v-14h9.54v2.48h-6.58v3.08h6.12V260h-6.12v3.48h6.68v2.48Z"/><path class="cls-2" d="M216.61,255.62a1.34,1.34,0,0,0,.78,1.29,9.1,9.1,0,0,0,2.48.67,7.86,7.86,0,0,1,3.67,1.38,3.49,3.49,0,0,1,1.17,2.86,3.92,3.92,0,0,1-.42,1.83,4.07,4.07,0,0,1-1.17,1.38,5.44,5.44,0,0,1-1.79.88,7.77,7.77,0,0,1-2.26.31,7.39,7.39,0,0,1-2.38-.35,5.66,5.66,0,0,1-1.8-.93,4.3,4.3,0,0,1-1.16-1.36,3.81,3.81,0,0,1-.46-1.62l3-.48a2.56,2.56,0,0,0,.79,1.67,2.8,2.8,0,0,0,2,.65,4.61,4.61,0,0,0,1-.1,2.14,2.14,0,0,0,.82-.33,1.66,1.66,0,0,0,.55-.57,1.61,1.61,0,0,0,.2-.82,1.35,1.35,0,0,0-.65-1.2,6.52,6.52,0,0,0-2.29-.68,16.15,16.15,0,0,1-2-.46,5.23,5.23,0,0,1-1.63-.77,3.42,3.42,0,0,1-1.08-1.22,3.73,3.73,0,0,1-.39-1.79A4,4,0,0,1,214,254a3.81,3.81,0,0,1,1.12-1.31,5.22,5.22,0,0,1,1.7-.79,8.48,8.48,0,0,1,2.14-.26,8.16,8.16,0,0,1,2,.25,5.77,5.77,0,0,1,1.67.74,4.36,4.36,0,0,1,1.21,1.21,4.49,4.49,0,0,1,.66,1.64l-3,.66a2.48,2.48,0,0,0-.82-1.52,2.67,2.67,0,0,0-1.78-.56,2.78,2.78,0,0,0-1.69.42A1.34,1.34,0,0,0,216.61,255.62Z"/><path class="cls-2" d="M232.09,255.62a1.34,1.34,0,0,0,.78,1.29,9,9,0,0,0,2.48.67A7.86,7.86,0,0,1,239,259a3.49,3.49,0,0,1,1.17,2.86,3.92,3.92,0,0,1-.42,1.83A4.07,4.07,0,0,1,238.6,265a5.44,5.44,0,0,1-1.79.88,7.77,7.77,0,0,1-2.26.31,7.39,7.39,0,0,1-2.38-.35,5.66,5.66,0,0,1-1.8-.93,4.3,4.3,0,0,1-1.16-1.36,3.81,3.81,0,0,1-.46-1.62l3-.48a2.56,2.56,0,0,0,.79,1.67,2.8,2.8,0,0,0,2,.65,4.61,4.61,0,0,0,1-.1,2.14,2.14,0,0,0,.82-.33,1.76,1.76,0,0,0,.55-.57,1.61,1.61,0,0,0,.2-.82,1.35,1.35,0,0,0-.65-1.2,6.59,6.59,0,0,0-2.29-.68,16.15,16.15,0,0,1-2-.46,5.23,5.23,0,0,1-1.63-.77,3.42,3.42,0,0,1-1.08-1.22,3.73,3.73,0,0,1-.39-1.79,4,4,0,0,1,.4-1.84,3.7,3.7,0,0,1,1.12-1.31,5.22,5.22,0,0,1,1.7-.79,8.48,8.48,0,0,1,2.14-.26,8.16,8.16,0,0,1,2,.25,5.77,5.77,0,0,1,1.67.74,4.36,4.36,0,0,1,1.21,1.21,4.49,4.49,0,0,1,.66,1.64l-3,.66a2.48,2.48,0,0,0-.82-1.52,2.67,2.67,0,0,0-1.78-.56,2.78,2.78,0,0,0-1.69.42A1.34,1.34,0,0,0,232.09,255.62Z"/></g><g id="ICON"><path class="cls-2" d="M180.79,90.33c11,.2,19.83,1.72,27.7,6.9,8.81,5.82,13.1,14.22,13.72,24.54.69,11.56-2.85,22-9,31.67-1.69,2.66-3.48,5.5-4.15,8.5-1,4.52.46,8.91,2.92,12.84a53.64,53.64,0,0,0,3.49,4.85c.87,1.09.94,1.78-.35,2.59A150.27,150.27,0,0,1,181,198.06c-1.81.58-2,.31-2.49-1.6-1.53-6.06-3-12.13-4.81-18.12-1.18-4-3.7-7.12-8-7.93-2.56-.48-5.3-.06-8,0-2.44,0-4.89.29-7.31.12s-3.28-1.4-3.42-3.73c-.08-1.3,0-2.62-.06-3.93a3.24,3.24,0,0,0-.37-1.79,3.48,3.48,0,0,1-.57-4.22c.11-.21-.5-1-.94-1.25-2.37-1.06-2.38-1-1.8-3.35.72-2.89.18-3.82-2.68-4.62a8.42,8.42,0,0,1-1.91-.71,1.56,1.56,0,0,1-.61-2.45c2.1-3.18,4.1-6.44,6.38-9.5a8,8,0,0,0,1.69-7,13.58,13.58,0,0,1,.44-7.71c.66-2.11,1.15-4.28,1.62-6.44a28.7,28.7,0,0,1,22.89-22.25C174.88,90.86,178.74,90.58,180.79,90.33Zm2,5.43a63.94,63.94,0,0,0-8.87,1.65c-10.43,3.28-18,9.56-19.84,21-1.09,6.85,1.32,11.5,8.62,12.86a30.45,30.45,0,0,0,5.77.65c7.36-.07,13.74,2,19.32,7.13,3.28,3,7.28,5.24,11.09,7.62a6.56,6.56,0,0,0,8-.61,23.12,23.12,0,0,0,4.92-5.57c2.87-4.64,3.89-9.9,4.5-15.27.66-5.81-.39-11.17-4-15.83C205.16,100.09,195.33,96.38,182.76,95.76Z"/><path class="cls-2" d="M194.28,109.07h0a5.32,5.32,0,0,0-7.54,0l-1.61,1.6-1.61-1.6a5.33,5.33,0,0,0-7.55,0h0a5.34,5.34,0,0,0,0,7.54l1.61,1.61h0l7.55,7.55h0l7.54-7.55h0l1.61-1.61A5.32,5.32,0,0,0,194.28,109.07Z"/><rect class="cls-2" y="336.06" width="360" height="23.94"/><path class="cls-3" d="M235.07,348.29a5.51,5.51,0,0,1,.29-1.84,4,4,0,0,1,.82-1.38,3.65,3.65,0,0,1,1.3-.86,4.87,4.87,0,0,1,1.71-.29,4.11,4.11,0,0,1,2.26.59,3.19,3.19,0,0,1,1.29,1.79l-1.75.61a2.34,2.34,0,0,0-.65-1.1,1.71,1.71,0,0,0-1.19-.39,2,2,0,0,0-1,.22,1.88,1.88,0,0,0-.69.59,2.47,2.47,0,0,0-.42.91,4.59,4.59,0,0,0-.14,1.15,4.51,4.51,0,0,0,.14,1.14,2.63,2.63,0,0,0,.42.91,1.81,1.81,0,0,0,.69.6,2.19,2.19,0,0,0,1,.22,1.77,1.77,0,0,0,1.13-.35,2.23,2.23,0,0,0,.67-1.06l1.72.61A3.53,3.53,0,0,1,241.4,352a3.87,3.87,0,0,1-2.26.62,4.47,4.47,0,0,1-1.67-.3,3.54,3.54,0,0,1-1.29-.85,3.82,3.82,0,0,1-.82-1.37A5.61,5.61,0,0,1,235.07,348.29Z"/><path class="cls-3" d="M252.68,352.49h-1.86l-.67-1.95h-3l-.67,1.95H244.7l3-8.4h1.93Zm-4.06-6.43a2.83,2.83,0,0,1-.08.28c0,.12-.09.26-.13.42l-.17.5c-.06.18-.11.36-.17.52l-.44,1.34h2l-.44-1.34c-.09-.24-.16-.43-.21-.59s-.1-.31-.14-.45-.09-.28-.13-.4a2.83,2.83,0,0,1-.08-.28Z"/><path class="cls-3" d="M258.86,352.49q-.18-.5-.45-1.29l-.56-1.66c-.19-.58-.38-1.14-.56-1.7s-.33-1-.44-1.39h0v6h-1.66v-8.4h2.52c.34,1,.66,2,.94,2.82.17.51.3.92.41,1.24s.21.62.3.91.18.54.25.78.13.4.17.5l.15-.5c.07-.24.16-.51.26-.83s.21-.65.32-1l.36-1.08q.41-1.29.9-2.82h2.51v8.4h-1.66v-6h0c-.08.25-.17.55-.29.9l-.36,1.11c-.13.39-.27.79-.4,1.19s-.27.79-.39,1.15-.23.7-.33,1l-.24.7Z"/><path class="cls-3" d="M269.2,349.54v2.95h-1.79v-8.4h3.19a5.75,5.75,0,0,1,1.37.15,3.18,3.18,0,0,1,1,.48,2.36,2.36,0,0,1,.67.83,2.81,2.81,0,0,1,.24,1.21,2.85,2.85,0,0,1-.25,1.25,2.39,2.39,0,0,1-.68.86,2.7,2.7,0,0,1-1.05.5,5.2,5.2,0,0,1-1.35.17Zm2.89-2.78a1,1,0,0,0-.41-.93,2.48,2.48,0,0,0-1.26-.25H269.2v2.47h1.22a2.17,2.17,0,0,0,1.26-.3A1.13,1.13,0,0,0,272.09,346.76Z"/><path class="cls-3" d="M279.88,352.66a3.34,3.34,0,0,1-2.56-.87,3.39,3.39,0,0,1-.8-2.4v-5.3h1.8v5.31a2,2,0,0,0,.38,1.27,1.64,1.64,0,0,0,2.36,0,2,2,0,0,0,.38-1.27v-5.31h1.8v5.3a3.39,3.39,0,0,1-.8,2.4A3.34,3.34,0,0,1,279.88,352.66Z"/><path class="cls-3" d="M288,346.3a.8.8,0,0,0,.47.77,5.38,5.38,0,0,0,1.49.4,4.79,4.79,0,0,1,2.2.83,2.09,2.09,0,0,1,.7,1.72,2.3,2.3,0,0,1-.25,1.09,2.43,2.43,0,0,1-.7.83,3.21,3.21,0,0,1-1.08.53,4.79,4.79,0,0,1-1.35.19,4.53,4.53,0,0,1-1.43-.21,3.67,3.67,0,0,1-1.08-.56,2.6,2.6,0,0,1-.7-.82,2.24,2.24,0,0,1-.27-1l1.8-.29a1.55,1.55,0,0,0,.47,1,1.71,1.71,0,0,0,1.21.39,2.84,2.84,0,0,0,.6-.06,1.49,1.49,0,0,0,.5-.19,1.1,1.1,0,0,0,.33-.35.94.94,0,0,0,.12-.49.81.81,0,0,0-.39-.72,3.92,3.92,0,0,0-1.38-.41,9.6,9.6,0,0,1-1.22-.27,3.42,3.42,0,0,1-1-.46,2.1,2.1,0,0,1-.65-.74,2.32,2.32,0,0,1-.23-1.07,2.38,2.38,0,0,1,.24-1.1,2.13,2.13,0,0,1,.67-.79,3,3,0,0,1,1-.47,5.12,5.12,0,0,1,2.5,0,3.49,3.49,0,0,1,1,.44,2.63,2.63,0,0,1,.72.73,2.57,2.57,0,0,1,.4,1l-1.82.4a1.47,1.47,0,0,0-.5-.91,1.55,1.55,0,0,0-1.06-.34,1.74,1.74,0,0,0-1,.25A.82.82,0,0,0,288,346.3Z"/><path class="cls-3" d="M300.9,344.09q.45,1.26.84,2.43c.16.46.3.84.4,1.16s.21.62.31.94.21.62.3.92.18.56.25.79h0c.07-.23.15-.5.25-.8l.31-.95c.1-.34.22-.68.34-1s.23-.69.35-1q.39-1.17.84-2.43H307l-3.09,8.4H302l-3.06-8.4Z"/><path class="cls-3" d="M315.71,352.49h-1.86l-.67-1.95h-3l-.67,1.95h-1.77l3-8.4h1.93Zm-4-6.43-.09.28-.13.42-.16.5c-.06.18-.12.36-.18.52-.13.42-.28.86-.44,1.34h2l-.45-1.34c-.08-.24-.15-.43-.21-.59s-.1-.31-.14-.45-.09-.28-.13-.4l-.08-.28Z"/><path class="cls-3" d="M318.2,344.09H320V351h3.67v1.5H318.2Z"/><path class="cls-3" d="M329.32,352.66a3.34,3.34,0,0,1-2.56-.87,3.39,3.39,0,0,1-.8-2.4v-5.3h1.8v5.31a2,2,0,0,0,.38,1.27,1.64,1.64,0,0,0,2.36,0,2,2,0,0,0,.38-1.27v-5.31h1.8v5.3a3.39,3.39,0,0,1-.8,2.4A3.34,3.34,0,0,1,329.32,352.66Z"/><path class="cls-3" d="M335.8,352.49v-8.4h5.72v1.49h-3.95v1.84h3.68v1.49h-3.68V351h4v1.49Z"/><path class="cls-3" d="M346,346.3a.8.8,0,0,0,.47.77,5.27,5.27,0,0,0,1.49.4,4.79,4.79,0,0,1,2.2.83,2.09,2.09,0,0,1,.7,1.72,2.3,2.3,0,0,1-.25,1.09,2.43,2.43,0,0,1-.7.83,3.3,3.3,0,0,1-1.08.53,4.86,4.86,0,0,1-1.36.19,4.51,4.51,0,0,1-1.42-.21,3.44,3.44,0,0,1-1.08-.56,2.6,2.6,0,0,1-.7-.82,2.11,2.11,0,0,1-.27-1l1.79-.29a1.56,1.56,0,0,0,.48,1,1.68,1.68,0,0,0,1.2.39,2.93,2.93,0,0,0,.61-.06,1.43,1.43,0,0,0,.49-.19,1.1,1.1,0,0,0,.33-.35.94.94,0,0,0,.12-.49.81.81,0,0,0-.39-.72,3.85,3.85,0,0,0-1.37-.41,9.6,9.6,0,0,1-1.22-.27,3.29,3.29,0,0,1-1-.46,2,2,0,0,1-.65-.74,2.2,2.2,0,0,1-.24-1.07,2.26,2.26,0,0,1,.25-1.1,2.13,2.13,0,0,1,.67-.79,2.9,2.9,0,0,1,1-.47,4.72,4.72,0,0,1,1.28-.16,4.66,4.66,0,0,1,1.21.15,3.37,3.37,0,0,1,1,.44,2.54,2.54,0,0,1,.73.73,2.74,2.74,0,0,1,.4,1l-1.83.4a1.46,1.46,0,0,0-.49-.91,1.56,1.56,0,0,0-1.07-.34,1.72,1.72,0,0,0-1,.25A.82.82,0,0,0,346,346.3Z"/></g></svg>