<svg xmlns="http://www.w3.org/2000/svg" viewBox="0 0 360 360"><defs><style>.cls-1{fill:#f1f2f2;}.cls-2{fill:#d2bf2d;}.cls-3{fill:#fff;}</style></defs><g id="BACKGROUND"><rect class="cls-1" x="0.95" width="360" height="360"/></g><g id="LINE_ONE" data-name="LINE ONE"><path class="cls-2" d="M94.62,237.84a1.34,1.34,0,0,0,.78,1.29,9.48,9.48,0,0,0,2.48.67,7.86,7.86,0,0,1,3.67,1.38,3.48,3.48,0,0,1,1.17,2.86,3.92,3.92,0,0,1-.42,1.83,4.07,4.07,0,0,1-1.17,1.38,5.65,5.65,0,0,1-1.79.88,7.77,7.77,0,0,1-2.26.31,7.68,7.68,0,0,1-2.38-.35,5.66,5.66,0,0,1-1.8-.93,4.41,4.41,0,0,1-1.16-1.36,3.81,3.81,0,0,1-.46-1.62l3-.48a2.56,2.56,0,0,0,.79,1.67,2.84,2.84,0,0,0,2,.65,4.61,4.61,0,0,0,1-.1,2.52,2.52,0,0,0,.82-.33,1.66,1.66,0,0,0,.55-.57,1.63,1.63,0,0,0,.2-.82A1.35,1.35,0,0,0,99,243a6.31,6.31,0,0,0-2.29-.68,16.15,16.15,0,0,1-2-.46,5.47,5.47,0,0,1-1.63-.77A3.51,3.51,0,0,1,92,239.87a3.76,3.76,0,0,1-.39-1.79,3.93,3.93,0,0,1,.4-1.84,3.72,3.72,0,0,1,1.12-1.31,5,5,0,0,1,1.7-.79,8.48,8.48,0,0,1,2.14-.26,7.71,7.71,0,0,1,2,.25,5.51,5.51,0,0,1,1.67.74,4.36,4.36,0,0,1,1.21,1.21,4.49,4.49,0,0,1,.66,1.64l-3,.66a2.45,2.45,0,0,0-.82-1.52,2.67,2.67,0,0,0-1.78-.56,2.78,2.78,0,0,0-1.69.42A1.33,1.33,0,0,0,94.62,237.84Z"/><path class="cls-2" d="M106.8,241.16a9.12,9.12,0,0,1,.48-3.07,6.47,6.47,0,0,1,1.37-2.29,5.75,5.75,0,0,1,2.16-1.43,7.82,7.82,0,0,1,2.85-.49,6.83,6.83,0,0,1,3.76,1,5.35,5.35,0,0,1,2.16,3l-2.92,1a3.92,3.92,0,0,0-1.08-1.83,2.86,2.86,0,0,0-2-.65,3.51,3.51,0,0,0-1.62.36,3.26,3.26,0,0,0-1.16,1,4.28,4.28,0,0,0-.69,1.51,7.77,7.77,0,0,0-.23,1.92,7.63,7.63,0,0,0,.23,1.91,4.45,4.45,0,0,0,.69,1.51,3.19,3.19,0,0,0,1.16,1,3.54,3.54,0,0,0,1.64.36,2.94,2.94,0,0,0,1.89-.58,3.53,3.53,0,0,0,1.11-1.76l2.88,1a6,6,0,0,1-2.16,2.8,6.42,6.42,0,0,1-3.76,1,7.5,7.5,0,0,1-2.79-.49,5.94,5.94,0,0,1-2.14-1.42,6.3,6.3,0,0,1-1.37-2.29A9.22,9.22,0,0,1,106.8,241.16Z"/><path class="cls-2" d="M124,234.16h3v5.54h5.3v-5.54h3v14h-3v-5.94H127v5.94h-3Z"/><path class="cls-2" d="M140,241.16a8.83,8.83,0,0,1,.49-3,6.64,6.64,0,0,1,1.38-2.29,5.82,5.82,0,0,1,2.15-1.44,8.09,8.09,0,0,1,5.6,0,5.82,5.82,0,0,1,2.15,1.44,6.64,6.64,0,0,1,1.38,2.29,9.74,9.74,0,0,1,0,6.1,6.64,6.64,0,0,1-1.38,2.29,5.82,5.82,0,0,1-2.15,1.44,8.09,8.09,0,0,1-5.6,0,5.82,5.82,0,0,1-2.15-1.44,6.64,6.64,0,0,1-1.38-2.29A8.83,8.83,0,0,1,140,241.16Zm3.1,0a7.9,7.9,0,0,0,.23,2,4.33,4.33,0,0,0,.69,1.52,3.14,3.14,0,0,0,1.16,1,4,4,0,0,0,3.28,0,3.14,3.14,0,0,0,1.16-1,4.33,4.33,0,0,0,.69-1.52,8.38,8.38,0,0,0,0-3.9,4.33,4.33,0,0,0-.69-1.52,3.14,3.14,0,0,0-1.16-1,4,4,0,0,0-3.28,0,3.14,3.14,0,0,0-1.16,1,4.33,4.33,0,0,0-.69,1.52A7.9,7.9,0,0,0,143.08,241.16Z"/><path class="cls-2" d="M157.94,241.16a8.83,8.83,0,0,1,.49-3,6.64,6.64,0,0,1,1.38-2.29,5.82,5.82,0,0,1,2.15-1.44,8.09,8.09,0,0,1,5.6,0,5.82,5.82,0,0,1,2.15,1.44,6.64,6.64,0,0,1,1.38,2.29,9.74,9.74,0,0,1,0,6.1,6.64,6.64,0,0,1-1.38,2.29,5.82,5.82,0,0,1-2.15,1.44,8.09,8.09,0,0,1-5.6,0,5.82,5.82,0,0,1-2.15-1.44,6.64,6.64,0,0,1-1.38-2.29A8.83,8.83,0,0,1,157.94,241.16Zm3.1,0a7.9,7.9,0,0,0,.23,2,4.33,4.33,0,0,0,.69,1.52,3.14,3.14,0,0,0,1.16,1,4,4,0,0,0,3.28,0,3.14,3.14,0,0,0,1.16-1,4.33,4.33,0,0,0,.69-1.52,8.38,8.38,0,0,0,0-3.9,4.33,4.33,0,0,0-.69-1.52,3.14,3.14,0,0,0-1.16-1,4,4,0,0,0-3.28,0,3.14,3.14,0,0,0-1.16,1,4.33,4.33,0,0,0-.69,1.52A7.9,7.9,0,0,0,161,241.16Z"/><path class="cls-2" d="M176.28,234.16h3v11.5h6.12v2.5h-9.12Z"/><path class="cls-2" d="M199,237.84a1.34,1.34,0,0,0,.78,1.29,9.48,9.48,0,0,0,2.48.67,7.86,7.86,0,0,1,3.67,1.38,3.48,3.48,0,0,1,1.17,2.86,3.92,3.92,0,0,1-.42,1.83,4.07,4.07,0,0,1-1.17,1.38,5.65,5.65,0,0,1-1.79.88,7.77,7.77,0,0,1-2.26.31,7.68,7.68,0,0,1-2.38-.35,5.66,5.66,0,0,1-1.8-.93,4.41,4.41,0,0,1-1.16-1.36,3.81,3.81,0,0,1-.46-1.62l3-.48a2.56,2.56,0,0,0,.79,1.67,2.84,2.84,0,0,0,2,.65,4.61,4.61,0,0,0,1-.1,2.52,2.52,0,0,0,.82-.33,1.66,1.66,0,0,0,.55-.57,1.63,1.63,0,0,0,.2-.82,1.35,1.35,0,0,0-.65-1.2,6.31,6.31,0,0,0-2.29-.68,16.15,16.15,0,0,1-2-.46,5.47,5.47,0,0,1-1.63-.77,3.51,3.51,0,0,1-1.08-1.22,3.76,3.76,0,0,1-.39-1.79,3.93,3.93,0,0,1,.4-1.84,3.72,3.72,0,0,1,1.12-1.31,5,5,0,0,1,1.7-.79,8.48,8.48,0,0,1,2.14-.26,7.71,7.71,0,0,1,2,.25,5.51,5.51,0,0,1,1.67.74,4.36,4.36,0,0,1,1.21,1.21,4.49,4.49,0,0,1,.66,1.64l-3,.66a2.45,2.45,0,0,0-.82-1.52,2.67,2.67,0,0,0-1.78-.56,2.78,2.78,0,0,0-1.69.42A1.33,1.33,0,0,0,199,237.84Z"/><path class="cls-2" d="M214.76,243.24v4.92h-3v-14h5.32a9.4,9.4,0,0,1,2.28.26,4.81,4.81,0,0,1,1.74.8,3.7,3.7,0,0,1,1.12,1.38,4.61,4.61,0,0,1,.4,2,4.87,4.87,0,0,1-.41,2.07,3.85,3.85,0,0,1-1.14,1.44,4.83,4.83,0,0,1-1.75.84,8.76,8.76,0,0,1-2.24.27Zm4.82-4.62a1.68,1.68,0,0,0-.69-1.56,4.11,4.11,0,0,0-2.09-.42h-2v4.12h2a3.6,3.6,0,0,0,2.09-.5A1.88,1.88,0,0,0,219.58,238.62Z"/><path class="cls-2" d="M227,234.16h3v14h-3Z"/><path class="cls-2" d="M245.8,238.42a3.94,3.94,0,0,1-2.66,4l3.22,5.74h-3.3l-2.9-5.3H238.3v5.3h-3v-14h5.12a8.89,8.89,0,0,1,2.21.25,4.78,4.78,0,0,1,1.69.77,3.46,3.46,0,0,1,1.08,1.32A4.47,4.47,0,0,1,245.8,238.42Zm-3.08,0a1.51,1.51,0,0,0-.65-1.41,3.91,3.91,0,0,0-2-.39h-1.8v3.78h1.8a3.48,3.48,0,0,0,2-.45A1.74,1.74,0,0,0,242.72,238.44Z"/><path class="cls-2" d="M250.84,234.16h3v14h-3Z"/><path class="cls-2" d="M258.06,234.16h11.1v2.5h-4v11.5h-3v-11.5h-4Z"/></g><g id="ICON"><path class="cls-2" d="M125.54,160.43l6.4-6.86a10.8,10.8,0,0,0-.62-1.11c-1.11-1.79-.79-3.08,1.11-4.16q9-5.12,17.95-10.42a9.65,9.65,0,0,0,2.8-2.52q11.41-15.6,22.73-31.26c1.78-2.44,3.24-2.43,4.75.17q13.36,23.07,26.65,46.18c1.46,2.53.61,3.9-2.23,4.19-10,1-20,2.16-30,3.23-2.48.26-5,.38-7.46.68-1.47.17-2.92.56-4.84.94l4.12,7.16c2.25-1.3,4.36-2.47,6.41-3.72,1.86-1.12,3.3-.94,4.4,1.07,1.39,2.54,2.89,5,4.3,7.54,1.28,2.29,1,3.08-1.32,4.45l-6.27,3.64c1.84,3.23,3.65,6.41,5.45,9.59,1.56,2.75,1.39,3.39-1.34,5-1.95,1.13-3.9,2.26-5.86,3.35-2.3,1.28-3.15,1.06-4.5-1.26q-8-13.89-16-27.8c-.32-.54-.7-1.06-1.12-1.68l-5.25,3c-3,1.71-3.4,1.61-5.18-1.24-.21-.34-.44-.66-.77-1.14-.79.41-1.56.79-2.3,1.21-5,2.85-8.67,1.69-11.18-3.56l-.8-1.71Zm52.59-51.84C171,118.38,164,127.86,157.18,137.4a2.86,2.86,0,0,0-.16,2.5q3.63,6.67,7.57,13.18a2.82,2.82,0,0,0,2.21,1.12c5.53-.43,11.06-1,16.58-1.59,1.85-.2,3.69-.53,5.79-.83l-10.56-18.32a20.52,20.52,0,0,1-2.16-4,2.89,2.89,0,0,1,.86-2.6c.63-.35,1.91.14,2.72.6.55.3.81,1.16,1.17,1.79,3.89,6.76,7.76,13.54,11.7,20.27.43.72,1.32,1.65,2,1.65,2.35,0,4.71-.38,7.43-.65Zm-17,47.3-8.28-14.35-17.1,9.89,8.33,14.36Zm14.63,34.81L159.2,162l-4.32,2.55c5.59,9.67,11,19.09,16.56,28.66Zm-6.66-20.28,3.19,5.42,5.38-3.17-3.15-5.36Zm-34.82-12.79c-1.58,1.6-3.3,2.82-4.17,4.49-.33.64,1.29,3.29,2,3.3,1.85,0,3.72-1,5.76-1.6Z"/><path class="cls-2" d="M234.46,132.36a11.82,11.82,0,0,1-3.26,1.06c-7.33.09-14.65,0-22,.05-1.43,0-2.87,0-2.94-2s1.41-2.24,2.95-2.24c7.33,0,14.65-.05,22,.05,1.09,0,2.17.73,3.25,1.12Z"/><path class="cls-2" d="M224.38,111.49A5.69,5.69,0,0,1,223,113c-6.64,3.91-13.29,7.81-20,11.54a3.24,3.24,0,0,1-3.06-.53c-1-1.1-.42-2.42.92-3.19,6.68-3.85,13.34-7.73,20.05-11.52C222.76,108.29,224.39,109.15,224.38,111.49Z"/><path class="cls-2" d="M212,91.92c-.43,1-.66,1.64-1,2.25-3.67,6.41-7.38,12.79-11,19.21-.79,1.38-1.88,2.18-3.33,1.38s-1.21-2.25-.45-3.56c3.77-6.54,7.49-13.1,11.37-19.57a3.75,3.75,0,0,1,2.68-1.3C210.79,90.29,211.41,91.34,212,91.92Z"/><path class="cls-3" d="M178.13,108.59l24.2,41.92c-2.72.27-5.08.64-7.43.65-.68,0-1.57-.93-2-1.65-3.94-6.73-7.81-13.51-11.7-20.27-.36-.63-.62-1.49-1.17-1.79-.81-.46-2.09-1-2.72-.6a2.89,2.89,0,0,0-.86,2.6,20.52,20.52,0,0,0,2.16,4l10.56,18.32c-2.1.3-3.94.63-5.79.83-5.52.58-11,1.16-16.58,1.59a2.82,2.82,0,0,1-2.21-1.12q-3.93-6.5-7.57-13.18a2.86,2.86,0,0,1,.16-2.5C164,127.86,171,118.38,178.13,108.59Z"/><path class="cls-3" d="M161.11,155.89l-17.05,9.9-8.33-14.36,17.1-9.89Z"/><path class="cls-3" d="M175.74,190.7l-4.3,2.55c-5.52-9.57-11-19-16.56-28.66L159.2,162Z"/><path class="cls-3" d="M169.08,170.42l5.42-3.11,3.15,5.36-5.38,3.17Z"/><path class="cls-3" d="M134.26,157.63l3.63,6.19c-2,.63-3.91,1.61-5.76,1.6-.75,0-2.37-2.66-2-3.3C131,160.45,132.68,159.23,134.26,157.63Z"/><rect class="cls-2" y="336.06" width="360" height="23.94"/><path class="cls-3" d="M235.07,348.29a5.51,5.51,0,0,1,.29-1.84,4,4,0,0,1,.82-1.38,3.65,3.65,0,0,1,1.3-.86,4.87,4.87,0,0,1,1.71-.29,4.11,4.11,0,0,1,2.26.59,3.19,3.19,0,0,1,1.29,1.79l-1.75.61a2.34,2.34,0,0,0-.65-1.1,1.71,1.71,0,0,0-1.19-.39,2,2,0,0,0-1,.22,1.88,1.88,0,0,0-.69.59,2.47,2.47,0,0,0-.42.91,4.59,4.59,0,0,0-.14,1.15,4.51,4.51,0,0,0,.14,1.14,2.63,2.63,0,0,0,.42.91,1.81,1.81,0,0,0,.69.6,2.19,2.19,0,0,0,1,.22,1.77,1.77,0,0,0,1.13-.35,2.23,2.23,0,0,0,.67-1.06l1.72.61A3.53,3.53,0,0,1,241.4,352a3.87,3.87,0,0,1-2.26.62,4.47,4.47,0,0,1-1.67-.3,3.54,3.54,0,0,1-1.29-.85,3.82,3.82,0,0,1-.82-1.37A5.61,5.61,0,0,1,235.07,348.29Z"/><path class="cls-3" d="M252.68,352.49h-1.86l-.67-1.95h-3l-.67,1.95H244.7l3-8.4h1.93Zm-4.06-6.43a2.83,2.83,0,0,1-.08.28c0,.12-.09.26-.13.42l-.17.5c-.06.18-.11.36-.17.52l-.44,1.34h2l-.44-1.34c-.09-.24-.16-.43-.21-.59s-.1-.31-.14-.45-.09-.28-.13-.4a2.83,2.83,0,0,1-.08-.28Z"/><path class="cls-3" d="M258.86,352.49q-.18-.5-.45-1.29l-.56-1.66c-.19-.58-.38-1.14-.56-1.7s-.32-1-.44-1.39h0v6h-1.66v-8.4h2.52c.34,1,.66,2,.94,2.82.17.51.3.92.41,1.24s.21.62.3.91.18.54.25.78.13.4.17.5l.15-.5c.07-.24.16-.51.26-.83s.21-.65.32-1l.36-1.08q.41-1.29.9-2.82h2.51v8.4h-1.66v-6h0c-.08.25-.17.55-.29.9l-.36,1.11c-.13.39-.27.79-.4,1.19s-.27.79-.39,1.15-.23.7-.33,1l-.24.7Z"/><path class="cls-3" d="M269.2,349.54v2.95h-1.79v-8.4h3.19a5.75,5.75,0,0,1,1.37.15,3.18,3.18,0,0,1,1,.48,2.36,2.36,0,0,1,.67.83,2.81,2.81,0,0,1,.24,1.21,2.85,2.85,0,0,1-.25,1.25,2.39,2.39,0,0,1-.68.86,2.7,2.7,0,0,1-1.05.5,5.2,5.2,0,0,1-1.35.17Zm2.89-2.78a1,1,0,0,0-.41-.93,2.46,2.46,0,0,0-1.25-.25H269.2v2.47h1.23a2.16,2.16,0,0,0,1.25-.3A1.13,1.13,0,0,0,272.09,346.76Z"/><path class="cls-3" d="M279.88,352.66a3.34,3.34,0,0,1-2.56-.87,3.39,3.39,0,0,1-.8-2.4v-5.3h1.8v5.31a2,2,0,0,0,.38,1.27,1.64,1.64,0,0,0,2.36,0,2,2,0,0,0,.38-1.27v-5.31h1.8v5.3a3.39,3.39,0,0,1-.8,2.4A3.34,3.34,0,0,1,279.88,352.66Z"/><path class="cls-3" d="M288,346.3a.8.8,0,0,0,.47.77,5.38,5.38,0,0,0,1.49.4,4.79,4.79,0,0,1,2.2.83,2.09,2.09,0,0,1,.7,1.72,2.3,2.3,0,0,1-.25,1.09,2.43,2.43,0,0,1-.7.83,3.21,3.21,0,0,1-1.08.53,4.79,4.79,0,0,1-1.35.19,4.53,4.53,0,0,1-1.43-.21,3.67,3.67,0,0,1-1.08-.56,2.6,2.6,0,0,1-.7-.82,2.24,2.24,0,0,1-.27-1l1.8-.29a1.55,1.55,0,0,0,.47,1,1.71,1.71,0,0,0,1.21.39,2.84,2.84,0,0,0,.6-.06,1.49,1.49,0,0,0,.5-.19,1.1,1.1,0,0,0,.33-.35.94.94,0,0,0,.12-.49.81.81,0,0,0-.39-.72,3.92,3.92,0,0,0-1.38-.41,9.6,9.6,0,0,1-1.22-.27,3.42,3.42,0,0,1-1-.46,2.1,2.1,0,0,1-.65-.74,2.32,2.32,0,0,1-.23-1.07,2.38,2.38,0,0,1,.24-1.1,2.13,2.13,0,0,1,.67-.79,3,3,0,0,1,1-.47,5.12,5.12,0,0,1,2.5,0,3.49,3.49,0,0,1,1,.44,2.63,2.63,0,0,1,.72.73,2.57,2.57,0,0,1,.4,1l-1.82.4a1.47,1.47,0,0,0-.5-.91,1.55,1.55,0,0,0-1.06-.34,1.74,1.74,0,0,0-1,.25A.82.82,0,0,0,288,346.3Z"/><path class="cls-3" d="M300.9,344.09q.45,1.26.84,2.43c.16.46.3.84.4,1.16s.21.62.31.94.21.62.3.92.18.56.25.79h0c.07-.23.15-.5.25-.8l.31-.95c.1-.34.22-.68.34-1s.23-.69.35-1q.39-1.17.84-2.43H307l-3.09,8.4H302l-3.06-8.4Z"/><path class="cls-3" d="M315.71,352.49h-1.86l-.67-1.95h-3l-.67,1.95h-1.77l3-8.4h1.93Zm-4-6.43-.09.28-.13.42-.16.5c-.06.18-.12.36-.18.52-.13.42-.28.86-.44,1.34h2l-.45-1.34c-.08-.24-.15-.43-.21-.59s-.1-.31-.14-.45-.09-.28-.13-.4l-.08-.28Z"/><path class="cls-3" d="M318.2,344.09H320V351h3.67v1.5H318.2Z"/><path class="cls-3" d="M329.32,352.66a3.34,3.34,0,0,1-2.56-.87,3.39,3.39,0,0,1-.8-2.4v-5.3h1.8v5.31a2,2,0,0,0,.38,1.27,1.64,1.64,0,0,0,2.36,0,2,2,0,0,0,.38-1.27v-5.31h1.8v5.3a3.39,3.39,0,0,1-.8,2.4A3.34,3.34,0,0,1,329.32,352.66Z"/><path class="cls-3" d="M335.8,352.49v-8.4h5.72v1.49h-3.95v1.84h3.68v1.49h-3.68V351h4v1.49Z"/><path class="cls-3" d="M346,346.3a.8.8,0,0,0,.47.77,5.27,5.27,0,0,0,1.49.4,4.79,4.79,0,0,1,2.2.83,2.09,2.09,0,0,1,.7,1.72,2.3,2.3,0,0,1-.25,1.09,2.43,2.43,0,0,1-.7.83,3.3,3.3,0,0,1-1.08.53,4.86,4.86,0,0,1-1.36.19,4.51,4.51,0,0,1-1.42-.21,3.44,3.44,0,0,1-1.08-.56,2.6,2.6,0,0,1-.7-.82,2.11,2.11,0,0,1-.27-1l1.8-.29a1.5,1.5,0,0,0,.47,1,1.7,1.7,0,0,0,1.2.39,2.93,2.93,0,0,0,.61-.06,1.43,1.43,0,0,0,.49-.19,1.1,1.1,0,0,0,.33-.35.94.94,0,0,0,.12-.49.81.81,0,0,0-.39-.72,3.85,3.85,0,0,0-1.37-.41,9.6,9.6,0,0,1-1.22-.27,3.29,3.29,0,0,1-1-.46,2,2,0,0,1-.65-.74,2.2,2.2,0,0,1-.23-1.07,2.38,2.38,0,0,1,.24-1.1,2.13,2.13,0,0,1,.67-.79,3,3,0,0,1,1-.47,4.72,4.72,0,0,1,1.28-.16,4.66,4.66,0,0,1,1.21.15,3.37,3.37,0,0,1,1,.44,2.54,2.54,0,0,1,.73.73,2.74,2.74,0,0,1,.4,1l-1.83.4a1.41,1.41,0,0,0-.49-.91,1.56,1.56,0,0,0-1.07-.34,1.72,1.72,0,0,0-1,.25A.82.82,0,0,0,346,346.3Z"/></g></svg>