<svg xmlns="http://www.w3.org/2000/svg" viewBox="0 0 360 360"><defs><style>.cls-1{fill:#fff;}.cls-2,.cls-3,.cls-4,.cls-5{fill:#231f20;}.cls-2,.cls-3,.cls-4,.cls-5,.cls-6,.cls-7,.cls-8{stroke:#fff;}.cls-2,.cls-3,.cls-5,.cls-6,.cls-7{stroke-miterlimit:10;}.cls-2,.cls-7{stroke-width:3px;}.cls-4,.cls-8{stroke-linejoin:round;}.cls-5{stroke-width:2px;}.cls-6,.cls-7,.cls-8{fill:none;}</style></defs><g id="BACKGROUND"><rect width="360" height="360"/></g><g id="LINE_ONE" data-name="LINE ONE"><path class="cls-1" d="M111.2,248.16v-14h9.58v2.48h-6.62v3.08h6.1v2.48h-6.1v6Z"/><path class="cls-1" d="M125.26,234.16h3v11.5h6.12v2.5h-9.12Z"/><path class="cls-1" d="M138.58,248.16v-14h9.54v2.48h-6.58v3.08h6.12v2.48h-6.12v3.48h6.68v2.48Z"/><path class="cls-1" d="M160.3,240.82l5.18,7.34h-3.6l-3.38-4.86-3.44,4.86H151.7l5.14-7.2-4.74-6.8h3.62l2.94,4.32,3-4.32h3.38Z"/><path class="cls-1" d="M169.6,234.16h3v14h-3Z"/><path class="cls-1" d="M177.88,234.16H184a5,5,0,0,1,1.75.28,3.65,3.65,0,0,1,1.3.77,3.28,3.28,0,0,1,.81,1.16,3.64,3.64,0,0,1,.28,1.45,3.41,3.41,0,0,1-.18,1.14,3.29,3.29,0,0,1-.47.87,3,3,0,0,1-.66.62,4,4,0,0,1-.77.39,3.24,3.24,0,0,1,.93.26,3,3,0,0,1,.87.57,2.67,2.67,0,0,1,.65.93,3.31,3.31,0,0,1,.25,1.38,4,4,0,0,1-1.28,3,4.71,4.71,0,0,1-1.42.87,5,5,0,0,1-1.8.32h-6.34Zm2.92,2.44v3.24h2.1a2.85,2.85,0,0,0,1.6-.36,1.88,1.88,0,0,0,.07-2.52,2.44,2.44,0,0,0-1.51-.36Zm0,9.12h2.4a3,3,0,0,0,1.93-.45,1.66,1.66,0,0,0,.51-1.31,1.44,1.44,0,0,0-.62-1.37,3.79,3.79,0,0,0-1.86-.35H180.8Z"/><path class="cls-1" d="M193.38,234.16h3v14h-3Z"/><path class="cls-1" d="M201.66,234.16h3v11.5h6.12v2.5h-9.12Z"/><path class="cls-1" d="M215,234.16h3v14h-3Z"/><path class="cls-1" d="M222.2,234.16h11.1v2.5h-4v11.5h-3v-11.5h-4Z"/><path class="cls-1" d="M241.76,242.3l-5.3-8.14h3.44l3.42,5.36,3.4-5.36h3.34l-5.3,8.14v5.86h-3Z"/><path class="cls-2" d="M232.78,144.72S229.45,95,220.05,88.44c0,0-10.61,7.35-3.33,54.81"/><path class="cls-3" d="M215.42,145.08a94.88,94.88,0,0,0-9.87-12.66c-4.87-4.9-11.87-5.64-11.87-5.64-13.94-11-10.63-19.16-10.63-19.16l14,15.18a9.69,9.69,0,0,1,6.71,3.15L220.37,143Z"/><path class="cls-4" d="M118.88,167,124,179.42l20.56,4.11,2.95-7.79L135.66,169l-.14-.08-4.6,1.9.81,1.94,3.05-1.26s5.9,2.74-.84,5.37c0,0-6.72,1.26-7.32-3.22Z"/><path class="cls-3" d="M149.13,172.51l-25.31-27.89s-2.2-6.56,5.73-4.18l.24,3.38,3.37.6.22,3.64,3.41.46L137,152l3.3.67.24,3.53,3.49.43.22,3.48,3.34.54.24,3.54,3.39.63.17,3.31,2.25,2.54Z"/><path class="cls-5" d="M156.56,169.76l-8.9-43.44s-.92-3.93,2.75-4.87,4.71,3,4.71,3L164,166.86Z"/><path class="cls-6" d="M201,144.5s.2-2.46-.94-9.27,3.76-13.62,3.76-13.62c-.75-17.72-9.32-19.83-9.32-19.83L198.57,122a17,17,0,0,0-2.37,8l1.39,12.23S197.3,144.14,201,144.5Z"/><path class="cls-1" d="M224.5,145.23a10.67,10.67,0,0,1,4.08,20.52l-66.89,27.68a10.66,10.66,0,1,1-8.16-19.7l66.89-27.68a10.65,10.65,0,0,1,4.08-.82m0-4a14.66,14.66,0,0,0-5.61,1.12L152,170a14.67,14.67,0,1,0,11.22,27.1l66.89-27.68a14.67,14.67,0,0,0-5.61-28.22Z"/><circle class="cls-1" cx="224.08" cy="156.08" r="4.35"/><path class="cls-7" d="M235.1,146.8a4.35,4.35,0,0,1,3.33,8"/><circle class="cls-1" cx="199.36" cy="125.72" r="0.77"/><polyline class="cls-8" points="166.33 128.34 163.87 131.97 167.86 132.06 166.13 136.41 170.61 136.52 168.22 140.37 172.53 140.52 170.57 144.58 174.78 144.58 172.79 148.56 177.11 148.64 175.41 152.2"/><line class="cls-6" x1="148.51" y1="130.47" x2="155.36" y2="125.58"/><line class="cls-6" x1="149.24" y1="134.04" x2="156.09" y2="129.14"/><line class="cls-6" x1="149.97" y1="137.6" x2="156.82" y2="132.7"/><line class="cls-6" x1="150.7" y1="141.16" x2="157.55" y2="136.26"/><line class="cls-6" x1="151.43" y1="144.72" x2="158.28" y2="139.83"/><line class="cls-6" x1="152.16" y1="148.28" x2="159.01" y2="143.39"/><line class="cls-6" x1="152.89" y1="151.84" x2="159.74" y2="146.95"/><line class="cls-6" x1="153.62" y1="155.4" x2="160.47" y2="150.51"/><line class="cls-6" x1="154.35" y1="158.96" x2="161.2" y2="154.07"/><line class="cls-6" x1="155.08" y1="162.52" x2="161.93" y2="157.63"/><path class="cls-2" d="M178.75,160.77l-4.52-8.47s5.38-3.93,8.75,6.2Z"/><path class="cls-3" d="M222.5,91.29s-9.53,9-2.13,51.74"/></g></svg>