<svg xmlns="http://www.w3.org/2000/svg" viewBox="0 0 360 360"><defs><style>.cls-1{fill:#f1f2f2;}.cls-2{fill:#0e6e39;}.cls-3,.cls-4{fill:none;stroke:#0e6e39;stroke-linecap:round;stroke-miterlimit:10;}.cls-3{stroke-width:5px;}.cls-4{stroke-width:3px;}.cls-5{fill:#0c6e39;}.cls-6{fill:#fff;}</style></defs><g id="BACKGROUND"><rect class="cls-1" x="1.06" y="-0.34" width="360" height="360"/></g><g id="LINE_ONE" data-name="LINE ONE"><path class="cls-2" d="M126.24,234.16h11.1v2.5h-4v11.5h-3v-11.5h-4Z"/><path class="cls-2" d="M141.56,234.16h3v5.54h5.3v-5.54h3v14h-3v-5.94h-5.3v5.94h-3Z"/><path class="cls-2" d="M158.14,248.16v-14h9.54v2.48H161.1v3.08h6.12v2.48H161.1v3.48h6.68v2.48Z"/><path class="cls-2" d="M182.9,238.42a4.26,4.26,0,0,1-.71,2.54,4.31,4.31,0,0,1-1.95,1.46l3.22,5.74h-3.3l-2.9-5.3H175.4v5.3h-3v-14h5.12a8.89,8.89,0,0,1,2.21.25,4.61,4.61,0,0,1,1.69.77,3.58,3.58,0,0,1,1.08,1.32A4.47,4.47,0,0,1,182.9,238.42Zm-3.08,0a1.51,1.51,0,0,0-.65-1.41,3.93,3.93,0,0,0-2-.39h-1.8v3.78h1.8a3.5,3.5,0,0,0,2-.45A1.74,1.74,0,0,0,179.82,238.44Z"/><path class="cls-2" d="M194.1,248.16c-.2-.55-.45-1.26-.75-2.15l-.93-2.77q-.48-1.44-.93-2.82c-.3-.92-.55-1.7-.73-2.32h-.06v10.06h-2.76v-14h4.2c.57,1.71,1.09,3.27,1.56,4.7l.69,2.07c.18.52.34,1,.5,1.51s.29.91.42,1.3.21.67.27.84l.26-.84c.12-.39.26-.84.43-1.37s.34-1.09.54-1.7.39-1.21.59-1.81c.45-1.43.95-3,1.5-4.7h4.18v14h-2.76V238.1h-.06c-.14.41-.3.91-.48,1.49l-.61,1.85c-.22.65-.45,1.31-.67,2s-.44,1.31-.64,1.92-.39,1.15-.55,1.65l-.41,1.16Z"/><path class="cls-2" d="M220.52,248.16h-3.1l-1.12-3.24h-5l-1.12,3.24h-2.94l5-14h3.22Zm-6.76-10.72-.14.47c-.07.21-.14.44-.22.7s-.17.54-.27.84l-.29.87-.74,2.22h3.38c-.27-.79-.52-1.53-.74-2.22-.15-.4-.27-.73-.35-1s-.17-.51-.24-.75-.15-.46-.21-.67a4.69,4.69,0,0,1-.14-.47Z"/><path class="cls-2" d="M224.66,234.16h3v11.5h6.12v2.5h-9.12Z"/></g><g id="LINE_TWO" data-name="LINE TWO"><path class="cls-2" d="M124,259a9.22,9.22,0,0,1,.48-3.08,6.42,6.42,0,0,1,1.37-2.29,5.73,5.73,0,0,1,2.16-1.42,7.74,7.74,0,0,1,2.85-.5,6.77,6.77,0,0,1,3.76,1,5.33,5.33,0,0,1,2.16,3l-2.92,1a3.92,3.92,0,0,0-1.08-1.83,2.82,2.82,0,0,0-2-.66,3.34,3.34,0,0,0-1.62.37,3.18,3.18,0,0,0-1.16,1,4.28,4.28,0,0,0-.69,1.51,8.09,8.09,0,0,0,0,3.83,4.45,4.45,0,0,0,.69,1.51,3.31,3.31,0,0,0,1.16,1,3.51,3.51,0,0,0,1.64.36,3,3,0,0,0,1.89-.58,3.72,3.72,0,0,0,1.11-1.76l2.88,1a6,6,0,0,1-2.16,2.79,6.37,6.37,0,0,1-3.76,1,7.7,7.7,0,0,1-2.79-.49,5.86,5.86,0,0,1-2.14-1.42A6.25,6.25,0,0,1,124.5,262,9.26,9.26,0,0,1,124,259Z"/><path class="cls-2" d="M140.62,259a8.75,8.75,0,0,1,.49-3,6.19,6.19,0,0,1,1.38-2.29,6,6,0,0,1,2.15-1.45,8.09,8.09,0,0,1,5.6,0,6.05,6.05,0,0,1,2.15,1.45,6.46,6.46,0,0,1,1.38,2.29,9.71,9.71,0,0,1,0,6.09,6.46,6.46,0,0,1-1.38,2.29,6.05,6.05,0,0,1-2.15,1.45,8.09,8.09,0,0,1-5.6,0,6,6,0,0,1-2.15-1.45,6.19,6.19,0,0,1-1.38-2.29A8.73,8.73,0,0,1,140.62,259Zm3.1,0a7.56,7.56,0,0,0,.23,1.95,4.28,4.28,0,0,0,.69,1.51,3.18,3.18,0,0,0,1.16,1,3.64,3.64,0,0,0,1.64.34,3.7,3.7,0,0,0,1.64-.34,3.35,3.35,0,0,0,1.16-1,4.67,4.67,0,0,0,.69-1.51,8.42,8.42,0,0,0,0-3.91,4.67,4.67,0,0,0-.69-1.51,3.35,3.35,0,0,0-1.16-1,3.7,3.7,0,0,0-1.64-.34,3.64,3.64,0,0,0-1.64.34,3.18,3.18,0,0,0-1.16,1A4.28,4.28,0,0,0,144,257,7.58,7.58,0,0,0,143.72,259Z"/><path class="cls-2" d="M165.12,266q-.3-.82-.75-2.16t-.93-2.76c-.32-1-.63-1.91-.93-2.83s-.55-1.69-.73-2.31h-.06V266H159V252h4.2q.85,2.55,1.56,4.7c.28.85.51,1.54.69,2.06s.34,1,.5,1.52.29.91.42,1.3l.27.84c.05-.18.14-.46.26-.84s.26-.85.43-1.37.34-1.1.54-1.71.39-1.21.59-1.8q.68-2.14,1.5-4.7h4.18v14h-2.76V255.89h-.06c-.14.41-.3.9-.48,1.48s-.39,1.2-.61,1.86-.45,1.31-.67,2-.44,1.32-.64,1.93-.39,1.15-.55,1.64-.31.88-.41,1.17Z"/><path class="cls-2" d="M179.38,266V252H189v2.48h-6.62v3.07h6.1V260h-6.1v6Z"/><path class="cls-2" d="M192.86,259a8.75,8.75,0,0,1,.49-3,6.19,6.19,0,0,1,1.38-2.29,6,6,0,0,1,2.15-1.45,8.09,8.09,0,0,1,5.6,0,6.05,6.05,0,0,1,2.15,1.45A6.46,6.46,0,0,1,206,255.9a9.71,9.71,0,0,1,0,6.09,6.46,6.46,0,0,1-1.38,2.29,6.05,6.05,0,0,1-2.15,1.45,8.09,8.09,0,0,1-5.6,0,6,6,0,0,1-2.15-1.45,6.19,6.19,0,0,1-1.38-2.29A8.73,8.73,0,0,1,192.86,259Zm3.1,0a7.56,7.56,0,0,0,.23,1.95,4.28,4.28,0,0,0,.69,1.51,3.18,3.18,0,0,0,1.16,1,3.64,3.64,0,0,0,1.64.34,3.7,3.7,0,0,0,1.64-.34,3.35,3.35,0,0,0,1.16-1,4.67,4.67,0,0,0,.69-1.51,8.42,8.42,0,0,0,0-3.91,4.67,4.67,0,0,0-.69-1.51,3.35,3.35,0,0,0-1.16-1,3.7,3.7,0,0,0-1.64-.34,3.64,3.64,0,0,0-1.64.34,3.18,3.18,0,0,0-1.16,1,4.28,4.28,0,0,0-.69,1.51A7.58,7.58,0,0,0,196,259Z"/><path class="cls-2" d="M221.68,256.2a4.24,4.24,0,0,1-.71,2.54A4.18,4.18,0,0,1,219,260.2l3.22,5.75h-3.3l-2.9-5.3h-1.86V266h-3V252h5.12a8.89,8.89,0,0,1,2.21.25,4.77,4.77,0,0,1,1.69.76,3.66,3.66,0,0,1,1.08,1.32A4.53,4.53,0,0,1,221.68,256.2Zm-3.08,0a1.49,1.49,0,0,0-.65-1.41,3.93,3.93,0,0,0-2-.39h-1.8v3.77H216a3.42,3.42,0,0,0,2-.45A1.72,1.72,0,0,0,218.6,256.23Z"/><path class="cls-2" d="M225.36,252h11.1v2.5h-4V266h-3v-11.5h-4Z"/></g><g id="ICON"><path class="cls-3" d="M189.94,165.18V100.29a10,10,0,0,0-10-10h0a10,10,0,0,0-10,10v64.89a18.08,18.08,0,1,0,19.92,0Z"/><path class="cls-2" d="M182.18,172.27v-45h-4.39v45a8.3,8.3,0,1,0,4.39,0Z"/><line class="cls-4" x1="196.29" y1="102.76" x2="210.59" y2="102.76"/><line class="cls-4" x1="196.29" y1="159.24" x2="210.59" y2="159.24"/><line class="cls-4" x1="196.29" y1="140.41" x2="210.59" y2="140.41"/><line class="cls-4" x1="196.29" y1="149.82" x2="207.94" y2="149.82"/><line class="cls-4" x1="196.29" y1="131" x2="207.94" y2="131"/><line class="cls-4" x1="196.29" y1="121.59" x2="210.59" y2="121.59"/><line class="cls-4" x1="196.29" y1="112.18" x2="207.94" y2="112.18"/><rect class="cls-5" y="336.06" width="360" height="23.94"/><path class="cls-6" d="M250.44,352.49v-8.4h5.73v1.49h-4v1.84h3.67v1.49h-3.67V351h4v1.49Z"/><path class="cls-6" d="M259,344.09h1.87l1.39,2.25.65,1.05.51.83c.16.27.32.53.48.77l.38.62h0v-5.52H266v8.4h-1.87l-1.37-2.22-.64-1-.51-.83-.49-.79c-.15-.25-.29-.47-.4-.64h0v5.52H259Z"/><path class="cls-6" d="M270.43,344.09q.45,1.26.84,2.43c.16.46.3.84.4,1.16s.21.62.31.94.21.62.3.92.18.56.25.79h0c.07-.23.15-.5.25-.8l.31-.95c.1-.34.22-.68.34-1s.23-.69.35-1q.39-1.17.84-2.43h1.84l-3.09,8.4h-1.84l-3.06-8.4Z"/><path class="cls-6" d="M279,344.09h1.8v8.4H279Z"/><path class="cls-6" d="M290.22,346.64a2.34,2.34,0,0,1-1.59,2.4l1.93,3.45h-2l-1.74-3.18h-1.12v3.18h-1.79v-8.4H287a5.38,5.38,0,0,1,1.32.15,2.81,2.81,0,0,1,1,.46,2.06,2.06,0,0,1,.64.79A2.57,2.57,0,0,1,290.22,346.64Zm-1.85,0a.91.91,0,0,0-.39-.85,2.3,2.3,0,0,0-1.18-.23h-1.08v2.26h1.08a2.08,2.08,0,0,0,1.18-.27A1,1,0,0,0,288.37,346.66Z"/><path class="cls-6" d="M292.9,348.29a5.49,5.49,0,0,1,.29-1.83,4,4,0,0,1,.83-1.38,3.7,3.7,0,0,1,1.29-.86,4.85,4.85,0,0,1,3.36,0,3.7,3.7,0,0,1,1.29.86,4,4,0,0,1,.83,1.38,5.92,5.92,0,0,1,0,3.66,3.84,3.84,0,0,1-.83,1.37,3.59,3.59,0,0,1-1.29.87,4.85,4.85,0,0,1-3.36,0,3.59,3.59,0,0,1-1.29-.87,3.84,3.84,0,0,1-.83-1.37A5.49,5.49,0,0,1,292.9,348.29Zm1.86,0a4.37,4.37,0,0,0,.14,1.17,2.72,2.72,0,0,0,.41.91,1.91,1.91,0,0,0,.7.59,2.39,2.39,0,0,0,2,0,1.91,1.91,0,0,0,.7-.59,2.72,2.72,0,0,0,.41-.91,4.37,4.37,0,0,0,.14-1.17,4.27,4.27,0,0,0-.14-1.17,2.63,2.63,0,0,0-.41-.91,1.82,1.82,0,0,0-.7-.59,2.39,2.39,0,0,0-2,0,1.82,1.82,0,0,0-.7.59,2.63,2.63,0,0,0-.41.91A4.27,4.27,0,0,0,294.76,348.29Z"/><path class="cls-6" d="M303.9,344.09h1.87l1.4,2.25.64,1.05.51.83.48.77.38.62h0v-5.52h1.7v8.4h-1.87l-1.37-2.22c-.25-.42-.47-.76-.64-1l-.51-.83-.49-.79-.4-.64h0v5.52H303.9Z"/><path class="cls-6" d="M317.79,352.49q-.18-.5-.45-1.29l-.56-1.66c-.19-.58-.38-1.14-.56-1.7s-.33-1-.44-1.39h0v6h-1.66v-8.4h2.52c.34,1,.66,2,.94,2.82.16.51.3.92.41,1.24s.21.62.3.91.18.54.25.78.13.4.16.5c0-.1.09-.27.16-.5s.16-.51.26-.83.21-.65.32-1l.36-1.08q.41-1.29.9-2.82h2.5v8.4h-1.65v-6h0c-.08.25-.17.55-.29.9l-.36,1.11c-.13.39-.27.79-.4,1.19s-.27.79-.39,1.15-.23.7-.33,1l-.24.7Z"/><path class="cls-6" d="M326.34,352.49v-8.4h5.73v1.49h-3.95v1.84h3.67v1.49h-3.67V351h4v1.49Z"/><path class="cls-6" d="M334.91,344.09h1.87l1.39,2.25.65,1.05.51.83c.16.27.32.53.48.77l.38.62h0v-5.52h1.7v8.4h-1.87l-1.37-2.22-.64-1-.51-.83-.49-.79-.4-.64h0v5.52h-1.7Z"/><path class="cls-6" d="M344.46,344.09h6.66v1.5H348.7v6.9h-1.81v-6.9h-2.43Z"/></g></svg>