<svg xmlns="http://www.w3.org/2000/svg" viewBox="0 0 360 360"><defs><style>.cls-1{fill:#f1f2f2;}.cls-2{fill:#0e6e39;}.cls-3,.cls-5,.cls-6{fill:none;stroke-linecap:round;stroke-miterlimit:10;}.cls-3,.cls-6{stroke:#0e6e39;}.cls-3{stroke-width:7px;}.cls-4{fill:#fff;}.cls-5{stroke:#fff;stroke-width:5px;}.cls-6{stroke-width:3px;}.cls-7{fill:#0c6e39;}</style></defs><g id="BACKGROUND"><rect class="cls-1" x="0.92" y="-0.34" width="360" height="360"/></g><g id="LINE_ONE" data-name="LINE ONE"><path class="cls-2" d="M129.75,234.16h3v5.54h5.3v-5.54h3v14h-3v-5.94h-5.3v5.94h-3Z"/><path class="cls-2" d="M146.33,248.16v-14h9.54v2.48h-6.58v3.08h6.12v2.48h-6.12v3.48H156v2.48Z"/><path class="cls-2" d="M172.77,248.16h-3.1l-1.12-3.24h-5l-1.12,3.24h-2.94l5-14h3.22ZM166,237.44c0,.1-.07.26-.14.47s-.14.44-.22.7-.17.54-.27.84l-.29.87c-.23.69-.47,1.43-.74,2.22h3.38c-.27-.79-.51-1.53-.74-2.22-.15-.4-.26-.73-.35-1s-.17-.51-.24-.75-.14-.47-.21-.67-.11-.37-.14-.47Z"/><path class="cls-2" d="M176.91,234.16h3v11.5H186v2.5h-9.12Z"/><path class="cls-2" d="M187.27,234.16h11.1v2.5h-4v11.5h-3v-11.5h-4Z"/><path class="cls-2" d="M202.59,234.16h3v5.54h5.3v-5.54h3v14h-3v-5.94h-5.3v5.94h-3Z"/><path class="cls-2" d="M223.21,242.3l-5.3-8.14h3.44l3.42,5.36,3.4-5.36h3.34l-5.3,8.14v5.86h-3Z"/></g><g id="LINE_TWO" data-name="LINE TWO"><path class="cls-2" d="M122.52,265.94c-.2-.54-.45-1.26-.75-2.15s-.61-1.81-.93-2.77-.63-1.9-.93-2.82-.54-1.69-.73-2.32h-.06v10.06h-2.76v-14h4.2l1.56,4.7q.42,1.29.69,2.07c.18.53.35,1,.5,1.51s.29.92.42,1.3.22.67.27.84l.26-.84c.12-.38.26-.84.43-1.37s.35-1.09.54-1.7.39-1.21.59-1.81q.68-2.13,1.5-4.7h4.18v14h-2.76V255.88h-.06c-.13.42-.29.91-.48,1.49s-.39,1.2-.61,1.85-.44,1.32-.67,2l-.64,1.92c-.2.61-.38,1.16-.55,1.65s-.3.88-.41,1.16Z"/><path class="cls-2" d="M148.94,265.94h-3.1l-1.12-3.24h-5l-1.12,3.24h-2.94l5-14h3.22Zm-6.76-10.72c0,.11-.07.27-.14.47s-.14.44-.22.7-.17.54-.27.84-.2.59-.29.87c-.23.7-.47,1.44-.74,2.22h3.38c-.27-.78-.51-1.52-.74-2.22-.15-.4-.26-.73-.35-1s-.17-.51-.24-.75-.14-.46-.21-.67-.11-.36-.14-.47Z"/><path class="cls-2" d="M150.42,251.94h11.1v2.5h-4v11.5h-3v-11.5h-4Z"/><path class="cls-2" d="M165.74,265.94v-14h9.54v2.48H168.7v3.08h6.12V260H168.7v3.48h6.68v2.48Z"/><path class="cls-2" d="M190.5,256.2a4.24,4.24,0,0,1-.71,2.54,4.14,4.14,0,0,1-1.95,1.46l3.22,5.74h-3.3l-2.9-5.3H183v5.3h-3v-14h5.12a9.39,9.39,0,0,1,2.21.25A5,5,0,0,1,189,253a3.46,3.46,0,0,1,1.08,1.32A4.53,4.53,0,0,1,190.5,256.2Zm-3.08,0a1.51,1.51,0,0,0-.65-1.41,3.91,3.91,0,0,0-2-.39H183v3.78h1.8a3.48,3.48,0,0,0,2-.45A1.74,1.74,0,0,0,187.42,256.22Z"/><path class="cls-2" d="M195.54,251.94h3v14h-3Z"/><path class="cls-2" d="M216,265.94h-3.1l-1.12-3.24h-5l-1.12,3.24h-2.94l5-14h3.22Zm-6.76-10.72c0,.11-.07.27-.14.47s-.14.44-.22.7-.17.54-.27.84-.2.59-.29.87c-.23.7-.47,1.44-.74,2.22h3.38c-.27-.78-.51-1.52-.74-2.22-.15-.4-.26-.73-.35-1s-.17-.51-.24-.75-.14-.46-.21-.67-.11-.36-.14-.47Z"/><path class="cls-2" d="M220.12,251.94h3v11.5h6.12v2.5h-9.12Z"/><path class="cls-2" d="M236.16,255.62a1.34,1.34,0,0,0,.78,1.29,9.1,9.1,0,0,0,2.48.67,7.86,7.86,0,0,1,3.67,1.38,3.49,3.49,0,0,1,1.17,2.86,3.92,3.92,0,0,1-.42,1.83,4.07,4.07,0,0,1-1.17,1.38,5.44,5.44,0,0,1-1.79.88,7.77,7.77,0,0,1-2.26.31,7.39,7.39,0,0,1-2.38-.35,5.66,5.66,0,0,1-1.8-.93,4.3,4.3,0,0,1-1.16-1.36,3.81,3.81,0,0,1-.46-1.62l3-.48a2.56,2.56,0,0,0,.79,1.67,2.8,2.8,0,0,0,2,.65,4.61,4.61,0,0,0,1-.1,2.14,2.14,0,0,0,.82-.33,1.66,1.66,0,0,0,.55-.57,1.61,1.61,0,0,0,.2-.82,1.35,1.35,0,0,0-.65-1.2,6.52,6.52,0,0,0-2.29-.68,16.15,16.15,0,0,1-2-.46,5.23,5.23,0,0,1-1.63-.77,3.42,3.42,0,0,1-1.08-1.22,3.73,3.73,0,0,1-.39-1.79,4,4,0,0,1,.4-1.84,3.81,3.81,0,0,1,1.12-1.31,5.22,5.22,0,0,1,1.7-.79,8.48,8.48,0,0,1,2.14-.26,8.16,8.16,0,0,1,2,.25,5.77,5.77,0,0,1,1.67.74,4.36,4.36,0,0,1,1.21,1.21,4.49,4.49,0,0,1,.66,1.64l-3,.66a2.48,2.48,0,0,0-.82-1.52,2.67,2.67,0,0,0-1.78-.56,2.78,2.78,0,0,0-1.69.42A1.34,1.34,0,0,0,236.16,255.62Z"/></g><g id="ICON"><line class="cls-3" x1="223.19" y1="118.55" x2="136.52" y2="169.48"/><path class="cls-2" d="M180,97.24a47.09,47.09,0,1,1-47.09,47.09A47.14,47.14,0,0,1,180,97.24m0-7a54.09,54.09,0,1,0,54.09,54.09A54.09,54.09,0,0,0,180,90.24Z"/><polygon class="cls-4" points="198.18 155.68 186.23 135.28 186.23 114.41 174.66 114.41 174.66 135.28 162.71 155.68 198.18 155.68"/><path class="cls-2" d="M204,166.3l-6.22-10.62H162.26L156,166.3a4.91,4.91,0,0,0,4.24,7.39h39.44A4.91,4.91,0,0,0,204,166.3Z"/><path class="cls-5" d="M187.91,114.41V134.7l17.88,30.53a7,7,0,0,1-6.07,10.58H160.28a7,7,0,0,1-6.07-10.58l17.88-30.53V114.41"/><path class="cls-6" d="M185.79,114.41v20.87l18.17,31a4.91,4.91,0,0,1-4.24,7.39H160.28A4.91,4.91,0,0,1,156,166.3l18.17-31V114.41"/><circle class="cls-2" cx="180.44" cy="150.68" r="3.64"/><circle class="cls-2" cx="173.68" cy="148.34" r="2.51"/><circle class="cls-2" cx="177.47" cy="145.53" r="1.78"/><polyline class="cls-6" points="191.29 114.41 180 114.41 168.71 114.41"/><rect class="cls-7" y="336.06" width="360" height="23.94"/><path class="cls-4" d="M250.45,352.49v-8.4h5.72v1.49h-4v1.84h3.67v1.49h-3.67V351h4v1.49Z"/><path class="cls-4" d="M259,344.09h1.88c.48.79.95,1.54,1.39,2.25l.65,1.05c.16.28.33.55.5.83l.48.77.38.62h0v-5.52H266v8.4h-1.87c-.48-.78-.93-1.52-1.37-2.22-.25-.42-.47-.76-.64-1l-.51-.83-.48-.79c-.16-.25-.29-.47-.41-.64h0v5.52H259Z"/><path class="cls-4" d="M270.44,344.09l.84,2.43c.16.46.29.84.39,1.16s.21.62.32.94l.3.92.25.79h0c.07-.23.16-.5.25-.8l.31-.95.34-1,.35-1q.39-1.17.84-2.43h1.85l-3.1,8.4h-1.83l-3.06-8.4Z"/><path class="cls-4" d="M279,344.09h1.8v8.4H279Z"/><path class="cls-4" d="M290.23,346.64a2.57,2.57,0,0,1-.43,1.53,2.48,2.48,0,0,1-1.17.87l1.93,3.45h-2l-1.74-3.18h-1.11v3.18h-1.79v-8.4H287a5.47,5.47,0,0,1,1.33.15,2.84,2.84,0,0,1,1,.46,2.08,2.08,0,0,1,.65.79A2.71,2.71,0,0,1,290.23,346.64Zm-1.85,0a.91.91,0,0,0-.39-.85,2.32,2.32,0,0,0-1.18-.23h-1.08v2.26h1.08a2.1,2.1,0,0,0,1.18-.27A1,1,0,0,0,288.38,346.66Z"/><path class="cls-4" d="M292.9,348.29a5.24,5.24,0,0,1,.3-1.83,4,4,0,0,1,.82-1.38,3.7,3.7,0,0,1,1.29-.86,4.58,4.58,0,0,1,1.69-.3,4.47,4.47,0,0,1,1.67.3,3.52,3.52,0,0,1,1.29.86,3.83,3.83,0,0,1,.83,1.38,5.73,5.73,0,0,1,0,3.66,3.7,3.7,0,0,1-.83,1.37,3.42,3.42,0,0,1-1.29.87,4.47,4.47,0,0,1-1.67.3,4.58,4.58,0,0,1-1.69-.3,3.59,3.59,0,0,1-1.29-.87,3.82,3.82,0,0,1-.82-1.37A5.24,5.24,0,0,1,292.9,348.29Zm1.86,0a4.81,4.81,0,0,0,.14,1.17,2.72,2.72,0,0,0,.41.91,2,2,0,0,0,.7.59,2.42,2.42,0,0,0,2,0,1.88,1.88,0,0,0,.69-.59,2.54,2.54,0,0,0,.42-.91,4.81,4.81,0,0,0,.14-1.17,4.69,4.69,0,0,0-.14-1.17,2.47,2.47,0,0,0-.42-.91,1.79,1.79,0,0,0-.69-.59,2.42,2.42,0,0,0-2,0,1.89,1.89,0,0,0-.7.59,2.63,2.63,0,0,0-.41.91A4.69,4.69,0,0,0,294.76,348.29Z"/><path class="cls-4" d="M303.91,344.09h1.87l1.39,2.25.65,1.05.5.83.48.77.39.62h0v-5.52h1.71v8.4h-1.88l-1.36-2.22-.65-1-.51-.83-.48-.79-.4-.64h0v5.52h-1.7Z"/><path class="cls-4" d="M317.79,352.49q-.18-.5-.45-1.29l-.56-1.66c-.19-.58-.38-1.14-.56-1.7s-.32-1-.43-1.39h0v6h-1.66v-8.4h2.52c.35,1,.66,2,.94,2.82.17.51.31.92.41,1.24s.21.62.3.91.18.54.26.78.13.4.16.5l.15-.5c.08-.24.16-.51.26-.83l.33-1c.11-.36.23-.72.35-1.08q.41-1.29.9-2.82h2.51v8.4h-1.66v-6h0l-.29.9-.37,1.11c-.13.39-.26.79-.4,1.19s-.26.79-.38,1.15l-.33,1c-.1.3-.19.53-.25.7Z"/><path class="cls-4" d="M326.35,352.49v-8.4h5.72v1.49h-3.95v1.84h3.67v1.49h-3.67V351h4v1.49Z"/><path class="cls-4" d="M334.91,344.09h1.88c.48.79.95,1.54,1.39,2.25l.65,1.05c.16.28.33.55.5.83l.48.77.38.62h0v-5.52h1.7v8.4h-1.87c-.48-.78-.93-1.52-1.37-2.22-.25-.42-.47-.76-.64-1l-.51-.83-.48-.79c-.16-.25-.29-.47-.41-.64h0v5.52h-1.71Z"/><path class="cls-4" d="M344.47,344.09h6.66v1.5H348.7v6.9h-1.81v-6.9h-2.42Z"/></g></svg>