<svg xmlns="http://www.w3.org/2000/svg" viewBox="0 0 360 360"><defs><style>.cls-1{fill:#fff;}.cls-2,.cls-3,.cls-4{fill:none;stroke:#fff;stroke-miterlimit:10;}.cls-2{stroke-width:4px;}.cls-4{stroke-width:2px;}</style></defs><g id="BACKGROUND"><rect x="-1" width="360" height="360"/></g><g id="LINE_ONE" data-name="LINE ONE"><path class="cls-1" d="M129.4,234.16h3v11.5h6.12v2.5H129.4Z"/><path class="cls-1" d="M141.64,241.16a9.08,9.08,0,0,1,.49-3,6.64,6.64,0,0,1,1.38-2.29,5.9,5.9,0,0,1,2.15-1.44,8.09,8.09,0,0,1,5.6,0,5.82,5.82,0,0,1,2.15,1.44,6.35,6.35,0,0,1,1.38,2.29,9.74,9.74,0,0,1,0,6.1,6.35,6.35,0,0,1-1.38,2.29,5.94,5.94,0,0,1-2.15,1.44,8.09,8.09,0,0,1-5.6,0,6,6,0,0,1-2.15-1.44,6.64,6.64,0,0,1-1.38-2.29A9.08,9.08,0,0,1,141.64,241.16Zm3.1,0a8,8,0,0,0,.23,2,4.73,4.73,0,0,0,.69,1.52,3.32,3.32,0,0,0,1.16,1,3.7,3.7,0,0,0,1.64.35,3.64,3.64,0,0,0,1.64-.35,3.16,3.16,0,0,0,1.16-1,4.33,4.33,0,0,0,.69-1.52,8.38,8.38,0,0,0,0-3.9,4.33,4.33,0,0,0-.69-1.52,3.06,3.06,0,0,0-1.16-1,3.51,3.51,0,0,0-1.64-.35,3.57,3.57,0,0,0-1.64.35,3.22,3.22,0,0,0-1.16,1,4.73,4.73,0,0,0-.69,1.52A7.9,7.9,0,0,0,144.74,241.16Z"/><path class="cls-1" d="M159.6,241.16a9.12,9.12,0,0,1,.48-3.07,6.39,6.39,0,0,1,1.37-2.29,5.92,5.92,0,0,1,2.16-1.43,7.82,7.82,0,0,1,2.85-.49,6.72,6.72,0,0,1,3.76,1,5.23,5.23,0,0,1,2.16,3l-2.92,1a3.92,3.92,0,0,0-1.08-1.83,2.82,2.82,0,0,0-2-.65,3.51,3.51,0,0,0-1.62.36,3.35,3.35,0,0,0-1.16,1,4.67,4.67,0,0,0-.69,1.51,8.09,8.09,0,0,0,0,3.83,4.87,4.87,0,0,0,.69,1.51,3.38,3.38,0,0,0,1.16,1,3.57,3.57,0,0,0,1.64.36,3,3,0,0,0,1.89-.58,3.57,3.57,0,0,0,1.11-1.76l2.88,1a6,6,0,0,1-2.16,2.8,6.4,6.4,0,0,1-3.76,1,7.78,7.78,0,0,1-2.79-.49,6,6,0,0,1-2.14-1.42,6.3,6.3,0,0,1-1.37-2.29A9.26,9.26,0,0,1,159.6,241.16Z"/><path class="cls-1" d="M188.94,248.16h-3.1l-1.12-3.24h-5l-1.12,3.24h-2.94l5-14h3.22Zm-6.76-10.72a4.69,4.69,0,0,1-.14.47c-.06.21-.14.44-.22.7s-.17.54-.27.84-.19.59-.29.87c-.22.69-.47,1.43-.74,2.22h3.38l-.74-2.22-.35-1q-.12-.39-.24-.75c-.07-.24-.14-.46-.21-.67l-.14-.47Z"/><path class="cls-1" d="M193.08,234.16h3v11.5h6.12v2.5h-9.12Z"/><path class="cls-1" d="M206.4,234.16h3v11.5h6.12v2.5H206.4Z"/><path class="cls-1" d="M221.56,242.3l-5.3-8.14h3.44l3.42,5.36,3.4-5.36h3.34l-5.3,8.14v5.86h-3Z"/></g><g id="LINE_TWO" data-name="LINE TWO"><path class="cls-1" d="M128,255.62a1.34,1.34,0,0,0,.78,1.29,8.75,8.75,0,0,0,2.48.67,7.86,7.86,0,0,1,3.67,1.38,3.49,3.49,0,0,1,1.17,2.86,3.92,3.92,0,0,1-.42,1.83A4.07,4.07,0,0,1,134.5,265a5.35,5.35,0,0,1-1.79.88,7.72,7.72,0,0,1-2.26.31,7.39,7.39,0,0,1-2.38-.35,5.88,5.88,0,0,1-1.8-.93,4.3,4.3,0,0,1-1.16-1.36,3.81,3.81,0,0,1-.46-1.62l3-.48a2.56,2.56,0,0,0,.79,1.67,2.8,2.8,0,0,0,2,.65,4.61,4.61,0,0,0,1-.1,2.08,2.08,0,0,0,.82-.33,1.58,1.58,0,0,0,.55-.57,1.51,1.51,0,0,0,.2-.82,1.33,1.33,0,0,0-.65-1.2,6.45,6.45,0,0,0-2.29-.68,16.15,16.15,0,0,1-2-.46,5.34,5.34,0,0,1-1.63-.77,3.42,3.42,0,0,1-1.08-1.22,3.73,3.73,0,0,1-.39-1.79,4.09,4.09,0,0,1,.4-1.84,3.81,3.81,0,0,1,1.12-1.31,5,5,0,0,1,1.7-.78,8.45,8.45,0,0,1,4.16,0,5.65,5.65,0,0,1,1.67.74,4.49,4.49,0,0,1,1.21,1.21,4.56,4.56,0,0,1,.66,1.64l-3,.66a2.43,2.43,0,0,0-.82-1.52,2.67,2.67,0,0,0-1.78-.56,2.78,2.78,0,0,0-1.69.42A1.36,1.36,0,0,0,128,255.62Z"/><path class="cls-1" d="M140.17,258.94a9.08,9.08,0,0,1,.49-3.05A6.64,6.64,0,0,1,142,253.6a6.16,6.16,0,0,1,2.15-1.44,8.09,8.09,0,0,1,5.6,0,6.07,6.07,0,0,1,2.15,1.44,6.35,6.35,0,0,1,1.38,2.29,9.74,9.74,0,0,1,0,6.1,6.27,6.27,0,0,1-1.38,2.29,5.82,5.82,0,0,1-2.15,1.44,8.09,8.09,0,0,1-5.6,0,5.9,5.9,0,0,1-2.15-1.44,6.55,6.55,0,0,1-1.38-2.29A9,9,0,0,1,140.17,258.94Zm3.1,0a7.9,7.9,0,0,0,.23,1.95,4.63,4.63,0,0,0,.69,1.52,3.22,3.22,0,0,0,1.16,1,3.57,3.57,0,0,0,1.64.35,3.51,3.51,0,0,0,1.64-.35,3.06,3.06,0,0,0,1.16-1,4.25,4.25,0,0,0,.69-1.52,7.45,7.45,0,0,0,.23-1.95,7.56,7.56,0,0,0-.23-1.95,4.33,4.33,0,0,0-.69-1.52,3.16,3.16,0,0,0-1.16-1,3.64,3.64,0,0,0-1.64-.35,3.7,3.7,0,0,0-1.64.35,3.32,3.32,0,0,0-1.16,1,4.73,4.73,0,0,0-.69,1.52A8,8,0,0,0,143.27,258.94Z"/><path class="cls-1" d="M164,266.22a5.59,5.59,0,0,1-4.26-1.44,5.65,5.65,0,0,1-1.34-4v-8.84h3v8.86a3.38,3.38,0,0,0,.64,2.11,2.73,2.73,0,0,0,3.92,0,3.32,3.32,0,0,0,.64-2.11v-8.86h3v8.84a4.9,4.9,0,0,1-5.6,5.44Z"/><path class="cls-1" d="M185.31,256.2a4.17,4.17,0,0,1-.71,2.54,4.08,4.08,0,0,1-1.95,1.46l3.22,5.74h-3.3l-2.9-5.3h-1.86v5.3h-3v-14H180a9.33,9.33,0,0,1,2.21.25,4.87,4.87,0,0,1,1.69.77,3.46,3.46,0,0,1,1.08,1.32A4.39,4.39,0,0,1,185.31,256.2Zm-3.08,0a1.49,1.49,0,0,0-.65-1.41,3.92,3.92,0,0,0-2-.38h-1.8v3.77h1.8a3.48,3.48,0,0,0,2-.45A1.71,1.71,0,0,0,182.23,256.22Z"/><path class="cls-1" d="M189.77,258.94a9.16,9.16,0,0,1,.48-3.07,6.47,6.47,0,0,1,1.37-2.29,6,6,0,0,1,2.16-1.43,8,8,0,0,1,2.85-.49,6.81,6.81,0,0,1,3.76,1,5.29,5.29,0,0,1,2.16,3l-2.92,1a4,4,0,0,0-1.08-1.83,2.86,2.86,0,0,0-2-.65,3.51,3.51,0,0,0-1.62.36,3.46,3.46,0,0,0-1.16,1,4.77,4.77,0,0,0-.69,1.51,7.77,7.77,0,0,0-.23,1.92,7.57,7.57,0,0,0,.23,1.91,4.77,4.77,0,0,0,.69,1.51,3.28,3.28,0,0,0,1.16,1,3.57,3.57,0,0,0,1.64.36,2.9,2.9,0,0,0,1.89-.58,3.49,3.49,0,0,0,1.11-1.75l2.88,1a5.9,5.9,0,0,1-2.16,2.8,6.33,6.33,0,0,1-3.76,1,7.57,7.57,0,0,1-2.79-.49,5.9,5.9,0,0,1-2.14-1.42,6.3,6.3,0,0,1-1.37-2.29A9.18,9.18,0,0,1,189.77,258.94Z"/><path class="cls-1" d="M207,265.94v-14h9.54v2.49h-6.58v3.07H216V260h-6.12v3.48h6.68v2.48Z"/><path class="cls-1" d="M221.23,251.94h5.22a8.36,8.36,0,0,1,2.88.47,5.82,5.82,0,0,1,2.16,1.36,6,6,0,0,1,1.35,2.19,9.71,9.71,0,0,1,0,6,5.83,5.83,0,0,1-1.35,2.18,5.57,5.57,0,0,1-2.16,1.36,8.13,8.13,0,0,1-2.88.47h-5.22Zm9,7a6.57,6.57,0,0,0-.23-1.84,3.87,3.87,0,0,0-.7-1.44,3.11,3.11,0,0,0-1.19-.92,4.26,4.26,0,0,0-1.72-.31h-2.12v9h2.12a4.1,4.1,0,0,0,1.72-.32,3,3,0,0,0,1.19-.92,3.83,3.83,0,0,0,.7-1.43A6.65,6.65,0,0,0,230.21,258.94Z"/></g><g id="ICON"><path class="cls-2" d="M179.93,203.92c-1.89-2.9-3.74-5.69-5.54-8.49-5.9-9.17-11.61-18.46-16.92-28A208.75,208.75,0,0,1,147,146.89a35.58,35.58,0,0,1,10.94-42,33.93,33.93,0,0,1,25-7.39c14.44,1.48,24.62,9.1,30.16,22.46,3.91,9.45,3.35,19-.87,28.35a288.81,288.81,0,0,1-14.14,26.65c-5.67,9.69-11.67,19.16-17.87,28.51Zm0-3.45.4-.55c6.08-9.27,12-18.65,17.52-28.25a264.47,264.47,0,0,0,12.88-24.57,33.86,33.86,0,0,0-29.49-47.91c-10.08-.29-18.84,3.09-25.69,10.49-9.4,10.13-11.85,22-7.29,35,2.52,7.19,6.39,13.79,10.08,20.44,5.48,9.9,11.39,19.55,17.53,29.06C177.19,196.27,178.53,198.31,179.93,200.47Z"/><path class="cls-3" d="M154,132.09a25.65,25.65,0,1,1,25.76,25.59A25.75,25.75,0,0,1,154,132.09Z"/><path class="cls-4" d="M192.92,138.25c-7.31,1.79-12.45,7-12.23,12.31C184.54,151.05,190.92,145.79,192.92,138.25Zm-14,12.34c0-5.5-5.91-11.36-12.21-12.22C167.9,144.45,173.89,150.51,178.92,150.59Zm.85-36.8c-3.58,5.13-3.53,11.31,0,14.23C183.62,124.62,183.64,119,179.77,113.79ZM190.52,128c-6.4.68-11.23,5.81-9.63,10.07C185.83,138.24,189.6,132.94,190.52,128ZM169,128c1.31,6.17,5.25,10.15,9.79,10C180.23,133.48,174.73,128.46,169,128Zm10.77,0v30.29"/></g></svg>