<svg xmlns="http://www.w3.org/2000/svg" viewBox="0 0 360 360"><defs><style>.cls-1{fill:#fff;}.cls-2,.cls-3,.cls-4{fill:none;stroke-linecap:round;stroke-miterlimit:10;}.cls-2,.cls-4{stroke:#fff;}.cls-2{stroke-width:7px;}.cls-3{stroke:#231f20;stroke-width:5px;}.cls-4{stroke-width:3px;}</style></defs><g id="BACKGROUND"><rect width="360" height="360"/></g><g id="LINE_ONE" data-name="LINE ONE"><path class="cls-1" d="M129.75,234.16h3v5.54h5.3v-5.54h3v14h-3v-5.94h-5.3v5.94h-3Z"/><path class="cls-1" d="M146.33,248.16v-14h9.54v2.48h-6.58v3.08h6.12v2.48h-6.12v3.48H156v2.48Z"/><path class="cls-1" d="M172.77,248.16h-3.1l-1.12-3.24h-5l-1.12,3.24h-2.94l5-14h3.22ZM166,237.44c0,.1-.07.26-.14.47s-.14.44-.22.7-.17.54-.27.84l-.29.87c-.22.69-.47,1.43-.74,2.22h3.38c-.27-.79-.51-1.53-.74-2.22-.15-.4-.26-.73-.35-1s-.17-.51-.24-.75-.14-.47-.21-.67l-.14-.47Z"/><path class="cls-1" d="M176.91,234.16h3v11.5H186v2.5h-9.12Z"/><path class="cls-1" d="M187.27,234.16h11.1v2.5h-4v11.5h-3v-11.5h-4Z"/><path class="cls-1" d="M202.59,234.16h3v5.54h5.3v-5.54h3v14h-3v-5.94h-5.3v5.94h-3Z"/><path class="cls-1" d="M223.21,242.3l-5.3-8.14h3.44l3.42,5.36,3.4-5.36h3.34l-5.3,8.14v5.86h-3Z"/></g><g id="LINE_TWO" data-name="LINE TWO"><path class="cls-1" d="M122.52,265.94c-.2-.54-.45-1.26-.75-2.15s-.61-1.81-.93-2.77-.63-1.9-.93-2.82-.54-1.69-.73-2.32h-.06v10.06h-2.76v-14h4.2q.87,2.56,1.56,4.7.42,1.29.69,2.07c.18.53.35,1,.5,1.51s.3.92.42,1.3.22.67.27.84c.06-.17.14-.45.26-.84s.27-.84.43-1.37.35-1.09.54-1.7.39-1.21.59-1.81q.69-2.13,1.5-4.7h4.18v14h-2.76V255.88h-.06c-.13.42-.29.91-.48,1.49s-.39,1.2-.61,1.85-.44,1.32-.67,2-.44,1.32-.64,1.92-.38,1.16-.55,1.65-.3.88-.41,1.16Z"/><path class="cls-1" d="M148.94,265.94h-3.1l-1.12-3.24h-5l-1.12,3.24h-2.94l5-14h3.22Zm-6.76-10.72a3.53,3.53,0,0,1-.14.47c-.06.21-.14.44-.22.7s-.17.54-.27.84-.19.59-.29.87c-.22.7-.47,1.44-.74,2.22h3.38c-.27-.78-.51-1.52-.74-2.22l-.35-1q-.12-.39-.24-.75c-.07-.24-.14-.46-.21-.67l-.14-.47Z"/><path class="cls-1" d="M150.42,251.94h11.1v2.5h-4v11.5h-3v-11.5h-4Z"/><path class="cls-1" d="M165.74,265.94v-14h9.54v2.48H168.7v3.08h6.12V260H168.7v3.48h6.68v2.48Z"/><path class="cls-1" d="M190.5,256.2a3.94,3.94,0,0,1-2.66,4l3.22,5.74h-3.3l-2.9-5.3H183v5.3h-3v-14h5.12a9.33,9.33,0,0,1,2.21.25A4.87,4.87,0,0,1,189,253a3.46,3.46,0,0,1,1.08,1.32A4.39,4.39,0,0,1,190.5,256.2Zm-3.08,0a1.49,1.49,0,0,0-.65-1.41,3.91,3.91,0,0,0-2-.39H183v3.78h1.8a3.48,3.48,0,0,0,2-.45A1.71,1.71,0,0,0,187.42,256.22Z"/><path class="cls-1" d="M195.54,251.94h3v14h-3Z"/><path class="cls-1" d="M216,265.94h-3.1l-1.12-3.24h-5l-1.12,3.24h-2.94l5-14h3.22Zm-6.76-10.72a3.53,3.53,0,0,1-.14.47c-.06.21-.14.44-.22.7s-.17.54-.27.84-.19.59-.29.87c-.22.7-.47,1.44-.74,2.22h3.38l-.74-2.22-.35-1q-.12-.39-.24-.75c-.07-.24-.14-.46-.21-.67l-.14-.47Z"/><path class="cls-1" d="M220.12,251.94h3v11.5h6.12v2.5h-9.12Z"/><path class="cls-1" d="M236.16,255.62a1.34,1.34,0,0,0,.78,1.29,9.1,9.1,0,0,0,2.48.67,7.86,7.86,0,0,1,3.67,1.38,3.49,3.49,0,0,1,1.17,2.86,3.92,3.92,0,0,1-.42,1.83,4.07,4.07,0,0,1-1.17,1.38,5.35,5.35,0,0,1-1.79.88,7.72,7.72,0,0,1-2.26.31,7.39,7.39,0,0,1-2.38-.35,5.88,5.88,0,0,1-1.8-.93,4.3,4.3,0,0,1-1.16-1.36,3.81,3.81,0,0,1-.46-1.62l3-.48a2.56,2.56,0,0,0,.79,1.67,2.8,2.8,0,0,0,2,.65,4.61,4.61,0,0,0,1-.1,2.08,2.08,0,0,0,.82-.33,1.58,1.58,0,0,0,.55-.57,1.61,1.61,0,0,0,.2-.82,1.33,1.33,0,0,0-.65-1.2,6.45,6.45,0,0,0-2.29-.68,16.15,16.15,0,0,1-2-.46,5.23,5.23,0,0,1-1.63-.77,3.42,3.42,0,0,1-1.08-1.22,3.73,3.73,0,0,1-.39-1.79,4,4,0,0,1,.4-1.84,3.81,3.81,0,0,1,1.12-1.31,5.22,5.22,0,0,1,1.7-.79,8.54,8.54,0,0,1,2.14-.26,8.1,8.1,0,0,1,2,.25,5.65,5.65,0,0,1,1.67.74,4.36,4.36,0,0,1,1.21,1.21,4.49,4.49,0,0,1,.66,1.64l-3,.66a2.43,2.43,0,0,0-.82-1.52,2.67,2.67,0,0,0-1.78-.56,2.78,2.78,0,0,0-1.69.42A1.34,1.34,0,0,0,236.16,255.62Z"/></g><g id="ICON"><line class="cls-2" x1="223.19" y1="118.55" x2="136.52" y2="169.48"/><path class="cls-1" d="M180,97.24a47.09,47.09,0,1,1-47.09,47.09A47.14,47.14,0,0,1,180,97.24m0-7a54.09,54.09,0,1,0,54.09,54.09A54.09,54.09,0,0,0,180,90.24Z"/><polygon points="198.18 155.68 186.23 135.28 186.23 114.41 174.66 114.41 174.66 135.28 162.71 155.68 198.18 155.68"/><path class="cls-1" d="M204,166.3l-6.22-10.62H162.26L156,166.3a4.91,4.91,0,0,0,4.24,7.39h39.44A4.91,4.91,0,0,0,204,166.3Z"/><path class="cls-3" d="M187.91,114.41V134.7l17.88,30.53a7,7,0,0,1-6.07,10.58H160.28a7,7,0,0,1-6.07-10.58l17.88-30.53V114.41"/><path class="cls-4" d="M185.79,114.41v20.87l18.17,31a4.91,4.91,0,0,1-4.24,7.39H160.28A4.91,4.91,0,0,1,156,166.3l18.17-31V114.41"/><circle class="cls-1" cx="180.44" cy="150.68" r="3.64"/><circle class="cls-1" cx="173.68" cy="148.34" r="2.51"/><circle class="cls-1" cx="177.47" cy="145.53" r="1.78"/><polyline class="cls-4" points="191.29 114.41 180 114.41 168.71 114.41"/></g></svg>