<svg xmlns="http://www.w3.org/2000/svg" xmlns:xlink="http://www.w3.org/1999/xlink" viewBox="0 0 360 360"><defs><style>.cls-1,.cls-10,.cls-3,.cls-5,.cls-6,.cls-7,.cls-8,.cls-9{fill:none;}.cls-2{fill:#fff;}.cls-10,.cls-3,.cls-5,.cls-6,.cls-7,.cls-8,.cls-9{stroke:#fff;stroke-miterlimit:10;}.cls-3{stroke-width:3px;}.cls-4{clip-path:url(#clip-path);}.cls-10,.cls-6,.cls-8{stroke-linecap:round;}.cls-7,.cls-8{stroke-width:0.75px;}.cls-10,.cls-9{stroke-width:1.5px;}</style><clipPath id="clip-path"><rect class="cls-1" x="133.06" y="97.46" width="93.88" height="93.88"/></clipPath></defs><g id="BACKGROUND"><rect x="-1" width="360" height="360"/></g><g id="LINE_ONE" data-name="LINE ONE"><path class="cls-2" d="M130.87,241.16a9.12,9.12,0,0,1,.48-3.07,6.39,6.39,0,0,1,1.37-2.29,5.64,5.64,0,0,1,2.16-1.43,7.82,7.82,0,0,1,2.85-.49,6.75,6.75,0,0,1,3.76,1,5.32,5.32,0,0,1,2.16,3l-2.92,1a3.92,3.92,0,0,0-1.08-1.83,2.82,2.82,0,0,0-2-.65,3.51,3.51,0,0,0-1.62.36,3.26,3.26,0,0,0-1.16,1,4.28,4.28,0,0,0-.69,1.51,8.09,8.09,0,0,0,0,3.83,4.45,4.45,0,0,0,.69,1.51,3.29,3.29,0,0,0,1.16,1,3.54,3.54,0,0,0,1.64.36,3,3,0,0,0,1.89-.58,3.57,3.57,0,0,0,1.11-1.76l2.88,1a6.07,6.07,0,0,1-2.16,2.8,6.42,6.42,0,0,1-3.76,1,7.7,7.7,0,0,1-2.79-.49,5.94,5.94,0,0,1-2.14-1.42,6.39,6.39,0,0,1-1.37-2.29A9.26,9.26,0,0,1,130.87,241.16Z"/><path class="cls-2" d="M160.21,248.16h-3.1L156,244.92h-5l-1.12,3.24h-2.94l5-14h3.22Zm-6.76-10.72c0,.1-.07.26-.14.47s-.14.44-.22.7-.17.54-.27.84l-.29.87c-.23.69-.47,1.43-.74,2.22h3.38c-.27-.79-.51-1.53-.74-2.22-.15-.4-.26-.73-.35-1s-.17-.51-.24-.75-.14-.47-.21-.67-.11-.37-.14-.47Z"/><path class="cls-2" d="M170.51,248.16c-.2-.55-.45-1.27-.75-2.15l-.93-2.77q-.48-1.44-.93-2.82c-.3-.92-.54-1.7-.73-2.32h-.06v10.06h-2.76v-14h4.2q.85,2.55,1.56,4.7.42,1.27.69,2.07c.18.52.35,1,.5,1.51s.29.91.42,1.3.22.66.27.84c0-.18.14-.46.26-.84s.26-.85.43-1.37l.54-1.7c.19-.61.39-1.21.59-1.81q.67-2.15,1.5-4.7h4.18v14h-2.76V238.1h-.06l-.48,1.49-.61,1.85-.67,2c-.23.67-.44,1.31-.64,1.92l-.55,1.65c-.17.49-.3.88-.41,1.16Z"/><path class="cls-2" d="M187.75,243.24v4.92h-3v-14h5.32a8.93,8.93,0,0,1,2.28.26,4.81,4.81,0,0,1,1.74.8,3.7,3.7,0,0,1,1.12,1.38,4.61,4.61,0,0,1,.4,2,4.87,4.87,0,0,1-.41,2.07,3.85,3.85,0,0,1-1.14,1.44,4.83,4.83,0,0,1-1.75.84,8.76,8.76,0,0,1-2.24.27Zm4.82-4.62a1.68,1.68,0,0,0-.69-1.56,4.11,4.11,0,0,0-2.09-.42h-2v4.12h2a3.6,3.6,0,0,0,2.09-.5A1.9,1.9,0,0,0,192.57,238.62Z"/><path class="cls-2" d="M205.55,248.44a5.56,5.56,0,0,1-4.26-1.44,5.67,5.67,0,0,1-1.34-4v-8.84h3V243a3.35,3.35,0,0,0,.64,2.11,2.73,2.73,0,0,0,3.92,0,3.35,3.35,0,0,0,.64-2.11v-8.86h3V243a5.67,5.67,0,0,1-1.34,4A5.56,5.56,0,0,1,205.55,248.44Z"/><path class="cls-2" d="M219.07,237.84a1.34,1.34,0,0,0,.78,1.29,9.48,9.48,0,0,0,2.48.67,7.86,7.86,0,0,1,3.67,1.38,3.48,3.48,0,0,1,1.17,2.86,3.92,3.92,0,0,1-.42,1.83,4.07,4.07,0,0,1-1.17,1.38,5.65,5.65,0,0,1-1.79.88,8.12,8.12,0,0,1-2.26.31,7.68,7.68,0,0,1-2.38-.35,6.1,6.1,0,0,1-1.8-.93,4.41,4.41,0,0,1-1.16-1.36,3.81,3.81,0,0,1-.46-1.62l3-.48a2.58,2.58,0,0,0,.79,1.67,2.84,2.84,0,0,0,2,.65,5.32,5.32,0,0,0,1-.1,2.52,2.52,0,0,0,.82-.33,1.86,1.86,0,0,0,.55-.57,1.63,1.63,0,0,0,.2-.82,1.35,1.35,0,0,0-.65-1.2,6.31,6.31,0,0,0-2.29-.68,18.1,18.1,0,0,1-2-.46,5.72,5.72,0,0,1-1.63-.77,3.6,3.6,0,0,1-1.08-1.22,3.79,3.79,0,0,1-.39-1.79,3.93,3.93,0,0,1,.4-1.84,3.72,3.72,0,0,1,1.12-1.31,4.84,4.84,0,0,1,1.7-.79,8,8,0,0,1,2.14-.26,7.71,7.71,0,0,1,2,.25,5.28,5.28,0,0,1,1.67.74,4.23,4.23,0,0,1,1.21,1.21,4.42,4.42,0,0,1,.66,1.64l-3,.66a2.45,2.45,0,0,0-.82-1.52,2.62,2.62,0,0,0-1.78-.56,2.78,2.78,0,0,0-1.69.42A1.33,1.33,0,0,0,219.07,237.84Z"/></g><g id="LINE_TWO" data-name="LINE TWO"><path class="cls-2" d="M146,251.94c.49,1.4,1,2.76,1.4,4.06q.4,1.14.66,1.92l.52,1.57.5,1.53.42,1.32h0L150,261l.51-1.59c.18-.56.37-1.13.57-1.72l.58-1.7c.44-1.3.91-2.66,1.4-4.06h3.08l-5.16,14h-3.06l-5.1-14Z"/><path class="cls-2" d="M160.22,251.94h3v14h-3Z"/><path class="cls-2" d="M168.5,265.94v-14H178v2.48h-6.58v3.08h6.12V260h-6.12v3.48h6.68v2.48Z"/><path class="cls-2" d="M199.94,251.94l-3.5,14H193c-.29-1.29-.57-2.52-.84-3.7l-.4-1.74c-.11-.46-.21-.93-.31-1.4s-.2-.91-.3-1.34-.18-.79-.25-1.1h-.06q-.11.46-.24,1.11c-.09.44-.2.9-.32,1.39l-.36,1.53c-.12.53-.24,1.05-.36,1.55-.28,1.18-.58,2.41-.9,3.7h-3.48l-3.52-14h3c.35,1.5.67,2.92,1,4.26.17.8.32,1.46.44,2s.23,1,.34,1.56.21,1,.31,1.48.18.86.23,1.18H187c.07-.32.15-.71.25-1.19s.21-1,.34-1.53.26-1.12.4-1.72.28-1.18.41-1.76l1-4.26h2.82l1,4.26c.19.8.34,1.46.47,2s.25,1,.37,1.56.23,1,.33,1.48.18.86.25,1.18h.06c.07-.32.15-.71.25-1.19l.33-1.53c.12-.54.25-1.12.38-1.72s.27-1.18.4-1.76c.32-1.34.65-2.76,1-4.26Z"/><path class="cls-2" d="M206.58,255.62a1.34,1.34,0,0,0,.78,1.29,9.1,9.1,0,0,0,2.48.67,7.86,7.86,0,0,1,3.67,1.38,3.49,3.49,0,0,1,1.17,2.86,3.92,3.92,0,0,1-.42,1.83,4.07,4.07,0,0,1-1.17,1.38,5.44,5.44,0,0,1-1.79.88,7.77,7.77,0,0,1-2.26.31,7.39,7.39,0,0,1-2.38-.35,5.66,5.66,0,0,1-1.8-.93,4.3,4.3,0,0,1-1.16-1.36,3.81,3.81,0,0,1-.46-1.62l3-.48a2.56,2.56,0,0,0,.79,1.67,2.8,2.8,0,0,0,2,.65,4.61,4.61,0,0,0,1-.1,2.14,2.14,0,0,0,.82-.33,1.66,1.66,0,0,0,.55-.57,1.61,1.61,0,0,0,.2-.82,1.35,1.35,0,0,0-.65-1.2,6.52,6.52,0,0,0-2.29-.68,16.15,16.15,0,0,1-2-.46,5.23,5.23,0,0,1-1.63-.77,3.42,3.42,0,0,1-1.08-1.22,3.73,3.73,0,0,1-.39-1.79,4,4,0,0,1,.4-1.84,3.81,3.81,0,0,1,1.12-1.31,5.22,5.22,0,0,1,1.7-.79,8.48,8.48,0,0,1,2.14-.26,8.16,8.16,0,0,1,2,.25,5.77,5.77,0,0,1,1.67.74,4.36,4.36,0,0,1,1.21,1.21,4.49,4.49,0,0,1,.66,1.64l-3,.66a2.48,2.48,0,0,0-.82-1.52,2.67,2.67,0,0,0-1.78-.56,2.78,2.78,0,0,0-1.69.42A1.34,1.34,0,0,0,206.58,255.62Z"/></g><g id="ICON"><rect class="cls-3" x="126" y="90.4" width="108" height="108"/><rect class="cls-3" x="133.06" y="97.46" width="93.88" height="93.88"/><line class="cls-3" x1="180" y1="96.43" x2="180" y2="191.34"/><line class="cls-3" x1="133.06" y1="143.89" x2="226.94" y2="143.89"/><g class="cls-4"><path class="cls-5" d="M77.56,152.64l3.64.67h4.23l1.37-.67h1.09l1.08.67h1.18L91.43,155h2.26l1.67-1.2,1.18-1.2L98,151.7h2.26l.59,1.07,1.38-.53,1-1.07h8.37l2.55-.94,2.17-2.14s1.28.54,1.57,0,2.86-1.34,2.86-1.34l2.16-1.05,2.46-2.69H128l2.36-1.47h1.47l.5-1.61,5.8-3.07,3.35-2.28,3.14-2.14,1.38-1.06.49,1.06,1.18-1.06h1.68L151,132l1.69-.66h1.66l1.47.66,1.38-.66,1,.8,1.28,1.33.59.27,1.58-1.34,1.18-.26h2.36l.49-.8h1.77l1.67.8,1.68-.8,1.37,1.33,2.07,1.61,1.77.4,1.48.4,2.45,1.47,2.07,1.87,1.58,1.61,2.45,1.74,2.07,1.4,2.26,1.54,3.35.95,2.06,1.32,2.54.72,1-.68,2.23.21,2.39,1.15,1.62.47h1.28l1.77,1.74,1.19-.27,1.67.27.78.94,1.19-1.34,1.86-.94,1.19.81,2.85.67,1.47.13,1.48-.4,2.36.67,1.38,1.33,3-.4,2.07.4,1.57-.53"/></g><circle class="cls-5" cx="208.05" cy="118.84" r="5.63"/><line class="cls-6" x1="208.05" y1="111.45" x2="208.05" y2="106.43"/><line class="cls-6" x1="208.05" y1="131.24" x2="208.05" y2="126.22"/><line class="cls-6" x1="215.43" y1="118.84" x2="220.46" y2="118.84"/><line class="cls-6" x1="195.64" y1="118.84" x2="200.66" y2="118.84"/><line class="cls-6" x1="213.27" y1="113.62" x2="216.82" y2="110.06"/><line class="cls-6" x1="199.27" y1="127.61" x2="202.83" y2="124.06"/><line class="cls-6" x1="213.27" y1="124.06" x2="216.82" y2="127.61"/><line class="cls-6" x1="199.27" y1="110.06" x2="202.83" y2="113.62"/><line class="cls-7" x1="138.21" y1="145.02" x2="138.21" y2="163.47"/><polyline class="cls-8" points="134.76 148.49 138.22 145.02 141.66 148.46"/><polyline class="cls-8" points="134.76 151.44 138.22 147.97 141.66 151.41"/><polyline class="cls-8" points="134.76 154.39 138.22 150.93 141.66 154.36"/><polyline class="cls-8" points="134.76 157.35 138.22 153.88 141.66 157.32"/><line class="cls-7" x1="154.27" y1="149.39" x2="154.27" y2="167.84"/><polyline class="cls-8" points="150.82 152.86 154.29 149.39 157.72 152.83"/><polyline class="cls-8" points="150.82 155.81 154.29 152.34 157.72 155.78"/><polyline class="cls-8" points="150.82 158.76 154.29 155.3 157.72 158.74"/><polyline class="cls-8" points="150.82 161.72 154.29 158.25 157.72 161.69"/><line class="cls-7" x1="183.72" y1="149.56" x2="183.72" y2="168"/><polyline class="cls-8" points="180.27 153.02 183.74 149.56 187.18 152.99"/><polyline class="cls-8" points="180.27 155.98 183.74 152.51 187.18 155.95"/><polyline class="cls-8" points="180.27 158.93 183.74 155.46 187.18 158.9"/><polyline class="cls-8" points="180.27 161.88 183.74 158.42 187.18 161.85"/><line class="cls-7" x1="172.59" y1="145.37" x2="172.59" y2="163.81"/><polyline class="cls-8" points="169.13 148.83 172.6 145.37 176.04 148.8"/><polyline class="cls-8" points="169.13 151.79 172.6 148.32 176.04 151.76"/><polyline class="cls-8" points="169.13 154.74 172.6 151.28 176.04 154.71"/><polyline class="cls-8" points="169.13 157.69 172.6 154.23 176.04 157.66"/><line class="cls-9" x1="144.05" y1="161.18" x2="144.05" y2="191.34"/><polyline class="cls-10" points="137.74 167.51 144.07 161.18 150.35 167.45"/><polyline class="cls-10" points="137.74 172.9 144.07 166.57 150.35 172.85"/><polyline class="cls-10" points="137.74 178.3 144.07 171.97 150.35 178.24"/><polyline class="cls-10" points="137.74 183.69 144.07 177.36 150.35 183.64"/><line class="cls-9" x1="164.18" y1="161.18" x2="164.18" y2="191.06"/><polyline class="cls-10" points="157.87 167.51 164.2 161.18 170.48 167.45"/><polyline class="cls-10" points="157.87 172.9 164.2 166.57 170.48 172.85"/><polyline class="cls-10" points="157.87 178.3 164.2 171.97 170.48 178.24"/><polyline class="cls-10" points="157.87 183.69 164.2 177.36 170.48 183.64"/><line class="cls-7" x1="203.01" y1="144.37" x2="203.01" y2="162.81"/><polyline class="cls-8" points="199.56 147.83 203.03 144.37 206.46 147.8"/><polyline class="cls-8" points="199.56 150.79 203.03 147.32 206.46 150.76"/><polyline class="cls-8" points="199.56 153.74 203.03 150.28 206.46 153.71"/><polyline class="cls-8" points="199.56 156.69 203.03 153.23 206.46 156.66"/><line class="cls-7" x1="222.55" y1="149.41" x2="222.55" y2="167.85"/><polyline class="cls-8" points="219.1 152.87 222.56 149.41 226 152.84"/><polyline class="cls-8" points="219.1 155.83 222.56 152.36 226 155.8"/><polyline class="cls-8" points="219.1 158.78 222.56 155.31 226 158.75"/><polyline class="cls-8" points="219.1 161.73 222.56 158.27 226 161.7"/><line class="cls-9" x1="193.75" y1="160.83" x2="193.75" y2="191.34"/><polyline class="cls-10" points="187.45 167.16 193.78 160.83 200.06 167.1"/><polyline class="cls-10" points="187.45 172.56 193.78 166.22 200.06 172.5"/><polyline class="cls-10" points="187.45 177.95 193.78 171.62 200.06 177.9"/><polyline class="cls-10" points="187.45 183.35 193.78 177.01 200.06 183.29"/><line class="cls-9" x1="211.88" y1="160.83" x2="211.88" y2="191.34"/><polyline class="cls-10" points="205.58 167.16 211.91 160.83 218.19 167.1"/><polyline class="cls-10" points="205.58 172.56 211.91 166.22 218.19 172.5"/><polyline class="cls-10" points="205.58 177.95 211.91 171.62 218.19 177.9"/><polyline class="cls-10" points="205.58 183.35 211.91 177.01 218.19 183.29"/></g></svg>