<svg xmlns="http://www.w3.org/2000/svg" viewBox="0 0 360 360"><defs><style>.cls-1{fill:#f1f2f2;}.cls-2{fill:#0e6e39;}.cls-3{fill:#fff;}.cls-4{fill:#0c6e39;}</style></defs><g id="BACKGROUND"><rect class="cls-1" x="1.29" y="-0.6" width="360" height="360"/></g><g id="LINE_ONE" data-name="LINE ONE"><path class="cls-2" d="M105.55,248.16h-3.1l-1.12-3.24h-5l-1.12,3.24H92.25l5-14h3.22Zm-6.76-10.72-.14.47c-.07.2-.14.44-.22.7s-.17.54-.27.84-.2.59-.29.87l-.74,2.22h3.38c-.27-.79-.52-1.53-.74-2.22-.15-.4-.27-.73-.35-1s-.17-.51-.24-.75-.15-.47-.21-.67a4.69,4.69,0,0,1-.14-.47Z"/><path class="cls-2" d="M108.41,241.16a9.12,9.12,0,0,1,.48-3.07,6.25,6.25,0,0,1,1.37-2.29,5.64,5.64,0,0,1,2.16-1.43,7.74,7.74,0,0,1,2.85-.49,6.77,6.77,0,0,1,3.76,1,5.32,5.32,0,0,1,2.16,3l-2.92,1a3.92,3.92,0,0,0-1.08-1.83,2.82,2.82,0,0,0-2-.65,3.46,3.46,0,0,0-1.62.36,3.18,3.18,0,0,0-1.16,1,4.28,4.28,0,0,0-.69,1.51,8.09,8.09,0,0,0,0,3.83,4.45,4.45,0,0,0,.69,1.51,3.21,3.21,0,0,0,1.16,1,3.51,3.51,0,0,0,1.64.36,3,3,0,0,0,1.89-.58,3.72,3.72,0,0,0,1.11-1.76l2.88,1a6.07,6.07,0,0,1-2.16,2.8,6.44,6.44,0,0,1-3.76,1,7.7,7.7,0,0,1-2.79-.49,5.86,5.86,0,0,1-2.14-1.42,6.25,6.25,0,0,1-1.37-2.29A9.26,9.26,0,0,1,108.41,241.16Z"/><path class="cls-2" d="M125,241.16a9.12,9.12,0,0,1,.48-3.07,6.25,6.25,0,0,1,1.37-2.29,5.64,5.64,0,0,1,2.16-1.43,7.74,7.74,0,0,1,2.85-.49,6.77,6.77,0,0,1,3.76,1,5.32,5.32,0,0,1,2.16,3l-2.92,1a3.92,3.92,0,0,0-1.08-1.83,2.82,2.82,0,0,0-2-.65,3.46,3.46,0,0,0-1.62.36,3.18,3.18,0,0,0-1.16,1,4.28,4.28,0,0,0-.69,1.51,8.09,8.09,0,0,0,0,3.83,4.45,4.45,0,0,0,.69,1.51,3.21,3.21,0,0,0,1.16,1,3.51,3.51,0,0,0,1.64.36,3,3,0,0,0,1.89-.58,3.72,3.72,0,0,0,1.11-1.76l2.88,1a6.07,6.07,0,0,1-2.16,2.8,6.44,6.44,0,0,1-3.76,1A7.7,7.7,0,0,1,129,248a5.86,5.86,0,0,1-2.14-1.42,6.25,6.25,0,0,1-1.37-2.29A9.26,9.26,0,0,1,125,241.16Z"/><path class="cls-2" d="M142.19,248.16v-14h9.54v2.48h-6.58v3.08h6.12v2.48h-6.12v3.48h6.68v2.48Z"/><path class="cls-2" d="M159.19,237.84a1.34,1.34,0,0,0,.78,1.29,9.36,9.36,0,0,0,2.48.67,7.91,7.91,0,0,1,3.67,1.38,3.48,3.48,0,0,1,1.17,2.86,3.92,3.92,0,0,1-.42,1.83,4.07,4.07,0,0,1-1.17,1.38,5.65,5.65,0,0,1-1.79.88,8.17,8.17,0,0,1-2.26.31,7.63,7.63,0,0,1-2.38-.35,6.1,6.1,0,0,1-1.8-.93,4.28,4.28,0,0,1-1.16-1.36,3.67,3.67,0,0,1-.46-1.62l3-.48a2.54,2.54,0,0,0,.79,1.67,2.84,2.84,0,0,0,2,.65,5.4,5.4,0,0,0,1-.1,2.61,2.61,0,0,0,.82-.33A2,2,0,0,0,164,245a1.63,1.63,0,0,0,.2-.82,1.35,1.35,0,0,0-.65-1.2,6.38,6.38,0,0,0-2.29-.68,17.16,17.16,0,0,1-2-.46,5.72,5.72,0,0,1-1.63-.77,3.6,3.6,0,0,1-1.08-1.22,3.79,3.79,0,0,1-.39-1.79,3.93,3.93,0,0,1,.4-1.84,3.62,3.62,0,0,1,1.12-1.31,4.76,4.76,0,0,1,1.7-.79,8,8,0,0,1,2.14-.26,7.71,7.71,0,0,1,2,.25,5.38,5.38,0,0,1,1.67.74,4.36,4.36,0,0,1,1.21,1.21,4.42,4.42,0,0,1,.66,1.64l-3,.66a2.45,2.45,0,0,0-.82-1.52,2.64,2.64,0,0,0-1.78-.56,2.76,2.76,0,0,0-1.69.42A1.33,1.33,0,0,0,159.19,237.84Z"/><path class="cls-2" d="M174.67,237.84a1.34,1.34,0,0,0,.78,1.29,9.36,9.36,0,0,0,2.48.67,7.82,7.82,0,0,1,3.66,1.38,3.45,3.45,0,0,1,1.17,2.86,3.8,3.8,0,0,1-.42,1.83,4,4,0,0,1-1.17,1.38,5.49,5.49,0,0,1-1.78.88,8.17,8.17,0,0,1-2.26.31,7.63,7.63,0,0,1-2.38-.35,6.1,6.1,0,0,1-1.8-.93,4.28,4.28,0,0,1-1.16-1.36,3.67,3.67,0,0,1-.46-1.62l3-.48a2.54,2.54,0,0,0,.79,1.67,2.84,2.84,0,0,0,2,.65,5.4,5.4,0,0,0,1-.1,2.61,2.61,0,0,0,.82-.33,2,2,0,0,0,.55-.57,1.63,1.63,0,0,0,.2-.82,1.35,1.35,0,0,0-.65-1.2,6.38,6.38,0,0,0-2.29-.68,17.16,17.16,0,0,1-2-.46,5.72,5.72,0,0,1-1.63-.77,3.6,3.6,0,0,1-1.08-1.22,3.79,3.79,0,0,1-.39-1.79,3.93,3.93,0,0,1,.4-1.84,3.62,3.62,0,0,1,1.12-1.31,4.76,4.76,0,0,1,1.7-.79,8,8,0,0,1,2.14-.26,7.71,7.71,0,0,1,2,.25,5.38,5.38,0,0,1,1.67.74,4.36,4.36,0,0,1,1.21,1.21,4.6,4.6,0,0,1,.66,1.64l-3,.66a2.45,2.45,0,0,0-.82-1.52,2.64,2.64,0,0,0-1.78-.56,2.76,2.76,0,0,0-1.69.42A1.33,1.33,0,0,0,174.67,237.84Z"/><path class="cls-2" d="M187.43,234.16h3v14h-3Z"/><path class="cls-2" d="M195.71,234.16h6.08a5.06,5.06,0,0,1,1.75.28,3.74,3.74,0,0,1,1.3.77,3.28,3.28,0,0,1,.81,1.16,3.82,3.82,0,0,1,.28,1.45,3.41,3.41,0,0,1-.18,1.14,3.29,3.29,0,0,1-.47.87,3.5,3.5,0,0,1-.66.62,4.29,4.29,0,0,1-.77.39,3.43,3.43,0,0,1,.93.26,3,3,0,0,1,.87.57,2.81,2.81,0,0,1,.65.93,3.47,3.47,0,0,1,.25,1.38,4.22,4.22,0,0,1-.34,1.67,4,4,0,0,1-.94,1.32,4.84,4.84,0,0,1-1.42.87,5,5,0,0,1-1.8.32h-6.34Zm2.92,2.44v3.24h2.1a2.85,2.85,0,0,0,1.6-.36,1.5,1.5,0,0,0,.52-1.3,1.47,1.47,0,0,0-.45-1.22,2.46,2.46,0,0,0-1.51-.36Zm0,9.12H201a3,3,0,0,0,1.93-.45,1.66,1.66,0,0,0,.51-1.31,1.44,1.44,0,0,0-.62-1.37,3.84,3.84,0,0,0-1.86-.35h-2.36Z"/><path class="cls-2" d="M211.21,234.16h3v14h-3Z"/><path class="cls-2" d="M219.48,234.16h3v11.5h6.12v2.5h-9.12Z"/><path class="cls-2" d="M232.8,234.16h3v14h-3Z"/><path class="cls-2" d="M240,234.16h11.11v2.5h-4v11.5h-3v-11.5h-4Z"/><path class="cls-2" d="M259.58,242.3l-5.3-8.14h3.44l3.42,5.36,3.4-5.36h3.34l-5.3,8.14v5.86h-3Z"/></g><g id="ICON"><path class="cls-2" d="M126,144.33a54,54,0,1,1,54,54A54,54,0,0,1,126,144.33Zm100.73,0a46.73,46.73,0,1,0-46.84,46.69A46.82,46.82,0,0,0,226.75,144.38Z"/><path class="cls-3" d="M226.75,144.38a46.73,46.73,0,1,1-46.5-46.78A46.83,46.83,0,0,1,226.75,144.38ZM180,103.26a41.08,41.08,0,1,0,41.1,41.05A41,41,0,0,0,180,103.26Z"/><path class="cls-2" d="M180,103.26a41.08,41.08,0,1,1-41.05,40.85A41,41,0,0,1,180,103.26Zm-.1,48.66h.27c.1.27.22.53.31.8q3.43,10.17,6.86,20.33a3.85,3.85,0,1,0,7.29-2.48c-.58-1.77-1.16-3.55-1.79-5.31a84.28,84.28,0,0,1-5.13-28c0-1.52.43-1.84,1.89-1.39l13.13,4a3.5,3.5,0,1,0,2.24-6.63c-3.23-1.18-6.51-2.24-9.72-3.46a40.21,40.21,0,0,0-14.72-2.62c-4.45,0-8.85.26-13.09,1.71s-8.23,2.88-12.33,4.36a3.5,3.5,0,1,0,2.26,6.62l13.13-4c1.4-.43,1.86-.1,1.84,1.37a80.89,80.89,0,0,1-3.51,23.07c-1.08,3.5-2.31,6.94-3.44,10.42a3.82,3.82,0,0,0,4.06,5.11,3.73,3.73,0,0,0,3.28-2.76q3.41-10.12,6.83-20.26C179.65,152.49,179.78,152.21,179.89,151.92Zm.16-26.47a6.48,6.48,0,1,0-6.52-6.43A6.53,6.53,0,0,0,180.05,125.45Z"/><path class="cls-3" d="M179.89,151.92c-.11.29-.24.57-.34.86q-3.42,10.13-6.83,20.26a3.73,3.73,0,0,1-3.28,2.76,3.82,3.82,0,0,1-4.06-5.11c1.13-3.48,2.36-6.92,3.44-10.42a80.89,80.89,0,0,0,3.51-23.07c0-1.47-.44-1.8-1.84-1.37l-13.13,4a3.5,3.5,0,1,1-2.26-6.62c4.1-1.48,8.21-3,12.33-4.36s8.64-1.68,13.09-1.71a40.21,40.21,0,0,1,14.72,2.62c3.21,1.22,6.49,2.28,9.72,3.46a3.5,3.5,0,1,1-2.24,6.63l-13.13-4c-1.46-.45-1.9-.13-1.89,1.39a84.28,84.28,0,0,0,5.13,28c.63,1.76,1.21,3.54,1.79,5.31a3.85,3.85,0,1,1-7.29,2.48q-3.44-10.16-6.86-20.33c-.09-.27-.21-.53-.31-.8Z"/><path class="cls-3" d="M180.05,125.45a6.48,6.48,0,1,1,6.46-6.49A6.52,6.52,0,0,1,180.05,125.45Z"/><rect class="cls-4" y="336.06" width="360" height="23.94"/><path class="cls-3" d="M250.45,352.49v-8.4h5.72v1.49h-3.94v1.84h3.67v1.49h-3.67V351h4v1.49Z"/><path class="cls-3" d="M259,344.09h1.87l1.39,2.25.65,1.05c.17.28.34.55.5.83l.48.77c.16.24.28.45.39.62h0v-5.52H266v8.4h-1.87l-1.37-2.22-.64-1c-.18-.28-.35-.55-.51-.83l-.49-.79-.4-.64h0v5.52H259Z"/><path class="cls-3" d="M270.44,344.09q.45,1.26.84,2.43l.4,1.16c.1.31.21.62.31.94l.3.92c.1.29.18.56.25.79h0c.07-.23.15-.5.25-.8s.2-.62.3-.95.23-.68.35-1l.34-1,.84-2.43h1.85l-3.09,8.4h-1.84l-3.06-8.4Z"/><path class="cls-3" d="M279,344.09h1.8v8.4H279Z"/><path class="cls-3" d="M290.23,346.64a2.36,2.36,0,0,1-1.6,2.4l1.94,3.45h-2l-1.74-3.18h-1.12v3.18h-1.79v-8.4H287a5.47,5.47,0,0,1,1.33.15,2.76,2.76,0,0,1,1,.46,2.08,2.08,0,0,1,.65.79A2.71,2.71,0,0,1,290.23,346.64Zm-1.85,0a.91.91,0,0,0-.39-.85,2.3,2.3,0,0,0-1.18-.23h-1.08v2.26h1.08a2.08,2.08,0,0,0,1.18-.27A1,1,0,0,0,288.38,346.66Z"/><path class="cls-3" d="M292.91,348.29a5.25,5.25,0,0,1,.29-1.83,4,4,0,0,1,.83-1.38,3.52,3.52,0,0,1,1.29-.86,4.49,4.49,0,0,1,1.68-.3,4.56,4.56,0,0,1,1.68.3,3.7,3.7,0,0,1,1.29.86,4.13,4.13,0,0,1,.83,1.38,5.92,5.92,0,0,1,0,3.66,4,4,0,0,1-.83,1.37,3.59,3.59,0,0,1-1.29.87,4.56,4.56,0,0,1-1.68.3,4.49,4.49,0,0,1-1.68-.3,3.42,3.42,0,0,1-1.29-.87,3.84,3.84,0,0,1-.83-1.37A5.25,5.25,0,0,1,292.91,348.29Zm1.86,0a4.82,4.82,0,0,0,.13,1.17,2.73,2.73,0,0,0,.42.91,1.88,1.88,0,0,0,.69.59,2.22,2.22,0,0,0,1,.21,2.15,2.15,0,0,0,1-.21,2,2,0,0,0,.7-.59,2.72,2.72,0,0,0,.41-.91,4.81,4.81,0,0,0,.14-1.17,4.69,4.69,0,0,0-.14-1.17,2.63,2.63,0,0,0-.41-.91,1.89,1.89,0,0,0-.7-.59,2.15,2.15,0,0,0-1-.21,2.22,2.22,0,0,0-1,.21,1.79,1.79,0,0,0-.69.59,2.64,2.64,0,0,0-.42.91A4.71,4.71,0,0,0,294.77,348.29Z"/><path class="cls-3" d="M303.91,344.09h1.87l1.39,2.25.65,1.05.51.83c.16.27.32.53.48.77l.38.62h0v-5.52h1.7v8.4h-1.87l-1.37-2.22-.64-1-.51-.83-.49-.79-.4-.64h0v5.52h-1.7Z"/><path class="cls-3" d="M317.79,352.49q-.18-.5-.45-1.29c-.18-.53-.36-1.09-.55-1.66s-.38-1.14-.56-1.7-.33-1-.44-1.39h0v6H314.1v-8.4h2.52q.51,1.53.93,2.82l.42,1.24c.11.32.21.62.3.91l.25.78c.08.23.13.4.16.5,0-.1.09-.27.16-.5s.16-.51.26-.83.2-.65.32-1,.23-.72.35-1.08q.42-1.29.9-2.82h2.51v8.4h-1.65v-6h0l-.29.9-.36,1.11c-.14.39-.27.79-.41,1.19l-.38,1.15-.33,1c-.1.3-.18.53-.25.7Z"/><path class="cls-3" d="M326.35,352.49v-8.4h5.72v1.49h-3.94v1.84h3.67v1.49h-3.67V351h4v1.49Z"/><path class="cls-3" d="M334.92,344.09h1.87l1.39,2.25.65,1.05c.17.28.34.55.5.83l.48.77c.16.24.28.45.39.62h0v-5.52h1.71v8.4h-1.87l-1.37-2.22-.64-1c-.18-.28-.35-.55-.51-.83l-.49-.79-.4-.64h0v5.52h-1.7Z"/><path class="cls-3" d="M344.47,344.09h6.66v1.5h-2.42v6.9h-1.82v-6.9h-2.42Z"/></g></svg>