<svg xmlns="http://www.w3.org/2000/svg" viewBox="0 0 360 360"><defs><style>.cls-1{fill:#f1f2f2;}.cls-2{fill:#ef4a2b;}.cls-3,.cls-4{fill:none;stroke:#ef4a2b;stroke-miterlimit:10;stroke-width:5px;}.cls-4{stroke-linecap:round;}.cls-5{fill:#fff;}</style></defs><g id="BACKGROUND"><rect class="cls-1" x="-0.13" y="-0.17" width="360" height="360"/></g><g id="LINE_ONE" data-name="LINE ONE"><path class="cls-2" d="M103.82,241.16a9.12,9.12,0,0,1,.48-3.07,6.47,6.47,0,0,1,1.37-2.29,5.92,5.92,0,0,1,2.16-1.43,7.82,7.82,0,0,1,2.85-.49,6.81,6.81,0,0,1,3.76,1,5.26,5.26,0,0,1,2.16,3l-2.92,1A3.92,3.92,0,0,0,112.6,237a2.86,2.86,0,0,0-2-.65,3.51,3.51,0,0,0-1.62.36,3.35,3.35,0,0,0-1.16,1,4.67,4.67,0,0,0-.69,1.51,7.77,7.77,0,0,0-.23,1.92,7.63,7.63,0,0,0,.23,1.91,4.87,4.87,0,0,0,.69,1.51,3.28,3.28,0,0,0,1.16,1,3.57,3.57,0,0,0,1.64.36,2.9,2.9,0,0,0,1.89-.58,3.53,3.53,0,0,0,1.11-1.76l2.88,1a5.9,5.9,0,0,1-2.16,2.8,6.4,6.4,0,0,1-3.76,1,7.57,7.57,0,0,1-2.79-.49,6,6,0,0,1-2.14-1.42,6.3,6.3,0,0,1-1.37-2.29A9.22,9.22,0,0,1,103.82,241.16Z"/><path class="cls-2" d="M120.42,241.16a9.08,9.08,0,0,1,.49-3,6.64,6.64,0,0,1,1.38-2.29,5.9,5.9,0,0,1,2.15-1.44,8.09,8.09,0,0,1,5.6,0,5.82,5.82,0,0,1,2.15,1.44,6.35,6.35,0,0,1,1.38,2.29,9.74,9.74,0,0,1,0,6.1,6.35,6.35,0,0,1-1.38,2.29,5.82,5.82,0,0,1-2.15,1.44,8.09,8.09,0,0,1-5.6,0,5.9,5.9,0,0,1-2.15-1.44,6.64,6.64,0,0,1-1.38-2.29A9.08,9.08,0,0,1,120.42,241.16Zm3.1,0a7.9,7.9,0,0,0,.23,2,4.73,4.73,0,0,0,.69,1.52,3.22,3.22,0,0,0,1.16,1,3.7,3.7,0,0,0,1.64.35,3.64,3.64,0,0,0,1.64-.35,3.06,3.06,0,0,0,1.16-1,4.33,4.33,0,0,0,.69-1.52,8.38,8.38,0,0,0,0-3.9,4.33,4.33,0,0,0-.69-1.52,3.06,3.06,0,0,0-1.16-1,3.64,3.64,0,0,0-1.64-.35,3.7,3.7,0,0,0-1.64.35,3.22,3.22,0,0,0-1.16,1,4.73,4.73,0,0,0-.69,1.52A7.9,7.9,0,0,0,123.52,241.16Z"/><path class="cls-2" d="M138.76,234.16h3.12l2.32,3.76,1.08,1.75.84,1.37.8,1.29.64,1h.06v-9.2h2.84v14h-3.12l-2.28-3.7c-.42-.69-.78-1.27-1.07-1.73l-.85-1.38-.81-1.32c-.26-.42-.48-.78-.67-1.07h-.06v9.2h-2.84Z"/><path class="cls-2" d="M155.74,234.16h3.12l2.32,3.76,1.08,1.75.84,1.37.8,1.29.64,1h.06v-9.2h2.84v14h-3.12l-2.28-3.7c-.42-.69-.78-1.27-1.07-1.73l-.85-1.38-.81-1.32c-.26-.42-.48-.78-.67-1.07h-.06v9.2h-2.84Z"/><path class="cls-2" d="M172.72,248.16v-14h9.54v2.48h-6.58v3.08h6.12v2.48h-6.12v3.48h6.68v2.48Z"/><path class="cls-2" d="M186.42,241.16a9.12,9.12,0,0,1,.48-3.07,6.47,6.47,0,0,1,1.37-2.29,5.75,5.75,0,0,1,2.16-1.43,7.82,7.82,0,0,1,2.85-.49,6.83,6.83,0,0,1,3.76,1,5.35,5.35,0,0,1,2.16,3l-2.92,1A3.92,3.92,0,0,0,195.2,237a2.86,2.86,0,0,0-2-.65,3.51,3.51,0,0,0-1.62.36,3.26,3.26,0,0,0-1.16,1,4.28,4.28,0,0,0-.69,1.51,7.77,7.77,0,0,0-.23,1.92,7.63,7.63,0,0,0,.23,1.91,4.45,4.45,0,0,0,.69,1.51,3.19,3.19,0,0,0,1.16,1,3.54,3.54,0,0,0,1.64.36,2.94,2.94,0,0,0,1.89-.58,3.53,3.53,0,0,0,1.11-1.76l2.88,1a6,6,0,0,1-2.16,2.8,6.42,6.42,0,0,1-3.76,1,7.53,7.53,0,0,1-2.79-.49,5.94,5.94,0,0,1-2.14-1.42,6.3,6.3,0,0,1-1.37-2.29A9.22,9.22,0,0,1,186.42,241.16Z"/><path class="cls-2" d="M202.54,234.16h11.1v2.5h-4v11.5h-3v-11.5h-4Z"/><path class="cls-2" d="M217.86,234.16h3v14h-3Z"/><path class="cls-2" d="M225.56,241.16a8.83,8.83,0,0,1,.49-3,6.64,6.64,0,0,1,1.38-2.29,5.82,5.82,0,0,1,2.15-1.44,8.09,8.09,0,0,1,5.6,0,5.82,5.82,0,0,1,2.15,1.44,6.64,6.64,0,0,1,1.38,2.29,9.74,9.74,0,0,1,0,6.1,6.64,6.64,0,0,1-1.38,2.29,5.82,5.82,0,0,1-2.15,1.44,8.09,8.09,0,0,1-5.6,0,5.82,5.82,0,0,1-2.15-1.44,6.64,6.64,0,0,1-1.38-2.29A8.83,8.83,0,0,1,225.56,241.16Zm3.1,0a7.9,7.9,0,0,0,.23,2,4.33,4.33,0,0,0,.69,1.52,3.14,3.14,0,0,0,1.16,1,4,4,0,0,0,3.28,0,3.14,3.14,0,0,0,1.16-1,4.33,4.33,0,0,0,.69-1.52,8.38,8.38,0,0,0,0-3.9,4.33,4.33,0,0,0-.69-1.52,3.14,3.14,0,0,0-1.16-1,4,4,0,0,0-3.28,0,3.14,3.14,0,0,0-1.16,1,4.33,4.33,0,0,0-.69,1.52A7.9,7.9,0,0,0,228.66,241.16Z"/><path class="cls-2" d="M243.9,234.16H247l2.32,3.76,1.08,1.75.84,1.37.8,1.29.64,1h.06v-9.2h2.84v14h-3.12l-2.28-3.7-1.07-1.73c-.29-.46-.57-.92-.85-1.38l-.81-1.32c-.26-.42-.48-.78-.67-1.07h-.06v9.2H243.9Z"/></g><g id="LINE_TWO" data-name="LINE TWO"><path class="cls-2" d="M116.49,252h11.1v2.5h-4V266h-3v-11.5h-4Z"/><path class="cls-2" d="M130.63,259a9,9,0,0,1,.49-3,6.55,6.55,0,0,1,1.38-2.29,5.9,5.9,0,0,1,2.15-1.44,8.09,8.09,0,0,1,5.6,0,5.82,5.82,0,0,1,2.15,1.44,6.27,6.27,0,0,1,1.38,2.29,9.74,9.74,0,0,1,0,6.1,6.35,6.35,0,0,1-1.38,2.29,6.07,6.07,0,0,1-2.15,1.44,8.09,8.09,0,0,1-5.6,0,6.16,6.16,0,0,1-2.15-1.44,6.64,6.64,0,0,1-1.38-2.29A9.08,9.08,0,0,1,130.63,259Zm3.1,0a8,8,0,0,0,.23,1.95,4.73,4.73,0,0,0,.69,1.52,3.32,3.32,0,0,0,1.16,1,3.7,3.7,0,0,0,1.64.35,3.64,3.64,0,0,0,1.64-.35,3.16,3.16,0,0,0,1.16-1,4.33,4.33,0,0,0,.69-1.52,7.56,7.56,0,0,0,.23-1.95,7.45,7.45,0,0,0-.23-1.95,4.25,4.25,0,0,0-.69-1.52,3.06,3.06,0,0,0-1.16-1,3.51,3.51,0,0,0-1.64-.35,3.57,3.57,0,0,0-1.64.35,3.22,3.22,0,0,0-1.16,1A4.63,4.63,0,0,0,134,257,7.9,7.9,0,0,0,133.73,259Z"/><path class="cls-2" d="M155.67,252h3.12l2.32,3.76c.44.7.8,1.29,1.08,1.75l.84,1.37.8,1.29c.26.4.47.75.64,1h.06V252h2.84v14h-3.12l-2.28-3.7c-.42-.7-.78-1.27-1.07-1.73l-.85-1.38-.81-1.32c-.26-.42-.48-.78-.67-1.07h-.06V266h-2.84Z"/><path class="cls-2" d="M184.81,266h-3.1l-1.12-3.24h-5L174.45,266h-2.94l5-14h3.22Zm-6.76-10.72c0,.1-.07.26-.14.47l-.22.7q-.12.39-.27.84c-.1.3-.19.59-.29.87-.22.69-.47,1.43-.74,2.22h3.38c-.27-.79-.51-1.53-.74-2.22l-.35-1q-.12-.39-.24-.75c-.07-.24-.14-.47-.21-.67s-.11-.37-.14-.47Z"/><path class="cls-2" d="M186.29,252h11.1v2.5h-4V266h-3v-11.5h-4Z"/><path class="cls-2" d="M207.13,266.23a5.56,5.56,0,0,1-4.26-1.44,5.67,5.67,0,0,1-1.34-4V252h3v8.86a3.42,3.42,0,0,0,.64,2.11,2.73,2.73,0,0,0,3.92,0,3.35,3.35,0,0,0,.64-2.11V252h3v8.84a5.63,5.63,0,0,1-1.34,4A5.56,5.56,0,0,1,207.13,266.23Z"/><path class="cls-2" d="M228.41,256.21a4.26,4.26,0,0,1-.71,2.54,4.21,4.21,0,0,1-1.95,1.46L229,266h-3.3l-2.9-5.3h-1.86V266h-3V252h5.12a8.89,8.89,0,0,1,2.21.25A4.61,4.61,0,0,1,227,253a3.32,3.32,0,0,1,1.08,1.32A4.47,4.47,0,0,1,228.41,256.21Zm-3.08,0a1.51,1.51,0,0,0-.65-1.41,3.91,3.91,0,0,0-2-.39h-1.8v3.78h1.8a3.48,3.48,0,0,0,2-.45A1.74,1.74,0,0,0,225.33,256.23Z"/><path class="cls-2" d="M233.45,266V252H243v2.48h-6.58v3.08h6.12V260h-6.12v3.48h6.68V266Z"/></g><g id="ICON"><line class="cls-3" x1="128.86" y1="90.48" x2="128.86" y2="196.27"/><polyline class="cls-4" points="109.07 110.36 128.95 90.48 148.65 110.19"/><polyline class="cls-4" points="109.07 127.3 128.95 107.42 148.65 127.12"/><polyline class="cls-4" points="109.07 144.23 128.95 124.36 148.65 144.06"/><polyline class="cls-4" points="109.07 161.17 128.95 141.29 148.65 161"/><line class="cls-3" x1="231.08" y1="90.48" x2="231.08" y2="196.27"/><polyline class="cls-4" points="211.29 110.36 231.17 90.48 250.87 110.19"/><polyline class="cls-4" points="211.29 127.3 231.17 107.42 250.87 127.12"/><polyline class="cls-4" points="211.29 144.23 231.17 124.36 250.87 144.06"/><polyline class="cls-4" points="211.29 161.17 231.17 141.29 250.87 161"/><line class="cls-3" x1="179.97" y1="90.48" x2="179.97" y2="196.27"/><polyline class="cls-4" points="160.18 110.36 180.06 90.48 199.76 110.19"/><polyline class="cls-4" points="160.18 127.3 180.06 107.42 199.76 127.12"/><polyline class="cls-4" points="160.18 144.23 180.06 124.36 199.76 144.06"/><polyline class="cls-4" points="160.18 161.17 180.06 141.29 199.76 161"/><line class="cls-4" x1="91.26" y1="196.27" x2="272.39" y2="196.27"/><rect class="cls-2" y="336.06" width="360" height="23.94"/><path class="cls-5" d="M265.76,352.49v-8.4h5.72v1.49h-3.94v1.84h3.67v1.49h-3.67V351h4v1.49Z"/><path class="cls-5" d="M278.79,348.08l3.11,4.41h-2.16l-2-2.92-2.06,2.92h-2l3.09-4.32-2.85-4.08H276l1.77,2.59,1.82-2.59h2Z"/><path class="cls-5" d="M286.16,349.54v2.95h-1.79v-8.4h3.19a5.75,5.75,0,0,1,1.37.15,3.18,3.18,0,0,1,1.05.48,2.36,2.36,0,0,1,.67.83,2.81,2.81,0,0,1,.24,1.21,2.85,2.85,0,0,1-.25,1.25,2.39,2.39,0,0,1-.68.86,2.77,2.77,0,0,1-1,.5,5.2,5.2,0,0,1-1.35.17Zm2.89-2.78a1,1,0,0,0-.41-.93,2.48,2.48,0,0,0-1.26-.25h-1.22v2.47h1.22a2.17,2.17,0,0,0,1.26-.3A1.15,1.15,0,0,0,289.05,346.76Z"/><path class="cls-5" d="M293.53,352.49v-8.4h5.72v1.49H295.3v1.84H299v1.49H295.3V351h4v1.49Z"/><path class="cls-5" d="M308.38,346.64a2.34,2.34,0,0,1-1.59,2.4l1.93,3.45h-2L305,349.31h-1.12v3.18H302.1v-8.4h3.07a5.38,5.38,0,0,1,1.32.15,2.81,2.81,0,0,1,1,.46,2.06,2.06,0,0,1,.64.79A2.57,2.57,0,0,1,308.38,346.64Zm-1.85,0a.91.91,0,0,0-.39-.85,2.28,2.28,0,0,0-1.18-.23h-1.08v2.26H305a2.06,2.06,0,0,0,1.18-.27A1,1,0,0,0,306.53,346.66Z"/><path class="cls-5" d="M311.41,344.09h1.8v8.4h-1.8Z"/><path class="cls-5" d="M316.38,352.49v-8.4h5.72v1.49h-4v1.84h3.67v1.49h-3.67V351h4v1.49Z"/><path class="cls-5" d="M324.94,344.09h1.88c.48.79.95,1.54,1.39,2.25l.65,1.05c.16.28.33.55.5.83l.48.77.38.62h0v-5.52H332v8.4h-1.87c-.48-.78-.93-1.52-1.37-2.22-.25-.42-.47-.76-.64-1l-.51-.83-.48-.79c-.16-.25-.29-.47-.41-.64h0v5.52h-1.71Z"/><path class="cls-5" d="M334.78,348.29a5.51,5.51,0,0,1,.29-1.84,4,4,0,0,1,.82-1.38,3.65,3.65,0,0,1,1.3-.86,4.87,4.87,0,0,1,1.71-.29,4,4,0,0,1,2.25.59,3.21,3.21,0,0,1,1.3,1.79l-1.75.61a2.34,2.34,0,0,0-.65-1.1,1.71,1.71,0,0,0-1.19-.39,2,2,0,0,0-1.67.81,2.63,2.63,0,0,0-.41.91,4.59,4.59,0,0,0-.14,1.15,4.51,4.51,0,0,0,.14,1.14,2.81,2.81,0,0,0,.41.91,1.92,1.92,0,0,0,.7.6,2.19,2.19,0,0,0,1,.22,1.77,1.77,0,0,0,1.13-.35,2.23,2.23,0,0,0,.67-1.06l1.72.61a3.53,3.53,0,0,1-1.29,1.68,3.87,3.87,0,0,1-2.26.62,4.44,4.44,0,0,1-1.67-.3,3.54,3.54,0,0,1-1.29-.85,3.82,3.82,0,0,1-.82-1.37A5.61,5.61,0,0,1,334.78,348.29Z"/><path class="cls-5" d="M345.09,352.49v-8.4h5.72v1.49h-3.94v1.84h3.67v1.49h-3.67V351h4v1.49Z"/></g></svg>