<svg xmlns="http://www.w3.org/2000/svg" viewBox="0 0 360 360"><defs><style>.cls-1{fill:#f1f2f2;}.cls-2{fill:#ef4a2b;}.cls-3{fill:none;stroke:#ef4a2b;stroke-miterlimit:10;stroke-width:5px;}.cls-4{fill:#fff;}</style></defs><g id="BACKGROUND"><rect class="cls-1" x="-0.64" y="-0.17" width="360" height="360"/></g><g id="LINE_ONE" data-name="LINE ONE"><path class="cls-2" d="M144.46,241.16a9.12,9.12,0,0,1,.48-3.07,6.39,6.39,0,0,1,1.37-2.29,5.64,5.64,0,0,1,2.16-1.43,7.82,7.82,0,0,1,2.85-.49,6.75,6.75,0,0,1,3.76,1,5.32,5.32,0,0,1,2.16,3l-2.92,1a3.92,3.92,0,0,0-1.08-1.83,2.82,2.82,0,0,0-2-.65,3.51,3.51,0,0,0-1.62.36,3.26,3.26,0,0,0-1.16,1,4.28,4.28,0,0,0-.69,1.51,8.09,8.09,0,0,0,0,3.83,4.45,4.45,0,0,0,.69,1.51,3.29,3.29,0,0,0,1.16,1,3.54,3.54,0,0,0,1.64.36,3,3,0,0,0,1.89-.58,3.57,3.57,0,0,0,1.11-1.76l2.88,1a6.07,6.07,0,0,1-2.16,2.8,6.42,6.42,0,0,1-3.76,1,7.7,7.7,0,0,1-2.79-.49,5.94,5.94,0,0,1-2.14-1.42,6.39,6.39,0,0,1-1.37-2.29A9.26,9.26,0,0,1,144.46,241.16Z"/><path class="cls-2" d="M161.06,241.16a8.79,8.79,0,0,1,.49-3,6.55,6.55,0,0,1,1.38-2.29,5.82,5.82,0,0,1,2.15-1.44,8.09,8.09,0,0,1,5.6,0,5.82,5.82,0,0,1,2.15,1.44,6.55,6.55,0,0,1,1.38,2.29,9.74,9.74,0,0,1,0,6.1,6.64,6.64,0,0,1-1.38,2.29,6.07,6.07,0,0,1-2.15,1.44,8.09,8.09,0,0,1-5.6,0,6.07,6.07,0,0,1-2.15-1.44,6.64,6.64,0,0,1-1.38-2.29A8.83,8.83,0,0,1,161.06,241.16Zm3.1,0a8,8,0,0,0,.23,2,4.33,4.33,0,0,0,.69,1.52,3.24,3.24,0,0,0,1.16,1,4,4,0,0,0,3.28,0,3.24,3.24,0,0,0,1.16-1,4.33,4.33,0,0,0,.69-1.52,8,8,0,0,0,.23-2,7.9,7.9,0,0,0-.23-1.95,4.25,4.25,0,0,0-.69-1.52,3.14,3.14,0,0,0-1.16-1,4,4,0,0,0-3.28,0,3.14,3.14,0,0,0-1.16,1,4.25,4.25,0,0,0-.69,1.52A7.9,7.9,0,0,0,164.16,241.16Z"/><path class="cls-2" d="M181,234.16c.49,1.4,1,2.75,1.4,4.06q.4,1.14.66,1.92c.17.52.35,1,.52,1.57s.34,1,.5,1.53.3.93.42,1.32h0l.42-1.33.51-1.59c.18-.56.37-1.14.57-1.72s.39-1.16.58-1.7c.44-1.31.91-2.66,1.4-4.06h3.08l-5.16,14h-3.06l-5.1-14Z"/><path class="cls-2" d="M195.18,234.16h3v14h-3Z"/><path class="cls-2" d="M203.46,234.16h5.22a8.13,8.13,0,0,1,2.88.47,5.73,5.73,0,0,1,2.16,1.36,6.05,6.05,0,0,1,1.35,2.19,9.68,9.68,0,0,1,0,6,6.23,6.23,0,0,1-1.35,2.19,6,6,0,0,1-2.16,1.36,8.36,8.36,0,0,1-2.88.47h-5.22Zm9,7a7,7,0,0,0-.23-1.85,4.15,4.15,0,0,0-.7-1.43,3,3,0,0,0-1.19-.92,4.13,4.13,0,0,0-1.72-.32h-2.12v9h2.12a4.29,4.29,0,0,0,1.72-.32,3.11,3.11,0,0,0,1.19-.92,4.24,4.24,0,0,0,.7-1.43A7.1,7.1,0,0,0,212.44,241.16Z"/></g><g id="LINE_TWO" data-name="LINE TWO"><path class="cls-2" d="M77.49,258.94a9.16,9.16,0,0,1,.48-3.07,6.56,6.56,0,0,1,1.37-2.29,5.88,5.88,0,0,1,2.16-1.43,8,8,0,0,1,2.85-.49,6.83,6.83,0,0,1,3.76,1,5.39,5.39,0,0,1,2.16,3l-2.92,1a4,4,0,0,0-1.08-1.83,2.86,2.86,0,0,0-2-.65,3.51,3.51,0,0,0-1.62.36,3.4,3.4,0,0,0-1.16,1,4.23,4.23,0,0,0-.69,1.5,7.77,7.77,0,0,0-.23,1.92,7.57,7.57,0,0,0,.23,1.91,4.37,4.37,0,0,0,.69,1.51,3.19,3.19,0,0,0,1.16,1,3.54,3.54,0,0,0,1.64.37,2.94,2.94,0,0,0,1.89-.59,3.49,3.49,0,0,0,1.11-1.75l2.88,1A6,6,0,0,1,88,265.2a6.35,6.35,0,0,1-3.76,1,7.49,7.49,0,0,1-2.79-.5,5.82,5.82,0,0,1-2.14-1.42A6.3,6.3,0,0,1,78,262,9.18,9.18,0,0,1,77.49,258.94Z"/><path class="cls-2" d="M94.09,258.94a8.83,8.83,0,0,1,.49-3.05A6.64,6.64,0,0,1,96,253.6a6.07,6.07,0,0,1,2.15-1.44,8.09,8.09,0,0,1,5.6,0,6.07,6.07,0,0,1,2.15,1.44,6.64,6.64,0,0,1,1.38,2.29,9.74,9.74,0,0,1,0,6.1,6.55,6.55,0,0,1-1.38,2.29,6,6,0,0,1-2.15,1.45,8.09,8.09,0,0,1-5.6,0A6,6,0,0,1,96,264.28,6.55,6.55,0,0,1,94.58,262,8.75,8.75,0,0,1,94.09,258.94Zm3.1,0a7.9,7.9,0,0,0,.23,1.95,4.25,4.25,0,0,0,.69,1.52,3.14,3.14,0,0,0,1.16,1,4,4,0,0,0,3.28,0,3.14,3.14,0,0,0,1.16-1,4.25,4.25,0,0,0,.69-1.52,7.9,7.9,0,0,0,.23-1.95,8,8,0,0,0-.23-1.95,4.2,4.2,0,0,0-.69-1.51,3.26,3.26,0,0,0-1.16-1,4,4,0,0,0-3.28,0,3.26,3.26,0,0,0-1.16,1,4.2,4.2,0,0,0-.69,1.51A8,8,0,0,0,97.19,258.94Z"/><path class="cls-2" d="M112.43,251.94h3.12c.81,1.33,1.59,2.58,2.32,3.76l1.08,1.75.84,1.37.8,1.29.64,1h.06v-9.2h2.84v14H121c-.8-1.29-1.56-2.52-2.28-3.7l-1.07-1.72c-.29-.46-.57-.92-.85-1.38l-.81-1.33-.67-1.07h-.06v9.2h-2.84Z"/><path class="cls-2" d="M132.13,255.62a1.33,1.33,0,0,0,.78,1.29,8.75,8.75,0,0,0,2.48.67,7.86,7.86,0,0,1,3.67,1.38,3.49,3.49,0,0,1,1.17,2.86,3.92,3.92,0,0,1-.42,1.83,4.07,4.07,0,0,1-1.17,1.38,5.44,5.44,0,0,1-1.79.88,7.76,7.76,0,0,1-2.26.32,7.39,7.39,0,0,1-2.38-.36,5.66,5.66,0,0,1-1.8-.93,4.3,4.3,0,0,1-1.16-1.36,3.81,3.81,0,0,1-.46-1.62l3-.48a2.56,2.56,0,0,0,.79,1.67,2.8,2.8,0,0,0,2,.66,4.6,4.6,0,0,0,1-.11,2.14,2.14,0,0,0,.82-.33,1.73,1.73,0,0,0,.55-.56,1.64,1.64,0,0,0,.2-.83,1.35,1.35,0,0,0-.65-1.2,6.52,6.52,0,0,0-2.29-.68,16.15,16.15,0,0,1-2-.46,5.23,5.23,0,0,1-1.63-.77,3.42,3.42,0,0,1-1.08-1.22,3.73,3.73,0,0,1-.39-1.79,4,4,0,0,1,.4-1.84,3.81,3.81,0,0,1,1.12-1.31,5,5,0,0,1,1.7-.78,8,8,0,0,1,2.14-.27,8.16,8.16,0,0,1,2,.25,5.77,5.77,0,0,1,1.67.74,4.49,4.49,0,0,1,1.21,1.21,4.56,4.56,0,0,1,.66,1.64l-3,.66a2.48,2.48,0,0,0-.82-1.52,2.67,2.67,0,0,0-1.78-.56,2.86,2.86,0,0,0-1.69.42A1.34,1.34,0,0,0,132.13,255.62Z"/><path class="cls-2" d="M144.89,251.94h3v14h-3Z"/><path class="cls-2" d="M153.17,251.94h5.22a8.36,8.36,0,0,1,2.88.47,5.66,5.66,0,0,1,3.51,3.55,9.71,9.71,0,0,1,0,6,5.73,5.73,0,0,1-3.51,3.55,8.37,8.37,0,0,1-2.88.46h-5.22Zm9,7a7,7,0,0,0-.23-1.84,4,4,0,0,0-.7-1.44,3.21,3.21,0,0,0-1.19-.92,4.26,4.26,0,0,0-1.72-.31h-2.12v9h2.12a4.1,4.1,0,0,0,1.72-.32,3.08,3.08,0,0,0,1.19-.91,4.11,4.11,0,0,0,.7-1.44A7,7,0,0,0,162.15,258.94Z"/><path class="cls-2" d="M170,265.94v-14h9.54v2.49h-6.58v3.07H179V260h-6.12v3.48h6.68v2.48Z"/><path class="cls-2" d="M194.71,256.2a4.24,4.24,0,0,1-.71,2.54,4.08,4.08,0,0,1-1.95,1.46l3.22,5.74H192l-2.9-5.3h-1.86v5.3h-3v-14h5.12a9.39,9.39,0,0,1,2.21.25,5,5,0,0,1,1.69.77,3.46,3.46,0,0,1,1.08,1.32A4.53,4.53,0,0,1,194.71,256.2Zm-3.08,0a1.52,1.52,0,0,0-.65-1.42,4,4,0,0,0-2-.38h-1.8v3.77H189a3.4,3.4,0,0,0,2-.45A1.73,1.73,0,0,0,191.63,256.23Z"/><path class="cls-2" d="M211.91,265.94h-3.1l-1.12-3.24h-5l-1.12,3.24h-2.94l5-14h3.22Zm-6.76-10.71c0,.1-.07.26-.14.46s-.14.45-.22.7-.17.54-.27.84-.2.59-.29.87c-.23.7-.47,1.44-.74,2.22h3.38c-.27-.78-.51-1.52-.74-2.22-.15-.4-.26-.73-.35-1s-.17-.51-.24-.75-.14-.46-.21-.67a4,4,0,0,1-.14-.46Z"/><path class="cls-2" d="M213.39,251.94h11.1v2.5h-4v11.5h-3v-11.5h-4Z"/><path class="cls-2" d="M228.71,251.94h3v14h-3Z"/><path class="cls-2" d="M236.41,258.94a8.83,8.83,0,0,1,.49-3.05,6.64,6.64,0,0,1,1.38-2.29,6.07,6.07,0,0,1,2.15-1.44,8.09,8.09,0,0,1,5.6,0,6.07,6.07,0,0,1,2.15,1.44,6.64,6.64,0,0,1,1.38,2.29,9.74,9.74,0,0,1,0,6.1,6.55,6.55,0,0,1-1.38,2.29,6,6,0,0,1-2.15,1.45,8.09,8.09,0,0,1-5.6,0,6,6,0,0,1-2.15-1.45A6.55,6.55,0,0,1,236.9,262,8.75,8.75,0,0,1,236.41,258.94Zm3.1,0a7.9,7.9,0,0,0,.23,1.95,4.25,4.25,0,0,0,.69,1.52,3.14,3.14,0,0,0,1.16,1,4,4,0,0,0,3.28,0,3.14,3.14,0,0,0,1.16-1,4.25,4.25,0,0,0,.69-1.52,7.9,7.9,0,0,0,.23-1.95,8,8,0,0,0-.23-1.95,4.2,4.2,0,0,0-.69-1.51,3.26,3.26,0,0,0-1.16-1,4,4,0,0,0-3.28,0,3.26,3.26,0,0,0-1.16,1,4.2,4.2,0,0,0-.69,1.51A8,8,0,0,0,239.51,258.94Z"/><path class="cls-2" d="M254.75,251.94h3.12c.81,1.33,1.59,2.58,2.32,3.76l1.08,1.75.84,1.37c.28.46.54.89.8,1.29l.64,1h.06v-9.2h2.84v14h-3.12c-.8-1.29-1.56-2.52-2.28-3.7L260,260.52c-.29-.46-.57-.92-.85-1.38l-.81-1.33c-.26-.42-.49-.77-.67-1.07h-.06v9.2h-2.84Z"/><path class="cls-2" d="M274.45,255.62a1.33,1.33,0,0,0,.78,1.29,8.65,8.65,0,0,0,2.48.67,7.91,7.91,0,0,1,3.67,1.38,3.49,3.49,0,0,1,1.17,2.86,3.92,3.92,0,0,1-.42,1.83A4.07,4.07,0,0,1,281,265a5.44,5.44,0,0,1-1.79.88,7.81,7.81,0,0,1-2.26.32,7.34,7.34,0,0,1-2.38-.36,5.66,5.66,0,0,1-1.8-.93,4.17,4.17,0,0,1-1.16-1.36,3.67,3.67,0,0,1-.46-1.62l3-.48a2.56,2.56,0,0,0,.79,1.67,2.8,2.8,0,0,0,2,.66,4.6,4.6,0,0,0,1-.11,2.14,2.14,0,0,0,.82-.33,1.83,1.83,0,0,0,.55-.56,1.64,1.64,0,0,0,.2-.83,1.35,1.35,0,0,0-.65-1.2,6.59,6.59,0,0,0-2.29-.68,15.39,15.39,0,0,1-2-.46,5.23,5.23,0,0,1-1.63-.77,3.42,3.42,0,0,1-1.08-1.22,3.73,3.73,0,0,1-.39-1.79,4,4,0,0,1,.4-1.84,3.7,3.7,0,0,1,1.12-1.31,4.92,4.92,0,0,1,1.7-.78,8,8,0,0,1,2.14-.27,8.16,8.16,0,0,1,2,.25,5.77,5.77,0,0,1,1.67.74,4.49,4.49,0,0,1,1.21,1.21,4.56,4.56,0,0,1,.66,1.64l-3,.66a2.48,2.48,0,0,0-.82-1.52,2.67,2.67,0,0,0-1.78-.56,2.86,2.86,0,0,0-1.69.42A1.34,1.34,0,0,0,274.45,255.62Z"/></g><g id="ICON"><path class="cls-2" d="M113.6,138H75.67c0-.6,0-1.18.09-1.75a18.91,18.91,0,0,1,4.5-10.57,19.14,19.14,0,0,1,5.8-4.58.45.45,0,0,1,.6.09,11.66,11.66,0,0,0,9.12,3,11.43,11.43,0,0,0,6.73-2.92.65.65,0,0,1,.89-.11,18.88,18.88,0,0,1,10,13.82c.15.88.17,1.77.24,2.66C113.62,137.75,113.6,137.85,113.6,138Z"/><path class="cls-2" d="M85.34,112.34a9.31,9.31,0,1,1,9.33,9.31A9.31,9.31,0,0,1,85.34,112.34Z"/><path class="cls-2" d="M151.54,164.84H113.61c0-.6,0-1.18.1-1.75a18.77,18.77,0,0,1,4.5-10.57A19.1,19.1,0,0,1,124,148a.45.45,0,0,1,.6.09,11.68,11.68,0,0,0,9.12,3,11.38,11.38,0,0,0,6.72-2.93.65.65,0,0,1,.89-.11,18.88,18.88,0,0,1,10,13.83c.16.87.17,1.77.25,2.66C151.56,164.61,151.55,164.72,151.54,164.84Z"/><path class="cls-2" d="M123.29,139.2a9.31,9.31,0,1,1,9.33,9.32A9.31,9.31,0,0,1,123.29,139.2Z"/><path class="cls-2" d="M113.6,185.92H75.68c0-.6,0-1.18.09-1.75a18.77,18.77,0,0,1,4.5-10.57,19.14,19.14,0,0,1,5.8-4.58.45.45,0,0,1,.6.09,11.64,11.64,0,0,0,9.12,3,11.4,11.4,0,0,0,6.72-2.92.65.65,0,0,1,.89-.11,18.86,18.86,0,0,1,10,13.82c.16.88.17,1.77.25,2.66A2,2,0,0,1,113.6,185.92Z"/><path class="cls-2" d="M85.35,160.28a9.31,9.31,0,1,1,9.33,9.32A9.3,9.3,0,0,1,85.35,160.28Z"/><rect class="cls-3" x="64" y="92.56" width="103.29" height="103.29" rx="10.01"/><path class="cls-2" d="M265.89,160.27H228c0-.6,0-1.18.1-1.75a19,19,0,0,1,10.29-15.14.46.46,0,0,1,.61.08,11.64,11.64,0,0,0,9.12,3,11.44,11.44,0,0,0,6.72-2.93.65.65,0,0,1,.89-.11,18.88,18.88,0,0,1,10,13.83,26.08,26.08,0,0,1,.24,2.65C265.91,160,265.89,160.14,265.89,160.27Z"/><path class="cls-2" d="M237.63,134.63A9.31,9.31,0,1,1,247,144,9.33,9.33,0,0,1,237.63,134.63Z"/><rect class="cls-3" x="192.71" y="92.19" width="103.29" height="103.29" rx="10.01"/><rect class="cls-2" y="336.06" width="360" height="23.94"/><path class="cls-4" d="M265.76,352.49v-8.4h5.72v1.49h-4v1.84h3.67v1.49h-3.67V351h4v1.49Z"/><path class="cls-4" d="M278.79,348.08l3.11,4.41h-2.16l-2-2.92-2.07,2.92h-2l3.08-4.32-2.84-4.08H276l1.76,2.59,1.83-2.59h2Z"/><path class="cls-4" d="M286.16,349.54v2.95h-1.79v-8.4h3.19a5.81,5.81,0,0,1,1.37.15,3.12,3.12,0,0,1,1,.48,2.26,2.26,0,0,1,.67.83,2.81,2.81,0,0,1,.24,1.21,3,3,0,0,1-.24,1.25,2.41,2.41,0,0,1-.69.86,2.7,2.7,0,0,1-1.05.5,5.06,5.06,0,0,1-1.34.17Zm2.89-2.78a1,1,0,0,0-.42-.93,2.41,2.41,0,0,0-1.25-.25h-1.22v2.47h1.22a2.11,2.11,0,0,0,1.25-.3A1.13,1.13,0,0,0,289.05,346.76Z"/><path class="cls-4" d="M293.52,352.49v-8.4h5.73v1.49H295.3v1.84H299v1.49H295.3V351h4v1.49Z"/><path class="cls-4" d="M308.38,346.64a2.36,2.36,0,0,1-1.6,2.4l1.94,3.45h-2L305,349.31h-1.12v3.18h-1.79v-8.4h3.07a5.47,5.47,0,0,1,1.33.15,2.76,2.76,0,0,1,1,.46,2.08,2.08,0,0,1,.65.79A2.71,2.71,0,0,1,308.38,346.64Zm-1.85,0a.91.91,0,0,0-.39-.85,2.3,2.3,0,0,0-1.18-.23h-1.08v2.26H305a2.08,2.08,0,0,0,1.18-.27A1,1,0,0,0,306.53,346.66Z"/><path class="cls-4" d="M311.4,344.09h1.8v8.4h-1.8Z"/><path class="cls-4" d="M316.37,352.49v-8.4h5.73v1.49h-4v1.84h3.67v1.49h-3.67V351h4v1.49Z"/><path class="cls-4" d="M324.94,344.09h1.87l1.39,2.25.65,1.05.51.83c.16.27.32.53.48.77l.38.62h0v-5.52H332v8.4h-1.87l-1.37-2.22-.64-1-.51-.83-.49-.79c-.15-.25-.29-.47-.4-.64h0v5.52h-1.7Z"/><path class="cls-4" d="M334.78,348.29a5.51,5.51,0,0,1,.29-1.84,3.81,3.81,0,0,1,.82-1.38,3.65,3.65,0,0,1,1.3-.86,4.79,4.79,0,0,1,1.71-.29,4.1,4.1,0,0,1,2.25.59,3.21,3.21,0,0,1,1.3,1.79l-1.75.61a2.43,2.43,0,0,0-.65-1.1,1.72,1.72,0,0,0-1.19-.39,2,2,0,0,0-1.67.81,2.63,2.63,0,0,0-.41.91,4.59,4.59,0,0,0-.14,1.15,4.51,4.51,0,0,0,.14,1.14,2.81,2.81,0,0,0,.41.91,1.92,1.92,0,0,0,.7.6,2.18,2.18,0,0,0,1,.22,1.8,1.8,0,0,0,1.14-.35,2.15,2.15,0,0,0,.66-1.06l1.73.61a3.49,3.49,0,0,1-1.3,1.68,3.81,3.81,0,0,1-2.25.62,4.49,4.49,0,0,1-1.68-.3,3.5,3.5,0,0,1-1.28-.85,3.69,3.69,0,0,1-.82-1.37A5.61,5.61,0,0,1,334.78,348.29Z"/><path class="cls-4" d="M345.09,352.49v-8.4h5.72v1.49h-3.95v1.84h3.68v1.49h-3.68V351h4v1.49Z"/></g></svg>