<svg xmlns="http://www.w3.org/2000/svg" viewBox="0 0 360 360"><defs><style>.cls-1{fill:#f1f2f2;}.cls-2{fill:#0e6e39;}.cls-3{fill:#0c6e39;}.cls-4{fill:#fff;}</style></defs><g id="BACKGROUND"><rect class="cls-1" x="-0.81" y="-0.6" width="360" height="360"/></g><g id="LINE_ONE" data-name="LINE ONE"><path class="cls-2" d="M133.31,248.16v-14h9.55v2.48h-6.58v3.08h6.12v2.48h-6.12v3.48H143v2.48Z"/><path class="cls-2" d="M159.76,248.16h-3.11l-1.11-3.24h-5l-1.12,3.24h-2.94l5-14h3.23ZM153,237.44c0,.1-.07.26-.13.47s-.14.44-.22.7-.17.54-.27.84-.2.59-.3.87c-.22.69-.47,1.43-.73,2.22h3.38c-.27-.79-.52-1.53-.74-2.22-.15-.4-.27-.73-.35-1s-.17-.51-.24-.75-.15-.46-.21-.67a4.69,4.69,0,0,1-.14-.47Z"/><path class="cls-2" d="M166.42,237.84a1.34,1.34,0,0,0,.78,1.29,9.36,9.36,0,0,0,2.48.67,8,8,0,0,1,3.67,1.38,3.48,3.48,0,0,1,1.17,2.86,3.92,3.92,0,0,1-.42,1.83,4.19,4.19,0,0,1-1.17,1.38,5.65,5.65,0,0,1-1.79.88,8.17,8.17,0,0,1-2.26.31,7.63,7.63,0,0,1-2.38-.35,5.87,5.87,0,0,1-1.8-.93,4.15,4.15,0,0,1-1.16-1.36,3.82,3.82,0,0,1-.47-1.62l3-.48a2.53,2.53,0,0,0,.8,1.67,2.82,2.82,0,0,0,2,.65,4.74,4.74,0,0,0,1-.1,2.61,2.61,0,0,0,.82-.33,1.87,1.87,0,0,0,.55-.57,1.63,1.63,0,0,0,.2-.82,1.35,1.35,0,0,0-.65-1.2,6.38,6.38,0,0,0-2.29-.68,17.16,17.16,0,0,1-2-.46,5.72,5.72,0,0,1-1.63-.77,3.51,3.51,0,0,1-1.08-1.22,3.79,3.79,0,0,1-.39-1.79,3.93,3.93,0,0,1,.4-1.84,3.62,3.62,0,0,1,1.12-1.31,4.94,4.94,0,0,1,1.7-.79,8,8,0,0,1,2.13-.26,7.73,7.73,0,0,1,2,.25,5.38,5.38,0,0,1,1.67.74,4.64,4.64,0,0,1,1.21,1.21,4.49,4.49,0,0,1,.66,1.64l-3,.66a2.45,2.45,0,0,0-.82-1.52,2.7,2.7,0,0,0-1.79-.56,2.75,2.75,0,0,0-1.68.42A1.33,1.33,0,0,0,166.42,237.84Z"/><path class="cls-2" d="M179.18,248.16v-14h9.54v2.48h-6.58v3.08h6.11v2.48h-6.11v3.48h6.67v2.48Z"/><path class="cls-2" d="M199.57,241.16a9.08,9.08,0,0,1,.49-3,6.51,6.51,0,0,1,1.39-2.29,5.78,5.78,0,0,1,2.14-1.44,8.12,8.12,0,0,1,5.61,0,5.78,5.78,0,0,1,2.14,1.44,6.51,6.51,0,0,1,1.39,2.29,9.74,9.74,0,0,1,0,6.1,6.51,6.51,0,0,1-1.39,2.29,5.9,5.9,0,0,1-2.14,1.44,8.12,8.12,0,0,1-5.61,0,5.9,5.9,0,0,1-2.14-1.44,6.51,6.51,0,0,1-1.39-2.29A9.08,9.08,0,0,1,199.57,241.16Zm3.1,0a8,8,0,0,0,.23,2,4.73,4.73,0,0,0,.69,1.52,3.32,3.32,0,0,0,1.16,1,4,4,0,0,0,3.29,0,3.32,3.32,0,0,0,1.16-1,4.73,4.73,0,0,0,.69-1.52,8.38,8.38,0,0,0,0-3.9,4.73,4.73,0,0,0-.69-1.52,3.22,3.22,0,0,0-1.16-1,4,4,0,0,0-3.29,0,3.22,3.22,0,0,0-1.16,1,4.73,4.73,0,0,0-.69,1.52A7.9,7.9,0,0,0,202.67,241.16Z"/><path class="cls-2" d="M217.91,248.16v-14h9.58v2.48h-6.61v3.08H227v2.48h-6.1v6Z"/></g><g id="LINE_TWO" data-name="LINE TWO"><path class="cls-2" d="M103,265.94c-.2-.54-.45-1.26-.75-2.15s-.61-1.81-.93-2.77-.63-1.9-.93-2.82-.55-1.69-.73-2.31h-.06v10.05H96.82v-14H101l1.56,4.7q.42,1.29.69,2.07c.18.53.34,1,.5,1.51s.29.92.42,1.3.21.67.27.84l.26-.84c.12-.38.26-.84.43-1.37s.34-1.09.54-1.7.39-1.21.59-1.81q.68-2.13,1.5-4.7H112v14H109.2V255.89h-.06c-.14.41-.3.9-.48,1.48s-.39,1.2-.61,1.85-.45,1.32-.67,2-.44,1.32-.64,1.93-.39,1.15-.55,1.64-.31.88-.41,1.16Z"/><path class="cls-2" d="M129.4,265.94h-3.1l-1.12-3.24h-5L119,265.94H116.1l5-14h3.22Zm-6.76-10.72-.14.47c-.07.21-.14.45-.22.7s-.17.54-.27.84-.2.59-.29.87l-.74,2.22h3.38c-.27-.78-.52-1.52-.74-2.22-.15-.4-.27-.73-.35-1s-.17-.51-.24-.75l-.22-.67c-.06-.2-.11-.36-.13-.47Z"/><path class="cls-2" d="M133.54,251.94h3v14h-3Z"/><path class="cls-2" d="M141.81,251.94h3.13c.81,1.32,1.58,2.58,2.32,3.76l1.08,1.75.84,1.37c.28.46.54.89.8,1.29l.64,1h.06v-9.2h2.84v14H150.4c-.8-1.29-1.56-2.52-2.28-3.7l-1.07-1.73c-.29-.45-.57-.91-.85-1.37l-.81-1.33c-.26-.42-.49-.77-.67-1.07h-.07v9.2h-2.84Z"/><path class="cls-2" d="M157.73,251.94h11.1v2.5h-4v11.5h-3v-11.5h-4Z"/><path class="cls-2" d="M173.06,265.94v-14h9.53v2.49H176v3.07h6.13V260H176v3.48h6.68v2.48Z"/><path class="cls-2" d="M187.33,251.94h3.12l2.32,3.76c.45.71.8,1.29,1.08,1.75s.56.92.84,1.37l.8,1.29.65,1h.05v-9.2H199v14h-3.12c-.8-1.29-1.56-2.52-2.27-3.7l-1.08-1.73c-.28-.45-.57-.91-.84-1.37s-.56-.91-.82-1.33-.48-.77-.67-1.07h-.06v9.2h-2.84Z"/><path class="cls-2" d="M216.47,265.94h-3.1l-1.12-3.24h-5l-1.12,3.24h-2.94l5-14h3.22Zm-6.76-10.72a3.53,3.53,0,0,1-.14.47c-.06.21-.14.45-.22.7s-.17.54-.27.84-.19.59-.29.87c-.22.7-.47,1.44-.74,2.22h3.38c-.26-.78-.51-1.52-.74-2.22l-.35-1q-.12-.39-.24-.75c-.07-.24-.14-.46-.21-.67l-.14-.47Z"/><path class="cls-2" d="M220.61,251.94h3.12l2.32,3.76,1.08,1.75.84,1.37.8,1.29.64,1h.06v-9.2h2.84v14h-3.12c-.8-1.29-1.56-2.52-2.28-3.7-.42-.69-.78-1.27-1.07-1.73l-.85-1.37-.81-1.33-.67-1.07h-.06v9.2h-2.84Z"/><path class="cls-2" d="M237,258.94a9.16,9.16,0,0,1,.48-3.07,6.47,6.47,0,0,1,1.37-2.29,6,6,0,0,1,2.16-1.43,8,8,0,0,1,2.85-.49,6.81,6.81,0,0,1,3.76,1,5.29,5.29,0,0,1,2.16,3l-2.92,1a4,4,0,0,0-1.08-1.83,2.86,2.86,0,0,0-2-.65,3.51,3.51,0,0,0-1.62.36,3.46,3.46,0,0,0-1.16,1,4.77,4.77,0,0,0-.69,1.51,7.77,7.77,0,0,0-.23,1.92,7.57,7.57,0,0,0,.23,1.91,4.77,4.77,0,0,0,.69,1.51,3.28,3.28,0,0,0,1.16,1,3.57,3.57,0,0,0,1.64.36,2.9,2.9,0,0,0,1.89-.58,3.49,3.49,0,0,0,1.11-1.75l2.88,1a5.9,5.9,0,0,1-2.16,2.8,6.33,6.33,0,0,1-3.76,1,7.57,7.57,0,0,1-2.79-.49,5.9,5.9,0,0,1-2.14-1.42,6.3,6.3,0,0,1-1.37-2.29A9.18,9.18,0,0,1,237,258.94Z"/><path class="cls-2" d="M254.19,265.94v-14h9.54v2.49h-6.58v3.07h6.12V260h-6.12v3.48h6.68v2.48Z"/></g><g id="ICON"><path class="cls-2" d="M238.78,176a3.87,3.87,0,0,1-1.9-3.52c0-3.28,0-6.56,0-9.84q0-20.5-.05-41a7.54,7.54,0,0,1,3.65-6.78c.94-.61,1.79-1.35,2.68-2,2.29-2.44,3.89-5.2,3.95-8.58.1-5.67-2.28-10.33-6.27-14.23a1.48,1.48,0,0,0-1.7-.29,1.56,1.56,0,0,0-1,1.43c0,.47,0,.94,0,1.41,0,4,0,8,0,12a1.94,1.94,0,0,1-2,2.1c-2.84,0-5.67,0-8.51,0a1.94,1.94,0,0,1-2-2c0-.28,0-9.09,0-13.22a1.63,1.63,0,0,0-1-1.69,1.65,1.65,0,0,0-1.91.49,20.15,20.15,0,0,0-4.91,7.53,14.09,14.09,0,0,0-.72,9.08,14.3,14.3,0,0,0,6.29,8.08A7.23,7.23,0,0,1,227,121.2c0,.63,0,1.26,0,1.9q0,24.68,0,49.36a3.93,3.93,0,0,1-1.91,3.58,12.17,12.17,0,1,0,13.66,0Zm-8.33-52.21a1.51,1.51,0,1,1,3,0v45.09a1.51,1.51,0,0,1-3,0Zm7.56,62.8-2.58,4.47a1,1,0,0,1-.89.51h-5.16a1,1,0,0,1-.89-.51l-2.58-4.47a1,1,0,0,1,0-1l2.58-4.47a1,1,0,0,1,.89-.52h5.16a1,1,0,0,1,.89.52l2.58,4.47A1,1,0,0,1,238,186.62Z"/><path class="cls-2" d="M179.19,142.58h6.69a1.88,1.88,0,0,1,1.88,1.88s1.29,19.48,1.29,26-1.29,26-1.29,26a1.88,1.88,0,0,1-1.88,1.88H172.5a1.88,1.88,0,0,1-1.87-1.88s-1.3-19.48-1.3-26,1.3-26,1.3-26a1.88,1.88,0,0,1,1.87-1.88Z"/><path class="cls-2" d="M159.89,102.94l-9.23,1.44a1.84,1.84,0,0,1-1.9-1.77l-.38-11.15a1.83,1.83,0,0,1,1.77-1.89l9.31.78a1.42,1.42,0,0,1,1.3,1.36l.33,9.79A1.42,1.42,0,0,1,159.89,102.94Z"/><path class="cls-2" d="M210.59,108.42c-1.1-3.4-4.22-11-10.91-14.37-8.74-4.33-12.68-4.4-12.68-4.4H169.2a4.08,4.08,0,0,0-2.8,1.41,4.86,4.86,0,0,1-3.09.9l.32,9.16c2.77.33,9,1.94,9.46,9.89h12.2a10,10,0,0,1,3.2-7.57c3.62-3.69,8.8-2.46,10.74-1.49,2.73,1.36,8,5.23,10.47,7.11A.57.57,0,0,0,210.59,108.42Z"/><rect class="cls-2" x="173.09" y="113.69" width="12.2" height="26.22"/><path class="cls-2" d="M128.49,89.57h.38a1.05,1.05,0,0,1,1,.76l2.51,8.59a3.36,3.36,0,0,1,0,1.86l-2.15,7.53v27.93h2.91a1.06,1.06,0,0,1,1.06,1.07v6.16H122.76v-6.16a1.06,1.06,0,0,1,1.07-1.07h2.9V108.31l-2.14-7.53a3.36,3.36,0,0,1,0-1.86l2.5-8.59a1.07,1.07,0,0,1,1-.76Z"/><path class="cls-2" d="M138.12,179c-.8-1.42-2.8-5.77-2.8-13.88,0-7.3.93-10.72,2.26-12.89a2,2,0,0,0-.27-2.45l-3.09-3.24H122.76l-3.09,3.24a2,2,0,0,0-.26,2.45c1.32,2.17,2.26,5.59,2.26,12.89,0,8.11-2,12.46-2.8,13.88a2.58,2.58,0,0,0-.32,1.25v11.35a6.73,6.73,0,0,0,6.73,6.73h6.43a6.73,6.73,0,0,0,6.73-6.73V180.2A2.58,2.58,0,0,0,138.12,179Zm-4.4,12.65H123.26a1.51,1.51,0,0,1,0-3h10.46a1.51,1.51,0,1,1,0,3Z"/><rect class="cls-3" y="336.06" width="360" height="23.94"/><path class="cls-4" d="M250.45,352.49v-8.4h5.72v1.49h-3.94v1.84h3.67v1.49h-3.67V351h4v1.49Z"/><path class="cls-4" d="M259,344.09h1.87l1.39,2.25.65,1.05.51.83.47.77c.16.24.28.45.39.62h0v-5.52H266v8.4h-1.87l-1.37-2.22-.64-1c-.18-.28-.35-.55-.51-.83l-.49-.79-.4-.64h0v5.52H259Z"/><path class="cls-4" d="M270.44,344.09q.45,1.26.84,2.43l.4,1.16c.1.31.21.62.31.94l.3.92c.1.29.18.56.25.79h0c.07-.23.15-.5.25-.8s.2-.62.3-.95.23-.68.35-1l.34-1,.84-2.43h1.85l-3.09,8.4h-1.84l-3.06-8.4Z"/><path class="cls-4" d="M279,344.09h1.79v8.4H279Z"/><path class="cls-4" d="M290.23,346.64a2.36,2.36,0,0,1-1.6,2.4l1.94,3.45h-2l-1.74-3.18h-1.12v3.18h-1.79v-8.4H287a5.47,5.47,0,0,1,1.33.15,2.89,2.89,0,0,1,1,.46,2.15,2.15,0,0,1,.64.79A2.71,2.71,0,0,1,290.23,346.64Zm-1.85,0a.91.91,0,0,0-.39-.85,2.3,2.3,0,0,0-1.18-.23h-1.08v2.26h1.08a2.08,2.08,0,0,0,1.18-.27A1,1,0,0,0,288.38,346.66Z"/><path class="cls-4" d="M292.91,348.29a5.49,5.49,0,0,1,.29-1.83,4,4,0,0,1,.83-1.38,3.61,3.61,0,0,1,1.29-.86,4.85,4.85,0,0,1,3.36,0,3.7,3.7,0,0,1,1.29.86,4.13,4.13,0,0,1,.83,1.38,5.92,5.92,0,0,1,0,3.66,4,4,0,0,1-.83,1.37,3.59,3.59,0,0,1-1.29.87,4.85,4.85,0,0,1-3.36,0,3.51,3.51,0,0,1-1.29-.87,3.84,3.84,0,0,1-.83-1.37A5.49,5.49,0,0,1,292.91,348.29Zm1.86,0a4.82,4.82,0,0,0,.13,1.17,2.94,2.94,0,0,0,.42.91,1.83,1.83,0,0,0,.7.59,2.39,2.39,0,0,0,2,0,2,2,0,0,0,.7-.59,2.72,2.72,0,0,0,.41-.91,4.37,4.37,0,0,0,.14-1.17,4.27,4.27,0,0,0-.14-1.17,2.63,2.63,0,0,0-.41-.91,1.89,1.89,0,0,0-.7-.59,2.39,2.39,0,0,0-2,0,1.75,1.75,0,0,0-.7.59,2.84,2.84,0,0,0-.42.91A4.71,4.71,0,0,0,294.77,348.29Z"/><path class="cls-4" d="M303.91,344.09h1.87l1.39,2.25.65,1.05.51.83c.16.27.32.53.48.77l.38.62h0v-5.52h1.7v8.4h-1.87l-1.37-2.22-.64-1-.51-.83-.49-.79-.4-.64h0v5.52h-1.7Z"/><path class="cls-4" d="M317.79,352.49c-.11-.33-.27-.76-.44-1.29s-.37-1.09-.56-1.66-.38-1.14-.56-1.7-.33-1-.44-1.39h0v6H314.1v-8.4h2.52c.34,1,.65,2,.94,2.82.16.51.3.92.41,1.24s.21.62.3.91l.25.78c.08.23.13.4.16.5,0-.1.09-.27.16-.5s.16-.51.26-.83.21-.65.32-1,.23-.72.35-1.08l.91-2.82h2.5v8.4h-1.65v-6h0l-.29.9-.36,1.11c-.14.39-.27.79-.4,1.19s-.27.79-.39,1.15l-.33,1-.24.7Z"/><path class="cls-4" d="M326.35,352.49v-8.4h5.72v1.49h-3.94v1.84h3.67v1.49h-3.67V351h4v1.49Z"/><path class="cls-4" d="M334.92,344.09h1.87l1.39,2.25.65,1.05c.17.28.34.55.5.83l.48.77c.16.24.28.45.39.62h0v-5.52h1.71v8.4h-1.87l-1.37-2.22-.64-1c-.18-.28-.35-.55-.51-.83l-.49-.79-.4-.64h0v5.52h-1.7Z"/><path class="cls-4" d="M344.47,344.09h6.66v1.5h-2.42v6.9H346.9v-6.9h-2.43Z"/></g></svg>