<svg xmlns="http://www.w3.org/2000/svg" viewBox="0 0 360 360"><defs><style>.cls-1{fill:#f1f2f2;}.cls-2{fill:#d2bf2d;}.cls-3,.cls-4,.cls-5,.cls-6,.cls-7{fill:none;stroke:#d2bf2d;stroke-miterlimit:10;}.cls-3,.cls-5{stroke-linecap:round;}.cls-3,.cls-6{stroke-width:3px;}.cls-4,.cls-5{stroke-width:4px;}.cls-7{stroke-width:5px;}.cls-8{fill:#fff;}</style></defs><g id="BACKGROUND"><rect class="cls-1" width="360" height="360"/></g><g id="LINE_ONE" data-name="LINE ONE"><path class="cls-2" d="M138.83,243.24v4.92h-3v-14h5.32a9.4,9.4,0,0,1,2.28.26,4.81,4.81,0,0,1,1.74.8,3.6,3.6,0,0,1,1.12,1.38,4.61,4.61,0,0,1,.4,2,4.87,4.87,0,0,1-.41,2.07,3.85,3.85,0,0,1-1.14,1.44,4.75,4.75,0,0,1-1.75.84,8.76,8.76,0,0,1-2.24.27Zm4.82-4.62a1.68,1.68,0,0,0-.69-1.56,4.09,4.09,0,0,0-2.09-.42h-2v4.12h2a3.58,3.58,0,0,0,2.09-.5A1.88,1.88,0,0,0,143.65,238.62Z"/><path class="cls-2" d="M162.17,248.16h-3.1L158,244.92h-5l-1.12,3.24h-2.94l5-14h3.22Zm-6.76-10.72a4,4,0,0,1-.14.47c-.06.21-.14.44-.22.7s-.17.54-.27.84-.19.59-.29.87c-.22.69-.47,1.43-.74,2.22h3.38c-.26-.79-.51-1.53-.74-2.22l-.35-1q-.12-.39-.24-.75c-.07-.24-.14-.46-.21-.67l-.14-.47Z"/><path class="cls-2" d="M165,241.16a9.12,9.12,0,0,1,.48-3.07,6.47,6.47,0,0,1,1.37-2.29,5.75,5.75,0,0,1,2.16-1.43,7.82,7.82,0,0,1,2.85-.49,6.81,6.81,0,0,1,3.76,1,5.31,5.31,0,0,1,2.16,3l-2.92,1a3.92,3.92,0,0,0-1.08-1.83,2.86,2.86,0,0,0-2-.65,3.51,3.51,0,0,0-1.62.36,3.26,3.26,0,0,0-1.16,1,4.47,4.47,0,0,0-.69,1.51,7.77,7.77,0,0,0-.23,1.92,7.63,7.63,0,0,0,.23,1.91,4.65,4.65,0,0,0,.69,1.51,3.19,3.19,0,0,0,1.16,1,3.54,3.54,0,0,0,1.64.36,2.92,2.92,0,0,0,1.89-.58,3.53,3.53,0,0,0,1.11-1.76l2.88,1a5.9,5.9,0,0,1-2.16,2.8,6.4,6.4,0,0,1-3.76,1A7.53,7.53,0,0,1,169,248a5.94,5.94,0,0,1-2.14-1.42,6.3,6.3,0,0,1-1.37-2.29A9.22,9.22,0,0,1,165,241.16Z"/><path class="cls-2" d="M182.21,234.16h3v14h-3Z"/><path class="cls-2" d="M190.49,248.16v-14h9.58v2.48h-6.62v3.08h6.1v2.48h-6.1v6Z"/><path class="cls-2" d="M204.55,234.16h3v14h-3Z"/><path class="cls-2" d="M212.25,241.16a9.12,9.12,0,0,1,.48-3.07,6.47,6.47,0,0,1,1.37-2.29,5.83,5.83,0,0,1,2.16-1.43,7.82,7.82,0,0,1,2.85-.49,6.83,6.83,0,0,1,3.76,1,5.31,5.31,0,0,1,2.16,3l-2.92,1A3.92,3.92,0,0,0,221,237a2.86,2.86,0,0,0-2-.65,3.51,3.51,0,0,0-1.62.36,3.35,3.35,0,0,0-1.16,1,4.47,4.47,0,0,0-.69,1.51,7.77,7.77,0,0,0-.23,1.92,7.63,7.63,0,0,0,.23,1.91,4.65,4.65,0,0,0,.69,1.51,3.28,3.28,0,0,0,1.16,1,3.54,3.54,0,0,0,1.64.36,2.92,2.92,0,0,0,1.89-.58,3.53,3.53,0,0,0,1.11-1.76l2.88,1a6,6,0,0,1-2.16,2.8,6.42,6.42,0,0,1-3.76,1,7.57,7.57,0,0,1-2.79-.49,5.94,5.94,0,0,1-2.14-1.42,6.3,6.3,0,0,1-1.37-2.29A9.22,9.22,0,0,1,212.25,241.16Z"/></g><g id="LINE_TWO" data-name="LINE TWO"><path class="cls-2" d="M109.84,252H113l2.32,3.76c.44.7.8,1.29,1.08,1.75l.84,1.37.8,1.29c.26.4.47.75.64,1h.06V252h2.84v14h-3.12l-2.28-3.7c-.42-.7-.78-1.27-1.07-1.73l-.85-1.38-.81-1.32c-.26-.42-.48-.78-.67-1.07h-.06V266h-2.84Z"/><path class="cls-2" d="M126.24,259a8.79,8.79,0,0,1,.49-3,6.55,6.55,0,0,1,1.38-2.29,5.9,5.9,0,0,1,2.15-1.44,8.09,8.09,0,0,1,5.6,0,5.82,5.82,0,0,1,2.15,1.44,6.55,6.55,0,0,1,1.38,2.29,9.74,9.74,0,0,1,0,6.1,6.64,6.64,0,0,1-1.38,2.29,6.07,6.07,0,0,1-2.15,1.44,8.09,8.09,0,0,1-5.6,0,6.16,6.16,0,0,1-2.15-1.44,6.64,6.64,0,0,1-1.38-2.29A8.83,8.83,0,0,1,126.24,259Zm3.1,0a8,8,0,0,0,.23,1.95,4.52,4.52,0,0,0,.69,1.52,3.32,3.32,0,0,0,1.16,1,4,4,0,0,0,3.28,0,3.16,3.16,0,0,0,1.16-1,4.33,4.33,0,0,0,.69-1.52,7.56,7.56,0,0,0,.23-1.95,7.45,7.45,0,0,0-.23-1.95,4.25,4.25,0,0,0-.69-1.52,3.06,3.06,0,0,0-1.16-1,4,4,0,0,0-3.28,0,3.22,3.22,0,0,0-1.16,1,4.43,4.43,0,0,0-.69,1.52A7.9,7.9,0,0,0,129.34,259Z"/><path class="cls-2" d="M155.06,256.21a4.26,4.26,0,0,1-.71,2.54,4.21,4.21,0,0,1-1.95,1.46l3.22,5.74h-3.3l-2.9-5.3h-1.86V266h-3V252h5.12a8.89,8.89,0,0,1,2.21.25,4.53,4.53,0,0,1,1.69.77,3.32,3.32,0,0,1,1.08,1.32A4.47,4.47,0,0,1,155.06,256.21Zm-3.08,0a1.51,1.51,0,0,0-.65-1.41,3.91,3.91,0,0,0-2-.39h-1.8v3.78h1.8a3.48,3.48,0,0,0,2-.45A1.74,1.74,0,0,0,152,256.23Z"/><path class="cls-2" d="M158.74,252h11.1v2.5h-4V266h-3v-11.5h-4Z"/><path class="cls-2" d="M174.06,252h3v5.54h5.3V252h3v14h-3V260h-5.3V266h-3Z"/><path class="cls-2" d="M207.8,252l-3.5,14h-3.48c-.29-1.3-.57-2.53-.84-3.7-.16-.7-.29-1.28-.4-1.74s-.21-.94-.31-1.4-.2-.92-.3-1.34l-.25-1.1h-.06q-.09.45-.24,1.11c-.09.43-.2.89-.32,1.39s-.24,1-.36,1.53l-.36,1.55c-.28,1.17-.58,2.4-.9,3.7H193l-3.52-14h3c.35,1.49.67,2.91,1,4.26.17.8.32,1.46.44,2s.23,1,.34,1.56l.31,1.48c.1.46.18.86.23,1.18h.06c.07-.32.15-.72.25-1.19s.22-1,.34-1.53l.4-1.72c.14-.6.28-1.19.41-1.76q.48-2,1-4.26h2.82q.54,2.24,1,4.26c.19.8.34,1.46.47,2s.25,1,.37,1.56.23,1,.33,1.48.18.86.25,1.18h.06c.07-.32.15-.72.25-1.19s.21-1,.33-1.53.25-1.12.38-1.72.27-1.19.4-1.76c.32-1.35.66-2.77,1-4.26Z"/><path class="cls-2" d="M211.92,266V252h9.54v2.48h-6.58v3.08H221V260h-6.12v3.48h6.68V266Z"/><path class="cls-2" d="M228.92,255.63a1.34,1.34,0,0,0,.78,1.29,9.48,9.48,0,0,0,2.48.67,7.86,7.86,0,0,1,3.67,1.38,3.48,3.48,0,0,1,1.17,2.86,3.92,3.92,0,0,1-.42,1.83,4.07,4.07,0,0,1-1.17,1.38,5.65,5.65,0,0,1-1.79.88,8.12,8.12,0,0,1-2.26.31,7.68,7.68,0,0,1-2.38-.35,6.1,6.1,0,0,1-1.8-.93,4.41,4.41,0,0,1-1.16-1.36,3.81,3.81,0,0,1-.46-1.62l3-.48a2.58,2.58,0,0,0,.79,1.67,2.84,2.84,0,0,0,2,.65,5.32,5.32,0,0,0,1-.1,2.52,2.52,0,0,0,.82-.33,1.86,1.86,0,0,0,.55-.57,1.63,1.63,0,0,0,.2-.82,1.35,1.35,0,0,0-.65-1.2,6.31,6.31,0,0,0-2.29-.68,18.1,18.1,0,0,1-2-.46,5.72,5.72,0,0,1-1.63-.77,3.6,3.6,0,0,1-1.08-1.22,3.79,3.79,0,0,1-.39-1.79,3.93,3.93,0,0,1,.4-1.84,3.72,3.72,0,0,1,1.12-1.31,4.84,4.84,0,0,1,1.7-.79,8,8,0,0,1,2.14-.26,7.71,7.71,0,0,1,2,.25,5.28,5.28,0,0,1,1.67.74,4.23,4.23,0,0,1,1.21,1.21,4.42,4.42,0,0,1,.66,1.64l-3,.66a2.45,2.45,0,0,0-.82-1.52,2.62,2.62,0,0,0-1.78-.56,2.78,2.78,0,0,0-1.69.42A1.33,1.33,0,0,0,228.92,255.63Z"/><path class="cls-2" d="M240.12,252h11.1v2.5h-4V266h-3v-11.5h-4Z"/></g><g id="ICON"><path class="cls-3" d="M165.52,111l-10.3,8.53a.11.11,0,0,1-.11,0l-10.22-8.46"/><path class="cls-3" d="M185.76,111l-10.11,8.53a.11.11,0,0,1-.11,0l-10-8.46"/><line class="cls-4" x1="124.27" y1="107.23" x2="124.27" y2="196.8"/><polyline class="cls-5" points="107.52 124.06 124.35 107.23 141.03 123.92"/><polyline class="cls-5" points="107.52 138.4 124.35 121.57 141.03 138.26"/><polyline class="cls-5" points="107.52 152.74 124.35 135.91 141.03 152.59"/><polyline class="cls-5" points="107.52 167.08 124.35 150.25 141.03 166.93"/><line class="cls-6" x1="91.76" y1="137.18" x2="91.76" y2="194.82"/><polyline class="cls-3" points="80.97 148.01 91.81 137.18 102.54 147.92"/><polyline class="cls-3" points="80.97 157.24 91.81 146.41 102.54 157.15"/><polyline class="cls-3" points="80.97 166.47 91.81 155.64 102.54 166.37"/><polyline class="cls-3" points="80.97 175.7 91.81 164.87 102.54 175.6"/><path class="cls-7" d="M70.23,195.88H289.69s.05,0,0,0L239.1,134.21a.06.06,0,0,0-.09,0l-17.86,21.34a.06.06,0,0,1-.09,0L167,89.8a.06.06,0,0,0-.09,0l-29,29.3"/><rect class="cls-2" y="336.06" width="360" height="23.94"/><path class="cls-8" d="M250.45,352.49v-8.4h5.72v1.49h-4v1.84h3.67v1.49h-3.67V351h4v1.49Z"/><path class="cls-8" d="M259,344.09h1.87l1.39,2.25.65,1.05.5.83.48.77.39.62h0v-5.52H266v8.4h-1.88l-1.36-2.22-.65-1-.51-.83-.48-.79-.4-.64h0v5.52H259Z"/><path class="cls-8" d="M270.44,344.09c.29.84.58,1.65.84,2.43l.4,1.16c.1.31.2.62.31.94l.3.92.25.79h0c.08-.23.16-.5.25-.8l.31-.95.34-1,.35-1c.27-.78.54-1.59.84-2.43h1.85l-3.1,8.4h-1.83l-3.06-8.4Z"/><path class="cls-8" d="M279,344.09h1.8v8.4H279Z"/><path class="cls-8" d="M290.23,346.64a2.36,2.36,0,0,1-1.6,2.4l1.93,3.45h-2l-1.74-3.18h-1.11v3.18h-1.79v-8.4H287a5.47,5.47,0,0,1,1.33.15,2.84,2.84,0,0,1,1,.46,2.08,2.08,0,0,1,.65.79A2.71,2.71,0,0,1,290.23,346.64Zm-1.85,0a.91.91,0,0,0-.39-.85,2.3,2.3,0,0,0-1.18-.23h-1.08v2.26h1.08a2.08,2.08,0,0,0,1.18-.27A1,1,0,0,0,288.38,346.66Z"/><path class="cls-8" d="M292.9,348.29a5.24,5.24,0,0,1,.3-1.83,3.83,3.83,0,0,1,.83-1.38,3.52,3.52,0,0,1,1.29-.86,4.49,4.49,0,0,1,1.68-.3,4.56,4.56,0,0,1,1.68.3,3.7,3.7,0,0,1,1.29.86,4,4,0,0,1,.82,1.38,5.73,5.73,0,0,1,0,3.66,3.82,3.82,0,0,1-.82,1.37,3.59,3.59,0,0,1-1.29.87,4.56,4.56,0,0,1-1.68.3,4.49,4.49,0,0,1-1.68-.3,3.42,3.42,0,0,1-1.29-.87,3.7,3.7,0,0,1-.83-1.37A5.24,5.24,0,0,1,292.9,348.29Zm1.86,0a4.81,4.81,0,0,0,.14,1.17,2.54,2.54,0,0,0,.42.91,1.88,1.88,0,0,0,.69.59,2.42,2.42,0,0,0,2,0,2,2,0,0,0,.7-.59,2.72,2.72,0,0,0,.41-.91,4.81,4.81,0,0,0,.14-1.17,4.69,4.69,0,0,0-.14-1.17,2.63,2.63,0,0,0-.41-.91,1.89,1.89,0,0,0-.7-.59,2.42,2.42,0,0,0-2,0,1.79,1.79,0,0,0-.69.59,2.47,2.47,0,0,0-.42.91A4.69,4.69,0,0,0,294.76,348.29Z"/><path class="cls-8" d="M303.91,344.09h1.87l1.39,2.25.65,1.05c.17.28.34.55.5.83l.48.77c.16.24.28.45.39.62h0v-5.52h1.71v8.4h-1.87l-1.37-2.22-.64-1c-.18-.28-.35-.55-.51-.83l-.49-.79-.4-.64h0v5.52h-1.7Z"/><path class="cls-8" d="M317.79,352.49q-.18-.5-.45-1.29c-.18-.53-.36-1.09-.56-1.66l-.55-1.7c-.18-.55-.33-1-.44-1.39h0v6H314.1v-8.4h2.52q.51,1.53.93,2.82l.42,1.24c.1.32.2.62.3.91l.25.78c.07.23.13.4.16.5,0-.1.08-.27.16-.5s.15-.51.25-.83l.33-1c.11-.36.23-.72.35-1.08q.41-1.29.9-2.82h2.51v8.4h-1.66v-6h0l-.29.9c-.11.34-.23.71-.37,1.11s-.26.79-.4,1.19l-.38,1.15-.33,1c-.1.3-.18.53-.25.7Z"/><path class="cls-8" d="M326.35,352.49v-8.4h5.72v1.49h-3.95v1.84h3.67v1.49h-3.67V351h4v1.49Z"/><path class="cls-8" d="M334.92,344.09h1.87c.48.79.95,1.54,1.39,2.25l.65,1.05.5.83.48.77.38.62h0v-5.52h1.7v8.4h-1.87c-.48-.78-.93-1.52-1.37-2.22-.25-.42-.47-.76-.64-1l-.51-.83-.48-.79c-.16-.25-.29-.47-.41-.64h0v5.52h-1.7Z"/><path class="cls-8" d="M344.47,344.09h6.66v1.5H348.7v6.9h-1.81v-6.9h-2.42Z"/></g></svg>