<svg xmlns="http://www.w3.org/2000/svg" viewBox="0 0 360 360"><defs><style>.cls-1{fill:#fff;}.cls-2,.cls-3{fill:none;stroke:#fff;stroke-width:3px;}.cls-2{stroke-miterlimit:10;}.cls-3{stroke-linejoin:round;}</style></defs><g id="BACKGROUND"><rect x="-1" width="360" height="360"/></g><g id="LINE_ONE" data-name="LINE ONE"><path class="cls-1" d="M130.87,241.16a9.12,9.12,0,0,1,.48-3.07,6.47,6.47,0,0,1,1.37-2.29,5.75,5.75,0,0,1,2.16-1.43,7.82,7.82,0,0,1,2.85-.49,6.83,6.83,0,0,1,3.76,1,5.35,5.35,0,0,1,2.16,3l-2.92,1a3.92,3.92,0,0,0-1.08-1.83,2.86,2.86,0,0,0-2-.65,3.51,3.51,0,0,0-1.62.36,3.26,3.26,0,0,0-1.16,1,4.28,4.28,0,0,0-.69,1.51,7.77,7.77,0,0,0-.23,1.92,7.63,7.63,0,0,0,.23,1.91,4.45,4.45,0,0,0,.69,1.51,3.19,3.19,0,0,0,1.16,1,3.54,3.54,0,0,0,1.64.36,2.94,2.94,0,0,0,1.89-.58,3.53,3.53,0,0,0,1.11-1.76l2.88,1a6,6,0,0,1-2.16,2.8,6.42,6.42,0,0,1-3.76,1,7.5,7.5,0,0,1-2.79-.49,5.94,5.94,0,0,1-2.14-1.42,6.3,6.3,0,0,1-1.37-2.29A9.22,9.22,0,0,1,130.87,241.16Z"/><path class="cls-1" d="M160.21,248.16h-3.1L156,244.92h-5l-1.12,3.24h-2.94l5-14h3.22Zm-6.76-10.72c0,.11-.07.26-.14.47s-.14.44-.22.7-.17.54-.27.84l-.29.87c-.23.69-.47,1.43-.74,2.22h3.38c-.27-.79-.51-1.53-.74-2.22-.15-.4-.26-.73-.35-1s-.17-.51-.24-.75-.14-.46-.21-.67-.11-.36-.14-.47Z"/><path class="cls-1" d="M170.51,248.16c-.2-.55-.45-1.26-.75-2.15l-.93-2.77q-.48-1.44-.93-2.82c-.3-.92-.54-1.69-.73-2.32h-.06v10.06h-2.76v-14h4.2c.57,1.71,1.09,3.27,1.56,4.7q.42,1.27.69,2.07c.18.53.35,1,.5,1.51s.29.91.42,1.3.22.67.27.84l.26-.84c.12-.39.26-.84.43-1.37s.35-1.09.54-1.7.39-1.21.59-1.81c.45-1.43.95-3,1.5-4.7h4.18v14h-2.76V238.1h-.06l-.48,1.49c-.19.58-.39,1.2-.61,1.85s-.44,1.32-.67,2-.44,1.31-.64,1.92-.38,1.16-.55,1.65-.3.88-.41,1.16Z"/><path class="cls-1" d="M187.75,243.24v4.92h-3v-14h5.32a9.4,9.4,0,0,1,2.28.26,4.81,4.81,0,0,1,1.74.8,3.7,3.7,0,0,1,1.12,1.38,4.61,4.61,0,0,1,.4,2,4.87,4.87,0,0,1-.41,2.07,3.85,3.85,0,0,1-1.14,1.44,4.83,4.83,0,0,1-1.75.84,8.76,8.76,0,0,1-2.24.27Zm4.82-4.62a1.68,1.68,0,0,0-.69-1.56,4.11,4.11,0,0,0-2.09-.42h-2v4.12h2a3.6,3.6,0,0,0,2.09-.5A1.88,1.88,0,0,0,192.57,238.62Z"/><path class="cls-1" d="M205.55,248.44A4.9,4.9,0,0,1,200,243v-8.84h3V243a3.33,3.33,0,0,0,.64,2.11,2.73,2.73,0,0,0,3.92,0,3.4,3.4,0,0,0,.64-2.11v-8.86h3V243a5.65,5.65,0,0,1-1.34,4A5.59,5.59,0,0,1,205.55,248.44Z"/><path class="cls-1" d="M219.07,237.84a1.34,1.34,0,0,0,.78,1.29,9.36,9.36,0,0,0,2.48.67,7.86,7.86,0,0,1,3.67,1.38,3.48,3.48,0,0,1,1.17,2.86,3.92,3.92,0,0,1-.42,1.83,4.07,4.07,0,0,1-1.17,1.38,5.65,5.65,0,0,1-1.79.88,7.77,7.77,0,0,1-2.26.31,7.63,7.63,0,0,1-2.38-.35,5.66,5.66,0,0,1-1.8-.93,4.28,4.28,0,0,1-1.16-1.36,3.81,3.81,0,0,1-.46-1.62l3-.48a2.56,2.56,0,0,0,.79,1.67,2.84,2.84,0,0,0,2,.65,4.61,4.61,0,0,0,1-.1,2.52,2.52,0,0,0,.82-.33,1.76,1.76,0,0,0,.55-.57,1.63,1.63,0,0,0,.2-.82,1.35,1.35,0,0,0-.65-1.2,6.38,6.38,0,0,0-2.29-.68,15.76,15.76,0,0,1-2-.46,5.47,5.47,0,0,1-1.63-.77,3.51,3.51,0,0,1-1.08-1.22,3.76,3.76,0,0,1-.39-1.79,3.93,3.93,0,0,1,.4-1.84,3.62,3.62,0,0,1,1.12-1.31,5,5,0,0,1,1.7-.79,8.48,8.48,0,0,1,2.14-.26,7.71,7.71,0,0,1,2,.25,5.51,5.51,0,0,1,1.67.74,4.35,4.35,0,0,1,1.87,2.85l-3,.66a2.45,2.45,0,0,0-.82-1.52,2.67,2.67,0,0,0-1.78-.56,2.76,2.76,0,0,0-1.69.42A1.33,1.33,0,0,0,219.07,237.84Z"/></g><g id="LINE_TWO" data-name="LINE TWO"><path class="cls-1" d="M107.26,259a9.12,9.12,0,0,1,.48-3.07,6.39,6.39,0,0,1,1.37-2.29,5.64,5.64,0,0,1,2.16-1.43,7.82,7.82,0,0,1,2.85-.49,6.75,6.75,0,0,1,3.76,1,5.32,5.32,0,0,1,2.16,3l-2.92,1a3.92,3.92,0,0,0-1.08-1.83,2.82,2.82,0,0,0-2-.65,3.51,3.51,0,0,0-1.62.36,3.26,3.26,0,0,0-1.16,1,4.28,4.28,0,0,0-.69,1.51,8.09,8.09,0,0,0,0,3.83,4.45,4.45,0,0,0,.69,1.51,3.29,3.29,0,0,0,1.16,1,3.54,3.54,0,0,0,1.64.36,3,3,0,0,0,1.89-.58,3.57,3.57,0,0,0,1.11-1.76l2.88,1a6.07,6.07,0,0,1-2.16,2.8,6.42,6.42,0,0,1-3.76,1,7.7,7.7,0,0,1-2.79-.49,5.94,5.94,0,0,1-2.14-1.42,6.39,6.39,0,0,1-1.37-2.29A9.26,9.26,0,0,1,107.26,259Z"/><path class="cls-1" d="M123.86,259a8.79,8.79,0,0,1,.49-3,6.55,6.55,0,0,1,1.38-2.29,5.82,5.82,0,0,1,2.15-1.44,8.09,8.09,0,0,1,5.6,0,5.82,5.82,0,0,1,2.15,1.44A6.55,6.55,0,0,1,137,255.9a9.74,9.74,0,0,1,0,6.1,6.64,6.64,0,0,1-1.38,2.29,6.07,6.07,0,0,1-2.15,1.44,8.09,8.09,0,0,1-5.6,0,6.07,6.07,0,0,1-2.15-1.44,6.64,6.64,0,0,1-1.38-2.29A8.83,8.83,0,0,1,123.86,259Zm3.1,0a8,8,0,0,0,.23,1.95,4.33,4.33,0,0,0,.69,1.52,3.24,3.24,0,0,0,1.16,1,4,4,0,0,0,3.28,0,3.24,3.24,0,0,0,1.16-1,4.33,4.33,0,0,0,.69-1.52,8,8,0,0,0,.23-1.95,7.9,7.9,0,0,0-.23-1.95,4.25,4.25,0,0,0-.69-1.52,3.14,3.14,0,0,0-1.16-1,4,4,0,0,0-3.28,0,3.14,3.14,0,0,0-1.16,1,4.25,4.25,0,0,0-.69,1.52A7.9,7.9,0,0,0,127,259Z"/><path class="cls-1" d="M148.36,266c-.2-.55-.45-1.27-.75-2.15l-.93-2.77q-.48-1.44-.93-2.82c-.3-.92-.54-1.7-.73-2.32H145V266H142.2V252h4.2q.85,2.55,1.56,4.7l.69,2.07c.18.52.35,1,.5,1.51s.29.91.42,1.3.22.66.27.84c0-.18.14-.46.26-.84s.26-.85.43-1.37l.54-1.7c.19-.61.39-1.21.59-1.81q.68-2.14,1.5-4.7h4.18v14h-2.76V255.89h-.06l-.48,1.49-.61,1.85-.67,2c-.23.67-.44,1.31-.64,1.92s-.38,1.15-.55,1.65-.3.88-.41,1.16Z"/><path class="cls-1" d="M168.78,266c-.2-.55-.45-1.27-.75-2.15L167.1,261q-.48-1.44-.93-2.82c-.3-.92-.54-1.7-.73-2.32h-.06V266h-2.76V252h4.2q.85,2.55,1.56,4.7l.69,2.07c.18.52.35,1,.5,1.51s.29.91.42,1.3.22.66.27.84c.05-.18.14-.46.26-.84s.26-.85.43-1.37l.54-1.7c.19-.61.39-1.21.59-1.81q.67-2.14,1.5-4.7h4.18v14H175V255.89h-.06l-.48,1.49-.61,1.85-.67,2c-.23.67-.44,1.31-.64,1.92l-.55,1.65c-.17.49-.3.88-.41,1.16Z"/><path class="cls-1" d="M188.56,266.23a5.56,5.56,0,0,1-4.26-1.44,5.67,5.67,0,0,1-1.34-4V252h3v8.86a3.35,3.35,0,0,0,.64,2.11,2.73,2.73,0,0,0,3.92,0,3.35,3.35,0,0,0,.64-2.11V252h3v8.84a5.67,5.67,0,0,1-1.34,4A5.56,5.56,0,0,1,188.56,266.23Z"/><path class="cls-1" d="M199.36,252h3.12l2.32,3.76c.44.7.8,1.29,1.08,1.75l.84,1.37.8,1.29.64,1h.06V252h2.84v14h-3.12l-2.28-3.7-1.07-1.73c-.29-.46-.57-.92-.85-1.38l-.81-1.32c-.26-.42-.48-.78-.67-1.07h-.06V266h-2.84Z"/><path class="cls-1" d="M216.34,252h3v14h-3Z"/><path class="cls-1" d="M223.56,252h11.1v2.5h-4V266h-3v-11.5h-4Z"/><path class="cls-1" d="M243.12,260.09l-5.3-8.14h3.44l3.42,5.36,3.4-5.36h3.34l-5.3,8.14V266h-3Z"/></g><g id="ICON"><rect class="cls-2" x="130.4" y="90.27" width="99.2" height="13.74" rx="0.72"/><path class="cls-2" d="M156.77,104l-14.41,36.28a1.15,1.15,0,0,1-1,.67H104.31a.72.72,0,0,0-.72.72V154a.72.72,0,0,0,.72.72h31.6a.45.45,0,0,1,.45.67L119.57,197.6a.46.46,0,0,0,.46.67h13.35a1.14,1.14,0,0,0,1-.67l16.79-42.23a1.15,1.15,0,0,1,1-.67h55.72a1.15,1.15,0,0,1,1,.67l16.79,42.23a1.14,1.14,0,0,0,1,.67H240a.46.46,0,0,0,.46-.67l-16.79-42.23a.45.45,0,0,1,.45-.67h31.6a.72.72,0,0,0,.72-.72v-12.3a.72.72,0,0,0-.72-.72H218.63a1.15,1.15,0,0,1-1-.67L203.23,104m-14.79,0,14.42,36.28a.46.46,0,0,1-.46.67H157.6a.46.46,0,0,1-.46-.67L171.56,104m16.88,0-16.88,0"/><rect class="cls-3" x="103.59" y="131" width="31.64" height="4.59"/><rect class="cls-3" x="224.76" y="131" width="31.64" height="4.59" transform="translate(481.17 266.59) rotate(180)"/></g></svg>