<svg xmlns="http://www.w3.org/2000/svg" viewBox="0 0 360 360"><defs><style>.cls-1{fill:#fff;}.cls-2{fill:none;stroke:#fff;stroke-miterlimit:10;stroke-width:0.71px;}</style></defs><g id="BACKGROUND"><rect width="360" height="360"/></g><g id="LINE_ONE" data-name="LINE ONE"><path class="cls-1" d="M64.66,234.16h3v14h-3Z"/><path class="cls-1" d="M72.94,234.16h3.12l2.32,3.76c.44.7.8,1.29,1.08,1.75L80.3,241l.8,1.29.64,1h.06v-9.2h2.84v14H81.52l-2.28-3.7-1.07-1.73c-.29-.46-.57-.92-.85-1.38L76.51,240c-.26-.42-.48-.78-.67-1.07h-.06v9.2H72.94Z"/><path class="cls-1" d="M88.86,234.16H100v2.5h-4v11.5h-3v-11.5h-4Z"/><path class="cls-1" d="M104.18,248.16v-14h9.54v2.48h-6.58v3.08h6.12v2.48h-6.12v3.48h6.68v2.48Z"/><path class="cls-1" d="M128.94,238.42a4.26,4.26,0,0,1-.71,2.54,4.21,4.21,0,0,1-1.95,1.46l3.22,5.74h-3.3l-2.9-5.3h-1.86v5.3h-3v-14h5.12a8.89,8.89,0,0,1,2.21.25,4.61,4.61,0,0,1,1.69.77,3.32,3.32,0,0,1,1.08,1.32A4.47,4.47,0,0,1,128.94,238.42Zm-3.08,0a1.51,1.51,0,0,0-.65-1.41,3.91,3.91,0,0,0-2-.39h-1.8v3.78h1.8a3.48,3.48,0,0,0,2-.45A1.74,1.74,0,0,0,125.86,238.44Z"/><path class="cls-1" d="M134,234.16h5.22a8.13,8.13,0,0,1,2.88.47,5.73,5.73,0,0,1,2.16,1.36,5.79,5.79,0,0,1,1.35,2.19,9.68,9.68,0,0,1,0,6,5.66,5.66,0,0,1-3.51,3.55,8.36,8.36,0,0,1-2.88.47H134Zm9,7a7,7,0,0,0-.23-1.85,4,4,0,0,0-.7-1.43,3,3,0,0,0-1.19-.92,4.1,4.1,0,0,0-1.72-.32H137v9h2.12a4.26,4.26,0,0,0,1.72-.32,3.11,3.11,0,0,0,1.19-.92,4.07,4.07,0,0,0,.7-1.43A7.1,7.1,0,0,0,143,241.16Z"/><path class="cls-1" d="M150.76,234.16h3v14h-3Z"/><path class="cls-1" d="M161.76,237.84a1.34,1.34,0,0,0,.78,1.29,9.48,9.48,0,0,0,2.48.67,7.86,7.86,0,0,1,3.67,1.38,3.48,3.48,0,0,1,1.17,2.86,3.92,3.92,0,0,1-.42,1.83,4.07,4.07,0,0,1-1.17,1.38,5.65,5.65,0,0,1-1.79.88,8.12,8.12,0,0,1-2.26.31,7.68,7.68,0,0,1-2.38-.35,6.1,6.1,0,0,1-1.8-.93,4.41,4.41,0,0,1-1.16-1.36,3.81,3.81,0,0,1-.46-1.62l3-.48a2.58,2.58,0,0,0,.79,1.67,2.84,2.84,0,0,0,2,.65,5.32,5.32,0,0,0,1-.1,2.52,2.52,0,0,0,.82-.33,1.86,1.86,0,0,0,.55-.57,1.63,1.63,0,0,0,.2-.82,1.35,1.35,0,0,0-.65-1.2,6.31,6.31,0,0,0-2.29-.68,18.1,18.1,0,0,1-2-.46,5.72,5.72,0,0,1-1.63-.77,3.6,3.6,0,0,1-1.08-1.22,3.79,3.79,0,0,1-.39-1.79,3.93,3.93,0,0,1,.4-1.84,3.72,3.72,0,0,1,1.12-1.31,4.84,4.84,0,0,1,1.7-.79,8,8,0,0,1,2.14-.26,7.71,7.71,0,0,1,2,.25,5.28,5.28,0,0,1,1.67.74,4.23,4.23,0,0,1,1.21,1.21,4.42,4.42,0,0,1,.66,1.64l-3,.66a2.45,2.45,0,0,0-.82-1.52,2.62,2.62,0,0,0-1.78-.56,2.78,2.78,0,0,0-1.69.42A1.33,1.33,0,0,0,161.76,237.84Z"/><path class="cls-1" d="M173.94,241.16a9.12,9.12,0,0,1,.48-3.07,6.39,6.39,0,0,1,1.37-2.29,5.64,5.64,0,0,1,2.16-1.43,7.82,7.82,0,0,1,2.85-.49,6.75,6.75,0,0,1,3.76,1,5.32,5.32,0,0,1,2.16,3l-2.92,1a3.92,3.92,0,0,0-1.08-1.83,2.82,2.82,0,0,0-2-.65,3.51,3.51,0,0,0-1.62.36,3.26,3.26,0,0,0-1.16,1,4.28,4.28,0,0,0-.69,1.51,8.09,8.09,0,0,0,0,3.83,4.45,4.45,0,0,0,.69,1.51,3.29,3.29,0,0,0,1.16,1,3.54,3.54,0,0,0,1.64.36,3,3,0,0,0,1.89-.58,3.57,3.57,0,0,0,1.11-1.76l2.88,1a6.07,6.07,0,0,1-2.16,2.8,6.42,6.42,0,0,1-3.76,1,7.7,7.7,0,0,1-2.79-.49,5.94,5.94,0,0,1-2.14-1.42,6.39,6.39,0,0,1-1.37-2.29A9.26,9.26,0,0,1,173.94,241.16Z"/><path class="cls-1" d="M191.12,234.16h3v14h-3Z"/><path class="cls-1" d="M202.38,243.24v4.92h-3v-14h5.32a8.93,8.93,0,0,1,2.28.26,4.81,4.81,0,0,1,1.74.8,3.7,3.7,0,0,1,1.12,1.38,4.61,4.61,0,0,1,.4,2,4.87,4.87,0,0,1-.41,2.07,4,4,0,0,1-1.14,1.44A4.83,4.83,0,0,1,207,243a8.76,8.76,0,0,1-2.24.27Zm4.82-4.62a1.68,1.68,0,0,0-.69-1.56,4.11,4.11,0,0,0-2.09-.42h-2v4.12h2a3.6,3.6,0,0,0,2.09-.5A1.9,1.9,0,0,0,207.2,238.62Z"/><path class="cls-1" d="M214.66,234.16h3v11.5h6.12v2.5h-9.12Z"/><path class="cls-1" d="M228,234.16h3v14h-3Z"/><path class="cls-1" d="M236.26,234.16h3.12l2.32,3.76c.44.7.8,1.29,1.08,1.75l.84,1.37.8,1.29.64,1h.06v-9.2H248v14h-3.12l-2.28-3.7-1.07-1.73c-.29-.46-.57-.92-.85-1.38l-.81-1.32c-.26-.42-.48-.78-.67-1.07h-.06v9.2h-2.84Z"/><path class="cls-1" d="M265.4,248.16h-3.1l-1.12-3.24h-5L255,248.16H252.1l5-14h3.22Zm-6.76-10.72c0,.1-.07.26-.14.47s-.14.44-.22.7-.17.54-.27.84-.2.59-.29.87c-.23.69-.48,1.43-.74,2.22h3.38c-.27-.79-.51-1.53-.74-2.22-.15-.4-.26-.73-.35-1s-.17-.51-.24-.75-.14-.47-.21-.67a4.69,4.69,0,0,1-.14-.47Z"/><path class="cls-1" d="M280,238.42a3.94,3.94,0,0,1-2.66,4l3.22,5.74h-3.3l-2.9-5.3h-1.86v5.3h-3v-14h5.12a8.89,8.89,0,0,1,2.21.25,4.61,4.61,0,0,1,1.69.77,3.41,3.41,0,0,1,1.08,1.32A4.47,4.47,0,0,1,280,238.42Zm-3.08,0a1.51,1.51,0,0,0-.65-1.41,3.91,3.91,0,0,0-2-.39h-1.8v3.78h1.8a3.48,3.48,0,0,0,2-.45A1.74,1.74,0,0,0,276.94,238.44Z"/><path class="cls-1" d="M288.3,242.3l-5.3-8.14h3.44l3.42,5.36,3.4-5.36h3.34l-5.3,8.14v5.86h-3Z"/></g><g id="LINE_TWO" data-name="LINE TWO"><path class="cls-1" d="M114.66,265.94v-14h9.54v2.48h-6.58v3.08h6.12V260h-6.12v3.48h6.68v2.48Z"/><path class="cls-1" d="M128.94,251.94h5.22a8.36,8.36,0,0,1,2.88.47,5.66,5.66,0,0,1,3.51,3.55,9.68,9.68,0,0,1,0,6,5.79,5.79,0,0,1-1.35,2.19,5.73,5.73,0,0,1-2.16,1.36,8.13,8.13,0,0,1-2.88.47h-5.22Zm9,7a7.1,7.1,0,0,0-.23-1.85,4.07,4.07,0,0,0-.7-1.43,3.11,3.11,0,0,0-1.19-.92,4.26,4.26,0,0,0-1.72-.32H132v9h2.12a4.1,4.1,0,0,0,1.72-.32,3,3,0,0,0,1.19-.92,4,4,0,0,0,.7-1.43A7,7,0,0,0,137.92,258.94Z"/><path class="cls-1" d="M151.24,266.22a5.56,5.56,0,0,1-4.26-1.44,5.65,5.65,0,0,1-1.34-4v-8.84h3v8.86a3.32,3.32,0,0,0,.64,2.11,2.73,2.73,0,0,0,3.92,0,3.32,3.32,0,0,0,.64-2.11v-8.86h3v8.84a5.65,5.65,0,0,1-1.34,4A5.56,5.56,0,0,1,151.24,266.22Z"/><path class="cls-1" d="M161.46,258.94a9.16,9.16,0,0,1,.48-3.07,6.47,6.47,0,0,1,1.37-2.29,5.88,5.88,0,0,1,2.16-1.43,8,8,0,0,1,2.85-.49,6.83,6.83,0,0,1,3.76,1,5.39,5.39,0,0,1,2.16,3l-2.92,1a4,4,0,0,0-1.08-1.83,2.86,2.86,0,0,0-2-.65,3.51,3.51,0,0,0-1.62.36,3.26,3.26,0,0,0-1.16,1,4.37,4.37,0,0,0-.69,1.51,7.77,7.77,0,0,0-.23,1.92,7.57,7.57,0,0,0,.23,1.91,4.37,4.37,0,0,0,.69,1.51,3.19,3.19,0,0,0,1.16,1,3.54,3.54,0,0,0,1.64.36,2.94,2.94,0,0,0,1.89-.58,3.48,3.48,0,0,0,1.11-1.76l2.88,1a6,6,0,0,1-2.16,2.8,6.42,6.42,0,0,1-3.76,1,7.5,7.5,0,0,1-2.79-.49,5.82,5.82,0,0,1-2.14-1.42,6.3,6.3,0,0,1-1.37-2.29A9.18,9.18,0,0,1,161.46,258.94Z"/><path class="cls-1" d="M190.8,265.94h-3.1l-1.12-3.24h-5l-1.12,3.24H177.5l5-14h3.22ZM184,255.22c0,.11-.07.27-.14.47s-.14.44-.22.7-.17.54-.27.84l-.29.87c-.23.7-.47,1.44-.74,2.22h3.38c-.27-.78-.51-1.52-.74-2.22-.15-.4-.26-.73-.35-1s-.17-.51-.24-.75-.14-.46-.21-.67-.11-.36-.14-.47Z"/><path class="cls-1" d="M192.28,251.94h11.1v2.5h-4v11.5h-3v-11.5h-4Z"/><path class="cls-1" d="M207.6,251.94h3v14h-3Z"/><path class="cls-1" d="M215.3,258.94a8.83,8.83,0,0,1,.49-3.05,6.64,6.64,0,0,1,1.38-2.29,6.07,6.07,0,0,1,2.15-1.44,8.09,8.09,0,0,1,5.6,0,6.07,6.07,0,0,1,2.15,1.44,6.64,6.64,0,0,1,1.38,2.29,9.74,9.74,0,0,1,0,6.1,6.55,6.55,0,0,1-1.38,2.29,5.82,5.82,0,0,1-2.15,1.44,8.09,8.09,0,0,1-5.6,0,5.82,5.82,0,0,1-2.15-1.44,6.55,6.55,0,0,1-1.38-2.29A8.79,8.79,0,0,1,215.3,258.94Zm3.1,0a7.9,7.9,0,0,0,.23,1.95,4.25,4.25,0,0,0,.69,1.52,3.14,3.14,0,0,0,1.16,1,4,4,0,0,0,3.28,0,3.14,3.14,0,0,0,1.16-1,4.25,4.25,0,0,0,.69-1.52,7.9,7.9,0,0,0,.23-1.95,8,8,0,0,0-.23-1.95,4.33,4.33,0,0,0-.69-1.52,3.24,3.24,0,0,0-1.16-1,4,4,0,0,0-3.28,0,3.24,3.24,0,0,0-1.16,1,4.33,4.33,0,0,0-.69,1.52A8,8,0,0,0,218.4,258.94Z"/><path class="cls-1" d="M233.64,251.94h3.12l2.32,3.76,1.08,1.75.84,1.37.8,1.29.64,1h.06v-9.2h2.84v14h-3.12c-.8-1.29-1.56-2.52-2.28-3.7l-1.07-1.73c-.29-.46-.57-.92-.85-1.38l-.81-1.32-.67-1.07h-.06v9.2h-2.84Z"/></g><g id="ICON"><path class="cls-1" d="M154.44,198.53a20.68,20.68,0,0,1-2.78-1.29,6.89,6.89,0,0,1-1.94-9.12,7,7,0,0,1,11-1.21,6.57,6.57,0,0,1,1.76,3.72,6.84,6.84,0,0,1-1.93,5.92,6,6,0,0,1-3.58,1.86s-.1.08-.15.12Z"/><path class="cls-1" d="M240.2,142.17c-.07.28-.15.56-.22.85a6.61,6.61,0,0,1-4.79,5.16,6.76,6.76,0,0,1-7.38-2.4,6.67,6.67,0,0,1-1.5-4.18,6.91,6.91,0,0,1,13.76-.95c0,.09.09.16.13.24Z"/><path class="cls-2" d="M180.75,123.86c.28-1.78.55-3.46.81-5.13s.53-3.21.78-4.81c.22-1.37.43-2.75.64-4.13s.4-2.66.66-4a7.68,7.68,0,0,0-2-7.16,6.55,6.55,0,0,0-5.19-2.18,54.63,54.63,0,0,0-6.11.68c-2.15.36-4.25,1-6.38,1.38-2.47.48-4.17-1.06-4.13-3.14a3.16,3.16,0,0,1,2.8-3.19q2.47-.57,5-1a22.36,22.36,0,0,1,2.83-.37,47.26,47.26,0,0,1,5.45-.11c2.18.14,4.35.47,6.52.81A39.3,39.3,0,0,1,193.1,95a22.36,22.36,0,0,1,2.15,1.17,1,1,0,0,1,.35.72,8.42,8.42,0,0,0,2.55,6,7.47,7.47,0,0,0,6,2.47,4.32,4.32,0,0,1,3.5,1.51c1.36,1.23,2.75,2.44,4,3.76a46.54,46.54,0,0,1,6,7.61,5.18,5.18,0,0,1-2.1,7.3c-2,.91-4,1.65-6.07,2.44-3.09,1.19-6.2,2.34-9.28,3.57a3,3,0,0,1-4.4-2.53,2.77,2.77,0,0,1,1.78-2.92l11.29-4.37c1.34-.52,1.88-1.17,1.7-2.43a4.17,4.17,0,0,0-.84-1.63c-.47-.64-1-1.21-1.63-1.9l-15,12.89A20.9,20.9,0,0,0,180.75,123.86Z"/><path class="cls-2" d="M190.53,182.81l-.6-3.32q-.56-3-1.13-6.08-.5-2.67-1-5.32c-.28-1.43-.55-2.86-.83-4.3-.1-.5.29-.59.63-.77,1.43-.77,2.89-1.49,4.25-2.37a17.53,17.53,0,0,0,5.1-5.26c.2-.3.32-.39.64-.13q4.36,3.54,8.75,7.06c2,1.61,3.95,3.26,6,4.83a7,7,0,0,0,3.7,1.45,7.18,7.18,0,0,0,5-1.3,7.05,7.05,0,0,0,2.6-3.16c1.08-2.7,2.13-5.42,3.15-8.14.38-1,.67-2.12,1-3.19a3.09,3.09,0,0,1,3.45-2.1,2.92,2.92,0,0,1,2.62,3.09,27.7,27.7,0,0,1-1.19,4.83A39.46,39.46,0,0,1,226,170.78a48.42,48.42,0,0,1-4.14,4.68,37.53,37.53,0,0,1-8,6,.78.78,0,0,1-.65,0,8.48,8.48,0,0,0-4.11-1.17,8.65,8.65,0,0,0-4.6,1.22,8.44,8.44,0,0,0-3.54,3.95,1.49,1.49,0,0,1-.92.83,56.89,56.89,0,0,1-10.14,2.88c-1.74.33-3.53.34-5.28.63a5.11,5.11,0,0,1-3.81-.7,5.51,5.51,0,0,1-2.36-6.09c.31-1.42.45-2.89.68-4.33.2-1.26.42-2.52.62-3.77.23-1.43.42-2.85.66-4.27a35.82,35.82,0,0,1,.72-3.6,2.95,2.95,0,0,1,5.62.61,16.42,16.42,0,0,1-.31,3.49c-.22,1.66-.52,3.31-.78,4.95-.22,1.36-.39,2.72-.67,4.06s0,2.47,1.16,3.05a3.93,3.93,0,0,0,1.91.13C188.87,183.2,189.63,183,190.53,182.81Z"/><path class="cls-2" d="M141.29,134,160,140.57A20.58,20.58,0,0,0,162,153.7l-3.14,1.23c-3.88,1.48-7.76,2.95-11.64,4.45a31.79,31.79,0,0,0-4,1.7,7.16,7.16,0,0,0-3.72,5.5c-.38,2.59.78,4.58,2.2,6.52a62.4,62.4,0,0,0,6.47,7.5c1.58,1.56,1.68,2.91.59,4.55a3.13,3.13,0,0,1-4.54.54,43.58,43.58,0,0,1-7.55-9.45,38.54,38.54,0,0,1-4-9,67.58,67.58,0,0,1-1.54-7.05c-.28-1.68-.3-3.4-.45-5.09a.66.66,0,0,1,.4-.71,8.53,8.53,0,0,0,4.26-8.58,6.34,6.34,0,0,0-1.37-3.66c-.75-.88-.45-1.78-.26-2.66.46-2.15.9-4.31,1.54-6.41s1.5-4.24,2.31-6.33a21.38,21.38,0,0,1,1.14-2.3,5.25,5.25,0,0,1,7.81-1.43l5.09,4.1c1.67,1.34,3.35,2.68,5,4,1,.78,1.94,1.55,2.83,2.4a2.67,2.67,0,0,1,.67,2.71,2.93,2.93,0,0,1-2.17,2.22c-1.44.42-2.42-.41-3.42-1.22l-4.93-3.95c-1.27-1-2.57-2-3.8-3.09a2.21,2.21,0,0,0-3.58,1C141.92,132.11,141.61,133.06,141.29,134Z"/><path class="cls-1" d="M169.45,105.53c.27,1.48.53,2.84.78,4.21.37,2,.73,4,1.11,6s.78,4.14,1.18,6.21c.16.84.34,1.68.51,2.52a.64.64,0,0,1-.51.83,18.62,18.62,0,0,0-6.08,3.72,30.44,30.44,0,0,0-3.3,3.85c-.34.45-.49.46-.89.14-1.93-1.58-3.88-3.13-5.81-4.7s-3.66-3-5.53-4.51a27.58,27.58,0,0,0-4.65-3.42,7.5,7.5,0,0,0-8.79,2.14,22.25,22.25,0,0,0-2.74,5.66c-.87,2.36-1.52,4.8-2.32,7.18a3,3,0,0,1-2.65,2.24c-1.85.07-3.11-.65-3.49-2.16a5,5,0,0,1,.09-2.36,43.23,43.23,0,0,1,12.71-21,42.79,42.79,0,0,1,6.82-5.07,1.15,1.15,0,0,1,1,0,8.2,8.2,0,0,0,4.61,1.08,8.55,8.55,0,0,0,6.81-3.81,4.2,4.2,0,0,0,.66-1.21,1.59,1.59,0,0,1,1.23-1c3-.89,5.92-1.88,8.94-2.57a29.51,29.51,0,0,1,7.78-.89,5.12,5.12,0,0,1,4.69,4.4,14.71,14.71,0,0,1-.4,4.34c-.28,1.65-.49,3.31-.75,5-.46,2.91-.92,5.81-1.43,8.71a2.87,2.87,0,0,1-3.37,2.14,2.76,2.76,0,0,1-2.41-2.51,22.3,22.3,0,0,1,.29-3.36c.24-1.72.55-3.44.82-5.15.25-1.54.46-3.08.73-4.62a2.1,2.1,0,0,0-2-2.51A36,36,0,0,0,169.45,105.53Z"/><path class="cls-1" d="M151.82,172.64l4.53-3.91c1.82-1.54,3.65-3.07,5.46-4.62,1.19-1,2.36-2.07,3.54-3.1.41-.36.8-.74,1.23-1.06a.6.6,0,0,1,.58,0,20.73,20.73,0,0,0,8.69,4.18c.81.19,1.66.22,2.49.33.3,0,.59.1.89.16-.46,3-.9,5.89-1.37,8.82s-1,5.58-1.39,8.38a9.81,9.81,0,0,0,.11,5.1,7.54,7.54,0,0,0,4.75,4.68,9.76,9.76,0,0,0,4.83.14c1.63-.24,3.27-.44,4.9-.74a45,45,0,0,0,4.46-1,3.53,3.53,0,0,1,3.48.53,2.94,2.94,0,0,1,1.11,2.81,3,3,0,0,1-2.25,2.66,59.13,59.13,0,0,1-6.39,1.37,46,46,0,0,1-7,.29A59.66,59.66,0,0,1,178,197a38.66,38.66,0,0,1-11.64-3.83c-.67-.33-1.32-.7-2-1.07a8.29,8.29,0,0,0-1-4.54,8.4,8.4,0,0,0-6.35-4.46c-.84-.11-1.71,0-2.56,0a1.15,1.15,0,0,1-.62-.27,54.45,54.45,0,0,1-7.61-7.34,45,45,0,0,1-4.11-5.7,4.87,4.87,0,0,1,.72-5.64,6.91,6.91,0,0,1,3-1.89L159.27,157a3.9,3.9,0,0,1,2.77-.35,3.11,3.11,0,0,1,2.05,2.53,2.89,2.89,0,0,1-1.82,3.14l-11.16,4.28c-1.93.75-2.34,2.23-1.05,3.92C150.61,171.25,151.22,171.92,151.82,172.64Z"/><path class="cls-1" d="M198,134.67l3.07-1.18q6.13-2.36,12.27-4.73a14.64,14.64,0,0,0,4.55-2.2,7.11,7.11,0,0,0,2.59-4.91,7.39,7.39,0,0,0-1.16-4.88,35.1,35.1,0,0,0-2.61-3.54c-1.74-2-3.59-4-5.36-6a3.14,3.14,0,0,1,.2-4.4,3.25,3.25,0,0,1,4.34-.11,46,46,0,0,1,7.81,10.06,41.14,41.14,0,0,1,4.17,10.44c.49,2.09.79,4.23,1.1,6.36a33.89,33.89,0,0,1,.27,3.64,1,1,0,0,1-.42.75,8.49,8.49,0,0,0-4.2,6.2,8.26,8.26,0,0,0,1.52,6.38,1.59,1.59,0,0,1,.27,1.35,56.32,56.32,0,0,1-4.66,15.16,5.54,5.54,0,0,1-4.82,3.47,5.22,5.22,0,0,1-3.71-1.33L206.73,160c-1.62-1.31-3.22-2.64-4.83-4a10.9,10.9,0,0,0-.92-.76,3.05,3.05,0,0,1-.75-4.15,3,3,0,0,1,4.21-.75c1.25.9,2.42,1.91,3.61,2.88,2,1.65,4.06,3.31,6.1,5,1.37,1.09,2.95.56,3.61-1.15.28-.72.47-1.46.75-2.17.18-.43.07-.54-.35-.68-3.46-1.21-6.91-2.45-10.37-3.67-2.44-.86-4.89-1.72-7.34-2.55a.55.55,0,0,1-.41-.75,17.83,17.83,0,0,0,0-6.14A22.27,22.27,0,0,0,198,134.67Z"/><path class="cls-2" d="M119.8,146.85a6.93,6.93,0,0,1,6.92-6.93,6.93,6.93,0,1,1-6.92,6.93Z"/><path class="cls-2" d="M209,182.07a6.76,6.76,0,0,1,6.87,6.87,6.68,6.68,0,0,1-6.92,7A6.76,6.76,0,0,1,202,188.8,6.84,6.84,0,0,1,209,182.07Z"/><path class="cls-1" d="M158,99.33a6.81,6.81,0,0,1-7,7,6.92,6.92,0,0,1,.06-13.84A6.85,6.85,0,0,1,158,99.33Z"/><path class="cls-2" d="M197.47,96.71a6.88,6.88,0,1,1,13.75.3,6.88,6.88,0,0,1-13.75-.3Z"/></g></svg>