<svg xmlns="http://www.w3.org/2000/svg" viewBox="0 0 360 360"><defs><style>.cls-1{fill:#f1f2f2;}.cls-2{fill:#d2bf2d;}.cls-3,.cls-4{fill:none;stroke:#d2bf2d;stroke-miterlimit:10;}.cls-3{stroke-width:3px;}.cls-4{stroke-linecap:round;stroke-width:5px;}.cls-5{fill:#fff;}</style></defs><g id="BACKGROUND"><rect class="cls-1" x="-0.43" width="360" height="360"/></g><g id="LINE_ONE" data-name="LINE ONE"><path class="cls-2" d="M59.16,234.16h5.22a8.13,8.13,0,0,1,2.88.47A5.57,5.57,0,0,1,69.42,236a5.79,5.79,0,0,1,1.35,2.19,9.68,9.68,0,0,1,0,6,6,6,0,0,1-1.35,2.19,5.82,5.82,0,0,1-2.16,1.36,8.36,8.36,0,0,1-2.88.47H59.16Zm9,7a6.65,6.65,0,0,0-.23-1.85,3.83,3.83,0,0,0-.7-1.43A3,3,0,0,0,66,237a4.1,4.1,0,0,0-1.72-.32H62.18v9H64.3a4.26,4.26,0,0,0,1.72-.32,3.11,3.11,0,0,0,1.19-.92,3.9,3.9,0,0,0,.7-1.43A6.7,6.7,0,0,0,68.14,241.16Z"/><path class="cls-2" d="M75.94,234.16h3v14h-3Z"/><path class="cls-2" d="M86.28,234.16c.5,1.4,1,2.75,1.4,4.06q.41,1.14.66,1.92c.18.52.35,1,.52,1.57s.34,1,.5,1.53.3.93.42,1.32h0l.42-1.33.51-1.59c.18-.56.37-1.14.57-1.72s.4-1.16.58-1.7c.44-1.31.91-2.66,1.4-4.06h3.08l-5.16,14H88.16l-5.1-14Z"/><path class="cls-2" d="M100.5,248.16v-14H110v2.48h-6.58v3.08h6.12v2.48h-6.12v3.48h6.68v2.48Z"/><path class="cls-2" d="M125.26,238.42a3.94,3.94,0,0,1-2.66,4l3.22,5.74h-3.3l-2.9-5.3h-1.86v5.3h-3v-14h5.12a8.84,8.84,0,0,1,2.21.25,4.53,4.53,0,0,1,1.69.77,3.32,3.32,0,0,1,1.08,1.32A4.33,4.33,0,0,1,125.26,238.42Zm-3.08,0a1.49,1.49,0,0,0-.65-1.41,3.91,3.91,0,0,0-2-.39h-1.8v3.78h1.8a3.48,3.48,0,0,0,2-.45A1.71,1.71,0,0,0,122.18,238.44Z"/><path class="cls-2" d="M133,237.84a1.34,1.34,0,0,0,.78,1.29,9.48,9.48,0,0,0,2.48.67,7.86,7.86,0,0,1,3.67,1.38,3.48,3.48,0,0,1,1.17,2.86,3.92,3.92,0,0,1-.42,1.83,4.07,4.07,0,0,1-1.17,1.38,5.54,5.54,0,0,1-1.79.88,8.07,8.07,0,0,1-2.26.31,7.68,7.68,0,0,1-2.38-.35,6.36,6.36,0,0,1-1.8-.93,4.41,4.41,0,0,1-1.16-1.36,3.81,3.81,0,0,1-.46-1.62l3-.48a2.58,2.58,0,0,0,.79,1.67,2.84,2.84,0,0,0,2,.65,5.32,5.32,0,0,0,1-.1,2.43,2.43,0,0,0,.82-.33,1.75,1.75,0,0,0,.55-.57,1.54,1.54,0,0,0,.2-.82,1.33,1.33,0,0,0-.65-1.2,6.25,6.25,0,0,0-2.29-.68,18.1,18.1,0,0,1-2-.46,5.85,5.85,0,0,1-1.63-.77,3.6,3.6,0,0,1-1.08-1.22,3.79,3.79,0,0,1-.39-1.79,4.06,4.06,0,0,1,.4-1.84,3.72,3.72,0,0,1,1.12-1.31,4.84,4.84,0,0,1,1.7-.79,8.1,8.1,0,0,1,2.14-.26,7.66,7.66,0,0,1,2,.25,5.18,5.18,0,0,1,1.67.74,4.23,4.23,0,0,1,1.21,1.21,4.42,4.42,0,0,1,.66,1.64l-3,.66a2.4,2.4,0,0,0-.82-1.52,2.62,2.62,0,0,0-1.78-.56,2.78,2.78,0,0,0-1.69.42A1.35,1.35,0,0,0,133,237.84Z"/><path class="cls-2" d="M145.78,234.16h3v14h-3Z"/><path class="cls-2" d="M153,234.16h11.1v2.5h-4v11.5h-3v-11.5h-4Z"/><path class="cls-2" d="M172.56,242.3l-5.3-8.14h3.44l3.42,5.36,3.4-5.36h3.34l-5.3,8.14v5.86h-3Z"/><path class="cls-2" d="M185.94,247.34a5,5,0,0,1-.12,1,3.14,3.14,0,0,1-.46,1.09,3.73,3.73,0,0,1-.93.93,3.46,3.46,0,0,1-1.55.53l-.46-1.24a1.78,1.78,0,0,0,.53-.09,1.88,1.88,0,0,0,.55-.27,2,2,0,0,0,.44-.42.88.88,0,0,0,.18-.54v-.12a1.21,1.21,0,0,1-.38.06,1.6,1.6,0,0,1-1.13-.49,1.67,1.67,0,0,1-.49-1.23,1.86,1.86,0,0,1,.1-.61,1.59,1.59,0,0,1,.32-.55,1.67,1.67,0,0,1,.56-.4,1.81,1.81,0,0,1,.8-.16,1.94,1.94,0,0,1,.93.21,1.7,1.7,0,0,1,.63.56,2.54,2.54,0,0,1,.36.8A3.59,3.59,0,0,1,185.94,247.34Z"/><path class="cls-2" d="M197.56,248.16v-14h9.54v2.48h-6.58v3.08h6.12v2.48h-6.12v3.48h6.68v2.48Z"/><path class="cls-2" d="M220.86,247.94a8,8,0,0,1-5.58,0,6.07,6.07,0,0,1-2.15-1.44,6.64,6.64,0,0,1-1.38-2.29,9.74,9.74,0,0,1,0-6.1,6.55,6.55,0,0,1,1.38-2.29,5.82,5.82,0,0,1,2.15-1.44,8.09,8.09,0,0,1,5.6,0,5.82,5.82,0,0,1,2.15,1.44,6.55,6.55,0,0,1,1.38,2.29,9.75,9.75,0,0,1-.06,6.28,6.27,6.27,0,0,1-1.57,2.35l1.28,1.4-1.68,1.48Zm-6.5-6.78a8,8,0,0,0,.23,2,4.33,4.33,0,0,0,.69,1.52,3.24,3.24,0,0,0,1.16,1,3.67,3.67,0,0,0,1.64.35,4.77,4.77,0,0,0,.9-.1l-1.3-1.44,1.64-1.48,1.54,1.7a4.35,4.35,0,0,0,.71-1.52,8.42,8.42,0,0,0,0-3.91,4.25,4.25,0,0,0-.69-1.52,3.14,3.14,0,0,0-1.16-1,4,4,0,0,0-3.28,0,3.14,3.14,0,0,0-1.16,1,4.25,4.25,0,0,0-.69,1.52A7.9,7.9,0,0,0,214.36,241.16Z"/><path class="cls-2" d="M235.12,248.44a5.56,5.56,0,0,1-4.26-1.44,5.67,5.67,0,0,1-1.34-4v-8.84h3V243a3.35,3.35,0,0,0,.64,2.11,2.73,2.73,0,0,0,3.92,0,3.35,3.35,0,0,0,.64-2.11v-8.86h3V243a5.67,5.67,0,0,1-1.34,4A5.56,5.56,0,0,1,235.12,248.44Z"/><path class="cls-2" d="M245.92,234.16h3v14h-3Z"/><path class="cls-2" d="M253.14,234.16h11.1v2.5h-4v11.5h-3v-11.5h-4Z"/><path class="cls-2" d="M272.7,242.3l-5.3-8.14h3.44l3.42,5.36,3.4-5.36H281l-5.3,8.14v5.86h-3Z"/><path class="cls-2" d="M291.28,240.5h3.86v-3.88h2.28v3.88h3.86v2.28h-3.86v4h-2.28v-4h-3.86Z"/></g><g id="LINE_TWO" data-name="LINE TWO"><path class="cls-2" d="M117.79,252h3v14h-3Z"/><path class="cls-2" d="M126.07,252h3.12l2.32,3.76c.44.7.8,1.29,1.08,1.75l.84,1.37.8,1.29c.26.4.47.75.64,1h.06V252h2.84v14h-3.12l-2.28-3.7c-.42-.7-.78-1.27-1.07-1.73l-.85-1.38-.81-1.32c-.26-.42-.48-.78-.67-1.07h-.06V266h-2.84Z"/><path class="cls-2" d="M142.47,259a9.12,9.12,0,0,1,.48-3.07,6.39,6.39,0,0,1,1.37-2.29,5.72,5.72,0,0,1,2.16-1.43,7.82,7.82,0,0,1,2.85-.49,6.75,6.75,0,0,1,3.76,1,5.27,5.27,0,0,1,2.16,3l-2.92,1a3.92,3.92,0,0,0-1.08-1.83,2.82,2.82,0,0,0-2-.65,3.51,3.51,0,0,0-1.62.36,3.35,3.35,0,0,0-1.16,1,4.67,4.67,0,0,0-.69,1.51,8.09,8.09,0,0,0,0,3.83,4.87,4.87,0,0,0,.69,1.51,3.38,3.38,0,0,0,1.16,1,3.57,3.57,0,0,0,1.64.36,3,3,0,0,0,1.89-.58,3.57,3.57,0,0,0,1.11-1.76l2.88,1a6,6,0,0,1-2.16,2.8,6.4,6.4,0,0,1-3.76,1,7.74,7.74,0,0,1-2.79-.49,6,6,0,0,1-2.14-1.42A6.39,6.39,0,0,1,143,262,9.26,9.26,0,0,1,142.47,259Z"/><path class="cls-2" d="M159.65,252h3v11.5h6.12V266h-9.12Z"/><path class="cls-2" d="M178.19,266.23a5.59,5.59,0,0,1-4.26-1.44,5.67,5.67,0,0,1-1.34-4V252h3v8.86a3.42,3.42,0,0,0,.64,2.11,2.73,2.73,0,0,0,3.92,0,3.35,3.35,0,0,0,.64-2.11V252h3v8.84a5.63,5.63,0,0,1-1.34,4A5.56,5.56,0,0,1,178.19,266.23Z"/><path class="cls-2" d="M191.71,255.63a1.34,1.34,0,0,0,.78,1.29,9.48,9.48,0,0,0,2.48.67,7.86,7.86,0,0,1,3.67,1.38,3.48,3.48,0,0,1,1.17,2.86,3.92,3.92,0,0,1-.42,1.83,4.07,4.07,0,0,1-1.17,1.38,5.54,5.54,0,0,1-1.79.88,8.07,8.07,0,0,1-2.26.31,7.68,7.68,0,0,1-2.38-.35A6.36,6.36,0,0,1,190,265a4.41,4.41,0,0,1-1.16-1.36,3.81,3.81,0,0,1-.46-1.62l3-.48a2.58,2.58,0,0,0,.79,1.67,2.84,2.84,0,0,0,2,.65,5.32,5.32,0,0,0,1-.1,2.43,2.43,0,0,0,.82-.33,1.75,1.75,0,0,0,.55-.57,1.63,1.63,0,0,0,.2-.82,1.33,1.33,0,0,0-.65-1.2,6.25,6.25,0,0,0-2.29-.68,18.1,18.1,0,0,1-2-.46,5.72,5.72,0,0,1-1.63-.77,3.6,3.6,0,0,1-1.08-1.22,3.79,3.79,0,0,1-.39-1.79,3.93,3.93,0,0,1,.4-1.84,3.72,3.72,0,0,1,1.12-1.31,4.84,4.84,0,0,1,1.7-.79,8,8,0,0,1,2.14-.26,7.71,7.71,0,0,1,2,.25,5.18,5.18,0,0,1,1.67.74,4.23,4.23,0,0,1,1.21,1.21,4.42,4.42,0,0,1,.66,1.64l-3,.66a2.4,2.4,0,0,0-.82-1.52,2.62,2.62,0,0,0-1.78-.56,2.78,2.78,0,0,0-1.69.42A1.33,1.33,0,0,0,191.71,255.63Z"/><path class="cls-2" d="M204.47,252h3v14h-3Z"/><path class="cls-2" d="M212.17,259a9,9,0,0,1,.49-3,6.55,6.55,0,0,1,1.38-2.29,5.82,5.82,0,0,1,2.15-1.44,8.09,8.09,0,0,1,5.6,0,5.82,5.82,0,0,1,2.15,1.44,6.41,6.41,0,0,1,1.38,2.29,9.74,9.74,0,0,1,0,6.1,6.49,6.49,0,0,1-1.38,2.29,6.07,6.07,0,0,1-2.15,1.44,8.09,8.09,0,0,1-5.6,0,6.07,6.07,0,0,1-2.15-1.44,6.64,6.64,0,0,1-1.38-2.29A9.08,9.08,0,0,1,212.17,259Zm3.1,0a8,8,0,0,0,.23,1.95,4.33,4.33,0,0,0,.69,1.52,3.24,3.24,0,0,0,1.16,1,4,4,0,0,0,3.28,0,3.24,3.24,0,0,0,1.16-1,4.33,4.33,0,0,0,.69-1.52,8,8,0,0,0,.23-1.95,7.9,7.9,0,0,0-.23-1.95,4.25,4.25,0,0,0-.69-1.52,3.14,3.14,0,0,0-1.16-1,4,4,0,0,0-3.28,0,3.14,3.14,0,0,0-1.16,1,4.25,4.25,0,0,0-.69,1.52A7.9,7.9,0,0,0,215.27,259Z"/><path class="cls-2" d="M230.51,252h3.12l2.32,3.76c.44.7.8,1.29,1.08,1.75l.84,1.37.8,1.29.64,1h.06V252h2.84v14h-3.12l-2.28-3.7-1.07-1.73c-.29-.46-.57-.92-.85-1.38l-.81-1.32c-.26-.42-.48-.78-.67-1.07h-.06V266h-2.84Z"/></g><g id="ICON"><rect class="cls-3" x="208.4" y="173.14" width="31.24" height="24.53" rx="1.44"/><line class="cls-4" x1="102.13" y1="197.67" x2="257.9" y2="197.67"/><path class="cls-3" d="M148.62,155.12c-1.61,0-3.09-.05-4.56,0-.2,0-.52.75-.52,1.15,0,5.55,0,11.09,0,16.64,0,6.38-.12,12.76,0,19.14a5,5,0,0,1-4.34,5.42,7.07,7.07,0,0,1-5.71-1,4.18,4.18,0,0,1-1.89-3.69q0-26.64,0-53.29c0-5.11,0-10.22,0-15.33a2,2,0,0,0-.92-1.79q-13.29-10-26.55-20l-.09-.06c-1.12-.87-2.18-1.83-2-3.39a4.2,4.2,0,0,1,3.19-3.49A6.91,6.91,0,0,1,112,96.64c3.83,2.92,7.69,5.81,11.54,8.71,4.68,3.54,9.36,7.09,14.07,10.59a3.23,3.23,0,0,0,1.77.59c4.46,0,8.92,0,13.38,0a3.71,3.71,0,0,0,2.47-.84q12.62-9.63,25.28-19.2A6.6,6.6,0,0,1,188,95.9c2.67,1.62,2.84,4.27.37,6.18-3.08,2.36-6.18,4.69-9.28,7q-8.76,6.62-17.54,13.22a2.19,2.19,0,0,0-1,2q.08,30.45.1,60.9c0,2.18-.11,4.36,0,6.53.27,4.06-2.44,5.8-5.64,5.9a9.25,9.25,0,0,1-3.08-.46c-2.33-.76-3.25-2.19-3.26-4.78l-.09-35.78Z"/><path class="cls-3" d="M145.93,90.83a10.39,10.39,0,0,1,10.6,10.36c0,5.6-4.84,10.11-10.76,10.08a10.22,10.22,0,1,1,.16-20.44Z"/><path class="cls-3" d="M226,140.34c-1.24,0-2.38,0-3.51,0-.16,0-.4.58-.41.89q0,6.4,0,12.81c0,4.91-.09,9.83,0,14.74a3.82,3.82,0,0,1-3.35,4.17,5.47,5.47,0,0,1-4.4-.8,3.23,3.23,0,0,1-1.45-2.84q0-20.52,0-41c0-3.94,0-7.88,0-11.81a1.53,1.53,0,0,0-.71-1.39q-10.23-7.7-20.44-15.43l-.07,0c-.86-.67-1.68-1.41-1.52-2.61a3.24,3.24,0,0,1,2.46-2.69,5.32,5.32,0,0,1,5.11,1c2.95,2.25,5.92,4.48,8.89,6.72,3.61,2.72,7.21,5.45,10.84,8.15a2.46,2.46,0,0,0,1.36.45c3.43,0,6.87,0,10.3,0A2.89,2.89,0,0,0,231,110q9.71-7.42,19.46-14.79a5.09,5.09,0,0,1,5.79-.5c2.05,1.25,2.19,3.3.28,4.76-2.37,1.82-4.76,3.61-7.14,5.41q-6.75,5.1-13.51,10.18a1.68,1.68,0,0,0-.75,1.54q.06,23.44.08,46.9c0,1.67-.09,3.35,0,5,.21,3.13-1.88,4.47-4.34,4.55a7.07,7.07,0,0,1-2.37-.36c-1.8-.59-2.51-1.68-2.51-3.68q0-13.78-.07-27.55Z"/><path class="cls-3" d="M223.88,90.83a7.88,7.88,0,1,1-.12,15.74,7.87,7.87,0,1,1,.12-15.74Z"/><rect class="cls-2" y="336.06" width="360" height="23.94"/><path class="cls-5" d="M235.07,348.29a5.51,5.51,0,0,1,.29-1.84,4,4,0,0,1,.83-1.38,3.52,3.52,0,0,1,1.29-.86,4.87,4.87,0,0,1,1.71-.29,4.11,4.11,0,0,1,2.26.59,3.15,3.15,0,0,1,1.29,1.79l-1.75.61a2.34,2.34,0,0,0-.65-1.1,1.69,1.69,0,0,0-1.19-.39,2,2,0,0,0-1,.22,1.88,1.88,0,0,0-.69.59,2.47,2.47,0,0,0-.42.91,4.6,4.6,0,0,0-.13,1.15,4.52,4.52,0,0,0,.13,1.14,2.63,2.63,0,0,0,.42.91,1.81,1.81,0,0,0,.69.6,2.19,2.19,0,0,0,1,.22,1.77,1.77,0,0,0,1.13-.35,2.16,2.16,0,0,0,.67-1.06l1.72.61A3.53,3.53,0,0,1,241.4,352a3.85,3.85,0,0,1-2.26.62,4.47,4.47,0,0,1-1.67-.3,3.42,3.42,0,0,1-1.28-.85,3.84,3.84,0,0,1-.83-1.37A5.61,5.61,0,0,1,235.07,348.29Z"/><path class="cls-5" d="M252.68,352.49h-1.86l-.67-1.95h-3l-.68,1.95H244.7l3-8.4h1.93Zm-4.06-6.43a2.83,2.83,0,0,1-.08.28c0,.12-.09.26-.13.42s-.1.32-.17.5-.11.36-.17.52c-.13.42-.28.86-.44,1.34h2l-.44-1.34c-.09-.24-.16-.43-.21-.59s-.1-.31-.14-.45-.09-.28-.13-.4a2.83,2.83,0,0,1-.08-.28Z"/><path class="cls-5" d="M258.86,352.49q-.18-.5-.45-1.29l-.56-1.66c-.19-.58-.38-1.14-.56-1.7s-.32-1-.44-1.39h0v6h-1.66v-8.4h2.52c.35,1,.66,2,.94,2.82.17.51.3.92.41,1.24s.21.62.3.91.18.54.25.78.13.4.17.5l.15-.5c.07-.24.16-.51.26-.83s.21-.65.32-1l.36-1.08q.41-1.29.9-2.82h2.51v8.4h-1.66v-6h0l-.28.9c-.12.34-.24.71-.37,1.11s-.27.79-.4,1.19-.27.79-.39,1.15-.23.7-.33,1l-.24.7Z"/><path class="cls-5" d="M269.2,349.54v2.95h-1.79v-8.4h3.2a5.66,5.66,0,0,1,1.36.15,3.18,3.18,0,0,1,1,.48,2.26,2.26,0,0,1,.67.83,2.81,2.81,0,0,1,.24,1.21,2.85,2.85,0,0,1-.25,1.25,2.39,2.39,0,0,1-.68.86,2.7,2.7,0,0,1-1.05.5,5.17,5.17,0,0,1-1.34.17Zm2.89-2.78a1,1,0,0,0-.41-.93,2.44,2.44,0,0,0-1.25-.25H269.2v2.47h1.23a2.13,2.13,0,0,0,1.25-.3A1.13,1.13,0,0,0,272.09,346.76Z"/><path class="cls-5" d="M279.88,352.66a3.3,3.3,0,0,1-2.55-.87,3.35,3.35,0,0,1-.81-2.4v-5.3h1.8v5.31a2,2,0,0,0,.39,1.27,1.38,1.38,0,0,0,1.17.5,1.41,1.41,0,0,0,1.18-.5,2,2,0,0,0,.38-1.27v-5.31h1.8v5.3a3.39,3.39,0,0,1-.8,2.4A3.34,3.34,0,0,1,279.88,352.66Z"/><path class="cls-5" d="M288,346.3a.8.8,0,0,0,.47.77,5.38,5.38,0,0,0,1.49.4,4.79,4.79,0,0,1,2.2.83,2.09,2.09,0,0,1,.7,1.72,2.3,2.3,0,0,1-.25,1.09,2.43,2.43,0,0,1-.7.83,3.25,3.25,0,0,1-1.07.53,4.91,4.91,0,0,1-1.36.19,4.57,4.57,0,0,1-1.43-.21,3.67,3.67,0,0,1-1.08-.56,2.56,2.56,0,0,1-.69-.82,2.26,2.26,0,0,1-.28-1l1.8-.29a1.55,1.55,0,0,0,.47,1,1.71,1.71,0,0,0,1.21.39,2.93,2.93,0,0,0,.61-.06,1.52,1.52,0,0,0,.49-.19,1.1,1.1,0,0,0,.33-.35.94.94,0,0,0,.12-.49.81.81,0,0,0-.39-.72,3.92,3.92,0,0,0-1.38-.41,10,10,0,0,1-1.22-.27,3.42,3.42,0,0,1-1-.46,2.2,2.2,0,0,1-.65-.74,2.32,2.32,0,0,1-.23-1.07,2.38,2.38,0,0,1,.24-1.1,2.13,2.13,0,0,1,.67-.79,3,3,0,0,1,1-.47,5.12,5.12,0,0,1,2.5,0,3.49,3.49,0,0,1,1,.44,2.82,2.82,0,0,1,.73.73,2.72,2.72,0,0,1,.39,1l-1.82.4a1.51,1.51,0,0,0-.49-.91,1.58,1.58,0,0,0-1.07-.34,1.74,1.74,0,0,0-1,.25A.82.82,0,0,0,288,346.3Z"/><path class="cls-5" d="M300.9,344.09c.3.84.58,1.65.85,2.43.15.46.29.84.39,1.16s.21.62.31.94.21.62.3.92.18.56.26.79h0c.07-.23.16-.5.25-.8l.31-.95c.1-.34.22-.68.34-1l.35-1q.39-1.17.84-2.43H307l-3.1,8.4H302l-3.06-8.4Z"/><path class="cls-5" d="M315.71,352.49h-1.86l-.67-1.95h-3l-.67,1.95h-1.77l3-8.4h1.93Zm-4-6.43-.09.28-.13.42-.16.5-.17.52-.45,1.34h2c-.16-.48-.31-.92-.44-1.34-.09-.24-.16-.43-.21-.59s-.1-.31-.15-.45-.08-.28-.12-.4l-.09-.28Z"/><path class="cls-5" d="M318.2,344.09H320V351h3.67v1.5H318.2Z"/><path class="cls-5" d="M329.32,352.66a3.3,3.3,0,0,1-2.55-.87,3.35,3.35,0,0,1-.81-2.4v-5.3h1.8v5.31a2,2,0,0,0,.39,1.27,1.38,1.38,0,0,0,1.17.5,1.41,1.41,0,0,0,1.18-.5,2,2,0,0,0,.38-1.27v-5.31h1.8v5.3a3.39,3.39,0,0,1-.8,2.4A3.34,3.34,0,0,1,329.32,352.66Z"/><path class="cls-5" d="M335.8,352.49v-8.4h5.72v1.49h-3.94v1.84h3.67v1.49h-3.67V351h4v1.49Z"/><path class="cls-5" d="M346,346.3a.8.8,0,0,0,.47.77,5.38,5.38,0,0,0,1.49.4,4.79,4.79,0,0,1,2.2.83,2.09,2.09,0,0,1,.7,1.72,2.3,2.3,0,0,1-.25,1.09,2.43,2.43,0,0,1-.7.83,3.21,3.21,0,0,1-1.08.53,4.84,4.84,0,0,1-1.35.19,4.53,4.53,0,0,1-1.43-.21,3.44,3.44,0,0,1-1.08-.56,2.6,2.6,0,0,1-.7-.82,2.11,2.11,0,0,1-.27-1l1.8-.29a1.5,1.5,0,0,0,.47,1,1.71,1.71,0,0,0,1.21.39,2.91,2.91,0,0,0,.6-.06,1.43,1.43,0,0,0,.49-.19,1.1,1.1,0,0,0,.33-.35.94.94,0,0,0,.12-.49.81.81,0,0,0-.39-.72,3.85,3.85,0,0,0-1.37-.41,9.6,9.6,0,0,1-1.22-.27,3.29,3.29,0,0,1-1-.46,2.1,2.1,0,0,1-.65-.74,2.2,2.2,0,0,1-.23-1.07,2.38,2.38,0,0,1,.24-1.1,2.13,2.13,0,0,1,.67-.79,3,3,0,0,1,1-.47,4.72,4.72,0,0,1,1.28-.16,4.66,4.66,0,0,1,1.21.15,3.55,3.55,0,0,1,1,.44,2.63,2.63,0,0,1,.72.73,2.74,2.74,0,0,1,.4,1l-1.83.4a1.41,1.41,0,0,0-.49-.91,1.56,1.56,0,0,0-1.07-.34,1.72,1.72,0,0,0-1,.25A.82.82,0,0,0,346,346.3Z"/></g></svg>