<svg xmlns="http://www.w3.org/2000/svg" viewBox="0 0 360 360"><defs><style>.cls-1{fill:#fff;}</style></defs><g id="BACKGROUND"><rect x="-1" width="360" height="360"/></g><g id="LINE_ONE" data-name="LINE ONE"><path class="cls-1" d="M83,230.37h3v14H83Z"/><path class="cls-1" d="M91.32,230.37h3.12l2.32,3.76,1.08,1.75.84,1.37.8,1.29.64,1h.06v-9.2H103v14H99.9l-2.28-3.7-1.07-1.73c-.29-.46-.57-.92-.85-1.38l-.81-1.32-.67-1.07h-.06v9.2H91.32Z"/><path class="cls-1" d="M107.24,230.37h11.1v2.5h-4v11.5h-3v-11.5h-4Z"/><path class="cls-1" d="M122.56,244.37v-14h9.54v2.48h-6.58v3.08h6.12v2.48h-6.12v3.48h6.68v2.48Z"/><path class="cls-1" d="M142.56,236.61H149v7.76h-2.72v-1.44a3.69,3.69,0,0,1-1.36,1.22,4.83,4.83,0,0,1-2.34.5,6.29,6.29,0,0,1-2.75-.57,5.54,5.54,0,0,1-2-1.55,6.53,6.53,0,0,1-1.19-2.3,9.56,9.56,0,0,1-.4-2.82,8.71,8.71,0,0,1,.47-3,6.53,6.53,0,0,1,1.37-2.31,6.18,6.18,0,0,1,2.19-1.51,7.5,7.5,0,0,1,2.93-.54,6.74,6.74,0,0,1,3.62.93,5.74,5.74,0,0,1,2.26,2.75l-2.78,1.14a3.66,3.66,0,0,0-1.22-1.73,3.26,3.26,0,0,0-2-.61,3.33,3.33,0,0,0-2.72,1.25,5.72,5.72,0,0,0-1,3.69q0,4.68,3.7,4.68a4,4,0,0,0,1.08-.15,3.2,3.2,0,0,0,1-.46,2.51,2.51,0,0,0,.73-.79,2.34,2.34,0,0,0,.28-1.16V239h-3.58Z"/><path class="cls-1" d="M164.7,234.63a4.24,4.24,0,0,1-.71,2.54,4.31,4.31,0,0,1-2,1.46l3.22,5.74H162l-2.9-5.3H157.2v5.3h-3v-14h5.12a8.89,8.89,0,0,1,2.21.25,4.78,4.78,0,0,1,1.69.77,3.66,3.66,0,0,1,1.08,1.32A4.47,4.47,0,0,1,164.7,234.63Zm-3.08,0a1.51,1.51,0,0,0-.65-1.41,3.93,3.93,0,0,0-2-.39h-1.8v3.78H159a3.5,3.5,0,0,0,2-.45A1.74,1.74,0,0,0,161.62,234.65Z"/><path class="cls-1" d="M181.9,244.37h-3.1l-1.12-3.24h-5l-1.12,3.24H168.6l5-14h3.22Zm-6.76-10.72-.14.47c-.07.21-.14.44-.22.7s-.17.54-.27.84l-.29.87-.74,2.22h3.38c-.27-.79-.52-1.53-.74-2.22-.15-.4-.27-.73-.35-1s-.17-.51-.24-.75-.15-.46-.21-.67a4,4,0,0,1-.14-.47Z"/><path class="cls-1" d="M183.38,230.37h11.1v2.5h-4v11.5h-3v-11.5h-4Z"/><path class="cls-1" d="M198.7,230.37h3v14h-3Z"/><path class="cls-1" d="M206.4,237.37a8.83,8.83,0,0,1,.49-3.05,6.35,6.35,0,0,1,1.38-2.29,5.82,5.82,0,0,1,2.15-1.44,8.09,8.09,0,0,1,5.6,0,5.9,5.9,0,0,1,2.15,1.44,6.64,6.64,0,0,1,1.38,2.29,9.74,9.74,0,0,1,0,6.1,6.64,6.64,0,0,1-1.38,2.29,5.9,5.9,0,0,1-2.15,1.44,8.09,8.09,0,0,1-5.6,0,5.82,5.82,0,0,1-2.15-1.44,6.35,6.35,0,0,1-1.38-2.29A8.83,8.83,0,0,1,206.4,237.37Zm3.1,0a7.45,7.45,0,0,0,.23,1.95,4.33,4.33,0,0,0,.69,1.52,3.06,3.06,0,0,0,1.16,1,3.64,3.64,0,0,0,1.64.35,3.7,3.7,0,0,0,1.64-.35,3.22,3.22,0,0,0,1.16-1,4.73,4.73,0,0,0,.69-1.52,8.38,8.38,0,0,0,0-3.9,4.73,4.73,0,0,0-.69-1.52,3.22,3.22,0,0,0-1.16-1,3.7,3.7,0,0,0-1.64-.35,3.64,3.64,0,0,0-1.64.35,3.06,3.06,0,0,0-1.16,1,4.33,4.33,0,0,0-.69,1.52A7.45,7.45,0,0,0,209.5,237.37Z"/><path class="cls-1" d="M224.74,230.37h3.12l2.32,3.76,1.08,1.75.84,1.37.8,1.29.64,1h.06v-9.2h2.84v14h-3.12l-2.28-3.7L230,238.94c-.29-.46-.57-.92-.85-1.38l-.81-1.32-.67-1.07h-.06v9.2h-2.84Z"/><path class="cls-1" d="M247.84,237.37a8.83,8.83,0,0,1,.49-3.05,6.35,6.35,0,0,1,1.38-2.29,5.82,5.82,0,0,1,2.15-1.44,8.09,8.09,0,0,1,5.6,0,5.9,5.9,0,0,1,2.15,1.44,6.64,6.64,0,0,1,1.38,2.29,9.74,9.74,0,0,1,0,6.1,6.64,6.64,0,0,1-1.38,2.29,5.9,5.9,0,0,1-2.15,1.44,8.09,8.09,0,0,1-5.6,0,5.82,5.82,0,0,1-2.15-1.44,6.35,6.35,0,0,1-1.38-2.29A8.83,8.83,0,0,1,247.84,237.37Zm3.1,0a7.45,7.45,0,0,0,.23,1.95,4.33,4.33,0,0,0,.69,1.52,3.06,3.06,0,0,0,1.16,1,3.64,3.64,0,0,0,1.64.35,3.7,3.7,0,0,0,1.64-.35,3.22,3.22,0,0,0,1.16-1,4.73,4.73,0,0,0,.69-1.52,8.38,8.38,0,0,0,0-3.9,4.73,4.73,0,0,0-.69-1.52,3.22,3.22,0,0,0-1.16-1,3.7,3.7,0,0,0-1.64-.35,3.64,3.64,0,0,0-1.64.35,3.06,3.06,0,0,0-1.16,1,4.33,4.33,0,0,0-.69,1.52A7.45,7.45,0,0,0,250.94,237.37Z"/><path class="cls-1" d="M266.18,244.37v-14h9.58v2.48h-6.62v3.08h6.1v2.48h-6.1v6Z"/><path class="cls-1" d="M161.54,182.73c10.54-.55,18.4-4.43,22.85-13.54l-.56-.87c-1,.7-2.12,1.33-3.11,2.09-5.14,3.94-10.22,7.92-16.8,9.33-3.64.78-7.16.34-9.77-2.08a87.78,87.78,0,0,1-10-11.62c8.9-1.14,17.49-1.81,24.94-6.61l-.27-1.08c-2.23.51-4.46,1-6.69,1.54-3.89.91-7.73,2.18-11.68,2.67A11.48,11.48,0,0,1,140.39,159c-4.42-4.7-7-10.48-9.61-16.56,9,1.72,17.57,7.65,26.36,1.65l.25-1.51a12.51,12.51,0,0,0-3.43-1.26,65,65,0,0,0-6.68.19c-2.23.1-4.46.42-6.68.3-10.27-.55-15.71-8.06-12.92-18,1.39-5,3.16-9.86,1.41-15-1-2.92-2.4-5.7-3.68-8.65a35.8,35.8,0,0,0,4.23,1.79A14.43,14.43,0,0,0,141,100.71c2.93-1.61,5.82-3.32,8.86-4.7,3.86-1.77,6.68-.77,8.54,3,1.61,3.3,2.76,6.81,4.31,10.14a9.34,9.34,0,0,0,3.31,3.7c1.06-9.41-3.14-16.17-11-21.54,6.07-1.55,11.59-1.59,16.72.78a13.29,13.29,0,0,1,5.51,5.41c3.9,7,4.08,14.94,4.88,22.7a40.52,40.52,0,0,0,1.33,5.33c5.64-6.92,2.9-20.94-5.8-32.71,7.86-4.24,19.62-1.26,23,8.71a28.77,28.77,0,0,1,.41,17.77,50.1,50.1,0,0,0-1.6,8.16,5.5,5.5,0,0,0,1.38,3.5c8.49-10.14,8.37-20.93,2.2-32.68,9.06,2.08,14.77,7,17.72,14.72a31.36,31.36,0,0,0,9.05,13.39c5.19,4.36,5.16,10.41,4.45,16.38a33.7,33.7,0,0,1-6.84,16.48,19.13,19.13,0,0,1-16.59,8.17c1.14,1.23,1.93,2.07,2.71,2.93,6,6.63,12,13.25,17.93,19.91a8.72,8.72,0,0,1,2.33,3.62c.27,1.34-.42,2.88-.7,4.34-1.39-.48-3.31-.53-4.1-1.5-6.14-7.5-12.07-15.18-18.06-22.81-.34-.43-.61-.93-1.36-2.08-.5,2.86-.57,4.83-1.21,6.6-2.93,8.13-9.37,11.87-17.43,13.26C179.91,193.65,170.31,190.65,161.54,182.73Zm57.14-59.22c-3.59,5.77-7,10.75-8.82,16.5-.52,1.63,1.43,2.19,3.07,1.43C217.85,139.18,221.38,129.73,218.68,123.51Zm-72.82-15.36c.11,2.82,4.16,8.09,6.9,8.83,2.06.55,3.51-.24,3-2.48a12,12,0,0,0-6.73-8.58C147.26,105.05,145.75,105.72,145.86,108.15Zm77.6,39.26-.75-.92c-3.9,2.68-8,5.13-11.62,8.13-1.66,1.38-.14,2.55,1.58,2.7C217,157.69,223.1,152,223.46,147.41Zm-90.22-28.64c1.47,5.15,9.44,9.29,13.4,7.52a2.36,2.36,0,0,0,1.28-1.66,2.31,2.31,0,0,0-1.28-1.67c-2.26-.92-4.57-1.7-6.9-2.42C137.72,119.91,135.65,119.42,133.24,118.77ZM171.6,124c.09-3.86-1.91-7.13-3.6-6.59a4.92,4.92,0,0,0-2.59,3.38c-.44,2.62,1.75,5.88,3.51,5.47C170.16,125.94,171.11,124.43,171.6,124Zm15.86,9.52c-.52-.53-1.44-2.2-2.79-2.69-1.65-.6-3.85,2.47-3.47,5.17a5.54,5.54,0,0,0,2.46,3.73C185.15,140.45,187.39,137.31,187.46,133.5Zm-8.12,24.18c3.71,0,7.06-2.34,6.53-4.2a4.2,4.2,0,0,0-3.15-2.4c-2.49,0-5,1-5.23,4C177.42,156,178.94,157.14,179.34,157.68ZM191.89,144c.61.53,1.51,1.91,2.32,1.86,2.6-.15,3.77-2.22,3.84-4.53,0-.89-1.33-2.6-2-2.59C193.35,138.75,192.51,140.89,191.89,144Zm6.23,31.22-2.73-2.27c-1.28,1.8-2.62,3.55-3.72,5.44-.13.21,1.09,1.21,1.69,1.85ZM167,138.76l-3.66,3.62c1,.74,2.18,2.21,3.06,2.06,1.33-.24,2.46-1.59,3.68-2.47Z"/><path d="M218.68,123.51c2.7,6.22-.83,15.67-5.75,17.93-1.64.76-3.59.2-3.07-1.43C211.68,134.26,215.09,129.28,218.68,123.51Z"/><path d="M145.86,108.15c-.11-2.43,1.4-3.1,3.2-2.23a12,12,0,0,1,6.73,8.58c.48,2.24-1,3-3,2.48C150,116.24,146,111,145.86,108.15Z"/><path d="M223.46,147.41c-.36,4.6-6.5,10.28-10.79,9.91-1.72-.15-3.24-1.32-1.58-2.7,3.64-3,7.72-5.45,11.62-8.13Z"/><path d="M133.24,118.77c2.41.65,4.48,1.14,6.5,1.77,2.33.72,4.64,1.5,6.9,2.42a2.31,2.31,0,0,1,1.28,1.67,2.36,2.36,0,0,1-1.28,1.66C142.68,128.06,134.71,123.92,133.24,118.77Z"/><path d="M171.6,124c-.49.45-1.44,2-2.68,2.26-1.76.41-3.95-2.85-3.51-5.47a4.92,4.92,0,0,1,2.59-3.38C169.69,116.85,171.69,120.12,171.6,124Z"/><path d="M187.46,133.5c-.07,3.81-2.31,6.95-3.8,6.21A5.54,5.54,0,0,1,181.2,136c-.38-2.7,1.82-5.77,3.47-5.17C186,131.3,186.94,133,187.46,133.5Z"/><path d="M179.34,157.68c-.4-.54-1.92-1.65-1.85-2.64.23-2.94,2.74-4,5.23-4a4.2,4.2,0,0,1,3.15,2.4C186.4,155.34,183.05,157.7,179.34,157.68Z"/><path d="M191.89,144c.62-3.06,1.46-5.2,4.13-5.26.7,0,2.06,1.7,2,2.59-.07,2.31-1.24,4.38-3.84,4.53C193.4,145.86,192.5,144.48,191.89,144Z"/><path d="M198.12,175.17l-4.76,5c-.6-.64-1.82-1.64-1.69-1.85,1.1-1.89,2.44-3.64,3.72-5.44Z"/><path d="M167,138.76l3.08,3.21c-1.22.88-2.35,2.23-3.68,2.47-.88.15-2-1.32-3.06-2.06Z"/></g><g id="LINE_TWO" data-name="LINE TWO"><path class="cls-1" d="M65.16,248.16h3.12l2.32,3.76,1.08,1.75.84,1.37.8,1.29.64,1H74v-9.2h2.84v14H73.74l-2.28-3.7-1.07-1.73c-.29-.46-.57-.92-.85-1.38L68.73,254c-.26-.42-.48-.78-.67-1.07H68v9.2H65.16Z"/><path class="cls-1" d="M94.3,262.16H91.2l-1.12-3.24h-5l-1.12,3.24H81l5-14h3.22Zm-6.76-10.72c0,.11-.07.26-.14.47s-.14.44-.22.7-.17.54-.27.84-.2.59-.29.87c-.23.69-.47,1.43-.74,2.22h3.38c-.27-.79-.51-1.53-.74-2.22-.15-.4-.26-.73-.35-1s-.17-.51-.24-.75-.14-.46-.21-.67-.11-.36-.14-.47Z"/><path class="cls-1" d="M95.78,248.16h11.1v2.5h-4v11.5h-3v-11.5h-4Z"/><path class="cls-1" d="M116.62,262.44a5.56,5.56,0,0,1-4.26-1.44,5.65,5.65,0,0,1-1.34-4v-8.84h3V257a3.33,3.33,0,0,0,.64,2.11,2.73,2.73,0,0,0,3.92,0,3.33,3.33,0,0,0,.64-2.11v-8.86h3V257a5.65,5.65,0,0,1-1.34,4A5.56,5.56,0,0,1,116.62,262.44Z"/><path class="cls-1" d="M137.9,252.42a3.94,3.94,0,0,1-2.66,4l3.22,5.74h-3.3l-2.9-5.3H130.4v5.3h-3v-14h5.12a8.89,8.89,0,0,1,2.21.25,4.78,4.78,0,0,1,1.69.77,3.46,3.46,0,0,1,1.08,1.32A4.47,4.47,0,0,1,137.9,252.42Zm-3.08,0a1.51,1.51,0,0,0-.65-1.41,3.91,3.91,0,0,0-2-.39h-1.8v3.78h1.8a3.48,3.48,0,0,0,2-.45A1.74,1.74,0,0,0,134.82,252.44Z"/><path class="cls-1" d="M142.94,262.16v-14h9.54v2.48H145.9v3.08H152v2.48H145.9v3.48h6.68v2.48Z"/><path class="cls-1" d="M164,246.22h2.42v19.32H164Z"/><path class="cls-1" d="M178.56,248.16h6.08a5.06,5.06,0,0,1,1.75.28,3.9,3.9,0,0,1,1.3.77,3.38,3.38,0,0,1,.81,1.16,3.86,3.86,0,0,1,.28,1.45,3.33,3.33,0,0,1-.18,1.14,3.29,3.29,0,0,1-.47.87,3.2,3.2,0,0,1-.66.62,3.28,3.28,0,0,1-.77.39,3.83,3.83,0,0,1,.93.26,3,3,0,0,1,.87.57,3,3,0,0,1,.65.93,3.47,3.47,0,0,1,.25,1.38,4,4,0,0,1-1.28,3,4.34,4.34,0,0,1-1.42.87,5,5,0,0,1-1.8.32h-6.34Zm2.92,2.44v3.24h2.1a2.85,2.85,0,0,0,1.6-.36,1.88,1.88,0,0,0,.07-2.52,2.46,2.46,0,0,0-1.51-.36Zm0,9.12h2.4a3,3,0,0,0,1.93-.45,1.66,1.66,0,0,0,.51-1.31,1.44,1.44,0,0,0-.62-1.37,3.93,3.93,0,0,0-1.86-.35h-2.36Z"/><path class="cls-1" d="M194.06,248.16h3v14h-3Z"/><path class="cls-1" d="M201.76,255.16a8.83,8.83,0,0,1,.49-3,6.64,6.64,0,0,1,1.38-2.29,5.82,5.82,0,0,1,2.15-1.44,8.09,8.09,0,0,1,5.6,0,5.9,5.9,0,0,1,2.15,1.44,6.64,6.64,0,0,1,1.38,2.29,9.74,9.74,0,0,1,0,6.1,6.64,6.64,0,0,1-1.38,2.29,5.9,5.9,0,0,1-2.15,1.44,8.09,8.09,0,0,1-5.6,0,5.82,5.82,0,0,1-2.15-1.44,6.64,6.64,0,0,1-1.38-2.29A8.83,8.83,0,0,1,201.76,255.16Zm3.1,0a7.45,7.45,0,0,0,.23,2,4.33,4.33,0,0,0,.69,1.52,3.06,3.06,0,0,0,1.16,1,4,4,0,0,0,3.28,0,3.22,3.22,0,0,0,1.16-1,4.73,4.73,0,0,0,.69-1.52,8.38,8.38,0,0,0,0-3.9,4.73,4.73,0,0,0-.69-1.52,3.22,3.22,0,0,0-1.16-1,4,4,0,0,0-3.28,0,3.06,3.06,0,0,0-1.16,1,4.33,4.33,0,0,0-.69,1.52A7.45,7.45,0,0,0,204.86,255.16Z"/><path class="cls-1" d="M223.08,257.24v4.92h-3v-14h5.32a9.4,9.4,0,0,1,2.28.26,4.81,4.81,0,0,1,1.74.8,3.7,3.7,0,0,1,1.12,1.38,4.75,4.75,0,0,1,.4,2,4.87,4.87,0,0,1-.41,2.07,4.05,4.05,0,0,1-1.14,1.44,4.83,4.83,0,0,1-1.75.84,8.76,8.76,0,0,1-2.24.27Zm4.82-4.62a1.68,1.68,0,0,0-.69-1.56,4.11,4.11,0,0,0-2.09-.42h-2v4.12h2a3.6,3.6,0,0,0,2.09-.5A1.88,1.88,0,0,0,227.9,252.62Z"/><path class="cls-1" d="M235.36,248.16h3v5.54h5.3v-5.54h3v14h-3v-5.94h-5.3v5.94h-3Z"/><path class="cls-1" d="M251.94,248.16h3v14h-3Z"/><path class="cls-1" d="M260.22,248.16h3v11.5h6.12v2.5h-9.12Z"/><path class="cls-1" d="M273.54,248.16h3v14h-3Z"/><path class="cls-1" d="M294,262.16h-3.1l-1.12-3.24h-5l-1.12,3.24h-2.94l5-14h3.22Zm-6.76-10.72-.14.47c-.07.21-.14.44-.22.7s-.17.54-.27.84-.2.59-.29.87c-.23.69-.48,1.43-.74,2.22h3.38c-.27-.79-.52-1.53-.74-2.22-.15-.4-.27-.73-.35-1s-.17-.51-.24-.75-.15-.46-.21-.67a4,4,0,0,1-.14-.47Z"/></g></svg>