<svg xmlns="http://www.w3.org/2000/svg" viewBox="0 0 360 360"><defs><style>.cls-1{fill:#fff;}</style></defs><g id="BACKGROUND"><rect width="360" height="360"/></g><g id="LINE_ONE" data-name="LINE ONE"><path class="cls-1" d="M105.55,248.16h-3.1l-1.12-3.24h-5l-1.12,3.24H92.25l5-14h3.22Zm-6.76-10.72-.14.47c-.07.2-.14.44-.22.7s-.17.54-.27.84-.2.59-.29.87l-.74,2.22h3.38c-.27-.79-.52-1.53-.74-2.22-.15-.4-.27-.73-.35-1s-.17-.51-.24-.75-.15-.47-.21-.67a4.69,4.69,0,0,1-.14-.47Z"/><path class="cls-1" d="M108.41,241.16a9.12,9.12,0,0,1,.48-3.07,6.25,6.25,0,0,1,1.37-2.29,5.64,5.64,0,0,1,2.16-1.43,7.74,7.74,0,0,1,2.85-.49,6.77,6.77,0,0,1,3.76,1,5.32,5.32,0,0,1,2.16,3l-2.92,1a3.92,3.92,0,0,0-1.08-1.83,2.82,2.82,0,0,0-2-.65,3.46,3.46,0,0,0-1.62.36,3.18,3.18,0,0,0-1.16,1,4.28,4.28,0,0,0-.69,1.51,8.09,8.09,0,0,0,0,3.83,4.45,4.45,0,0,0,.69,1.51,3.21,3.21,0,0,0,1.16,1,3.51,3.51,0,0,0,1.64.36,3,3,0,0,0,1.89-.58,3.72,3.72,0,0,0,1.11-1.76l2.88,1a6.07,6.07,0,0,1-2.16,2.8,6.44,6.44,0,0,1-3.76,1,7.7,7.7,0,0,1-2.79-.49,5.86,5.86,0,0,1-2.14-1.42,6.25,6.25,0,0,1-1.37-2.29A9.26,9.26,0,0,1,108.41,241.16Z"/><path class="cls-1" d="M125,241.16a9.12,9.12,0,0,1,.48-3.07,6.25,6.25,0,0,1,1.37-2.29,5.64,5.64,0,0,1,2.16-1.43,7.74,7.74,0,0,1,2.85-.49,6.77,6.77,0,0,1,3.76,1,5.32,5.32,0,0,1,2.16,3l-2.92,1a3.92,3.92,0,0,0-1.08-1.83,2.82,2.82,0,0,0-2-.65,3.46,3.46,0,0,0-1.62.36,3.18,3.18,0,0,0-1.16,1,4.28,4.28,0,0,0-.69,1.51,8.09,8.09,0,0,0,0,3.83,4.45,4.45,0,0,0,.69,1.51,3.21,3.21,0,0,0,1.16,1,3.51,3.51,0,0,0,1.64.36,3,3,0,0,0,1.88-.58,3.65,3.65,0,0,0,1.12-1.76l2.88,1a6.07,6.07,0,0,1-2.16,2.8,6.44,6.44,0,0,1-3.76,1A7.7,7.7,0,0,1,129,248a5.86,5.86,0,0,1-2.14-1.42,6.25,6.25,0,0,1-1.37-2.29A9.26,9.26,0,0,1,125,241.16Z"/><path class="cls-1" d="M142.19,248.16v-14h9.54v2.48h-6.58v3.08h6.12v2.48h-6.12v3.48h6.68v2.48Z"/><path class="cls-1" d="M159.19,237.84a1.34,1.34,0,0,0,.77,1.29,9.58,9.58,0,0,0,2.49.67,7.91,7.91,0,0,1,3.67,1.38,3.48,3.48,0,0,1,1.17,2.86,3.92,3.92,0,0,1-.42,1.83,4.07,4.07,0,0,1-1.17,1.38,5.65,5.65,0,0,1-1.79.88,8.17,8.17,0,0,1-2.26.31,7.63,7.63,0,0,1-2.38-.35,6.29,6.29,0,0,1-1.81-.93,4.55,4.55,0,0,1-1.16-1.36,3.79,3.79,0,0,1-.45-1.62l3-.48a2.57,2.57,0,0,0,.78,1.67,2.88,2.88,0,0,0,2,.65,5.4,5.4,0,0,0,1-.1,2.61,2.61,0,0,0,.82-.33A2,2,0,0,0,164,245a1.63,1.63,0,0,0,.2-.82,1.35,1.35,0,0,0-.65-1.2,6.38,6.38,0,0,0-2.29-.68,17.16,17.16,0,0,1-2-.46,5.72,5.72,0,0,1-1.63-.77,3.6,3.6,0,0,1-1.08-1.22,3.79,3.79,0,0,1-.39-1.79,3.93,3.93,0,0,1,.4-1.84,3.62,3.62,0,0,1,1.12-1.31,4.76,4.76,0,0,1,1.7-.79,8,8,0,0,1,2.14-.26,7.71,7.71,0,0,1,2,.25,5.38,5.38,0,0,1,1.67.74,4.36,4.36,0,0,1,1.21,1.21,4.42,4.42,0,0,1,.66,1.64l-3,.66a2.45,2.45,0,0,0-.82-1.52,2.64,2.64,0,0,0-1.78-.56,2.76,2.76,0,0,0-1.69.42A1.33,1.33,0,0,0,159.19,237.84Z"/><path class="cls-1" d="M174.67,237.84a1.34,1.34,0,0,0,.78,1.29,9.25,9.25,0,0,0,2.48.67,7.82,7.82,0,0,1,3.66,1.38,3.45,3.45,0,0,1,1.17,2.86,3.8,3.8,0,0,1-.42,1.83,4,4,0,0,1-1.17,1.38,5.44,5.44,0,0,1-1.79.88,8,8,0,0,1-2.25.31,7.63,7.63,0,0,1-2.38-.35,6.1,6.1,0,0,1-1.8-.93,4.28,4.28,0,0,1-1.16-1.36,3.67,3.67,0,0,1-.46-1.62l3-.48a2.54,2.54,0,0,0,.79,1.67,2.84,2.84,0,0,0,2,.65,5.21,5.21,0,0,0,1-.1,2.58,2.58,0,0,0,.83-.33,2,2,0,0,0,.55-.57,1.63,1.63,0,0,0,.2-.82,1.34,1.34,0,0,0-.66-1.2,6.25,6.25,0,0,0-2.28-.68,17.16,17.16,0,0,1-2-.46,5.6,5.6,0,0,1-1.63-.77,3.5,3.5,0,0,1-1.08-1.22,3.79,3.79,0,0,1-.39-1.79,3.93,3.93,0,0,1,.4-1.84,3.62,3.62,0,0,1,1.12-1.31,4.76,4.76,0,0,1,1.7-.79,8,8,0,0,1,2.14-.26,7.71,7.71,0,0,1,2,.25,5.38,5.38,0,0,1,1.67.74,4.36,4.36,0,0,1,1.21,1.21,4.6,4.6,0,0,1,.66,1.64l-3,.66a2.45,2.45,0,0,0-.82-1.52,2.64,2.64,0,0,0-1.78-.56,2.82,2.82,0,0,0-1.7.42A1.34,1.34,0,0,0,174.67,237.84Z"/><path class="cls-1" d="M187.43,234.16h3v14h-3Z"/><path class="cls-1" d="M195.71,234.16h6.08a5.06,5.06,0,0,1,1.75.28,3.74,3.74,0,0,1,1.3.77,3.28,3.28,0,0,1,.81,1.16,3.82,3.82,0,0,1,.28,1.45,3.41,3.41,0,0,1-.18,1.14,3.29,3.29,0,0,1-.47.87,3.5,3.5,0,0,1-.66.62,4.29,4.29,0,0,1-.77.39,3.43,3.43,0,0,1,.93.26,3,3,0,0,1,.87.57,2.81,2.81,0,0,1,.65.93,3.47,3.47,0,0,1,.25,1.38,4.22,4.22,0,0,1-.34,1.67,4,4,0,0,1-.94,1.32,4.84,4.84,0,0,1-1.42.87,5,5,0,0,1-1.8.32h-6.34Zm2.92,2.44v3.24h2.1a2.85,2.85,0,0,0,1.6-.36,1.5,1.5,0,0,0,.52-1.3,1.47,1.47,0,0,0-.45-1.22,2.46,2.46,0,0,0-1.51-.36Zm0,9.12H201a3,3,0,0,0,1.93-.45,1.66,1.66,0,0,0,.51-1.31,1.44,1.44,0,0,0-.62-1.37,3.84,3.84,0,0,0-1.86-.35h-2.36Z"/><path class="cls-1" d="M211.21,234.16h3v14h-3Z"/><path class="cls-1" d="M219.48,234.16h3v11.5h6.12v2.5h-9.12Z"/><path class="cls-1" d="M232.8,234.16h3v14h-3Z"/><path class="cls-1" d="M240,234.16h11.11v2.5h-4v11.5h-3v-11.5h-4Z"/><path class="cls-1" d="M259.58,242.3l-5.3-8.14h3.44l3.42,5.36,3.4-5.36h3.34l-5.3,8.14v5.86h-3Z"/></g><g id="ICON"><path class="cls-1" d="M126,143.75a54,54,0,1,1,54,54A54,54,0,0,1,126,143.75Zm100.74.06a46.74,46.74,0,1,0-46.85,46.68A46.83,46.83,0,0,0,226.74,143.81Z"/><path d="M226.74,143.81A46.74,46.74,0,1,1,180.24,97,46.83,46.83,0,0,1,226.74,143.81ZM180,102.68a41.08,41.08,0,1,0,41.1,41A41,41,0,0,0,180,102.68Z"/><path class="cls-1" d="M180,102.68a41.08,41.08,0,1,1-41.06,40.86A41,41,0,0,1,180,102.68Zm-.1,48.67h.26c.11.27.23.53.32.8,2.29,6.78,4.56,13.56,6.86,20.34a3.85,3.85,0,1,0,7.29-2.48c-.59-1.78-1.16-3.56-1.8-5.32a84.23,84.23,0,0,1-5.12-28c0-1.52.42-1.84,1.89-1.39l13.13,4a3.5,3.5,0,1,0,2.24-6.63c-3.23-1.18-6.51-2.24-9.73-3.46a40.17,40.17,0,0,0-14.72-2.62,41,41,0,0,0-13.08,1.71c-4.13,1.41-8.23,2.88-12.34,4.36a3.5,3.5,0,1,0,2.27,6.62l13.13-4c1.39-.43,1.86-.1,1.84,1.37a80.89,80.89,0,0,1-3.51,23.07c-1.08,3.5-2.31,6.94-3.45,10.42a3.82,3.82,0,0,0,4.06,5.11,3.71,3.71,0,0,0,3.28-2.76q3.42-10.12,6.83-20.26C179.63,151.91,179.76,151.63,179.88,151.35Zm.15-26.48a6.48,6.48,0,1,0-6.52-6.43A6.54,6.54,0,0,0,180,124.87Z"/><path d="M179.88,151.35c-.12.28-.25.56-.35.85q-3.42,10.14-6.83,20.26a3.71,3.71,0,0,1-3.28,2.76,3.82,3.82,0,0,1-4.06-5.11c1.14-3.48,2.37-6.92,3.45-10.42a80.89,80.89,0,0,0,3.51-23.07c0-1.47-.45-1.8-1.84-1.37l-13.13,4a3.5,3.5,0,1,1-2.27-6.62c4.11-1.48,8.21-2.95,12.34-4.36a41,41,0,0,1,13.08-1.71,40.17,40.17,0,0,1,14.72,2.62c3.22,1.22,6.5,2.28,9.73,3.46a3.5,3.5,0,1,1-2.24,6.63l-13.13-4c-1.47-.45-1.9-.13-1.89,1.39a84.23,84.23,0,0,0,5.12,28c.64,1.76,1.21,3.54,1.8,5.32a3.85,3.85,0,1,1-7.29,2.48c-2.3-6.78-4.57-13.56-6.86-20.34-.09-.27-.21-.53-.32-.8Z"/><path d="M180,124.87a6.48,6.48,0,1,1,6.47-6.49A6.53,6.53,0,0,1,180,124.87Z"/></g></svg>