<svg xmlns="http://www.w3.org/2000/svg" viewBox="0 0 360 360"><defs><style>.cls-1{fill:#f1f2f2;}.cls-2{fill:#0e6e39;}.cls-3,.cls-4,.cls-5,.cls-6,.cls-7{fill:none;stroke:#0e6e39;stroke-linecap:round;}.cls-3,.cls-4,.cls-7{stroke-miterlimit:10;}.cls-3{stroke-width:5px;}.cls-4,.cls-6{stroke-width:3px;}.cls-5,.cls-6{stroke-linejoin:round;}.cls-8{fill:#0c6e39;}.cls-9{fill:#fff;}</style></defs><g id="BACKGROUND"><rect class="cls-1" x="0.35" y="-0.34" width="360" height="360"/></g><g id="LINE_ONE" data-name="LINE ONE"><path class="cls-2" d="M88.61,237.84a1.34,1.34,0,0,0,.78,1.29,9.48,9.48,0,0,0,2.48.67,7.86,7.86,0,0,1,3.67,1.38A3.48,3.48,0,0,1,96.71,244a3.92,3.92,0,0,1-.42,1.83,4.07,4.07,0,0,1-1.17,1.38,5.54,5.54,0,0,1-1.79.88,8.12,8.12,0,0,1-2.26.31,7.68,7.68,0,0,1-2.38-.35,5.87,5.87,0,0,1-1.8-.93,4.41,4.41,0,0,1-1.16-1.36,3.81,3.81,0,0,1-.46-1.62l3-.48a2.56,2.56,0,0,0,.79,1.67,2.84,2.84,0,0,0,2,.65,4.61,4.61,0,0,0,1-.1,2.43,2.43,0,0,0,.82-.33,1.76,1.76,0,0,0,.55-.57,1.63,1.63,0,0,0,.2-.82A1.35,1.35,0,0,0,93,243a6.31,6.31,0,0,0-2.29-.68,18.1,18.1,0,0,1-2-.46,5.72,5.72,0,0,1-1.63-.77A3.51,3.51,0,0,1,86,239.87a3.79,3.79,0,0,1-.39-1.79,3.93,3.93,0,0,1,.4-1.84,3.72,3.72,0,0,1,1.12-1.31,4.84,4.84,0,0,1,1.7-.79,8,8,0,0,1,2.14-.26,7.71,7.71,0,0,1,2,.25,5.28,5.28,0,0,1,1.67.74,4.36,4.36,0,0,1,1.21,1.21,4.49,4.49,0,0,1,.66,1.64l-3,.66a2.45,2.45,0,0,0-.82-1.52,2.67,2.67,0,0,0-1.78-.56,2.78,2.78,0,0,0-1.69.42A1.33,1.33,0,0,0,88.61,237.84Z"/><path class="cls-2" d="M106.89,248.44a5.58,5.58,0,0,1-4.26-1.44,5.67,5.67,0,0,1-1.34-4v-8.84h3V243a3.35,3.35,0,0,0,.64,2.11,2.73,2.73,0,0,0,3.92,0,3.35,3.35,0,0,0,.64-2.11v-8.86h3V243a5.67,5.67,0,0,1-1.34,4A5.56,5.56,0,0,1,106.89,248.44Z"/><path class="cls-2" d="M120.41,237.84a1.34,1.34,0,0,0,.78,1.29,9.48,9.48,0,0,0,2.48.67,7.86,7.86,0,0,1,3.67,1.38,3.48,3.48,0,0,1,1.17,2.86,3.92,3.92,0,0,1-.42,1.83,4.07,4.07,0,0,1-1.17,1.38,5.65,5.65,0,0,1-1.79.88,8.12,8.12,0,0,1-2.26.31,7.68,7.68,0,0,1-2.38-.35,5.87,5.87,0,0,1-1.8-.93,4.41,4.41,0,0,1-1.16-1.36,3.81,3.81,0,0,1-.46-1.62l3-.48a2.56,2.56,0,0,0,.79,1.67,2.84,2.84,0,0,0,2,.65,4.61,4.61,0,0,0,1-.1,2.52,2.52,0,0,0,.82-.33,1.76,1.76,0,0,0,.55-.57,1.63,1.63,0,0,0,.2-.82,1.35,1.35,0,0,0-.65-1.2,6.31,6.31,0,0,0-2.29-.68,18.1,18.1,0,0,1-2-.46,5.72,5.72,0,0,1-1.63-.77,3.51,3.51,0,0,1-1.08-1.22,3.79,3.79,0,0,1-.39-1.79,3.93,3.93,0,0,1,.4-1.84,3.72,3.72,0,0,1,1.12-1.31,4.84,4.84,0,0,1,1.7-.79,8,8,0,0,1,2.14-.26,7.71,7.71,0,0,1,2,.25,5.28,5.28,0,0,1,1.67.74,4.36,4.36,0,0,1,1.21,1.21,4.49,4.49,0,0,1,.66,1.64l-3,.66a2.45,2.45,0,0,0-.82-1.52,2.67,2.67,0,0,0-1.78-.56,2.78,2.78,0,0,0-1.69.42A1.33,1.33,0,0,0,120.41,237.84Z"/><path class="cls-2" d="M131.61,234.16h11.1v2.5h-4v11.5h-3v-11.5h-4Z"/><path class="cls-2" d="M157.49,248.16h-3.1l-1.12-3.24h-5l-1.12,3.24h-2.94l5-14h3.22Zm-6.76-10.72c0,.1-.07.26-.14.47s-.14.44-.22.7-.17.54-.27.84l-.29.87c-.22.69-.47,1.43-.74,2.22h3.38l-.74-2.22-.35-1c-.08-.26-.17-.51-.24-.75s-.14-.46-.21-.67l-.14-.47Z"/><path class="cls-2" d="M161.63,234.16h3v14h-3Z"/><path class="cls-2" d="M169.91,234.16H173l2.32,3.76c.44.7.8,1.29,1.08,1.75l.84,1.37.8,1.29.64,1h.06v-9.2h2.84v14h-3.12l-2.28-3.7-1.07-1.73-.85-1.38-.81-1.32c-.26-.42-.48-.78-.67-1.07h-.06v9.2h-2.84Z"/><path class="cls-2" d="M199.05,248.16H196l-1.12-3.24h-5l-1.12,3.24h-2.94l5-14H194Zm-6.76-10.72a4.69,4.69,0,0,1-.14.47c-.07.21-.14.44-.22.7s-.17.54-.27.84l-.29.87c-.22.69-.47,1.43-.74,2.22H194c-.27-.79-.51-1.53-.74-2.22-.15-.4-.26-.73-.35-1s-.17-.51-.24-.75-.14-.46-.21-.67-.11-.37-.14-.47Z"/><path class="cls-2" d="M203.19,234.16h6.08a5,5,0,0,1,1.75.28,3.65,3.65,0,0,1,1.3.77,3.28,3.28,0,0,1,.81,1.16,3.67,3.67,0,0,1,.28,1.45,3.41,3.41,0,0,1-.18,1.14,3.29,3.29,0,0,1-.47.87,3,3,0,0,1-.66.62,3.28,3.28,0,0,1-.77.39,3.24,3.24,0,0,1,.93.26,3,3,0,0,1,.87.57,2.67,2.67,0,0,1,.65.93A3.31,3.31,0,0,1,214,244a4,4,0,0,1-1.28,3,4.71,4.71,0,0,1-1.42.87,5,5,0,0,1-1.8.32h-6.34Zm2.92,2.44v3.24h2.1a2.85,2.85,0,0,0,1.6-.36,1.88,1.88,0,0,0,.07-2.52,2.44,2.44,0,0,0-1.51-.36Zm0,9.12h2.4a3,3,0,0,0,1.93-.45A1.66,1.66,0,0,0,211,244a1.44,1.44,0,0,0-.62-1.37,3.91,3.91,0,0,0-1.86-.35h-2.36Z"/><path class="cls-2" d="M218.69,234.16h3v14h-3Z"/><path class="cls-2" d="M227,234.16h3v11.5h6.12v2.5H227Z"/><path class="cls-2" d="M240.29,234.16h3v14h-3Z"/><path class="cls-2" d="M247.51,234.16h11.1v2.5h-4v11.5h-3v-11.5h-4Z"/><path class="cls-2" d="M267.07,242.3l-5.3-8.14h3.44l3.42,5.36,3.4-5.36h3.34l-5.3,8.14v5.86h-3Z"/></g><g id="ICON"><line class="cls-3" x1="127.84" y1="198" x2="232.16" y2="198"/><line class="cls-4" x1="150.02" y1="123.24" x2="150.02" y2="198"/><line class="cls-4" x1="210.66" y1="135.61" x2="210.66" y2="198"/><path class="cls-5" d="M207.3,133.06s-10.87,11.48-14.08,15.74-6.81,12-6.81,12,6.43-5.55,9.67-9.87S207.3,133.06,207.3,133.06Z"/><path class="cls-5" d="M216.22,129.27s15.37,3.67,20.67,4.32,13.81-.12,13.81-.12-8-2.79-13.38-3.44S216.22,129.27,216.22,129.27Z"/><path class="cls-5" d="M208.47,123.44s-4.5-15.15-6.59-20.06-7-11.91-7-11.91,1.6,8.34,3.72,13.31S208.47,123.44,208.47,123.44Z"/><circle class="cls-2" cx="210.66" cy="128.59" r="3.43"/><line class="cls-6" x1="180.35" y1="161.62" x2="180.35" y2="198"/><path class="cls-5" d="M183.15,158.12s7.27,6.12,9.94,7.9a48.9,48.9,0,0,0,7.46,3.67,50,50,0,0,0-6.27-5.46C191.61,162.46,183.15,158.12,183.15,158.12Z"/><path class="cls-5" d="M180.56,152.89s1.68-9.36,1.88-12.56a49.78,49.78,0,0,0-.55-8.29,50.4,50.4,0,0,0-1.6,8.16C180.09,143.4,180.56,152.89,180.56,152.89Z"/><path class="cls-5" d="M177.33,157.75s-8.94,3.23-11.81,4.65a50.26,50.26,0,0,0-6.91,4.62,50.22,50.22,0,0,0,7.86-2.69C169.35,162.9,177.33,157.75,177.33,157.75Z"/><circle class="cls-2" cx="180.35" cy="156.25" r="2.06"/><path class="cls-5" d="M151.76,110.06s6.62-15,8.28-20.21,2.47-14.08,2.47-14.08-4.34,7.64-6,13S151.76,110.06,151.76,110.06Z"/><path class="cls-5" d="M144.37,116.85s-16.26,1.74-21.64,2.94-13.43,4.89-13.43,4.89,8.78-.05,14.23-1.28S144.37,116.85,144.37,116.85Z"/><path class="cls-5" d="M153.94,119.85s9.64,13.21,13.37,17.28,10.95,9.18,10.95,9.18-4.44-7.58-8.22-11.69S153.94,119.85,153.94,119.85Z"/><circle class="cls-2" cx="150.02" cy="115.59" r="3.55"/><path class="cls-7" d="M217.94,110.44a19.61,19.61,0,0,1,11.92,14.43"/><path class="cls-7" d="M214.9,113.74a15.45,15.45,0,0,1,10.39,9.89"/><path class="cls-7" d="M215.2,105.53a23.42,23.42,0,0,1,14.93,9.89"/><path class="cls-7" d="M130.73,112.44a19.62,19.62,0,0,1,11.48-14.78"/><path class="cls-7" d="M135.25,111.07a15.47,15.47,0,0,1,10.09-10.2"/><path class="cls-7" d="M131,101.72a23.5,23.5,0,0,1,15.28-9.34"/><path class="cls-7" d="M191.33,167.66a15.84,15.84,0,0,1-6.56,3.79"/><path class="cls-7" d="M187.72,166.36a12.58,12.58,0,0,1-4.82,2.13"/><path class="cls-7" d="M191.48,171.7a18.94,18.94,0,0,1-7.94,3.32"/><rect class="cls-8" y="336.06" width="360" height="23.94"/><path class="cls-9" d="M250.45,352.49v-8.4h5.72v1.49h-4v1.84h3.67v1.49h-3.67V351h4v1.49Z"/><path class="cls-9" d="M259,344.09h1.87c.48.79.95,1.54,1.39,2.25l.65,1.05.5.83.48.77.38.62h0v-5.52H266v8.4h-1.87c-.48-.78-.93-1.52-1.37-2.22-.25-.42-.47-.76-.64-1l-.51-.83-.48-.79c-.16-.25-.29-.47-.41-.64h0v5.52H259Z"/><path class="cls-9" d="M270.44,344.09l.84,2.43c.16.46.29.84.39,1.16s.21.62.32.94l.3.92.25.79h0c.07-.23.16-.5.25-.8l.31-.95.34-1,.35-1q.39-1.17.84-2.43h1.85l-3.1,8.4h-1.83l-3.06-8.4Z"/><path class="cls-9" d="M279,344.09h1.8v8.4H279Z"/><path class="cls-9" d="M290.23,346.64a2.57,2.57,0,0,1-.43,1.53,2.48,2.48,0,0,1-1.17.87l1.93,3.45h-2l-1.74-3.18h-1.11v3.18h-1.79v-8.4H287a5.47,5.47,0,0,1,1.33.15,2.84,2.84,0,0,1,1,.46,2.08,2.08,0,0,1,.65.79A2.71,2.71,0,0,1,290.23,346.64Zm-1.85,0a.91.91,0,0,0-.39-.85,2.32,2.32,0,0,0-1.18-.23h-1.08v2.26h1.08a2.1,2.1,0,0,0,1.18-.27A1,1,0,0,0,288.38,346.66Z"/><path class="cls-9" d="M292.9,348.29a5.24,5.24,0,0,1,.3-1.83,3.83,3.83,0,0,1,.83-1.38,3.52,3.52,0,0,1,1.29-.86,4.49,4.49,0,0,1,1.68-.3,4.56,4.56,0,0,1,1.68.3,3.7,3.7,0,0,1,1.29.86,4,4,0,0,1,.82,1.38,5.73,5.73,0,0,1,0,3.66,3.82,3.82,0,0,1-.82,1.37,3.59,3.59,0,0,1-1.29.87,4.56,4.56,0,0,1-1.68.3,4.49,4.49,0,0,1-1.68-.3,3.42,3.42,0,0,1-1.29-.87,3.7,3.7,0,0,1-.83-1.37A5.24,5.24,0,0,1,292.9,348.29Zm1.86,0a4.81,4.81,0,0,0,.14,1.17,2.54,2.54,0,0,0,.42.91,1.88,1.88,0,0,0,.69.59,2.42,2.42,0,0,0,2,0,2,2,0,0,0,.7-.59,2.72,2.72,0,0,0,.41-.91,4.81,4.81,0,0,0,.14-1.17,4.69,4.69,0,0,0-.14-1.17,2.63,2.63,0,0,0-.41-.91,1.89,1.89,0,0,0-.7-.59,2.42,2.42,0,0,0-2,0,1.79,1.79,0,0,0-.69.59,2.47,2.47,0,0,0-.42.91A4.69,4.69,0,0,0,294.76,348.29Z"/><path class="cls-9" d="M303.91,344.09h1.87l1.39,2.25.65,1.05.5.83.48.77.39.62h0v-5.52h1.71v8.4h-1.88l-1.36-2.22-.65-1-.51-.83-.48-.79-.4-.64h0v5.52h-1.7Z"/><path class="cls-9" d="M317.79,352.49q-.18-.5-.45-1.29c-.18-.53-.36-1.09-.56-1.66s-.38-1.14-.55-1.7-.33-1-.44-1.39h0v6H314.1v-8.4h2.51c.35,1,.66,2,.94,2.82l.42,1.24c.1.32.2.62.3.91l.25.78c.07.23.13.4.16.5l.15-.5c.08-.24.16-.51.26-.83l.33-1c.11-.36.23-.72.35-1.08q.41-1.29.9-2.82h2.51v8.4h-1.66v-6h0l-.29.9c-.11.34-.23.71-.37,1.11s-.26.79-.4,1.19-.26.79-.38,1.15l-.33,1c-.1.3-.19.53-.25.7Z"/><path class="cls-9" d="M326.35,352.49v-8.4h5.72v1.49h-3.95v1.84h3.67v1.49h-3.67V351h4v1.49Z"/><path class="cls-9" d="M334.91,344.09h1.88c.48.79.95,1.54,1.39,2.25l.65,1.05c.16.28.33.55.5.83l.48.77.38.62h0v-5.52h1.7v8.4h-1.87c-.48-.78-.93-1.52-1.37-2.22-.25-.42-.47-.76-.64-1l-.51-.83-.48-.79c-.16-.25-.29-.47-.41-.64h0v5.52h-1.71Z"/><path class="cls-9" d="M344.47,344.09h6.66v1.5H348.7v6.9h-1.81v-6.9h-2.42Z"/></g></svg>